<?xml version="1.0" encoding="utf-8"?>
<svg version="1.1" xmlns="http://www.w3.org/2000/svg" xmlns:xlink="http://www.w3.org/1999/xlink" height="39.60728816905748" width="40.005476616572196">
  <defs>
    <ellipse id="ellipse-0" opacity="1" rx="20.002738308286077" ry="19.803644084528813" cx="20.002738308286077" cy="19.803644084528813"/>
    <linearGradient id="linearGradient-1" x1="0.5" y1="0" x2="0.5" y2="1">
      <stop offset="0" stop-color="rgb(102,43,247)" stop-opacity="1"/>
      <stop offset="1" stop-color="rgb(51,194,255)" stop-opacity="1"/>
    </linearGradient>
    <mask id="mask-2" maskUnits="userSpaceOnUse" maskContentUnits="userSpaceOnUse">
      <rect opacity="1" x="0" y="0" width="40.005476616572196" height="39.60728816905748" fill="black"/>
      <use xlink:href="#ellipse-0" fill="white"/>
    </mask>
    <path id="path-3" opacity="1" d="M19.800928641247594,21.43006718984816 C19.94826061993541,21.43006718984816 20.06817657939456,21.548183456018933 20.06817657939456,21.693389555830436 L20.06817657939456,28.35775646878642 L17.62993718091002,28.35775646878642 L17.62993718091002,21.693389555830436 C17.62993718091002,21.548183456018933 17.749814307480733,21.43006718984816 17.897185119056985,21.43006718984816 L19.800928641247594,21.43006718984816ZM25.95520363187063,15.909212661336824 C26.102574443446883,15.909212661336824 26.222451570017597,16.027328927507597 26.222451570017597,16.1725350273191 L26.222451570017597,28.35775646878659 L23.784212171533,28.35775646878659 L23.784212171533,16.1725350273191 C23.784212171533,16.027328927507597 23.904089298103713,15.909212661336824 24.051460109679965,15.909212661336824 L25.95520363187063,15.909212661336824ZM13.646653650625524,24.6430056370873 C13.794024462201719,24.6430056370873 13.913901588772433,24.761121903258072 13.913901588772433,24.906328003069575 L13.913901588772433,28.357756468786647 L11.475662190287949,28.357756468786647 L11.475662190287949,24.906328003069575 C11.475662190287949,24.761121903258072 11.595539316858662,24.6430056370873 11.742910128434914,24.6430056370873 L13.646653650625524,24.6430056370873ZM24.05146010968025,15.143963123463209 C23.475840204543317,15.143963123463209 23.007554403015604,15.605408594800963 23.007554403015604,16.172535027318986 L23.007554403015604,28.357756468786476 L20.84487318080113,28.357756468786476 L20.84487318080113,21.69338955583055 C20.84487318080113,21.126224860835578 20.37658737927336,20.664817651974772 19.800967474136428,20.664817651974772 L17.89722395194582,20.664817651974772 C17.321604046808886,20.664817651974772 16.853318245281116,21.12626312331247 16.853318245281116,21.69338955583055 L16.853318245281116,28.357756468786476 L14.6906370230667,28.357756468786476 L14.6906370230667,24.906328003069348 C14.6906370230667,24.339163308074433 14.222312388650494,23.87775609921357 13.646731316401997,23.87775609921357 L11.742948961322952,23.87775609921357 C11.16732905618602,23.87775609921357 10.69904325465825,24.339201570551324 10.69904325465825,24.906328003069348 L10.69904325465825,28.357756468786476 L9.801382205805453,28.357756468786476 C9.586908163029307,28.357756468786476 9.413053321546613,28.529057577839467 9.413053321546613,28.740381237723227 C9.413053321546613,28.951704897606987 9.586908163029307,29.123006006659978 9.801382205805453,29.123006006659978 L27.850831080380544,29.123006006659978 C28.06530512315669,29.123006006659978 28.239159964639384,28.951704897606987 28.239159964639384,28.740381237723227 C28.239159964639384,28.529057577839467 28.06530512315669,28.357756468786476 27.850831080380544,28.357756468786476 L26.99910933853556,28.357756468786476 L26.99910933853556,16.172535027318986 C26.99910933853556,15.605370332324014 26.530784704119412,15.143963123463209 25.955203631870916,15.143963123463209 L24.05146010968025,15.143963123463209Z"/>
    <linearGradient id="linearGradient-4" x1="0.5" y1="0" x2="0.5" y2="1">
      <stop offset="0" stop-color="rgb(102,43,247)" stop-opacity="1"/>
      <stop offset="1" stop-color="rgb(51,194,255)" stop-opacity="1"/>
    </linearGradient>
    <path id="path-5" opacity="1" d="M27.061605249352183,9.71535898848372 C27.066989708231134,9.612594059415976 27.03006770448977,9.508096925607624 26.94991618803457,9.429620519533174 C26.869764671579368,9.351144113458723 26.763037004514505,9.314956097029956 26.658078516795577,9.320265681126164 C26.651886389084787,9.320002084752595 26.645771182215128,9.319361922131066 26.639463673242645,9.319361922131066 L24.312608229125747,9.319361922131066 C24.10019132635124,9.319361922131066 23.92800402348659,9.487950631341871 23.92800402348659,9.695928170089086 C23.92800402348659,9.9039057088363 24.10019132635124,10.072494418047105 24.312608229125747,10.072494418047105 L25.749374160131943,10.072494418047105 L21.947292364444934,13.795153032110502 L20.51348788582216,12.391314059723003 C20.44137459726482,12.320707888230874 20.343531287350217,12.281017805696099 20.24153425201471,12.281017805696099 C20.139537216679205,12.281017805696099 20.041693906764603,12.320707888230874 19.96958061820726,12.391314059723003 L13.055589273852705,19.160845499264333 C12.905401331550616,19.30789461909194 12.905401331550616,19.546336367298956 13.055589273852705,19.69342314375136 C13.130702475214033,19.76689121872797 13.229122691437095,19.80364408452867 13.327542907660154,19.80364408452867 C13.425963123883214,19.80364408452867 13.524421800526838,19.76689121872797 13.599496541467602,19.69334783050177 L20.24153425201471,13.190086384891554 L21.675338730637485,14.593925357279055 C21.825526672939574,14.740974477106661 22.06905805595029,14.740974477106661 22.219284458672945,14.593925357279055 L26.293319888167403,10.605072062534134 L26.293319888167403,11.8782425468802 C26.293319888167403,12.086220085627414 26.465507191032053,12.25480879483822 26.67792409380656,12.25480879483822 C26.890340996581067,12.25480879483822 27.062528299445717,12.086220085627414 27.062528299445717,11.8782425468802 L27.062528299445717,9.733584794884887 C27.062528299445717,9.727446765043172 27.061874472296125,9.721459361700639 27.061605249352183,9.71535898848372Z"/>
    <linearGradient id="linearGradient-6" x1="0.5" y1="0" x2="0.5" y2="1">
      <stop offset="0" stop-color="rgb(102,43,247)" stop-opacity="1"/>
      <stop offset="1" stop-color="rgb(51,194,255)" stop-opacity="1"/>
    </linearGradient>
    <ellipse id="ellipse-7" opacity="1" rx="0.588315832596642" ry="0.5824601201331987" cx="12.354632484529908" cy="20.38610420466194"/>
    <linearGradient id="linearGradient-8" x1="0.5" y1="0" x2="0.5" y2="1">
      <stop offset="0" stop-color="rgb(102,43,247)" stop-opacity="1"/>
      <stop offset="1" stop-color="rgb(51,194,255)" stop-opacity="1"/>
    </linearGradient>
  </defs>
  <g opacity="1">
    <g opacity="1">
      <use xlink:href="#ellipse-0" fill-opacity="0" stroke="url(#linearGradient-1)" stroke-opacity="1" stroke-width="4" mask="url(#mask-2)"/>
    </g>
    <g opacity="1">
      <g opacity="1">
        <use xlink:href="#path-3" fill="url(#linearGradient-4)" fill-opacity="1"/>
        <use xlink:href="#path-3" fill-opacity="0" stroke="rgb(250,250,250)" stroke-opacity="0" stroke-width="1"/>
      </g>
      <g opacity="1">
        <use xlink:href="#path-5" fill="url(#linearGradient-6)" fill-opacity="1"/>
        <use xlink:href="#path-5" fill-opacity="0" stroke="rgb(250,250,250)" stroke-opacity="0" stroke-width="1"/>
      </g>
      <g opacity="1">
        <use xlink:href="#ellipse-7" fill="url(#linearGradient-8)" fill-opacity="1"/>
        <use xlink:href="#ellipse-7" fill-opacity="0" stroke="rgb(250,250,250)" stroke-opacity="0" stroke-width="1"/>
      </g>
    </g>
  </g>
</svg>