<?xml version="1.0" encoding="utf-8"?>
<svg version="1.1" xmlns="http://www.w3.org/2000/svg" xmlns:xlink="http://www.w3.org/1999/xlink" height="47.664193005442485" width="48.39046043315375">
  <defs>
    <ellipse id="ellipse-0" opacity="1" rx="24.19523021657681" ry="23.83209650272125" cx="24.19523021657681" cy="23.83209650272125"/>
    <mask id="mask-1" maskUnits="userSpaceOnUse" maskContentUnits="userSpaceOnUse">
      <rect opacity="1" x="0" y="0" width="48.39046043315375" height="47.664193005442485" fill="black"/>
      <use xlink:href="#ellipse-0" fill="white"/>
    </mask>
    <path id="path-2" opacity="1" d="M23.95112207104785,25.78936619686283 C24.129334228187304,25.78936619686283 24.274384080914388,25.931509644902462 24.274384080914388,26.10625353389173 L24.274384080914388,34.1262843282841 L21.325099704933564,34.1262843282841 L21.325099704933564,26.10625353389173 C21.325099704933564,25.931509644902462 21.47010258555804,25.78936619686283 21.648361714800103,25.78936619686283 L23.95112207104785,25.78936619686283ZM31.395307857979333,19.145460795444706 C31.573566987221398,19.145460795444706 31.718569867845872,19.28760424348434 31.718569867845872,19.462348132473608 L31.718569867845872,34.12628432828478 L28.76928549186505,34.12628432828478 L28.76928549186505,19.462348132473608 C28.76928549186505,19.28760424348434 28.914288372489523,19.145460795444706 29.092547501731588,19.145460795444706 L31.395307857979333,19.145460795444706ZM16.50693628411807,29.655879794314842 C16.685195413360134,29.655879794314842 16.83019829398461,29.798023242354475 16.83019829398461,29.972767131343744 L16.83019829398461,34.12628432828569 L13.880913918003898,34.12628432828569 L13.880913918003898,29.972767131343744 C13.880913918003898,29.798023242354475 14.025916798628373,29.655879794314842 14.204175927870438,29.655879794314842 L16.50693628411807,29.655879794314842ZM29.092547501731474,18.224544384434466 C28.396280025379838,18.224544384434466 27.829843440523632,18.77985698027419 27.829843440523632,19.462348132474517 L27.829843440523632,34.126284328285465 L25.213873104358754,34.126284328285465 L25.213873104358754,26.106253533893096 C25.213873104358754,25.423716335872086 24.647436519502435,24.868449785853045 23.951169043150912,24.868449785853045 L21.648408686903167,24.868449785853045 C20.95214121055153,24.868449785853045 20.385704625695325,25.423762381692768 20.385704625695325,26.106253533893096 L20.385704625695325,34.126284328285465 L17.769734289530334,34.126284328285465 L17.769734289530334,29.972767131343517 C17.769734289530334,29.290229933322507 17.20325073257152,28.734963383303466 16.507030228322492,28.734963383303466 L14.204222899972137,28.734963383303466 C13.507955423620615,28.734963383303466 12.94151883876441,29.29027597914319 12.94151883876441,29.972767131343517 L12.94151883876441,34.126284328285465 L11.8557117158241,34.126284328285465 C11.596284793346172,34.126284328285465 11.385990690153449,34.332431466890284 11.385990690153449,34.58674253379104 C11.385990690153449,34.841053600691566 11.596284793346172,35.047200739296386 11.8557117158241,35.047200739296386 L33.68825104479049,35.047200739296386 C33.94767796726842,35.047200739296386 34.15797207046114,34.841053600691566 34.15797207046114,34.58674253379104 C34.15797207046114,34.332431466890284 33.94767796726842,34.126284328285465 33.68825104479049,34.126284328285465 L32.65801191918706,34.126284328285465 L32.65801191918706,19.462348132474517 C32.65801191918706,18.779810934453508 32.091528362228246,18.224544384434466 31.39530785797922,18.224544384434466 L29.092547501731474,18.224544384434466Z"/>
    <path id="path-3" opacity="1" d="M32.73360671658462,11.691654928953534 C32.74011973596026,11.567985583242 32.695459031670126,11.442231668126755 32.59850808610693,11.34779161079336 C32.501557140543746,11.253351553459963 32.37245979220505,11.209802179612845 32.24550243594692,11.216191838002485 C32.23801246366493,11.215874620919312 32.23061553451687,11.215104236574462 32.22298599753398,11.215104236574462 L29.408431195915536,11.215104236574462 C29.1514925815463,11.215104236574462 28.94321552622654,11.417987219627058 28.94321552622654,11.668271498251023 C28.94321552622654,11.918555776874989 29.1514925815463,12.121438759927587 29.408431195915536,12.121438759927587 L31.146337373172727,12.121438759927587 L26.547354827328196,16.601359675409746 L24.81303081072761,14.911952123879523 C24.725802872660925,14.826983262315167 24.607452006292043,14.779219432934458 24.484076810690517,14.779219432934458 C24.360701615089,14.779219432934458 24.242350748720114,14.826983262315167 24.155122810653427,14.911952123879523 L15.791987238221271,23.058539987039083 C15.610320519207717,23.235501802723782 15.610320519207717,23.522447312817384 15.791987238221271,23.69945444522825 C15.882843858511533,23.787867377981346 16.001892548384948,23.83209650272098 16.12094123825836,23.83209650272098 C16.239989928131777,23.83209650272098 16.35908513957216,23.787867377981346 16.449895238295454,23.699363811775914 L24.484076810690517,15.873210519347847 L26.218400827291106,17.56261807087807 C26.400067546304655,17.73957988656277 26.694642108351733,17.73957988656277 26.876355348932254,17.56261807087807 L31.80429189481388,12.762353218116749 L31.80429189481388,14.294511729845206 C31.80429189481388,14.544796008469172 32.01256895013364,14.747678991521768 32.269507564502874,14.747678991521768 C32.526446178872106,14.747678991521768 32.734723234191875,14.544796008469172 32.734723234191875,14.294511729845206 L32.734723234191875,11.71358822441868 C32.734723234191875,11.706201598053353 32.7339323675534,11.698996238592695 32.73360671658462,11.691654928953534Z"/>
    <ellipse id="ellipse-4" opacity="1" rx="0.711624418134555" ry="0.7009440147859163" cx="14.944112780827048" cy="24.533040517507388"/>
  </defs>
  <g opacity="1">
    <g opacity="1">
      <use xlink:href="#ellipse-0" fill-opacity="0" stroke="rgb(255,255,255)" stroke-opacity="1" stroke-width="4" mask="url(#mask-1)"/>
    </g>
    <g opacity="1">
      <g opacity="1">
        <use xlink:href="#path-2" fill="rgb(255,255,255)" fill-opacity="1"/>
        <use xlink:href="#path-2" fill-opacity="0" stroke="rgb(250,250,250)" stroke-opacity="0" stroke-width="1"/>
      </g>
      <g opacity="1">
        <use xlink:href="#path-3" fill="rgb(255,255,255)" fill-opacity="1"/>
        <use xlink:href="#path-3" fill-opacity="0" stroke="rgb(250,250,250)" stroke-opacity="0" stroke-width="1"/>
      </g>
      <g opacity="1">
        <use xlink:href="#ellipse-4" fill="rgb(255,255,255)" fill-opacity="1"/>
        <use xlink:href="#ellipse-4" fill-opacity="0" stroke="rgb(250,250,250)" stroke-opacity="0" stroke-width="1"/>
      </g>
    </g>
  </g>
</svg>