<?xml version="1.0" encoding="utf-8"?>
<svg version="1.1" xmlns="http://www.w3.org/2000/svg" xmlns:xlink="http://www.w3.org/1999/xlink" height="47.664193005442485" width="48.39046043315375">
  <defs>
    <path id="path-0" opacity="1" d="M17.472529412875815,15.321434469726228 C18.400214609089403,15.321434469726228 19.386292425574425,15.569965090365486 20.437070618888583,15.839519161476346 C21.536155029533234,16.116008113089265 22.670693776005123,16.39249706470241 23.91159552995873,16.496180421557256 L24.443410567367437,16.496180421557256 C25.719766657148284,16.39249706470241 26.854305403620174,16.116008113089265 27.953389814264824,15.839519161476346 C29.00716970066844,15.582711276396367 29.99587903113172,15.336475258722885 30.925879773714883,15.336475258722885 C32.37390359728113,15.336475258722885 33.67960069523974,15.933423122528666 34.86698530057777,18.01686965542922 C35.46970900964095,19.05370322397812 35.96606971122242,20.40158686309178 36.356067405322165,21.922276096963515 C36.74606509942191,23.51208756873848 37.02969978603983,25.1710212784169 37.10060845769431,26.691710512288637 C37.171517129348786,28.28152198406383 37.02969978603983,29.352916671564344 36.71061076359456,30.078700169548483 C36.49788474863112,30.56255583487132 36.21425006201321,30.839044786484465 35.8597067037407,30.94272814333931 C35.73896956394219,30.974826876590214 35.60803833804766,30.990363506600943 35.46796500218977,30.990363506600943 C35.15558205093839,30.990363506600715 34.79773065017082,30.913091795789114 34.406078934823654,30.769922548581235 C33.16517718086993,30.2860668832584 31.711549411952888,29.214672195757885 30.29337597886297,27.90134967559584 C28.946111217427642,26.588027155433792 26.570670717002145,25.931365895352883 24.195230216576647,25.931365895352883 C21.81978971615115,25.931365895352883 19.44434921572565,26.588027155433792 18.061630118463086,27.83222743769261 C16.608002349545927,29.145549957854428 15.154374580628883,30.251505764306785 13.948927162502514,30.700800310678005 C13.559700579425453,30.843083044823743 13.203857019503062,30.93655279429663 12.89284920753289,30.93655279429663 C12.750585803613717,30.93655279429663 12.617703811819524,30.916995225145456 12.495299393585356,30.87360590543608 C12.140756035312961,30.769922548581235 11.857121348694932,30.49343359696809 11.644395333731495,30.009577931645254 C11.360760647113466,29.352916671564344 11.218943303804508,28.28152198406383 11.289851975458987,26.691710512288637 C11.360760647113466,25.205582397368516 11.608940997904256,23.51208756873848 12.034393027831243,21.922276096963515 C12.424390721930877,20.436147982043394 12.920751423512343,19.05370322397812 13.523475132575527,18.01686965542922 C14.713032015807244,15.929611531216324 16.02133468463694,15.321434469726228 17.472529412875815,15.321434469726228 L17.472529412875815,15.321434469726228ZM31.130764367695747,14.01888029571819 C30.031537465323368,14.01888029571819 28.872055282741144,14.311663420408877 27.634300791819896,14.629879998169145 C26.606125052829725,14.871807830830448 25.507040642185075,15.148296782443595 24.372501895713185,15.251980139298439 L24.01795853744079,15.251980139298439 C22.8834197909689,15.148296782443595 21.78433538032425,14.871807830830448 20.75615964133408,14.629879998169145 C19.519936304673593,14.325299689777012 18.361791743868253,14.03594172187968 17.263775711570247,14.03594172187968 C15.49614607301885,14.03594172187968 13.88434452998365,14.785837024146076 12.353482050276853,17.42933063325131 C11.715304005386429,18.569847558655056 11.148034632150484,20.055975673575404 10.758036938050736,21.64578714535037 C10.33258490812375,23.304720855028563 10.048950221505834,25.06733792156183 9.978041549851355,26.657149393337022 C9.907132878196876,28.41976645987006 10.084404557333073,29.698527861080493 10.47440225143282,30.597116953822933 C10.864399945532455,31.426583808662144 11.4316693187684,31.945000592936594 12.176210371140542,32.15236730664628 C12.410950527040654,32.212584738906116 12.65860642836003,32.2434246801522 12.916177581872262,32.2434246801522 C13.39775678241574,32.2434246801522 13.913997276147256,32.13561579898146 14.445287864084321,31.91043947398498 C15.828006961346887,31.357461570758915 17.423452073573003,30.182383526403328 18.98344284997188,28.765377649386437 C20.082527260616416,27.728544080837537 22.13887873859676,27.210127296563087 24.195230216576988,27.210127296563087 C26.251581694557217,27.210127296563087 28.30793317253756,27.728544080837537 29.40701758318221,28.765377649386437 C30.967008359580973,30.182383526403328 32.56245347180709,31.357461570758915 33.945172569069655,31.91043947398498 C34.49497699912763,32.120160198301164 35.028664160586914,32.23561360818826 35.524500412696966,32.23561360818826 C35.76407026654147,32.23561360818826 35.9948039496046,32.20866138789552 36.214250062013434,32.15236730664628 C36.92333677855834,31.945000592936594 37.52606048762152,31.46114492761376 37.91605818172127,30.56255583487132 C38.3060558758209,29.698527861080493 38.483327554957214,28.41976645987006 38.41241888330262,26.622588274385407 C38.34151021164814,25.032776802610215 38.05787552503023,23.27015973607695 37.63242349510324,21.611226026398754 C37.20697146517625,20.02141455462356 36.67515642776766,18.53528643970344 36.03697838287724,17.394769514299696 C34.50729371414013,14.77461184427034 32.89679447953324,14.01888029571819 31.130764367695747,14.01888029571819 L31.130764367695747,14.01888029571819Z"/>
    <ellipse id="ellipse-1" opacity="1" rx="24.195230216576803" ry="23.83209650272125" cx="24.195230216576803" cy="23.83209650272125"/>
    <mask id="mask-2" maskUnits="userSpaceOnUse" maskContentUnits="userSpaceOnUse">
      <rect opacity="1" x="0" y="0" width="48.39046043315375" height="47.664193005442485" fill="black"/>
      <use xlink:href="#ellipse-1" fill="white"/>
    </mask>
    <path id="path-3" opacity="1" d="M17.09813288056148,18.18665551876984 C17.327895024533177,18.18665551876984 17.519363477842944,18.262433250097956 17.672538240490667,18.413988712754417 C17.672538240490667,18.413988712754417 17.672538240490667,18.413988712754417 17.71083193115271,18.45187757841859 C17.825713003138503,18.60343304107505 17.902300384462478,18.792877369395455 17.902300384462478,18.98232169771609 L17.902300384462478,19.51276581701336 C17.902300384462478,19.8916544736544 18.208649909758037,20.232654264631492 18.629880507039502,20.232654264631492 L19.165992176306872,20.232654264631492 C19.39575432027857,20.232654264631492 19.587222773588337,20.30843199595961 19.74039753623606,20.45998745861607 C19.893572298883896,20.61154292127253 19.970159680207757,20.800987249592936 19.970159680207757,21.028320443577513 C19.970159680207757,21.255653637562318 19.893572298883896,21.445097965882724 19.74039753623606,21.596653428539184 C19.587222773588337,21.748208891195645 19.39575432027857,21.823986622523762 19.165992176306872,21.823986622523762 L18.629880507039502,21.823986622523762 C18.246943600419968,21.823986622523762 17.902300384462478,22.127097547836684 17.902300384462478,22.543875070141667 L17.902300384462478,23.036430323774994 C17.902300384462478,23.2637635177598 17.825713003138503,23.453207846080204 17.672538240490667,23.604763308736665 C17.519363477842944,23.756318771393126 17.327895024533177,23.832096502721242 17.09813288056148,23.832096502721242 C16.86837073658978,23.832096502721242 16.676902283280015,23.756318771393126 16.52372752063218,23.604763308736665 C16.370552757984342,23.453207846080204 16.29396537666048,23.2637635177598 16.29396537666048,23.036430323774994 L16.29396537666048,22.505986204477722 C16.29396537666048,22.127097547836684 15.987615851364808,21.78609775685959 15.566385254083343,21.78609775685959 L15.030273584816086,21.78609775685959 C14.800511440844389,21.78609775685959 14.609042987534622,21.710320025531473 14.455868224886785,21.558764562875012 C14.340987152900993,21.445097965882724 14.226106080915088,21.255653637562318 14.226106080915088,21.028320443577513 C14.226106080915088,20.800987249592936 14.302693462238949,20.61154292127253 14.455868224886785,20.45998745861607 C14.455868224886785,20.45998745861607 14.455868224886785,20.45998745861607 14.494161915548716,20.422098592951897 C14.647336678196552,20.30843199595961 14.83880513150632,20.232654264631492 15.030273584816086,20.232654264631492 L15.566385254083343,20.232654264631492 C15.949322160702877,20.232654264631492 16.29396537666048,19.92954333931857 16.29396537666048,19.51276581701336 L16.29396537666048,18.98232169771609 C16.29396537666048,18.754988503731283 16.370552757984342,18.565544175410878 16.52372752063218,18.413988712754417 C16.676902283280015,18.262433250097956 16.86837073658978,18.18665551876984 17.09813288056148,18.18665551876984 L17.09813288056148,18.18665551876984ZM17.098132880561593,16.82265635486192 C16.48543382997036,16.82265635486192 15.91102847004106,17.08787841451067 15.528091563421526,17.466767071151708 C15.183448347464036,17.807766862128574 14.915392512830294,18.3003221157619 14.877098822168364,18.8307662350594 C14.340987152901107,18.868655100723572 13.881462864957598,19.09598829470815 13.498525958338064,19.436988085685016 L13.460232267676133,19.474876951349188 C13.039001670394669,19.8916544736544 12.80923952642297,20.42209859295167 12.80923952642297,21.028320443577513 C12.80923952642297,21.63454229420313 13.0772953610566,22.202875279164573 13.460232267676133,22.58176393580561 C13.843169174295667,22.96065259244665 14.302693462239063,23.187985786431227 14.877098822168364,23.2258746520954 C14.915392512830294,23.7563187713929 15.145154656802106,24.248874025026225 15.528091563421526,24.58987381600309 C15.949322160703105,25.006651338308302 16.48543382997036,25.23398453229288 17.098132880561593,25.23398453229288 C17.710831931152825,25.23398453229288 18.285237291082126,24.96876247264413 18.66817419770166,24.58987381600309 C19.012817413659263,24.210985159362053 19.28087324829289,23.7563187713929 19.319166938954822,23.2258746520954 C19.855278608222193,23.187985786431227 20.35309658682752,22.96065259244665 20.697739802785122,22.58176393580561 C21.118970400066587,22.16498641350063 21.348732544038285,21.63454229420313 21.348732544038285,21.028320443577513 C21.348732544038285,20.42209859295167 21.080676709404656,19.853765607990226 20.697739802785122,19.474876951349188 C20.314802896165588,19.13387716037232 19.855278608222193,18.868655100723572 19.319166938954822,18.8307662350594 C19.28087324829289,18.338210981426073 19.051111104321194,17.845655727792746 18.70646788836359,17.50465593681588 L18.66817419770166,17.466767071151708 C18.246943600420195,17.049989548846497 17.710831931152825,16.82265635486192 17.098132880561593,16.82265635486192 L17.098132880561593,16.82265635486192Z"/>
    <ellipse id="ellipse-4" opacity="1" rx="1.4232488362692095" ry="1.4018880295718352" cx="31.311474397922808" cy="18.224544384433756"/>
    <linearGradient id="linearGradient-5" x1="0.5" y1="0" x2="0.5" y2="1">
      <stop offset="0" stop-color="rgb(102,43,247)" stop-opacity="1"/>
      <stop offset="1" stop-color="rgb(51,194,255)" stop-opacity="1"/>
    </linearGradient>
    <ellipse id="ellipse-6" opacity="1" rx="1.4232488362692095" ry="1.4018880295718343" cx="31.311474397922808" cy="23.832096502722578"/>
    <linearGradient id="linearGradient-7" x1="0.5" y1="0" x2="0.5" y2="1">
      <stop offset="0" stop-color="rgb(102,43,247)" stop-opacity="1"/>
      <stop offset="1" stop-color="rgb(51,194,255)" stop-opacity="1"/>
    </linearGradient>
    <ellipse id="ellipse-8" opacity="1" rx="1.423248836269238" ry="1.4018880295718361" cx="28.4649767253847" cy="21.02832044357703"/>
    <linearGradient id="linearGradient-9" x1="0.5" y1="0" x2="0.5" y2="1">
      <stop offset="0.01" stop-color="rgb(102,43,247)" stop-opacity="1"/>
      <stop offset="1" stop-color="rgb(51,194,255)" stop-opacity="1"/>
    </linearGradient>
    <ellipse id="ellipse-10" opacity="1" rx="1.4232488362692237" ry="1.4018880295718361" cx="33.944319132696975" cy="21.02832044357703"/>
    <linearGradient id="linearGradient-11" x1="0.5" y1="0" x2="0.5" y2="1">
      <stop offset="0" stop-color="rgb(102,43,247)" stop-opacity="1"/>
      <stop offset="0.99" stop-color="rgb(51,194,255)" stop-opacity="1"/>
    </linearGradient>
  </defs>
  <g opacity="1">
    <g opacity="1">
      <use xlink:href="#path-0" fill="rgb(255,255,255)" fill-opacity="1"/>
    </g>
    <g opacity="1">
      <use xlink:href="#ellipse-1" fill-opacity="0" stroke="rgb(255,255,255)" stroke-opacity="1" stroke-width="4" mask="url(#mask-2)"/>
    </g>
    <g opacity="1">
      <use xlink:href="#path-3" fill="rgb(255,255,255)" fill-opacity="1"/>
    </g>
    <g opacity="1">
      <use xlink:href="#ellipse-4" fill="url(#linearGradient-5)" fill-opacity="1"/>
      <use xlink:href="#ellipse-4" fill="rgb(255,255,255)" fill-opacity="1"/>
    </g>
    <g opacity="1">
      <use xlink:href="#ellipse-6" fill="url(#linearGradient-7)" fill-opacity="1"/>
      <use xlink:href="#ellipse-6" fill="rgb(255,255,255)" fill-opacity="1"/>
    </g>
    <g opacity="1">
      <use xlink:href="#ellipse-8" fill="url(#linearGradient-9)" fill-opacity="1"/>
      <use xlink:href="#ellipse-8" fill="rgb(255,255,255)" fill-opacity="1"/>
    </g>
    <g opacity="1">
      <use xlink:href="#ellipse-10" fill="url(#linearGradient-11)" fill-opacity="1"/>
      <use xlink:href="#ellipse-10" fill="rgb(255,255,255)" fill-opacity="1"/>
    </g>
  </g>
</svg>