<?xml version="1.0" encoding="utf-8"?>
<svg version="1.1" xmlns="http://www.w3.org/2000/svg" xmlns:xlink="http://www.w3.org/1999/xlink" height="39.60728816905748" width="40.005476616572196">
  <defs>
    <path id="path-0" opacity="1" d="M14.444931100102849,12.731579660574425 C15.211869213368573,12.731579660574425 16.02708181263705,12.938099970471796 16.895783661421945,13.162090037195696 C17.804421341165096,13.391842748646184 18.742369913803145,13.621595460096671 19.76825116512606,13.70775272689059 L20.207914558550158,13.70775272689059 C21.26310670276797,13.621595460096671 22.201055275406077,13.391842748646184 23.109692955149228,13.162090037195696 C23.980876370788963,12.948691608163585 24.798264501556446,12.744078033598726 25.567116928827716,12.744078033598726 C26.764230630482643,12.744078033598726 27.84367964281165,13.240120965888764 28.825317069662503,14.971392639868156 C29.323602248876455,15.832965307807399 29.733954749405655,16.953009776128454 30.05637457124999,18.21664968910602 C30.378794393094324,19.53772777994618 30.61328153625385,20.91624404864899 30.671903322043704,22.179883961626558 C30.730525107833614,23.50096205246672 30.61328153625385,24.391253809337286 30.34948350019937,24.994354676894773 C30.173618142829753,25.396421921933097 29.939130999670226,25.626174633383584 29.64602207072079,25.712331900177503 C29.54620597515725,25.73900483215357 29.437962200474885,25.751915231831163 29.322160438885817,25.751915231831163 C29.063906461968884,25.751915231831163 28.768062700254916,25.687705125156583 28.44427546202826,25.568736455520934 C27.4183942107054,25.16666921048261 26.216647602012813,24.276377453612042 25.044211886215237,23.18505207422237 C23.930397956207514,22.09372669483264 21.96656813224655,21.548064005137746 20.002738308285586,21.548064005137746 C18.038908484324566,21.548064005137746 16.0750786603636,22.09372669483264 14.931953837460924,23.12761389635972 C13.730207228768393,24.21893927574945 12.528460620075862,25.13795012155134 11.531890261647902,25.51129827765834 C11.21010793454343,25.629530285743556 10.915924099791596,25.707200399701776 10.658806981294049,25.707200399701776 C10.54119464142508,25.707200399701776 10.431338124915385,25.69094873931664 10.330143652955371,25.654893722314853 C10.037034724005991,25.568736455520934 9.802547580846465,25.338983744070504 9.626682223476791,24.93691649903218 C9.392195080317322,24.391253809337286 9.274951508737558,23.50096205246672 9.333573294527412,22.179883961626558 C9.392195080317322,20.944963137580316 9.597371330581893,19.53772777994618 9.949102045321183,18.21664968910602 C10.271521867165518,16.981728865059722 10.681874367694661,15.832965307807399 11.180159546908612,14.971392639868156 C12.163592844509651,13.236953665952 13.245195940590293,12.731579660574425 14.444931100102849,12.731579660574425 L14.444931100102849,12.731579660574425ZM25.736499607980363,11.649202402663832 C24.827744127136953,11.649202402663832 23.869174257633404,11.892495005757667 22.845894919094974,12.156921924599715 C21.995879025141676,12.357955547118877 21.08724134539858,12.587708258569364 20.149292772760475,12.673865525363283 L19.856183843811095,12.673865525363283 C18.91823527117299,12.587708258569364 18.009597591429895,12.357955547118877 17.159581697476597,12.156921924599715 C16.13756819843269,11.903826271774278 15.180104170787956,11.663379854959658 14.272349743334246,11.663379854959658 C12.811010761666296,11.663379854959658 11.478498353987902,12.286516794047259 10.212900081375892,14.483168128035686 C9.685304009266929,15.430898062768847 9.216329722947933,16.665818886815146 8.893909901103598,17.986896977655306 C8.542179186364308,19.365413246358116 8.307692043204781,20.830086781854845 8.249070257414871,22.151164872695006 C8.190448471625018,23.615838408191735 8.337002936099736,24.67844469865014 8.659422757944071,25.425141010864138 C8.981842579788406,26.114399145215543 9.450816866107402,26.545185479185193 10.066345616901174,26.71750001277303 C10.260410557258524,26.76753860656703 10.465153233407932,26.793165526127098 10.678093070447972,26.793165526127098 C11.076225373259774,26.793165526127098 11.503012942868395,26.703580091979006 11.94224276217733,26.516466390253868 C13.08536758507995,26.05696096735295 14.404357765352245,25.080511943688464 15.694037052729641,23.903029297504816 C16.602674732472735,23.041456629565573 18.302706520379274,22.610670295595924 20.002738308285814,22.610670295595924 C21.702770096192296,22.610670295595924 23.402801884098835,23.041456629565573 24.31143956384193,23.903029297504816 C25.601118851219326,25.080511943688464 26.92010903149162,26.05696096735295 28.06323385439424,26.516466390253868 C28.5177694813234,26.690737024859345 28.958980601598114,26.78667479674135 29.368899528012093,26.78667479674135 C29.566957287748664,26.78667479674135 29.75770998734714,26.764278438204315 29.939130999670397,26.71750001277303 C30.525348857569213,26.545185479185193 31.023634036783164,26.14311823414687 31.3460538586275,25.39642192193287 C31.668473680471834,24.67844469865014 31.815028144946552,23.615838408191735 31.7564063591567,22.12244578376368 C31.69778457336679,20.80136769292352 31.463297430207263,19.33669415742679 31.11156671546803,17.95817788872398 C30.75983600072874,16.63709979788382 30.32017260730464,15.402178973837579 29.792576535195735,14.454449039104361 C28.527951985271784,12.277189059618877 27.196516225116568,11.649202402663832 25.736499607980363,11.649202402663832 L25.736499607980363,11.649202402663832Z"/>
    <linearGradient id="linearGradient-1" x1="0.5" y1="0" x2="0.5" y2="1">
      <stop offset="0" stop-color="rgb(102,43,247)" stop-opacity="1"/>
      <stop offset="1" stop-color="rgb(51,194,255)" stop-opacity="1"/>
    </linearGradient>
    <ellipse id="ellipse-2" opacity="1" rx="20.002738308286084" ry="19.803644084528813" cx="20.002738308286084" cy="19.803644084528813"/>
    <linearGradient id="linearGradient-3" x1="0.5" y1="0" x2="0.5" y2="1">
      <stop offset="0" stop-color="rgb(102,43,247)" stop-opacity="1"/>
      <stop offset="1" stop-color="rgb(51,194,255)" stop-opacity="1"/>
    </linearGradient>
    <mask id="mask-4" maskUnits="userSpaceOnUse" maskContentUnits="userSpaceOnUse">
      <rect opacity="1" x="0" y="0" width="40.005476616572196" height="39.60728816905748" fill="black"/>
      <use xlink:href="#ellipse-2" fill="white"/>
    </mask>
    <path id="path-5" opacity="1" d="M14.1354091078598,15.112478792645106 C14.325358614348431,15.112478792645106 14.483649869755595,15.17544745428114 14.610282874081292,15.301384777553153 C14.610282874081292,15.301384777553153 14.610282874081292,15.301384777553153 14.64194112516276,15.332869108371199 C14.736915878407046,15.458806431643211 14.800232380569923,15.616228085733269 14.800232380569923,15.773649739823327 L14.800232380569923,16.214430371275512 C14.800232380569923,16.52927367945557 15.053498389221375,16.812632656817698 15.40173915111717,16.812632656817698 L15.844954666257252,16.812632656817698 C16.034904172745826,16.812632656817698 16.19319542815299,16.875601318453732 16.319828432478744,17.001538641725745 C16.446461436804498,17.127475964997814 16.509777938967318,17.28489761908787 16.509777938967318,17.47380360399592 C16.509777938967318,17.662709588903965 16.446461436804498,17.820131242994023 16.319828432478744,17.946068566266092 C16.19319542815299,18.072005889538104 16.034904172745826,18.13497455117414 15.844954666257252,18.13497455117414 L15.40173915111717,18.13497455117414 C15.085156640302841,18.13497455117414 14.800232380569923,18.38684919771822 14.800232380569923,18.733176836716325 L14.800232380569923,19.14247313735052 C14.800232380569923,19.331379122258568 14.736915878407046,19.488800776348626 14.610282874081292,19.614738099620638 C14.483649869755595,19.740675422892707 14.325358614348431,19.80364408452874 14.1354091078598,19.80364408452874 C13.945459601371226,19.80364408452874 13.787168345964062,19.740675422892707 13.660535341638308,19.614738099620638 C13.533902337312554,19.488800776348626 13.470585835149677,19.331379122258568 13.470585835149677,19.14247313735052 L13.470585835149677,18.701692505898336 C13.470585835149677,18.38684919771822 13.217319826498226,18.10349022035615 12.869079064602488,18.10349022035615 L12.425863549462406,18.10349022035615 C12.235914042973775,18.10349022035615 12.077622787566611,18.040521558720116 11.950989783240857,17.914584235448046 C11.85601502999657,17.820131242994023 11.761040276752283,17.662709588903965 11.761040276752283,17.47380360399592 C11.761040276752283,17.28489761908787 11.82435677891516,17.127475964997814 11.950989783240857,17.001538641725745 C11.950989783240857,17.001538641725745 11.950989783240857,17.001538641725745 11.982648034322324,16.970054310907756 C12.109281038648078,16.875601318453732 12.267572294055242,16.812632656817698 12.425863549462406,16.812632656817698 L12.869079064602488,16.812632656817698 C13.185661575416816,16.812632656817698 13.470585835149677,16.560758010273616 13.470585835149677,16.214430371275512 L13.470585835149677,15.773649739823327 C13.470585835149677,15.58474375491528 13.533902337312554,15.427322100825222 13.660535341638308,15.301384777553153 C13.787168345964062,15.17544745428114 13.945459601371226,15.112478792645106 14.1354091078598,15.112478792645106 L14.1354091078598,15.112478792645106ZM14.135409107860085,13.979042883196826 C13.628877090557125,13.979042883196826 13.154003324335633,14.199433198922918 12.837420813521305,14.514276507103034 C12.552496553788387,14.797635484465104 12.330888796218346,15.206931785099243 12.299230545136936,15.647712416551371 C11.856015029996854,15.679196747369417 11.476116017019649,15.868102732277464 11.159533506205321,16.15146170963959 L11.127875255123854,16.18294604045758 C10.779634493228116,16.529273679455684 10.589684986739485,16.97005431090787 10.589684986739485,17.473803603996032 C10.589684986739485,17.977552897084195 10.811292744309526,18.44981785935437 11.127875255123854,18.764661167534484 C11.444457765938182,19.0795044757146 11.824356778915387,19.268410460622647 12.299230545136936,19.299894791440636 C12.330888796218346,19.74067542289282 12.520838302706977,20.14997172352696 12.837420813521305,20.43333070088903 C13.1856615754171,20.779658339887135 13.628877090557125,20.96856432479524 14.135409107860085,20.96856432479524 C14.641941125163044,20.96856432479524 15.116814891384536,20.748174009069146 15.43339740219892,20.43333070088903 C15.718321661931782,20.118487392708914 15.939929419501823,19.74067542289282 15.97158767058329,19.299894791440636 C16.414803185723372,19.268410460622647 16.826360449781987,19.0795044757146 17.111284709514905,18.764661167534484 C17.4595254714107,18.418333528536323 17.649474977899274,17.977552897084195 17.649474977899274,17.473803603996032 C17.649474977899274,16.97005431090787 17.427867220329233,16.497789348637696 17.111284709514905,16.18294604045758 C16.794702198700577,15.89958706309551 16.414803185723372,15.679196747369417 15.97158767058329,15.647712416551371 C15.939929419501823,15.238416115917232 15.749979913013249,14.829119815283093 15.46505565328033,14.545760837921023 L15.43339740219892,14.514276507103034 C15.085156640303126,14.167948868104872 14.641941125163044,13.979042883196826 14.135409107860085,13.979042883196826 L14.135409107860085,13.979042883196826Z"/>
    <linearGradient id="linearGradient-6" x1="0.5" y1="0" x2="0.5" y2="1">
      <stop offset="0" stop-color="rgb(102,43,247)" stop-opacity="1"/>
      <stop offset="1" stop-color="rgb(51,194,255)" stop-opacity="1"/>
    </linearGradient>
    <ellipse id="ellipse-7" opacity="1" rx="1.176631665193284" ry="1.1649202402664" cx="25.88589663425269" cy="15.143963123463227"/>
    <linearGradient id="linearGradient-8" x1="0.5" y1="0" x2="0.5" y2="1">
      <stop offset="0" stop-color="rgb(102,43,247)" stop-opacity="1"/>
      <stop offset="1" stop-color="rgb(51,194,255)" stop-opacity="1"/>
    </linearGradient>
    <ellipse id="ellipse-9" opacity="1" rx="1.176631665193284" ry="1.1649202402663992" cx="25.88589663425269" cy="19.803644084528983"/>
    <linearGradient id="linearGradient-10" x1="0.5" y1="0" x2="0.5" y2="1">
      <stop offset="0" stop-color="rgb(102,43,247)" stop-opacity="1"/>
      <stop offset="1" stop-color="rgb(51,194,255)" stop-opacity="1"/>
    </linearGradient>
    <ellipse id="ellipse-11" opacity="1" rx="1.1766316651932982" ry="1.164920240266401" cx="23.53263330386605" cy="17.473803603995993"/>
    <linearGradient id="linearGradient-12" x1="0.5" y1="0" x2="0.5" y2="1">
      <stop offset="0.01" stop-color="rgb(102,43,247)" stop-opacity="1"/>
      <stop offset="1" stop-color="rgb(51,194,255)" stop-opacity="1"/>
    </linearGradient>
    <ellipse id="ellipse-13" opacity="1" rx="1.176631665193284" ry="1.164920240266401" cx="28.06252829944556" cy="17.473803603995993"/>
    <linearGradient id="linearGradient-14" x1="0.5" y1="0" x2="0.5" y2="1">
      <stop offset="0" stop-color="rgb(102,43,247)" stop-opacity="1"/>
      <stop offset="0.99" stop-color="rgb(51,194,255)" stop-opacity="1"/>
    </linearGradient>
  </defs>
  <g opacity="1">
    <g opacity="1">
      <use xlink:href="#path-0" fill="url(#linearGradient-1)" fill-opacity="1"/>
    </g>
    <g opacity="1">
      <use xlink:href="#ellipse-2" fill-opacity="0" stroke="url(#linearGradient-3)" stroke-opacity="1" stroke-width="4" mask="url(#mask-4)"/>
    </g>
    <g opacity="1">
      <use xlink:href="#path-5" fill="url(#linearGradient-6)" fill-opacity="1"/>
    </g>
    <g opacity="1">
      <use xlink:href="#ellipse-7" fill="url(#linearGradient-8)" fill-opacity="1"/>
    </g>
    <g opacity="1">
      <use xlink:href="#ellipse-9" fill="url(#linearGradient-10)" fill-opacity="1"/>
    </g>
    <g opacity="1">
      <use xlink:href="#ellipse-11" fill="url(#linearGradient-12)" fill-opacity="1"/>
    </g>
    <g opacity="1">
      <use xlink:href="#ellipse-13" fill="url(#linearGradient-14)" fill-opacity="1"/>
    </g>
  </g>
</svg>