<?xml version="1.0" encoding="UTF-8"?>
<svg width="1754px" height="365px" viewBox="0 0 1754 365" version="1.1" xmlns="http://www.w3.org/2000/svg" xmlns:xlink="http://www.w3.org/1999/xlink">
    <!-- Generator: Sketch 50 (54983) - http://www.bohemiancoding.com/sketch -->
    <title>Artboard</title>
    <desc>Created with Sketch.</desc>
    <defs></defs>
    <g id="Artboard" stroke="none" stroke-width="1" fill="none" fill-rule="evenodd" fill-opacity="0" opacity="0.07">
        <g id="lines-old" fill="#000000" fill-rule="nonzero" stroke="#FFFFFF" stroke-width="2">
            <g id="Group" transform="translate(0.000000, 94.000000)">
                <g id="path-0-link">
                    <path d="M0.830772558,97.1119563 C200.087277,171.323306 447.316253,175.551391 552.576512,106.547855 C743.294746,-18.4777981 948.791884,-16.1188235 1187.36562,115.983753 C1425.93935,248.086329 1651.14169,160.80427 1710.96106,73.5222105 C1770.78043,-13.7598489 1955.16485,-40.8880566 2067.06227,97.1119563" id="path-0"></path>
                </g>
            </g>
            <g id="Group">
                <g id="path-1-link">
                    <path d="M0.830772558,97.1119563 C200.087277,171.323306 447.316253,175.551391 552.576512,106.547855 C743.294746,-18.4777981 948.791884,-16.1188235 1187.36562,115.983753 C1425.93935,248.086329 1651.14169,160.80427 1710.96106,73.5222105 C1770.78043,-13.7598489 1955.16485,-40.8880566 2067.06227,97.1119563" id="path-1"></path>
                </g>
            </g>
            <g id="Group" transform="translate(0.000000, 118.000000)">
                <g id="path-2-link">
                    <path d="M0.830772558,97.1119585 C200.087277,171.323309 447.316253,175.551393 552.576512,106.547857 C743.294746,-18.4777959 948.791884,-16.1188213 1187.36562,115.983755 C1425.93935,248.086331 1651.14169,160.804272 1710.96106,73.5222127 C1770.78043,-13.7598467 1955.16485,-40.8880544 2067.06227,97.1119585" id="path-2"></path>
                </g>
            </g>
            <g id="Group" transform="translate(0.000000, 24.000000)">
                <g id="path-3-link">
                    <path d="M0.830772558,97.1119585 C200.087277,171.323309 447.316253,175.551393 552.576512,106.547857 C743.294746,-18.4777959 948.791884,-16.1188213 1187.36562,115.983755 C1425.93935,248.086331 1651.14169,160.804272 1710.96106,73.5222127 C1770.78043,-13.7598467 1955.16485,-40.8880544 2067.06227,97.1119585" id="path-3"></path>
                </g>
            </g>
            <g id="Group" transform="translate(0.000000, 141.000000)">
                <g id="path-4-link">
                    <path d="M0.830772558,97.1119606 C200.087277,171.323311 447.316253,175.551395 552.576512,106.547859 C743.294746,-18.4777937 948.791884,-16.1188191 1187.36562,115.983757 C1425.93935,248.086334 1651.14169,160.804274 1710.96106,73.5222149 C1770.78043,-13.7598445 1955.16485,-40.8880522 2067.06227,97.1119606" id="path-4"></path>
                </g>
            </g>
            <g id="Group" transform="translate(0.000000, 47.000000)">
                <g id="path-5-link">
                    <path d="M0.830772558,97.1119606 C200.087277,171.323311 447.316253,175.551395 552.576512,106.547859 C743.294746,-18.4777937 948.791884,-16.1188191 1187.36562,115.983757 C1425.93935,248.086334 1651.14169,160.804274 1710.96106,73.5222149 C1770.78043,-13.7598445 1955.16485,-40.8880522 2067.06227,97.1119606" id="path-5"></path>
                </g>
            </g>
            <g id="Group" transform="translate(0.000000, 165.000000)">
                <g id="path-6-link">
                    <path d="M0.830772558,97.1119628 C200.087277,171.323313 447.316253,175.551397 552.576512,106.547861 C743.294746,-18.4777915 948.791884,-16.1188169 1187.36562,115.983759 C1425.93935,248.086336 1651.14169,160.804276 1710.96106,73.5222171 C1770.78043,-13.7598423 1955.16485,-40.88805 2067.06227,97.1119628" id="path-6"></path>
                </g>
            </g>
            <g id="Group" transform="translate(0.000000, 71.000000)">
                <g id="path-7-link">
                    <path d="M0.830772558,97.1119628 C200.087277,171.323313 447.316253,175.551397 552.576512,106.547861 C743.294746,-18.4777915 948.791884,-16.1188169 1187.36562,115.983759 C1425.93935,248.086336 1651.14169,160.804276 1710.96106,73.5222171 C1770.78043,-13.7598423 1955.16485,-40.88805 2067.06227,97.1119628" id="path-7"></path>
                </g>
            </g>
        </g>
    </g>
</svg>