<?xml version="1.0" encoding="UTF-8"?>
<svg width="722px" height="176px" viewBox="0 0 722 176" version="1.1" xmlns="http://www.w3.org/2000/svg" xmlns:xlink="http://www.w3.org/1999/xlink">
    <!-- Generator: Sketch 50 (54983) - http://www.bohemiancoding.com/sketch -->
    <title>Group 5</title>
    <desc>Created with Sketch.</desc>
    <defs>
        <linearGradient x1="0%" y1="0%" x2="100%" y2="100%" id="linearGradient-1">
            <stop stop-color="#3959FC" offset="0%"></stop>
            <stop stop-color="#3523A1" offset="100%"></stop>
        </linearGradient>
    </defs>
    <g id="Page-1" stroke="none" stroke-width="1" fill="none" fill-rule="evenodd">
        <g id="Group-5">
            <g id="Group-3-Copy">
                <g id="Group-2" transform="translate(63.724138, 2.022989)">
                    <path d="M35.6967006,0.329494155 C33.8972356,23.2515876 13.8718317,40.1342881 24.3042427,59.9204371 C35.6967006,83.0835262 109.504675,60.605925 110.107321,81.404056 C109.580241,63.3466546 83.6941961,65.1141604 55.2311148,53.8315451 C25.8644436,42.1907516 35.8843734,16.3052108 35.6967006,0.329494155 Z" id="Path-2" fill="#BFCBF7"></path>
                    <path d="M80.532291,71.0542396 C47.9295736,60.207932 61.8208455,8.7608446 35.4614243,0.821485428 L0.297086194,40.1637876 L14.0512797,73.7686915 C26.8166813,78.567273 36.5926116,80.9665638 43.3790705,80.9665638 C53.5587588,80.9665638 66.7407125,83.2190238 71.6291761,80.9665638 C76.5176397,78.7141037 83.7314507,75.2681649 83.7314507,75.2681649 C83.7314507,75.2681649 82.6650641,73.8635231 80.532291,71.0542396 Z" id="Path-3-Copy" fill="#BFCBF7"></path>
                    <path d="M80.8806774,71.5131333 C58.7035577,71.4228993 30.9342784,73.400593 24.3042427,59.9204371 C13.9554068,40.292797 33.5783392,23.522272 35.6499695,0.87922976 C35.6663871,0.884340297 35.6827886,0.889468839 35.6991745,0.894614406 C35.6551643,16.9093439 26.2082401,42.3270307 55.2311148,53.8315451 C58.0389088,54.9445399 60.8216252,55.9305412 63.5573943,56.8211076 C67.2453982,63.2016378 72.4657493,68.3706537 80.532291,71.0542396 C80.6517662,71.2116121 80.767895,71.3645766 80.8806774,71.5131333 Z" id="Combined-Shape" fill="#7D8CE2"></path>
                </g>
                <path d="M88,176 C136.601058,176 176,136.601058 176,88 C176,53.4699174 116.037356,86.8329292 92.7492816,64.285695 C69.1308966,40.2878581 127.317888,-3.26686315e-16 88,2.84217094e-14 C39.398942,2.84217094e-14 0,39.398942 0,88 C0,136.601058 39.398942,176 88,176 Z" id="Oval-Copy" fill="url(#linearGradient-1)"></path>
            </g>
            <g id="Group-4" transform="translate(254.000000, 40.000000)" fill="#355AD4">
                <path d="M29.1371779,76.2736 C13.151411,76.2736 0,63.2862667 0,47.1368 C0,30.9873333 13.0380368,18 29.1371779,18 C37.3001227,18 44.5560736,21.388 50.111411,26.9217333 L43.1955828,35.3917333 C38.887362,31.1002667 33.7855215,29.2933333 29.2505521,29.2933333 C19.3869939,29.2933333 11.4507975,37.3116 11.4507975,47.0238667 C11.4507975,56.7361333 19.3869939,64.8673333 29.2505521,64.8673333 C33.7855215,64.8673333 38.887362,63.0604 43.3089571,58.5430667 L50.111411,67.126 C44.5560736,72.5468 37.5268712,76.2736 29.1371779,76.2736 Z" id="Path"></path>
                <path d="M87.2505521,18 C103.349693,18 116.501104,31.1002667 116.501104,47.1368 C116.501104,63.1733333 103.349693,76.2736 87.2505521,76.2736 C71.151411,76.2736 58,63.1733333 58,47.1368 C58,31.1002667 71.151411,18 87.2505521,18 Z M87.2505521,29.4062667 C77.3869939,29.4062667 69.4507975,37.3116 69.4507975,47.1368 C69.4507975,56.962 77.3869939,64.8673333 87.2505521,64.8673333 C97.1141104,64.8673333 105.050307,56.962 105.050307,47.1368 C105.050307,37.3116 97.1141104,29.4062667 87.2505521,29.4062667 Z" id="Combined-Shape"></path>
                <path d="M148.715583,18 C161.75362,18 172.297423,28.7286667 172.297423,41.9418667 L172.297423,75.3701333 L160.846626,75.3701333 L160.846626,41.9418667 C160.846626,34.94 155.177914,29.2933333 148.148712,29.2933333 C141.119509,29.2933333 135.337423,34.94 135.337423,41.9418667 L135.337423,75.3701333 L124,75.3701333 L124,18.9034667 L133.410061,18.9034667 L133.410061,23.7596 C137.604908,20.1457333 142.933497,18 148.715583,18 Z" id="Path"></path>
                <path d="M213.599509,22.9690667 L208.611043,31.2132 C206.11681,29.7450667 202.148712,27.4864 197.613742,27.4864 C193.305521,27.4864 189.450798,29.6321333 189.450798,33.1330667 C189.450798,36.9728 193.872393,38.4409333 199.42773,40.4737333 C208.497669,43.6358667 216.433865,49.7342667 216.433865,58.9948 C216.433865,68.3682667 208.384294,76.2736 196.820123,76.2736 C189.79092,76.2736 182.761718,73.4502667 178,70.514 L182.421595,61.1405333 C185.709448,63.0604 191.831656,65.432 196.48,65.432 C202.148712,65.432 204.642945,62.044 204.642945,58.7689333 C204.642945,54.9292 201.128344,52.7834667 193.305521,49.7342667 C187.63681,47.4756 178.453497,43.7488 178.453497,33.6977333 C178.453497,24.3242667 186.503067,18 197.27362,18 C203.622577,18 208.837791,20.1457333 213.599509,22.9690667 Z" id="Path"></path>
                <path d="M253.137178,75.2736 C237.151411,75.2736 224,62.2862667 224,46.1368 C224,29.9873333 237.038037,17 253.137178,17 C261.300123,17 268.556074,20.388 274.111411,25.9217333 L267.195583,34.3917333 C262.887362,30.1002667 257.785521,28.2933333 253.250552,28.2933333 C243.386994,28.2933333 235.450798,36.3116 235.450798,46.0238667 C235.450798,55.7361333 243.386994,63.8673333 253.250552,63.8673333 C257.785521,63.8673333 262.887362,62.0604 267.308957,57.5430667 L274.111411,66.126 C268.556074,71.5468 261.526871,75.2736 253.137178,75.2736 Z" id="Path"></path>
                <path d="M297.182194,7.7616 C297.182194,11.8272 294.347839,14.6505333 290.152992,14.6505333 C286.525016,14.6505333 283.237164,11.8272 283.237164,7.7616 C283.237164,4.14773333 286.525016,0.872666667 290.152992,0.872666667 C294.347839,0.872666667 297.182194,4.14773333 297.182194,7.7616 Z M295.821704,75.9733333 L284.597654,75.9733333 L284.597654,23 L295.821704,23 L295.821704,75.9733333 Z" id="Combined-Shape"></path>
                <path d="M334.250552,17 C350.349693,17 363.501104,30.1002667 363.501104,46.1368 C363.501104,62.1733333 350.349693,75.2736 334.250552,75.2736 C318.151411,75.2736 305,62.1733333 305,46.1368 C305,30.1002667 318.151411,17 334.250552,17 Z M334.250552,28.4062667 C324.386994,28.4062667 316.450798,36.3116 316.450798,46.1368 C316.450798,55.962 324.386994,63.8673333 334.250552,63.8673333 C344.11411,63.8673333 352.050307,55.962 352.050307,46.1368 C352.050307,36.3116 344.11411,28.4062667 334.250552,28.4062667 Z" id="Combined-Shape"></path>
                <path d="M399.035337,75.3701333 C385.770552,75.3701333 375,64.6414667 375,51.4282667 L375,18 L386.337423,18 L386.337423,51.4282667 C386.337423,58.3172 392.006135,64.0768 399.035337,64.0768 C406.06454,64.0768 411.733252,58.3172 411.733252,51.4282667 L411.733252,18 L423.184049,18 L423.184049,51.4282667 C423.184049,64.6414667 412.300123,75.3701333 399.035337,75.3701333 Z" id="Path"></path>
                <path d="M464.599509,21.9690667 L459.611043,30.2132 C457.11681,28.7450667 453.148712,26.4864 448.613742,26.4864 C444.305521,26.4864 440.450798,28.6321333 440.450798,32.1330667 C440.450798,35.9728 444.872393,37.4409333 450.42773,39.4737333 C459.497669,42.6358667 467.433865,48.7342667 467.433865,57.9948 C467.433865,67.3682667 459.384294,75.2736 447.820123,75.2736 C440.79092,75.2736 433.761718,72.4502667 429,69.514 L433.421595,60.1405333 C436.709448,62.0604 442.831656,64.432 447.48,64.432 C453.148712,64.432 455.642945,61.044 455.642945,57.7689333 C455.642945,53.9292 452.128344,51.7834667 444.305521,48.7342667 C438.63681,46.4756 429.453497,42.7488 429.453497,32.6977333 C429.453497,23.3242667 437.503067,17 448.27362,17 C454.622577,17 459.837791,19.1457333 464.599509,21.9690667 Z" id="Path"></path>
            </g>
        </g>
    </g>
</svg>