<?xml version="1.0" encoding="utf-8"?>
<svg version="1.1" xmlns="http://www.w3.org/2000/svg" xmlns:xlink="http://www.w3.org/1999/xlink" height="47.664193005442485" width="48.39046043315375">
  <defs>
    <ellipse id="ellipse-0" opacity="1" rx="24.19523021657681" ry="23.83209650272125" cx="24.19523021657681" cy="23.83209650272125"/>
    <mask id="mask-1" maskUnits="userSpaceOnUse" maskContentUnits="userSpaceOnUse">
      <rect opacity="1" x="0" y="0" width="48.39046043315375" height="47.664193005442485" fill="black"/>
      <use xlink:href="#ellipse-0" fill="white"/>
    </mask>
    <path id="path-2" opacity="1" d="M24.42977085399538,31.327679341240383 C24.158577392912743,31.057188117737258 23.71771417669122,31.057188117737258 23.44652071560858,31.327679341240383 C23.174631886677012,31.59747877133301 23.174631886677012,32.03607579358616 23.44652071560858,32.30587522367878 C23.71771417669122,32.576366447181904 24.158577392912743,32.576366447181904 24.42977085399538,32.30587522367878 C24.701659682926948,32.03607579358616 24.701659682926948,31.59747877133301 24.42977085399538,31.327679341240383Z"/>
    <path id="path-3" opacity="1" d="M22.264794220535805,19.41814594819016 L25.09997122404684,19.41954452165669 L25.09997122404684,20.820215848334783 C25.09997122404684,21.59138925775096 24.464041022159336,22.218789314813193 23.682382722291322,22.218789314813193 C22.899448592771705,22.218789314813193 22.264794220535805,21.592741212102055 22.264794220535805,20.820215848334783 L22.264794220535805,19.41814594819016 L22.264794220535805,19.41814594819016ZM19.42961721702534,19.59926121209901 L19.42961721702534,23.28053967144797 C19.421206191914962,23.289443922517876 18.290395844064506,24.5035921678832 18.283071636805403,24.511797132219954 C18.28500900775782,24.5093729382113 17.20806702297409,25.495413851194144 16.57516100989028,25.8417006414943 C15.608885434143644,26.370081697129763 14.046183122758293,27.34852369427813 13.951629969691226,27.405585491710326 C13.803403325899694,27.49156409144416 13.638997910539729,27.533464266731244 13.475625932145931,27.533464266731244 C13.231515316679975,27.533464266731244 12.989711991231502,27.43991636847545 12.807636048774498,27.260087232081105 C12.425312429851033,26.8829385872873 12.432258613509589,26.249011854048376 12.869726425151384,25.885336133648252 C13.350477939046755,25.64450178272068 15.882385509082383,24.26555496388869 16.61901174754462,23.90239205375974 C16.698916486093594,23.86299890112059 16.7658266633764,23.80206771709777 16.812087301483757,23.72663798813892 C17.267133210547286,22.984508287710014 19.172230398056627,19.8753396143818 19.172183145106487,19.8753396143818 C19.239613104840032,19.76555159726331 19.327739856699168,19.67245322351141 19.42961721702534,19.59926121209901 L19.42961721702534,19.59926121209901ZM27.935148227558784,19.601079357605613 C28.037403611485388,19.6736187014003 28.125435857444472,19.766064407534486 28.192298781777254,19.874920042342183 C28.192298781777254,19.874920042342183 30.09758498108681,22.98450828771024 30.55263089015034,23.726731226370248 C30.59889152825758,23.8021609553291 30.66584895849053,23.863045520236483 30.745753697039504,23.90248529199107 C31.477560134595706,24.26327062722703 34.018540271042525,25.64669288115192 34.495039019432625,25.88542937187981 C34.933735407775885,26.250177331937266 34.9383661968817,26.884104065176416 34.556940384009295,27.26036694677464 C34.37456973272663,27.4404312521699 34.1322238865057,27.53393131327971 33.888310032855884,27.53393131327971 C33.72585409245323,27.53393131327971 33.56270257319227,27.492454044387387 33.41611241074645,27.407450256332595 C33.311541632266994,27.344700926803398 31.767504236154878,26.37656175419147 30.789698940593894,25.841840498841066 C30.154855556557663,25.494481468883578 29.58370914920033,25.050714107969952 29.092136709741567,24.52303233906764 C28.733297806997257,24.137585491706204 28.29086843559935,23.662769799836724 27.935148227558784,23.280912624372604 L27.935148227558784,19.601079357605613 L27.935148227558784,19.601079357605613ZM20.374676218196328,19.417213565879138 L21.319735219366635,19.417679757034648 L21.319735219366635,20.820215848334783 C21.319735219366635,22.10788243892148 22.376925471025856,23.151171625798725 23.682382722292573,23.151171625798725 C24.98514655540589,23.151171625798725 26.04503022521851,22.10550486402849 26.04503022521851,20.820215848334783 L26.04503022521851,19.4200107128122 L26.990089226388818,19.420476903967483 L26.990089226388818,23.617362781291604 L26.990089226388818,28.372512567318154 L20.374676218196328,28.372512567318154 C20.374676218196328,28.134661839785622 20.374676218196328,19.497351825508304 20.374676218196328,19.417213565879138 L20.374676218196328,19.417213565879138ZM22.264794220537283,32.10204181125937 L22.264794220537283,33.96680643323066 L20.374676218196555,33.96680643323066 C19.853570684951137,33.96680643323066 19.429617217026134,33.54853972852243 19.429617217026134,33.0344241222449 C19.429617217026134,32.5203085159676 19.853570684951137,32.10204181125937 20.374676218196555,32.10204181125937 L22.264794220537283,32.10204181125937ZM27.352188582686153,29.304894878303458 L31.64379601290102,31.397766832657226 C31.980520535017945,31.56214583408405 32.23568646533397,31.860554792714993 32.34403747981821,32.216957931089155 C32.45257750610256,32.57228882980576 32.406742144545774,32.95978691825144 32.21829737971245,33.27992038472826 C31.96124133139415,33.71646178273181 31.515929530042627,33.96680643323157 30.996666861849576,33.96680643323157 L23.209853221706226,33.96680643323157 L23.209853221706226,32.10204181126028 L25.572500724632164,32.10204181126028 C25.833431514855306,32.10204181126028 26.045030225217374,31.893328030946122 26.045030225217374,31.6358506557674 C26.045030225217374,31.378373280588676 25.833431514855306,31.169659500274747 25.572500724632164,31.169659500274747 L20.374676218195077,31.169659500274747 C19.33246515170447,31.169659500274747 18.48455821585435,32.00619290969098 18.48455821585435,33.03442412224581 C18.48455821585435,33.37395114079118 18.57745751566938,33.692313080877284 18.738826340119317,33.96680643323157 L16.36805132978327,33.96680643323157 C15.8390545538781,33.96680643323157 15.38948998702142,33.709002724243874 15.134749333255968,33.25973430769545 C14.953770534531827,32.94016027060525 14.913463768131919,32.55559918643917 15.024177430119039,32.20446400812193 C15.134654827355803,31.853655163613666 15.388828445720605,31.55953516361319 15.721678225932806,31.397393879732817 L20.01257686189672,29.304894878303458 L27.352188582686153,29.304894878303458ZM19.894057878722492,18.488919364457615 C19.886736511610707,18.488919364457615 19.88055180369372,18.489698034924913 19.873464176924585,18.490145834066652 C19.86883338781888,18.49042554875996 19.864249851663203,18.491078216377673 19.859619062557385,18.491404550186417 C19.856358609003337,18.491684264879723 19.853145408399428,18.49191736045759 19.84988495484538,18.492290313381773 C19.238195516337782,18.536578473153668 18.683965665101482,18.87130372279762 18.36363791665474,19.392598672869553 C18.36363791665474,19.392598672869553 16.626194195953076,22.228252995270168 16.073429186168482,23.130006547339917 C15.194099038529544,23.574986005257642 12.691771815230595,24.936264179296586 12.408821150280119,25.070294136500934 C12.37881552699298,25.084512966743432 12.350416504007853,25.10180865861207 12.324096610825222,25.121901497414 C11.409326750642322,25.82053556303549 11.341471514358318,27.13221099812995 12.139195817246218,27.919234906833026 C12.503211469464645,28.278730512979564 12.986919761587046,28.465829939071227 13.4756950931951,28.465829939071227 C13.803559366744935,28.465829939071227 14.133703582936846,28.38164351007822 14.43153093048511,28.208832852625164 C14.5098763216821,28.16323935761784 16.072956656667884,27.182326547345383 17.033420119557377,26.657162210682827 C17.756815532003202,26.26131930055385 18.412639225865405,25.750560270595997 18.983124091921923,25.138451283433824 C19.225248208021753,24.87789704662896 19.302884804967903,24.7951947356446 19.429617217024884,24.658973680009467 L19.429617217024884,28.54910577701935 L15.303158847264626,30.56141989970388 C14.739289394216257,30.836053109404702 14.308673260332966,31.33408512081769 14.121740589901492,31.92768631910667 C13.934524401769636,32.521567232088955 14.003041179354454,33.17283627631241 14.309854584084405,33.71469025634178 C14.730405839605282,34.45640038473084 15.499825625408107,34.89918874421778 16.36809858273341,34.89918874421778 L30.996666861849803,34.89918874421778 C31.84887381615522,34.89918874421778 32.611063900599106,34.4689409268135 33.03548989802482,33.748256019537166 C33.354872587470254,33.20570275277464 33.432650943266594,32.54953870141844 33.24912048523936,31.948525063757188 C33.06592079786242,31.3460196143983 32.633603557777064,30.84071502095958 32.06278792107014,30.562025948206156 L27.93514822755833,28.549152396134787 L27.93514822755833,24.658740584431825 C28.093870886804893,24.829133451764392 28.2494748513476,24.996262981008613 28.39619526127933,25.153835591565212 C28.956567996023296,25.755408658613078 29.60766639487963,26.26122606232275 30.331439830926,26.657302068029367 C31.295825288670358,27.184657503122935 32.852479222448096,28.16193402238241 32.934132320149274,28.20939228201155 C33.23109917340446,28.381664897092833 33.561101166500634,28.465949620767333 33.889231522122486,28.465949620767333 C34.3769602990659,28.465949620767333 34.86055397926384,28.27973541456322 35.22538061553678,27.919468002410667 C36.02565657772789,27.12983342323696 35.95255626398739,25.818344464604706 35.040621580807965,25.121901497414 C35.03131274964642,25.11481539185047 31.91984774714308,23.448135391848155 31.291289005464705,23.130006547339917 C30.73852399568011,22.228252995270168 29.001033022028423,19.392598672869553 29.000844010228207,19.392225719945145 C28.68845475739124,18.88337807372477 28.148022767572,18.55298840182695 27.54734326642813,18.498956846905457 C27.515104254766584,18.493245722662778 27.48963513113881,18.49125133115831 27.466214146795096,18.49125133115831 C27.452354592639722,18.49125133115831 27.439212250768833,18.491949722179925 27.425808678877615,18.492989600115152 C25.88437019501862,18.492243694266335 21.709288539648128,18.490145834066652 19.90233572941031,18.48926007087107 C19.89937448161595,18.48901661031664 19.89664520316137,18.488919364457615 19.894057878722492,18.488919364457615 L19.894057878722492,18.488919364457615Z"/>
    <path id="path-4" opacity="1" d="M23.682341673534893,11.768510751539452 C24.981681103318692,11.768510751539452 26.03877879682784,12.820174586362327 26.03877879682784,14.112834948648015 C26.03877879682784,15.405495310933702 24.981681103318692,16.457159145756577 23.682341673534893,16.457159145756577 C22.383002243751093,16.457159145756577 21.32590455024183,15.405495310933702 21.32590455024183,14.112834948648015 C21.32590455024183,12.820174586362327 22.383002243751093,11.768510751539452 23.682341673534893,11.768510751539452 L23.682341673534893,11.768510751539452ZM23.682341673534438,10.830781072695572 C21.863266471837164,10.830781072695572 20.38332970092415,12.303110441447643 20.38332970092415,14.11283494864756 C20.38332970092415,15.922559455847704 21.863266471837164,17.394888824599775 23.682341673534438,17.394888824599775 C25.50136974648933,17.394888824599775 26.981353646144726,15.922559455847704 26.981353646144726,14.11283494864756 C26.981353646144726,12.303110441447643 25.501416875231712,10.830781072695572 23.682341673534438,10.830781072695572 L23.682341673534438,10.830781072695572Z"/>
  </defs>
  <g opacity="1">
    <g opacity="1">
      <use xlink:href="#ellipse-0" fill-opacity="0" stroke="rgb(255,255,255)" stroke-opacity="1" stroke-width="4" mask="url(#mask-1)"/>
    </g>
    <g opacity="1">
      <g opacity="1">
        <use xlink:href="#path-2" fill="rgb(255,255,255)" fill-opacity="1"/>
      </g>
      <g opacity="1">
        <use xlink:href="#path-3" fill="rgb(255,255,255)" fill-opacity="1"/>
      </g>
      <g opacity="1">
        <use xlink:href="#path-4" fill="rgb(255,255,255)" fill-opacity="1"/>
      </g>
    </g>
  </g>
</svg>