<?xml version="1.0" encoding="utf-8"?>
<svg version="1.1" xmlns="http://www.w3.org/2000/svg" xmlns:xlink="http://www.w3.org/1999/xlink" height="39.60728816905748" width="40.005476616572196">
  <defs>
    <ellipse id="ellipse-0" opacity="1" rx="20.002738308286077" ry="19.803644084528813" cx="20.002738308286077" cy="19.803644084528813"/>
    <linearGradient id="linearGradient-1" x1="0.5" y1="0" x2="0.5" y2="1">
      <stop offset="0" stop-color="rgb(102,43,247)" stop-opacity="1"/>
      <stop offset="1" stop-color="rgb(51,194,255)" stop-opacity="1"/>
    </linearGradient>
    <mask id="mask-2" maskUnits="userSpaceOnUse" maskContentUnits="userSpaceOnUse">
      <rect opacity="1" x="0" y="0" width="40.005476616572196" height="39.60728816905748" fill="black"/>
      <use xlink:href="#ellipse-0" fill="white"/>
    </mask>
    <path id="path-3" opacity="1" d="M20.19663830224996,26.03221296948547 C19.97243659867462,25.80744416168743 19.60796511132394,25.80744416168743 19.383763407748603,26.03221296948547 C19.158986828010246,26.256406920997577 19.158986828010246,26.62086580627624 19.383763407748603,26.845059757788345 C19.60796511132394,27.069828565586384 19.97243659867462,27.069828565586384 20.19663830224996,26.845059757788345 C20.42141488198831,26.62086580627624 20.42141488198831,26.256406920997577 20.19663830224996,26.03221296948547Z"/>
    <path id="path-4" opacity="1" d="M18.406803667282475,16.135804548101078 L20.750707947227994,16.13696671405461 L20.750707947227994,17.300875916493908 C20.750707947227994,17.941694223258764 20.224970217236205,18.46304187000294 19.57875580725522,18.46304187000294 C18.931486640348282,18.46304187000294 18.406803667282475,17.942817650347195 18.406803667282475,17.300875916493908 L18.406803667282475,16.135804548101078 L18.406803667282475,16.135804548101078ZM16.06289938733744,16.286305039080617 L16.06289938733744,19.34531952304195 C16.05594580464026,19.352718646279243 15.121079582583945,20.361633649385567 15.11502449652744,20.368451689646122 C15.116626164452043,20.366437268660093 14.226294123714723,21.18580300474906 13.703056558288182,21.473555294837865 C12.904214914611373,21.91262159207355 11.612293940576706,22.7256728931485 11.534124732840496,22.773089264051634 C11.41158244911199,22.844534492876562 11.275664812847594,22.879352082607625 11.140601542051428,22.879352082607625 C10.938789833060355,22.879352082607625 10.738885612363674,22.801617029726344 10.58835935588246,22.652185266021604 C10.272283863731786,22.33878784722532 10.278026429217647,21.812016759364838 10.639690859613268,21.509814872587356 C11.037138895349358,21.30968989539309 13.13032354748347,20.163833004098308 13.739308944484662,19.86205724483716 C13.805367980107803,19.829322903813306 13.86068412111453,19.778691207105453 13.898928825948985,19.716011723346185 C14.275125462880254,19.099327729549202 15.850111943789699,16.5157165983033 15.850072878718379,16.5157165983033 C15.90581873550974,16.424486570952865 15.978675093544723,16.34712505731426 16.06289938733744,16.286305039080617 L16.06289938733744,16.286305039080617ZM23.094612227174366,16.28781585482011 C23.179149041537727,16.348093528942115 23.25192726943004,16.42491269846903 23.30720434536542,16.515367948517166 C23.30720434536542,16.515367948517166 24.88234708656023,19.099327729549145 25.2585437234915,19.716089201076386 C25.296788428325954,19.778768684835654 25.352143634404,19.829361642678407 25.418202670027114,19.86213472256736 C26.023203429752414,20.16193479970758 28.123888575582356,21.31151062205356 28.517820754898537,21.509892350317557 C28.88050087714879,21.812985230992695 28.884329254139374,22.339756318853233 28.568995998344008,22.652417699212265 C28.418226099481018,22.802044880185065 28.21787336472022,22.879740182060516 28.01622432312604,22.879740182060516 C27.88191836143801,22.879740182060516 27.74703734914084,22.84527401284845 27.625847981165236,22.774638818656342 C27.53939697830657,22.722496306208882 26.262906707448195,21.91800629432481 25.45453318636629,21.473671511433224 C24.929693953015118,21.18502822744665 24.457514435820087,20.816272970398245 24.051120498748844,20.3777877561393 C23.754460347050383,20.0574948193522 23.388694084164882,19.66293947813591 23.094612227174366,19.345629433962813 L23.094612227174366,16.28781585482011 L23.094612227174366,16.28781585482011ZM16.84420081398639,16.135029770799065 L17.625502240634916,16.135417159450242 L17.625502240634916,17.300875916494192 C17.625502240634916,18.37088210988992 18.4995050815553,19.23781917234254 19.578755807256243,19.23781917234254 C20.655779823891237,19.23781917234254 21.53200937387757,18.36890642776899 21.53200937387757,17.300875916494192 L21.53200937387757,16.13735410270607 L22.313310800526097,16.137741491357247 L22.313310800526097,19.6252078235122 L22.313310800526097,23.57657206544286 L16.84420081398639,23.57657206544286 C16.84420081398639,23.378926375616118 16.84420081398639,16.201621879935146 16.84420081398639,16.135029770799065 L16.84420081398639,16.135029770799065ZM18.406803667283555,26.6756812747999 L18.406803667283555,28.22523587947859 L16.844200813986447,28.22523587947859 C16.413391207332438,28.22523587947859 16.062899387337893,27.877670781649158 16.062899387337893,27.450458577139273 C16.062899387337893,27.02324637262933 16.413391207332438,26.6756812747999 16.844200813986447,26.6756812747999 L18.406803667283555,26.6756812747999ZM22.612666442145724,24.351349367782177 L26.16063435069941,26.090453239478222 C26.43901204901428,26.227046477880606 26.649963434209383,26.47501395349434 26.739539642774616,26.771172577313564 C26.829272111625215,27.066440207235075 26.791378992432755,27.388437654087284 26.635587487959043,27.654457440845533 C26.42307349991063,28.01720817380084 26.05492426767384,28.22523587947893 25.625638198801823,28.22523587947893 L19.1881050939312,28.22523587947893 L19.1881050939312,26.67568127480024 L21.141358660552527,26.67568127480024 C21.357075984450205,26.67568127480024 21.532009373876804,26.502247375671573 21.532009373876804,26.288292623630525 C21.532009373876804,26.074337871589535 21.357075984450205,25.900903972460867 21.141358660552527,25.900903972460867 L16.844200813985594,25.900903972460867 C15.982581600677577,25.900903972460867 15.281597960688515,26.59603416811973 15.281597960688515,27.450458577139557 C15.281597960688515,27.732593731786437 15.35839989092807,27.997141441670237 15.49180710952831,28.22523587947893 L13.53183435063778,28.22523587947893 C13.094500877071255,28.22523587947893 12.722835788414557,28.01100995538212 12.512235988861448,27.637683512249907 C12.362616765658231,27.372128591873093 12.32929425981169,27.05257169352319 12.420823721943549,26.760790561462215 C12.51215785871878,26.469280601457 12.722288877415906,26.22487710143406 12.997463239881512,26.090143328557247 L16.5448451723652,24.351349367782177 L22.612666442145724,24.351349367782177ZM16.446862876524705,15.363649545454791 C16.440810138481766,15.363649545454791 16.43569710203343,15.364296593556162 16.429837602362767,15.364668699082927 C16.426009225372184,15.364901132273644 16.42221991345295,15.36544347638528 16.418391536462366,15.365714648441099 C16.415696046540432,15.365947081631816 16.41303962168982,15.366140775957376 16.410344131767886,15.366450686878295 C15.9046467833696,15.403252608739422 15.446452561711567,15.68139766027923 15.18163044314906,16.114575650017173 C15.18163044314906,16.114575650017173 13.745246835327038,18.470905859621837 13.288263630880294,19.220231727579346 C12.561301718455155,19.589994195120767 10.492571800975156,20.721169056536212 10.258650153836584,20.832543293747506 C10.233843833540504,20.844358647608203 10.210365725669703,20.858730766566566 10.188606480937551,20.87542721743199 C9.432345765013082,21.455967850074842 9.376248322579727,22.54592455900587 10.03574485681375,23.199914079910513 C10.336684743157804,23.49864243699261 10.73657721362676,23.65411555881019 11.14065871903864,23.65411555881019 C11.411711451571023,23.65411555881019 11.684649063710708,23.58415956159712 11.930869597292457,23.4405599100171 C11.995639485561611,23.4026732999327 13.28787298016698,22.58756883900662 14.081909620069894,22.151175523463962 C14.679956797098015,21.822243819755784 15.222140922120786,21.39782081353428 15.693773528317166,20.889179514548516 C15.893942953824535,20.672667997409803 15.95812686602369,20.603945250692277 16.062899387337268,20.490750286820514 L16.062899387337268,23.72331488650582 L12.651463903090416,25.395477999279763 C12.185300406880543,25.623688653683814 11.829300411828143,26.03753594972835 11.67475898963707,26.53079791926268 C11.519983177017991,27.02429232198773 11.576627530449997,27.56547426767179 11.830277038611456,28.015736096926275 C12.17795617347005,28.63207144093724 12.81405272997597,29.00001318181819 13.531873415709327,29.00001318181819 L25.625638198802108,29.00001318181819 C26.330176760282427,29.00001318181819 26.96029636087448,28.642492195653688 27.31117883158234,28.043628079810503 C27.575219648718218,27.592785167579223 27.63952075613139,27.047535641057948 27.487792019076238,26.54811419197 C27.336336737520412,26.04745309919832 26.978930399900037,25.62756254019547 26.50702433820433,25.39598160452624 L23.094612227174167,23.723353625370976 L23.094612227174167,20.490556592494954 C23.225831801779776,20.632147144497424 23.35447308167747,20.771025975941768 23.47577012816464,20.901963340037128 C23.939042809095895,21.401849655506453 24.477320426985415,21.822166342025582 25.07568012458421,22.15129174005932 C25.872959165407707,22.58950578226245 27.15987981031185,23.40158861170943 27.227384253574286,23.441024776398535 C27.472893397266034,23.584177333463288 27.745713430389372,23.654215010141115 28.01698613892563,23.654215010141115 C28.42020243417454,23.654215010141115 28.820000152400638,23.499477475290576 29.121610497412348,23.200107774236074 C29.783216545498334,22.543948876884883 29.722782880147065,21.454147123414373 28.968866068502564,20.87542721743199 C28.961170249450078,20.869538909934192 26.388852497423727,19.48458574313753 25.869208918559792,19.220231727579346 C25.41222571411305,18.470905859621837 23.975803041219706,16.114575650017173 23.975646780934397,16.114265739096254 C23.7173875943557,15.69143102634456 23.270600373526747,15.416888689260588 22.774005186748923,15.371990344590017 C22.747352474300754,15.367244598792468 22.726296579799737,15.36558732875261 22.706933927882147,15.36558732875261 C22.695475924285603,15.36558732875261 22.684610856135834,15.366167667424236 22.67352982328191,15.367031769855089 C21.39918813134682,15.366411948013194 17.947554688698887,15.364668699082927 16.446862876524705,15.363649545454791 L16.446862876524705,15.363649545454791Z"/>
    <linearGradient id="linearGradient-5" x1="0.5" y1="0" x2="0.5" y2="1">
      <stop offset="0" stop-color="rgb(102,43,247)" stop-opacity="1"/>
      <stop offset="1" stop-color="rgb(51,194,255)" stop-opacity="1"/>
    </linearGradient>
    <path id="path-6" opacity="1" d="M19.578721871329776,9.779223506493508 C20.652914857094203,9.779223506493508 21.52684117812052,10.65311961038958 21.52684117812052,11.727275454545406 C21.52684117812052,12.801431298701175 20.652914857094203,13.675327402597247 19.578721871329776,13.675327402597247 C18.50452888556535,13.675327402597247 17.630602564539004,12.801431298701175 17.630602564539004,11.727275454545406 C17.630602564539004,10.65311961038958 18.50452888556535,9.779223506493508 19.578721871329776,9.779223506493508 L19.578721871329776,9.779223506493508ZM19.578721871329407,9.000002727272658 C18.07485169125917,9.000002727272658 16.851354841822285,10.22345727272716 16.851354841822285,11.72727545454535 C16.851354841822285,13.23109363636354 18.07485169125917,14.45454818181804 19.578721871329407,14.45454818181804 C21.082553089013516,14.45454818181804 22.306088900836528,13.23109363636354 22.306088900836528,11.72727545454535 C22.306088900836528,10.22345727272716 21.082592051399644,9.000002727272658 19.578721871329407,9.000002727272658 L19.578721871329407,9.000002727272658Z"/>
    <linearGradient id="linearGradient-7" x1="0.5" y1="0" x2="0.5" y2="1">
      <stop offset="0" stop-color="rgb(102,43,247)" stop-opacity="1"/>
      <stop offset="1" stop-color="rgb(51,194,255)" stop-opacity="1"/>
    </linearGradient>
  </defs>
  <g opacity="1">
    <g opacity="1">
      <use xlink:href="#ellipse-0" fill-opacity="0" stroke="url(#linearGradient-1)" stroke-opacity="1" stroke-width="4" mask="url(#mask-2)"/>
    </g>
    <g opacity="1">
      <g opacity="1">
        <use xlink:href="#path-3" fill="rgb(255,255,255)" fill-opacity="1"/>
      </g>
      <g opacity="1">
        <use xlink:href="#path-4" fill="url(#linearGradient-5)" fill-opacity="1"/>
      </g>
      <g opacity="1">
        <use xlink:href="#path-6" fill="url(#linearGradient-7)" fill-opacity="1"/>
      </g>
    </g>
  </g>
</svg>