<?xml version="1.0" encoding="utf-8"?>
<svg version="1.1" xmlns="http://www.w3.org/2000/svg" xmlns:xlink="http://www.w3.org/1999/xlink" height="47.664193005442485" width="48.39046043315375">
  <defs>
    <ellipse id="ellipse-0" opacity="1" rx="24.19523021657679" ry="23.83209650272125" cx="24.19523021657679" cy="23.83209650272125"/>
    <mask id="mask-1" maskUnits="userSpaceOnUse" maskContentUnits="userSpaceOnUse">
      <rect opacity="1" x="0" y="0" width="48.39046043315375" height="47.664193005442485" fill="black"/>
      <use xlink:href="#ellipse-0" fill="white"/>
    </mask>
    <path id="path-2" opacity="1" d="M24.515630307929406,25.43043228624921 L23.264341679955184,25.43043228624921 C22.8093276334191,25.43043228624921 22.440766255724878,25.029339981123954 22.440766255724878,24.53416429578413 C22.440766255724878,24.03898861044431 22.8093276334191,23.637896305319053 23.264341679955184,23.637896305319053 L25.466609665189814,23.637896305319053 C25.76691893590363,23.637896305319053 26.012626521033113,23.37050143523555 26.012626521033113,23.04368548291127 C26.012626521033113,22.716869530586983 25.76691893590363,22.44947466050348 25.466609665189814,22.44947466050348 L24.43372777955291,22.44947466050348 L24.43372777955291,21.62253126598598 C24.43372777955291,21.2957153136617 24.188020194423427,21.028320443578195 23.887710923709616,21.028320443578195 C23.5874016529958,21.028320443578195 23.341694067866317,21.2957153136617 23.341694067866317,21.62253126598598 L23.341694067866317,22.449474660503483 L23.264341679955184,22.449474660503483 C22.208709091991476,22.449474660503483 21.348732544038285,23.385356705795747 21.348732544038285,24.534164295784134 C21.348732544038285,25.682971885772524 22.208709091991476,26.618853931064784 23.264341679955184,26.618853931064784 L24.515630307929406,26.618853931064784 C24.970644354465488,26.618853931064784 25.339205732159712,27.01994623619004 25.339205732159712,27.515121921529865 C25.339205732159712,28.010297606869685 24.970644354465488,28.41138991199494 24.515630307929406,28.41138991199494 L22.272411058506528,28.41138991199494 C21.972101787792713,28.41138991199494 21.72639420266323,28.678784782078445 21.72639420266323,29.00560073440273 C21.72639420266323,29.33241668672701 21.972101787792713,29.599811556810515 22.272411058506528,29.599811556810515 L23.34624420833168,29.599811556810515 L23.34624420833168,30.446561978741613 C23.34624420833168,30.773377931065895 23.591951793461163,31.040772801149398 23.892261064174974,31.040772801149398 C24.19257033488879,31.040772801149398 24.438277920018272,30.773377931065895 24.438277920018272,30.446561978741613 L24.438277920018272,29.599811556810515 L24.52928072932549,29.599811556810515 C24.53383086979085,29.599811556810515 24.53838101025621,29.599811556810515 24.54293115072157,29.599811556810515 C25.589463457754558,29.584956286250318 26.43123944384631,28.654025997811456 26.43123944384631,27.515121921529865 C26.43123944384631,26.366314331541474 25.571262895893113,25.43043228624921 24.515630307929406,25.43043228624921Z"/>
    <path id="path-3" opacity="1" d="M27.10545030796959,11.061800057042547 C27.343117708024238,11.061800057042547 27.678952077666622,11.103769262085962 28.102620051677036,11.408045998649868 L25.62261239893303,16.087612360979392 L21.303265737070546,16.087612360979392 L18.60109073210151,11.943153362952216 C19.200425914847983,11.418538299910779 19.773927684545015,11.187707672172564 20.461096471659516,11.187707672172564 C21.194765402262988,11.187707672172564 22.021434619844285,11.439522902432373 23.121938015749492,11.853968802235158 C23.349272050584318,11.937907212321761 23.592106133248876,11.979876417364949 23.84010689852323,11.979876417364949 C24.444608763879614,11.979876417364949 25.023277216186557,11.738553488366051 25.57611225544406,11.502476709997381 C26.10828056426203,11.276892232889622 26.614615460030677,11.061800057042547 27.10545030796959,11.061800057042547 L27.10545030796959,11.061800057042547ZM25.79827960767011,17.34668851227798 C26.268447725169494,17.67719600199416 27.797785777695026,18.831349140685234 29.306457099781028,20.683240313221404 C31.698631148157006,23.610592364992726 32.90763487886977,26.795005797654312 32.90763487886977,30.163034502380242 C32.91796824408948,32.16181789256825 31.31629663502565,33.78812458799666 29.347790560660087,33.78812458799666 L17.619421036224708,33.78812458799666 C15.65091496185903,33.78812458799666 14.049243352795202,32.16181789256825 14.049243352795202,30.163034502380242 C14.049243352795202,26.800251948284767 15.263413766117765,23.610592364992726 17.650421131883945,20.683240313221404 C19.159092453969947,18.831349140685234 20.693597189105276,17.68244215262439 21.158598623994862,17.34668851227798 L25.79827960767011,17.34668851227798ZM27.110616990580297,9.81321620700328 C26.37178137736703,9.81321620700328 25.694945955472235,10.096508341045592 25.105944137945585,10.348323571305627 C24.640942703055998,10.542431144630882 24.201774681215966,10.731292567325681 23.84527358113405,10.731292567325681 C23.736773246326493,10.731292567325681 23.643772959348553,10.715554115434543 23.550772672370613,10.678831061021583 C22.32110221121843,10.22241595617561 21.375599293609753,9.939123822133297 20.461096471660312,9.939123822133297 C19.303759567046427,9.939123822133297 18.31692318855869,10.411277378870409 17.350753540510482,11.418538299910097 C17.149252918725097,11.628384325126717 17.118252823065745,11.958891814842673 17.278419983972185,12.205460894472253 L20.120095419408017,16.565012068346505 C19.417426584463897,17.094873282018398 18.074089105894245,18.207057215666282 16.72558494471457,19.84910236298606 C15.594081453150125,21.22883997878489 14.689911996420506,22.703008305931462 14.038909987575266,24.22439198875145 C13.222574135213677,26.139236968852856 12.80923952642297,28.138020359040638 12.80923952642297,30.163034502380697 C12.80923952642297,32.85430977578312 14.968912857354212,35.047200739296386 17.61942103622448,35.047200739296386 L29.34779056065986,35.047200739296386 C31.998298739530128,35.047200739296386 34.15797207046137,32.85430977578312 34.15797207046137,30.163034502380697 C34.15797207046137,28.138020359040638 33.74463746167066,26.139236968852856 32.928301609309074,24.22439198875145 C32.27729960046372,22.703008305931462 31.378296826344013,21.22883997878489 30.241626652169657,19.84910236298606 C28.867289077940654,18.170334161253322 27.498118186321562,17.047657926344755 26.800616033987353,16.528289013933772 L29.43562416502789,11.565430517561708 C29.564791230274977,11.318861437932128 29.523457769395918,11.014584701368221 29.32195714761042,10.82047712804274 C28.63995504310583,10.143723696719462 27.91661947772218,9.81321620700328 27.110616990580297,9.81321620700328 L27.110616990580297,9.81321620700328Z"/>
  </defs>
  <g opacity="1">
    <g opacity="1">
      <use xlink:href="#ellipse-0" fill-opacity="0" stroke="rgb(255,255,255)" stroke-opacity="1" stroke-width="4" mask="url(#mask-1)"/>
    </g>
    <g opacity="1">
      <g opacity="1">
        <use xlink:href="#path-2" fill="rgb(255,255,255)" fill-opacity="1"/>
      </g>
      <g opacity="1">
        <use xlink:href="#path-3" fill="rgb(255,255,255)" fill-opacity="1"/>
      </g>
    </g>
  </g>
</svg>