<?xml version="1.0" encoding="utf-8"?>
<svg version="1.1" xmlns="http://www.w3.org/2000/svg" xmlns:xlink="http://www.w3.org/1999/xlink" height="39.60728816905748" width="40.005476616572196">
  <defs>
    <ellipse id="ellipse-0" opacity="1" rx="20.00273830828607" ry="19.803644084528813" cx="20.00273830828607" cy="19.803644084528813"/>
    <linearGradient id="linearGradient-1" x1="0.5" y1="0" x2="0.5" y2="1">
      <stop offset="0" stop-color="rgb(102,43,247)" stop-opacity="1"/>
      <stop offset="1" stop-color="rgb(51,194,255)" stop-opacity="1"/>
    </linearGradient>
    <mask id="mask-2" maskUnits="userSpaceOnUse" maskContentUnits="userSpaceOnUse">
      <rect opacity="1" x="0" y="0" width="40.005476616572196" height="39.60728816905748" fill="black"/>
      <use xlink:href="#ellipse-0" fill="white"/>
    </mask>
    <path id="path-3" opacity="1" d="M20.26762023434795,21.131805582235568 L19.233151921814418,21.131805582235568 C18.85698162634768,21.131805582235568 18.552283687019617,20.798511813689572 18.552283687019617,20.387038025361186 C18.552283687019617,19.975564237032795 18.85698162634768,19.642270468486803 19.233151921814418,19.642270468486803 L21.053816151873434,19.642270468486803 C21.302088546881482,19.642270468486803 21.50522050643352,19.420074622789475 21.50522050643352,19.148501922492738 C21.50522050643352,18.876929222196 21.302088546881482,18.654733376498672 21.053816151873434,18.654733376498672 L20.199909581163936,18.654733376498672 L20.199909581163936,17.967572149990268 C20.199909581163936,17.69599944969353 19.996777621611898,17.473803603996203 19.74850522660385,17.473803603996203 C19.500232831595802,17.473803603996203 19.297100872043764,17.69599944969353 19.297100872043764,17.967572149990268 L19.297100872043764,18.654733376498676 L19.233151921814418,18.654733376498676 C18.360436836331584,18.654733376498676 17.649474977899445,19.432418836439325 17.649474977899445,20.387038025361186 C17.649474977899445,21.341657214283046 18.360436836331584,22.1193426742237 19.233151921814418,22.1193426742237 L20.26762023434795,22.1193426742237 C20.643790529814687,22.1193426742237 20.94848846914275,22.452636442769695 20.94848846914275,22.86411023109808 C20.94848846914275,23.275584019426468 20.643790529814687,23.608877787972464 20.26762023434795,23.608877787972464 L18.413100677696924,23.608877787972464 C18.164828282688877,23.608877787972464 17.961696323136838,23.831073633669792 17.961696323136838,24.10264633396653 C17.961696323136838,24.374219034263266 18.164828282688877,24.596414879960594 18.413100677696924,24.596414879960594 L19.30086257499843,24.596414879960594 L19.30086257499843,25.300035058002138 C19.30086257499843,25.571607758298875 19.50399453455047,25.793803603996203 19.752266929558516,25.793803603996203 C20.000539324566564,25.793803603996203 20.203671284118606,25.571607758298875 20.203671284118606,25.300035058002138 L20.203671284118606,24.596414879960594 L20.278905343211953,24.596414879960594 C20.282667046166623,24.596414879960594 20.286428749121285,24.596414879960594 20.290190452075954,24.596414879960594 C21.155382131649457,24.58407066631074 21.851297178262925,23.810499944253372 21.851297178262925,22.86411023109808 C21.851297178262925,21.90949104217622 21.140335319830786,21.131805582235568 20.26762023434795,21.131805582235568Z"/>
    <linearGradient id="linearGradient-4" x1="0.5" y1="0" x2="0.5" y2="1">
      <stop offset="0" stop-color="rgb(102,43,247)" stop-opacity="1"/>
      <stop offset="1" stop-color="rgb(51,194,255)" stop-opacity="1"/>
    </linearGradient>
    <path id="path-5" opacity="1" d="M22.408682388444618,9.191971475898299 C22.605167347056295,9.191971475898299 22.88280913639892,9.226846426958275 23.233064932184902,9.479689822142916 L21.182787103193732,13.368246865327365 L17.61188655103399,13.368246865327365 L15.377937999862297,9.924345448157283 C15.873421808535227,9.488408559907896 16.347548556489414,9.29659632907817 16.915646371605703,9.29659632907817 C17.52218689601557,9.29659632907817 18.2056128390127,9.505846035437855 19.1154236256275,9.85023617715484 C19.303365759951703,9.919986079274736 19.504122130707174,9.954861030334712 19.70914991360621,9.954861030334712 C20.20890513442282,9.954861030334712 20.687303294520802,9.754330061740006 21.14434439390004,9.55815846202779 C21.584299844704447,9.370705600080555 22.00289823479011,9.191971475898299 22.408682388444618,9.191971475898299 L22.408682388444618,9.191971475898299ZM21.32801511608136,14.414495397125847 C21.716713621161034,14.689135636722938 22.98105161570561,15.648196790871566 24.228303961675238,17.187054006391918 C26.20596778422305,19.619581842823436 27.205478225856268,22.265718754497186 27.205478225856268,25.064433577058196 C27.214021050143742,26.72535312128832 25.889883285586848,28.076757474861438 24.262475258825134,28.076757474861438 L14.566369692554076,28.076757474861438 C12.938961665792249,28.076757474861438 11.614823901235468,26.72535312128832 11.614823901235468,25.064433577058196 C11.614823901235468,22.270078123379676 12.618605755012368,19.619581842823436 14.591998165416499,17.187054006391918 C15.839250511386126,15.648196790871566 17.107859918074496,14.693495005605428 17.492287011010376,14.414495397125847 L21.32801511608136,14.414495397125847ZM22.412953800588866,8.154441681864682 C21.802141864035207,8.154441681864682 21.242586873206392,8.389847601519364 20.755645888820936,8.599097307879049 C20.37121879588517,8.760393956531345 20.00814876366792,8.917331236301095 19.71342132575046,8.917331236301095 C19.62372167073204,8.917331236301095 19.546836252144885,8.904253129653625 19.469950833557732,8.87373754747614 C18.453354743349564,8.494472454699178 17.67168632104665,8.259066535044553 16.915646371606158,8.259066535044553 C15.958850051410309,8.259066535044553 15.143010331957498,8.651409734468984 14.344256261079636,9.488408559907782 C14.177671187474175,9.662783315207548 14.152042714611753,9.937423554804639 14.28445649106743,10.142313892281834 L16.633733170119854,13.764949433634229 C16.05282111857241,14.205245690766105 14.942253961202141,15.129431893854758 13.827415391688078,16.493914354075343 C12.891976132210857,17.640428370171207 12.14447900705784,18.865411026151946 11.606281076947653,20.12962800207515 C10.931397958237994,21.72079764418538 10.589684986739485,23.381717188415564 10.589684986739485,25.06443357705814 C10.589684986739485,27.3007898137775 12.375135262819299,29.12300600665992 14.566369692553735,29.12300600665992 L24.26247525882468,29.12300600665992 C26.453709688559115,29.12300600665992 28.23915996463893,27.3007898137775 28.23915996463893,25.06443357705814 C28.23915996463893,23.381717188415564 27.89744699314042,21.72079764418538 27.22256387443076,20.12962800207515 C26.684365944320575,18.865411026151946 25.94114023131135,17.640428370171207 25.001429559690337,16.493914354075343 C23.865233929457645,15.098916311677328 22.733309711368747,14.16601137082364 22.156669071964984,13.734433851456743 L24.335089265268152,9.610470888617613 C24.44187456886152,9.405580551140417 24.407703271711625,9.152737155955776 24.24111819810605,8.99144050730348 C23.677291795133442,8.429081921461773 23.07929409501105,8.154441681864682 22.412953800588866,8.154441681864682 L22.412953800588866,8.154441681864682Z"/>
    <linearGradient id="linearGradient-6" x1="0.5" y1="0" x2="0.5" y2="1">
      <stop offset="0" stop-color="rgb(102,43,247)" stop-opacity="1"/>
      <stop offset="1" stop-color="rgb(51,194,255)" stop-opacity="1"/>
    </linearGradient>
  </defs>
  <g opacity="1">
    <g opacity="1">
      <use xlink:href="#ellipse-0" fill-opacity="0" stroke="url(#linearGradient-1)" stroke-opacity="1" stroke-width="4" mask="url(#mask-2)"/>
    </g>
    <g opacity="1">
      <g opacity="1">
        <use xlink:href="#path-3" fill="url(#linearGradient-4)" fill-opacity="1"/>
      </g>
      <g opacity="1">
        <use xlink:href="#path-5" fill="url(#linearGradient-6)" fill-opacity="1"/>
      </g>
    </g>
  </g>
</svg>