<?xml version="1.0" encoding="utf-8"?>
<svg version="1.1" xmlns="http://www.w3.org/2000/svg" xmlns:xlink="http://www.w3.org/1999/xlink" height="39.60728816905748" width="40.005476616572196">
  <defs>
    <ellipse id="ellipse-0" opacity="1" rx="20.002738308286084" ry="19.803644084528813" cx="20.002738308286084" cy="19.803644084528813"/>
    <linearGradient id="linearGradient-1" x1="0.5" y1="0" x2="0.5" y2="1">
      <stop offset="0" stop-color="rgb(102,43,247)" stop-opacity="1"/>
      <stop offset="1" stop-color="rgb(51,194,255)" stop-opacity="1"/>
    </linearGradient>
    <mask id="mask-2" maskUnits="userSpaceOnUse" maskContentUnits="userSpaceOnUse">
      <rect opacity="1" x="0" y="0" width="40.005476616572196" height="39.60728816905748" fill="black"/>
      <use xlink:href="#ellipse-0" fill="white"/>
    </mask>
    <path id="path-3" opacity="1" d="M16.263149862438297,25.066586510012257 C16.678824321068646,25.066586510012257 17.08744428229727,25.16402492560519 17.449274798978365,25.34949700932509 C17.692366820009227,25.4741018582435 17.910443943431062,25.63521447174486 18.09415426944969,25.82586613123351 C17.058617831501522,26.233276142263094 16.347414458195203,27.11674324302527 16.23524903428313,28.134904233060638 L16.23524903428313,28.19939088275129 C16.23524903428313,28.2285138858374 16.23524903428313,28.25555667441739 16.23524903428313,28.284679677503448 L16.23524903428313,28.4053321188602 L16.23524903428313,28.550947134290766 L11.25521895982456,28.550947134290766 L11.25521895982456,27.271615213008147 C11.259005618636934,26.055209780536643 12.3458914450257,25.070020190423747 13.68786037868449,25.066587836488566 L16.263149862438297,25.066586510012257 L16.263149862438297,25.066586510012257ZM24.92849968960519,25.066587836488566 L27.503427682021083,25.066587836488566 C28.845339242061527,25.070020190423747 29.93228244206864,26.055209780536643 29.936069100881014,27.271615213008147 L29.936069100881014,28.55302734879683 L24.978988473770187,28.55302734879683 L24.978988473770187,28.372048686761786 C24.978988473770187,28.349166327194098 24.978988473770187,28.326283967626466 24.978988473770187,28.303401608058778 C24.978988473770187,28.279843178776616 24.978988473770187,28.256232744131808 24.978988473770187,28.232674314849703 C24.978988473770187,28.19939088275129 24.978988473770187,28.164027236146694 24.978988473770187,28.13074380404828 L24.978988473770187,28.099540586456044 L24.978988473770187,28.064176939851507 L24.978988473770187,27.9996902901608 L24.978988473770187,27.989289217630073 L24.978988473770187,27.964326643556262 L24.978988473770187,27.94144428398863 L24.978988473770187,27.926882782445546 L24.978988473770187,27.899839993865612 L24.978988473770187,27.8707169907795 L24.978988473770187,27.856155489236414 L24.978988473770187,27.837433558681084 L24.978988473770187,27.818711628125698 L24.978988473770187,27.799989697570368 L24.978988473770187,27.754224978435047 L24.978988473770187,27.733422833373538 L24.978988473770187,27.706380044793605 L24.978988473770187,27.679337256213614 L24.962923860626802,27.62733189355987 L24.962923860626802,27.60652974849836 L24.962923860626802,27.58780781794303 L24.962923860626802,27.573246316399945 L24.962923860626802,27.552444171338436 L24.962923860626802,27.525401382758503 L24.930794634339918,27.444273017018645 C24.631763335398944,26.72373871745077 24.021881772132872,26.144659004301104 23.241715309546635,25.840427632776596 C23.37975623534328,25.655184531003897 23.547631442691966,25.48970346703959 23.73971831699248,25.349497009325034 C24.101548833673576,25.16402492560519 24.5101687949022,25.066586510012257 24.92584325353255,25.066586510012257 L24.92849968960519,25.066587836488566ZM21.883108026560194,26.2023849568468 C23.104993976972025,26.206441375133807 24.135481536503733,27.02849014260181 24.295094942807225,28.126583375036034 C24.295094942807225,28.172348094171355 24.295094942807225,28.218112813306675 24.30886461121588,28.263877532441995 C24.30886461121588,28.311046396368965 24.30886461121588,28.35816325493323 24.30886461121588,28.4053321188602 L24.30886461121588,29.686744254648943 L16.875538615284313,29.686744254648943 L16.875538615284313,28.38244975929257 C16.875538615284313,28.358891330010408 16.875538615284313,28.33600897044272 16.875538615284313,28.31380268058956 C16.875538615284313,28.27776296427055 16.875538615284313,28.241671242588836 16.875538615284313,28.20563152626977 L16.875538615284313,28.151545949109845 C16.875538615284313,28.130743804048336 16.875538615284313,28.109941658986827 16.875538615284313,28.089139513925318 L16.875538615284313,28.022572649728488 L16.875538615284313,28.001770504667036 L16.875538615284313,27.978888145099347 L16.875538615284313,27.933123425964027 L16.88930828369297,27.883198277816405 L16.91225773104071,27.80831055559503 L16.928322344184096,27.758385407447406 C17.25799115533431,26.85271201683213 18.189509223178902,26.239516785781575 19.24162663683586,26.235668388945214 L19.3081800341443,26.2023849568468 L21.883108026560194,26.2023849568468ZM16.26049342636577,24.463325629705025 L13.687860378684661,24.463325629705025 C11.978356045751866,24.46675798364015 10.593471645552768,25.722063427376668 10.589684986740394,27.271615213008204 L10.589684986740394,28.8546584521888 C10.590947206344538,29.020451548328992 10.739544877921105,29.154209341074477 10.922451973282534,29.154209341074477 L16.200824863261687,29.154209341074477 L16.200824863261687,29.986295143534676 C16.200824863261687,30.152868320114692 16.349824150166853,30.287926246926475 16.533591849803827,30.287926246926475 L24.64851643196306,30.287926246926475 C24.832284131600034,30.287926246926475 24.981283418505257,30.152868320114692 24.981283418505257,29.986295143534676 L24.981283418505257,29.154209341074477 L30.259656308484352,29.154209341074477 C30.443424008121326,29.154209341074477 30.592423295026492,29.019151414262637 30.592423295026492,28.85257823768262 L30.592423295026492,27.271615213008204 C30.58863663621412,25.725287759861203 29.209317476996887,24.471334455553688 27.503427682021368,24.463325629705025 L24.92880406814453,24.4633250455945 C24.93013109821254,24.463325240290146 23.875862322298303,24.588018931706813 23.413836164654924,24.825282953775172 C23.020081021786154,25.027739830586313 22.679453849527363,25.305240445706772 22.41553520502839,25.63864682568004 C22.240395947569198,25.610927388114817 22.062921828724882,25.597041955568898 21.8850986132274,25.597041955568898 C21.884435089164697,25.597041955568898 21.883771560241485,25.5970421488974 21.883108026560933,25.597042535557023 L19.305216100138523,25.597041240185206 C19.307192045481997,25.597041671964064 18.95057255991719,25.61097796407165 18.77575285567758,25.63864682568004 C18.511891584797013,25.305188440344125 18.17126441253822,25.027687825223666 17.777451896051105,24.825282953775172 C17.31542573840767,24.588018931706813 16.793479243449497,24.4633250455945 16.262483992561442,24.4633250455945 L16.26049342636577,24.463325629705025Z"/>
    <linearGradient id="linearGradient-4" x1="0.5" y1="0" x2="0.5" y2="1">
      <stop offset="0" stop-color="rgb(102,43,247)" stop-opacity="1"/>
      <stop offset="0.97" stop-color="rgb(51,194,255)" stop-opacity="1"/>
      <stop offset="0.99" stop-color="rgb(255,255,255)" stop-opacity="1"/>
    </linearGradient>
    <ellipse id="ellipse-5" opacity="1" rx="0.5883158325966633" ry="0.5824601201332014" cx="20.41442247568989" cy="14.396582763063417"/>
    <linearGradient id="linearGradient-6" x1="0.5" y1="0" x2="0.5" y2="1">
      <stop offset="0" stop-color="rgb(102,43,247)" stop-opacity="1"/>
      <stop offset="1" stop-color="rgb(51,194,255)" stop-opacity="1"/>
    </linearGradient>
    <path id="path-7" opacity="1" d="M14.532820969147394,21.13366210771187 C14.856127735601888,21.13366210771187 15.179441374082387,21.25574123563058 15.426183863669678,21.499920867604146 C15.663181132482066,21.73447364153958 15.796373251825571,22.052630231649744 15.796459684089939,22.384392765231496 C15.796935061543763,22.716326442756326 15.663829374464683,23.03473974878102 15.426529592727093,23.269206950744945 C15.17976548939987,23.513600512644416 14.856295679233085,23.63580799852332 14.532818989814814,23.63580799852332 C14.20951222336032,23.63580799852332 13.886198584879821,23.51372887060461 13.63945609529253,23.269549238631043 C13.145884649795335,22.781061639210975 13.145711785266656,21.988964684839118 13.639110366235172,21.500263155490245 C13.885874469562452,21.255869593590774 14.20934427972918,21.13366210771187 14.532820969147394,21.13366210771187 L14.532820969147394,21.13366210771187ZM14.531220827037089,20.638723844262586 C13.55721523658417,20.638723844262586 12.76718121088527,21.420011037412394 12.766317360958283,22.3845639091748 C12.765453038314888,23.349601817987946 13.55492534077024,24.132628143378724 14.531307641237902,24.133484565061735 C14.530241547438948,24.133484331105137 16.295347186559695,23.352197371911984 16.29621103648674,22.38764450014952 C16.296599981676252,21.924486204299285 16.111289206937442,21.48011095619762 15.780901876508722,21.152156375348454 C15.450906278493278,20.823521757845185 15.002156504512925,20.638724071676847 14.532819979480564,20.638724546230378 C14.533686051998359,20.638724071676847 14.531753822794315,20.638723844262586 14.531220827037089,20.638723844262586 L14.531220827037089,20.638723844262586Z"/>
    <linearGradient id="linearGradient-8" x1="0.5" y1="0" x2="0.5" y2="1">
      <stop offset="0" stop-color="rgb(102,43,247)" stop-opacity="1"/>
      <stop offset="1" stop-color="rgb(51,194,255)" stop-opacity="1"/>
    </linearGradient>
    <ellipse id="ellipse-9" opacity="1" rx="0.5883158325966633" ry="0.5824601201332014" cx="23.120949136463196" cy="14.396582763063417"/>
    <linearGradient id="linearGradient-10" x1="0.5" y1="0" x2="0.5" y2="1">
      <stop offset="0" stop-color="rgb(102,43,247)" stop-opacity="1"/>
      <stop offset="1" stop-color="rgb(51,194,255)" stop-opacity="1"/>
    </linearGradient>
    <path id="path-11" opacity="1" d="M20.101735914759104,10.03242441128259 C21.397087906057095,10.03242441128259 22.657875047109883,10.459850304349459 23.690291307504822,11.250811791321723 C24.609156972883852,11.981269073466592 25.177402844894573,13.008778983683612 25.177402844894573,14.128813482972362 C25.177402844894573,15.248847982261111 24.616411175505277,16.266618462049564 23.69754551012619,17.00925003223017 C22.665129249731308,17.800211519202435 21.404342108678463,18.227637412269303 20.10899011738053,18.227637412269303 C20.073597334039675,18.227637412269303 20.03817874661047,18.22731832118575 20.002738308286155,18.226678835804876 C19.999569537228695,18.226683451752365 19.996400804192035,18.22668575967424 19.993232111698887,18.22668575967424 C19.662111255072546,18.22668575967424 19.331433124031378,18.201483818566714 19.004076414071562,18.151198249983224 C18.67618645558366,18.101831511998284 18.35276992204564,18.026107440415956 18.03684939788303,17.924756492518327 C18.002580550402286,17.913877173772903 17.967229592040496,17.908502898786594 17.932021405008356,17.908502898786594 C17.870898962675597,17.908502898786594 17.81020680422455,17.924699875507088 17.756353563188384,17.956409641411256 L16.375636997579306,18.776956655020626 L16.576336603438392,17.437784971088433 C16.595499788696657,17.30697224614437 16.540428300462395,17.17634213552077 16.433670618550593,17.099339763694672 C15.937724965999962,16.737946023353516 15.52526309528406,16.27282734894783 15.224636848315015,15.735819503691005 C14.95574773781459,15.243430424085204 14.814411690074053,14.690717747262283 14.813565366434887,14.128813482972362 C14.813565366434887,13.008778983683612 15.381811238445607,11.99100850389516 16.300676903824694,11.250811791321723 C17.333093164219633,10.459850304349459 18.59388030527242,10.03242441128259 19.889232296570356,10.03242441128259 C19.92462507991121,10.03242441128259 19.960043667340415,10.032743502366145 19.99548410566473,10.033382987747018 C20.030924543989045,10.032743502366145 20.06634313141825,10.03242441128259 20.101735914759104,10.03242441128259 L20.101735914759104,10.03242441128259ZM19.913260937570726,9.319361922131066 C18.452573687247764,9.319361922131066 17.03188011679498,9.805295156339582 15.872678949161582,10.70296882971303 C14.789384691030477,11.57464785307252 14.11957998231992,12.787206941432942 14.11957998231992,14.128813482972305 C14.12090991946718,14.810208384333066 14.293076328348718,15.48022032638039 14.620119963197453,16.076699568691822 C14.931325255656134,16.6401864904264 15.349530036780607,17.136593085083973 15.850916341297307,17.537614132981503 L15.572838574143134,19.4002802024508 C15.543882215346002,19.591720881812932 15.67457876590845,19.770500301617915 15.864699326278014,19.799657721463518 C15.882126602491326,19.802324306453954 15.89963673390912,19.803644084528685 15.917085033136004,19.803644084528685 C15.978500304757802,19.803644084528685 16.03914951919853,19.787292966173936 16.092723095344468,19.75576941309464 L17.98365191199298,18.645474344234515 C18.283310931945834,18.735198847057973 18.588712862307375,18.804348803100993 18.89768144229106,18.85243724084222 C19.2633598728288,18.90917019907573 19.63283057063967,18.937657645635852 20.002789870326126,18.93765764563591 C20.003578703282358,18.93765764563591 20.004367538459974,18.937657516122215 20.005156375826914,18.93765725709244 C20.034997567838218,18.938062658445403 20.06482400981497,18.938265043813487 20.09463381763294,18.938265043813487 C21.555323366557786,18.938265043813487 22.97607380998039,18.45233180960497 24.13521573495177,17.554658136231524 C25.2160919255424,16.68054425526492 25.88589663425296,15.470420024511611 25.88589663425296,14.128813482972305 C25.88589663425296,12.787206941432942 25.2160919255424,11.57464785307252 24.132797667411296,10.70296882971303 C22.973655742439917,9.805295156339582 21.55290529901731,9.319361922131066 20.092215750092464,9.319361922131066 C20.062405942274495,9.319361922131066 20.032579500297743,9.31956430749915 20.00273830828644,9.319969708852113 C19.972897116275135,9.31956430749915 19.943070698478778,9.319361922131066 19.913260937570726,9.319361922131066 L19.913260937570726,9.319361922131066Z"/>
    <linearGradient id="linearGradient-12" x1="0.5" y1="0" x2="0.5" y2="1">
      <stop offset="0" stop-color="rgb(102,43,247)" stop-opacity="1"/>
      <stop offset="1" stop-color="rgb(51,194,255)" stop-opacity="1"/>
    </linearGradient>
    <path id="path-13" opacity="1" d="M26.29771146222481,21.134646185384327 C26.6210182155869,21.134646185384327 26.944331840974712,21.256725313303036 27.191074320570124,21.50090494527666 C27.684645746080037,21.989392544696727 27.684818610601724,22.781532285054368 27.191420049613498,23.270191028417457 C26.944655956279007,23.51458459031693 26.62118615921122,23.63679207619589 26.297709482892287,23.63679207619589 C25.974402729530198,23.63679207619589 25.651089104142386,23.51471294827718 25.404346624546974,23.270533316303556 C25.167349365331802,23.035980542368122 25.03415725138194,22.71782395225796 25.034070819121098,22.38606141867615 C25.033595441686487,22.05412774115132 25.16670112337556,21.735714435126624 25.4040008955036,21.5012472331627 C25.65076498883809,21.256853671263286 25.97423478590582,21.134646185384383 26.29771146222481,21.134646185384327 L26.29771146222481,21.134646185384327ZM26.297537452484278,20.638723844262586 C25.323531901473984,20.638723844262586 24.53349790776781,21.420011037412394 24.532634057875725,22.3845639091748 C24.532201896571507,22.847722205025036 24.717555879936526,23.292140239112484 25.047943196986125,23.620052033975867 C25.377938781638193,23.948686651479136 25.82668853744633,24.133484337647474 26.294725959472487,24.133484337647474 C26.29515897099003,24.133484337647474 26.295591999016438,24.133484179473783 26.297624195851768,24.133484565061735 C26.296558149290092,24.133484331105137 28.06166374056812,23.352197371911984 28.062527590460206,22.38764450014952 C28.063391913068585,21.42256380535065 27.273876426452716,20.639580265945597 26.29913660486301,20.638724546230378 C26.298603499045896,20.638724078219184 26.298070448219903,20.638723844262586 26.297537452484278,20.638723844262586 L26.297537452484278,20.638723844262586Z"/>
    <linearGradient id="linearGradient-14" x1="0.5" y1="0" x2="0.5" y2="1">
      <stop offset="0" stop-color="rgb(102,43,247)" stop-opacity="1"/>
      <stop offset="1" stop-color="rgb(51,194,255)" stop-opacity="1"/>
    </linearGradient>
    <ellipse id="ellipse-15" opacity="1" rx="0.5883158325966491" ry="0.5824601201332014" cx="18.061159145303222" cy="14.396582763063417"/>
    <linearGradient id="linearGradient-16" x1="0.5" y1="0" x2="0.5" y2="1">
      <stop offset="0" stop-color="rgb(102,43,247)" stop-opacity="1"/>
      <stop offset="1" stop-color="rgb(51,194,255)" stop-opacity="1"/>
    </linearGradient>
    <path id="path-17" opacity="1" d="M20.237271710668608,22.30181806559284 C20.237058277689812,22.301818026335752 20.894365576134362,22.433899143021108 21.131507680840343,22.66876705113299 C21.36903911041719,22.90346364786035 21.50227473290795,23.222188478671455 21.501798891399062,23.554446908855937 C21.501582632850386,24.24596812514818 20.935287995682472,24.806390545841282 20.236579577564783,24.806390506581124 C20.236793026844225,24.806390545841282 18.971879363558344,24.245345722433626 18.972052396834272,23.553761663318028 C18.97222540367528,22.86228326025838 19.538563292553476,22.301818026335752 20.236951565824143,22.301818026335752 L20.237271710668608,22.30181806559284ZM20.235625291920883,21.80364408452874 C19.767130961090402,21.80364408452874 19.317943125537738,21.98862257048978 18.987625391670917,22.31757871296412 C18.299558569807914,23.001153964855632 18.301505194162473,24.107525713625307 18.99195122356997,24.788745433980296 C19.336388829000896,25.12858038017123 19.78710273668196,25.298404805327948 20.23776305550956,25.298404805327948 C20.690478624912032,25.298404805327948 21.14314011555922,25.127027868809762 21.487956229322208,24.784462649368493 C22.17602305118521,24.100887397477038 22.174076426830595,22.994515648707306 21.483630397423156,22.313295928352318 C21.152810920820855,21.986881381932506 20.704768568147244,21.80364437209181 20.2377438135465,21.803644372091753 C20.23747109686957,21.803644372091753 20.23719837371982,21.80364443457404 20.235625291920883,21.80364408452874 L20.235625291920883,21.80364408452874Z"/>
    <linearGradient id="linearGradient-18" x1="0.5" y1="0" x2="0.5" y2="1">
      <stop offset="0" stop-color="rgb(102,43,247)" stop-opacity="1"/>
      <stop offset="1" stop-color="rgb(51,194,255)" stop-opacity="1"/>
    </linearGradient>
  </defs>
  <g opacity="1">
    <g opacity="1">
      <use xlink:href="#ellipse-0" fill-opacity="0" stroke="url(#linearGradient-1)" stroke-opacity="1" stroke-width="4" mask="url(#mask-2)"/>
    </g>
    <g opacity="1">
      <use xlink:href="#path-3" fill="url(#linearGradient-4)" fill-opacity="1"/>
    </g>
    <g opacity="1">
      <use xlink:href="#ellipse-5" fill="url(#linearGradient-6)" fill-opacity="1"/>
    </g>
    <g opacity="1">
      <use xlink:href="#path-7" fill="url(#linearGradient-8)" fill-opacity="1"/>
    </g>
    <g opacity="1">
      <use xlink:href="#ellipse-9" fill="url(#linearGradient-10)" fill-opacity="1"/>
    </g>
    <g opacity="1">
      <use xlink:href="#path-11" fill="url(#linearGradient-12)" fill-opacity="1"/>
    </g>
    <g opacity="1">
      <use xlink:href="#path-13" fill="url(#linearGradient-14)" fill-opacity="1"/>
    </g>
    <g opacity="1">
      <use xlink:href="#ellipse-15" fill="url(#linearGradient-16)" fill-opacity="1"/>
    </g>
    <g opacity="1">
      <use xlink:href="#path-17" fill="url(#linearGradient-18)" fill-opacity="1"/>
    </g>
  </g>
</svg>