<?xml version="1.0" encoding="utf-8"?>
<svg version="1.1" xmlns="http://www.w3.org/2000/svg" xmlns:xlink="http://www.w3.org/1999/xlink" height="47.664193005442485" width="48.39046043315375">
  <defs>
    <ellipse id="ellipse-0" opacity="1" rx="24.19523021657683" ry="23.83209650272125" cx="24.19523021657683" cy="23.83209650272125"/>
    <mask id="mask-1" maskUnits="userSpaceOnUse" maskContentUnits="userSpaceOnUse">
      <rect opacity="1" x="0" y="0" width="48.39046043315375" height="47.664193005442485" fill="black"/>
      <use xlink:href="#ellipse-0" fill="white"/>
    </mask>
    <path id="path-2" opacity="1" d="M19.671839370381235,30.16562538442713 C20.174637490653822,30.16562538442713 20.66890251980317,30.282884698600355 21.10657122873465,30.506085468060064 C21.400614340332936,30.656037404756944 21.664399534381914,30.849923506546247 21.886614791247098,31.07935747980605 C20.634034163152137,31.569642735266598 19.773765479797703,32.632824496788544 19.638090643079636,33.85809954547449 L19.638090643079636,33.9357040536147 C19.638090643079636,33.970751250839385 19.638090643079636,34.00329507683364 19.638090643079636,34.03834227405832 L19.638090643079636,34.18353780541747 L19.638090643079636,34.35877379154067 L13.614266690581644,34.35877379154067 L13.614266690581644,32.81920048488678 C13.618847017550138,31.35535415795016 14.93353965529343,30.16975754326495 16.556779773368703,30.16562698073494 L19.671839370381235,30.16562538442713 L19.671839370381235,30.16562538442713ZM30.15341098043575,30.16562698073494 L33.268033319008396,30.16562698073494 C34.89120403819015,30.16975754326495 36.20596607482685,31.35535415795016 36.21054640179534,32.81920048488678 L36.21054640179534,34.3612771627711 L30.21448200668226,34.3612771627711 L30.21448200668226,34.14348386573215 C30.21448200668226,34.115946782198534 30.21448200668226,34.08840969866492 30.21448200668226,34.0608726151313 C30.21448200668226,34.03252193594767 30.21448200668226,34.004108672483426 30.21448200668226,33.97575799330002 C30.21448200668226,33.9357040536147 30.21448200668226,33.893146742698946 30.21448200668226,33.853092803013624 L30.21448200668226,33.815542234558734 L30.21448200668226,33.77298492364321 L30.21448200668226,33.69538041550277 L30.21448200668226,33.68286355935106 L30.21448200668226,33.65282310458724 L30.21448200668226,33.625286021053626 L30.21448200668226,33.60776242244128 L30.21448200668226,33.5752185964468 L30.21448200668226,33.540171399222345 L30.21448200668226,33.52264780061 L30.21448200668226,33.50011745953702 L30.21448200668226,33.477587118464044 L30.21448200668226,33.455056777391064 L30.21448200668226,33.399982610323605 L30.21448200668226,33.37494889802042 L30.21448200668226,33.34240507202594 L30.21448200668226,33.30986124603169 L30.195050316512834,33.247276965273386 L30.195050316512834,33.2222432529702 L30.195050316512834,33.19971291189722 L30.195050316512834,33.18218931328488 L30.195050316512834,33.15715560098147 L30.195050316512834,33.124611774987216 L30.15618693617421,33.02698029700423 C29.79447990345045,32.159875087098044 29.0567696659499,31.46299912085442 28.113083512654157,31.09688107841839 C28.28005725032358,30.87395587035735 28.483118412593285,30.674812688984503 28.71546590790399,30.506085468060064 C29.15313461683536,30.282884698600355 29.64739964598482,30.16562538442713 30.150197766257406,30.16562538442713 L30.15341098043575,30.16562698073494ZM26.469717715474758,31.53246767249675 C27.947705949533997,31.537349246395934 29.194179475004262,32.52661897234225 29.387247196615476,33.84808606055367 C29.387247196615476,33.9031602276209 29.387247196615476,33.95823439468836 29.403902931046332,34.01330856175559 C29.403902931046332,34.07007250440347 29.403902931046332,34.12677386277028 29.403902931046332,34.183537805418155 L29.403902931046332,35.72561448330248 L20.412582294115055,35.72561448330248 L20.412582294115055,34.15600072188454 C20.412582294115055,34.12765004270091 20.412582294115055,34.10011295916729 20.412582294115055,34.07338947128346 C20.412582294115055,34.03001856471815 20.412582294115055,33.986585073871765 20.412582294115055,33.94321416730622 L20.412582294115055,33.87812651531772 C20.412582294115055,33.853092803014306 20.412582294115055,33.82805909071112 20.412582294115055,33.80302537840771 L20.412582294115055,33.72291749903707 L20.412582294115055,33.69788378673388 L20.412582294115055,33.67034670320004 L20.412582294115055,33.61527253613281 L20.42923802854591,33.55519162660494 L20.456997585930708,33.46507026231302 L20.47642927610002,33.40498935278492 C20.87519531793248,32.31508410337915 22.001955752180834,31.57715284895812 23.274592660486178,31.572521612182072 L23.355095376902113,31.53246767249675 L26.469717715474758,31.53246767249675ZM19.6686261562038,29.439649323938966 L16.556779773369612,29.439649323938966 C14.488970343777055,29.4437798864692 12.813819853392374,30.954439255412808 12.80923952642388,32.819200484887006 L12.80923952642388,34.72426599116943 C12.810766302080083,34.923784678226866 12.990509436146567,35.08475144833733 13.211753108503217,35.08475144833733 L19.59645130700335,35.08475144833733 L19.59645130700335,36.08609994046992 C19.59645130700335,36.286557391738825 19.776680233323987,36.44908876886802 19.998964889082686,36.44908876886802 L29.81474438034195,36.44908876886802 C30.037029036100535,36.44908876886802 30.217257962421286,36.286557391738825 30.217257962421286,36.08609994046992 L30.217257962421286,35.08475144833733 L36.60195616092142,35.08475144833733 C36.82424081668,35.08475144833733 37.004469743000755,34.9222200712079 37.004469743000755,34.72176261993923 L37.004469743000755,32.819200484887006 C36.99988941603226,30.95831948081991 35.33147061831335,29.44928730317588 33.268033319008964,29.439649323938966 L30.156186936174777,29.439649323938966 C30.15538432559663,29.439648855309315 30.1545817319884,29.4396486210087 30.153779155470147,29.4396486210087 C29.511489477869645,29.439648621008928 28.880145138328658,29.589707706823674 28.321280193040593,29.87523591801687 C27.8449955872112,30.118876523008794 27.432974356727527,30.452826245135157 27.113739446802583,30.854054069076483 C26.901891719312403,30.820695950326353 26.68721975306721,30.80398594650069 26.469717715475554,30.803986644469887 L23.35509537690291,30.803986644469887 C23.353900309868095,30.80398560520507 23.35270525559133,30.803985085593922 23.351510214484506,30.803985085593922 C23.13680998216182,30.803985085593922 22.922534842801838,30.82075681443189 22.711073645575993,30.854054069076483 C22.39190813454445,30.452763660854316 21.979886904060777,30.118813938727953 21.50353289933787,29.87523591801687 C20.94466795404992,29.589707706823674 20.313323614508818,29.439648621008928 19.67103393690843,29.4396486210087 L19.6686261562038,29.439649323938966Z"/>
    <ellipse id="ellipse-3" opacity="1" rx="0.7116244181345621" ry="0.700944014785919" cx="24.69320169694791" cy="17.32513209459158"/>
    <linearGradient id="linearGradient-4" x1="0.5" y1="0" x2="0.5" y2="1">
      <stop offset="0" stop-color="rgb(102,43,247)" stop-opacity="1"/>
      <stop offset="1" stop-color="rgb(51,194,255)" stop-opacity="1"/>
    </linearGradient>
    <path id="path-5" opacity="1" d="M17.57884063799179,25.432666465681905 C17.969911176654136,25.432666465681905 18.360990027690832,25.579578899833223 18.659448731082534,25.873429492600735 C18.946119655395023,26.155694934231178 19.107228296666108,26.538570859798938 19.107332844778625,26.93782044651948 C19.107907859397073,27.337275991241995 18.946903766238393,27.72046085381271 18.65986692353249,28.00262331644217 C18.36138207624947,28.29673135670828 17.9701143205815,28.443798259364712 17.57883824379917,28.44379825936494 C17.18776770513682,28.44379825936494 16.79668885410001,28.296885825213394 16.498230150708196,28.00303523244588 C15.90120815461546,27.415179605467983 15.900999058390653,26.461954483085037 16.497811958258467,25.873841408604676 C16.796296805541488,25.57973336833834 17.187564561209456,25.432666465681905 17.57884063799179,25.432666465681905 L17.57884063799179,25.432666465681905ZM17.57690511265821,24.837047982181048 C16.39875194532533,24.837047982181048 15.443130028160454,25.777264424367786 15.442085118831756,26.93802640452145 C15.441039637707377,28.099372087843904 16.39598209674091,29.041681436124918 17.577010122759702,29.042712070896414 C17.57572058007304,29.04271178934846 19.710785121581807,28.102495628709903 19.71183003091062,26.94173364855601 C19.71230049741655,26.384359805862005 19.488149344343697,25.84958985387857 19.088514184539008,25.45492283270073 C18.689352862654687,25.059437441979526 18.146546976592845,24.83704825585596 17.57883944089508,24.83704882694292 C17.579887038660218,24.83704825585596 17.5775498221401,24.837047982181048 17.57690511265821,24.837047982181048 L17.57690511265821,24.837047982181048Z"/>
    <ellipse id="ellipse-6" opacity="1" rx="0.7116244181345905" ry="0.700944014785919" cx="27.967005245014036" cy="17.32513209459158"/>
    <linearGradient id="linearGradient-7" x1="0.5" y1="0" x2="0.5" y2="1">
      <stop offset="0" stop-color="rgb(102,43,247)" stop-opacity="1"/>
      <stop offset="1" stop-color="rgb(51,194,255)" stop-opacity="1"/>
    </linearGradient>
    <path id="path-8" opacity="1" d="M24.314977315328406,12.073217722224172 C25.88182977112308,12.073217722224172 27.40687272582852,12.587590485532246 28.65567919995226,13.53944916401565 C29.76713534007206,14.418495887178779 30.45448321619881,15.655021611094753 30.45448321619881,17.00289325327799 C30.45448321619881,18.350764895461225 29.77590999380982,19.575569996401555 28.66445385369002,20.469267498283898 C27.415647379566394,21.42112617676753 25.89060442486084,21.935498940075604 24.32375196906628,21.935498940075604 C24.280941003500402,21.935498940075604 24.238098825415022,21.935114939562254 24.195230216576647,21.934345370222218 C24.191397284102436,21.9343509251446 24.187564397618075,21.934353702543376 24.183731560175033,21.934353702543376 C23.783209130089972,21.934353702543376 23.38322221905696,21.904025188762716 22.98725288534115,21.843510542161994 C22.590638536393044,21.784101634455055 22.19943522391668,21.69297379082036 21.81729905363602,21.57100605798155 C21.77584759627689,21.55791367088773 21.733087222034214,21.551446162202865 21.690499543406304,21.551446162202865 C21.616566087853926,21.551446162202865 21.543153101920097,21.57093792395176 21.47801244244158,21.609098082652054 L19.807903347682554,22.59656056833842 L20.050668767761408,20.98497490920613 C20.073848478052014,20.82755229186637 20.0072342317593,20.670349436207516 19.87810057758486,20.577683260807362 C19.278206750378104,20.142774894522518 18.779294563270355,19.583041893548398 18.415658287953534,18.936796044236416 C18.09041112273951,18.344245298931128 17.919451619081542,17.67909994507113 17.91842790947885,17.00289325327799 C17.91842790947885,15.655021611094753 18.6057757856056,14.430216510154196 19.7172319257254,13.53944916401565 C20.966038399849026,12.587590485532246 22.49108135455458,12.073217722224172 24.05793381034914,12.073217722224172 C24.100744775915018,12.073217722224172 24.143586954000398,12.073601722737521 24.186455562838773,12.074371292077558 C24.22932417167715,12.073601722737521 24.27216634976253,12.073217722224172 24.314977315328406,12.073217722224172 L24.314977315328406,12.073217722224172ZM24.08699875595073,11.215104236574234 C22.320157448961027,11.215104236574234 20.601692333108076,11.79988588999663 19.199527355196096,12.88016412164302 C17.889179063686356,13.929159877950951 17.078986035230628,15.388377438401449 17.078986035230628,17.002893253277534 C17.080594721749208,17.8228973382013 17.288846503792684,18.629202945022598 17.684437143137984,19.347017848378755 C18.06086978848907,20.025129141405387 18.566728576472656,20.62251464368819 19.173203393982703,21.105111294704784 L18.83684166736748,23.346680438770363 C18.801816174530813,23.57706393413264 18.95990618604003,23.792210619626758 19.189875236084504,23.827299234659677 C19.210955197914245,23.83050825571422 19.23213538105938,23.832096502721015 19.25324077224002,23.832096502721015 C19.3275284328995,23.832096502721015 19.400889473934626,23.812419243884506 19.465691851909014,23.774483177376396 L21.752951592892487,22.438332158168578 C22.11541791437753,22.54630839733045 22.48483083673841,22.62952482045648 22.85855796385374,22.687395396398188 C23.30088109360463,22.755668959068544 23.74779133429513,22.789951315014832 24.19815510115609,22.78995084743383 C24.196246754918093,22.789951315014832 24.270328826501782,22.790682269980607 24.306386647773706,22.790682269980607 C26.0732307351426,22.79068226998038 27.791764644306,22.205900616557983 29.193857962536754,21.12562238491182 C30.50128136946728,20.073696472860092 31.311474397923007,18.617409068153393 31.311474397923007,17.002893253277534 C31.311474397923007,15.388377438401449 30.50128136946728,13.929159877950951 29.19093307795754,12.88016412164302 C27.788839759726443,11.79988588999663 26.070305850562704,11.215104236574234 24.303461763193468,11.215104236574234 C24.26740394192177,11.215104236574234 24.23132600003987,11.215347791124259 24.19523021657676,11.215835659121012 C24.15913443311365,11.215347791124259 24.123056520480304,11.215104236574234 24.08699875595073,11.215104236574234 L24.08699875595073,11.215104236574234Z"/>
    <path id="path-9" opacity="1" d="M31.809603924781754,25.433850724192325 C32.200674447607526,25.433850724192325 32.59175328280753,25.580763158343643 32.89021197411307,25.874613751111156 C33.48723394602928,26.46246937808928 33.48744304224567,27.41574598997272 32.890630166545975,28.00380757495259 C32.59214533135014,28.297915615218926 32.20087759152659,28.44498251787536 31.80960153058902,28.44498251787536 C31.41853100776325,28.44498251787536 31.027452172563244,28.298070083724042 30.728993481257703,28.00421949095653 C30.442322568554005,27.721954049326087 30.281213933807066,27.3390781237581 30.28110938569887,26.939828537037556 C30.280534371103727,26.54037299231527 30.441538457742467,26.157188129744327 30.728575288824914,25.875025667115096 C31.027060124020636,25.58091762684876 31.418327863844183,25.433850724192325 31.809603924781754,25.433850724192325 L31.809603924781754,25.433850724192325ZM31.809393443313297,24.837047982181048 C30.631240323690008,24.837047982181048 29.675618445223336,25.777264424367786 29.67457353593693,26.93802640452145 C29.674050795395942,27.495400247215457 29.898254213445853,28.030221688699385 30.297889357067106,28.42483722037673 C30.697050662787092,28.820322611097936 31.239856526867698,29.0427117972215 31.805992672897446,29.0427117972215 C31.80651644185309,29.0427117972215 31.80704023077783,29.042711606872217 31.809498367734932,29.042712070896414 C31.80820888218625,29.04271178934846 33.94327336582489,28.102495628709903 33.9443182751113,26.94173364855601 C33.94536375619339,25.780336475733293 32.99036906177639,24.838078616952544 31.811327771471838,24.83704882694292 C31.81068292886198,24.837048263729002 31.810038152769152,24.837047982181048 31.809393443313297,24.837047982181048 L31.809393443313297,24.837047982181048Z"/>
    <ellipse id="ellipse-10" opacity="1" rx="0.7116244181346616" ry="0.700944014785919" cx="21.846704024408965" cy="17.32513209459158"/>
    <path id="path-11" opacity="1" d="M24.478920858161473,26.838448421750854 C24.47866269050587,26.83844837450806 25.273738902761806,26.99739739952588 25.56058501997711,27.28004207984941 C25.847902062959406,27.562480600668778 26.00906332545901,27.946040358321625 26.008487749521464,28.3458867168099 C26.00822616406799,29.178077009162735 25.323238493604208,29.852500421098284 24.47808365679782,29.852500373851854 C24.478341844170927,29.852500421098284 22.948307465096946,29.177327997440898 22.94851676543783,28.345062078792807 C22.94872603380304,27.512923308729796 23.633766021358497,26.83844837450806 24.478533612270894,26.83844837450806 L24.478920858161473,26.838448421750854ZM24.476929356796404,26.238936011753594 C23.910240535750972,26.238936011753594 23.36690477220793,26.461542775919497 22.96735379611914,26.857415096142404 C22.135070990496047,27.680043057966714 22.13742561933134,29.01147267627448 22.972586304641823,29.83126594491523 C23.389216619462104,30.24023003243633 23.934398313592396,30.444600100469188 24.479515186865342,30.444600100469188 C25.02711808280401,30.444600100469188 25.57465556530201,30.238361709594756 25.991743722248202,29.826111957309195 C26.824026527871183,29.003483995484885 26.821671899036005,27.67205437717712 25.98651121372552,26.852261108536368 C25.58635333168195,26.459447395213374 25.044403139531482,26.23893635781269 24.47949191186615,26.238936357812463 C24.47916203489217,26.238936357812463 24.47883215008858,26.238936433004937 24.476929356796404,26.238936011753594 L24.476929356796404,26.238936011753594Z"/>
  </defs>
  <g opacity="1">
    <g opacity="1">
      <use xlink:href="#ellipse-0" fill-opacity="0" stroke="rgb(255,255,255)" stroke-opacity="1" stroke-width="4" mask="url(#mask-1)"/>
    </g>
    <g opacity="1">
      <use xlink:href="#path-2" fill="rgb(255,255,255)" fill-opacity="1"/>
    </g>
    <g opacity="1">
      <use xlink:href="#ellipse-3" fill="url(#linearGradient-4)" fill-opacity="1"/>
    </g>
    <g opacity="1">
      <use xlink:href="#path-5" fill="rgb(255,255,255)" fill-opacity="1"/>
    </g>
    <g opacity="1">
      <use xlink:href="#ellipse-6" fill="url(#linearGradient-7)" fill-opacity="1"/>
    </g>
    <g opacity="1">
      <use xlink:href="#path-8" fill="rgb(255,255,255)" fill-opacity="1"/>
    </g>
    <g opacity="1">
      <use xlink:href="#path-9" fill="rgb(255,255,255)" fill-opacity="1"/>
    </g>
    <g opacity="1">
      <use xlink:href="#ellipse-10" fill="rgb(255,255,255)" fill-opacity="1"/>
    </g>
    <g opacity="1">
      <use xlink:href="#path-11" fill="rgb(255,255,255)" fill-opacity="1"/>
    </g>
  </g>
</svg>