<?xml version="1.0" encoding="utf-8"?>
<!-- Generator: Adobe Illustrator 24.1.0, SVG Export Plug-In . SVG Version: 6.00 Build 0)  -->
<svg version="1.1" xmlns="http://www.w3.org/2000/svg" xmlns:xlink="http://www.w3.org/1999/xlink" x="0px" y="0px"
	 viewBox="0 0 40.2 32.2" style="enable-background:new 0 0 40.2 32.2;" xml:space="preserve">
<style type="text/css">
	.st0{display:none;}
	.st1{display:inline;}
	.st2{fill-rule:evenodd;clip-rule:evenodd;fill:#af006e;}
	.st3{display:inline;fill-rule:evenodd;clip-rule:evenodd;fill:#af006e;}
	.st4{display:inline;fill:#af006e;}
	.st5{fill:#af006e;}
</style>
<g id="Layer_1" class="st0">
	<g class="st1">
		<path class="st2" d="M25,24.5c0,4-3.2,7.2-7.2,7.2c-3.1,0-5.8-2-6.8-4.8H3.8c-1,2.8-3.7,4.8-6.8,4.8c-3.1,0-5.8-2-6.8-4.8h-0.1
			c-1.1,0-1.9-0.9-1.9-2l0-4.4c0-4.6,4.2-7.7,11.2-8V3.1c0-1.9,1.5-3.4,3.4-3.4l7,0c3.4,0,10.4,9.1,10.4,15.1l0,1.3l0,1.6
			C23,18.7,25,21.4,25,24.5 M13.8,24.5c0,2.2,1.8,4,4,4c2.2,0,4-1.8,4-4c0-2.2-1.8-4-4-4C15.6,20.5,13.8,22.3,13.8,24.5 M-7,24.5
			c0,2.2,1.8,4,4,4c2.2,0,4-1.8,4-4c0-2.2-1.8-4-4-4C-5.2,20.5-7,22.3-7,24.5 M9.7,11.9c0.3,0.4,0.8,0.6,1.3,0.6h2.9
			c0.9,0,1.7-0.8,1.6-1.7c-0.2-2.7-2.2-6.1-4.5-7.7c-0.3-0.2-0.6-0.3-0.9-0.3H4.2c-0.9,0-1.6,0.7-1.6,1.6v3.2c0,0.8,0.6,1.5,1.4,1.6
			C6.9,9.6,8.6,10.6,9.7,11.9"/>
		<path class="st2" d="M38.6,25.3c0.8-0.5,1.1-1.6,0.5-2.3l-8.2-11.4c-0.7-1-2.2-0.9-2.7,0.2c-1.8,3.8-2.4,9.4,0.1,13
			C30,27.2,34.4,27.7,38.6,25.3"/>
		<path class="st2" d="M31,21.6c0.6-0.6,0.6-1.6,0-2.3L24.6,13c-0.6-0.6-1.6-0.6-2.3,0l-3.2,3.2c-0.6,0.6-0.6,1.6,0,2.3
			c0.6,0.6,1.6,0.6,2.3,0l2.1-2.1l5.3,5.3C29.4,22.2,30.4,22.2,31,21.6"/>
	</g>
</g>
<g id="Layer_2" class="st0">
	<path class="st3" d="M4.5,10.1v12.4c0,1,0.8,1.9,1.9,1.9h1.1c0,0,0,0,0,0c0,4,3.3,7.3,7.3,7.3s7.3-3.3,7.3-7.3c0,0,0,0,0,0l6.7,0
		l0,0H30c0.1,0,0.2,0,0.2,0v0h8.5c0.4,0,0.8-0.4,0.8-0.8c0-0.4-0.4-0.8-0.8-0.8l-6.7,0c0-0.1,0-0.2,0-0.3V10.1c0-1-0.8-1.8-1.7-1.9
		v0l-23.9,0C5.3,8.2,4.5,9.1,4.5,10.1z M26.5,12.6c0-0.8,0.7-1.5,1.5-1.5c0.8,0,1.5,0.7,1.5,1.5V17c0,0.8-0.7,1.5-1.5,1.5
		c-0.8,0-1.5-0.7-1.5-1.5V12.6z M20.6,12.6c0-0.8,0.7-1.5,1.5-1.5c0.8,0,1.5,0.7,1.5,1.5V17c0,0.8-0.7,1.5-1.5,1.5
		c-0.8,0-1.5-0.7-1.5-1.5V12.6z M17.7,17c0,0.8-0.7,1.5-1.5,1.5c-0.8,0-1.5-0.7-1.5-1.5v-4.4c0-0.8,0.7-1.5,1.5-1.5
		c0.8,0,1.5,0.7,1.5,1.5V17z M10.3,24.4c0-2.4,2-4.4,4.4-4.4s4.4,2,4.4,4.4c0,2.4-2,4.4-4.4,4.4S10.3,26.8,10.3,24.4z M8.9,12.6
		c0-0.8,0.7-1.5,1.5-1.5c0.8,0,1.5,0.7,1.5,1.5V17c0,0.8-0.7,1.5-1.5,1.5c-0.8,0-1.5-0.7-1.5-1.5V12.6z"/>
</g>
<g id="Layer_3" class="st0">
	<path class="st4" d="M38.1,14.4l-4.2-4.2c-0.9-0.9-2-1.3-3.2-1.3h-2.7V2.1c0-1.3-1-2.3-2.3-2.3H-3.8c-1.3,0-2.3,1-2.3,2.3V26
		c0,3.1,2.5,5.7,5.7,5.7c1.9,0,3.5-0.9,4.6-2.3c1,1.4,2.7,2.3,4.6,2.3c3.1,0,5.7-2.5,5.7-5.7c0-0.4,0-0.8-0.1-1.1h11.6
		c-0.1,0.4-0.1,0.7-0.1,1.1c0,3.1,2.5,5.7,5.7,5.7c3.1,0,5.7-2.5,5.7-5.7c0-0.4,0-0.8-0.1-1.1h1.3c0.6,0,1.1-0.5,1.1-1.1v-6.1
		C39.4,16.4,39,15.3,38.1,14.4 M-0.4,28.3c-1.3,0-2.3-1-2.3-2.3c0-1.3,1-2.3,2.3-2.3c1.3,0,2.3,1,2.3,2.3
		C1.9,27.2,0.9,28.3-0.4,28.3 M8.7,28.3c-1.3,0-2.3-1-2.3-2.3c0-1.3,1-2.3,2.3-2.3c1.3,0,2.3,1,2.3,2.3C11,27.2,10,28.3,8.7,28.3
		 M28.1,12.3h2.7c0.3,0,0.6,0.1,0.8,0.3l3.1,3.1h-6.6V12.3z M31.5,28.3c-1.3,0-2.3-1-2.3-2.3c0-1.3,1-2.3,2.3-2.3
		c1.3,0,2.3,1,2.3,2.3C33.7,27.2,32.7,28.3,31.5,28.3"/>
</g>
<g id="Layer_4" class="st0">
	<path class="st4" d="M18.6,7.3c-0.3,0-0.5,0-0.8,0.1c-0.4,0.1-1,0.1-1.6,0.2c-8.1,1.1-9,2.3-9.4,2.8c-0.5,0.7-2.3,4.6-2.9,7.4
		c0.7-0.3,3.3,0.2,4,0c2.9-0.8,14.4-4.7,22.4-6.7C27.4,10.3,20.9,7.3,18.6,7.3 M37.8,8.8c-0.1,0-0.3,0-0.5,0.1
		c-0.1,0-7.7,1.9-15.4,3.8c-2.4,0.6-4.5,1.1-6.7,1.7c-1.6,0.4-2.6,0.7-3.9,1c-2,0.5-3.7,0.9-4.5,1.2c-0.3,0.1-0.5,0.2-0.8,0.2
		c0,0-0.1,0-0.1,0.1c-0.7,0.3-1.4,0.6-2,0.9c-3.2,1.9-5.2,4.9-5.7,6.9c0.2,0,0.4,0,0.6,0c1,0,2.4-0.3,3.2-0.9c0.5-0.4,1-0.6,1.6-0.6
		c0.6,0,1.2,0.2,1.6,0.6c0.8,0.6,2.2,0.9,3.2,0.9s2.3-0.3,3.1-0.9c0.5-0.4,1-0.6,1.6-0.6c0.6,0,1.1,0.2,1.6,0.6
		c0.8,0.6,2.2,0.9,3.2,0.9c1,0,2.4-0.3,3.2-0.9c0.5-0.4,1-0.6,1.6-0.6c0.6,0,1.2,0.2,1.6,0.6c0.8,0.6,2.2,0.9,3.1,0.9
		c1,0,2.4-0.3,3.2-0.9c0.4-0.3,0.9-0.5,1.4-0.5c2.2-2.8,4-6.2,5.6-9.2c0.5-0.9,1-1.8,1.5-2.6c0.5-1,0.3-1.6,0.1-1.9
		C38.9,9.1,38.4,8.8,37.8,8.8z M22.2,17.1c0.8,0,1.5,0.6,1.7,1.4c0.2,0.9-0.4,1.8-1.3,2c-0.9,0.2-1.9-0.4-2-1.3
		c-0.2-0.9,0.4-1.8,1.3-2C22,17.1,22.1,17.1,22.2,17.1z M17.1,18c0.8,0,1.5,0.6,1.7,1.4c0.2,0.9-0.4,1.8-1.3,2
		c-0.9,0.2-1.9-0.4-2-1.3c-0.2-0.9,0.4-1.8,1.3-2C16.8,18,16.9,18,17.1,18z M11.9,18.8c0.8,0,1.5,0.6,1.7,1.4c0.2,0.9-0.4,1.8-1.3,2
		c-0.9,0.2-1.9-0.4-2-1.3c-0.2-0.9,0.4-1.8,1.3-2C11.7,18.8,11.8,18.8,11.9,18.8z M3.6,25c-0.2,0-0.4,0.1-0.5,0.2
		c-1.2,0.9-3,1.3-4.2,1.3c-0.5,0-0.9,0-1.5-0.1c-0.5-0.1-0.9,0.3-1,0.7c-0.1,0.5,0.3,0.9,0.7,1c0.6,0.1,1.2,0.1,1.7,0.1
		c0.8,0,1.8-0.1,2.9-0.4c0.2-0.1,0.5-0.1,0.7-0.2c0.1,0,0.2-0.1,0.3-0.1c0,0,0.1,0,0.1-0.1c0.2-0.1,0.3-0.2,0.5-0.3
		C3.4,27.1,3.5,27,3.6,27c0.2,0.1,0.3,0.2,0.5,0.3c0,0,0.1,0,0.1,0.1c0.1,0.1,0.3,0.1,0.5,0.2c1.3,0.5,2.7,0.8,3.7,0.8
		c0.7,0,1.5-0.1,2.3-0.3h0.1c0.2,0,0.4-0.1,0.5-0.2c0,0,0,0,0.1,0c0.2-0.1,0.4-0.1,0.6-0.2c0,0,0,0,0,0c0.4-0.2,0.8-0.3,1.2-0.6
		c0.1,0.1,0.2,0.1,0.3,0.1c0.3,0.2,0.6,0.3,0.9,0.5c0,0,0.1,0,0.1,0c0.2,0.1,0.4,0.1,0.5,0.2c0,0,0.1,0,0.1,0c0.1,0,0.3,0.1,0.4,0.1
		c0.1,0,0.2,0.1,0.2,0.1h0.1c0.7,0.2,1.5,0.2,2.1,0.2c0.5,0,1.2-0.1,1.8-0.2h0.1c0.5-0.1,0.9-0.2,1.4-0.4c0,0,0.1,0,0.1,0
		c0.1,0,0.1-0.1,0.2-0.1c0.4-0.2,0.8-0.4,1.2-0.6c0.5,0.3,1.1,0.6,1.6,0.8c0,0,0,0,0,0c0,0,0,0,0,0c0,0,0.1,0,0.1,0.1
		c0.1,0,0.3,0.1,0.4,0.1c0.4,0.1,0.8,0.2,1.1,0.2c0.5,0.1,1,0.1,1.4,0.1c1.4,0,3.3-0.4,4.8-1.3c1.5,0.9,3.4,1.3,4.8,1.3
		c0.7,0,1.3-0.1,1.9-0.3c0.4-0.2,0.7-0.7,0.5-1.1c-0.2-0.4-0.7-0.7-1.1-0.5c-0.4,0.1-0.8,0.2-1.3,0.2c-1.2,0-3-0.3-4.2-1.3
		c-0.3-0.2-0.7-0.2-1,0c-0.8,0.6-1.8,1-2.7,1.1c-0.2,0-0.5,0.1-0.7,0.1c-0.3,0-0.6,0.1-0.9,0.1c-1,0-2.6-0.3-3.7-1
		c-0.2-0.1-0.3-0.2-0.5-0.3C23,25,22.7,25,22.4,25.1c-0.1,0-0.2,0.1-0.3,0.1c-1.2,0.9-3,1.3-4.2,1.3c-1,0-2.6-0.3-3.8-1
		c-0.2-0.1-0.3-0.2-0.5-0.3c-0.2-0.2-0.5-0.2-0.8-0.1c-0.1,0-0.2,0.1-0.2,0.1c-1.2,0.9-3,1.3-4.2,1.3c-1,0-2.6-0.3-3.8-1
		c-0.2-0.1-0.3-0.2-0.5-0.3C4,25.1,3.8,25,3.6,25z M3.6,28.5c-0.2,0-0.4,0.1-0.5,0.2c-1.2,0.9-3,1.3-4.2,1.3c-0.5,0-0.9,0-1.5-0.1
		c-0.5-0.1-0.9,0.3-1,0.7c-0.1,0.5,0.3,0.9,0.7,1c0.6,0.1,1.2,0.1,1.7,0.1c1.4,0,3.3-0.4,4.8-1.3c1.5,0.9,3.4,1.3,4.8,1.3
		c1.4,0,3.3-0.4,4.8-1.3c1.5,0.9,3.4,1.3,4.8,1.3c1.4,0,3.3-0.4,4.8-1.3c1.5,0.9,3.4,1.3,4.8,1.3c1.4,0,3.3-0.4,4.8-1.3
		c1.5,0.9,3.4,1.3,4.8,1.3c0.7,0,1.3-0.1,1.9-0.3c0.4-0.2,0.7-0.7,0.5-1.1c-0.2-0.4-0.7-0.7-1.1-0.5C37.9,29.9,37.5,30,37,30
		c-1.2,0-3-0.3-4.2-1.3c-0.3-0.2-0.7-0.2-1,0c-1.2,0.9-3,1.3-4.2,1.3c-1.2,0-3-0.3-4.2-1.3c-0.3-0.2-0.8-0.2-1.1,0
		c-1.2,0.9-3,1.3-4.2,1.3c-1.2,0-3-0.3-4.2-1.3c-0.3-0.2-0.7-0.2-1,0c-1.2,0.9-3,1.3-4.2,1.3s-3-0.3-4.2-1.3
		C4,28.6,3.8,28.5,3.6,28.5z M26.2,11l-13.2,2.7l-1.3-3.8l7.7-1.4L26.2,11z"/>
</g>
<g id="Layer_5" class="st0">
	<path class="st4" d="M27.3,11.6c-0.1,0-0.2,0-0.2,0.1c0,0-1.8,0.6-3.3,1.9c-0.3,0.2-0.5,0.5-0.4,0.9c0,0.4,0.3,0.7,0.6,0.8
		c0.3,0.1,0.7,0,1-0.2c0.8-0.7,1.4-0.9,2-1.1c0.1,0.4,0.3,1.2,0.7,2.2c-0.1,0-0.1,0-0.2,0c-7.7,0-6.4,3.7-7.5,3.7
		c-2.7,0-3.7,0.1-4.2-0.7c-0.7-1.2-0.1-1.7-3.1-1.7c-4.2,0-4.7,1.3-4.7,1.3s0.1,1.1,1.5,1.1c5.3,0,7,0.9,8.5,2
		c0.2,0.2,0.4,0.4,0.7,0.6l-1.3,0.7c-1-1.2-2.4-2-4.1-2c-2.9,0-5.3,2.3-5.3,5.3c0,2.9,2.3,5.3,5.3,5.3c2.6,0,4.7-1.8,5.2-4.2h2
		c1.7,1.5,7.2,0.9,7.1-0.4c-0.2-2.9,0.7-5.5,1.5-7c0.4,0.8,0.8,1.7,1.3,2.6c-0.5,0.5-0.9,1.1-1.2,1.8c-0.4,1-0.5,2.4,0.1,2.4
		c0.5,0,0.5-0.5,1-1.3c-0.1,0.4-0.3,0.9-0.3,1.4c0,2.6,2.1,4.7,4.7,4.7c2.6,0,4.7-2.1,4.7-4.7c0-1.6-0.8-3-2-3.8c0.3,0,0.5,0,0.8,0
		c0.4,0-0.4-2.2-4.2-2.2c-0.8,0-1.5,0.2-2.1,0.5c-0.5-1-1-2-1.4-2.9c0.6,0,1.6-0.1,1.5-1c0-0.7-0.5-2.3-0.8-2.9c-0.4-1-1.2-1-1.2-1
		h-1.4c-0.2-0.7-0.4-1.3-0.4-1.3C28.2,11.9,27.8,11.6,27.3,11.6 M13.3,23.5c0.8,0,1.5,0.3,2,0.8L13,25.6c-0.1,0-0.1,0.1-0.2,0.1
		c-0.1,0-0.2,0.1-0.2,0.2c-0.1,0-0.1,0.1-0.2,0.1v0l0,0c0,0.1-0.1,0.1-0.1,0.2c-0.1,0.3,0,0.7,0.2,1h0c0,0,0,0.1,0,0.1h0l0,0h0
		c0,0,0,0.1,0,0.1h0c0,0,0.1,0,0.2,0h0c0,0,0.1,0,0.2,0h0h0.1h0.1h2.8c-0.4,1.2-1.5,2.1-2.9,2.1c-1.7,0-3.1-1.3-3.1-3.1
		C10.3,24.8,11.6,23.5,13.3,23.5 M19.6,24.1c0.2,0.5,0.4,1,0.5,1.5h-1.6c0-0.3-0.1-0.5-0.2-0.8L19.6,24.1z M34.8,24.4
		c1.5,0,2.7,1.2,2.7,2.7c0,1.5-1.2,2.7-2.7,2.7c-1.5,0-2.7-1.2-2.7-2.7c0-0.5,0.1-0.9,0.3-1.3c0.5,0.7,1.1,1.3,1.6,2
		c0.3,0.4,0.9,0.4,1.3,0.1c0.4-0.3,0.4-0.9,0.1-1.3c-0.6-0.6-1.1-1.2-1.6-1.9C34.2,24.5,34.5,24.4,34.8,24.4"/>
</g>
<g id="Layer_6">
	<path class="st5" d="M32.6,21c-2.9,0-5.3,2.4-5.3,5.3c0,3,2.4,5.3,5.3,5.3c3,0,5.3-2.4,5.3-5.3C38,23.4,35.6,21,32.6,21 M32.6,27.8
		c-0.8,0-1.5-0.7-1.5-1.5c0-0.8,0.7-1.5,1.5-1.5c0.8,0,1.5,0.7,1.5,1.5C34.1,27.1,33.4,27.8,32.6,27.8 M37.5,10.3h-3.9V7.9
		c0-0.9,0.3-1.7,0.8-2.4c0.3-0.4,0.2-0.9-0.1-1.2L33,2.9c-0.4-0.5-1.1-0.4-1.5,0c-1.1,1.4-1.8,3.1-1.8,5v2.4h-6.2l-3.4-7.9
		c-0.5-1.1-1.5-1.8-2.7-1.8H9.3c-1.6,0-2.9,1.3-2.9,2.9v8.9C5.9,12,5.1,12,4.7,12.5l-1.9,1.9c-0.5,0.5-0.5,1.4,0,1.9l0.3,0.3
		c-0.3,0.6-0.5,1.1-0.7,1.7H1.9c-0.7,0-1.3,0.6-1.3,1.3v2.7c0,0.7,0.6,1.3,1.3,1.3h0.4c0.2,0.6,0.4,1.2,0.7,1.7l-0.3,0.3
		c-0.5,0.5-0.5,1.4,0,1.9l1.9,1.9C5.2,30,6,30,6.5,29.5l0.3-0.3c0.6,0.3,1.1,0.5,1.7,0.7v0.4c0,0.7,0.6,1.3,1.3,1.3h2.7
		c0.7,0,1.3-0.6,1.3-1.3v-0.4c0.6-0.2,1.2-0.4,1.7-0.7l0.3,0.3c0.5,0.5,1.4,0.5,1.9,0l1.9-1.9c0.5-0.5,0.5-1.4,0-1.9l-0.3-0.3
		c0.3-0.6,0.5-1.1,0.7-1.7h0.4c0.7,0,1.3-0.6,1.3-1.3V22h4.9c1.3-1.8,3.4-2.9,5.8-2.9c1.1,0,2.2,0.3,3.1,0.7l3.1-3.1
		c0.4-0.4,0.6-0.9,0.6-1.4v-3.1C39.4,11.2,38.6,10.3,37.5,10.3 M11.3,25.9c-2.7,0-4.9-2.2-4.9-4.9c0-2.7,2.2-4.9,4.9-4.9
		c2.7,0,4.9,2.2,4.9,4.9C16.1,23.7,13.9,25.9,11.3,25.9 M12.6,10.3h-2.3V4.5h6.5l2.5,5.8H12.6z"/>
</g>
<g id="Layer_9" class="st0">
	<path class="st3" d="M36,26c0,3.2-2.6,5.7-5.7,5.7s-5.7-2.6-5.7-5.7c0,0,0,0,0,0l-8,0v0c0,3.2-2.6,5.7-5.7,5.7
		c-3.2,0-5.7-2.6-5.7-5.7c0,0,0,0,0,0H4.3c-0.8,0-1.5-0.7-1.5-1.5V8c0-0.8,0.7-1.5,1.5-1.5l21.1,0c0.1,0,0.2,0,0.3,0
		c0.1,0,0.2,0,0.4,0l5.4,0c2.6,0,8,6.5,8,10.8v6.2c0,1.3-1.2,2.4-2.6,2.4L36,26L36,26 M26.9,26c0,1.9,1.5,3.4,3.4,3.4
		c1.9,0,3.4-1.5,3.4-3.4c0-1.9-1.5-3.4-3.4-3.4C28.4,22.5,26.9,24.1,26.9,26 M7.4,26c0,1.9,1.5,3.4,3.4,3.4c1.9,0,3.4-1.5,3.4-3.4
		c0-1.9-1.5-3.4-3.4-3.4C9,22.5,7.4,24.1,7.4,26 M33.3,16.2c0.2,0.4,0.6,0.6,1,0.6H36c0.7,0,1.2-0.5,1.1-1.2c-0.1-1.3-1-2.8-1.8-4
		c-0.5-0.6-1-1.2-1.4-1.7c-0.5-0.4-1-0.9-1.6-1.1c-0.2-0.1-0.4-0.1-0.6-0.1l-1.4,0c-0.6,0-1.1,0.5-1.1,1.1v2.9c0,0.6,0.4,1,1,1.1
		C31.6,14.2,32.6,15,33.3,16.2"/>
</g>
<g id="Layer_8" class="st0">
	<path class="st4" d="M38.4,21.1h-3.2V10.6c0-5.8-4.7-10.5-10.5-10.5H1.5c-2.3,0-4.2,1.9-4.2,4.2v16.9c0,2.3,1.9,4.2,4.2,4.2h2.1
		c0,3.5,2.8,6.3,6.3,6.3c3.5,0,6.3-2.8,6.3-6.3h22.1c0.6,0,1.1-0.5,1.1-1.1v-2.1C39.4,21.6,39,21.1,38.4,21.1 M9.9,28.5
		c-1.7,0-3.2-1.4-3.2-3.2c0-1.7,1.4-3.2,3.2-3.2c1.7,0,3.2,1.4,3.2,3.2C13.1,27.1,11.7,28.5,9.9,28.5z M14.1,12.7
		c0,1.2-0.9,2.1-2.1,2.1H3.6c-1.2,0-2.1-0.9-2.1-2.1V8.5c0-1.2,0.9-2.1,2.1-2.1H12c1.2,0,2.1,0.9,2.1,2.1V12.7z M26.8,14.9h-8.4V8.5
		c0-1.2,0.9-2.1,2.1-2.1h4.2c1.2,0,2.1,0.9,2.1,2.1V14.9z"/>
</g>
<g id="Layer_12" class="st0">
	<g class="st1">
		<path class="st5" d="M33.9,8.4c1.2,0,1.9-1.2,1.6-2.2c-0.1-0.3-0.1-0.6-0.3-0.9l-1.8-2.7c-0.2-0.2-0.3-0.4-0.4-0.6L32.9,2
			l-0.5-0.5c-1.1-0.9-2.5-1.4-3.9-1.4H3.6c-3.2,0-5.8,2.6-5.8,5.8v12.5v0.8V25c0,1.4,1.1,2.5,2.5,2.5h3.4c0.4,2.3,2.4,4.2,4.9,4.2
			c2.5,0,4.5-1.8,4.9-4.2h6c1.3,0,2.3-1.1,2.3-2.3v-6H22v-6.7c0-2.2,1.9-4.2,4.2-4.2 M8.6,30c-1.8,0-3.3-1.5-3.3-3.3
			c0-1.8,1.5-3.3,3.3-3.3c1.8,0,3.3,1.5,3.3,3.3C12,28.5,10.5,30,8.6,30 M2.8,5.1c0-0.5,0.3-0.8,0.8-0.8h12.5c0.5,0,0.8,0.3,0.8,0.8
			v8.3c0,0.5-0.3,0.8-0.8,0.8H3.6c-0.5,0-0.8-0.3-0.8-0.8V5.1z M22.8,5.9c-0.5,0-0.8-0.3-0.8-0.8c0-0.5,0.3-0.8,0.8-0.8h6.7
			c0.5,0,0.8,0.3,0.8,0.8c0,0.5-0.3,0.8-0.8,0.8H22.8z"/>
		<path class="st5" d="M39.4,17.5c0-0.1,0-0.2,0-0.3c0-0.2-0.1-0.4-0.1-0.6c0,0,0-0.1,0-0.1c-0.1-0.2-0.1-0.3-0.2-0.5
			c-0.4-0.9-0.8-1.6-0.9-1.7v0l-2.2-2.9h0v0c-0.8-1-2-1.3-3.1-1.3h-6.7c-1.3,0-2.5,1.2-2.5,2.5V25c0,1,0.6,1.9,1.5,2.3
			c0.3,0.1,0.6,0.2,1,0.2h0.1c0.4,2.3,2.4,4.2,4.9,4.2c2.5,0,4.5-1.8,4.9-4.2h0.9c0.2,0,0.3,0,0.5-0.1c1.1-0.2,2-1.3,2-2.4
			L39.4,17.5 M31.1,30c-1.8,0-3.3-1.5-3.3-3.3c0-1.8,1.5-3.3,3.3-3.3c1.8,0,3.3,1.5,3.3,3.3C34.4,28.5,32.9,30,31.1,30 M29.4,17.5
			c-0.5,0-0.8-0.3-0.8-0.8v-5h4.2c1,0,1.3,0,1.8,0.7c0,0,0,0,0,0l1.1,1.5l1,1.4c0.3,0.3,0.8,1.4,1,2.3H29.4z"/>
	</g>
</g>
<g id="Layer_10" class="st0">
	<path class="st3" d="M32.9,31.7c-2.3,0-4.2-1.6-4.6-3.8h-7.7c-0.4,2.1-2.3,3.8-4.6,3.8c-2.3,0-4.2-1.6-4.6-3.8h-0.1
		c-1,0-1.9-0.8-1.9-1.9c0-7.5,0-15,11.3-15c3.8,0,7.7,1.8,10.3,6.6c4.8,0.9,8.5,4.7,8.5,8.4c0,1-0.8,1.9-1.9,1.9h-0.1
		C37,30.1,35.1,31.7,32.9,31.7 M32.9,29.8c1.6,0,2.8-1.3,2.8-2.8c0-1.6-1.3-2.8-2.8-2.8c-1.6,0-2.8,1.3-2.8,2.8
		C30,28.5,31.3,29.8,32.9,29.8 M16,29.8c1.6,0,2.8-1.3,2.8-2.8c0-1.6-1.3-2.8-2.8-2.8c-1.6,0-2.8,1.3-2.8,2.8
		C13.2,28.5,14.4,29.8,16,29.8 M27.2,18.5c0.9,0,1.1-1,0.6-1.6c-0.4-0.7-1.7-2.2-3-2.9c-1.2-0.6-2.5-1-4.1-1.1v5.6H27.2z M14.1,18.5
		h4.7v-5.6c-1.6,0.2-2.8,0.6-3.7,1.2c-1.2,0.8-1.8,2.1-1.9,3.5C13.1,18.2,13.5,18.6,14.1,18.5"/>
</g>
<g id="Layer_11">
</g>
</svg>
