<?xml version="1.0" encoding="utf-8"?>
<!-- Generator: Adobe Illustrator 24.1.0, SVG Export Plug-In . SVG Version: 6.00 Build 0)  -->
<svg version="1.1" xmlns="http://www.w3.org/2000/svg" xmlns:xlink="http://www.w3.org/1999/xlink" x="0px" y="0px"
	 viewBox="0 0 32.7 21" style="enable-background:new 0 0 32.7 21;" xml:space="preserve">
<style type="text/css">
	.st0{display:none;}
	.st1{display:inline;}
	.st2{fill-rule:evenodd;clip-rule:evenodd;fill:#af006e;}
	.st3{display:inline;fill-rule:evenodd;clip-rule:evenodd;fill:#af006e;}
	.st4{display:inline;fill:#af006e;}
	.st5{fill:#af006e;}
</style>
<g id="Layer_1" class="st0">
	<g class="st1">
		<path class="st2" d="M17.5,13.3c0,4-3.2,7.2-7.2,7.2c-3.1,0-5.8-2-6.8-4.8h-7.2c-1,2.8-3.7,4.8-6.8,4.8c-3.1,0-5.8-2-6.8-4.8h-0.1
			c-1.1,0-1.9-0.9-1.9-2l0-4.4c0-4.6,4.2-7.7,11.2-8v-9.4c0-1.9,1.5-3.4,3.4-3.4l7,0c3.4,0,10.4,9.1,10.4,15.1l0,1.3l0,1.6
			C15.5,7.5,17.5,10.2,17.5,13.3 M6.3,13.3c0,2.2,1.8,4,4,4c2.2,0,4-1.8,4-4c0-2.2-1.8-4-4-4C8.1,9.3,6.3,11.1,6.3,13.3 M-14.4,13.3
			c0,2.2,1.8,4,4,4c2.2,0,4-1.8,4-4c0-2.2-1.8-4-4-4C-12.7,9.3-14.4,11.1-14.4,13.3 M2.2,0.7C2.5,1.1,3,1.3,3.5,1.3h2.9
			c0.9,0,1.7-0.8,1.6-1.7C7.7-3.1,5.7-6.5,3.4-8.1C3.1-8.2,2.8-8.3,2.5-8.3h-5.8c-0.9,0-1.6,0.7-1.6,1.6v3.2c0,0.8,0.6,1.5,1.4,1.6
			C-0.6-1.6,1.2-0.6,2.2,0.7"/>
		<path class="st2" d="M31.1,14.1c0.8-0.5,1.1-1.6,0.5-2.3L23.5,0.4c-0.7-1-2.2-0.9-2.7,0.2c-1.8,3.8-2.4,9.4,0.1,13
			C22.5,16,26.9,16.5,31.1,14.1"/>
		<path class="st2" d="M23.5,10.4c0.6-0.6,0.6-1.6,0-2.3l-6.4-6.4c-0.6-0.6-1.6-0.6-2.3,0L11.6,5c-0.6,0.6-0.6,1.6,0,2.3
			c0.6,0.6,1.6,0.6,2.3,0l2.1-2.1l5.3,5.3C21.9,11.1,22.9,11.1,23.5,10.4"/>
	</g>
</g>
<g id="Layer_2" class="st0">
	<path class="st3" d="M-3-1.1v12.4c0,1,0.8,1.9,1.9,1.9h1.1c0,0,0,0,0,0c0,4,3.3,7.3,7.3,7.3s7.3-3.3,7.3-7.3c0,0,0,0,0,0l6.7,0l0,0
		h1.3c0.1,0,0.2,0,0.2,0v0h8.5c0.4,0,0.8-0.4,0.8-0.8c0-0.4-0.4-0.8-0.8-0.8l-6.7,0c0-0.1,0-0.2,0-0.3V-1.1c0-1-0.8-1.8-1.7-1.9v0
		l-23.9,0C-2.2-2.9-3-2.1-3-1.1z M19,1.4c0-0.8,0.7-1.5,1.5-1.5c0.8,0,1.5,0.7,1.5,1.5v4.4c0,0.8-0.7,1.5-1.5,1.5
		c-0.8,0-1.5-0.7-1.5-1.5V1.4z M13.1,1.4c0-0.8,0.7-1.5,1.5-1.5C15.4,0,16,0.6,16,1.4v4.4c0,0.8-0.7,1.5-1.5,1.5
		c-0.8,0-1.5-0.7-1.5-1.5V1.4z M10.2,5.8c0,0.8-0.7,1.5-1.5,1.5c-0.8,0-1.5-0.7-1.5-1.5V1.4c0-0.8,0.7-1.5,1.5-1.5
		c0.8,0,1.5,0.7,1.5,1.5V5.8z M2.8,13.2c0-2.4,2-4.4,4.4-4.4s4.4,2,4.4,4.4c0,2.4-2,4.4-4.4,4.4S2.8,15.6,2.8,13.2z M1.4,1.4
		c0-0.8,0.7-1.5,1.5-1.5c0.8,0,1.5,0.7,1.5,1.5v4.4c0,0.8-0.7,1.5-1.5,1.5C2,7.3,1.4,6.6,1.4,5.8V1.4z"/>
</g>
<g id="Layer_3" class="st0">
	<path class="st4" d="M30.6,3.2l-4.2-4.2c-0.9-0.9-2-1.3-3.2-1.3h-2.7v-6.8c0-1.3-1-2.3-2.3-2.3h-29.6c-1.3,0-2.3,1-2.3,2.3v23.9
		c0,3.1,2.5,5.7,5.7,5.7c1.9,0,3.5-0.9,4.6-2.3c1,1.4,2.7,2.3,4.6,2.3c3.1,0,5.7-2.5,5.7-5.7c0-0.4,0-0.8-0.1-1.1h11.6
		c-0.1,0.4-0.1,0.7-0.1,1.1c0,3.1,2.5,5.7,5.7,5.7c3.1,0,5.7-2.5,5.7-5.7c0-0.4,0-0.8-0.1-1.1h1.3c0.6,0,1.1-0.5,1.1-1.1V6.5
		C31.9,5.2,31.5,4.1,30.6,3.2 M-7.9,17.1c-1.3,0-2.3-1-2.3-2.3c0-1.3,1-2.3,2.3-2.3c1.3,0,2.3,1,2.3,2.3
		C-5.6,16.1-6.6,17.1-7.9,17.1 M1.2,17.1c-1.3,0-2.3-1-2.3-2.3c0-1.3,1-2.3,2.3-2.3c1.3,0,2.3,1,2.3,2.3C3.5,16.1,2.5,17.1,1.2,17.1
		 M20.6,1.2h2.7c0.3,0,0.6,0.1,0.8,0.3l3.1,3.1h-6.6V1.2z M24,17.1c-1.3,0-2.3-1-2.3-2.3c0-1.3,1-2.3,2.3-2.3c1.3,0,2.3,1,2.3,2.3
		C26.2,16.1,25.2,17.1,24,17.1"/>
</g>
<g id="Layer_4" class="st0">
	<path class="st4" d="M11.1-3.9c-0.3,0-0.5,0-0.8,0.1c-0.4,0.1-1,0.1-1.6,0.2c-8.1,1.1-9,2.3-9.4,2.8c-0.5,0.7-2.3,4.6-2.9,7.4
		c0.7-0.3,3.3,0.2,4,0C3.4,5.8,14.9,2,22.9,0C19.9-0.9,13.4-3.9,11.1-3.9 M30.3-2.4c-0.1,0-0.3,0-0.5,0.1c-0.1,0-7.7,1.9-15.4,3.8
		C12.1,2.2,10,2.7,7.8,3.2c-1.6,0.4-2.6,0.7-3.9,1c-2,0.5-3.7,0.9-4.5,1.2c-0.3,0.1-0.5,0.2-0.8,0.2c0,0-0.1,0-0.1,0.1
		c-0.7,0.3-1.4,0.6-2,0.9c-3.2,1.9-5.2,4.9-5.7,6.9c0.2,0,0.4,0,0.6,0c1,0,2.4-0.3,3.2-0.9c0.5-0.4,1-0.6,1.6-0.6
		c0.6,0,1.2,0.2,1.6,0.6c0.8,0.6,2.2,0.9,3.2,0.9s2.3-0.3,3.1-0.9c0.5-0.4,1-0.6,1.6-0.6c0.6,0,1.1,0.2,1.6,0.6
		c0.8,0.6,2.2,0.9,3.2,0.9c1,0,2.4-0.3,3.2-0.9c0.5-0.4,1-0.6,1.6-0.6c0.6,0,1.2,0.2,1.6,0.6c0.8,0.6,2.2,0.9,3.1,0.9
		c1,0,2.4-0.3,3.2-0.9c0.4-0.3,0.9-0.5,1.4-0.5c2.2-2.8,4-6.2,5.6-9.2c0.5-0.9,1-1.8,1.5-2.6c0.5-1,0.3-1.6,0.1-1.9
		C31.4-2.1,30.9-2.4,30.3-2.4z M14.7,5.9c0.8,0,1.5,0.6,1.7,1.4c0.2,0.9-0.4,1.8-1.3,2c-0.9,0.2-1.9-0.4-2-1.3
		c-0.2-0.9,0.4-1.8,1.3-2C14.5,5.9,14.6,5.9,14.7,5.9z M9.6,6.8c0.8,0,1.5,0.6,1.7,1.4c0.2,0.9-0.4,1.8-1.3,2
		c-0.9,0.2-1.9-0.4-2-1.3C7.7,7.9,8.3,7,9.2,6.8C9.3,6.8,9.5,6.8,9.6,6.8z M4.4,7.6c0.8,0,1.5,0.6,1.7,1.4c0.2,0.9-0.4,1.8-1.3,2
		c-0.9,0.2-1.9-0.4-2-1.3c-0.2-0.9,0.4-1.8,1.3-2C4.2,7.6,4.3,7.6,4.4,7.6z M-3.9,13.9c-0.2,0-0.4,0.1-0.5,0.2
		c-1.2,0.9-3,1.3-4.2,1.3c-0.5,0-0.9,0-1.5-0.1c-0.5-0.1-0.9,0.3-1,0.7c-0.1,0.5,0.3,0.9,0.7,1c0.6,0.1,1.2,0.1,1.7,0.1
		c0.8,0,1.8-0.1,2.9-0.4c0.2-0.1,0.5-0.1,0.7-0.2c0.1,0,0.2-0.1,0.3-0.1c0,0,0.1,0,0.1-0.1c0.2-0.1,0.3-0.2,0.5-0.3
		c0.1-0.1,0.2-0.1,0.3-0.2c0.2,0.1,0.3,0.2,0.5,0.3c0,0,0.1,0,0.1,0.1c0.1,0.1,0.3,0.1,0.5,0.2c1.3,0.5,2.7,0.8,3.7,0.8
		c0.7,0,1.5-0.1,2.3-0.3h0.1c0.2,0,0.4-0.1,0.5-0.2c0,0,0,0,0.1,0c0.2-0.1,0.4-0.1,0.6-0.2c0,0,0,0,0,0c0.4-0.2,0.8-0.3,1.2-0.6
		c0.1,0.1,0.2,0.1,0.3,0.1c0.3,0.2,0.6,0.3,0.9,0.5c0,0,0.1,0,0.1,0c0.2,0.1,0.4,0.1,0.5,0.2c0,0,0.1,0,0.1,0c0.1,0,0.3,0.1,0.4,0.1
		c0.1,0,0.2,0.1,0.2,0.1h0.1c0.7,0.2,1.5,0.2,2.1,0.2c0.5,0,1.2-0.1,1.8-0.2h0.1c0.5-0.1,0.9-0.2,1.4-0.4c0,0,0.1,0,0.1,0
		c0.1,0,0.1-0.1,0.2-0.1c0.4-0.2,0.8-0.4,1.2-0.6c0.5,0.3,1.1,0.6,1.6,0.8c0,0,0,0,0,0c0,0,0,0,0,0c0,0,0.1,0,0.1,0.1
		c0.1,0,0.3,0.1,0.4,0.1c0.4,0.1,0.8,0.2,1.1,0.2c0.5,0.1,1,0.1,1.4,0.1c1.4,0,3.3-0.4,4.8-1.3c1.5,0.9,3.4,1.3,4.8,1.3
		c0.7,0,1.3-0.1,1.9-0.3c0.4-0.2,0.7-0.7,0.5-1.1c-0.2-0.4-0.7-0.7-1.1-0.5c-0.4,0.1-0.8,0.2-1.3,0.2c-1.2,0-3-0.3-4.2-1.3
		c-0.3-0.2-0.7-0.2-1,0c-0.8,0.6-1.8,1-2.7,1.1c-0.2,0-0.5,0.1-0.7,0.1c-0.3,0-0.6,0.1-0.9,0.1c-1,0-2.6-0.3-3.7-1
		c-0.2-0.1-0.3-0.2-0.5-0.3c-0.2-0.2-0.5-0.2-0.8-0.1c-0.1,0-0.2,0.1-0.3,0.1c-1.2,0.9-3,1.3-4.2,1.3c-1,0-2.6-0.3-3.8-1
		c-0.2-0.1-0.3-0.2-0.5-0.3c-0.2-0.2-0.5-0.2-0.8-0.1c-0.1,0-0.2,0.1-0.2,0.1c-1.2,0.9-3,1.3-4.2,1.3c-1,0-2.6-0.3-3.8-1
		C-3,14.3-3.2,14.2-3.3,14C-3.5,13.9-3.7,13.9-3.9,13.9z M-3.9,17.3c-0.2,0-0.4,0.1-0.5,0.2c-1.2,0.9-3,1.3-4.2,1.3
		c-0.5,0-0.9,0-1.5-0.1c-0.5-0.1-0.9,0.3-1,0.7c-0.1,0.5,0.3,0.9,0.7,1c0.6,0.1,1.2,0.1,1.7,0.1c1.4,0,3.3-0.4,4.8-1.3
		c1.5,0.9,3.4,1.3,4.8,1.3c1.4,0,3.3-0.4,4.8-1.3c1.5,0.9,3.4,1.3,4.8,1.3c1.4,0,3.3-0.4,4.8-1.3c1.5,0.9,3.4,1.3,4.8,1.3
		c1.4,0,3.3-0.4,4.8-1.3c1.5,0.9,3.4,1.3,4.8,1.3c0.7,0,1.3-0.1,1.9-0.3c0.4-0.2,0.7-0.7,0.5-1.1c-0.2-0.4-0.7-0.7-1.1-0.5
		c-0.4,0.1-0.8,0.2-1.3,0.2c-1.2,0-3-0.3-4.2-1.3c-0.3-0.2-0.7-0.2-1,0c-1.2,0.9-3,1.3-4.2,1.3c-1.2,0-3-0.3-4.2-1.3
		c-0.3-0.2-0.8-0.2-1.1,0c-1.2,0.9-3,1.3-4.2,1.3c-1.2,0-3-0.3-4.2-1.3c-0.3-0.2-0.7-0.2-1,0c-1.2,0.9-3,1.3-4.2,1.3s-3-0.3-4.2-1.3
		C-3.5,17.4-3.7,17.3-3.9,17.3z M18.7-0.2L5.4,2.5L4.2-1.3l7.7-1.4L18.7-0.2z"/>
</g>
<g id="Layer_5">
	<path class="st5" d="M19.8,0.4c-0.1,0-0.2,0-0.2,0.1c0,0-1.8,0.6-3.3,1.9c-0.3,0.2-0.5,0.5-0.4,0.9c0,0.4,0.3,0.7,0.6,0.8
		c0.3,0.1,0.7,0,1-0.2c0.8-0.7,1.4-0.9,2-1.1c0.1,0.4,0.3,1.2,0.7,2.2c-0.1,0-0.1,0-0.2,0c-7.7,0-6.4,3.7-7.5,3.7
		c-2.7,0-3.7,0.1-4.2-0.7C7.5,6.6,8.2,6.1,5.2,6.1c-4.2,0-4.7,1.3-4.7,1.3S0.7,8.6,2,8.6c5.3,0,7,0.9,8.5,2c0.2,0.2,0.4,0.4,0.7,0.6
		l-1.3,0.7c-1-1.2-2.4-2-4.1-2c-2.9,0-5.3,2.3-5.3,5.3c0,2.9,2.3,5.3,5.3,5.3c2.6,0,4.7-1.8,5.2-4.2h2c1.7,1.5,7.2,0.9,7.1-0.4
		c-0.2-2.9,0.7-5.5,1.5-7c0.4,0.8,0.8,1.7,1.3,2.6c-0.5,0.5-0.9,1.1-1.2,1.8c-0.4,1-0.5,2.4,0.1,2.4c0.5,0,0.5-0.5,1-1.3
		c-0.1,0.4-0.3,0.9-0.3,1.4c0,2.6,2.1,4.7,4.7,4.7c2.6,0,4.7-2.1,4.7-4.7c0-1.6-0.8-3-2-3.8c0.3,0,0.5,0,0.8,0
		c0.4,0-0.4-2.2-4.2-2.2c-0.8,0-1.5,0.2-2.1,0.5c-0.5-1-1-2-1.4-2.9c0.6,0,1.6-0.1,1.5-1c0-0.7-0.5-2.3-0.8-2.9c-0.4-1-1.2-1-1.2-1
		h-1.4c-0.2-0.7-0.4-1.3-0.4-1.3C20.7,0.7,20.3,0.4,19.8,0.4 M5.8,12.3c0.8,0,1.5,0.3,2,0.8l-2.3,1.3c-0.1,0-0.1,0.1-0.2,0.1
		c-0.1,0-0.2,0.1-0.2,0.2c-0.1,0-0.1,0.1-0.2,0.1v0l0,0c0,0.1-0.1,0.1-0.1,0.2c-0.1,0.3,0,0.7,0.2,1h0c0,0,0,0.1,0,0.1h0l0,0h0
		c0,0,0,0.1,0,0.1h0c0,0,0.1,0,0.2,0h0c0,0,0.1,0,0.2,0h0h0.1h0.1h2.8c-0.4,1.2-1.5,2.1-2.9,2.1c-1.7,0-3.1-1.3-3.1-3.1
		C2.8,13.6,4.1,12.3,5.8,12.3 M12.1,12.9c0.2,0.5,0.4,1,0.5,1.5H11c0-0.3-0.1-0.5-0.2-0.8L12.1,12.9z M27.3,13.3
		c1.5,0,2.7,1.2,2.7,2.7c0,1.5-1.2,2.7-2.7,2.7c-1.5,0-2.7-1.2-2.7-2.7c0-0.5,0.1-0.9,0.3-1.3c0.5,0.7,1.1,1.3,1.6,2
		c0.3,0.4,0.9,0.4,1.3,0.1c0.4-0.3,0.4-0.9,0.1-1.3c-0.6-0.6-1.1-1.2-1.6-1.9C26.7,13.3,27,13.3,27.3,13.3"/>
</g>
<g id="Layer_6" class="st0">
	<path class="st4" d="M25.1,9.8c-2.9,0-5.3,2.4-5.3,5.3c0,3,2.4,5.3,5.3,5.3c3,0,5.3-2.4,5.3-5.3C30.5,12.2,28.1,9.8,25.1,9.8
		 M25.1,16.6c-0.8,0-1.5-0.7-1.5-1.5c0-0.8,0.7-1.5,1.5-1.5c0.8,0,1.5,0.7,1.5,1.5C26.6,16,25.9,16.6,25.1,16.6 M30-0.9h-3.9v-2.4
		c0-0.9,0.3-1.7,0.8-2.4c0.3-0.4,0.2-0.9-0.1-1.2l-1.3-1.5c-0.4-0.5-1.1-0.4-1.5,0c-1.1,1.4-1.8,3.1-1.8,5v2.4H16l-3.4-7.9
		c-0.5-1.1-1.5-1.8-2.7-1.8H1.8c-1.6,0-2.9,1.3-2.9,2.9v8.9c-0.5-0.4-1.3-0.4-1.8,0.1l-1.9,1.9c-0.5,0.5-0.5,1.4,0,1.9l0.3,0.3
		C-4.7,6-5,6.5-5.1,7.1h-0.4c-0.7,0-1.3,0.6-1.3,1.3v2.7c0,0.7,0.6,1.3,1.3,1.3h0.4c0.2,0.6,0.4,1.2,0.7,1.7l-0.3,0.3
		c-0.5,0.5-0.5,1.4,0,1.9l1.9,1.9c0.5,0.5,1.4,0.5,1.9,0l0.3-0.3c0.6,0.3,1.1,0.5,1.7,0.7v0.4c0,0.7,0.6,1.3,1.3,1.3h2.7
		c0.7,0,1.3-0.6,1.3-1.3v-0.4C7,18.6,7.6,18.3,8.2,18l0.3,0.3c0.5,0.5,1.4,0.5,1.9,0l1.9-1.9c0.5-0.5,0.5-1.4,0-1.9L12,14.2
		c0.3-0.6,0.5-1.1,0.7-1.7h0.4c0.7,0,1.3-0.6,1.3-1.3v-0.4h4.9c1.3-1.8,3.4-2.9,5.8-2.9c1.1,0,2.2,0.3,3.1,0.7l3.1-3.1
		c0.4-0.4,0.6-0.9,0.6-1.4V1.1C31.9,0,31.1-0.9,30-0.9 M3.8,14.7c-2.7,0-4.9-2.2-4.9-4.9C-1.1,7.1,1.1,5,3.8,5
		c2.7,0,4.9,2.2,4.9,4.9C8.6,12.5,6.5,14.7,3.8,14.7 M5.1-0.9H2.8v-5.8h6.5l2.5,5.8H5.1z"/>
</g>
<g id="Layer_9" class="st0">
	<path class="st3" d="M28.5,14.8c0,3.2-2.6,5.7-5.7,5.7s-5.7-2.6-5.7-5.7c0,0,0,0,0,0l-8,0v0c0,3.2-2.6,5.7-5.7,5.7
		c-3.2,0-5.7-2.6-5.7-5.7c0,0,0,0,0,0h-0.8c-0.8,0-1.5-0.7-1.5-1.5V-3.2C-4.6-4-4-4.6-3.2-4.6l21.1,0c0.1,0,0.2,0,0.3,0
		c0.1,0,0.2,0,0.4,0l5.4,0c2.6,0,8,6.5,8,10.8v6.2c0,1.3-1.2,2.4-2.6,2.4L28.5,14.8L28.5,14.8 M19.4,14.8c0,1.9,1.5,3.4,3.4,3.4
		c1.9,0,3.4-1.5,3.4-3.4c0-1.9-1.5-3.4-3.4-3.4C20.9,11.4,19.4,12.9,19.4,14.8 M-0.1,14.8c0,1.9,1.5,3.4,3.4,3.4
		c1.9,0,3.4-1.5,3.4-3.4c0-1.9-1.5-3.4-3.4-3.4C1.5,11.4-0.1,12.9-0.1,14.8 M25.8,5c0.2,0.4,0.6,0.6,1,0.6h1.7
		c0.7,0,1.2-0.5,1.1-1.2c-0.1-1.3-1-2.8-1.8-4c-0.5-0.6-1-1.2-1.4-1.7c-0.5-0.4-1-0.9-1.6-1.1c-0.2-0.1-0.4-0.1-0.6-0.1l-1.4,0
		c-0.6,0-1.1,0.5-1.1,1.1v2.9c0,0.6,0.4,1,1,1.1C24.1,3,25.1,3.8,25.8,5"/>
</g>
<g id="Layer_8" class="st0">
	<path class="st4" d="M30.9,10h-3.2V-0.6c0-5.8-4.7-10.5-10.5-10.5H-6c-2.3,0-4.2,1.9-4.2,4.2V10c0,2.3,1.9,4.2,4.2,4.2h2.1
		c0,3.5,2.8,6.3,6.3,6.3c3.5,0,6.3-2.8,6.3-6.3h22.1c0.6,0,1.1-0.5,1.1-1.1V11C31.9,10.4,31.5,10,30.9,10 M2.4,17.3
		c-1.7,0-3.2-1.4-3.2-3.2c0-1.7,1.4-3.2,3.2-3.2c1.7,0,3.2,1.4,3.2,3.2C5.6,15.9,4.2,17.3,2.4,17.3z M6.6,1.5c0,1.2-0.9,2.1-2.1,2.1
		h-8.4C-5.1,3.6-6,2.7-6,1.5v-4.2c0-1.2,0.9-2.1,2.1-2.1h8.4c1.2,0,2.1,0.9,2.1,2.1V1.5z M19.3,3.7h-8.4v-6.4c0-1.2,0.9-2.1,2.1-2.1
		h4.2c1.2,0,2.1,0.9,2.1,2.1V3.7z"/>
</g>
<g id="Layer_12" class="st0">
	<g class="st1">
		<path class="st5" d="M26.4-2.8c1.2,0,1.9-1.2,1.6-2.2c-0.1-0.3-0.1-0.6-0.3-0.9l-1.8-2.7c-0.2-0.2-0.3-0.4-0.4-0.6l-0.1-0.1
			l-0.5-0.5c-1.1-0.9-2.5-1.4-3.9-1.4H-3.8c-3.2,0-5.8,2.6-5.8,5.8V7.2V8v5.8c0,1.4,1.1,2.5,2.5,2.5h3.4c0.4,2.3,2.4,4.2,4.9,4.2
			c2.5,0,4.5-1.8,4.9-4.2h6c1.3,0,2.3-1.1,2.3-2.3V8h0.1V1.4c0-2.2,1.9-4.2,4.2-4.2 M1.1,18.8c-1.8,0-3.3-1.5-3.3-3.3
			c0-1.8,1.5-3.3,3.3-3.3c1.8,0,3.3,1.5,3.3,3.3C4.5,17.3,3,18.8,1.1,18.8 M-4.7-6.1C-4.7-6.6-4.4-7-3.8-7H8.6
			c0.5,0,0.8,0.3,0.8,0.8v8.3C9.5,2.7,9.1,3,8.6,3H-3.8c-0.5,0-0.8-0.3-0.8-0.8V-6.1z M15.3-5.3c-0.5,0-0.8-0.3-0.8-0.8
			c0-0.5,0.3-0.8,0.8-0.8H22c0.5,0,0.8,0.3,0.8,0.8c0,0.5-0.3,0.8-0.8,0.8H15.3z"/>
		<path class="st5" d="M31.9,6.4c0-0.1,0-0.2,0-0.3c0-0.2-0.1-0.4-0.1-0.6c0,0,0-0.1,0-0.1c-0.1-0.2-0.1-0.3-0.2-0.5
			c-0.4-0.9-0.8-1.6-0.9-1.7v0l-2.2-2.9h0v0c-0.8-1-2-1.3-3.1-1.3h-6.7c-1.3,0-2.5,1.2-2.5,2.5v12.5c0,1,0.6,1.9,1.5,2.3
			c0.3,0.1,0.6,0.2,1,0.2h0.1c0.4,2.3,2.4,4.2,4.9,4.2c2.5,0,4.5-1.8,4.9-4.2h0.9c0.2,0,0.3,0,0.5-0.1c1.1-0.2,2-1.3,2-2.4L31.9,6.4
			 M23.6,18.8c-1.8,0-3.3-1.5-3.3-3.3c0-1.8,1.5-3.3,3.3-3.3c1.8,0,3.3,1.5,3.3,3.3C26.9,17.3,25.4,18.8,23.6,18.8 M22,6.4
			c-0.5,0-0.8-0.3-0.8-0.8v-5h4.2c1,0,1.3,0,1.8,0.7c0,0,0,0,0,0l1.1,1.5l1,1.4c0.3,0.3,0.8,1.4,1,2.3H22z"/>
	</g>
</g>
<g id="Layer_10" class="st0">
	<path class="st3" d="M25.4,20.5c-2.3,0-4.2-1.6-4.6-3.8h-7.7c-0.4,2.1-2.3,3.8-4.6,3.8c-2.3,0-4.2-1.6-4.6-3.8H3.8
		c-1,0-1.9-0.8-1.9-1.9c0-7.5,0-15,11.3-15c3.8,0,7.7,1.8,10.3,6.6c4.8,0.9,8.5,4.7,8.5,8.4c0,1-0.8,1.9-1.9,1.9H30
		C29.5,18.9,27.6,20.5,25.4,20.5 M25.4,18.6c1.6,0,2.8-1.3,2.8-2.8c0-1.6-1.3-2.8-2.8-2.8c-1.6,0-2.8,1.3-2.8,2.8
		C22.6,17.4,23.8,18.6,25.4,18.6 M8.5,18.6c1.6,0,2.8-1.3,2.8-2.8c0-1.6-1.3-2.8-2.8-2.8c-1.6,0-2.8,1.3-2.8,2.8
		C5.7,17.4,6.9,18.6,8.5,18.6 M19.7,7.4c0.9,0,1.1-1,0.6-1.6c-0.4-0.7-1.7-2.2-3-2.9c-1.2-0.6-2.5-1-4.1-1.1v5.6H19.7z M6.6,7.4h4.7
		V1.7C9.7,1.9,8.5,2.3,7.6,2.9C6.4,3.7,5.8,5,5.7,6.4C5.6,7,6,7.4,6.6,7.4"/>
</g>
<g id="Layer_11">
</g>
</svg>
