<?xml version="1.0" encoding="utf-8"?>
<!-- Generator: Adobe Illustrator 24.1.2, SVG Export Plug-In . SVG Version: 6.00 Build 0)  -->
<svg version="1.1" id="Layer_1" xmlns="http://www.w3.org/2000/svg" xmlns:xlink="http://www.w3.org/1999/xlink" x="0px" y="0px"
	 viewBox="0 0 28 18" style="enable-background:new 0 0 28 18;" xml:space="preserve">
<style type="text/css">
	.st0{fill:#A81674;}
</style>
<path class="st0" d="M27.1,11.7c-1.3-1-4.5-2-6.9-2.2c-4.7-2.8-6.9-3-14.6-1.2C5.2,8.2,4,8.7,2.5,9c-3.2,0.6-3.1,3.9,0.6,4.2
	c0.1,0,0.1,0,0.2,0c0,1.3,1.1,2.3,2.4,2.3c1.2,0,2.2-0.9,2.3-2.1c1.5,0,3.2,0.1,5.1,0.1c0,0,3.8,0,7.3,0c0.2,1.1,1.2,2,2.3,2
	s2.1-0.8,2.3-2c0.3,0,0.5,0,0.6,0C25.6,13.6,29.4,13.4,27.1,11.7z M7.1,13.4c-0.1,0.7-0.7,1.2-1.4,1.2c-0.8,0-1.4-0.6-1.4-1.4
	c0,0,0-0.1,0-0.1c0-0.8,0.6-1.4,1.4-1.4c0.8,0,1.4,0.6,1.4,1.4C7.1,13.3,7.1,13.3,7.1,13.4z M11.3,9.7C9.6,9.5,7,8.6,7,8.6
	c4-1.2,5.8-1.3,7.9-0.8c1.6,0.4,3.2,1.5,4.1,1.9C16.6,9.9,13.1,10,11.3,9.7z M24.1,13.6c-0.2,0.6-0.7,1-1.4,1c-0.7,0-1.2-0.4-1.4-1
	c0-0.1-0.1-0.3-0.1-0.4c0-0.8,0.6-1.4,1.4-1.4c0.8,0,1.4,0.6,1.4,1.4C24.2,13.4,24.1,13.5,24.1,13.6z"/>
</svg>
