<?xml version="1.0" encoding="utf-8"?>
<!-- Generator: Adobe Illustrator 24.1.0, SVG Export Plug-In . SVG Version: 6.00 Build 0)  -->
<svg version="1.1" xmlns="http://www.w3.org/2000/svg" xmlns:xlink="http://www.w3.org/1999/xlink" x="0px" y="0px"
	 viewBox="0 0 44 32.8" style="enable-background:new 0 0 44 32.8;" xml:space="preserve">
<style type="text/css">
	.st0{display:none;}
	.st1{display:inline;}
	.st2{fill-rule:evenodd;clip-rule:evenodd;fill:#0055a5;}
	.st3{display:inline;fill-rule:evenodd;clip-rule:evenodd;fill:#0055a5;}
	.st4{display:inline;fill:#0055a5;}
	.st5{fill:#0055a5;}
</style>
<g id="Layer_1" class="st0">
	<g class="st1">
		<path class="st2" d="M28.8,25.1c0,4-3.2,7.2-7.2,7.2c-3.1,0-5.8-2-6.8-4.8H7.6c-1,2.8-3.7,4.8-6.8,4.8c-3.1,0-5.8-2-6.8-4.8H-6
			c-1.1,0-1.9-0.9-1.9-2l0-4.4c0-4.6,4.2-7.7,11.2-8V3.8c0-1.9,1.5-3.4,3.4-3.4l7,0C17,0.4,24,9.4,24,15.5l0,1.3l0,1.6
			C26.8,19.3,28.8,22,28.8,25.1 M17.6,25.1c0,2.2,1.8,4,4,4c2.2,0,4-1.8,4-4c0-2.2-1.8-4-4-4C19.4,21.1,17.6,22.9,17.6,25.1
			 M-3.2,25.1c0,2.2,1.8,4,4,4c2.2,0,4-1.8,4-4c0-2.2-1.8-4-4-4C-1.4,21.1-3.2,22.9-3.2,25.1 M13.5,12.5c0.3,0.4,0.8,0.6,1.3,0.6
			h2.9c0.9,0,1.7-0.8,1.6-1.7C19,8.7,17,5.4,14.7,3.8c-0.3-0.2-0.6-0.3-0.9-0.3H8c-0.9,0-1.6,0.7-1.6,1.6v3.2c0,0.8,0.6,1.5,1.4,1.6
			C10.7,10.2,12.4,11.2,13.5,12.5"/>
		<path class="st2" d="M42.4,26c0.8-0.5,1.1-1.6,0.5-2.3l-8.2-11.4c-0.7-1-2.2-0.9-2.7,0.2c-1.8,3.8-2.4,9.4,0.1,13
			C33.8,27.9,38.2,28.3,42.4,26"/>
		<path class="st2" d="M34.8,22.3c0.6-0.6,0.6-1.6,0-2.3l-6.4-6.4c-0.6-0.6-1.6-0.6-2.3,0l-3.2,3.2c-0.6,0.6-0.6,1.6,0,2.3
			c0.6,0.6,1.6,0.6,2.3,0l2.1-2.1l5.3,5.3C33.2,22.9,34.2,22.9,34.8,22.3"/>
	</g>
</g>
<g id="Layer_2" class="st0">
	<path class="st3" d="M8.3,10.8v12.4c0,1,0.8,1.9,1.9,1.9h1.1c0,0,0,0,0,0c0,4,3.3,7.3,7.3,7.3s7.3-3.3,7.3-7.3c0,0,0,0,0,0l6.7,0
		l0,0h1.3c0.1,0,0.2,0,0.2,0v0h8.5c0.4,0,0.8-0.4,0.8-0.8c0-0.4-0.4-0.8-0.8-0.8l-6.7,0c0-0.1,0-0.2,0-0.3V10.8c0-1-0.8-1.8-1.7-1.9
		v0l-23.9,0C9.1,8.9,8.3,9.7,8.3,10.8z M30.3,13.2c0-0.8,0.7-1.5,1.5-1.5c0.8,0,1.5,0.7,1.5,1.5v4.4c0,0.8-0.7,1.5-1.5,1.5
		c-0.8,0-1.5-0.7-1.5-1.5V13.2z M24.4,13.3c0-0.8,0.7-1.5,1.5-1.5c0.8,0,1.5,0.7,1.5,1.5v4.4c0,0.8-0.7,1.5-1.5,1.5
		c-0.8,0-1.5-0.7-1.5-1.5V13.3z M21.5,17.7c0,0.8-0.7,1.5-1.5,1.5c-0.8,0-1.5-0.7-1.5-1.5v-4.4c0-0.8,0.7-1.5,1.5-1.5
		c0.8,0,1.5,0.7,1.5,1.5V17.7z M14.1,25c0-2.4,2-4.4,4.4-4.4s4.4,2,4.4,4.4c0,2.4-2,4.4-4.4,4.4S14.1,27.4,14.1,25z M12.7,13.2
		c0-0.8,0.7-1.5,1.5-1.5c0.8,0,1.5,0.7,1.5,1.5v4.4c0,0.8-0.7,1.5-1.5,1.5c-0.8,0-1.5-0.7-1.5-1.5V13.2z"/>
</g>
<g id="Layer_3" class="st0">
	<path class="st4" d="M41.9,15.1l-4.2-4.2c-0.9-0.9-2-1.3-3.2-1.3h-2.7V2.7c0-1.3-1-2.3-2.3-2.3H0c-1.3,0-2.3,1-2.3,2.3v23.9
		c0,3.1,2.5,5.7,5.7,5.7c1.9,0,3.5-0.9,4.6-2.3c1,1.4,2.7,2.3,4.6,2.3c3.1,0,5.7-2.5,5.7-5.7c0-0.4,0-0.8-0.1-1.1h11.6
		c-0.1,0.4-0.1,0.7-0.1,1.1c0,3.1,2.5,5.7,5.7,5.7c3.1,0,5.7-2.5,5.7-5.7c0-0.4,0-0.8-0.1-1.1h1.3c0.6,0,1.1-0.5,1.1-1.1v-6.1
		C43.2,17.1,42.8,15.9,41.9,15.1 M3.4,28.9c-1.3,0-2.3-1-2.3-2.3c0-1.3,1-2.3,2.3-2.3c1.3,0,2.3,1,2.3,2.3
		C5.7,27.9,4.7,28.9,3.4,28.9 M12.5,28.9c-1.3,0-2.3-1-2.3-2.3c0-1.3,1-2.3,2.3-2.3c1.3,0,2.3,1,2.3,2.3
		C14.8,27.9,13.8,28.9,12.5,28.9 M31.9,13h2.7c0.3,0,0.6,0.1,0.8,0.3l3.1,3.1h-6.6V13z M35.3,28.9c-1.3,0-2.3-1-2.3-2.3
		c0-1.3,1-2.3,2.3-2.3c1.3,0,2.3,1,2.3,2.3C37.5,27.9,36.5,28.9,35.3,28.9"/>
</g>
<g id="Layer_4" class="st0">
	<path class="st4" d="M22.4,7.9c-0.3,0-0.5,0-0.8,0.1c-0.4,0.1-1,0.1-1.6,0.2c-8.1,1.1-9,2.3-9.4,2.8c-0.5,0.7-2.3,4.6-2.9,7.4
		c0.7-0.3,3.3,0.2,4,0c2.9-0.8,14.4-4.7,22.4-6.7C31.2,10.9,24.7,7.9,22.4,7.9 M41.6,9.5c-0.1,0-0.3,0-0.5,0.1
		c-0.1,0-7.7,1.9-15.4,3.8c-2.4,0.6-4.5,1.1-6.7,1.7c-1.6,0.4-2.6,0.7-3.9,1c-2,0.5-3.7,0.9-4.5,1.2c-0.3,0.1-0.5,0.2-0.8,0.2
		c0,0-0.1,0-0.1,0.1c-0.7,0.3-1.4,0.6-2,0.9c-3.2,1.9-5.2,4.9-5.7,6.9c0.2,0,0.4,0,0.6,0c1,0,2.4-0.3,3.2-0.9c0.5-0.4,1-0.6,1.6-0.6
		C8,24,8.6,24.2,9,24.5c0.8,0.6,2.2,0.9,3.2,0.9s2.3-0.3,3.1-0.9c0.5-0.4,1-0.6,1.6-0.6c0.6,0,1.1,0.2,1.6,0.6
		c0.8,0.6,2.2,0.9,3.2,0.9c1,0,2.4-0.3,3.2-0.9c0.5-0.4,1-0.6,1.6-0.6c0.6,0,1.2,0.2,1.6,0.6c0.8,0.6,2.2,0.9,3.1,0.9
		c1,0,2.4-0.3,3.2-0.9c0.4-0.3,0.9-0.5,1.4-0.5c2.2-2.8,4-6.2,5.6-9.2c0.5-0.9,1-1.8,1.5-2.6c0.5-1,0.3-1.6,0.1-1.9
		C42.7,9.8,42.2,9.5,41.6,9.5z M26,17.8c0.8,0,1.5,0.6,1.7,1.4c0.2,0.9-0.4,1.8-1.3,2c-0.9,0.2-1.9-0.4-2-1.3
		c-0.2-0.9,0.4-1.8,1.3-2C25.8,17.8,25.9,17.8,26,17.8z M20.9,18.6c0.8,0,1.5,0.6,1.7,1.4c0.2,0.9-0.4,1.8-1.3,2
		c-0.9,0.2-1.9-0.4-2-1.3c-0.2-0.9,0.4-1.8,1.3-2C20.6,18.6,20.7,18.6,20.9,18.6z M15.7,19.5c0.8,0,1.5,0.6,1.7,1.4
		c0.2,0.9-0.4,1.8-1.3,2c-0.9,0.2-1.9-0.4-2-1.3c-0.2-0.9,0.4-1.8,1.3-2C15.5,19.5,15.6,19.5,15.7,19.5z M7.4,25.7
		c-0.2,0-0.4,0.1-0.5,0.2c-1.2,0.9-3,1.3-4.2,1.3c-0.5,0-0.9,0-1.5-0.1c-0.5-0.1-0.9,0.3-1,0.7c-0.1,0.5,0.3,0.9,0.7,1
		c0.6,0.1,1.2,0.1,1.7,0.1c0.8,0,1.8-0.1,2.9-0.4c0.2-0.1,0.5-0.1,0.7-0.2c0.1,0,0.2-0.1,0.3-0.1c0,0,0.1,0,0.1-0.1
		C6.8,28,7,27.9,7.1,27.8c0.1-0.1,0.2-0.1,0.3-0.2c0.2,0.1,0.3,0.2,0.5,0.3c0,0,0.1,0,0.1,0.1c0.1,0.1,0.3,0.1,0.5,0.2
		c1.3,0.5,2.7,0.8,3.7,0.8c0.7,0,1.5-0.1,2.3-0.3h0.1c0.2,0,0.4-0.1,0.5-0.2c0,0,0,0,0.1,0c0.2-0.1,0.4-0.1,0.6-0.2c0,0,0,0,0,0
		c0.4-0.2,0.8-0.3,1.2-0.6c0.1,0.1,0.2,0.1,0.3,0.1c0.3,0.2,0.6,0.3,0.9,0.5c0,0,0.1,0,0.1,0c0.2,0.1,0.4,0.1,0.5,0.2
		c0,0,0.1,0,0.1,0c0.1,0,0.3,0.1,0.4,0.1c0.1,0,0.2,0.1,0.2,0.1h0.1c0.7,0.2,1.5,0.2,2.1,0.2c0.5,0,1.2-0.1,1.8-0.2h0.1
		c0.5-0.1,0.9-0.2,1.4-0.4c0,0,0.1,0,0.1,0c0.1,0,0.1-0.1,0.2-0.1c0.4-0.2,0.8-0.4,1.2-0.6c0.5,0.3,1.1,0.6,1.6,0.8c0,0,0,0,0,0
		c0,0,0,0,0,0c0,0,0.1,0,0.1,0.1c0.1,0,0.3,0.1,0.4,0.1c0.4,0.1,0.8,0.2,1.1,0.2c0.5,0.1,1,0.1,1.4,0.1c1.4,0,3.3-0.4,4.8-1.3
		c1.5,0.9,3.4,1.3,4.8,1.3c0.7,0,1.3-0.1,1.9-0.3c0.4-0.2,0.7-0.7,0.5-1.1C43,27,42.5,26.8,42.1,27c-0.4,0.1-0.8,0.2-1.3,0.2
		c-1.2,0-3-0.3-4.2-1.3c-0.3-0.2-0.7-0.2-1,0c-0.8,0.6-1.8,1-2.7,1.1c-0.2,0-0.5,0.1-0.7,0.1c-0.3,0-0.6,0.1-0.9,0.1
		c-1,0-2.6-0.3-3.7-1c-0.2-0.1-0.3-0.2-0.5-0.3c-0.2-0.2-0.5-0.2-0.8-0.1c-0.1,0-0.2,0.1-0.3,0.1c-1.2,0.9-3,1.3-4.2,1.3
		c-1,0-2.6-0.3-3.8-1c-0.2-0.1-0.3-0.2-0.5-0.3c-0.2-0.2-0.5-0.2-0.8-0.1c-0.1,0-0.2,0.1-0.2,0.1c-1.2,0.9-3,1.3-4.2,1.3
		c-1,0-2.6-0.3-3.8-1C8.3,26.1,8.1,26,8,25.9C7.8,25.8,7.6,25.7,7.4,25.7z M7.4,29.1c-0.2,0-0.4,0.1-0.5,0.2c-1.2,0.9-3,1.3-4.2,1.3
		c-0.5,0-0.9,0-1.5-0.1c-0.5-0.1-0.9,0.3-1,0.7c-0.1,0.5,0.3,0.9,0.7,1c0.6,0.1,1.2,0.1,1.7,0.1C4,32.3,5.9,32,7.4,31
		c1.5,0.9,3.4,1.3,4.8,1.3c1.4,0,3.3-0.4,4.8-1.3c1.5,0.9,3.4,1.3,4.8,1.3c1.4,0,3.3-0.4,4.8-1.3c1.5,0.9,3.4,1.3,4.8,1.3
		c1.4,0,3.3-0.4,4.8-1.3c1.5,0.9,3.4,1.3,4.8,1.3c0.7,0,1.3-0.1,1.9-0.3c0.4-0.2,0.7-0.7,0.5-1.1c-0.2-0.4-0.7-0.7-1.1-0.5
		c-0.4,0.1-0.8,0.2-1.3,0.2c-1.2,0-3-0.3-4.2-1.3c-0.3-0.2-0.7-0.2-1,0c-1.2,0.9-3,1.3-4.2,1.3c-1.2,0-3-0.3-4.2-1.3
		c-0.3-0.2-0.8-0.2-1.1,0c-1.2,0.9-3,1.3-4.2,1.3c-1.2,0-3-0.3-4.2-1.3c-0.3-0.2-0.7-0.2-1,0c-1.2,0.9-3,1.3-4.2,1.3s-3-0.3-4.2-1.3
		C7.8,29.2,7.6,29.1,7.4,29.1z M30,11.6l-13.2,2.7l-1.3-3.8l7.7-1.4L30,11.6z"/>
</g>
<g id="Layer_5" class="st0">
	<path class="st4" d="M31.1,12.3c-0.1,0-0.2,0-0.2,0.1c0,0-1.8,0.6-3.3,1.9c-0.3,0.2-0.5,0.5-0.4,0.9c0,0.4,0.3,0.7,0.6,0.8
		c0.3,0.1,0.7,0,1-0.2c0.8-0.7,1.4-0.9,2-1.1c0.1,0.4,0.3,1.2,0.7,2.2c-0.1,0-0.1,0-0.2,0c-7.7,0-6.4,3.7-7.5,3.7
		c-2.7,0-3.7,0.1-4.2-0.7c-0.7-1.2-0.1-1.7-3.1-1.7c-4.2,0-4.7,1.3-4.7,1.3s0.1,1.1,1.5,1.1c5.3,0,7,0.9,8.5,2
		c0.2,0.2,0.4,0.4,0.7,0.6l-1.3,0.7c-1-1.2-2.4-2-4.1-2c-2.9,0-5.3,2.3-5.3,5.3c0,2.9,2.3,5.3,5.3,5.3c2.6,0,4.7-1.8,5.2-4.2h2
		c1.7,1.5,7.2,0.9,7.1-0.4c-0.2-2.9,0.7-5.5,1.5-7c0.4,0.8,0.8,1.7,1.3,2.6c-0.5,0.5-0.9,1.1-1.2,1.8c-0.4,1-0.5,2.4,0.1,2.4
		c0.5,0,0.5-0.5,1-1.3c-0.1,0.4-0.3,0.9-0.3,1.4c0,2.6,2.1,4.7,4.7,4.7c2.6,0,4.7-2.1,4.7-4.7c0-1.6-0.8-3-2-3.8c0.3,0,0.5,0,0.8,0
		c0.4,0-0.4-2.2-4.2-2.2c-0.8,0-1.5,0.2-2.1,0.5c-0.5-1-1-2-1.4-2.9c0.6,0,1.6-0.1,1.5-1c0-0.7-0.5-2.3-0.8-2.9c-0.4-1-1.2-1-1.2-1
		h-1.4c-0.2-0.7-0.4-1.3-0.4-1.3C32,12.6,31.6,12.2,31.1,12.3 M17.1,24.1c0.8,0,1.5,0.3,2,0.8l-2.3,1.3c-0.1,0-0.1,0.1-0.2,0.1
		c-0.1,0-0.2,0.1-0.2,0.2c-0.1,0-0.1,0.1-0.2,0.1v0l0,0c0,0.1-0.1,0.1-0.1,0.2c-0.1,0.3,0,0.7,0.2,1h0c0,0,0,0.1,0,0.1h0l0,0h0
		c0,0,0,0.1,0,0.1h0c0,0,0.1,0,0.2,0h0c0,0,0.1,0,0.2,0h0h0.1h0.1H20c-0.4,1.2-1.5,2.1-2.9,2.1c-1.7,0-3.1-1.3-3.1-3.1
		C14.1,25.5,15.4,24.1,17.1,24.1 M23.4,24.7c0.2,0.5,0.4,1,0.5,1.5h-1.6c0-0.3-0.1-0.5-0.2-0.8L23.4,24.7z M38.6,25.1
		c1.5,0,2.7,1.2,2.7,2.7c0,1.5-1.2,2.7-2.7,2.7c-1.5,0-2.7-1.2-2.7-2.7c0-0.5,0.1-0.9,0.3-1.3c0.5,0.7,1.1,1.3,1.6,2
		c0.3,0.4,0.9,0.4,1.3,0.1c0.4-0.3,0.4-0.9,0.1-1.3c-0.6-0.6-1.1-1.2-1.6-1.9C38,25.2,38.3,25.1,38.6,25.1"/>
</g>
<g id="Layer_6" class="st0">
	<path class="st4" d="M36.4,21.7c-2.9,0-5.3,2.4-5.3,5.3c0,3,2.4,5.3,5.3,5.3c3,0,5.3-2.4,5.3-5.3C41.8,24,39.4,21.7,36.4,21.7
		 M36.4,28.5c-0.8,0-1.5-0.7-1.5-1.5c0-0.8,0.7-1.5,1.5-1.5c0.8,0,1.5,0.7,1.5,1.5C37.9,27.8,37.2,28.5,36.4,28.5 M41.3,11h-3.9V8.5
		c0-0.9,0.3-1.7,0.8-2.4c0.3-0.4,0.2-0.9-0.1-1.2l-1.3-1.5c-0.4-0.5-1.1-0.4-1.5,0c-1.1,1.4-1.8,3.1-1.8,5V11h-6.2L23.9,3
		c-0.5-1.1-1.5-1.8-2.7-1.8h-8.1c-1.6,0-2.9,1.3-2.9,2.9v8.9c-0.5-0.4-1.3-0.4-1.8,0.1L6.6,15c-0.5,0.5-0.5,1.4,0,1.9l0.3,0.3
		c-0.3,0.6-0.5,1.1-0.7,1.7H5.7c-0.7,0-1.3,0.6-1.3,1.3V23c0,0.7,0.6,1.3,1.3,1.3h0.4c0.2,0.6,0.4,1.2,0.7,1.7l-0.3,0.3
		c-0.5,0.5-0.5,1.4,0,1.9l1.9,1.9c0.5,0.5,1.4,0.5,1.9,0l0.3-0.3c0.6,0.3,1.1,0.5,1.7,0.7V31c0,0.7,0.6,1.3,1.3,1.3h2.7
		c0.7,0,1.3-0.6,1.3-1.3v-0.4c0.6-0.2,1.2-0.4,1.7-0.7l0.3,0.3c0.5,0.5,1.4,0.5,1.9,0l1.9-1.9c0.5-0.5,0.5-1.4,0-1.9l-0.3-0.3
		c0.3-0.6,0.5-1.1,0.7-1.7h0.4c0.7,0,1.3-0.6,1.3-1.3v-0.4h4.9c1.3-1.8,3.4-2.9,5.8-2.9c1.1,0,2.2,0.3,3.1,0.7l3.1-3.1
		c0.4-0.4,0.6-0.9,0.6-1.4v-3.1C43.2,11.8,42.4,11,41.3,11 M15.1,26.5c-2.7,0-4.9-2.2-4.9-4.9c0-2.7,2.2-4.9,4.9-4.9
		c2.7,0,4.9,2.2,4.9,4.9C19.9,24.3,17.7,26.5,15.1,26.5 M16.4,11h-2.3V5.1h6.5l2.5,5.8H16.4z"/>
</g>
<g id="Layer_9" class="st0">
	<path class="st3" d="M39.8,26.6c0,3.2-2.6,5.7-5.7,5.7s-5.7-2.6-5.7-5.7c0,0,0,0,0,0l-8,0v0c0,3.2-2.6,5.7-5.7,5.7
		c-3.2,0-5.7-2.6-5.7-5.7c0,0,0,0,0,0H8.1c-0.8,0-1.5-0.7-1.5-1.5V8.7c0-0.8,0.7-1.5,1.5-1.5l21.1,0c0.1,0,0.2,0,0.3,0
		c0.1,0,0.2,0,0.4,0l5.4,0c2.6,0,8,6.5,8,10.8v6.2c0,1.3-1.2,2.4-2.6,2.4L39.8,26.6L39.8,26.6 M30.7,26.6c0,1.9,1.5,3.4,3.4,3.4
		c1.9,0,3.4-1.5,3.4-3.4c0-1.9-1.5-3.4-3.4-3.4C32.2,23.2,30.7,24.7,30.7,26.6 M11.2,26.6c0,1.9,1.5,3.4,3.4,3.4
		c1.9,0,3.4-1.5,3.4-3.4c0-1.9-1.5-3.4-3.4-3.4C12.8,23.2,11.2,24.7,11.2,26.6 M37.1,16.9c0.2,0.4,0.6,0.6,1,0.6h1.7
		c0.7,0,1.2-0.5,1.1-1.2c-0.1-1.3-1-2.8-1.8-4c-0.5-0.6-1-1.2-1.4-1.7c-0.5-0.4-1-0.9-1.6-1.1c-0.2-0.1-0.4-0.1-0.6-0.1l-1.4,0
		c-0.6,0-1.1,0.5-1.1,1.1v2.9c0,0.6,0.4,1,1,1.1C35.4,14.9,36.4,15.6,37.1,16.9"/>
</g>
<g id="Layer_8">
	<path class="st5" d="M42.2,21.8H39V11.3c0-5.8-4.7-10.5-10.5-10.5H5.3C3,0.7,1.1,2.6,1.1,4.9v16.9C1.1,24.1,3,26,5.3,26h2.1
		c0,3.5,2.8,6.3,6.3,6.3c3.5,0,6.3-2.8,6.3-6.3h22.1c0.6,0,1.1-0.5,1.1-1.1v-2.1C43.2,22.3,42.8,21.8,42.2,21.8 M13.7,29.2
		c-1.7,0-3.2-1.4-3.2-3.2c0-1.7,1.4-3.2,3.2-3.2c1.7,0,3.2,1.4,3.2,3.2C16.9,27.8,15.5,29.2,13.7,29.2z M17.9,13.4
		c0,1.2-0.9,2.1-2.1,2.1H7.4c-1.2,0-2.1-0.9-2.1-2.1V9.1C5.3,8,6.2,7,7.4,7h8.4C17,7,17.9,8,17.9,9.1V13.4z M30.6,15.5h-8.4V9.1
		C22.1,8,23.1,7,24.3,7h4.2c1.2,0,2.1,0.9,2.1,2.1V15.5z"/>
</g>
<g id="Layer_12" class="st0">
	<g class="st1">
		<path class="st5" d="M37.7,9c1.2,0,1.9-1.2,1.6-2.2c-0.1-0.3-0.1-0.6-0.3-0.9l-1.8-2.7c-0.2-0.2-0.3-0.4-0.4-0.6l-0.1-0.1
			l-0.5-0.5c-1.1-0.9-2.5-1.4-3.9-1.4H7.4c-3.2,0-5.8,2.6-5.8,5.8V19v0.8v5.8c0,1.4,1.1,2.5,2.5,2.5h3.4c0.4,2.3,2.4,4.2,4.9,4.2
			c2.5,0,4.5-1.8,4.9-4.2h6c1.3,0,2.3-1.1,2.3-2.3v-6h0.1v-6.7c0-2.2,1.9-4.2,4.2-4.2 M12.4,30.7c-1.8,0-3.3-1.5-3.3-3.3
			c0-1.8,1.5-3.3,3.3-3.3c1.8,0,3.3,1.5,3.3,3.3C15.8,29.2,14.3,30.7,12.4,30.7 M6.6,5.7c0-0.5,0.3-0.8,0.8-0.8h12.5
			c0.5,0,0.8,0.3,0.8,0.8V14c0,0.5-0.3,0.8-0.8,0.8H7.4c-0.5,0-0.8-0.3-0.8-0.8V5.7z M26.6,6.5c-0.5,0-0.8-0.3-0.8-0.8
			c0-0.5,0.3-0.8,0.8-0.8h6.7c0.5,0,0.8,0.3,0.8,0.8c0,0.5-0.3,0.8-0.8,0.8H26.6z"/>
		<path class="st5" d="M43.2,18.2c0-0.1,0-0.2,0-0.3c0-0.2-0.1-0.4-0.1-0.6c0,0,0-0.1,0-0.1c-0.1-0.2-0.1-0.3-0.2-0.5
			c-0.4-0.9-0.8-1.6-0.9-1.7v0L39.7,12h0v0c-0.8-1-2-1.3-3.1-1.3h-6.7c-1.3,0-2.5,1.2-2.5,2.5v12.5c0,1,0.6,1.9,1.5,2.3
			c0.3,0.1,0.6,0.2,1,0.2H30c0.4,2.3,2.4,4.2,4.9,4.2c2.5,0,4.5-1.8,4.9-4.2h0.9c0.2,0,0.3,0,0.5-0.1c1.1-0.2,2-1.3,2-2.4L43.2,18.2
			 M34.9,30.7c-1.8,0-3.3-1.5-3.3-3.3c0-1.8,1.5-3.3,3.3-3.3c1.8,0,3.3,1.5,3.3,3.3C38.2,29.2,36.7,30.7,34.9,30.7 M33.2,18.2
			c-0.5,0-0.8-0.3-0.8-0.8v-5h4.2c1,0,1.3,0,1.8,0.7c0,0,0,0,0,0l1.1,1.5l1,1.4c0.3,0.3,0.8,1.4,1,2.3H33.2z"/>
	</g>
</g>
<g id="Layer_10" class="st0">
	<path class="st3" d="M36.7,32.3c-2.3,0-4.2-1.6-4.6-3.8h-7.7c-0.4,2.1-2.3,3.8-4.6,3.8c-2.3,0-4.2-1.6-4.6-3.8h-0.1
		c-1,0-1.9-0.8-1.9-1.9c0-7.5,0-15,11.3-15c3.8,0,7.7,1.8,10.3,6.6c4.8,0.9,8.5,4.7,8.5,8.4c0,1-0.8,1.9-1.9,1.9h-0.1
		C40.8,30.7,38.9,32.3,36.7,32.3 M36.7,30.5c1.6,0,2.8-1.3,2.8-2.8c0-1.6-1.3-2.8-2.8-2.8c-1.6,0-2.8,1.3-2.8,2.8
		C33.9,29.2,35.1,30.5,36.7,30.5 M19.8,30.5c1.6,0,2.8-1.3,2.8-2.8c0-1.6-1.3-2.8-2.8-2.8c-1.6,0-2.8,1.3-2.8,2.8
		C17,29.2,18.2,30.5,19.8,30.5 M31,19.2c0.9,0,1.1-1,0.6-1.6c-0.4-0.7-1.7-2.2-3-2.9c-1.2-0.6-2.5-1-4.1-1.1v5.6H31z M17.9,19.2h4.7
		v-5.6c-1.6,0.2-2.8,0.6-3.7,1.2c-1.2,0.8-1.8,2.1-1.9,3.5C16.9,18.8,17.3,19.2,17.9,19.2"/>
</g>
<g id="Layer_11">
</g>
</svg>
