<?xml version="1.0" encoding="utf-8"?>
<!-- Generator: Adobe Illustrator 24.1.0, SVG Export Plug-In . SVG Version: 6.00 Build 0)  -->
<svg version="1.1" xmlns="http://www.w3.org/2000/svg" xmlns:xlink="http://www.w3.org/1999/xlink" x="0px" y="0px"
	 viewBox="0 0 47.1 33.3" style="enable-background:new 0 0 47.1 33.3;" xml:space="preserve">
<style type="text/css">
	.st0{display:none;}
	.st1{display:inline;}
	.st2{fill-rule:evenodd;clip-rule:evenodd;fill:#af006e;}
	.st3{display:inline;fill-rule:evenodd;clip-rule:evenodd;fill:#af006e;}
	.st4{fill:#af006e;}
	.st5{display:inline;fill:#af006e;}
</style>
<g id="Layer_1" class="st0">
	<g class="st1">
		<path class="st2" d="M31.9,25.6c0,4-3.2,7.2-7.2,7.2c-3.1,0-5.8-2-6.8-4.8h-7.2c-1,2.8-3.7,4.8-6.8,4.8c-3.1,0-5.8-2-6.8-4.8H-3
			c-1.1,0-1.9-0.9-1.9-2l0-4.4c0-4.6,4.2-7.7,11.2-8V4.2c0-1.9,1.5-3.4,3.4-3.4l7,0c3.4,0,10.4,9.1,10.4,15.1l0,1.3l0,1.6
			C29.9,19.8,31.9,22.4,31.9,25.6 M20.7,25.6c0,2.2,1.8,4,4,4c2.2,0,4-1.8,4-4c0-2.2-1.8-4-4-4C22.5,21.6,20.7,23.4,20.7,25.6
			 M-0.1,25.6c0,2.2,1.8,4,4,4c2.2,0,4-1.8,4-4c0-2.2-1.8-4-4-4C1.7,21.6-0.1,23.4-0.1,25.6 M16.5,13c0.3,0.4,0.8,0.6,1.3,0.6h2.9
			c0.9,0,1.7-0.8,1.6-1.7c-0.2-2.7-2.2-6.1-4.5-7.7c-0.3-0.2-0.6-0.3-0.9-0.3h-5.8c-0.9,0-1.6,0.7-1.6,1.6v3.2
			c0,0.8,0.6,1.5,1.4,1.6C13.8,10.7,15.5,11.6,16.5,13"/>
		<path class="st2" d="M45.4,26.4c0.8-0.5,1.1-1.6,0.5-2.3l-8.2-11.4c-0.7-1-2.2-0.9-2.7,0.2c-1.8,3.8-2.4,9.4,0.1,13
			C36.8,28.3,41.2,28.8,45.4,26.4"/>
		<path class="st2" d="M37.8,22.7c0.6-0.6,0.6-1.6,0-2.3L31.4,14c-0.6-0.6-1.6-0.6-2.3,0l-3.2,3.2c-0.6,0.6-0.6,1.6,0,2.3
			c0.6,0.6,1.6,0.6,2.3,0l2.1-2.1l5.3,5.3C36.2,23.3,37.2,23.3,37.8,22.7"/>
	</g>
</g>
<g id="Layer_2" class="st0">
	<path class="st3" d="M11.3,11.2v12.4c0,1,0.8,1.9,1.9,1.9h1.1c0,0,0,0,0,0c0,4,3.3,7.3,7.3,7.3s7.3-3.3,7.3-7.3c0,0,0,0,0,0l6.7,0
		l0,0h1.3c0.1,0,0.2,0,0.2,0v0h8.5c0.4,0,0.8-0.4,0.8-0.8c0-0.4-0.4-0.8-0.8-0.8l-6.7,0c0-0.1,0-0.2,0-0.3V11.2c0-1-0.8-1.8-1.7-1.9
		v0l-23.9,0C12.2,9.3,11.3,10.2,11.3,11.2z M33.3,13.7c0-0.8,0.7-1.5,1.5-1.5c0.8,0,1.5,0.7,1.5,1.5v4.4c0,0.8-0.7,1.5-1.5,1.5
		c-0.8,0-1.5-0.7-1.5-1.5V13.7z M27.4,13.7c0-0.8,0.7-1.5,1.5-1.5c0.8,0,1.5,0.7,1.5,1.5v4.4c0,0.8-0.7,1.5-1.5,1.5
		c-0.8,0-1.5-0.7-1.5-1.5V13.7z M24.5,18.1c0,0.8-0.7,1.5-1.5,1.5c-0.8,0-1.5-0.7-1.5-1.5v-4.4c0-0.8,0.7-1.5,1.5-1.5
		c0.8,0,1.5,0.7,1.5,1.5V18.1z M17.2,25.4c0-2.4,2-4.4,4.4-4.4s4.4,2,4.4,4.4c0,2.4-2,4.4-4.4,4.4S17.2,27.9,17.2,25.4z M15.7,13.7
		c0-0.8,0.7-1.5,1.5-1.5c0.8,0,1.5,0.7,1.5,1.5v4.4c0,0.8-0.7,1.5-1.5,1.5c-0.8,0-1.5-0.7-1.5-1.5V13.7z"/>
</g>
<g id="Layer_3">
	<path class="st4" d="M44.9,15.5l-4.2-4.2c-0.9-0.9-2-1.3-3.2-1.3h-2.7V3.2c0-1.3-1-2.3-2.3-2.3H3c-1.3,0-2.3,1-2.3,2.3v23.9
		c0,3.1,2.5,5.7,5.7,5.7c1.9,0,3.5-0.9,4.6-2.3c1,1.4,2.7,2.3,4.6,2.3c3.1,0,5.7-2.5,5.7-5.7c0-0.4,0-0.8-0.1-1.1h11.6
		c-0.1,0.4-0.1,0.7-0.1,1.1c0,3.1,2.5,5.7,5.7,5.7c3.1,0,5.7-2.5,5.7-5.7c0-0.4,0-0.8-0.1-1.1h1.3c0.6,0,1.1-0.5,1.1-1.1v-6.1
		C46.3,17.5,45.8,16.4,44.9,15.5 M6.4,29.4c-1.3,0-2.3-1-2.3-2.3c0-1.3,1-2.3,2.3-2.3c1.3,0,2.3,1,2.3,2.3
		C8.7,28.3,7.7,29.4,6.4,29.4 M15.5,29.4c-1.3,0-2.3-1-2.3-2.3c0-1.3,1-2.3,2.3-2.3c1.3,0,2.3,1,2.3,2.3
		C17.8,28.3,16.8,29.4,15.5,29.4 M34.9,13.4h2.7c0.3,0,0.6,0.1,0.8,0.3l3.1,3.1h-6.6V13.4z M38.3,29.4c-1.3,0-2.3-1-2.3-2.3
		c0-1.3,1-2.3,2.3-2.3c1.3,0,2.3,1,2.3,2.3C40.6,28.3,39.6,29.4,38.3,29.4"/>
</g>
<g id="Layer_4" class="st0">
	<path class="st5" d="M25.4,8.4c-0.3,0-0.5,0-0.8,0.1c-0.4,0.1-1,0.1-1.6,0.2c-8.1,1.1-9,2.3-9.4,2.8c-0.5,0.7-2.3,4.6-2.9,7.4
		c0.7-0.3,3.3,0.2,4,0c2.9-0.8,14.4-4.7,22.4-6.7C34.2,11.3,27.8,8.4,25.4,8.4 M44.7,9.9c-0.1,0-0.3,0-0.5,0.1
		c-0.1,0-7.7,1.9-15.4,3.8c-2.4,0.6-4.5,1.1-6.7,1.7c-1.6,0.4-2.6,0.7-3.9,1c-2,0.5-3.7,0.9-4.5,1.2c-0.3,0.1-0.5,0.2-0.8,0.2
		c0,0-0.1,0-0.1,0.1c-0.7,0.3-1.4,0.6-2,0.9c-3.2,1.9-5.2,4.9-5.7,6.9c0.2,0,0.4,0,0.6,0c1,0,2.4-0.3,3.2-0.9c0.5-0.4,1-0.6,1.6-0.6
		c0.6,0,1.2,0.2,1.6,0.6c0.8,0.6,2.2,0.9,3.2,0.9s2.3-0.3,3.1-0.9c0.5-0.4,1-0.6,1.6-0.6c0.6,0,1.1,0.2,1.6,0.6
		c0.8,0.6,2.2,0.9,3.2,0.9c1,0,2.4-0.3,3.2-0.9c0.5-0.4,1-0.6,1.6-0.6c0.6,0,1.2,0.2,1.6,0.6c0.8,0.6,2.2,0.9,3.1,0.9
		c1,0,2.4-0.3,3.2-0.9c0.4-0.3,0.9-0.5,1.4-0.5c2.2-2.8,4-6.2,5.6-9.2c0.5-0.9,1-1.8,1.5-2.6c0.5-1,0.3-1.6,0.1-1.9
		C45.8,10.2,45.3,9.9,44.7,9.9z M29.1,18.2c0.8,0,1.5,0.6,1.7,1.4c0.2,0.9-0.4,1.8-1.3,2c-0.9,0.2-1.9-0.4-2-1.3
		c-0.2-0.9,0.4-1.8,1.3-2C28.8,18.2,29,18.2,29.1,18.2z M23.9,19.1c0.8,0,1.5,0.6,1.7,1.4c0.2,0.9-0.4,1.8-1.3,2
		c-0.9,0.2-1.9-0.4-2-1.3c-0.2-0.9,0.4-1.8,1.3-2C23.7,19.1,23.8,19.1,23.9,19.1z M18.7,19.9c0.8,0,1.5,0.6,1.7,1.4
		c0.2,0.9-0.4,1.8-1.3,2c-0.9,0.2-1.9-0.4-2-1.3c-0.2-0.9,0.4-1.8,1.3-2C18.5,19.9,18.6,19.9,18.7,19.9z M10.5,26.1
		c-0.2,0-0.4,0.1-0.5,0.2c-1.2,0.9-3,1.3-4.2,1.3c-0.5,0-0.9,0-1.5-0.1c-0.5-0.1-0.9,0.3-1,0.7c-0.1,0.5,0.3,0.9,0.7,1
		c0.6,0.1,1.2,0.1,1.7,0.1c0.8,0,1.8-0.1,2.9-0.4c0.2-0.1,0.5-0.1,0.7-0.2c0.1,0,0.2-0.1,0.3-0.1c0,0,0.1,0,0.1-0.1
		c0.2-0.1,0.3-0.2,0.5-0.3c0.1-0.1,0.2-0.1,0.3-0.2c0.2,0.1,0.3,0.2,0.5,0.3c0,0,0.1,0,0.1,0.1c0.1,0.1,0.3,0.1,0.5,0.2
		c1.3,0.5,2.7,0.8,3.7,0.8c0.7,0,1.5-0.1,2.3-0.3h0.1c0.2,0,0.4-0.1,0.5-0.2c0,0,0,0,0.1,0c0.2-0.1,0.4-0.1,0.6-0.2c0,0,0,0,0,0
		c0.4-0.2,0.8-0.3,1.2-0.6c0.1,0.1,0.2,0.1,0.3,0.1c0.3,0.2,0.6,0.3,0.9,0.5c0,0,0.1,0,0.1,0c0.2,0.1,0.4,0.1,0.5,0.2
		c0,0,0.1,0,0.1,0c0.1,0,0.3,0.1,0.4,0.1c0.1,0,0.2,0.1,0.2,0.1h0.1c0.7,0.2,1.5,0.2,2.1,0.2c0.5,0,1.2-0.1,1.8-0.2h0.1
		c0.5-0.1,0.9-0.2,1.4-0.4c0,0,0.1,0,0.1,0c0.1,0,0.1-0.1,0.2-0.1c0.4-0.2,0.8-0.4,1.2-0.6c0.5,0.3,1.1,0.6,1.6,0.8c0,0,0,0,0,0
		c0,0,0,0,0,0c0,0,0.1,0,0.1,0.1c0.1,0,0.3,0.1,0.4,0.1c0.4,0.1,0.8,0.2,1.1,0.2c0.5,0.1,1,0.1,1.4,0.1c1.4,0,3.3-0.4,4.8-1.3
		c1.5,0.9,3.4,1.3,4.8,1.3c0.7,0,1.3-0.1,1.9-0.3c0.4-0.2,0.7-0.7,0.5-1.1c-0.2-0.4-0.7-0.7-1.1-0.5c-0.4,0.1-0.8,0.2-1.3,0.2
		c-1.2,0-3-0.3-4.2-1.3c-0.3-0.2-0.7-0.2-1,0c-0.8,0.6-1.8,1-2.7,1.1c-0.2,0-0.5,0.1-0.7,0.1c-0.3,0-0.6,0.1-0.9,0.1
		c-1,0-2.6-0.3-3.7-1c-0.2-0.1-0.3-0.2-0.5-0.3c-0.2-0.2-0.5-0.2-0.8-0.1c-0.1,0-0.2,0.1-0.3,0.1c-1.2,0.9-3,1.3-4.2,1.3
		c-1,0-2.6-0.3-3.8-1c-0.2-0.1-0.3-0.2-0.5-0.3c-0.2-0.2-0.5-0.2-0.8-0.1c-0.1,0-0.2,0.1-0.2,0.1c-1.2,0.9-3,1.3-4.2,1.3
		c-1,0-2.6-0.3-3.8-1c-0.2-0.1-0.3-0.2-0.5-0.3C10.8,26.2,10.6,26.1,10.5,26.1z M10.5,29.6c-0.2,0-0.4,0.1-0.5,0.2
		c-1.2,0.9-3,1.3-4.2,1.3c-0.5,0-0.9,0-1.5-0.1c-0.5-0.1-0.9,0.3-1,0.7c-0.1,0.5,0.3,0.9,0.7,1c0.6,0.1,1.2,0.1,1.7,0.1
		c1.4,0,3.3-0.4,4.8-1.3c1.5,0.9,3.4,1.3,4.8,1.3c1.4,0,3.3-0.4,4.8-1.3c1.5,0.9,3.4,1.3,4.8,1.3c1.4,0,3.3-0.4,4.8-1.3
		c1.5,0.9,3.4,1.3,4.8,1.3c1.4,0,3.3-0.4,4.8-1.3c1.5,0.9,3.4,1.3,4.8,1.3c0.7,0,1.3-0.1,1.9-0.3c0.4-0.2,0.7-0.7,0.5-1.1
		c-0.2-0.4-0.7-0.7-1.1-0.5C44.7,31,44.3,31,43.8,31c-1.2,0-3-0.3-4.2-1.3c-0.3-0.2-0.7-0.2-1,0c-1.2,0.9-3,1.3-4.2,1.3
		c-1.2,0-3-0.3-4.2-1.3c-0.3-0.2-0.8-0.2-1.1,0c-1.2,0.9-3,1.3-4.2,1.3c-1.2,0-3-0.3-4.2-1.3c-0.3-0.2-0.7-0.2-1,0
		c-1.2,0.9-3,1.3-4.2,1.3s-3-0.3-4.2-1.3C10.8,29.6,10.6,29.6,10.5,29.6z M33,12.1l-13.2,2.7L18.5,11l7.7-1.4L33,12.1z"/>
</g>
<g id="Layer_5" class="st0">
	<path class="st5" d="M34.2,12.7c-0.1,0-0.2,0-0.2,0.1c0,0-1.8,0.6-3.3,1.9c-0.3,0.2-0.5,0.5-0.4,0.9c0,0.4,0.3,0.7,0.6,0.8
		c0.3,0.1,0.7,0,1-0.2c0.8-0.7,1.4-0.9,2-1.1c0.1,0.4,0.3,1.2,0.7,2.2c-0.1,0-0.1,0-0.2,0c-7.7,0-6.4,3.7-7.5,3.7
		c-2.7,0-3.7,0.1-4.2-0.7c-0.7-1.2-0.1-1.7-3.1-1.7c-4.2,0-4.7,1.3-4.7,1.3s0.1,1.1,1.5,1.1c5.3,0,7,0.9,8.5,2
		c0.2,0.2,0.4,0.4,0.7,0.6l-1.3,0.7c-1-1.2-2.4-2-4.1-2c-2.9,0-5.3,2.3-5.3,5.3c0,2.9,2.3,5.3,5.3,5.3c2.6,0,4.7-1.8,5.2-4.2h2
		c1.7,1.5,7.2,0.9,7.1-0.4c-0.2-2.9,0.7-5.5,1.5-7c0.4,0.8,0.8,1.7,1.3,2.6c-0.5,0.5-0.9,1.1-1.2,1.8c-0.4,1-0.5,2.4,0.1,2.4
		c0.5,0,0.5-0.5,1-1.3c-0.1,0.4-0.3,0.9-0.3,1.4c0,2.6,2.1,4.7,4.7,4.7c2.6,0,4.7-2.1,4.7-4.7c0-1.6-0.8-3-2-3.8c0.3,0,0.5,0,0.8,0
		c0.4,0-0.4-2.2-4.2-2.2c-0.8,0-1.5,0.2-2.1,0.5c-0.5-1-1-2-1.4-2.9c0.6,0,1.6-0.1,1.5-1c0-0.7-0.5-2.3-0.8-2.9c-0.4-1-1.2-1-1.2-1
		h-1.4c-0.2-0.7-0.4-1.3-0.4-1.3C35,13,34.6,12.7,34.2,12.7 M20.2,24.5c0.8,0,1.5,0.3,2,0.8l-2.3,1.3c-0.1,0-0.1,0.1-0.2,0.1
		c-0.1,0-0.2,0.1-0.2,0.2c-0.1,0-0.1,0.1-0.2,0.1v0l0,0c0,0.1-0.1,0.1-0.1,0.2c-0.1,0.3,0,0.7,0.2,1h0c0,0,0,0.1,0,0.1h0l0,0h0
		c0,0,0,0.1,0,0.1h0c0,0,0.1,0,0.2,0h0c0,0,0.1,0,0.2,0h0h0.1h0.1h2.8c-0.4,1.2-1.5,2.1-2.9,2.1c-1.7,0-3.1-1.3-3.1-3.1
		C17.1,25.9,18.5,24.5,20.2,24.5 M26.4,25.2c0.2,0.5,0.4,1,0.5,1.5h-1.6c0-0.3-0.1-0.5-0.2-0.8L26.4,25.2z M41.6,25.5
		c1.5,0,2.7,1.2,2.7,2.7c0,1.5-1.2,2.7-2.7,2.7c-1.5,0-2.7-1.2-2.7-2.7c0-0.5,0.1-0.9,0.3-1.3c0.5,0.7,1.1,1.3,1.6,2
		c0.3,0.4,0.9,0.4,1.3,0.1c0.4-0.3,0.4-0.9,0.1-1.3c-0.6-0.6-1.1-1.2-1.6-1.9C41,25.6,41.3,25.5,41.6,25.5"/>
</g>
<g id="Layer_6" class="st0">
	<path class="st5" d="M39.5,22.1c-2.9,0-5.3,2.4-5.3,5.3c0,3,2.4,5.3,5.3,5.3c3,0,5.3-2.4,5.3-5.3C44.8,24.5,42.4,22.1,39.5,22.1
		 M39.5,28.9c-0.8,0-1.5-0.7-1.5-1.5c0-0.8,0.7-1.5,1.5-1.5c0.8,0,1.5,0.7,1.5,1.5C40.9,28.2,40.3,28.9,39.5,28.9 M44.3,11.4h-3.9V9
		c0-0.9,0.3-1.7,0.8-2.4c0.3-0.4,0.2-0.9-0.1-1.2L39.9,4c-0.4-0.5-1.1-0.4-1.5,0c-1.1,1.4-1.8,3.1-1.8,5v2.4h-6.2l-3.4-7.9
		c-0.5-1.1-1.5-1.8-2.7-1.8h-8.1c-1.6,0-2.9,1.3-2.9,2.9v8.9c-0.5-0.4-1.3-0.4-1.8,0.1l-1.9,1.9c-0.5,0.5-0.5,1.4,0,1.9l0.3,0.3
		c-0.3,0.6-0.5,1.1-0.7,1.7H8.8c-0.7,0-1.3,0.6-1.3,1.3v2.7c0,0.7,0.6,1.3,1.3,1.3h0.4c0.2,0.6,0.4,1.2,0.7,1.7l-0.3,0.3
		c-0.5,0.5-0.5,1.4,0,1.9l1.9,1.9c0.5,0.5,1.4,0.5,1.9,0l0.3-0.3c0.6,0.3,1.1,0.5,1.7,0.7v0.4c0,0.7,0.6,1.3,1.3,1.3h2.7
		c0.7,0,1.3-0.6,1.3-1.3V31c0.6-0.2,1.2-0.4,1.7-0.7l0.3,0.3c0.5,0.5,1.4,0.5,1.9,0l1.9-1.9c0.5-0.5,0.5-1.4,0-1.9l-0.3-0.3
		c0.3-0.6,0.5-1.1,0.7-1.7h0.4c0.7,0,1.3-0.6,1.3-1.3v-0.4h4.9c1.3-1.8,3.4-2.9,5.8-2.9c1.1,0,2.2,0.3,3.1,0.7l3.1-3.1
		c0.4-0.4,0.6-0.9,0.6-1.4v-3.1C46.3,12.3,45.4,11.4,44.3,11.4 M18.1,26.9c-2.7,0-4.9-2.2-4.9-4.9c0-2.7,2.2-4.9,4.9-4.9
		c2.7,0,4.9,2.2,4.9,4.9C23,24.8,20.8,26.9,18.1,26.9 M19.4,11.4h-2.3V5.6h6.5l2.5,5.8H19.4z"/>
</g>
<g id="Layer_9" class="st0">
	<path class="st3" d="M42.8,27.1c0,3.2-2.6,5.7-5.7,5.7s-5.7-2.6-5.7-5.7c0,0,0,0,0,0l-8,0v0c0,3.2-2.6,5.7-5.7,5.7
		c-3.2,0-5.7-2.6-5.7-5.7c0,0,0,0,0,0h-0.8c-0.8,0-1.5-0.7-1.5-1.5V9.1c0-0.8,0.7-1.5,1.5-1.5l21.1,0c0.1,0,0.2,0,0.3,0
		c0.1,0,0.2,0,0.4,0l5.4,0c2.6,0,8,6.5,8,10.8v6.2c0,1.3-1.2,2.4-2.6,2.4L42.8,27.1L42.8,27.1 M33.7,27.1c0,1.9,1.5,3.4,3.4,3.4
		c1.9,0,3.4-1.5,3.4-3.4c0-1.9-1.5-3.4-3.4-3.4C35.2,23.6,33.7,25.2,33.7,27.1 M14.3,27.1c0,1.9,1.5,3.4,3.4,3.4
		c1.9,0,3.4-1.5,3.4-3.4c0-1.9-1.5-3.4-3.4-3.4C15.8,23.6,14.3,25.2,14.3,27.1 M40.1,17.3c0.2,0.4,0.6,0.6,1,0.6h1.7
		c0.7,0,1.2-0.5,1.1-1.2c-0.1-1.3-1-2.8-1.8-4c-0.5-0.6-1-1.2-1.4-1.7c-0.5-0.4-1-0.9-1.6-1.1C39,10,38.8,9.9,38.6,9.9l-1.4,0
		c-0.6,0-1.1,0.5-1.1,1.1v2.9c0,0.6,0.4,1,1,1.1C38.5,15.3,39.5,16.1,40.1,17.3"/>
</g>
<g id="Layer_8" class="st0">
	<path class="st5" d="M45.2,22.2h-3.2V11.7c0-5.8-4.7-10.5-10.5-10.5H8.3C6,1.1,4.1,3,4.1,5.4v16.9c0,2.3,1.9,4.2,4.2,4.2h2.1
		c0,3.5,2.8,6.3,6.3,6.3c3.5,0,6.3-2.8,6.3-6.3h22.1c0.6,0,1.1-0.5,1.1-1.1v-2.1C46.3,22.7,45.8,22.2,45.2,22.2 M16.8,29.6
		c-1.7,0-3.2-1.4-3.2-3.2c0-1.7,1.4-3.2,3.2-3.2c1.7,0,3.2,1.4,3.2,3.2C19.9,28.2,18.5,29.6,16.8,29.6z M21,13.8
		c0,1.2-0.9,2.1-2.1,2.1h-8.4c-1.2,0-2.1-0.9-2.1-2.1V9.6c0-1.2,0.9-2.1,2.1-2.1h8.4C20,7.5,21,8.4,21,9.6V13.8z M33.6,15.9h-8.4
		V9.6c0-1.2,0.9-2.1,2.1-2.1h4.2c1.2,0,2.1,0.9,2.1,2.1V15.9z"/>
</g>
<g id="Layer_12" class="st0">
	<g class="st1">
		<path class="st4" d="M40.7,9.5c1.2,0,1.9-1.2,1.6-2.2C42.2,7,42.1,6.7,42,6.4l-1.8-2.7c-0.2-0.2-0.3-0.4-0.4-0.6l-0.1-0.1
			l-0.5-0.5c-1.1-0.9-2.5-1.4-3.9-1.4H10.5C7.2,1.1,4.7,3.7,4.7,7v12.5v0.8v5.8c0,1.4,1.1,2.5,2.5,2.5h3.4c0.4,2.3,2.4,4.2,4.9,4.2
			c2.5,0,4.5-1.8,4.9-4.2h6c1.3,0,2.3-1.1,2.3-2.3v-6h0.1v-6.7c0-2.2,1.9-4.2,4.2-4.2 M15.5,31.1c-1.8,0-3.3-1.5-3.3-3.3
			c0-1.8,1.5-3.3,3.3-3.3c1.8,0,3.3,1.5,3.3,3.3C18.8,29.6,17.3,31.1,15.5,31.1 M9.7,6.1c0-0.5,0.3-0.8,0.8-0.8H23
			c0.5,0,0.8,0.3,0.8,0.8v8.3c0,0.5-0.3,0.8-0.8,0.8H10.5c-0.5,0-0.8-0.3-0.8-0.8V6.1z M29.6,7c-0.5,0-0.8-0.3-0.8-0.8
			c0-0.5,0.3-0.8,0.8-0.8h6.7c0.5,0,0.8,0.3,0.8,0.8c0,0.5-0.3,0.8-0.8,0.8H29.6z"/>
		<path class="st4" d="M46.2,18.6c0-0.1,0-0.2,0-0.3c0-0.2-0.1-0.4-0.1-0.6c0,0,0-0.1,0-0.1c-0.1-0.2-0.1-0.3-0.2-0.5
			c-0.4-0.9-0.8-1.6-0.9-1.7v0l-2.2-2.9h0v0c-0.8-1-2-1.3-3.1-1.3H33c-1.3,0-2.5,1.2-2.5,2.5v12.5c0,1,0.6,1.9,1.5,2.3
			c0.3,0.1,0.6,0.2,1,0.2H33c0.4,2.3,2.4,4.2,4.9,4.2c2.5,0,4.5-1.8,4.9-4.2h0.9c0.2,0,0.3,0,0.5-0.1c1.1-0.2,2-1.3,2-2.4L46.2,18.6
			 M37.9,31.1c-1.8,0-3.3-1.5-3.3-3.3c0-1.8,1.5-3.3,3.3-3.3c1.8,0,3.3,1.5,3.3,3.3C41.3,29.6,39.8,31.1,37.9,31.1 M36.3,18.6
			c-0.5,0-0.8-0.3-0.8-0.8v-5h4.2c1,0,1.3,0,1.8,0.7c0,0,0,0,0,0l1.1,1.5l1,1.4c0.3,0.3,0.8,1.4,1,2.3H36.3z"/>
	</g>
</g>
<g id="Layer_10" class="st0">
	<path class="st3" d="M39.7,32.8c-2.3,0-4.2-1.6-4.6-3.8h-7.7c-0.4,2.1-2.3,3.8-4.6,3.8c-2.3,0-4.2-1.6-4.6-3.8h-0.1
		c-1,0-1.9-0.8-1.9-1.9c0-7.5,0-15,11.3-15c3.8,0,7.7,1.8,10.3,6.6c4.8,0.9,8.5,4.7,8.5,8.4c0,1-0.8,1.9-1.9,1.9h-0.1
		C43.9,31.2,42,32.8,39.7,32.8 M39.7,30.9c1.6,0,2.8-1.3,2.8-2.8c0-1.6-1.3-2.8-2.8-2.8c-1.6,0-2.8,1.3-2.8,2.8
		C36.9,29.6,38.2,30.9,39.7,30.9 M22.8,30.9c1.6,0,2.8-1.3,2.8-2.8c0-1.6-1.3-2.8-2.8-2.8c-1.6,0-2.8,1.3-2.8,2.8
		C20,29.6,21.3,30.9,22.8,30.9 M34.1,19.6c0.9,0,1.1-1,0.6-1.6c-0.4-0.7-1.7-2.2-3-2.9c-1.2-0.6-2.5-1-4.1-1.1v5.6H34.1z M20.9,19.6
		h4.7V14c-1.6,0.2-2.8,0.6-3.7,1.2c-1.2,0.8-1.8,2.1-1.9,3.5C19.9,19.3,20.4,19.6,20.9,19.6"/>
</g>
<g id="Layer_11">
</g>
</svg>
