<?xml version="1.0" encoding="utf-8"?>
<!-- Generator: Adobe Illustrator 24.1.0, SVG Export Plug-In . SVG Version: 6.00 Build 0)  -->
<svg version="1.1" xmlns="http://www.w3.org/2000/svg" xmlns:xlink="http://www.w3.org/1999/xlink" x="0px" y="0px"
	 viewBox="0 0 44.5 25.7" style="enable-background:new 0 0 44.5 25.7;" xml:space="preserve">
<style type="text/css">
	.st0{display:none;}
	.st1{display:inline;}
	.st2{fill-rule:evenodd;clip-rule:evenodd;fill:#af006e;}
	.st3{display:inline;fill-rule:evenodd;clip-rule:evenodd;fill:#af006e;}
	.st4{display:inline;fill:#af006e;}
	.st5{fill:#af006e;}
</style>
<g id="Layer_1" class="st0">
	<g class="st1">
		<path class="st2" d="M29.3,18c0,4-3.2,7.2-7.2,7.2c-3.1,0-5.8-2-6.8-4.8H8.1c-1,2.8-3.7,4.8-6.8,4.8c-3.1,0-5.8-2-6.8-4.8h-0.1
			c-1.1,0-1.9-0.9-1.9-2l0-4.4c0-4.6,4.2-7.7,11.2-8v-9.4c0-1.9,1.5-3.4,3.4-3.4l7,0c3.4,0,10.4,9.1,10.4,15.1l0,1.3l0,1.6
			C27.3,12.2,29.3,14.8,29.3,18 M18.1,18c0,2.2,1.8,4,4,4c2.2,0,4-1.8,4-4c0-2.2-1.8-4-4-4C19.9,14,18.1,15.8,18.1,18 M-2.7,18
			c0,2.2,1.8,4,4,4c2.2,0,4-1.8,4-4c0-2.2-1.8-4-4-4C-0.9,14-2.7,15.8-2.7,18 M13.9,5.4C14.2,5.8,14.7,6,15.2,6h2.9
			c0.9,0,1.7-0.8,1.6-1.7c-0.2-2.7-2.2-6.1-4.5-7.7c-0.3-0.2-0.6-0.3-0.9-0.3H8.5c-0.9,0-1.6,0.7-1.6,1.6v3.2c0,0.8,0.6,1.5,1.4,1.6
			C11.1,3.1,12.9,4,13.9,5.4"/>
		<path class="st2" d="M42.8,18.8c0.8-0.5,1.1-1.6,0.5-2.3L35.2,5c-0.7-1-2.2-0.9-2.7,0.2c-1.8,3.8-2.4,9.4,0.1,13
			C34.2,20.7,38.6,21.2,42.8,18.8"/>
		<path class="st2" d="M35.2,15.1c0.6-0.6,0.6-1.6,0-2.3l-6.4-6.4c-0.6-0.6-1.6-0.6-2.3,0l-3.2,3.2c-0.6,0.6-0.6,1.6,0,2.3
			c0.6,0.6,1.6,0.6,2.3,0l2.1-2.1l5.3,5.3C33.6,15.7,34.6,15.7,35.2,15.1"/>
	</g>
</g>
<g id="Layer_2" class="st0">
	<path class="st3" d="M8.7,3.6V16c0,1,0.8,1.9,1.9,1.9h1.1c0,0,0,0,0,0c0,4,3.3,7.3,7.3,7.3s7.3-3.3,7.3-7.3c0,0,0,0,0,0l6.7,0l0,0
		h1.3c0.1,0,0.2,0,0.2,0v0h8.5c0.4,0,0.8-0.4,0.8-0.8c0-0.4-0.4-0.8-0.8-0.8l-6.7,0c0-0.1,0-0.2,0-0.3V3.6c0-1-0.8-1.8-1.7-1.9v0
		l-23.9,0C9.5,1.7,8.7,2.6,8.7,3.6z M30.7,6.1c0-0.8,0.7-1.5,1.5-1.5c0.8,0,1.5,0.7,1.5,1.5v4.4c0,0.8-0.7,1.5-1.5,1.5
		c-0.8,0-1.5-0.7-1.5-1.5V6.1z M24.8,6.1c0-0.8,0.7-1.5,1.5-1.5c0.8,0,1.5,0.7,1.5,1.5v4.4c0,0.8-0.7,1.5-1.5,1.5
		c-0.8,0-1.5-0.7-1.5-1.5V6.1z M21.9,10.5c0,0.8-0.7,1.5-1.5,1.5c-0.8,0-1.5-0.7-1.5-1.5V6.1c0-0.8,0.7-1.5,1.5-1.5
		c0.8,0,1.5,0.7,1.5,1.5V10.5z M14.6,17.8c0-2.4,2-4.4,4.4-4.4s4.4,2,4.4,4.4c0,2.4-2,4.4-4.4,4.4S14.6,20.3,14.6,17.8z M13.1,6.1
		c0-0.8,0.7-1.5,1.5-1.5c0.8,0,1.5,0.7,1.5,1.5v4.4c0,0.8-0.7,1.5-1.5,1.5c-0.8,0-1.5-0.7-1.5-1.5V6.1z"/>
</g>
<g id="Layer_3" class="st0">
	<path class="st4" d="M42.3,7.9l-4.2-4.2c-0.9-0.9-2-1.3-3.2-1.3h-2.7v-6.8c0-1.3-1-2.3-2.3-2.3H0.4c-1.3,0-2.3,1-2.3,2.3v23.9
		c0,3.1,2.5,5.7,5.7,5.7c1.9,0,3.5-0.9,4.6-2.3c1,1.4,2.7,2.3,4.6,2.3c3.1,0,5.7-2.5,5.7-5.7c0-0.4,0-0.8-0.1-1.1h11.6
		C30,18.7,30,19.1,30,19.5c0,3.1,2.5,5.7,5.7,5.7c3.1,0,5.7-2.5,5.7-5.7c0-0.4,0-0.8-0.1-1.1h1.3c0.6,0,1.1-0.5,1.1-1.1v-6.1
		C43.7,9.9,43.2,8.8,42.3,7.9 M3.8,21.8c-1.3,0-2.3-1-2.3-2.3c0-1.3,1-2.3,2.3-2.3c1.3,0,2.3,1,2.3,2.3C6.1,20.7,5.1,21.8,3.8,21.8
		 M12.9,21.8c-1.3,0-2.3-1-2.3-2.3c0-1.3,1-2.3,2.3-2.3c1.3,0,2.3,1,2.3,2.3C15.2,20.7,14.2,21.8,12.9,21.8 M32.3,5.8H35
		c0.3,0,0.6,0.1,0.8,0.3l3.1,3.1h-6.6V5.8z M35.7,21.8c-1.3,0-2.3-1-2.3-2.3c0-1.3,1-2.3,2.3-2.3c1.3,0,2.3,1,2.3,2.3
		C38,20.7,37,21.8,35.7,21.8"/>
</g>
<g id="Layer_4">
	<path class="st5" d="M22.8,0.8c-0.3,0-0.5,0-0.8,0.1c-0.4,0.1-1,0.1-1.6,0.2c-8.1,1.1-9,2.3-9.4,2.8c-0.5,0.7-2.3,4.6-2.9,7.4
		c0.7-0.3,3.3,0.2,4,0c2.9-0.8,14.4-4.7,22.4-6.7C31.6,3.7,25.2,0.8,22.8,0.8 M42.1,2.3c-0.1,0-0.3,0-0.5,0.1
		c-0.1,0-7.7,1.9-15.4,3.8c-2.4,0.6-4.5,1.1-6.7,1.7c-1.6,0.4-2.6,0.7-3.9,1c-2,0.5-3.7,0.9-4.5,1.2c-0.3,0.1-0.5,0.2-0.8,0.2
		c0,0-0.1,0-0.1,0.1c-0.7,0.3-1.4,0.6-2,0.9c-3.2,1.9-5.2,4.9-5.7,6.9c0.2,0,0.4,0,0.6,0c1,0,2.4-0.3,3.2-0.9c0.5-0.4,1-0.6,1.6-0.6
		c0.6,0,1.2,0.2,1.6,0.6c0.8,0.6,2.2,0.9,3.2,0.9s2.3-0.3,3.1-0.9c0.5-0.4,1-0.6,1.6-0.6c0.6,0,1.1,0.2,1.6,0.6
		c0.8,0.6,2.2,0.9,3.2,0.9c1,0,2.4-0.3,3.2-0.9c0.5-0.4,1-0.6,1.6-0.6c0.6,0,1.2,0.2,1.6,0.6c0.8,0.6,2.2,0.9,3.1,0.9
		c1,0,2.4-0.3,3.2-0.9c0.4-0.3,0.9-0.5,1.4-0.5c2.2-2.8,4-6.2,5.6-9.2c0.5-0.9,1-1.8,1.5-2.6c0.5-1,0.3-1.6,0.1-1.9
		C43.2,2.6,42.7,2.3,42.1,2.3z M26.5,10.6c0.8,0,1.5,0.6,1.7,1.4c0.2,0.9-0.4,1.8-1.3,2c-0.9,0.2-1.9-0.4-2-1.3
		c-0.2-0.9,0.4-1.8,1.3-2C26.2,10.6,26.3,10.6,26.5,10.6z M21.3,11.5c0.8,0,1.5,0.6,1.7,1.4c0.2,0.9-0.4,1.8-1.3,2
		c-0.9,0.2-1.9-0.4-2-1.3c-0.2-0.9,0.4-1.8,1.3-2C21.1,11.5,21.2,11.5,21.3,11.5z M16.1,12.3c0.8,0,1.5,0.6,1.7,1.4
		c0.2,0.9-0.4,1.8-1.3,2c-0.9,0.2-1.9-0.4-2-1.3c-0.2-0.9,0.4-1.8,1.3-2C15.9,12.3,16,12.3,16.1,12.3z M7.9,18.5
		c-0.2,0-0.4,0.1-0.5,0.2c-1.2,0.9-3,1.3-4.2,1.3c-0.5,0-0.9,0-1.5-0.1c-0.5-0.1-0.9,0.3-1,0.7c-0.1,0.5,0.3,0.9,0.7,1
		c0.6,0.1,1.2,0.1,1.7,0.1c0.8,0,1.8-0.1,2.9-0.4c0.2-0.1,0.5-0.1,0.7-0.2c0.1,0,0.2-0.1,0.3-0.1c0,0,0.1,0,0.1-0.1
		c0.2-0.1,0.3-0.2,0.5-0.3c0.1-0.1,0.2-0.1,0.3-0.2c0.2,0.1,0.3,0.2,0.5,0.3c0,0,0.1,0,0.1,0.1c0.1,0.1,0.3,0.1,0.5,0.2
		c1.3,0.5,2.7,0.8,3.7,0.8c0.7,0,1.5-0.1,2.3-0.3h0.1c0.2,0,0.4-0.1,0.5-0.2c0,0,0,0,0.1,0c0.2-0.1,0.4-0.1,0.6-0.2c0,0,0,0,0,0
		c0.4-0.2,0.8-0.3,1.2-0.6c0.1,0.1,0.2,0.1,0.3,0.1c0.3,0.2,0.6,0.3,0.9,0.5c0,0,0.1,0,0.1,0c0.2,0.1,0.4,0.1,0.5,0.2
		c0,0,0.1,0,0.1,0c0.1,0,0.3,0.1,0.4,0.1c0.1,0,0.2,0.1,0.2,0.1h0.1c0.7,0.2,1.5,0.2,2.1,0.2c0.5,0,1.2-0.1,1.8-0.2H24
		c0.5-0.1,0.9-0.2,1.4-0.4c0,0,0.1,0,0.1,0c0.1,0,0.1-0.1,0.2-0.1c0.4-0.2,0.8-0.4,1.2-0.6c0.5,0.3,1.1,0.6,1.6,0.8c0,0,0,0,0,0
		c0,0,0,0,0,0c0,0,0.1,0,0.1,0.1c0.1,0,0.3,0.1,0.4,0.1c0.4,0.1,0.8,0.2,1.1,0.2c0.5,0.1,1,0.1,1.4,0.1c1.4,0,3.3-0.4,4.8-1.3
		c1.5,0.9,3.4,1.3,4.8,1.3c0.7,0,1.3-0.1,1.9-0.3c0.4-0.2,0.7-0.7,0.5-1.1c-0.2-0.4-0.7-0.7-1.1-0.5c-0.4,0.1-0.8,0.2-1.3,0.2
		c-1.2,0-3-0.3-4.2-1.3c-0.3-0.2-0.7-0.2-1,0c-0.8,0.6-1.8,1-2.7,1.1c-0.2,0-0.5,0.1-0.7,0.1c-0.3,0-0.6,0.1-0.9,0.1
		c-1,0-2.6-0.3-3.7-1c-0.2-0.1-0.3-0.2-0.5-0.3c-0.2-0.2-0.5-0.2-0.8-0.1c-0.1,0-0.2,0.1-0.3,0.1c-1.2,0.9-3,1.3-4.2,1.3
		c-1,0-2.6-0.3-3.8-1c-0.2-0.1-0.3-0.2-0.5-0.3c-0.2-0.2-0.5-0.2-0.8-0.1c-0.1,0-0.2,0.1-0.2,0.1c-1.2,0.9-3,1.3-4.2,1.3
		c-1,0-2.6-0.3-3.8-1c-0.2-0.1-0.3-0.2-0.5-0.3C8.2,18.6,8,18.5,7.9,18.5z M7.9,22c-0.2,0-0.4,0.1-0.5,0.2c-1.2,0.9-3,1.3-4.2,1.3
		c-0.5,0-0.9,0-1.5-0.1c-0.5-0.1-0.9,0.3-1,0.7c-0.1,0.5,0.3,0.9,0.7,1c0.6,0.1,1.2,0.1,1.7,0.1c1.4,0,3.3-0.4,4.8-1.3
		c1.5,0.9,3.4,1.3,4.8,1.3c1.4,0,3.3-0.4,4.8-1.3c1.5,0.9,3.4,1.3,4.8,1.3c1.4,0,3.3-0.4,4.8-1.3c1.5,0.9,3.4,1.3,4.8,1.3
		c1.4,0,3.3-0.4,4.8-1.3c1.5,0.9,3.4,1.3,4.8,1.3c0.7,0,1.3-0.1,1.9-0.3c0.4-0.2,0.7-0.7,0.5-1.1c-0.2-0.4-0.7-0.7-1.1-0.5
		c-0.4,0.1-0.8,0.2-1.3,0.2c-1.2,0-3-0.3-4.2-1.3c-0.3-0.2-0.7-0.2-1,0c-1.2,0.9-3,1.3-4.2,1.3c-1.2,0-3-0.3-4.2-1.3
		c-0.3-0.2-0.8-0.2-1.1,0c-1.2,0.9-3,1.3-4.2,1.3c-1.2,0-3-0.3-4.2-1.3c-0.3-0.2-0.7-0.2-1,0c-1.2,0.9-3,1.3-4.2,1.3s-3-0.3-4.2-1.3
		C8.2,22,8,22,7.9,22z M30.4,4.5L17.2,7.2l-1.3-3.8L23.6,2L30.4,4.5z"/>
</g>
<g id="Layer_5" class="st0">
	<path class="st4" d="M31.6,5.1c-0.1,0-0.2,0-0.2,0.1c0,0-1.8,0.6-3.3,1.9c-0.3,0.2-0.5,0.5-0.4,0.9c0,0.4,0.3,0.7,0.6,0.8
		c0.3,0.1,0.7,0,1-0.2c0.8-0.7,1.4-0.9,2-1.1c0.1,0.4,0.3,1.2,0.7,2.2c-0.1,0-0.1,0-0.2,0c-7.7,0-6.4,3.7-7.5,3.7
		c-2.7,0-3.7,0.1-4.2-0.7c-0.7-1.2-0.1-1.7-3.1-1.7c-4.2,0-4.7,1.3-4.7,1.3s0.1,1.1,1.5,1.1c5.3,0,7,0.9,8.5,2
		c0.2,0.2,0.4,0.4,0.7,0.6l-1.3,0.7c-1-1.2-2.4-2-4.1-2c-2.9,0-5.3,2.3-5.3,5.3c0,2.9,2.3,5.3,5.3,5.3c2.6,0,4.7-1.8,5.2-4.2h2
		c1.7,1.5,7.2,0.9,7.1-0.4c-0.2-2.9,0.7-5.5,1.5-7c0.4,0.8,0.8,1.7,1.3,2.6c-0.5,0.5-0.9,1.1-1.2,1.8c-0.4,1-0.5,2.4,0.1,2.4
		c0.5,0,0.5-0.5,1-1.3c-0.1,0.4-0.3,0.9-0.3,1.4c0,2.6,2.1,4.7,4.7,4.7c2.6,0,4.7-2.1,4.7-4.7c0-1.6-0.8-3-2-3.8c0.3,0,0.5,0,0.8,0
		c0.4,0-0.4-2.2-4.2-2.2c-0.8,0-1.5,0.2-2.1,0.5c-0.5-1-1-2-1.4-2.9c0.6,0,1.6-0.1,1.5-1c0-0.7-0.5-2.3-0.8-2.9c-0.4-1-1.2-1-1.2-1
		h-1.4c-0.2-0.7-0.4-1.3-0.4-1.3C32.4,5.4,32,5.1,31.6,5.1 M17.6,16.9c0.8,0,1.5,0.3,2,0.8L17.3,19c-0.1,0-0.1,0.1-0.2,0.1
		c-0.1,0-0.2,0.1-0.2,0.2c-0.1,0-0.1,0.1-0.2,0.1v0l0,0c0,0.1-0.1,0.1-0.1,0.2c-0.1,0.3,0,0.7,0.2,1h0c0,0,0,0.1,0,0.1h0l0,0h0
		c0,0,0,0.1,0,0.1h0c0,0,0.1,0,0.2,0h0c0,0,0.1,0,0.2,0h0h0.1h0.1h2.8c-0.4,1.2-1.5,2.1-2.9,2.1c-1.7,0-3.1-1.3-3.1-3.1
		C14.5,18.3,15.8,16.9,17.6,16.9 M23.8,17.6c0.2,0.5,0.4,1,0.5,1.5h-1.6c0-0.3-0.1-0.5-0.2-0.8L23.8,17.6z M39,17.9
		c1.5,0,2.7,1.2,2.7,2.7c0,1.5-1.2,2.7-2.7,2.7c-1.5,0-2.7-1.2-2.7-2.7c0-0.5,0.1-0.9,0.3-1.3c0.5,0.7,1.1,1.3,1.6,2
		c0.3,0.4,0.9,0.4,1.3,0.1C40,21,40,20.4,39.7,20c-0.6-0.6-1.1-1.2-1.6-1.9C38.4,18,38.7,17.9,39,17.9"/>
</g>
<g id="Layer_6" class="st0">
	<path class="st4" d="M36.9,14.5c-2.9,0-5.3,2.4-5.3,5.3c0,3,2.4,5.3,5.3,5.3c3,0,5.3-2.4,5.3-5.3C42.2,16.9,39.8,14.5,36.9,14.5
		 M36.9,21.3c-0.8,0-1.5-0.7-1.5-1.5c0-0.8,0.7-1.5,1.5-1.5c0.8,0,1.5,0.7,1.5,1.5C38.3,20.6,37.7,21.3,36.9,21.3 M41.7,3.8h-3.9
		V1.4c0-0.9,0.3-1.7,0.8-2.4c0.3-0.4,0.2-0.9-0.1-1.2l-1.3-1.5c-0.4-0.5-1.1-0.4-1.5,0c-1.1,1.4-1.8,3.1-1.8,5v2.4h-6.2l-3.4-7.9
		c-0.5-1.1-1.5-1.8-2.7-1.8h-8.1c-1.6,0-2.9,1.3-2.9,2.9v8.9C10.1,5.5,9.4,5.5,8.9,6L7,7.9C6.5,8.4,6.5,9.2,7,9.8l0.3,0.3
		c-0.3,0.6-0.5,1.1-0.7,1.7H6.2c-0.7,0-1.3,0.6-1.3,1.3v2.7c0,0.7,0.6,1.3,1.3,1.3h0.4c0.2,0.6,0.4,1.2,0.7,1.7L7,19.2
		c-0.5,0.5-0.5,1.4,0,1.9L8.9,23c0.5,0.5,1.4,0.5,1.9,0l0.3-0.3c0.6,0.3,1.1,0.5,1.7,0.7v0.4c0,0.7,0.6,1.3,1.3,1.3h2.7
		c0.7,0,1.3-0.6,1.3-1.3v-0.4c0.6-0.2,1.2-0.4,1.7-0.7l0.3,0.3c0.5,0.5,1.4,0.5,1.9,0l1.9-1.9c0.5-0.5,0.5-1.4,0-1.9l-0.3-0.3
		c0.3-0.6,0.5-1.1,0.7-1.7h0.4c0.7,0,1.3-0.6,1.3-1.3v-0.4h4.9c1.3-1.8,3.4-2.9,5.8-2.9c1.1,0,2.2,0.3,3.1,0.7l3.1-3.1
		c0.4-0.4,0.6-0.9,0.6-1.4V5.7C43.7,4.7,42.8,3.8,41.7,3.8 M15.5,19.3c-2.7,0-4.9-2.2-4.9-4.9c0-2.7,2.2-4.9,4.9-4.9
		c2.7,0,4.9,2.2,4.9,4.9C20.4,17.2,18.2,19.3,15.5,19.3 M16.8,3.8h-2.3V-2H21l2.5,5.8H16.8z"/>
</g>
<g id="Layer_9" class="st0">
	<path class="st3" d="M40.2,19.5c0,3.2-2.6,5.7-5.7,5.7c-3.2,0-5.7-2.6-5.7-5.7c0,0,0,0,0,0l-8,0v0c0,3.2-2.6,5.7-5.7,5.7
		c-3.2,0-5.7-2.6-5.7-5.7c0,0,0,0,0,0H8.6c-0.8,0-1.5-0.7-1.5-1.5V1.5C7.1,0.7,7.8,0,8.6,0l21.1,0c0.1,0,0.2,0,0.3,0
		c0.1,0,0.2,0,0.4,0l5.4,0c2.6,0,8,6.5,8,10.8V17c0,1.3-1.2,2.4-2.6,2.4L40.2,19.5L40.2,19.5 M31.1,19.5c0,1.9,1.5,3.4,3.4,3.4
		c1.9,0,3.4-1.5,3.4-3.4c0-1.9-1.5-3.4-3.4-3.4C32.6,16,31.1,17.6,31.1,19.5 M11.7,19.5c0,1.9,1.5,3.4,3.4,3.4
		c1.9,0,3.4-1.5,3.4-3.4c0-1.9-1.5-3.4-3.4-3.4C13.2,16,11.7,17.6,11.7,19.5 M37.5,9.7c0.2,0.4,0.6,0.6,1,0.6h1.7
		c0.7,0,1.2-0.5,1.1-1.2c-0.1-1.3-1-2.8-1.8-4c-0.5-0.6-1-1.2-1.4-1.7c-0.5-0.4-1-0.9-1.6-1.1c-0.2-0.1-0.4-0.1-0.6-0.1l-1.4,0
		c-0.6,0-1.1,0.5-1.1,1.1v2.9c0,0.6,0.4,1,1,1.1C35.9,7.7,36.8,8.5,37.5,9.7"/>
</g>
<g id="Layer_8" class="st0">
	<path class="st4" d="M42.6,14.6h-3.2V4.1c0-5.8-4.7-10.5-10.5-10.5H5.7c-2.3,0-4.2,1.9-4.2,4.2v16.9c0,2.3,1.9,4.2,4.2,4.2h2.1
		c0,3.5,2.8,6.3,6.3,6.3c3.5,0,6.3-2.8,6.3-6.3h22.1c0.6,0,1.1-0.5,1.1-1.1v-2.1C43.7,15.1,43.2,14.6,42.6,14.6 M14.1,22
		c-1.7,0-3.2-1.4-3.2-3.2c0-1.7,1.4-3.2,3.2-3.2c1.7,0,3.2,1.4,3.2,3.2C17.3,20.6,15.9,22,14.1,22z M18.4,6.2c0,1.2-0.9,2.1-2.1,2.1
		H7.8c-1.2,0-2.1-0.9-2.1-2.1V2c0-1.2,0.9-2.1,2.1-2.1h8.4c1.2,0,2.1,0.9,2.1,2.1V6.2z M31,8.3h-8.4V2c0-1.2,0.9-2.1,2.1-2.1h4.2
		C30.1-0.1,31,0.8,31,2V8.3z"/>
</g>
<g id="Layer_12" class="st0">
	<g class="st1">
		<path class="st5" d="M38.1,1.9c1.2,0,1.9-1.2,1.6-2.2c-0.1-0.3-0.1-0.6-0.3-0.9l-1.8-2.7c-0.2-0.2-0.3-0.4-0.4-0.6l-0.1-0.1
			l-0.5-0.5c-1.1-0.9-2.5-1.4-3.9-1.4H7.9c-3.2,0-5.8,2.6-5.8,5.8v12.5v0.8v5.8c0,1.4,1.1,2.5,2.5,2.5H8c0.4,2.3,2.4,4.2,4.9,4.2
			c2.5,0,4.5-1.8,4.9-4.2h6c1.3,0,2.3-1.1,2.3-2.3v-6h0.1V6c0-2.2,1.9-4.2,4.2-4.2 M12.9,23.5c-1.8,0-3.3-1.5-3.3-3.3
			c0-1.8,1.5-3.3,3.3-3.3c1.8,0,3.3,1.5,3.3,3.3C16.2,22,14.7,23.5,12.9,23.5 M7-1.5C7-2,7.4-2.3,7.9-2.3h12.5
			c0.5,0,0.8,0.3,0.8,0.8v8.3c0,0.5-0.3,0.8-0.8,0.8H7.9C7.4,7.7,7,7.4,7,6.9V-1.5z M27-0.6c-0.5,0-0.8-0.3-0.8-0.8
			c0-0.5,0.3-0.8,0.8-0.8h6.7c0.5,0,0.8,0.3,0.8,0.8c0,0.5-0.3,0.8-0.8,0.8H27z"/>
		<path class="st5" d="M43.6,11c0-0.1,0-0.2,0-0.3c0-0.2-0.1-0.4-0.1-0.6c0,0,0-0.1,0-0.1c-0.1-0.2-0.1-0.3-0.2-0.5
			c-0.4-0.9-0.8-1.6-0.9-1.7v0l-2.2-2.9h0v0c-0.8-1-2-1.3-3.1-1.3h-6.7c-1.3,0-2.5,1.2-2.5,2.5v12.5c0,1,0.6,1.9,1.5,2.3
			c0.3,0.1,0.6,0.2,1,0.2h0.1c0.4,2.3,2.4,4.2,4.9,4.2c2.5,0,4.5-1.8,4.9-4.2h0.9c0.2,0,0.3,0,0.5-0.1c1.1-0.2,2-1.3,2-2.4L43.6,11
			 M35.3,23.5c-1.8,0-3.3-1.5-3.3-3.3c0-1.8,1.5-3.3,3.3-3.3c1.8,0,3.3,1.5,3.3,3.3C38.7,22,37.2,23.5,35.3,23.5 M33.7,11
			c-0.5,0-0.8-0.3-0.8-0.8v-5H37c1,0,1.3,0,1.8,0.7c0,0,0,0,0,0l1.1,1.5l1,1.4c0.3,0.3,0.8,1.4,1,2.3H33.7z"/>
	</g>
</g>
<g id="Layer_10" class="st0">
	<path class="st3" d="M37.1,25.2c-2.3,0-4.2-1.6-4.6-3.8h-7.7c-0.4,2.1-2.3,3.8-4.6,3.8c-2.3,0-4.2-1.6-4.6-3.8h-0.1
		c-1,0-1.9-0.8-1.9-1.9c0-7.5,0-15,11.3-15c3.8,0,7.7,1.8,10.3,6.6c4.8,0.9,8.5,4.7,8.5,8.4c0,1-0.8,1.9-1.9,1.9h-0.1
		C41.3,23.6,39.4,25.2,37.1,25.2 M37.1,23.3c1.6,0,2.8-1.3,2.8-2.8c0-1.6-1.3-2.8-2.8-2.8c-1.6,0-2.8,1.3-2.8,2.8
		C34.3,22,35.5,23.3,37.1,23.3 M20.2,23.3c1.6,0,2.8-1.3,2.8-2.8c0-1.6-1.3-2.8-2.8-2.8c-1.6,0-2.8,1.3-2.8,2.8
		C17.4,22,18.7,23.3,20.2,23.3 M31.5,12c0.9,0,1.1-1,0.6-1.6c-0.4-0.7-1.7-2.2-3-2.9c-1.2-0.6-2.5-1-4.1-1.1V12H31.5z M18.3,12H23
		V6.4c-1.6,0.2-2.8,0.6-3.7,1.2c-1.2,0.8-1.8,2.1-1.9,3.5C17.3,11.7,17.8,12,18.3,12"/>
</g>
<g id="Layer_11">
</g>
</svg>
