<?xml version="1.0" encoding="utf-8"?>
<!-- Generator: Adobe Illustrator 24.1.0, SVG Export Plug-In . SVG Version: 6.00 Build 0)  -->
<svg version="1.1" xmlns="http://www.w3.org/2000/svg" xmlns:xlink="http://www.w3.org/1999/xlink" x="0px" y="0px"
	 viewBox="0 0 36.7 24.9" style="enable-background:new 0 0 36.7 24.9;" xml:space="preserve">
<style type="text/css">
	.st0{display:none;}
	.st1{display:inline;}
	.st2{fill-rule:evenodd;clip-rule:evenodd;fill:#af006e;}
	.st3{display:inline;fill:#af006e;}
	.st4{display:inline;fill-rule:evenodd;clip-rule:evenodd;fill:#af006e;}
	.st5{fill:#af006e;}
</style>
<g id="Layer_1" class="st0">
	<g class="st1">
		<path class="st2" d="M21.5,17.2c0,4-3.2,7.2-7.2,7.2c-3.1,0-5.8-2-6.8-4.8H0.3c-1,2.8-3.7,4.8-6.8,4.8c-3.1,0-5.8-2-6.8-4.8h-0.1
			c-1.1,0-1.9-0.9-1.9-2l0-4.4c0-4.6,4.2-7.7,11.2-8v-9.4c0-1.9,1.5-3.4,3.4-3.4l7,0c3.4,0,10.4,9.1,10.4,15.1l0,1.3l0,1.6
			C19.5,11.4,21.5,14.1,21.5,17.2 M10.3,17.2c0,2.2,1.8,4,4,4c2.2,0,4-1.8,4-4c0-2.2-1.8-4-4-4C12,13.2,10.3,15,10.3,17.2
			 M-10.5,17.2c0,2.2,1.8,4,4,4c2.2,0,4-1.8,4-4c0-2.2-1.8-4-4-4C-8.7,13.2-10.5,15-10.5,17.2 M6.1,4.6C6.4,5,6.9,5.2,7.4,5.2h2.9
			c0.9,0,1.7-0.8,1.6-1.7c-0.2-2.7-2.2-6.1-4.5-7.7C7-4.3,6.7-4.4,6.4-4.4H0.6C-0.2-4.4-1-3.7-1-2.8v3.2C-1,1.2-0.3,1.9,0.5,2
			C3.3,2.3,5.1,3.3,6.1,4.6"/>
		<path class="st2" d="M35,18.1c0.8-0.5,1.1-1.6,0.5-2.3L27.4,4.3c-0.7-1-2.2-0.9-2.7,0.2c-1.8,3.8-2.4,9.4,0.1,13
			C26.4,20,30.8,20.4,35,18.1"/>
		<path class="st2" d="M27.4,14.3c0.6-0.6,0.6-1.6,0-2.3L21,5.7c-0.6-0.6-1.6-0.6-2.3,0l-3.2,3.2c-0.6,0.6-0.6,1.6,0,2.3
			c0.6,0.6,1.6,0.6,2.3,0l2.1-2.1l5.3,5.3C25.8,15,26.8,15,27.4,14.3"/>
	</g>
</g>
<g id="Layer_2">
	<path class="st2" d="M0.9,2.8v12.4c0,1,0.8,1.9,1.9,1.9h1.1c0,0,0,0,0,0c0,4,3.3,7.3,7.3,7.3s7.3-3.3,7.3-7.3c0,0,0,0,0,0l6.7,0
		l0,0h1.3c0.1,0,0.2,0,0.2,0v0h8.5c0.4,0,0.8-0.4,0.8-0.8c0-0.4-0.4-0.8-0.8-0.8l-6.7,0c0-0.1,0-0.2,0-0.3V2.8c0-1-0.8-1.8-1.7-1.9
		v0L2.8,1C1.7,1,0.9,1.8,0.9,2.8z M22.9,5.3c0-0.8,0.7-1.5,1.5-1.5c0.8,0,1.5,0.7,1.5,1.5v4.4c0,0.8-0.7,1.5-1.5,1.5
		c-0.8,0-1.5-0.7-1.5-1.5V5.3z M17,5.3c0-0.8,0.7-1.5,1.5-1.5c0.8,0,1.5,0.7,1.5,1.5v4.4c0,0.8-0.7,1.5-1.5,1.5
		c-0.8,0-1.5-0.7-1.5-1.5V5.3z M14.1,9.7c0,0.8-0.7,1.5-1.5,1.5c-0.8,0-1.5-0.7-1.5-1.5V5.3c0-0.8,0.7-1.5,1.5-1.5
		c0.8,0,1.5,0.7,1.5,1.5V9.7z M6.8,17.1c0-2.4,2-4.4,4.4-4.4s4.4,2,4.4,4.4c0,2.4-2,4.4-4.4,4.4S6.8,19.5,6.8,17.1z M5.3,5.3
		c0-0.8,0.7-1.5,1.5-1.5c0.8,0,1.5,0.7,1.5,1.5v4.4c0,0.8-0.7,1.5-1.5,1.5c-0.8,0-1.5-0.7-1.5-1.5V5.3z"/>
</g>
<g id="Layer_3" class="st0">
	<path class="st3" d="M34.5,7.1L30.4,3c-0.9-0.9-2-1.3-3.2-1.3h-2.7v-6.8c0-1.3-1-2.3-2.3-2.3H-7.4c-1.3,0-2.3,1-2.3,2.3v23.9
		c0,3.1,2.5,5.7,5.7,5.7c1.9,0,3.5-0.9,4.6-2.3c1,1.4,2.7,2.3,4.6,2.3c3.1,0,5.7-2.5,5.7-5.7c0-0.4,0-0.8-0.1-1.1h11.6
		c-0.1,0.4-0.1,0.7-0.1,1.1c0,3.1,2.5,5.7,5.7,5.7c3.1,0,5.7-2.5,5.7-5.7c0-0.4,0-0.8-0.1-1.1h1.3c0.6,0,1.1-0.5,1.1-1.1v-6.1
		C35.8,9.2,35.4,8,34.5,7.1 M-4,21c-1.3,0-2.3-1-2.3-2.3c0-1.3,1-2.3,2.3-2.3c1.3,0,2.3,1,2.3,2.3C-1.7,20-2.7,21-4,21 M5.1,21
		c-1.3,0-2.3-1-2.3-2.3c0-1.3,1-2.3,2.3-2.3c1.3,0,2.3,1,2.3,2.3C7.4,20,6.4,21,5.1,21 M24.5,5.1h2.7c0.3,0,0.6,0.1,0.8,0.3L31,8.5
		h-6.6V5.1z M27.9,21c-1.3,0-2.3-1-2.3-2.3c0-1.3,1-2.3,2.3-2.3c1.3,0,2.3,1,2.3,2.3C30.2,20,29.1,21,27.9,21"/>
</g>
<g id="Layer_4" class="st0">
	<path class="st3" d="M15,0c-0.3,0-0.5,0-0.8,0.1c-0.4,0.1-1,0.1-1.6,0.2c-8.1,1.1-9,2.3-9.4,2.8C2.8,3.8,1,7.7,0.4,10.6
		c0.7-0.3,3.3,0.2,4,0c2.9-0.8,14.4-4.7,22.4-6.7C23.8,3,17.4,0,15,0 M34.2,1.6c-0.1,0-0.3,0-0.5,0.1c-0.1,0-7.7,1.9-15.4,3.8
		c-2.4,0.6-4.5,1.1-6.7,1.7c-1.6,0.4-2.6,0.7-3.9,1c-2,0.5-3.7,0.9-4.5,1.2C3,9.4,2.7,9.5,2.5,9.6c0,0-0.1,0-0.1,0.1
		c-0.7,0.3-1.4,0.6-2,0.9c-3.2,1.9-5.2,4.9-5.7,6.9c0.2,0,0.4,0,0.6,0c1,0,2.4-0.3,3.2-0.9c0.5-0.4,1-0.6,1.6-0.6
		c0.6,0,1.2,0.2,1.6,0.6c0.8,0.6,2.2,0.9,3.2,0.9s2.3-0.3,3.1-0.9C8.4,16.3,9,16,9.6,16c0.6,0,1.1,0.2,1.6,0.6
		c0.8,0.6,2.2,0.9,3.2,0.9c1,0,2.4-0.3,3.2-0.9c0.5-0.4,1-0.6,1.6-0.6c0.6,0,1.2,0.2,1.6,0.6c0.8,0.6,2.2,0.9,3.1,0.9
		c1,0,2.4-0.3,3.2-0.9c0.4-0.3,0.9-0.5,1.4-0.5c2.2-2.8,4-6.2,5.6-9.2c0.5-0.9,1-1.8,1.5-2.6c0.5-1,0.3-1.6,0.1-1.9
		C35.3,1.8,34.8,1.6,34.2,1.6z M18.6,9.8c0.8,0,1.5,0.6,1.7,1.4c0.2,0.9-0.4,1.8-1.3,2c-0.9,0.2-1.9-0.4-2-1.3
		c-0.2-0.9,0.4-1.8,1.3-2C18.4,9.8,18.5,9.8,18.6,9.8z M13.5,10.7c0.8,0,1.5,0.6,1.7,1.4c0.2,0.9-0.4,1.8-1.3,2
		c-0.9,0.2-1.9-0.4-2-1.3c-0.2-0.9,0.4-1.8,1.3-2C13.2,10.7,13.4,10.7,13.5,10.7z M8.3,11.6c0.8,0,1.5,0.6,1.7,1.4
		c0.2,0.9-0.4,1.8-1.3,2c-0.9,0.2-1.9-0.4-2-1.3c-0.2-0.9,0.4-1.8,1.3-2C8.1,11.6,8.2,11.6,8.3,11.6z M0,17.8
		c-0.2,0-0.4,0.1-0.5,0.2c-1.2,0.9-3,1.3-4.2,1.3c-0.5,0-0.9,0-1.5-0.1c-0.5-0.1-0.9,0.3-1,0.7c-0.1,0.5,0.3,0.9,0.7,1
		c0.6,0.1,1.2,0.1,1.7,0.1c0.8,0,1.8-0.1,2.9-0.4c0.2-0.1,0.5-0.1,0.7-0.2c0.1,0,0.2-0.1,0.3-0.1c0,0,0.1,0,0.1-0.1
		c0.2-0.1,0.3-0.2,0.5-0.3c0.1-0.1,0.2-0.1,0.3-0.2c0.2,0.1,0.3,0.2,0.5,0.3c0,0,0.1,0,0.1,0.1c0.1,0.1,0.3,0.1,0.5,0.2
		C2.3,20.8,3.7,21,4.8,21c0.7,0,1.5-0.1,2.3-0.3h0.1c0.2,0,0.4-0.1,0.5-0.2c0,0,0,0,0.1,0c0.2-0.1,0.4-0.1,0.6-0.2c0,0,0,0,0,0
		c0.4-0.2,0.8-0.3,1.2-0.6c0.1,0.1,0.2,0.1,0.3,0.1c0.3,0.2,0.6,0.3,0.9,0.5c0,0,0.1,0,0.1,0c0.2,0.1,0.4,0.1,0.5,0.2
		c0,0,0.1,0,0.1,0c0.1,0,0.3,0.1,0.4,0.1c0.1,0,0.2,0.1,0.2,0.1h0.1c0.7,0.2,1.5,0.2,2.1,0.2c0.5,0,1.2-0.1,1.8-0.2h0.1
		c0.5-0.1,0.9-0.2,1.4-0.4c0,0,0.1,0,0.1,0c0.1,0,0.1-0.1,0.2-0.1c0.4-0.2,0.8-0.4,1.2-0.6c0.5,0.3,1.1,0.6,1.6,0.8c0,0,0,0,0,0
		c0,0,0,0,0,0c0,0,0.1,0,0.1,0.1c0.1,0,0.3,0.1,0.4,0.1c0.4,0.1,0.8,0.2,1.1,0.2c0.5,0.1,1,0.1,1.4,0.1c1.4,0,3.3-0.4,4.8-1.3
		c1.5,0.9,3.4,1.3,4.8,1.3c0.7,0,1.3-0.1,1.9-0.3c0.4-0.2,0.7-0.7,0.5-1.1c-0.2-0.4-0.7-0.7-1.1-0.5c-0.4,0.1-0.8,0.2-1.3,0.2
		c-1.2,0-3-0.3-4.2-1.3c-0.3-0.2-0.7-0.2-1,0c-0.8,0.6-1.8,1-2.7,1.1c-0.2,0-0.5,0.1-0.7,0.1c-0.3,0-0.6,0.1-0.9,0.1
		c-1,0-2.6-0.3-3.7-1c-0.2-0.1-0.3-0.2-0.5-0.3c-0.2-0.2-0.5-0.2-0.8-0.1c-0.1,0-0.2,0.1-0.3,0.1c-1.2,0.9-3,1.3-4.2,1.3
		c-1,0-2.6-0.3-3.8-1c-0.2-0.1-0.3-0.2-0.5-0.3c-0.2-0.2-0.5-0.2-0.8-0.1c-0.1,0-0.2,0.1-0.2,0.1c-1.2,0.9-3,1.3-4.2,1.3
		c-1,0-2.6-0.3-3.8-1c-0.2-0.1-0.3-0.2-0.5-0.3C0.4,17.8,0.2,17.8,0,17.8z M0,21.2c-0.2,0-0.4,0.1-0.5,0.2c-1.2,0.9-3,1.3-4.2,1.3
		c-0.5,0-0.9,0-1.5-0.1c-0.5-0.1-0.9,0.3-1,0.7c-0.1,0.5,0.3,0.9,0.7,1c0.6,0.1,1.2,0.1,1.7,0.1c1.4,0,3.3-0.4,4.8-1.3
		c1.5,0.9,3.4,1.3,4.8,1.3c1.4,0,3.3-0.4,4.8-1.3c1.5,0.9,3.4,1.3,4.8,1.3c1.4,0,3.3-0.4,4.8-1.3c1.5,0.9,3.4,1.3,4.8,1.3
		c1.4,0,3.3-0.4,4.8-1.3c1.5,0.9,3.4,1.3,4.8,1.3c0.7,0,1.3-0.1,1.9-0.3c0.4-0.2,0.7-0.7,0.5-1.1c-0.2-0.4-0.7-0.7-1.1-0.5
		c-0.4,0.1-0.8,0.2-1.3,0.2c-1.2,0-3-0.3-4.2-1.3c-0.3-0.2-0.7-0.2-1,0c-1.2,0.9-3,1.3-4.2,1.3c-1.2,0-3-0.3-4.2-1.3
		c-0.3-0.2-0.8-0.2-1.1,0c-1.2,0.9-3,1.3-4.2,1.3c-1.2,0-3-0.3-4.2-1.3c-0.3-0.2-0.7-0.2-1,0c-1.2,0.9-3,1.3-4.2,1.3s-3-0.3-4.2-1.3
		C0.4,21.3,0.2,21.2,0,21.2z M22.6,3.7L9.3,6.4L8.1,2.6l7.7-1.4L22.6,3.7z"/>
</g>
<g id="Layer_5" class="st0">
	<path class="st3" d="M23.8,4.4c-0.1,0-0.2,0-0.2,0.1c0,0-1.8,0.6-3.3,1.9c-0.3,0.2-0.5,0.5-0.4,0.9c0,0.4,0.3,0.7,0.6,0.8
		c0.3,0.1,0.7,0,1-0.2c0.8-0.7,1.4-0.9,2-1.1C23.4,7,23.7,7.8,24,8.8c-0.1,0-0.1,0-0.2,0c-7.7,0-6.4,3.7-7.5,3.7
		c-2.7,0-3.7,0.1-4.2-0.7c-0.7-1.2-0.1-1.7-3.1-1.7c-4.2,0-4.7,1.3-4.7,1.3s0.1,1.1,1.5,1.1c5.3,0,7,0.9,8.5,2
		c0.2,0.2,0.4,0.4,0.7,0.6l-1.3,0.7c-1-1.2-2.4-2-4.1-2c-2.9,0-5.3,2.3-5.3,5.3c0,2.9,2.3,5.3,5.3,5.3c2.6,0,4.7-1.8,5.2-4.2h2
		c1.7,1.5,7.2,0.9,7.1-0.4c-0.2-2.9,0.7-5.5,1.5-7c0.4,0.8,0.8,1.7,1.3,2.6c-0.5,0.5-0.9,1.1-1.2,1.8c-0.4,1-0.5,2.4,0.1,2.4
		c0.5,0,0.5-0.5,1-1.3c-0.1,0.4-0.3,0.9-0.3,1.4c0,2.6,2.1,4.7,4.7,4.7c2.6,0,4.7-2.1,4.7-4.7c0-1.6-0.8-3-2-3.8c0.3,0,0.5,0,0.8,0
		c0.4,0-0.4-2.2-4.2-2.2c-0.8,0-1.5,0.2-2.1,0.5c-0.5-1-1-2-1.4-2.9c0.6,0,1.6-0.1,1.5-1c0-0.7-0.5-2.3-0.8-2.9c-0.4-1-1.2-1-1.2-1
		h-1.4c-0.2-0.7-0.4-1.3-0.4-1.3C24.6,4.6,24.2,4.3,23.8,4.4 M9.7,16.2c0.8,0,1.5,0.3,2,0.8l-2.3,1.3c-0.1,0-0.1,0.1-0.2,0.1
		c-0.1,0-0.2,0.1-0.2,0.2c-0.1,0-0.1,0.1-0.2,0.1v0l0,0c0,0.1-0.1,0.1-0.1,0.2c-0.1,0.3,0,0.7,0.2,1h0c0,0,0,0.1,0,0.1h0l0,0h0
		c0,0,0,0.1,0,0.1h0c0,0,0.1,0,0.2,0h0c0,0,0.1,0,0.2,0h0h0.1h0.1h2.8c-0.4,1.2-1.5,2.1-2.9,2.1c-1.7,0-3.1-1.3-3.1-3.1
		C6.7,17.5,8,16.2,9.7,16.2 M16,16.8c0.2,0.5,0.4,1,0.5,1.5h-1.6c0-0.3-0.1-0.5-0.2-0.8L16,16.8z M31.2,17.2c1.5,0,2.7,1.2,2.7,2.7
		c0,1.5-1.2,2.7-2.7,2.7c-1.5,0-2.7-1.2-2.7-2.7c0-0.5,0.1-0.9,0.3-1.3c0.5,0.7,1.1,1.3,1.6,2c0.3,0.4,0.9,0.4,1.3,0.1
		c0.4-0.3,0.4-0.9,0.1-1.3c-0.6-0.6-1.1-1.2-1.6-1.9C30.6,17.2,30.9,17.2,31.2,17.2"/>
</g>
<g id="Layer_6" class="st0">
	<path class="st3" d="M29,13.7c-2.9,0-5.3,2.4-5.3,5.3c0,3,2.4,5.3,5.3,5.3c3,0,5.3-2.4,5.3-5.3C34.4,16.1,32,13.7,29,13.7 M29,20.5
		c-0.8,0-1.5-0.7-1.5-1.5c0-0.8,0.7-1.5,1.5-1.5c0.8,0,1.5,0.7,1.5,1.5C30.5,19.9,29.9,20.5,29,20.5 M33.9,3H30V0.6
		c0-0.9,0.3-1.7,0.8-2.4c0.3-0.4,0.2-0.9-0.1-1.2l-1.3-1.5c-0.4-0.5-1.1-0.4-1.5,0c-1.1,1.4-1.8,3.1-1.8,5V3h-6.2l-3.4-7.9
		C16.1-6,15-6.7,13.8-6.7H5.7c-1.6,0-2.9,1.3-2.9,2.9v8.9C2.3,4.7,1.6,4.7,1.1,5.2l-1.9,1.9c-0.5,0.5-0.5,1.4,0,1.9l0.3,0.3
		c-0.3,0.6-0.5,1.1-0.7,1.7h-0.4c-0.7,0-1.3,0.6-1.3,1.3v2.7c0,0.7,0.6,1.3,1.3,1.3h0.4c0.2,0.6,0.4,1.2,0.7,1.7l-0.3,0.3
		c-0.5,0.5-0.5,1.4,0,1.9l1.9,1.9c0.5,0.5,1.4,0.5,1.9,0l0.3-0.3c0.6,0.3,1.1,0.5,1.7,0.7v0.4c0,0.7,0.6,1.3,1.3,1.3H9
		c0.7,0,1.3-0.6,1.3-1.3v-0.4c0.6-0.2,1.2-0.4,1.7-0.7l0.3,0.3c0.5,0.5,1.4,0.5,1.9,0l1.9-1.9c0.5-0.5,0.5-1.4,0-1.9l-0.3-0.3
		c0.3-0.6,0.5-1.1,0.7-1.7H17c0.7,0,1.3-0.6,1.3-1.3v-0.4h4.9c1.3-1.8,3.4-2.9,5.8-2.9c1.1,0,2.2,0.3,3.1,0.7l3.1-3.1
		c0.4-0.4,0.6-0.9,0.6-1.4V5C35.8,3.9,35,3,33.9,3 M7.7,18.6c-2.7,0-4.9-2.2-4.9-4.9C2.8,11,5,8.9,7.7,8.9c2.7,0,4.9,2.2,4.9,4.9
		C12.5,16.4,10.4,18.6,7.7,18.6 M9,3H6.7v-5.8h6.5L15.7,3H9z"/>
</g>
<g id="Layer_9" class="st0">
	<path class="st4" d="M32.4,18.7c0,3.2-2.6,5.7-5.7,5.7S21,21.8,21,18.7c0,0,0,0,0,0l-8,0v0c0,3.2-2.6,5.7-5.7,5.7
		c-3.2,0-5.7-2.6-5.7-5.7c0,0,0,0,0,0H0.7c-0.8,0-1.5-0.7-1.5-1.5V0.7c0-0.8,0.7-1.5,1.5-1.5l21.1,0c0.1,0,0.2,0,0.3,0
		c0.1,0,0.2,0,0.4,0l5.4,0c2.6,0,8,6.5,8,10.8v6.2c0,1.3-1.2,2.4-2.6,2.4L32.4,18.7L32.4,18.7 M23.3,18.7c0,1.9,1.5,3.4,3.4,3.4
		c1.9,0,3.4-1.5,3.4-3.4c0-1.9-1.5-3.4-3.4-3.4C24.8,15.3,23.3,16.8,23.3,18.7 M3.9,18.7c0,1.9,1.5,3.4,3.4,3.4
		c1.9,0,3.4-1.5,3.4-3.4c0-1.9-1.5-3.4-3.4-3.4C5.4,15.3,3.9,16.8,3.9,18.7 M29.7,8.9c0.2,0.4,0.6,0.6,1,0.6h1.7
		c0.7,0,1.2-0.5,1.1-1.2c-0.1-1.3-1-2.8-1.8-4c-0.5-0.6-1-1.2-1.4-1.7c-0.5-0.4-1-0.9-1.6-1.1c-0.2-0.1-0.4-0.1-0.6-0.1l-1.4,0
		c-0.6,0-1.1,0.5-1.1,1.1v2.9c0,0.6,0.4,1,1,1.1C28,6.9,29,7.7,29.7,8.9"/>
</g>
<g id="Layer_8" class="st0">
	<path class="st3" d="M34.8,13.9h-3.2V3.3c0-5.8-4.7-10.5-10.5-10.5H-2.1c-2.3,0-4.2,1.9-4.2,4.2v16.9c0,2.3,1.9,4.2,4.2,4.2H0
		c0,3.5,2.8,6.3,6.3,6.3c3.5,0,6.3-2.8,6.3-6.3h22.1c0.6,0,1.1-0.5,1.1-1.1v-2.1C35.8,14.3,35.4,13.9,34.8,13.9 M6.3,21.2
		c-1.7,0-3.2-1.4-3.2-3.2c0-1.7,1.4-3.2,3.2-3.2c1.7,0,3.2,1.4,3.2,3.2C9.5,19.8,8.1,21.2,6.3,21.2z M10.5,5.4
		c0,1.2-0.9,2.1-2.1,2.1H0c-1.2,0-2.1-0.9-2.1-2.1V1.2c0-1.2,0.9-2.1,2.1-2.1h8.4c1.2,0,2.1,0.9,2.1,2.1V5.4z M23.2,7.6h-8.4V1.2
		c0-1.2,0.9-2.1,2.1-2.1h4.2c1.2,0,2.1,0.9,2.1,2.1V7.6z"/>
</g>
<g id="Layer_12" class="st0">
	<g class="st1">
		<path class="st5" d="M30.3,1.1c1.2,0,1.9-1.2,1.6-2.2c-0.1-0.3-0.1-0.6-0.3-0.9l-1.8-2.7c-0.2-0.2-0.3-0.4-0.4-0.6l-0.1-0.1
			l-0.5-0.5c-1.1-0.9-2.5-1.4-3.9-1.4H0.1c-3.2,0-5.8,2.6-5.8,5.8v12.5v0.8v5.8c0,1.4,1.1,2.5,2.5,2.5h3.4c0.4,2.3,2.4,4.2,4.9,4.2
			c2.5,0,4.5-1.8,4.9-4.2h6c1.3,0,2.3-1.1,2.3-2.3v-6h0.1V5.3c0-2.2,1.9-4.2,4.2-4.2 M5.1,22.7c-1.8,0-3.3-1.5-3.3-3.3
			c0-1.8,1.5-3.3,3.3-3.3c1.8,0,3.3,1.5,3.3,3.3C8.4,21.2,6.9,22.7,5.1,22.7 M-0.8-2.2c0-0.5,0.3-0.8,0.8-0.8h12.5
			c0.5,0,0.8,0.3,0.8,0.8v8.3c0,0.5-0.3,0.8-0.8,0.8H0.1c-0.5,0-0.8-0.3-0.8-0.8V-2.2z M19.2-1.4c-0.5,0-0.8-0.3-0.8-0.8
			c0-0.5,0.3-0.8,0.8-0.8h6.7c0.5,0,0.8,0.3,0.8,0.8c0,0.5-0.3,0.8-0.8,0.8H19.2z"/>
		<path class="st5" d="M35.8,10.3c0-0.1,0-0.2,0-0.3c0-0.2-0.1-0.4-0.1-0.6c0,0,0-0.1,0-0.1c-0.1-0.2-0.1-0.3-0.2-0.5
			c-0.4-0.9-0.8-1.6-0.9-1.7v0l-2.2-2.9h0v0c-0.8-1-2-1.3-3.1-1.3h-6.7c-1.3,0-2.5,1.2-2.5,2.5v12.5c0,1,0.6,1.9,1.5,2.3
			c0.3,0.1,0.6,0.2,1,0.2h0.1c0.4,2.3,2.4,4.2,4.9,4.2c2.5,0,4.5-1.8,4.9-4.2h0.9c0.2,0,0.3,0,0.5-0.1c1.1-0.2,2-1.3,2-2.4
			L35.8,10.3 M27.5,22.7c-1.8,0-3.3-1.5-3.3-3.3c0-1.8,1.5-3.3,3.3-3.3c1.8,0,3.3,1.5,3.3,3.3C30.9,21.2,29.4,22.7,27.5,22.7
			 M25.9,10.3c-0.5,0-0.8-0.3-0.8-0.8v-5h4.2c1,0,1.3,0,1.8,0.7c0,0,0,0,0,0l1.1,1.5l1,1.4c0.3,0.3,0.8,1.4,1,2.3H25.9z"/>
	</g>
</g>
<g id="Layer_10" class="st0">
	<path class="st4" d="M29.3,24.4c-2.3,0-4.2-1.6-4.6-3.8H17c-0.4,2.1-2.3,3.8-4.6,3.8c-2.3,0-4.2-1.6-4.6-3.8H7.7
		c-1,0-1.9-0.8-1.9-1.9c0-7.5,0-15,11.3-15c3.8,0,7.7,1.8,10.3,6.6c4.8,0.9,8.5,4.7,8.5,8.4c0,1-0.8,1.9-1.9,1.9h-0.1
		C33.4,22.8,31.5,24.4,29.3,24.4 M29.3,22.5c1.6,0,2.8-1.3,2.8-2.8c0-1.6-1.3-2.8-2.8-2.8c-1.6,0-2.8,1.3-2.8,2.8
		C26.5,21.3,27.7,22.5,29.3,22.5 M12.4,22.5c1.6,0,2.8-1.3,2.8-2.8c0-1.6-1.3-2.8-2.8-2.8c-1.6,0-2.8,1.3-2.8,2.8
		C9.6,21.3,10.8,22.5,12.4,22.5 M23.7,11.3c0.9,0,1.1-1,0.6-1.6c-0.4-0.7-1.7-2.2-3-2.9c-1.2-0.6-2.5-1-4.1-1.1v5.6H23.7z
		 M10.5,11.3h4.7V5.6c-1.6,0.2-2.8,0.6-3.7,1.2c-1.2,0.8-1.8,2.1-1.9,3.5C9.5,10.9,10,11.3,10.5,11.3"/>
</g>
<g id="Layer_11">
</g>
</svg>
