<?xml version="1.0" encoding="UTF-8"?>
<svg width="249px" height="62px" viewBox="0 0 249 62" version="1.1" xmlns="http://www.w3.org/2000/svg" xmlns:xlink="http://www.w3.org/1999/xlink">
    <!-- Generator: Sketch 62 (91390) - https://sketch.com -->
    <title>Group 46</title>
    <desc>Created with Sketch.</desc>
    <g id="v1-design" stroke="none" stroke-width="1" fill="none" fill-rule="evenodd">
        <g id="Landing-page" transform="translate(-82.000000, -20.000000)">
            <g id="Group-47">
                <g id="Group-46" transform="translate(82.000000, 20.000000)">
                    <g id="Group">
                        <circle id="Oval" fill="#FFA940" cx="30.9975989" cy="30.9171123" r="30.9171123"></circle>
                        <g id="Group-16" transform="translate(13.239220, 13.344920)">
                            <g id="Group-17-Copy" transform="translate(28.533780, 20.058824)">
                                <circle id="Oval" fill="#FFFFFF" cx="3.44444444" cy="3.44444444" r="3.44444444"></circle>
                                <path d="M2.0527027,4.07282282 C2.29042257,4.07282282 2.48791291,3.98095464 2.6780888,3.77516991 C2.69637495,3.99932828 2.73294723,4.05444919 2.84997855,4.05444919 C2.9450665,4.05444919 3.13889961,4.03607555 3.3546761,4.01035246 L3.3546761,3.922159 C3.12529472,3.91855777 3.10665749,3.89731049 3.10600375,3.51601341 L3.10599728,3.47752497 C3.10606851,3.44457605 3.10653868,3.38108324 3.10964178,3.29378062 L3.11695624,2.65437806 C3.11695624,2.42654497 3.0730695,2.29425478 2.97432432,2.19871187 C2.86460746,2.0958195 2.68540326,2.04804805 2.43305448,2.04804805 C2.18436293,2.04804805 1.98687259,2.09214478 1.83326898,2.18768769 C1.69063707,2.27588114 1.60652081,2.40082187 1.60652081,2.52943733 C1.60652081,2.63967915 1.69429429,2.69847479 1.86252681,2.69847479 C2.01613042,2.69847479 2.0783033,2.65070333 2.08561776,2.51841315 C2.09658945,2.37877351 2.10756113,2.31997787 2.14413342,2.25750751 C2.19533462,2.16931405 2.27213642,2.13256678 2.38916774,2.13256678 C2.60860146,2.13256678 2.67443157,2.24648333 2.67443157,2.63600443 L2.67443157,2.8748617 C2.4476834,2.88588589 2.25385028,2.91160898 2.07464607,2.94468152 C1.68332261,3.0218508 1.48948949,3.21661135 1.48948949,3.5326379 C1.48948949,3.86336336 1.70526598,4.07282282 2.0527027,4.07282282 Z M2.25385028,3.91113482 C2.07464607,3.91113482 1.95761476,3.73842263 1.95761476,3.47751699 C1.95761476,3.13576735 2.14413342,2.99980243 2.67443157,2.95938043 L2.67443157,3.24233444 C2.67443157,3.4517939 2.65614543,3.5730599 2.60860146,3.66860281 C2.53911411,3.81926664 2.40013943,3.91113482 2.25385028,3.91113482 Z M4.53230373,4.84084084 L4.53230373,4.75264738 C4.25713385,4.74173344 4.23287545,4.7128115 4.2324178,4.39489715 L4.23241098,3.87438755 C4.4006435,4.02137664 4.53230373,4.07282282 4.74076577,4.07282282 C4.98945731,4.07282282 5.21986272,3.97360518 5.35883741,3.800893 C5.50146933,3.62450609 5.58558559,3.33787735 5.58558559,3.01082662 C5.58558559,2.39714715 5.30763621,2.04804805 4.81756757,2.04804805 C4.56887602,2.04804805 4.39332904,2.13256678 4.22509653,2.33835151 L4.22509653,2.0553975 L3.51193694,2.10316896 L3.51193694,2.19136242 C3.75697126,2.19503714 3.78988631,2.23545914 3.78988631,2.54781097 L3.78988631,4.38517465 C3.78988631,4.71222538 3.76794294,4.74529793 3.51193694,4.75264738 L3.51193694,4.84084084 L4.53230373,4.84084084 Z M4.65664951,3.96993046 C4.51767482,3.96993046 4.38601459,3.87438755 4.32018447,3.73474791 C4.25069713,3.58040936 4.21778207,3.38197408 4.21778207,3.11004425 C4.21778207,2.52208788 4.4006435,2.16563932 4.70053625,2.16563932 C4.96019949,2.16563932 5.09917417,2.47431642 5.09917417,3.0622728 C5.09917417,3.66860281 4.95288503,3.96993046 4.65664951,3.96993046 Z" id="ap" fill="#FFA940" fill-rule="nonzero"></path>
                            </g>
                            <g id="Group-17-Copy" transform="translate(0.166185, 8.252678)">
                                <circle id="Oval" fill="#012549" cx="3.44444444" cy="3.44444444" r="3.44444444"></circle>
                                <path d="M3.18643608,5.02702703 C3.64730598,5.02702703 3.99000411,4.95932296 4.23422576,4.81594964 C4.63600978,4.58894188 4.84084084,4.13492637 4.84084084,3.48974643 C4.84084084,2.89634019 4.65570507,2.50604615 4.26573823,2.26709062 C4.03333376,2.11973471 3.68275751,2.04804805 3.23370479,2.04804805 L2.04804805,2.04804805 L2.04804805,2.15159545 C2.36317276,2.15557804 2.40256335,2.19938655 2.40256335,2.56578504 L2.40256335,4.50929004 C2.40256335,4.87568852 2.36711182,4.91551444 2.04804805,4.92347963 L2.04804805,5.02702703 L3.18643608,5.02702703 Z M3.1943142,4.91153185 L2.91464102,4.91153185 L2.91464102,2.16354322 L3.15098455,2.16354322 C3.5685248,2.16354322 3.86789328,2.28700358 4.03727282,2.5339243 C4.20665235,2.78084502 4.28937259,3.11140017 4.28937259,3.5574505 C4.28937259,4.04730934 4.183018,4.42167301 3.97818693,4.63673299 C3.81668551,4.81196705 3.53307327,4.91153185 3.1943142,4.91153185 Z" id="D" fill="#FFFFFF" fill-rule="nonzero"></path>
                            </g>
                            <path d="M33.9567863,0 C34.6208026,0 35.1590942,0.538291573 35.1590942,1.20230788 C35.1590942,1.37651679 35.1212378,1.54849273 35.0483233,1.70638267 L35.0321632,1.73999631 L24.1347051,23.5349124 C23.9062765,23.9917695 23.3507428,24.1769475 22.8938856,23.9485189 C22.444518,23.7238351 22.257995,23.1826829 22.4693778,22.7302455 L22.4802792,22.7076995 L32.9092805,1.84964924 L2.03583542,1.84964924 L2.03583542,5.5490858 L22.8585594,5.54911343 C23.0327683,5.54911343 23.2047443,5.58696977 23.3626342,5.65988432 L23.3962479,5.67604445 C23.9819133,5.96887717 24.2241383,6.67521659 23.9459988,7.26429056 L23.9339363,7.28910974 L13.705621,27.7455395 L34.1282633,27.7455672 C34.7835426,27.7455672 35.3163839,28.2697864 35.3305712,28.9217301 L35.3305712,28.947875 L35.3305712,33.9420771 C35.3305712,34.5973564 34.806352,35.1301977 34.1544083,35.144385 L34.1282633,35.144385 L1.5599711,35.144385 C1.37331869,35.144385 1.18922965,35.1009275 1.02228267,35.017454 C0.436617236,34.7246213 0.194392228,34.0182819 0.472531692,33.4292079 L0.484594237,33.4043887 L11.3820523,11.6094726 C11.6104809,11.1526155 12.1660146,10.9674376 12.6228718,11.1958661 C13.0722394,11.4205499 13.2587624,11.9617021 13.0473796,12.4141395 L13.0364782,12.4366856 L2.60739411,33.294653 L33.4808392,33.294653 L33.4808392,29.5952164 L12.658198,29.5952716 C12.0029187,29.5952716 11.4700774,29.0710524 11.4561687,28.4191086 L11.4558901,28.3929637 C11.4558901,28.2187548 11.4937464,28.0467789 11.566661,27.8888889 L11.5828211,27.8552753 L21.8110536,7.39876267 L1.38849406,7.39881786 C0.733214816,7.39881786 0.200373521,6.87459866 0.186186186,6.22265491 L0.186186186,6.19650998 L0.186186186,1.20230788 C0.186186186,0.547028629 0.710405386,0.0141873344 1.36234913,0 L1.38849406,0 L33.9567863,0 Z" id="Path-2" fill="#FFFFFF" fill-rule="nonzero"></path>
                        </g>
                    </g>
                    <g id="Group-45" transform="translate(75.000000, 3.000000)">
                        <text id="ZapDeal" font-family="HiraMinProN-W6, Hiragino Mincho ProN" font-size="31.6516517" font-weight="500">
                            <tspan x="0" y="28" fill="#FFFFFF">Zap</tspan>
                            <tspan x="59.3468468" y="28" fill="#FFA940">Deal</tspan>
                        </text>
                        <text id="“-Beyond-the-borders" font-family="HiraMinProN-W3, Hiragino Mincho ProN" font-size="16" font-weight="300" fill="#FFFFFF">
                            <tspan x="0" y="54">“ Beyond the borders “</tspan>
                        </text>
                    </g>
                </g>
            </g>
        </g>
    </g>
</svg>