<?xml version="1.0" encoding="UTF-8"?>
<svg width="1024px" height="358px" viewBox="0 0 1024 358" version="1.1" xmlns="http://www.w3.org/2000/svg" xmlns:xlink="http://www.w3.org/1999/xlink">
    <!-- Generator: Sketch 50 (54983) - http://www.bohemiancoding.com/sketch -->
    <title>Ad_race_Full_logo</title>
    <desc>Created with Sketch.</desc>
    <defs></defs>
    <g id="Ad_race_Full_logo" stroke="none" stroke-width="1" fill="none" fill-rule="evenodd">
        <g id="Group" transform="translate(25.600000, 8.533333)">
            <path d="M785.142445,0 L788.381095,0 C795.295723,0.309370152 802.074331,2.60458558 808.269259,6.74565198 C809.436619,7.52339817 810.337104,8.26139289 811.430428,9.11518538 C817.899118,14.167079 822.497965,21.7803501 824.787919,29.5889218 C825.213196,31.0458997 825.497289,32.611762 825.743502,34.329717 C826.091299,36.7701117 825.963888,38.4465868 826.120569,39.4922234 C827.000394,45.3235915 824.679448,53.6264642 822.856093,58.7215659 C822.365389,60.0886709 821.854023,61.5663886 821.321996,62.8833722 C820.493825,64.9348938 817.837134,70.2218396 816.673218,72.3079277 C816.32542,72.931853 816.106755,73.5108418 815.77101,74.0932873 L809.837791,85.0802485 C808.723806,87.301146 806.895286,90.222015 805.788188,92.413531 C805.447278,93.0858493 805.158021,93.5870636 804.786118,94.2593819 L801.79196,99.6448422 C801.469989,100.282594 801.122192,100.863311 800.762342,101.461312 C800.421432,102.026474 800.123565,102.591636 799.796429,103.182723 L795.745104,110.318977 C795.414525,110.598965 795.514387,110.40885 795.431742,110.834017 C795.306053,111.362885 795.183807,111.494238 794.927264,111.912492 C794.708599,112.268527 794.572579,112.562342 794.355636,112.921834 C792.599431,115.840975 790.657274,119.651931 788.895904,122.640205 C788.436191,123.421408 787.291214,125.88427 786.597341,126.34919 C786.316692,125.29664 778.10385,111.644602 778.041866,110.834017 C777.924786,110.02689 778.071136,110.61452 777.764661,110.386381 C777.435803,110.156514 772.113812,100.443328 771.619664,99.5843509 L770.612429,97.7454132 C770.276684,97.0782798 770.025306,96.6755801 769.667177,96.0015334 C765.577974,88.3070311 760.550406,79.9315687 756.679867,72.1471935 C756.320017,71.4230254 756.051421,70.9183545 755.688127,70.2927009 C755.035577,69.1658331 754.453618,67.8350229 753.840668,66.606184 C751.839972,62.5861003 751.946721,62.2266087 750.567584,58.6507046 C749.525913,55.9476045 748.694298,53.0198221 748.017643,49.9676004 C746.72115,44.1120357 747.142983,34.5474859 748.683967,29.3918928 C750.490104,23.3462124 752.924687,19.0012037 756.433654,14.6890331 C757.3152,13.6053734 758.809696,11.9461815 759.894411,11.0370826 C760.999788,10.1089722 761.120312,9.79096041 762.938501,8.39447391 L765.395466,6.58491777 C766.5766,5.81408487 767.590723,5.18843127 768.880329,4.54030944 L770.772554,3.58973076 C775.49709,1.39821482 780.335264,0.217768934 785.142445,0" id="Fill-2-Copy" fill="#FF0000"></path>
            <path d="M804.323092,112.421768 L803.62061,112.471889 L811.408176,113.277288 C813.987387,113.57456 816.564876,113.972075 819.107931,114.416254 C827.138265,115.817926 839.070131,118.721512 845.201354,123.688717 C846.570161,124.798302 848.479604,126.846367 848.500265,129.253923 C848.539865,133.681892 843.257475,136.538813 839.918964,138.229115 C838.000912,139.198705 835.759167,140.033486 833.60179,140.754197 C809.362713,148.868682 764.081886,148.917076 739.830757,140.793949 C737.743972,140.095705 735.376538,139.231543 733.501531,138.280964 C731.60414,137.320016 728.317281,135.583049 726.941587,133.941141 C723.914716,130.325485 723.888889,127.274992 728.026302,123.759579 C728.761498,123.135653 729.798004,122.459878 730.629618,121.939653 C738.258781,117.171204 752.682047,114.412798 761.764384,113.292843 C763.103921,113.128652 764.510607,112.98693 765.724455,112.833109 L769.701743,112.471889 L768.990652,112.416583 C766.946911,111.899813 750.318057,114.196757 748.734029,114.462919 C741.821123,115.626082 732.542505,117.518598 726.111694,119.936524 C721.803826,121.555964 716.631629,123.681804 713.191533,126.759951 C711.745246,128.051009 710.245584,129.459594 709.586147,131.690862 C709.488006,132.0227 709.417413,132.347625 709.369204,132.669093 L709.369204,134.71543 C710.069964,139.252283 715.305866,142.615603 718.990454,144.456269 C721.530064,145.723131 724.160929,146.718646 726.898543,147.75737 C727.568312,148.013162 728.312116,148.177353 728.949171,148.393393 L735.58315,150.282452 C744.365899,152.486066 755.707197,154.193651 764.901448,154.895351 C770.910425,155.353357 777.227599,155.628161 783.636027,155.697294 L789.956644,155.697294 C803.255595,155.553843 816.644078,154.49438 828.231589,152.306321 C833.083537,151.390308 837.393127,150.479481 841.966148,149.150399 C843.448592,148.720047 844.960306,148.286237 846.299843,147.800578 C851.115633,146.053241 857.398372,143.529887 860.989984,139.903861 C862.741024,138.135785 863.736207,136.231171 863.946263,134.335199 L863.946263,132.814273 C863.712102,130.724728 862.506863,128.69049 860.294389,126.903402 C855.576739,123.090717 852.685887,122.114213 847.431046,120.026397 C846.110448,119.500986 844.560855,119.004957 843.159335,118.614356 C831.826645,115.460163 827.040125,114.706613 814.844828,113.152849 C812.885454,112.902242 805.499061,112.110669 804.323092,112.421768" id="Fill-3-Copy" fill="#000000"></path>
            <path d="M769.63115,111.520799 L770.342241,111.578795 C771.275441,111.578795 771.416626,111.408431 772.308503,111.408431 L776.241025,111.230817 C776.934898,111.147447 777.339514,111.082201 778.26927,111.082201 C778.15219,110.235815 778.29854,110.852027 777.992065,110.612792 C777.878428,110.873776 778.138416,110.931772 777.053701,110.92996 L770.101194,111.241691 C769.612211,111.348622 769.894581,111.174633 769.63115,111.520799" id="Fill-4-Copy" fill="#A3A3A3"></path>
            <path d="M795.457699,111.152884 C797.101989,111.152884 798.131608,111.306937 799.720801,111.312374 C800.623009,111.315999 800.803795,111.495426 801.764542,111.486364 C802.804491,111.475489 803.088583,111.649479 804.059662,111.649479 L804.762144,111.596919 C804.524539,111.093075 804.880946,111.484551 804.429842,111.34681 L795.771061,110.986144 L795.771061,110.612792 C795.440481,110.906399 795.540344,110.707036 795.457699,111.152884" id="Fill-5-Copy" fill="#A3A3A3"></path>
            <path d="M421.833628,262.995739 L421.833628,122.711066 L493.791558,122.711066 C507.128388,122.711066 517.343649,123.855217 524.370192,126.172901 C531.429448,128.459475 537.12162,132.737079 541.448428,138.941765 C545.775235,145.177561 547.922282,152.787375 547.922282,161.734913 C547.922282,169.505462 546.262496,176.232102 542.944646,181.881996 C539.659509,187.563 535.105427,192.134419 529.282401,195.661931 C525.606423,197.882828 520.530645,199.744234 514.122217,201.21331 C519.263422,202.943363 523.003107,204.642307 525.346435,206.37236 C526.906359,207.514783 529.216974,209.996657 532.242124,213.752307 C535.23456,217.507957 537.252474,220.413271 538.25971,222.471706 L559.24292,262.995739 L510.446239,262.995739 L487.383131,220.21797 C484.4544,214.666591 481.852806,211.075132 479.574904,209.409027 C476.451613,207.253805 472.906489,206.177059 468.970523,206.177059 L465.16369,206.177059 L465.16369,262.995739 L421.833628,262.995739 Z M465.16369,179.726775 L483.414451,179.726775 C485.365216,179.726775 489.204763,179.073468 494.864221,177.799693 C497.727524,177.244901 500.069131,175.775825 501.85805,173.392465 C503.679683,171.007376 504.592221,168.297363 504.592221,165.227858 C504.592221,160.689277 503.159708,157.194604 500.296405,154.778406 C497.434823,152.329369 492.066345,151.12127 484.161699,151.12127 L465.16369,151.12127 L465.16369,179.726775 Z M606.0544,194.225693 L568.969198,190.305852 C570.368997,183.77624 572.385189,178.648301 575.019497,174.925489 C577.655527,171.171567 581.429647,167.937871 586.405562,165.19502 C589.952408,163.203989 594.831904,161.669237 601.04405,160.590762 C607.257917,159.514016 613.991759,158.957495 621.245576,158.957495 C632.858914,158.957495 642.163359,159.610802 649.222615,160.917416 C656.249158,162.224029 662.137611,164.966881 666.820825,169.113132 C670.140398,171.987336 672.741992,176.06964 674.629052,181.327204 C676.548825,186.58304 677.492355,191.612465 677.492355,196.413752 L677.492355,241.345014 C677.492355,246.1463 677.785056,249.900222 678.403172,252.610235 C678.988573,255.321977 680.321223,258.783812 682.339138,262.995739 L646.002905,262.995739 C644.537679,260.382512 643.594149,258.42432 643.139602,257.05203 C642.716047,255.681468 642.261499,253.557357 641.80523,250.652043 C636.731175,255.550116 631.68811,259.044789 626.646768,261.134333 C619.782072,263.942861 611.811999,265.346261 602.736549,265.346261 C590.666942,265.346261 581.493352,262.537733 575.248493,256.889568 C568.969198,251.272512 565.845907,244.317732 565.845907,236.087449 C565.845907,228.348011 568.091095,221.980862 572.612463,216.986003 C577.135553,211.989416 585.462032,208.266604 597.597066,205.850406 C612.137413,202.910525 621.57099,200.853818 625.897798,199.645719 C630.224606,198.470458 634.811401,196.935706 639.62547,195.008624 C639.62547,190.209066 638.650948,186.878584 636.665747,184.951501 C634.71326,183.024419 631.266277,182.077297 626.321354,182.077297 C619.976632,182.077297 615.22799,183.090095 612.039272,185.146802 C609.566811,186.780069 607.583332,189.783898 606.0544,194.225693 Z M639.62547,214.600915 C634.291427,216.527997 628.728388,218.22694 622.905362,219.728854 C615.03343,221.851237 610.02308,223.940782 607.94146,225.997489 C605.761699,228.119872 604.687315,230.53607 604.687315,233.247812 C604.687315,236.348426 605.761699,238.895977 607.876033,240.855898 C610.02308,242.815818 613.14637,243.79405 617.276896,243.79405 C621.603704,243.79405 625.637811,242.717304 629.379217,240.594921 C633.087909,238.472538 635.722217,235.892149 637.283863,232.822644 C638.845508,229.753139 639.62547,225.76935 639.62547,220.871277 L639.62547,214.600915 Z M776.254799,223.221799 L813.14372,227.336941 C811.094813,235.076379 807.776963,241.770182 803.124741,247.451185 C798.505232,253.101079 792.553073,257.510036 785.330248,260.643489 C778.141859,263.77867 768.968269,265.346261 757.842192,265.346261 C747.074243,265.346261 738.129648,264.335191 730.972251,262.342432 C723.847567,260.316836 717.699126,257.05203 712.52693,252.546287 C707.387446,248.071654 703.353339,242.78298 700.426331,236.707918 C697.4976,230.634584 696.034096,222.60133 696.034096,212.577046 C696.034096,202.127594 697.823015,193.408195 701.369861,186.453416 C703.971455,181.327204 707.549293,176.755785 712.072382,172.70632 C716.59375,168.656854 721.213259,165.620188 725.994614,163.660267 C733.573845,160.525086 743.269131,158.957495 755.077029,158.957495 C771.635291,158.957495 784.224872,161.930214 792.911201,167.841085 C801.595809,173.783066 807.680544,182.436789 811.192954,193.833363 L774.693154,198.731436 C773.555064,194.388155 771.473444,191.123349 768.448295,188.902452 C765.423145,186.714393 761.356324,185.604808 756.247833,185.604808 C749.839405,185.604808 744.634495,187.922492 740.633102,192.526749 C736.664422,197.163845 734.680943,204.151462 734.680943,213.557006 C734.680943,221.916914 736.664422,228.251224 740.600388,232.594505 C744.538076,236.937785 749.546704,239.093006 755.662431,239.093006 C760.738209,239.093006 765.032303,237.786393 768.479286,235.206004 C771.960705,232.594505 774.531308,228.610716 776.254799,223.221799 Z M943.331908,221.851237 L865.454533,221.851237 C866.169068,228.087034 867.828854,232.756967 870.528589,235.826472 C874.269995,240.235429 879.182205,242.423488 885.232504,242.423488 C889.070329,242.423488 892.715316,241.476366 896.129586,239.582122 C898.243919,238.374023 900.521821,236.25164 902.928855,233.214973 L941.184861,236.740756 C935.330843,246.929231 928.271587,254.27634 920.007091,258.685297 C911.744317,263.127092 899.870992,265.346261 884.419829,265.346261 C870.983136,265.346261 860.444183,263.452017 852.734097,259.632419 C845.056725,255.843931 838.681011,249.803436 833.606955,241.542043 C828.563891,233.247812 826.027724,223.515614 826.027724,212.348907 C826.027724,196.44659 831.10178,183.548102 841.251613,173.71739 C851.368733,163.888406 865.389106,158.957495 883.247303,158.957495 C897.756658,158.957495 909.175436,161.178393 917.567343,165.587349 C925.960971,169.996306 932.369399,176.363455 936.761634,184.756201 C941.152147,193.11438 943.331908,204.021838 943.331908,217.442281 L943.331908,221.851237 Z M903.905099,203.237178 C903.157851,195.661931 901.107223,190.240175 897.822086,186.97537 C894.536949,183.710564 890.242855,182.077297 884.874376,182.077297 C878.693222,182.077297 873.750021,184.559172 870.041328,189.490082 C867.697999,192.559587 866.201781,197.131007 865.550952,203.237178 L903.905099,203.237178 Z" id="Fill-6-Copy" fill="#FF0000"></path>
            <path d="M32.2435851,312.823345 L40.879983,314.142057 C39.1978138,318.837916 36.6582032,322.429375 33.2835342,324.909521 C29.9191958,327.400037 25.9608467,328.639246 21.4274265,328.639246 C16.3309876,328.639246 12.3433685,327.097581 9.47317805,324.002151 C6.60470938,320.906721 5.16530973,316.416533 5.16530973,310.52813 C5.16530973,305.754497 6.12777912,301.390476 8.05443965,297.427427 C9.97937841,293.46265 12.6446782,290.425983 16.0692786,288.327797 C19.4818265,286.227882 23.197406,285.173604 27.2142952,285.173604 C31.7373848,285.173604 35.3840935,286.393801 38.1768042,288.825555 C40.9677933,291.265949 42.6017529,294.575691 43.0976227,298.784162 L34.8692842,299.584377 C34.4130152,297.133612 33.5366343,295.367264 32.2435851,294.262865 C30.9488142,293.160193 29.228766,292.614043 27.0696665,292.614043 C24.7056765,292.614043 22.4966457,293.336482 20.4460177,294.790004 C18.393668,296.245253 16.7597083,298.519729 15.5338081,301.615159 C14.2992991,304.700218 13.6846273,307.785278 13.6846273,310.870338 C13.6846273,314.238843 14.4835285,316.845157 16.0778874,318.680638 C17.6739681,320.516119 19.6677777,321.43386 22.0403766,321.43386 C24.2580163,321.43386 26.2810959,320.71142 28.1199462,319.257899 C29.9674053,317.813019 31.3379342,315.664711 32.2435851,312.823345 Z M55.905869,297.475821 L63.5884064,297.475821 L62.431377,303.196576 C65.2516361,298.872307 68.3060559,296.713629 71.6032453,296.713629 C72.7706053,296.713629 74.0257756,297.007444 75.3584255,297.601988 L72.2058648,304.319987 C71.4672255,304.055553 70.670046,303.919016 69.8332658,303.919016 C68.4231363,303.919016 66.9940673,304.456525 65.5340064,305.529814 C64.0756673,306.603104 62.9375773,308.028972 62.1197366,309.82643 C61.2932871,311.61179 60.485777,314.453156 59.6885975,318.340158 L57.7343887,327.878783 L49.5628687,327.878783 L55.905869,297.475821 Z M108.152977,315.225717 L87.6019313,315.225717 C87.5829919,315.547185 87.5726612,315.801249 87.5726612,315.97581 C87.5726612,318.016962 88.1563412,319.657142 89.3133706,320.906721 C90.4704,322.1563 91.8908602,322.781953 93.5540899,322.781953 C96.2968694,322.781953 98.4370294,321.376825 99.9728481,318.563112 L107.267987,319.79368 C105.838918,322.742202 103.932919,324.949273 101.539659,326.423534 C99.1463986,327.897795 96.4724899,328.639246 93.4955497,328.639246 C89.4201204,328.639246 86.1039915,327.341274 83.555772,324.753972 C80.9972219,322.1563 79.7231122,318.729031 79.7231122,314.453156 C79.7231122,310.284436 80.8715327,306.575451 83.1769827,303.314102 C86.3088821,298.91033 90.792371,296.713629 96.6085097,296.713629 C100.313759,296.713629 103.261429,297.866422 105.449798,300.170279 C107.638168,302.474136 108.726326,305.706104 108.726326,309.855812 C108.726326,311.846842 108.533488,313.63393 108.152977,315.225717 Z M101.257288,310.244685 C101.276228,309.874823 101.286559,309.601748 101.286559,309.406447 C101.286559,307.130243 100.780358,305.422658 99.7696793,304.280236 C98.7676092,303.137813 97.4160198,302.572651 95.7131894,302.572651 C94.0206896,302.572651 92.5038103,303.215587 91.1608297,304.513559 C89.819571,305.80289 88.91392,307.716145 88.4387115,310.244685 L101.257288,310.244685 Z M128.616212,305.968809 L120.620313,305.296491 C121.534573,302.602032 123.130653,300.502117 125.405112,298.988105 C127.683013,297.475821 130.687502,296.713629 134.442682,296.713629 C138.342491,296.713629 141.231621,297.505202 143.087688,299.076249 C144.955809,300.657667 145.889008,302.581292 145.889008,304.855768 C145.889008,305.773508 145.811528,306.750012 145.646239,307.776637 C145.480949,308.810175 144.91793,311.525373 143.94513,315.918775 C143.13762,319.549986 142.738169,322.097537 142.738169,323.552786 C142.738169,324.850758 142.97233,326.286996 143.428599,327.878783 L135.44303,327.878783 C135.133112,326.774384 134.938552,325.623319 134.85935,324.441145 C133.66272,325.778869 132.281861,326.814135 130.727102,327.545217 C129.170622,328.278026 127.595203,328.639246 126.019783,328.639246 C123.509443,328.639246 121.438154,327.80965 119.804194,326.150458 C118.170234,324.489538 117.352394,322.36197 117.352394,319.755656 C117.352394,316.845157 118.247714,314.511919 120.046964,312.774952 C121.846213,311.027616 125.055592,309.971609 129.676823,309.610389 C133.576632,309.278551 136.183391,308.88795 137.49538,308.429944 C137.83629,307.277151 138.011911,306.35941 138.011911,305.676722 C138.011911,304.788363 137.66067,304.055553 136.951301,303.46101 C136.25054,302.864737 135.200261,302.572651 133.80907,302.572651 C132.350731,302.572651 131.193702,302.864737 130.346591,303.46101 C129.501202,304.045183 128.917522,304.885149 128.616212,305.968809 Z M136.405499,313.642571 C135.90963,313.779109 135.258801,313.907005 134.442682,314.024531 C130.337982,314.522289 127.653743,315.255098 126.398573,316.221232 C125.503252,316.922932 125.055592,317.861412 125.055592,319.033217 C125.055592,320.00972 125.396503,320.820305 126.086932,321.492623 C126.767032,322.1563 127.672682,322.489866 128.790111,322.489866 C130.026342,322.489866 131.193702,322.185681 132.281861,321.570398 C133.382072,320.965484 134.19819,320.184281 134.733661,319.226789 C135.27774,318.271025 135.75467,316.777753 136.173061,314.746971 L136.405499,313.642571 Z M157.548834,303.568166 L158.774734,297.475821 L162.801954,297.475821 L163.783363,292.72984 L173.034433,287.048837 L170.923543,297.475821 L175.873631,297.475821 L174.647731,303.568166 L169.687312,303.568166 L167.023734,316.395793 C166.536473,318.69965 166.293703,320.00972 166.293703,320.331189 C166.293703,320.965484 166.488263,321.4546 166.887714,321.80545 C167.285443,322.1563 167.994812,322.332589 169.036483,322.332589 C169.396333,322.332589 170.291653,322.273826 171.731053,322.137288 L170.446612,328.210622 C169.046813,328.492339 167.607414,328.639246 166.128413,328.639246 C163.258223,328.639246 161.167994,328.074084 159.854284,326.950673 C158.550904,325.827262 157.900075,324.266584 157.900075,322.273826 C157.900075,321.337074 158.270256,319.188766 158.998564,315.820261 L161.596715,303.568166 L157.548834,303.568166 Z M189.566867,285.935795 L197.728057,285.935795 L196.181907,293.374506 L188.010387,293.374506 L189.566867,285.935795 Z M187.154668,297.475821 L195.324466,297.475821 L188.983187,327.878783 L180.813389,327.878783 L187.154668,297.475821 Z M209.417153,297.475821 L217.227101,297.475821 L216.43853,301.468251 C218.38413,299.750296 220.21265,298.53874 221.90515,297.807659 C223.59765,297.074849 225.37796,296.713629 227.254689,296.713629 C229.754699,296.713629 231.729569,297.436069 233.177577,298.891319 C234.618699,300.346568 235.336677,302.268465 235.336677,304.670837 C235.328068,305.735485 234.976827,307.747255 234.286397,310.704419 L230.620749,327.878783 L222.449229,327.878783 L226.164808,310.656026 C226.700279,308.077365 226.982649,306.546069 227.011919,306.037942 C227.011919,304.954282 226.700279,304.114316 226.076998,303.499033 C225.445109,302.883749 224.579058,302.572651 223.47196,302.572651 C222.256391,302.572651 220.91341,303.07905 219.43441,304.095305 C217.957131,305.109831 216.79838,306.457925 215.952991,308.127487 C215.321102,309.307933 214.610011,311.739686 213.812831,315.400278 L211.245672,327.878783 L203.075874,327.878783 L209.417153,297.475821 Z M244.117703,329.518964 L252.764432,330.777184 C252.764432,331.656902 252.910782,332.320578 253.193153,332.759573 C253.475523,333.208937 253.931792,333.589169 254.563681,333.912365 C255.195571,334.223464 256.061621,334.380742 257.151502,334.380742 C258.990352,334.380742 260.46763,334.038533 261.57645,333.345475 C262.4029,332.807966 263.084721,331.948988 263.609861,330.758173 C263.93011,330.016721 264.3485,328.385183 264.8547,325.877383 L265.145679,324.451515 C262.170461,326.814135 259.086771,327.994581 255.906662,327.994581 C252.940052,327.994581 250.508913,326.940303 248.611523,324.842117 C246.715854,322.742202 245.761994,319.657142 245.761994,315.605948 C245.761994,312.031773 246.404214,308.751412 247.697263,305.773508 C248.992034,302.795604 250.810223,300.541869 253.153552,299.008845 C255.488272,297.475821 257.881532,296.713629 260.312671,296.713629 C262.316811,296.713629 264.15394,297.251138 265.8275,298.324428 C267.49073,299.408088 268.783779,300.91173 269.716978,302.854368 L270.777589,297.475821 L278.472178,297.475821 L273.647779,322.889109 C272.771398,326.940303 272.032759,329.83179 271.430139,331.568757 C270.825798,333.297082 270.135368,334.672828 269.35885,335.699453 C268.589219,336.732992 267.60781,337.591969 266.421511,338.286756 C265.23349,338.979814 263.844021,339.477572 262.229001,339.780028 C260.613981,340.082485 258.873272,340.238035 256.986212,340.238035 C252.716222,340.238035 249.487904,339.506953 247.308143,338.041334 C245.130104,336.567072 244.031615,334.126678 244.031615,330.718421 C244.031615,330.35893 244.059163,329.957958 244.117703,329.518964 Z M253.757893,314.776352 C253.757893,317.099221 254.272702,318.867297 255.304042,320.077125 C256.335383,321.297322 257.628432,321.903964 259.184912,321.903964 C260.643251,321.903964 262.053381,321.356085 263.425631,320.262056 C264.79616,319.169754 265.84644,317.62636 266.57647,315.616318 C267.306501,313.604548 267.674959,311.661911 267.674959,309.778037 C267.674959,307.619359 267.07234,305.872023 265.88604,304.553311 C264.68941,303.236327 263.308551,302.572651 261.74174,302.572651 C260.27307,302.572651 258.931812,303.156824 257.705912,304.319987 C256.480011,305.490063 255.469332,307.287521 254.670431,309.727916 C254.059203,311.603148 253.757893,313.281351 253.757893,314.776352 Z M325.553977,305.44167 L344.345373,305.44167 L340.600524,323.523405 C338.382884,324.949273 335.679705,326.160828 332.459996,327.156344 C329.250617,328.141489 325.982697,328.639246 322.645907,328.639246 C317.461658,328.639246 313.4947,327.467442 310.731259,325.115192 C306.958862,321.903964 305.071802,317.246129 305.071802,311.153784 C305.071802,307.062839 305.879312,303.137813 307.49261,299.399446 C309.43821,294.888518 312.19132,291.383475 315.77088,288.903329 C319.340109,286.412813 323.541228,285.173604 328.375958,285.173604 C333.208966,285.173604 337.079504,286.297015 339.997904,288.542109 C342.916304,290.797573 344.851574,294.067564 345.803713,298.374549 L337.809535,299.290562 C337.108775,296.927942 335.970685,295.142582 334.395265,293.941396 C332.830176,292.74021 330.855306,292.143938 328.482707,292.143938 C325.700327,292.143938 323.152108,292.876748 320.836327,294.331998 C318.513659,295.787247 316.693749,298.032341 315.38176,301.07765 C314.06805,304.114316 313.415499,307.44307 313.415499,311.036257 C313.415499,314.581052 314.2144,317.197736 315.81909,318.896679 C317.423779,320.585252 319.767108,321.43386 322.861128,321.43386 C324.708588,321.43386 326.614587,321.171155 328.560187,320.652657 C330.505787,320.125518 332.187956,319.501593 333.598086,318.779153 L334.901465,312.472495 L324.095638,312.472495 L325.553977,305.44167 Z M359.527941,297.475821 L367.210478,297.475821 L366.053448,303.196576 C368.873708,298.872307 371.928127,296.713629 375.225317,296.713629 C376.392677,296.713629 377.646125,297.007444 378.978775,297.601988 L375.827936,304.319987 C375.089297,304.055553 374.292118,303.919016 373.455337,303.919016 C372.045208,303.919016 370.614417,304.456525 369.156078,305.529814 C367.696017,306.603104 366.559649,308.028972 365.741808,309.82643 C364.915359,311.61179 364.107848,314.453156 363.310669,318.340158 L361.354738,327.878783 L353.18494,327.878783 L359.527941,297.475821 Z M411.775048,315.225717 L391.224003,315.225717 C391.203342,315.547185 391.194733,315.801249 391.194733,315.97581 C391.194733,318.016962 391.778413,319.657142 392.935442,320.906721 C394.092472,322.1563 395.512932,322.781953 397.176161,322.781953 C399.918941,322.781953 402.059101,321.376825 403.59492,318.563112 L410.890059,319.79368 C409.46099,322.742202 407.553269,324.949273 405.16173,326.423534 C402.76847,327.897795 400.094561,328.639246 397.117621,328.639246 C393.042192,328.639246 389.726063,327.341274 387.177844,324.753972 C384.619293,322.1563 383.345184,318.729031 383.345184,314.453156 C383.345184,310.284436 384.493604,306.575451 386.797332,303.314102 C389.929232,298.91033 394.414442,296.713629 400.230581,296.713629 C403.93583,296.713629 406.8835,297.866422 409.07187,300.170279 C411.258518,302.474136 412.348398,305.706104 412.348398,309.855812 C412.348398,311.846842 412.153838,313.63393 411.775048,315.225717 Z M404.87936,310.244685 C404.898299,309.874823 404.90863,309.601748 404.90863,309.406447 C404.90863,307.130243 404.40243,305.422658 403.390029,304.280236 C402.389681,303.137813 401.038091,302.572651 399.335261,302.572651 C397.642761,302.572651 396.125882,303.215587 394.782901,304.513559 C393.441642,305.80289 392.535992,307.716145 392.059061,310.244685 L404.87936,310.244685 Z M432.238284,305.968809 L424.242384,305.296491 C425.156644,302.602032 426.751003,300.502117 429.027183,298.988105 C431.303363,297.475821 434.309573,296.713629 438.063032,296.713629 C441.96284,296.713629 444.85197,297.505202 446.70976,299.076249 C448.57788,300.657667 449.51108,302.581292 449.51108,304.855768 C449.51108,305.773508 449.4336,306.750012 449.26831,307.776637 C449.10302,308.810175 448.53828,311.525373 447.56548,315.918775 C446.75797,319.549986 446.360241,322.097537 446.360241,323.552786 C446.360241,324.850758 446.59268,326.286996 447.05067,327.878783 L439.065102,327.878783 C438.753461,326.774384 438.558901,325.623319 438.481422,324.441145 C437.284792,325.778869 435.903932,326.814135 434.347452,327.545217 C432.792694,328.278026 431.215553,328.639246 429.640133,328.639246 C427.131514,328.639246 425.060225,327.80965 423.426265,326.150458 C421.792306,324.489538 420.974465,322.36197 420.974465,319.755656 C420.974465,316.845157 421.869785,314.511919 423.669035,312.774952 C425.468285,311.027616 428.677664,309.971609 433.297172,309.610389 C437.196981,309.278551 439.803741,308.88795 441.117451,308.429944 C441.458362,307.277151 441.632261,306.35941 441.632261,305.676722 C441.632261,304.788363 441.282741,304.055553 440.573372,303.46101 C439.872612,302.864737 438.822332,302.572651 437.431142,302.572651 C435.972803,302.572651 434.815773,302.864737 433.968663,303.46101 C433.121552,304.045183 432.537872,304.885149 432.238284,305.968809 Z M440.027571,313.642571 C439.531701,313.779109 438.880872,313.907005 438.063032,314.024531 C433.958332,314.522289 431.274093,315.255098 430.018922,316.221232 C429.125324,316.922932 428.677664,317.861412 428.677664,319.033217 C428.677664,320.00972 429.018574,320.820305 429.709004,321.492623 C430.389103,322.1563 431.294754,322.489866 432.412183,322.489866 C433.646692,322.489866 434.815773,322.185681 435.903932,321.570398 C437.004143,320.965484 437.820262,320.184281 438.355732,319.226789 C438.899812,318.271025 439.376742,316.777753 439.795132,314.746971 L440.027571,313.642571 Z M461.170905,303.568166 L462.396806,297.475821 L466.424025,297.475821 L467.405434,292.72984 L476.654782,287.048837 L474.545614,297.475821 L479.495703,297.475821 L478.269802,303.568166 L473.309383,303.568166 L470.645805,316.395793 C470.158544,318.69965 469.915775,320.00972 469.915775,320.331189 C469.915775,320.965484 470.110335,321.4546 470.508064,321.80545 C470.907514,322.1563 471.616884,322.332589 472.658554,322.332589 C473.018404,322.332589 473.912003,322.273826 475.353124,322.137288 L474.068684,328.210622 C472.667163,328.492339 471.227764,328.639246 469.750485,328.639246 C466.880295,328.639246 464.790066,328.074084 463.476355,326.950673 C462.172976,325.827262 461.522147,324.266584 461.522147,322.273826 C461.522147,321.337074 461.890605,319.188766 462.620636,315.820261 L465.217065,303.568166 L461.170905,303.568166 Z M500.356667,327.878783 L509.110145,285.935795 L517.689725,285.935795 L508.944855,327.878783 L500.356667,327.878783 Z M528.90189,297.475821 L536.64469,297.475821 L535.943929,301.117401 C538.950139,298.17752 542.109587,296.713629 545.417107,296.713629 C547.703618,296.713629 549.463267,297.192375 550.699497,298.139497 C551.944337,299.095261 552.731186,300.413973 553.072096,302.093905 C554.122376,300.56088 555.620316,299.290562 557.584855,298.257023 C559.549395,297.232127 561.582805,296.713629 563.691973,296.713629 C566.114503,296.713629 568.001563,297.377306 569.353153,298.696018 C570.706464,300.01473 571.376232,301.751696 571.376232,303.929386 C571.367623,304.973294 571.085253,306.779393 570.520513,309.347684 L566.562164,327.878783 L558.392365,327.878783 L562.321444,309.347684 C562.808705,307.023087 563.060084,305.695734 563.089354,305.382907 C563.089354,304.513559 562.837975,303.830871 562.321444,303.322744 C561.815244,302.824986 561.047335,302.572651 560.026325,302.572651 C557.973975,302.572651 556.135125,303.65631 554.521827,305.832271 C553.344136,307.384307 552.342066,310.147898 551.515616,314.102306 L548.647148,327.878783 L540.477349,327.878783 L544.308287,309.45484 C544.745617,307.335914 544.960838,305.960167 544.960838,305.325872 C544.960838,304.523929 544.687077,303.860253 544.153328,303.343483 C543.607527,302.824986 542.860279,302.572651 541.906418,302.572651 C541.011098,302.572651 540.086508,302.845726 539.142978,303.381507 C538.190839,303.919016 537.354059,304.651825 536.64469,305.598947 C535.92499,306.535699 535.31204,307.747255 534.795509,309.219788 C534.56307,309.914575 534.163619,311.475252 533.62987,313.907005 L530.73041,327.878783 L522.560612,327.878783 L528.90189,297.475821 Z M586.625948,297.475821 L594.377356,297.475821 L593.764406,300.569522 C595.419027,299.193775 596.973785,298.19826 598.423516,297.601988 C599.862915,297.007444 601.419395,296.713629 603.072295,296.713629 C606.254125,296.713629 608.810954,297.818029 610.747945,300.01473 C612.683214,302.220072 613.645684,305.500433 613.645684,309.864453 C613.645684,315.351885 611.972123,319.99935 608.626724,323.787838 C605.766864,327.018078 602.373256,328.639246 598.452786,328.639246 C594.416957,328.639246 591.372868,327.018078 589.310188,323.777468 L586.090478,339.477572 L577.93101,339.477572 L586.625948,297.475821 Z M591.527827,314.91289 C591.527827,317.315262 592.111507,319.178396 593.268537,320.497108 C594.435897,321.824461 595.797817,322.489866 597.373236,322.489866 C598.735156,322.489866 600.048867,321.990381 601.312646,321.005235 C602.576425,320.00972 603.626704,318.36954 604.454876,316.063955 C605.289934,313.770467 605.708324,311.63253 605.708324,309.669152 C605.708324,307.384307 605.164245,305.628329 604.065756,304.406403 C602.975875,303.186206 601.584685,302.572651 599.902516,302.572651 C598.327097,302.572651 596.896306,303.129171 595.603257,304.250854 C594.310207,305.374265 593.308137,307.023087 592.598768,309.200776 C591.887677,311.378466 591.527827,313.281351 591.527827,314.91289 Z M628.067228,297.475821 L635.751487,297.475821 L634.594458,303.196576 C637.414717,298.872307 640.469137,296.713629 643.766326,296.713629 C644.933686,296.713629 646.187135,297.007444 647.519785,297.601988 L644.368946,304.319987 C643.630307,304.055553 642.833127,303.919016 641.996347,303.919016 C640.586217,303.919016 639.155427,304.456525 637.697087,305.529814 C636.237027,306.603104 635.100658,308.028972 634.282818,309.82643 C633.456368,311.61179 632.648858,314.453156 631.851679,318.340158 L629.895748,327.878783 L621.72595,327.878783 L628.067228,297.475821 Z M680.316058,315.225717 L659.763291,315.225717 C659.744351,315.547185 659.735742,315.801249 659.735742,315.97581 C659.735742,318.016962 660.319422,319.657142 661.476452,320.906721 C662.633481,322.1563 664.053941,322.781953 665.717171,322.781953 C668.45995,322.781953 670.598389,321.376825 672.135929,318.563112 L679.431068,319.79368 C678.000278,322.742202 676.094278,324.949273 673.701018,326.423534 C671.30948,327.897795 668.633849,328.639246 665.658631,328.639246 C661.583201,328.639246 658.267073,327.341274 655.718853,324.753972 C653.160303,322.1563 651.886193,318.729031 651.886193,314.453156 C651.886193,310.284436 653.034614,306.575451 655.338342,303.314102 C658.470241,298.91033 662.95373,296.713629 668.771591,296.713629 C672.47684,296.713629 675.422788,297.866422 677.612879,300.170279 C679.799527,302.474136 680.889407,305.706104 680.889407,309.855812 C680.889407,311.846842 680.694847,313.63393 680.316058,315.225717 Z M673.42037,310.244685 C673.439309,309.874823 673.44964,309.601748 673.44964,309.406447 C673.44964,307.130243 672.943439,305.422658 671.931039,304.280236 C670.93069,303.137813 669.577379,302.572651 667.87627,302.572651 C666.183771,302.572651 664.666891,303.215587 663.323911,304.513559 C661.982652,305.80289 661.077001,307.716145 660.600071,310.244685 L673.42037,310.244685 Z M688.172494,319.423818 L696.109853,318.153499 C696.810614,319.843801 697.685273,321.034617 698.725222,321.736317 C699.766893,322.429375 701.177022,322.781953 702.976272,322.781953 C704.834062,322.781953 706.321671,322.36197 707.430491,321.513363 C708.208731,320.936102 708.597851,320.224032 708.597851,319.403078 C708.597851,318.837916 708.403291,318.340158 708.00384,317.899436 C707.58545,317.479453 706.457691,316.962683 704.620562,316.3474 C699.698022,314.707219 696.653933,313.398878 695.477964,312.443114 C693.639114,310.958483 692.724854,309.005476 692.724854,306.594463 C692.724854,304.183449 693.620174,302.102546 695.398762,300.35521 C697.879833,297.925185 701.566142,296.713629 706.449082,296.713629 C710.33856,296.713629 713.275899,297.436069 715.2611,298.872307 C717.25491,300.306817 718.508358,302.249454 719.043829,304.700218 L711.516251,306.027572 C711.1168,304.914531 710.47458,304.076293 709.58959,303.518044 C708.374021,302.766223 706.92429,302.396361 705.223182,302.396361 C703.520351,302.396361 702.294451,302.679807 701.547203,303.255339 C700.798233,303.830871 700.428052,304.494548 700.428052,305.237728 C700.428052,306.00856 700.806842,306.632486 701.566142,307.130243 C702.032742,307.44307 703.559952,307.980579 706.127111,308.74277 C710.106121,309.914575 712.76109,311.055269 714.102349,312.18905 C715.999739,313.779109 716.943269,315.694093 716.943269,317.928817 C716.943269,320.820305 715.736309,323.328104 713.324109,325.4574 C710.92224,327.574598 707.528632,328.639246 703.141562,328.639246 C698.775153,328.639246 695.409093,327.828662 693.026164,326.217863 C690.643234,324.607064 689.028214,322.342959 688.172494,319.423818 Z M726.561076,319.423818 L734.496714,318.153499 C735.197474,319.843801 736.072133,321.034617 737.113804,321.736317 C738.153753,322.429375 739.565604,322.781953 741.363132,322.781953 C743.222644,322.781953 744.710253,322.36197 745.819073,321.513363 C746.597313,320.936102 746.986433,320.224032 746.986433,319.403078 C746.986433,318.837916 746.791873,318.340158 746.392422,317.899436 C745.974032,317.479453 744.846273,316.962683 743.007422,316.3474 C738.086604,314.707219 735.042515,313.398878 733.864824,312.443114 C732.027696,310.958483 731.113436,309.005476 731.113436,306.594463 C731.113436,304.183449 732.007034,302.102546 733.787344,300.35521 C736.268415,297.925185 739.954724,296.713629 744.835942,296.713629 C748.727142,296.713629 751.664481,297.436069 753.64796,298.872307 C755.64177,300.306817 756.89694,302.249454 757.432411,304.700218 L749.904833,306.027572 C749.505382,304.914531 748.863162,304.076293 747.978172,303.518044 C746.762602,302.766223 745.312872,302.396361 743.611764,302.396361 C741.908933,302.396361 740.683033,302.679807 739.934063,303.255339 C739.185093,303.830871 738.816634,304.494548 738.816634,305.237728 C738.816634,306.00856 739.195424,306.632486 739.954724,307.130243 C740.421324,307.44307 741.948534,307.980579 744.515693,308.74277 C748.492981,309.914575 751.14795,311.055269 752.490931,312.18905 C754.388321,313.779109 755.331851,315.694093 755.331851,317.928817 C755.331851,320.820305 754.124891,323.328104 751.712691,325.4574 C749.310822,327.574598 745.915492,328.639246 741.530144,328.639246 C737.162013,328.639246 733.797675,327.828662 731.414745,326.217863 C729.031816,324.607064 727.416796,322.342959 726.561076,319.423818 Z M774.753416,285.935795 L782.912884,285.935795 L781.366734,293.374506 L773.196936,293.374506 L774.753416,285.935795 Z M772.341216,297.475821 L780.511015,297.475821 L774.169736,327.878783 L765.999938,327.878783 L772.341216,297.475821 Z M789.369521,315.26374 C789.369521,309.610389 790.94494,305.109831 794.10611,301.751696 C797.267279,298.393561 801.420188,296.713629 806.566559,296.713629 C811.020777,296.713629 814.502196,297.954566 817.012537,300.432984 C819.512547,302.913131 820.765995,306.243613 820.765995,310.441714 C820.765995,315.370896 819.200906,319.646772 816.069007,323.239959 C812.937107,326.843517 808.744598,328.639246 803.493199,328.639246 C800.64367,328.639246 798.11439,328.063714 795.91569,326.921291 C793.71699,325.768499 792.074421,324.138688 790.994872,322.040502 C789.915322,319.930217 789.369521,317.674753 789.369521,315.26374 Z M812.654737,309.358054 C812.654737,307.394677 812.089996,305.82363 810.962237,304.641455 C809.834478,303.46101 808.384748,302.864737 806.604438,302.864737 C804.844789,302.864737 803.277978,303.421258 801.916058,304.523929 C800.55586,305.628329 799.49525,307.239128 798.735949,309.337314 C797.97837,311.447599 797.597859,313.388508 797.597859,315.156584 C797.597859,317.353285 798.181539,319.090251 799.35923,320.379582 C800.535199,321.668912 802.014199,322.313577 803.794509,322.313577 C806.031088,322.313577 807.899208,321.337074 809.416088,319.394437 C811.575187,316.649857 812.654737,313.302091 812.654737,309.358054 Z M836.181001,297.475821 L843.990949,297.475821 L843.202379,301.468251 C845.147979,299.750296 846.976498,298.53874 848.668998,297.807659 C850.361498,297.074849 852.141808,296.713629 854.018537,296.713629 C856.518547,296.713629 858.493417,297.436069 859.941426,298.891319 C861.380825,300.346568 862.100525,302.268465 862.100525,304.670837 C862.091916,305.735485 861.740675,307.747255 861.050246,310.704419 L857.384598,327.878783 L849.213078,327.878783 L852.928657,310.656026 C853.464127,308.077365 853.746498,306.546069 853.775768,306.037942 C853.775768,304.954282 853.464127,304.114316 852.840847,303.499033 C852.208957,302.883749 851.342907,302.572651 850.235809,302.572651 C849.020239,302.572651 847.677259,303.07905 846.198258,304.095305 C844.719258,305.109831 843.562229,306.457925 842.71684,308.127487 C842.08495,309.307933 841.373859,311.739686 840.57668,315.400278 L838.009521,327.878783 L829.839722,327.878783 L836.181001,297.475821 Z M870.249662,319.423818 L878.187022,318.153499 C878.88606,319.843801 879.762441,321.034617 880.80239,321.736317 C881.844061,322.429375 883.25419,322.781953 885.05344,322.781953 C886.91123,322.781953 888.398839,322.36197 889.507659,321.513363 C890.285899,320.936102 890.675019,320.224032 890.675019,319.403078 C890.675019,318.837916 890.480459,318.340158 890.081008,317.899436 C889.662618,317.479453 888.534859,316.962683 886.696008,316.3474 C881.77519,314.707219 878.731101,313.398878 877.555132,312.443114 C875.716282,310.958483 874.802022,309.005476 874.802022,306.594463 C874.802022,304.183449 875.695621,302.102546 877.475931,300.35521 C879.957001,297.925185 883.64331,296.713629 888.52625,296.713629 C892.415728,296.713629 895.353068,297.436069 897.338268,298.872307 C899.330356,300.306817 900.585526,302.249454 901.120997,304.700218 L893.593419,306.027572 C893.193968,304.914531 892.551748,304.076293 891.666758,303.518044 C890.451189,302.766223 889.001458,302.396361 887.30035,302.396361 C885.597519,302.396361 884.371619,302.679807 883.624371,303.255339 C882.875401,303.830871 882.505221,304.494548 882.505221,305.237728 C882.505221,306.00856 882.88401,306.632486 883.64331,307.130243 C884.10991,307.44307 885.63712,307.980579 888.204279,308.74277 C892.183289,309.914575 894.838258,311.055269 896.179517,312.18905 C898.076908,313.779109 899.020438,315.694093 899.020438,317.928817 C899.020438,320.820305 897.813477,323.328104 895.401277,325.4574 C892.999408,327.574598 889.6058,328.639246 885.21873,328.639246 C880.8506,328.639246 877.486261,327.828662 875.103332,326.217863 C872.720402,324.607064 871.105382,322.342959 870.249662,319.423818 Z M911.554922,319.969969 L919.667902,319.969969 L918.092483,327.878783 L909.979503,327.878783 L911.554922,319.969969 Z M933.700327,319.969969 L941.813307,319.969969 L940.236166,327.878783 L932.124908,327.878783 L933.700327,319.969969 Z M963.60747,317.216747 L959.055111,317.216747 L961.730741,295.83564 L963.724551,285.935795 L972.302408,285.935795 L970.04689,296.55808 L963.60747,317.216747 Z M956.858132,319.969969 L965.057201,319.969969 L963.375032,327.878783 L955.262052,327.878783 L956.858132,319.969969 Z" id="Fill-7-Copy" fill="#000000"></path>
            <path d="M549.244602,76.129254 C549.244602,63.0233665 552.875815,52.8141515 560.158901,45.5223488 C567.441988,38.2115346 577.574604,34.5664975 590.573967,34.5664975 C603.891857,34.5664975 614.155327,38.1562282 621.362656,45.3166782 C628.571707,52.4961397 632.165041,62.5549905 632.165041,75.4742189 C632.165041,84.8590229 630.601674,92.5448837 627.452556,98.5456276 C624.305161,104.5481 619.742471,109.22149 613.800643,112.567527 C607.839875,115.915293 600.427656,117.579669 591.543323,117.579669 C582.528136,117.579669 575.059098,116.139975 569.13621,113.260586 C563.232261,110.362185 558.426801,105.799407 554.757709,99.5549693 C551.088617,93.3295431 549.244602,85.5140581 549.244602,76.129254 Z M573.941669,76.1845604 C573.941669,84.2800341 575.451662,90.1131306 578.449263,93.6475549 C581.467526,97.180251 585.563616,98.9569689 590.7427,98.9569689 C596.050917,98.9569689 600.184886,97.2182741 603.091234,93.759896 C606.014799,90.2825064 607.467973,84.0743635 607.467973,75.0818891 C607.467973,67.5291094 605.940763,62.0122964 602.905283,58.5349068 C599.849141,55.0385056 595.734111,53.2998108 590.51887,53.2998108 C585.527459,53.2998108 581.503683,55.0765287 578.487142,58.6092248 C575.451662,62.1436491 573.941669,68.0147687 573.941669,76.1845604 Z M644.010818,58.0112244 L664.72371,58.0112244 L664.72371,67.4910863 C667.814287,63.6023553 670.925525,60.8353072 674.09186,59.1709304 C677.258195,57.5065535 681.094298,56.6648593 685.639771,56.6648593 C691.786489,56.6648593 696.57301,58.498612 700.05615,62.1816723 C703.520351,65.845721 705.252452,71.5284532 705.252452,79.2143139 L705.252452,116.233304 L682.902156,116.233304 L682.902156,84.2057161 C682.902156,80.5416674 682.230666,77.9612784 680.889407,76.4472658 C679.54987,74.9315249 677.667976,74.165877 675.247167,74.165877 C672.583589,74.165877 670.403829,75.1942303 668.745764,77.2319253 C667.089422,79.2886319 666.25092,82.9526806 666.25092,88.2620946 L666.25092,116.233304 L644.010818,116.233304 L644.010818,58.0112244 Z M719.333086,116.233304 L741.571466,116.233304 L741.571466,35.9128625 L719.333086,35.9128625 L719.333086,116.233304 Z M830.3046,58.0112244 L851.015771,58.0112244 L851.015771,67.4910863 C854.108069,63.6023553 857.219308,60.8353072 860.385642,59.1709304 C863.551977,57.5065535 867.388081,56.6648593 871.933553,56.6648593 C878.07855,56.6648593 882.866792,58.498612 886.348211,62.1816723 C889.814134,65.845721 891.546234,71.5284532 891.546234,79.2143139 L891.546234,116.233304 L869.194217,116.233304 L869.194217,84.2057161 C869.194217,80.5416674 868.524449,77.9612784 867.18319,76.4472658 C865.841931,74.9315249 863.961759,74.165877 861.539228,74.165877 C858.877372,74.165877 856.697611,75.1942303 855.039547,77.2319253 C853.381482,79.2886319 852.544702,82.9526806 852.544702,88.2620946 L852.544702,116.233304 L830.3046,116.233304 L830.3046,58.0112244 Z M969.215275,92.674508 L924.624878,92.674508 C925.034659,96.2452272 925.985076,98.9206741 927.529504,100.676652 C929.671385,103.201735 932.484758,104.45477 935.948959,104.45477 C938.147659,104.45477 940.232722,103.912076 942.188653,102.826688 C943.399057,102.135358 944.702437,100.920346 946.081575,99.1816512 L967.98421,101.200335 C964.631924,107.033431 960.59093,111.240174 955.859506,113.765256 C951.128082,116.307622 944.330535,117.579669 935.484081,117.579669 C927.791213,117.579669 921.756409,116.494281 917.341791,114.306222 C912.946113,112.137174 909.29596,108.678796 906.389613,103.948371 C903.503926,99.2006627 902.050753,93.6285434 902.050753,87.2337413 C902.050753,78.1289259 904.955378,70.7437937 910.766352,65.1163679 C916.560108,59.4889421 924.586999,56.6648593 934.81259,56.6648593 C943.12013,56.6648593 949.657691,57.9369064 954.46315,60.4602607 C959.26861,62.9853434 962.937702,66.6303805 965.451486,71.436852 C967.966992,76.2225836 969.215275,82.4670213 969.215275,90.1511537 L969.215275,92.674508 Z M946.639428,82.0176569 C946.212429,77.6812897 945.038182,74.5772183 943.158009,72.7071708 C941.276115,70.8371232 938.817427,69.9020995 935.744068,69.9020995 C932.205831,69.9020995 929.373519,71.3245109 927.250577,74.1468654 C925.909318,75.9045718 925.053599,78.5212556 924.679975,82.0176569 L946.639428,82.0176569 Z" id="Fill-8-Copy" fill="#000000"></path>
            <path d="M307.539098,122.711066 L371.721515,122.711066 C384.34381,122.711066 393.622428,124.442848 399.476446,127.871844 C405.313246,131.33195 408.99439,136.262861 410.499217,142.695686 C411.954113,149.16135 411.442747,156.639812 408.930685,165.19502 C406.449614,173.750228 402.523979,182.79628 397.167553,192.364287 C388.775646,207.35232 380.574856,218.977033 372.53419,227.238426 C364.524517,235.499819 355.931163,242.423488 346.755851,248.005978 C337.577096,253.590195 329.019899,257.313007 321.048105,259.174413 C310.156188,261.721964 300.855187,262.995739 293.177815,262.995739 L228.995398,262.995739 L307.539098,122.711066 Z M332.902491,154.451752 L290.01148,231.059752 L300.615861,231.059752 C309.660319,231.059752 316.667922,230.046954 321.621454,228.054195 C326.561212,226.030327 331.509579,222.535654 336.487216,217.540795 C341.48207,212.51137 347.089875,204.412439 353.3795,193.180056 C361.697371,178.321647 364.975621,168.16601 363.202198,162.680307 C361.425331,157.194604 354.92565,154.451752 343.703153,154.451752 L332.902491,154.451752 Z" id="Fill-9-Copy" fill="#000000"></path>
            <path d="M0,262.518722 C5.1670315,263.426092 56.3018761,262.769329 67.7946903,262.82982 C75.0037409,262.867843 74.2840411,263.543618 79.4527943,260.176841 L121.371005,232.138227 L190.847864,232.044897 L205.851367,204.891185 L166.415949,204.692428 C166.985855,203.887029 234.353546,163.07955 238.089787,161.68652 L182.068559,262.634519 L230.152428,262.862658 L287.241153,159.866594 C290.862035,153.269578 305.875868,127.58667 307.559759,122.711066 C269.334745,123.21228 241.860463,120.085741 209.238088,135.042664 C196.979087,140.663176 152.500605,169.769896 138.106608,178.427075 L0,262.518722" id="Fill-10-Copy" fill="#FF0000"></path>
            <path d="M228.995398,262.862658 L306.40273,122.711066" id="Stroke-11-Copy" stroke="#FFFFFE" stroke-width="4.82820531" stroke-dasharray="24.14283854166667,14.48461608886719"></path>
            <path d="M786.84885,130.877303 L786.84885,53.5780711" id="Stroke-12-Copy" stroke="#FFFFFF" stroke-width="7.24412035"></path>
            <path d="M785.97419,24.1965482 C794.049291,24.1965482 800.595461,30.7693677 800.595461,38.8752114 C800.595461,46.981055 794.049291,53.5521462 785.97419,53.5521462 C777.89909,53.5521462 771.35292,46.981055 771.35292,38.8752114 C771.35292,30.7693677 777.89909,24.1965482 785.97419,24.1965482 Z" id="Stroke-13-Copy" stroke="#FFFFFF" stroke-width="7.24230796"></path>
        </g>
        <rect id="Rectangle" x="0" y="0" width="1024" height="358.4"></rect>
    </g>
</svg>