<?xml version="1.0" standalone="no"?>
<!DOCTYPE svg PUBLIC "-//W3C//DTD SVG 1.1//EN" "http://www.w3.org/Graphics/SVG/1.1/DTD/svg11.dtd" >
<svg xmlns="http://www.w3.org/2000/svg" xmlns:xlink="http://www.w3.org/1999/xlink" version="1.1">
<metadata>
Created by FontForge 20170731 at Mon Apr  4 01:13:53 2016
 By Aleksey,,,
Copyright (c) 2015 by thmbnl. graphic design. All rights reserved
</metadata>
<defs>
<font id="Odudo-SemiBold" horiz-adv-x="586" >
  <font-face 
    font-family="Odudo Semi Bold"
    font-weight="600"
    font-stretch="normal"
    units-per-em="1000"
    panose-1="0 0 7 0 0 0 0 0 0 0"
    ascent="800"
    descent="-200"
    x-height="500"
    cap-height="740"
    bbox="-418 -247 1149 1007"
    underline-thickness="50"
    underline-position="-200"
    unicode-range="U+0020-25CA"
  />
<missing-glyph horiz-adv-x="470" 
d="M385 740v-940h-298v940h298zM313 677h-155v-31h61v-35h-62v-31h156v31h-62v35h62v31zM251 556h-94v-98h156v32h-62v66zM219 524v-34h-31v34h31zM313 433h-156v-31h62v-35h-62v-31h94v66h62v31zM313 376h-31v-62h-125v-32h156v94zM313 262h-94v-53h32v22h31v-45h-94v76
h-31v-107h156v107zM313 99h-156v-106h156v106zM282 68v-44h-94v44h94zM313 -29h-156v-31h66l-66 -44v-31h156v31h-96l66 44h30v31z" />
    <glyph glyph-name=".notdef" horiz-adv-x="470" 
d="M385 740v-940h-298v940h298zM313 677h-155v-31h61v-35h-62v-31h156v31h-62v35h62v31zM251 556h-94v-98h156v32h-62v66zM219 524v-34h-31v34h31zM313 433h-156v-31h62v-35h-62v-31h94v66h62v31zM313 376h-31v-62h-125v-32h156v94zM313 262h-94v-53h32v22h31v-45h-94v76
h-31v-107h156v107zM313 99h-156v-106h156v106zM282 68v-44h-94v44h94zM313 -29h-156v-31h66l-66 -44v-31h156v31h-96l66 44h30v31z" />
    <glyph glyph-name=".null" horiz-adv-x="0" 
 />
    <glyph glyph-name="nonmarkingreturn" horiz-adv-x="333" 
 />
    <glyph glyph-name="space" unicode=" " horiz-adv-x="291" 
 />
    <glyph glyph-name="exclam" unicode="!" horiz-adv-x="227" 
d="M49 174v566h129v-566h-129zM114 0q-29 0 -50 21t-21 50t21 49t50 20t49.5 -20t20.5 -49t-20.5 -50t-49.5 -21z" />
    <glyph glyph-name="quotedbl" unicode="&#x22;" horiz-adv-x="382" 
d="M87 544l-49 196h108l50 -196h-109zM240 544l-49 196h108l50 -196h-109z" />
    <glyph glyph-name="numbersign" unicode="#" horiz-adv-x="742" 
d="M714 544l-21 -104h-136l-25 -133h133l-21 -103h-132l-38 -204h-107l40 204h-142l-39 -204h-106l40 204h-127l21 103h126l25 133h-123l21 104h122l38 196h106l-38 -196h141l39 196h104l-37 -196h136zM427 307l26 133h-141l-27 -133h142z" />
    <glyph glyph-name="dollar" unicode="$" horiz-adv-x="525" 
d="M486 210q0 -81 -49.5 -140.5t-128.5 -73.5v-105h-111v109q-78 20 -159 85l68 117q80 -67 150 -67q40 0 65 22t25 56q0 40 -36.5 69t-120.5 71q-149 74 -144 197q3 68 44.5 118t107.5 69v103h111v-97q67 -10 129 -52l-65 -101q-53 36 -103 36q-39 0 -64.5 -22t-25.5 -56
q0 -18 8 -32.5t26.5 -28t31.5 -21t42 -21.5q3 -2 4.5 -2.5t4.5 -2l5 -2.5q33 -15 57.5 -30t57.5 -42.5t51.5 -67.5t18.5 -88z" />
    <glyph glyph-name="percent" unicode="%" horiz-adv-x="810" 
d="M208 402q70 0 120 49.5t50 119.5t-50 120t-120 50t-120 -49.5t-50 -120.5q0 -70 49.5 -119.5t120.5 -49.5zM271 0l389 740h-117l-389 -740h117zM208 638q27 0 47 -19.5t20 -47.5q0 -26 -20 -45.5t-47 -19.5t-46.5 19.5t-19.5 45.5q0 28 19.5 47.5t46.5 19.5zM607 -1
q70 0 120 50t50 120t-50 120t-120 50t-120 -50t-50 -120t50 -120t120 -50zM607 235q28 0 47 -19t19 -47q0 -27 -19.5 -46.5t-46.5 -19.5t-46.5 19.5t-19.5 46.5q0 28 19 47t47 19z" />
    <glyph glyph-name="ampersand" unicode="&#x26;" horiz-adv-x="620" 
d="M586 323l-80 -167l63 -76l-95 -80l-41 50q-69 -59 -157 -59q-98 0 -168 70t-70 168q0 114 87 184q-50 59 -50 132q0 83 59.5 142t141.5 59q83 0 142 -59t59 -142q0 -67 -39.5 -119.5t-101.5 -69.5l82 -96l56 117zM276 621q-32 0 -54 -22.5t-22 -54.5t22 -54.5t54 -22.5
t54 22.5t22 54.5t-22 54.5t-54 22.5zM278 115q42 0 73 30l-145 173q-44 -33 -44 -90q0 -50 34.5 -81.5t81.5 -31.5z" />
    <glyph glyph-name="quotesingle" unicode="'" horiz-adv-x="229" 
d="M87 544l-49 196h108l50 -196h-109z" />
    <glyph glyph-name="parenleft" unicode="(" horiz-adv-x="327" 
d="M294 -25q-65 99 -95 180t-30 181q0 101 30 184.5t92 175.5l-96 61q-142 -195 -142 -426q0 -216 141 -420z" />
    <glyph glyph-name="parenright" unicode=")" horiz-adv-x="327" 
d="M33 -25l100 -64q141 204 141 420q0 230 -141 426l-97 -61q62 -92 92 -175.5t30 -184.5q0 -100 -30 -181t-95 -180z" />
    <glyph glyph-name="asterisk" unicode="*" horiz-adv-x="411" 
d="M378 568v-79h-78l56 -55l-56 -55l-54 55v-79h-79v79l-56 -55l-54 55l54 55h-78v79h78l-54 54l54 56l56 -55v78h79v-78l54 55l56 -56l-56 -54h78z" />
    <glyph glyph-name="plus" unicode="+" horiz-adv-x="598" 
d="M570 331v-114h-212v-218h-113v218h-212v114h212v205h113v-205h212z" />
    <glyph glyph-name="comma" unicode="," horiz-adv-x="224" 
d="M138 -83l48 196h-108l-50 -196h110z" />
    <glyph glyph-name="hyphen" unicode="-" horiz-adv-x="407" 
d="M364 236v129h-321v-129h321z" />
    <glyph glyph-name="period" unicode="." horiz-adv-x="207" 
d="M174 70q0 29 -20.5 49.5t-50.5 20.5q-29 0 -49.5 -20.5t-20.5 -49.5q0 -28 20.5 -49t49.5 -21q30 0 50.5 20.5t20.5 49.5z" />
    <glyph glyph-name="slash" unicode="/" horiz-adv-x="449" 
d="M23 0h110l287 740h-111z" />
    <glyph glyph-name="zero" unicode="0" horiz-adv-x="599" 
d="M300 -6q100 0 171.5 71t71.5 172v266q0 101 -71.5 172t-171.5 71t-172 -71.5t-72 -171.5v-266q0 -100 72 -171.5t172 -71.5zM187 503q0 46 33 79.5t80 33.5q46 0 79 -33.5t33 -79.5v-266q0 -46 -33 -79.5t-79 -33.5q-47 0 -80 33.5t-33 79.5v266z" />
    <glyph glyph-name="one" unicode="1" horiz-adv-x="367" 
d="M295 740v-740h-131v625h-128v115h259z" />
    <glyph glyph-name="two" unicode="2" horiz-adv-x="560" 
d="M504 132v-132h-425v132l257 300q35 40 31.5 91t-42.5 81q-37 30 -88 20t-88 -59l-88 72q61 92 166 109t184 -50q77 -65 82.5 -167t-60.5 -177l-186 -220h257z" />
    <glyph glyph-name="three" unicode="3" horiz-adv-x="589" 
d="M441 415q87 -71 87 -181q0 -98 -69.5 -169t-170.5 -71q-88 0 -156.5 56t-88.5 146l119 45q17 -54 50.5 -82.5t76.5 -28.5q45 0 76.5 31t31.5 76q0 46 -33 78.5t-80 32.5h-37v123h38q31 0 52.5 21.5t21.5 52.5q0 30 -21.5 51.5t-52.5 21.5q-46 0 -70 -46l-101 63
q25 44 71 77.5t109 33.5q83 0 139.5 -59.5t56.5 -142.5q0 -74 -49 -129z" />
    <glyph glyph-name="four" unicode="4" horiz-adv-x="619" 
d="M571 260v-123h-79v-137h-131v137h-313v123l343 480h101v-480h79zM189 260h172v241z" />
    <glyph glyph-name="five" unicode="5" horiz-adv-x="576" 
d="M267 510q105 0 179.5 -75.5t74.5 -180.5q0 -107 -75.5 -183.5t-178.5 -76.5q-63 0 -118.5 30.5t-95.5 80.5l103 86q41 -60 111 -60q52 0 87.5 36t35.5 88t-36 88t-88 36q-43 0 -79 -26l-102 76l47 311h333v-131h-223l-15 -106q21 7 40 7z" />
    <glyph glyph-name="six" unicode="6" horiz-adv-x="623" 
d="M327 509q105 -1 179 -76t74 -181q0 -107 -75.5 -182.5t-182.5 -75.5q-106 0 -181.5 76t-75.5 182q0 67 29 119l220 369l113 -65zM322 125q53 0 90.5 37t37.5 90q0 52 -37.5 89.5t-90.5 37.5q-52 0 -89 -38t-37 -89q0 -53 37 -90t89 -37z" />
    <glyph glyph-name="seven" unicode="7" horiz-adv-x="495" 
d="M459 740v-131l-211 -609h-140l211 609h-282v131h422z" />
    <glyph glyph-name="eight" unicode="8" horiz-adv-x="589" 
d="M443 413q41 -33 64.5 -81t23.5 -101q0 -98 -69.5 -167.5t-167.5 -69.5t-167 69.5t-69 167.5q0 53 23.5 101t64.5 81q-52 57 -52 133q0 83 59 141.5t141 58.5q83 0 142 -58.5t59 -141.5q0 -76 -52 -133zM294 621q-31 0 -53 -22t-22 -53q0 -32 22 -54t53 -22q32 0 54.5 22
t22.5 54q0 31 -22.5 53t-54.5 22zM294 119q47 0 79.5 32.5t32.5 79.5q0 46 -32.5 79t-79.5 33q-46 0 -79 -33t-33 -79q0 -47 33 -79.5t79 -32.5z" />
    <glyph glyph-name="nine" unicode="9" horiz-adv-x="592" 
d="M301 748q106 0 181.5 -76t75.5 -182q0 -67 -29 -119l-210 -371h-153l133 233h-1q-105 0 -180 75.5t-75 181.5t75.5 182t182.5 76zM301 363q53 0 90 38t37 90t-37.5 89t-89.5 37q-53 0 -90.5 -37t-37.5 -90q0 -52 37.5 -89.5t90.5 -37.5z" />
    <glyph glyph-name="colon" unicode=":" horiz-adv-x="202" 
d="M174 430q0 28 -21 49t-50 21t-49.5 -21t-20.5 -49q0 -29 20.5 -49.5t49.5 -20.5t50 20.5t21 49.5zM174 70q0 30 -21 50.5t-50 20.5t-49.5 -20.5t-20.5 -50.5q0 -29 20.5 -49.5t49.5 -20.5t50 20.5t21 49.5z" />
    <glyph glyph-name="semicolon" unicode=";" horiz-adv-x="234" 
d="M125 360q-29 0 -49.5 20.5t-20.5 49.5q0 28 20.5 49t49.5 21t50 -21t21 -49q0 -29 -21 -49.5t-50 -20.5zM33 -83l50 196h108l-48 -196h-110z" />
    <glyph glyph-name="less" unicode="&#x3c;" horiz-adv-x="453" 
d="M420 -18v134l-227 134l227 133v134l-372 -220v-94z" />
    <glyph glyph-name="equal" unicode="=" horiz-adv-x="605" 
d="M562 306v114h-514v-114h514zM562 139v115h-514v-115h514z" />
    <glyph glyph-name="greater" unicode="&#x3e;" horiz-adv-x="453" 
d="M33 -18l372 221v94l-372 220v-134l228 -133l-228 -134v-134z" />
    <glyph glyph-name="question" unicode="?" horiz-adv-x="500" 
d="M462 523q0 94 -66.5 160t-159.5 66q-68 0 -124.5 -37.5t-83.5 -100.5l122 -51q18 44 62 54.5t81 -16t37 -73.5q0 -39 -28 -67t-66 -28h-66v-256h131v135q69 20 115 79t46 135zM312 71q0 29 -21 49.5t-50 20.5t-49.5 -20.5t-20.5 -49.5q0 -30 20.5 -50.5t49.5 -20.5
t50 20.5t21 50.5z" />
    <glyph glyph-name="at" unicode="@" horiz-adv-x="828" 
d="M415 746q156 0 265.5 -110.5t109.5 -270.5q0 -103 -45 -174t-124 -71q-47 0 -84.5 26.5t-52.5 62.5q-42 -25 -88 -25q-74 0 -127 53t-53 127q0 75 53 128t128 53q45 0 85 -23v19h95v-278q1 -16 12 -28t29 -12q46 0 57 84q18 77 -9 155.5t-94 131.5t-156 53
q-115 0 -194.5 -81.5t-79.5 -194.5q0 -114 79.5 -193.5t191.5 -79.5q36 0 74 10l24 -101q-46 -13 -96 -13q-156 0 -266.5 110.5t-110.5 265.5t110.5 265.5t266.5 110.5zM396 288q32 0 54.5 22.5t22.5 54.5t-22.5 54t-54.5 22t-54 -22.5t-22 -53.5q0 -32 22.5 -54.5
t53.5 -22.5z" />
    <glyph glyph-name="A" unicode="A" horiz-adv-x="779" 
d="M741 0l-143 1l-53 132h-305l-54 -133h-143l295 740h104zM292 264h201l-101 253z" />
    <glyph glyph-name="B" unicode="B" horiz-adv-x="540" 
d="M424 381q76 -64 76 -163q0 -91 -63.5 -154.5t-154.5 -63.5h-227v740h205q91 0 154.5 -63.5t63.5 -153.5q0 -81 -54 -142zM181 609v-173h75q35 0 61 25.5t26 60.5q0 36 -26 61.5t-61 25.5h-75zM278 131q35 0 61 25.5t26 61.5q0 35 -26 60.5t-61 25.5h-97v-173h97z" />
    <glyph glyph-name="C" unicode="C" horiz-adv-x="738" 
d="M411 -6q159 0 274 115l-78 102q-86 -86 -197 -86q-101 0 -173 72t-72 173t72 173t173 72t197 -88l78 96q-121 123 -276 123q-154 0 -264 -110.5t-110 -265.5t110 -265.5t266 -110.5z" />
    <glyph glyph-name="D" unicode="D" horiz-adv-x="683" 
d="M279 740q153 0 261.5 -108.5t108.5 -261.5t-108.5 -261.5t-261.5 -108.5h-224v740h224zM279 131q98 0 168 70t70 169t-70 169t-168 70h-93v-478h93z" />
    <glyph glyph-name="E" unicode="E" horiz-adv-x="509" 
d="M464 131v-131h-409v740h409v-131h-278v-181h260v-115h-260v-182h278z" />
    <glyph glyph-name="F" unicode="F" horiz-adv-x="482" 
d="M186 0h-131v740h392v-131h-261v-181h243v-115h-243v-313z" />
    <glyph glyph-name="G" unicode="G" horiz-adv-x="818" 
d="M773 423v-69q-6 -152 -111.5 -256t-254.5 -104q-157 0 -262 110t-105 266q0 155 110 265.5t265 110.5q149 0 270 -123l-78 -96q-95 88 -192 88q-101 0 -172.5 -72t-71.5 -173q0 -104 68.5 -174.5t167.5 -70.5q83 0 146 51.5t80 131.5h-277v115h417z" />
    <glyph glyph-name="H" unicode="H" horiz-adv-x="614" 
d="M434 740h130v-740h-130v312h-249v-312h-130v740h130v-312h249v312z" />
    <glyph glyph-name="I" unicode="I" horiz-adv-x="234" 
d="M55 0h129v740h-129v-740z" />
    <glyph glyph-name="J" unicode="J" horiz-adv-x="369" 
d="M184 740h130v-545q0 -93 -50.5 -144t-143.5 -51h-80v130h79q26 0 45 18.5t19 45.5z" />
    <glyph glyph-name="K" unicode="K" horiz-adv-x="608" 
d="M560 0h-158l-192 316l-25 -33v-283h-130v740h130v-252l186 252h152l-228 -309z" />
    <glyph glyph-name="L" unicode="L" horiz-adv-x="477" 
d="M448 0v131h-262v609h-131v-740h393z" />
    <glyph glyph-name="M" unicode="M" horiz-adv-x="839" 
d="M789 740v-740h-132v431l-199 -406h-71l-201 406v-431h-131v740h108l259 -528l259 528h108z" />
    <glyph glyph-name="N" unicode="N" horiz-adv-x="680" 
d="M500 740h131v-740h-102l-343 494v-494h-131v740h99l346 -496v496z" />
    <glyph glyph-name="O" unicode="O" horiz-adv-x="832" 
d="M416 746q156 0 266 -110t110 -266t-110 -266t-266 -110q-155 0 -265.5 110t-110.5 266t110.5 266t265.5 110zM415 616q-101 0 -172.5 -72t-71.5 -174q0 -101 71.5 -173t172.5 -72t173.5 72.5t72.5 172.5t-72.5 173t-173.5 73z" />
    <glyph glyph-name="P" unicode="P" horiz-adv-x="532" 
d="M283 740q93 0 158.5 -65t65.5 -157t-65.5 -158t-158.5 -66h-97v-294h-131v740h228zM283 426q39 0 65.5 26.5t26.5 65.5q0 38 -26.5 64.5t-65.5 26.5h-97v-183h97z" />
    <glyph glyph-name="Q" unicode="Q" horiz-adv-x="832" 
d="M709 135l56 -55l-82 -80l-58 58q-93 -65 -209 -65q-156 0 -266 110t-110 267q0 155 110.5 265t265.5 110t265.5 -110t110.5 -265q0 -133 -83 -235zM416 124q62 0 113 30l-50 52l80 79l56 -55q46 60 46 140q0 101 -71.5 172.5t-173.5 71.5q-103 0 -174.5 -71t-71.5 -173
q0 -103 71.5 -174.5t174.5 -71.5z" />
    <glyph glyph-name="R" unicode="R" horiz-adv-x="587" 
d="M403 0l-169 295h-48v-295h-132v740h229q92 0 157 -65t65 -157q0 -69 -38 -125t-99 -81l184 -312h-149zM186 609v-183h97q38 0 65 26.5t27 65.5q0 38 -27 64.5t-65 26.5h-97z" />
    <glyph glyph-name="S" unicode="S" horiz-adv-x="533" 
d="M272 -8q96 0 159.5 63t63.5 155q0 146 -185 231q-6 3 -22.5 11t-22.5 11t-20 10.5t-19.5 12t-14.5 12.5t-13 15t-7 16t-3 19q0 34 25.5 56t64.5 22q46 0 102 -36l66 101q-76 52 -162 55q-94 3 -160 -52t-70 -144q-6 -126 144 -206q11 -6 37 -18.5t38 -19t30.5 -18.5
t27.5 -22t16 -24.5t7 -30.5q0 -34 -25 -55t-64 -21q-69 0 -151 66l-67 -116q117 -93 225 -93z" />
    <glyph glyph-name="T" unicode="T" horiz-adv-x="517" 
d="M492 740v-131h-166v-609h-130v609h-166v131h462z" />
    <glyph glyph-name="U" unicode="U" 
d="M296 -6q100 0 170.5 70.5t70.5 170.5v505h-131v-505q0 -45 -32 -77.5t-78 -32.5t-78.5 32.5t-32.5 77.5v505h-130v-505q0 -100 70.5 -170.5t170.5 -70.5z" />
    <glyph glyph-name="V" unicode="V" horiz-adv-x="719" 
d="M681 740l-270 -740h-97l-271 740h142l177 -498l177 498h142z" />
    <glyph glyph-name="W" unicode="W" horiz-adv-x="939" 
d="M904 740l-207 -740h-106l-120 451l-118 -451h-106l-207 740h143l128 -454l117 443h88l117 -443l127 454h144z" />
    <glyph glyph-name="X" unicode="X" horiz-adv-x="750" 
d="M455 370l248 -370h-155l-172 256l-173 -256h-154l247 370l-247 370h154l173 -256l172 256h155z" />
    <glyph glyph-name="Y" unicode="Y" horiz-adv-x="692" 
d="M649 740l-235 -404v-336h-131v336l-235 404h159l141 -250l142 250h159z" />
    <glyph glyph-name="Z" unicode="Z" horiz-adv-x="605" 
d="M575 131v-131h-522v131l341 487h-359v122h519v-121l-342 -488h363z" />
    <glyph glyph-name="bracketleft" unicode="[" horiz-adv-x="304" 
d="M265 -130v117h-94v675h94v118h-212v-910h212z" />
    <glyph glyph-name="backslash" unicode="\" horiz-adv-x="449" 
d="M425 0l-286 740h-111l287 -740h110z" />
    <glyph glyph-name="bracketright" unicode="]" horiz-adv-x="304" 
d="M38 -130h212v910h-212v-118h95v-675h-95v-117z" />
    <glyph glyph-name="asciicircum" unicode="^" horiz-adv-x="611" 
d="M38 280h135l133 228l133 -228h134l-220 372h-94z" />
    <glyph glyph-name="underscore" unicode="_" horiz-adv-x="581" 
d="M553 -98v98h-525v-98h525z" />
    <glyph glyph-name="grave" unicode="`" horiz-adv-x="267" 
d="M181 565l48 93l-199 106l-52 -92z" />
    <glyph glyph-name="a" unicode="a" horiz-adv-x="601" 
d="M552 500v-500h-110v43q-67 -51 -148 -51q-107 0 -182.5 76t-75.5 183q0 106 75.5 181.5t182.5 75.5q82 0 147 -51v43h111zM297 123q52 0 89 37.5t37 90.5t-36.5 89.5t-89.5 36.5t-89.5 -36.5t-36.5 -89.5t37 -90.5t89 -37.5z" />
    <glyph glyph-name="b" unicode="b" horiz-adv-x="600" 
d="M307 508q107 0 182.5 -76t75.5 -182t-75.5 -182t-182.5 -76q-82 0 -148 51v-43h-109v700h130v-231q57 39 127 39zM305 124q51 0 88.5 37t37.5 89t-37.5 89t-88.5 37t-88.5 -37t-37.5 -89t37.5 -89t88.5 -37z" />
    <glyph glyph-name="c" unicode="c" horiz-adv-x="525" 
d="M295 -8q100 0 191 88l-81 96q-48 -51 -108 -51q-52 0 -89 37t-37 89t37 89.5t89 37.5q58 0 107 -48l82 93q-83 85 -190 85q-106 0 -181 -75.5t-75 -182.5q0 -106 75 -182t180 -76z" />
    <glyph glyph-name="d" unicode="d" horiz-adv-x="600" 
d="M293 508q71 0 126 -39v231h131v-700h-109v43q-66 -51 -148 -51q-107 0 -182.5 75.5t-75.5 182.5t75.5 182.5t182.5 75.5zM295 124q51 0 88.5 37t37.5 89t-37.5 89t-88.5 37q-52 0 -89 -37t-37 -89t37 -89t89 -37z" />
    <glyph glyph-name="e" unicode="e" horiz-adv-x="582" 
d="M548 209h-378q17 -46 54 -70t80 -24q71 0 135 54l77 -93q-96 -84 -214 -84q-113 0 -189.5 77t-76.5 186q0 106 74.5 179.5t182.5 73.5q111 0 183 -82t72 -217zM171 309h235q-8 38 -39.5 64.5t-76.5 26.5t-78 -25.5t-41 -65.5z" />
    <glyph glyph-name="f" unicode="f" horiz-adv-x="351" 
d="M242 582q-27 0 -45.5 -18.5t-18.5 -44.5v-19h143v-114h-143l-1 -386h-129v513q0 89 53.5 138t140.5 49h79v-118h-79z" />
    <glyph glyph-name="g" unicode="g" horiz-adv-x="602" 
d="M552 500v-462q0 -120 -66 -183t-160 -63q-89 0 -157 51l50 105q56 -30 99 -30q49 0 79 30.5t30 86.5q-62 -43 -133 -43q-106 0 -181.5 76t-75.5 183t75.5 182t181.5 75q81 0 147 -50v42h111zM297 123q52 0 89 37.5t37 90.5q0 52 -37 89t-89 37t-89 -37t-37 -89
q0 -53 37 -90.5t89 -37.5z" />
    <glyph glyph-name="h" unicode="h" horiz-adv-x="517" 
d="M270 508q91 0 155 -64t64 -155v-289h-131v289q0 36 -26 62t-62 26t-62 -26t-26 -62v-289h-132v700h132v-215q43 23 88 23z" />
    <glyph glyph-name="i" unicode="i" horiz-adv-x="235" 
d="M197 612q0 30 -22 52.5t-55 22.5q-30 0 -53 -23t-23 -52q0 -34 22.5 -55.5t53.5 -21.5q34 0 55.5 21.5t21.5 55.5zM185 0v500h-129v-500h129z" />
    <glyph glyph-name="j" unicode="j" horiz-adv-x="301" 
d="M257 612q0 30 -22.5 52.5t-53.5 22.5t-54 -22.5t-23 -53.5t22.5 -53t54.5 -22q31 0 53.5 22t22.5 54zM246 35v465h-131v-465q0 -91 -95 -132l67 -111q159 67 159 243z" />
    <glyph glyph-name="k" unicode="k" horiz-adv-x="545" 
d="M498 0h-157l-137 190l-23 -28v-162h-131v700h131v-357l139 157h155l-188 -216z" />
    <glyph glyph-name="l" unicode="l" horiz-adv-x="287" 
d="M260 131v-131h-33q-92 0 -134.5 44.5t-42.5 142.5v513h131v-515q0 -25 13.5 -39.5t35.5 -14.5h30z" />
    <glyph glyph-name="m" unicode="m" horiz-adv-x="826" 
d="M352 0v292q0 35 -25.5 60.5t-60.5 25.5t-60.5 -25.5t-25.5 -60.5v-292h-130v500h104v-35q52 43 120 43q82 0 143 -64q62 64 153 64q89 0 152.5 -63.5t63.5 -152.5v-292h-132v292q0 35 -25 60.5t-60 25.5t-60.5 -25.5t-25.5 -60.5v-292h-131z" />
    <glyph glyph-name="n" unicode="n" horiz-adv-x="522" 
d="M274 508q87 0 147.5 -63t60.5 -153v-292h-130v292q0 35 -25.5 60.5t-60.5 25.5q-36 0 -61.5 -25.5t-25.5 -60.5v-292h-130v500h104v-33q55 41 121 41z" />
    <glyph glyph-name="o" unicode="o" 
d="M293 508q107 0 182.5 -76t75.5 -182t-75.5 -182t-182.5 -76t-182.5 76t-75.5 182t75.5 182t182.5 76zM293 376q-53 0 -90 -37t-37 -89t37 -89.5t90 -37.5q52 0 89 37t37 90q0 52 -36.5 89t-89.5 37z" />
    <glyph glyph-name="p" unicode="p" horiz-adv-x="600" 
d="M307 -8q-70 0 -127 39v-231h-130v700h109v-43q66 51 148 51q107 0 182.5 -76t75.5 -182t-75.5 -182t-182.5 -76zM305 376q-51 0 -88.5 -37t-37.5 -89t37.5 -89t88.5 -37t88.5 37t37.5 89t-37.5 89t-88.5 37z" />
    <glyph glyph-name="q" unicode="q" horiz-adv-x="603" 
d="M296 -8q-106 0 -182 76t-76 182t76 182t182 76q82 0 148 -51v43h109v-700h-130v231q-57 -39 -127 -39zM298 376q-51 0 -88.5 -37t-37.5 -89t37.5 -89t88.5 -37t88.5 37t37.5 89t-37.5 89t-88.5 37z" />
    <glyph glyph-name="r" unicode="r" horiz-adv-x="352" 
d="M328 500v-124h-62q-36 0 -61 -23t-25 -59v-294h-130v500h103v-33q40 33 104 33h71z" />
    <glyph glyph-name="s" unicode="s" horiz-adv-x="423" 
d="M365 462q-82 46 -150 46q-73 0 -121.5 -40t-48.5 -105q0 -34 13 -60.5t37.5 -44.5t40 -26t39.5 -18q49 -20 67.5 -33t18.5 -30q0 -16 -12.5 -27t-36.5 -11q-27 0 -63.5 12.5t-58.5 25.5l-49 -103q85 -56 172 -56q81 0 131.5 47t50.5 113q0 59 -40.5 100.5t-104.5 64.5
q-61 23 -71 35q-6 7 -6 16q0 15 13 24t34 9q26 0 90 -32z" />
    <glyph glyph-name="t" unicode="t" horiz-adv-x="359" 
d="M239 0q-89 0 -139 50t-50 145v464h131v-159h153v-114h-153v-192q0 -27 17.5 -45t44.5 -18h87v-131h-91z" />
    <glyph glyph-name="u" unicode="u" horiz-adv-x="523" 
d="M267 -8q89 0 153 63.5t64 153.5v291h-131v-291q0 -35 -25.5 -61t-60.5 -26q-36 0 -61.5 26t-25.5 61v291h-130v-291q0 -90 63.5 -153.5t153.5 -63.5z" />
    <glyph glyph-name="v" unicode="v" horiz-adv-x="564" 
d="M327 0l205 500h-136l-112 -281l-113 281h-136l205 -500h87z" />
    <glyph glyph-name="w" unicode="w" horiz-adv-x="842" 
d="M386 483l75 -1l105 -268l108 286h138l-195 -500h-88l-105 277l-107 -277h-88l-196 500h140l107 -286z" />
    <glyph glyph-name="x" unicode="x" horiz-adv-x="599" 
d="M553 0h-152l-101 135l-100 -135h-152l182 251l-180 249h152l98 -138l98 138h152l-180 -249z" />
    <glyph glyph-name="y" unicode="y" horiz-adv-x="587" 
d="M539 500l-207 -502q-73 -174 -238 -207l-42 117q120 23 164 148l-183 444h143l110 -268l109 268h144z" />
    <glyph glyph-name="z" unicode="z" horiz-adv-x="478" 
d="M448 130v-130h-410v130l243 253h-246v117h403v-118l-233 -252h243z" />
    <glyph glyph-name="braceleft" unicode="{" horiz-adv-x="413" 
d="M384 -16v-118h-45q-75 0 -128 53t-53 128v158q0 28 -19 46.5t-46 18.5h-55v119h55q27 0 46 19t19 45v159q0 75 53 128.5t128 53.5h45v-118h-45q-26 0 -45 -19t-19 -45v-159q0 -69 -50 -124q50 -53 50 -124v-158q0 -26 19 -44.5t45 -18.5h45z" />
    <glyph glyph-name="bar" unicode="|" horiz-adv-x="210" 
d="M53 -197h104v937h-104v-937z" />
    <glyph glyph-name="braceright" unicode="}" horiz-adv-x="413" 
d="M28 -16h46q26 0 44.5 19t18.5 44v158q0 71 50 124q-50 55 -50 124v159q0 26 -18.5 45t-44.5 19h-46v118h46q75 0 128 -53.5t53 -128.5v-159q0 -26 19 -45t45 -19h55v-119h-55q-27 0 -45.5 -19t-18.5 -46v-158q0 -75 -53 -128t-128 -53h-46v118z" />
    <glyph glyph-name="asciitilde" unicode="~" horiz-adv-x="869" 
d="M156 85q29 90 79 119q20 12 42.5 13t47 -8t42.5 -19t43 -26q22 -14 38 -22.5t41 -19t47 -15t50 -3.5t55 10q41 14 75.5 42.5t56 63.5t34 63t19.5 55l-119 47q-37 -109 -94 -136q-14 -7 -30.5 -7.5t-30.5 2.5t-32.5 11t-31 15t-32.5 19q-31 19 -52.5 30.5t-56 23.5
t-70.5 10.5t-74 -16.5q-121 -48 -155 -207z" />
    <glyph glyph-name="exclamdown" unicode="&#xa1;" horiz-adv-x="227" 
d="M114 740q28 0 49 -21t21 -49q0 -30 -20.5 -50t-49.5 -20q-30 0 -50.5 20t-20.5 50q0 29 21 49.5t50 20.5zM49 566h129v-566h-129v566z" />
    <glyph glyph-name="cent" unicode="&#xa2;" horiz-adv-x="517" 
d="M403 176l81 -96q-69 -67 -141 -83v-113h-101v113q-88 19 -146 90t-58 163t58 163t146 90v104h101v-104q79 -16 141 -80l-81 -93q-26 26 -60 39v-235q31 12 60 42zM170 251q0 -37 19.5 -68t52.5 -46v229q-33 -16 -52.5 -47t-19.5 -68z" />
    <glyph glyph-name="sterling" unicode="&#xa3;" horiz-adv-x="606" 
d="M449 267h124v-78q0 -85 -56.5 -137t-141.5 -52h-330v125h139v111q0 41 -25 83h-116v104h46q-32 55 -32 115q0 90 59 148.5t151 58.5q76 0 136 -42t97 -115l-99 -60q-52 94 -130 93q-38 0 -63 -24.5t-25 -61.5q0 -43 48 -112h220v-104h-156q16 -38 16 -81v-113h64
q34 0 54 18.5t20 45.5v78z" />
    <glyph glyph-name="currency" unicode="&#xa4;" horiz-adv-x="594" 
d="M540 260q0 -67 -35 -126l51 -52l-74 -73l-50 50q-59 -39 -132 -39q-71 0 -132 40l-51 -51l-74 73l52 53q-35 57 -35 125q0 64 33 121l-50 50l74 73l47 -47q61 43 136 43q73 0 136 -42l46 46l74 -73l-49 -50q33 -55 33 -121zM299 128q53 0 92 39t39 93q0 53 -39 92t-92 39
q-54 0 -92 -38t-38 -93t38 -93.5t92 -38.5z" />
    <glyph glyph-name="yen" unicode="&#xa5;" horiz-adv-x="662" 
d="M634 740l-170 -291h114v-117h-179v-45h179v-117h-179v-170h-131v170h-179v117h179v45h-179v117h114l-170 291h159l141 -250l142 250h159z" />
    <glyph glyph-name="section" unicode="&#xa7;" horiz-adv-x="511" 
d="M389 119q63 -54 63 -139q0 -84 -55.5 -138t-142.5 -54q-109 0 -216 90l65 111q31 -27 69.5 -45.5t69.5 -18.5q35 0 55 19t20 49q0 31 -25.5 55t-61.5 41.5t-72 39t-61.5 59.5t-25.5 91q0 99 82 155q-47 49 -47 119q0 83 62 140t145 56q85 -2 144 -61l-61 -100
q-40 34 -83 34q-32 0 -56 -19.5t-24 -50.5q0 -27 25 -47.5t61 -36.5t72.5 -35.5t61.5 -55.5t25 -87q0 -97 -89 -171zM292 194q26 11 43.5 36.5t17.5 51.5q0 29 -22 50t-54 21q-33 0 -54.5 -20.5t-21.5 -50.5q0 -58 91 -88z" />
    <glyph glyph-name="dieresis" unicode="&#xa8;" horiz-adv-x="340" 
d="M152 627q0 23 -16.5 40t-40.5 17t-40.5 -17t-16.5 -40t16.5 -40t40.5 -17t40.5 17t16.5 40zM301 627q0 23 -16.5 40t-39.5 17q-24 0 -40.5 -17t-16.5 -40t16.5 -40t40.5 -17q23 0 39.5 17t16.5 40z" />
    <glyph glyph-name="copyright" unicode="&#xa9;" horiz-adv-x="828" 
d="M416 -6q-157 0 -267.5 110t-110.5 267q0 155 110.5 265t267.5 110q155 0 264.5 -110t109.5 -265q0 -157 -109.5 -267t-264.5 -110zM416 100q112 0 190.5 78.5t78.5 192.5t-78 191.5t-191 77.5q-114 0 -193.5 -78.5t-79.5 -190.5t80 -191.5t193 -79.5zM418 182
q-78 0 -134 56.5t-56 135.5q0 80 55.5 136t134.5 56q81 0 143 -65l-66 -73q-35 34 -75 34q-36 0 -61.5 -25.5t-25.5 -61.5t25.5 -61.5t61.5 -25.5q42 0 76 37l65 -76q-69 -67 -143 -67z" />
    <glyph glyph-name="guillemotleft" unicode="&#xab;" horiz-adv-x="571" 
d="M334 118l-134 134l133 134l-83 77l-212 -210l212 -214zM538 118l-134 134l133 134l-83 77l-212 -210l213 -214z" />
    <glyph glyph-name="logicalnot" unicode="&#xac;" horiz-adv-x="615" 
d="M440 132h127v301h-539v-127h412v-174z" />
    <glyph glyph-name="registered" unicode="&#xae;" horiz-adv-x="830" 
d="M416 746q155 0 265.5 -110t110.5 -266t-110.5 -266t-265.5 -110q-157 0 -267.5 110t-110.5 266t110.5 266t267.5 110zM416 92q113 0 195.5 82.5t82.5 195.5t-82.5 195.5t-195.5 82.5q-116 0 -198 -81.5t-82 -196.5t83.5 -196.5t196.5 -81.5zM531 455q0 -71 -64 -105
l93 -160h-88l-85 148h-15v-148h-78v382h120q48 0 82.5 -34.5t34.5 -82.5zM372 494v-79h42q17 0 28 11.5t11 28.5t-11.5 28t-27.5 11h-42z" />
    <glyph glyph-name="macron" unicode="&#xaf;" horiz-adv-x="343" 
d="M305 570v103h-267v-103h267z" />
    <glyph glyph-name="degree" unicode="&#xb0;" horiz-adv-x="363" 
d="M182 740q59 0 101 -41.5t42 -100.5q0 -60 -42 -101.5t-101 -41.5q-60 0 -102 41.5t-42 101.5q0 59 42 100.5t102 41.5zM182 651q-22 0 -38 -16.5t-16 -36.5q0 -22 16 -38t38 -16q21 0 36.5 16t15.5 38q0 21 -15.5 37t-36.5 16z" />
    <glyph glyph-name="plusminus" unicode="&#xb1;" horiz-adv-x="583" 
d="M555 441v-115h-204v-161h-115v161h-203v115h203v150h115v-150h204zM555 0v115h-522v-115h522z" />
    <glyph glyph-name="uni00B2" unicode="&#xb2;" horiz-adv-x="355" 
d="M60 289l-1 93l147 168q20 22 19 49.5t-23 43.5q-20 16 -47.5 10.5t-46.5 -31.5l-60 49q38 56 102.5 66t111.5 -31q47 -39 50 -102t-39 -110l-97 -112h141v-93h-257z" />
    <glyph glyph-name="uni00B3" unicode="&#xb3;" horiz-adv-x="376" 
d="M283 544q45 -45 45 -104q0 -60 -41.5 -103t-103.5 -43q-55 0 -97 35.5t-53 90.5l81 31q22 -63 70 -63q22 0 38 15.5t16 38.5q0 24 -16.5 39.5t-41.5 15.5h-24v86h25q16 0 25.5 9.5t9.5 24.5t-10 24.5t-25 9.5q-21 0 -32 -21l-70 43q40 67 109 67q51 0 85 -36t34 -86
q0 -39 -24 -74z" />
    <glyph glyph-name="acute" unicode="&#xb4;" horiz-adv-x="267" 
d="M86 565l203 107l-52 92l-199 -106z" />
    <glyph glyph-name="paragraph" unicode="&#xb6;" horiz-adv-x="543" 
d="M490 740v-859h-104v768h-61v-768h-105v417q-82 11 -137 73.5t-55 145.5q0 91 64 157t151 66h247z" />
    <glyph glyph-name="cedilla" unicode="&#xb8;" horiz-adv-x="306" 
d="M153 -247q-46 0 -80.5 31.5t-34.5 79.5h79q0 -12 10.5 -22t24.5 -10t24.5 11t10.5 25t-10 24.5t-25 10.5h-40v109h81v-36q33 -13 54 -43t21 -66q0 -47 -34 -80.5t-81 -33.5z" />
    <glyph glyph-name="uni00B9" unicode="&#xb9;" horiz-adv-x="244" 
d="M99 294v366h-76v80h168v-446h-92z" />
    <glyph glyph-name="guillemotright" unicode="&#xbb;" horiz-adv-x="571" 
d="M33 118l84 -79l212 214l-212 210l-83 -77l133 -134zM237 118l84 -79l212 214l-212 210l-83 -77l133 -134z" />
    <glyph glyph-name="onequarter" unicode="&#xbc;" horiz-adv-x="807" 
d="M129 294v366h-76v80h168v-446h-92zM109 0l454 740h122l-455 -740h-121zM753 166v-85h-45v-81h-92v81h-180v85l200 280h72v-280h45zM533 166h83v116z" />
    <glyph glyph-name="onehalf" unicode="&#xbd;" horiz-adv-x="870" 
d="M129 294v366h-76v80h168v-446h-92zM109 0l454 740h122l-455 -740h-121zM550 0l-1 93l147 168q20 22 19 49t-23 43q-21 16 -47.5 10.5t-45.5 -31.5l-61 50q38 56 102 66t112 -31q47 -39 50 -101.5t-39 -110.5l-97 -112h141v-93h-257z" />
    <glyph glyph-name="threequarters" unicode="&#xbe;" horiz-adv-x="872" 
d="M283 544q45 -45 45 -104q0 -60 -41.5 -103t-103.5 -43q-55 0 -97 35.5t-53 90.5l81 31q22 -63 70 -63q22 0 38 15.5t16 38.5q0 24 -16.5 39.5t-41.5 15.5h-24v86h25q16 0 25.5 9.5t9.5 24.5t-10 24.5t-25 9.5q-21 0 -32 -21l-70 43q40 67 109 67q51 0 85 -36t34 -86
q0 -39 -24 -74zM179 0l455 740h121l-454 -740h-122zM824 166v-85h-46v-81h-91v81h-180v85l200 280h71v-280h46zM604 166h82v116z" />
    <glyph glyph-name="questiondown" unicode="&#xbf;" horiz-adv-x="500" 
d="M188 669q0 -29 21 -49.5t50 -20.5t49.5 20.5t20.5 49.5q0 30 -20.5 50.5t-49.5 20.5t-50 -20.5t-21 -50.5zM38 217q0 -94 66.5 -160t160.5 -66q68 0 124.5 37.5t82.5 100.5l-122 51q-18 -44 -62 -54.5t-81 16t-37 73.5q0 39 28 67t66 28h67v256h-132v-135
q-69 -20 -115 -79.5t-46 -134.5z" />
    <glyph glyph-name="Agrave" unicode="&#xc0;" horiz-adv-x="779" 
d="M436 786l48 92l-199 107l-52 -92zM741 0l-143 1l-53 132h-305l-54 -133h-143l295 740h104zM292 264h201l-101 253z" />
    <glyph glyph-name="Aacute" unicode="&#xc1;" horiz-adv-x="779" 
d="M341 786l202 107l-51 92l-199 -107zM741 0l-143 1l-53 132h-305l-54 -133h-143l295 740h104zM292 264h201l-101 253z" />
    <glyph glyph-name="Acircumflex" unicode="&#xc2;" horiz-adv-x="779" 
d="M563 791l-131 150h-87l-131 -150h125l48 55l45 -55h131zM741 0l-143 1l-53 132h-305l-54 -133h-143l295 740h104zM292 264h201l-101 253z" />
    <glyph glyph-name="Atilde" unicode="&#xc3;" horiz-adv-x="779" 
d="M287 791q19 31 52 31q11 0 40 -13t60 -13q76 0 130 79l-87 54q-23 -37 -57 -37q-16 0 -46.5 13t-54.5 13q-34 0 -65.5 -19t-51.5 -53zM741 0l-143 1l-53 132h-305l-54 -133h-143l295 740h104zM292 264h201l-101 253z" />
    <glyph glyph-name="Adieresis" unicode="&#xc4;" horiz-adv-x="779" 
d="M371 847q0 24 -17 41t-41 17q-23 0 -39.5 -17t-16.5 -41q0 -23 16.5 -39.5t39.5 -16.5q24 0 41 16.5t17 39.5zM520 847q0 24 -16.5 41t-40.5 17q-23 0 -39.5 -17t-16.5 -41q0 -23 16.5 -39.5t39.5 -16.5q24 0 40.5 16.5t16.5 39.5zM741 0l-143 1l-53 132h-305l-54 -133
h-143l295 740h104zM292 264h201l-101 253z" />
    <glyph glyph-name="Aring" unicode="&#xc5;" horiz-adv-x="779" 
d="M390 1007q45 0 76.5 -31.5t31.5 -76.5t-31.5 -76.5t-76.5 -31.5t-77 31.5t-32 76.5t32 76.5t77 31.5zM390 937q-16 0 -27 -11t-11 -27t11 -27t27 -11t27 11t11 27t-11 27t-27 11zM741 0l-143 1l-53 132h-305l-54 -133h-143l295 740h104zM292 264h201l-101 253z" />
    <glyph glyph-name="AE" unicode="&#xc6;" horiz-adv-x="877" 
d="M832 131v-131h-391v134h-194l-59 -134h-145l328 740h461v-131h-261v-181h243v-115h-243v-182h261zM441 265v330l-147 -330h147z" />
    <glyph glyph-name="Ccedilla" unicode="&#xc7;" horiz-adv-x="738" 
d="M410 125q111 0 197 86l78 -102q-107 -107 -252 -114v-19q33 -13 54 -43t21 -66q0 -47 -33.5 -80.5t-80.5 -33.5q-46 0 -80.5 31.5t-34.5 79.5h79q0 -12 10.5 -22t24.5 -10t24.5 11t10.5 25t-10 24.5t-25 10.5h-40v96q-136 21 -227 126.5t-91 244.5q0 155 110 265.5
t264 110.5q155 0 276 -123l-78 -96q-96 88 -197 88t-173 -72t-72 -173t72 -173t173 -72z" />
    <glyph glyph-name="Egrave" unicode="&#xc8;" horiz-adv-x="509" 
d="M307 786l48 92l-199 107l-52 -92zM464 131v-131h-409v740h409v-131h-278v-181h260v-115h-260v-182h278z" />
    <glyph glyph-name="Eacute" unicode="&#xc9;" horiz-adv-x="509" 
d="M212 786l202 107l-51 92l-199 -107zM464 131v-131h-409v740h409v-131h-278v-181h260v-115h-260v-182h278z" />
    <glyph glyph-name="Ecircumflex" unicode="&#xca;" horiz-adv-x="509" 
d="M434 791l-131 150h-87l-131 -150h125l48 55l45 -55h131zM464 131v-131h-409v740h409v-131h-278v-181h260v-115h-260v-182h278z" />
    <glyph glyph-name="Edieresis" unicode="&#xcb;" horiz-adv-x="509" 
d="M242 847q0 24 -17 41t-41 17q-23 0 -39.5 -17t-16.5 -41q0 -23 16.5 -39.5t39.5 -16.5q24 0 41 16.5t17 39.5zM391 847q0 24 -16.5 41t-40.5 17q-23 0 -39.5 -17t-16.5 -41q0 -23 16.5 -39.5t39.5 -16.5q24 0 40.5 16.5t16.5 39.5zM464 131v-131h-409v740h409v-131h-278
v-181h260v-115h-260v-182h278z" />
    <glyph glyph-name="Igrave" unicode="&#xcc;" horiz-adv-x="251" 
d="M174 783l48 93l-199 106l-51 -92zM64 0h130v740h-130v-740z" />
    <glyph glyph-name="Iacute" unicode="&#xcd;" horiz-adv-x="251" 
d="M78 783l202 107l-51 92l-199 -106zM63 0h130v740h-130v-740z" />
    <glyph glyph-name="Icircumflex" unicode="&#xce;" horiz-adv-x="270" 
d="M310 788l-131 150h-87l-131 -150h125l48 56l45 -56h131zM73 0h129v740h-129v-740z" />
    <glyph glyph-name="Idieresis" unicode="&#xcf;" horiz-adv-x="234" 
d="M100 845q0 23 -17 40t-40 17q-24 0 -40.5 -17t-16.5 -40t16.5 -40t40.5 -17q23 0 40 17t17 40zM249 845q0 23 -16.5 40t-40.5 17q-23 0 -39.5 -17t-16.5 -40t16.5 -40t39.5 -17q24 0 40.5 17t16.5 40zM55 0h129v740h-129v-740z" />
    <glyph glyph-name="Eth" unicode="&#xd0;" horiz-adv-x="721" 
d="M316 740q153 0 261.5 -108.5t108.5 -261.5t-108.5 -261.5t-261.5 -108.5h-224v318h-37v117h37v305h224zM316 131q98 0 168 70t70 169t-70 169t-168 70h-92v-174h44v-117h-44v-187h92z" />
    <glyph glyph-name="Ntilde" unicode="&#xd1;" horiz-adv-x="680" 
d="M227 791q7 13 21.5 22t29.5 9q11 0 40.5 -13t60.5 -13q76 0 129 79l-87 54q-23 -37 -57 -37q-16 0 -46.5 13t-53.5 13q-35 0 -66.5 -19t-51.5 -53zM500 740h131v-740h-102l-343 494v-494h-131v740h99l346 -496v496z" />
    <glyph glyph-name="Ograve" unicode="&#xd2;" horiz-adv-x="832" 
d="M461 786l47 92l-198 107l-52 -92zM416 746q156 0 266 -110t110 -266t-110 -266t-266 -110q-155 0 -265.5 110t-110.5 266t110.5 266t265.5 110zM415 616q-101 0 -172.5 -72t-71.5 -174q0 -101 71.5 -173t172.5 -72t173.5 72.5t72.5 172.5t-72.5 173t-173.5 73z" />
    <glyph glyph-name="Oacute" unicode="&#xd3;" horiz-adv-x="832" 
d="M365 786l203 107l-52 92l-198 -107zM416 746q156 0 266 -110t110 -266t-110 -266t-266 -110q-155 0 -265.5 110t-110.5 266t110.5 266t265.5 110zM415 616q-101 0 -172.5 -72t-71.5 -174q0 -101 71.5 -173t172.5 -72t173.5 72.5t72.5 172.5t-72.5 173t-173.5 73z" />
    <glyph glyph-name="Ocircumflex" unicode="&#xd4;" horiz-adv-x="832" 
d="M588 791l-131 150h-87l-131 -150h125l47 55l46 -55h131zM416 746q156 0 266 -110t110 -266t-110 -266t-266 -110q-155 0 -265.5 110t-110.5 266t110.5 266t265.5 110zM415 616q-101 0 -172.5 -72t-71.5 -174q0 -101 71.5 -173t172.5 -72t173.5 72.5t72.5 172.5t-72.5 173
t-173.5 73z" />
    <glyph glyph-name="Otilde" unicode="&#xd5;" horiz-adv-x="832" 
d="M312 791q19 31 52 31q11 0 40 -13t60 -13q76 0 130 79l-87 54q-23 -37 -58 -37q-16 0 -46 13t-54 13q-34 0 -66 -19.5t-51 -52.5zM416 746q156 0 266 -110t110 -266t-110 -266t-266 -110q-155 0 -265.5 110t-110.5 266t110.5 266t265.5 110zM415 616q-101 0 -172.5 -72
t-71.5 -174q0 -101 71.5 -173t172.5 -72t173.5 72.5t72.5 172.5t-72.5 173t-173.5 73z" />
    <glyph glyph-name="Odieresis" unicode="&#xd6;" horiz-adv-x="832" 
d="M395 847q0 24 -16.5 41t-40.5 17q-23 0 -39.5 -17t-16.5 -41q0 -23 16.5 -39.5t39.5 -16.5q24 0 40.5 16.5t16.5 39.5zM545 847q0 24 -16.5 41t-40.5 17q-23 0 -39.5 -17t-16.5 -41q0 -23 16.5 -39.5t39.5 -16.5q24 0 40.5 16.5t16.5 39.5zM416 746q156 0 266 -110
t110 -266t-110 -266t-266 -110q-155 0 -265.5 110t-110.5 266t110.5 266t265.5 110zM415 616q-101 0 -172.5 -72t-71.5 -174q0 -101 71.5 -173t172.5 -72t173.5 72.5t72.5 172.5t-72.5 173t-173.5 73z" />
    <glyph glyph-name="multiply" unicode="&#xd7;" horiz-adv-x="545" 
d="M507 104l-80 -81l-149 151l-154 -154l-81 80l154 154l-149 150l80 80l150 -150l145 146l80 -81l-145 -145z" />
    <glyph glyph-name="Oslash" unicode="&#xd8;" horiz-adv-x="832" 
d="M639 673q71 -52 112 -131.5t41 -171.5q0 -156 -110 -266t-266 -110q-93 0 -176 44l-23 -38l-70 42l26 41q-62 53 -97.5 127.5t-35.5 159.5q0 156 110.5 266t265.5 110q81 0 153 -32l23 37l69 -42zM171 370q0 -102 72 -174l255 405q-43 15 -83 15q-101 0 -172.5 -72
t-71.5 -174zM415 125q101 0 173.5 72.5t72.5 172.5q0 116 -93 191l-258 -412q48 -24 105 -24z" />
    <glyph glyph-name="Ugrave" unicode="&#xd9;" 
d="M340 786l48 92l-199 107l-52 -92zM296 -6q100 0 170.5 70.5t70.5 170.5v505h-131v-505q0 -45 -32 -77.5t-78 -32.5t-78.5 32.5t-32.5 77.5v505h-130v-505q0 -100 70.5 -170.5t170.5 -70.5z" />
    <glyph glyph-name="Uacute" unicode="&#xda;" 
d="M245 786l202 107l-51 92l-199 -107zM296 -6q100 0 170.5 70.5t70.5 170.5v505h-131v-505q0 -45 -32 -77.5t-78 -32.5t-78.5 32.5t-32.5 77.5v505h-130v-505q0 -100 70.5 -170.5t170.5 -70.5z" />
    <glyph glyph-name="Ucircumflex" unicode="&#xdb;" 
d="M467 791l-131 150h-87l-131 -150h125l48 55l45 -55h131zM296 -6q100 0 170.5 70.5t70.5 170.5v505h-131v-505q0 -45 -32 -77.5t-78 -32.5t-78.5 32.5t-32.5 77.5v505h-130v-505q0 -100 70.5 -170.5t170.5 -70.5z" />
    <glyph glyph-name="Udieresis" unicode="&#xdc;" 
d="M275 847q0 24 -17 41t-41 17q-23 0 -39.5 -17t-16.5 -41q0 -23 16.5 -39.5t39.5 -16.5q24 0 41 16.5t17 39.5zM424 847q0 24 -16.5 41t-40.5 17q-23 0 -39.5 -17t-16.5 -41q0 -23 16.5 -39.5t39.5 -16.5q24 0 40.5 16.5t16.5 39.5zM296 -6q100 0 170.5 70.5t70.5 170.5
v505h-131v-505q0 -45 -32 -77.5t-78 -32.5t-78.5 32.5t-32.5 77.5v505h-130v-505q0 -100 70.5 -170.5t170.5 -70.5z" />
    <glyph glyph-name="Yacute" unicode="&#xdd;" horiz-adv-x="692" 
d="M296 786l203 107l-52 92l-198 -107zM649 740l-235 -404v-336h-131v336l-235 404h159l141 -250l142 250h159z" />
    <glyph glyph-name="Thorn" unicode="&#xde;" horiz-adv-x="532" 
d="M283 603q93 0 158.5 -65.5t65.5 -157.5t-65.5 -157.5t-158.5 -65.5h-97v-157h-131v740h131v-137h97zM283 288q39 0 65.5 26.5t26.5 65.5q0 38 -26.5 64.5t-65.5 26.5h-97v-183h97z" />
    <glyph glyph-name="germandbls" unicode="&#xdf;" horiz-adv-x="533" 
d="M417 383q76 -63 76 -164q0 -87 -61.5 -153t-141.5 -66h-62v124h56q35 0 60 28.5t25 65.5t-25 66t-59 29h-57v122l50 2q31 0 50 27t19 60q0 39 -27 65.5t-65 26.5h-76v-616h-124v740h200q89 0 152.5 -63t63.5 -152q0 -83 -54 -142z" />
    <glyph glyph-name="agrave" unicode="&#xe0;" horiz-adv-x="601" 
d="M340 550l48 92l-199 107l-51 -92zM552 500v-500h-110v43q-67 -51 -148 -51q-107 0 -182.5 76t-75.5 183q0 106 75.5 181.5t182.5 75.5q82 0 147 -51v43h111zM297 123q52 0 89 37.5t37 90.5t-36.5 89.5t-89.5 36.5t-89.5 -36.5t-36.5 -89.5t37 -90.5t89 -37.5z" />
    <glyph glyph-name="aacute" unicode="&#xe1;" horiz-adv-x="601" 
d="M245 550l203 107l-52 92l-199 -107zM552 500v-500h-110v43q-67 -51 -148 -51q-107 0 -182.5 76t-75.5 183q0 106 75.5 181.5t182.5 75.5q82 0 147 -51v43h111zM297 123q52 0 89 37.5t37 90.5t-36.5 89.5t-89.5 36.5t-89.5 -36.5t-36.5 -89.5t37 -90.5t89 -37.5z" />
    <glyph glyph-name="acircumflex" unicode="&#xe2;" horiz-adv-x="601" 
d="M468 555l-132 150h-86l-132 -150h125l48 55l46 -55h131zM552 500v-500h-110v43q-67 -51 -148 -51q-107 0 -182.5 76t-75.5 183q0 106 75.5 181.5t182.5 75.5q82 0 147 -51v43h111zM297 123q52 0 89 37.5t37 90.5t-36.5 89.5t-89.5 36.5t-89.5 -36.5t-36.5 -89.5t37 -90.5
t89 -37.5z" />
    <glyph glyph-name="atilde" unicode="&#xe3;" horiz-adv-x="601" 
d="M192 555q7 13 21.5 22t30.5 9q11 0 40 -13t60 -13q76 0 129 79l-87 54q-23 -37 -57 -37q-16 0 -46 13t-54 13q-35 0 -66.5 -19t-51.5 -53zM552 500v-500h-110v43q-67 -51 -148 -51q-107 0 -182.5 76t-75.5 183q0 106 75.5 181.5t182.5 75.5q82 0 147 -51v43h111zM297 123
q52 0 89 37.5t37 90.5t-36.5 89.5t-89.5 36.5t-89.5 -36.5t-36.5 -89.5t37 -90.5t89 -37.5z" />
    <glyph glyph-name="adieresis" unicode="&#xe4;" horiz-adv-x="601" 
d="M275 611q0 24 -16.5 41t-40.5 17t-40.5 -17t-16.5 -41q0 -23 16.5 -39.5t40.5 -16.5t40.5 16.5t16.5 39.5zM424 611q0 24 -16.5 41t-39.5 17q-24 0 -40.5 -17t-16.5 -41q0 -23 16.5 -39.5t40.5 -16.5q23 0 39.5 16.5t16.5 39.5zM552 500v-500h-110v43q-67 -51 -148 -51
q-107 0 -182.5 76t-75.5 183q0 106 75.5 181.5t182.5 75.5q82 0 147 -51v43h111zM297 123q52 0 89 37.5t37 90.5t-36.5 89.5t-89.5 36.5t-89.5 -36.5t-36.5 -89.5t37 -90.5t89 -37.5z" />
    <glyph glyph-name="aring" unicode="&#xe5;" horiz-adv-x="601" 
d="M294 771q45 0 76.5 -31.5t31.5 -76.5t-31.5 -76.5t-76.5 -31.5q-44 0 -76 31.5t-32 76.5t32 76.5t76 31.5zM294 701q-16 0 -27 -11t-11 -27t11 -27t27 -11t27 11t11 27t-11 27t-27 11zM552 500v-500h-110v43q-67 -51 -148 -51q-107 0 -182.5 76t-75.5 183
q0 106 75.5 181.5t182.5 75.5q82 0 147 -51v43h111zM297 123q52 0 89 37.5t37 90.5t-36.5 89.5t-89.5 36.5t-89.5 -36.5t-36.5 -89.5t37 -90.5t89 -37.5z" />
    <glyph glyph-name="ae" unicode="&#xe6;" horiz-adv-x="965" 
d="M36 251q0 106 75.5 181.5t182.5 75.5q82 0 147 -51v43h111v-27q54 35 123 35q111 0 183 -82t72 -217h-378q18 -46 55 -70t80 -24q71 0 135 54l77 -93q-96 -84 -214 -84q-74 0 -133 40v-32h-110v43q-67 -51 -148 -51q-107 0 -182.5 76t-75.5 183zM554 309h235
q-8 38 -39.5 64.5t-77.5 26.5q-44 0 -77 -25.5t-41 -65.5zM171 251q0 -53 37 -90.5t89 -37.5t89 37.5t37 90.5t-36.5 89.5t-89.5 36.5t-89.5 -36.5t-36.5 -89.5z" />
    <glyph glyph-name="ccedilla" unicode="&#xe7;" horiz-adv-x="525" 
d="M486 80q-72 -70 -150 -85v-19q33 -13 54 -43t21 -66q0 -47 -34 -80.5t-81 -33.5q-46 0 -80.5 31.5t-34.5 79.5h79q0 -12 10.5 -22t24.5 -10t24.5 11t10.5 25t-10 24.5t-25 10.5h-40v92q-92 15 -153.5 87.5t-61.5 167.5q0 107 75 182.5t181 75.5q107 0 190 -85l-82 -93
q-49 48 -107 48q-52 0 -89 -37.5t-37 -89.5t37 -89t89 -37q60 0 108 51z" />
    <glyph glyph-name="egrave" unicode="&#xe8;" horiz-adv-x="582" 
d="M339 550l47 92l-198 107l-52 -92zM548 209h-378q17 -46 54 -70t80 -24q71 0 135 54l77 -93q-96 -84 -214 -84q-113 0 -189.5 77t-76.5 186q0 106 74.5 179.5t182.5 73.5q111 0 183 -82t72 -217zM171 309h235q-8 38 -39.5 64.5t-76.5 26.5t-78 -25.5t-41 -65.5z" />
    <glyph glyph-name="eacute" unicode="&#xe9;" horiz-adv-x="582" 
d="M243 550l203 107l-52 92l-198 -107zM548 209h-378q17 -46 54 -70t80 -24q71 0 135 54l77 -93q-96 -84 -214 -84q-113 0 -189.5 77t-76.5 186q0 106 74.5 179.5t182.5 73.5q111 0 183 -82t72 -217zM171 309h235q-8 38 -39.5 64.5t-76.5 26.5t-78 -25.5t-41 -65.5z" />
    <glyph glyph-name="ecircumflex" unicode="&#xea;" horiz-adv-x="582" 
d="M466 555l-131 150h-87l-131 -150h125l48 55l45 -55h131zM548 209h-378q17 -46 54 -70t80 -24q71 0 135 54l77 -93q-96 -84 -214 -84q-113 0 -189.5 77t-76.5 186q0 106 74.5 179.5t182.5 73.5q111 0 183 -82t72 -217zM171 309h235q-8 38 -39.5 64.5t-76.5 26.5t-78 -25.5
t-41 -65.5z" />
    <glyph glyph-name="edieresis" unicode="&#xeb;" horiz-adv-x="582" 
d="M273 611q0 24 -16.5 41t-40.5 17q-23 0 -39.5 -17t-16.5 -41q0 -23 16.5 -39.5t39.5 -16.5q24 0 40.5 16.5t16.5 39.5zM423 611q0 24 -16.5 41t-40.5 17q-23 0 -39.5 -17t-16.5 -41q0 -23 16.5 -39.5t39.5 -16.5q24 0 40.5 16.5t16.5 39.5zM548 209h-378q17 -46 54 -70
t80 -24q71 0 135 54l77 -93q-96 -84 -214 -84q-113 0 -189.5 77t-76.5 186q0 106 74.5 179.5t182.5 73.5q111 0 183 -82t72 -217zM171 309h235q-8 38 -39.5 64.5t-76.5 26.5t-78 -25.5t-41 -65.5z" />
    <glyph glyph-name="igrave" unicode="&#xec;" horiz-adv-x="241" 
d="M168 550l48 92l-199 107l-51 -92zM188 0v500h-129v-500h129z" />
    <glyph glyph-name="iacute" unicode="&#xed;" horiz-adv-x="240" 
d="M71 550l203 107l-52 92l-198 -107zM186 0v500h-128v-500h128z" />
    <glyph glyph-name="icircumflex" unicode="&#xee;" horiz-adv-x="259" 
d="M304 555l-131 150h-87l-131 -150h125l47 55l46 -55h131zM196 0v500h-128v-500h128z" />
    <glyph glyph-name="idieresis" unicode="&#xef;" horiz-adv-x="224" 
d="M94 611q0 24 -17 41t-41 17q-23 0 -39.5 -17t-16.5 -41q0 -23 16.5 -39.5t39.5 -16.5q24 0 41 16.5t17 39.5zM243 611q0 24 -16.5 41t-40.5 17q-23 0 -39.5 -17t-16.5 -41q0 -23 16.5 -39.5t39.5 -16.5q24 0 40.5 16.5t16.5 39.5zM179 0v500h-129v-500h129z" />
    <glyph glyph-name="eth" unicode="&#xf0;" horiz-adv-x="607" 
d="M529 371q29 -52 29 -119q0 -106 -75.5 -182t-181.5 -76q-107 0 -182.5 76t-75.5 182t74.5 181t178.5 76l-28 48l-42 -25l-47 79l41 24l-24 40l113 65l23 -39l43 26l47 -79l-43 -25zM301 125q53 0 90 37.5t37 89.5q0 51 -37 89t-90 38t-90.5 -37.5t-37.5 -89.5
q0 -53 37.5 -90t90.5 -37z" />
    <glyph glyph-name="ntilde" unicode="&#xf1;" horiz-adv-x="522" 
d="M164 555q7 13 21.5 22t29.5 9q11 0 40.5 -13t60.5 -13q76 0 129 79l-87 54q-23 -37 -57 -37q-16 0 -46.5 13t-53.5 13q-35 0 -66.5 -19t-51.5 -53zM274 508q87 0 147.5 -63t60.5 -153v-292h-130v292q0 35 -25.5 60.5t-60.5 25.5q-36 0 -61.5 -25.5t-25.5 -60.5v-292h-130
v500h104v-33q55 41 121 41z" />
    <glyph glyph-name="ograve" unicode="&#xf2;" 
d="M339 550l48 92l-199 107l-52 -92zM293 508q107 0 182.5 -76t75.5 -182t-75.5 -182t-182.5 -76t-182.5 76t-75.5 182t75.5 182t182.5 76zM293 376q-53 0 -90 -37t-37 -89t37 -89.5t90 -37.5q52 0 89 37t37 90q0 52 -36.5 89t-89.5 37z" />
    <glyph glyph-name="oacute" unicode="&#xf3;" 
d="M244 550l202 107l-51 92l-199 -107zM293 508q107 0 182.5 -76t75.5 -182t-75.5 -182t-182.5 -76t-182.5 76t-75.5 182t75.5 182t182.5 76zM293 376q-53 0 -90 -37t-37 -89t37 -89.5t90 -37.5q52 0 89 37t37 90q0 52 -36.5 89t-89.5 37z" />
    <glyph glyph-name="ocircumflex" unicode="&#xf4;" 
d="M466 555l-131 150h-87l-131 -150h125l48 55l46 -55h130zM293 508q107 0 182.5 -76t75.5 -182t-75.5 -182t-182.5 -76t-182.5 76t-75.5 182t75.5 182t182.5 76zM293 376q-53 0 -90 -37t-37 -89t37 -89.5t90 -37.5q52 0 89 37t37 90q0 52 -36.5 89t-89.5 37z" />
    <glyph glyph-name="otilde" unicode="&#xf5;" 
d="M190 555q19 31 52 31q11 0 40.5 -13t59.5 -13q76 0 130 79l-87 54q-23 -37 -57 -37q-16 0 -46.5 13t-54.5 13q-34 0 -65.5 -19t-51.5 -53zM293 508q107 0 182.5 -76t75.5 -182t-75.5 -182t-182.5 -76t-182.5 76t-75.5 182t75.5 182t182.5 76zM293 376q-53 0 -90 -37
t-37 -89t37 -89.5t90 -37.5q52 0 89 37t37 90q0 52 -36.5 89t-89.5 37z" />
    <glyph glyph-name="odieresis" unicode="&#xf6;" 
d="M274 611q0 24 -17 41t-40 17q-24 0 -40.5 -17t-16.5 -41q0 -23 16.5 -39.5t40.5 -16.5q23 0 40 16.5t17 39.5zM423 611q0 24 -16.5 41t-40.5 17q-23 0 -39.5 -17t-16.5 -41q0 -23 16.5 -39.5t39.5 -16.5q24 0 40.5 16.5t16.5 39.5zM293 508q107 0 182.5 -76t75.5 -182
t-75.5 -182t-182.5 -76t-182.5 76t-75.5 182t75.5 182t182.5 76zM293 376q-53 0 -90 -37t-37 -89t37 -89.5t90 -37.5q52 0 89 37t37 90q0 52 -36.5 89t-89.5 37z" />
    <glyph glyph-name="divide" unicode="&#xf7;" horiz-adv-x="578" 
d="M362 462q0 29 -20.5 49.5t-50.5 20.5q-29 0 -49 -20.5t-20 -49.5t20 -49t49 -20q30 0 50.5 20t20.5 49zM550 235v114h-517v-114h517zM362 120q0 31 -20.5 51.5t-50.5 20.5q-29 0 -49 -20.5t-20 -51.5q0 -29 20 -48.5t49 -19.5q30 0 50.5 19.5t20.5 48.5z" />
    <glyph glyph-name="oslash" unicode="&#xf8;" 
d="M455 450q96 -78 96 -200q0 -106 -75.5 -182t-182.5 -76q-59 0 -108 24l-10 -16l-69 42l12 19q-83 76 -83 189q0 106 75.5 182t182.5 76q47 0 92 -17l12 20l69 -43zM166 250q0 -41 24 -73l123 198q-7 1 -20 1q-53 0 -90 -37t-37 -89zM293 123q52 0 89 37t37 90
q0 50 -34 87l-130 -208q18 -6 38 -6z" />
    <glyph glyph-name="ugrave" unicode="&#xf9;" horiz-adv-x="523" 
d="M311 550l47 92l-198 107l-52 -92zM267 -8q89 0 153 63.5t64 153.5v291h-131v-291q0 -35 -25.5 -61t-60.5 -26q-36 0 -61.5 26t-25.5 61v291h-130v-291q0 -90 63.5 -153.5t153.5 -63.5z" />
    <glyph glyph-name="uacute" unicode="&#xfa;" horiz-adv-x="523" 
d="M215 550l203 107l-52 92l-198 -107zM267 -8q89 0 153 63.5t64 153.5v291h-131v-291q0 -35 -25.5 -61t-60.5 -26q-36 0 -61.5 26t-25.5 61v291h-130v-291q0 -90 63.5 -153.5t153.5 -63.5z" />
    <glyph glyph-name="ucircumflex" unicode="&#xfb;" horiz-adv-x="523" 
d="M438 555l-131 150h-87l-131 -150h124l48 55l46 -55h131zM267 -8q89 0 153 63.5t64 153.5v291h-131v-291q0 -35 -25.5 -61t-60.5 -26q-36 0 -61.5 26t-25.5 61v291h-130v-291q0 -90 63.5 -153.5t153.5 -63.5z" />
    <glyph glyph-name="udieresis" unicode="&#xfc;" horiz-adv-x="523" 
d="M245 611q0 24 -16.5 41t-40.5 17q-23 0 -39.5 -17t-16.5 -41q0 -23 16.5 -39.5t39.5 -16.5q24 0 40.5 16.5t16.5 39.5zM395 611q0 24 -16.5 41t-40.5 17q-23 0 -40 -17t-17 -41q0 -23 17 -39.5t40 -16.5q24 0 40.5 16.5t16.5 39.5zM267 -8q89 0 153 63.5t64 153.5v291
h-131v-291q0 -35 -25.5 -61t-60.5 -26q-36 0 -61.5 26t-25.5 61v291h-130v-291q0 -90 63.5 -153.5t153.5 -63.5z" />
    <glyph glyph-name="yacute" unicode="&#xfd;" horiz-adv-x="587" 
d="M229 550l203 107l-52 92l-199 -107zM539 500l-207 -502q-73 -174 -238 -207l-42 117q120 23 164 148l-183 444h143l110 -268l109 268h144z" />
    <glyph glyph-name="thorn" unicode="&#xfe;" horiz-adv-x="600" 
d="M307 -8q-70 0 -127 39v-231h-130v900h130v-231q57 39 127 39q107 0 182.5 -76t75.5 -182t-75.5 -182t-182.5 -76zM305 376q-51 0 -88.5 -37t-37.5 -89t37.5 -89t88.5 -37t88.5 37t37.5 89t-37.5 89t-88.5 37z" />
    <glyph glyph-name="ydieresis" unicode="&#xff;" horiz-adv-x="587" 
d="M259 611q0 24 -16.5 41t-40.5 17t-40.5 -17t-16.5 -41q0 -23 16.5 -39.5t40.5 -16.5t40.5 16.5t16.5 39.5zM408 611q0 24 -16.5 41t-39.5 17q-24 0 -40.5 -17t-16.5 -41q0 -23 16.5 -39.5t40.5 -16.5q23 0 39.5 16.5t16.5 39.5zM539 500l-207 -502q-73 -174 -238 -207
l-42 117q120 23 164 148l-183 444h143l110 -268l109 268h144z" />
    <glyph glyph-name="Amacron" unicode="&#x100;" horiz-adv-x="779" 
d="M526 791v103h-266v-103h266zM741 0l-143 1l-53 132h-305l-54 -133h-143l295 740h104zM292 264h201l-101 253z" />
    <glyph glyph-name="amacron" unicode="&#x101;" horiz-adv-x="601" 
d="M431 555v103h-267v-103h267zM552 500v-500h-110v43q-67 -51 -148 -51q-107 0 -182.5 76t-75.5 183q0 106 75.5 181.5t182.5 75.5q82 0 147 -51v43h111zM297 123q52 0 89 37.5t37 90.5t-36.5 89.5t-89.5 36.5t-89.5 -36.5t-36.5 -89.5t37 -90.5t89 -37.5z" />
    <glyph glyph-name="Abreve" unicode="&#x102;" horiz-adv-x="779" 
d="M388 790q53 0 89.5 32.5t36.5 79.5v42h-80v-31q0 -18 -13.5 -30.5t-32.5 -12.5q-18 0 -31.5 12.5t-13.5 30.5v31h-81v-42q0 -47 36.5 -79.5t89.5 -32.5zM741 0l-143 1l-53 132h-305l-54 -133h-143l295 740h104zM292 264h201l-101 253z" />
    <glyph glyph-name="abreve" unicode="&#x103;" horiz-adv-x="601" 
d="M293 554q53 0 89.5 32.5t36.5 79.5v43l-81 -1v-31q0 -18 -13.5 -30.5t-31.5 -12.5q-19 0 -32.5 12.5t-13.5 30.5v31h-80v-42q0 -47 36.5 -79.5t89.5 -32.5zM552 500v-500h-110v43q-67 -51 -148 -51q-107 0 -182.5 76t-75.5 183q0 106 75.5 181.5t182.5 75.5q82 0 147 -51
v43h111zM297 123q52 0 89 37.5t37 90.5t-36.5 89.5t-89.5 36.5t-89.5 -36.5t-36.5 -89.5t37 -90.5t89 -37.5z" />
    <glyph glyph-name="Aogonek" unicode="&#x104;" horiz-adv-x="781" 
d="M738 -125l27 -43q-35 -17 -70 -17q-50 0 -84 35t-34 86q0 39 17 73l-49 124h-305l-54 -133h-143l295 740h104l299 -740h-74q-23 -35 -23 -65q0 -38 29 -55t65 -5zM292 264h201l-101 253z" />
    <glyph glyph-name="aogonek" unicode="&#x105;" horiz-adv-x="608" 
d="M586 -125l27 -43q-37 -17 -70 -17q-51 0 -85 35t-34 86q0 37 18 73v34q-67 -51 -148 -51q-107 0 -182.5 76t-75.5 183q0 106 75.5 181.5t182.5 75.5q82 0 147 -51v43h111v-500h-38q-22 -34 -22 -65q0 -38 29 -55t65 -5zM297 123q52 0 89 37.5t37 90.5t-36.5 89.5
t-89.5 36.5t-89.5 -36.5t-36.5 -89.5t37 -90.5t89 -37.5z" />
    <glyph glyph-name="Cacute" unicode="&#x106;" horiz-adv-x="738" 
d="M346 786l202 107l-51 92l-199 -107zM411 -6q159 0 274 115l-78 102q-86 -86 -197 -86q-101 0 -173 72t-72 173t72 173t173 72t197 -88l78 96q-121 123 -276 123q-154 0 -264 -110.5t-110 -265.5t110 -265.5t266 -110.5z" />
    <glyph glyph-name="cacute" unicode="&#x107;" horiz-adv-x="525" 
d="M247 550l202 107l-51 92l-199 -107zM295 -8q100 0 191 88l-81 96q-48 -51 -108 -51q-52 0 -89 37t-37 89t37 89.5t89 37.5q58 0 107 -48l82 93q-83 85 -190 85q-106 0 -181 -75.5t-75 -182.5q0 -106 75 -182t180 -76z" />
    <glyph glyph-name="Ccaron" unicode="&#x10c;" horiz-adv-x="738" 
d="M569 941h-131l-46 -56l-47 56h-125l131 -150h87zM411 -6q159 0 274 115l-78 102q-86 -86 -197 -86q-101 0 -173 72t-72 173t72 173t173 72t197 -88l78 96q-121 123 -276 123q-154 0 -264 -110.5t-110 -265.5t110 -265.5t266 -110.5z" />
    <glyph glyph-name="ccaron" unicode="&#x10d;" horiz-adv-x="525" 
d="M470 705h-131l-46 -56l-47 56h-125l131 -150h87zM295 -8q100 0 191 88l-81 96q-48 -51 -108 -51q-52 0 -89 37t-37 89t37 89.5t89 37.5q58 0 107 -48l82 93q-83 85 -190 85q-106 0 -181 -75.5t-75 -182.5q0 -106 75 -182t180 -76z" />
    <glyph glyph-name="Emacron" unicode="&#x112;" horiz-adv-x="509" 
d="M397 791v103h-266v-103h266zM464 131v-131h-409v740h409v-131h-278v-181h260v-115h-260v-182h278z" />
    <glyph glyph-name="emacron" unicode="&#x113;" horiz-adv-x="582" 
d="M429 555v103h-267v-103h267zM548 209h-378q17 -46 54 -70t80 -24q71 0 135 54l77 -93q-96 -84 -214 -84q-113 0 -189.5 77t-76.5 186q0 106 74.5 179.5t182.5 73.5q111 0 183 -82t72 -217zM171 309h235q-8 38 -39.5 64.5t-76.5 26.5t-78 -25.5t-41 -65.5z" />
    <glyph glyph-name="Edotaccent" unicode="&#x116;" horiz-adv-x="509" 
d="M315 847q0 24 -16.5 41t-40.5 17t-40.5 -17t-16.5 -41q0 -23 16.5 -39.5t40.5 -16.5t40.5 16.5t16.5 39.5zM464 131v-131h-409v740h409v-131h-278v-181h260v-115h-260v-182h278z" />
    <glyph glyph-name="edotaccent" unicode="&#x117;" horiz-adv-x="582" 
d="M347 611q0 24 -17 41t-40 17q-24 0 -40.5 -17t-16.5 -41q0 -23 16.5 -39.5t40.5 -16.5q23 0 40 16.5t17 39.5zM548 209h-378q17 -46 54 -70t80 -24q71 0 135 54l77 -93q-96 -84 -214 -84q-113 0 -189.5 77t-76.5 186q0 106 74.5 179.5t182.5 73.5q111 0 183 -82t72 -217z
M171 309h235q-8 38 -39.5 64.5t-76.5 26.5t-78 -25.5t-41 -65.5z" />
    <glyph glyph-name="Eogonek" unicode="&#x118;" horiz-adv-x="514" 
d="M521 -125l27 -43q-35 -17 -70 -17q-51 0 -85 35t-34 86q0 33 14 64h-318v740h409v-131h-278v-181h260v-115h-260v-182h278v-131h-15q-22 -34 -22 -65q0 -38 29 -55t65 -5z" />
    <glyph glyph-name="eogonek" unicode="&#x119;" horiz-adv-x="582" 
d="M516 76q-69 -60 -153 -78q-21 -33 -21 -63q0 -38 29 -55t65 -5l27 -43q-37 -17 -70 -17q-51 0 -85 35t-34 86q0 27 11 57q-106 6 -177.5 82t-71.5 180q0 106 74.5 179.5t182.5 73.5q111 0 183 -82t72 -217h-378q17 -46 54 -70t80 -24q71 0 135 54zM290 400
q-45 0 -78 -25.5t-41 -65.5h235q-8 38 -39.5 64.5t-76.5 26.5z" />
    <glyph glyph-name="Ecaron" unicode="&#x11a;" horiz-adv-x="509" 
d="M435 941h-131l-46 -56l-47 56h-125l131 -150h87zM464 131v-131h-409v740h409v-131h-278v-181h260v-115h-260v-182h278z" />
    <glyph glyph-name="ecaron" unicode="&#x11b;" horiz-adv-x="582" 
d="M467 705h-131l-46 -56l-48 56h-124l131 -150h87zM548 209h-378q17 -46 54 -70t80 -24q71 0 135 54l77 -93q-96 -84 -214 -84q-113 0 -189.5 77t-76.5 186q0 106 74.5 179.5t182.5 73.5q111 0 183 -82t72 -217zM171 309h235q-8 38 -39.5 64.5t-76.5 26.5t-78 -25.5
t-41 -65.5z" />
    <glyph glyph-name="Imacron" unicode="&#x12a;" horiz-adv-x="234" 
d="M255 788v103h-266v-103h266zM55 0h129v740h-129v-740z" />
    <glyph glyph-name="imacron" unicode="&#x12b;" horiz-adv-x="224" 
d="M249 555v103h-266v-103h266zM179 0v500h-129v-500h129z" />
    <glyph glyph-name="Iogonek" unicode="&#x12e;" horiz-adv-x="241" 
d="M245 -125l27 -43q-35 -17 -70 -17q-51 0 -85 35t-34 86q0 33 14 64h-42v740h129v-740h-11q-22 -34 -22 -65q0 -38 29 -55t65 -5z" />
    <glyph glyph-name="iogonek" unicode="&#x12f;" horiz-adv-x="230" 
d="M110 555q-24 0 -40.5 16.5t-16.5 39.5q0 24 16.5 41t40.5 17t40.5 -17t16.5 -41q0 -23 -16.5 -39.5t-40.5 -16.5zM194 -125l27 -43q-35 -17 -70 -17q-51 0 -84.5 35t-33.5 86q0 38 17 72v492h129v-500h-57q-22 -34 -22 -65q0 -38 29 -55t65 -5z" />
    <glyph glyph-name="dotlessi" unicode="&#x131;" horiz-adv-x="211" 
d="M173 0v500h-129v-500h129z" />
    <glyph glyph-name="Lacute" unicode="&#x139;" horiz-adv-x="477" 
d="M121 791l202 107l-51 92l-199 -106zM448 0v131h-262v609h-131v-740h393z" />
    <glyph glyph-name="lacute" unicode="&#x13a;" horiz-adv-x="300" 
d="M100 755l202 107l-51 92l-199 -106zM264 131v-131h-34q-92 0 -134.5 44.5t-42.5 142.5v513h132v-515q0 -25 13 -39.5t36 -14.5h30z" />
    <glyph glyph-name="Lslash" unicode="&#x141;" horiz-adv-x="517" 
d="M226 131h262v-131h-393v244l-40 -22v126l40 22v370h131v-297l192 105v-128l-192 -105v-184z" />
    <glyph glyph-name="lslash" unicode="&#x142;" horiz-adv-x="326" 
d="M270 131h29v-131h-32q-93 0 -135 45.5t-42 144.5v54l-40 -22v126l40 23v329h131v-257l74 41v-128l-74 -41v-127q0 -26 13 -41.5t36 -15.5z" />
    <glyph glyph-name="Nacute" unicode="&#x143;" horiz-adv-x="680" 
d="M280 786l203 107l-52 92l-199 -107zM500 740h131v-740h-102l-343 494v-494h-131v740h99l346 -496v496z" />
    <glyph glyph-name="nacute" unicode="&#x144;" horiz-adv-x="522" 
d="M217 550l203 107l-52 92l-199 -107zM274 508q87 0 147.5 -63t60.5 -153v-292h-130v292q0 35 -25.5 60.5t-60.5 25.5q-36 0 -61.5 -25.5t-25.5 -60.5v-292h-130v500h104v-33q55 41 121 41z" />
    <glyph glyph-name="Ncaron" unicode="&#x147;" horiz-adv-x="680" 
d="M503 941h-131l-45 -56l-48 56h-125l131 -150h87zM500 740h131v-740h-102l-343 494v-494h-131v740h99l346 -496v496z" />
    <glyph glyph-name="ncaron" unicode="&#x148;" horiz-adv-x="522" 
d="M440 705h-131l-45 -56l-48 56h-125l131 -150h87zM274 508q87 0 147.5 -63t60.5 -153v-292h-130v292q0 35 -25.5 60.5t-60.5 25.5q-36 0 -61.5 -25.5t-25.5 -60.5v-292h-130v500h104v-33q55 41 121 41z" />
    <glyph glyph-name="Omacron" unicode="&#x14c;" horiz-adv-x="832" 
d="M551 791v103h-267v-103h267zM416 746q156 0 266 -110t110 -266t-110 -266t-266 -110q-155 0 -265.5 110t-110.5 266t110.5 266t265.5 110zM415 616q-101 0 -172.5 -72t-71.5 -174q0 -101 71.5 -173t172.5 -72t173.5 72.5t72.5 172.5t-72.5 173t-173.5 73z" />
    <glyph glyph-name="omacron" unicode="&#x14d;" 
d="M429 555v103h-266v-103h266zM293 508q107 0 182.5 -76t75.5 -182t-75.5 -182t-182.5 -76t-182.5 76t-75.5 182t75.5 182t182.5 76zM293 376q-53 0 -90 -37t-37 -89t37 -89.5t90 -37.5q52 0 89 37t37 90q0 52 -36.5 89t-89.5 37z" />
    <glyph glyph-name="Ohungarumlaut" unicode="&#x150;" horiz-adv-x="832" 
d="M339 770l154 170l-71 64l-150 -168zM499 770l154 170l-71 64l-151 -168zM416 746q156 0 266 -110t110 -266t-110 -266t-266 -110q-155 0 -265.5 110t-110.5 266t110.5 266t265.5 110zM415 616q-101 0 -172.5 -72t-71.5 -174q0 -101 71.5 -173t172.5 -72t173.5 72.5
t72.5 172.5t-72.5 173t-173.5 73z" />
    <glyph glyph-name="ohungarumlaut" unicode="&#x151;" 
d="M218 534l153 170l-71 64l-150 -168zM377 534l154 170l-71 64l-150 -168zM293 508q107 0 182.5 -76t75.5 -182t-75.5 -182t-182.5 -76t-182.5 76t-75.5 182t75.5 182t182.5 76zM293 376q-53 0 -90 -37t-37 -89t37 -89.5t90 -37.5q52 0 89 37t37 90q0 52 -36.5 89t-89.5 37
z" />
    <glyph glyph-name="OE" unicode="&#x152;" horiz-adv-x="1098" 
d="M1054 131v-131h-392v89q-103 -98 -246 -98q-156 0 -266 110.5t-110 266.5t110 266t266 110q144 0 246 -97v93h392v-131h-262v-181h243v-116h-243v-181h262zM661 368q0 103 -71 174t-174 71q-101 0 -173 -71.5t-72 -173.5q0 -103 71.5 -174t173.5 -71t173.5 72.5
t71.5 172.5z" />
    <glyph glyph-name="oe" unicode="&#x153;" horiz-adv-x="961" 
d="M35 250q0 106 75.5 182t182.5 76q113 0 188 -85q75 85 191 85q111 0 183 -82t72 -217h-378q17 -46 54 -70t80 -24q71 0 135 54l77 -93q-96 -84 -214 -84q-120 0 -196 89q-77 -89 -192 -89q-107 0 -182.5 76t-75.5 182zM550 309h235q-8 38 -39.5 64.5t-76.5 26.5
t-78 -25.5t-41 -65.5zM166 250q0 -52 37 -89.5t90 -37.5q52 0 89 37t37 90q0 52 -36.5 89t-89.5 37t-90 -37t-37 -89z" />
    <glyph glyph-name="Racute" unicode="&#x154;" horiz-adv-x="584" 
d="M389 890l-203 -107l-47 93l198 106zM403 0l-169 295h-48v-295h-132v740h229q92 0 157 -65t65 -157q0 -69 -38 -125t-99 -81l184 -312h-149zM186 609v-183h97q38 0 65 26.5t27 65.5q0 38 -27 64.5t-65 26.5h-97z" />
    <glyph glyph-name="racute" unicode="&#x155;" horiz-adv-x="356" 
d="M125 548l203 107l-52 92l-198 -106zM328 500v-124h-62q-36 0 -61 -23t-25 -59v-294h-130v500h103v-33q40 33 104 33h71z" />
    <glyph glyph-name="Rcaron" unicode="&#x158;" horiz-adv-x="584" 
d="M279 788h-87l-131 150h124l48 -56l46 56h131zM403 0l-169 295h-48v-295h-132v740h229q92 0 157 -65t65 -157q0 -69 -38 -125t-99 -81l184 -312h-149zM186 609v-183h97q38 0 65 26.5t27 65.5q0 38 -27 64.5t-65 26.5h-97z" />
    <glyph glyph-name="rcaron" unicode="&#x159;" horiz-adv-x="385" 
d="M366 703h-131l-45 -56l-48 56h-125l131 -150h87zM345 500v-124h-62q-36 0 -61 -23.5t-25 -58.5v-294h-130v500h104v-33q40 33 104 33h70z" />
    <glyph glyph-name="Sacute" unicode="&#x15a;" horiz-adv-x="533" 
d="M205 786l203 107l-52 92l-199 -107zM272 -8q96 0 159.5 63t63.5 155q0 146 -185 231q-6 3 -22.5 11t-22.5 11t-20 10.5t-19.5 12t-14.5 12.5t-13 15t-7 16t-3 19q0 34 25.5 56t64.5 22q46 0 102 -36l66 101q-76 52 -162 55q-94 3 -160 -52t-70 -144q-6 -126 144 -206
q11 -6 37 -18.5t38 -19t30.5 -18.5t27.5 -22t16 -24.5t7 -30.5q0 -34 -25 -55t-64 -21q-69 0 -151 66l-67 -116q117 -93 225 -93z" />
    <glyph glyph-name="sacute" unicode="&#x15b;" horiz-adv-x="423" 
d="M168 550l203 107l-51 92l-199 -107zM365 462q-82 46 -150 46q-73 0 -121.5 -40t-48.5 -105q0 -34 13 -60.5t37.5 -44.5t40 -26t39.5 -18q49 -20 67.5 -33t18.5 -30q0 -16 -12.5 -27t-36.5 -11q-27 0 -63.5 12.5t-58.5 25.5l-49 -103q85 -56 172 -56q81 0 131.5 47
t50.5 113q0 59 -40.5 100.5t-104.5 64.5q-61 23 -71 35q-6 7 -6 16q0 15 13 24t34 9q26 0 90 -32z" />
    <glyph glyph-name="Scedilla" unicode="&#x15e;" horiz-adv-x="533" 
d="M495 210q0 -81 -49.5 -140.5t-129.5 -73.5v-20q33 -13 54 -43t21 -66q0 -47 -34 -80.5t-81 -33.5q-45 0 -79.5 31.5t-34.5 79.5h78q0 -11 11 -21.5t24 -10.5q15 0 25.5 11t10.5 25t-10.5 24.5t-25.5 10.5h-40v92q-90 11 -188 90l67 116q82 -66 151 -66q39 0 64 21t25 55
q0 16 -7 30.5t-16 24.5t-27.5 22t-30.5 18.5t-38 19t-37 18.5q-150 80 -144 206q4 89 70 144t160 52q86 -3 162 -55l-66 -101q-56 36 -102 36q-39 0 -64.5 -22t-25.5 -56q0 -10 3 -19t7 -16t13 -15t14.5 -12.5t19.5 -12t20 -10.5t22.5 -11t22.5 -11q185 -85 185 -231z" />
    <glyph glyph-name="scedilla" unicode="&#x15f;" horiz-adv-x="423" 
d="M395 152q0 -55 -36 -98t-97 -57v-21q33 -13 54 -43t21 -66q0 -47 -34 -80.5t-81 -33.5q-46 0 -80.5 31.5t-34.5 79.5h79q0 -12 10.5 -22t24.5 -10q15 0 25 10.5t10 25.5q0 14 -10 24.5t-25 10.5h-40v91q-71 9 -140 54l49 103q22 -13 58.5 -25.5t63.5 -12.5q24 0 36.5 11
t12.5 27q0 17 -18.5 30t-67.5 33q-24 10 -39.5 18t-40 26t-37.5 44.5t-13 60.5q0 65 48.5 105t121.5 40q68 0 150 -46l-55 -93q-64 32 -90 32q-21 0 -34 -9t-13 -24q0 -22 70 -48q4 -2 7 -3q64 -23 104.5 -64.5t40.5 -100.5z" />
    <glyph glyph-name="Scaron" unicode="&#x160;" horiz-adv-x="533" 
d="M429 941h-131l-46 -56l-48 56h-125l132 -150h86zM272 -8q96 0 159.5 63t63.5 155q0 146 -185 231q-6 3 -22.5 11t-22.5 11t-20 10.5t-19.5 12t-14.5 12.5t-13 15t-7 16t-3 19q0 34 25.5 56t64.5 22q46 0 102 -36l66 101q-76 52 -162 55q-94 3 -160 -52t-70 -144
q-6 -126 144 -206q11 -6 37 -18.5t38 -19t30.5 -18.5t27.5 -22t16 -24.5t7 -30.5q0 -34 -25 -55t-64 -21q-69 0 -151 66l-67 -116q117 -93 225 -93z" />
    <glyph glyph-name="scaron" unicode="&#x161;" horiz-adv-x="423" 
d="M392 705h-131l-46 -56l-48 56h-124l131 -150h87zM365 462q-82 46 -150 46q-73 0 -121.5 -40t-48.5 -105q0 -34 13 -60.5t37.5 -44.5t40 -26t39.5 -18q49 -20 67.5 -33t18.5 -30q0 -16 -12.5 -27t-36.5 -11q-27 0 -63.5 12.5t-58.5 25.5l-49 -103q85 -56 172 -56
q81 0 131.5 47t50.5 113q0 59 -40.5 100.5t-104.5 64.5q-61 23 -71 35q-6 7 -6 16q0 15 13 24t34 9q26 0 90 -32z" />
    <glyph glyph-name="uni0162" unicode="&#x162;" horiz-adv-x="517" 
d="M326 0h-26v-24q33 -13 54 -43t21 -66q0 -47 -33.5 -80.5t-81.5 -33.5q-45 0 -79.5 31.5t-34.5 79.5h79q0 -12 10.5 -22t24.5 -10t24.5 11t10.5 25t-10 24.5t-25 10.5h-40v97h-24v609h-166v131h462v-131h-166v-609z" />
    <glyph glyph-name="uni0163" unicode="&#x163;" horiz-adv-x="359" 
d="M334 386h-153v-192q0 -27 17.5 -45t44.5 -18h87v-131h-77v-24q33 -13 54 -43t21 -66q0 -47 -34 -80.5t-81 -33.5q-45 0 -79.5 31.5t-34.5 79.5h79q0 -12 10.5 -22t24.5 -10t24.5 11t10.5 25t-10 24.5t-25 10.5h-41v106q-122 33 -122 186v464h131v-159h153v-114z" />
    <glyph glyph-name="Umacron" unicode="&#x16a;" 
d="M430 791v103h-266v-103h266zM296 -6q100 0 170.5 70.5t70.5 170.5v505h-131v-505q0 -45 -32 -77.5t-78 -32.5t-78.5 32.5t-32.5 77.5v505h-130v-505q0 -100 70.5 -170.5t170.5 -70.5z" />
    <glyph glyph-name="umacron" unicode="&#x16b;" horiz-adv-x="523" 
d="M401 555v103h-267v-103h267zM267 -8q89 0 153 63.5t64 153.5v291h-131v-291q0 -35 -25.5 -61t-60.5 -26q-36 0 -61.5 26t-25.5 61v291h-130v-291q0 -90 63.5 -153.5t153.5 -63.5z" />
    <glyph glyph-name="Uring" unicode="&#x16e;" 
d="M294 1007q45 0 76.5 -31.5t31.5 -76.5t-31.5 -76.5t-76.5 -31.5t-77 31.5t-32 76.5t32 76.5t77 31.5zM294 937q-16 0 -27 -11t-11 -27t11 -27t27 -11t27 11t11 27t-11 27t-27 11zM296 -6q100 0 170.5 70.5t70.5 170.5v505h-131v-505q0 -45 -32 -77.5t-78 -32.5
t-78.5 32.5t-32.5 77.5v505h-130v-505q0 -100 70.5 -170.5t170.5 -70.5z" />
    <glyph glyph-name="uring" unicode="&#x16f;" horiz-adv-x="523" 
d="M264 771q45 0 77 -31.5t32 -76.5t-32 -76.5t-77 -31.5q-44 0 -76 31.5t-32 76.5t32 76.5t76 31.5zM264 701q-15 0 -26 -11t-11 -27t11 -27t26 -11q16 0 27.5 11t11.5 27t-11.5 27t-27.5 11zM267 -8q89 0 153 63.5t64 153.5v291h-131v-291q0 -35 -25.5 -61t-60.5 -26
q-36 0 -61.5 26t-25.5 61v291h-130v-291q0 -90 63.5 -153.5t153.5 -63.5z" />
    <glyph glyph-name="Uhungarumlaut" unicode="&#x170;" horiz-adv-x="587" 
d="M218 770l154 170l-71 64l-150 -168zM378 770l154 170l-71 64l-150 -168zM296 -6q100 0 170.5 70.5t70.5 170.5v505h-131v-505q0 -45 -32 -77.5t-78 -32.5t-78.5 32.5t-32.5 77.5v505h-130v-505q0 -100 70.5 -170.5t170.5 -70.5z" />
    <glyph glyph-name="uhungarumlaut" unicode="&#x171;" horiz-adv-x="523" 
d="M189 534l154 170l-71 64l-151 -168zM349 534l154 170l-71 64l-151 -168zM267 -8q89 0 153 63.5t64 153.5v291h-131v-291q0 -35 -25.5 -61t-60.5 -26q-36 0 -61.5 26t-25.5 61v291h-130v-291q0 -90 63.5 -153.5t153.5 -63.5z" />
    <glyph glyph-name="Uogonek" unicode="&#x172;" 
d="M537 235q0 -78 -46 -141t-118 -87q-27 -40 -27 -72q0 -38 29.5 -55t64.5 -5l27 -43q-35 -17 -70 -17q-50 0 -84 35t-34 86q0 28 11 58q-98 2 -166.5 72.5t-68.5 168.5v505h130v-505q0 -45 32.5 -77.5t78.5 -32.5t78 32.5t32 77.5v505h131v-505z" />
    <glyph glyph-name="uogonek" unicode="&#x173;" horiz-adv-x="523" 
d="M484 209q0 -66 -36.5 -120t-95.5 -79q-29 -42 -29 -75q0 -38 29.5 -55t64.5 -5l27 -43q-35 -17 -70 -17q-50 0 -84 35t-34 86q0 30 10 56q-89 0 -152.5 63.5t-63.5 153.5v291h130v-291q0 -35 25.5 -61t61.5 -26q35 0 60.5 26t25.5 61v291h131v-291z" />
    <glyph glyph-name="Wcircumflex" unicode="&#x174;" horiz-adv-x="939" 
d="M645 791l-131 150h-87l-131 -150h125l47 55l46 -55h131zM904 740l-207 -740h-106l-120 451l-118 -451h-106l-207 740h143l128 -454l117 443h88l117 -443l127 454h144z" />
    <glyph glyph-name="wcircumflex" unicode="&#x175;" horiz-adv-x="842" 
d="M596 555l-131 150h-87l-131 -150h125l48 55l45 -55h131zM386 483l75 -1l105 -268l108 286h138l-195 -500h-88l-105 277l-107 -277h-88l-196 500h140l107 -286z" />
    <glyph glyph-name="Ycircumflex" unicode="&#x176;" horiz-adv-x="692" 
d="M519 791l-131 150h-87l-131 -150h125l47 55l46 -55h131zM649 740l-235 -404v-336h-131v336l-235 404h159l141 -250l142 250h159z" />
    <glyph glyph-name="ycircumflex" unicode="&#x177;" horiz-adv-x="587" 
d="M452 555l-132 150h-86l-132 -150h125l48 55l46 -55h131zM539 500l-207 -502q-73 -174 -238 -207l-42 117q120 23 164 148l-183 444h143l110 -268l109 268h144z" />
    <glyph glyph-name="Ydieresis" unicode="&#x178;" horiz-adv-x="692" 
d="M326 847q0 24 -16.5 41t-40.5 17q-23 0 -39.5 -17t-16.5 -41q0 -23 16.5 -39.5t39.5 -16.5q24 0 40.5 16.5t16.5 39.5zM476 847q0 24 -16.5 41t-40.5 17q-23 0 -40 -17t-17 -41q0 -23 17 -39.5t40 -16.5q24 0 40.5 16.5t16.5 39.5zM649 740l-235 -404v-336h-131v336
l-235 404h159l141 -250l142 250h159z" />
    <glyph glyph-name="Zacute" unicode="&#x179;" horiz-adv-x="605" 
d="M235 791l203 107l-51 92l-199 -106zM575 131v-131h-522v131l341 487h-359v122h519v-121l-342 -488h363z" />
    <glyph glyph-name="zacute" unicode="&#x17a;" horiz-adv-x="478" 
d="M182 550l203 107l-52 92l-199 -107zM448 130v-130h-410v130l243 253h-246v117h403v-118l-233 -252h243z" />
    <glyph glyph-name="Zdotaccent" unicode="&#x17b;" horiz-adv-x="605" 
d="M339 853q0 23 -16.5 40t-40.5 17t-40.5 -17t-16.5 -40t16.5 -40t40.5 -17t40.5 17t16.5 40zM575 131v-131h-522v131l341 487h-359v122h519v-121l-342 -488h363z" />
    <glyph glyph-name="zdotaccent" unicode="&#x17c;" horiz-adv-x="478" 
d="M285 611q0 24 -16.5 41t-40.5 17q-23 0 -39.5 -17t-16.5 -41q0 -23 16.5 -39.5t39.5 -16.5q24 0 40.5 16.5t16.5 39.5zM448 130v-130h-410v130l243 253h-246v117h403v-118l-233 -252h243z" />
    <glyph glyph-name="Zcaron" unicode="&#x17d;" horiz-adv-x="605" 
d="M459 946h-131l-46 -56l-48 56h-124l131 -150h87zM575 131v-131h-522v131l341 487h-359v122h519v-121l-342 -488h363z" />
    <glyph glyph-name="zcaron" unicode="&#x17e;" horiz-adv-x="478" 
d="M406 705h-131l-46 -56l-48 56h-125l131 -150h87zM448 130v-130h-410v130l243 253h-246v117h403v-118l-233 -252h243z" />
    <glyph glyph-name="florin" unicode="&#x192;" horiz-adv-x="447" 
d="M340 569q-26 0 -44 -18.5t-18 -45.5v-92h141v-111h-141v-323q0 -84 -52.5 -131.5t-127.5 -47.5h-65v132h65q20 0 34.5 13.5t14.5 33.5v526q0 91 53.5 143t139.5 52h79v-131h-79z" />
    <glyph glyph-name="uni0237" unicode="&#x237;" horiz-adv-x="290" 
d="M246 35v465h-131v-465q0 -91 -95 -132l67 -111q159 67 159 243z" />
    <glyph glyph-name="circumflex" unicode="&#x2c6;" horiz-adv-x="426" 
d="M387 570l-131 150h-87l-131 -150h125l48 56l46 -56h130z" />
    <glyph glyph-name="caron" unicode="&#x2c7;" horiz-adv-x="426" 
d="M387 720h-130l-46 -56l-48 56h-125l131 -150h87z" />
    <glyph glyph-name="breve" unicode="&#x2d8;" horiz-adv-x="328" 
d="M164 569q53 0 89.5 32.5t36.5 79.5v43l-80 -1v-31q0 -18 -13.5 -30.5t-32.5 -12.5q-18 0 -31.5 12.5t-13.5 30.5v31h-81v-42q0 -47 36.5 -79.5t89.5 -32.5z" />
    <glyph glyph-name="dotaccent" unicode="&#x2d9;" horiz-adv-x="190" 
d="M152 627q0 23 -16.5 40t-40.5 17t-40.5 -17t-16.5 -40t16.5 -40t40.5 -17t40.5 17t16.5 40z" />
    <glyph glyph-name="ring" unicode="&#x2da;" horiz-adv-x="293" 
d="M146 786q46 0 77.5 -31.5t31.5 -76.5q0 -44 -31.5 -76t-77.5 -32q-44 0 -76 32t-32 76q0 45 32 76.5t76 31.5zM146 716q-15 0 -26 -11t-11 -27t11 -27t26 -11q16 0 27.5 11t11.5 27t-11.5 27t-27.5 11z" />
    <glyph glyph-name="ogonek" unicode="&#x2db;" horiz-adv-x="265" 
d="M157 -191q-51 0 -85 35t-34 86q0 39 20 77h79q-31 -42 -31 -78q0 -38 29 -55t65 -5l27 -43q-37 -17 -70 -17z" />
    <glyph glyph-name="tilde" unicode="&#x2dc;" horiz-adv-x="439" 
d="M119 570q18 32 52 32q11 0 40 -13.5t60 -13.5q77 0 129 80l-87 53q-22 -36 -57 -36q-16 0 -46 12.5t-54 12.5q-34 0 -66 -19t-52 -53z" />
    <glyph glyph-name="hungarumlaut" unicode="&#x2dd;" horiz-adv-x="411" 
d="M113 550l153 169l-71 64l-150 -168zM272 550l154 169l-71 64l-150 -168z" />
    <glyph glyph-name="gravecomb" unicode="&#x300;" horiz-adv-x="0" 
d="M-86 565l48 93l-199 106l-52 -92z" />
    <glyph glyph-name="acutecomb" unicode="&#x301;" horiz-adv-x="0" 
d="M-181 565l203 107l-52 92l-199 -106z" />
    <glyph glyph-name="uni0302" unicode="&#x302;" horiz-adv-x="0" 
d="M-39 570l-131 150h-87l-131 -150h125l48 56l46 -56h130z" />
    <glyph glyph-name="tildecomb" unicode="&#x303;" horiz-adv-x="0" 
d="M-320 570q18 32 52 32q11 0 40 -13.5t60 -13.5q76 0 129 80l-87 53q-22 -36 -57 -36q-16 0 -46 12.5t-54 12.5q-34 0 -66 -19t-52 -53z" />
    <glyph glyph-name="uni0304" unicode="&#x304;" horiz-adv-x="0" 
d="M-38 570v103h-267v-103h267z" />
    <glyph glyph-name="uni0306" unicode="&#x306;" horiz-adv-x="0" 
d="M-164 569q53 0 89.5 32.5t36.5 79.5v43l-80 -1v-31q0 -18 -13.5 -30.5t-32.5 -12.5q-18 0 -31.5 12.5t-13.5 30.5v31h-81v-42q0 -47 36.5 -79.5t89.5 -32.5z" />
    <glyph glyph-name="uni0307" unicode="&#x307;" horiz-adv-x="0" 
d="M-38 627q0 23 -16.5 40t-40.5 17t-40.5 -17t-16.5 -40t16.5 -40t40.5 -17t40.5 17t16.5 40z" />
    <glyph glyph-name="uni0308" unicode="&#x308;" horiz-adv-x="0" 
d="M-188 627q0 23 -16.5 40t-40.5 17t-40.5 -17t-16.5 -40t16.5 -40t40.5 -17t40.5 17t16.5 40zM-39 627q0 23 -16.5 40t-39.5 17q-24 0 -40.5 -17t-16.5 -40t16.5 -40t40.5 -17q23 0 39.5 17t16.5 40z" />
    <glyph glyph-name="uni030A" unicode="&#x30a;" horiz-adv-x="0" 
d="M-147 786q46 0 77.5 -31.5t31.5 -76.5q0 -44 -32 -76t-77 -32q-44 0 -76 32t-32 76q0 45 32 76.5t76 31.5zM-147 716q-15 0 -26 -11t-11 -27t11 -27t26 -11q16 0 27.5 11t11.5 27t-11.5 27t-27.5 11z" />
    <glyph glyph-name="uni030B" unicode="&#x30b;" horiz-adv-x="0" 
d="M-298 550l153 169l-71 64l-150 -168zM-139 550l154 169l-71 64l-150 -168z" />
    <glyph glyph-name="uni030C" unicode="&#x30c;" horiz-adv-x="0" 
d="M-39 720h-130l-46 -56l-48 56h-125l131 -150h87z" />
    <glyph glyph-name="uni0327" unicode="&#x327;" horiz-adv-x="0" 
d="M-153 -247q-46 0 -80.5 31.5t-34.5 79.5h79q0 -12 10.5 -22t24.5 -10t24.5 11t10.5 25t-10 24.5t-25 10.5h-40v109h81v-36q33 -13 54 -43t21 -66q0 -47 -34 -80.5t-81 -33.5z" />
    <glyph glyph-name="uni0328" unicode="&#x328;" horiz-adv-x="0" 
d="M-108 -191q-51 0 -85 35t-34 86q0 39 20 77h79q-31 -42 -31 -78q0 -38 29 -55t65 -5l27 -43q-37 -17 -70 -17z" />
    <glyph glyph-name="uni0335" unicode="&#x335;" horiz-adv-x="0" 
d="M-38 224v103h-267v-103h267z" />
    <glyph glyph-name="uni0338" unicode="&#x338;" horiz-adv-x="0" 
d="M-418 0h103l287 740h-104z" />
    <glyph glyph-name="Pi" unicode="&#x3a0;" horiz-adv-x="645" 
d="M471 0h131v740h-554v-740h131v609h292v-609z" />
    <glyph glyph-name="uni03A9" unicode="&#x3a9;" horiz-adv-x="920" 
d="M882 118v-118h-316v125q65 32 103.5 96t38.5 138q0 107 -73 183t-174 76q-103 0 -175.5 -76t-72.5 -183q0 -75 38.5 -139t102.5 -95v-125h-316v118h127q-83 107 -83 241q0 162 111 276.5t268 114.5q155 0 266 -114.5t111 -276.5q0 -134 -82 -241h126z" />
    <glyph glyph-name="uni03BC" unicode="&#x3bc;" horiz-adv-x="515" 
d="M352 500h130v-291q0 -90 -63.5 -153.5t-153.5 -63.5q-49 0 -86 22v-214h-131v700h131v-291q0 -36 25.5 -61t60.5 -25q36 0 61.5 25t25.5 61v291z" />
    <glyph glyph-name="pi" unicode="&#x3c0;" horiz-adv-x="681" 
d="M590 129h57v-129l-57 -1q-74 0 -126 52.5t-52 125.5v193h-125l-85 -370h-134l85 370h-105v130h493v-323q0 -20 14.5 -34t34.5 -14z" />
    <glyph glyph-name="Wgrave" unicode="&#x1e80;" horiz-adv-x="939" 
d="M518 786l47 92l-198 107l-52 -92zM904 740l-207 -740h-106l-120 451l-118 -451h-106l-207 740h143l128 -454l117 443h88l117 -443l127 454h144z" />
    <glyph glyph-name="wgrave" unicode="&#x1e81;" horiz-adv-x="842" 
d="M469 550l48 92l-199 107l-52 -92zM386 483l75 -1l105 -268l108 286h138l-195 -500h-88l-105 277l-107 -277h-88l-196 500h140l107 -286z" />
    <glyph glyph-name="Wacute" unicode="&#x1e82;" horiz-adv-x="939" 
d="M422 786l203 107l-52 92l-198 -107zM904 740l-207 -740h-106l-120 451l-118 -451h-106l-207 740h143l128 -454l117 443h88l117 -443l127 454h144z" />
    <glyph glyph-name="wacute" unicode="&#x1e83;" horiz-adv-x="842" 
d="M373 550l203 107l-52 92l-198 -107zM386 483l75 -1l105 -268l108 286h138l-195 -500h-88l-105 277l-107 -277h-88l-196 500h140l107 -286z" />
    <glyph glyph-name="Wdieresis" unicode="&#x1e84;" horiz-adv-x="939" 
d="M452 847q0 24 -16.5 41t-40.5 17q-23 0 -39.5 -17t-16.5 -41q0 -23 16.5 -39.5t39.5 -16.5q24 0 40.5 16.5t16.5 39.5zM602 847q0 24 -16.5 41t-40.5 17q-23 0 -39.5 -17t-16.5 -41q0 -23 16.5 -39.5t39.5 -16.5q24 0 40.5 16.5t16.5 39.5zM904 740l-207 -740h-106
l-120 451l-118 -451h-106l-207 740h143l128 -454l117 443h88l117 -443l127 454h144z" />
    <glyph glyph-name="wdieresis" unicode="&#x1e85;" horiz-adv-x="842" 
d="M403 611q0 24 -16.5 41t-40.5 17q-23 0 -39.5 -17t-16.5 -41q0 -23 16.5 -39.5t39.5 -16.5q24 0 40.5 16.5t16.5 39.5zM553 611q0 24 -16.5 41t-40.5 17q-23 0 -39.5 -17t-16.5 -41q0 -23 16.5 -39.5t39.5 -16.5q24 0 40.5 16.5t16.5 39.5zM386 483l75 -1l105 -268
l108 286h138l-195 -500h-88l-105 277l-107 -277h-88l-196 500h140l107 -286z" />
    <glyph glyph-name="Ygrave" unicode="&#x1ef2;" horiz-adv-x="692" 
d="M392 786l47 92l-198 107l-52 -92zM649 740l-235 -404v-336h-131v336l-235 404h159l141 -250l142 250h159z" />
    <glyph glyph-name="ygrave" unicode="&#x1ef3;" horiz-adv-x="587" 
d="M324 550l48 92l-199 107l-52 -92zM539 500l-207 -502q-73 -174 -238 -207l-42 117q120 23 164 148l-183 444h143l110 -268l109 268h144z" />
    <glyph glyph-name="endash" unicode="&#x2013;" horiz-adv-x="725" 
d="M677 235v129h-629v-129h629z" />
    <glyph glyph-name="quoteleft" unicode="&#x2018;" horiz-adv-x="229" 
d="M87 544l-49 196h108l50 -196h-109z" />
    <glyph glyph-name="quoteright" unicode="&#x2019;" horiz-adv-x="229" 
d="M143 544h-110l50 196h108z" />
    <glyph glyph-name="quotedblleft" unicode="&#x201c;" horiz-adv-x="382" 
d="M87 544l-49 196h108l50 -196h-109zM240 544l-49 196h108l50 -196h-109z" />
    <glyph glyph-name="quotedblright" unicode="&#x201d;" horiz-adv-x="382" 
d="M143 544h-110l50 196h108zM295 544h-109l50 196h108z" />
    <glyph glyph-name="quotedblbase" unicode="&#x201e;" horiz-adv-x="377" 
d="M138 -83h-110l50 196h108zM290 -83h-109l50 196h108z" />
    <glyph glyph-name="dagger" unicode="&#x2020;" horiz-adv-x="582" 
d="M559 488v-117h-207v-568h-117v568h-207v117h207v252h117v-252h207z" />
    <glyph glyph-name="daggerdbl" unicode="&#x2021;" horiz-adv-x="582" 
d="M559 317v-118h-207v-396h-117v396h-207v118h207v54h-207v117h207v252h117v-252h207v-117h-207v-54h207z" />
    <glyph glyph-name="bullet" unicode="&#x2022;" horiz-adv-x="347" 
d="M309 246q0 57 -40 96t-96 39t-95.5 -39t-39.5 -96q0 -55 39.5 -94t95.5 -39t96 39t40 94z" />
    <glyph glyph-name="perthousand" unicode="&#x2030;" horiz-adv-x="1173" 
d="M208 402q70 0 120 49.5t50 119.5t-50 120t-120 50t-120 -49.5t-50 -120.5q0 -70 49.5 -119.5t120.5 -49.5zM271 0l389 740h-117l-389 -740h117zM208 638q27 0 47 -19.5t20 -47.5q0 -26 -20 -45.5t-47 -19.5t-46.5 19.5t-19.5 45.5q0 28 19.5 47.5t46.5 19.5zM607 -1
q70 0 120 50t50 120t-50 120t-120 50t-120 -50t-50 -120t50 -120t120 -50zM980 -1q70 0 119.5 50t49.5 120q0 71 -49.5 120.5t-119.5 49.5t-120 -50t-50 -120t50 -120t120 -50zM607 235q28 0 47 -19t19 -47q0 -27 -19.5 -46.5t-46.5 -19.5t-46.5 19.5t-19.5 46.5q0 28 19 47
t47 19zM980 235q28 0 47 -19t19 -47q0 -27 -19.5 -46.5t-46.5 -19.5t-46.5 19.5t-19.5 46.5q0 28 19 47t47 19z" />
    <glyph glyph-name="guilsinglleft" unicode="&#x2039;" horiz-adv-x="367" 
d="M334 118l-134 134l133 134l-83 77l-212 -210l212 -214z" />
    <glyph glyph-name="guilsinglright" unicode="&#x203a;" horiz-adv-x="367" 
d="M33 118l84 -79l212 214l-212 210l-83 -77l133 -134z" />
    <glyph glyph-name="fraction" unicode="&#x2044;" horiz-adv-x="627" 
d="M150 0l454 740h-121l-455 -740h122z" />
    <glyph glyph-name="uni2070" unicode="&#x2070;" horiz-adv-x="400" 
d="M200 300q61 0 104 43t43 104v152q0 61 -43 104t-104 43q-60 0 -103.5 -43t-43.5 -104v-152q0 -61 43.5 -104t103.5 -43zM143 599q0 23 16.5 40t40.5 17q23 0 40 -17t17 -40v-152q0 -23 -17 -40t-40 -17q-24 0 -40.5 17t-16.5 40v152z" />
    <glyph glyph-name="uni2074" unicode="&#x2074;" horiz-adv-x="384" 
d="M351 460v-85h-46v-81h-91v81h-181v85l201 280h71v-280h46zM131 460h82v116z" />
    <glyph glyph-name="uni2075" unicode="&#x2075;" horiz-adv-x="366" 
d="M179 607q64 0 108.5 -45t44.5 -110t-45.5 -111.5t-107.5 -46.5q-76 0 -131 68l71 61q23 -33 60 -33q27 0 45 18t18 45t-18 45t-46 18q-22 0 -41 -14l-71 53l28 185h205v-91h-128l-6 -44q8 2 14 2z" />
    <glyph glyph-name="uni2076" unicode="&#x2076;" horiz-adv-x="405" 
d="M222 606q59 -5 99.5 -49.5t40.5 -105.5q-1 -65 -47.5 -110.5t-110.5 -44.5q-64 0 -110 46.5t-46 110.5q0 40 19 72l131 217l78 -46zM205 387q27 -1 46 18.5t19 46.5t-19 46.5t-46 19.5q-26 0 -45.5 -19.5t-19.5 -45.5q0 -27 19 -46.5t46 -19.5z" />
    <glyph glyph-name="uni2077" unicode="&#x2077;" horiz-adv-x="320" 
d="M282 648l-123 -354h-98l122 354h-160v92h259v-92z" />
    <glyph glyph-name="uni2078" unicode="&#x2078;" horiz-adv-x="380" 
d="M285 547q47 -41 47 -104q0 -59 -41.5 -101t-100.5 -42t-100.5 42t-41.5 101q0 62 47 104q-27 34 -27 77q0 51 36 86.5t86 35.5t86 -35.5t36 -86.5q0 -45 -27 -77zM190 661q-15 0 -26 -11t-11 -26q0 -16 11 -26.5t26 -10.5q16 0 26.5 10.5t10.5 26.5q0 15 -10.5 26
t-26.5 11zM190 385q24 0 40.5 17t16.5 41q0 23 -16.5 40t-40.5 17q-23 0 -40 -17t-17 -40q0 -25 16.5 -41.5t40.5 -16.5z" />
    <glyph glyph-name="uni2079" unicode="&#x2079;" horiz-adv-x="400" 
d="M196 745q64 0 110 -46t46 -111q0 -40 -19 -72l-131 -217l-78 47l54 89q-59 5 -99.5 49.5t-40.5 105.5q1 65 47 110.5t111 44.5zM195 523q26 0 45.5 20t19.5 46q0 27 -19 46.5t-46 19.5t-46 -19t-19 -46t18.5 -46.5t46.5 -20.5z" />
    <glyph glyph-name="Euro" unicode="&#x20ac;" horiz-adv-x="683" 
d="M610 155l40 -125q-88 -35 -174 -35q-118 0 -212 64.5t-136 169.5h-90v110h64q-2 22 -2 31t2 31h-64v110h90q43 105 138 170t212 65q82 0 160 -37l-40 -120q-65 26 -121 26q-59 0 -110.5 -28.5t-86.5 -75.5h220v-110h-266q-2 -11 -2 -32q0 -20 2 -30h266v-110h-222
q33 -47 84 -75.5t111 -28.5q63 0 137 30z" />
    <glyph glyph-name="trademark" unicode="&#x2122;" horiz-adv-x="714" 
d="M262 740v-78h-81v-297h-77v297h-81v78h239zM681 740v-375h-78v193l-88 -180h-41l-89 180v-193h-78v375h64l123 -251l123 251h64z" />
    <glyph glyph-name="partialdiff" unicode="&#x2202;" horiz-adv-x="582" 
d="M534 248q0 -108 -71.5 -181t-176.5 -73q-103 0 -175.5 72.5t-72.5 175.5t72.5 175.5t175.5 72.5q64 0 117 -34v40q0 46 -33.5 79.5t-80.5 33.5h-131v131h113q113 0 187.5 -67.5t75.5 -176.5v-248zM286 125q49 0 83.5 34t34.5 83t-34.5 83.5t-83.5 34.5t-83 -34.5
t-34 -83.5t34 -83t83 -34z" />
    <glyph glyph-name="uni2206" unicode="&#x2206;" horiz-adv-x="597" 
d="M559 117v-117h-516v117l216 623h84zM167 117h267l-133 386z" />
    <glyph glyph-name="product" unicode="&#x220f;" horiz-adv-x="811" 
d="M778 740v-131h-124v-806h-132v806h-228v-806h-132v806h-124v131h740z" />
    <glyph glyph-name="summation" unicode="&#x2211;" horiz-adv-x="552" 
d="M524 -140v131h-334l218 316l-215 302h331v131h-491v-131l213 -302l-212 -316v-131h490z" />
    <glyph glyph-name="radical" unicode="&#x221a;" horiz-adv-x="709" 
d="M681 740l-300 -740h-81l-147 382h-125v118h207l108 -280l210 520h128z" />
    <glyph glyph-name="infinity" unicode="&#x221e;" horiz-adv-x="919" 
d="M684 471q83 0 142.5 -62.5t59.5 -150.5q0 -87 -59.5 -149t-142.5 -62q-108 0 -222 122q-109 -122 -222 -122q-82 0 -142 62t-60 149q0 88 59.5 150.5t142.5 62.5q111 0 222 -122q114 122 222 122zM241 162q63 0 148 97q-85 97 -148 97q-36 0 -62 -28t-26 -69
q0 -40 26 -68.5t62 -28.5zM684 162q35 0 61 28.5t26 68.5q0 41 -25.5 69t-61.5 28q-65 0 -148 -97q83 -97 148 -97z" />
    <glyph glyph-name="integral" unicode="&#x222b;" horiz-adv-x="435" 
d="M92 -198q74 0 126 49t52 130v563q0 33 23 55.5t55 22.5h59v118h-59q-80 0 -137.5 -54t-57.5 -142v-563q0 -25 -17.5 -42.5t-43.5 -17.5h-59v-119h59z" />
    <glyph glyph-name="approxequal" unicode="&#x2248;" horiz-adv-x="574" 
d="M531 322v103q-116 -68 -236 -37q-55 14 -84 19.5t-74 2.5t-89 -20v-103q15 7 32.5 11.5t32 7t33 2t30.5 -1.5t30.5 -4t25.5 -5t24 -6t18 -4q141 -33 257 35zM531 160v103q-116 -68 -236 -37q-55 14 -84 19.5t-74 2.5t-89 -20v-103q15 7 32.5 11.5t32 7t33 2t30.5 -1.5
t30.5 -4t25.5 -5t24 -6t18 -4q141 -33 257 35z" />
    <glyph glyph-name="notequal" unicode="&#x2260;" horiz-adv-x="605" 
d="M562 306h-192l-26 -52h218v-115h-274l-84 -170l-90 45l61 125h-127v115h184l26 52h-210v114h266l81 163l89 -45l-58 -118h136v-114z" />
    <glyph glyph-name="lessequal" unicode="&#x2264;" horiz-adv-x="529" 
d="M486 150v116l-212 85l212 83v117l-432 -165v-70zM48 0h438v109h-438v-109z" />
    <glyph glyph-name="greaterequal" unicode="&#x2265;" horiz-adv-x="529" 
d="M43 150l432 166v70l-432 165v-117l212 -83l-212 -85v-116zM481 0v109h-438v-109h438z" />
    <glyph glyph-name="lozenge" unicode="&#x25ca;" horiz-adv-x="567" 
d="M319 0l220 370l-220 370h-66l-220 -370l220 -370h66zM170 370l116 196l117 -196l-117 -196z" />
    <glyph glyph-name="f_f.dlig" horiz-adv-x="679" 
d="M48 0v513q0 89 53.5 138t140.5 49h79v-118h-79q-27 0 -45.5 -18.5t-18.5 -44.5v-19h198v13q0 89 53 138t140 49h80v-118h-80q-27 0 -45.5 -18.5t-18.5 -44.5v-19h144v-110h-144v-390h-129v390h-198l-1 -390h-129z" />
    <glyph glyph-name="f_f_i.dlig" horiz-adv-x="906" 
d="M48 0v513q0 89 53.5 138t140.5 49h79v-118h-79q-27 0 -45.5 -18.5t-18.5 -44.5v-19h198v13q0 89 53 138t140 49h80v-118h-80q-27 0 -45.5 -18.5t-18.5 -44.5v-19h350v-500h-129v390h-221v-390h-129v390h-198l-1 -390h-129zM714 612q0 29 23 52t53 23q34 0 56 -22.5
t22 -52.5q0 -34 -21.5 -55.5t-56.5 -21.5q-31 0 -53.5 21.5t-22.5 55.5z" />
    <glyph glyph-name="f_i.dlig" horiz-adv-x="575" 
d="M48 0v513q0 89 53.5 138t140.5 49h79v-118h-79q-27 0 -45.5 -18.5t-18.5 -44.5v-19h347v-500h-129v391h-218l-1 -391h-129zM460 535q-31 0 -53.5 21.5t-22.5 55.5q0 29 23 52t53 23q33 0 55 -22.5t22 -52.5q0 -34 -21.5 -55.5t-55.5 -21.5z" />
    <glyph glyph-name="t_t.dlig" horiz-adv-x="707" 
d="M50 195v464h131v-159h216v159h132v-159h153v-114h-153v-192q0 -27 17.5 -45t43.5 -18h88v-131h-91q-89 0 -139.5 50t-50.5 145v191h-216v-192q0 -27 17.5 -45t44.5 -18h87v-131h-91q-89 0 -139 50t-50 145z" />
    </font>
</defs>
</svg>
