<svg width="19" height="19" viewBox="0 0 19 19" fill="none" xmlns="http://www.w3.org/2000/svg">
<path fill-rule="evenodd" clip-rule="evenodd" d="M9.99609 16.6153C14.1382 16.6153 17.4961 13.2574 17.4961 9.1153C17.4961 4.97316 14.1382 1.6153 9.99609 1.6153C5.85396 1.6153 2.49609 4.97316 2.49609 9.1153C2.49609 13.2574 5.85396 16.6153 9.99609 16.6153ZM12.0416 7.06984H9.31428C9.13345 7.06984 8.96003 7.14167 8.83217 7.26954C8.7043 7.3974 8.63247 7.57083 8.63247 7.75166C8.63247 7.93249 8.7043 8.10591 8.83217 8.23377C8.96003 8.36164 9.13345 8.43347 9.31428 8.43347H10.6779C11.2204 8.43347 11.7407 8.64898 12.1243 9.03257C12.5079 9.41617 12.7234 9.93644 12.7234 10.4789C12.7234 11.0214 12.5079 11.5417 12.1243 11.9253C11.7407 12.3089 11.2204 12.5244 10.6779 12.5244V13.2062C10.6779 13.387 10.6061 13.5605 10.4782 13.6883C10.3504 13.8162 10.1769 13.888 9.9961 13.888C9.81527 13.888 9.64185 13.8162 9.51398 13.6883C9.38612 13.5605 9.31428 13.387 9.31428 13.2062V12.5244H7.95065C7.76982 12.5244 7.59639 12.4525 7.46853 12.3247C7.34066 12.1968 7.26883 12.0234 7.26883 11.8426C7.26883 11.6617 7.34066 11.4883 7.46853 11.3604C7.59639 11.2326 7.76982 11.1607 7.95065 11.1607H10.6779C10.8587 11.1607 11.0322 11.0889 11.16 10.961C11.2879 10.8332 11.3597 10.6598 11.3597 10.4789C11.3597 10.2981 11.2879 10.1247 11.16 9.99681C11.0322 9.86894 10.8587 9.79711 10.6779 9.79711H9.31428C8.77179 9.79711 8.25153 9.58161 7.86793 9.19801C7.48433 8.81441 7.26883 8.29414 7.26883 7.75166C7.26883 7.20917 7.48433 6.6889 7.86793 6.3053C8.25153 5.9217 8.77179 5.7062 9.31428 5.7062V5.02438C9.31428 4.84355 9.38612 4.67013 9.51398 4.54227C9.64185 4.4144 9.81527 4.34257 9.9961 4.34257C10.1769 4.34257 10.3504 4.4144 10.4782 4.54227C10.6061 4.67013 10.6779 4.84355 10.6779 5.02438V5.7062H12.0416C12.2224 5.7062 12.3958 5.77804 12.5237 5.9059C12.6515 6.03377 12.7234 6.20719 12.7234 6.38802C12.7234 6.56885 12.6515 6.74227 12.5237 6.87014C12.3958 6.998 12.2224 7.06984 12.0416 7.06984Z" fill="white"/>
</svg>
