<svg width="32" height="33" viewBox="0 0 32 33" fill="none" xmlns="http://www.w3.org/2000/svg">
<path d="M16.001 32.5057C24.8375 32.5057 32.001 25.3579 32.001 16.5407C32.001 7.72346 24.8375 0.575684 16.001 0.575684C7.16442 0.575684 0.000976562 7.72346 0.000976562 16.5407C0.000976562 25.3579 7.16442 32.5057 16.001 32.5057Z" fill="#3259A5"/>
<path d="M21.5195 17.582C21.0307 20.1665 18.758 22.1208 16.0262 22.1208C12.9374 22.1208 10.434 19.6229 10.434 16.5408C10.434 13.4587 12.9374 10.9608 16.0262 10.9608C18.758 10.9608 21.0307 12.9162 21.5195 15.4996H27.1623C26.6361 9.82423 21.8513 5.38086 16.0262 5.38086C9.84853 5.38086 4.8418 10.3777 4.8418 16.5408C4.8418 22.705 9.84962 27.7007 16.0262 27.7007C21.8513 27.7007 26.6361 23.2574 27.1623 17.582H21.5195Z" fill="white"/>
</svg>
