<svg width="42" height="43" viewBox="0 0 42 43" fill="none" xmlns="http://www.w3.org/2000/svg">
<path d="M20.9998 0.654663C9.5415 0.654663 0.166504 10.0297 0.166504 21.488C0.166504 32.9463 9.5415 42.3213 20.9998 42.3213C32.4582 42.3213 41.8332 32.9463 41.8332 21.488C41.8332 10.0297 32.4582 0.654663 20.9998 0.654663ZM29.7498 17.9463L19.7498 27.9463C18.9165 28.7797 17.6665 28.7797 16.8332 27.9463L12.2498 23.363C11.4165 22.5297 11.4165 21.2797 12.2498 20.4463C13.0832 19.613 14.3332 19.613 15.1665 20.4463L18.2915 23.5713L26.8332 15.0297C27.6665 14.1963 28.9165 14.1963 29.7498 15.0297C30.5832 15.863 30.5832 17.113 29.7498 17.9463Z" fill="#A0B087"/>
</svg>
