<svg width="81" height="81" viewBox="0 0 81 81" fill="none" xmlns="http://www.w3.org/2000/svg">
<rect x="0.499023" y="0.0388184" width="80" height="80" rx="40" fill="url(#paint0_radial_603_18079)"/>
<path d="M32.9143 19.2054C33.773 19.2054 34.4477 19.8878 34.4477 20.7107C34.4477 21.3129 34.9588 21.7946 35.5721 21.7946H37.5962C40.6834 21.8146 43.1981 24.2833 43.2185 27.2939V27.6753C45.1608 27.6753 47.103 27.7154 49.0658 27.7355C56.1601 27.7355 61.3327 32.7933 61.3327 39.7779V48.7494C61.3327 55.734 56.1601 60.7918 49.0658 60.7918C46.2239 60.852 43.3821 60.8721 40.5198 60.8721C37.6575 60.8721 34.7748 60.852 31.9329 60.7918C24.8386 60.7918 19.666 55.734 19.666 48.7494V39.7779C19.666 32.7933 24.8386 27.7355 31.9534 27.7355C34.6317 27.6953 37.3713 27.6552 40.1518 27.6552V27.314C40.1518 25.9291 38.9864 24.8052 37.5962 24.8052H35.5721C33.2619 24.8052 31.3809 22.9587 31.3809 20.7107C31.3809 19.8878 32.0761 19.2054 32.9143 19.2054ZM34.4272 39.1356C33.5685 39.1356 32.8939 39.818 32.8939 40.6409V42.7483H30.7267C29.8885 42.7483 29.1933 43.4307 29.1933 44.2536C29.1933 45.0966 29.8885 45.7589 30.7267 45.7589H32.8939V47.8864C32.8939 48.7093 33.5685 49.3917 34.4272 49.3917C35.2655 49.3917 35.9606 48.7093 35.9606 47.8864V45.7589H38.1073C38.9455 45.7589 39.6407 45.0966 39.6407 44.2536C39.6407 43.4307 38.9455 42.7483 38.1073 42.7483H35.9606V40.6409C35.9606 39.818 35.2655 39.1356 34.4272 39.1356ZM50.4969 46.2607H50.2924C49.4317 46.2607 48.7591 46.9431 48.7591 47.766C48.7591 48.6089 49.4317 49.2713 50.2924 49.2713H50.4969C51.3351 49.2713 52.0303 48.6089 52.0303 47.766C52.0303 46.9431 51.3351 46.2607 50.4969 46.2607ZM47.0008 39.3564H46.7964C45.9377 39.3564 45.263 40.0388 45.263 40.8617C45.263 41.7046 45.9377 42.367 46.7964 42.367H47.0008C47.8391 42.367 48.5342 41.7046 48.5342 40.8617C48.5342 40.0388 47.8391 39.3564 47.0008 39.3564Z" fill="#656E56"/>
<defs>
<radialGradient id="paint0_radial_603_18079" cx="0" cy="0" r="1" gradientUnits="userSpaceOnUse" gradientTransform="translate(40.499 40.0388) rotate(90) scale(62)">
<stop stop-color="white"/>
<stop offset="1" stop-color="#E0F6BD"/>
</radialGradient>
</defs>
</svg>
