<svg width="84" height="85" viewBox="0 0 84 85" fill="none" xmlns="http://www.w3.org/2000/svg">
<rect x="-0.000976562" y="0.0388184" width="84" height="84" rx="42" fill="#656E56"/>
<rect x="1.99902" y="1.03882" width="80" height="80" rx="40" fill="url(#paint0_radial_603_18484)"/>
<path d="M51.4031 22.2888C58.5827 22.2888 62.8253 26.4109 62.8253 33.4094V33.487H54.0031C49.8975 33.4942 46.5716 36.737 46.5642 40.74C46.5586 44.752 49.8882 48.0092 54.0031 48.0147H62.8327V48.652C62.8327 55.6504 58.5901 59.7888 51.4105 59.7888H32.5901C25.4086 59.7888 21.166 55.6504 21.166 48.652V33.4094C21.166 26.4109 25.4086 22.2888 32.5901 22.2888H51.4031ZM42.7975 30.3615H31.0401C30.166 30.3652 29.4568 31.0567 29.453 31.9107C29.4493 32.7684 30.1605 33.4671 31.0401 33.4707H42.8123C43.6919 33.4671 44.4031 32.7684 44.3994 31.9089C44.3956 31.0513 43.6771 30.3579 42.7975 30.3615Z" fill="#656E56"/>
<path fill-rule="evenodd" clip-rule="evenodd" d="M54.5676 44.9965C52.584 45.0327 50.8466 43.6385 50.4109 41.6569C50.3596 41.3922 50.333 41.122 50.333 40.8519C50.3295 38.5439 52.1519 36.6711 54.4082 36.6638H61.3383C62.1636 36.6656 62.8312 37.351 62.833 38.194V43.4681C62.833 44.313 62.1636 44.9965 61.3383 44.9965H54.5676ZM56.583 40.8305C56.583 41.9811 55.6503 42.9138 54.4997 42.9138C53.3491 42.9138 52.4163 41.9811 52.4163 40.8305C52.4163 39.6799 53.3491 38.7472 54.4997 38.7472C55.6503 38.7472 56.583 39.6799 56.583 40.8305Z" fill="#656E56"/>
<defs>
<radialGradient id="paint0_radial_603_18484" cx="0" cy="0" r="1" gradientUnits="userSpaceOnUse" gradientTransform="translate(41.999 41.0388) rotate(90) scale(62)">
<stop stop-color="white"/>
<stop offset="1" stop-color="#E0F6BD"/>
</radialGradient>
</defs>
</svg>
