<svg width="84" height="85" viewBox="0 0 84 85" fill="none" xmlns="http://www.w3.org/2000/svg">
<rect x="-0.000976562" y="0.0388184" width="84" height="84" rx="42" fill="#656E56"/>
<rect x="1.99902" y="1.03882" width="80" height="80" rx="40" fill="url(#paint0_radial_603_18687)"/>
<path d="M52.9288 30.7004H50.536C50.0623 28.8878 49.0009 27.2835 47.5181 26.1384C46.0353 24.9933 44.2147 24.3722 42.3412 24.3722C40.4677 24.3722 38.6471 24.9933 37.1643 26.1384C35.6815 27.2835 34.6202 28.8878 34.1464 30.7004H23.2835C22.7219 30.7004 22.1833 30.9235 21.7862 31.3206C21.3891 31.7178 21.166 32.2564 21.166 32.818C21.166 33.3796 21.3891 33.9182 21.7862 34.3153C22.1833 34.7124 22.7219 34.9355 23.2835 34.9355H29.6361V37.053H55.0463V32.818C55.0463 32.2564 54.8232 31.7178 54.4261 31.3206C54.029 30.9235 53.4904 30.7004 52.9288 30.7004ZM38.6779 30.7004C39.0502 30.0587 39.5845 29.5259 40.2274 29.1556C40.8704 28.7853 41.5993 28.5904 42.3412 28.5904C43.0831 28.5904 43.8121 28.7853 44.455 29.1556C45.0979 29.5259 45.6322 30.0587 46.0045 30.7004H38.6779ZM29.6361 39.1705H26.0998C25.443 39.1682 24.7945 39.3187 24.2058 39.6101C23.6172 39.9015 23.1043 40.3259 22.7079 40.8497C22.3115 41.3735 22.0423 41.9823 21.9217 42.628C21.8011 43.2737 21.8324 43.9386 22.013 44.5702L25.0411 55.1578C25.2938 56.0414 25.8271 56.8188 26.5606 57.3727C27.294 57.9266 28.1877 58.2269 29.1067 58.2282H55.5757C56.4948 58.2269 57.3884 57.9266 58.1219 57.3727C58.8553 56.8188 59.3886 56.0414 59.6413 55.1578L62.6694 44.5702C62.85 43.9386 62.8813 43.2737 62.7607 42.628C62.6401 41.9823 62.3709 41.3735 61.9745 40.8497C61.5781 40.3259 61.0653 39.9015 60.4766 39.6101C59.8879 39.3187 59.2395 39.1682 58.5826 39.1705H29.6361Z" fill="#656E56"/>
<defs>
<radialGradient id="paint0_radial_603_18687" cx="0" cy="0" r="1" gradientUnits="userSpaceOnUse" gradientTransform="translate(41.999 41.0388) rotate(90) scale(62)">
<stop stop-color="white"/>
<stop offset="1" stop-color="#E0F6BD"/>
</radialGradient>
</defs>
</svg>
