<svg width="80" height="81" viewBox="0 0 80 81" fill="none" xmlns="http://www.w3.org/2000/svg">
<rect x="-0.000976562" y="0.0388184" width="80" height="80" rx="40" fill="url(#paint0_radial_603_18282)"/>
<path fill-rule="evenodd" clip-rule="evenodd" d="M39.9994 60.8721C51.5053 60.8721 60.8327 51.5447 60.8327 40.0388C60.8327 28.5328 51.5053 19.2054 39.9994 19.2054C28.4934 19.2054 19.166 28.5328 19.166 40.0388C19.166 51.5447 28.4934 60.8721 39.9994 60.8721ZM45.6812 34.357H38.1054C37.6031 34.357 37.1214 34.5565 36.7662 34.9117C36.411 35.2669 36.2115 35.7486 36.2115 36.2509C36.2115 36.7532 36.411 37.2349 36.7662 37.5901C37.1214 37.9453 37.6031 38.1448 38.1054 38.1448H41.8933C43.4002 38.1448 44.8454 38.7434 45.911 39.809C46.9765 40.8745 47.5751 42.3197 47.5751 43.8266C47.5751 45.3336 46.9765 46.7788 45.911 47.8443C44.8454 48.9098 43.4002 49.5085 41.8933 49.5085V51.4024C41.8933 51.9047 41.6938 52.3864 41.3386 52.7416C40.9834 53.0968 40.5017 53.2963 39.9994 53.2963C39.4971 53.2963 39.0153 53.0968 38.6602 52.7416C38.305 52.3864 38.1054 51.9047 38.1054 51.4024V49.5085H34.3176C33.8153 49.5085 33.3335 49.3089 32.9783 48.9537C32.6232 48.5986 32.4236 48.1168 32.4236 47.6145C32.4236 47.1122 32.6232 46.6305 32.9783 46.2753C33.3335 45.9201 33.8153 45.7206 34.3176 45.7206H41.8933C42.3956 45.7206 42.8773 45.521 43.2325 45.1659C43.5877 44.8107 43.7873 44.329 43.7873 43.8266C43.7873 43.3243 43.5877 42.8426 43.2325 42.4874C42.8773 42.1322 42.3956 41.9327 41.8933 41.9327H38.1054C36.5985 41.9327 35.1533 41.3341 34.0878 40.2685C33.0222 39.203 32.4236 37.7578 32.4236 36.2509C32.4236 34.744 33.0222 33.2988 34.0878 32.2332C35.1533 31.1677 36.5985 30.5691 38.1054 30.5691V28.6751C38.1054 28.1728 38.305 27.6911 38.6602 27.3359C39.0153 26.9807 39.4971 26.7812 39.9994 26.7812C40.5017 26.7812 40.9834 26.9807 41.3386 27.3359C41.6938 27.6911 41.8933 28.1728 41.8933 28.6751V30.5691H45.6812C46.1835 30.5691 46.6652 30.7686 47.0204 31.1238C47.3756 31.479 47.5751 31.9607 47.5751 32.463C47.5751 32.9653 47.3756 33.447 47.0204 33.8022C46.6652 34.1574 46.1835 34.357 45.6812 34.357Z" fill="#656E56"/>
<defs>
<radialGradient id="paint0_radial_603_18282" cx="0" cy="0" r="1" gradientUnits="userSpaceOnUse" gradientTransform="translate(39.999 40.0388) rotate(90) scale(62)">
<stop stop-color="white"/>
<stop offset="1" stop-color="#E0F6BD"/>
</radialGradient>
</defs>
</svg>
