<svg width="41" height="41" viewBox="0 0 41 41" fill="none" xmlns="http://www.w3.org/2000/svg">
<path fill-rule="evenodd" clip-rule="evenodd" d="M6.74951 0.487793H34.2495C37.7013 0.487793 40.4995 3.28602 40.4995 6.73779V34.2378C40.4995 37.6896 37.7013 40.4878 34.2495 40.4878H6.74951C3.29774 40.4878 0.499512 37.6896 0.499512 34.2378V6.73779C0.499512 3.28602 3.29774 0.487793 6.74951 0.487793ZM12.6245 15.1128C12.7495 15.2378 12.8745 15.4878 12.8745 15.7378V24.4878C12.9995 24.8628 12.8745 25.1128 12.6245 25.3628L10.4995 27.8628V28.2378H16.3745V27.8628L14.2495 25.3628C14.1245 25.1128 13.9995 24.8628 13.9995 24.4878V16.8628L19.2495 28.2378H19.7495L24.2495 16.8628V25.9878C24.2495 26.2378 24.2495 26.3628 24.1245 26.4878L22.4995 28.1128V28.4878H30.3745V28.1128L28.8745 26.6128C28.7495 26.4878 28.7495 26.2378 28.7495 26.1128V14.8628C28.6245 14.6128 28.7495 14.4878 28.8745 14.3628L30.4995 12.8628V12.4878H24.9995L20.9995 22.3628L16.4995 12.4878H10.7495V12.8628L12.6245 15.1128Z" fill="black"/>
</svg>
