<?xml version="1.0" encoding="UTF-8"?>
<svg width="15px" height="15px" viewBox="0 0 15 15" version="1.1" xmlns="http://www.w3.org/2000/svg" xmlns:xlink="http://www.w3.org/1999/xlink">
    <title>Artboard</title>
    <g id="Artboard" stroke="none" stroke-width="1" fill="none" fill-rule="evenodd">
        <g id="icons-(1)" transform="translate(0.000000, 1.000000)" fill="#FFFFFF" fill-rule="nonzero">
            <path d="M11.2043,0 C12.21,0 13.1775,0.3975 13.8892,1.11075 C14.6017,1.8225 15,2.7825 15,3.7875 L15,9.71249 C15,11.80499 13.2975,13.5 11.2043,13.5 L3.795,13.5 C1.70175,13.5 0,11.80499 0,9.71249 L0,3.7875 C0,1.695 1.69425,0 3.795,0 L11.2043,0 Z M12.0525,3.9 C11.895,3.89175 11.745,3.945 11.6318,4.05 L8.25,6.75 C7.815,7.11075 7.19175,7.11075 6.75,6.75 L3.375,4.05 C3.14175,3.8775 2.81925,3.9 2.625,4.1025 C2.4225,4.305 2.4,4.6275 2.57175,4.8525 L2.67,4.95 L6.0825,7.6125 C6.5025,7.94249 7.01175,8.12249 7.545,8.12249 C8.0768,8.12249 8.595,7.94249 9.0142,7.6125 L12.3975,4.905 L12.4575,4.845 C12.6368,4.6275 12.6368,4.3125 12.4493,4.095 C12.345,3.98325 12.2017,3.915 12.0525,3.9 Z" id="Shape"></path>
        </g>
    </g>
</svg>