<svg width="34" height="31" viewBox="0 0 34 31" fill="none" xmlns="http://www.w3.org/2000/svg">
<path d="M31.4189 0.46875L18.918 9.71856L21.2426 4.26735L31.4189 0.46875Z" fill="#E17726" stroke="#E17726" stroke-width="0.25" stroke-linecap="round" stroke-linejoin="round"/>
<path d="M2.58301 0.46875L14.9727 9.80489L12.7594 4.26734L2.58301 0.46875Z" fill="#E27625" stroke="#E27625" stroke-width="0.25" stroke-linecap="round" stroke-linejoin="round"/>
<path d="M26.917 21.916L23.5908 26.9973L30.713 28.9582L32.7533 22.0271L26.917 21.916Z" fill="#E27625" stroke="#E27625" stroke-width="0.25" stroke-linecap="round" stroke-linejoin="round"/>
<path d="M1.26074 22.0271L3.28858 28.9582L10.3984 26.9973L7.08461 21.916L1.26074 22.0271Z" fill="#E27625" stroke="#E27625" stroke-width="0.25" stroke-linecap="round" stroke-linejoin="round"/>
<path d="M10.0145 13.3323L8.03613 16.3169L15.0841 16.6376L14.8492 9.05273L10.0145 13.3323Z" fill="#E27625" stroke="#E27625" stroke-width="0.25" stroke-linecap="round" stroke-linejoin="round"/>
<path d="M23.9875 13.3322L19.0787 8.96631L18.918 16.6375L25.9659 16.3168L23.9875 13.3322Z" fill="#E27625" stroke="#E27625" stroke-width="0.25" stroke-linecap="round" stroke-linejoin="round"/>
<path d="M10.3975 26.997L14.6633 24.9375L10.991 22.0762L10.3975 26.997Z" fill="#E27625" stroke="#E27625" stroke-width="0.25" stroke-linecap="round" stroke-linejoin="round"/>
<path d="M19.3379 24.9375L23.5914 26.997L23.0102 22.0762L19.3379 24.9375Z" fill="#E27625" stroke="#E27625" stroke-width="0.25" stroke-linecap="round" stroke-linejoin="round"/>
<path d="M23.5914 26.9971L19.3379 24.9375L19.6841 27.7001L19.6469 28.8717L23.5914 26.9971Z" fill="#D5BFB2" stroke="#D5BFB2" stroke-width="0.25" stroke-linecap="round" stroke-linejoin="round"/>
<path d="M10.3975 26.9971L14.3543 28.8717L14.3295 27.7001L14.6633 24.9375L10.3975 26.9971Z" fill="#D5BFB2" stroke="#D5BFB2" stroke-width="0.25" stroke-linecap="round" stroke-linejoin="round"/>
<path d="M14.429 20.2508L10.8926 19.2149L13.3903 18.0679L14.429 20.2508Z" fill="#233447" stroke="#233447" stroke-width="0.25" stroke-linecap="round" stroke-linejoin="round"/>
<path d="M19.5723 20.2508L20.611 18.0679L23.121 19.2149L19.5723 20.2508Z" fill="#233447" stroke="#233447" stroke-width="0.25" stroke-linecap="round" stroke-linejoin="round"/>
<path d="M10.3977 26.9973L11.016 21.916L7.08398 22.0271L10.3977 26.9973Z" fill="#CC6228" stroke="#CC6228" stroke-width="0.25" stroke-linecap="round" stroke-linejoin="round"/>
<path d="M22.9854 21.916L23.5913 26.9973L26.9174 22.0271L22.9854 21.916Z" fill="#CC6228" stroke="#CC6228" stroke-width="0.25" stroke-linecap="round" stroke-linejoin="round"/>
<path d="M25.9659 16.3169L18.918 16.6376L19.5733 20.2512L20.612 18.0682L23.122 19.2152L25.9659 16.3169Z" fill="#CC6228" stroke="#CC6228" stroke-width="0.25" stroke-linecap="round" stroke-linejoin="round"/>
<path d="M10.8924 19.2152L13.3901 18.0682L14.4288 20.2512L15.0841 16.6376L8.03613 16.3169L10.8924 19.2152Z" fill="#CC6228" stroke="#CC6228" stroke-width="0.25" stroke-linecap="round" stroke-linejoin="round"/>
<path d="M8.03613 16.3169L10.9914 22.0765L10.8924 19.2152L8.03613 16.3169Z" fill="#E27525" stroke="#E27525" stroke-width="0.25" stroke-linecap="round" stroke-linejoin="round"/>
<path d="M23.122 19.2152L23.0107 22.0765L25.966 16.3169L23.122 19.2152Z" fill="#E27525" stroke="#E27525" stroke-width="0.25" stroke-linecap="round" stroke-linejoin="round"/>
<path d="M15.0851 16.6372L14.4297 20.2509L15.2581 24.5181L15.4436 18.8942L15.0851 16.6372Z" fill="#E27525" stroke="#E27525" stroke-width="0.25" stroke-linecap="round" stroke-linejoin="round"/>
<path d="M18.9176 16.6372L18.5713 18.8819L18.7444 24.5181L19.5729 20.2509L18.9176 16.6372Z" fill="#E27525" stroke="#E27525" stroke-width="0.25" stroke-linecap="round" stroke-linejoin="round"/>
<path d="M19.5736 20.2509L18.7451 24.518L19.3387 24.9374L23.0111 22.0761L23.1223 19.2148L19.5736 20.2509Z" fill="#F5841F" stroke="#F5841F" stroke-width="0.25" stroke-linecap="round" stroke-linejoin="round"/>
<path d="M10.8926 19.2148L10.9916 22.0761L14.6639 24.9374L15.2574 24.518L14.429 20.2509L10.8926 19.2148Z" fill="#F5841F" stroke="#F5841F" stroke-width="0.25" stroke-linecap="round" stroke-linejoin="round"/>
<path d="M19.6464 28.8717L19.6834 27.7001L19.362 27.4287H14.6387L14.3295 27.7001L14.3543 28.8717L10.3975 26.9971L11.7823 28.1317L14.5892 30.068H19.399L22.2183 28.1317L23.5907 26.9971L19.6464 28.8717Z" fill="#C0AC9D" stroke="#C0AC9D" stroke-width="0.25" stroke-linecap="round" stroke-linejoin="round"/>
<path d="M19.3378 24.9373L18.7443 24.5181H15.2574L14.664 24.9373L14.3301 27.7L14.6392 27.4287H19.3626L19.6841 27.7L19.3378 24.9373Z" fill="#161616" stroke="#161616" stroke-width="0.25" stroke-linecap="round" stroke-linejoin="round"/>
<path d="M31.95 10.3229L33.0011 5.21699L31.4183 0.46875L19.3379 9.41028L23.987 13.3321L30.5528 15.2438L31.9995 13.5542L31.3689 13.0978L32.3704 12.1852L31.6038 11.5932L32.6054 10.8285L31.95 10.3229Z" fill="#763E1A" stroke="#763E1A" stroke-width="0.25" stroke-linecap="round" stroke-linejoin="round"/>
<path d="M1.00098 5.21699L2.06436 10.3229L1.38429 10.8285L2.39821 11.5932L1.63159 12.1852L2.63314 13.0978L2.00253 13.5542L3.44923 15.2438L10.015 13.3321L14.6642 9.41028L2.58369 0.46875L1.00098 5.21699Z" fill="#763E1A" stroke="#763E1A" stroke-width="0.25" stroke-linecap="round" stroke-linejoin="round"/>
<path d="M30.5533 15.2436L23.9876 13.332L25.966 16.3167L23.0107 22.0762L26.918 22.0269H32.7543L30.5533 15.2436Z" fill="#F5841F" stroke="#F5841F" stroke-width="0.25" stroke-linecap="round" stroke-linejoin="round"/>
<path d="M10.015 13.332L3.44932 15.2436L1.26074 22.0269H7.0846L10.9919 22.0762L8.0367 16.3167L10.015 13.332Z" fill="#F5841F" stroke="#F5841F" stroke-width="0.25" stroke-linecap="round" stroke-linejoin="round"/>
<path d="M18.9175 16.6377L19.3379 9.41043L21.2421 4.26758H12.7598L14.6639 9.41043L15.0843 16.6377L15.2451 18.9069L15.2575 24.5185H18.7444L18.7567 18.9069L18.9175 16.6377Z" fill="#F5841F" stroke="#F5841F" stroke-width="0.25" stroke-linecap="round" stroke-linejoin="round"/>
</svg>
