<?xml version="1.0" encoding="UTF-8"?>
<svg width="15px" height="15px" viewBox="0 0 15 15" version="1.1" xmlns="http://www.w3.org/2000/svg" xmlns:xlink="http://www.w3.org/1999/xlink">
    <title>Artboard</title>
    <g id="Artboard" stroke="none" stroke-width="1" fill="none" fill-rule="evenodd">
        <g id="phone" fill="#FFFFFF" fill-rule="nonzero">
            <path d="M11.5269,14.9703186 C8.471,14.9661852 5.5414,13.7504852 3.38054,11.5895852 C1.21968,9.42878522 0.00396,6.49911522 0,3.44319522 C0,2.53002522 0.36276,1.65425522 1.00846,1.00854522 C1.65417,0.362845224 2.52994,4.4408921e-16 3.44311,4.4408921e-16 C3.63648,-0.001384776 3.82953,0.016165224 4.01946,0.052475224 C4.20308,0.079655224 4.38358,0.124775224 4.55838,0.187215224 C4.68132,0.230345224 4.79087,0.304825224 4.8762,0.403285224 C4.96153,0.501735224 5.01968,0.620765224 5.04491,0.748585224 L6.07036,5.23960522 C6.098,5.36150522 6.09467,5.48839522 6.06068,5.60867522 C6.02668,5.72896522 5.9631,5.83882522 5.87575,5.92822522 C5.77844,6.03301522 5.77096,6.04050522 4.8503,6.51954522 C5.58757,8.13695522 6.88113,9.43578522 8.4955,10.1796852 C8.982,9.25158522 8.9895,9.24408522 9.0943,9.14678522 C9.1837,9.05938522 9.2936,8.99588522 9.4139,8.96188522 C9.5341,8.92788522 9.661,8.92458522 9.7829,8.95218522 L14.2739,9.97758522 C14.3977,10.0062852 14.5121,10.0660852 14.6063,10.1511852 C14.7006,10.2362852 14.7717,10.3439852 14.8129,10.4641852 C14.876,10.6417852 14.9236,10.8246852 14.9551,11.0105852 C14.9852,11.1986852 15.0002,11.3888852 15,11.5793852 C14.9862,12.4886852 14.6132,13.3555852 13.9626,13.9908852 C13.3119,14.6260852 12.4363,14.9781852 11.5269,14.9703186 Z" id="Path"></path>
        </g>
    </g>
</svg>