<svg width="19" height="19" viewBox="0 0 19 19" fill="none" xmlns="http://www.w3.org/2000/svg">
<path d="M7.26645 1.6153C7.57558 1.6153 7.81846 1.86096 7.81846 2.1572C7.81846 2.37397 8.00247 2.54738 8.22327 2.54738H8.95193C10.0633 2.5546 10.9686 3.44333 10.976 4.52715V4.66443C11.6752 4.66443 12.3744 4.67888 13.081 4.6861C15.635 4.6861 17.4971 6.50691 17.4971 9.02136V12.2511C17.4971 14.7656 15.635 16.5864 13.081 16.5864C12.0579 16.6081 11.0349 16.6153 10.0044 16.6153C8.97401 16.6153 7.93623 16.6081 6.91316 16.5864C4.35919 16.5864 2.49707 14.7656 2.49707 12.2511V9.02136C2.49707 6.50691 4.35919 4.6861 6.92052 4.6861C7.88471 4.67165 8.87097 4.6572 9.87195 4.6572V4.53437C9.87195 4.03582 9.45242 3.63119 8.95193 3.63119H8.22327C7.39157 3.63119 6.71444 2.96645 6.71444 2.1572C6.71444 1.86096 6.96469 1.6153 7.26645 1.6153ZM7.8111 8.79015C7.50198 8.79015 7.25909 9.03582 7.25909 9.33206V10.0907H6.47892C6.17715 10.0907 5.9269 10.3364 5.9269 10.6326C5.9269 10.9361 6.17715 11.1745 6.47892 11.1745H7.25909V11.9404C7.25909 12.2367 7.50198 12.4823 7.8111 12.4823C8.11287 12.4823 8.36312 12.2367 8.36312 11.9404V11.1745H9.13593C9.4377 11.1745 9.68794 10.9361 9.68794 10.6326C9.68794 10.3364 9.4377 10.0907 9.13593 10.0907H8.36312V9.33206C8.36312 9.03582 8.11287 8.79015 7.8111 8.79015ZM13.5962 11.3552H13.5226C13.2127 11.3552 12.9706 11.6008 12.9706 11.8971C12.9706 12.2006 13.2127 12.439 13.5226 12.439H13.5962C13.898 12.439 14.1482 12.2006 14.1482 11.8971C14.1482 11.6008 13.898 11.3552 13.5962 11.3552ZM12.3376 8.86963H12.264C11.9549 8.86963 11.712 9.11529 11.712 9.41154C11.712 9.71501 11.9549 9.95345 12.264 9.95345H12.3376C12.6394 9.95345 12.8896 9.71501 12.8896 9.41154C12.8896 9.11529 12.6394 8.86963 12.3376 8.86963Z" fill="white"/>
</svg>
