<svg width="18" height="18" viewBox="0 0 18 18" fill="none" xmlns="http://www.w3.org/2000/svg">
<rect x="0.00195312" y="0.0244446" width="17" height="17" rx="8.5" fill="white"/>
<path d="M11.1707 7.98675L7.04192 3.86522C6.97411 3.79685 6.89343 3.74258 6.80454 3.70555C6.71564 3.66851 6.6203 3.64944 6.524 3.64944C6.4277 3.64944 6.33235 3.66851 6.24346 3.70555C6.15457 3.74258 6.07388 3.79685 6.00607 3.86522C5.87021 4.0019 5.79395 4.18678 5.79395 4.3795C5.79395 4.57222 5.87021 4.7571 6.00607 4.89378L9.61697 8.54115L6.00607 12.152C5.87021 12.2887 5.79395 12.4736 5.79395 12.6663C5.79395 12.859 5.87021 13.0439 6.00607 13.1806C6.07363 13.2495 6.1542 13.3044 6.2431 13.3419C6.33201 13.3795 6.42748 13.399 6.524 13.3994C6.62051 13.399 6.71599 13.3795 6.80489 13.3419C6.8938 13.3044 6.97436 13.2495 7.04192 13.1806L11.1707 9.05908C11.2448 8.99077 11.3039 8.90786 11.3443 8.81558C11.3847 8.7233 11.4056 8.62365 11.4056 8.52291C11.4056 8.42217 11.3847 8.32252 11.3443 8.23024C11.3039 8.13796 11.2448 8.05506 11.1707 7.98675Z" fill="#656E56"/>
</svg>
