<?xml version="1.0" encoding="UTF-8"?>
<svg width="26px" height="26px" viewBox="0 0 26 26" version="1.1" xmlns="http://www.w3.org/2000/svg" xmlns:xlink="http://www.w3.org/1999/xlink">
    <title>Artboard</title>
    <g id="Artboard" stroke="none" stroke-width="1" fill="none" fill-rule="evenodd">
        <g id="setting_icon" fill="#FFFFFF" fill-rule="nonzero">
            <path d="M24.254069,10.323228 L23.017869,10.323228 C22.684869,10.323228 22.296369,10.020528 22.165169,9.662268 C22.049169,9.329268 21.907869,9.001298 21.751469,8.678388 C21.584969,8.340328 21.645469,7.850908 21.882669,7.613768 L22.765669,6.730798 C23.381169,6.115238 23.381169,5.111168 22.765669,4.495608 L21.337769,3.067708 C21.040069,2.770018 20.641469,2.603518 20.217569,2.603518 C19.793769,2.603518 19.395169,2.764978 19.097469,3.067708 L18.219569,3.950688 C18.078269,4.091958 17.841169,4.177738 17.588869,4.177738 C17.432469,4.177738 17.281069,4.147458 17.154969,4.081868 C16.837069,3.925458 16.504069,3.789228 16.171069,3.668128 C15.812869,3.541988 15.510069,3.148438 15.510069,2.815428 L15.510069,1.579268 C15.510069,0.711426 14.798669,3.05311332e-16 13.925769,3.05311332e-16 L11.907569,3.05311332e-16 C11.034669,3.05311332e-16 10.328269,0.711426 10.328269,1.579268 L10.328269,2.815428 C10.328269,3.148438 10.025569,3.541988 9.667269,3.668128 C9.334309,3.784178 9.001299,3.925458 8.683429,4.076818 C8.557289,4.137368 8.405929,4.172688 8.249509,4.172688 C7.997229,4.172688 7.760089,4.086918 7.618819,3.945638 L6.740889,3.067708 C6.443199,2.770018 6.044599,2.603518 5.620769,2.603518 C5.196939,2.603518 4.798339,2.770018 4.500649,3.067708 L3.067709,4.500648 C2.770019,4.798338 2.603519,5.196938 2.603519,5.620768 C2.603519,6.044598 2.770019,6.438148 3.067709,6.735838 L3.950689,7.618818 C4.187829,7.855958 4.248369,8.345378 4.086919,8.683428 C3.930499,9.006348 3.794269,9.334308 3.673179,9.667318 C3.547039,10.025528 3.153479,10.328328 2.820479,10.328328 L1.584309,10.328328 C0.711429,10.323228 -6.66133815e-16,11.034628 -6.66133815e-16,11.907528 L-6.66133815e-16,13.925828 C-6.66133815e-16,14.798628 0.711429,15.505028 1.579269,15.505028 L2.815429,15.505028 C3.148439,15.505028 3.541989,15.807828 3.668129,16.166028 C3.784179,16.499028 3.925459,16.827028 4.081869,17.149928 C4.248369,17.487928 4.182779,17.977328 3.945639,18.214528 L3.062659,19.097528 C2.447099,19.713028 2.447099,20.717128 3.062659,21.332728 L4.495609,22.765628 C4.793299,23.063328 5.191899,23.229828 5.615719,23.229828 C6.039549,23.229828 6.433109,23.063328 6.735839,22.765628 L7.618819,21.882628 C7.760089,21.741328 7.997229,21.655628 8.249509,21.655628 C8.405929,21.655628 8.557289,21.685828 8.683429,21.751428 C9.001299,21.907828 9.334309,22.044128 9.667269,22.160128 C10.025569,22.286328 10.328269,22.679828 10.328269,23.012828 L10.328269,24.249028 C10.328269,25.121928 11.039669,25.828328 11.907569,25.828328 L13.925769,25.828328 C14.798669,25.828328 15.510069,25.116828 15.510069,24.249028 L15.510069,23.012828 C15.510069,22.679828 15.812869,22.286328 16.171069,22.160128 C16.504069,22.044128 16.837069,21.902828 17.154969,21.751428 C17.276069,21.690928 17.432469,21.655628 17.588869,21.655628 C17.841169,21.655628 18.078269,21.741328 18.219569,21.882628 L19.097469,22.765628 C19.395169,23.063328 19.793769,23.229828 20.217569,23.229828 C20.641469,23.229828 21.034969,23.063328 21.337769,22.765628 L22.765669,21.332728 C23.381169,20.717128 23.381169,19.713028 22.765669,19.097528 L21.887669,18.219528 C21.650569,17.982428 21.589969,17.493028 21.756469,17.154928 C21.912969,16.837028 22.049169,16.504028 22.165169,16.171028 C22.291369,15.812828 22.684869,15.510128 23.017869,15.510128 L24.254069,15.510128 C25.126969,15.510128 25.833369,14.798628 25.833369,13.930828 L25.833369,11.907528 C25.833369,11.034628 25.121869,10.323228 24.254069,10.323228 Z M12.916669,17.553528 C10.358569,17.553528 8.279789,15.474728 8.279789,12.916628 C8.279789,10.363628 10.358569,8.279788 12.916669,8.279788 C15.474769,8.279788 17.553569,10.358528 17.553569,12.916628 C17.553569,15.469728 15.474769,17.553528 12.916669,17.553528 Z" id="Shape"></path>
        </g>
    </g>
</svg>