<svg width="18" height="18" viewBox="0 0 18 18" fill="none" xmlns="http://www.w3.org/2000/svg">
<rect x="17.998" y="0.615295" width="17" height="17" rx="8.5" transform="rotate(90 17.998 0.615295)" fill="white"/>
<path d="M10.0357 6.44681L14.1573 10.5756C14.2256 10.6434 14.2799 10.7241 14.3169 10.813C14.354 10.9019 14.373 10.9973 14.373 11.0936C14.373 11.1899 14.354 11.2852 14.3169 11.3741C14.2799 11.463 14.2256 11.5437 14.1573 11.6115C14.0206 11.7473 13.8357 11.8236 13.643 11.8236C13.4503 11.8236 13.2654 11.7473 13.1287 11.6115L9.48134 8.00059L5.87045 11.6115C5.73377 11.7473 5.54888 11.8236 5.35617 11.8236C5.16345 11.8236 4.97856 11.7473 4.84189 11.6115C4.77296 11.5439 4.71813 11.4634 4.68056 11.3745C4.643 11.2855 4.62345 11.1901 4.62305 11.0936C4.62345 10.997 4.643 10.9016 4.68056 10.8127C4.71813 10.7238 4.77296 10.6432 4.84189 10.5756L8.96342 6.44681C9.03172 6.37276 9.11463 6.31367 9.20691 6.27325C9.29919 6.23283 9.39884 6.21197 9.49958 6.21197C9.60032 6.21197 9.69997 6.23283 9.79225 6.27325C9.88453 6.31367 9.96743 6.37276 10.0357 6.44681Z" fill="#656E56"/>
</svg>
