<?xml version="1.0" encoding="UTF-8"?>
<svg width="26px" height="26px" viewBox="0 0 26 26" version="1.1" xmlns="http://www.w3.org/2000/svg" xmlns:xlink="http://www.w3.org/1999/xlink">
    <title>Artboard</title>
    <g id="Artboard" stroke="none" stroke-width="1" fill="none" fill-rule="evenodd">
        <g id="wallet_icon" transform="translate(0.000000, 1.000000)" fill="#FFFFFF">
            <path d="M18.746992,0 C23.198292,0 25.828792,2.555725 25.828792,6.894735 L25.828792,6.942875 L20.358992,6.942875 C17.813492,6.947345 15.751492,8.957895 15.746892,11.439705 C15.743392,13.927205 17.807792,15.946705 20.358992,15.950005 L25.833292,15.950005 L25.833292,16.345205 C25.833292,20.684205 23.202892,23.250005 18.751592,23.250005 L7.082922,23.250005 C2.630412,23.250005 0,20.684205 0,16.345205 L0,6.894735 C0,2.555725 2.630412,0 7.082922,0 L18.746992,0 Z M13.411492,5.00507636 L6.121922,5.00507636 C5.580002,5.007335 5.140262,5.436085 5.13794312,5.965585 C5.135662,6.497325 5.576552,6.930555 6.121922,6.932795 L13.420692,6.932795 C13.966092,6.930555 14.406992,6.497325 14.404701,5.964465 C14.402392,5.432725 13.956892,5.002855 13.411492,5.00507636 Z" id="Shape" fill-rule="nonzero"></path>
            <path d="M20.708392,14.078705 C19.478592,14.101205 18.401492,13.236805 18.131292,12.008205 C18.099492,11.844105 18.0829888,11.676605 18.0829888,11.509105 C18.080792,10.078105 19.210692,8.916975 20.609592,8.912475 L24.906292,8.912475 C25.417992,8.913605 25.831892,9.338495 25.832992,9.861205 L25.832992,13.131105 C25.832992,13.654905 25.417992,14.078705 24.906292,14.078705 L20.708392,14.078705 Z M21.957992,11.495805 C21.957992,12.209205 21.379692,12.787505 20.666292,12.787505 C19.952992,12.787505 19.374692,12.209205 19.374692,11.495805 C19.374692,10.782405 19.952992,10.204105 20.666292,10.204105 C21.379692,10.204105 21.957992,10.782405 21.957992,11.495805 Z" id="Shape"></path>
        </g>
    </g>
</svg>