<?xml version="1.0" standalone="no"?>
<!DOCTYPE svg PUBLIC "-//W3C//DTD SVG 1.1//EN" "http://www.w3.org/Graphics/SVG/1.1/DTD/svg11.dtd" >
<svg xmlns="http://www.w3.org/2000/svg" xmlns:xlink="http://www.w3.org/1999/xlink" version="1.1">
<metadata>
Created by FontForge 20170731 at Mon Aug  8 10:21:52 2022
 By Aleksey,,,
Copyright (c) 2017 by Alberto Romanos. All rights reserved.
</metadata>
<defs>
<font id="BwGradual-ExtraBoldItalic" horiz-adv-x="1288" >
  <font-face 
    font-family="Bw Gradual ExtraBold Italic"
    font-weight="800"
    font-style="italic"
    font-stretch="normal"
    units-per-em="2048"
    panose-1="0 0 9 0 0 0 0 0 0 0"
    ascent="1577"
    descent="-471"
    x-height="1038"
    cap-height="1516"
    bbox="-1559 -492 2499 2118"
    underline-thickness="102"
    underline-position="-307"
    slope="-10"
    unicode-range="U+000D-FB02"
  />
<missing-glyph horiz-adv-x="2609" 
d="M156 -20q-15 0 -25 10.5t-10 25.5q0 21 10 31l700 698h-663q-47 0 -47 39q0 16 14 33l696 701h-669q-41 0 -41 38v3q0 38 41 38h758q47 0 47 -41q0 -20 -17 -34l-698 -697h676q17 0 29 -12t12 -29v-669l694 692q13 16 35 16q37 0 37 -45v-663l696 692q13 16 33 16
q15 0 25 -12t10 -27q0 -18 -13 -28l-753 -762q-14 -14 -35 -14q-41 0 -41 47v663l-694 -696q-14 -14 -35 -14q-41 0 -41 47v663l-697 -696q-14 -14 -34 -14z" />
    <glyph glyph-name="fi" unicode="fi" horiz-adv-x="1429" 
d="M631 1157l-21 -119h797l-184 -1038h-340l143 809h-440l-144 -809h-340l142 809h-148l39 229h463l2 4q-139 7 -215 62t-76 145q0 160 131.5 254t356.5 94q121 0 221 -41l-88 -251q-40 24 -94 24q-85 0 -138 -45t-67 -127zM1098 1214l49 283h340l-49 -283h-340z" />
    <glyph glyph-name="fl" unicode="fl" horiz-adv-x="1409" 
d="M911 1038l-41 -229h-284l-144 -809h-340l142 809h-148l39 229h463l2 4q-139 7 -215 62t-76 145q0 160 131.5 254t356.5 94q121 0 221 -41l-88 -251q-40 24 -94 24q-85 0 -138 -45t-67 -127l-21 -119h301zM862 0l279 1577h340l-279 -1577h-340z" />
    <glyph glyph-name="f_f" unicode="ff" horiz-adv-x="1564" 
d="M1565 1329q-86 0 -139.5 -45t-67.5 -127l-21 -119h301l-41 -229h-284l-142 -809h-340l142 809h-387l-144 -809h-340l142 809h-148l39 229h463l2 4q-139 7 -215 62t-76 145q0 160 131.5 254t356.5 94q121 0 221 -41l-88 -251q-40 24 -94 24q-85 0 -138 -45t-67 -127
l-21 -119h715l2 4q-139 7 -215 62t-76 145q0 160 131.5 254t356.5 94q145 0 266 -57l-88 -250q-55 39 -137 39z" />
    <glyph glyph-name="f_f_i" unicode="ffi" horiz-adv-x="2158" 
d="M1360 1157l-21 -119h797l-182 -1038h-340l141 809h-440l-141 -809h-340l141 809h-389l-144 -809h-340l142 809h-148l39 229h463l2 4q-139 7 -215 62t-76 145q0 160 131.5 254t356.5 94q121 0 221 -41l-88 -251q-40 24 -94 24q-85 0 -138 -45t-67 -127l-21 -119h717l2 4
q-139 7 -215 62t-76 145q0 160 131.5 254t356.5 94q124 0 221 -41l-88 -251q-40 24 -92 24q-86 0 -139.5 -45t-67.5 -127zM1829 1214l47 283h340l-47 -283h-340z" />
    <glyph glyph-name="f_f_l" unicode="ffl" horiz-adv-x="2136" 
d="M1638 1038l-39 -229h-284l-144 -809h-340l142 809h-387l-144 -809h-340l142 809h-148l39 229h463l2 4q-139 7 -215 62t-76 145q0 160 131.5 254t356.5 94q121 0 221 -41l-88 -251q-40 24 -94 24q-85 0 -138 -45t-67 -127l-21 -119h717l2 4q-140 7 -216.5 62t-76.5 145
q0 160 132 254t358 94q121 0 221 -41l-88 -251q-40 24 -94 24q-85 0 -139.5 -45t-67.5 -127l-21 -119h301zM1591 0l279 1577h340l-279 -1577h-340z" />
    <glyph glyph-name=".notdef" horiz-adv-x="2609" 
d="M156 -20q-15 0 -25 10.5t-10 25.5q0 21 10 31l700 698h-663q-47 0 -47 39q0 16 14 33l696 701h-669q-41 0 -41 38v3q0 38 41 38h758q47 0 47 -41q0 -20 -17 -34l-698 -697h676q17 0 29 -12t12 -29v-669l694 692q13 16 35 16q37 0 37 -45v-663l696 692q13 16 33 16
q15 0 25 -12t10 -27q0 -18 -13 -28l-753 -762q-14 -14 -35 -14q-41 0 -41 47v663l-694 -696q-14 -14 -35 -14q-41 0 -41 47v663l-697 -696q-14 -14 -34 -14z" />
    <glyph glyph-name=".null" horiz-adv-x="0" 
 />
    <glyph glyph-name="nonmarkingreturn" horiz-adv-x="682" 
 />
    <glyph glyph-name="CR" unicode="&#xd;" horiz-adv-x="415" 
 />
    <glyph glyph-name="space" unicode=" " horiz-adv-x="415" 
 />
    <glyph glyph-name="exclam" unicode="!" horiz-adv-x="628" 
d="M479 518h-327l163 998h349zM408 0h-371l63 354h369z" />
    <glyph glyph-name="quotedbl" unicode="&#x22;" horiz-adv-x="925" 
d="M502 1061h-312l93 516h311zM924 1061h-312l93 516h311z" />
    <glyph glyph-name="numbersign" unicode="#" horiz-adv-x="1361" 
d="M1417 1126l-31 -98h-264l-135 -491h260l-30 -99h-259l-120 -438h-105l123 438h-459l-123 -438h-104l123 438h-252l29 99h252l137 491h-250l31 98h247l109 390h104l-106 -390h455l104 390h104l-108 -390h268zM426 539h457l137 489h-455z" />
    <glyph glyph-name="dollar" unicode="$" horiz-adv-x="1433" 
d="M1407 1001h-350v35q0 88 -41.5 143t-118.5 72l-57 -323q3 -1 10 -2t10 -2q49 -7 77.5 -11.5t77 -14.5t78 -19.5t71 -25.5t67 -34t54 -44.5t44.5 -57.5t26.5 -72t10.5 -88q0 -253 -186.5 -408t-507.5 -169l-37 -209h-107l37 211q-238 14 -368.5 142.5t-130.5 352.5v62h352
v-29q0 -102 51.5 -166.5t146.5 -79.5l66 371q-187 28 -268 57q-180 65 -212 220q-7 36 -7 77q0 249 171.5 391.5t473.5 153.5l37 207h106l-37 -207q221 -13 342 -138t121 -339q0 -36 -2 -56zM565 1073q0 -52 44.5 -81t125.5 -46l56 309q-106 -8 -166 -56t-60 -126zM991 469
q0 65 -52.5 97t-154.5 52l-63 -358q126 7 198 63.5t72 145.5z" />
    <glyph glyph-name="percent" unicode="%" horiz-adv-x="1564" 
d="M1505 1481l-1286 -1501l-67 55l1288 1501zM430 737q-128 0 -199 78t-71 217q0 208 110.5 335.5t294.5 127.5q131 0 203 -78t72 -217q0 -208 -112.5 -335.5t-297.5 -127.5zM467 928q39 0 69 40t44 98t14 122q0 117 -62 117q-57 0 -93 -77t-36 -181q0 -56 16.5 -87.5
t47.5 -31.5zM1075 -20q-130 0 -201 77.5t-71 216.5q0 208 111 335.5t294 127.5q132 0 203.5 -78t71.5 -217q0 -208 -111.5 -335t-296.5 -127zM1108 170q59 0 94 79.5t35 180.5q0 117 -61 117q-57 0 -93 -77t-36 -181q0 -56 16 -87.5t45 -31.5z" />
    <glyph glyph-name="ampersand" unicode="&#x26;" horiz-adv-x="1703" 
d="M1458 961l238 -95q-133 -257 -299 -444l237 -238l-223 -204l-227 237q-303 -237 -623 -237q-249 0 -384.5 103t-135.5 286q0 65 14 122t42.5 102.5t62 83t82 69t91.5 54.5t102.5 45.5t103.5 37.5t104 34q7 2 10 3q100 30 152 51q-224 0 -349.5 60t-125.5 165
q0 155 155 247.5t422 92.5q221 0 341 -82.5t120 -236.5q0 -53 -12 -99.5t-37.5 -85.5t-54 -71t-73 -61.5t-81.5 -51.5t-93 -45.5t-95 -39t-98 -37.5q-13 -5 -19 -7q-185 -70 -247 -104q-136 -74 -149 -175q-1 -12 -1 -24q0 -73 61.5 -115.5t173.5 -42.5q222 0 437 186
t378 517zM664 1102q0 -59 40.5 -93t110.5 -34q90 35 136 76t46 100q0 51 -35.5 78.5t-101.5 27.5q-92 0 -144 -41t-52 -114z" />
    <glyph glyph-name="quotesingle" unicode="'" horiz-adv-x="503" 
d="M502 1061h-312l93 516h311z" />
    <glyph glyph-name="parenleft" unicode="(" horiz-adv-x="559" 
d="M395 -434l-94 -58q-125 164 -187.5 383t-62.5 437q0 331 154 657.5t465 611.5l73 -57q-152 -136 -266 -291t-181 -310.5t-99.5 -305.5t-32.5 -295q0 -132 21.5 -264t75.5 -270t134 -238z" />
    <glyph glyph-name="parenright" unicode=")" horiz-adv-x="559" 
d="M-96 -492l-76 58q150 133 263.5 288t181 311.5t100.5 308t33 296.5q0 206 -56.5 413t-173.5 357l96 57q123 -164 184.5 -382t61.5 -437q0 -332 -152 -659t-462 -611z" />
    <glyph glyph-name="asterisk" unicode="*" horiz-adv-x="813" 
d="M850 1358l27 -170q-201 -59 -332 63l-6 -2l133 -239l-162 -107q-89 165 14 346l-2 2l-217 -239l-129 102q70 75 160 116.5t184 35.5l2 4l-266 92l84 170q85 -29 135.5 -94.5t59.5 -157.5h4l53 297h178q-17 -95 -73 -173.5t-144 -129.5l-2 -8z" />
    <glyph glyph-name="plus" unicode="+" horiz-adv-x="995" 
d="M557 563h389l-16 -94h-389l-70 -393h-106l67 393h-385l19 94h385l67 393h109z" />
    <glyph glyph-name="comma" unicode="," horiz-adv-x="573" 
d="M16 0l62 354h368l-49 -291q-32 -184 -150 -296t-294 -125l29 168q142 6 241.5 55.5t143.5 134.5h-351z" />
    <glyph glyph-name="hyphen" unicode="-" horiz-adv-x="882" 
d="M770 479h-672l19 96h671z" />
    <glyph glyph-name="period" unicode="." horiz-adv-x="573" 
d="M383 0h-369l62 354h368z" />
    <glyph glyph-name="slash" unicode="/" horiz-adv-x="872" 
d="M1016 1602l-1006 -1889l-96 37l1006 1888z" />
    <glyph glyph-name="zero" unicode="0" horiz-adv-x="1406" 
d="M608 -20q-237 0 -366 155.5t-129 435.5q0 283 95 502t270.5 341t404.5 122q239 0 367 -155.5t128 -436.5q0 -284 -94.5 -502.5t-270 -340t-405.5 -121.5zM659 258q102 0 184 94t125.5 247.5t43.5 332.5q0 154 -45.5 239.5t-130.5 85.5q-103 0 -185.5 -94t-126 -246.5
t-43.5 -332.5q0 -154 45.5 -240t132.5 -86z" />
    <glyph glyph-name="one" unicode="1" horiz-adv-x="864" 
d="M530 1516h355l-267 -1516h-354l252 1436h-4q-40 -225 -143.5 -350t-251.5 -125l55 311q149 0 243.5 64t114.5 180z" />
    <glyph glyph-name="two" unicode="2" horiz-adv-x="1302" 
d="M98 276v-4h1088l-49 -272h-1155l47 262q407 150 640.5 369.5t233.5 455.5q0 79 -36 124.5t-103 45.5q-87 0 -154.5 -75t-99.5 -207h-342q66 265 238.5 413t416.5 148q224 0 345.5 -110t121.5 -308q0 -231 -144.5 -411t-413 -290.5t-634.5 -140.5z" />
    <glyph glyph-name="three" unicode="3" horiz-adv-x="1286" 
d="M1288 1247q0 -163 -156 -257.5t-425 -94.5v-4h22q225 0 348 -96.5t123 -268.5q0 -250 -183.5 -398t-498.5 -148q-225 0 -347 116t-122 326q0 44 2 67h344q-2 -18 -2 -47q0 -88 46.5 -136t133.5 -48q118 0 187 63t69 168q0 77 -53.5 120.5t-152.5 43.5h-35l43 242
q124 6 195 66t71 159q0 65 -39.5 101t-112.5 36q-83 0 -144 -61.5t-87 -171.5h-336q63 242 232 377t411 135q221 0 344 -79t123 -210z" />
    <glyph glyph-name="four" unicode="4" horiz-adv-x="1368" 
d="M1124 598h199l-49 -272h-197l-57 -326h-356l57 326h-707l52 286l565 904h655zM932 1487l-549 -885v-4h395l158 889h-4z" />
    <glyph glyph-name="five" unicode="5" horiz-adv-x="1310" 
d="M549 -20q-234 0 -363 112.5t-129 315.5v36h349q0 -88 50.5 -137t141.5 -49q126 0 202.5 80t76.5 211q0 90 -49.5 141t-139.5 51q-80 0 -143.5 -41t-102.5 -112l-333 45l270 883h928l-47 -273h-615l-194 -622h4q61 178 185 276t286 98q159 0 244 -95.5t85 -268.5
q0 -298 -190.5 -474.5t-515.5 -176.5z" />
    <glyph glyph-name="six" unicode="6" horiz-adv-x="1390" 
d="M1374 1075h-344v19q0 77 -43.5 120t-124.5 43q-132 0 -230.5 -134t-139.5 -373l-27 -156h4q31 179 161 279t331 100q173 0 266.5 -94t93.5 -261q0 -290 -197 -464t-524 -174q-236 0 -362.5 150t-126.5 423q0 217 57 399.5t160.5 311t253.5 200.5t329 72q221 0 343 -108.5
t122 -303.5q0 -24 -2 -49zM727 713q-132 0 -210.5 -68t-78.5 -188q0 -93 56 -146t155 -53q133 0 213 76t80 201q0 85 -56 131.5t-159 46.5z" />
    <glyph glyph-name="seven" unicode="7" horiz-adv-x="1163" 
d="M154 1243l45 273h1106l-43 -263q-227 -71 -400.5 -371t-255.5 -765l-20 -117h-369l12 66q100 542 351.5 852.5t603.5 320.5v4h-1030z" />
    <glyph glyph-name="eight" unicode="8" horiz-adv-x="1343" 
d="M848 924v-4q199 -19 305.5 -118.5t106.5 -262.5q0 -256 -184.5 -407.5t-500.5 -151.5q-245 0 -378.5 106t-133.5 297q0 228 154 370t422 167v4q-187 0 -289 63.5t-102 177.5q0 171 162 271t440 100q232 0 360.5 -76.5t128.5 -212.5q0 -149 -132.5 -236t-358.5 -87z
M590 1044q0 -65 39.5 -102t109.5 -37q96 0 153.5 57.5t57.5 153.5q0 66 -38.5 103.5t-108.5 37.5q-97 0 -155 -58t-58 -155zM625 258q120 0 191 66.5t71 177.5q0 78 -49.5 122t-139.5 44q-121 0 -192.5 -65.5t-71.5 -176.5q0 -78 50.5 -123t140.5 -45z" />
    <glyph glyph-name="nine" unicode="9" horiz-adv-x="1388" 
d="M874 1536q237 0 363.5 -150.5t126.5 -422.5q0 -290 -98 -513t-280.5 -346.5t-422.5 -123.5q-219 0 -339 115t-120 321q0 3 5 65h344q-2 -8 -2 -22q0 -95 42 -148t119 -53q133 0 230.5 134t140.5 374l31 176h-4q-29 -168 -158.5 -263t-329.5 -95q-176 0 -271 89.5
t-95 250.5q0 280 195.5 446t522.5 166zM754 844q130 0 207 60.5t77 168.5q0 86 -56.5 135t-154.5 49q-134 0 -213 -67.5t-79 -181.5q0 -78 57.5 -121t161.5 -43z" />
    <glyph glyph-name="colon" unicode=":" horiz-adv-x="579" 
d="M504 688h-369l62 354h368zM383 0h-371l64 354h368z" />
    <glyph glyph-name="semicolon" unicode=";" horiz-adv-x="581" 
d="M135 688l64 354h368l-61 -354h-371zM369 0h-353l64 354h369l-52 -291q-32 -184 -149 -296t-295 -125l31 168q142 6 241.5 55.5t143.5 134.5z" />
    <glyph glyph-name="less" unicode="&#x3c;" horiz-adv-x="950" 
d="M938 967l-16 -107l-850 -342l-2 -4l729 -338l-17 -106l-739 352l14 90l19 100z" />
    <glyph glyph-name="equal" unicode="=" horiz-adv-x="1101" 
d="M1018 664h-883l19 96h880zM948 272h-880l16 97h883z" />
    <glyph glyph-name="greater" unicode="&#x3e;" horiz-adv-x="950" 
d="M168 967l739 -355l-16 -90l-17 -100l-864 -352l19 106l848 338l2 4l-729 342z" />
    <glyph glyph-name="question" unicode="?" horiz-adv-x="1165" 
d="M702 518h-321v4q206 160 323 318t117 280q0 64 -33 100.5t-94 36.5q-76 0 -134 -59t-83 -162h-336q59 235 221.5 367.5t393.5 132.5q217 0 334.5 -92t117.5 -256q0 -157 -133.5 -328.5t-372.5 -341.5zM625 0h-369l61 354h371z" />
    <glyph glyph-name="at" unicode="@" horiz-adv-x="2363" 
d="M1278 281q0 51 20 104l15 45h-4q-60 -170 -182.5 -266t-280.5 -96q-123 0 -188.5 75.5t-65.5 212.5q0 187 75.5 348t210.5 258t298 97q125 0 191.5 -57.5t66.5 -163.5q0 -12 -0.5 -22.5t-3 -22.5t-4 -19.5t-5.5 -20.5t-5.5 -18.5t-7 -21.5t-7.5 -21h4l123 348h325
l-233 -661q-8 -19 -8 -37q0 -31 22 -48.5t60 -17.5q172 0 277.5 159.5t105.5 402.5q0 261 -173.5 406t-492.5 145q-249 0 -455.5 -78t-348 -217.5t-219 -335.5t-77.5 -428q0 -289 184.5 -451t520.5 -162q143 0 306.5 34t315.5 95l39 -202q-160 -64 -344 -100t-354 -36
q-443 0 -683.5 207.5t-240.5 579.5q0 288 98.5 529.5t278 412t441 265.5t577.5 95q424 0 654.5 -191.5t230.5 -533.5q0 -367 -206.5 -585.5t-553.5 -218.5q-143 0 -220 56t-77 157zM1085 322q96 0 172 61.5t117 173.5l2 4q2 6 6.5 20.5t7 24t5 26t2.5 34.5q0 67 -36 103
t-106 36q-132 0 -220.5 -99t-88.5 -241q0 -68 35.5 -105.5t103.5 -37.5z" />
    <glyph glyph-name="A" unicode="A" horiz-adv-x="1515" 
d="M1417 0h-377l-28 352h-588l-154 -352h-354l705 1516h626zM915 1487l-374 -864h448l-69 864h-5z" />
    <glyph glyph-name="B" unicode="B" horiz-adv-x="1468" 
d="M883 891h35q233 0 361 -95.5t128 -265.5q0 -243 -182.5 -386.5t-495.5 -143.5h-668l267 1516h716q183 0 283 -71.5t100 -199.5q0 -164 -145.5 -257t-396.5 -93zM1034 1102q0 68 -40 104.5t-115 36.5h-244l-62 -348h242q101 0 160 56.5t59 150.5zM463 272h330
q109 0 176 62t67 164q0 74 -46.5 114.5t-131.5 40.5h-328z" />
    <glyph glyph-name="C" unicode="C" horiz-adv-x="1542" 
d="M713 -20q-292 0 -450.5 162t-158.5 454q0 281 108 494t308.5 329.5t466.5 116.5q274 0 425 -145t151 -406q0 -17 -4 -63h-338v22q-2 148 -75.5 230.5t-205.5 82.5q-209 0 -337 -174.5t-128 -453.5q0 -174 75 -272.5t214 -98.5q137 0 241.5 89.5t157.5 250.5h338
q-83 -291 -291.5 -454.5t-496.5 -163.5z" />
    <glyph glyph-name="D" unicode="D" horiz-adv-x="1544" 
d="M586 0h-525l267 1516h524q321 0 496.5 -162.5t175.5 -452.5q0 -270 -115 -474.5t-327.5 -315.5t-495.5 -111zM635 1243l-170 -971h186q227 0 364.5 165t137.5 433q0 176 -86.5 274.5t-243.5 98.5h-188z" />
    <glyph glyph-name="E" unicode="E" horiz-adv-x="1359" 
d="M1440 1516l-45 -273h-758l-59 -332h684l-45 -272h-687l-65 -367h780l-49 -272h-1135l267 1516h1112z" />
    <glyph glyph-name="F" unicode="F" horiz-adv-x="1234" 
d="M1356 1516l-45 -273h-674l-64 -354h568l-47 -271h-568l-110 -618h-355l267 1516h1028z" />
    <glyph glyph-name="G" unicode="G" horiz-adv-x="1591" 
d="M1556 944h-337v23q0 137 -72 213.5t-201 76.5q-140 0 -247 -80t-164.5 -221.5t-57.5 -324.5q0 -176 75 -274.5t212 -98.5q149 0 253.5 85.5t145.5 238.5h-354l43 229h694l-143 -811h-334l94 535h-4q-47 -261 -209 -408t-401 -147q-214 0 -330.5 153t-116.5 426
q0 224 63.5 407t179 308.5t281.5 193.5t367 68q268 0 418 -139.5t150 -388.5q0 -6 -5 -64z" />
    <glyph glyph-name="H" unicode="H" horiz-adv-x="1583" 
d="M1143 903l108 613h357l-267 -1516h-356l111 631h-570l-110 -631h-355l267 1516h354l-109 -613h570z" />
    <glyph glyph-name="I" unicode="I" horiz-adv-x="659" 
d="M416 0h-355l267 1516h354z" />
    <glyph glyph-name="J" unicode="J" horiz-adv-x="1200" 
d="M440 -20q-199 0 -306 117.5t-107 332.5q0 58 6 119h329q-4 -50 -4 -68q0 -106 37.5 -164.5t106.5 -58.5q75 0 127 56t69 155l185 1047h354l-182 -1029q-43 -241 -204.5 -374t-410.5 -133z" />
    <glyph glyph-name="K" unicode="K" horiz-adv-x="1517" 
d="M1249 1516h402l-729 -721l551 -795h-426l-504 780h-4l-138 -780h-340l267 1516h340l-125 -715h4z" />
    <glyph glyph-name="L" unicode="L" horiz-adv-x="1177" 
d="M682 1516l-215 -1235h641l-49 -281h-998l267 1516h354z" />
    <glyph glyph-name="M" unicode="M" horiz-adv-x="2142" 
d="M977 29l479 1487h680l-209 -1516h-354l213 1487h-4l-516 -1487h-617l35 1487h-4l-311 -1487h-336l323 1516h680l-63 -1487h4z" />
    <glyph glyph-name="N" unicode="N" horiz-adv-x="1583" 
d="M1026 29l244 1487h338l-267 -1516h-577l-115 1487h-4l-246 -1487h-338l267 1516h575l119 -1487h4z" />
    <glyph glyph-name="O" unicode="O" horiz-adv-x="1624" 
d="M717 -20q-293 0 -453 162.5t-160 453.5q0 281 109 494t310 329.5t468 116.5q294 0 453.5 -162t159.5 -454q0 -281 -108.5 -494t-309.5 -329.5t-469 -116.5zM768 258q209 0 337 175t128 454q0 173 -75.5 271.5t-213.5 98.5q-213 0 -341 -174t-128 -452q0 -175 76 -274
t217 -99z" />
    <glyph glyph-name="P" unicode="P" horiz-adv-x="1382" 
d="M328 1516h587q246 0 381.5 -107.5t135.5 -298.5q0 -261 -185.5 -415t-503.5 -154h-231l-96 -541h-355zM559 813h250q114 0 182 70.5t68 189.5q0 79 -45 124.5t-129 45.5h-248z" />
    <glyph glyph-name="Q" unicode="Q" horiz-adv-x="1640" 
d="M911 274v-4l629 2l-47 -272h-772q-295 0 -456 161t-161 449q0 276 108.5 486t310 325t468.5 115q295 0 460 -154t165 -403q0 -209 -86 -368.5t-246.5 -248t-372.5 -88.5zM473 635q0 -176 76.5 -274.5t216.5 -98.5q209 0 338 175t129 452q0 173 -76 270.5t-215 97.5
q-212 0 -340.5 -172.5t-128.5 -449.5z" />
    <glyph glyph-name="R" unicode="R" horiz-adv-x="1464" 
d="M784 596v-4q158 0 271 -59.5t151 -165.5l133 -367h-395l-192 592h-232l-104 -592h-355l267 1516h616q254 0 393.5 -99.5t139.5 -277.5q0 -248 -187 -395.5t-506 -147.5zM637 1243l-72 -395h279q118 0 188 64t70 171q0 75 -49.5 117.5t-139.5 42.5h-276z" />
    <glyph glyph-name="S" unicode="S" horiz-adv-x="1425" 
d="M614 -20q-265 0 -411 130.5t-146 366.5q0 42 2 62h353q-2 -8 -2 -29q0 -119 69 -185.5t193 -66.5q144 0 228.5 57t84.5 154q0 25 -9.5 45.5t-22.5 35t-39.5 27t-46.5 20t-59.5 15.5t-63 12t-70.5 11q-187 28 -268 57q-180 65 -213 219q-7 37 -7 78q0 259 187.5 403
t515.5 144q244 0 378 -126.5t134 -352.5v-56h-352v35q0 106 -59 163.5t-169 57.5q-122 0 -192 -49.5t-70 -134.5q0 -25 9.5 -44.5t32.5 -34t44 -24.5t62 -19t67.5 -14t77.5 -13q49 -7 77.5 -11.5t77 -14.5t78 -19.5t71 -25.5t67 -34t54 -44.5t44.5 -57.5t26.5 -72t10.5 -88
q0 -263 -201 -420t-543 -157z" />
    <glyph glyph-name="T" unicode="T" horiz-adv-x="1269" 
d="M205 1516h1210l-47 -273h-428l-219 -1243h-356l219 1243h-426z" />
    <glyph glyph-name="U" unicode="U" horiz-adv-x="1521" 
d="M664 -20q-256 0 -394.5 114t-138.5 324q0 59 12 127l170 971h355l-174 -988q-5 -36 -5 -63q0 -99 60.5 -153t173.5 -54q131 0 216.5 71.5t107.5 198.5l174 988h338l-170 -971q-47 -267 -239 -416t-486 -149z" />
    <glyph glyph-name="V" unicode="V" horiz-adv-x="1454" 
d="M655 29l605 1487h354l-664 -1516h-628l-127 1516h374l82 -1487h4z" />
    <glyph glyph-name="W" unicode="W" horiz-adv-x="2226" 
d="M1528 29l469 1487h354l-510 -1516h-633l78 1487h-4l-446 -1487h-633l24 1516h377l-53 -1487h4l461 1487h567l-59 -1487h4z" />
    <glyph glyph-name="X" unicode="X" horiz-adv-x="1484" 
d="M1200 1516h387l-438 -721l223 -795h-411l-170 780h-5l-444 -780h-412l506 795l-186 721h385l156 -715h4z" />
    <glyph glyph-name="Y" unicode="Y" horiz-adv-x="1490" 
d="M801 655l506 861h383l-947 -1516h-383l388 627h-330l-240 889h410l209 -861h4z" />
    <glyph glyph-name="Z" unicode="Z" horiz-adv-x="1456" 
d="M1513 1516l-108 -619l-1333 -621v-4h1282l-47 -272h-1313l108 618l1334 621v4h-1194l47 273h1224z" />
    <glyph glyph-name="bracketleft" unicode="[" horiz-adv-x="575" 
d="M754 1577l-19 -98h-315l-330 -1852h320l-19 -98h-424l363 2048h424z" />
    <glyph glyph-name="backslash" unicode="\" horiz-adv-x="856" 
d="M680 -250l-111 -37l-338 1889l109 36z" />
    <glyph glyph-name="bracketright" unicode="]" horiz-adv-x="577" 
d="M623 1577l-363 -2048h-424l19 98h315l330 1852h-318l17 98h424z" />
    <glyph glyph-name="asciicircum" unicode="^" horiz-adv-x="1044" 
d="M586 1475h217l225 -752h-115l-219 739h-4l-481 -739h-115z" />
    <glyph glyph-name="underscore" unicode="_" horiz-adv-x="1226" 
d="M1044 -225h-1118l17 96h1118z" />
    <glyph glyph-name="grave" unicode="`" horiz-adv-x="534" 
d="M678 1339l-123 -172l-410 219l140 193z" />
    <glyph glyph-name="a" unicode="a" 
d="M858 672l66 366h340l-183 -1038h-340l66 367h-4q-32 -182 -146 -284.5t-284 -102.5q-151 0 -234.5 106.5t-83.5 296.5q0 197 63 350.5t179 239.5t266 86q145 0 223 -75t78 -212q0 -42 -10 -100h4zM586 248q99 0 170 76t92 196q8 39 8 72q0 91 -45.5 146t-128.5 55
q-122 0 -196 -93t-74 -245q0 -99 45 -153t129 -54z" />
    <glyph glyph-name="b" unicode="b" 
d="M915 1059q153 0 235.5 -106.5t82.5 -297.5q0 -299 -140.5 -487t-369.5 -188q-144 0 -221.5 74.5t-77.5 211.5q0 31 8 101h-4l-63 -367h-340l278 1577h340l-162 -905h4q32 183 146 285t284 102zM606 248q124 0 197.5 93t73.5 243q0 99 -45.5 154t-129.5 55
q-98 0 -169.5 -77.5t-92.5 -195.5q-6 -29 -6 -71q0 -91 45 -146t127 -55z" />
    <glyph glyph-name="c" unicode="c" horiz-adv-x="1202" 
d="M526 -20q-226 0 -348.5 115t-122.5 321q0 292 180 467.5t484 175.5q212 0 330.5 -114t121.5 -320h-331q-8 80 -51 124t-117 44q-121 0 -193.5 -94t-72.5 -246q0 -98 43.5 -151.5t125.5 -53.5q77 0 136.5 44t93.5 126h332q-63 -208 -223 -323t-388 -115z" />
    <glyph glyph-name="d" unicode="d" 
d="M858 672l162 905h340l-279 -1577h-340l66 367h-4q-32 -182 -146 -284.5t-284 -102.5q-151 0 -234.5 106.5t-83.5 296.5q0 197 63 350.5t179 239.5t266 86q145 0 223 -75t78 -212q0 -42 -10 -100h4zM586 248q99 0 170 76t92 196q8 39 8 72q0 91 -45.5 146t-128.5 55
q-122 0 -196 -93t-74 -245q0 -99 45 -153t129 -54z" />
    <glyph glyph-name="e" unicode="e" horiz-adv-x="1185" 
d="M694 1059q212 0 329.5 -105t117.5 -295q0 -63 -15 -139l-8 -37h-729q-2 -12 -2 -37q0 -100 42.5 -156.5t119.5 -56.5q75 0 134.5 38t88.5 104h328q-63 -186 -220.5 -290.5t-375.5 -104.5q-214 0 -331.5 113.5t-117.5 318.5q0 295 173.5 471t465.5 176zM649 807
q-88 0 -154 -60.5t-92 -164.5h404v32q0 93 -41 143t-117 50z" />
    <glyph glyph-name="f" unicode="f" horiz-adv-x="835" 
d="M836 1329q-85 0 -138 -45t-67 -127l-21 -119h301l-41 -229h-284l-144 -809h-340l142 809h-148l39 229h463l2 4q-139 7 -215 62t-76 145q0 160 131.5 254t356.5 94q145 0 266 -57l-88 -250q-55 39 -139 39z" />
    <glyph glyph-name="g" unicode="g" 
d="M858 672l66 366h340l-185 -1044q-40 -229 -203.5 -357.5t-416.5 -128.5q-212 0 -335.5 96.5t-131.5 266.5l332 53q3 -71 51 -110t131 -39q92 0 153 53.5t78 148.5l72 406h-4q-34 -183 -146.5 -285t-281.5 -102q-154 0 -237 105t-83 294q0 293 140 478.5t366 185.5
q145 0 223 -75t78 -212q0 -42 -10 -100h4zM590 264q99 0 169 73.5t91 190.5q6 43 6 68q0 89 -45 143t-129 54q-121 0 -194.5 -90.5t-73.5 -237.5q0 -96 45 -148.5t131 -52.5z" />
    <glyph glyph-name="h" unicode="h" horiz-adv-x="1243" 
d="M877 1059q142 0 217 -80.5t75 -230.5q0 -58 -12 -123l-108 -625h-340l108 608q4 32 4 49q0 65 -34.5 100.5t-100.5 35.5q-86 0 -145 -62.5t-78 -173.5l-98 -557h-340l278 1577h340l-162 -909h4q32 184 136.5 287.5t255.5 103.5z" />
    <glyph glyph-name="i" unicode="i" horiz-adv-x="569" 
d="M580 1214h-340l47 283h340zM365 0h-340l182 1038h340z" />
    <glyph glyph-name="j" unicode="j" horiz-adv-x="569" 
d="M580 1214h-340l47 283h340zM281 -471h-340l266 1509h340z" />
    <glyph glyph-name="k" unicode="k" horiz-adv-x="1212" 
d="M887 1038h391l-449 -493l316 -545h-404l-280 530h-2l-94 -530h-340l278 1577h340l-182 -1028h4z" />
    <glyph glyph-name="l" unicode="l" horiz-adv-x="569" 
d="M365 0h-340l278 1577h340z" />
    <glyph glyph-name="m" unicode="m" horiz-adv-x="1886" 
d="M1532 1059q136 0 209.5 -78t73.5 -223q0 -44 -11 -123l-112 -635h-340l110 618q4 32 4 48q0 61 -32.5 94t-92.5 33q-83 0 -138.5 -60t-74.5 -166l-100 -567h-340l111 618q4 32 4 48q0 62 -32.5 94.5t-94.5 32.5q-81 0 -137 -59.5t-76 -166.5l-98 -567h-340l182 1038h340
l-66 -368h4q32 183 137 286t259 103q131 0 202.5 -74.5t71.5 -208.5q0 -60 -10 -106h4q34 183 135 286t248 103z" />
    <glyph glyph-name="n" unicode="n" horiz-adv-x="1243" 
d="M877 1059q142 0 217 -80.5t75 -230.5q0 -58 -12 -123l-108 -625h-340l108 608q4 32 4 49q0 65 -34.5 100.5t-100.5 35.5q-86 0 -145.5 -62.5t-79.5 -173.5l-96 -557h-340l182 1038h340l-66 -370h4q32 184 136.5 287.5t255.5 103.5z" />
    <glyph glyph-name="o" unicode="o" horiz-adv-x="1253" 
d="M532 -20q-229 0 -353 115t-124 321q0 294 181 468.5t487 174.5q228 0 352.5 -115t124.5 -321q0 -292 -181.5 -467.5t-486.5 -175.5zM580 248q122 0 196 93t74 243q0 99 -45 154t-129 55q-122 0 -196 -93t-74 -245q0 -99 45 -153t129 -54z" />
    <glyph glyph-name="p" unicode="p" 
d="M915 1059q153 0 235.5 -106.5t82.5 -297.5q0 -299 -140.5 -487t-369.5 -188q-144 0 -221.5 74.5t-77.5 211.5q0 31 8 101h-4l-147 -838h-340l266 1509h340l-66 -366h4q32 183 146 285t284 102zM606 246q122 0 196.5 94t74.5 244q0 99 -45.5 153t-129.5 54q-99 0 -170 -76
t-92 -195q-6 -31 -6 -71q0 -92 44.5 -147.5t127.5 -55.5z" />
    <glyph glyph-name="q" unicode="q" 
d="M858 672l66 366h340l-267 -1509h-340l150 838h-4q-32 -182 -146 -284.5t-284 -102.5q-153 0 -235.5 106t-82.5 295q0 197 62.5 351t178.5 240.5t267 86.5q145 0 223 -75t78 -212q0 -42 -10 -100h4zM586 246q101 0 170.5 72.5t91.5 201.5q8 39 8 78q0 92 -45.5 142.5
t-130.5 50.5q-121 0 -194.5 -92.5t-73.5 -243.5q0 -99 45 -154t129 -55z" />
    <glyph glyph-name="r" unicode="r" horiz-adv-x="905" 
d="M850 1059q95 0 154 -35l-152 -299q-55 37 -131 37q-105 0 -179 -84.5t-100 -235.5l-77 -442h-340l182 1038h340l-80 -450h4q38 222 138.5 346.5t240.5 124.5z" />
    <glyph glyph-name="s" unicode="s" horiz-adv-x="1097" 
d="M449 -20q-209 0 -323 76t-114 216q0 30 6 64h316q-2 -14 -2 -29q0 -57 40 -89t113 -32q89 0 140 34t51 91q0 22 -12 38.5t-28 26.5t-48 19t-56 13.5t-67 11.5q-35 5 -55 8.5t-54 11t-55 14t-50 18t-47 24.5t-38 32t-31 40.5t-18.5 50t-7.5 61.5q0 175 143 277t387 102
q197 0 305.5 -72.5t108.5 -204.5q0 -13 -9 -65h-313q2 14 2 33q0 106 -129 106q-73 0 -116.5 -29t-43.5 -75q0 -19 11.5 -34t27.5 -24.5t46.5 -18t53.5 -13t64 -11.5q151 -27 211 -51q153 -64 154 -213q0 -188 -152 -297.5t-411 -109.5z" />
    <glyph glyph-name="t" unicode="t" horiz-adv-x="854" 
d="M868 809h-301l-75 -430q-3 -18 -3 -29q0 -48 34 -75t95 -27q72 0 140 33l-45 -250q-117 -51 -252 -51q-157 0 -241.5 70.5t-84.5 199.5q0 22 8 80l84 479h-135l41 229h154l59 336h340l-14 -86q-19 -104 -117.5 -169t-255.5 -77l-2 -4h610z" />
    <glyph glyph-name="u" unicode="u" horiz-adv-x="1224" 
d="M762 481l98 557h340l-182 -1038h-340l65 371h-4q-34 -185 -134.5 -288t-248.5 -103q-136 0 -208 80t-72 227q0 51 10 129l111 622h342l-109 -606q-6 -38 -6 -53q0 -64 32.5 -98.5t92.5 -34.5q81 0 137 62t76 173z" />
    <glyph glyph-name="v" unicode="v" horiz-adv-x="1171" 
d="M500 23l364 1015h363l-412 -1038h-639l-49 1038h362l7 -1015h4z" />
    <glyph glyph-name="w" unicode="w" horiz-adv-x="1861" 
d="M1243 23l311 1015h353l-361 -1038h-583l57 1016h-4l-299 -1016h-584l4 1038h361l-45 -1015h4l295 1015h548l-61 -1015h4z" />
    <glyph glyph-name="x" unicode="x" horiz-adv-x="1214" 
d="M879 1038h368l-289 -493l142 -545h-383l-105 530h-4l-293 -530h-383l334 545l-116 493h368l94 -489h4z" />
    <glyph glyph-name="y" unicode="y" horiz-adv-x="1171" 
d="M502 23l362 1015h363l-602 -1509h-363l191 471h-277l-49 1038h362l9 -1015h4z" />
    <glyph glyph-name="z" unicode="z" horiz-adv-x="1118" 
d="M1110 1038l-94 -534l-955 -271l-2 -4h947l-41 -229h-975l94 535l954 270l2 4h-897l39 229h928z" />
    <glyph glyph-name="braceleft" unicode="{" horiz-adv-x="530" 
d="M258 774l96 555q20 112 106.5 180t207.5 68l-19 -98q-70 0 -122 -45t-66 -117l-96 -555q-13 -75 -60.5 -128.5t-120.5 -80.5q111 -48 111 -164q0 -20 -4 -47l-98 -553q-5 -30 -5 -35q0 -58 36 -92.5t98 -34.5l-17 -98q-106 0 -166.5 53.5t-60.5 145.5q0 29 4 49l96 553
q4 25 4 41q0 63 -39 98t-112 35l18 96q85 0 140 46t69 128z" />
    <glyph glyph-name="bar" unicode="|" horiz-adv-x="391" 
d="M74 -471h-107l363 2048h106z" />
    <glyph glyph-name="braceright" unicode="}" horiz-adv-x="530" 
d="M360 733q0 -63 39 -98t111 -35l-16 -96q-85 0 -140 -46t-69 -128l-99 -553q-19 -112 -104.5 -180t-206.5 -68l19 98q70 0 122 45t66 117l96 553q13 75 60 128.5t120 80.5q-108 48 -108 164q0 22 4 47l96 555q4 24 4 35q0 59 -36 93t-97 34l17 98q106 0 166.5 -53.5
t60.5 -145.5q0 -24 -4 -49l-96 -555q-5 -29 -5 -41z" />
    <glyph glyph-name="asciitilde" unicode="~" horiz-adv-x="1163" 
d="M166 371h-96q29 130 108.5 202t194.5 72q64 0 115.5 -17.5t86 -42t67 -49t75 -42t92.5 -17.5q65 0 113.5 47t70.5 129h97q-31 -130 -110 -202t-194 -72q-64 0 -115.5 17.5t-86.5 42t-68 49t-75.5 42t-92.5 17.5q-66 0 -114 -47t-68 -129z" />
    <glyph glyph-name="uni00A0" unicode="&#xa0;" horiz-adv-x="415" 
 />
    <glyph glyph-name="exclamdown" unicode="&#xa1;" horiz-adv-x="602" 
d="M514 684h-369l62 354h371zM301 -471h-348l184 991h328z" />
    <glyph glyph-name="cent" unicode="&#xa2;" horiz-adv-x="1228" 
d="M784 1032l-94 -530q117 28 174 164h332q-59 -195 -204 -310.5t-351 -128.5l-39 -227h-106l39 227q-201 12 -310.5 127t-109.5 310q0 280 164.5 453t445.5 188l37 211h106l-37 -211q187 -13 292 -127.5t108 -305.5h-332q-13 133 -115 160zM465 698q0 -165 119 -196l94 530
q-98 -20 -155.5 -110t-57.5 -224z" />
    <glyph glyph-name="sterling" unicode="&#xa3;" horiz-adv-x="1337" 
d="M1341 995h-342q2 12 2 37q0 87 -45.5 136t-128.5 49q-88 0 -141 -49.5t-53 -131.5q0 -51 43 -156t51 -135h356l-18 -104h-328q-14 -148 -179 -244.5t-458 -120.5v-4h1129l-47 -272h-1196l45 262q97 40 163.5 89t99 100.5t45 95.5t13.5 94h-219l19 104h182
q-7 22 -25.5 68.5t-29 76.5t-20 73t-9.5 79q0 203 168.5 328t455.5 125q224 0 346.5 -113.5t122.5 -318.5q0 -45 -2 -68z" />
    <glyph glyph-name="currency" unicode="&#xa4;" horiz-adv-x="1091" 
d="M1106 1079l-148 -125q39 -71 39 -178q0 -223 -127 -362l97 -115l-84 -74l-97 117q-119 -78 -288 -78q-160 0 -252 86l-144 -123l-59 74l147 123q-38 72 -38 180q0 221 122 359l-92 116l82 74l94 -117q125 80 291 80q162 0 254 -86l144 123zM516 358q170 0 271.5 110
t101.5 292q0 124 -67 193t-189 69q-170 0 -271.5 -109.5t-101.5 -291.5q0 -124 66.5 -193.5t189.5 -69.5z" />
    <glyph glyph-name="yen" unicode="&#xa5;" horiz-adv-x="1601" 
d="M1346 1516h383l-549 -879h223l-19 -98h-266l-82 -129h326l-16 -99h-371l-195 -311h-383l195 311h-402l19 99h442l82 129h-502l17 98h207l-238 879h408l209 -861h4z" />
    <glyph glyph-name="brokenbar" unicode="&#xa6;" horiz-adv-x="391" 
d="M291 758h-107l146 819h106zM74 -471h-107l146 819h106z" />
    <glyph glyph-name="section" unicode="&#xa7;" horiz-adv-x="1452" 
d="M1430 1106h-351v33q0 87 -62.5 133.5t-178.5 46.5q-117 0 -184.5 -42.5t-67.5 -115.5q0 -59 63.5 -93t179.5 -34q265 0 410 -104.5t145 -292.5q0 -230 -164 -374t-450 -167v-2q228 0 354.5 -59.5t126.5 -165.5q0 -166 -188 -263.5t-514 -97.5q-271 0 -421.5 121
t-150.5 338q0 35 5 58h350q0 -4 -1 -13.5t-1 -13.5q0 -100 72 -155.5t202 -55.5q141 0 222 47t81 129q0 62 -63 95.5t-180 33.5q-263 0 -408 106t-145 294q0 231 163.5 373t450.5 165v4q-230 0 -356.5 57t-126.5 160q0 158 171.5 252t467.5 94q261 0 406 -115.5t145 -324.5
q0 -8 -1 -23t-1 -28zM1018 594q0 77 -62 119.5t-176 42.5q-139 0 -221 -59.5t-82 -161.5q0 -77 62 -119.5t174 -42.5q141 0 223 59t82 162z" />
    <glyph glyph-name="dieresis" unicode="&#xa8;" horiz-adv-x="1013" 
d="M571 1214h-315l47 283h318zM1006 1214h-318l49 283h316z" />
    <glyph glyph-name="copyright" unicode="&#xa9;" horiz-adv-x="1714" 
d="M762 -20q-315 0 -485.5 164.5t-170.5 459.5q0 210 66 383.5t186 294.5t294 187.5t384 66.5q315 0 486.5 -165t171.5 -460q0 -210 -66.5 -383.5t-187 -294t-294.5 -187t-384 -66.5zM778 76q243 0 426 101.5t281 287t98 430.5q0 257 -147.5 401t-415.5 144
q-243 0 -425.5 -101.5t-280 -287t-97.5 -430.5q0 -257 146.5 -401t414.5 -144zM840 385q-137 0 -212 78t-75 217q0 205 114.5 331t305.5 126q127 0 200 -71t78 -196h-102q-6 80 -57.5 125t-137.5 45q-133 0 -212.5 -94t-79.5 -250q0 -102 50.5 -158.5t143.5 -56.5
q90 0 157.5 46.5t102.5 131.5h105q-44 -129 -145 -201.5t-236 -72.5z" />
    <glyph glyph-name="ordfeminine" unicode="&#xaa;" horiz-adv-x="851" 
d="M655 1290l39 226h226l-109 -627h-227l39 225h-2q-20 -112 -87.5 -174.5t-166.5 -62.5q-90 0 -138.5 63.5t-48.5 177.5q0 180 83 295t218 115q85 0 130.5 -46.5t45.5 -131.5q0 -20 -4 -60h2zM510 1055q53 0 90.5 42t48.5 105q4 28 4 39q0 48 -24 78.5t-66 30.5
q-66 0 -105.5 -52t-39.5 -133q0 -53 24 -81.5t68 -28.5z" />
    <glyph glyph-name="guillemotleft" unicode="&#xab;" horiz-adv-x="899" 
d="M369 117h-113l-193 395l332 395h113l-328 -395zM743 117h-114l-193 395l332 395h115l-328 -395z" />
    <glyph glyph-name="logicalnot" unicode="&#xac;" horiz-adv-x="1093" 
d="M115 627l16 96h883l-78 -440h-107l60 344h-774z" />
    <glyph glyph-name="uni00AD" unicode="&#xad;" horiz-adv-x="882" 
d="M770 479h-672l19 96h671z" />
    <glyph glyph-name="registered" unicode="&#xae;" horiz-adv-x="978" 
d="M678 1597q169 0 261.5 -86t92.5 -241q0 -219 -134.5 -351.5t-362.5 -132.5q-169 0 -261 87t-92 241q0 219 134.5 351t361.5 132zM549 862q181 0 290 107t109 286q0 125 -74 196t-208 71q-183 0 -291.5 -107.5t-108.5 -286.5q0 -125 73.5 -195.5t209.5 -70.5zM479 1399
h185q63 0 97 -27.5t34 -77.5q0 -67 -47.5 -105t-129.5 -38v-4q69 0 89 -45l49 -109h-86l-66 154h-90l-27 -154h-79l59 340zM526 1206h101q38 0 61 21t23 55q0 51 -64 51h-98z" />
    <glyph glyph-name="macron" unicode="&#xaf;" horiz-adv-x="782" 
d="M877 1241h-717l43 234h715z" />
    <glyph glyph-name="degree" unicode="&#xb0;" horiz-adv-x="716" 
d="M451 1047q-125 0 -193 59.5t-68 165.5q0 149 96.5 237t262.5 88q122 0 189 -59.5t67 -165.5q0 -150 -95 -237.5t-259 -87.5zM477 1208q55 0 88 38.5t33 101.5q0 40 -21.5 64t-60.5 24q-54 0 -86.5 -39t-32.5 -101q0 -41 21 -64.5t59 -23.5z" />
    <glyph glyph-name="plusminus" unicode="&#xb1;" horiz-adv-x="1077" 
d="M684 1047l-55 -318h389l-19 -96h-387l-55 -316h-106l55 316h-387l16 96h387l56 318h106zM903 78h-883l19 96h883z" />
    <glyph glyph-name="uni00B2" unicode="&#xb2;" horiz-adv-x="792" 
d="M154 918v-5h667l-30 -180h-707l29 174q239 94 375.5 219.5t136.5 255.5q0 40 -18.5 64t-51.5 24q-44 0 -79 -41t-52 -112h-229q40 159 145 248.5t254 89.5q137 0 213 -66.5t76 -185.5q0 -205 -194 -332.5t-535 -152.5z" />
    <glyph glyph-name="uni00B3" unicode="&#xb3;" horiz-adv-x="786" 
d="M881 1483q0 -95 -94.5 -150t-258.5 -55v-4q144 0 222.5 -58t78.5 -161q0 -154 -112 -244t-305 -90q-138 0 -214.5 71t-76.5 199q0 21 2 39h229v-24q0 -47 24.5 -74t69.5 -27q63 0 98.5 34t35.5 91q0 41 -27.5 63.5t-79.5 22.5h-20l26 160q67 3 105.5 35.5t38.5 87.5
q0 34 -21 52.5t-59 18.5q-43 0 -74.5 -32.5t-46.5 -91.5h-223q38 146 142 227.5t253 81.5q135 0 211 -47.5t76 -124.5z" />
    <glyph glyph-name="acute" unicode="&#xb4;" horiz-adv-x="565" 
d="M694 1386l-485 -219l-62 172l478 240z" />
    <glyph glyph-name="paragraph" unicode="&#xb6;" horiz-adv-x="1622" 
d="M1634 1577l-362 -2048h-268l317 1794h-268l-318 -1794h-268l317 1794q-151 0 -240 -71t-89 -191q0 -71 42 -116.5t119 -55.5l-49 -279q-203 12 -314.5 118t-111.5 284q0 260 186 412.5t502 152.5h805z" />
    <glyph glyph-name="periodcentered" unicode="&#xb7;" horiz-adv-x="579" 
d="M446 367h-368l61 354h371z" />
    <glyph glyph-name="cedilla" unicode="&#xb8;" horiz-adv-x="628" 
d="M92 -492q-122 0 -209 43l25 127q60 -47 153 -47q73 0 113.5 25t40.5 68q0 25 -19 39t-53 16q-57 0 -98 -41l-84 82q52 38 121.5 59t138.5 21q102 0 158.5 -39.5t56.5 -110.5q0 -111 -92.5 -176.5t-251.5 -65.5z" />
    <glyph glyph-name="uni00B9" unicode="&#xb9;" horiz-adv-x="555" 
d="M420 1642h237l-159 -909h-238l152 858h-4q-26 -146 -91.5 -227.5t-154.5 -81.5l37 209q92 0 149.5 39.5t71.5 111.5z" />
    <glyph glyph-name="ordmasculine" unicode="&#xba;" horiz-adv-x="811" 
d="M467 877q-140 0 -217.5 70t-77.5 194q0 177 111.5 282t300.5 105q140 0 215 -69.5t75 -196.5q0 -175 -110 -280t-297 -105zM500 1055q64 0 103.5 50t39.5 132q0 53 -23.5 83t-66.5 30q-66 0 -106.5 -52t-40.5 -133q0 -52 25 -81t69 -29z" />
    <glyph glyph-name="guillemotright" unicode="&#xbb;" horiz-adv-x="901" 
d="M129 117h-115l328 395l-188 395h114l193 -395zM504 117h-115l328 395l-189 395h115l193 -395z" />
    <glyph glyph-name="onequarter" unicode="&#xbc;" horiz-adv-x="1880" 
d="M424 1489h-4q-28 -146 -92.5 -227.5t-153.5 -81.5l37 209q92 0 149.5 39.5t71.5 111.5h238l-160 -909h-238zM166 35l1286 1501l68 -55l-1289 -1501zM1679 367h121l-33 -181h-118l-33 -186h-238l33 186h-418l33 191l313 532h437zM1540 891l-305 -520v-4h215l94 524h-4z
" />
    <glyph glyph-name="onehalf" unicode="&#xbd;" horiz-adv-x="1832" 
d="M422 1489h-4q-26 -146 -90.5 -227.5t-153.5 -81.5l35 209q93 0 151 39.5t70 111.5h238l-160 -909h-238zM164 35l1288 1501l66 -55l-1287 -1501zM1042 184v-4h668l-31 -180h-706l28 174q239 94 375.5 219.5t136.5 255.5q0 40 -17.5 64t-49.5 24q-45 0 -80.5 -41
t-52.5 -112h-230q40 159 145.5 248.5t254.5 89.5q137 0 213 -66.5t76 -185.5q0 -205 -194.5 -333t-535.5 -153z" />
    <glyph glyph-name="threequarters" unicode="&#xbe;" horiz-adv-x="2107" 
d="M834 952q0 -154 -112.5 -244t-305.5 -90q-138 0 -214.5 71.5t-76.5 199.5q0 3 4 39h227v-25q0 -46 25 -73t70 -27q62 0 97.5 33.5t35.5 91.5q0 41 -27.5 63.5t-79.5 22.5h-20l26 160q67 3 105.5 35t38.5 87q0 34 -20.5 53t-57.5 19q-43 0 -75.5 -33t-47.5 -92h-223
q38 146 142 227.5t253 81.5q136 0 211.5 -47.5t75.5 -124.5q0 -95 -94.5 -149.5t-258.5 -54.5v-5q144 0 223 -58t79 -161zM395 35l1286 1501l68 -55l-1288 -1501zM1909 367h121l-33 -181h-119l-33 -186h-237l32 186h-417l32 191l314 532h436zM1769 891l-305 -520v-4h215
l95 524h-5z" />
    <glyph glyph-name="questiondown" unicode="&#xbf;" horiz-adv-x="1146" 
d="M836 684h-371l63 354h369zM399 -492q-218 0 -335 92.5t-117 256.5q0 156 132.5 325t371.5 338h321v-4q-205 -159 -321.5 -314.5t-116.5 -277.5q0 -64 33 -100.5t94 -36.5q76 0 134 59t83 162h336q-59 -235 -221.5 -367.5t-393.5 -132.5z" />
    <glyph glyph-name="Agrave" unicode="&#xc0;" horiz-adv-x="1515" 
d="M813 2056l393 -239l-125 -172l-407 219zM1417 0h-377l-28 352h-588l-154 -352h-354l705 1516h626zM915 1487l-374 -864h448l-69 864h-5z" />
    <glyph glyph-name="Aacute" unicode="&#xc1;" horiz-adv-x="1515" 
d="M1245 2056l70 -192l-486 -219l-61 172zM1417 0h-377l-28 352h-588l-154 -352h-354l705 1516h626zM915 1487l-374 -864h448l-69 864h-5z" />
    <glyph glyph-name="Acircumflex" unicode="&#xc2;" horiz-adv-x="1515" 
d="M1018 1987h-4l-187 -340h-252l220 368h452l90 -368h-252zM1417 0h-377l-28 352h-588l-154 -352h-354l705 1516h626zM915 1487l-374 -864h448l-69 864h-5z" />
    <glyph glyph-name="Atilde" unicode="&#xc3;" horiz-adv-x="1515" 
d="M817 1782q-43 0 -75 -26t-44 -70h-137q31 160 118.5 248.5t215.5 88.5q56 0 104.5 -22.5t90.5 -45t81 -22.5q41 0 73.5 26.5t45.5 72.5h137q-31 -160 -118.5 -249t-214.5 -89q-44 0 -85 14t-67 30t-59.5 30t-65.5 14zM-84 0l705 1516h626l170 -1516h-377l-28 352h-588
l-154 -352h-354zM915 1487l-374 -864h448l-69 864h-5z" />
    <glyph glyph-name="Adieresis" unicode="&#xc4;" horiz-adv-x="1515" 
d="M639 1974h315l-47 -282h-317zM1073 1974h316l-50 -282h-315zM1417 0h-377l-28 352h-588l-154 -352h-354l705 1516h626zM915 1487l-374 -864h448l-69 864h-5z" />
    <glyph glyph-name="Aring" unicode="&#xc5;" horiz-adv-x="1515" 
d="M950 1610q-117 0 -180 55.5t-63 153.5q0 134 89.5 214.5t241.5 80.5q116 0 180 -55t64 -152q0 -135 -90 -216t-242 -81zM1012 1966q-54 0 -85.5 -35t-31.5 -92q0 -38 21 -59t59 -21q54 0 85.5 34t31.5 91q0 38 -21 60t-59 22zM1417 0h-377l-28 352h-588l-154 -352h-354
l705 1516h626zM915 1487l-374 -864h448l-69 864h-5z" />
    <glyph glyph-name="AE" unicode="&#xc6;" horiz-adv-x="2273" 
d="M2355 1516l-47 -273h-885l-8 -336h760l-45 -272h-721l-8 -363h758l-48 -272h-1093l20 352h-579l-199 -352h-366l890 1516h1571zM1098 1487l-488 -864h443l49 864h-4z" />
    <glyph glyph-name="Ccedilla" unicode="&#xc7;" horiz-adv-x="1542" 
d="M713 -20q-292 0 -450.5 162t-158.5 454q0 281 108 494t308.5 329.5t466.5 116.5q274 0 425 -145t151 -406q0 -17 -4 -63h-338v22q-2 148 -75.5 230.5t-205.5 82.5q-209 0 -337 -174.5t-128 -453.5q0 -174 75 -272.5t214 -98.5q137 0 241.5 89.5t157.5 250.5h338
q-83 -291 -291.5 -454.5t-496.5 -163.5zM602 -492q-122 0 -209 43l25 127q60 -47 155 -47q72 0 113 25t41 68q0 25 -19 39t-53 16q-59 0 -100 -41l-82 82q110 80 260 80q102 0 157.5 -39.5t55.5 -110.5q0 -111 -92.5 -176.5t-251.5 -65.5z" />
    <glyph glyph-name="Egrave" unicode="&#xc8;" horiz-adv-x="1359" 
d="M764 2056l393 -239l-123 -172l-409 219zM1440 1516l-45 -273h-758l-59 -332h684l-45 -272h-687l-65 -367h780l-49 -272h-1135l267 1516h1112z" />
    <glyph glyph-name="Eacute" unicode="&#xc9;" horiz-adv-x="1359" 
d="M1196 2056l70 -192l-486 -219l-61 172zM1440 1516l-45 -273h-758l-59 -332h684l-45 -272h-687l-65 -367h780l-49 -272h-1135l267 1516h1112z" />
    <glyph glyph-name="Ecircumflex" unicode="&#xca;" horiz-adv-x="1359" 
d="M969 1987h-4l-187 -340h-252l219 368h453l92 -368h-254zM1440 1516l-45 -273h-758l-59 -332h684l-45 -272h-687l-65 -367h780l-49 -272h-1135l267 1516h1112z" />
    <glyph glyph-name="Edieresis" unicode="&#xcb;" horiz-adv-x="1359" 
d="M590 1974h317l-49 -282h-315zM1024 1974h315l-47 -282h-317zM1440 1516l-45 -273h-758l-59 -332h684l-45 -272h-687l-65 -367h780l-49 -272h-1135l267 1516h1112z" />
    <glyph glyph-name="Igrave" unicode="&#xcc;" horiz-adv-x="659" 
d="M778 1817l-123 -172l-409 219l139 192zM416 0h-355l267 1516h354z" />
    <glyph glyph-name="Iacute" unicode="&#xcd;" horiz-adv-x="659" 
d="M887 1864l-486 -219l-61 172l477 239zM416 0h-355l267 1516h354z" />
    <glyph glyph-name="Icircumflex" unicode="&#xce;" horiz-adv-x="659" 
d="M590 1987h-4l-187 -340h-252l220 368h452l90 -368h-252zM416 0h-355l267 1516h354z" />
    <glyph glyph-name="Idieresis" unicode="&#xcf;" horiz-adv-x="659" 
d="M479 1692h-315l47 282h315zM911 1692h-315l49 282h316zM416 0h-355l267 1516h354z" />
    <glyph glyph-name="Eth" unicode="&#xd0;" horiz-adv-x="1556" 
d="M340 1516h524q321 0 496.5 -162.5t175.5 -452.5q0 -270 -115.5 -474.5t-328 -315.5t-494.5 -111h-524l127 721h-146l17 96h145zM475 272h189q226 0 363.5 165t137.5 433q0 176 -86 274.5t-243 98.5h-189l-76 -426h289l-18 -96h-287z" />
    <glyph glyph-name="Ntilde" unicode="&#xd1;" horiz-adv-x="1583" 
d="M854 1782q-43 0 -75 -26t-46 -70h-137q31 159 119.5 248t214.5 89q56 0 105 -22.5t91 -45t80 -22.5q43 0 75 26.5t46 72.5h137q-31 -160 -119 -249t-215 -89q-56 0 -105 22t-91 44t-80 22zM1026 29l244 1487h338l-267 -1516h-577l-115 1487h-4l-246 -1487h-338l267 1516
h575l119 -1487h4z" />
    <glyph glyph-name="Ograve" unicode="&#xd2;" horiz-adv-x="1624" 
d="M1262 1817l-125 -172l-408 219l139 192zM717 -20q-293 0 -453 162.5t-160 453.5q0 281 109 494t310 329.5t468 116.5q294 0 453.5 -162t159.5 -454q0 -281 -108.5 -494t-309.5 -329.5t-469 -116.5zM768 258q209 0 337 175t128 454q0 173 -75.5 271.5t-213.5 98.5
q-213 0 -341 -174t-128 -452q0 -175 76 -274t217 -99z" />
    <glyph glyph-name="Oacute" unicode="&#xd3;" horiz-adv-x="1624" 
d="M1368 1864l-483 -219l-62 172l477 239zM717 -20q-293 0 -453 162.5t-160 453.5q0 281 109 494t310 329.5t468 116.5q294 0 453.5 -162t159.5 -454q0 -281 -108.5 -494t-309.5 -329.5t-469 -116.5zM768 258q209 0 337 175t128 454q0 173 -75.5 271.5t-213.5 98.5
q-213 0 -341 -174t-128 -452q0 -175 76 -274t217 -99z" />
    <glyph glyph-name="Ocircumflex" unicode="&#xd4;" horiz-adv-x="1624" 
d="M1073 1987h-4l-186 -340h-254l221 368h453l90 -368h-252zM991 1536q294 0 453.5 -162t159.5 -454q0 -281 -108.5 -494t-309.5 -329.5t-469 -116.5q-293 0 -453 162.5t-160 453.5q0 281 109 494t310 329.5t468 116.5zM768 258q209 0 337 175t128 454q0 173 -75.5 271.5
t-213.5 98.5q-213 0 -341 -174t-128 -452q0 -175 76 -274t217 -99z" />
    <glyph glyph-name="Otilde" unicode="&#xd5;" horiz-adv-x="1624" 
d="M754 1686h-140q32 160 120.5 248.5t215.5 88.5q43 0 84 -14t67 -31t59.5 -31t64.5 -14q43 0 75 26.5t46 72.5h137q-31 -160 -119 -249t-215 -89q-44 0 -85 14t-67 30t-59.5 30t-65.5 14q-43 0 -74.5 -26t-43.5 -70zM717 -20q-293 0 -453 162.5t-160 453.5q0 281 109 494
t310 329.5t468 116.5q294 0 453.5 -162t159.5 -454q0 -281 -108.5 -494t-309.5 -329.5t-469 -116.5zM768 258q209 0 337 175t128 454q0 173 -75.5 271.5t-213.5 98.5q-213 0 -341 -174t-128 -452q0 -175 76 -274t217 -99z" />
    <glyph glyph-name="Odieresis" unicode="&#xd6;" horiz-adv-x="1624" 
d="M963 1692h-318l49 282h316zM1395 1692h-316l49 282h316zM717 -20q-293 0 -453 162.5t-160 453.5q0 281 109 494t310 329.5t468 116.5q294 0 453.5 -162t159.5 -454q0 -281 -108.5 -494t-309.5 -329.5t-469 -116.5zM768 258q209 0 337 175t128 454q0 173 -75.5 271.5
t-213.5 98.5q-213 0 -341 -174t-128 -452q0 -175 76 -274t217 -99z" />
    <glyph glyph-name="multiply" unicode="&#xd7;" horiz-adv-x="919" 
d="M831 885l62 -74l-363 -307l254 -307l-88 -74l-252 307l-362 -307l-59 74l360 307l-252 307l86 74l254 -307z" />
    <glyph glyph-name="Oslash" unicode="&#xd8;" horiz-adv-x="1624" 
d="M1550 1540l-120 -151q174 -157 174 -469q0 -281 -108.5 -494t-309.5 -329.5t-469 -116.5q-210 0 -352 83l-117 -145l-90 57l123 152q-177 163 -177 469q0 281 109 494t310 329.5t468 116.5q208 0 352 -84l117 145zM475 631q0 -129 39 -211l619 768q-72 69 -189 69
q-213 0 -341 -174t-128 -452zM768 258q209 0 337 175t128 454q0 129 -39 211l-616 -770q73 -70 190 -70z" />
    <glyph glyph-name="Ugrave" unicode="&#xd9;" horiz-adv-x="1521" 
d="M1217 1817l-123 -172l-408 219l137 192zM664 -20q-256 0 -394.5 114t-138.5 324q0 59 12 127l170 971h355l-174 -988q-5 -36 -5 -63q0 -99 60.5 -153t173.5 -54q131 0 216.5 71.5t107.5 198.5l174 988h338l-170 -971q-47 -267 -239 -416t-486 -149z" />
    <glyph glyph-name="Uacute" unicode="&#xda;" horiz-adv-x="1521" 
d="M1325 1864l-483 -219l-62 172l477 239zM664 -20q-256 0 -394.5 114t-138.5 324q0 59 12 127l170 971h355l-174 -988q-5 -36 -5 -63q0 -99 60.5 -153t173.5 -54q131 0 216.5 71.5t107.5 198.5l174 988h338l-170 -971q-47 -267 -239 -416t-486 -149z" />
    <glyph glyph-name="Ucircumflex" unicode="&#xdb;" horiz-adv-x="1521" 
d="M1030 1987h-4l-186 -340h-254l221 368h453l90 -368h-252zM1047 528l174 988h338l-170 -971q-47 -267 -239 -416t-486 -149q-256 0 -394.5 114t-138.5 324q0 59 12 127l170 971h355l-174 -988q-5 -36 -5 -63q0 -99 60.5 -153t173.5 -54q131 0 216.5 71.5t107.5 198.5z" />
    <glyph glyph-name="Udieresis" unicode="&#xdc;" horiz-adv-x="1521" 
d="M918 1692h-316l49 282h316zM1352 1692h-316l47 282h318zM664 -20q-256 0 -394.5 114t-138.5 324q0 59 12 127l170 971h355l-174 -988q-5 -36 -5 -63q0 -99 60.5 -153t173.5 -54q131 0 216.5 71.5t107.5 198.5l174 988h338l-170 -971q-47 -267 -239 -416t-486 -149z" />
    <glyph glyph-name="Yacute" unicode="&#xdd;" horiz-adv-x="1490" 
d="M1262 2056l69 -192l-485 -219l-60 172zM801 655l506 861h383l-947 -1516h-383l388 627h-330l-240 889h410l209 -861h4z" />
    <glyph glyph-name="Thorn" unicode="&#xde;" horiz-adv-x="1394" 
d="M639 1266h233q246 0 380 -109.5t134 -304.5q0 -266 -187 -424t-503 -158h-233l-47 -270h-355l267 1516h354zM510 541h252q114 0 183 75t69 199q0 84 -44.5 131t-127.5 47h-252z" />
    <glyph glyph-name="germandbls" unicode="&#xdf;" horiz-adv-x="1318" 
d="M750 983v-4q242 0 374.5 -108.5t132.5 -299.5q0 -265 -159 -428t-430 -163q-114 0 -187 24l43 252q54 -8 97 -8q133 0 211.5 85t78.5 222q0 98 -57 153.5t-162 55.5h-49l39 219q108 2 172 59.5t64 153.5q0 62 -35 97.5t-99 35.5q-88 0 -147 -53t-74 -146l-198 -1130h-340
l196 1118q40 226 201 352.5t407 126.5q218 0 337.5 -72t119.5 -200q0 -160 -143.5 -251t-392.5 -91z" />
    <glyph glyph-name="agrave" unicode="&#xe0;" 
d="M606 1579l393 -240l-125 -172l-407 219zM858 672l66 366h340l-183 -1038h-340l66 367h-4q-32 -182 -146 -284.5t-284 -102.5q-151 0 -234.5 106.5t-83.5 296.5q0 197 63 350.5t179 239.5t266 86q145 0 223 -75t78 -212q0 -42 -10 -100h4zM586 248q99 0 170 76t92 196
q8 39 8 72q0 91 -45.5 146t-128.5 55q-122 0 -196 -93t-74 -245q0 -99 45 -153t129 -54z" />
    <glyph glyph-name="aacute" unicode="&#xe1;" 
d="M1038 1579l68 -193l-483 -219l-62 172zM858 672l66 366h340l-183 -1038h-340l66 367h-4q-32 -182 -146 -284.5t-284 -102.5q-151 0 -234.5 106.5t-83.5 296.5q0 197 63 350.5t179 239.5t266 86q145 0 223 -75t78 -212q0 -42 -10 -100h4zM586 248q99 0 170 76t92 196
q8 39 8 72q0 91 -45.5 146t-128.5 55q-122 0 -196 -93t-74 -245q0 -99 45 -153t129 -54z" />
    <glyph glyph-name="acircumflex" unicode="&#xe2;" 
d="M811 1511h-4l-186 -340h-254l221 367h452l90 -367h-251zM858 672l66 366h340l-183 -1038h-340l66 367h-4q-32 -182 -146 -284.5t-284 -102.5q-151 0 -234.5 106.5t-83.5 296.5q0 197 63 350.5t179 239.5t266 86q145 0 223 -75t78 -212q0 -42 -10 -100h4zM586 248
q99 0 170 76t92 196q8 39 8 72q0 91 -45.5 146t-128.5 55q-122 0 -196 -93t-74 -245q0 -99 45 -153t129 -54z" />
    <glyph glyph-name="atilde" unicode="&#xe3;" 
d="M610 1307q-42 0 -74 -27t-44 -72h-140q32 160 120.5 249t215.5 89q43 0 84 -14t67 -30t59.5 -30t64.5 -14q43 0 74.5 26t45.5 70h138q-31 -160 -118.5 -248.5t-215.5 -88.5q-44 0 -85 14t-67 31t-59.5 31t-65.5 14zM858 672l66 366h340l-183 -1038h-340l66 367h-4
q-32 -182 -146 -284.5t-284 -102.5q-151 0 -234.5 106.5t-83.5 296.5q0 197 63 350.5t179 239.5t266 86q145 0 223 -75t78 -212q0 -42 -10 -100h4zM586 248q99 0 170 76t92 196q8 39 8 72q0 91 -45.5 146t-128.5 55q-122 0 -196 -93t-74 -245q0 -99 45 -153t129 -54z" />
    <glyph glyph-name="adieresis" unicode="&#xe4;" 
d="M432 1497h316l-48 -283h-317zM866 1497h316l-49 -283h-316zM858 672l66 366h340l-183 -1038h-340l66 367h-4q-32 -182 -146 -284.5t-284 -102.5q-151 0 -234.5 106.5t-83.5 296.5q0 197 63 350.5t179 239.5t266 86q145 0 223 -75t78 -212q0 -42 -10 -100h4zM586 248
q99 0 170 76t92 196q8 39 8 72q0 91 -45.5 146t-128.5 55q-122 0 -196 -93t-74 -245q0 -99 45 -153t129 -54z" />
    <glyph glyph-name="aring" unicode="&#xe5;" 
d="M743 1135q-117 0 -180 54t-63 152q0 134 89 214.5t242 80.5q116 0 179 -54.5t63 -151.5q0 -135 -89 -215t-241 -80zM805 1489q-54 0 -85.5 -34.5t-31.5 -90.5q0 -38 21 -60t59 -22q54 0 85.5 34t31.5 91q0 38 -21 60t-59 22zM858 672l66 366h340l-183 -1038h-340l66 367
h-4q-32 -182 -146 -284.5t-284 -102.5q-151 0 -234.5 106.5t-83.5 296.5q0 197 63 350.5t179 239.5t266 86q145 0 223 -75t78 -212q0 -42 -10 -100h4zM586 248q99 0 170 76t92 196q8 39 8 72q0 91 -45.5 146t-128.5 55q-122 0 -196 -93t-74 -245q0 -99 45 -153t129 -54z" />
    <glyph glyph-name="ae" unicode="&#xe6;" horiz-adv-x="1949" 
d="M1606 1059q143 0 222 -94.5t79 -264.5q0 -76 -19 -180l-8 -37h-727q-4 -36 -4 -55q0 -93 42 -144t120 -51q76 0 135 37.5t90 104.5h326q-54 -186 -172.5 -290.5t-274.5 -104.5q-133 0 -204.5 70.5t-71.5 201.5q0 51 8 98h-4l-62 -350h-340l66 367h-4
q-32 -182 -146 -284.5t-284 -102.5q-151 0 -234.5 106.5t-83.5 296.5q0 197 63 350.5t179 239.5t266 86q145 0 223 -75t78 -212q0 -42 -10 -100h4l66 366h340l-62 -350h4q31 175 136.5 273t263.5 98zM1413 807q-85 0 -149 -59t-93 -166h398v32q0 92 -40.5 142.5t-115.5 50.5
zM586 248q99 0 170 76t92 196q8 39 8 72q0 91 -45.5 146t-128.5 55q-122 0 -196 -93t-74 -245q0 -99 45 -153t129 -54z" />
    <glyph glyph-name="ccedilla" unicode="&#xe7;" horiz-adv-x="1202" 
d="M526 -20q-226 0 -348.5 115t-122.5 321q0 292 180 467.5t484 175.5q212 0 330.5 -114t121.5 -320h-331q-8 80 -51 124t-117 44q-121 0 -193.5 -94t-72.5 -246q0 -98 43.5 -151.5t125.5 -53.5q77 0 136.5 44t93.5 126h332q-63 -208 -223 -323t-388 -115zM416 -492
q-120 0 -207 43l22 127q63 -47 156 -47q72 0 113 25t41 68q0 25 -19 39t-53 16q-59 0 -100 -41l-82 82q110 80 260 80q102 0 157.5 -39.5t55.5 -110.5q0 -111 -92.5 -176.5t-251.5 -65.5z" />
    <glyph glyph-name="egrave" unicode="&#xe8;" horiz-adv-x="1185" 
d="M571 1579l394 -240l-123 -172l-410 219zM694 1059q212 0 329.5 -105t117.5 -295q0 -63 -15 -139l-8 -37h-729q-2 -12 -2 -37q0 -100 42.5 -156.5t119.5 -56.5q75 0 134.5 38t88.5 104h328q-63 -186 -220.5 -290.5t-375.5 -104.5q-214 0 -331.5 113.5t-117.5 318.5
q0 295 173.5 471t465.5 176zM649 807q-88 0 -154 -60.5t-92 -164.5h404v32q0 93 -41 143t-117 50z" />
    <glyph glyph-name="eacute" unicode="&#xe9;" horiz-adv-x="1185" 
d="M1004 1579l69 -193l-485 -219l-62 172zM694 1059q212 0 329.5 -105t117.5 -295q0 -63 -15 -139l-8 -37h-729q-2 -12 -2 -37q0 -100 42.5 -156.5t119.5 -56.5q75 0 134.5 38t88.5 104h328q-63 -186 -220.5 -290.5t-375.5 -104.5q-214 0 -331.5 113.5t-117.5 318.5
q0 295 173.5 471t465.5 176zM649 807q-88 0 -154 -60.5t-92 -164.5h404v32q0 93 -41 143t-117 50z" />
    <glyph glyph-name="ecircumflex" unicode="&#xea;" horiz-adv-x="1185" 
d="M776 1511h-4l-186 -340h-252l219 367h453l92 -367h-254zM694 1059q212 0 329.5 -105t117.5 -295q0 -63 -15 -139l-8 -37h-729q-2 -12 -2 -37q0 -100 42.5 -156.5t119.5 -56.5q75 0 134.5 38t88.5 104h328q-63 -186 -220.5 -290.5t-375.5 -104.5q-214 0 -331.5 113.5
t-117.5 318.5q0 295 173.5 471t465.5 176zM649 807q-88 0 -154 -60.5t-92 -164.5h404v32q0 93 -41 143t-117 50z" />
    <glyph glyph-name="edieresis" unicode="&#xeb;" horiz-adv-x="1185" 
d="M397 1497h318l-49 -283h-316zM831 1497h316l-47 -283h-318zM694 1059q212 0 329.5 -105t117.5 -295q0 -63 -15 -139l-8 -37h-729q-2 -12 -2 -37q0 -100 42.5 -156.5t119.5 -56.5q75 0 134.5 38t88.5 104h328q-63 -186 -220.5 -290.5t-375.5 -104.5q-214 0 -331.5 113.5
t-117.5 318.5q0 295 173.5 471t465.5 176zM649 807q-88 0 -154 -60.5t-92 -164.5h404v32q0 93 -41 143t-117 50z" />
    <glyph glyph-name="igrave" unicode="&#xec;" horiz-adv-x="569" 
d="M651 1339l-125 -172l-407 219l139 193zM365 0h-340l182 1038h340z" />
    <glyph glyph-name="iacute" unicode="&#xed;" horiz-adv-x="569" 
d="M760 1386l-486 -219l-61 172l477 240zM365 0h-340l182 1038h340z" />
    <glyph glyph-name="icircumflex" unicode="&#xee;" horiz-adv-x="569" 
d="M463 1511h-4l-187 -340h-254l222 367h452l90 -367h-252zM365 0h-340l182 1038h340z" />
    <glyph glyph-name="idieresis" unicode="&#xef;" horiz-adv-x="569" 
d="M352 1214h-317l49 283h315zM784 1214h-315l49 283h316zM365 0h-340l182 1038h340z" />
    <glyph glyph-name="eth" unicode="&#xf0;" horiz-adv-x="1265" 
d="M1163 1442l-192 -92q132 -100 193 -229t61 -298q0 -100 -23 -241q-51 -290 -225.5 -446t-444.5 -156q-229 0 -353 111t-124 312q0 174 61.5 311.5t177 215.5t267.5 78q146 0 224.5 -82t78.5 -230q0 -46 -10 -114h4q25 153 25 254q0 133 -46.5 221.5t-150.5 154.5
l-338 -163l-72 157l209 101q-68 26 -178 59l111 231q218 -62 381 -141l297 141zM584 248q119 0 192.5 86t73.5 225q0 93 -47 145t-131 52q-119 0 -191.5 -85.5t-72.5 -226.5q0 -93 46 -144.5t130 -51.5z" />
    <glyph glyph-name="ntilde" unicode="&#xf1;" horiz-adv-x="1243" 
d="M606 1307q-42 0 -74.5 -27t-46.5 -72h-137q31 159 119.5 248.5t214.5 89.5q56 0 105 -22t91 -44t80 -22q43 0 75 26t46 70h138q-31 -160 -118.5 -248.5t-215.5 -88.5q-56 0 -105 22.5t-91.5 45t-80.5 22.5zM877 1059q142 0 217 -80.5t75 -230.5q0 -58 -12 -123l-108 -625
h-340l108 608q4 32 4 49q0 65 -34.5 100.5t-100.5 35.5q-86 0 -145.5 -62.5t-79.5 -173.5l-96 -557h-340l182 1038h340l-66 -370h4q32 184 136.5 287.5t255.5 103.5z" />
    <glyph glyph-name="ograve" unicode="&#xf2;" horiz-adv-x="1253" 
d="M991 1339l-123 -172l-407 219l137 193zM532 -20q-229 0 -353 115t-124 321q0 294 181 468.5t487 174.5q228 0 352.5 -115t124.5 -321q0 -292 -181.5 -467.5t-486.5 -175.5zM580 248q122 0 196 93t74 243q0 99 -45 154t-129 55q-122 0 -196 -93t-74 -245q0 -99 45 -153
t129 -54z" />
    <glyph glyph-name="oacute" unicode="&#xf3;" horiz-adv-x="1253" 
d="M1100 1386l-484 -219l-61 172l477 240zM532 -20q-229 0 -353 115t-124 321q0 294 181 468.5t487 174.5q228 0 352.5 -115t124.5 -321q0 -292 -181.5 -467.5t-486.5 -175.5zM580 248q122 0 196 93t74 243q0 99 -45 154t-129 55q-122 0 -196 -93t-74 -245q0 -99 45 -153
t129 -54z" />
    <glyph glyph-name="ocircumflex" unicode="&#xf4;" horiz-adv-x="1253" 
d="M805 1511h-4l-187 -340h-254l222 367h452l90 -367h-252zM723 1059q228 0 352.5 -115t124.5 -321q0 -292 -181.5 -467.5t-486.5 -175.5q-229 0 -353 115t-124 321q0 294 181 468.5t487 174.5zM580 248q122 0 196 93t74 243q0 99 -45 154t-129 55q-122 0 -196 -93t-74 -245
q0 -99 45 -153t129 -54z" />
    <glyph glyph-name="otilde" unicode="&#xf5;" horiz-adv-x="1253" 
d="M483 1208h-137q31 159 119.5 248.5t214.5 89.5q56 0 105 -22t91 -44t80 -22q43 0 75 26t46 70h137q-31 -160 -118.5 -248.5t-214.5 -88.5q-56 0 -105 22.5t-91.5 45t-80.5 22.5q-42 0 -74.5 -27t-46.5 -72zM532 -20q-229 0 -353 115t-124 321q0 294 181 468.5t487 174.5
q228 0 352.5 -115t124.5 -321q0 -292 -181.5 -467.5t-486.5 -175.5zM580 248q122 0 196 93t74 243q0 99 -45 154t-129 55q-122 0 -196 -93t-74 -245q0 -99 45 -153t129 -54z" />
    <glyph glyph-name="odieresis" unicode="&#xf6;" horiz-adv-x="1253" 
d="M692 1214h-315l49 283h315zM1126 1214h-315l47 283h318zM532 -20q-229 0 -353 115t-124 321q0 294 181 468.5t487 174.5q228 0 352.5 -115t124.5 -321q0 -292 -181.5 -467.5t-486.5 -175.5zM580 248q122 0 196 93t74 243q0 99 -45 154t-129 55q-122 0 -196 -93t-74 -245
q0 -99 45 -153t129 -54z" />
    <glyph glyph-name="divide" unicode="&#xf7;" horiz-adv-x="1077" 
d="M580 754q-64 0 -64 57q0 40 23.5 64t64.5 24q66 0 66 -59q0 -41 -23.5 -63.5t-66.5 -22.5zM971 469h-883l18 94h881zM471 133q-65 0 -65 57q0 40 25 64.5t65 24.5q65 0 65 -60q0 -41 -23.5 -63.5t-66.5 -22.5z" />
    <glyph glyph-name="oslash" unicode="&#xf8;" horiz-adv-x="1253" 
d="M1157 1079l-100 -118q143 -116 143 -338q0 -292 -181.5 -467.5t-486.5 -175.5q-149 0 -256 49l-104 -125l-78 55l103 121q-142 117 -142 336q0 294 181 468.5t487 174.5q150 0 254 -49l104 125zM406 455q0 -59 16 -105l350 416q-41 27 -96 27q-122 0 -196 -93t-74 -245z
M580 248q122 0 196 93t74 243q0 60 -19 106l-350 -416q39 -26 99 -26z" />
    <glyph glyph-name="ugrave" unicode="&#xf9;" horiz-adv-x="1224" 
d="M582 1579l393 -240l-123 -172l-410 219zM762 481l98 557h340l-182 -1038h-340l65 371h-4q-34 -185 -134.5 -288t-248.5 -103q-136 0 -208 80t-72 227q0 51 10 129l111 622h342l-109 -606q-6 -38 -6 -53q0 -64 32.5 -98.5t92.5 -34.5q81 0 137 62t76 173z" />
    <glyph glyph-name="uacute" unicode="&#xfa;" horiz-adv-x="1224" 
d="M1014 1579l69 -193l-485 -219l-61 172zM762 481l98 557h340l-182 -1038h-340l65 371h-4q-34 -185 -134.5 -288t-248.5 -103q-136 0 -208 80t-72 227q0 51 10 129l111 622h342l-109 -606q-6 -38 -6 -53q0 -64 32.5 -98.5t92.5 -34.5q81 0 137 62t76 173z" />
    <glyph glyph-name="ucircumflex" unicode="&#xfb;" horiz-adv-x="1224" 
d="M786 1511h-4l-186 -340h-252l219 367h453l90 -367h-252zM762 481l98 557h340l-182 -1038h-340l65 371h-4q-34 -185 -134.5 -288t-248.5 -103q-136 0 -208 80t-72 227q0 51 10 129l111 622h342l-109 -606q-6 -38 -6 -53q0 -64 32.5 -98.5t92.5 -34.5q81 0 137 62t76 173z
" />
    <glyph glyph-name="udieresis" unicode="&#xfc;" horiz-adv-x="1224" 
d="M408 1497h317l-49 -283h-316zM842 1497h315l-47 -283h-317zM762 481l98 557h340l-182 -1038h-340l65 371h-4q-34 -185 -134.5 -288t-248.5 -103q-136 0 -208 80t-72 227q0 51 10 129l111 622h342l-109 -606q-6 -38 -6 -53q0 -64 32.5 -98.5t92.5 -34.5q81 0 137 62
t76 173z" />
    <glyph glyph-name="yacute" unicode="&#xfd;" horiz-adv-x="1171" 
d="M997 1579l68 -193l-483 -219l-62 172zM502 23l362 1015h363l-602 -1509h-363l191 471h-277l-49 1038h362l9 -1015h4z" />
    <glyph glyph-name="thorn" unicode="&#xfe;" 
d="M915 1059q153 0 235.5 -106.5t82.5 -297.5q0 -299 -140.5 -487t-369.5 -188q-146 0 -225.5 68.5t-79.5 193.5q0 34 6 77h-4l-139 -790h-340l362 2048h340l-151 -858h4q28 160 138.5 250t280.5 90zM606 246q122 0 196.5 94t74.5 244q0 99 -45.5 153t-129.5 54
q-99 0 -170 -76t-92 -195q-6 -25 -6 -71q0 -92 44.5 -147.5t127.5 -55.5z" />
    <glyph glyph-name="ydieresis" unicode="&#xff;" horiz-adv-x="1171" 
d="M391 1497h316l-48 -283h-317zM825 1497h316l-49 -283h-316zM502 23l362 1015h363l-602 -1509h-363l191 471h-277l-49 1038h362l9 -1015h4z" />
    <glyph glyph-name="Amacron" unicode="&#x100;" horiz-adv-x="1515" 
d="M651 1952h715l-41 -236h-717zM1417 0h-377l-28 352h-588l-154 -352h-354l705 1516h626zM915 1487l-374 -864h448l-69 864h-5z" />
    <glyph glyph-name="amacron" unicode="&#x101;" 
d="M442 1475h717l-41 -234h-717zM858 672l66 366h340l-183 -1038h-340l66 367h-4q-32 -182 -146 -284.5t-284 -102.5q-151 0 -234.5 106.5t-83.5 296.5q0 197 63 350.5t179 239.5t266 86q145 0 223 -75t78 -212q0 -42 -10 -100h4zM586 248q99 0 170 76t92 196q8 39 8 72
q0 91 -45.5 146t-128.5 55q-122 0 -196 -93t-74 -245q0 -99 45 -153t129 -54z" />
    <glyph glyph-name="Abreve" unicode="&#x102;" horiz-adv-x="1515" 
d="M956 1638q-165 0 -241.5 100t-48.5 277h223q-13 -85 13.5 -132.5t88.5 -47.5q60 0 102.5 47.5t61.5 132.5h223q-34 -177 -146 -277t-276 -100zM1417 0h-377l-28 352h-588l-154 -352h-354l705 1516h626zM915 1487l-374 -864h448l-69 864h-5z" />
    <glyph glyph-name="abreve" unicode="&#x103;" 
d="M750 1161q-165 0 -242 100t-49 277h221q-12 -85 15 -132.5t87 -47.5q61 0 104 47.5t62 132.5h223q-34 -177 -145.5 -277t-275.5 -100zM858 672l66 366h340l-183 -1038h-340l66 367h-4q-32 -182 -146 -284.5t-284 -102.5q-151 0 -234.5 106.5t-83.5 296.5q0 197 63 350.5
t179 239.5t266 86q145 0 223 -75t78 -212q0 -42 -10 -100h4zM586 248q99 0 170 76t92 196q8 39 8 72q0 91 -45.5 146t-128.5 55q-122 0 -196 -93t-74 -245q0 -99 45 -153t129 -54z" />
    <glyph glyph-name="Aogonek" unicode="&#x104;" horiz-adv-x="1515" 
d="M1174 -260q0 -45 55 -45q75 0 164 47l-33 -186q-104 -48 -252 -48q-104 0 -159.5 37t-55.5 105q0 49 40.5 109t106 113t160 88.5t191.5 35.5v4h-351l-28 352h-588l-154 -352h-354l705 1516h626l170 -1516q-113 -77 -178 -146.5t-65 -113.5zM915 1487l-374 -864h448
l-69 864h-5z" />
    <glyph glyph-name="aogonek" unicode="&#x105;" 
d="M1264 1038l-183 -1038q-113 -77 -178 -146.5t-65 -113.5q0 -45 55 -45q74 0 166 47l-35 -186q-104 -48 -252 -48q-104 0 -159.5 37t-55.5 105q0 49 40.5 109t106 113t160 88.5t191.5 35.5v4h-314l66 367h-4q-32 -182 -146 -284.5t-284 -102.5q-151 0 -234.5 106.5
t-83.5 296.5q0 197 63 350.5t179 239.5t266 86q145 0 223 -75t78 -212q0 -42 -10 -100h4l66 366h340zM586 248q99 0 170 76t92 196q8 39 8 72q0 91 -45.5 146t-128.5 55q-122 0 -196 -93t-74 -245q0 -99 45 -153t129 -54z" />
    <glyph glyph-name="Cacute" unicode="&#x106;" horiz-adv-x="1542" 
d="M1366 1864l-485 -219l-62 172l477 239zM713 -20q-292 0 -450.5 162t-158.5 454q0 281 108 494t308.5 329.5t466.5 116.5q274 0 425 -145t151 -406q0 -17 -4 -63h-338v22q-2 148 -75.5 230.5t-205.5 82.5q-209 0 -337 -174.5t-128 -453.5q0 -174 75 -272.5t214 -98.5
q137 0 241.5 89.5t157.5 250.5h338q-83 -291 -291.5 -454.5t-496.5 -163.5z" />
    <glyph glyph-name="cacute" unicode="&#x107;" horiz-adv-x="1202" 
d="M1096 1386l-486 -219l-59 172l475 240zM526 -20q-226 0 -348.5 115t-122.5 321q0 292 180 467.5t484 175.5q212 0 330.5 -114t121.5 -320h-331q-8 80 -51 124t-117 44q-121 0 -193.5 -94t-72.5 -246q0 -98 43.5 -151.5t125.5 -53.5q77 0 136.5 44t93.5 126h332
q-63 -208 -223 -323t-388 -115z" />
    <glyph glyph-name="Cdotaccent" unicode="&#x10a;" horiz-adv-x="1542" 
d="M1188 1692h-340l47 282h340zM713 -20q-292 0 -450.5 162t-158.5 454q0 281 108 494t308.5 329.5t466.5 116.5q274 0 425 -145t151 -406q0 -17 -4 -63h-338v22q-2 148 -75.5 230.5t-205.5 82.5q-209 0 -337 -174.5t-128 -453.5q0 -174 75 -272.5t214 -98.5
q137 0 241.5 89.5t157.5 250.5h338q-83 -291 -291.5 -454.5t-496.5 -163.5z" />
    <glyph glyph-name="cdotaccent" unicode="&#x10b;" horiz-adv-x="1202" 
d="M918 1214h-340l49 283h340zM526 -20q-226 0 -348.5 115t-122.5 321q0 292 180 467.5t484 175.5q212 0 330.5 -114t121.5 -320h-331q-8 80 -51 124t-117 44q-121 0 -193.5 -94t-72.5 -246q0 -98 43.5 -151.5t125.5 -53.5q77 0 136.5 44t93.5 126h332q-63 -208 -223 -323
t-388 -115z" />
    <glyph glyph-name="Ccaron" unicode="&#x10c;" horiz-adv-x="1542" 
d="M782 1647l-92 368h254l68 -340h4l186 340h252l-219 -368h-453zM1559 922h-338v22q-2 148 -75.5 230.5t-205.5 82.5q-209 0 -337 -174.5t-128 -453.5q0 -174 75 -272.5t214 -98.5q137 0 241.5 89.5t157.5 250.5h338q-83 -291 -291.5 -454.5t-496.5 -163.5
q-292 0 -450.5 162t-158.5 454q0 281 108 494t308.5 329.5t466.5 116.5q274 0 425 -145t151 -406q0 -17 -4 -63z" />
    <glyph glyph-name="ccaron" unicode="&#x10d;" horiz-adv-x="1202" 
d="M512 1171l-90 367h252l67 -340h4l187 340h252l-219 -367h-453zM672 793q-121 0 -193.5 -94t-72.5 -246q0 -98 43.5 -151.5t125.5 -53.5q77 0 136.5 44t93.5 126h332q-63 -208 -223 -323t-388 -115q-226 0 -348.5 115t-122.5 321q0 292 180 467.5t484 175.5
q212 0 330.5 -114t121.5 -320h-331q-8 80 -51 124t-117 44z" />
    <glyph glyph-name="Dcaron" unicode="&#x10e;" horiz-adv-x="1544" 
d="M668 1647l-93 368h254l68 -340h4l184 340h254l-219 -368h-452zM328 1516h524q321 0 496.5 -162.5t175.5 -452.5q0 -270 -115 -474.5t-327.5 -315.5t-495.5 -111h-525zM465 272h186q227 0 364.5 165t137.5 433q0 176 -86.5 274.5t-243.5 98.5h-188z" />
    <glyph glyph-name="dcaron" unicode="&#x10f;" horiz-adv-x="1359" 
d="M1380 1163l176 434l232 -65l-195 -434zM854 672h4l162 905h340l-279 -1577h-340l66 367h-4q-32 -182 -146 -284.5t-284 -102.5q-151 0 -234.5 106.5t-83.5 296.5q0 197 63 350.5t179 239.5t266 86q145 0 223 -75t78 -212q0 -42 -10 -100zM586 248q99 0 170 76t92 196
q8 39 8 72q0 91 -45.5 146t-128.5 55q-122 0 -196 -93t-74 -245q0 -99 45 -153t129 -54z" />
    <glyph glyph-name="Dcroat" unicode="&#x110;" horiz-adv-x="1556" 
d="M340 1516h524q321 0 496.5 -162.5t175.5 -452.5q0 -270 -115.5 -474.5t-328 -315.5t-494.5 -111h-524l127 721h-146l17 96h145zM475 272h189q226 0 363.5 165t137.5 433q0 176 -86 274.5t-243 98.5h-189l-76 -426h289l-18 -96h-287z" />
    <glyph glyph-name="dcroat" unicode="&#x111;" 
d="M1323 1364h121l-19 -96h-120l-224 -1268h-340l66 367h-4q-32 -182 -146 -284.5t-284 -102.5q-151 0 -234.5 106.5t-83.5 296.5q0 197 63 350.5t179 239.5t266 86q145 0 223 -75t78 -212q0 -42 -10 -100h4l107 596h-326l18 96h324l39 213h340zM586 248q99 0 170 76t92 196
q8 39 8 72q0 91 -45.5 146t-128.5 55q-122 0 -196 -93t-74 -245q0 -99 45 -153t129 -54z" />
    <glyph glyph-name="Emacron" unicode="&#x112;" horiz-adv-x="1359" 
d="M602 1952h715l-41 -236h-715zM1440 1516l-45 -273h-758l-59 -332h684l-45 -272h-687l-65 -367h780l-49 -272h-1135l267 1516h1112z" />
    <glyph glyph-name="emacron" unicode="&#x113;" horiz-adv-x="1185" 
d="M410 1475h714l-41 -234h-714zM694 1059q212 0 329.5 -105t117.5 -295q0 -63 -15 -139l-8 -37h-729q-2 -12 -2 -37q0 -100 42.5 -156.5t119.5 -56.5q75 0 134.5 38t88.5 104h328q-63 -186 -220.5 -290.5t-375.5 -104.5q-214 0 -331.5 113.5t-117.5 318.5q0 295 173.5 471
t465.5 176zM649 807q-88 0 -154 -60.5t-92 -164.5h404v32q0 93 -41 143t-117 50z" />
    <glyph glyph-name="Edotaccent" unicode="&#x116;" horiz-adv-x="1359" 
d="M795 1974h340l-48 -282h-339zM1440 1516l-45 -273h-758l-59 -332h684l-45 -272h-687l-65 -367h780l-49 -272h-1135l267 1516h1112z" />
    <glyph glyph-name="edotaccent" unicode="&#x117;" horiz-adv-x="1185" 
d="M602 1497h340l-47 -283h-340zM694 1059q212 0 329.5 -105t117.5 -295q0 -63 -15 -139l-8 -37h-729q-2 -12 -2 -37q0 -100 42.5 -156.5t119.5 -56.5q75 0 134.5 38t88.5 104h328q-63 -186 -220.5 -290.5t-375.5 -104.5q-214 0 -331.5 113.5t-117.5 318.5q0 295 173.5 471
t465.5 176zM649 807q-88 0 -154 -60.5t-92 -164.5h404v32q0 93 -41 143t-117 50z" />
    <glyph glyph-name="Eogonek" unicode="&#x118;" horiz-adv-x="1359" 
d="M1440 1516l-45 -273h-758l-59 -332h684l-45 -272h-687l-65 -367h780l-49 -272h-235q-113 -77 -178.5 -146.5t-65.5 -113.5q0 -45 55 -45q75 0 164 47l-33 -186q-104 -48 -252 -48q-104 0 -160.5 37t-56.5 105q0 49 40.5 109t106.5 113t161 88.5t192 35.5v4h-873l267 1516
h1112z" />
    <glyph glyph-name="eogonek" unicode="&#x119;" horiz-adv-x="1185" 
d="M694 1059q212 0 329.5 -105t117.5 -295q0 -63 -15 -139l-8 -37h-729q-2 -12 -2 -37q0 -100 42.5 -156.5t119.5 -56.5q75 0 134.5 38t88.5 104h328q-73 -219 -279 -326q-140 -94 -220.5 -175.5t-80.5 -133.5q0 -45 53 -45q77 0 166 47l-32 -186q-104 -48 -252 -48
q-104 0 -160.5 37t-56.5 105q0 90 137 184.5t383 183.5v5q-116 -43 -254 -43q-214 0 -331.5 113.5t-117.5 318.5q0 295 173.5 471t465.5 176zM649 807q-88 0 -154 -60.5t-92 -164.5h404v32q0 93 -41 143t-117 50z" />
    <glyph glyph-name="Ecaron" unicode="&#x11a;" horiz-adv-x="1359" 
d="M682 1647l-92 368h254l67 -340h4l187 340h252l-219 -368h-453zM1440 1516l-45 -273h-758l-59 -332h684l-45 -272h-687l-65 -367h780l-49 -272h-1135l267 1516h1112z" />
    <glyph glyph-name="ecaron" unicode="&#x11b;" horiz-adv-x="1185" 
d="M489 1171l-92 367h254l68 -340h4l186 340h252l-219 -367h-453zM694 1059q212 0 329.5 -105t117.5 -295q0 -63 -15 -139l-8 -37h-729q-2 -12 -2 -37q0 -100 42.5 -156.5t119.5 -56.5q75 0 134.5 38t88.5 104h328q-63 -186 -220.5 -290.5t-375.5 -104.5
q-214 0 -331.5 113.5t-117.5 318.5q0 295 173.5 471t465.5 176zM649 807q-88 0 -154 -60.5t-92 -164.5h404v32q0 93 -41 143t-117 50z" />
    <glyph glyph-name="Gbreve" unicode="&#x11e;" horiz-adv-x="1591" 
d="M1014 1638q-165 0 -242 100t-49 277h223q-13 -85 14 -132.5t89 -47.5q60 0 102 47.5t61 132.5h224q-34 -177 -146 -277t-276 -100zM1556 944h-337v23q0 137 -72 213.5t-201 76.5q-140 0 -247 -80t-164.5 -221.5t-57.5 -324.5q0 -176 75 -274.5t212 -98.5
q149 0 253.5 85.5t145.5 238.5h-354l43 229h694l-143 -811h-334l94 535h-4q-47 -261 -209 -408t-401 -147q-214 0 -330.5 153t-116.5 426q0 224 63.5 407t179 308.5t281.5 193.5t367 68q268 0 418 -139.5t150 -388.5q0 -6 -5 -64z" />
    <glyph glyph-name="gbreve" unicode="&#x11f;" 
d="M778 1161q-164 0 -240.5 100t-50.5 277h224q-12 -85 15 -132.5t87 -47.5t103.5 47.5t60.5 132.5h225q-34 -177 -146.5 -277t-277.5 -100zM858 672l66 366h340l-185 -1044q-40 -229 -203.5 -357.5t-416.5 -128.5q-212 0 -335.5 96.5t-131.5 266.5l332 53q3 -71 51 -110
t131 -39q92 0 153 53.5t78 148.5l72 406h-4q-34 -183 -146.5 -285t-281.5 -102q-154 0 -237 105t-83 294q0 293 140 478.5t366 185.5q145 0 223 -75t78 -212q0 -42 -10 -100h4zM590 264q99 0 169 73.5t91 190.5q6 43 6 68q0 89 -45 143t-129 54q-121 0 -194.5 -90.5
t-73.5 -237.5q0 -96 45 -148.5t131 -52.5z" />
    <glyph glyph-name="Gdotaccent" unicode="&#x120;" horiz-adv-x="1591" 
d="M901 1974h340l-49 -282h-340zM1556 944h-337v23q0 137 -72 213.5t-201 76.5q-140 0 -247 -80t-164.5 -221.5t-57.5 -324.5q0 -176 75 -274.5t212 -98.5q149 0 253.5 85.5t145.5 238.5h-354l43 229h694l-143 -811h-334l94 535h-4q-47 -261 -209 -408t-401 -147
q-214 0 -330.5 153t-116.5 426q0 224 63.5 407t179 308.5t281.5 193.5t367 68q268 0 418 -139.5t150 -388.5q0 -6 -5 -64z" />
    <glyph glyph-name="gdotaccent" unicode="&#x121;" 
d="M668 1497h340l-50 -283h-340zM858 672l66 366h340l-185 -1044q-40 -229 -203.5 -357.5t-416.5 -128.5q-212 0 -335.5 96.5t-131.5 266.5l332 53q3 -71 51 -110t131 -39q92 0 153 53.5t78 148.5l72 406h-4q-34 -183 -146.5 -285t-281.5 -102q-154 0 -237 105t-83 294
q0 293 140 478.5t366 185.5q145 0 223 -75t78 -212q0 -42 -10 -100h4zM590 264q99 0 169 73.5t91 190.5q6 43 6 68q0 89 -45 143t-129 54q-121 0 -194.5 -90.5t-73.5 -237.5q0 -96 45 -148.5t131 -52.5z" />
    <glyph glyph-name="uni0122" unicode="&#x122;" horiz-adv-x="1591" 
d="M1556 944h-337v23q0 137 -72 213.5t-201 76.5q-140 0 -247 -80t-164.5 -221.5t-57.5 -324.5q0 -176 75 -274.5t212 -98.5q149 0 253.5 85.5t145.5 238.5h-354l43 229h694l-143 -811h-334l94 535h-4q-47 -261 -209 -408t-401 -147q-214 0 -330.5 153t-116.5 426
q0 224 63.5 407t179 308.5t281.5 193.5t367 68q268 0 418 -139.5t150 -388.5q0 -6 -5 -64zM793 -326h-275l35 205h297l-31 -172q-15 -89 -99 -139.5t-231 -59.5l15 86q134 6 197 24.5t92 55.5z" />
    <glyph glyph-name="uni0123" unicode="&#x123;" 
d="M700 1448h275l-41 -238h-297l33 189q20 110 107 170.5t233 66.5l-17 -84q-132 -4 -197 -29t-96 -75zM858 672l66 366h340l-185 -1044q-40 -229 -203.5 -357.5t-416.5 -128.5q-212 0 -335.5 96.5t-131.5 266.5l332 53q3 -71 51 -110t131 -39q92 0 153 53.5t78 148.5
l72 406h-4q-34 -183 -146.5 -285t-281.5 -102q-154 0 -237 105t-83 294q0 293 140 478.5t366 185.5q145 0 223 -75t78 -212q0 -42 -10 -100h4zM590 264q99 0 169 73.5t91 190.5q6 43 6 68q0 89 -45 143t-129 54q-121 0 -194.5 -90.5t-73.5 -237.5q0 -96 45 -148.5t131 -52.5
z" />
    <glyph glyph-name="Hbar" unicode="&#x126;" horiz-adv-x="1589" 
d="M1567 1266h114l-16 -97h-117l-205 -1169h-354l111 631h-570l-110 -631h-357l205 1169h-114l16 97h117l43 250h356l-43 -250h569l43 250h355zM578 903h569l47 266h-569z" />
    <glyph glyph-name="hbar" unicode="&#x127;" horiz-adv-x="1243" 
d="M877 1059q142 0 217 -80.5t75 -230.5q0 -58 -12 -123l-108 -625h-340l108 608q4 32 4 49q0 65 -34.5 100.5t-100.5 35.5q-86 0 -145 -62.5t-78 -173.5l-98 -557h-340l223 1268h-119l16 96h121l37 213h340l-39 -213h330l-19 -96h-327l-107 -600h4q32 184 136.5 287.5
t255.5 103.5z" />
    <glyph glyph-name="Imacron" unicode="&#x12a;" horiz-adv-x="659" 
d="M897 1716h-717l43 236h715zM416 0h-355l267 1516h354z" />
    <glyph glyph-name="imacron" unicode="&#x12b;" horiz-adv-x="569" 
d="M770 1241h-717l41 234h717zM365 0h-340l182 1038h340z" />
    <glyph glyph-name="Iogonek" unicode="&#x12e;" horiz-adv-x="659" 
d="M682 1516l-266 -1516q-113 -77 -178.5 -146.5t-65.5 -113.5q0 -45 55 -45q77 0 166 47l-35 -186q-104 -48 -252 -48q-103 0 -159 37t-56 105q0 49 40.5 109t106 113t160 88.5t191.5 35.5v4h-328l267 1516h354z" />
    <glyph glyph-name="iogonek" unicode="&#x12f;" horiz-adv-x="569" 
d="M240 1214l49 283h340l-49 -283h-340zM338 0h-313l182 1038h340l-182 -1038q-113 -77 -178.5 -146.5t-65.5 -113.5q0 -45 53 -45q77 0 166 47l-33 -186q-104 -48 -252 -48q-104 0 -160.5 37t-56.5 105q0 49 40.5 109t106 113t160.5 88.5t193 35.5v4z" />
    <glyph glyph-name="Idotaccent" unicode="&#x130;" horiz-adv-x="659" 
d="M709 1692h-340l47 282h340zM416 0h-355l267 1516h354z" />
    <glyph glyph-name="dotlessi" unicode="&#x131;" horiz-adv-x="569" 
d="M365 0h-340l182 1038h340z" />
    <glyph glyph-name="uni0136" unicode="&#x136;" horiz-adv-x="1517" 
d="M1249 1516h402l-729 -721l551 -795h-426l-504 780h-4l-138 -780h-340l267 1516h340l-125 -715h4zM770 -326h-276l36 205h297l-32 -172q-15 -89 -99 -139.5t-231 -59.5l14 86q134 6 198 24.5t93 55.5z" />
    <glyph glyph-name="uni0137" unicode="&#x137;" horiz-adv-x="1212" 
d="M887 1038h391l-449 -493l316 -545h-404l-280 530h-2l-94 -530h-340l278 1577h340l-182 -1028h4zM618 -326h-276l37 205h297l-31 -172q-15 -89 -100 -139.5t-232 -59.5l15 86q134 6 197.5 24.5t92.5 55.5z" />
    <glyph glyph-name="Lacute" unicode="&#x139;" horiz-adv-x="1177" 
d="M817 2056l70 -192l-486 -219l-61 172zM682 1516l-215 -1235h641l-49 -281h-998l267 1516h354z" />
    <glyph glyph-name="lacute" unicode="&#x13a;" horiz-adv-x="569" 
d="M854 1925l-483 -219l-62 172l477 240zM365 0h-340l278 1577h340z" />
    <glyph glyph-name="uni013B" unicode="&#x13b;" horiz-adv-x="1177" 
d="M682 1516l-215 -1235h641l-49 -281h-998l267 1516h354zM598 -326h-276l36 205h297l-30 -172q-15 -89 -100 -139.5t-232 -59.5l14 86q134 6 198 24.5t93 55.5z" />
    <glyph glyph-name="uni013C" unicode="&#x13c;" horiz-adv-x="569" 
d="M25 0l278 1577h340l-278 -1577h-340zM264 -326h-274l35 205h297l-31 -172q-15 -89 -99.5 -139.5t-232.5 -59.5l14 86q135 6 198.5 24.5t92.5 55.5z" />
    <glyph glyph-name="Lcaron" unicode="&#x13d;" horiz-adv-x="1208" 
d="M1004 1536l231 -66l-195 -434l-211 66zM328 1516h354l-215 -1235h641l-49 -281h-998z" />
    <glyph glyph-name="lcaron" unicode="&#x13e;" horiz-adv-x="651" 
d="M1071 1532l-194 -434l-211 65l176 434zM365 0h-340l278 1577h340z" />
    <glyph glyph-name="Lslash" unicode="&#x141;" horiz-adv-x="1193" 
d="M563 758l-84 -477h643l-49 -281h-999l98 557l-147 -80l18 103l145 77l152 859h356l-116 -660l393 207l-19 -100z" />
    <glyph glyph-name="lslash" unicode="&#x142;" horiz-adv-x="659" 
d="M586 997l125 62l-17 -98l-127 -64l-157 -897h-340l131 741l-127 -63l18 100l125 62l131 737h340z" />
    <glyph glyph-name="Nacute" unicode="&#x143;" horiz-adv-x="1583" 
d="M1282 2056l68 -192l-486 -219l-59 172zM1026 29l244 1487h338l-267 -1516h-577l-115 1487h-4l-246 -1487h-338l267 1516h575l119 -1487h4z" />
    <glyph glyph-name="nacute" unicode="&#x144;" horiz-adv-x="1243" 
d="M1034 1579l68 -193l-484 -219l-61 172zM877 1059q142 0 217 -80.5t75 -230.5q0 -58 -12 -123l-108 -625h-340l108 608q4 32 4 49q0 65 -34.5 100.5t-100.5 35.5q-86 0 -145.5 -62.5t-79.5 -173.5l-96 -557h-340l182 1038h340l-66 -370h4q32 184 136.5 287.5t255.5 103.5z
" />
    <glyph glyph-name="uni0145" unicode="&#x145;" horiz-adv-x="1583" 
d="M1026 29l244 1487h338l-267 -1516h-577l-115 1487h-4l-246 -1487h-338l267 1516h575l119 -1487h4zM772 -326h-276l36 205h297l-30 -172q-15 -89 -99.5 -139.5t-232.5 -59.5l14 86q134 6 198 24.5t93 55.5z" />
    <glyph glyph-name="uni0146" unicode="&#x146;" horiz-adv-x="1243" 
d="M877 1059q142 0 217 -80.5t75 -230.5q0 -58 -12 -123l-108 -625h-340l108 608q4 32 4 49q0 65 -34.5 100.5t-100.5 35.5q-86 0 -145.5 -62.5t-79.5 -173.5l-96 -557h-340l182 1038h340l-66 -370h4q32 184 136.5 287.5t255.5 103.5zM608 -326h-276l37 205h297l-31 -172
q-15 -89 -99.5 -139.5t-232.5 -59.5l14 86q134 6 198 24.5t93 55.5z" />
    <glyph glyph-name="Ncaron" unicode="&#x147;" horiz-adv-x="1583" 
d="M766 1647l-90 368h252l67 -340h4l187 340h252l-219 -368h-453zM1026 29l244 1487h338l-267 -1516h-577l-115 1487h-4l-246 -1487h-338l267 1516h575l119 -1487h4z" />
    <glyph glyph-name="ncaron" unicode="&#x148;" horiz-adv-x="1243" 
d="M518 1171l-90 367h252l68 -340h4l186 340h252l-219 -367h-453zM877 1059q142 0 217 -80.5t75 -230.5q0 -58 -12 -123l-108 -625h-340l108 608q4 32 4 49q0 65 -34.5 100.5t-100.5 35.5q-86 0 -145.5 -62.5t-79.5 -173.5l-96 -557h-340l182 1038h340l-66 -370h4
q32 184 136.5 287.5t255.5 103.5z" />
    <glyph glyph-name="Eng" unicode="&#x14a;" horiz-adv-x="1583" 
d="M1026 29l244 1487h338l-267 -1516l-4 -18q-45 -224 -191 -349t-370 -125q-139 0 -239 56l145 252q40 -29 106 -29q74 0 125 45.5t66 124.5l8 43h-223l-115 1487h-4l-246 -1487h-338l267 1516h575l119 -1487h4z" />
    <glyph glyph-name="eng" unicode="&#x14b;" horiz-adv-x="1243" 
d="M877 1059q142 0 217 -80.5t75 -230.5q0 -58 -12 -123l-117 -674q-37 -209 -171 -326t-337 -117q-181 0 -280 86l141 222q58 -39 119 -39q75 0 124.5 47.5t63.5 130.5l117 653q4 32 4 49q0 65 -34.5 100.5t-100.5 35.5q-86 0 -145.5 -62.5t-79.5 -173.5l-96 -557h-340
l182 1038h340l-66 -370h4q32 184 136.5 287.5t255.5 103.5z" />
    <glyph glyph-name="Omacron" unicode="&#x14c;" horiz-adv-x="1624" 
d="M1380 1716h-716l41 236h716zM717 -20q-293 0 -453 162.5t-160 453.5q0 281 109 494t310 329.5t468 116.5q294 0 453.5 -162t159.5 -454q0 -281 -108.5 -494t-309.5 -329.5t-469 -116.5zM768 258q209 0 337 175t128 454q0 173 -75.5 271.5t-213.5 98.5q-213 0 -341 -174
t-128 -452q0 -175 76 -274t217 -99z" />
    <glyph glyph-name="omacron" unicode="&#x14d;" horiz-adv-x="1253" 
d="M1110 1241h-715l41 234h717zM532 -20q-229 0 -353 115t-124 321q0 294 181 468.5t487 174.5q228 0 352.5 -115t124.5 -321q0 -292 -181.5 -467.5t-486.5 -175.5zM580 248q122 0 196 93t74 243q0 99 -45 154t-129 55q-122 0 -196 -93t-74 -245q0 -99 45 -153t129 -54z" />
    <glyph glyph-name="Ohungarumlaut" unicode="&#x150;" horiz-adv-x="1624" 
d="M1247 1935l-436 -331l-113 137l418 344zM1661 1935l-436 -331l-113 137l418 344zM717 -20q-293 0 -453 162.5t-160 453.5q0 281 109 494t310 329.5t468 116.5q294 0 453.5 -162t159.5 -454q0 -281 -108.5 -494t-309.5 -329.5t-469 -116.5zM768 258q209 0 337 175t128 454
q0 173 -75.5 271.5t-213.5 98.5q-213 0 -341 -174t-128 -452q0 -175 76 -274t217 -99z" />
    <glyph glyph-name="ohungarumlaut" unicode="&#x151;" horiz-adv-x="1253" 
d="M979 1458l-436 -332l-113 138l418 344zM1393 1458l-437 -332l-112 138l418 344zM532 -20q-229 0 -353 115t-124 321q0 294 181 468.5t487 174.5q228 0 352.5 -115t124.5 -321q0 -292 -181.5 -467.5t-486.5 -175.5zM580 248q122 0 196 93t74 243q0 99 -45 154t-129 55
q-122 0 -196 -93t-74 -245q0 -99 45 -153t129 -54z" />
    <glyph glyph-name="OE" unicode="&#x152;" horiz-adv-x="2390" 
d="M2472 1516l-47 -273h-756l-59 -332h684l-47 -272h-684l-66 -367h778l-47 -272h-1134l96 545h-4q-46 -266 -213.5 -415.5t-419.5 -149.5q-214 0 -330.5 153.5t-116.5 425.5q0 283 89.5 505.5t254 347t377.5 124.5q214 0 330.5 -111t116.5 -311q0 -66 -12 -143h4l94 545
h1112zM774 258q176 0 303 141t166 359q10 78 10 133q0 166 -78.5 266t-224.5 100q-211 0 -340 -174.5t-129 -451.5q0 -176 76 -274.5t217 -98.5z" />
    <glyph glyph-name="oe" unicode="&#x153;" horiz-adv-x="1957" 
d="M1466 1059q211 0 329 -105t118 -295q0 -52 -17 -139l-6 -37h-729q-2 -12 -2 -37q0 -100 42.5 -156.5t119.5 -56.5q75 0 134.5 38t88.5 104h328q-63 -186 -220.5 -290.5t-375.5 -104.5q-219 0 -335.5 109t-113.5 306h-4q-35 -196 -153.5 -305.5t-296.5 -109.5
q-151 0 -234.5 106.5t-83.5 296.5q0 197 63 350.5t179 239.5t266 86q151 0 232.5 -79.5t81.5 -225.5q0 -55 -11 -109h4q69 197 224 305.5t372 108.5zM1421 807q-90 0 -154 -60.5t-91 -164.5h401q2 12 2 32q0 93 -41 143t-117 50zM586 248q99 0 170 76t92 196q8 39 8 72
q0 91 -45.5 146t-128.5 55q-122 0 -196 -93t-74 -245q0 -99 45 -153t129 -54z" />
    <glyph glyph-name="Racute" unicode="&#x154;" horiz-adv-x="1464" 
d="M1151 2056l70 -192l-486 -219l-61 172zM784 596v-4q158 0 271 -59.5t151 -165.5l133 -367h-395l-192 592h-232l-104 -592h-355l267 1516h616q254 0 393.5 -99.5t139.5 -277.5q0 -248 -187 -395.5t-506 -147.5zM637 1243l-72 -395h279q118 0 188 64t70 171
q0 75 -49.5 117.5t-139.5 42.5h-276z" />
    <glyph glyph-name="racute" unicode="&#x155;" horiz-adv-x="905" 
d="M864 1579l68 -193l-483 -219l-62 172zM850 1059q95 0 154 -35l-152 -299q-55 37 -131 37q-105 0 -179 -84.5t-100 -235.5l-77 -442h-340l182 1038h340l-80 -450h4q38 222 138.5 346.5t240.5 124.5z" />
    <glyph glyph-name="uni0156" unicode="&#x156;" horiz-adv-x="1464" 
d="M784 596v-4q158 0 271 -59.5t151 -165.5l133 -367h-395l-192 592h-232l-104 -592h-355l267 1516h616q254 0 393.5 -99.5t139.5 -277.5q0 -248 -187 -395.5t-506 -147.5zM637 1243l-72 -395h279q118 0 188 64t70 171q0 75 -49.5 117.5t-139.5 42.5h-276zM702 -326h-274
l35 205h297l-31 -172q-15 -89 -99.5 -139.5t-232.5 -59.5l17 86q134 6 196.5 24.5t91.5 55.5z" />
    <glyph glyph-name="uni0157" unicode="&#x157;" horiz-adv-x="905" 
d="M850 1059q95 0 154 -35l-152 -299q-55 37 -131 37q-105 0 -179 -84.5t-100 -235.5l-77 -442h-340l182 1038h340l-80 -450h4q38 222 138.5 346.5t240.5 124.5zM260 -326h-276l36 205h297l-30 -172q-15 -89 -100 -139.5t-232 -59.5l14 86q134 6 198 24.5t93 55.5z" />
    <glyph glyph-name="Rcaron" unicode="&#x158;" horiz-adv-x="1464" 
d="M635 1647l-90 368h252l67 -340h4l187 340h254l-222 -368h-452zM784 596v-4q158 0 271 -59.5t151 -165.5l133 -367h-395l-192 592h-232l-104 -592h-355l267 1516h616q254 0 393.5 -99.5t139.5 -277.5q0 -248 -187 -395.5t-506 -147.5zM637 1243l-72 -395h279q118 0 188 64
t70 171q0 75 -49.5 117.5t-139.5 42.5h-276z" />
    <glyph glyph-name="rcaron" unicode="&#x159;" horiz-adv-x="905" 
d="M348 1171l-90 367h252l68 -340h4l186 340h252l-219 -367h-453zM467 588h4q38 222 138.5 346.5t240.5 124.5q95 0 154 -35l-152 -299q-55 37 -131 37q-105 0 -179 -84.5t-100 -235.5l-77 -442h-340l182 1038h340z" />
    <glyph glyph-name="Sacute" unicode="&#x15a;" horiz-adv-x="1425" 
d="M1266 1864l-484 -219l-61 172l477 239zM614 -20q-265 0 -411 130.5t-146 366.5q0 42 2 62h353q-2 -8 -2 -29q0 -119 69 -185.5t193 -66.5q144 0 228.5 57t84.5 154q0 25 -9.5 45.5t-22.5 35t-39.5 27t-46.5 20t-59.5 15.5t-63 12t-70.5 11q-187 28 -268 57
q-180 65 -213 219q-7 37 -7 78q0 259 187.5 403t515.5 144q244 0 378 -126.5t134 -352.5v-56h-352v35q0 106 -59 163.5t-169 57.5q-122 0 -192 -49.5t-70 -134.5q0 -25 9.5 -44.5t32.5 -34t44 -24.5t62 -19t67.5 -14t77.5 -13q49 -7 77.5 -11.5t77 -14.5t78 -19.5t71 -25.5
t67 -34t54 -44.5t44.5 -57.5t26.5 -72t10.5 -88q0 -263 -201 -420t-543 -157z" />
    <glyph glyph-name="sacute" unicode="&#x15b;" horiz-adv-x="1097" 
d="M1018 1386l-486 -219l-61 172l477 240zM449 -20q-209 0 -323 76t-114 216q0 30 6 64h316q-2 -14 -2 -29q0 -57 40 -89t113 -32q89 0 140 34t51 91q0 22 -12 38.5t-28 26.5t-48 19t-56 13.5t-67 11.5q-35 5 -55 8.5t-54 11t-55 14t-50 18t-47 24.5t-38 32t-31 40.5
t-18.5 50t-7.5 61.5q0 175 143 277t387 102q197 0 305.5 -72.5t108.5 -204.5q0 -13 -9 -65h-313q2 14 2 33q0 106 -129 106q-73 0 -116.5 -29t-43.5 -75q0 -19 11.5 -34t27.5 -24.5t46.5 -18t53.5 -13t64 -11.5q151 -27 211 -51q153 -64 154 -213q0 -188 -152 -297.5
t-411 -109.5z" />
    <glyph glyph-name="Scedilla" unicode="&#x15e;" horiz-adv-x="1425" 
d="M614 -20q-265 0 -411 130.5t-146 366.5q0 42 2 62h353q-2 -8 -2 -29q0 -119 69 -185.5t193 -66.5q144 0 228.5 57t84.5 154q0 25 -9.5 45.5t-22.5 35t-39.5 27t-46.5 20t-59.5 15.5t-63 12t-70.5 11q-187 28 -268 57q-180 65 -213 219q-7 37 -7 78q0 259 187.5 403
t515.5 144q244 0 378 -126.5t134 -352.5v-56h-352v35q0 106 -59 163.5t-169 57.5q-122 0 -192 -49.5t-70 -134.5q0 -25 9.5 -44.5t32.5 -34t44 -24.5t62 -19t67.5 -14t77.5 -13q49 -7 77.5 -11.5t77 -14.5t78 -19.5t71 -25.5t67 -34t54 -44.5t44.5 -57.5t26.5 -72t10.5 -88
q0 -263 -201 -420t-543 -157zM504 -492q-122 0 -209 43l24 127q60 -47 154 -47q73 0 113.5 25t40.5 68q0 25 -19 39t-53 16q-57 0 -98 -41l-84 82q52 38 121.5 59t138.5 21q103 0 159 -39.5t56 -110.5q0 -111 -92.5 -176.5t-251.5 -65.5z" />
    <glyph glyph-name="scedilla" unicode="&#x15f;" horiz-adv-x="1097" 
d="M449 -20q-209 0 -323 76t-114 216q0 30 6 64h316q-2 -14 -2 -29q0 -57 40 -89t113 -32q89 0 140 34t51 91q0 22 -12 38.5t-28 26.5t-48 19t-56 13.5t-67 11.5q-35 5 -55 8.5t-54 11t-55 14t-50 18t-47 24.5t-38 32t-31 40.5t-18.5 50t-7.5 61.5q0 175 143 277t387 102
q197 0 305.5 -72.5t108.5 -204.5q0 -13 -9 -65h-313q2 14 2 33q0 106 -129 106q-73 0 -116.5 -29t-43.5 -75q0 -19 11.5 -34t27.5 -24.5t46.5 -18t53.5 -13t64 -11.5q151 -27 211 -51q153 -64 154 -213q0 -188 -152 -297.5t-411 -109.5zM330 -492q-122 0 -209 43l24 127
q60 -47 156 -47q72 0 113 25t41 68q0 25 -19 39t-53 16q-59 0 -100 -41l-82 82q110 80 260 80q102 0 157.5 -39.5t55.5 -110.5q0 -111 -92.5 -176.5t-251.5 -65.5z" />
    <glyph glyph-name="Scaron" unicode="&#x160;" horiz-adv-x="1425" 
d="M682 1647l-90 368h252l67 -340h4l187 340h254l-221 -368h-453zM1401 1001h-352v35q0 106 -59 163.5t-169 57.5q-122 0 -192 -49.5t-70 -134.5q0 -25 9.5 -44.5t32.5 -34t44 -24.5t62 -19t67.5 -14t77.5 -13q49 -7 77.5 -11.5t77 -14.5t78 -19.5t71 -25.5t67 -34t54 -44.5
t44.5 -57.5t26.5 -72t10.5 -88q0 -263 -201 -420t-543 -157q-265 0 -411 130.5t-146 366.5q0 42 2 62h353q-2 -8 -2 -29q0 -119 69 -185.5t193 -66.5q144 0 228.5 57t84.5 154q0 25 -9.5 45.5t-22.5 35t-39.5 27t-46.5 20t-59.5 15.5t-63 12t-70.5 11q-187 28 -268 57
q-180 65 -213 219q-7 37 -7 78q0 259 187.5 403t515.5 144q244 0 378 -126.5t134 -352.5v-56z" />
    <glyph glyph-name="scaron" unicode="&#x161;" horiz-adv-x="1097" 
d="M434 1171l-92 367h254l68 -340h4l186 340h252l-219 -367h-453zM639 1059q197 0 305.5 -72.5t108.5 -204.5q0 -13 -9 -65h-313q2 14 2 33q0 106 -129 106q-73 0 -116.5 -29t-43.5 -75q0 -19 11.5 -34t27.5 -24.5t46.5 -18t53.5 -13t64 -11.5q151 -27 211 -51
q153 -64 154 -213q0 -188 -152 -297.5t-411 -109.5q-209 0 -323 76t-114 216q0 30 6 64h316q-2 -14 -2 -29q0 -57 40 -89t113 -32q89 0 140 34t51 91q0 22 -12 38.5t-28 26.5t-48 19t-56 13.5t-67 11.5q-35 5 -55 8.5t-54 11t-55 14t-50 18t-47 24.5t-38 32t-31 40.5
t-18.5 50t-7.5 61.5q0 175 143 277t387 102z" />
    <glyph glyph-name="uni0162" unicode="&#x162;" horiz-adv-x="1269" 
d="M205 1516h1210l-47 -273h-428l-219 -1243h-356l219 1243h-426zM557 -100q102 0 157.5 -39.5t55.5 -110.5q0 -111 -92.5 -176.5t-251.5 -65.5q-122 0 -209 43l25 127q60 -47 153 -47q73 0 113.5 25t40.5 68q0 25 -19 39t-53 16q-57 0 -98 -41l-84 82q52 38 122 59t140 21z
" />
    <glyph glyph-name="uni0163" unicode="&#x163;" horiz-adv-x="854" 
d="M868 809h-301l-75 -430q-3 -18 -3 -29q0 -48 34 -75t95 -27q72 0 140 33l-45 -250q-117 -51 -252 -51q-157 0 -241.5 70.5t-84.5 199.5q0 22 8 80l84 479h-135l41 229h154l59 336h340l-14 -86q-19 -104 -117.5 -169t-255.5 -77l-2 -4h610zM352 -100q103 0 159 -39.5
t56 -110.5q0 -111 -92.5 -176.5t-251.5 -65.5q-122 0 -209 43l25 127q60 -47 154 -47q73 0 113 25t40 68q0 25 -19 39t-53 16q-57 0 -98 -41l-84 82q52 38 121.5 59t138.5 21z" />
    <glyph glyph-name="Tcaron" unicode="&#x164;" horiz-adv-x="1269" 
d="M604 1647l-90 368h252l68 -340h4l186 340h254l-221 -368h-453zM205 1516h1210l-47 -273h-428l-219 -1243h-356l219 1243h-426z" />
    <glyph glyph-name="tcaron" unicode="&#x165;" horiz-adv-x="854" 
d="M729 1163l176 434l232 -65l-195 -434zM299 1042l-2 -4h610l-39 -229h-301l-75 -430q-3 -18 -3 -29q0 -48 34 -75t95 -27q72 0 140 33l-45 -250q-117 -51 -252 -51q-157 0 -241.5 70.5t-84.5 199.5q0 22 8 80l84 479h-135l41 229h154l59 336h340l-14 -86
q-19 -104 -117.5 -169t-255.5 -77z" />
    <glyph glyph-name="Tbar" unicode="&#x166;" horiz-adv-x="1284" 
d="M1421 1516l-47 -273h-428l-80 -452h213l-16 -97h-213l-123 -694h-354l123 694h-222l19 97h219l80 452h-428l47 273h1210z" />
    <glyph glyph-name="tbar" unicode="&#x167;" horiz-adv-x="866" 
d="M913 1038l-39 -229h-301l-38 -225h301l-17 -97h-303l-18 -108q-2 -12 -2 -29q0 -48 34 -75t95 -27q71 0 139 33l-45 -250q-117 -51 -252 -51q-157 0 -241.5 70.5t-84.5 199.5q0 15 9 80l28 157h-135l18 97h134l38 225h-135l41 229h154l59 336h338l-14 -86
q-17 -104 -115.5 -169t-255.5 -77l-2 -4h610z" />
    <glyph glyph-name="Umacron" unicode="&#x16a;" horiz-adv-x="1521" 
d="M1335 1716h-714l41 236h716zM664 -20q-256 0 -394.5 114t-138.5 324q0 59 12 127l170 971h355l-174 -988q-5 -36 -5 -63q0 -99 60.5 -153t173.5 -54q131 0 216.5 71.5t107.5 198.5l174 988h338l-170 -971q-47 -267 -239 -416t-486 -149z" />
    <glyph glyph-name="umacron" unicode="&#x16b;" horiz-adv-x="1224" 
d="M420 1475h715l-41 -234h-715zM762 481l98 557h340l-182 -1038h-340l65 371h-4q-34 -185 -134.5 -288t-248.5 -103q-136 0 -208 80t-72 227q0 51 10 129l111 622h342l-109 -606q-6 -38 -6 -53q0 -64 32.5 -98.5t92.5 -34.5q81 0 137 62t76 173z" />
    <glyph glyph-name="Uring" unicode="&#x16e;" horiz-adv-x="1521" 
d="M961 1610q-116 0 -179 55.5t-63 153.5q0 134 89.5 214.5t242.5 80.5q116 0 178.5 -54.5t62.5 -152.5q0 -136 -89 -216.5t-242 -80.5zM987 1759q54 0 85.5 34t31.5 91q0 38 -21 60t-59 22q-55 0 -86 -34.5t-31 -92.5q0 -80 80 -80zM664 -20q-256 0 -394.5 114t-138.5 324
q0 59 12 127l170 971h355l-174 -988q-5 -36 -5 -63q0 -99 60.5 -153t173.5 -54q131 0 216.5 71.5t107.5 198.5l174 988h338l-170 -971q-47 -267 -239 -416t-486 -149z" />
    <glyph glyph-name="uring" unicode="&#x16f;" horiz-adv-x="1224" 
d="M719 1135q-116 0 -180 54.5t-64 151.5q0 134 90 214.5t242 80.5q116 0 180 -54.5t64 -151.5q0 -135 -90 -215t-242 -80zM780 1489q-53 0 -84.5 -34.5t-31.5 -90.5q0 -39 20.5 -60.5t58.5 -21.5q55 0 86 33.5t31 91.5q0 38 -21 60t-59 22zM762 481l98 557h340l-182 -1038
h-340l65 371h-4q-34 -185 -134.5 -288t-248.5 -103q-136 0 -208 80t-72 227q0 51 10 129l111 622h342l-109 -606q-6 -38 -6 -53q0 -64 32.5 -98.5t92.5 -34.5q81 0 137 62t76 173z" />
    <glyph glyph-name="Uhungarumlaut" unicode="&#x170;" horiz-adv-x="1521" 
d="M1204 1935l-436 -331l-113 137l418 344zM1618 1935l-436 -331l-113 137l418 344zM664 -20q-256 0 -394.5 114t-138.5 324q0 59 12 127l170 971h355l-174 -988q-5 -36 -5 -63q0 -99 60.5 -153t173.5 -54q131 0 216.5 71.5t107.5 198.5l174 988h338l-170 -971
q-47 -267 -239 -416t-486 -149z" />
    <glyph glyph-name="uhungarumlaut" unicode="&#x171;" horiz-adv-x="1224" 
d="M829 1608l132 -150l-437 -332l-112 138zM1374 1458l-436 -332l-113 138l418 344zM762 481l98 557h340l-182 -1038h-340l65 371h-4q-34 -185 -134.5 -288t-248.5 -103q-136 0 -208 80t-72 227q0 51 10 129l111 622h342l-109 -606q-6 -38 -6 -53q0 -64 32.5 -98.5
t92.5 -34.5q81 0 137 62t76 173z" />
    <glyph glyph-name="Uogonek" unicode="&#x172;" horiz-adv-x="1521" 
d="M1047 528l174 988h338l-170 -971q-37 -206 -162 -344t-320 -191q-117 -79 -184.5 -151.5t-67.5 -118.5q0 -45 54 -45q76 0 165 47l-32 -186q-104 -48 -252 -48q-104 0 -160.5 37t-56.5 105q0 167 491 344l-2 6q-87 -20 -198 -20q-256 0 -394.5 114t-138.5 324
q0 59 12 127l170 971h355l-174 -988q-5 -36 -5 -63q0 -99 60.5 -153t173.5 -54q131 0 216.5 71.5t107.5 198.5z" />
    <glyph glyph-name="uogonek" unicode="&#x173;" horiz-adv-x="1224" 
d="M1200 1038l-182 -1038q-113 -77 -178.5 -146.5t-65.5 -113.5q0 -45 55 -45q75 0 164 47l-32 -186q-104 -48 -252 -48q-104 0 -160.5 37t-56.5 105q0 49 40.5 109t106 113t160.5 88.5t192 35.5v4h-313l65 371h-4q-34 -185 -134.5 -288t-248.5 -103q-136 0 -208 80t-72 227
q0 51 10 129l111 622h342l-109 -606q-6 -38 -6 -53q0 -64 32.5 -98.5t92.5 -34.5q81 0 137 62t76 173l98 557h340z" />
    <glyph glyph-name="Wcircumflex" unicode="&#x174;" horiz-adv-x="2226" 
d="M1384 1987h-4l-186 -340h-252l219 368h453l92 -368h-254zM1528 29l469 1487h354l-510 -1516h-633l78 1487h-4l-446 -1487h-633l24 1516h377l-53 -1487h4l461 1487h567l-59 -1487h4z" />
    <glyph glyph-name="wcircumflex" unicode="&#x175;" horiz-adv-x="1861" 
d="M1108 1511h-4l-186 -340h-252l219 367h452l93 -367h-254zM1243 23l311 1015h353l-361 -1038h-583l57 1016h-4l-299 -1016h-584l4 1038h361l-45 -1015h4l295 1015h548l-61 -1015h4z" />
    <glyph glyph-name="Ycircumflex" unicode="&#x176;" horiz-adv-x="1490" 
d="M1034 1987h-4l-186 -340h-252l219 368h453l92 -368h-254zM801 655l506 861h383l-947 -1516h-383l388 627h-330l-240 889h410l209 -861h4z" />
    <glyph glyph-name="ycircumflex" unicode="&#x177;" horiz-adv-x="1171" 
d="M770 1511h-4l-186 -340h-254l221 367h452l91 -367h-252zM502 23l362 1015h363l-602 -1509h-363l191 471h-277l-49 1038h362l9 -1015h4z" />
    <glyph glyph-name="Ydieresis" unicode="&#x178;" horiz-adv-x="1490" 
d="M657 1974h316l-49 -282h-316zM1090 1974h315l-47 -282h-316zM801 655l506 861h383l-947 -1516h-383l388 627h-330l-240 889h410l209 -861h4z" />
    <glyph glyph-name="Zacute" unicode="&#x179;" horiz-adv-x="1456" 
d="M1231 2056l69 -192l-485 -219l-61 172zM1513 1516l-108 -619l-1333 -621v-4h1282l-47 -272h-1313l108 618l1334 621v4h-1194l47 273h1224z" />
    <glyph glyph-name="zacute" unicode="&#x17a;" horiz-adv-x="1118" 
d="M958 1579l70 -193l-485 -219l-62 172zM1110 1038l-94 -534l-955 -271l-2 -4h947l-41 -229h-975l94 535l954 270l2 4h-897l39 229h928z" />
    <glyph glyph-name="Zdotaccent" unicode="&#x17b;" horiz-adv-x="1456" 
d="M829 1974h340l-47 -282h-340zM1513 1516l-108 -619l-1333 -621v-4h1282l-47 -272h-1313l108 618l1334 621v4h-1194l47 273h1224z" />
    <glyph glyph-name="zdotaccent" unicode="&#x17c;" horiz-adv-x="1118" 
d="M557 1497h340l-49 -283h-340zM1110 1038l-94 -534l-955 -271l-2 -4h947l-41 -229h-975l94 535l954 270l2 4h-897l39 229h928z" />
    <glyph glyph-name="Zcaron" unicode="&#x17d;" horiz-adv-x="1456" 
d="M717 1647l-92 368h254l67 -340h4l187 340h252l-220 -368h-452zM1513 1516l-108 -619l-1333 -621v-4h1282l-47 -272h-1313l108 618l1334 621v4h-1194l47 273h1224z" />
    <glyph glyph-name="zcaron" unicode="&#x17e;" horiz-adv-x="1118" 
d="M442 1171l-90 367h252l68 -340h4l186 340h254l-221 -367h-453zM1040 809h-897l39 229h928l-94 -534l-955 -271l-2 -4h947l-41 -229h-975l94 535l954 270z" />
    <glyph glyph-name="florin" unicode="&#x192;" horiz-adv-x="1466" 
d="M1317 1536q172 0 295 -72l-109 -239q-62 43 -160 43q-75 0 -133.5 -47t-87.5 -131l-92 -259h258l-18 -96h-275l-147 -411q-58 -163 -190.5 -253.5t-311.5 -90.5q-171 0 -295 71l111 240q59 -43 160 -43q75 0 132.5 46.5t88.5 131.5l110 309h-252l17 96h268l129 361
q57 162 190 253t312 91z" />
    <glyph glyph-name="uni0218" unicode="&#x218;" horiz-adv-x="1425" 
d="M1401 1001h-352v35q0 106 -59 163.5t-169 57.5q-122 0 -192 -49.5t-70 -134.5q0 -25 9.5 -44.5t32.5 -34t44 -24.5t62 -19t67.5 -14t77.5 -13q49 -7 77.5 -11.5t77 -14.5t78 -19.5t71 -25.5t67 -34t54 -44.5t44.5 -57.5t26.5 -72t10.5 -88q0 -263 -201 -420t-543 -157
q-265 0 -411 130.5t-146 366.5q0 42 2 62h353q-2 -8 -2 -29q0 -119 69 -185.5t193 -66.5q144 0 228.5 57t84.5 154q0 25 -9.5 45.5t-22.5 35t-39.5 27t-46.5 20t-59.5 15.5t-63 12t-70.5 11q-187 28 -268 57q-180 65 -213 219q-7 37 -7 78q0 259 187.5 403t515.5 144
q244 0 378 -126.5t134 -352.5v-56zM688 -326h-274l35 205h296l-30 -172q-15 -89 -99.5 -139.5t-232.5 -59.5l16 86q134 6 197 24.5t92 55.5z" />
    <glyph glyph-name="uni0219" unicode="&#x219;" horiz-adv-x="1097" 
d="M1044 717h-313q2 14 2 33q0 106 -129 106q-73 0 -116.5 -29t-43.5 -75q0 -19 11.5 -34t27.5 -24.5t46.5 -18t53.5 -13t64 -11.5q151 -27 211 -51q153 -64 154 -213q0 -188 -152 -297.5t-411 -109.5q-209 0 -323 76t-114 216q0 30 6 64h316q-2 -14 -2 -29q0 -57 40 -89
t113 -32q89 0 140 34t51 91q0 22 -12 38.5t-28 26.5t-48 19t-56 13.5t-67 11.5q-35 5 -55 8.5t-54 11t-55 14t-50 18t-47 24.5t-38 32t-31 40.5t-18.5 50t-7.5 61.5q0 175 143 277t387 102q197 0 305.5 -72.5t108.5 -204.5q0 -13 -9 -65zM516 -326h-276l36 205h297l-30 -172
q-15 -89 -100 -139.5t-232 -59.5l14 86q134 6 198 24.5t93 55.5z" />
    <glyph glyph-name="uni021A" unicode="&#x21a;" horiz-adv-x="1269" 
d="M205 1516h1210l-47 -273h-428l-219 -1243h-356l219 1243h-426zM610 -326h-274l35 205h297l-31 -172q-15 -89 -99 -139.5t-231 -59.5l15 86q134 6 196.5 24.5t91.5 55.5z" />
    <glyph glyph-name="uni021B" unicode="&#x21b;" horiz-adv-x="854" 
d="M868 809h-301l-75 -430q-3 -18 -3 -29q0 -48 34 -75t95 -27q72 0 140 33l-45 -250q-117 -51 -252 -51q-157 0 -241.5 70.5t-84.5 199.5q0 22 8 80l84 479h-135l41 229h154l59 336h340l-14 -86q-19 -104 -117.5 -169t-255.5 -77l-2 -4h610zM408 -326h-275l35 205h297
l-31 -172q-15 -89 -99.5 -139.5t-232.5 -59.5l17 86q134 6 197 24.5t92 55.5z" />
    <glyph glyph-name="uni0237" unicode="&#x237;" horiz-adv-x="569" 
d="M281 -471h-340l266 1509h340z" />
    <glyph glyph-name="circumflex" unicode="&#x2c6;" horiz-adv-x="794" 
d="M803 1538l92 -367h-254l-68 340h-4l-186 -340h-252l219 367h453z" />
    <glyph glyph-name="caron" unicode="&#x2c7;" horiz-adv-x="794" 
d="M520 1198l187 340h251l-219 -367h-452l-92 367h254l67 -340h4z" />
    <glyph glyph-name="breve" unicode="&#x2d8;" horiz-adv-x="763" 
d="M498 1161q-165 0 -242 100t-49 277h221q-12 -85 15 -132.5t87 -47.5q61 0 104 47.5t62 132.5h224q-34 -177 -146 -277t-276 -100z" />
    <glyph glyph-name="dotaccent" unicode="&#x2d9;" horiz-adv-x="550" 
d="M569 1214h-340l50 283h339z" />
    <glyph glyph-name="ring" unicode="&#x2da;" horiz-adv-x="638" 
d="M428 1135q-116 0 -179 54.5t-63 151.5q0 134 89.5 214.5t242.5 80.5q116 0 179 -54.5t63 -151.5q0 -135 -89.5 -215t-242.5 -80zM455 1282q54 0 85 34t31 91q0 39 -20.5 60.5t-58.5 21.5q-55 0 -86 -34.5t-31 -90.5q0 -39 20.5 -60.5t59.5 -21.5z" />
    <glyph glyph-name="ogonek" unicode="&#x2db;" horiz-adv-x="532" 
d="M88 -492q-104 0 -159.5 37t-55.5 105q0 49 40.5 109t106 113t160 88.5t191.5 35.5v4h26q-113 -77 -178 -146.5t-65 -113.5q0 -45 55 -45q74 0 166 47l-35 -186q-104 -48 -252 -48z" />
    <glyph glyph-name="tilde" unicode="&#x2dc;" horiz-adv-x="929" 
d="M317 1184h-139q31 159 119.5 248.5t214.5 89.5q56 0 105 -22.5t91 -45t80 -22.5q43 0 75.5 26t45.5 72h138q-31 -160 -119 -249t-215 -89q-44 0 -85 14t-67 30t-59.5 30t-65.5 14q-43 0 -75 -26t-44 -70z" />
    <glyph glyph-name="hungarumlaut" unicode="&#x2dd;" horiz-adv-x="1040" 
d="M727 1458l-436 -332l-113 138l418 344zM1141 1458l-439 -332l-112 138l420 344z" />
    <glyph glyph-name="gravecomb" unicode="&#x300;" horiz-adv-x="0" 
d="M143 1339l-123 -172l-407 219l137 193z" />
    <glyph glyph-name="acutecomb" unicode="&#x301;" horiz-adv-x="0" 
d="M129 1386l-485 -219l-62 172l477 240z" />
    <glyph glyph-name="uni0302" unicode="&#x302;" horiz-adv-x="0" 
d="M8 1538l92 -367h-254l-67 340h-4l-187 -340h-252l220 367h452z" />
    <glyph glyph-name="tildecomb" unicode="&#x303;" horiz-adv-x="0" 
d="M-610 1208h-138q31 160 119 249t215 89q56 0 104.5 -22t90.5 -44t80 -22q43 0 75 26t46 70h137q-31 -160 -118.5 -248.5t-215.5 -88.5q-44 0 -85 14t-67 31t-59.5 31t-65.5 14q-42 0 -74 -27t-44 -72z" />
    <glyph glyph-name="uni0304" unicode="&#x304;" horiz-adv-x="0" 
d="M94 1241h-717l43 234h715z" />
    <glyph glyph-name="uni0306" unicode="&#x306;" horiz-adv-x="0" 
d="M-266 1161q-165 0 -242 100t-49 277h221q-12 -85 15.5 -132.5t87.5 -47.5q61 0 103.5 47t61.5 133h224q-34 -177 -146 -277t-276 -100z" />
    <glyph glyph-name="uni0307" unicode="&#x307;" horiz-adv-x="0" 
d="M18 1214h-340l50 283h340z" />
    <glyph glyph-name="uni0308" unicode="&#x308;" horiz-adv-x="0" 
d="M-442 1214h-316l47 283h318zM-8 1214h-318l50 283h315z" />
    <glyph glyph-name="uni030A" unicode="&#x30a;" horiz-adv-x="0" 
d="M-211 1135q-116 0 -179 54.5t-63 151.5q0 134 89.5 214.5t242.5 80.5q116 0 179 -54.5t63 -151.5q0 -135 -89.5 -215t-242.5 -80zM-184 1282q54 0 85 34t31 91q0 39 -20.5 60.5t-58.5 21.5q-55 0 -86 -34.5t-31 -90.5q0 -39 20.5 -60.5t59.5 -21.5z" />
    <glyph glyph-name="uni030B" unicode="&#x30b;" horiz-adv-x="0" 
d="M-313 1458l-437 -332l-112 138l418 344zM100 1458l-438 -332l-113 138l420 344z" />
    <glyph glyph-name="uni030C" unicode="&#x30c;" horiz-adv-x="0" 
d="M-274 1198l186 340h252l-219 -367h-453l-92 367h254l67 -340h5z" />
    <glyph glyph-name="uni0312" unicode="&#x312;" horiz-adv-x="0" 
d="M143 1636l-14 -84q-134 -4 -199 -29t-96 -75h277l-43 -238h-297l34 189q19 110 105.5 170.5t232.5 66.5z" />
    <glyph glyph-name="uni0326" unicode="&#x326;" horiz-adv-x="0" 
d="M-500 -326l35 205h297l-31 -172q-15 -89 -99 -139.5t-232 -59.5l16 86q134 6 197 24.5t92 55.5h-275z" />
    <glyph glyph-name="uni0327" unicode="&#x327;" horiz-adv-x="0" 
d="M-537 -492q-121 0 -208 43l24 127q60 -47 154 -47q73 0 113 25t40 68q0 25 -18.5 39t-52.5 16q-58 0 -99 -41l-84 82q52 38 121.5 59t138.5 21q102 0 158.5 -39.5t56.5 -110.5q0 -111 -92.5 -176.5t-251.5 -65.5z" />
    <glyph glyph-name="uni0328" unicode="&#x328;" horiz-adv-x="0" 
d="M-444 -492q-104 0 -159.5 37t-55.5 105q0 49 40 109t105.5 113t160 88.5t191.5 35.5v4h27q-113 -77 -178.5 -146.5t-65.5 -113.5q0 -45 55 -45q74 0 166 47l-35 -186q-104 -48 -251 -48z" />
    <glyph glyph-name="uni0335" unicode="&#x335;" horiz-adv-x="0" 
d="M-51 686h-787l17 96h786z" />
    <glyph glyph-name="uni0336" unicode="&#x336;" horiz-adv-x="0" 
d="M-49 686h-1510l17 96h1511z" />
    <glyph glyph-name="uni0337" unicode="&#x337;" horiz-adv-x="0" 
d="M139 1079l-987 -1175l-76 55l987 1176z" />
    <glyph glyph-name="uni0338" unicode="&#x338;" horiz-adv-x="0" 
d="M178 1540l-1302 -1622l-90 57l1302 1622z" />
    <glyph glyph-name="uni0394" unicode="&#x394;" horiz-adv-x="1517" 
d="M623 1516h626l170 -1516h-1501zM918 1487l-527 -1215h629l-98 1215h-4z" />
    <glyph glyph-name="uni03A9" unicode="&#x3a9;" horiz-adv-x="1691" 
d="M985 272l-2 -4h541l-47 -268h-627l47 268q117 0 208 85.5t139 225t48 306.5q0 175 -82 273.5t-233 98.5q-227 0 -362.5 -172t-135.5 -467q0 -166 57.5 -258t163.5 -92l-47 -268h-624l47 268h538l2 4q-230 0 -355.5 129t-125.5 361q0 359 240.5 566.5t650.5 207.5
q313 0 484 -139.5t171 -388.5q0 -214 -84.5 -381t-243.5 -261t-368 -94z" />
    <glyph glyph-name="uni03BC" unicode="&#x3bc;" horiz-adv-x="1234" 
d="M772 481l98 557h340l-182 -1038h-340l66 371h-4q-32 -184 -133.5 -287.5t-249.5 -103.5q-193 0 -256 157l172 -604l-2 -4h-340l157 891v-4l109 622h342l-109 -606q-4 -25 -4 -53q0 -65 31.5 -99t91.5 -34q82 0 138 62.5t75 172.5z" />
    <glyph glyph-name="pi" unicode="&#x3c0;" horiz-adv-x="1398" 
d="M119 1038h1343l-39 -229h-184l-143 -809h-340l143 809h-295l-143 -809h-340l143 809h-184z" />
    <glyph glyph-name="Wgrave" unicode="&#x1e80;" horiz-adv-x="2226" 
d="M1180 2056l393 -239l-123 -172l-408 219zM1528 29l469 1487h354l-510 -1516h-633l78 1487h-4l-446 -1487h-633l24 1516h377l-53 -1487h4l461 1487h567l-59 -1487h4z" />
    <glyph glyph-name="wgrave" unicode="&#x1e81;" horiz-adv-x="1861" 
d="M903 1579l393 -240l-122 -172l-408 219zM1243 23l311 1015h353l-361 -1038h-583l57 1016h-4l-299 -1016h-584l4 1038h361l-45 -1015h4l295 1015h548l-61 -1015h4z" />
    <glyph glyph-name="Wacute" unicode="&#x1e82;" horiz-adv-x="2226" 
d="M1612 2056l69 -192l-485 -219l-59 172zM1528 29l469 1487h354l-510 -1516h-633l78 1487h-4l-446 -1487h-633l24 1516h377l-53 -1487h4l461 1487h567l-59 -1487h4z" />
    <glyph glyph-name="wacute" unicode="&#x1e83;" horiz-adv-x="1861" 
d="M1335 1579l70 -193l-485 -219l-62 172zM1243 23l311 1015h353l-361 -1038h-583l57 1016h-4l-299 -1016h-584l4 1038h361l-45 -1015h4l295 1015h548l-61 -1015h4z" />
    <glyph glyph-name="Wdieresis" unicode="&#x1e84;" horiz-adv-x="2226" 
d="M1008 1974h315l-49 -282h-316zM1440 1974h315l-47 -282h-315zM1528 29l469 1487h354l-510 -1516h-633l78 1487h-4l-446 -1487h-633l24 1516h377l-53 -1487h4l461 1487h567l-59 -1487h4z" />
    <glyph glyph-name="wdieresis" unicode="&#x1e85;" horiz-adv-x="1861" 
d="M731 1497h316l-50 -283h-315zM1163 1497h316l-47 -283h-316zM1243 23l311 1015h353l-361 -1038h-583l57 1016h-4l-299 -1016h-584l4 1038h361l-45 -1015h4l295 1015h548l-61 -1015h4z" />
    <glyph glyph-name="uni1E9E" unicode="&#x1e9e;" horiz-adv-x="1452" 
d="M772 885h21q279 0 432 -101.5t153 -283.5q0 -238 -179 -379t-486 -141q-117 0 -193 24l47 272q67 -18 164 -18q133 0 209 59.5t76 159.5q0 82 -66 128t-188 46h-100l43 238q145 3 230 62.5t85 160.5q0 68 -45 106.5t-129 38.5q-104 0 -172.5 -55t-85.5 -153l-185 -1049
h-356l184 1036q41 235 216 367.5t444 132.5q245 0 379.5 -77t134.5 -216q0 -165 -169.5 -259.5t-463.5 -94.5v-4z" />
    <glyph glyph-name="Ygrave" unicode="&#x1ef2;" horiz-adv-x="1490" 
d="M829 2056l394 -239l-123 -172l-408 219zM801 655l506 861h383l-947 -1516h-383l388 627h-330l-240 889h410l209 -861h4z" />
    <glyph glyph-name="ygrave" unicode="&#x1ef3;" horiz-adv-x="1171" 
d="M565 1579l391 -240l-122 -172l-408 219zM502 23l362 1015h363l-602 -1509h-363l191 471h-277l-49 1038h362l9 -1015h4z" />
    <glyph glyph-name="endash" unicode="&#x2013;" horiz-adv-x="1257" 
d="M1145 479h-1047l19 96h1046z" />
    <glyph glyph-name="emdash" unicode="&#x2014;" horiz-adv-x="1843" 
d="M1731 479h-1633l19 96h1630z" />
    <glyph glyph-name="quoteleft" unicode="&#x2018;" horiz-adv-x="561" 
d="M635 1518l-31 -168q-140 -6 -240.5 -56t-144.5 -135h352l-61 -354h-371l51 291q32 185 150 297t295 125z" />
    <glyph glyph-name="quoteright" unicode="&#x2019;" horiz-adv-x="548" 
d="M217 1161l62 355h368l-49 -291q-34 -185 -151 -297t-295 -125l30 168q142 6 241.5 55.5t143.5 134.5h-350z" />
    <glyph glyph-name="quotesinglbase" unicode="&#x201a;" horiz-adv-x="573" 
d="M16 0l62 354h368l-49 -291q-32 -184 -150 -296t-294 -125l29 168q142 6 241.5 55.5t143.5 134.5h-351z" />
    <glyph glyph-name="quotedblleft" unicode="&#x201c;" horiz-adv-x="1036" 
d="M635 1518l-31 -168q-140 -6 -240.5 -56t-144.5 -135h352l-61 -354h-371l51 291q32 185 150 297t295 125zM1112 1518l-31 -168q-141 -6 -240.5 -56t-144.5 -135h351l-62 -354h-369l50 291q32 185 150 297t296 125z" />
    <glyph glyph-name="quotedblright" unicode="&#x201d;" horiz-adv-x="1024" 
d="M217 1161l62 355h368l-49 -291q-34 -185 -151 -297t-295 -125l30 168q142 6 241.5 55.5t143.5 134.5h-350zM692 1161l62 355h370l-51 -291q-32 -185 -149.5 -297t-294.5 -125l30 168q141 6 241 55.5t144 134.5h-352z" />
    <glyph glyph-name="quotedblbase" unicode="&#x201e;" horiz-adv-x="1048" 
d="M16 0l62 354h368l-49 -291q-32 -184 -150 -296t-294 -125l29 168q142 6 241.5 55.5t143.5 134.5h-351zM492 0l63 354h369l-52 -291q-32 -184 -150 -296t-294 -125l31 168q142 6 241.5 55.5t143.5 134.5h-352z" />
    <glyph glyph-name="dagger" unicode="&#x2020;" horiz-adv-x="778" 
d="M664 1577l-41 -240h223l-27 -149h-233l-97 -551h-167l65 369q12 76 63 123t128 55v4h-385l26 149h234l43 240h168z" />
    <glyph glyph-name="daggerdbl" unicode="&#x2021;" horiz-adv-x="778" 
d="M846 1337l-27 -149h-233l-29 -164h234l-27 -150h-234l-41 -237h-167l10 53q13 78 63 125t127 55v4h-385l27 150h227q17 69 66 110.5t121 49.5v4h-385l26 149h234l43 240h168l-41 -240h223z" />
    <glyph glyph-name="bullet" unicode="&#x2022;" horiz-adv-x="821" 
d="M643 365h-520l86 481h520z" />
    <glyph glyph-name="ellipsis" unicode="&#x2026;" horiz-adv-x="1556" 
d="M383 0h-369l62 354h368zM877 0h-371l63 354h369zM1366 0h-369l62 354h371z" />
    <glyph glyph-name="perthousand" unicode="&#x2030;" horiz-adv-x="2322" 
d="M1505 1481l-1286 -1501l-67 55l1288 1501zM430 737q-128 0 -199 78t-71 217q0 208 110.5 335.5t294.5 127.5q131 0 203 -78t72 -217q0 -208 -112.5 -335.5t-297.5 -127.5zM467 928q39 0 69 40t44 98t14 122q0 117 -62 117q-57 0 -93 -77t-36 -181q0 -56 16.5 -87.5
t47.5 -31.5zM1075 -20q-130 0 -201 77.5t-71 216.5q0 208 111 335.5t294 127.5q132 0 203.5 -78t71.5 -217q0 -208 -111.5 -335t-296.5 -127zM1839 -20q-130 0 -202 78t-72 216q0 208 111.5 335.5t295.5 127.5q131 0 203 -78t72 -217q0 -207 -112 -334.5t-296 -127.5z
M1108 170q59 0 94 79.5t35 180.5q0 117 -61 117q-57 0 -93 -77t-36 -181q0 -56 16 -87.5t45 -31.5zM1874 170q53 0 90 75.5t37 180.5q0 57 -16.5 89t-45.5 32q-52 0 -89.5 -74t-37.5 -180q0 -58 16.5 -90.5t45.5 -32.5z" />
    <glyph glyph-name="guilsinglleft" unicode="&#x2039;" horiz-adv-x="524" 
d="M369 117h-113l-193 395l332 395h113l-328 -395z" />
    <glyph glyph-name="guilsinglright" unicode="&#x203a;" horiz-adv-x="526" 
d="M129 117h-115l328 395l-188 395h114l193 -395z" />
    <glyph glyph-name="fraction" unicode="&#x2044;" horiz-adv-x="473" 
d="M956 1481l-1288 -1501l-67 55l1288 1501z" />
    <glyph glyph-name="uni2070" unicode="&#x2070;" horiz-adv-x="858" 
d="M465 721q-147 0 -226 93.5t-79 262.5q0 258 129 418t340 160q148 0 226.5 -94t78.5 -263q0 -258 -128 -417.5t-341 -159.5zM496 905q57 0 102.5 56t68.5 143t23 186q0 84 -24 132t-68 48q-84 0 -139.5 -114t-55.5 -269q0 -85 24.5 -133.5t68.5 -48.5z" />
    <glyph glyph-name="uni2074" unicode="&#x2074;" horiz-adv-x="841" 
d="M791 1100h120l-32 -180h-119l-33 -187h-238l33 187h-420l35 190l314 532h436zM649 1624l-303 -520v-4h215l92 524h-4z" />
    <glyph glyph-name="uni2075" unicode="&#x2075;" horiz-adv-x="794" 
d="M426 721q-142 0 -221.5 68t-79.5 190v25h231q0 -46 27 -72.5t74 -26.5q67 0 108 42.5t41 111.5q0 102 -100 102q-40 0 -74.5 -20.5t-54.5 -55.5l-221 29l161 528h572l-33 -180h-362l-117 -360h4q38 108 113.5 167.5t173.5 59.5q92 0 141 -56.5t49 -158.5
q0 -181 -117.5 -287t-314.5 -106z" />
    <glyph glyph-name="uni2076" unicode="&#x2076;" horiz-adv-x="847" 
d="M934 1376h-229v8q0 41 -23.5 63.5t-65.5 22.5q-73 0 -127 -75t-79 -209l-17 -94h4q20 106 97 165.5t196 59.5q103 0 159 -55.5t56 -153.5q0 -175 -121 -281t-323 -106q-145 0 -223 92.5t-78 259.5q0 261 133 421.5t354 160.5q137 0 212 -66.5t75 -185.5v-27zM535 1145
q-73 0 -114.5 -35.5t-41.5 -99.5q0 -50 29.5 -77.5t83.5 -27.5q72 0 115.5 40.5t43.5 105.5q0 45 -30 69.5t-86 24.5z" />
    <glyph glyph-name="uni2077" unicode="&#x2077;" horiz-adv-x="710" 
d="M184 1462l31 180h674l-31 -174q-133 -43 -234.5 -221t-148.5 -452l-10 -62h-246l6 29q62 325 215 507.5t373 188.5v4h-629z" />
    <glyph glyph-name="uni2078" unicode="&#x2078;" horiz-adv-x="821" 
d="M606 1296v-4q124 -9 192 -70.5t68 -160.5q0 -155 -114 -247.5t-306 -92.5q-151 0 -233 65t-82 181q0 139 95 225t263 100v4q-119 0 -184 38.5t-65 105.5q0 98 100 156.5t270 58.5q142 0 221.5 -45t79.5 -125q0 -86 -83 -137.5t-222 -51.5zM471 1360q0 -35 19.5 -55.5
t54.5 -20.5q49 0 78.5 30.5t29.5 80.5q0 35 -20 55t-55 20q-47 0 -77 -30.5t-30 -79.5zM477 905q64 0 101.5 36.5t37.5 96.5q0 41 -26 65.5t-72 24.5q-63 0 -101 -36.5t-38 -96.5q0 -42 25.5 -66t72.5 -24z" />
    <glyph glyph-name="uni2079" unicode="&#x2079;" horiz-adv-x="845" 
d="M623 1655q146 0 223.5 -92t77.5 -258q0 -263 -133 -423.5t-355 -160.5q-135 0 -208.5 71t-73.5 199v33h229q-2 -6 -2 -18q0 -48 22.5 -74.5t63.5 -26.5q72 0 127 76t78 209l18 106h-4q-17 -101 -93.5 -157t-195.5 -56q-103 0 -159 53t-56 150q0 167 120 268t321 101z
M553 1255q71 0 112.5 31.5t41.5 87.5q0 44 -30.5 70t-84.5 26q-71 0 -114.5 -35.5t-43.5 -93.5q0 -41 31 -63.5t88 -22.5z" />
    <glyph glyph-name="uni2080" unicode="&#x2080;" horiz-adv-x="858" 
d="M297 -238q-147 0 -227 94.5t-80 262.5q0 257 129.5 417t341.5 160q147 0 226 -93.5t79 -262.5q0 -258 -129 -418t-340 -160zM328 -53q57 0 102.5 56t68.5 143t23 186q0 84 -24.5 132t-69.5 48q-55 0 -99.5 -54t-68.5 -141t-24 -188q0 -85 24 -133.5t68 -48.5z" />
    <glyph glyph-name="uni2081" unicode="&#x2081;" horiz-adv-x="555" 
d="M250 684h237l-159 -909h-238l152 858h-4q-26 -146 -91.5 -227.5t-154.5 -81.5l37 208q92 0 149.5 40t71.5 112z" />
    <glyph glyph-name="uni2082" unicode="&#x2082;" horiz-adv-x="792" 
d="M-16 -41v-4h667l-30 -180h-707l29 174q239 94 375.5 219.5t136.5 255.5q0 40 -18.5 64t-51.5 24q-44 0 -79 -41.5t-52 -112.5h-229q40 159 145 248.5t254 89.5q137 0 213 -66.5t76 -185.5q0 -205 -194 -332.5t-535 -152.5z" />
    <glyph glyph-name="uni2083" unicode="&#x2083;" horiz-adv-x="786" 
d="M711 524q0 -95 -94.5 -150t-258.5 -55v-4q144 0 222.5 -58t78.5 -161q0 -154 -112 -244t-305 -90q-138 0 -214.5 71.5t-76.5 199.5q0 3 4 39h227v-25q0 -46 24.5 -73t69.5 -27q63 0 98.5 34t35.5 91q0 41 -27.5 63.5t-79.5 22.5h-20l26 159q67 3 105.5 35.5t38.5 87.5
q0 34 -20.5 53t-57.5 19q-43 0 -75.5 -33t-47.5 -92h-223q38 146 142 227.5t253 81.5q136 0 211.5 -47.5t75.5 -124.5z" />
    <glyph glyph-name="uni2084" unicode="&#x2084;" horiz-adv-x="841" 
d="M623 141h120l-32 -180h-119l-33 -186h-237l32 186h-420l35 191l314 532h436zM481 666l-303 -521v-4h215l92 525h-4z" />
    <glyph glyph-name="uni2085" unicode="&#x2085;" horiz-adv-x="794" 
d="M258 -238q-142 0 -221.5 68t-79.5 190v25h231q0 -46 27 -72t74 -26q67 0 108 42t41 111q0 103 -100 103q-40 0 -74.5 -20.5t-54.5 -55.5l-221 29l162 528h571l-33 -180h-362l-117 -361h4q38 109 113.5 168.5t173.5 59.5q92 0 141 -56.5t49 -158.5q0 -181 -117.5 -287.5
t-314.5 -106.5z" />
    <glyph glyph-name="uni2086" unicode="&#x2086;" horiz-adv-x="847" 
d="M764 418h-229v8q0 41 -23.5 63.5t-65.5 22.5q-73 0 -127 -75.5t-79 -209.5l-17 -94h4q20 106 97 165.5t196 59.5q103 0 159 -55t56 -153q0 -175 -121 -281.5t-323 -106.5q-145 0 -223 93t-78 260q0 261 132.5 421t354.5 160q137 0 212 -66.5t75 -185.5v-26zM365 186
q-73 0 -114.5 -35.5t-41.5 -99.5q0 -50 29.5 -77t83.5 -27q72 0 115.5 40t43.5 105q0 45 -30 69.5t-86 24.5z" />
    <glyph glyph-name="uni2087" unicode="&#x2087;" horiz-adv-x="710" 
d="M14 504l31 180h674l-31 -174q-132 -43 -234 -221.5t-149 -452.5l-10 -61h-246l6 28q63 326 216.5 508.5t373.5 188.5v4h-631z" />
    <glyph glyph-name="uni2088" unicode="&#x2088;" horiz-adv-x="821" 
d="M438 338v-4q123 -9 191.5 -71t68.5 -161q0 -155 -113.5 -247.5t-305.5 -92.5q-151 0 -233.5 65t-82.5 181q0 139 95.5 225.5t263.5 100.5v4q-119 0 -184.5 38t-65.5 105q0 98 100 156.5t270 58.5q142 0 221.5 -45t79.5 -125q0 -86 -82.5 -137t-222.5 -51zM303 401
q0 -35 19.5 -55t54.5 -20q49 0 78.5 30t29.5 80q0 35 -20 55.5t-55 20.5q-47 0 -77 -31t-30 -80zM309 -53q64 0 102 36.5t38 96.5q0 41 -26.5 65.5t-72.5 24.5q-63 0 -101 -36.5t-38 -96.5q0 -42 25.5 -66t72.5 -24z" />
    <glyph glyph-name="uni2089" unicode="&#x2089;" horiz-adv-x="845" 
d="M453 696q146 0 223.5 -92t77.5 -258q0 -263 -133 -423.5t-355 -160.5q-134 0 -208 71.5t-74 199.5v33h229q-2 -6 -2 -19q0 -47 22.5 -73.5t63.5 -26.5q72 0 127 75.5t78 208.5l18 107h-4q-17 -101 -93.5 -157t-195.5 -56q-103 0 -159 53t-56 150q0 167 120 267.5
t321 100.5zM383 297q71 0 112.5 31.5t41.5 87.5q0 44 -30.5 70t-84.5 26q-71 0 -114.5 -35.5t-43.5 -93.5q0 -41 31 -63.5t88 -22.5z" />
    <glyph glyph-name="Euro" unicode="&#x20ac;" horiz-adv-x="1452" 
d="M1065 1257q-147 0 -258 -88.5t-166 -244.5h539l-74 -101h-494q-13 -71 -16 -135h416l-74 -100h-342q9 -156 85.5 -243t207.5 -87q76 0 168.5 31t171.5 86l106 -230q-115 -80 -252 -122.5t-245 -42.5q-293 0 -453 160t-162 448h-151l16 98h139q2 54 17 137h-131l16 99h137
q84 287 306 450.5t540 163.5q110 0 223.5 -31.5t190.5 -85.5l-187 -248q-103 86 -274 86z" />
    <glyph glyph-name="trademark" unicode="&#x2122;" horiz-adv-x="1378" 
d="M682 1577l-14 -74h-176l-95 -532h-88l94 532h-180l15 74h444zM985 985l270 592h168l-88 -606h-84l86 592h-4l-274 -592h-160l-57 592h-4l-123 -592h-82l125 606h170l53 -592h4z" />
    <glyph glyph-name="oneeighth" unicode="&#x215b;" horiz-adv-x="1859" 
d="M422 1489h-4q-26 -146 -90.5 -227.5t-153.5 -81.5l35 209q93 0 151 39.5t70 111.5h238l-160 -909h-238zM164 35l1288 1501l66 -55l-1287 -1501zM1501 563v-4q124 -9 192 -70.5t68 -160.5q0 -156 -113.5 -248t-306.5 -92q-150 0 -232.5 64.5t-82.5 180.5q0 139 96 225.5
t262 100.5v4q-117 0 -182 38.5t-65 105.5q0 99 99 157t269 58q144 0 222.5 -45t78.5 -125q0 -86 -83 -137.5t-222 -51.5zM1366 627q0 -35 20.5 -55.5t55.5 -20.5q47 0 76.5 31t29.5 80q0 35 -19 55t-54 20q-48 0 -78.5 -30.5t-30.5 -79.5zM1372 172q64 0 101.5 36.5
t37.5 96.5q0 42 -25.5 66t-72.5 24q-63 0 -101 -36.5t-38 -96.5q0 -42 25.5 -66t72.5 -24z" />
    <glyph glyph-name="threeeighths" unicode="&#x215c;" horiz-adv-x="2088" 
d="M834 952q0 -154 -112.5 -244t-305.5 -90q-138 0 -214.5 71.5t-76.5 199.5q0 21 2 39h229q0 -4 -1 -12.5t-1 -12.5q0 -46 25 -73t72 -27q61 0 97 34t36 91q0 41 -28 63.5t-79 22.5h-20l26 160q67 3 104.5 35t37.5 87q0 34 -20 53t-58 19q-43 0 -75.5 -33.5t-45.5 -91.5
h-223q38 146 142 227.5t253 81.5q135 0 211 -47.5t76 -124.5q0 -95 -95 -149.5t-258 -54.5v-5q142 0 222 -58t80 -161zM393 35l1288 1501l66 -55l-1286 -1501zM1731 563v-4q124 -9 192 -70.5t68 -160.5q0 -156 -113.5 -248t-306.5 -92q-150 0 -233 64.5t-83 180.5
q0 139 96.5 225.5t262.5 100.5v4q-117 0 -182.5 38.5t-65.5 105.5q0 98 99.5 156.5t269.5 58.5q144 0 222.5 -45t78.5 -125q0 -86 -83 -137.5t-222 -51.5zM1595 627q0 -35 20.5 -55.5t55.5 -20.5q47 0 77 31t30 80q0 35 -19.5 55t-54.5 20q-48 0 -78.5 -30.5t-30.5 -79.5z
M1602 172q64 0 101.5 36.5t37.5 96.5q0 42 -26 66t-73 24q-63 0 -101 -36.5t-38 -96.5q0 -42 26 -66t73 -24z" />
    <glyph glyph-name="fiveeighths" unicode="&#x215d;" horiz-adv-x="2093" 
d="M858 1012q0 -181 -117.5 -287.5t-314.5 -106.5q-144 0 -223.5 68.5t-79.5 190.5v24h233q0 -46 26 -72t73 -26q67 0 108 42t41 111q0 50 -25.5 76.5t-72.5 26.5q-84 0 -131 -76l-221 29l161 528h572l-31 -180h-364l-115 -361h4q37 108 112 168t173 60q92 0 142 -56.5
t50 -158.5zM399 35l1289 1501l65 -55l-1286 -1501zM1737 563v-4q124 -9 192 -70.5t68 -160.5q0 -156 -113.5 -248t-306.5 -92q-150 0 -232.5 64.5t-82.5 180.5q0 139 96 225.5t262 100.5v4q-117 0 -182.5 38.5t-65.5 105.5q0 98 99.5 156.5t269.5 58.5q144 0 222.5 -45
t78.5 -125q0 -86 -83 -137.5t-222 -51.5zM1602 627q0 -35 20 -55.5t55 -20.5q47 0 77 31t30 80q0 35 -19.5 55t-54.5 20q-48 0 -78 -30.5t-30 -79.5zM1608 172q64 0 101.5 36.5t37.5 96.5q0 41 -26 65.5t-72 24.5q-63 0 -101.5 -36.5t-38.5 -96.5q0 -42 26 -66t73 -24z" />
    <glyph glyph-name="seveneighths" unicode="&#x215e;" horiz-adv-x="2041" 
d="M231 631l5 28q63 326 216 508.5t373 188.5v4h-630l32 180h672l-31 -174q-133 -43 -234 -221.5t-147 -452.5l-12 -61h-244zM336 35l1288 1501l68 -55l-1289 -1501zM1673 563v-4q124 -9 192 -70.5t68 -160.5q0 -156 -113.5 -248t-306.5 -92q-150 0 -232.5 64.5t-82.5 180.5
q0 139 96 225.5t262 100.5v4q-117 0 -182 38.5t-65 105.5q0 99 99 157t269 58q144 0 222.5 -45t78.5 -125q0 -86 -83 -137.5t-222 -51.5zM1538 627q0 -35 20.5 -55.5t55.5 -20.5q47 0 76.5 31t29.5 80q0 35 -19 55t-54 20q-48 0 -78.5 -30.5t-30.5 -79.5zM1546 172
q63 0 100 36.5t37 96.5q0 42 -25.5 66t-72.5 24q-63 0 -101 -36.5t-38 -96.5q0 -42 26.5 -66t73.5 -24z" />
    <glyph glyph-name="partialdiff" unicode="&#x2202;" horiz-adv-x="1400" 
d="M850 1536q260 0 399.5 -157t139.5 -441q0 -288 -108.5 -505t-309.5 -335t-469 -118q-242 0 -374 84t-132 237q0 144 123.5 247.5t352 157.5t542.5 54q10 78 10 147q0 165 -58 257.5t-167 92.5q-92 0 -160.5 -50.5t-97.5 -141.5h-342q66 223 237.5 347t413.5 124zM553 258
q183 0 306 134t155 364q-292 0 -462.5 -95t-170.5 -258q0 -68 45 -106.5t127 -38.5z" />
    <glyph glyph-name="emptyset" unicode="&#x2205;" horiz-adv-x="1230" 
d="M1135 1018l61 -72l-98 -84q61 -98 61 -244q0 -289 -173 -462.5t-464 -173.5q-209 0 -329 108l-103 -88l-61 74l102 88q-61 98 -61 246q0 289 174 461.5t467 172.5q210 0 327 -108zM182 426q0 -107 41 -184l723 616q-92 86 -254 86q-233 0 -371.5 -141t-138.5 -377z
M1044 600q0 106 -40 182l-723 -618q92 -86 258 -86q231 0 368 142.5t137 379.5z" />
    <glyph glyph-name="product" unicode="&#x220f;" horiz-adv-x="1808" 
d="M236 1577h1712l-58 -311h-264l-307 -1737h-340l307 1737h-502l-307 -1737h-340l307 1737h-266z" />
    <glyph glyph-name="summation" unicode="&#x2211;" horiz-adv-x="1505" 
d="M1597 1577l-47 -272l-1261 10v-4l940 -381l-109 -617v11l-16 -97l-1110 -432l-2 -4l1333 10l-49 -272h-1362l111 608l1112 438v5l-938 395l106 602h1292z" />
    <glyph glyph-name="minus" unicode="&#x2212;" horiz-adv-x="1099" 
d="M981 469h-881l17 94h882z" />
    <glyph glyph-name="radical" unicode="&#x221a;" horiz-adv-x="1515" 
d="M565 -203l768 1780h377l-821 -1802h-647l-9 557h-260l50 272h569l-31 -807h4z" />
    <glyph glyph-name="infinity" unicode="&#x221e;" horiz-adv-x="1615" 
d="M1217 924q157 0 242 -86t85 -240q0 -225 -128 -359.5t-343 -134.5q-119 0 -194.5 58.5t-98.5 165.5q-57 -106 -155 -165t-228 -59q-157 0 -242 86t-85 240q0 225 128 359.5t343 134.5q120 0 194 -58.5t96 -165.5q56 106 156 165t230 59zM414 199q158 0 253 105t95 278
q0 118 -61.5 182.5t-176.5 64.5q-157 0 -252.5 -105t-95.5 -278q0 -117 62 -182t176 -65zM1090 199q158 0 253 105t95 278q0 118 -61.5 182.5t-176.5 64.5q-157 0 -252.5 -105t-95.5 -278q0 -117 62 -182t176 -65z" />
    <glyph glyph-name="integral" unicode="&#x222b;" horiz-adv-x="1042" 
d="M84 -492q-185 0 -283 70l111 238q64 -39 135 -39q83 0 137 47.5t68 130.5l207 1184q38 216 173.5 337t338.5 121q181 0 282 -69l-112 -238q-64 39 -135 39q-83 0 -136 -47t-67 -131l-209 -1184q-38 -216 -173.5 -337.5t-336.5 -121.5z" />
    <glyph glyph-name="approxequal" unicode="&#x2248;" horiz-adv-x="1187" 
d="M219 573h-94q29 131 107.5 204t193.5 73q64 0 115.5 -17.5t86.5 -42t68 -49t75.5 -42t92.5 -17.5q66 0 114.5 47t68.5 129h96q-29 -131 -108.5 -203.5t-194.5 -72.5q-64 0 -115.5 17.5t-86 42.5t-67.5 50t-75.5 42.5t-92.5 17.5q-65 0 -113.5 -47.5t-70.5 -131.5z
M137 166h-94q29 131 107.5 203.5t193.5 72.5q64 0 115.5 -17.5t86.5 -42.5t68 -50t75.5 -42.5t92.5 -17.5q66 0 114.5 47.5t68.5 131.5h96q-29 -131 -108.5 -204t-194.5 -73q-64 0 -115.5 17.5t-86 42t-67 49t-75 42t-92.5 17.5q-66 0 -114.5 -47t-70.5 -129z" />
    <glyph glyph-name="notequal" unicode="&#x2260;" horiz-adv-x="1101" 
d="M1034 760l-16 -96h-344l-137 -295h430l-19 -97h-456l-127 -272h-111l127 272h-313l16 97h342l137 295h-428l19 96h454l129 278h113l-131 -278h315z" />
    <glyph glyph-name="lessequal" unicode="&#x2264;" horiz-adv-x="1091" 
d="M1077 1044l-18 -102l-914 -260l-2 -4l826 -256l-19 -100l-835 270l16 84l19 96zM907 78h-880l16 96h883z" />
    <glyph glyph-name="greaterequal" unicode="&#x2265;" horiz-adv-x="1085" 
d="M201 1044l833 -272l-16 -86l-17 -94l-927 -270l16 100l914 256l2 4l-824 260zM911 78h-880l14 96h883z" />
    <glyph glyph-name="lozenge" unicode="&#x25ca;" horiz-adv-x="950" 
d="M680 1038l221 -393l-18 -102l-25 -150l-360 -393h-226l-221 393l17 107v-2l26 147l361 393h225zM385 8h4l477 510v4l-297 508h-4l-481 -508v-4z" />
    <glyph glyph-name="uniF8FF" unicode="&#xf8ff;" horiz-adv-x="2609" 
d="M156 -20q-15 0 -25 10.5t-10 25.5q0 21 10 31l700 698h-663q-47 0 -47 39q0 16 14 33l696 701h-669q-41 0 -41 38v3q0 38 41 38h758q47 0 47 -41q0 -20 -17 -34l-698 -697h676q17 0 29 -12t12 -29v-669l694 692q13 16 35 16q37 0 37 -45v-663l696 692q13 16 33 16
q15 0 25 -12t10 -27q0 -18 -13 -28l-753 -762q-14 -14 -35 -14q-41 0 -41 47v663l-694 -696q-14 -14 -35 -14q-41 0 -41 47v663l-697 -696q-14 -14 -34 -14z" />
    <glyph glyph-name="uni004A0301" horiz-adv-x="1200" 
d="M1442 1864l-486 -219l-61 172l477 239zM440 -20q-199 0 -306 117.5t-107 332.5q0 58 6 119h329q-4 -50 -4 -68q0 -106 37.5 -164.5t106.5 -58.5q75 0 127 56t69 155l185 1047h354l-182 -1029q-43 -241 -204.5 -374t-410.5 -133z" />
    <glyph glyph-name="i.loclTRK" horiz-adv-x="569" 
d="M580 1214h-340l49 283h340zM365 0h-340l182 1038h340z" />
    <glyph glyph-name="uni006A0301" horiz-adv-x="569" 
d="M760 1386l-486 -219l-61 172l477 240zM281 -471h-340l266 1509h340z" />
    <glyph glyph-name="f_b" horiz-adv-x="2134" 
d="M911 1038l-41 -229h-284l-144 -809h-340l142 809h-148l39 229h463l2 4q-139 7 -215 62t-76 145q0 160 131.5 254t356.5 94q121 0 221 -41l-88 -251q-40 24 -94 24q-85 0 -138 -45t-67 -127l-21 -119h301zM1761 1059q152 0 234 -106.5t82 -297.5q0 -197 -63 -350.5
t-179 -239t-266 -85.5q-144 0 -221.5 74.5t-77.5 211.5q0 54 8 101h-4l-64 -367h-340l279 1577h340l-162 -905h4q32 183 146 285t284 102zM1452 248q123 0 196.5 92.5t73.5 243.5q0 99 -45 154t-129 55q-99 0 -170 -77t-92 -196q-6 -29 -6 -71q0 -91 45 -146t127 -55z" />
    <glyph glyph-name="f_f_j" horiz-adv-x="2156" 
d="M1358 1157l-21 -119h797l-266 -1509h-340l225 1280h-440l-142 -809h-340l142 809h-387l-144 -809h-340l142 809h-148l39 229h463l2 4q-139 7 -215 62t-76 145q0 160 131.5 254t356.5 94q121 0 221 -41l-88 -251q-40 24 -94 24q-85 0 -138 -45t-67 -127l-21 -119h715l2 4
q-139 7 -215 62t-76 145q0 160 131.5 254t356.5 94q124 0 221 -41l-88 -251q-40 24 -92 24q-86 0 -139.5 -45t-67.5 -127zM1827 1214l47 283h340l-47 -283h-340z" />
    <glyph glyph-name="f_f_t" horiz-adv-x="2357" 
d="M2372 809h-299l-78 -430q-2 -12 -2 -29q0 -48 34 -75t95 -27q75 0 139 33l-43 -250q-117 -51 -252 -51q-157 0 -241.5 70.5t-84.5 199.5q0 15 9 80l84 479h-418l-144 -809h-340l142 809h-387l-144 -809h-340l142 809h-148l39 229h463l2 4q-139 7 -215 62t-76 145
q0 160 131.5 254t356.5 94q121 0 221 -41l-88 -251q-40 24 -94 24q-85 0 -138 -45t-67 -127l-21 -119h715l2 4q-139 7 -215 62t-76 145q0 160 132 254t358 94q122 0 219 -41l-86 -251q-40 24 -94 24q-86 0 -139.5 -45t-67.5 -127l-21 -119h453l61 336h338l-14 -86
q-17 -104 -116 -169t-257 -77l-2 -4h613z" />
    <glyph glyph-name="f_h" horiz-adv-x="2088" 
d="M911 1038l-41 -229h-284l-144 -809h-340l142 809h-148l39 229h463l2 4q-139 7 -215 62t-76 145q0 160 131.5 254t356.5 94q121 0 221 -41l-88 -251q-40 24 -94 24q-85 0 -138 -45t-67 -127l-21 -119h301zM1722 1059q142 0 217.5 -80.5t75.5 -230.5q0 -58 -12 -123
l-109 -625h-340l107 608q6 24 6 49q0 65 -34.5 100.5t-100.5 35.5q-86 0 -145 -62.5t-78 -173.5l-99 -557h-340l279 1577h340l-162 -909h4q32 184 135.5 287.5t255.5 103.5z" />
    <glyph glyph-name="f_iacute" horiz-adv-x="1429" 
d="M631 1157l-21 -119h797l-184 -1038h-340l143 809h-440l-144 -809h-340l142 809h-148l39 229h463l2 4q-139 7 -215 62t-76 145q0 160 131.5 254t356.5 94q121 0 221 -41l-88 -251q-40 24 -94 24q-85 0 -138 -45t-67 -127zM1550 1579l68 -193l-485 -219l-60 172z" />
    <glyph glyph-name="f_j" horiz-adv-x="1429" 
d="M631 1157l-21 -119h797l-268 -1509h-340l227 1280h-440l-144 -809h-340l142 809h-148l39 229h463l2 4q-139 7 -215 62t-76 145q0 160 131.5 254t356.5 94q121 0 221 -41l-88 -251q-40 24 -94 24q-85 0 -138 -45t-67 -127zM1098 1214l49 283h340l-49 -283h-340z" />
    <glyph glyph-name="f_k" horiz-adv-x="2058" 
d="M911 1038l-41 -229h-284l-144 -809h-340l142 809h-148l39 229h463l2 4q-139 7 -215 62t-76 145q0 160 131.5 254t356.5 94q121 0 221 -41l-88 -251q-40 24 -94 24q-85 0 -138 -45t-67 -127l-21 -119h301zM1733 1038h389l-447 -493l316 -545h-406l-278 530h-4l-95 -530
h-340l279 1577h340l-182 -1028h6z" />
    <glyph glyph-name="f_t" horiz-adv-x="1630" 
d="M1645 809h-302l-75 -430q-2 -12 -2 -29q0 -48 34 -75t95 -27q71 0 139 33l-45 -250q-117 -51 -252 -51q-157 0 -241.5 70.5t-84.5 199.5q0 15 9 80l84 479h-418l-144 -809h-340l142 809h-148l39 229h463l2 4q-139 7 -215 62t-76 145q0 160 131.5 254t356.5 94
q121 0 221 -41l-88 -251q-40 24 -94 24q-85 0 -138 -45t-67 -127l-21 -119h453l59 336h338l-14 -86q-17 -104 -115.5 -169t-255.5 -77l-2 -4h610z" />
    <glyph glyph-name="t_t" horiz-adv-x="1654" 
d="M1669 809h-301l-76 -430q-2 -12 -2 -29q0 -48 34 -75t95 -27q72 0 140 33l-46 -250q-117 -51 -251 -51q-157 0 -241.5 70.5t-84.5 199.5q0 22 8 80l84 479h-461l-75 -430q-3 -18 -3 -29q0 -48 34 -75t95 -27q72 0 140 33l-45 -250q-117 -51 -252 -51q-157 0 -241.5 70.5
t-84.5 199.5q0 22 8 80l84 479h-135l41 229h154l59 336h340l-14 -86q-19 -104 -117.5 -169t-255.5 -77l-2 -4h790l60 336h340l-14 -86q-19 -104 -117.5 -169t-255.5 -77l-2 -4h610z" />
    <glyph glyph-name="zero.lf" horiz-adv-x="1406" 
d="M608 -20q-237 0 -366 155.5t-129 435.5q0 283 95 502t270.5 341t404.5 122q239 0 367 -155.5t128 -436.5q0 -284 -94.5 -502.5t-270 -340t-405.5 -121.5zM659 258q102 0 184 94t125.5 247.5t43.5 332.5q0 154 -45.5 239.5t-130.5 85.5q-103 0 -185.5 -94t-126 -246.5
t-43.5 -332.5q0 -154 45.5 -240t132.5 -86z" />
    <glyph glyph-name="one.lf" horiz-adv-x="864" 
d="M530 1516h355l-267 -1516h-354l252 1436h-4q-40 -225 -143.5 -350t-251.5 -125l55 311q149 0 243.5 64t114.5 180z" />
    <glyph glyph-name="two.lf" horiz-adv-x="1302" 
d="M98 276v-4h1088l-49 -272h-1155l47 262q407 150 640.5 369.5t233.5 455.5q0 79 -36 124.5t-103 45.5q-87 0 -154.5 -75t-99.5 -207h-342q66 265 238.5 413t416.5 148q224 0 345.5 -110t121.5 -308q0 -231 -144.5 -411t-413 -290.5t-634.5 -140.5z" />
    <glyph glyph-name="three.lf" horiz-adv-x="1286" 
d="M1288 1247q0 -163 -156 -257.5t-425 -94.5v-4h22q225 0 348 -96.5t123 -268.5q0 -250 -183.5 -398t-498.5 -148q-225 0 -347 116t-122 326q0 44 2 67h344q-2 -18 -2 -47q0 -88 46.5 -136t133.5 -48q118 0 187 63t69 168q0 77 -53.5 120.5t-152.5 43.5h-35l43 242
q124 6 195 66t71 159q0 65 -39.5 101t-112.5 36q-83 0 -144 -61.5t-87 -171.5h-336q63 242 232 377t411 135q221 0 344 -79t123 -210z" />
    <glyph glyph-name="four.lf" horiz-adv-x="1368" 
d="M1124 598h199l-49 -272h-197l-57 -326h-356l57 326h-707l52 286l565 904h655zM932 1487l-549 -885v-4h395l158 889h-4z" />
    <glyph glyph-name="five.lf" horiz-adv-x="1310" 
d="M549 -20q-234 0 -363 112.5t-129 315.5v36h349q0 -88 50.5 -137t141.5 -49q126 0 202.5 80t76.5 211q0 90 -49.5 141t-139.5 51q-80 0 -143.5 -41t-102.5 -112l-333 45l270 883h928l-47 -273h-615l-194 -622h4q61 178 185 276t286 98q159 0 244 -95.5t85 -268.5
q0 -298 -190.5 -474.5t-515.5 -176.5z" />
    <glyph glyph-name="six.lf" horiz-adv-x="1390" 
d="M1374 1075h-344v19q0 77 -43.5 120t-124.5 43q-132 0 -230.5 -134t-139.5 -373l-27 -156h4q31 179 161 279t331 100q173 0 266.5 -94t93.5 -261q0 -290 -197 -464t-524 -174q-236 0 -362.5 150t-126.5 423q0 217 57 399.5t160.5 311t253.5 200.5t329 72q221 0 343 -108.5
t122 -303.5q0 -24 -2 -49zM727 713q-132 0 -210.5 -68t-78.5 -188q0 -93 56 -146t155 -53q133 0 213 76t80 201q0 85 -56 131.5t-159 46.5z" />
    <glyph glyph-name="seven.lf" horiz-adv-x="1163" 
d="M154 1243l45 273h1106l-43 -263q-227 -71 -400.5 -371t-255.5 -765l-20 -117h-369l12 66q100 542 351.5 852.5t603.5 320.5v4h-1030z" />
    <glyph glyph-name="eight.lf" horiz-adv-x="1343" 
d="M848 924v-4q199 -19 305.5 -118.5t106.5 -262.5q0 -256 -184.5 -407.5t-500.5 -151.5q-245 0 -378.5 106t-133.5 297q0 228 154 370t422 167v4q-187 0 -289 63.5t-102 177.5q0 171 162 271t440 100q232 0 360.5 -76.5t128.5 -212.5q0 -149 -132.5 -236t-358.5 -87z
M590 1044q0 -65 39.5 -102t109.5 -37q96 0 153.5 57.5t57.5 153.5q0 66 -38.5 103.5t-108.5 37.5q-97 0 -155 -58t-58 -155zM625 258q120 0 191 66.5t71 177.5q0 78 -49.5 122t-139.5 44q-121 0 -192.5 -65.5t-71.5 -176.5q0 -78 50.5 -123t140.5 -45z" />
    <glyph glyph-name="nine.lf" horiz-adv-x="1388" 
d="M874 1536q237 0 363.5 -150.5t126.5 -422.5q0 -290 -98 -513t-280.5 -346.5t-422.5 -123.5q-219 0 -339 115t-120 321q0 3 5 65h344q-2 -8 -2 -22q0 -95 42 -148t119 -53q133 0 230.5 134t140.5 374l31 176h-4q-29 -168 -158.5 -263t-329.5 -95q-176 0 -271 89.5
t-95 250.5q0 280 195.5 446t522.5 166zM754 844q130 0 207 60.5t77 168.5q0 86 -56.5 135t-154.5 49q-134 0 -213 -67.5t-79 -181.5q0 -78 57.5 -121t161.5 -43z" />
    <glyph glyph-name="zero.osf" horiz-adv-x="1355" 
d="M584 -20q-240 0 -371 129t-131 358q0 334 194.5 534.5t522.5 200.5q241 0 371 -128t130 -359q0 -334 -194 -534.5t-522 -200.5zM631 248q145 0 232 120.5t87 311.5q0 121 -51 188.5t-147 67.5q-145 0 -232.5 -121t-87.5 -313q0 -119 52 -186.5t147 -67.5z" />
    <glyph glyph-name="one.osf" horiz-adv-x="841" 
d="M477 1182h340l-209 -1182h-340l193 1102h-4q-37 -207 -139.5 -323.5t-247.5 -116.5l49 276q149 0 243.5 65t114.5 179z" />
    <glyph glyph-name="two.osf" horiz-adv-x="1234" 
d="M88 258v-4h1028l-45 -254h-1091l45 248q382 125 599.5 277t217.5 296q0 57 -39 90t-109 33q-89 0 -152.5 -55.5t-88.5 -153.5h-326q52 221 211 344t391 123q217 0 335 -89.5t118 -250.5q0 -248 -291 -406.5t-803 -197.5z" />
    <glyph glyph-name="three.osf" horiz-adv-x="1230" 
d="M1184 936q0 -148 -155 -231.5t-421 -83.5v-5q235 0 365.5 -94t130.5 -262q0 -231 -176 -368.5t-479 -137.5q-217 0 -336 107t-119 301q0 41 2 59h323q-2 -18 -2 -37q0 -82 47.5 -126t135.5 -44q118 0 187 58t69 155q0 74 -55 115t-156 41h-33l41 238q125 17 195.5 69.5
t70.5 130.5q0 59 -41 91t-116 32q-83 0 -143 -53.5t-85 -149.5h-315q55 217 217.5 339t394.5 122q216 0 334.5 -70t118.5 -196z" />
    <glyph glyph-name="four.osf" horiz-adv-x="1337" 
d="M1044 254h195l-43 -254h-197l-38 -225h-340l38 225h-686l47 270l549 916h639zM866 1157l-530 -899v-4h375l159 903h-4z" />
    <glyph glyph-name="five.osf" horiz-adv-x="1280" 
d="M494 -246q-231 0 -360.5 107.5t-129.5 298.5v33h326q3 -80 59 -125t152 -45q129 0 205.5 76.5t76.5 203.5q0 84 -49.5 132t-142.5 48q-87 0 -157 -38.5t-109 -104.5l-310 43l256 799h922l-43 -254h-621l-202 -568h4q68 172 194.5 269.5t284.5 97.5q157 0 242.5 -95.5
t85.5 -266.5q0 -283 -185 -447t-499 -164z" />
    <glyph glyph-name="six.osf" horiz-adv-x="1335" 
d="M1321 1055h-320v14q-2 74 -47 116t-127 42q-127 0 -221 -131.5t-135 -366.5l-25 -147h5q30 172 160.5 270t316.5 98q163 0 251.5 -92.5t88.5 -257.5q0 -283 -187.5 -451.5t-498.5 -168.5q-234 0 -357 144.5t-123 412.5q0 283 95 500.5t271 337.5t409 120
q213 0 328.5 -104.5t115.5 -292.5v-43zM707 700q-131 0 -210 -71.5t-79 -192.5q0 -88 55.5 -138t153.5 -50q131 0 209.5 72.5t78.5 195.5q0 88 -54 136t-154 48z" />
    <glyph glyph-name="seven.osf" horiz-adv-x="1148" 
d="M113 928l45 254h1065l-43 -244q-233 -62 -413 -370t-265 -793h-352q92 527 342 831.5t604 317.5v4h-983z" />
    <glyph glyph-name="eight.osf" horiz-adv-x="1320" 
d="M834 895v-4q196 -20 301.5 -116.5t105.5 -252.5q0 -248 -183.5 -395t-494.5 -147q-242 0 -376 104.5t-134 292.5q0 217 151.5 352.5t416.5 161.5v4q-185 0 -286.5 61t-101.5 170q0 170 160.5 269.5t437.5 99.5q230 0 357 -76t127 -211q0 -148 -128.5 -230.5t-352.5 -82.5
zM557 1020q0 -67 44 -105t122 -38q102 0 164.5 56t62.5 150q0 66 -44 105t-122 39q-102 0 -164.5 -57t-62.5 -150zM612 248q126 0 201.5 65.5t75.5 175.5q0 77 -54 122.5t-151 45.5q-126 0 -202 -65t-76 -174q0 -79 54.5 -124.5t151.5 -45.5z" />
    <glyph glyph-name="nine.osf" horiz-adv-x="1333" 
d="M778 1200q236 0 361 -139t125 -397q0 -270 -94 -476t-268 -320t-404 -114q-215 0 -333 98.5t-118 278.5v37h320v-8q2 -65 48.5 -101t129.5 -36q127 0 219.5 125t130.5 348l23 122h-5q-27 -163 -156.5 -255.5t-316.5 -92.5q-166 0 -255 88t-89 248q0 273 185.5 433.5
t496.5 160.5zM659 518q130 0 207.5 64.5t77.5 173.5q0 82 -55.5 128t-155.5 46q-129 0 -206.5 -65t-77.5 -175q0 -80 55.5 -126t154.5 -46z" />
    <glyph glyph-name="zero.dnom" horiz-adv-x="858" 
d="M336 -12q-147 0 -226 93.5t-79 262.5q0 258 129 418t340 160q148 0 226.5 -94t78.5 -263q0 -258 -128 -417.5t-341 -159.5zM367 172q57 0 102.5 56t68.5 143t23 186q0 84 -24 132t-68 48q-84 0 -139.5 -114t-55.5 -269q0 -85 24.5 -133.5t68.5 -48.5z" />
    <glyph glyph-name="one.dnom" horiz-adv-x="555" 
d="M289 909h237l-159 -909h-238l152 858h-5q-26 -146 -91 -227.5t-154 -81.5l37 209q93 0 151 39.5t70 111.5z" />
    <glyph glyph-name="two.dnom" horiz-adv-x="792" 
d="M25 184v-4h667l-30 -180h-707l29 174q239 94 375.5 219.5t136.5 255.5q0 40 -18.5 64t-51.5 24q-44 0 -79 -41t-52 -112h-229q40 159 145 248.5t254 89.5q137 0 213 -66.5t76 -185.5q0 -205 -194 -333t-535 -153z" />
    <glyph glyph-name="three.dnom" horiz-adv-x="786" 
d="M752 750q0 -95 -94.5 -150t-258.5 -55v-4q144 0 222.5 -58t78.5 -161q0 -154 -112 -244t-305 -90q-138 0 -214.5 71t-76.5 199q0 21 2 39h229v-25q0 -46 24.5 -73t69.5 -27q63 0 98.5 34t35.5 91q0 41 -27.5 63.5t-79.5 22.5h-20l26 160q67 3 105.5 35.5t38.5 87.5
q0 34 -21 52.5t-59 18.5q-42 0 -74 -33t-47 -92h-223q38 147 142 228.5t253 81.5q135 0 211 -47.5t76 -124.5z" />
    <glyph glyph-name="four.dnom" horiz-adv-x="841" 
d="M662 367h120l-32 -181h-119l-33 -186h-238l33 186h-420l35 191l314 532h436zM520 891l-303 -520v-4h215l92 524h-4z" />
    <glyph glyph-name="five.dnom" horiz-adv-x="794" 
d="M297 -12q-142 0 -221.5 68t-79.5 190v24h231q0 -46 27 -72t74 -26q67 0 108 42.5t41 111.5q0 102 -100 102q-40 0 -74.5 -20.5t-54.5 -55.5l-221 29l161 528h572l-33 -180h-362l-117 -360h4q38 108 113.5 167.5t173.5 59.5q92 0 141 -56.5t49 -158.5q0 -181 -117.5 -287
t-314.5 -106z" />
    <glyph glyph-name="six.dnom" horiz-adv-x="847" 
d="M803 643h-230v8q0 41 -23.5 63.5t-64.5 22.5q-73 0 -127 -75t-79 -209l-15 -95h4q19 106 95.5 166t195.5 60q103 0 159 -55.5t56 -153.5q0 -175 -121 -281t-323 -106q-145 0 -223 92.5t-78 259.5q0 261 133 421.5t354 160.5q137 0 212 -66.5t75 -185.5v-27zM403 412
q-72 0 -113.5 -36t-41.5 -100q0 -50 29 -77t83 -27q73 0 117.5 40t44.5 105q0 45 -31 70t-88 25z" />
    <glyph glyph-name="seven.dnom" horiz-adv-x="710" 
d="M53 729l31 180h674l-31 -174q-132 -43 -234 -221.5t-149 -452.5l-10 -61h-246l6 29q63 326 216.5 508t373.5 188v4h-631z" />
    <glyph glyph-name="eight.dnom" horiz-adv-x="821" 
d="M477 563v-4q124 -9 192 -70.5t68 -160.5q0 -155 -114 -247.5t-306 -92.5q-151 0 -233 64.5t-82 180.5q0 139 95.5 225.5t262.5 100.5v4q-119 0 -184 38.5t-65 105.5q0 98 100 156.5t270 58.5q142 0 221.5 -45t79.5 -125q0 -86 -83 -137.5t-222 -51.5zM342 627
q0 -35 19.5 -55.5t54.5 -20.5q49 0 78.5 30.5t29.5 80.5q0 35 -20 55t-55 20q-47 0 -77 -30.5t-30 -79.5zM348 172q64 0 101.5 36.5t37.5 96.5q0 41 -26 65.5t-72 24.5q-63 0 -101 -36.5t-38 -96.5q0 -42 25.5 -66t72.5 -24z" />
    <glyph glyph-name="nine.dnom" horiz-adv-x="845" 
d="M496 922q146 0 223.5 -92.5t77.5 -258.5q0 -263 -133.5 -423t-354.5 -160q-135 0 -209.5 71t-74.5 199q0 21 2 33h227v-19q0 -47 22.5 -73.5t63.5 -26.5q72 0 127 76t78 209l18 106h-4q-17 -101 -93.5 -157t-195.5 -56q-104 0 -159.5 53t-55.5 150q0 167 120 268t321 101
zM426 522q71 0 111.5 31t40.5 88q0 44 -30.5 70t-82.5 26q-72 0 -115 -35t-43 -94q0 -41 31 -63.5t88 -22.5z" />
    <glyph glyph-name="zero.numr" horiz-adv-x="858" 
d="M446 618q-147 0 -226 94t-79 263q0 258 129 417.5t340 159.5q148 0 226.5 -93.5t78.5 -262.5q0 -258 -128.5 -418t-340.5 -160zM477 803q57 0 102.5 56t69 143t23.5 186q0 84 -24 132t-68 48q-84 0 -139.5 -114t-55.5 -269q0 -85 24 -133.5t68 -48.5z" />
    <glyph glyph-name="one.numr" horiz-adv-x="555" 
d="M401 1540h238l-160 -909h-237l151 858h-4q-26 -146 -91.5 -227.5t-154.5 -81.5l37 209q92 0 149.5 39.5t71.5 111.5z" />
    <glyph glyph-name="two.numr" horiz-adv-x="792" 
d="M135 815v-4h668l-31 -180h-706l28 174q239 94 375.5 219.5t136.5 255.5q0 41 -18 64.5t-51 23.5q-44 0 -79 -41.5t-52 -112.5h-230q40 159 145 248.5t254 89.5q137 0 213 -66.5t76 -185.5q0 -205 -194 -332.5t-535 -152.5z" />
    <glyph glyph-name="three.numr" horiz-adv-x="786" 
d="M862 1380q0 -95 -94 -149.5t-258 -54.5v-5q144 0 222.5 -58t78.5 -161q0 -154 -112.5 -244t-305.5 -90q-138 0 -214.5 71.5t-76.5 199.5q0 21 2 39h230v-25q0 -46 24.5 -73t69.5 -27q62 0 97.5 33.5t35.5 91.5q0 86 -106 86h-21l27 160q67 3 105 35t38 87q0 34 -21 53
t-59 19q-42 0 -74 -33t-47 -92h-223q38 146 142 227.5t253 81.5q135 0 211 -47.5t76 -124.5z" />
    <glyph glyph-name="four.numr" horiz-adv-x="841" 
d="M774 997h121l-33 -180h-119l-32 -186h-238l33 186h-420l35 191l313 532h436zM633 1522l-303 -521v-4h215l92 525h-4z" />
    <glyph glyph-name="five.numr" horiz-adv-x="794" 
d="M408 618q-142 0 -222 68.5t-80 190.5v24h232q0 -46 26.5 -72t73.5 -26q68 0 109 42t41 111q0 50 -26 76.5t-75 26.5q-40 0 -74.5 -20.5t-54.5 -55.5l-221 29l162 528h571l-32 -180h-363l-117 -361h4q38 109 113.5 168.5t173.5 59.5q92 0 141.5 -56.5t49.5 -158.5
q0 -181 -117.5 -287.5t-314.5 -106.5z" />
    <glyph glyph-name="six.numr" horiz-adv-x="847" 
d="M913 1274h-229v8q0 41 -23.5 63.5t-64.5 22.5q-73 0 -127.5 -75.5t-79.5 -209.5l-14 -94h4q19 106 95 165.5t196 59.5q103 0 159 -55t56 -153q0 -175 -121.5 -281.5t-323.5 -106.5q-145 0 -223 93t-78 260q0 261 133 421t355 160q137 0 211.5 -66.5t74.5 -185.5v-26z
M514 1042q-73 0 -114.5 -35.5t-41.5 -99.5q0 -50 29.5 -77t83.5 -27q73 0 117.5 40t44.5 105q0 44 -31 69t-88 25z" />
    <glyph glyph-name="seven.numr" horiz-adv-x="710" 
d="M166 1360l31 180h673l-30 -174q-132 -43 -234 -221.5t-149 -452.5l-11 -61h-245l6 28q63 326 216.5 508.5t373.5 188.5v4h-631z" />
    <glyph glyph-name="eight.numr" horiz-adv-x="821" 
d="M588 1194v-4q123 -9 191.5 -71t68.5 -161q0 -155 -114 -247.5t-306 -92.5q-151 0 -233 65t-82 181q0 139 95.5 225.5t262.5 100.5v4q-119 0 -184.5 38t-65.5 105q0 98 100.5 156.5t270.5 58.5q142 0 221.5 -45t79.5 -125q0 -86 -82.5 -137t-222.5 -51zM453 1257
q0 -35 19 -55t54 -20q49 0 79 30t30 80q0 35 -20.5 55.5t-55.5 20.5q-47 0 -76.5 -31t-29.5 -80zM459 803q64 0 101.5 36.5t37.5 96.5q0 41 -26 65.5t-72 24.5q-63 0 -101.5 -36.5t-38.5 -96.5q0 -42 26 -66t73 -24z" />
    <glyph glyph-name="nine.numr" horiz-adv-x="845" 
d="M606 1552q146 0 223.5 -92t77.5 -258q0 -263 -133 -423.5t-354 -160.5q-135 0 -210 71.5t-75 199.5q0 21 2 33h228v-19q0 -47 22.5 -73.5t63.5 -26.5q72 0 126.5 75.5t77.5 208.5l19 107h-4q-17 -101 -93.5 -157t-195.5 -56q-104 0 -159.5 53t-55.5 150
q0 167 119.5 267.5t320.5 100.5zM537 1153q71 0 111 31t40 88q0 44 -30.5 70t-82.5 26q-72 0 -114.5 -35t-42.5 -94q0 -41 31 -63.5t88 -22.5z" />
    <glyph glyph-name="backslash.case" horiz-adv-x="765" 
d="M627 -25l-109 -36l-295 1601l109 37z" />
    <glyph glyph-name="exclamdown.case" horiz-adv-x="649" 
d="M623 1161h-371l63 355h369zM408 0h-349l187 997h327z" />
    <glyph glyph-name="questiondown.case" horiz-adv-x="1165" 
d="M930 1161h-369l62 355h370zM492 -20q-215 0 -333 92t-118 256q0 157 133.5 328t374.5 341h319l-2 -4q-205 -160 -321.5 -318t-116.5 -280q0 -64 34 -100.5t95 -36.5q76 0 134 59t83 162h336q-60 -235 -222.5 -367t-395.5 -132z" />
    <glyph glyph-name="slash.case" horiz-adv-x="786" 
d="M913 1540l-860 -1601l-96 36l862 1602z" />
    <glyph glyph-name="numbersign.osf" horiz-adv-x="1169" 
d="M1176 846l-27 -94h-209l-92 -316h201l-29 -94h-199l-100 -342h-113l97 342h-369l-98 -342h-113l100 342h-205l29 94h205l92 316h-196l26 94h199l88 301h112l-90 -301h369l90 301h113l-88 -301h207zM362 436h375l92 316h-372z" />
    <glyph glyph-name="braceleft.case" horiz-adv-x="548" 
d="M301 979l70 391q20 113 104.5 180.5t204.5 67.5l-18 -98q-70 0 -121.5 -45t-63.5 -117l-71 -391q-27 -152 -179 -211q109 -45 109 -162q0 -29 -4 -47l-68 -389q-4 -24 -4 -35q0 -59 36 -93t99 -34l-18 -98q-105 0 -166 53.5t-61 144.5q0 22 4 49l69 390q4 24 4 40
q0 63 -39.5 98.5t-111.5 35.5l16 96q84 0 139 46t70 128z" />
    <glyph glyph-name="braceright.case" horiz-adv-x="548" 
d="M408 938q0 -63 39 -98t112 -35l-16 -96q-85 0 -140 -46t-69 -128l-68 -390q-19 -112 -104.5 -179.5t-206.5 -67.5l16 98q72 0 124.5 45t64.5 117l67 389q13 75 60.5 129t120.5 82q-111 45 -111 162q0 22 4 47l72 391q4 28 4 35q0 58 -37 92.5t-100 34.5l18 98
q104 0 166.5 -54t62.5 -143q0 -5 -4 -51l-71 -391q-4 -32 -4 -41z" />
    <glyph glyph-name="bracketleft.case" horiz-adv-x="602" 
d="M770 1618l-18 -98h-316l-270 -1524h317l-16 -98h-424l303 1720h424z" />
    <glyph glyph-name="bracketright.case" horiz-adv-x="604" 
d="M645 1618l-303 -1720h-424l19 98h315l270 1524h-317l16 98h424z" />
    <glyph glyph-name="parenleft.case" horiz-adv-x="514" 
d="M391 -61l-92 -62q-100 140 -150.5 323.5t-50.5 366.5q0 278 127 553t385 518l70 -61q-162 -146 -270.5 -326t-153.5 -347t-45 -331q0 -172 44 -343.5t136 -290.5z" />
    <glyph glyph-name="parenright.case" horiz-adv-x="512" 
d="M-12 -123l-70 62q236 213 353.5 482t117.5 525q0 169 -45 339.5t-137 291.5l92 61q100 -140 150.5 -323.5t50.5 -366.5q0 -278 -127 -553t-385 -518z" />
    <glyph glyph-name="emdash.case" horiz-adv-x="1855" 
d="M1774 705h-1633l19 96h1630z" />
    <glyph glyph-name="endash.case" horiz-adv-x="1271" 
d="M1188 705h-1047l19 96h1046z" />
    <glyph glyph-name="hyphen.case" horiz-adv-x="897" 
d="M813 705h-672l19 96h671z" />
    <glyph glyph-name="uni00AD.case" horiz-adv-x="897" 
d="M813 705h-672l19 96h671z" />
    <glyph glyph-name="guillemotleft.case" horiz-adv-x="927" 
d="M422 342h-115l-192 395l331 396h115l-328 -396zM797 342h-115l-193 395l332 396h115l-328 -396z" />
    <glyph glyph-name="guillemotright.case" horiz-adv-x="927" 
d="M184 342h-114l327 395l-188 396h115l192 -396zM559 342h-115l328 395l-188 396h114l193 -396z" />
    <glyph glyph-name="guilsinglleft.case" horiz-adv-x="555" 
d="M422 342h-115l-192 395l331 396h115l-328 -396z" />
    <glyph glyph-name="guilsinglright.case" horiz-adv-x="552" 
d="M184 342h-114l327 395l-188 396h115l192 -396z" />
    <glyph glyph-name="cent.osf" horiz-adv-x="1220" 
d="M739 786l-94 -532q114 27 172 164h334q-59 -194 -203.5 -308.5t-349.5 -127.5l-37 -207h-108l36 207q-202 12 -311.5 126t-109.5 308q0 279 164.5 452.5t445.5 188.5l33 190h108l-33 -190q188 -15 291.5 -127.5t106.5 -304.5h-332q-9 134 -113 161zM418 453
q0 -80 30.5 -132t88.5 -67l94 532q-98 -20 -155.5 -110t-57.5 -223z" />
    <glyph glyph-name="dollar.osf" horiz-adv-x="1202" 
d="M1147 793h-316v16q0 109 -104 133l-37 -205q3 0 8.5 -1t8.5 -1q167 -27 237 -55q173 -69 174 -236q0 -200 -150 -324t-409 -134l-31 -170h-106l31 170q-198 12 -306 115t-108 278q0 21 2 33h315v-15q0 -63 37 -104t103 -53l43 241q-40 6 -61.5 9t-61 10.5t-62 14.5
t-55.5 19.5t-53 26t-43 34t-35 44t-20.5 55t-8.5 68.5q0 198 140 311.5t387 124.5l28 168h107l-29 -168q180 -12 278.5 -110t98.5 -265q0 -5 -1 -15t-1 -15zM475 836q0 -32 29 -50.5t84 -29.5l33 192q-69 -6 -107.5 -35.5t-38.5 -76.5zM780 367q0 43 -35.5 65.5t-101.5 34.5
l-41 -231q83 8 130.5 42.5t47.5 88.5z" />
    <glyph glyph-name="Euro.osf" horiz-adv-x="1222" 
d="M737 233q58 0 130 23.5t137 65.5l96 -205q-95 -65 -207.5 -99t-198.5 -34q-244 0 -379 123t-141 344h-129l14 84h117q3 53 12 106h-110l16 82h115q67 223 250 350t448 127q88 0 180.5 -25t159.5 -67l-164 -219q-81 61 -219 61q-109 0 -191.5 -59.5t-125.5 -165.5h426
l-64 -84h-387q-11 -44 -14 -104h330l-64 -86h-262q12 -102 70.5 -160t154.5 -58z" />
    <glyph glyph-name="sterling.osf" horiz-adv-x="1128" 
d="M1106 797h-311q0 4 1 10.5t1 9.5q0 63 -32 98t-89 35q-58 0 -93.5 -31.5t-35.5 -84.5q0 -40 38.5 -121.5t45.5 -106.5h270l-18 -96h-250q-28 -96 -171 -165t-388 -99v-2h944l-43 -244h-989l43 238q243 127 258 272h-183l19 96h149q-5 15 -27.5 67.5t-33 90.5t-10.5 74
q0 163 138.5 262.5t375.5 99.5q187 0 289 -92.5t102 -261.5v-49z" />
    <glyph glyph-name="yen.osf" horiz-adv-x="1345" 
d="M1047 1182h362l-399 -662h145l-14 -82h-183l-61 -102h225l-14 -80h-258l-156 -256h-360l153 256h-342l17 80h373l61 102h-416l13 82h133l-160 662h385l133 -645h4z" />
    <glyph glyph-name="plus.case" horiz-adv-x="997" 
d="M594 768h389l-16 -94h-389l-70 -393h-107l68 393h-385l18 94h385l68 393h109z" />
    <glyph glyph-name="minus.case" horiz-adv-x="1107" 
d="M1018 674h-881l17 94h882z" />
    <glyph glyph-name="multiply.case" horiz-adv-x="911" 
d="M862 1090l62 -74l-363 -307l252 -308l-86 -73l-252 307l-362 -307l-62 73l363 308l-254 307l88 74l252 -308z" />
    <glyph glyph-name="divide.case" horiz-adv-x="1064" 
d="M608 958q-63 0 -63 58q0 40 24.5 64t65.5 24q65 0 65 -60q0 -41 -24.5 -63.5t-67.5 -22.5zM999 674h-880l16 94h883zM500 338q-64 0 -64 57q0 40 24.5 64t65.5 24q31 0 48.5 -15.5t17.5 -43.5q0 -41 -24.5 -63.5t-67.5 -22.5z" />
    <glyph glyph-name="equal.case" horiz-adv-x="1105" 
d="M1053 868h-881l16 97h883zM985 477h-883l19 96h880z" />
    <glyph glyph-name="notequal.case" horiz-adv-x="1105" 
d="M1071 965l-18 -97h-344l-138 -295h430l-16 -96h-459l-127 -272h-110l127 272h-314l19 96h340l137 295h-426l16 97h455l131 278h111l-131 -278h317z" />
    <glyph glyph-name="greater.case" horiz-adv-x="972" 
d="M225 1171l742 -354l-17 -90l-18 -100l-862 -353l18 107l848 338l2 4l-729 342z" />
    <glyph glyph-name="less.case" horiz-adv-x="976" 
d="M977 1171l-19 -106l-847 -342l-2 -4l729 -338l-17 -107l-741 353l16 90l17 100z" />
    <glyph glyph-name="greaterequal.case" horiz-adv-x="1126" 
d="M264 1249l834 -272l-17 -86l-16 -94l-930 -271l19 101l913 256l2 4l-825 260zM975 283h-881l15 96h882z" />
    <glyph glyph-name="lessequal.case" horiz-adv-x="1130" 
d="M1126 1249l-20 -102l-913 -260l-3 -4l826 -256l-17 -101l-835 271l14 84l19 96zM956 283h-882l18 96h881z" />
    <glyph glyph-name="plusminus.case" horiz-adv-x="1105" 
d="M733 1251l-55 -317h389l-18 -96h-387l-56 -316h-106l55 316h-387l16 96h387l56 317h106zM952 283h-880l16 96h883z" />
    <glyph glyph-name="logicalnot.case" horiz-adv-x="1071" 
d="M125 831l16 97h883l-78 -441h-106l59 344h-774z" />
    <glyph glyph-name="percent.osf" horiz-adv-x="1492" 
d="M375 551q-124 0 -190 67t-66 189q0 179 100.5 287t267.5 108q124 0 191 -68t67 -190q0 -178 -101.5 -285.5t-268.5 -107.5zM1327 1149l-1073 -1169l-66 53l1074 1169zM408 727q49 0 78.5 57t29.5 140q0 100 -57 100q-50 0 -81.5 -56t-31.5 -139q0 -102 62 -102zM1030 -20
q-122 0 -188 67.5t-66 188.5q0 179 100.5 288t268.5 109q122 0 189 -69t67 -191q0 -179 -101 -286t-270 -107zM1063 158q50 0 81.5 56t31.5 136q0 46 -16.5 73.5t-45.5 27.5q-49 0 -79.5 -56t-30.5 -137q0 -100 59 -100z" />
    <glyph glyph-name="perthousand.osf" horiz-adv-x="2172" 
d="M375 551q-124 0 -190 67t-66 189q0 179 100.5 287t267.5 108q124 0 191 -68t67 -190q0 -178 -101.5 -285.5t-268.5 -107.5zM1327 1149l-1073 -1169l-66 53l1074 1169zM408 727q49 0 78.5 57t29.5 140q0 100 -57 100q-50 0 -81.5 -56t-31.5 -139q0 -102 62 -102zM1030 -20
q-122 0 -188 67.5t-66 188.5q0 179 100.5 288t268.5 109q122 0 189 -69t67 -191q0 -179 -101 -286t-270 -107zM1718 -20q-121 0 -186.5 67.5t-65.5 188.5q0 180 100 288.5t269 108.5q122 0 189 -69t67 -191q0 -179 -101.5 -286t-271.5 -107zM1063 158q50 0 81.5 56t31.5 136
q0 46 -16.5 73.5t-45.5 27.5q-49 0 -79.5 -56t-30.5 -137q0 -100 59 -100zM1753 158q50 0 80.5 56t30.5 136q0 47 -15.5 74t-44.5 27q-50 0 -81 -55.5t-31 -137.5q0 -47 16 -73.5t45 -26.5z" />
    </font>
</defs>
</svg>
