<svg xmlns="http://www.w3.org/2000/svg" viewBox="0 0 150 30"><defs><style>.cls-1{fill:#0055a5}.cls-2{fill:#fff}.cls-3{fill:#0093d0}.cls-4{fill:#fcb034}</style></defs><title>Secure_Parking_Logo</title><g id="Layer_2" data-name="Layer 2"><g id="Layer_1-2" data-name="Layer 1"><path class="cls-1" d="M120 0v30h30V0h-30z"/><path class="cls-2" d="M135.82 5.47h-8.08v19h3.67v-6.21h4.24a6.44 6.44 0 0 0 6.3-6.39 6.37 6.37 0 0 0-6.13-6.4zm-.23 9.29h-4.13V9h4.17a2.89 2.89 0 0 1 2.71 2.93 2.75 2.75 0 0 1-2.76 2.82z"/><path class="cls-3" d="M0 0v30h118V0H0z"/><path class="cls-2" d="M30.34 11.28c-.59-1.75-1.72-2.59-3-2.59a1.72 1.72 0 0 0-1.84 1.71c0 2.94 8.62 3 8.62 8.69 0 3.78-2.66 5.78-6.34 5.78-2.66 0-5-.67-7.18-5.43l4-1.08c.4 1.78 1.4 2.94 3.19 2.94 1.33 0 2.13-.63 2.13-1.68 0-3.65-8.62-2.77-8.62-9.18 0-3.61 2.91-5.32 6-5.32A6.84 6.84 0 0 1 34 9.88l-3.65 1.4zM46 12.47v-1c0-1.69-.81-2.73-2.59-2.73s-2.59 1-2.59 2.73v1zM40.85 16v2.53a2.44 2.44 0 0 0 2.59 2.73A2.39 2.39 0 0 0 46 18.64h4.41c-.22 3.92-2.56 6.23-7 6.23-4.21 0-7-2.59-7-6.77v-6.22c0-4.17 2.8-6.76 7-6.76s7 2.59 7 6.48V16zm22-3.95v-.84c0-1.48-1.06-2.21-2.6-2.21s-2.59.77-2.59 2.25v7.56c0 1.47 1 2.24 2.59 2.24s2.59-.77 2.59-2.24v-1.23h4.42v.07c0 5-2.6 7.22-7 7.22s-7-2.18-7-7.22v-5.32c0-5 2.59-7.21 7-7.21s6.91 2.1 7 6.93zm20.87-6.59v19.06h-4.28v-2.18c-1.6 1.4-3.11 2.53-4.93 2.53-2.7 0-4.1-1.37-4.1-4.9V5.46h4.42v14c0 1.26.42 2.1 1.61 2.1.91 0 1.93-.87 2.88-1.72V5.46zm3.5 19.06V5.46h4.31V8h.07a4.73 4.73 0 0 1 4.55-2.88v4.76a8.91 8.91 0 0 0-2.34-.49 2.08 2.08 0 0 0-2.17 2.1v13zm20.21-12.05v-1c0-1.69-.8-2.73-2.59-2.73s-2.59 1-2.59 2.73v1zM102.25 16v2.53a2.43 2.43 0 0 0 2.59 2.73 2.39 2.39 0 0 0 2.59-2.66h4.41c-.21 3.92-2.56 6.23-7 6.23-4.2 0-7-2.59-7-6.77v-6.18c0-4.17 2.8-6.76 7-6.76s7 2.59 7 6.48V16z"/><rect class="cls-4" x="5" y="5" width="12" height="5.67" rx="1.5" ry="1.5"/><rect class="cls-4" x="5" y="12.17" width="12" height="5.67" rx="1.5" ry="1.5"/><rect class="cls-4" x="5" y="19.33" width="12" height="5.67" rx="1.5" ry="1.5"/></g></g></svg>