<?xml version="1.0" encoding="UTF-8"?>
<svg width="44px" height="44px" viewBox="0 0 44 44" version="1.1" xmlns="http://www.w3.org/2000/svg" xmlns:xlink="http://www.w3.org/1999/xlink">
    <!-- Generator: Sketch 61 (89581) - https://sketch.com -->
    <title>Awards</title>
    <desc>Created with Sketch.</desc>
    <g id="Awards" stroke="none" stroke-width="1" fill="none" fill-rule="evenodd">
        <g>
            <rect id="Rectangle-17" x="0" y="0" width="44" height="44"></rect>
            <g id="Group" transform="translate(4.400000, 3.666667)">
                <rect id="Rectangle" fill="#FFFFFF" fill-rule="nonzero" x="15.1340912" y="27.217075" width="3.86224181" height="6"></rect>
                <path d="M27.1729242,3.72142241 L28.8181351,3.72142241 L30.4094188,1.30452676 L34.8675308,1.30452676 C35.4500946,8.78458929 35.1313169,15.5903263 26.0975794,17.0271788 L27.1729242,3.72142241 Z" id="Path-13" stroke="#FFFFFF" stroke-width="0.834167501"></path>
                <path d="M1.06783953,3.72142241 L2.7015678,3.72142241 L4.28174523,1.30452676 L8.70874214,1.30452676 C9.28724002,8.78458929 8.97068714,15.5903263 0,17.0271788 L1.06783953,3.72142241 Z" id="Path-13-Copy" stroke="#FFFFFF" stroke-width="0.834167501" transform="translate(4.444444, 9.165853) scale(-1, 1) translate(-4.444444, -9.165853) "></path>
                <path d="M17.494133,23.9895089 L17.494133,23.9895089 C12.9378031,23.9895089 9.14789239,20.4929205 8.79167247,15.9607337 L7.62721032,1.14331676 C7.57873026,0.526823844 8.06707644,2.63163976e-15 8.68675293,2.63163976e-15 L26.3013684,2.63163976e-15 C26.9211173,2.63163976e-15 27.4093911,0.526968239 27.360911,1.14331676 L26.1964489,15.9605893 C25.8403737,20.4929205 22.0504629,23.9895089 17.494133,23.9895089 Z" id="Path" stroke="#FFFFFF" stroke-width="0.834167501"></path>
                <ellipse id="Oval" stroke="#FFFFFF" stroke-width="0.834167501" fill="#2C3846" cx="17.116278" cy="25.9508935" rx="3.43998601" ry="3.43233279"></ellipse>
                <path d="M24.2484403,33.2066768 C25.0255122,33.2066768 25.8897289,34.3513295 26.8410901,36.6406349 L26.8345333,36.6406349 L8.02131527,36.6406349 C8.97267654,34.3513295 9.83691726,33.2066768 10.6140374,33.2066768 L24.2484403,33.2066768 Z" id="Path" stroke="#FFFFFF" stroke-width="0.834167501"></path>
                <polygon id="Path" fill="#47EBC6" fill-rule="nonzero" points="17.4814815 6.28322858 18.854903 9.08738155 21.9259259 9.53699996 19.7036766 11.7196731 20.2282703 14.8017471 17.4814815 13.3465588 14.7346384 14.8017471 15.2592321 11.7196731 13.037037 9.53699996 16.1080599 9.08738155"></polygon>
            </g>
        </g>
    </g>
</svg>