<?xml version="1.0" encoding="UTF-8"?>
<svg width="44px" height="44px" viewBox="0 0 44 44" version="1.1" xmlns="http://www.w3.org/2000/svg" xmlns:xlink="http://www.w3.org/1999/xlink">
    <!-- Generator: Sketch 61 (89581) - https://sketch.com -->
    <title>About-us</title>
    <desc>Created with Sketch.</desc>
    <g id="About-us" stroke="none" stroke-width="1" fill="none" fill-rule="evenodd">
        <g>
            <rect id="Rectangle-17" x="0" y="0" width="44" height="44"></rect>
            <g id="Group-6" transform="translate(3.666667, 12.100000)">
                <path d="M9.44822373,15.8170264 L9.44822373,19.7362896 L26.8749475,19.7362896 L26.8749475,15.8170264 C26.8749475,13.4374738 25.0552896,11.6178159 22.675737,11.6178159 L13.7174211,11.6178159 C11.4078553,11.547829 9.44822373,13.4374738 9.44822373,15.8170264 Z" id="Path" stroke="#47EBC6" stroke-width="0.825825826"></path>
                <path d="M18.196579,9.79815795 C20.8560791,9.79815795 23.095658,7.62856583 23.095658,4.89907897 C23.095658,2.16959212 20.9260659,-4.2642311e-15 18.196579,-4.2642311e-15 C15.4670922,-4.2642311e-15 13.2975001,2.16959212 13.2975001,4.89907897 C13.3674869,7.62856583 15.4670922,9.79815795 18.196579,9.79815795 Z" id="Path" fill="#47EBC6" fill-rule="nonzero"></path>
                <path d="M6.78872372,10.5680132 C8.88832899,10.5680132 10.6380001,8.81834215 10.6380001,6.71873688 C10.6380001,4.6191316 8.95831584,2.86946054 6.78872372,2.86946054 C4.68911845,2.86946054 2.93944738,4.6191316 2.93944738,6.71873688 C2.93944738,8.81834215 4.68911845,10.5680132 6.78872372,10.5680132 Z" id="Path" fill="#FFFFFF"></path>
                <path d="M29.6044344,10.5680132 C31.7040396,10.5680132 33.4537107,8.81834215 33.4537107,6.71873688 C33.4537107,4.6191316 31.7040396,2.86946054 29.6044344,2.86946054 C27.5048291,2.86946054 25.755158,4.6191316 25.755158,6.71873688 C25.755158,8.81834215 27.5048291,10.5680132 29.6044344,10.5680132 Z" id="Path" fill="#FFFFFF"></path>
                <path d="M3.2893816,11.9677501 C1.46972369,11.9677501 3.41138488e-14,13.4374738 3.41138488e-14,15.2571317 L3.41138488e-14,18.3365527 L8.18846057,18.3365527 L8.18846057,15.8170264 C8.18846057,14.207329 8.88832899,12.8075922 10.0081185,11.8977632 L3.2893816,11.8977632 L3.2893816,11.9677501 Z" id="Path" fill="#FFFFFF"></path>
                <path d="M33.1037765,11.9677501 L26.5250133,11.9677501 C27.6448028,12.877579 28.2746844,14.2773159 28.2746844,15.8870132 L28.2746844,18.4065396 L36.4631449,18.4065396 L36.4631449,15.2571317 C36.4631449,13.4374738 34.9934212,11.9677501 33.1037765,11.9677501 Z" id="Path" fill="#FFFFFF"></path>
            </g>
        </g>
    </g>
</svg>