<?xml version="1.0" encoding="UTF-8"?>
<svg width="40px" height="40px" viewBox="0 0 40 40" version="1.1" xmlns="http://www.w3.org/2000/svg" xmlns:xlink="http://www.w3.org/1999/xlink">
    <!-- Generator: Sketch 58 (84663) - https://sketch.com -->
    <title>Artboard</title>
    <desc>Created with Sketch.</desc>
    <g id="Artboard" stroke="none" stroke-width="1" fill="none" fill-rule="evenodd">
        <g id="Group-5">
            <rect id="Rectangle" x="0" y="0" width="40" height="40"></rect>
            <g id="Group-3" transform="translate(3.333333, 7.000000)">
                <g id="Group" transform="translate(17.333333, 9.000000)" stroke="#FFFFFF">
                    <circle id="Oval" stroke-width="0.750750751" cx="6.33333333" cy="6.33333333" r="6.33333333"></circle>
                    <path d="M10.5607644,11.4262926 L15.9915438,16.857072" id="Path-7" stroke-width="1.33333333"></path>
                </g>
                <g id="Group-2" stroke="#FFFFFF" stroke-width="0.750750751">
                    <polyline id="Path" points="17.906353 20.6666667 0 20.6666667 0 0 28.6666667 0 28.6666667 9.48194242"></polyline>
                </g>
                <g id="Group-4" transform="translate(18.666667, 13.000000)">
                    <circle id="Oval" fill="#47EBC6" cx="0.666666667" cy="3" r="1"></circle>
                    <circle id="Oval" fill="#47EBC6" cx="3.33333333" cy="0.666666667" r="1"></circle>
                    <circle id="Oval" fill="#47EBC6" cx="8.66666667" cy="0.666666667" r="1"></circle>
                    <circle id="Oval-Copy" fill="#47EBC6" cx="6" cy="3" r="1"></circle>
                    <polyline id="Path-12" stroke="#47EBC6" stroke-width="0.5" points="0.666666667 3 3.33333333 0.666666667 6 3 8.66666667 0.666666667"></polyline>
                </g>
                <rect id="Rectangle" stroke="#FFFFFF" stroke-width="0.750750751" x="0" y="0" width="28.6666667" height="4"></rect>
                <rect id="Rectangle" fill="#FFFFFF" x="2" y="5.66666667" width="24.6666667" height="1.33333333"></rect>
                <rect id="Rectangle-Copy-2" fill="#FFFFFF" x="2" y="9.33333333" width="15.6666667" height="1"></rect>
                <rect id="Rectangle-Copy-4" fill="#FFFFFF" x="2" y="14.6666667" width="13.3333333" height="1"></rect>
                <rect id="Rectangle-Copy-3" fill="#FFFFFF" x="2" y="12" width="14" height="1"></rect>
                <rect id="Rectangle-Copy-5" fill="#FFFFFF" x="2" y="17.3333333" width="14" height="1"></rect>
                <circle id="Oval" fill="#47EBC6" cx="2" cy="2" r="1"></circle>
                <circle id="Oval" fill="#47EBC6" cx="4" cy="2" r="1"></circle>
                <circle id="Oval-Copy" fill="#47EBC6" cx="6" cy="2" r="1"></circle>
            </g>
        </g>
    </g>
</svg>