<?xml version="1.0" encoding="UTF-8"?>
<svg width="44px" height="44px" viewBox="0 0 44 44" version="1.1" xmlns="http://www.w3.org/2000/svg" xmlns:xlink="http://www.w3.org/1999/xlink">
    <!-- Generator: Sketch 61 (89581) - https://sketch.com -->
    <title>Team</title>
    <desc>Created with Sketch.</desc>
    <g id="Team" stroke="none" stroke-width="1" fill="none" fill-rule="evenodd">
        <g>
            <rect id="Rectangle-17" x="0" y="0" width="44" height="44"></rect>
            <g id="Group" transform="translate(3.666667, 10.266667)">
                <path d="M24.6590081,0.594382873 C24.2320184,0.594382873 23.8792752,0.913535849 23.8365111,1.33852016 C23.7211571,2.48481528 23.490907,3.7629581 23.2634118,4.24804991 C23.0376171,4.57281149 22.1311344,5.45050298 20.9028449,6.55647566 L20.5214235,6.89838274 L16.1028117,6.89838274 L15.9976847,6.80385654 L15.5383652,6.39085009 C14.3956107,5.35552462 13.5755371,4.5564642 13.3282808,4.19043577 C13.1460722,3.79087396 12.9355577,2.66430225 12.8108426,1.55289383 L12.7880337,1.3387015 C12.7453984,0.913481239 12.3930742,0.594382873 11.9665554,0.594382873 C11.938852,0.594382873 11.9107882,0.595788257 11.8831438,0.598574427 C11.4298621,0.644041562 11.0975817,1.05034758 11.143008,1.50352458 C11.1882125,1.9549168 11.2598236,2.51486835 11.3582577,3.08325288 C11.5039473,3.92450272 11.6785564,4.59334114 11.870689,4.97371191 C12.0412896,5.31158919 12.4355769,5.76992503 13.7440798,6.98730297 L14.2202088,7.42555703 C14.4155413,7.6036449 14.615736,7.78429854 14.817443,7.96473244 L15.6765242,8.72553774 L15.6765242,8.89150329 L15.6764056,22.0160986 L15.6776693,22.0706131 C15.7011947,22.5332139 16.085989,22.9001332 16.5511455,22.9001332 C17.0331483,22.9001332 17.4258297,22.5074518 17.4258297,22.025449 L17.4258297,14.7688952 L18.9488885,14.7688952 L18.9488885,15.1375674 L18.9487699,22.0160986 L18.9500335,22.0706131 C18.9735593,22.5332199 19.3583613,22.9001332 19.8235726,22.9001332 C20.3055754,22.9001332 20.6982568,22.5074518 20.6982568,22.0255674 L20.6940561,8.94720858 L20.8187507,8.83709602 L21.8401943,7.93511338 C22.0081339,7.78474076 22.1739415,7.6351895 22.3352387,7.48849232 L22.7905327,7.07079217 C24.0572865,5.89733102 24.5529016,5.34547805 24.7163225,5.04571351 L24.7845525,4.90977328 C25.0808203,4.26806761 25.3087237,3.04485676 25.455093,1.74939686 L25.4814322,1.50351118 C25.5268923,1.0505166 25.1946761,0.644250135 24.7415886,0.598711253 C24.712877,0.595840096 24.6850912,0.594382873 24.6590081,0.594382873 Z M18.1849084,0.368672244 C16.8402607,0.368672244 15.7457078,1.46351267 15.7457078,2.80857908 C15.7456532,4.15358386 16.8402257,5.24839315 18.1849084,5.24839315 C19.5299695,5.24839315 20.6248003,4.15357924 20.6248003,2.80856412 C20.6248003,1.46351757 19.5299381,0.368672244 18.1849084,0.368672244 Z" id="Shape" stroke="#47EBC6" stroke-width="0.737344487"></path>
                <path d="M28.301192,10.0471392 C28.6749388,10.0471392 28.9418825,10.257805 29.0761838,10.5724147 L30.7353312,14.4573602 C30.8266306,14.6710622 30.8302673,14.9079562 30.7455394,15.1243715 C30.6608754,15.3408514 30.4979912,15.5108828 30.287001,15.6031985 C30.1780925,15.6508744 30.0632505,15.6750354 29.9456013,15.6750354 C29.6019048,15.6750354 29.2916401,15.468698 29.1551696,15.1492431 L28.9170001,14.5914731 L28.9147671,21.8546292 C28.9147671,22.3838454 28.4895328,22.8144149 27.9668104,22.8144149 C27.9258305,22.8144149 27.8854496,22.8117686 27.8458259,22.8066359 C27.8062355,22.8117539 27.7657438,22.8144149 27.72465,22.8144149 C27.2206579,22.8144149 27.1346363,22.4140511 27.1057504,21.9109383 L27.1041381,21.8546292 L27.1041381,16.8737824 L26.2916952,16.8737824 L26.2916952,21.8546292 L26.2900783,21.9664018 C26.2755488,22.4431585 26.1565091,22.8144149 25.6711833,22.8144149 C25.6302033,22.8144149 25.5898221,22.8117686 25.5501977,22.8066359 C25.510608,22.8117539 25.4701167,22.8144149 25.4290229,22.8144149 C24.9249692,22.8144149 24.5115645,22.4140511 24.4826785,21.9109383 L24.4810663,21.8546292 L24.4788332,14.5914731 L24.2406638,15.1492431 C24.1041932,15.468698 23.7939285,15.6750354 23.450232,15.6750354 C23.3325828,15.6750354 23.2177408,15.6508744 23.1088324,15.6031985 C22.8978422,15.5108828 22.734958,15.3408514 22.6502939,15.1243715 C22.5740388,14.9295977 22.569359,14.7182362 22.6357429,14.5221229 L22.6605021,14.4573602 L24.3196495,10.5724147 C24.4539508,10.257805 24.7208946,10.0471392 25.0946414,10.0471392 L28.301192,10.0471392 Z M26.6903448,5.46380587 C27.8682879,5.46380587 28.8266155,6.422322 28.8266155,7.60051641 C28.8266155,8.77877365 27.8682879,9.73735262 26.6903448,9.73735262 C25.5120876,9.73735262 24.5535714,8.77877365 24.5535714,7.60051641 C24.5535714,6.422322 25.5120876,5.46380587 26.6903448,5.46380587 Z" id="Shape" fill="#FFFFFF"></path>
                <path d="M11.5720253,10.0471392 C11.9457721,10.0471392 12.2127159,10.257805 12.3470172,10.5724147 L14.0061646,14.4573602 C14.0974639,14.6710622 14.1011006,14.9079562 14.0163728,15.1243715 C13.9317087,15.3408514 13.7688245,15.5108828 13.5578343,15.6031985 C13.4489258,15.6508744 13.3340839,15.6750354 13.2164347,15.6750354 C12.8727382,15.6750354 12.5624735,15.468698 12.4260029,15.1492431 L12.1878334,14.5914731 L12.1856004,21.8546292 C12.1856004,22.3838454 11.7603661,22.8144149 11.2376438,22.8144149 C11.1966638,22.8144149 11.156283,22.8117686 11.1166593,22.8066359 C11.0770689,22.8117539 11.0365772,22.8144149 10.9954834,22.8144149 C10.4914912,22.8144149 10.4054696,22.4140511 10.3765837,21.9109383 L10.3749715,21.8546292 L10.3749715,16.8737824 L9.56252852,16.8737824 L9.56252852,21.8546292 L9.56091162,21.9664018 C9.5463821,22.4431585 9.42734244,22.8144149 8.94201664,22.8144149 C8.90103666,22.8144149 8.86065547,22.8117686 8.82103104,22.8066359 C8.78144135,22.8117539 8.74095005,22.8144149 8.69985624,22.8144149 C8.19580254,22.8144149 7.78239783,22.4140511 7.75351185,21.9109383 L7.7518996,21.8546292 L7.74966657,14.5914731 L7.51149709,15.1492431 C7.37502655,15.468698 7.06476184,15.6750354 6.72106535,15.6750354 C6.60341613,15.6750354 6.48857417,15.6508744 6.3796657,15.6031985 C6.16867549,15.5108828 6.0057913,15.3408514 5.92112725,15.1243715 C5.84487218,14.9295977 5.84019237,14.7182362 5.9065762,14.5221229 L5.93133542,14.4573602 L7.59048284,10.5724147 C7.72478414,10.257805 7.99172791,10.0471392 8.36547471,10.0471392 L11.5720253,10.0471392 Z M9.96117814,5.46380587 C11.1391212,5.46380587 12.0974488,6.422322 12.0974488,7.60051641 C12.0974488,8.77877365 11.1391212,9.73735262 9.96117814,9.73735262 C8.78292089,9.73735262 7.82440476,8.77877365 7.82440476,7.60051641 C7.82440476,6.422322 8.78292089,5.46380587 9.96117814,5.46380587 Z" id="Shape-Copy-2" fill="#FFFFFF" transform="translate(9.968750, 14.139110) scale(-1, 1) translate(-9.968750, -14.139110) "></path>
                <path d="M5.00645168,10.4240694 C5.33403852,10.4240694 5.56801314,10.6069176 5.68572743,10.8799842 L7.13996023,14.2519367 C7.21998357,14.4374201 7.22317109,14.6430331 7.14890763,14.8308716 C7.0747001,15.0187661 6.93193308,15.1663454 6.74700142,15.2464712 C6.6515438,15.2878517 6.5508855,15.3088223 6.44776667,15.3088223 C6.14651875,15.3088223 5.87457358,15.129731 5.75495797,14.852459 L5.54620384,14.3683404 L5.5442466,20.672423 C5.5442466,21.1317581 5.17153129,21.5054725 4.71336827,21.5054725 C4.67744957,21.5054725 4.64205604,21.5031756 4.6073261,21.4987207 C4.57262534,21.5031629 4.53713461,21.5054725 4.50111613,21.5054725 C4.05937,21.5054725 3.98397261,21.1579753 3.95865429,20.7212968 L3.95724117,20.672423 L3.95724117,16.3492791 L3.24513978,16.3492791 L3.24513978,20.672423 L3.24372257,20.7694365 C3.23098754,21.1832392 3.12664998,21.5054725 2.70126482,21.5054725 C2.66534612,21.5054725 2.62995224,21.5031756 2.59522167,21.4987207 C2.56052154,21.5031629 2.52503116,21.5054725 2.48901268,21.5054725 C2.04721263,21.5054725 1.68486586,21.1579753 1.65954747,20.7212968 L1.65813435,20.672423 L1.65617711,14.3683404 L1.44742298,14.852459 C1.32780737,15.129731 1.0558622,15.3088223 0.754614287,15.3088223 C0.651495453,15.3088223 0.550837156,15.2878517 0.455379537,15.2464712 C0.270447875,15.1663454 0.127680856,15.0187661 0.0534733219,14.8308716 C-0.0133637878,14.661817 -0.0174656134,14.478365 0.0407194123,14.3081477 L0.0624207262,14.2519367 L1.51665352,10.8799842 C1.63436781,10.6069176 1.86834243,10.4240694 2.19592927,10.4240694 L5.00645168,10.4240694 Z M3.59455378,6.44594872 C4.62701383,6.44594872 5.46698227,7.27789626 5.46698227,8.30051436 C5.46698227,9.32318699 4.62701383,10.1551891 3.59455378,10.1551891 C2.56181835,10.1551891 1.72168469,9.32318699 1.72168469,8.30051436 C1.72168469,7.27789626 2.56181835,6.44594872 3.59455378,6.44594872 Z" id="Shape-Copy-3" fill="#FFFFFF" transform="translate(3.601190, 13.975711) scale(-1, 1) translate(-3.601190, -13.975711) "></path>
                <path d="M34.4707374,10.4240694 C34.7983242,10.4240694 35.0322989,10.6069176 35.1500131,10.8799842 L36.6042459,14.2519367 C36.6842693,14.4374201 36.6874568,14.6430331 36.6131933,14.8308716 C36.5389858,15.0187661 36.3962188,15.1663454 36.2112871,15.2464712 C36.1158295,15.2878517 36.0151712,15.3088223 35.9120524,15.3088223 C35.6108045,15.3088223 35.3388593,15.129731 35.2192437,14.852459 L35.0104896,14.3683404 L35.0085323,20.672423 C35.0085323,21.1317581 34.635817,21.5054725 34.177654,21.5054725 C34.1417353,21.5054725 34.1063418,21.5031756 34.0716118,21.4987207 C34.0369111,21.5031629 34.0014203,21.5054725 33.9654018,21.5054725 C33.5236557,21.5054725 33.4482583,21.1579753 33.42294,20.7212968 L33.4215269,20.672423 L33.4215269,16.3492791 L32.7094255,16.3492791 L32.7094255,20.672423 L32.7080083,20.7694365 C32.6952733,21.1832392 32.5909357,21.5054725 32.1655505,21.5054725 C32.1296318,21.5054725 32.094238,21.5031756 32.0595074,21.4987207 C32.0248073,21.5031629 31.9893169,21.5054725 31.9532984,21.5054725 C31.5114983,21.5054725 31.1491516,21.1579753 31.1238332,20.7212968 L31.1224201,20.672423 L31.1204628,14.3683404 L30.9117087,14.852459 C30.7920931,15.129731 30.5201479,15.3088223 30.2189,15.3088223 C30.1157812,15.3088223 30.0151229,15.2878517 29.9196653,15.2464712 C29.7347336,15.1663454 29.5919666,15.0187661 29.517759,14.8308716 C29.4509219,14.661817 29.4468201,14.478365 29.5050051,14.3081477 L29.5267064,14.2519367 L30.9809392,10.8799842 C31.0986535,10.6069176 31.3326281,10.4240694 31.660215,10.4240694 L34.4707374,10.4240694 Z M33.0588395,6.44594872 C34.0912995,6.44594872 34.931268,7.27789626 34.931268,8.30051436 C34.931268,9.32318699 34.0912995,10.1551891 33.0588395,10.1551891 C32.0261041,10.1551891 31.1859704,9.32318699 31.1859704,8.30051436 C31.1859704,7.27789626 32.0261041,6.44594872 33.0588395,6.44594872 Z" id="Shape-Copy" fill="#FFFFFF"></path>
            </g>
        </g>
    </g>
</svg>