<?xml version="1.0" encoding="UTF-8"?>
<svg width="40px" height="40px" viewBox="0 0 40 40" version="1.1" xmlns="http://www.w3.org/2000/svg" xmlns:xlink="http://www.w3.org/1999/xlink">
    <!-- Generator: Sketch 58 (84663) - https://sketch.com -->
    <title>Artboard</title>
    <desc>Created with Sketch.</desc>
    <g id="Artboard" stroke="none" stroke-width="1" fill="none" fill-rule="evenodd">
        <g id="Group-2">
            <rect id="Rectangle" x="0" y="0" width="40" height="40"></rect>
            <g id="Group" transform="translate(6.000000, 3.333333)">
                <path d="M8.24786099,22.3537916 L15.579293,26.5865959 L9.03576647,33.1948844 L10.3013853,27.2625917 L7.01593962,29.5407439 L8.24786099,22.3537916 Z M20.6267063,6.17404504 L20.7436072,6.17546373 C21.2505405,6.19097302 21.7610597,6.32848656 22.2310373,6.59982827 C23.7494266,7.47647073 24.2696652,9.41802758 23.3930227,10.9364169 C22.8294668,11.9125243 21.8258188,12.4761306 20.7774182,12.521305 L20.6607651,12.5242485 C20.1157123,12.5276216 19.5625639,12.3906164 19.0564341,12.0984023 C17.5380448,11.2217598 17.0178063,9.28020296 17.8944487,7.76181368 C18.4554999,6.79004454 19.45274,6.22711793 20.4960773,6.17755861 L20.6267063,6.17404504 Z" id="Shape" fill="#47EBC6"></path>
                <path d="M25.4524433,20.0678085 L23.827154,31.3485006 L20.161438,29.2320985 L25.4524433,20.0678085 Z M26.0193703,1.12784561e-14 L26.263079,0.578108839 C28.4317539,5.79252653 28.6900907,10.0246134 27.003866,13.264096 L26.9099614,13.4398106 L26.8152128,13.608085 L18.0884558,28.7232715 L5.14286421,21.2491307 L13.8724907,6.12897397 L13.9827377,5.94230808 C16.0564372,2.50555083 19.6858794,0.561503156 24.8787352,0.0843182645 L25.1635325,0.0597445823 L25.452838,0.0380056807 L26.0193703,1.12784561e-14 Z M25.2501066,1.24789546 L24.9808235,1.27157125 C20.2369013,1.70791245 16.987287,3.40977371 15.1126388,6.38022587 L15.0060106,6.55300559 L14.901578,6.72974476 L6.77088617,20.8125162 L17.6521059,27.0947913 L25.7799612,13.0179294 L25.8682971,12.8610489 C27.3667959,10.1288227 27.2621597,6.46725238 25.487695,1.8475194 L25.3834689,1.57993309 L25.2501066,1.24789546 Z M8.95672129,10.543999 L3.66571599,19.708289 L-3.75948537e-15,17.5918869 L8.95672129,10.543999 Z" id="Shape" fill="#FFFFFF" fill-rule="nonzero"></path>
            </g>
        </g>
    </g>
</svg>