<?xml version="1.0" encoding="UTF-8"?>
<svg width="263px" height="65px" viewBox="0 0 263 65" version="1.1" xmlns="http://www.w3.org/2000/svg" xmlns:xlink="http://www.w3.org/1999/xlink">
    <!-- Generator: Sketch 63.1 (92452) - https://sketch.com -->
    <title>Artboard</title>
    <desc>Created with Sketch.</desc>
    <defs>
        <filter x="-11.8%" y="-47.7%" width="123.6%" height="195.4%" filterUnits="objectBoundingBox" id="filter-1">
            <feOffset dx="0" dy="8" in="SourceAlpha" result="shadowOffsetOuter1"></feOffset>
            <feGaussianBlur stdDeviation="4" in="shadowOffsetOuter1" result="shadowBlurOuter1"></feGaussianBlur>
            <feColorMatrix values="0 0 0 0 0   0 0 0 0 0   0 0 0 0 0  0 0 0 0.0796820367 0" type="matrix" in="shadowBlurOuter1" result="shadowMatrixOuter1"></feColorMatrix>
            <feMerge>
                <feMergeNode in="shadowMatrixOuter1"></feMergeNode>
                <feMergeNode in="SourceGraphic"></feMergeNode>
            </feMerge>
        </filter>
    </defs>
    <g id="Artboard" stroke="none" stroke-width="1" fill="none" fill-rule="evenodd">
        <g id="Logo-Copy" filter="url(#filter-1)">
            <g id="Group">
                <path d="M32.5938048,0.668314779 C32.9452643,-0.208707294 34.1812076,-0.223580506 34.5600242,0.629784699 L34.5734978,0.661392764 L43.0462873,21.3793143 L65.6698958,22.0928326 C66.6341799,22.1232427 67.0613395,23.3055308 66.3521243,23.940307 L66.3285942,23.96081 L48.6903132,38.923915 L55.3931309,62.3737538 C55.6635228,63.3197197 54.6090103,64.0853489 53.7883631,63.555738 L53.7635682,63.5392916 L33.6577385,49.8384164 L13.4958004,63.5400559 C12.6721993,64.0997541 11.6017547,63.3303448 11.8643026,62.3845044 L11.8726682,62.3557898 L19.0185972,38.9350261 L0.398445301,23.9790128 C-0.363381642,23.3670989 0.0378955788,22.1494267 1.00461756,22.0941812 L1.03599753,22.0928044 L24.2941715,21.3789398 L26.7097454,15.3512533 C26.9238719,14.816903 27.5257213,14.5512818 28.0655387,14.7467579 L28.0960251,14.7583163 C28.6333415,14.9712608 28.9004372,15.5697877 28.7038761,16.1066251 L28.6922535,16.1369433 L26.0178095,22.8109876 C25.8650255,23.1922583 25.5054486,23.4506842 25.0957491,23.4770882 L25.059473,23.478813 L3.97761151,24.1257612 L20.9189548,37.7333327 C21.2474322,37.997172 21.3876969,38.4278748 21.279751,38.8314538 L21.2695807,38.8669883 L14.79515,60.0864996 L33.0565807,47.6764979 C33.4093272,47.4367805 33.8706024,47.4300159 34.229443,47.6560704 L34.2617768,47.6772622 L52.532253,60.1274485 L46.4502166,38.8490243 C46.3395448,38.4618392 46.4588578,38.046896 46.755748,37.7764602 L46.7841001,37.7515355 L62.8441277,24.1270096 L42.2853547,23.4787849 C41.8758212,23.4658697 41.5110525,23.2210818 41.3448741,22.8509104 L41.3307306,22.8179256 L33.5950954,3.90250409 L31.9017306,8.12808094 C31.6875954,8.66242777 31.0857417,8.92803936 30.5459275,8.73255461 L30.5154412,8.72099569 C29.9781283,8.5080426 29.7110423,7.90951137 29.9076121,7.37267711 L29.9192352,7.34235916 L32.5938048,0.668314779 Z" id="Stroke-3" fill="#FFFFFF" fill-rule="nonzero"></path>
                <path d="M29.2831445,10.3241136 C30.0821886,10.3241136 30.7299604,10.9683095 30.7299604,11.7629426 C30.7299604,12.5575757 30.0821886,13.2018965 29.2831445,13.2018965 C28.4839748,13.2018965 27.836203,12.5575757 27.836203,11.7629426 C27.836203,10.9683095 28.4839748,10.3241136 29.2831445,10.3241136 Z" id="Clip-5" fill="#FFFFFF"></path>
                <path d="M34.2696067,26.4366268 C36.3672073,26.4366268 38.0473969,27.1719589 39.3100498,28.6426232 C40.5727028,30.1132875 41.2040292,32.2195335 41.2040292,34.9616108 C41.2040292,37.9506299 40.5121938,40.1406462 39.1285231,41.53166 C37.7448523,42.9225488 36.0041538,43.6179309 33.9065531,43.6179309 L33.9065531,43.6179309 L26.8511128,43.6179309 L26.8511128,29.8680936 L28.9689249,31.4225283 L28.9689249,41.9799754 L33.9065531,41.9799754 C35.4394876,41.9799754 36.6959892,41.4438945 37.676309,40.3718576 C38.6565033,39.2996959 39.146726,37.4923269 39.146726,34.9496257 C39.146726,32.6779613 38.7170122,30.966098 37.8578358,29.8142857 C36.9985338,28.6625983 35.8025411,28.0866921 34.2696067,28.0866921 L34.2696067,28.0866921 L26.8511128,28.0866921 L26.8511128,26.4366268 L34.2696067,26.4366268 Z" id="Clip-8" fill="#FFFFFF"></path>
                <path d="M33.9065531,43.6179309 C36.0041538,43.6179309 37.7448523,42.9225488 39.1285231,41.53166 C40.5121938,40.1406462 41.2040292,37.9506299 41.2040292,34.9616108 C41.2040292,32.2195335 40.5727028,30.1132875 39.3100498,28.6426232 C38.0473969,27.1719589 36.3672073,26.4366268 34.2696067,26.4366268 L26.8511128,26.4366268 L26.8511128,28.0866921 L34.2696067,28.0866921 C35.8025411,28.0866921 36.9985338,28.6625983 37.8578358,29.8144106 C38.7170122,30.966098 39.146726,32.6779613 39.146726,34.9496257 C39.146726,37.4923269 38.6565033,39.2996959 37.676309,40.3718576 C36.6959892,41.4438945 35.4394876,41.9799754 33.9065531,41.9799754 L28.9689249,41.9799754 L28.9689249,31.4225283 L26.8511128,29.8680936 L26.8511128,43.6179309 L33.9065531,43.6179309 Z" id="Stroke-10" stroke="#FFFFFF" stroke-width="0.650434122"></path>
                <polygon id="Clip-12" fill="#FFFFFF" points="53.2169327 41.0628701 64.4104551 45.1325403 59.6352719 52.5777471"></polygon>
                <polygon id="Clip-15" fill="#FFFFFF" points="49.5630477 6.60687846 55.7791465 11.0540774 45.078232 19.6468518"></polygon>
                <polygon id="Clip-18" fill="#FFFFFF" points="22.1693293 4.35868468 20.8648725 18.2979106 13.5784437 5.7358407"></polygon>
                <path d="M15.8869425,14.3054919 L7.31415479,2.36037821 L0.629275816,8.37226223 L15.8869425,14.3054919 Z M7.23793752,3.05930658 L14.5855029,13.2971526 L1.50854632,8.21199993 L7.23793752,3.05930658 Z" id="Path" fill="#FFFFFF" fill-rule="nonzero"></path>
                <path d="M7.67971743,52.4066406 L14.1677897,39.533617 L2.04259132,47.1620704 L7.67971743,52.4066406 Z M12.9890466,40.8285376 L7.54123534,51.6374209 L2.80798164,47.2337925 L12.9890466,40.8285376 Z" id="Path" fill="#FFFFFF" fill-rule="nonzero"></path>
            </g>
            <g id="Group-2" transform="translate(76.000000, 0.000000)" fill="#FFFFFF">
                <path d="M88.6174498,19.3824827 L83.6363691,25.5243576 C86.6466042,27.3485561 88.1515692,29.5220367 88.1515692,32.0447994 C88.1515692,34.5678673 86.9088145,36.7218247 84.423,38.5072818 C81.9879164,40.2560022 79.0592539,41.1484992 75.6367257,41.1841993 L75.4221747,41.185315 C74.3541251,41.185315 72.9656302,41.020283 71.2566899,40.690219 C70.6545209,40.7484835 70.139857,41.0007598 69.7126982,41.4470478 C69.2077909,41.9516004 68.9553373,42.5629204 68.9553373,43.2810079 C68.9553373,43.9990954 69.1544342,44.6104154 69.5526279,45.1149679 C69.9346012,45.5993384 70.6523598,46.0480048 71.7056339,46.4606973 L72.1661665,46.6362769 C72.8250768,46.8816287 73.9886169,47.2939753 75.6567269,47.8733166 L79.129405,49.072044 C82.6914648,50.3149512 85.1551223,51.4362235 86.5203774,52.4358608 C87.9048732,53.4498041 88.6133653,54.8668192 88.6455697,56.6860532 L88.6467198,56.8166825 L88.6467198,57.3407583 C88.6467198,58.8544159 87.9378374,60.2225648 86.5203774,61.4452048 C85.1026124,62.687063 82.8985216,63.5991623 79.9081048,64.1815025 C78.8253617,64.23703 77.7798849,64.2672274 76.7716733,64.2720938 L76.4976304,64.2727949 C71.0352514,64.2742149 66.6815854,63.5219827 63.4364631,62.0159268 L63.2751308,61.9399958 L63.2751308,60.2808293 C65.9338766,60.5560398 68.8034388,60.6955661 71.8839164,60.6994082 L72.2700747,60.6991818 C74.7227008,60.6932721 77.3075179,60.6023242 80.0245749,60.4263381 C81.2478164,60.0383146 82.1411607,59.5529802 82.704303,58.970945 C83.2869587,58.3886047 83.5781341,57.6705172 83.5781341,56.8166825 C83.5781341,55.982371 83.2869587,55.2642835 82.704303,54.6627251 C82.1411607,54.099908 80.1797668,53.2945763 76.8201213,52.2467298 L76.4017537,52.1171735 C70.6673225,50.3331215 67.1318567,48.8870393 65.7947887,47.7783587 C64.4258071,46.643268 63.7413163,45.2409535 63.7413163,43.5720255 C63.7413163,41.8838793 64.4209288,40.4477043 65.7801537,39.2641106 C66.0521207,39.0310525 66.3338443,38.8272792 66.6250196,38.6527906 L66.5157145,38.572715 C66.4817187,38.5484635 66.450162,38.5266525 66.4210444,38.5072818 C63.9355349,36.7218247 62.6924752,34.5678673 62.6924752,32.0447994 C62.6924752,29.5415599 63.9355349,27.397059 66.4210444,25.6119069 C68.9068589,23.8264498 71.9070324,22.9338737 75.4221747,22.9338737 C77.3556198,22.9338737 78.8625575,23.1422469 79.9432633,23.5592688 L80.05354,23.6031532 L88.6174498,19.3824827 Z M28.8283219,10.9408365 C33.8100734,10.9408365 37.8135084,12.6837504 40.8386268,16.1692851 L41.0044162,16.3632456 C44.0141893,19.9412138 45.5192261,25.0518708 45.5192261,31.6955173 C45.5192261,38.972788 43.8541908,44.3047554 40.5238153,47.6911144 C38.8265128,49.4167906 36.9061662,50.702728 34.7626949,51.5489671 C32.7601141,52.3395981 30.5626555,52.7464327 28.1703535,52.769464 L27.9544909,52.7705005 L10.9721065,52.7705005 L10.9721065,19.2952384 L16.0696574,23.0793826 L16.0696574,48.782583 L27.9544909,48.782583 C31.6440335,48.782583 34.6685987,47.4775795 37.0281863,44.8675725 C39.387774,42.2572604 40.5674154,37.8569154 40.5674154,31.6665376 C40.5674154,26.2207678 39.5647862,22.0969377 37.5598188,19.2944651 L37.4651018,19.1640669 C36.8188183,18.2878111 36.0933333,17.5484404 35.2886655,16.9459735 L35.1673715,16.8567072 C33.4609408,15.620365 31.4053181,14.9878178 29.0006757,14.9590656 L28.8283219,14.9580388 L10.9721065,14.9577337 L10.9721065,10.9408365 L28.8283219,10.9408365 Z M56.8732363,22.7883649 L56.8732363,52.712541 L51.7756854,52.712541 L51.7756854,26.5725091 L56.8732363,22.7883649 Z M100.146165,22.7883649 L100.146165,52.712541 L95.0486144,52.712541 L95.0486144,26.5725091 L100.146165,22.7883649 Z M113.419494,10.9408365 L113.419494,30.8224644 L130.460113,10.9408365 L136.722975,10.9408365 L120.730892,30.7931797 L136.75194,52.6832562 L133.402052,52.6832562 L116.973358,34.4900795 L113.419494,38.856564 L113.419494,52.712541 L108.321943,52.712541 L108.321943,10.9408365 L113.419494,10.9408365 Z M146.011927,22.7883649 L146.011927,52.712541 L140.914071,52.712541 L140.914071,26.5725091 L146.011927,22.7883649 Z M151.656461,10.999101 L156.754012,14.7832452 L156.754012,34.8103819 L169.133996,22.9628535 L175.396553,22.9628535 L161.997303,36.2367953 L175.688033,52.712541 L173.211975,52.712541 L158.385203,38.7982994 L156.754012,40.573995 L156.754012,52.712541 L151.656461,52.712541 L151.656461,10.999101 Z M186.488353,52.712541 L181.390802,52.712541 L181.390802,26.5725091 L186.488353,22.7883649 L186.488353,52.712541 Z M75.4221747,26.6597534 C73.305284,26.6597534 71.4993869,27.1887099 70.0041784,28.2463179 C68.5086651,29.303926 67.7610609,30.5701882 67.7610609,32.0447994 C67.7610609,33.539239 68.5086651,34.8103819 70.0041784,35.8582284 C71.4993869,36.9060748 73.305284,37.4301506 75.4221747,37.4301506 C77.5582738,37.4301506 79.3739275,36.9060748 80.869136,35.8582284 C82.3646493,34.8103819 83.1122535,33.539239 83.1122535,32.0447994 C83.1122535,30.5701882 82.3646493,29.303926 80.869136,28.2463179 C79.4179043,27.219816 77.6647997,26.6913258 75.6098224,26.6611261 L75.4221747,26.6597534 Z M56.8351243,17.8072049 L51.7375734,23.3670446 L51.7375734,17.8072049 L56.8351243,17.8072049 Z M100.251659,17.8072049 L95.1541083,23.3670446 L95.1541083,17.8072049 L100.251659,17.8072049 Z M145.98845,17.8072049 L140.890899,23.3670446 L140.890899,17.8072049 L145.98845,17.8072049 Z M186.422495,17.8072049 L181.324945,23.3670446 L181.324945,17.8072049 L186.422495,17.8072049 Z" id="Shape"></path>
                <path d="M13.6896417,6.44531595 L14.661954,7.88728688 C12.8746556,8.29757901 11.2715141,8.98150091 9.85283448,9.93874753 C8.55265768,10.8162236 7.4072239,11.923881 6.41676799,13.2610149 L6.15048626,13.6313767 L5.17817394,12.1894058 L13.6896417,6.44531595 Z M12.4581681,0.617947492 C12.8328848,1.17405348 12.7551364,1.90403792 12.3105985,2.37076428 C12.734556,3.20016449 13.1824691,4.2331672 13.39495,5.22582005 L13.4567014,5.55487525 L4.44032639,11.6397058 C3.49575958,11.0695675 2.59662223,10.1660097 1.91883913,9.38355669 C1.32002402,9.62119057 0.614190523,9.41985763 0.239473734,8.86405669 C-0.193173234,8.22253673 -0.0233463411,7.34887378 0.617849271,6.91600796 C1.25873999,6.48344718 2.13226611,6.65335998 2.56460818,7.29487995 C2.77254703,7.60298036 2.84084366,7.9650746 2.78474286,8.3061204 C3.39819296,8.46139081 4.07201241,8.36591019 4.63637432,7.98490285 C5.54984177,7.36839698 5.879434,6.20585176 5.48520389,5.2214557 C5.12939063,5.15464977 4.79888371,4.95148653 4.5808833,4.62782857 C4.14854123,3.98661366 4.31836812,3.11264567 4.95925884,2.68008489 C5.60045445,2.24752412 6.47367568,2.41713187 6.90632264,3.05865183 C7.12432305,3.38230979 7.18896094,3.76484238 7.11761535,4.11992047 C7.88198881,4.85448066 9.08297289,4.98412687 9.99644035,4.367621 C10.5608022,3.98691871 10.9019805,3.39756228 10.9876562,2.77037967 C10.6507465,2.69472729 10.3409725,2.4955297 10.1330336,2.18742929 L10.5114091,0.239380552 C11.1522999,-0.193180222 12.025826,-0.0232674213 12.4581681,0.617947492 Z" id="Combined-Shape"></path>
            </g>
        </g>
    </g>
</svg>