<?xml version="1.0" encoding="UTF-8"?>
<svg width="315px" height="89px" viewBox="0 0 315 89" version="1.1" xmlns="http://www.w3.org/2000/svg" xmlns:xlink="http://www.w3.org/1999/xlink">
    <!-- Generator: Sketch 63.1 (92452) - https://sketch.com -->
    <title>Logo</title>
    <desc>Created with Sketch.</desc>
    <defs>
        <filter x="-10.4%" y="-41.9%" width="120.7%" height="183.8%" filterUnits="objectBoundingBox" id="filter-1">
            <feOffset dx="0" dy="8" in="SourceAlpha" result="shadowOffsetOuter1"></feOffset>
            <feGaussianBlur stdDeviation="4" in="shadowOffsetOuter1" result="shadowBlurOuter1"></feGaussianBlur>
            <feColorMatrix values="0 0 0 0 0   0 0 0 0 0   0 0 0 0 0  0 0 0 0.0796820367 0" type="matrix" in="shadowBlurOuter1" result="shadowMatrixOuter1"></feColorMatrix>
            <feMerge>
                <feMergeNode in="shadowMatrixOuter1"></feMergeNode>
                <feMergeNode in="SourceGraphic"></feMergeNode>
            </feMerge>
        </filter>
    </defs>
    <g id="Design" stroke="none" stroke-width="1" fill="none" fill-rule="evenodd">
        <g id="DigiKiki-Final_app-install-page" transform="translate(-105.000000, -162.000000)">
            <g id="Content" transform="translate(113.000000, 162.000000)">
                <g id="Logo" filter="url(#filter-1)">
                    <g id="Group">
                        <path d="M36.9720771,0.762296544 C37.3707476,-0.238056757 38.7727131,-0.255021514 39.2024155,0.718348173 L39.217699,0.754401122 L48.8286244,24.3857804 L74.4912251,25.1996371 C75.5850399,25.2343237 76.0695791,26.5828711 75.2650963,27.3069127 L75.2384054,27.3302989 L55.230803,44.3975905 L62.8339992,71.145063 C63.1407124,72.2240553 61.944549,73.0973511 61.0136656,72.4932637 L60.98554,72.4745045 L38.1789272,56.8469437 L15.3086691,72.4753762 C14.374435,73.113782 13.1601993,72.2361745 13.4580149,71.1573253 L13.4675043,71.1245727 L21.5733342,44.4102642 L0.451967804,27.3510614 C-0.412194101,26.6530971 0.0429860296,25.2641899 1.13956619,25.2011754 L1.17516138,25.1996051 L27.5575677,24.3853532 L30.2976216,17.5100233 C30.5405114,16.90053 31.2232062,16.5975558 31.8355364,16.8205207 L31.870118,16.8337045 C32.4796113,17.0765943 32.7825855,17.7592891 32.5596206,18.3716193 L32.5464368,18.4062009 L29.5127391,26.0187828 C29.3394319,26.4536696 28.9315537,26.7484366 28.4668199,26.7785537 L28.4256709,26.7805211 L4.51191753,27.5184464 L23.7289636,43.0395826 C24.1015649,43.3405244 24.2606712,43.8317947 24.138225,44.292127 L24.1266885,44.3326586 L16.7825582,68.5361636 L37.4970169,54.3810054 C37.8971472,54.1075778 38.4203848,54.0998619 38.8274278,54.3577053 L38.864105,54.3818772 L59.5888242,68.582871 L52.689798,44.3121683 C52.5642598,43.8705353 52.6995999,43.3972407 53.0363708,43.0887749 L53.0685314,43.0603451 L71.2858762,27.5198704 L47.965477,26.7804891 C47.5009315,26.7657576 47.087164,26.4865465 46.8986632,26.0643197 L46.8826198,26.0266964 L38.1078694,4.45129372 L36.1870377,9.27109232 C35.944138,9.88058168 35.2614383,10.1835449 34.6491118,9.9605701 L34.6145304,9.94738571 C34.005041,9.70448609 33.7020778,9.0217864 33.9250526,8.40945983 L33.938237,8.37487842 L36.9720771,0.762296544 Z" id="Stroke-3" fill="#761EC9" fill-rule="nonzero"></path>
                        <path d="M33.2167012,11.775942 C34.1230796,11.775942 34.8578656,12.510728 34.8578656,13.4171064 C34.8578656,14.3234848 34.1230796,15.0584132 33.2167012,15.0584132 C32.3101804,15.0584132 31.5753944,14.3234848 31.5753944,13.4171064 C31.5753944,12.510728 32.3101804,11.775942 33.2167012,11.775942 Z" id="Clip-5" fill="#FE7073"></path>
                        <path d="M38.8729867,30.1542774 C41.2523546,30.1542774 43.1582413,30.9930156 44.5905043,32.6704921 C46.0227673,34.3479686 46.7388988,36.7504054 46.7388988,39.8780873 C46.7388988,43.2874372 45.9541303,45.7854246 44.3845933,47.3720497 C42.8150564,48.9585323 40.8405327,49.7517024 38.4611648,49.7517024 L38.4611648,49.7517024 L30.4579786,49.7517024 L30.4579786,34.0682942 L32.860273,35.8413213 L32.860273,47.8834094 L38.4611648,47.8834094 C40.2000158,47.8834094 41.6253012,47.2719422 42.7373058,46.0491501 C43.8491679,44.8262157 44.4052414,42.7646854 44.4052414,39.8644169 C44.4052414,37.2732996 43.9178049,35.3207056 42.9432167,34.0069197 C41.9684861,32.6932762 40.6118377,32.0363832 38.8729867,32.0363832 L38.8729867,32.0363832 L30.4579786,32.0363832 L30.4579786,30.1542774 L38.8729867,30.1542774 Z" id="Clip-8" fill="#FF9100"></path>
                        <path d="M38.4611648,49.7517024 C40.8405327,49.7517024 42.8150564,48.9585323 44.3845933,47.3720497 C45.9541303,45.7854246 46.7388988,43.2874372 46.7388988,39.8780873 C46.7388988,36.7504054 46.0227673,34.3479686 44.5905043,32.6704921 C43.1582413,30.9930156 41.2523546,30.1542774 38.8729867,30.1542774 L30.4579786,30.1542774 L30.4579786,32.0363832 L38.8729867,32.0363832 C40.6118377,32.0363832 41.9684861,32.6932762 42.9432167,34.0070621 C43.9178049,35.3207056 44.4052414,37.2732996 44.4052414,39.8644169 C44.4052414,42.7646854 43.8491679,44.8262157 42.7373058,46.0491501 C41.6253012,47.2719422 40.2000158,47.8834094 38.4611648,47.8834094 L32.860273,47.8834094 L32.860273,35.8413213 L30.4579786,34.0682942 L30.4579786,49.7517024 L38.4611648,49.7517024 Z" id="Stroke-10" stroke="#FF9100" stroke-width="0.650434122"></path>
                        <polygon id="Clip-12" fill="#FE7073" points="60.3654759 46.8373362 73.0626057 51.4793038 67.6459801 59.9714928"></polygon>
                        <polygon id="Clip-15" fill="#FF8701" points="56.2207705 7.53597074 63.2718677 12.6085571 51.1335169 22.4096904"></polygon>
                        <polygon id="Clip-18" fill="#FE7073" points="25.1472989 4.97162471 23.6676166 20.8710543 15.4024137 6.54244329"></polygon>
                        <path d="M18.0210095,16.3172016 L8.29665319,2.69230639 L0.713805404,9.5496116 L18.0210095,16.3172016 Z M8.21019778,3.48952156 L16.5447496,15.1670647 L1.71118687,9.36681242 L8.21019778,3.48952156 Z" id="Path" fill="#7B0259" fill-rule="nonzero"></path>
                        <path d="M8.71132127,59.7763244 L16.0709257,45.0930319 L2.31696926,53.7942365 L8.71132127,59.7763244 Z M14.733844,46.5700507 L8.5542371,58.8989332 L3.1851732,53.8760446 L14.733844,46.5700507 Z" id="Path" fill="#7B0259" fill-rule="nonzero"></path>
                    </g>
                    <g id="Group-2" transform="translate(85.736118, 0.000000)">
                        <path d="M100.938593,22.066211 L95.2649552,29.0584994 C98.6937256,31.1352792 100.407937,33.6097033 100.407937,36.4817717 C100.407937,39.3541873 98.9923929,41.806385 96.1609572,43.8390593 C93.3873059,45.8299102 90.0514496,46.8459837 86.1530619,46.886627 L85.9086802,46.8878971 C84.6921318,46.8878971 83.1105841,46.7000145 81.1640371,46.3242493 C80.4781442,46.3905812 79.8919227,46.6777881 79.4053728,47.1858698 C78.8302645,47.7602835 78.5427104,48.4562478 78.5427104,49.2737628 C78.5427104,50.0912778 78.7694892,50.7872421 79.2230468,51.3616558 C79.6581287,51.9130929 80.4756826,52.4238824 81.6754012,52.893717 L82.199965,53.0936075 C82.9504886,53.3729312 84.2758043,53.8423719 86.175844,54.5019297 L90.1313543,55.8666347 C94.1886738,57.2816368 96.9948719,58.5581621 98.5499485,59.6962107 C100.126941,60.8505462 100.93394,62.4637634 100.970622,64.5348913 L100.971932,64.6836078 L100.971932,65.2802479 C100.971932,67.0034889 100.164489,68.5610738 98.5499485,69.9530024 C96.9350612,71.3668102 94.4245192,72.4052001 91.0183225,73.0681721 C89.7850377,73.131388 88.5942005,73.1657666 87.4458097,73.1713067 L87.1336646,73.172105 C80.9118104,73.1737216 75.9528218,72.3173341 72.2565061,70.6027474 L72.0727426,70.5163029 L72.0727426,68.6274057 C75.1011535,68.9407222 78.3696923,69.0995676 81.8784716,69.1039417 L82.3183203,69.1036839 C85.1119533,69.0969559 88.0561567,68.9934152 91.1509864,68.7930619 C92.5443042,68.3513121 93.5618569,67.7987775 94.203297,67.1361528 C94.8669636,66.4731808 95.1986233,65.6556658 95.1986233,64.6836078 C95.1986233,63.7337762 94.8669636,62.9162612 94.203297,62.2314101 C93.5618569,61.5906645 91.3277558,60.6738253 87.5009938,59.4808924 L87.0244575,59.3333975 C80.4927256,57.302323 76.4656977,55.656014 74.9427272,54.3938238 C73.383406,53.1015666 72.6037453,51.5050856 72.6037453,49.6050752 C72.6037453,47.6831856 73.3778494,46.0481557 74.9260574,44.7006798 C75.235838,44.4353521 75.5567317,44.203364 75.8883914,44.0047155 L75.7638887,43.9135525 C75.7251662,43.8859431 75.6892219,43.8611121 75.656056,43.8390593 C72.8249675,41.806385 71.409076,39.3541873 71.409076,36.4817717 C71.409076,33.6319297 72.8249675,31.1904979 75.656056,29.1581709 C78.4874917,27.1254967 81.9048016,26.1093332 85.9086802,26.1093332 C88.1109466,26.1093332 89.8274051,26.346558 91.0583694,26.8213214 L91.1839787,26.8712822 L100.938593,22.066211 Z M32.8365378,12.4557215 C38.5109392,12.4557215 43.0710015,14.4399619 46.5167247,18.4081092 L46.705565,18.6289258 C50.1338092,22.7023049 51.8481024,28.5205914 51.8481024,36.0841274 C51.8481024,44.3690202 49.9515649,50.43926 46.1581425,54.2944995 C44.2248515,56.2591154 42.0375048,57.7231057 39.5960107,58.6865163 C37.3149963,59.5866194 34.8120086,60.0497849 32.0870872,60.0760051 L31.8412116,60.0771852 L12.49764,60.0771852 L12.49764,21.9668868 L18.3039413,26.2749894 L18.3039413,55.5370945 L31.8412116,55.5370945 C36.0437387,55.5370945 39.4888316,54.0513982 42.1764903,51.0800056 C44.864149,48.1082656 46.2078047,43.0986421 46.2078047,36.0511351 C46.2078047,29.8513356 45.0657725,25.1565137 42.7820396,21.9660064 L42.6741534,21.8175531 C41.9380123,20.8199695 41.1116577,19.9782244 40.195111,19.2923391 L40.0569525,19.1907129 C38.1132642,17.7831847 35.7718329,17.0630541 33.0328552,17.0303209 L32.8365378,17.0291518 L12.49764,17.0288045 L12.49764,12.4557215 L32.8365378,12.4557215 Z M64.780745,25.943677 L64.780745,60.0112005 L58.9744438,60.0112005 L58.9744438,30.2517796 L64.780745,25.943677 Z M114.070231,25.943677 L114.070231,60.0112005 L108.26393,60.0112005 L108.26393,30.2517796 L114.070231,25.943677 Z M129.189049,12.4557215 L129.189049,35.0901903 L148.598952,12.4557215 L155.732587,12.4557215 L137.517005,35.0568507 L155.765579,59.9778609 L151.94993,59.9778609 L133.237033,39.265629 L129.189049,44.2367036 L129.189049,60.0112005 L123.382748,60.0112005 L123.382748,12.4557215 L129.189049,12.4557215 Z M166.313051,25.943677 L166.313051,60.0112005 L160.506402,60.0112005 L160.506402,30.2517796 L166.313051,25.943677 Z M172.742386,12.5220535 L178.548687,16.830156 L178.548687,39.630281 L192.649952,26.1423255 L199.78324,26.1423255 L184.520992,41.2541977 L200.115246,60.0112005 L197.294924,60.0112005 L180.406676,44.1703717 L178.548687,46.1919327 L178.548687,60.0112005 L172.742386,60.0112005 L172.742386,12.5220535 Z M212.417215,60.0112005 L206.610914,60.0112005 L206.610914,30.2517796 L212.417215,25.943677 L212.417215,60.0112005 Z M85.9086802,30.3511038 C83.4974625,30.3511038 81.4404781,30.9533005 79.7373797,32.1573466 C78.0339341,33.3613927 77.1823849,34.8029835 77.1823849,36.4817717 C77.1823849,38.1831336 78.0339341,39.630281 79.7373797,40.8232138 C81.4404781,42.0161467 83.4974625,42.6127868 85.9086802,42.6127868 C88.3417771,42.6127868 90.4098747,42.0161467 92.112973,40.8232138 C93.8164187,39.630281 94.6679678,38.1831336 94.6679678,36.4817717 C94.6679678,34.8029835 93.8164187,33.3613927 92.112973,32.1573466 C90.4599658,30.9887136 88.4631141,30.3870478 86.122418,30.3526666 L85.9086802,30.3511038 Z M64.7373341,20.2728179 L58.9310328,26.6024816 L58.9310328,20.2728179 L64.7373341,20.2728179 Z M114.190392,20.2728179 L108.384091,26.6024816 L108.384091,20.2728179 L114.190392,20.2728179 Z M166.286309,20.2728179 L160.480008,26.6024816 L160.480008,20.2728179 L166.286309,20.2728179 Z M212.342201,20.2728179 L206.535899,26.6024816 L206.535899,20.2728179 L212.342201,20.2728179 Z" id="Shape" fill="#000000"></path>
                        <path d="M15.5930143,7.33774431 L16.7005145,8.97937275 C14.6647146,9.44647456 12.8386765,10.2250933 11.2227473,11.3148818 C9.73144095,12.3208404 8.41886647,13.5925295 7.28529701,15.1291296 L7.00563408,15.5187981 L5.89813395,13.8771696 L15.5930143,7.33774431 Z M14.1903198,0.703509452 C14.6171362,1.33661473 14.5285779,2.16767394 14.0222326,2.69902395 C14.505136,3.64326418 15.0153257,4.81929804 15.2573494,5.94939513 L15.3276866,6.32401183 L5.05769798,13.2513574 C3.98180102,12.6022769 2.95764991,11.5736111 2.1856296,10.6828184 C1.50355677,10.9533554 0.699585997,10.7241456 0.272769547,10.0913876 C-0.220031545,9.36104181 -0.0265923564,8.36641015 0.703753448,7.87360906 C1.43375196,7.38115526 2.42873091,7.57459444 2.92118472,8.30494025 C3.15803485,8.65570072 3.23582728,9.06793109 3.17192636,9.45619861 C3.87066899,9.632968 4.63817457,9.52426698 5.2810039,9.09050478 C6.32147752,8.38863656 6.69689541,7.06512355 6.24785255,5.94442649 C5.84256793,5.86837051 5.46610819,5.63707697 5.21779756,5.26860484 C4.72534375,4.53860632 4.91878294,3.54362737 5.64878146,3.05117357 C6.37912726,2.55871976 7.37375892,2.75181167 7.86656002,3.48215747 C8.11487064,3.8506296 8.18849561,4.28612824 8.10723032,4.690371 C8.97788031,5.52663952 10.3458461,5.67423675 11.3863198,4.97236852 C12.0291491,4.53895361 12.4177639,3.86799398 12.5153517,3.1539707 C12.1315989,3.06784337 11.7787547,2.84106458 11.5419046,2.49030411 L11.9728885,0.272525552 C12.702887,-0.219928252 13.697866,-0.0264890642 14.1903198,0.703509452 Z" id="Combined-Shape" fill="#FF9100"></path>
                    </g>
                </g>
            </g>
        </g>
    </g>
</svg>