<?xml version="1.0" encoding="UTF-8"?>
<svg width="215px" height="54px" viewBox="0 0 215 54" version="1.1" xmlns="http://www.w3.org/2000/svg" xmlns:xlink="http://www.w3.org/1999/xlink">
    <title>fleet-mart-logo</title>
    <defs>
        <linearGradient x1="18.3600115%" y1="80.1797376%" x2="106.950067%" y2="17.2915608%" id="linearGradient-1">
            <stop stop-color="#06194F" offset="0%"></stop>
            <stop stop-color="#0B2A93" offset="40%"></stop>
            <stop stop-color="#0091C9" offset="100%"></stop>
        </linearGradient>
        <linearGradient x1="29.9293348%" y1="49.9658028%" x2="386.367608%" y2="52.2113503%" id="linearGradient-2">
            <stop stop-color="#06194F" offset="0%"></stop>
            <stop stop-color="#0B2A93" offset="40%"></stop>
            <stop stop-color="#0091C9" offset="100%"></stop>
        </linearGradient>
        <linearGradient x1="32.5346937%" y1="49.6461454%" x2="146.585323%" y2="51.838346%" id="linearGradient-3">
            <stop stop-color="#06194F" offset="0%"></stop>
            <stop stop-color="#0B2A93" offset="40%"></stop>
            <stop stop-color="#0091C9" offset="100%"></stop>
        </linearGradient>
        <linearGradient x1="-177.159389%" y1="48.9757038%" x2="736.88412%" y2="52.8755946%" id="linearGradient-4">
            <stop stop-color="#06194F" offset="0%"></stop>
            <stop stop-color="#0B2A93" offset="40%"></stop>
            <stop stop-color="#0091C9" offset="100%"></stop>
        </linearGradient>
        <linearGradient x1="-290.345765%" y1="48.4923371%" x2="623.704522%" y2="52.3929144%" id="linearGradient-5">
            <stop stop-color="#06194F" offset="0%"></stop>
            <stop stop-color="#0B2A93" offset="40%"></stop>
            <stop stop-color="#0091C9" offset="100%"></stop>
        </linearGradient>
        <linearGradient x1="-265.955119%" y1="48.4699613%" x2="376.131043%" y2="51.6275284%" id="linearGradient-6">
            <stop stop-color="#06194F" offset="0%"></stop>
            <stop stop-color="#0B2A93" offset="40%"></stop>
            <stop stop-color="#0091C9" offset="100%"></stop>
        </linearGradient>
        <linearGradient x1="-249.947645%" y1="48.7829862%" x2="219.892897%" y2="50.5634468%" id="linearGradient-7">
            <stop stop-color="#06194F" offset="0%"></stop>
            <stop stop-color="#0B2A93" offset="40%"></stop>
            <stop stop-color="#0091C9" offset="100%"></stop>
        </linearGradient>
        <linearGradient x1="-663.960675%" y1="47.1859172%" x2="228.649733%" y2="50.7865488%" id="linearGradient-8">
            <stop stop-color="#06194F" offset="0%"></stop>
            <stop stop-color="#0B2A93" offset="40%"></stop>
            <stop stop-color="#0091C9" offset="100%"></stop>
        </linearGradient>
        <linearGradient x1="-598.741668%" y1="46.214278%" x2="110.962919%" y2="50.30884%" id="linearGradient-9">
            <stop stop-color="#06194F" offset="0%"></stop>
            <stop stop-color="#0B2A93" offset="40%"></stop>
            <stop stop-color="#0091C9" offset="100%"></stop>
        </linearGradient>
        <linearGradient x1="-428.578333%" y1="46.7186499%" x2="50.0161283%" y2="49.9373821%" id="linearGradient-10">
            <stop stop-color="#06194F" offset="0%"></stop>
            <stop stop-color="#0B2A93" offset="40%"></stop>
            <stop stop-color="#0091C9" offset="100%"></stop>
        </linearGradient>
    </defs>
    <g id="Page-1" stroke="none" stroke-width="1" fill="none" fill-rule="evenodd">
        <g id="fleet-mart-logo">
            <path d="M49.7183,3.55271368e-15 L3.615,3.55271368e-15 C1.6268,3.55271368e-15 7.10542736e-15,1.62613 7.10542736e-15,3.61497 L7.10542736e-15,24.4394 C2.6177,40.7107 17.043,53.1845 34.5023,53.3333 L35.0944,53.3333 C35.3857,53.3305 35.6757,53.3236 35.9653,53.3144 L35.9653,53.3333 L49.7183,53.3333 C51.7065,53.3333 53.3333,51.7065 53.3333,49.7183 L53.3333,3.61497 C53.3333,1.6268 51.7072,3.55271368e-15 49.7183,3.55271368e-15 Z M23.5986,53.3333 C11.2893,48.974 2.0506,38.1217 7.10542736e-15,24.8934 L7.10542736e-15,49.7183 C7.10542736e-15,51.7065 1.6268,53.3333 3.615,53.3333 L23.5986,53.3333 Z M28.2771,15.3481 C27.9424,14.5951 26.9409,11.9646 26.9409,11.3382 L14.7,11.3382 C13.2376,11.3382 11.0234,11.255 9.5611,11.1298 L9.5191,11.3382 C10.48,11.7977 10.7724,12.1739 10.8143,13.1348 C10.9118,15.1844 10.9084,17.3353 10.9021,21.2454 L10.9021,21.2455 C10.9003,22.3562 10.8982,23.6089 10.8982,25.0415 C10.8982,26.4735 10.9003,27.7254 10.9022,28.836 C10.9086,32.715 10.9122,34.8696 10.8143,36.9482 C10.7724,37.9091 10.48,38.2847 9.5191,38.7448 L9.5611,38.912 C10.3949,38.7305 11.7948,38.7381 12.7509,38.7433 C12.8967,38.7441 13.0322,38.7448 13.1537,38.7448 C13.8643,38.7448 15.577,38.7868 16.5379,38.912 L16.5799,38.7448 C15.619,38.2853 15.3266,37.9091 15.2847,36.9482 C15.1861,35.6658 15.1911,34.4355 15.1977,32.8089 L15.1977,32.8086 C15.1995,32.3683 15.2014,31.899 15.2014,31.3917 L15.2014,25.3758 L15.2014,25.2919 C23.5148,25.2919 24.4757,25.6262 24.9352,27.4641 L25.1443,27.4222 C25.0191,26.4612 24.9771,25.7507 24.9771,24.6233 C24.9771,23.4952 25.0191,22.8266 25.1443,21.8238 L24.9352,21.7818 C24.4757,23.4946 23.5148,23.8708 15.2014,23.996 L15.2014,18.6899 C15.2014,18.2712 15.1997,17.8717 15.198,17.4801 L15.198,17.48 C15.1913,15.9567 15.1851,14.5511 15.2847,12.5901 C16.0856,12.4901 16.833,12.4967 17.5911,12.5035 L17.5913,12.5035 C17.7823,12.5052 17.974,12.5069 18.1674,12.5069 C22.0111,12.5069 25.3534,13.1335 28.069,15.5981 L28.2771,15.3481 Z M48.1786,37.3928 C48.2111,38.1365 48.4371,38.4275 49.1808,38.7827 L49.1814,38.7814 L49.149,38.9106 C48.6963,38.8139 46.9504,38.7814 46.4652,38.7814 C45.9482,38.7814 44.2022,38.8139 43.7495,38.9106 L43.717,38.7814 C44.3315,38.4904 44.6868,38.1994 44.7192,37.3914 C44.7943,35.7623 44.7916,34.1723 44.7866,31.1759 C44.7852,30.3064 44.7835,29.3184 44.7835,28.1767 C44.7835,25.5776 44.8307,23.7462 44.8681,22.2972 C44.8926,21.3487 44.9128,20.5639 44.9128,19.835 C44.0755,21.5095 43.2382,23.4408 41.7803,26.8036 C41.6051,27.2077 41.421,27.6325 41.2268,28.08 C39.666,31.6352 38.6719,34.1584 37.9232,36.0589 C37.5552,36.993 37.2464,37.7767 36.9588,38.4586 L35.8923,38.4586 C35.2265,36.879 34.1833,34.6591 32.677,31.4536 C32.21,30.4597 31.6984,29.3711 31.1398,28.1774 C30.2205,26.2089 29.5564,24.7705 29.0257,23.6209 C28.3621,22.1836 27.907,21.1977 27.4219,20.1916 L27.1959,19.8038 C27.2021,19.9262 27.2085,20.0498 27.2149,20.1753 C27.3087,22.0059 27.4219,24.2142 27.4219,28.1781 C27.4219,33.1573 27.5194,35.3234 27.6162,37.3928 C27.6486,38.1683 28.0039,38.4918 28.6184,38.7827 L28.5859,38.912 C28.1007,38.8152 27.3245,38.7827 26.8075,38.7827 C26.3223,38.7827 25.5143,38.8152 25.0291,38.912 L24.9966,38.7827 C25.6754,38.4275 25.9663,38.169 25.9988,37.3928 C26.0963,35.3234 26.193,33.1573 26.193,28.1781 C26.193,27.0718 26.1946,26.1042 26.196,25.2461 C26.2008,22.2164 26.2035,20.5506 26.1281,18.9634 C26.0956,18.2839 25.8696,17.9287 25.1259,17.5727 L25.1584,17.411 C25.5136,17.5084 26.775,17.5727 27.4213,17.5727 C27.7104,17.5727 28.3523,17.5527 28.919,17.535 C29.367,17.521 29.7681,17.5084 29.9109,17.5084 C30.6517,19.2282 31.8687,21.8786 33.5619,25.566 C33.9381,26.3851 34.3377,27.2554 34.7608,28.1781 L37.5732,34.1595 C38.2692,32.6327 38.9338,31.0279 39.4917,29.6809 C39.7371,29.0883 39.9619,28.5455 40.1596,28.0813 C41.7204,24.4973 42.788,21.8558 43.586,19.8814 C43.9616,18.9522 44.2775,18.1707 44.5568,17.5084 C44.6643,17.5084 44.9772,17.5195 45.3436,17.5324 C45.8611,17.5507 46.4852,17.5727 46.7879,17.5727 C47.5641,17.5727 48.4046,17.5078 49.1483,17.411 L49.1808,17.5727 C48.4371,17.8644 48.2111,18.2197 48.1786,18.9634 C48.1028,20.5464 48.1056,22.2076 48.1106,25.2221 C48.112,26.0862 48.1136,27.0615 48.1136,28.1781 C48.1136,29.2761 48.1121,30.2373 48.1107,31.0908 C48.1058,34.1079 48.1031,35.7798 48.1786,37.3928 Z" id="Shape" fill="url(#linearGradient-1)"></path>
            <g id="Group" transform="translate(74.000000, 13.333300)">
                <path d="M17.0783,4.444 C16.7683,3.7722 15.864,1.3693 15.864,0.8009 L4.72819,0.8009 C3.38466,0.8009 1.36937,0.7234 0.0516742,0.6201 L6.39488462e-14,0.8009 C0.878462,1.2143 1.13683,1.5502 1.18851,2.4287 C1.29186,4.8315 1.26602,7.3636 1.26602,13.2803 C1.26602,19.1453 1.29186,21.6773 1.18851,24.1318 C1.13683,24.9845 0.878462,25.3203 6.39488462e-14,25.7596 L0.0258371,25.9146 C0.904299,25.7337 2.45452,25.7596 3.30715,25.7596 C3.95308,25.7596 5.5033,25.7854 6.38176,25.9146 L6.4076,25.7596 C5.52914,25.3462 5.27077,25.0103 5.21909,24.1318 C5.14158,22.6333 5.16742,21.2122 5.16742,19.0419 L5.16742,13.5903 L5.16742,13.5128 C12.7377,13.5128 13.6162,13.8228 14.0295,15.5022 L14.2104,15.4764 C14.1071,14.5979 14.0554,13.952 14.0554,12.9185 C14.0554,11.885 14.0812,11.2908 14.2104,10.3607 L14.0295,10.3348 C13.6162,11.885 12.7377,12.2468 5.16742,12.3501 L5.16742,7.4927 C5.16742,5.6325 5.14158,4.1856 5.24493,1.9378 C6.14923,1.8344 7.00185,1.8603 7.88032,1.8603 C11.3683,1.8603 14.4171,2.4287 16.8975,4.6765 L17.0783,4.444 Z" id="Path" fill="url(#linearGradient-2)" fill-rule="nonzero"></path>
                <path d="M24.3386,25.7595 C23.5893,25.4237 23.2018,24.8552 23.1501,24.1318 C23.0468,21.7031 23.0726,19.1452 23.0726,13.2802 C23.0726,7.3119 23.0726,2.5578 23.2535,0.1291 L23.1243,0 C21.9358,0.7234 20.308,1.0593 18.6028,1.266 L18.6286,1.421 C19.197,1.421 19.8171,1.8085 19.843,2.8937 C19.9463,5.3224 19.9205,7.3894 19.9205,13.2802 C19.9205,19.1452 19.9463,21.6773 19.843,24.1318 C19.8171,25.0103 19.4554,25.4237 18.6545,25.7595 L18.6803,25.9146 C19.2487,25.8112 20.7989,25.7595 21.419,25.7595 C22.0391,25.7595 23.6927,25.7854 24.2611,25.9146 L24.3386,25.7595 Z" id="Path" fill="url(#linearGradient-3)" fill-rule="nonzero"></path>
                <path d="M38.9886,14.2619 C37.5417,11.4715 34.6221,10.8256 31.16,12.6342 C27.4911,14.5461 25.76,18.4733 27.7753,22.3748 C29.8681,26.4312 34.2863,26.9997 37.6968,25.2427 C40.1254,23.9767 41.1331,21.6255 41.4431,20.1786 L41.2623,19.8169 C40.7455,21.2121 40.0479,22.1164 38.1101,23.124 C35.5523,24.4676 32.581,23.7183 31.0308,20.7212 C30.6949,20.0752 30.4107,19.4552 30.204,18.8867 L38.9886,14.2619 Z M29.8939,17.8016 C29.5839,15.9413 29.9973,14.6236 31.7284,13.7193 C33.1753,12.97 34.3638,13.4351 35.0614,14.7786 L29.8939,17.8016 Z" id="Shape" fill="url(#linearGradient-4)" fill-rule="nonzero"></path>
                <path d="M55.5243,14.2619 C54.0774,11.4715 51.1578,10.8256 47.6956,12.6342 C44.0267,14.5461 42.2957,18.4733 44.311,22.3748 C46.4038,26.4312 50.8219,26.9997 54.2324,25.2427 C56.6611,23.9767 57.6687,21.6255 57.9788,20.1786 L57.7979,19.8169 C57.2812,21.2121 56.5836,22.1164 54.6458,23.124 C52.0879,24.4676 49.1167,23.7183 47.5664,20.7212 C47.2305,20.0752 46.9463,19.4552 46.7396,18.8867 L55.5243,14.2619 Z M46.4296,17.8016 C46.1195,15.9413 46.5329,14.6236 48.264,13.7193 C49.7109,12.97 50.8994,13.4351 51.597,14.7786 L46.4296,17.8016 Z" id="Shape" fill="url(#linearGradient-5)" fill-rule="nonzero"></path>
                <path d="M74.2562,20.5403 C73.1969,21.5997 68.0036,25.0102 66.9702,25.0102 C65.6266,25.036 64.9549,24.3901 64.929,22.5298 C64.929,20.3595 64.8515,18.3442 64.8515,13.8227 L69.1405,13.8227 L69.1405,12.66 L64.8515,12.66 L64.8515,11.9107 C64.8515,10.9548 64.929,9.5079 64.9549,8.7069 L64.6448,8.6811 C64.0247,10.9548 61.6735,13.0992 58.9348,13.5126 L59.0123,13.8485 L61.6735,13.8485 C61.6735,17.9825 61.6477,20.2045 61.596,22.5556 C61.5444,24.9843 63.0688,26.5345 65.6525,26.6637 C68.0812,26.7927 73.4553,22.3748 74.4887,20.7212 L74.2562,20.5403 Z" id="Path" fill="url(#linearGradient-6)"></path>
                <path d="M100.481,25.7596 C99.6022,25.3462 99.3438,25.0103 99.2921,24.1318 C99.1888,21.7031 99.2146,19.1453 99.2146,13.2803 C99.2146,7.3894 99.1888,4.8315 99.2921,2.4287 C99.318,1.5502 99.6022,1.1368 100.481,0.8009 L100.455,0.6201 C99.5763,0.7234 98.5945,0.8009 97.6902,0.8009 C97.0701,0.8009 95.3649,0.7234 95.0548,0.7234 C94.0214,3.1521 92.5745,6.9502 89.8874,13.1511 C89.1381,14.9338 88.0271,17.7242 86.8386,20.3079 L83.5315,13.2803 C80.7928,7.3119 78.8808,3.2038 77.8215,0.7234 C77.4339,0.7234 75.4961,0.8009 74.9019,0.8009 C74.1526,0.8009 72.6541,0.7234 72.2407,0.6201 L72.2148,0.8009 C73.0933,1.2143 73.3517,1.6277 73.4033,2.4287 C73.5067,4.8315 73.4809,7.3636 73.4809,13.2803 C73.4809,19.1453 73.3775,21.6773 73.2483,24.1318 C73.2225,25.0361 72.8608,25.3462 72.0598,25.7596 L72.0857,25.9146 C72.6541,25.8112 73.61,25.7596 74.1785,25.7596 C74.7986,25.7596 75.7029,25.7854 76.2713,25.9146 L76.2971,25.7596 C75.5737,25.4237 75.1603,25.0361 75.1086,24.1318 C75.0052,21.7031 74.8761,19.1453 74.8761,13.2803 C74.8761,8.2937 74.721,5.6841 74.6177,3.4363 L74.8761,3.9014 C75.9095,6.02 76.8138,8.087 79.2425,13.3061 C82.0071,19.2486 83.8157,22.9692 84.8233,25.3979 L86.0894,25.3979 C87.1229,22.9692 88.363,19.4295 91.1018,13.1769 C93.2204,8.2679 94.3314,5.6841 95.4424,3.488 C95.4424,5.6583 95.2874,8.242 95.2874,13.3061 C95.2874,19.2745 95.3132,21.6773 95.2099,24.1577 C95.184,25.1136 94.7448,25.4495 94.0214,25.7854 L94.0472,25.9404 C94.5898,25.8371 96.6309,25.7854 97.251,25.7854 C97.8194,25.7854 99.8864,25.8112 100.403,25.9404 L100.481,25.7596 Z" id="Path" fill="url(#linearGradient-7)" fill-rule="nonzero"></path>
                <path d="M115.285,24.907 C114.717,24.8812 114.071,24.4936 114.019,23.3826 C113.916,20.9539 113.942,18.6544 113.942,16.3808 C113.942,13.6162 111.539,12.1176 107.482,12.1176 C105.545,12.1176 103.684,12.6602 102.031,14.1329 L102.031,16.2257 L102.212,16.3032 C103.4,14.3655 105.26,13.2545 107.431,13.2545 C109.291,13.2545 110.789,14.2363 110.789,16.3808 L110.789,17.5951 C109.601,17.2592 108.697,17.13 107.586,17.13 C103.71,17.13 100.325,18.9128 100.325,21.7032 C100.325,24.5969 102.522,26.2764 105.984,26.2764 C107.818,26.2764 109.678,25.3721 110.712,24.106 C110.712,24.7778 110.686,25.4754 110.609,26.1989 L110.712,26.3022 C111.668,25.6821 113.115,25.3204 115.285,25.0362 L115.285,24.907 Z M110.764,22.8142 C109.549,24.1577 108.128,24.8295 106.656,24.8295 C104.873,24.8295 103.736,23.5635 103.736,21.7032 C103.736,19.5846 105.364,18.1377 107.922,18.1377 C109.136,18.1377 109.937,18.2927 110.815,18.5511 C110.815,20.4889 110.815,21.7549 110.764,22.8142 Z" id="Shape" fill="url(#linearGradient-8)" fill-rule="nonzero"></path>
                <path d="M128.178,12.8668 C127.842,12.2984 126.964,12.1433 126.24,12.1433 C124.613,12.1433 123.347,13.2543 122.468,14.8046 C122.494,13.9261 122.494,13.0993 122.623,12.1433 L122.468,12.04 C121.099,12.7634 119.471,13.151 117.947,13.4094 L117.973,13.5644 C118.541,13.5644 119.161,13.9778 119.187,15.0371 C119.213,15.838 119.264,16.949 119.264,18.4218 C119.264,20.2562 119.29,22.7624 119.187,24.1318 C119.161,24.9327 118.774,25.4753 117.998,25.7595 L118.024,25.9145 C118.567,25.8112 120.195,25.7595 120.789,25.7595 C121.435,25.7595 123.063,25.7853 123.605,25.9145 L123.631,25.7595 C122.882,25.4236 122.494,24.881 122.442,24.1318 C122.339,22.5815 122.365,20.5146 122.365,18.4218 L122.365,16.2256 C123.011,15.0371 123.812,14.4687 125.285,14.4687 C126.499,14.4687 127.532,15.2696 127.946,16.3031 L128.101,16.1998 L128.178,12.8668 Z" id="Path" fill="url(#linearGradient-9)" fill-rule="nonzero"></path>
                <path d="M139.908,23.5116 C138.848,24.5709 137.996,24.9843 136.988,25.036 C135.644,25.036 134.973,24.4159 134.947,22.5556 C134.947,20.3853 134.869,18.37 134.869,13.8485 L139.158,13.8485 L139.158,12.66 L134.869,12.66 L134.869,11.9107 C134.869,10.9548 134.947,9.5079 134.973,8.7069 L134.663,8.6811 C134.043,10.9548 131.691,13.0992 128.953,13.5126 L129.03,13.8485 L131.691,13.8485 C131.691,17.9825 131.614,20.2045 131.614,22.5556 C131.511,24.9843 132.673,26.3278 135.257,26.3278 C137.737,26.3278 139.107,25.346 140.114,23.6925 L139.908,23.5116 Z" id="Path" fill="url(#linearGradient-10)" fill-rule="nonzero"></path>
            </g>
        </g>
    </g>
</svg>