<svg width="54" height="54" viewBox="0 0 54 54" fill="none" xmlns="http://www.w3.org/2000/svg">
<path fill-rule="evenodd" clip-rule="evenodd" d="M49.7183 0H3.61497C1.6268 0 0 1.62613 0 3.61497V24.4394C2.61773 40.7107 17.043 53.1845 34.5023 53.3333H35.0944C35.3857 53.3305 35.6757 53.3236 35.9653 53.3144V53.3333H49.7183C51.7065 53.3333 53.3333 51.7065 53.3333 49.7183V3.61497C53.3333 1.6268 51.7072 0 49.7183 0ZM23.5986 53.3333C11.2893 48.974 2.05062 38.1217 0 24.8934V49.7183C0 51.7065 1.6268 53.3333 3.61497 53.3333H23.5986ZM28.2774 15.349L28.2771 15.3481L28.2774 15.3477V15.349ZM28.2771 15.3481C27.9424 14.5951 26.9409 11.9646 26.9409 11.3382H14.7C13.2376 11.3382 11.0234 11.255 9.56108 11.1298L9.51912 11.3382C10.48 11.7977 10.7724 12.1739 10.8143 13.1348C10.9118 15.1844 10.9084 17.3353 10.9021 21.2454V21.2455C10.9003 22.3562 10.8982 23.6089 10.8982 25.0415C10.8982 26.4735 10.9003 27.7254 10.9022 28.836C10.9086 32.715 10.9122 34.8696 10.8143 36.9482C10.7724 37.9091 10.48 38.2847 9.51912 38.7448L9.56108 38.912C10.3949 38.7305 11.7948 38.7381 12.7509 38.7433C12.8967 38.7441 13.0322 38.7448 13.1537 38.7448C13.8643 38.7448 15.577 38.7868 16.5379 38.912L16.5799 38.7448C15.619 38.2853 15.3266 37.9091 15.2847 36.9482C15.1861 35.6658 15.1911 34.4355 15.1977 32.8089V32.8086C15.1995 32.3683 15.2014 31.899 15.2014 31.3917V25.3758V25.2919C23.5148 25.2919 24.4757 25.6262 24.9352 27.4641L25.1443 27.4222C25.0191 26.4612 24.9771 25.7507 24.9771 24.6233C24.9771 23.4952 25.0191 22.8266 25.1443 21.8238L24.9352 21.7818C24.4757 23.4946 23.5148 23.8708 15.2014 23.996V18.6899C15.2014 18.2712 15.1997 17.8717 15.198 17.4801V17.48C15.1913 15.9567 15.1851 14.5511 15.2847 12.5901C16.0856 12.4901 16.833 12.4967 17.5911 12.5035L17.5913 12.5035C17.7823 12.5052 17.974 12.5069 18.1674 12.5069C22.0111 12.5069 25.3534 13.1335 28.069 15.5981L28.2771 15.3481ZM48.1786 37.3928C48.2111 38.1365 48.4371 38.4275 49.1808 38.7827L49.1814 38.7814L49.149 38.9106C48.6963 38.8139 46.9504 38.7814 46.4652 38.7814C45.9482 38.7814 44.2022 38.8139 43.7495 38.9106L43.717 38.7814C44.3315 38.4904 44.6868 38.1994 44.7192 37.3914C44.7943 35.7623 44.7916 34.1723 44.7866 31.1759C44.7852 30.3064 44.7835 29.3184 44.7835 28.1767C44.7835 25.5776 44.8307 23.7462 44.8681 22.2972C44.8926 21.3487 44.9128 20.5639 44.9128 19.835C44.0755 21.5095 43.2382 23.4408 41.7803 26.8036C41.6051 27.2077 41.421 27.6325 41.2268 28.08C39.666 31.6352 38.6719 34.1584 37.9232 36.0589C37.5552 36.993 37.2464 37.7767 36.9588 38.4586H35.8923C35.2265 36.879 34.1833 34.6591 32.677 31.4536C32.21 30.4597 31.6984 29.3711 31.1398 28.1774C30.2205 26.2089 29.5564 24.7705 29.0257 23.6209C28.3621 22.1836 27.907 21.1977 27.4219 20.1916L27.1959 19.8038C27.2021 19.9262 27.2085 20.0498 27.2149 20.1753C27.3087 22.0059 27.4219 24.2142 27.4219 28.1781C27.4219 33.1573 27.5194 35.3234 27.6162 37.3928C27.6486 38.1683 28.0039 38.4918 28.6184 38.7827L28.5859 38.912C28.1007 38.8152 27.3245 38.7827 26.8075 38.7827C26.3223 38.7827 25.5143 38.8152 25.0291 38.912L24.9966 38.7827C25.6754 38.4275 25.9663 38.169 25.9988 37.3928C26.0963 35.3234 26.193 33.1573 26.193 28.1781C26.193 27.0718 26.1946 26.1042 26.196 25.2461C26.2008 22.2164 26.2035 20.5506 26.1281 18.9634C26.0956 18.2839 25.8696 17.9287 25.1259 17.5727L25.1584 17.411C25.5136 17.5084 26.775 17.5727 27.4213 17.5727C27.7104 17.5727 28.3523 17.5527 28.919 17.535C29.367 17.521 29.7681 17.5084 29.9109 17.5084C30.6517 19.2282 31.8687 21.8786 33.5619 25.566C33.9381 26.3851 34.3377 27.2554 34.7608 28.1781L37.5732 34.1595C38.2692 32.6327 38.9338 31.0279 39.4917 29.6809C39.7371 29.0883 39.9619 28.5455 40.1596 28.0813C41.7204 24.4973 42.788 21.8558 43.586 19.8814C43.9616 18.9522 44.2775 18.1707 44.5568 17.5084C44.6643 17.5084 44.9772 17.5195 45.3436 17.5324C45.8611 17.5507 46.4852 17.5727 46.7879 17.5727C47.5641 17.5727 48.4046 17.5078 49.1483 17.411L49.1808 17.5727C48.4371 17.8644 48.2111 18.2197 48.1786 18.9634C48.1028 20.5464 48.1056 22.2076 48.1106 25.2221C48.112 26.0862 48.1136 27.0615 48.1136 28.1781C48.1136 29.2761 48.1121 30.2373 48.1107 31.0908C48.1058 34.1079 48.1031 35.7798 48.1786 37.3928Z" fill="url(#paint0_linear_67_5682)"/>
<defs>
<linearGradient id="paint0_linear_67_5682" x1="9.79195" y1="42.7625" x2="57.0396" y2="9.22216" gradientUnits="userSpaceOnUse">
<stop stop-color="#06194F"/>
<stop offset="0.4" stop-color="#0B2A93"/>
<stop offset="1" stop-color="#0091C9"/>
</linearGradient>
</defs>
</svg>
