<?xml version="1.0" encoding="UTF-8"?>
<svg width="80px" height="80px" viewBox="0 0 80 80" version="1.1" xmlns="http://www.w3.org/2000/svg" xmlns:xlink="http://www.w3.org/1999/xlink">
    <!-- Generator: Sketch 62 (91390) - https://sketch.com -->
    <title>Shape</title>
    <desc>Created with Sketch.</desc>
    <g id="Home-Page_17/09/2020" stroke="none" stroke-width="1" fill="none" fill-rule="evenodd">
        <path d="M40,0 C62.09139,0 80,17.90861 80,40 C80,62.09139 62.09139,80 40,80 C17.90861,80 0,62.09139 0,40 C0,17.90861 17.90861,0 40,0 Z M40,2.95454545 C19.5403604,2.95454545 2.95454545,19.5403604 2.95454545,40 C2.95454545,60.4596396 19.5403604,77.0454545 40,77.0454545 C60.4596396,77.0454545 77.0454545,60.4596396 77.0454545,40 C77.0454545,19.5403604 60.4596396,2.95454545 40,2.95454545 Z M25.1967451,52.9545455 C25.7462419,52.9545455 26.0301486,53.1604214 26.0484652,53.5721734 L26.0494126,53.6155029 L26.0494126,55.0633143 L28.7653164,55.0633143 L28.8188264,55.0640441 C29.309491,55.0776667 29.5548234,55.2820055 29.5548234,55.6770605 C29.5548234,56.0721155 29.309491,56.2764542 28.8188264,56.2900768 L28.7653164,56.2908066 L26.0494126,56.2908066 L26.0494126,62.0663153 L26.0484363,62.1111127 C26.0302116,62.521886 25.7568413,62.7272727 25.2283254,62.7272727 C24.6788286,62.7272727 24.3949219,62.5213967 24.3766053,62.1096448 L24.3756579,62.0663153 L24.3756579,56.2908066 L23.7282622,56.2908066 L23.6739836,56.2900238 C23.1943582,56.2759327 22.9545455,56.0716116 22.9545455,55.6770605 C22.9545455,55.2825094 23.1943582,55.0781883 23.6739836,55.0640971 L23.7282622,55.0633143 L24.3756579,55.0633143 L24.3756579,53.6155029 L24.3766342,53.5707055 C24.3948589,53.1599321 24.6682292,52.9545455 25.1967451,52.9545455 Z M39.7552529,55.000366 L39.8563989,55.0008284 C41.9977099,55.0205588 43.084837,55.6716606 43.1177803,56.954134 L43.1185524,57.0147123 L43.1185524,58.7772654 L43.1176259,58.8170096 C43.101591,59.1546959 42.8774104,59.3300331 42.4450842,59.343021 L42.392206,59.3438003 L33.4076172,59.3438003 L33.4076172,60.3037623 L33.4084289,60.3463234 C33.4354746,61.0485075 34.1383937,61.4066214 35.5171861,61.4206651 L35.6024464,61.421095 L37.9393869,61.421095 L37.9928969,61.4218248 C38.4835615,61.4354474 38.7288938,61.6397862 38.7288938,62.0348412 C38.7288938,62.4298962 38.4835615,62.634235 37.9928969,62.6478575 L37.9393869,62.6485873 L35.6024464,62.6485873 L35.4990204,62.648162 C33.0341583,62.6277503 31.7846101,61.8726578 31.7503759,60.3828847 L31.7496526,60.3194993 L31.7496526,57.2350315 L31.7503756,57.1707279 C31.7826629,55.7454156 32.896332,55.0221228 35.091383,55.0008495 L35.1919028,55.000366 L39.7552529,55.000366 Z M53.682155,55.000366 L53.7833011,55.0008284 C55.9246121,55.0205588 57.0117392,55.6716606 57.0446824,56.954134 L57.0454545,57.0147123 L57.0454545,58.7772654 L57.0445281,58.8170096 C57.0284932,59.1546959 56.8043126,59.3300331 56.3719864,59.343021 L56.3191082,59.3438003 L47.3345193,59.3438003 L47.3345193,60.3037623 L47.335331,60.3463234 C47.3623768,61.0485075 48.0652959,61.4066214 49.4440883,61.4206651 L49.5293486,61.421095 L51.8662891,61.421095 L51.9197991,61.4218248 C52.4104637,61.4354474 52.655796,61.6397862 52.655796,62.0348412 C52.655796,62.4298962 52.4104637,62.634235 51.9197991,62.6478575 L51.8662891,62.6485873 L49.5293486,62.6485873 L49.4259226,62.648162 C46.9610604,62.6277503 45.7115123,61.8726578 45.6772781,60.3828847 L45.6765548,60.3194993 L45.6765548,57.2350315 L45.6772778,57.1707279 C45.7095651,55.7454156 46.8232342,55.0221228 49.0182852,55.0008495 L49.118805,55.000366 L53.682155,55.000366 Z M39.6289317,56.2435954 L35.2866436,56.2435954 L35.2075357,56.2440869 C34.0336758,56.2588338 33.4339865,56.6053844 33.4084678,57.2837388 L33.4076172,57.329454 L33.4076172,58.2579417 L41.3342667,58.2579417 C41.4091237,58.2579417 41.4507109,58.2289285 41.4590283,58.1709021 L41.4605878,58.1477822 L41.4605878,57.329454 L41.4597586,57.2837388 C41.4348833,56.6053844 40.8503122,56.2588338 39.7060454,56.2440869 L39.6289317,56.2435954 Z M53.5558339,56.2435954 L49.2135458,56.2435954 L49.1344379,56.2440869 C47.960578,56.2588338 47.3608887,56.6053844 47.33537,57.2837388 L47.3345193,57.329454 L47.3345193,58.2579417 L55.2611689,58.2579417 C55.3360258,58.2579417 55.377613,58.2289285 55.3859305,58.1709021 L55.38749,58.1477822 L55.38749,57.329454 L55.3866608,57.2837388 C55.3617855,56.6053844 54.7772144,56.2588338 53.6329476,56.2440869 L53.5558339,56.2435954 Z M52.5103002,17.5 C56.1361739,17.5 58.9969019,18.7317271 61.1340091,20.9136265 C63.1040671,22.9303574 64.0909091,25.3602254 64.0909091,28.2034032 C64.0909091,31.3036153 62.8039829,34.5765939 60.2306486,38.0221662 L51.3529558,49.5454545 L45.6177733,49.5454545 L57.6475589,33.9548592 C59.0911746,31.787724 59.5145385,30.044173 59.5145385,28.1529806 C59.5145385,26.1013684 59.0018227,24.7151789 57.6475589,23.3597264 C56.2351948,21.9856246 54.467495,21.1922459 52.5103002,21.1922459 C50.514861,21.1922459 48.5062997,22.0281039 47.1329568,23.4400227 C46.2270304,24.3581196 45.7174462,25.2635863 45.4723511,26.3441511 L45.4318178,26.5372993 L45.3986669,26.7209338 L45.3634981,26.9624377 L45.3405127,27.1567028 L45.3149265,27.4285013 L45.2922216,27.8419837 C45.2873871,27.9808185 45.2848836,28.1212938 45.2848836,28.2660861 C45.2848836,28.3917972 45.2878188,28.5165586 45.2939482,28.6405429 L45.300164,28.7379344 C45.3061208,28.8295412 45.3121639,28.9205436 45.3216603,29.0108553 L45.3338329,29.1123912 C45.3433292,29.2015805 45.3544658,29.2903381 45.3677607,29.3781459 L45.3833865,29.4697527 C45.3984943,29.5611868 45.4145517,29.6528799 45.4333717,29.7426736 L45.4831196,29.9612866 L45.5266085,30.132337 L45.5781261,30.3113631 L45.6382336,30.4997031 L45.6932044,30.657673 L45.7590097,30.8329757 C45.8030382,30.944009 45.8500882,31.0539199 45.8992102,31.1630537 C45.6220035,31.9303577 45.2203948,32.6943808 44.6749598,33.5157337 L43.1832581,35.4485421 C42.4369656,34.595768 41.8605958,33.6567725 41.4519078,32.6323703 L41.3220626,32.2905684 C41.2845952,32.1854063 41.2501494,32.0783446 41.2151857,31.9716283 L41.1697759,31.8240731 C41.1405963,31.7277177 41.1135749,31.6303261 41.0870715,31.5323301 L41.0386402,31.3451449 L40.9742377,31.0710152 L40.9290006,30.8524022 L40.8803967,30.592605 L40.8406847,30.3450681 L40.8062389,30.0999487 L40.789739,29.959603 L40.7752463,29.8182211 C40.7672176,29.743278 40.7586709,29.6695436 40.7528868,29.5943414 L40.7407789,29.4274137 L40.7308725,29.2597737 C40.7277646,29.1978679 40.7227575,29.1365664 40.7204266,29.074747 C40.7132612,28.8989586 40.7088583,28.7214435 40.7088583,28.5427196 C40.7088583,28.3440511 40.7138655,28.1482319 40.7227575,27.9543122 L40.7366567,27.7369079 C40.7435631,27.6193128 40.7516781,27.502063 40.7616061,27.3861946 L40.7903541,27.1149142 L40.8065087,26.9775903 L40.8463609,26.6864517 L40.8883606,26.4306693 L40.9407308,26.1518881 L40.9849859,25.9412507 L40.9934894,25.9058082 C41.0253165,25.7648436 41.0607887,25.6257594 41.0984223,25.4878648 L41.1722579,25.2271646 L41.1885959,25.1729538 C41.2286532,25.0408535 41.2708208,24.9104417 41.3155846,24.7814113 L41.398206,24.5486289 L41.4000189,24.549147 C42.029108,22.874409 43.0908847,21.4205289 44.5903561,20.1912193 C46.6667731,18.4910974 49.3208263,17.5 52.5103002,17.5 Z M30.7918348,36.6187951 C31.878175,37.6837234 33.0886301,38.4564937 34.4103168,38.9376099 L34.6594334,39.0244015 L26.5525841,49.5454545 L20.8176606,49.5454545 L30.7918348,36.6187951 Z M49.9857425,22.4438312 C51.1207273,24.1257354 51.6900758,26.0452473 51.6900758,28.2034032 C51.6900758,31.3036153 50.4032359,34.5765939 47.8302469,38.0221662 L38.59342,49.5454545 L32.8545253,49.5454545 L45.2468982,33.9548592 C46.6915499,31.787724 47.1149138,30.044173 47.1149138,28.1529806 C47.1149138,27.0640599 46.9681523,26.1630152 46.6298237,25.3540089 C46.878714,24.8775845 47.216093,24.4275802 47.6689818,23.9692009 C48.3081716,23.3121531 49.108799,22.7922996 49.9857425,22.4438312 Z M50.5868605,35.1581805 C50.7955425,35.2117329 51.0087892,35.2546979 51.225945,35.2885688 L51.4443797,35.3194637 L51.5383934,35.3307742 L51.7073095,35.3479559 L51.9889513,35.3690229 C52.1343316,35.3767071 52.2794529,35.3817149 52.4280274,35.3817149 C52.7730724,35.3817149 53.1083932,35.3596118 53.434255,35.3174834 L53.6768819,35.2821648 L51.0392314,38.7049434 C50.7822261,38.7297229 50.5273789,38.7450915 50.277539,38.7450915 C50.1167919,38.7450915 49.9571671,38.7410335 49.798751,38.7336946 L49.5370298,38.7173763 L49.3219486,38.6995039 C49.1121659,38.6795306 48.9068724,38.6531489 48.7046356,38.6200775 L48.4029623,38.5654178 L48.4668467,38.4823587 C49.3040782,37.3619239 50.0107783,36.2532313 50.5868605,35.1581805 Z M27.7107054,17.5 C31.3364065,17.5 34.1969618,18.7317271 36.3335511,20.9136265 C38.3042134,22.930271 39.2904511,25.3602254 39.2904511,28.2034032 C39.2904511,30.1590053 38.7762676,32.1840248 37.75239,34.277512 C36.9150721,33.9675512 36.162876,33.4677287 35.4834563,32.7691513 C34.9719492,32.250075 34.5683549,31.7011249 34.2682707,31.1169481 C34.593736,30.1141948 34.7149438,29.1544388 34.7149438,28.1529806 C34.7149438,26.1013684 34.20171,24.7151789 32.8470145,23.3597264 C31.4351684,21.9856246 29.6677276,21.1922459 27.7107054,21.1922459 C25.714921,21.1922459 23.7067913,22.0281039 22.3331894,23.4400227 C20.939818,24.8516825 20.4842529,26.2330369 20.4842529,28.2660861 C20.4842529,30.1862024 21.1807659,31.8523927 22.5739647,33.2640525 C23.9474802,34.6756259 25.6319575,35.3817149 27.6280873,35.3817149 C27.9734777,35.3817149 28.3085913,35.3596118 28.6343122,35.3174834 L28.8768555,35.2821648 L26.2388597,38.7049434 C25.9818543,38.7297229 25.7276115,38.7450915 25.4776852,38.7450915 C22.9503649,38.7450915 20.7684523,37.8418882 18.9335012,36.0361724 C16.9167385,34.0496606 15.9090909,31.552361 15.9090909,28.5427196 C15.9090909,25.0968019 17.2033552,22.3126807 19.790934,20.1912193 C21.867092,18.4910974 24.5207999,17.5 27.7107054,17.5 Z M30.1084439,22.4279446 C30.9043232,22.7575909 31.6521165,23.2480888 32.3218671,23.8994381 C32.795389,24.3728406 33.1439045,24.8420987 33.3973703,25.3458929 C33.0276176,26.1953927 32.8846545,27.1286423 32.8846545,28.2660861 C32.8846545,30.1862024 33.580736,31.8523927 34.9731578,33.2640525 C36.3478819,34.6756259 38.0323592,35.3817149 40.0276257,35.3817149 C40.3726708,35.3817149 40.7080468,35.3596118 41.0340633,35.3174834 L41.2768255,35.2821648 L38.6397794,38.7049434 C38.381997,38.7297229 38.1277542,38.7450915 37.8783459,38.7450915 C35.3509393,38.7450915 33.1690266,37.8418882 31.3327806,36.0361724 C29.3161042,34.0496606 28.3088883,31.552361 28.3088883,28.5427196 C28.3088883,26.1975512 28.9098337,24.1602714 30.1084439,22.4279446 Z M40.1105028,17.5 C42.1518697,17.5 43.9503894,17.8906887 45.5139179,18.6209529 C45.0273602,18.9170992 44.5593635,19.2435509 44.1137264,19.6085103 C43.4002925,20.1930325 42.7785415,20.8344527 42.2452791,21.5231009 C41.5665501,21.3069054 40.852253,21.1922459 40.1105028,21.1922459 C39.3511413,21.1922459 38.5898805,21.3140717 37.8626338,21.5420094 C37.561341,21.1420823 37.2321634,20.7553652 36.8722523,20.3866069 C36.2049189,19.7057292 35.4730967,19.1236246 34.688354,18.6307093 C36.2709616,17.9018266 38.0823445,17.5 40.1105028,17.5 Z" id="Shape" fill="#FFFFFF"></path>
    </g>
</svg>