<svg width="24" height="24" viewBox="0 0 24 24" fill="none" xmlns="http://www.w3.org/2000/svg">
<path d="M22 6.85474C22 6.09069 21.7078 5.35807 21.1878 4.81795C20.6679 4.27783 19.9626 3.97427 19.2271 3.97427H18.3222V2.52366C18.3222 2.23452 18.0964 2 17.8179 2C17.5396 2 17.3138 2.23453 17.3138 2.52366V3.97427H12.5041V2.52366C12.5041 2.23452 12.2785 2 12 2C11.7215 2 11.4959 2.23453 11.4959 2.52366V3.97427H6.68619V2.52366C6.68619 2.23452 6.46042 2 6.18208 2C5.90356 2 5.67779 2.23453 5.67779 2.52366V3.97427H4.77293C4.03741 3.97427 3.33213 4.27784 2.81218 4.81795C2.29223 5.35807 2 6.09069 2 6.85474V19.1197C2 19.8836 2.29224 20.6162 2.81218 21.1563C3.33213 21.6966 4.03741 22 4.77293 22H19.2268C19.9623 22 20.6676 21.6966 21.1875 21.1563C21.7075 20.6162 21.9997 19.8836 21.9997 19.1197L22 6.85474ZM20.9918 19.1225C20.9918 19.6086 20.8058 20.0749 20.4748 20.4186C20.1439 20.7624 19.6952 20.9554 19.2271 20.9554H4.77324C4.30519 20.9554 3.85645 20.7624 3.52551 20.4186C3.19459 20.0749 3.00858 19.6086 3.00858 19.1225V10.285H20.992L20.9918 19.1225ZM20.9918 9.2404H3.0084V6.8575C3.0084 6.37144 3.19443 5.90515 3.52533 5.56138C3.85625 5.21762 4.30497 5.02458 4.77306 5.02458H5.67806V6.4752H5.67789C5.67789 6.76452 5.90366 6.99885 6.18217 6.99885C6.46052 6.99885 6.68628 6.76451 6.68628 6.4752V5.02201H11.496V6.47262C11.496 6.76177 11.7216 6.99628 12.0001 6.99628C12.2786 6.99628 12.5042 6.76176 12.5042 6.47262V5.02201H17.3139V6.47262C17.3139 6.76177 17.5397 6.99628 17.818 6.99628C18.0965 6.99628 18.3223 6.76176 18.3223 6.47262V5.02201H19.2273H19.2271C19.6952 5.02201 20.1439 5.21507 20.4749 5.55881C20.8058 5.90256 20.9918 6.36868 20.9918 6.85493L20.9918 9.2404Z" fill="#B8B8B8"/>
</svg>
