<svg width="43" height="43" viewBox="0 0 43 43" fill="none" xmlns="http://www.w3.org/2000/svg">
<path d="M30.5313 23.3731C29.9888 22.8306 29.1752 22.8306 28.6327 23.3731L22.6654 29.3404V11.0321C22.6654 10.2862 22.0552 9.67603 21.3093 9.67603C20.5634 9.67603 19.9533 10.2862 19.9533 11.0321V29.3404L13.3759 22.763C12.8333 22.2204 12.0198 22.2204 11.4772 22.763C10.9347 23.3055 10.9347 24.119 11.4772 24.6616L20.36 33.5444C20.4958 33.6801 20.631 33.7478 20.7668 33.8154C20.9025 33.8831 21.1059 33.9512 21.3093 33.9512C21.5127 33.9512 21.6485 33.8835 21.8518 33.8154C21.9876 33.7478 22.191 33.6797 22.2586 33.5444L30.5313 25.2036C31.0062 24.7292 31.0062 23.8475 30.5313 23.3731H30.5313Z" fill="white"/>
</svg>
