<?xml version="1.0" encoding="UTF-8"?>
<svg width="26px" height="52px" viewBox="0 0 26 52" version="1.1" xmlns="http://www.w3.org/2000/svg" xmlns:xlink="http://www.w3.org/1999/xlink">
    <title>Artboard</title>
    <g id="Artboard" stroke="none" stroke-width="1" fill="none" fill-rule="evenodd">
        <g id="down-arrow" fill="#212024" fill-rule="nonzero">
            <path d="M12.2488,16.8911 L12.2488,7.2637 C12.2488,6.84204 12.6017,6.50019 13.0094,6.50019 C13.4296,6.50019 13.7701,6.85239 13.7701,7.2637 L13.7701,16.8721 L16.7603,13.8818 C17.0507,13.5915 17.5373,13.588 17.8353,13.886 C18.1245,14.1751 18.135,14.6651 17.8394,14.9607 L13.6023,19.1979 C13.5841,19.2211 13.5644,19.2432 13.5431,19.2644 C13.3935,19.4142 13.1962,19.4877 13,19.4872025 C12.8037,19.4877 12.6064,19.4142 12.4568,19.2644 C12.4356,19.2432 12.4158,19.2211 12.3977,19.1979 L8.16052,14.9607 C7.8649,14.6651 7.87542,14.1751 8.16469,13.886 C8.46267,13.588 8.94924,13.5915 9.23961,13.8818 L12.2488,16.8911 Z M0,13 C0,5.82029 5.82029,0 13,0 C20.1797,0 26,5.82029 26,13 C26,20.1797 20.1797,26 13,26 C5.82029,26 0,20.1797 0,13 Z M1.44435,13 C1.44435,19.3821 6.61788,24.5556 13,24.5556 C19.382,24.5556 24.5556,19.3821 24.5556,13 C24.5556,6.61793 19.382,1.44439 13,1.44439 C6.61788,1.44439 1.44435,6.61793 1.44435,13 Z" id="Shape"></path>
        </g>
        <g id="down-arrow-copy" transform="translate(0.000000, 26.000000)" fill="#FFFFFF" fill-rule="nonzero">
            <path d="M12.2488,16.8911 L12.2488,7.2637 C12.2488,6.84204 12.6017,6.50019 13.0094,6.50019 C13.4296,6.50019 13.7701,6.85239 13.7701,7.2637 L13.7701,16.8721 L16.7603,13.8818 C17.0507,13.5915 17.5373,13.588 17.8353,13.886 C18.1245,14.1751 18.135,14.6651 17.8394,14.9607 L13.6023,19.1979 C13.5841,19.2211 13.5644,19.2432 13.5431,19.2644 C13.3935,19.4142 13.1962,19.4877 13,19.4872025 C12.8037,19.4877 12.6064,19.4142 12.4568,19.2644 C12.4356,19.2432 12.4158,19.2211 12.3977,19.1979 L8.16052,14.9607 C7.8649,14.6651 7.87542,14.1751 8.16469,13.886 C8.46267,13.588 8.94924,13.5915 9.23961,13.8818 L12.2488,16.8911 Z M0,13 C0,5.82029 5.82029,0 13,0 C20.1797,0 26,5.82029 26,13 C26,20.1797 20.1797,26 13,26 C5.82029,26 0,20.1797 0,13 Z M1.44435,13 C1.44435,19.3821 6.61788,24.5556 13,24.5556 C19.382,24.5556 24.5556,19.3821 24.5556,13 C24.5556,6.61793 19.382,1.44439 13,1.44439 C6.61788,1.44439 1.44435,6.61793 1.44435,13 Z" id="Shape"></path>
        </g>
    </g>
</svg>