<svg width="32" height="32" viewBox="0 0 32 32" fill="none" xmlns="http://www.w3.org/2000/svg">
<path d="M5.76748 9C5.35118 9 5 9.35502 5 9.7759V23.2241C5 23.645 5.35117 24 5.76748 24H26.2325C26.6488 24 27 23.645 27 23.2241V9.7759C27 9.35503 26.6488 9 26.2325 9H5.76748ZM6.79064 10.0344H25.2092L15.9999 18.6418L6.79064 10.0344ZM6.02316 10.7132L11.9306 16.2412L6.02316 22.2134V10.7132ZM25.9766 10.7132V22.2134L20.0691 16.2412L25.9766 10.7132ZM12.6825 16.9362L15.6564 19.7245V19.7247C15.8515 19.9034 16.1487 19.9034 16.3438 19.7247L19.3177 16.9364L25.2813 22.9655H6.71893L12.6826 16.9364L12.6825 16.9362Z" fill="white"/>
<path d="M5 1H27V-1H5V1ZM31 5V27H33V5H31ZM27 31H5V33H27V31ZM1 27V5H-1V27H1ZM5 31C2.79086 31 1 29.2091 1 27H-1C-1 30.3137 1.68629 33 5 33V31ZM31 27C31 29.2091 29.2091 31 27 31V33C30.3137 33 33 30.3137 33 27H31ZM27 1C29.2091 1 31 2.79086 31 5H33C33 1.68629 30.3137 -1 27 -1V1ZM5 -1C1.68629 -1 -1 1.68629 -1 5H1C1 2.79086 2.79086 1 5 1V-1Z" fill="white"/>
</svg>
