<svg width="112" height="112" viewBox="0 0 112 112" fill="none" xmlns="http://www.w3.org/2000/svg">
<path d="M94.1437 64.9975L89.9197 42.0855C88.5116 34.6615 81.3437 29.6695 73.9197 30.9497C70.3357 31.5899 67.1357 33.6381 65.0875 36.7095H46.9114C44.8632 33.7657 41.6632 31.5899 38.0792 30.9497C34.4952 30.3095 30.7828 31.0774 27.7114 33.1256C24.6392 35.1738 22.5919 38.3738 21.9517 41.9578L17.8561 64.9978C16.4481 72.4218 21.4401 79.7173 28.9919 80.9978C29.8883 81.1255 30.6562 81.2541 31.5517 81.2541C34.3677 81.2541 37.0552 80.3576 39.3597 78.8218C42.4319 76.7736 44.4792 73.5736 45.1194 69.9896L45.6311 67.4298H66.7506L67.2622 69.9896C67.9024 73.5736 69.9507 76.7736 73.022 78.8218C76.0942 80.87 79.6782 81.7656 83.3898 80.9977C90.5594 79.7182 95.5514 72.4217 94.1434 64.9977L94.1437 64.9975ZM46.1437 63.4617L46.6553 60.6457H65.3438L65.8554 63.4617H46.1437ZM82.3677 77.2857C79.8079 77.7973 77.1195 77.1581 74.9437 75.6215C72.7678 74.0857 71.2321 71.7812 70.8472 69.2215L68.7999 58.4697C68.6722 57.5732 67.7758 56.934 66.8803 56.934H45.1196C44.2231 56.934 43.4553 57.5741 43.1999 58.4697L41.2803 69.3501C40.7687 71.9099 39.3607 74.2144 37.1839 75.7501C35.008 77.2859 32.3196 77.7984 29.7599 77.4144C24.3839 76.3903 20.8001 71.2706 21.6956 65.7662L25.9196 42.8542C26.4312 40.2944 27.8393 37.99 30.0161 36.4542C32.192 34.9185 34.8803 34.406 37.4401 34.7899C40.2561 35.3015 42.8161 37.0935 44.2241 39.6541C44.608 40.2943 45.2482 40.6783 45.8884 40.6783H66.1124C66.7525 40.6783 67.3927 40.2943 67.7766 39.6541C69.1847 37.0944 71.7444 35.3024 74.5606 34.7899C79.9366 33.7658 85.1846 37.3497 86.2089 42.8541L90.4329 65.7661C91.3275 71.1412 87.7435 76.2617 82.3677 77.2857L82.3677 77.2857ZM35.5197 40.9337C31.6794 40.9337 28.4794 44.1337 28.4794 47.974C28.4794 51.8142 31.6794 55.0142 35.5197 55.0142C39.3599 55.0142 42.5599 51.8142 42.5599 47.974C42.5599 44.1337 39.3599 40.9337 35.5197 40.9337ZM35.5197 51.173C33.7277 51.173 32.3197 49.765 32.3197 47.973C32.3197 46.1811 33.7277 44.773 35.5197 44.773C37.3116 44.773 38.7197 46.1811 38.7197 47.973C38.7197 49.765 37.3116 51.173 35.5197 51.173ZM83.5197 47.973C83.5197 48.9972 82.6232 49.8927 81.6 49.8927H78.4V53.0927C78.4 54.1168 77.5036 55.0123 76.4804 55.0123C75.4563 55.0123 74.5608 54.1159 74.5608 53.0927V49.8927L71.3599 49.8936C70.3358 49.8936 69.4402 48.9971 69.4402 47.9739C69.4402 46.9498 70.3367 46.0543 71.3599 46.0543H74.5599V42.8543C74.5599 41.8302 75.4563 40.9347 76.4795 40.9347C77.5036 40.9347 78.3991 41.8311 78.3991 42.8543V46.0543L81.6 46.0534C82.7518 46.0534 83.5197 46.949 83.5197 47.973Z" fill="white"/>
</svg>
