<svg width="89" height="105" viewBox="0 0 89 105" fill="none" xmlns="http://www.w3.org/2000/svg">
<g filter="url(#filter0_f_164_1102)">
<path d="M52.9714 91.6307C52.5741 91.6879 50.985 91.6879 50.3607 91.2877C50.3607 90.7161 50.8147 90.6589 51.212 89.9157C51.6093 89.1726 51.9498 89.1154 52.6876 88.8868C53.4255 88.6581 54.1633 88.1436 54.6741 87.2861C55.1849 86.4286 56.8876 83.3417 57.2281 82.1412C57.5686 80.9407 56.8308 80.5406 55.6957 79.8546C54.5606 79.1686 51.3823 77.225 50.1904 76.196C48.9985 75.167 48.5445 74.5953 48.6012 73.6807C48.658 72.766 48.0337 73.109 48.0904 70.8224C48.1472 68.5358 48.2039 68.9931 49.6796 65.2774C49.5472 65.1059 48.9645 64.5456 47.6931 63.6767C46.104 62.5906 45.3094 62.4762 43.7202 62.4191C42.1311 62.3619 41.0527 61.2758 40.0311 60.4754C39.0095 59.6751 39.123 59.7323 38.5555 59.618C37.9879 59.5036 37.3636 59.5608 36.5123 58.8748C35.6609 58.1888 34.8096 57.1027 34.015 55.4449C33.2204 53.7871 33.2772 52.6438 33.3907 52.0149C33.5042 51.3861 33.3339 51.3289 32.7096 51.3289C32.0853 51.3289 29.361 51.2718 27.8286 51.2146C26.2962 51.1574 27.0341 52.8724 27.0341 54.7017C27.0341 56.531 27.0341 57.3313 28.0557 57.1027C29.0773 56.874 29.361 56.9883 29.361 57.4457C29.361 57.903 29.9286 57.8458 30.0421 57.6743C30.1556 57.5028 30.5529 57.5028 30.7799 58.0173C31.234 58.9891 30.8934 60.4754 30.7799 60.4754C30.6664 60.4754 29.8718 59.8466 29.5313 59.7323C29.1908 59.618 28.4529 59.7323 28.2827 59.2178C28.1124 58.7033 27.3746 58.4175 26.58 58.246C25.7854 58.0745 25.5017 57.903 25.5584 57.2742C25.6152 56.6453 25.4449 56.3595 25.3314 55.3877C25.2179 54.4159 24.8773 51.9578 24.8206 51.4433C24.7638 50.9288 24.48 50.5858 24.8206 49.957C25.1611 49.3281 25.8422 49.0995 26.8638 49.0423C27.8854 48.9851 28.0557 48.8708 29.1908 48.585C29.0016 48.5278 28.3621 48.2992 27.3178 47.8418C26.0125 47.2702 25.1044 47.3273 24.8206 47.8418C24.5368 48.3563 22.7206 51.6719 21.9828 52.8724C21.245 54.0729 21.8693 54.4159 22.7206 54.473L22.747 54.4748C23.5755 54.5303 23.7422 54.5415 23.7422 55.6164H24.3098C25.4449 55.6164 25.1044 57.56 24.3098 58.7033C23.6287 57.2742 23.2314 57.3885 22.7206 57.217C22.2098 57.0455 21.699 56.4738 21.3585 55.845C21.0179 55.2162 20.2801 55.0447 19.8828 54.3587C19.4855 53.6727 19.6558 53.1011 20.0531 52.5866C20.4504 52.0721 20.4504 51.9006 21.1882 50.4715C21.926 49.0423 22.9476 47.2702 22.9476 46.3555C22.9476 45.4409 23.1747 45.4409 23.9692 44.9836C24.7638 44.5262 25.1044 44.8692 26.126 45.0979C27.1476 45.3265 28.6232 45.0979 30.3826 44.8692C32.1421 44.6406 32.9934 44.6977 34.2988 44.2404C33.8447 40.4446 34.9799 35.4941 35.6042 33.4933C29.8718 32.8073 27.9421 31.8926 27.5449 31.5496C27.1476 31.2066 27.0341 31.2638 26.6935 31.321C23.0612 31.321 21.7558 30.5778 20.2801 29.7203C18.8045 28.8629 18.4639 27.7767 18.0099 27.9482C17.5559 28.1197 16.7045 27.8339 16.4775 27.6052C16.2505 27.3765 16.2505 26.9192 16.7045 26.0617C17.1586 25.2043 18.0099 26.0046 18.4639 26.4619C18.918 26.9192 20.0531 27.3765 21.5855 27.3194C25.1044 26.9764 26.6368 28.7485 27.5449 28.0625C28.4529 27.3765 30.3826 27.3765 31.688 27.6052C32.9934 27.8339 33.2204 28.6914 33.9015 28.0625C34.5826 27.4337 36.9663 26.7477 38.2149 28.1197C39.4636 29.4917 40.9392 28.7485 41.0527 28.5199C41.1662 28.2912 40.5419 27.7195 40.7689 27.6052C40.996 27.4909 41.677 26.8049 41.3365 26.9192C40.996 27.0336 40.2014 27.205 39.2933 27.205C38.3852 27.205 38.7257 25.8331 38.8392 25.5472C38.9528 25.2614 38.669 25.0899 38.3852 24.9184C38.1014 24.7469 38.669 24.2324 39.123 23.6036C39.3773 23.2515 39.5203 23.375 39.2933 22.8033C39.0663 22.2316 39.5771 20.9168 39.7473 20.8597C39.35 20.2309 39.8608 18.8589 40.3716 18.916C40.296 18.9923 40.1673 19.2247 40.2581 19.5449C41.7565 18.2644 43.0392 18.4016 43.4932 18.6302C43.3797 18.6302 43.1527 18.6874 43.1527 18.916C44.4581 18.6302 45.3661 18.6874 46.2742 19.0875C46.104 19.0875 45.7294 19.1447 45.5932 19.3734C46.2742 19.3734 46.9553 19.602 47.4094 20.1737C47.3526 20.1356 47.0688 20.0822 46.3878 20.1737C47.1256 20.1737 47.8067 20.5167 47.8067 21.2027C47.7688 21.1455 47.5456 20.9969 46.9553 20.8597C47.8066 21.3742 48.1472 22.2317 47.9769 23.2606C47.9769 22.8605 47.8634 22.8605 47.6364 22.6318C47.3526 25.3186 46.331 24.6898 45.9905 26.4619C45.6499 28.2341 46.104 29.6632 48.5445 29.8919C50.985 30.1205 54.7309 32.1785 56.4335 33.1503C58.1362 34.1221 57.9092 34.8653 56.32 35.7799C54.7309 36.6946 52.1768 36.1801 51.1552 35.8942C50.1336 35.6084 49.6228 34.8653 49.6228 35.7799C49.6228 36.6946 48.5445 37.7807 47.5229 38.238C46.5013 38.6954 45.8202 39.6672 45.6499 40.296C45.4797 40.9248 45.0824 40.3532 44.7418 39.7815C44.4013 39.2098 44.2878 38.9812 44.231 39.6672C43.8678 42.7312 44.8743 44.4119 45.4229 44.8692C46.0472 45.3266 46.8986 46.2984 46.9553 47.1559C47.0121 48.0134 47.0121 47.9562 48.5445 49.5568C50.985 52.3579 51.9498 52.9868 55.1281 53.8442C58.3065 54.7017 60.6902 58.5318 61.0307 59.275C61.3713 60.0181 61.3145 60.9328 61.8253 61.1614C63.6415 62.0761 63.4712 63.9626 63.6415 66.4778C63.8118 68.9931 66.309 68.8216 68.4657 71.6799C68.4279 71.699 68.023 71.6456 66.7063 71.2798C67.3306 71.9658 70.4522 72.4802 71.5873 74.138C68.6927 73.9094 68.6928 74.0809 65.7415 72.3087C66.5928 73.9665 68.5792 74.1952 71.8711 74.8812C76.9791 76.4247 78.2845 79.7403 78.398 81.6267C76.525 77.4537 73.6305 77.7966 73.0062 78.1396C74.5953 78.3111 75.3899 78.597 76.0142 79.9118C73.6872 77.911 73.1197 78.8256 71.5873 78.94C70.0549 79.0543 68.863 78.7685 65.7415 76.2532C62.6199 73.7379 61.9956 71.6799 61.9388 70.8224C61.8821 69.965 61.7118 69.4505 61.655 70.1936C61.5983 70.9368 60.6334 73.9094 61.428 74.7669C62.2226 75.6244 63.301 76.4247 65.3442 77.4537C68.2387 78.8256 66.8766 80.3119 66.7631 81.3409C66.4225 85.514 64.4361 87.4576 64.3226 88.4866C64.2091 89.5156 64.3226 89.9157 63.6415 89.9157C62.9604 89.9157 62.5631 90.0873 62.3361 90.6589C62.1091 91.2306 62.2226 91.6307 61.5983 91.6879C60.974 91.7451 60.6334 91.8022 59.7821 91.6307C58.9308 91.4592 59.101 91.0019 59.7821 90.0873C60.4632 89.1726 60.6334 88.9439 61.4848 88.6581C62.3361 88.3723 62.7902 87.6863 63.0739 86.9431C63.3577 86.2 63.982 82.4842 64.0955 81.6267C64.2091 80.7693 62.6199 80.1404 60.4064 78.94C56.1497 76.3103 55.5254 73.5664 56.0362 71.6799C56.32 70.7653 56.2065 70.4794 55.866 71.1654C54.2768 75.7387 59.6118 78.8256 60.6334 79.6259C61.655 80.4263 61.201 80.9408 60.4632 81.9126C59.7254 82.8844 59.3848 83.9705 58.42 85.7427C57.4551 87.5148 56.2065 88.3723 55.9227 89.3441C55.6389 90.3159 55.7524 90.6017 54.9011 90.5446C54.0498 90.4874 53.7092 90.0301 53.6525 90.7161C53.5957 91.4021 53.3687 91.5735 52.9714 91.6307Z" fill="#FF2800"/>
</g>
<path d="M29.0864 6.04303C29.0864 6.04303 46.5682 30.549 46.3977 31.0785C46.2272 31.6081 15.7658 47.5441 15.7658 47.5441L16.724 46.3941C16.724 46.3941 45.6598 31.2235 45.8056 30.8844C45.9516 30.5452 28.9319 6.65357 28.9319 6.65357L29.0864 6.04303Z" fill="white"/>
<path d="M18.8662 25.728L17.3909 29.8398C17.3909 29.8398 17.0012 30.7373 17.5173 33.4306C18.0333 36.1239 19.0614 39.4924 18.5045 43.408C17.9476 47.3238 15.531 49.2427 13.4495 48.5983C11.3679 47.9539 12.006 45.7386 13.0642 45.6942C14.1224 45.6498 14.7024 46.6218 14.4323 47.2652C14.1621 47.9087 13.6469 47.7901 13.6469 47.7901C13.6469 47.7901 15.0928 48.3774 16.2602 46.6271C17.4277 44.8768 17.5004 43.0111 16.7208 39.9645C15.9413 36.9178 14.611 33.5285 14.2698 31.8263C13.9285 30.1243 14.6301 29.1174 14.9761 28.9026C15.3219 28.6878 16.0997 28.3817 16.2422 28.2517C16.3847 28.1217 17.3873 25.2433 17.3873 25.2433L18.8662 25.728Z" fill="white"/>
<path d="M18.6638 41.706C18.6638 41.706 19.1734 40.6465 19.0807 39.1782C18.988 37.7099 18.097 36.5382 16.9376 35.8077C15.7781 35.0772 14.9157 34.3642 14.8454 33.8579C14.7751 33.3516 15.1067 33.2585 15.1495 33.3987C15.1923 33.5389 14.9821 33.6844 15.3051 33.8912C15.6279 34.098 16.3046 33.7522 16.1198 32.9601C15.9351 32.168 14.6515 32.2137 14.3964 32.8111C14.1412 33.4086 14.1095 34.5852 15.3006 35.8952C16.4917 37.2052 18.0458 38.3343 18.4006 39.1444C18.7554 39.9544 18.6638 41.706 18.6638 41.706Z" fill="#ED1C26"/>
<path d="M15.7328 28.3322C15.7328 28.3322 15.7444 29.1935 16.4767 30.001C17.2089 30.8086 17.4138 30.9136 17.4138 30.9136C17.4138 30.9136 17.882 31.3319 17.7578 31.7956C17.6337 32.2592 16.3606 31.7661 15.6506 30.4993C14.9406 29.2325 15.1388 28.6166 15.1388 28.6166C15.1388 28.6166 15.1502 28.3997 15.3851 28.2876C15.62 28.1754 15.7328 28.3322 15.7328 28.3322Z" fill="white"/>
<path d="M18.7106 26.2597L19.9274 22.0132C19.9274 22.0132 20.1423 21.0336 22.1291 19.1606C24.1159 17.2876 26.9139 15.1609 28.7449 11.6628C30.5759 8.16468 29.7407 5.17362 27.6813 4.4607C25.6218 3.74782 24.8482 5.91553 25.6784 6.57894C26.5086 7.24232 27.5446 6.79843 27.701 6.1177C27.8574 5.43691 27.3716 5.22678 27.3716 5.22678C27.3716 5.22678 28.8838 5.60856 28.8084 7.71682C28.7331 9.8251 27.7049 11.3774 25.299 13.3799C22.8932 15.3825 19.8422 17.3357 18.5743 18.5104C17.3065 19.6851 17.2875 20.9156 17.4422 21.2945C17.5968 21.6734 18.0332 22.4273 18.0727 22.6169C18.1122 22.8066 17.2317 25.7749 17.2317 25.7749L18.7106 26.2597Z" fill="white"/>
<path d="M27.8859 13.117C27.8859 13.117 27.6812 14.2765 26.7511 15.4094C25.821 16.5423 24.4178 16.9617 23.0543 16.8649C21.6909 16.768 20.5779 16.8332 20.2262 17.2011C19.8745 17.569 20.0885 17.841 20.2048 17.7531C20.321 17.665 20.2357 17.4226 20.6175 17.4469C20.9991 17.4711 21.3452 18.1522 20.7344 18.6835C20.1236 19.2148 19.1118 18.4163 19.2533 17.7816C19.3948 17.1468 20.0544 16.1761 21.781 15.823C23.5075 15.4698 25.4223 15.4782 26.1811 15.0334C26.94 14.5885 27.8859 13.117 27.8859 13.117Z" fill="#ED1C26"/>
<path d="M29.7288 8.36389C29.7288 8.36389 30.1679 8.54696 29.9581 9.15951C29.7483 9.77202 28.8108 9.72753 27.7566 10.7709C27.7566 10.7709 27.699 10.5259 28.0834 9.75605C28.4678 8.98625 29.4913 9.58439 29.7288 8.36389Z" fill="white"/>
<path d="M17.3768 46.6362C17.3768 46.6362 17.8387 46.7485 18.0257 46.1285C18.2128 45.5085 17.4283 44.9884 17.1832 43.5191C17.1832 43.5191 16.9939 43.6831 16.8565 44.5339C16.7191 45.3847 17.8956 45.5079 17.3768 46.6362Z" fill="white"/>
<path d="M17.7178 22.1903C17.7178 22.1903 18.2288 21.5004 19.2915 21.2815C20.3542 21.0626 20.5811 21.0991 20.5811 21.0991C20.5811 21.0991 21.2035 21.0384 21.3731 20.5897C21.5427 20.1409 20.2256 19.7847 18.9134 20.3883C17.6012 20.992 17.4029 21.6079 17.4029 21.6079C17.4029 21.6079 17.2858 21.7901 17.4105 22.0202C17.5353 22.2503 17.7178 22.1903 17.7178 22.1903Z" fill="white"/>
<path d="M13.077 47.5979C13.077 47.5979 12.5382 47.1153 12.8298 46.473C13.1214 45.8307 14.0159 46.1745 13.9226 46.8156C13.8293 47.4567 13.3033 47.3694 13.2199 47.1717C13.1365 46.9741 12.9418 47.3739 13.077 47.5979Z" fill="#ED1C26"/>
<path d="M26.8126 5.04257C26.8126 5.04257 26.1051 5.10322 25.9669 5.79587C25.8287 6.48845 26.7431 6.7511 27.041 6.1771C27.3389 5.60304 26.8625 5.3617 26.6799 5.47213C26.4973 5.58253 26.5727 5.14364 26.8126 5.04257Z" fill="#ED1C26"/>
<path d="M16.9076 25.9703C17.0163 25.6611 17.0973 25.4225 17.1575 25.2405C17.2148 25.0576 17.2883 24.8165 17.3805 24.502C17.6679 23.5219 17.6265 23.2551 17.6462 22.9302C17.6659 22.6054 17.9891 22.5977 17.9891 22.5977L19.6271 23.1347C19.8531 23.2088 19.7543 23.4036 19.7543 23.4036L18.1882 28.2665C18.1882 28.2665 18.1618 28.4603 17.9358 28.3862L16.2978 27.8493C16.2978 27.8493 16.0372 27.6627 16.2105 27.3881C16.3838 27.1137 16.5691 26.9336 16.9076 25.9703Z" fill="white"/>
<path d="M27.6396 27.6595C28.0547 27.4198 29.4432 27.26 30.0856 27.21L8.78154 22.488L8.6333 23.0873C10.9557 23.6367 20.6426 26.341 27.6396 27.6595Z" fill="white"/>
<path d="M8.63322 23.9919L9.13874 21.5608L4.58905 21.9L8.63322 23.9919Z" fill="#FFF200"/>
<path d="M70.5721 91.9344C70.5721 92.0171 64.3078 92.0842 56.5804 92.0842C48.853 92.0842 42.5887 92.0171 42.5887 91.9344C42.5887 91.8516 48.853 91.7845 56.5804 91.7845C64.3078 91.7845 70.5721 91.8516 70.5721 91.9344Z" fill="white" fill-opacity="0.5"/>
<path d="M52.7369 91.9698C52.3396 92.027 50.7504 92.027 50.1261 91.6268C50.1261 91.0552 50.5801 90.998 50.9774 90.2549C51.3747 89.5117 51.7153 89.4545 52.4531 89.2259C53.1909 88.9972 53.9287 88.4827 54.4395 87.6252C54.9503 86.7678 56.653 83.6808 56.9935 82.4803C57.3341 81.2798 56.5962 80.8797 55.4611 80.1937C54.326 79.5077 51.1477 77.5641 49.9558 76.5351C48.764 75.5061 48.3099 74.9345 48.3667 74.0198C48.4234 73.1052 47.7991 73.4482 47.8559 71.1615C47.9126 68.8749 47.9694 69.3322 49.445 65.6165C49.3126 65.445 48.7299 64.8847 47.4586 64.0158C45.8694 62.9297 45.0748 62.8153 43.4857 62.7582C41.8965 62.701 40.8182 61.6149 39.7966 60.8146C38.775 60.0142 38.8885 60.0714 38.3209 59.9571C37.7533 59.8427 37.129 59.8999 36.2777 59.2139C35.4264 58.5279 34.575 57.4418 33.7804 55.784C32.9859 54.1262 33.0426 52.9829 33.1561 52.354C33.2696 51.7252 33.0994 51.6681 32.4751 51.6681C31.8508 51.6681 29.1265 51.6109 27.5941 51.5537C26.0617 51.4966 26.7995 53.2115 26.7995 55.0408C26.7995 56.8701 26.7995 57.6704 27.8211 57.4418C28.8427 57.2131 29.1265 57.3274 29.1265 57.7848C29.1265 58.2421 29.694 58.1849 29.8075 58.0134C29.9211 57.8419 30.3183 57.8419 30.5454 58.3564C30.9994 59.3282 30.6589 60.8146 30.5454 60.8146C30.4319 60.8146 29.6373 60.1857 29.2967 60.0714C28.9562 59.9571 28.2184 60.0714 28.0481 59.5569C27.8779 59.0424 27.14 58.7566 26.3454 58.5851C25.5509 58.4136 25.2671 58.2421 25.3238 57.6133C25.3806 56.9845 25.2103 56.6986 25.0968 55.7268C24.9833 54.755 24.6428 52.2969 24.586 51.7824C24.5293 51.2679 24.2455 50.9249 24.586 50.2961C24.9266 49.6673 25.6076 49.4386 26.6292 49.3814C27.6508 49.3243 27.8211 49.2099 28.9562 48.9241C28.767 48.8669 28.1276 48.6383 27.0833 48.1809C25.7779 47.6093 24.8698 47.6665 24.586 48.1809C24.3022 48.6954 22.4861 52.011 21.7482 53.2115C21.0104 54.412 21.6347 54.755 22.4861 54.8122L22.5124 54.8139C23.3409 54.8694 23.5077 54.8806 23.5077 55.9555H24.0752C25.2103 55.9555 24.8698 57.8991 24.0752 59.0424C23.3942 57.6133 22.9969 57.7276 22.4861 57.5561C21.9753 57.3846 21.4645 56.813 21.1239 56.1841C20.7834 55.5553 20.0456 55.3838 19.6483 54.6978C19.251 54.0118 19.4213 53.4402 19.8185 52.9257C20.2158 52.4112 20.2158 52.2397 20.9537 50.8106C21.6915 49.3814 22.7131 47.6093 22.7131 46.6946C22.7131 45.78 22.9401 45.78 23.7347 45.3227C24.5293 44.8653 24.8698 45.2084 25.8914 45.437C26.913 45.6656 28.3887 45.437 30.1481 45.2084C31.9075 44.9797 32.7588 45.0368 34.0642 44.5795C33.6102 40.7837 34.7453 35.8332 35.3696 33.8324C29.6373 33.1464 27.7076 32.2317 27.3103 31.8887C26.913 31.5458 26.7995 31.6029 26.459 31.6601C22.8266 31.6601 21.5212 30.9169 20.0456 30.0594C18.5699 29.202 18.2294 28.1158 17.7753 28.2873C17.3213 28.4588 16.47 28.173 16.2429 27.9443C16.0159 27.7157 16.0159 27.2583 16.47 26.4008C16.924 25.5434 17.7753 26.3437 18.2294 26.801C18.6834 27.2583 19.8185 27.7157 21.3509 27.6585C24.8698 27.3155 26.4022 29.0876 27.3103 28.4016C28.2184 27.7157 30.1481 27.7157 31.4535 27.9443C32.7588 28.173 32.9859 29.0305 33.6669 28.4016C34.348 27.7728 36.7317 27.0868 37.9804 28.4588C39.229 29.8308 40.7046 29.0876 40.8182 28.859C40.9317 28.6303 40.3074 28.0587 40.5344 27.9443C40.7614 27.83 41.4425 27.144 41.1019 27.2583C40.7614 27.3727 39.9668 27.5442 39.0587 27.5442C38.1506 27.5442 38.4912 26.1722 38.6047 25.8864C38.7182 25.6005 38.4344 25.429 38.1506 25.2575C37.8669 25.086 38.4344 24.5715 38.8885 23.9427C39.1427 23.5906 39.2857 23.7141 39.0587 23.1424C38.8317 22.5707 39.3425 21.2559 39.5128 21.1988C39.1155 20.57 39.6263 19.198 40.1371 19.2552C40.0614 19.3314 39.9328 19.5638 40.0236 19.884C41.5219 18.6035 42.8046 18.7407 43.2586 18.9693C43.1451 18.9693 42.9181 19.0265 42.9181 19.2552C44.2235 18.9693 45.1316 19.0265 46.0397 19.4267C45.8694 19.4267 45.4948 19.4838 45.3586 19.7125C46.0397 19.7125 46.7207 19.9412 47.1748 20.5128C47.118 20.4747 46.8343 20.4213 46.1532 20.5128C46.891 20.5128 47.5721 20.8558 47.5721 21.5418C47.5342 21.4846 47.311 21.336 46.7207 21.1988C47.5721 21.7133 47.9126 22.5708 47.7423 23.5998C47.7423 23.1996 47.6288 23.1996 47.4018 22.9709C47.118 25.6577 46.0964 25.0289 45.7559 26.801C45.4154 28.5732 45.8694 30.0023 48.3099 30.231C50.7504 30.4596 54.4963 32.5176 56.199 33.4894C57.9016 34.4612 57.6746 35.2044 56.0854 36.119C54.4963 37.0337 51.9423 36.5192 50.9207 36.2334C49.8991 35.9475 49.3883 35.2044 49.3883 36.119C49.3883 37.0337 48.3099 38.1198 47.2883 38.5771C46.2667 39.0345 45.5856 40.0063 45.4154 40.6351C45.2451 41.2639 44.8478 40.6923 44.5073 40.1206C44.1667 39.549 44.0532 39.3203 43.9965 40.0063C43.6332 43.0704 44.6397 44.751 45.1883 45.2084C45.8127 45.6657 46.664 46.6375 46.7207 47.495C46.7775 48.3525 46.7775 48.2953 48.3099 49.8959C50.7504 52.6971 51.7153 53.3259 54.8936 54.1834C58.0719 55.0408 60.4556 58.8709 60.7962 59.6141C61.1367 60.3572 61.0799 61.2719 61.5907 61.5006C63.4069 62.4152 63.2367 64.3017 63.4069 66.817C63.5772 69.3322 66.0744 69.1608 68.2312 72.019C68.1933 72.0381 67.7885 71.9847 66.4717 71.6189C67.096 72.3049 70.2176 72.8194 71.3527 74.4772C68.4582 74.2485 68.4582 74.42 65.5069 72.6479C66.3582 74.3057 68.3447 74.5343 71.6365 75.2203C76.7445 76.7638 78.0499 80.0794 78.1634 81.9659C76.2905 77.7928 73.3959 78.1358 72.7716 78.4787C74.3608 78.6502 75.1553 78.9361 75.7797 80.2509C73.4527 78.2501 72.8851 79.1647 71.3527 79.2791C69.8203 79.3934 68.6285 79.1076 65.5069 76.5923C62.3853 74.077 61.761 72.019 61.7043 71.1615C61.6475 70.3041 61.4772 69.7896 61.4205 70.5327C61.3637 71.2759 60.3989 74.2485 61.1935 75.106C61.988 75.9635 63.0664 76.7638 65.1096 77.7928C68.0041 79.1647 66.642 80.651 66.5285 81.68C66.188 85.8531 64.2015 87.7968 64.088 88.8257C63.9745 89.8547 64.088 90.2549 63.4069 90.2549C62.7259 90.2549 62.3286 90.4264 62.1015 90.998C61.8745 91.5697 61.988 91.9698 61.3637 92.027C60.7394 92.0842 60.3989 92.1413 59.5475 91.9698C58.6962 91.7983 58.8665 91.341 59.5475 90.4264C60.2286 89.5117 60.3989 89.2831 61.2502 88.9972C62.1015 88.7114 62.5556 88.0254 62.8394 87.2823C63.1231 86.5391 63.7475 82.8233 63.861 81.9659C63.9745 81.1084 62.3853 80.4795 60.1719 79.2791C55.9152 76.6495 55.2909 73.9055 55.8017 72.019C56.0854 71.1044 55.9719 70.8186 55.6314 71.5045C54.0422 76.0778 59.3773 79.1647 60.3989 79.9651C61.4205 80.7654 60.9664 81.2799 60.2286 82.2517C59.4908 83.2235 59.1502 84.3096 58.1854 86.0818C57.2206 87.8539 55.9719 88.7114 55.6881 89.6832C55.4044 90.655 55.5179 90.9408 54.6665 90.8837C53.8152 90.8265 53.4747 90.3692 53.4179 91.0552C53.3612 91.7412 53.1341 91.9127 52.7369 91.9698Z" fill="white"/>
<path fill-rule="evenodd" clip-rule="evenodd" d="M40.1048 19.6705C41.5655 18.5023 42.824 18.624 43.3089 18.8682L43.2612 19.0715C44.3934 18.8691 45.2382 18.9501 46.0847 19.3231L46.0397 19.5398C45.9644 19.5398 45.84 19.5528 45.7209 19.5915C45.6995 19.5984 45.6789 19.606 45.6592 19.6142C46.2627 19.6743 46.8498 19.9225 47.2626 20.4422L47.1125 20.6069C47.1133 20.6075 47.1137 20.6077 47.1137 20.6078C47.1136 20.608 47.1008 20.6019 47.0654 20.5949C47.0626 20.5943 47.0598 20.5938 47.0569 20.5933C47.1069 20.6181 47.1549 20.6454 47.2005 20.6752C47.4897 20.8642 47.6844 21.1547 47.6844 21.5418V21.9155L47.4792 21.6055C47.4791 21.6056 47.4704 21.5956 47.4432 21.5771C47.4142 21.5574 47.3701 21.5321 47.3071 21.5033C47.2949 21.4977 47.282 21.492 47.2685 21.4862C47.7997 22.0283 47.9931 22.7726 47.8532 23.6184L47.63 23.5998C47.63 23.4094 47.6027 23.3378 47.5664 23.2875C47.5476 23.2616 47.5233 23.2369 47.4876 23.2043C47.4147 23.7673 47.3065 24.1778 47.1768 24.4965C47.03 24.8572 46.8577 25.0959 46.6862 25.3017C46.6386 25.3588 46.5922 25.4123 46.5469 25.4644C46.427 25.6025 46.3152 25.7312 46.2114 25.8939C46.0717 26.1129 45.9489 26.3922 45.8662 26.8225C45.698 27.6981 45.7316 28.4636 46.0854 29.035C46.436 29.6014 47.1198 30.0059 48.3203 30.1184C49.5605 30.2346 51.1216 30.8133 52.5776 31.4786C54.0366 32.1452 55.4022 32.9047 56.2544 33.3911C56.6846 33.6366 57.002 33.8726 57.2073 34.1069C57.4138 34.3426 57.5139 34.5852 57.4884 34.8371C57.4633 35.0854 57.3187 35.3176 57.0914 35.54C56.8634 35.7631 56.542 35.9866 56.1412 36.2172C55.3188 36.6905 54.2571 36.7897 53.2845 36.7393C52.309 36.6887 51.4066 36.4867 50.8906 36.3423C50.6256 36.2682 50.395 36.1647 50.2004 36.0676C50.124 36.0295 50.0553 35.9936 49.9926 35.9608C49.8907 35.9075 49.8048 35.8626 49.7282 35.8304C49.6679 35.8051 49.6249 35.7931 49.5947 35.7906C49.5675 35.7884 49.5599 35.7944 49.5567 35.7971C49.5503 35.8025 49.5346 35.8211 49.5214 35.8761C49.5084 35.9304 49.5006 36.0088 49.5006 36.1191C49.5006 36.6176 49.2095 37.1441 48.8048 37.5954C48.3975 38.0496 47.8598 38.4451 47.334 38.6805C46.344 39.1236 45.6854 40.0679 45.5238 40.6649C45.48 40.8264 45.411 40.9588 45.2901 41.0059C45.1627 41.0555 45.0412 40.9881 44.9536 40.9152C44.8605 40.8377 44.7668 40.7226 44.6774 40.5962C44.587 40.4684 44.4966 40.3225 44.4109 40.1788C44.395 40.1521 44.3797 40.1262 44.3649 40.1013C44.2996 39.9914 44.245 39.8994 44.1979 39.8272C44.1772 39.7956 44.159 39.7692 44.1429 39.7478C44.1304 39.8053 44.1187 39.8919 44.1084 40.0157L44.1083 40.0177L44.108 40.0197C43.7484 43.053 44.7459 44.69 45.2574 45.1191C45.5783 45.3547 45.954 45.7193 46.2579 46.1346C46.5611 46.5492 46.8024 47.0275 46.8329 47.4875C46.8612 47.9161 46.875 48.0879 47.0548 48.3531C47.2211 48.5983 47.5236 48.9135 48.105 49.5194C48.1936 49.6118 48.2887 49.7109 48.3908 49.8175L48.3926 49.8194L48.3944 49.8214C49.6139 51.2211 50.4566 52.0682 51.3861 52.6736C52.3145 53.2782 53.3363 53.6462 54.9227 54.0742C56.5428 54.5113 57.9511 55.7021 58.9925 56.866C60.0345 58.0305 60.7224 59.1832 60.8982 59.5668C61.031 59.8566 61.1066 60.1755 61.1739 60.4593C61.1957 60.551 61.2166 60.6391 61.2382 60.7213C61.3317 61.0764 61.4356 61.3074 61.6364 61.3973L61.6387 61.3983L61.641 61.3995C62.5863 61.8755 63.0143 62.6087 63.2256 63.5332C63.3796 64.2074 63.4202 64.9945 63.465 65.8622C63.4807 66.1684 63.497 66.4845 63.519 66.8093C63.5602 67.417 63.7408 67.8564 64.0184 68.2201C64.2985 68.5872 64.6811 68.8824 65.1375 69.196C65.2567 69.278 65.3807 69.3609 65.5085 69.4464C66.3554 70.0131 67.3719 70.6934 68.3206 71.9507L68.4025 72.0592L68.2814 72.1202C68.2605 72.1307 68.2403 72.1332 68.2314 72.1342C68.2248 72.1349 68.218 72.1352 68.2114 72.1354C68.2063 72.1355 68.2013 72.1355 68.1965 72.1354C68.1816 72.1351 68.1644 72.1339 68.1449 72.132C68.1344 72.131 68.1233 72.1297 68.1115 72.1282C68.0435 72.1197 67.9449 72.1027 67.8082 72.074C67.6509 72.0411 67.4413 71.9923 67.1664 71.922C67.2345 71.9535 67.3065 71.9853 67.3822 72.0177C67.5796 72.1023 67.7988 72.1895 68.0325 72.2825L68.0382 72.2848C68.2697 72.3768 68.5149 72.4743 68.7641 72.5793C69.7633 73.0004 70.857 73.5539 71.4452 74.413L71.5791 74.6085L71.344 74.5899C71.0603 74.5675 70.8038 74.5489 70.5691 74.5319C69.6139 74.4628 69.0184 74.4197 68.4206 74.2502C67.7431 74.058 67.0632 73.7044 65.8446 72.9811C66.2603 73.545 66.8672 73.9066 67.693 74.1916C68.488 74.466 69.4719 74.665 70.6659 74.9065C70.9821 74.9705 71.3132 75.0375 71.6593 75.1096L71.6641 75.1106L71.6688 75.112C76.8229 76.6694 78.1592 80.0262 78.2756 81.959L78.061 82.0124C76.5383 78.6195 74.3533 78.277 73.3164 78.4336C73.8624 78.5152 74.3113 78.6312 74.6907 78.8365C75.1923 79.108 75.5615 79.5293 75.881 80.2021L75.7067 80.3369C74.5517 79.3438 73.853 79.0916 73.267 79.0849C72.9698 79.0815 72.6945 79.1409 72.3889 79.2115C72.3709 79.2157 72.3528 79.2199 72.3346 79.2241C72.0459 79.2911 71.7309 79.3643 71.361 79.3919C70.5821 79.45 69.8824 79.4063 68.9823 79.0261C68.0878 78.6483 66.9997 77.94 65.4367 76.6806C62.2981 74.1516 61.6516 72.0668 61.5922 71.1691C61.5782 70.9575 61.5572 70.768 61.533 70.6148C61.5315 70.605 61.5299 70.5954 61.5284 70.586C61.5075 70.7805 61.4417 71.0837 61.3656 71.4346L61.3591 71.4644C61.273 71.8613 61.1726 72.3263 61.0987 72.7943C61.0247 73.2629 60.9781 73.7292 60.9979 74.1285C61.018 74.5323 61.1049 74.8447 61.2756 75.0289C62.0576 75.8727 63.1229 76.6657 65.1586 77.691C65.8906 78.0381 66.3642 78.3973 66.6561 78.7635C66.9502 79.1327 67.0556 79.504 67.0594 79.8638C67.0632 80.2194 66.9674 80.5596 66.8686 80.8664C66.8507 80.9221 66.8327 80.9763 66.8153 81.0292C66.7343 81.2747 66.6625 81.492 66.6403 81.691C66.4684 83.7943 65.8816 85.3368 65.324 86.4817C65.1289 86.8824 64.9362 87.2363 64.7677 87.5459C64.6964 87.6768 64.6295 87.7999 64.5685 87.9151C64.3594 88.3103 64.2253 88.606 64.1997 88.8382C64.1799 89.0176 64.1672 89.1764 64.1557 89.3192C64.1509 89.38 64.1462 89.4378 64.1414 89.4931C64.1255 89.6745 64.1071 89.8324 64.0675 89.9599C64.0268 90.0911 63.9606 90.2005 63.8434 90.2727C63.7306 90.3423 63.5855 90.368 63.4069 90.368C63.0735 90.368 62.8257 90.4104 62.6369 90.5118C62.4522 90.611 62.3118 90.7733 62.2059 91.04C62.1519 91.1759 62.1179 91.3022 62.0869 91.4207L62.0812 91.4427C62.0531 91.5507 62.0251 91.6579 61.9845 91.751C61.9395 91.8538 61.8763 91.9467 61.7731 92.0164C61.6715 92.085 61.5413 92.1243 61.3739 92.1396C61.3188 92.1447 61.2657 92.1497 61.2143 92.1547C60.6819 92.2055 60.3174 92.2402 59.5255 92.0807C59.306 92.0365 59.1341 91.9708 59.019 91.8704C58.8966 91.7635 58.8475 91.6252 58.861 91.4671C58.8737 91.3175 58.9419 91.152 59.0429 90.9734C59.1449 90.7929 59.2866 90.5883 59.4577 90.3586L59.4659 90.3475C59.7991 89.9001 60.018 89.6061 60.2609 89.3911C60.5109 89.1698 60.7821 89.0352 61.2147 88.89C62.0202 88.6195 62.4563 87.9704 62.7345 87.2417C62.8018 87.0654 62.8924 86.7025 62.993 86.2347C63.0928 85.7701 63.2008 85.2105 63.3035 84.6466C63.5092 83.5182 63.6932 82.377 63.7496 81.9509C63.7725 81.7781 63.7125 81.609 63.5582 81.4264C63.402 81.2416 63.1566 81.0525 62.8296 80.847C62.4109 80.584 61.8764 80.3049 61.2548 79.9802C60.9023 79.7961 60.5219 79.5974 60.1186 79.3786L60.1158 79.3771L60.1131 79.3755C57.9726 78.0532 56.7349 76.6957 56.0986 75.4212C55.4615 74.145 55.4308 72.9587 55.6933 71.9893L55.6938 71.9873L55.6945 71.9853C55.7644 71.7598 55.809 71.5758 55.8319 71.4378C55.8371 71.406 55.8412 71.3771 55.8441 71.3511C55.8129 71.4007 55.7764 71.4658 55.7351 71.5487C54.9638 73.7774 55.872 75.648 57.1204 77.0749C58.105 78.2004 59.2843 79.0322 59.9993 79.5365C60.1946 79.6743 60.3553 79.7876 60.4679 79.8758C60.7297 80.081 60.907 80.2752 61.007 80.4718C61.109 80.6722 61.1277 80.869 61.0832 81.0688C61.0396 81.2641 60.9366 81.4583 60.8037 81.6596C60.6902 81.8315 60.5498 82.0158 60.3974 82.2159C60.3712 82.2502 60.3447 82.2851 60.3179 82.3204C59.9561 82.7968 59.6905 83.3028 59.3931 83.9162C59.3315 84.0434 59.2685 84.1751 59.203 84.312C58.9532 84.8343 58.6675 85.4316 58.2839 86.1361C57.7981 87.0285 57.2412 87.6914 56.7746 88.2468L56.7672 88.2556C56.2935 88.8194 55.9297 89.2571 55.7959 89.7151C55.7465 89.8843 55.7098 90.0307 55.6772 90.1605C55.6633 90.2157 55.6502 90.2679 55.6372 90.3176C55.5949 90.4792 55.5524 90.6196 55.4859 90.7286C55.415 90.8447 55.318 90.9233 55.1774 90.9653C55.0441 91.0052 54.8751 91.011 54.6591 90.9965C54.4367 90.9816 54.2483 90.9405 54.0918 90.8993C54.0308 90.8832 53.9772 90.8679 53.9291 90.8542C53.8485 90.8312 53.7833 90.8127 53.7245 90.8021C53.6324 90.7855 53.6078 90.7999 53.5961 90.8116C53.5746 90.8328 53.544 90.8942 53.5299 91.0646C53.5009 91.4155 53.4271 91.6584 53.2911 91.8211C53.1516 91.9879 52.963 92.0515 52.7528 92.0818C52.5429 92.112 52.0372 92.1258 51.5075 92.0826C51.2417 92.0608 50.9665 92.0245 50.7167 91.9676C50.4687 91.9111 50.2378 91.8325 50.0658 91.7222L50.0138 91.6889V91.6269C50.0138 91.4674 50.0458 91.3391 50.103 91.2249C50.159 91.113 50.237 91.0196 50.3201 90.9287C50.3446 90.9018 50.3698 90.8749 50.3957 90.8473C50.5459 90.6869 50.716 90.5052 50.8785 90.2013C51.0835 89.8178 51.2805 89.5996 51.5302 89.4502C51.7382 89.3259 51.9799 89.2522 52.2729 89.1629C52.3206 89.1484 52.3696 89.1334 52.42 89.1178C53.1326 88.897 53.8473 88.3996 54.3432 87.5671C54.5972 87.1406 55.1495 86.1566 55.6808 85.1292C56.2139 84.0982 56.7189 83.0366 56.8855 82.4493C56.9673 82.1609 56.982 81.9288 56.9469 81.7332C56.9119 81.5387 56.8263 81.3726 56.6951 81.2174C56.4414 80.917 56.0284 80.6678 55.4987 80.3483C55.4673 80.3293 55.4355 80.3101 55.4033 80.2907C54.2722 79.6071 51.0836 77.6577 49.8827 76.6209C49.2867 76.1064 48.8644 75.6974 48.5995 75.2973C48.3306 74.891 48.2246 74.495 48.2546 74.0128C48.2679 73.7985 48.2413 73.6647 48.1978 73.5489C48.1753 73.4891 48.1476 73.4321 48.115 73.3678C48.0829 73.3045 48.0458 73.2335 48.009 73.152C47.8579 72.8171 47.7149 72.3128 47.7436 71.1587C47.7719 70.0159 47.8002 69.5434 48.0116 68.89C48.1294 68.5257 48.3058 68.101 48.5712 67.462C48.7669 66.9909 49.011 66.4033 49.3157 65.6375C49.1336 65.4334 48.5577 64.9037 47.3955 64.1094C46.6065 63.5702 46.0217 63.2769 45.4413 63.1099C44.8596 62.9425 44.2757 62.8998 43.4817 62.8712C42.0775 62.8207 41.0576 61.9866 40.1611 61.2534C40.0136 61.1329 39.8695 61.015 39.7276 60.9038C39.6362 60.8322 39.5541 60.7677 39.4801 60.7095C39.1359 60.4388 38.965 60.3045 38.8318 60.2262C38.6973 60.1472 38.6095 60.1298 38.3847 60.0851C38.3581 60.0798 38.3296 60.0742 38.2989 60.068C38.1914 60.0463 38.0794 60.031 37.962 60.0149C37.4823 59.9492 36.9138 59.8713 36.2075 59.3022C35.3396 58.6028 34.4789 57.5015 33.6793 55.8331C32.8737 54.1523 32.9282 52.9845 33.0456 52.3339C33.0734 52.1797 33.0818 52.0709 33.0737 51.9934C33.066 51.919 33.0444 51.8831 33.0187 51.8607C32.9893 51.835 32.9382 51.8127 32.8444 51.7987C32.7514 51.7849 32.6311 51.7812 32.4751 51.7812C31.8489 51.7812 29.1231 51.7239 27.5899 51.6667C27.2265 51.6532 27.0264 51.7451 26.9106 51.8885C26.7893 52.0389 26.738 52.272 26.7345 52.5911C26.7312 52.8892 26.7694 53.2398 26.8118 53.6303C26.8145 53.6547 26.8172 53.6792 26.8198 53.7039C26.865 54.1209 26.9118 54.5767 26.9118 55.0409C26.9118 55.4991 26.9119 55.889 26.9277 56.2144C26.9435 56.541 26.975 56.7931 27.0342 56.9785C27.0927 57.162 27.1738 57.266 27.2803 57.319C27.3905 57.3738 27.5518 57.3862 27.7967 57.3314C28.0545 57.2737 28.2693 57.2368 28.4467 57.2219C28.623 57.2071 28.7697 57.2134 28.8878 57.2473C29.0094 57.2823 29.1028 57.3477 29.1625 57.448C29.2199 57.5443 29.2388 57.6607 29.2388 57.7848C29.2388 57.874 29.2657 57.9262 29.297 57.9583C29.3302 57.9923 29.3793 58.0146 29.4396 58.0229C29.5001 58.0312 29.5648 58.0242 29.6189 58.0067C29.6765 57.9882 29.7057 57.9634 29.7141 57.9508C29.8052 57.813 29.9903 57.7663 30.1662 57.8194C30.3468 57.874 30.5244 58.0309 30.6476 58.3094C30.8864 58.8215 30.9134 59.4589 30.8701 59.9597C30.8484 60.2119 30.8084 60.4346 30.7657 60.5962C30.7445 60.6764 30.7218 60.7451 30.6988 60.7958C30.6876 60.8205 30.6741 60.846 30.6577 60.8672C30.6494 60.8778 30.6377 60.891 30.6219 60.9024C30.6062 60.9136 30.5799 60.9277 30.5454 60.9277C30.5172 60.9277 30.4917 60.919 30.4766 60.9132C30.4587 60.9064 30.4399 60.8974 30.4213 60.8876C30.3838 60.868 30.3391 60.8411 30.2904 60.8102C30.2127 60.7609 30.1189 60.6978 30.0199 60.6311C29.9948 60.6142 29.9694 60.5971 29.9439 60.5799C29.8162 60.4942 29.6834 60.4062 29.5617 60.3327C29.4381 60.258 29.3337 60.203 29.2612 60.1787C29.1893 60.1545 29.0912 60.1412 28.9695 60.1275C28.9543 60.1258 28.9388 60.1241 28.923 60.1224C28.8173 60.1108 28.6998 60.0979 28.5866 60.0751C28.3282 60.0231 28.0467 59.9104 27.9416 59.5927C27.8701 59.3767 27.6742 59.1948 27.3797 59.0431C27.0873 58.8924 26.7151 58.7806 26.3219 58.6957C25.9276 58.6106 25.6297 58.5207 25.4417 58.356C25.24 58.1794 25.182 57.9355 25.212 57.6031C25.2391 57.3029 25.2124 57.0855 25.1637 56.8192C25.1532 56.7619 25.1417 56.7023 25.1295 56.639C25.0846 56.4065 25.0303 56.1259 24.9853 55.74C24.9286 55.2553 24.8153 54.3988 24.7088 53.5981L24.6849 53.4185C24.5879 52.6894 24.5008 52.0343 24.4744 51.7949C24.4611 51.6748 24.4345 51.5635 24.4054 51.4498C24.402 51.4364 24.3985 51.4229 24.395 51.4094C24.3694 51.3099 24.3426 51.2062 24.3261 51.0996C24.2871 50.8486 24.3043 50.5801 24.4874 50.242C24.8582 49.5572 25.5957 49.326 26.623 49.2686C27.3898 49.2256 27.663 49.1518 28.2533 48.9921C28.348 48.9665 28.4508 48.9387 28.5652 48.9084C28.2381 48.7879 27.7248 48.5852 27.0385 48.2847C26.394 48.0024 25.8572 47.88 25.4534 47.8867C25.0489 47.8935 24.7989 48.028 24.6843 48.2359C24.6587 48.2821 24.6207 48.3513 24.5721 48.4396C24.0821 49.3304 22.5167 52.1762 21.8438 53.271C21.4784 53.8656 21.4853 54.1932 21.613 54.3754C21.68 54.471 21.7913 54.5457 21.9451 54.6001C22.0986 54.6544 22.2862 54.6854 22.4936 54.6994L22.5267 54.7016C22.7282 54.7151 22.8997 54.7266 23.0387 54.7536C23.1807 54.7811 23.3043 54.8274 23.3996 54.9219C23.495 55.0165 23.5483 55.1459 23.5791 55.3106C23.6053 55.4509 23.6166 55.6257 23.6193 55.8424H24.0752C24.3973 55.8424 24.6268 55.9839 24.763 56.2203C24.8943 56.4482 24.9329 56.753 24.9109 57.0779C24.8668 57.7295 24.5749 58.5207 24.1673 59.1073L24.0571 59.2658L23.9739 59.0913C23.6363 58.3828 23.3772 58.0756 23.1532 57.9209C23.042 57.8441 22.9351 57.8019 22.8222 57.7682C22.7755 57.7542 22.729 57.7421 22.6798 57.7292C22.6683 57.7262 22.6565 57.7231 22.6447 57.72C22.5831 57.7038 22.5181 57.6861 22.4505 57.6634C22.1719 57.5699 21.9017 57.3707 21.6605 57.1204C21.4184 56.8691 21.1997 56.5604 21.0253 56.2383C20.8687 55.9492 20.6204 55.7629 20.3403 55.5532C20.0651 55.347 19.7629 55.1204 19.5512 54.7548C19.3414 54.3925 19.2776 54.0525 19.3243 53.7311C19.3706 53.4122 19.5242 53.1227 19.7299 52.8563C19.9229 52.6064 20.0184 52.4416 20.1579 52.1606C20.1974 52.081 20.2406 51.9919 20.2904 51.8888C20.4177 51.6258 20.5886 51.2724 20.854 50.7585C20.9679 50.5378 21.0881 50.3099 21.2099 50.0788C21.4849 49.5574 21.7685 49.0195 22.0086 48.5111C22.1815 48.145 22.3303 47.7975 22.4356 47.4862C22.5415 47.1733 22.6008 46.9049 22.6008 46.6947C22.6008 46.2327 22.6566 45.9657 22.8431 45.7608C22.9328 45.6622 23.0476 45.5839 23.183 45.5039C23.2511 45.4636 23.331 45.4193 23.419 45.3706C23.4999 45.3257 23.5876 45.2771 23.6789 45.2245C24.0983 44.9832 24.4089 44.9493 24.748 45.0114C24.9073 45.0405 25.0723 45.0907 25.2526 45.1456L25.2677 45.1501C25.4555 45.2073 25.6649 45.2705 25.9158 45.3266C26.4098 45.4372 27.0206 45.4384 27.7342 45.3815C28.3243 45.3344 28.9774 45.2483 29.685 45.1551C29.8322 45.1357 29.9818 45.116 30.1337 45.0962C30.6645 45.0273 31.1104 44.9842 31.5091 44.9457C32.4161 44.8581 33.0789 44.7941 33.9422 44.5021C33.5229 40.775 34.5947 35.995 35.2224 33.9285C32.4263 33.5887 30.5449 33.1945 29.3086 32.8407C28.0579 32.4829 27.4556 32.1632 27.2372 31.9746C27.0424 31.8064 26.9337 31.7517 26.8438 31.7357C26.7641 31.7216 26.6909 31.7344 26.5632 31.7568C26.5371 31.7614 26.5087 31.7664 26.4775 31.7716L26.4683 31.7732H26.459C24.6353 31.7732 23.3893 31.5867 22.4111 31.2896C21.4326 30.9925 20.7274 30.5863 19.9894 30.1574C19.2363 29.7198 18.7729 29.2234 18.4447 28.8641C18.4357 28.8543 18.4269 28.8446 18.4182 28.8351C18.2647 28.667 18.1491 28.5402 18.046 28.4613C17.9407 28.3805 17.8757 28.3702 17.8148 28.3932C17.5543 28.4916 17.1997 28.4555 16.8955 28.3753C16.7404 28.3344 16.592 28.2803 16.4665 28.2208C16.3431 28.1624 16.2337 28.0951 16.1635 28.0243C16.0191 27.8789 15.9584 27.6693 15.9894 27.3956C16.0201 27.1251 16.1409 26.7819 16.3708 26.3477C16.495 26.1132 16.6558 25.9759 16.845 25.9277C17.0303 25.8805 17.2211 25.9245 17.3964 26.0051C17.7439 26.1649 18.0837 26.4944 18.3089 26.7211C18.7324 27.1477 19.8304 27.6014 21.3435 27.5456C23.1234 27.3728 24.4024 27.7349 25.3452 28.0515C25.4512 28.087 25.5522 28.1218 25.6486 28.1549C25.9849 28.2705 26.2662 28.3672 26.5125 28.4158C26.8245 28.4773 27.0524 28.4551 27.2429 28.3112C27.7232 27.9484 28.4593 27.7749 29.2245 27.7173C29.9939 27.6593 30.8121 27.7172 31.4727 27.833C32.0373 27.9319 32.4119 28.1468 32.6925 28.3077C32.7475 28.3393 32.7988 28.3687 32.8473 28.3949C32.9978 28.4759 33.1081 28.5181 33.2137 28.5146C33.3147 28.5114 33.432 28.4651 33.591 28.3183C33.955 27.9823 34.7473 27.6475 35.6004 27.5674C36.4567 27.487 37.4061 27.6605 38.0632 28.3825C38.6625 29.0409 39.3089 29.1868 39.8161 29.1464C40.0716 29.1261 40.2929 29.0583 40.4556 28.9831C40.5369 28.9455 40.602 28.9067 40.6485 28.8725C40.6718 28.8553 40.6892 28.8402 40.7014 28.8278C40.7131 28.8159 40.7171 28.8094 40.7176 28.8085C40.7177 28.8084 40.7177 28.8085 40.7176 28.8085C40.718 28.8077 40.7218 28.7994 40.7182 28.7759C40.7146 28.7522 40.7047 28.7211 40.6873 28.682C40.6545 28.6085 40.6044 28.5266 40.5506 28.4386L40.538 28.418C40.4831 28.3282 40.4223 28.2275 40.3926 28.1399C40.3777 28.0961 40.3656 28.0418 40.3755 27.9869C40.3869 27.924 40.4249 27.873 40.4841 27.8432C40.5274 27.8215 40.6034 27.7654 40.6933 27.6873C40.7808 27.6113 40.8733 27.5215 40.9482 27.4392C40.9551 27.4316 40.9619 27.4241 40.9685 27.4166C40.5626 27.5281 39.8529 27.6573 39.0587 27.6573C38.7991 27.6573 38.6143 27.5567 38.4972 27.3909C38.3849 27.2319 38.3438 27.0259 38.3364 26.8267C38.3214 26.4283 38.4394 25.9979 38.5004 25.8444C38.5208 25.793 38.5213 25.7533 38.5128 25.7199C38.5037 25.6846 38.4822 25.6471 38.4443 25.606C38.3652 25.5202 38.2391 25.4429 38.0928 25.3545C38.0385 25.3217 37.9966 25.2751 37.9759 25.2142C37.956 25.1554 37.9599 25.0952 37.9734 25.0408C37.9994 24.9359 38.0696 24.8207 38.1516 24.7057C38.2307 24.5949 38.3303 24.4718 38.4348 24.3425L38.4546 24.318C38.5673 24.1786 38.6861 24.0307 38.7976 23.8763C38.8662 23.7812 38.9277 23.718 38.974 23.6704C39.0238 23.6192 39.0425 23.5983 39.0522 23.5772C39.0584 23.5638 39.0652 23.541 39.0534 23.481C39.0411 23.4179 39.011 23.3268 38.9544 23.1844C38.888 23.0171 38.8788 22.8068 38.8981 22.5953C38.9176 22.3813 38.9673 22.154 39.0291 21.9454C39.0909 21.7367 39.1658 21.5432 39.2372 21.3965C39.2728 21.3234 39.3088 21.2593 39.3433 21.2101C39.3521 21.1976 39.3612 21.1854 39.3706 21.1739C39.2908 21.0092 39.2586 20.8162 39.2586 20.6218C39.2586 20.3916 39.3037 20.1504 39.3782 19.9329C39.4524 19.7161 39.558 19.5162 39.6837 19.3718C39.8067 19.2305 39.9676 19.1224 40.1495 19.1428L40.3817 19.1688L40.2166 19.3351C40.1787 19.3732 40.1036 19.4931 40.1048 19.6705ZM41.1642 27.3586C41.165 27.3585 41.1649 27.3586 41.1638 27.3586C41.164 27.3586 41.1641 27.3586 41.1642 27.3586ZM55.8449 71.1996C55.8449 71.1996 55.8449 71.1996 55.8449 71.1996V71.1996ZM42.9256 18.9759C42.3671 18.8553 41.3124 18.9309 40.0963 19.9702L39.9634 20.0838L39.9156 19.9151C39.8666 19.7425 39.8733 19.5901 39.9046 19.4667C39.8876 19.4826 39.8703 19.5006 39.8527 19.5209C39.7514 19.6373 39.6583 19.8089 39.5906 20.0066C39.5232 20.2036 39.4832 20.4198 39.4832 20.6218C39.4832 20.825 39.5235 21.0051 39.6076 21.1381L39.6848 21.2603L39.5573 21.3031C39.5568 21.3035 39.5564 21.3039 39.5559 21.3044C39.5493 21.311 39.5395 21.3225 39.5269 21.3405C39.5017 21.3763 39.4717 21.4288 39.439 21.496C39.3738 21.6298 39.3032 21.8114 39.2444 22.01C39.1856 22.2087 39.1396 22.4208 39.1218 22.6159C39.1038 22.8136 39.116 22.9819 39.1631 23.1005C39.22 23.2439 39.2572 23.3518 39.2739 23.4373C39.2912 23.5259 39.2889 23.6015 39.2559 23.6727C39.2281 23.7327 39.1813 23.7807 39.1413 23.8217C39.139 23.8241 39.1367 23.8264 39.1345 23.8287C39.0896 23.8748 39.0378 23.9283 38.9793 24.0092C38.8638 24.1692 38.7414 24.3215 38.6289 24.4607L38.6109 24.483C38.5046 24.6145 38.4091 24.7326 38.3341 24.8376C38.253 24.9513 38.2061 25.0361 38.1914 25.0956C38.1845 25.1234 38.187 25.1365 38.1886 25.1411C38.1894 25.1435 38.1919 25.1506 38.2085 25.1606L38.2171 25.1658C38.3525 25.2476 38.5058 25.3403 38.609 25.4522C38.6633 25.5111 38.7092 25.5808 38.7303 25.6635C38.7519 25.7479 38.7454 25.8368 38.709 25.9284C38.6565 26.0607 38.5474 26.4592 38.5609 26.8182C38.5676 26.9978 38.6046 27.1526 38.6803 27.2598C38.7511 27.3602 38.8644 27.4311 39.0587 27.4311C39.9551 27.4311 40.7376 27.2615 41.0664 27.1511C41.092 27.1425 41.1185 27.1357 41.1442 27.1333C41.1676 27.1312 41.2055 27.1314 41.2418 27.153C41.2859 27.1792 41.3049 27.2228 41.3076 27.2617C41.3098 27.2945 41.3009 27.3235 41.2934 27.3426C41.278 27.3821 41.2506 27.4241 41.2218 27.4628C41.1916 27.5033 41.1544 27.5474 41.1138 27.592C41.0326 27.6813 40.9336 27.7772 40.8401 27.8584C40.7546 27.9327 40.6663 28.0013 40.5977 28.0386C40.5988 28.045 40.601 28.0542 40.6052 28.0668C40.6252 28.1257 40.6708 28.2036 40.7294 28.2996C40.7341 28.3072 40.7388 28.3149 40.7436 28.3227C40.7953 28.4071 40.8532 28.5016 40.8923 28.5894C40.9139 28.6378 40.9324 28.6898 40.9403 28.7416C40.9482 28.7935 40.9466 28.8532 40.9187 28.9095C40.892 28.9633 40.838 29.0131 40.7812 29.055C40.7204 29.0998 40.6418 29.1459 40.5494 29.1886C40.3644 29.2742 40.1174 29.3493 39.8338 29.3719C39.2626 29.4173 38.5469 29.2487 37.8976 28.5352C37.306 27.8852 36.4393 27.7157 35.6213 27.7925C34.8001 27.8696 34.0599 28.1923 33.7429 28.485C33.5613 28.6526 33.3949 28.735 33.221 28.7407C33.0517 28.7462 32.8959 28.6776 32.7413 28.5943C32.6879 28.5655 32.633 28.5341 32.5757 28.5013C32.2959 28.3412 31.9571 28.1473 31.4342 28.0558C30.7895 27.9428 29.9901 27.8864 29.2413 27.9428C28.4883 27.9995 27.8055 28.169 27.3777 28.4921C27.1141 28.6912 26.81 28.7048 26.4693 28.6377C26.2065 28.5859 25.9054 28.4823 25.5659 28.3655C25.4716 28.3331 25.3743 28.2996 25.2741 28.266C24.3446 27.9539 23.099 27.6017 21.3618 27.7711L21.3585 27.7714L21.3551 27.7715C19.8051 27.8293 18.6341 27.3687 18.1499 26.881C17.921 26.6504 17.6081 26.3511 17.303 26.2108C17.1519 26.1413 17.0164 26.1174 16.9001 26.147C16.7879 26.1756 16.672 26.2598 16.5691 26.4541C16.3449 26.8774 16.2387 27.1915 16.2127 27.4213C16.187 27.6478 16.2397 27.7811 16.3224 27.8644C16.3656 27.908 16.4478 27.9621 16.5621 28.0162C16.6743 28.0693 16.8096 28.1188 16.9525 28.1565C17.2443 28.2335 17.5423 28.2546 17.7359 28.1815C17.902 28.1187 18.0499 28.1799 18.1822 28.2814C18.3018 28.3731 18.4307 28.5143 18.5763 28.674C18.5874 28.6862 18.5987 28.6986 18.6101 28.711C18.9346 29.0663 19.3792 29.5417 20.1017 29.9615C20.8394 30.3902 21.5247 30.7843 22.476 31.0731C23.4258 31.3615 24.6461 31.5464 26.4496 31.547C26.4713 31.5433 26.4928 31.5395 26.514 31.5357C26.6419 31.5127 26.7608 31.4913 26.8829 31.513C27.0342 31.5399 27.181 31.6281 27.3834 31.8029C27.5623 31.9574 28.1235 32.2665 29.37 32.6232C30.6113 32.9784 32.5207 33.3776 35.3829 33.7201L35.5174 33.7362L35.4768 33.8663C34.854 35.8624 33.7246 40.7944 34.1758 44.566L34.1866 44.6564L34.1012 44.6863C33.169 45.0129 32.4575 45.0817 31.5067 45.1736C31.1111 45.2118 30.6741 45.254 30.1625 45.3205C30.0117 45.3401 29.8629 45.3597 29.7161 45.3791C29.0084 45.4724 28.3484 45.5593 27.7519 45.6069C27.0325 45.6643 26.3946 45.6655 25.867 45.5474C25.6072 45.4892 25.3908 45.4238 25.2027 45.3666L25.1951 45.3643C25.0087 45.3076 24.8543 45.2607 24.7078 45.2339C24.4227 45.1817 24.1657 45.2049 23.7905 45.4209C23.6897 45.4788 23.602 45.5274 23.523 45.5711C23.4398 45.6171 23.3661 45.6579 23.2967 45.6989C23.1661 45.7761 23.0751 45.8406 23.0088 45.9136C22.8831 46.0517 22.8254 46.242 22.8254 46.6947C22.8254 46.9418 22.757 47.2378 22.6483 47.5591C22.539 47.8821 22.3862 48.2384 22.2115 48.6082C21.9692 49.1213 21.6816 49.6667 21.4055 50.1903C21.2843 50.4202 21.1653 50.6459 21.0534 50.8627C20.7895 51.3739 20.621 51.7222 20.4939 51.9848C20.4435 52.089 20.3996 52.1796 20.3589 52.2617C20.2146 52.5524 20.1115 52.7306 19.9073 52.9951C19.7156 53.2433 19.5854 53.4968 19.5466 53.7638C19.5082 54.0284 19.5579 54.3172 19.7453 54.6409C19.9309 54.9613 20.1963 55.1634 20.4745 55.3717L20.4898 55.3832C20.7586 55.5845 21.042 55.7967 21.2226 56.13C21.3887 56.4368 21.5957 56.7283 21.8218 56.9629C22.0488 57.1985 22.2894 57.3709 22.5216 57.4489C22.5818 57.4691 22.6409 57.4853 22.7015 57.5012C22.7125 57.5041 22.7236 57.507 22.7348 57.51C22.7843 57.5229 22.8354 57.5362 22.886 57.5513C23.0125 57.5891 23.1433 57.6398 23.2804 57.7344C23.5296 57.9066 23.785 58.2139 24.0893 58.8157C24.4199 58.2807 24.6496 57.6116 24.6868 57.0625C24.7074 56.7586 24.6679 56.5061 24.5687 56.3338C24.4743 56.1701 24.3207 56.0686 24.0752 56.0686H23.3953V55.9555C23.3953 55.688 23.3848 55.4945 23.3583 55.3524C23.3319 55.211 23.2918 55.1325 23.2419 55.083C23.1919 55.0334 23.1185 54.9994 22.9962 54.9756C22.8724 54.9516 22.7147 54.9408 22.5049 54.9268L22.4786 54.925C22.2603 54.9104 22.0506 54.8771 21.8706 54.8135C21.691 54.75 21.5327 54.6531 21.4294 54.5058C21.2166 54.2021 21.2803 53.758 21.6527 53.1521C22.3222 52.0627 23.884 49.2237 24.3751 48.3309C24.4239 48.2422 24.4621 48.1727 24.4878 48.1261C24.6569 47.8195 25.0029 47.6681 25.4497 47.6606C25.8972 47.6531 26.4672 47.7879 27.1281 48.0773C28.1708 48.5339 28.8056 48.7605 28.9885 48.8158L29.3797 48.934L28.9835 49.0338C28.7176 49.1008 28.5042 49.1585 28.3196 49.2085C27.7216 49.3703 27.4267 49.4501 26.6355 49.4944C25.6196 49.5512 24.9949 49.7773 24.6847 50.3502C24.5273 50.6409 24.516 50.8584 24.548 51.0647C24.5627 51.1594 24.5865 51.2516 24.6124 51.3522C24.6159 51.3658 24.6194 51.3795 24.623 51.3933C24.6524 51.5083 24.6826 51.6328 24.6977 51.7699C24.7238 52.0066 24.8106 52.6595 24.9079 53.3911L24.9315 53.5681C25.0379 54.368 25.1515 55.2266 25.2084 55.7136C25.2524 56.0902 25.3047 56.3609 25.3495 56.5927C25.3619 56.6571 25.3737 56.7184 25.3847 56.7782C25.4353 57.055 25.4654 57.2949 25.4357 57.6235C25.409 57.92 25.4645 58.0762 25.5892 58.1854C25.7275 58.3066 25.9687 58.3882 26.369 58.4746C26.7704 58.5612 27.1644 58.678 27.4821 58.8418C27.7978 59.0044 28.0559 59.2227 28.1547 59.5212C28.2198 59.7179 28.3924 59.8054 28.6306 59.8534C28.7333 59.874 28.8398 59.8857 28.9463 59.8974C28.9623 59.8992 28.9783 59.901 28.9944 59.9028C29.1121 59.9159 29.234 59.9312 29.3323 59.9642C29.4301 59.997 29.5527 60.0635 29.6774 60.1388C29.804 60.2154 29.9408 60.306 30.0685 60.3918C30.0949 60.4095 30.1209 60.427 30.1463 60.4441C30.245 60.5106 30.3353 60.5714 30.4102 60.6189C30.4473 60.6424 30.4791 60.6617 30.5051 60.6763C30.5183 60.6424 30.5332 60.5961 30.5486 60.5381C30.5875 60.3907 30.6255 60.181 30.6463 59.9402C30.6882 59.4553 30.6584 58.8642 30.4437 58.4046L30.4432 58.4035L30.4427 58.4024C30.3389 58.1671 30.2045 58.0671 30.1016 58.036C29.9937 58.0034 29.9234 58.0424 29.9011 58.0762C29.8527 58.1492 29.7684 58.196 29.6876 58.2221C29.6034 58.2492 29.5049 58.2601 29.4093 58.247C29.3136 58.2338 29.2136 58.1954 29.1369 58.1169C29.0583 58.0364 29.0142 57.9243 29.0142 57.7848C29.0142 57.6802 28.9976 57.6108 28.9698 57.5643C28.9444 57.5216 28.903 57.4869 28.826 57.4648C28.7455 57.4416 28.6297 57.4335 28.4654 57.4473C28.3023 57.461 28.0985 57.4956 27.8455 57.5522C27.5796 57.6117 27.3579 57.6099 27.1807 57.5217C26.9999 57.4318 26.8894 57.2642 26.8203 57.0476C26.7517 56.8329 26.7193 56.5562 26.7033 56.2254C26.6872 55.894 26.6872 55.4987 26.6872 55.0433V55.0409C26.6872 54.5904 26.6417 54.1458 26.5965 53.7285C26.5936 53.7021 26.5908 53.6758 26.5879 53.6496C26.546 53.2646 26.5064 52.9009 26.5098 52.5886C26.5134 52.2575 26.5649 51.9583 26.7363 51.746C26.9131 51.5268 27.1955 51.4257 27.5982 51.4408C29.1299 51.4979 31.8527 51.555 32.4751 51.555C32.6312 51.555 32.7663 51.5585 32.8773 51.575C32.9875 51.5914 33.0889 51.6226 33.1659 51.6898C33.2466 51.7603 33.2854 51.8566 33.2971 51.9698C33.3086 52.0799 33.2956 52.214 33.2667 52.3743C33.1571 52.9813 33.0981 54.1001 33.8816 55.7349C34.6712 57.3821 35.5132 58.4531 36.3479 59.1257C37.0019 59.6526 37.5041 59.7223 37.9779 59.788C38.1008 59.805 38.2218 59.8218 38.343 59.8462C38.3741 59.8525 38.4034 59.8583 38.4312 59.8638C38.651 59.9071 38.7764 59.9318 38.9451 60.0309C39.0925 60.1175 39.2791 60.2643 39.623 60.5349C39.6964 60.5925 39.7768 60.6558 39.8656 60.7253C40.0139 60.8416 40.1624 60.9626 40.3123 61.085C41.212 61.8187 42.167 62.5976 43.4897 62.6452C44.2848 62.6738 44.8928 62.7168 45.503 62.8924C46.1145 63.0684 46.7215 63.3754 47.5217 63.9223C48.7943 64.7921 49.3897 65.3606 49.5337 65.5471L49.5733 65.5983L49.5494 65.6585C49.227 66.4703 48.9732 67.0809 48.7726 67.5636C48.5118 68.1912 48.3407 68.6029 48.2252 68.96C48.0251 69.5785 47.9966 70.0207 47.9682 71.1644C47.9401 72.2969 48.0809 72.7644 48.2136 73.0584C48.242 73.1215 48.2703 73.1771 48.2984 73.2322C48.304 73.2431 48.3096 73.2541 48.3151 73.2651C48.3481 73.3302 48.3807 73.3966 48.4079 73.4689C48.4637 73.6175 48.4939 73.7838 48.4788 74.0269C48.452 74.4594 48.5446 74.8065 48.7865 75.1719C49.0325 75.5435 49.4331 75.9349 50.029 76.4493C51.2118 77.4705 54.3799 79.4084 55.519 80.0968C55.5563 80.1193 55.5934 80.1417 55.6301 80.1638C56.143 80.473 56.5875 80.7409 56.8663 81.0708C57.0189 81.2515 57.1249 81.4533 57.1679 81.6929C57.2108 81.9314 57.19 82.1995 57.1016 82.5114C56.9276 83.1246 56.4111 84.2067 55.8801 85.2336C55.3471 86.2643 54.7926 87.2524 54.5359 87.6834C54.0102 88.5659 53.2493 89.0974 52.4861 89.334C52.4335 89.3503 52.3834 89.3656 52.3354 89.3802C52.0394 89.4707 51.8276 89.5354 51.645 89.6447C51.4406 89.7669 51.2687 89.9488 51.0764 90.3085C50.899 90.6403 50.7085 90.8434 50.5573 91.0045C50.5322 91.0313 50.5082 91.0569 50.4855 91.0817C50.4054 91.1694 50.345 91.2439 50.3036 91.3267C50.2702 91.3932 50.2476 91.4684 50.2407 91.5637C50.3766 91.6386 50.5576 91.6994 50.7664 91.747C51.0026 91.8009 51.2666 91.836 51.5257 91.8571C52.046 91.8996 52.5336 91.8849 52.721 91.8579C52.9081 91.831 53.0315 91.7803 53.1192 91.6755C53.2101 91.5667 53.2783 91.3809 53.306 91.0458C53.3203 90.8732 53.3535 90.7346 53.4385 90.6504C53.5331 90.5566 53.6575 90.5603 53.764 90.5795C53.8331 90.5919 53.9167 90.6156 54.0063 90.6411C54.0526 90.6542 54.1005 90.6678 54.1487 90.6805C54.2974 90.7197 54.4708 90.7572 54.674 90.7709C54.8837 90.785 55.0198 90.7765 55.1135 90.7485C55.1999 90.7227 55.2519 90.6798 55.2945 90.6101C55.3415 90.5332 55.3771 90.4235 55.4199 90.26C55.432 90.2139 55.4446 90.1638 55.4581 90.1099C55.4911 89.9786 55.5297 89.8249 55.5804 89.6513C55.7295 89.1405 56.1282 88.6661 56.5876 88.1191L56.5998 88.1047C57.0672 87.5483 57.6119 86.8999 58.0869 86.0275C58.4673 85.3287 58.7499 84.7379 58.9995 84.2161C59.0653 84.0785 59.1288 83.9457 59.1912 83.817C59.4897 83.2014 59.7633 82.6784 60.1394 82.183C60.1667 82.147 60.1936 82.1118 60.2199 82.0772C60.3727 81.8766 60.5077 81.6994 60.6166 81.5344C60.7444 81.3409 60.8294 81.1742 60.8639 81.0193C60.8974 80.869 60.8842 80.7264 60.8071 80.5749C60.728 80.4195 60.5788 80.2493 60.3299 80.0543C60.2259 79.9729 60.0732 79.8652 59.8851 79.7327C59.1743 79.2317 57.9577 78.3741 56.9518 77.2244C55.6759 75.766 54.7117 73.8087 55.5254 71.4672L55.5277 71.4604L55.5309 71.454C55.6167 71.2812 55.6942 71.1566 55.7615 71.0877C55.791 71.0574 55.8408 71.0141 55.9057 71.0117C55.9443 71.0103 55.9806 71.0239 56.0088 71.0494C56.0343 71.0724 56.0483 71.1006 56.0565 71.1236C56.0723 71.1683 56.0759 71.2225 56.0746 71.2763C56.0732 71.3326 56.066 71.3993 56.0535 71.4749C56.0285 71.6259 55.9811 71.8198 55.9095 72.0507C55.6618 72.9675 55.6883 74.0956 56.2993 75.3196C56.9114 76.5456 58.1134 77.8743 60.2279 79.181C60.6207 79.394 60.9959 79.5901 61.3462 79.773C61.9746 80.1014 62.5228 80.3878 62.9485 80.6552C63.2813 80.8642 63.5503 81.0681 63.7293 81.2799C63.9102 81.4939 64.0062 81.7249 63.9723 81.9808C63.9152 82.4123 63.7304 83.5577 63.5245 84.6874C63.4216 85.2524 63.3131 85.8147 63.2126 86.2826C63.1127 86.7473 63.0188 87.1275 62.9442 87.3228C62.655 88.0804 62.1829 88.8033 61.2858 89.1045C60.867 89.2451 60.6274 89.3678 60.4092 89.5609C60.1859 89.7586 59.9807 90.0332 59.6375 90.4942C59.468 90.7218 59.333 90.9173 59.2382 91.0852C59.1422 91.255 59.0934 91.386 59.0848 91.4864C59.077 91.5785 59.1025 91.6439 59.1662 91.6995C59.2374 91.7616 59.3634 91.8174 59.5696 91.859C60.3291 92.012 60.6678 91.9796 61.1926 91.9296C61.2442 91.9246 61.2977 91.9195 61.3536 91.9144C61.4984 91.9011 61.5881 91.869 61.6479 91.8286C61.7061 91.7893 61.7457 91.7357 61.7788 91.6599C61.812 91.5839 61.8357 91.493 61.8658 91.3779L61.8697 91.3632C61.9008 91.2441 61.9377 91.106 61.9972 90.9561C62.1184 90.6511 62.2901 90.4418 62.5311 90.3123C62.7679 90.1851 63.0593 90.1418 63.4069 90.1418C63.569 90.1418 63.665 90.1175 63.726 90.0799C63.7827 90.0449 63.8229 89.9899 63.8531 89.8925C63.8845 89.7913 63.9016 89.6562 63.9176 89.4732C63.9222 89.4207 63.9267 89.3645 63.9315 89.3048C63.943 89.1608 63.9562 88.9962 63.9764 88.8133C64.0075 88.531 64.1643 88.1979 64.3702 87.8088C64.4333 87.6896 64.5015 87.5643 64.5735 87.4319C64.7411 87.124 64.9295 86.778 65.1223 86.3822C65.6712 85.2551 66.2477 83.7397 66.4165 81.6708L66.4167 81.6692L66.4169 81.6676C66.4417 81.4421 66.5232 81.1959 66.6047 80.9495C66.6216 80.8985 66.6385 80.8475 66.6549 80.7966C66.7529 80.4924 66.8381 80.1823 66.8348 79.8662C66.8315 79.5544 66.7418 79.2326 66.4808 78.905C66.2176 78.5748 65.7764 78.2338 65.0618 77.8951L65.0606 77.8945L65.0594 77.8939C63.0095 76.8616 61.9184 76.0541 61.1113 75.1831C60.8847 74.9386 60.7943 74.5579 60.7736 74.1398C60.7526 73.7174 60.8018 73.2333 60.8768 72.7587C60.9519 72.2835 61.0536 71.8124 61.1396 71.4161L61.1408 71.4104C61.2273 71.0118 61.2951 70.6991 61.3085 70.5241C61.3158 70.429 61.325 70.3514 61.3362 70.2906C61.3468 70.2333 61.3609 70.1793 61.3837 70.14C61.3948 70.1209 61.4165 70.09 61.455 70.073C61.5024 70.0521 61.5489 70.0631 61.5812 70.084C61.6083 70.1017 61.6259 70.1259 61.6365 70.1432C61.6483 70.1622 61.6582 70.1834 61.6667 70.205C61.7 70.2887 61.7298 70.4206 61.7549 70.5793C61.7804 70.7405 61.802 70.9369 61.8164 71.1541C61.8705 71.9713 62.4726 74.0025 65.5771 76.504C67.1357 77.7599 68.2042 78.4522 69.0692 78.8175C69.9286 79.1805 70.591 79.2225 71.3444 79.1663C71.6966 79.14 71.9965 79.0705 72.2868 79.0031L72.3385 78.9911C72.6431 78.9207 72.9424 78.855 73.2695 78.8588C73.8409 78.8653 74.4761 79.0825 75.3916 79.7882C75.1589 79.442 74.8982 79.2056 74.5843 79.0357C74.1297 78.7897 73.553 78.6768 72.7597 78.5912L72.4026 78.5527L72.7178 78.3795C73.3713 78.0205 76.0721 77.7255 77.9668 81.3057C77.6081 79.4225 76.101 76.689 71.609 75.3301C71.2697 75.2594 70.9436 75.1934 70.6307 75.1301C69.4341 74.8882 68.4305 74.6852 67.6201 74.4055C66.591 74.0503 65.8512 73.5646 65.4071 72.6998L65.2263 72.3477L65.5645 72.5508C67.0423 73.4382 67.7676 73.83 68.4816 74.0325C69.0555 74.1952 69.6226 74.2364 70.5738 74.3054C70.7407 74.3175 70.9194 74.3305 71.112 74.3451C70.5394 73.6537 69.5944 73.1744 68.6773 72.7879C68.4303 72.6838 68.187 72.587 67.955 72.4948L67.9499 72.4928C67.7169 72.4001 67.4949 72.3118 67.2942 72.2258C67.0936 72.1399 66.9118 72.0552 66.7593 71.9694C66.608 71.8841 66.4789 71.7941 66.3889 71.6953L66.125 71.4052L66.5016 71.5099C67.1588 71.6925 67.5867 71.7966 67.854 71.8526C67.9003 71.8623 67.9416 71.8706 67.9784 71.8775C67.1022 70.7853 66.1827 70.1696 65.3862 69.6363C65.2577 69.5502 65.1323 69.4663 65.0108 69.3828C64.552 69.0675 64.1436 68.7554 63.8402 68.3579C63.5343 67.957 63.3389 67.4746 63.2949 66.8247C63.2721 66.4883 63.2554 66.1652 63.2394 65.8553C63.195 64.9951 63.1559 64.2372 63.0066 63.5839C62.8065 62.7084 62.4121 62.0414 61.5427 61.6028C61.2345 61.4633 61.1117 61.1235 61.021 60.7793C60.9965 60.6861 60.9739 60.5908 60.951 60.4946C60.8848 60.2157 60.8167 59.929 60.6942 59.6615C60.5294 59.3019 59.8552 58.168 58.8256 57.0173C57.7954 55.866 56.4227 54.713 54.8645 54.2926C53.2725 53.8631 52.2228 53.4879 51.264 52.8635C50.3069 52.2401 49.4473 51.3728 48.2272 49.9725C48.1254 49.8662 48.0301 49.7669 47.941 49.6741C47.3658 49.0749 47.0471 48.7429 46.8692 48.4805C46.6522 48.1606 46.6371 47.9325 46.6089 47.5056L46.6087 47.5025C46.5824 47.1051 46.3696 46.6687 46.0769 46.2687C45.7858 45.8707 45.425 45.5216 45.1223 45.2998L45.1194 45.2977L45.1167 45.2955C44.5303 44.8067 43.5191 43.0834 43.8847 39.9949C43.8988 39.8253 43.9172 39.6974 43.9468 39.6157C43.9609 39.5768 43.985 39.5262 44.0322 39.4954C44.0922 39.4563 44.1554 39.4685 44.1993 39.4926C44.2378 39.5137 44.2704 39.5476 44.2972 39.5799C44.3255 39.614 44.355 39.6561 44.3857 39.7031C44.4357 39.7797 44.4935 39.8771 44.5589 39.9873C44.5734 40.0117 44.5884 40.0368 44.6036 40.0625C44.6883 40.2046 44.7752 40.3445 44.8604 40.4651C44.9466 40.587 45.0267 40.6826 45.0968 40.7409C45.1723 40.8038 45.2034 40.7971 45.209 40.795C45.2211 40.7902 45.2656 40.7583 45.307 40.6054C45.4859 39.9447 46.1894 38.9454 47.2427 38.4739C47.7385 38.2519 48.2508 37.8757 48.638 37.4438C49.0279 37.0091 49.2759 36.5352 49.2759 36.1191C49.2759 36.0007 49.2841 35.9022 49.303 35.8231C49.3218 35.7449 49.3539 35.6737 49.4114 35.6246C49.4721 35.5728 49.5443 35.5596 49.6129 35.5652C49.6784 35.5706 49.7472 35.5934 49.8146 35.6217C49.8991 35.6571 49.9999 35.7097 50.1094 35.7669C50.1707 35.7989 50.2347 35.8324 50.3002 35.865C50.4886 35.959 50.705 36.0557 50.9508 36.1244C51.4564 36.2659 52.3418 36.464 53.296 36.5135C54.2531 36.5631 55.2629 36.4622 56.0297 36.0209C56.4235 35.7942 56.7264 35.5818 56.9348 35.3779C57.1437 35.1734 57.2474 34.9876 57.2649 34.8142C57.282 34.6446 57.2189 34.462 57.0388 34.2565C56.8574 34.0495 56.5646 33.8281 56.1436 33.5878C55.2931 33.1024 53.9344 32.3469 52.4847 31.6845C51.0319 31.0207 49.4998 30.456 48.2995 30.3436C47.0596 30.2274 46.2961 29.803 45.8947 29.1546C45.4964 28.5113 45.4733 27.6762 45.6456 26.7796C45.7332 26.3239 45.8658 26.0172 46.0223 25.7717C46.1358 25.5938 46.2633 25.447 46.3867 25.305C46.4299 25.2553 46.4726 25.2061 46.5141 25.1563C46.676 24.962 46.8336 24.7433 46.9689 24.4108C47.1047 24.0769 47.2199 23.6234 47.2901 22.959L47.315 22.7235L47.4813 22.891C47.5246 22.9347 47.563 22.969 47.5994 23.0015C47.6083 23.0095 47.6171 23.0174 47.6258 23.0252C47.6414 23.0393 47.6571 23.0537 47.6725 23.0687C47.6634 22.3129 47.3253 21.6961 46.6629 21.2958L46.746 21.0887C47.0464 21.1585 47.2573 21.2321 47.4001 21.2974C47.4094 21.3017 47.4185 21.3059 47.4272 21.3101C47.3719 21.124 47.2485 20.9762 47.0782 20.8649C46.8387 20.7085 46.5069 20.6259 46.1532 20.6259L46.1383 20.4008C46.4601 20.3575 46.6975 20.3458 46.8671 20.3501C46.4544 19.9813 45.9112 19.8256 45.3586 19.8256H45.1603L45.2623 19.6544C45.3449 19.5157 45.4882 19.4341 45.6224 19.3863C44.8581 19.1324 44.0502 19.123 42.942 19.3657L42.8058 19.3955V19.2552C42.8058 19.13 42.8565 19.0385 42.9256 18.9759Z" fill="#E9F3F8" fill-opacity="0.5"/>
<path d="M60.4505 67.5128C59.3871 69.7091 56.832 72.6223 55.6873 73.8044C55.6873 73.8997 55.7026 74.2362 55.8535 74.5479C55.9643 74.7767 60.1735 69.0571 60.4505 67.5128Z" fill="#FF2800"/>
<path d="M57.4735 80.0981L56.8781 81.4466C57.0369 81.7163 56.9884 82.1582 56.9443 82.3455L57.4735 80.0981Z" fill="#FF2800"/>
<path d="M53.0081 77.7009C51.7833 76.8379 50.1162 75.5434 49.4357 75.004C50.0255 75.2917 50.2863 75.2837 50.343 75.2437C50.343 75.2238 50.3884 75.1479 50.5698 75.004C51.0802 76.0828 51.5905 76.3225 53.0081 77.7009Z" fill="#FF2800"/>
<path d="M55.3897 76.0529C55.8342 77.3042 57.9088 79.4709 58.8906 80.3978V79.9923H59.5574C57.3346 78.4281 56.2232 76.9218 55.3897 76.0529Z" fill="#FF2800"/>
<path d="M55.2408 86.5406C54.9729 86.9942 54.2361 88.128 53.9012 88.6382C54.1691 88.4568 54.3849 88.2225 54.4593 88.128C54.478 88.1658 54.5152 88.2641 54.5152 88.3548C54.6268 88.1469 54.9282 87.4931 55.2408 86.5406Z" fill="#FF2800"/>
<path d="M61.3379 67.2132C61.4009 66.8653 61.4009 65.9141 60.8971 64.8934C61.1994 64.3366 61.2329 63.8108 61.212 63.6174C61.5058 64.1587 61.9424 65.6357 61.3379 67.2132Z" fill="#FF2800"/>
<path d="M58.0689 69.7603C59.5724 68.7072 60.2962 65.314 60.1292 63.6174C60.1292 64.2025 59.7951 64.3195 59.461 64.9045C59.5167 67.7127 58.7371 68.4147 58.0689 69.7603Z" fill="#FF2800"/>
<path d="M56.2828 55.9762C58.5565 58.0356 58.9544 59.6374 59.5797 62.2688C59.7124 62.2116 60.0117 62.04 60.1482 61.8112C60.2619 59.6946 58.2723 57.1203 56.2828 55.9762Z" fill="#FF2800"/>
<path d="M50.4757 61.8195C50.4291 63.0907 49.5645 64.6949 49.1381 65.3381L49.3707 65.5651C49.7584 65.1489 50.5222 63.8171 50.4757 61.8195Z" fill="#FF2800"/>
<path d="M50.5538 54.0938C51.8542 55.1745 51.515 55.2882 51.1758 56.4258C51.9673 54.3782 53.0981 54.5488 54.7943 55.0038C54.6812 54.7195 53.72 54.4919 52.8719 54.4351C52.0239 54.3782 52.0804 54.3213 51.7412 54.0938C51.0061 53.8094 49.0838 51.8187 47.5007 50.283C47.953 51.193 49.2534 53.0131 50.5538 54.0938Z" fill="#FF2800"/>
<path d="M41.7526 53.6281C41.1151 52.7128 41.1455 51.4161 41.2403 50.8822C40.8306 51.6602 41.0317 52.77 41.1834 53.2276C40.7661 53.5899 39.5102 54.3374 37.8256 54.429C38.9069 54.6006 40.3867 54.2001 41.2403 53.3993C41.2973 53.5518 41.5591 54.0285 42.1509 54.715C41.2403 55.4015 40.785 55.6875 39.4761 56.0879C40.2728 56.0879 40.9558 55.8591 42.3217 54.9438C42.3786 55.001 42.5607 55.207 42.8339 55.5731C43.0046 55.8591 42.5493 56.374 41.2403 57.1749C42.0371 57.1176 42.6062 56.374 43.0615 55.9735C43.1564 56.0689 43.403 56.3396 43.6307 56.66C43.4599 55.9163 42.5493 54.7722 41.7526 53.6281Z" fill="#FF2800"/>
<path d="M46.0123 48.1854C45.2783 46.9218 44.2055 46.3475 42.7376 46.4624C43.7539 45.6583 43.4716 45.4286 43.8103 44.7394C44.6572 45.4286 46.0123 46.9793 46.0123 48.1854Z" fill="#FF2800"/>
<path d="M38.2959 46.5374C38.5655 47.3239 38.6195 47.8858 37.3791 48.7847C38.997 48.56 38.9431 47.043 38.2959 46.5374Z" fill="#FF2800"/>
<path d="M35.5542 46.8902C34.6442 47.7945 32.0847 46.9504 29.639 46.3475C32.0278 46.7093 34.6442 46.8902 34.9854 46.5887C35.3267 46.2873 35.5542 45.9255 36.6348 46.1667C35.7248 46.227 35.8954 46.3475 35.5542 46.8902Z" fill="#FF2800"/>
<path d="M63.7845 79.349C63.556 79.8056 63.4513 80.7949 63.4275 81.2325C63.7131 81.4608 63.8322 81.6701 63.856 81.7462C63.8798 81.4989 63.8988 80.6732 63.7845 79.349Z" fill="#FF2800"/>
<path d="M27.7039 58.823C27.0899 58.5421 26.5318 58.2612 25.9178 58.2612L26.2527 58.1488L26.4759 57.9241V58.1488C26.6806 58.1863 27.2127 58.3736 27.7039 58.823Z" fill="#FF2800"/>
<path d="M25.8924 52.525C25.8493 52.6231 25.8019 53.0312 25.957 53.8788C25.3366 53.4079 25.44 52.6231 25.5693 52.2896L26.2155 52.2307L25.8924 52.525Z" fill="#FF2800"/>
<path d="M21.0058 55.6766C20.6594 55.4203 20.0676 54.7865 19.815 54.5016C19.9016 54.4589 20.248 54.4838 20.4104 54.5016V54.7687C20.4826 54.8755 20.7027 55.2066 21.0058 55.6766Z" fill="#FF2800"/>
<path d="M24.2804 47.4894C23.7134 47.7301 23.3535 48.7529 23.2444 49.2342C23.2008 48.6085 23.408 47.8103 23.5171 47.4894C23.5352 47.4493 23.7134 47.3932 24.2804 47.4894Z" fill="#FF2800"/>
<path d="M44.7467 30.8057C45.5024 33.6054 45.1274 35.548 42.8864 37.5478C45.6768 36.0622 46.607 33.3768 44.7467 30.8057Z" fill="#FF2800"/>
<path d="M38.1233 34.4015C36.2572 36.7927 36.197 38.8992 36.4378 40.0948C37.0398 38.3868 37.5213 35.654 38.1233 34.4015Z" fill="#FF2800"/>
<path d="M26.5003 30.3562C26.1008 29.8788 23.9886 28.6255 22.0477 28.5062C23.9886 28.5062 25.3586 28.6852 26.0437 29.1626C26.7287 29.6401 26.5003 29.5207 27.0712 29.282C30.0396 27.969 31.3526 28.6852 31.9805 28.9239C32.6084 29.1626 32.951 29.6401 33.4647 29.1626C35.1202 27.7303 37.2894 28.2078 37.9744 29.1626C35.2914 28.1481 34.5493 29.0433 33.4647 29.9385C33.3886 30.0777 33.1793 30.3204 32.951 30.1772C30.6105 28.4465 27.5279 29.5804 26.5003 30.3562Z" fill="#FF2800"/>
<path d="M48.6445 33.6268C48.6445 35.1124 47.9629 36.0266 47.0542 37.398C48.1333 36.9409 48.8149 35.3981 48.9853 34.941C49.1557 34.4839 49.1557 34.3124 49.7805 34.8267C51.03 35.9124 54.7786 36.1981 55.6874 35.5124C50.3484 35.3981 49.6101 33.9125 49.1557 33.4553C48.7013 32.9982 48.6445 33.2268 48.6445 33.6268Z" fill="#FF2800"/>
<path d="M51.9369 32.7008C50.6305 32.2473 50.1761 31.2269 48.245 30.2064C48.6994 30.2064 49.5513 30.4332 50.3465 30.7166C50.8009 31.5103 53.2432 32.8709 54.5496 33.211C55.856 33.5512 56.0264 33.8346 55.1176 34.4015C55.6288 33.5512 55.004 33.5512 54.0952 33.4378C53.1864 33.3244 53.2432 33.1543 51.9369 32.7008Z" fill="#FF2800"/>
<path d="M45.3401 27.3069C44.8405 27.9908 44.9673 28.6822 45.5494 29.2223C45.4501 28.397 44.9908 28.449 45.3401 27.3069Z" fill="#FF2800"/>
<path d="M31.7977 51.1289C31.1206 50.8476 30.6128 50.3412 28.2993 49.1034C28.4655 49.0297 28.5815 49.0471 28.92 48.9346C29.4279 49.1034 30.2433 49.4889 31.572 50.3975C33.547 51.7478 34.7319 51.9166 36.9325 51.579C34.7319 52.8168 32.4749 51.4102 31.7977 51.1289Z" fill="#FF2800"/>
<path d="M40.5049 43.7319C43.3673 44.2198 43.5963 43.7929 44.1688 43C44.1879 43.0407 44.1688 43.061 44.2261 43.244C43.4818 44.7688 40.8484 44.0979 40.5049 43.7319Z" fill="#FF2800"/>
<path d="M43.1682 21.5686C43.1682 21.3992 43.223 21.2863 42.291 21.1169C42.4189 21.0793 42.7954 21.0266 43.2778 21.1169C43.8809 21.2298 43.5519 21.5686 43.4423 21.625C43.3326 21.6815 43.3326 22.0767 43.2778 22.4154C43.0585 22.0767 43.1682 21.7379 43.1682 21.5686Z" fill="#FF2800"/>
<path d="M40.2312 24.5286C40.0996 24.4882 39.8111 24.4343 39.7093 24.542C39.6312 24.6248 39.468 25.2009 39.3465 25.6713C39.3159 25.8209 39.2805 25.9562 39.2515 26.0517C39.277 25.9455 39.3099 25.8132 39.3465 25.6713C39.4093 25.3645 39.4516 24.9971 39.3761 24.7871C39.2357 24.3965 39.1742 24.0302 40.2312 24.5286Z" fill="#FF2800"/>
<path d="M43.4312 25.8085C43.5743 25.4626 42.9912 25.5106 42.6585 25.5525C42.6609 25.5195 42.8562 25.4177 43.6183 25.2747C44.571 25.096 44.2818 25.672 43.4972 26.2614C42.7125 26.8508 43.1912 26.3882 43.4312 25.8085Z" fill="#FF2800"/>
<path d="M44.7617 24.5127C44.6744 24.6257 44.3662 24.9647 44.223 25.1201C44.6166 25.1491 44.8517 24.6354 44.9201 24.375C44.9037 24.3738 44.8491 24.3996 44.7617 24.5127Z" fill="#FF2800"/>
<path d="M34.4227 73.703L34.5632 74.2371H35.018L34.6501 74.5671L34.7906 75.1012L34.4227 74.7711L34.0548 75.1012L34.1953 74.5671L33.8274 74.2371H34.2822L34.4227 73.703Z" fill="black" fill-opacity="0.25"/>
<path d="M42.4113 66.1124L42.5752 66.6465H43.1058L42.6766 66.9765L42.8405 67.5106L42.4113 67.1805L41.982 67.5106L42.146 66.9765L41.7168 66.6465H42.2473L42.4113 66.1124Z" fill="black" fill-opacity="0.25"/>
<path d="M85.8172 96.0735L86.3325 97.6756H88L86.651 98.6658L87.1662 100.268L85.8172 99.2778L84.4682 100.268L84.9835 98.6658L83.6344 97.6756H85.3019L85.8172 96.0735Z" fill="black" fill-opacity="0.25"/>
<path d="M69.4911 62.9283L69.7721 63.8439L70.6817 63.8439L69.9458 64.4097L70.2269 65.3252L69.4911 64.7594L68.7552 65.3252L69.0363 64.4097L68.3004 63.8439L69.21 63.8439L69.4911 62.9283Z" fill="black" fill-opacity="0.25"/>
<path d="M81.7807 79.8231L82.0618 80.7386L82.9713 80.7386L82.2355 81.3045L82.5166 82.22L81.7807 81.6542L81.0449 82.22L81.326 81.3045L80.5901 80.7386L81.4997 80.7386L81.7807 79.8231Z" fill="black" fill-opacity="0.25"/>
<path d="M57.7387 7.78979L58.0432 8.70531H59.0286L58.2314 9.27113L58.5359 10.1866L57.7387 9.62082L56.9416 10.1866L57.2461 9.27113L56.4489 8.70531H57.4343L57.7387 7.78979Z" fill="black" fill-opacity="0.25"/>
<path d="M42.5585 0L42.6991 0.457757H43.1538L42.7859 0.740666L42.9264 1.19842L42.5585 0.915514L42.1906 1.19842L42.3311 0.740666L41.9632 0.457757H42.418L42.5585 0Z" fill="black" fill-opacity="0.25"/>
<path d="M0.387173 6.2321L0.969086 5.72874L0.673306 5.01613L1.32873 5.41764L1.91064 4.91429L1.7338 5.6658L2.38922 6.06732L1.62451 6.13026L1.44767 6.88177L1.15189 6.16916L0.387173 6.2321Z" fill="black" fill-opacity="0.25"/>
<path d="M16.8196 10.5514L17.3298 10.2859L17.233 9.74224L17.6451 10.1219L18.1554 9.85641L17.8999 10.3565L18.312 10.7361L17.742 10.6655L17.4865 11.1656L17.3896 10.6219L16.8196 10.5514Z" fill="black" fill-opacity="0.25"/>
<path d="M5.94736 37.7502L6.25184 38.7421H7.23718L6.44002 39.355L6.74451 40.3468L5.94736 39.7339L5.1502 40.3468L5.45469 39.355L4.65753 38.7421H5.64287L5.94736 37.7502Z" fill="black" fill-opacity="0.25"/>
<path d="M18.9448 75.1012L19.3196 76.2456H20.5323L19.5512 76.9529L19.9259 78.0972L18.9448 77.39L17.9637 78.0972L18.3384 76.9529L17.3573 76.2456H18.5701L18.9448 75.1012Z" fill="black" fill-opacity="0.25"/>
<path d="M8.91213 56.2081L9.14589 56.911H9.90237L9.29037 57.3454L9.52413 58.0483L8.91213 57.6139L8.30013 58.0483L8.53389 57.3454L7.92189 56.911H8.67836L8.91213 56.2081Z" fill="black" fill-opacity="0.25"/>
<path d="M49.5222 82.3953L49.8267 83.3108H50.812L50.0149 83.8766L50.3194 84.7921L49.5222 84.2263L48.725 84.7921L49.0295 83.8766L48.2324 83.3108H49.2177L49.5222 82.3953Z" fill="black" fill-opacity="0.25"/>
<path d="M51.2896 42.5439L51.5238 43.2306H52.2818L51.6686 43.6549L51.9028 44.3416L51.2896 43.9172L50.6764 44.3416L50.9106 43.6549L50.2975 43.2306H51.0554L51.2896 42.5439Z" fill="black" fill-opacity="0.25"/>
<path d="M70.0417 25.5664L70.2994 26.3293H71.1331L70.4586 26.8008L70.7162 27.5638L70.0417 27.0923L69.3672 27.5638L69.6248 26.8008L68.9503 26.3293H69.7841L70.0417 25.5664Z" fill="black" fill-opacity="0.25"/>
<g filter="url(#filter1_f_164_1102)">
<path d="M27.6924 25.0511C19.4868 22.8427 13.3132 21.2756 10.2042 21.6028C12.2847 23.239 19.0901 22.7359 27.6924 25.0511Z" fill="white"/>
</g>
<g filter="url(#filter2_f_164_1102)">
<path d="M20.4953 22.1487C16.4713 21.0657 13.4438 20.2972 11.9191 20.4576C12.9394 21.26 16.2768 21.0133 20.4953 22.1487Z" fill="white"/>
</g>
<g filter="url(#filter3_f_164_1102)">
<path d="M17.7426 26.8817C13.8532 25.3813 10.9221 24.2984 9.3891 24.2976C10.3205 25.2029 13.6651 25.3087 17.7426 26.8817Z" fill="white"/>
</g>
<path d="M15.2455 101.957H12.509L11.8313 103.78C11.8053 103.824 11.7879 103.872 11.7792 103.924C11.7705 103.977 11.7662 104.016 11.7662 104.042C11.7662 104.139 11.8096 104.217 11.8965 104.279C11.992 104.34 12.1788 104.392 12.4568 104.436C12.5784 104.453 12.6393 104.537 12.6393 104.685C12.6393 104.746 12.6306 104.821 12.6132 104.908C12.3786 104.891 12.131 104.873 11.8704 104.856C11.6098 104.847 11.3535 104.843 11.1016 104.843C10.9278 104.843 10.7454 104.847 10.5543 104.856C10.3631 104.864 10.1503 104.882 9.91574 104.908C9.89837 104.873 9.88968 104.834 9.88968 104.79C9.88968 104.746 9.88968 104.711 9.88968 104.685C9.88968 104.519 9.94615 104.432 10.0591 104.423C10.3284 104.37 10.5195 104.314 10.6325 104.252C10.7541 104.191 10.8496 104.086 10.9191 103.938L14.0597 96.3823C14.1292 96.2336 14.2334 96.1593 14.3724 96.1593C14.4158 96.1593 14.4593 96.1637 14.5027 96.1724C14.5462 96.1724 14.5939 96.1768 14.6461 96.1855L17.7866 103.977C17.8387 104.108 17.9386 104.209 18.0863 104.279C18.234 104.34 18.3947 104.383 18.5685 104.41C18.6988 104.436 18.7639 104.523 18.7639 104.672C18.7639 104.742 18.7552 104.821 18.7379 104.908C18.4599 104.891 18.1862 104.873 17.9169 104.856C17.6476 104.847 17.3957 104.843 17.1611 104.843C17.0395 104.843 16.8918 104.843 16.718 104.843C16.5443 104.851 16.3662 104.86 16.1837 104.869C16.0013 104.878 15.8189 104.882 15.6364 104.882C15.4627 104.891 15.315 104.899 15.1934 104.908C15.176 104.873 15.1673 104.834 15.1673 104.79C15.1673 104.746 15.1673 104.711 15.1673 104.685C15.1673 104.606 15.1803 104.55 15.2064 104.515C15.2412 104.471 15.2759 104.445 15.3107 104.436C15.5365 104.392 15.7016 104.344 15.8058 104.292C15.9188 104.23 15.9752 104.143 15.9752 104.029C15.9752 103.977 15.9622 103.911 15.9362 103.833L15.2455 101.957ZM14.9979 101.301L13.8903 98.3498L12.7565 101.301H14.9979Z" fill="white"/>
<path d="M25.7936 101.957H23.0571L22.3795 103.78C22.3534 103.824 22.336 103.872 22.3273 103.924C22.3187 103.977 22.3143 104.016 22.3143 104.042C22.3143 104.139 22.3578 104.217 22.4446 104.279C22.5402 104.34 22.727 104.392 23.005 104.436C23.1266 104.453 23.1874 104.537 23.1874 104.685C23.1874 104.746 23.1787 104.821 23.1613 104.908C22.9268 104.891 22.6792 104.873 22.4186 104.856C22.1579 104.847 21.9017 104.843 21.6497 104.843C21.476 104.843 21.2935 104.847 21.1024 104.856C20.9113 104.864 20.6984 104.882 20.4639 104.908C20.4465 104.873 20.4378 104.834 20.4378 104.79C20.4378 104.746 20.4378 104.711 20.4378 104.685C20.4378 104.519 20.4943 104.432 20.6072 104.423C20.8765 104.37 21.0677 104.314 21.1806 104.252C21.3022 104.191 21.3978 104.086 21.4673 103.938L24.6078 96.3823C24.6773 96.2336 24.7816 96.1593 24.9206 96.1593C24.964 96.1593 25.0074 96.1637 25.0509 96.1724C25.0943 96.1724 25.1421 96.1768 25.1942 96.1855L28.3347 103.977C28.3869 104.108 28.4868 104.209 28.6345 104.279C28.7821 104.34 28.9429 104.383 29.1166 104.41C29.2469 104.436 29.3121 104.523 29.3121 104.672C29.3121 104.742 29.3034 104.821 29.286 104.908C29.008 104.891 28.7344 104.873 28.465 104.856C28.1957 104.847 27.9438 104.843 27.7092 104.843C27.5876 104.843 27.4399 104.843 27.2662 104.843C27.0924 104.851 26.9143 104.86 26.7319 104.869C26.5495 104.878 26.367 104.882 26.1846 104.882C26.0108 104.891 25.8631 104.899 25.7415 104.908C25.7241 104.873 25.7155 104.834 25.7155 104.79C25.7155 104.746 25.7155 104.711 25.7155 104.685C25.7155 104.606 25.7285 104.55 25.7546 104.515C25.7893 104.471 25.8241 104.445 25.8588 104.436C26.0847 104.392 26.2497 104.344 26.354 104.292C26.4669 104.23 26.5234 104.143 26.5234 104.029C26.5234 103.977 26.5104 103.911 26.4843 103.833L25.7936 101.957ZM25.5461 101.301L24.4384 98.3498L23.3047 101.301H25.5461Z" fill="white"/>
<path d="M34.0353 103.872C34.0353 103.959 34.0396 104.034 34.0483 104.095C34.0657 104.147 34.1004 104.195 34.1526 104.239C34.2134 104.283 34.2959 104.322 34.4001 104.357C34.5131 104.383 34.6608 104.41 34.8432 104.436C34.9301 104.453 34.9735 104.528 34.9735 104.659C34.9735 104.685 34.9692 104.725 34.9605 104.777C34.9605 104.829 34.9561 104.873 34.9475 104.908C34.6695 104.891 34.3697 104.873 34.0483 104.856C33.7356 104.847 33.4576 104.843 33.2143 104.843C32.9624 104.843 32.68 104.847 32.3673 104.856C32.0545 104.873 31.7592 104.891 31.4812 104.908C31.4638 104.873 31.4551 104.829 31.4551 104.777C31.4551 104.725 31.4551 104.685 31.4551 104.659C31.4551 104.519 31.4985 104.445 31.5854 104.436C31.7678 104.41 31.9112 104.383 32.0154 104.357C32.1284 104.322 32.2109 104.283 32.263 104.239C32.3152 104.195 32.3499 104.147 32.3673 104.095C32.3847 104.034 32.3933 103.959 32.3933 103.872V97.3005C32.3933 97.213 32.3847 97.1431 32.3673 97.0906C32.3499 97.0294 32.3152 96.9769 32.263 96.9332C32.2109 96.8895 32.1284 96.8545 32.0154 96.8283C31.9112 96.7933 31.7678 96.7627 31.5854 96.7364C31.4985 96.7102 31.4551 96.6359 31.4551 96.5135C31.4551 96.4872 31.4551 96.4479 31.4551 96.3954C31.4551 96.3429 31.4638 96.2948 31.4812 96.2511C31.7592 96.2686 32.0545 96.2861 32.3673 96.3036C32.68 96.3123 32.9624 96.3167 33.2143 96.3167C33.4576 96.3167 33.7356 96.3123 34.0483 96.3036C34.3697 96.2861 34.6695 96.2686 34.9475 96.2511C34.9561 96.2948 34.9605 96.3429 34.9605 96.3954C34.9692 96.4479 34.9735 96.4872 34.9735 96.5135C34.9735 96.6359 34.9301 96.7102 34.8432 96.7364C34.6608 96.7627 34.5131 96.7933 34.4001 96.8283C34.2959 96.8545 34.2134 96.8895 34.1526 96.9332C34.1004 96.9769 34.0657 97.0294 34.0483 97.0906C34.0396 97.1431 34.0353 97.213 34.0353 97.3005V103.872Z" fill="white"/>
<path d="M43.152 98.4416C43.0738 98.4678 42.9913 98.481 42.9044 98.481C42.7828 98.481 42.6959 98.4591 42.6438 98.4154C42.5917 98.3629 42.5569 98.3104 42.5396 98.258C42.3397 97.7595 42.0791 97.401 41.7577 97.1824C41.4449 96.9638 41.0236 96.8545 40.4937 96.8545C40.0767 96.8545 39.7205 96.9594 39.4251 97.1693C39.1384 97.3704 38.9951 97.6808 38.9951 98.1006C38.9951 98.4241 39.1037 98.6865 39.3209 98.8876C39.5467 99.08 39.8247 99.2505 40.1548 99.3991C40.4937 99.5478 40.8542 99.6921 41.2364 99.832C41.6274 99.9719 41.9879 100.147 42.318 100.357C42.6568 100.567 42.9348 100.833 43.152 101.157C43.3779 101.48 43.4908 101.896 43.4908 102.403C43.4908 102.735 43.4344 103.059 43.3214 103.374C43.2085 103.688 43.0304 103.968 42.7871 104.213C42.5439 104.449 42.2355 104.641 41.8619 104.79C41.4884 104.93 41.041 105 40.5197 105C39.9463 105 39.4338 104.939 38.982 104.816C38.5303 104.685 38.1567 104.545 37.8614 104.397C37.8353 104.021 37.7919 103.653 37.731 103.295C37.6789 102.928 37.6181 102.573 37.5486 102.232C37.6355 102.197 37.7354 102.18 37.8483 102.18C37.9526 102.18 38.0308 102.202 38.0829 102.245C38.135 102.28 38.1784 102.346 38.2132 102.442C38.3261 102.775 38.4521 103.063 38.5911 103.308C38.7301 103.544 38.8908 103.741 39.0733 103.898C39.2557 104.047 39.4642 104.156 39.6988 104.226C39.942 104.296 40.22 104.331 40.5328 104.331C40.8021 104.331 41.0323 104.296 41.2234 104.226C41.4145 104.147 41.5709 104.047 41.6925 103.924C41.8142 103.802 41.9054 103.658 41.9662 103.492C42.027 103.325 42.0574 103.155 42.0574 102.98C42.0574 102.604 41.9488 102.311 41.7316 102.101C41.5231 101.883 41.2582 101.703 40.9367 101.563C40.624 101.415 40.2808 101.279 39.9073 101.157C39.5424 101.026 39.1992 100.864 38.8778 100.671C38.565 100.47 38.3001 100.217 38.0829 99.9107C37.8744 99.5959 37.7701 99.1762 37.7701 98.6515C37.7701 98.3017 37.8309 97.9782 37.9526 97.6808C38.0829 97.3748 38.2697 97.1125 38.5129 96.8938C38.7562 96.6665 39.0472 96.4872 39.386 96.3561C39.7335 96.2249 40.1288 96.1593 40.5718 96.1593C40.9367 96.1593 41.3016 96.1987 41.6665 96.2774C42.04 96.3561 42.4614 96.4872 42.9305 96.6709C42.9479 96.9332 42.9739 97.2305 43.0087 97.5628C43.0521 97.8863 43.0999 98.1793 43.152 98.4416Z" fill="white"/>
<path d="M50.5407 101.957H47.8042L47.1265 103.78C47.1005 103.824 47.0831 103.872 47.0744 103.924C47.0657 103.977 47.0614 104.016 47.0614 104.042C47.0614 104.139 47.1048 104.217 47.1917 104.279C47.2873 104.34 47.474 104.392 47.752 104.436C47.8737 104.453 47.9345 104.537 47.9345 104.685C47.9345 104.746 47.9258 104.821 47.9084 104.908C47.6739 104.891 47.4263 104.873 47.1656 104.856C46.905 104.847 46.6487 104.843 46.3968 104.843C46.223 104.843 46.0406 104.847 45.8495 104.856C45.6584 104.864 45.4455 104.882 45.211 104.908C45.1936 104.873 45.1849 104.834 45.1849 104.79C45.1849 104.746 45.1849 104.711 45.1849 104.685C45.1849 104.519 45.2414 104.432 45.3543 104.423C45.6236 104.37 45.8147 104.314 45.9277 104.252C46.0493 104.191 46.1449 104.086 46.2144 103.938L49.3549 96.3823C49.4244 96.2336 49.5286 96.1593 49.6676 96.1593C49.7111 96.1593 49.7545 96.1637 49.7979 96.1724C49.8414 96.1724 49.8892 96.1768 49.9413 96.1855L53.0818 103.977C53.1339 104.108 53.2338 104.209 53.3815 104.279C53.5292 104.34 53.6899 104.383 53.8637 104.41C53.994 104.436 54.0591 104.523 54.0591 104.672C54.0591 104.742 54.0504 104.821 54.0331 104.908C53.7551 104.891 53.4814 104.873 53.2121 104.856C52.9428 104.847 52.6909 104.843 52.4563 104.843C52.3347 104.843 52.187 104.843 52.0132 104.843C51.8395 104.851 51.6614 104.86 51.479 104.869C51.2965 104.878 51.1141 104.882 50.9316 104.882C50.7579 104.891 50.6102 104.899 50.4886 104.908C50.4712 104.873 50.4625 104.834 50.4625 104.79C50.4625 104.746 50.4625 104.711 50.4625 104.685C50.4625 104.606 50.4756 104.55 50.5016 104.515C50.5364 104.471 50.5711 104.445 50.6059 104.436C50.8317 104.392 50.9968 104.344 51.1011 104.292C51.214 104.23 51.2705 104.143 51.2705 104.029C51.2705 103.977 51.2574 103.911 51.2314 103.833L50.5407 101.957ZM50.2931 101.301L49.1855 98.3498L48.0518 101.301H50.2931Z" fill="white"/>
<path d="M64.2685 96.5659C64.3032 96.4872 64.3597 96.426 64.4379 96.3823C64.5161 96.3386 64.7072 96.3167 65.0113 96.3167C65.0808 96.3167 65.1807 96.3167 65.311 96.3167C65.45 96.308 65.5977 96.3036 65.754 96.3036C65.9104 96.2948 66.0668 96.2861 66.2232 96.2774C66.3795 96.2686 66.5142 96.2599 66.6271 96.2511C66.6445 96.2948 66.6532 96.3386 66.6532 96.3823C66.6532 96.426 66.6532 96.461 66.6532 96.4872C66.6532 96.6271 66.6054 96.7102 66.5098 96.7364C66.3361 96.7627 66.1971 96.7889 66.0928 96.8151C65.9973 96.8414 65.9234 96.8764 65.8713 96.9201C65.8192 96.9551 65.7844 96.9988 65.7671 97.0512C65.7497 97.1037 65.741 97.1649 65.741 97.2349C65.741 97.2524 65.7453 97.4185 65.754 97.7333C65.7714 98.0481 65.7931 98.4372 65.8192 98.9007C65.8453 99.3642 65.8713 99.867 65.8974 100.409C65.9234 100.951 65.9495 101.467 65.9756 101.957C66.0016 102.438 66.0233 102.858 66.0407 103.216C66.0581 103.575 66.0711 103.793 66.0798 103.872C66.0798 103.959 66.0885 104.034 66.1059 104.095C66.1319 104.147 66.171 104.195 66.2232 104.239C66.284 104.283 66.3665 104.322 66.4707 104.357C66.575 104.383 66.7097 104.41 66.8747 104.436C66.9703 104.453 67.0181 104.537 67.0181 104.685C67.0181 104.746 67.0094 104.821 66.992 104.908C66.6879 104.891 66.4099 104.873 66.158 104.856C65.9148 104.847 65.6367 104.843 65.324 104.843C65.0373 104.843 64.7289 104.847 64.3988 104.856C64.0774 104.873 63.808 104.891 63.5909 104.908C63.5735 104.821 63.5648 104.746 63.5648 104.685C63.5648 104.589 63.5778 104.523 63.6039 104.488C63.6386 104.453 63.669 104.436 63.6951 104.436C64.0513 104.375 64.2815 104.305 64.3858 104.226C64.49 104.139 64.5421 104.007 64.5421 103.833C64.5421 103.806 64.5334 103.666 64.5161 103.413C64.5074 103.159 64.4943 102.844 64.477 102.468C64.4683 102.092 64.4509 101.686 64.4249 101.249C64.4075 100.811 64.3858 100.4 64.3597 100.016C64.3423 99.6309 64.3249 99.2986 64.3076 99.0188C64.2989 98.7389 64.2902 98.5684 64.2815 98.5072L61.6101 104.764C61.5667 104.843 61.5276 104.899 61.4928 104.934C61.4668 104.978 61.4277 105 61.3755 105C61.3582 105 61.3321 105 61.2974 105C61.2626 105 61.2365 104.996 61.2192 104.987L58.1959 97.694C58.1872 97.8076 58.1742 98.0394 58.1568 98.3891C58.1482 98.7302 58.1308 99.1237 58.1047 99.5697C58.0873 100.016 58.0656 100.488 58.0396 100.986C58.0222 101.476 58.0048 101.931 57.9874 102.35C57.9701 102.77 57.9527 103.124 57.9353 103.413C57.9266 103.693 57.9223 103.846 57.9223 103.872C57.9223 103.951 57.931 104.021 57.9483 104.082C57.9657 104.134 58.0005 104.182 58.0526 104.226C58.1047 104.27 58.1829 104.309 58.2872 104.344C58.3914 104.37 58.5347 104.401 58.7172 104.436C58.8127 104.453 58.8605 104.537 58.8605 104.685C58.8605 104.711 58.8562 104.746 58.8475 104.79C58.8475 104.825 58.8432 104.864 58.8345 104.908C58.5999 104.891 58.3827 104.873 58.1829 104.856C57.9831 104.847 57.7833 104.843 57.5835 104.843C57.4097 104.843 57.1925 104.847 56.9319 104.856C56.6713 104.873 56.4367 104.891 56.2282 104.908C56.2108 104.873 56.2022 104.834 56.2022 104.79C56.2022 104.746 56.2022 104.711 56.2022 104.685C56.2022 104.589 56.2152 104.528 56.2413 104.502C56.2673 104.467 56.3021 104.445 56.3455 104.436C56.6148 104.375 56.8103 104.305 56.9319 104.226C57.0535 104.147 57.123 104.029 57.1404 103.872C57.1404 103.802 57.1491 103.592 57.1665 103.242C57.1838 102.884 57.2056 102.464 57.2316 101.983C57.2577 101.493 57.2838 100.978 57.3098 100.435C57.3359 99.8845 57.3576 99.3773 57.375 98.9138C57.401 98.4416 57.4184 98.0481 57.4271 97.7333C57.4445 97.4185 57.4532 97.2524 57.4532 97.2349C57.4532 97.0862 57.4054 96.9813 57.3098 96.9201C57.2143 96.8501 57.0058 96.7889 56.6843 96.7364C56.5888 96.7277 56.541 96.6446 56.541 96.4872C56.541 96.461 56.541 96.426 56.541 96.3823C56.541 96.3386 56.5497 96.2948 56.567 96.2511C56.68 96.2599 56.8363 96.2686 57.0362 96.2774C57.236 96.2861 57.4401 96.2948 57.6486 96.3036C57.8571 96.3036 58.0526 96.308 58.235 96.3167C58.4175 96.3167 58.5478 96.3167 58.626 96.3167C58.7823 96.3167 58.904 96.3254 58.9908 96.3429C59.0777 96.3517 59.1472 96.3648 59.1993 96.3823C59.2515 96.3998 59.2862 96.426 59.3036 96.461C59.3297 96.496 59.3514 96.5309 59.3687 96.5659L61.7925 102.455L64.2685 96.5659Z" fill="white"/>
<path d="M74.513 101.957H71.7765L71.0989 103.78C71.0728 103.824 71.0554 103.872 71.0467 103.924C71.038 103.977 71.0337 104.016 71.0337 104.042C71.0337 104.139 71.0771 104.217 71.164 104.279C71.2596 104.34 71.4464 104.392 71.7244 104.436C71.846 104.453 71.9068 104.537 71.9068 104.685C71.9068 104.746 71.8981 104.821 71.8807 104.908C71.6462 104.891 71.3986 104.873 71.138 104.856C70.8773 104.847 70.6211 104.843 70.3691 104.843C70.1954 104.843 70.0129 104.847 69.8218 104.856C69.6307 104.864 69.4178 104.882 69.1833 104.908C69.1659 104.873 69.1572 104.834 69.1572 104.79C69.1572 104.746 69.1572 104.711 69.1572 104.685C69.1572 104.519 69.2137 104.432 69.3266 104.423C69.5959 104.37 69.7871 104.314 69.9 104.252C70.0216 104.191 70.1172 104.086 70.1867 103.938L73.3272 96.3823C73.3967 96.2336 73.5009 96.1593 73.6399 96.1593C73.6834 96.1593 73.7268 96.1637 73.7703 96.1724C73.8137 96.1724 73.8615 96.1768 73.9136 96.1855L77.0541 103.977C77.1062 104.108 77.2061 104.209 77.3538 104.279C77.5015 104.34 77.6622 104.383 77.836 104.41C77.9663 104.436 78.0315 104.523 78.0315 104.672C78.0315 104.742 78.0228 104.821 78.0054 104.908C77.7274 104.891 77.4537 104.873 77.1844 104.856C76.9151 104.847 76.6632 104.843 76.4286 104.843C76.307 104.843 76.1593 104.843 75.9856 104.843C75.8118 104.851 75.6337 104.86 75.4513 104.869C75.2688 104.878 75.0864 104.882 74.904 104.882C74.7302 104.891 74.5825 104.899 74.4609 104.908C74.4435 104.873 74.4349 104.834 74.4349 104.79C74.4349 104.746 74.4349 104.711 74.4349 104.685C74.4349 104.606 74.4479 104.55 74.4739 104.515C74.5087 104.471 74.5434 104.445 74.5782 104.436C74.8041 104.392 74.9691 104.344 75.0734 104.292C75.1863 104.23 75.2428 104.143 75.2428 104.029C75.2428 103.977 75.2298 103.911 75.2037 103.833L74.513 101.957ZM74.2654 101.301L73.1578 98.3498L72.0241 101.301H74.2654Z" fill="white"/>
<defs>
<filter id="filter0_f_164_1102" x="6.32837" y="8.48059" width="82.0696" height="93.2645" filterUnits="userSpaceOnUse" color-interpolation-filters="sRGB">
<feFlood flood-opacity="0" result="BackgroundImageFix"/>
<feBlend mode="normal" in="SourceGraphic" in2="BackgroundImageFix" result="shape"/>
<feGaussianBlur stdDeviation="5" result="effect1_foregroundBlur_164_1102"/>
</filter>
<filter id="filter1_f_164_1102" x="6.20416" y="17.5596" width="25.4883" height="11.4916" filterUnits="userSpaceOnUse" color-interpolation-filters="sRGB">
<feFlood flood-opacity="0" result="BackgroundImageFix"/>
<feBlend mode="normal" in="SourceGraphic" in2="BackgroundImageFix" result="shape"/>
<feGaussianBlur stdDeviation="2" result="effect1_foregroundBlur_164_1102"/>
</filter>
<filter id="filter2_f_164_1102" x="7.91914" y="16.4364" width="16.5761" height="9.71228" filterUnits="userSpaceOnUse" color-interpolation-filters="sRGB">
<feFlood flood-opacity="0" result="BackgroundImageFix"/>
<feBlend mode="normal" in="SourceGraphic" in2="BackgroundImageFix" result="shape"/>
<feGaussianBlur stdDeviation="2" result="effect1_foregroundBlur_164_1102"/>
</filter>
<filter id="filter3_f_164_1102" x="5.3891" y="20.2976" width="16.3535" height="10.5841" filterUnits="userSpaceOnUse" color-interpolation-filters="sRGB">
<feFlood flood-opacity="0" result="BackgroundImageFix"/>
<feBlend mode="normal" in="SourceGraphic" in2="BackgroundImageFix" result="shape"/>
<feGaussianBlur stdDeviation="2" result="effect1_foregroundBlur_164_1102"/>
</filter>
</defs>
</svg>
