<svg width="112" height="112" viewBox="0 0 112 112" fill="none" xmlns="http://www.w3.org/2000/svg">
<path d="M56 20C36.1389 20 20 36.1388 20 55.9998C20 68.2535 25.7136 77.3152 32.0655 83.1973C35.2415 86.1378 38.5776 88.2962 41.5156 89.75C44.453 91.204 46.8499 92 48.7998 92H63.2002C65.0998 92 67.515 91.2724 70.4561 89.8906C73.3972 88.5089 76.7503 86.4234 79.9345 83.5343C86.3022 77.7561 92 68.6834 92 56.0009C92 36.1399 75.8611 20.0011 56 20.0011V20ZM56 23.5997C73.9148 23.5997 88.4 38.0846 88.4 55.9994C88.4 60.5772 87.6046 64.5863 86.2906 68.0931C85.2636 64.2535 81.7511 61.3997 77.6002 61.3997C75.502 61.3997 73.5723 62.1254 72.0317 63.3402C71.2451 59.1791 67.5814 55.9994 63.2006 55.9994C60.5225 55.9994 58.1029 57.1922 56.4506 59.0649C54.8743 57.7101 52.8296 56.8989 50.601 56.8989C47.4118 56.8989 44.6068 58.5696 43.0072 61.0894C42.0084 60.7046 40.9311 60.4986 39.8011 60.4986C34.8516 60.4986 30.8011 64.5491 30.8011 69.4986C30.8011 70.606 30.9932 71.6663 31.3636 72.6489C30.8909 74.0821 30.7528 75.2963 30.8576 76.6429C26.7305 71.5189 23.5998 64.7113 23.5998 55.9993C23.5998 38.0846 38.0842 23.5995 55.9998 23.5995L56 23.5997ZM56 25.9903C45.5938 25.9903 37.1 29.7746 37.1 34.3994C37.1 39.0243 45.5941 42.7803 56 42.7803C66.4059 42.7803 74.9 39.0243 74.9 34.3994C74.9 29.7746 66.4059 25.9903 56 25.9903ZM56 28.3809C63.4877 28.3809 69.5 31.0715 69.5 34.3994C69.5 37.7273 63.4877 40.3897 56 40.3897C48.5123 40.3897 42.5 37.7273 42.5 34.3994C42.5 31.0715 48.5123 28.3809 56 28.3809ZM63.2002 59.5994C66.2036 59.5994 68.6005 61.9956 68.6005 64.9997C68.6005 68.0031 66.2042 70.4 63.2002 70.4C61.5898 70.4 60.1635 69.7013 59.1786 68.6002C59.4498 67.7457 59.6005 66.8411 59.6005 65.9C59.6005 64.5082 59.2709 63.1705 58.7002 61.9908C59.6633 60.5381 61.3093 59.6002 63.2002 59.6002L63.2002 59.5994ZM50.6005 60.4997C53.6039 60.4997 56.0008 62.8959 56.0008 65.8999C56.0008 68.9034 53.6046 71.3002 50.6005 71.3002C47.5971 71.3002 45.2002 68.904 45.2002 65.8999C45.2002 62.8965 47.5964 60.4997 50.6005 60.4997ZM39.8006 64.0993C40.4887 64.0993 41.1385 64.2349 41.7411 64.4647C41.5609 65.3455 41.6061 66.1742 41.6846 66.9959C41.0744 66.8628 40.4491 66.7988 39.7999 66.7988C37.818 66.7988 35.9754 67.446 34.4844 68.5428C34.9289 66.001 37.1224 64.0994 39.7999 64.0994L39.8006 64.0993ZM77.6006 64.9996C80.6041 64.9996 83.001 67.3958 83.001 70.3999C83.001 71.6611 82.5609 72.8036 81.8477 73.7183C80.9418 69.9063 77.6069 67.0398 73.5791 66.8277C74.5647 65.7171 75.9829 64.9996 77.6007 64.9996H77.6006ZM39.8006 70.3999C41.8793 70.3999 43.6779 71.5387 44.5819 73.2406C41.7467 74.7605 39.8006 77.7751 39.8006 81.1996C36.7972 81.1996 34.4003 78.8034 34.4003 75.7993C34.4003 72.7959 36.7966 70.3991 39.8006 70.3991V70.3999ZM73.1006 70.3999C76.1041 70.3999 78.501 72.7961 78.501 75.8001C78.501 78.8035 76.1047 81.2004 73.1006 81.2004C70.0972 81.2004 67.7003 78.8042 67.7003 75.8001C67.7003 72.7967 70.0966 70.3999 73.1006 70.3999ZM57.3506 71.8344C57.7192 72.1508 58.1159 72.4245 58.5322 72.6781C57.2314 73.1188 56.0618 73.8433 55.1006 74.7875C54.8444 74.5357 54.5695 74.3047 54.2851 74.0843C55.4634 73.5507 56.5055 72.7923 57.3505 71.8344H57.3506ZM48.8008 75.8001C51.8042 75.8001 54.2011 78.1963 54.2011 81.2004C54.2011 84.2038 51.8049 86.6007 48.8008 86.6007C45.7974 86.6007 43.4005 84.2044 43.4005 81.2004C43.4005 78.197 45.7967 75.8001 48.8008 75.8001ZM61.4005 75.8001C62.4106 75.8001 63.3517 76.0851 64.1564 76.5597C64.3422 78.713 65.272 80.6724 66.7159 82.1281C66.2821 84.6838 64.0879 86.5998 61.4005 86.5998C59.6583 86.5998 58.1378 85.7818 57.1534 84.5187C57.5672 83.4879 57.8001 82.3742 57.8001 81.2003C57.8001 80.0245 57.5684 78.8864 57.1534 77.8536C58.1384 76.6006 59.6665 75.8008 61.4005 75.8008V75.8001ZM69.8946 84.181C70.6692 84.4798 71.4829 84.6713 72.3418 84.7435C70.9964 85.5966 69.6742 86.2759 68.376 86.8528C69.0207 86.0599 69.5474 85.1604 69.8946 84.181H69.8946ZM40.5321 84.7435C40.6068 84.9161 40.6997 85.0825 40.785 85.2495C40.5239 85.0944 40.2627 84.9381 39.9978 84.7711C40.1767 84.7592 40.3575 84.756 40.5321 84.7435V84.7435ZM55.1 87.6119C55.3957 87.9026 55.7234 88.1512 56.0561 88.3991H54.1439C54.4767 88.1511 54.805 87.9019 55.1001 87.6119H55.1Z" fill="#F2A5B9"/>
</svg>
