<svg width="32" height="32" viewBox="0 0 32 32" fill="none" xmlns="http://www.w3.org/2000/svg">
<path d="M15.72 18.6974C15.577 18.3848 15.3205 18.1469 14.9973 18.0273C14.6757 17.9093 14.3263 17.9221 14.0146 18.0646L11.801 19.0794C11.4139 19.2575 10.9231 19.1836 10.4198 18.8715C9.85258 18.5196 9.3553 17.9226 9.0198 17.1905C8.37016 15.7735 8.54587 14.2439 9.40287 13.8499H9.40339L11.6164 12.8353C11.9285 12.6918 12.1669 12.4358 12.2865 12.1137C12.4061 11.7915 12.3931 11.4417 12.2498 11.1294L10.6994 7.74916C10.4046 7.10542 9.64068 6.82203 8.99401 7.11632L6.78042 8.13118C6.7799 8.13118 6.77938 8.1317 6.77886 8.13222C3.8104 9.49557 3.10865 14.341 5.21593 18.935C6.22043 21.1252 7.7044 22.9436 9.3954 24.0545C10.5171 24.7916 11.6481 25.1663 12.7038 25.1663C13.3069 25.1663 13.8851 25.0443 14.4231 24.7976C14.4231 24.7976 14.4231 24.7971 14.4236 24.7971L16.6377 23.7822C17.2815 23.4854 17.5654 22.7206 17.2701 22.076L15.72 18.6974ZM9.40754 8.01874C9.5545 7.95227 9.72968 8.01632 9.79719 8.16311L11.3476 11.5434C11.3803 11.6149 11.3833 11.6947 11.3561 11.7682C11.3288 11.8416 11.2742 11.9003 11.2033 11.933L9.44092 12.741L7.64622 8.8271L9.40754 8.01874ZM9.9405 23.2258C8.40335 22.2158 7.04594 20.5452 6.11846 18.5215C4.35492 14.6771 4.67172 10.6931 6.76012 9.27902L8.56417 13.2137C7.52887 14.0431 7.31302 15.8516 8.11651 17.6051C8.53247 18.5123 9.16479 19.2619 9.89579 19.7154C10.3817 20.0166 10.878 20.169 11.35 20.169C11.481 20.169 11.6086 20.1523 11.7351 20.1289L13.5392 24.0631C12.4717 24.3496 11.2144 24.0622 9.94043 23.2258L9.9405 23.2258ZM16.2233 22.8805L14.4604 23.6885L12.6657 19.7751L14.4277 18.967C14.4992 18.9343 14.5795 18.9314 14.6531 18.9586C14.7265 18.9859 14.7847 19.0394 14.8174 19.1104L16.3678 22.4898C16.4357 22.6378 16.3702 22.8135 16.2233 22.8805L16.2233 22.8805Z" fill="white"/>
<path d="M15.521 12.2495C14.4113 12.2495 13.5081 13.1522 13.5081 14.262C13.5081 15.3722 14.4113 16.2755 15.521 16.2755C16.6313 16.2755 17.5345 15.3722 17.5345 14.262C17.5345 13.1529 16.6313 12.2495 15.521 12.2495ZM15.521 15.2831C14.9583 15.2831 14.5006 14.8254 14.5006 14.2621C14.5006 13.6998 14.9583 13.2422 15.521 13.2422C16.0838 13.2422 16.542 13.6999 16.542 14.2621C16.542 14.8254 16.0838 15.2831 15.521 15.2831Z" fill="white"/>
<path d="M21.155 12.2495C20.0447 12.2495 19.1415 13.1522 19.1415 14.262C19.1415 15.3722 20.0442 16.2755 21.155 16.2755C22.2658 16.2755 23.1685 15.3722 23.1685 14.262C23.1682 13.1529 22.2653 12.2495 21.155 12.2495ZM21.155 15.2831C20.5923 15.2831 20.1341 14.8254 20.1341 14.2621C20.1341 13.6998 20.5921 13.2422 21.155 13.2422C21.7177 13.2422 22.1759 13.6999 22.1759 14.2621C22.1754 14.8254 21.7179 15.2831 21.155 15.2831Z" fill="white"/>
<path d="M26.7887 12.2495C25.6784 12.2495 24.7751 13.1522 24.7751 14.262C24.7751 15.3722 25.6779 16.2755 26.7887 16.2755C27.8994 16.2757 28.8022 15.3724 28.8022 14.2621C28.8022 13.1529 27.8995 12.2495 26.7887 12.2495ZM26.7887 15.2831C26.2259 15.2831 25.7677 14.8254 25.7677 14.2621C25.7677 13.6998 26.2257 13.2422 26.7887 13.2422C27.3514 13.2422 27.8096 13.6997 27.8096 14.2621C27.8096 14.8254 27.3514 15.2831 26.7887 15.2831Z" fill="white"/>
<path d="M5 1H27V-1H5V1ZM31 5V27H33V5H31ZM27 31H5V33H27V31ZM1 27V5H-1V27H1ZM5 31C2.79086 31 1 29.2091 1 27H-1C-1 30.3137 1.68629 33 5 33V31ZM31 27C31 29.2091 29.2091 31 27 31V33C30.3137 33 33 30.3137 33 27H31ZM27 1C29.2091 1 31 2.79086 31 5H33C33 1.68629 30.3137 -1 27 -1V1ZM5 -1C1.68629 -1 -1 1.68629 -1 5H1C1 2.79086 2.79086 1 5 1V-1Z" fill="white"/>
</svg>
