<svg width="26" height="26" viewBox="0 0 26 26" fill="none" xmlns="http://www.w3.org/2000/svg">
<path d="M16.8911 13.7512L7.2637 13.7512C6.84204 13.7512 6.50019 13.3983 6.50019 12.9906C6.50019 12.5704 6.85239 12.2299 7.2637 12.2299L16.8721 12.2299L13.8818 9.23966C13.5915 8.9493 13.588 8.46272 13.886 8.16474C14.1751 7.87547 14.6651 7.86495 14.9607 8.16057L19.1979 12.3977C19.2211 12.4159 19.2432 12.4356 19.2644 12.4569C19.4142 12.6065 19.4877 12.8038 19.4872 13C19.4877 13.1963 19.4142 13.3936 19.2644 13.5432C19.2432 13.5644 19.2211 13.5842 19.1979 13.6023L14.9607 17.8395C14.6651 18.1351 14.1751 18.1246 13.886 17.8353C13.588 17.5373 13.5915 17.0508 13.8818 16.7604L16.8911 13.7512ZM13 26C5.82029 26 -2.54413e-07 20.1797 -5.68248e-07 13C-8.82083e-07 5.82029 5.82028 -2.54413e-07 13 -5.68248e-07C20.1797 -8.82083e-07 26 5.82028 26 13C26 20.1797 20.1797 26 13 26ZM13 24.5557C19.3821 24.5557 24.5556 19.3821 24.5556 13C24.5556 6.61797 19.3821 1.44444 13 1.44444C6.61793 1.44444 1.44439 6.61798 1.44439 13C1.44439 19.3821 6.61793 24.5557 13 24.5557Z" fill="white"/>
</svg>
