<svg width="112" height="112" viewBox="0 0 112 112" fill="none" xmlns="http://www.w3.org/2000/svg">
<path d="M20 90.435C20 90.8501 20.1646 91.2479 20.458 91.5419C20.752 91.8354 21.1497 91.9999 21.5648 91.9999H32.5207C32.9357 91.9999 33.334 91.8354 33.6275 91.5419C33.9209 91.2479 34.086 90.8501 34.086 90.435V83.3916C35.002 83.1683 35.951 83.1128 36.8875 83.227L58.2901 85.9742H58.4856C61.4746 85.9732 64.4056 85.1441 66.9529 83.5792H67.0231L89.7176 67.9265C90.5545 67.3846 91.2106 66.6048 91.601 65.6872C91.9914 64.7696 92.0983 63.756 91.9086 62.7771C91.6225 61.2841 90.6378 60.0185 89.2612 59.3739C87.884 58.7298 86.2816 58.7843 84.9516 59.5217L69.6998 66.5651C69.6747 65.964 69.5395 65.3724 69.301 64.82C68.6271 63.504 67.4501 62.5161 66.0374 62.0807H65.9436C64.7624 61.9103 63.5608 61.9449 62.3912 62.1823C59.7307 62.5424 56.4283 62.9648 52.0143 60.8674C45.3314 57.6506 36.3628 60.085 34.117 60.8281V59.1302C34.117 58.7151 33.9525 58.3173 33.659 58.0233C33.3656 57.7299 32.9673 57.5653 32.5523 57.5653H21.565C20.7008 57.5653 20.0002 58.266 20.0002 59.1302L20 90.435ZM23.13 79.4311L30.9554 71.6052V76.4262L23.13 84.2521V79.4311ZM30.9554 64.562V69.3986L23.13 77.2246V72.3879L30.9554 64.562ZM23.13 86.4746L30.9554 78.6487V83.4696L25.5401 88.8696H23.13V86.4746ZM27.7473 88.8696L30.9554 85.6608V88.8696H27.7473ZM34.6415 63.9277C35.3144 63.7007 44.4703 60.7188 50.6217 63.6693V63.6698C54.3974 65.4893 58.6562 66.0517 62.7745 65.274C63.5706 65.1162 64.3828 65.0612 65.1929 65.1094C65.7253 65.2981 66.1686 65.677 66.437 66.1738C66.6743 66.8698 66.6209 67.6317 66.2881 68.2869C65.1222 69.1945 61.9922 71.057 55.9427 71.057V71.0575C55.0786 71.0575 54.378 71.7582 54.378 72.6224C54.378 73.4871 55.0786 74.1878 55.9427 74.1878C63.0952 74.1878 66.8986 71.84 68.4634 70.5801L86.3056 62.3548H86.3837C86.989 61.9937 87.7552 62.0498 88.3012 62.4957C88.5815 62.72 88.7796 63.0308 88.8645 63.3798C88.9976 64.1036 88.6905 64.8372 88.0821 65.2502H88.0119L65.3174 80.9028C63.2988 82.1543 60.9773 82.8308 58.6029 82.8592L37.2781 80.1591C36.2148 80.037 35.139 80.0711 34.0857 80.2608V64.1628L34.6415 63.9277ZM30.9554 62.3623L23.13 70.1882V65.3914L27.8254 60.6957H30.9554V62.3623ZM25.5872 60.6957L23.13 63.153V60.6957H25.5872Z" fill="#F2A5B9"/>
<path d="M55.9974 20C51.0164 20 46.2394 21.9789 42.7168 25.5012C39.1948 29.0234 37.2161 33.8008 37.2161 38.7826C37.2161 43.7639 39.1948 48.5413 42.7168 52.0635C46.2394 55.5864 51.0164 57.5652 55.9974 57.5652C60.9783 57.5652 65.7553 55.5864 69.2779 52.0635C72.7999 48.5413 74.7787 43.7639 74.7787 38.7826C74.7787 33.8008 72.7999 29.0234 69.2779 25.5012C65.7553 21.9789 60.9783 20 55.9974 20ZM55.9974 54.4353V54.4347C51.8466 54.4347 47.8655 52.786 44.9304 49.8507C41.9952 46.9154 40.3461 42.934 40.3461 38.7829C40.3461 34.6318 41.9952 30.6504 44.9304 27.7151C47.8655 24.7798 51.8466 23.1305 55.9974 23.1305C60.1482 23.1305 64.1293 24.7798 67.0644 27.7151C69.9995 30.6504 71.6486 34.6318 71.6486 38.7829C71.6486 42.934 69.9995 46.9154 67.0644 49.8507C64.1293 52.786 60.1482 54.4347 55.9974 54.4347V54.4353Z" fill="#F2A5B9"/>
<path d="M58.2121 37.7257C57.4297 37.4751 56.8271 37.2875 56.2789 37.1387C54.831 36.7242 54.5496 36.6141 54.252 36.1603H54.2526C53.9051 35.5502 54.098 34.7752 54.6906 34.3994C55.2 34.1478 55.7895 34.1112 56.3261 34.2977C57.2536 34.5288 58.0387 35.1436 58.4862 35.9879C58.8771 36.7598 59.8199 37.068 60.5912 36.677C61.3626 36.2856 61.6707 35.3433 61.2798 34.5719C60.4942 33.0851 59.1611 31.9621 57.5628 31.4411V29.391H54.4322V31.1833V31.1827C53.9014 31.2907 53.3967 31.5008 52.9456 31.8011C51.9698 32.44 51.2865 33.4378 51.0427 34.5781C50.7996 35.7185 51.0165 36.9087 51.6464 37.8898C52.6012 39.3378 53.8453 39.69 55.4184 40.1438C55.9272 40.2927 56.5141 40.4567 57.2184 40.6915C58.3221 41.0672 58.4159 41.2942 58.3299 42.0923C58.2749 42.5304 57.4689 43.196 56.5928 43.3443C55.474 43.5319 54.2451 42.773 53.4627 41.466L53.4622 41.4665C52.9901 40.8172 52.1034 40.6306 51.4096 41.0336C50.7157 41.4372 50.4396 42.3003 50.7702 43.0314C51.5893 44.4816 52.8994 45.5915 54.4636 46.1622V48.1736H57.5936V46.3262C59.3858 45.8645 61.2482 44.4322 61.5066 42.413C61.8273 38.9384 59.1275 37.9993 58.2119 37.7256L58.2121 37.7257Z" fill="#F2A5B9"/>
</svg>
