<svg width="82" height="82" viewBox="0 0 82 82" fill="none" xmlns="http://www.w3.org/2000/svg">
<path d="M69.192 19.8311C67.4502 18.0253 65.0301 17.0352 62.5228 17.1013C59.9885 17.0881 57.5563 18.0999 55.778 19.9068C54.5907 21.1413 53.7538 22.6704 53.3542 24.3371C52.9546 26.0033 53.0064 27.7456 53.5043 29.3852L38.0443 34.6175L27.5858 24.3049C28.5025 22.826 28.9757 21.1154 28.9502 19.3759C28.8826 16.8645 27.8512 14.4748 26.0703 12.7035C24.2861 10.9453 21.874 9.97204 19.3698 10.0006C16.8657 10.0292 14.4763 11.0564 12.7323 12.8547C10.9195 14.5928 9.92838 17.0174 10.004 19.5277C9.97602 22.0443 10.991 24.46 12.8079 26.2006C14.5847 27.954 16.9815 28.9346 19.4771 28.9304C21.2158 28.9558 22.9253 28.4824 24.4029 27.5652L34.8613 37.8778L29.8594 53.4224C28.9443 53.1796 28.0022 53.0521 27.0555 53.0431C24.5439 53.0331 22.136 54.046 20.3863 55.8492C18.6297 57.6544 17.65 60.0775 17.658 62.5978C17.657 65.1086 18.6677 67.5147 20.4619 69.2702C22.2434 71.0167 24.6371 71.9963 27.1311 72C29.6506 71.9799 32.0601 70.9649 33.8341 69.175C35.6087 67.3856 36.6042 64.9669 36.6042 62.446C36.6053 59.9717 35.6241 57.5989 33.876 55.8492L39.2569 39.0155L56.0054 33.4041C57.7525 35.0998 60.0891 36.0514 62.5229 36.0583C65.0703 36.0599 67.5073 35.019 69.2677 33.1768C71.0805 31.4392 72.0716 29.0141 71.996 26.5038C72.024 23.9871 71.009 21.5715 69.1921 19.8314L69.192 19.8311ZM19.4772 24.381V24.3805C18.1747 24.4376 16.9086 23.942 15.9908 23.0159C15.0879 22.077 14.573 20.8308 14.5508 19.5275C14.5122 18.2274 15.0049 16.9681 15.9152 16.0397C16.8556 15.0834 18.136 14.5381 19.4771 14.5228C21.2369 14.5228 22.863 15.4622 23.7431 16.9876C24.6227 18.5125 24.6227 20.3913 23.7431 21.9161C22.8629 23.441 21.2368 24.3804 19.4771 24.3804L19.4772 24.381ZM30.6176 65.9345C29.7036 66.8707 28.455 67.4048 27.147 67.4192C25.8392 67.4335 24.5794 66.9268 23.6454 66.0107C22.7144 65.0898 22.1953 63.832 22.2053 62.5224C22.2117 61.2164 22.7287 59.9644 23.6454 59.0346C24.5652 58.1031 25.8223 57.5837 27.1312 57.5937C28.4248 57.5879 29.6713 58.0761 30.6176 58.9583C31.5205 59.8972 32.0354 61.1434 32.0576 62.4467C32.0671 63.7563 31.548 65.0141 30.6176 65.9345ZM66.0848 29.9922C64.8531 31.2516 63.043 31.7583 61.3366 31.3204C59.6303 30.883 58.287 29.5681 57.8128 27.8706C57.3381 26.1733 57.8049 24.3517 59.0371 23.0918C59.9664 22.1746 61.2177 21.6578 62.5229 21.6509C63.8223 21.6123 65.0815 22.1053 66.0093 23.0161C66.9122 23.9549 67.4272 25.2011 67.4493 26.5039C67.4879 27.804 66.9953 29.0638 66.085 29.9922L66.0848 29.9922Z" fill="#F2A5B9"/>
</svg>
