<svg width="82" height="82" viewBox="0 0 82 82" fill="none" xmlns="http://www.w3.org/2000/svg">
<path d="M27.5905 25.2271C27.1585 25.1776 26.7239 25.1499 26.2893 25.1447C23.5575 25.1035 20.8862 25.9487 18.6751 27.553L5.95986 36.7382C4.96439 37.4613 4.36857 38.6117 4.35134 39.842L4.00021 66.3278C3.98978 67.2894 4.36125 68.2155 5.03273 68.9041C5.7042 69.5923 6.62148 69.9862 7.58301 70.0003L15.9976 70.1052H16.3941H16.3936C20.9734 70.0994 25.5005 69.1259 29.6775 67.2476C32.1824 66.1003 34.4618 64.5147 36.4089 62.5655C37.5238 61.4641 38.764 60.4973 40.1038 59.6855L54.8987 50.7101C56.2292 49.9093 57.2487 48.6816 57.7917 47.227C58.3354 45.7724 58.3698 44.1764 57.8903 42.6995C57.4437 41.3821 56.6001 40.2353 55.4752 39.4167C54.3498 38.5987 52.9991 38.1489 51.6076 38.1296C50.7676 38.1207 49.9334 38.2673 49.1471 38.5637L31.9894 45.041C31.7499 45.1303 31.4969 45.1756 31.2412 45.1756C30.5849 45.1652 29.9682 44.8569 29.5659 44.3377C29.255 43.9031 29.1016 43.3751 29.1324 42.842L29.2445 27.0894C29.2503 26.1372 28.5376 25.3342 27.5911 25.2273L27.5905 25.2271ZM31.1059 48.8921C31.8364 48.9025 32.562 48.7757 33.2451 48.518H33.2973L50.455 42.048C50.8019 41.9176 51.1692 41.8518 51.5396 41.8534C52.172 41.8612 52.7861 42.0657 53.2963 42.4382C53.8071 42.8113 54.189 43.3335 54.3893 43.933C54.5949 44.6081 54.5662 45.3327 54.3085 45.9901C54.0502 46.647 53.578 47.198 52.9681 47.5527L38.1812 56.5281V56.5286C36.5915 57.4923 35.1202 58.6396 33.7982 59.9465C32.1584 61.5858 30.2379 62.9178 28.129 63.8809C24.326 65.5918 20.1965 66.4547 16.0269 66.4093L7.73961 66.2747L8.06882 39.8864L8.0683 39.8859C8.06882 39.8332 8.09386 39.7836 8.1356 39.7513L20.8508 30.566H20.8513C22.2099 29.5794 23.8201 28.9961 25.4958 28.8834L25.3241 42.7955C25.2865 44.1754 25.7217 45.5267 26.558 46.625C27.6516 48.031 29.3243 48.8649 31.1055 48.8915L31.1059 48.8921Z" fill="#F2A5B9"/>
<path d="M39.7154 69.2512C40.7631 69.15 41.7674 68.7817 42.6325 68.1817C43.7756 69.1808 45.2433 69.7286 46.7615 69.7223H47.3672C49.0879 69.5496 50.6593 68.6689 51.7054 67.2916C53.6405 68.1264 55.8667 67.9234 57.6192 66.7526C59.3723 65.5819 60.4115 63.6024 60.3813 61.4951V61.3381L59.7532 54.9656V54.9651C59.7276 54.4564 59.4944 53.98 59.1083 53.6477C58.7222 53.3153 58.2167 53.1557 57.7095 53.2058C57.2023 53.2559 56.738 53.5115 56.425 53.9133C56.1114 54.315 55.9763 54.8279 56.0509 55.3318L56.6718 61.6146C56.6728 62.2876 56.401 62.932 55.9194 63.4021C55.4373 63.8716 54.7862 64.1262 54.1132 64.108C53.4407 64.0897 52.8042 63.8002 52.3487 63.305C51.8807 62.813 51.1816 62.6143 50.5247 62.787C49.8679 62.9597 49.3571 63.4767 49.1922 64.1352C49.0321 64.816 48.5938 65.3978 47.9844 65.7406C47.375 66.0829 46.6498 66.1543 45.9851 65.9378C45.3209 65.7208 44.7773 65.235 44.4872 64.5991C44.1971 63.9871 43.5965 63.5807 42.9199 63.5389C42.2437 63.4967 41.5978 63.8254 41.2337 64.3972C40.8241 65.0588 40.1307 65.4928 39.3564 65.5716C38.3234 65.6728 37.5684 66.5921 37.6696 67.6246C37.7708 68.6577 38.6901 69.4127 39.7226 69.3114L39.7154 69.2512Z" fill="#F2A5B9"/>
<path d="M71.4063 11.0001H38.9595C37.4032 11.0022 35.9105 11.6215 34.8102 12.7224C33.7093 13.8227 33.09 15.3154 33.0879 16.8717V36.4683C33.0879 37.5008 33.9253 38.3382 34.9578 38.3382C35.9908 38.3382 36.8277 37.5008 36.8277 36.4683V24.6577H73.5606V43.8055C73.559 44.3742 73.3321 44.9194 72.9298 45.3212C72.5275 45.7235 71.9829 45.9504 71.4141 45.9525H63.5828C62.5503 45.9525 61.7129 46.7894 61.7129 47.8224C61.7129 48.8549 62.5503 49.6923 63.5828 49.6923H71.4141C72.9747 49.6939 74.4721 49.0756 75.576 47.9727C76.68 46.8702 77.3003 45.3734 77.3003 43.8128V16.8862V16.8867C77.3024 15.3236 76.682 13.8241 75.576 12.7197C74.4699 11.6151 72.9699 10.9964 71.4068 11L71.4063 11.0001ZM36.8131 20.9407V16.8717C36.8147 16.303 37.0417 15.7583 37.4439 15.356C37.8462 14.9538 38.3909 14.7273 38.9596 14.7252H71.4064C71.9761 14.7252 72.5229 14.9511 72.9268 15.3534C73.3306 15.7557 73.5586 16.3019 73.5602 16.8716V20.9407L36.8131 20.9407Z" fill="#F2A5B9"/>
</svg>
