<svg width="81" height="81" viewBox="0 0 81 81" fill="none" xmlns="http://www.w3.org/2000/svg">
<path d="M32.2743 30.3331H24.6085C22.8575 30.3386 21.18 31.0366 19.9419 32.2748C18.7038 33.5129 18.0057 35.1904 18.0002 36.9414V44.9321C18.0002 45.6587 18.3878 46.33 19.0169 46.6931C19.646 47.0561 20.4212 47.0561 21.0502 46.6931C21.6793 46.33 22.0669 45.6587 22.0669 44.9321V37.0022C22.0505 36.3178 22.3111 35.6555 22.7894 35.1653C23.2678 34.6756 23.9236 34.3997 24.6085 34.3997H32.2743C33.0005 34.3997 33.6717 34.0121 34.0353 33.383C34.3984 32.754 34.3984 31.9788 34.0353 31.3497C33.6717 30.7206 33.0005 30.3331 32.2743 30.3331L32.2743 30.3331Z" fill="#F2A5B9"/>
<path d="M18.0005 64.4522C18.0219 66.1927 18.7272 67.8548 19.9636 69.0798C21.1999 70.3047 22.8683 70.9945 24.6088 70.9995H56.1042C57.8625 70.9995 59.5487 70.301 60.7918 69.0579C62.0344 67.8148 62.7329 66.1291 62.7329 64.3708V37.0222C62.7493 35.2539 62.058 33.552 60.8131 32.2956C59.5686 31.0394 57.873 30.3326 56.1043 30.3326H48.6015C47.8754 30.3326 47.2041 30.7202 46.8406 31.3493C46.4775 31.9783 46.4775 32.7535 46.8406 33.3826C47.2041 34.0116 47.8754 34.3992 48.6015 34.3992H56.1043C56.782 34.3938 57.4337 34.6593 57.9148 35.1363C58.3959 35.6138 58.6664 36.2632 58.6664 36.9408V64.4312C58.6505 65.0998 58.3737 65.736 57.8948 66.2031C57.416 66.6706 56.7734 66.932 56.1044 66.932H24.6287C23.9511 66.9266 23.3025 66.6552 22.8228 66.1759C22.3435 65.6966 22.0721 65.048 22.0666 64.3699V61.3609C22.0666 60.6342 21.679 59.963 21.05 59.5999C20.4209 59.2368 19.6457 59.2368 19.0167 59.5999C18.3876 59.963 18 60.6343 18 61.3609L18.0005 64.4522Z" fill="#F2A5B9"/>
<path d="M40.3669 10C39.8277 10 39.3107 10.2142 38.929 10.5955C38.5478 10.9767 38.3336 11.4941 38.3336 12.0333V46.925L31.3794 41.1505H31.3799C30.9646 40.8051 30.429 40.639 29.8916 40.6889C29.3538 40.7384 28.8577 40.9993 28.5128 41.4146C28.1674 41.8299 28.0017 42.365 28.0512 42.9029C28.1006 43.4408 28.3616 43.9363 28.7769 44.2817L39.2894 53.0045C39.5907 53.2505 39.9679 53.3848 40.3569 53.3848C40.7458 53.3848 41.123 53.2505 41.4244 53.0045L51.9368 44.2817H51.9364C52.3911 43.9522 52.6889 43.4498 52.7601 42.8929C52.8309 42.336 52.6689 41.7746 52.3117 41.3415C51.9545 40.9085 51.4344 40.6426 50.8743 40.6063C50.3142 40.57 49.7642 40.7669 49.3543 41.1505L42.4002 46.925V12.0333C42.4002 11.4941 42.1859 10.9767 41.8047 10.5955C41.4235 10.2142 40.906 10 40.3669 10L40.3669 10Z" fill="#F2A5B9"/>
</svg>
