<svg width="52" height="52" viewBox="0 0 52 52" fill="none" xmlns="http://www.w3.org/2000/svg">
<path d="M15.9012 21.8508L26 11.752L36.1036 21.8552L41.9796 15.9792L26 0L10.0256 15.9744L15.9014 21.8504L15.9012 21.8508ZM0 26L5.87621 20.123L11.752 25.9988L5.87579 31.875L0 26ZM15.9012 30.1498L26 40.248L36.1034 30.145L41.9825 36.0179L41.9796 36.021L26 52L10.0256 36.0256L10.0173 36.0173L15.9018 30.1492L15.9012 30.1498ZM40.248 26.0025L46.1242 20.1263L52 26.0021L46.124 31.8783L40.248 26.0025Z" fill="white"/>
<path d="M31.9596 25.9969H31.9621L25.9999 20.0343L21.5931 24.44L21.0868 24.9465L20.0426 25.9908L20.0343 25.999L20.0426 26.0075L25.9999 31.9656L31.9625 26.0031L31.9654 25.9998L31.96 25.9969" fill="white"/>
</svg>
