<svg width="52" height="52" viewBox="0 0 52 52" fill="none" xmlns="http://www.w3.org/2000/svg">
<path d="M9.0112 1C6.25424 1 4 3.25434 4 6.0112V44.9888C4 47.7458 6.25434 50 9.0112 50H43.5342C46.2912 50 48.5454 47.7457 48.5454 44.9888V6.0112C48.5454 3.25424 46.2911 1 43.5342 1H9.0112ZM9.0112 3.22709H43.5342C45.0956 3.22709 46.3183 4.44942 46.3183 6.0112V44.9888C46.3183 46.5506 45.0956 47.7729 43.5342 47.7729H9.0112C7.44981 47.7729 6.22709 46.5506 6.22709 44.9888V6.0112C6.22709 4.44942 7.44981 3.22709 9.0112 3.22709ZM17.8336 5.45418C17.5551 5.47477 17.2941 5.59867 17.1026 5.8022C14.3185 8.77195 11.5343 11.7417 8.75024 14.7116C8.4434 15.0359 8.35988 15.5121 8.53816 15.9215C8.71645 16.3308 9.12156 16.5946 9.56819 16.5907H13.4658V27.7271C13.4658 28.3424 13.9646 28.8407 14.5794 28.8411H21.2616C21.8764 28.8407 22.3751 28.3424 22.3751 27.7271V16.5907H26.2728C26.7194 16.5946 27.1245 16.3308 27.3028 15.9215C27.4811 15.5121 27.3976 15.0359 27.0907 14.7116C24.3066 11.7418 21.5225 8.77205 18.7384 5.8022C18.5057 5.55439 18.1725 5.42622 17.8334 5.45418H17.8336ZM17.9206 8.18629C19.8514 10.246 21.784 12.3038 23.7148 14.3635H21.2616C20.6464 14.3635 20.1481 14.8623 20.1477 15.4771V26.6135H15.6934V15.4771C15.693 14.8622 15.1947 14.3635 14.5794 14.3635H12.1262C14.057 12.3038 15.9897 10.246 17.9205 8.18629H17.9206ZM31.1799 22.1586C30.6058 22.2129 30.1681 22.6957 30.1705 23.2725V34.409H26.2728C25.8335 34.4117 25.437 34.6723 25.2602 35.0747C25.0835 35.4767 25.16 35.9451 25.4548 36.2706C28.2389 39.2403 31.023 42.2101 33.8071 45.1799C34.018 45.4079 34.3144 45.5377 34.6251 45.5377C34.9358 45.5377 35.2322 45.4079 35.4431 45.1799C38.2272 42.2102 41.0113 39.2404 43.7954 36.2706C44.0902 35.9451 44.1668 35.4767 43.99 35.0747C43.8133 34.6723 43.4167 34.4117 42.9774 34.409H39.0798V23.2725C39.0798 22.6573 38.581 22.159 37.9662 22.1586H31.284C31.2495 22.157 31.2145 22.157 31.1799 22.1586H31.1799ZM32.398 24.3861H36.8522V35.5225C36.8526 36.1374 37.351 36.6361 37.9662 36.6361H40.4023C38.477 38.6895 36.5505 40.7423 34.625 42.7958C32.6997 40.7423 30.7732 38.6895 28.8478 36.6361H31.2839C31.8992 36.6361 32.3975 36.1373 32.3979 35.5225L32.398 24.3861Z" fill="#F2A5B9"/>
</svg>
