<svg width="20" height="23" viewBox="0 0 20 23" fill="none" xmlns="http://www.w3.org/2000/svg">
<path fill-rule="evenodd" clip-rule="evenodd" d="M10 0.441162C7.29417 0.441162 4.94123 2.32352 4.94123 5.85293C4.94123 8.08822 6.1177 10.4412 7.41181 11.8529C8.00005 13.147 7.05887 13.8529 6.82358 13.9706C4.00005 15.0294 0.705933 16.9118 0.705933 18.6765C0.705933 19.147 0.705933 18.9118 0.705933 19.3823C0.705933 21.8529 5.52946 22.4412 10 22.4412C14.4706 22.4412 19.2942 21.8529 19.2942 19.3823C19.2942 18.9118 19.2942 19.147 19.2942 18.6765C19.2942 16.9118 16 15.0294 13.1765 13.9706C12.9412 13.8529 12 13.147 12.4706 11.8529C13.8824 10.4412 14.9412 8.08822 14.9412 5.85293C14.9412 2.32352 12.7059 0.441162 10 0.441162Z" fill="#F6F6F6"/>
</svg>
