<?xml version="1.0" standalone="no"?>
<!DOCTYPE svg PUBLIC "-//W3C//DTD SVG 1.1//EN" "http://www.w3.org/Graphics/SVG/1.1/DTD/svg11.dtd" >
<svg xmlns="http://www.w3.org/2000/svg" xmlns:xlink="http://www.w3.org/1999/xlink" version="1.1">
<metadata>
Created by FontForge 20170731 at Mon Aug  8 10:21:54 2022
 By Aleksey,,,
Copyright (c) 2017 by Alberto Romanos. All rights reserved.
</metadata>
<defs>
<font id="BwGradual-Light" horiz-adv-x="1222" >
  <font-face 
    font-family="Bw Gradual Light"
    font-weight="300"
    font-stretch="normal"
    units-per-em="2048"
    panose-1="0 0 4 0 0 0 0 0 0 0"
    ascent="1577"
    descent="-471"
    x-height="1008"
    cap-height="1516"
    bbox="-1462 -492 2499 2075"
    underline-thickness="102"
    underline-position="-307"
    unicode-range="U+000D-FB02"
  />
<missing-glyph horiz-adv-x="2609" 
d="M156 -20q-15 0 -25 10.5t-10 25.5q0 21 10 31l700 698h-663q-47 0 -47 39q0 16 14 33l696 701h-669q-41 0 -41 38v3q0 38 41 38h758q47 0 47 -41q0 -20 -17 -34l-698 -697h676q17 0 29 -12t12 -29v-669l694 692q13 16 35 16q37 0 37 -45v-663l696 692q13 16 33 16
q15 0 25 -12t10 -27q0 -18 -13 -28l-753 -762q-14 -14 -35 -14q-41 0 -41 47v663l-694 -696q-14 -14 -35 -14q-41 0 -41 47v663l-697 -696q-14 -14 -34 -14z" />
    <glyph glyph-name="fi" unicode="fi" horiz-adv-x="1171" 
d="M332 1266v-258h669v-1008h-122v909h-537v-909h-123v909h-166v99h271v4q-53 48 -84 118t-31 148q0 151 90.5 235t253.5 84q103 0 176 -36l-18 -99q-67 31 -138 31q-120 0 -180.5 -59t-60.5 -168zM879 1245v197h122v-197h-122z" />
    <glyph glyph-name="fl" unicode="fl" horiz-adv-x="1198" 
d="M209 1278q0 151 90.5 235t253.5 84q103 0 176 -36l-18 -99q-67 31 -138 31q-120 0 -180.5 -59t-60.5 -168v-258h370v-99h-360v-909h-123v909h-166v99h271v4q-53 48 -84 118t-31 148zM905 0v1577h123v-1577h-123z" />
    <glyph glyph-name="f_f" unicode="ff" horiz-adv-x="1370" 
d="M1208 1493q-119 0 -180 -59t-61 -168v-258h372v-99h-360v-909h-123v909h-514v-909h-123v909h-166v99h271v4q-53 48 -84 118t-31 148q0 151 90.5 235t253.5 84q103 0 176 -36l-18 -99q-67 31 -138 31q-120 0 -180.5 -59t-60.5 -168v-258h626v4q-53 48 -83.5 118t-30.5 148
q0 150 91 234.5t253 84.5q104 0 182 -38l-18 -99q-62 33 -144 33z" />
    <glyph glyph-name="f_f_i" unicode="ffi" horiz-adv-x="1806" 
d="M967 1266v-258h669v-1008h-123v909h-534v-909h-123v909h-514v-909h-123v909h-166v99h271v4q-53 48 -84 118t-31 148q0 151 90.5 235t253.5 84q103 0 176 -36l-18 -99q-67 31 -138 31q-120 0 -180.5 -59t-60.5 -168v-258h626v4q-53 48 -83.5 118t-30.5 148q0 150 91 234.5
t253 84.5q105 0 176 -36l-18 -99q-67 31 -138 31q-119 0 -180 -59t-61 -168zM1513 1245v197h123v-197h-123z" />
    <glyph glyph-name="f_f_l" unicode="ffl" horiz-adv-x="1832" 
d="M844 1278q0 150 91 234.5t253 84.5q105 0 176 -36l-18 -99q-67 31 -138 31q-119 0 -180 -59t-61 -168v-258h372v-99h-360v-909h-123v909h-514v-909h-123v909h-166v99h271v4q-53 48 -84 118t-31 148q0 151 90.5 235t253.5 84q103 0 176 -36l-18 -99q-67 31 -138 31
q-120 0 -180.5 -59t-60.5 -168v-258h626v4q-53 48 -83.5 118t-30.5 148zM1540 0v1577h123v-1577h-123z" />
    <glyph glyph-name=".notdef" horiz-adv-x="2609" 
d="M156 -20q-15 0 -25 10.5t-10 25.5q0 21 10 31l700 698h-663q-47 0 -47 39q0 16 14 33l696 701h-669q-41 0 -41 38v3q0 38 41 38h758q47 0 47 -41q0 -20 -17 -34l-698 -697h676q17 0 29 -12t12 -29v-669l694 692q13 16 35 16q37 0 37 -45v-663l696 692q13 16 33 16
q15 0 25 -12t10 -27q0 -18 -13 -28l-753 -762q-14 -14 -35 -14q-41 0 -41 47v663l-694 -696q-14 -14 -35 -14q-41 0 -41 47v663l-697 -696q-14 -14 -34 -14z" />
    <glyph glyph-name=".null" horiz-adv-x="0" 
 />
    <glyph glyph-name="nonmarkingreturn" horiz-adv-x="682" 
 />
    <glyph glyph-name="CR" unicode="&#xd;" horiz-adv-x="505" 
 />
    <glyph glyph-name="space" unicode=" " horiz-adv-x="505" 
 />
    <glyph glyph-name="exclam" unicode="!" horiz-adv-x="509" 
d="M309 362h-110l-11 1154h131zM334 0h-160v152h160v-152z" />
    <glyph glyph-name="quotedbl" unicode="&#x22;" horiz-adv-x="620" 
d="M252 1188h-119v389h119v-389zM487 1188h-118v389h118v-389z" />
    <glyph glyph-name="numbersign" unicode="#" horiz-adv-x="1404" 
d="M1329 1118l-10 -82h-266l-52 -508h263l-13 -82h-258l-45 -446h-94l47 446h-469l-47 -446h-94l47 446h-262l10 82h260l53 508h-258l11 82h258l41 398h94l-39 -398h463l39 398h94l-41 -398h268zM440 530h467l54 506h-463z" />
    <glyph glyph-name="dollar" unicode="$" horiz-adv-x="1298" 
d="M1217 418q0 -198 -138 -312.5t-385 -123.5v-211h-90v209q-236 12 -374 152t-152 382h129q11 -188 114 -297t283 -121v643q-49 8 -80.5 14t-77 17t-75.5 21.5t-67.5 27.5t-61.5 36t-50 46t-40 58.5t-23.5 72t-9.5 88.5q0 190 127.5 298.5t357.5 117.5v205h90v-207
q217 -14 343.5 -147.5t138.5 -362.5h-129q-9 173 -102.5 276.5t-250.5 118.5v-579q51 -8 85.5 -14t82.5 -17t81 -22.5t73 -30t67 -39.5t54.5 -51.5t43.5 -66t26 -81.5t10 -100zM250 1124q0 -55 19.5 -97t49.5 -69t79.5 -47.5t95 -32t110.5 -22.5v565q-168 -9 -261 -86.5
t-93 -210.5zM694 725v-629q186 9 288.5 92t102.5 224q0 65 -22 115.5t-55 81.5t-88.5 55t-104 36t-121.5 25z" />
    <glyph glyph-name="percent" unicode="%" horiz-adv-x="1437" 
d="M1237 1487l-971 -1507l-63 49l968 1507zM365 737q-130 0 -202.5 100t-72.5 279t72.5 279t202.5 100t202 -100t72 -279t-72 -279t-202 -100zM365 825q78 0 122.5 77.5t44.5 213.5t-44.5 213.5t-122.5 77.5t-123 -77.5t-45 -213.5t45 -213.5t123 -77.5zM1077 -20
q-129 0 -201.5 100t-72.5 278t72.5 278.5t201.5 100.5q130 0 203.5 -100t73.5 -279q0 -178 -73 -278t-204 -100zM1077 68q78 0 123 77t45 213t-45 213.5t-123 77.5t-123 -77.5t-45 -213.5t45 -213t123 -77z" />
    <glyph glyph-name="ampersand" unicode="&#x26;" horiz-adv-x="1609" 
d="M1260 348l309 -276l-82 -92l-303 268q-231 -268 -574 -268q-240 0 -376 111t-136 304q0 49 7.5 93.5t23.5 81.5t33.5 68.5t47 60t54 50t63.5 43t66 36t72 32t71.5 27.5t73.5 26q9 3 28 10.5t28 10.5q-192 0 -308 77t-116 203q0 152 113.5 237t316.5 85q201 0 313.5 -87.5
t112.5 -244.5q0 -64 -24.5 -117t-62.5 -89.5t-96.5 -70.5t-113.5 -57.5t-127 -51.5q-3 -1 -4 -1q-180 -69 -252 -112q-160 -97 -184 -249q-5 -29 -5 -61q0 -139 102.5 -220t282.5 -81q279 0 473.5 219.5t260.5 610.5l114 -27q-59 -334 -202 -549zM371 1200q0 -118 84 -190
t221 -72h-2q55 20 93.5 37t79 41t65 49t40 60t15.5 75q0 105 -77.5 163t-217.5 58q-142 0 -221.5 -58t-79.5 -163z" />
    <glyph glyph-name="quotesingle" unicode="'" horiz-adv-x="387" 
d="M252 1188h-119v389h119v-389z" />
    <glyph glyph-name="parenleft" unicode="(" horiz-adv-x="550" 
d="M508 -444l-76 -48q-321 481 -321 1045q0 563 321 1044l76 -47q-301 -451 -301 -997t301 -997z" />
    <glyph glyph-name="parenright" unicode=")" horiz-adv-x="550" 
d="M117 -492l-74 48q301 451 301 997t-301 997l74 47q323 -480 323 -1044q0 -565 -323 -1045z" />
    <glyph glyph-name="asterisk" unicode="*" horiz-adv-x="768" 
d="M649 1382l33 -96q-134 -47 -291 10l-2 -2l156 -217l-80 -61q-89 121 -80 278l-4 2l-158 -217l-82 56q40 62 105.5 106t134.5 59v3l-256 86l29 94q139 -37 229 -176h6v270h100q0 -147 -98 -272l2 -5z" />
    <glyph glyph-name="plus" unicode="+" horiz-adv-x="946" 
d="M518 555h334v-78h-334v-340h-92v340h-332v78h332v340h92v-340z" />
    <glyph glyph-name="comma" unicode="," horiz-adv-x="434" 
d="M150 0v152h159v-134q0 -104 -42.5 -185t-119.5 -122v94q68 26 108.5 78.5t43.5 116.5h-149z" />
    <glyph glyph-name="hyphen" unicode="-" horiz-adv-x="811" 
d="M664 473h-517v78h517v-78z" />
    <glyph glyph-name="period" unicode="." horiz-adv-x="444" 
d="M301 0h-160v152h160v-152z" />
    <glyph glyph-name="slash" unicode="/" horiz-adv-x="825" 
d="M764 1612l-621 -1899l-84 27l621 1898z" />
    <glyph glyph-name="zero" unicode="0" horiz-adv-x="1310" 
d="M655 -20q-252 0 -392 205.5t-140 572.5t140 572.5t392 205.5t392.5 -205.5t140.5 -572.5t-140.5 -572.5t-392.5 -205.5zM655 94q189 0 295.5 175.5t106.5 488.5t-106.5 488t-295.5 175t-295 -175t-106 -488t106 -488.5t295 -175.5z" />
    <glyph glyph-name="one" unicode="1" horiz-adv-x="667" 
d="M336 1516h127v-1516h-127v1454h-4q0 -114 -73.5 -178t-203.5 -64v115q132 0 206.5 50t74.5 139z" />
    <glyph glyph-name="two" unicode="2" horiz-adv-x="1212" 
d="M182 115v-4h932v-111h-1022v100q401 101 624.5 347t223.5 583q0 184 -90.5 287.5t-251.5 103.5t-257 -114t-105 -316h-125q11 257 140 401t349 144q224 0 349.5 -134.5t125.5 -373.5q0 -359 -236 -600t-657 -313z" />
    <glyph glyph-name="three" unicode="3" horiz-adv-x="1216" 
d="M578 831h4q244 0 381 -111.5t137 -309.5q0 -203 -134.5 -316.5t-375.5 -113.5q-221 0 -351 129t-137 358h123q8 -177 104 -277t261 -100q179 0 279 84.5t100 235.5q0 149 -103 232t-288 83h-46v111q185 25 288.5 107t103.5 206q0 130 -88.5 203t-245.5 73
q-151 0 -241 -101.5t-97 -279.5h-123q11 231 137 361.5t340 130.5q212 0 330.5 -94t118.5 -260q0 -163 -126 -254.5t-351 -91.5v-5z" />
    <glyph glyph-name="four" unicode="4" horiz-adv-x="1187" 
d="M924 520h196v-110h-196v-410h-129v410h-742v120l625 986h246v-996zM797 1501h-4l-611 -977v-4h615v981z" />
    <glyph glyph-name="five" unicode="5" horiz-adv-x="1218" 
d="M608 -20q-211 0 -344 115t-158 319h127q23 -149 123 -234.5t252 -85.5q181 0 282 105.5t101 294.5q0 188 -99.5 292.5t-279.5 104.5q-146 0 -238 -77t-132 -210l-125 17l116 895h777v-111h-658l-108 -762h4q29 168 138 262t276 94q218 0 340 -132.5t122 -370.5
q0 -243 -136 -379.5t-380 -136.5z" />
    <glyph glyph-name="six" unicode="6" horiz-adv-x="1275" 
d="M694 975q222 0 345.5 -126.5t123.5 -354.5q0 -240 -139.5 -377t-368.5 -137q-270 0 -401 179t-131 543q0 392 146 613t405 221q201 0 321.5 -116.5t132.5 -321.5h-127q-11 153 -97 238t-230 85q-198 0 -309 -185t-111 -515v-146h4q0 188 115.5 294t320.5 106zM647 94
q182 0 283.5 104t101.5 291q0 177 -101.5 275t-283.5 98q-180 0 -280.5 -93.5t-100.5 -262.5q0 -188 106.5 -300t274.5 -112z" />
    <glyph glyph-name="seven" unicode="7" horiz-adv-x="1077" 
d="M31 1405v111h1009v-101q-244 -57 -381 -381.5t-137 -845.5v-188h-137v164q0 533 153 860t425 377v4h-932z" />
    <glyph glyph-name="eight" unicode="8" horiz-adv-x="1267" 
d="M782 836v-5q177 -31 273 -139t96 -278q0 -204 -136.5 -319t-379.5 -115q-244 0 -381 115t-137 319q0 170 96 278t272 139v5q-151 0 -235 85.5t-84 239.5q0 175 124 275t345 100q219 0 343 -100t124 -275q0 -152 -84.5 -238.5t-235.5 -86.5zM297 1124q0 -144 89.5 -224.5
t248.5 -80.5t247.5 80.5t88.5 224.5q0 140 -89 218.5t-247 78.5t-248 -79t-90 -218zM635 94q181 0 283 84.5t102 235.5t-101.5 235t-283.5 84t-284.5 -84.5t-102.5 -234.5q0 -151 102.5 -235.5t284.5 -84.5z" />
    <glyph glyph-name="nine" unicode="9" horiz-adv-x="1273" 
d="M627 1536q270 0 397 -181t127 -542q0 -392 -146 -612.5t-407 -220.5q-200 0 -321 127.5t-134 351.5h127q12 -172 99 -268.5t229 -96.5q198 0 310 185.5t112 515.5v166h-4q0 -179 -115.5 -279t-320.5 -100q-223 0 -347 121t-124 339q0 230 142 362t376 132zM627 694
q179 0 280 88.5t101 247.5q0 178 -107 284.5t-274 106.5q-182 0 -283.5 -98t-101.5 -276q0 -167 101.5 -260t283.5 -93z" />
    <glyph glyph-name="colon" unicode=":" horiz-adv-x="454" 
d="M307 874h-160v152h160v-152zM307 0h-160v152h160v-152z" />
    <glyph glyph-name="semicolon" unicode=";" horiz-adv-x="456" 
d="M150 874v152h159v-152h-159zM301 0h-151v152h159v-134q0 -104 -42.5 -185t-119.5 -122v94q68 26 108.5 78t45.5 117z" />
    <glyph glyph-name="less" unicode="&#x3c;" horiz-adv-x="976" 
d="M842 920v-89l-736 -313v-4l736 -309v-88l-748 323v154z" />
    <glyph glyph-name="equal" unicode="=" horiz-adv-x="1056" 
d="M907 610h-757v78h757v-78zM907 344h-757v78h757v-78z" />
    <glyph glyph-name="greater" unicode="&#x3e;" horiz-adv-x="976" 
d="M137 831v89l746 -326v-154l-746 -323v88l733 309v4z" />
    <glyph glyph-name="question" unicode="?" horiz-adv-x="1089" 
d="M545 362h-125v5q201 195 315.5 392t114.5 349q0 146 -85.5 229.5t-236.5 83.5q-153 0 -244 -97.5t-98 -270.5h-125q11 228 134 355.5t335 127.5q213 0 333 -112.5t120 -311.5q0 -165 -116 -363.5t-322 -386.5zM555 0h-162v152h162v-152z" />
    <glyph glyph-name="at" unicode="@" horiz-adv-x="2279" 
d="M1403 281q0 32 4 59l6 41h-4q-26 -149 -137 -233.5t-281 -84.5q-165 0 -253.5 98.5t-88.5 276.5q0 265 135.5 427.5t360.5 162.5q157 0 243.5 -65.5t86.5 -184.5q0 -11 -3 -33t-4 -32h5l53 295h121l-121 -676q-4 -32 -4 -43q0 -60 35.5 -92.5t101.5 -32.5
q186 0 289.5 148t103.5 411q0 367 -224.5 572.5t-623.5 205.5q-464 0 -724.5 -277t-260.5 -771q0 -399 233.5 -623.5t649.5 -224.5q140 0 292 29.5t285 84.5l39 -94q-135 -55 -297.5 -86t-318.5 -31q-470 0 -733 249.5t-263 695.5q0 539 290 841.5t808 302.5q453 0 707 -231
t254 -643q0 -309 -138.5 -482t-384.5 -173q-115 0 -177 55.5t-62 157.5zM1053 164q153 0 257.5 93.5t139.5 260.5l6 27q10 62 10 102q0 134 -71.5 206.5t-206.5 72.5q-187 0 -299.5 -127.5t-112.5 -335.5q0 -141 72.5 -220t204.5 -79z" />
    <glyph glyph-name="A" unicode="A" horiz-adv-x="1372" 
d="M1339 0h-141l-137 399h-758l-137 -399h-135l542 1516h228zM682 1501l-340 -991h682l-338 991h-4z" />
    <glyph glyph-name="B" unicode="B" horiz-adv-x="1361" 
d="M782 831h23q217 0 337 -109t120 -304q0 -197 -125 -307.5t-349 -110.5h-583v1516h530q193 0 300.5 -95t107.5 -264q0 -152 -96 -236.5t-265 -84.5v-5zM1010 1116q0 136 -83 212.5t-231 76.5h-362v-569h362q148 0 231 74t83 206zM334 111h463q157 0 245 81t88 226
q0 146 -88 226.5t-245 80.5h-463v-614z" />
    <glyph glyph-name="C" unicode="C" horiz-adv-x="1437" 
d="M750 -20q-298 0 -464.5 205.5t-166.5 572.5t166.5 572.5t464.5 205.5q238 0 395.5 -145t200.5 -402h-125q-41 204 -165.5 318t-305.5 114q-235 0 -367.5 -175t-132.5 -488t132.5 -488.5t367.5 -175.5q181 0 305.5 119t165.5 330h125q-43 -263 -201 -413t-395 -150z" />
    <glyph glyph-name="D" unicode="D" horiz-adv-x="1437" 
d="M621 0h-416v1516h416q331 0 516.5 -200.5t185.5 -557.5t-185.5 -557.5t-516.5 -200.5zM334 1405v-1294h299q263 0 411 171t148 476t-148 476t-411 171h-299z" />
    <glyph glyph-name="E" unicode="E" horiz-adv-x="1257" 
d="M334 729v-618h833v-111h-962v1516h940v-111h-811v-565h739v-111h-739z" />
    <glyph glyph-name="F" unicode="F" horiz-adv-x="1134" 
d="M1085 1516v-111h-751v-578h645v-110h-645v-717h-129v1516h880z" />
    <glyph glyph-name="G" unicode="G" horiz-adv-x="1482" 
d="M711 674v104h639v-778h-123v553h-4q0 -270 -140.5 -421.5t-392.5 -151.5q-262 0 -416.5 207t-154.5 571q0 367 168 572.5t467 205.5q231 0 385 -142.5t198 -392.5h-125q-41 197 -163 308.5t-295 111.5q-238 0 -371 -175t-133 -488t128 -488.5t357 -175.5t358 153t130 427
h-512z" />
    <glyph glyph-name="H" unicode="H" horiz-adv-x="1484" 
d="M1151 825v691h129v-1516h-129v715h-817v-715h-129v1516h129v-691h817z" />
    <glyph glyph-name="I" unicode="I" horiz-adv-x="538" 
d="M334 0h-129v1516h129v-1516z" />
    <glyph glyph-name="J" unicode="J" horiz-adv-x="1110" 
d="M498 -20q-189 0 -305.5 135t-133.5 374h121q17 -186 102 -290.5t218 -104.5q136 0 213.5 87t77.5 241v1094h129v-1084q0 -212 -112 -332t-310 -120z" />
    <glyph glyph-name="K" unicode="K" horiz-adv-x="1380" 
d="M1311 1516l-811 -728l880 -788h-188l-856 780h-4v-780h-127v1516h127v-719h4l799 719h176z" />
    <glyph glyph-name="L" unicode="L" horiz-adv-x="1087" 
d="M334 1516v-1405h710v-111h-839v1516h129z" />
    <glyph glyph-name="M" unicode="M" horiz-adv-x="1888" 
d="M1409 1516h254l43 -1516h-129l-43 1501h-4l-481 -1501h-236l-461 1501h-4l-43 -1501h-123l45 1516h252l453 -1502h6z" />
    <glyph glyph-name="N" unicode="N" horiz-adv-x="1484" 
d="M1159 14l-2 1502h123v-1516h-240l-708 1501h-4l2 -1501h-125v1516h241l709 -1502h4z" />
    <glyph glyph-name="O" unicode="O" horiz-adv-x="1511" 
d="M756 -20q-301 0 -469 205.5t-168 572.5t168 572.5t469 205.5t469 -205.5t168 -572.5t-168 -572.5t-469 -205.5zM756 94q238 0 372 175.5t134 488.5t-134 488t-372 175q-239 0 -372.5 -175t-133.5 -488q0 -314 133.5 -489t372.5 -175z" />
    <glyph glyph-name="P" unicode="P" horiz-adv-x="1269" 
d="M205 1516h504q229 0 357 -118.5t128 -330.5t-128.5 -331.5t-358.5 -119.5h-373v-616h-129v1516zM334 727h381q163 0 254.5 90t91.5 250t-90.5 249t-253.5 89h-383v-678z" />
    <glyph glyph-name="Q" unicode="Q" horiz-adv-x="1544" 
d="M899 111v-5l578 5v-111h-721q-300 0 -468.5 203.5t-168.5 564.5t168.5 564.5t468.5 203.5t468.5 -197t168.5 -544q0 -323 -130.5 -503.5t-363.5 -180.5zM250 766q0 -311 134 -486.5t372 -175.5t372 175.5t134 486.5q0 309 -134 482t-372 173t-372 -173t-134 -482z" />
    <glyph glyph-name="R" unicode="R" horiz-adv-x="1343" 
d="M979 475l289 -475h-148l-399 662h-387v-662h-129v1516h520q235 0 367.5 -109t132.5 -301q0 -207 -128.5 -323.5t-357.5 -116.5v-4q56 0 120.5 -49.5t119.5 -137.5zM334 1405v-637h405q167 0 261 86.5t94 241.5q0 146 -94.5 227.5t-262.5 81.5h-403z" />
    <glyph glyph-name="S" unicode="S" horiz-adv-x="1337" 
d="M666 -20q-255 0 -405.5 141t-162.5 393h127q12 -198 128.5 -309t312.5 -111q207 0 322.5 83.5t115.5 234.5q0 71 -28.5 125t-60.5 83.5t-108 55t-116 33.5t-140 25q-3 1 -4 1q-71 12 -107.5 18.5t-100 23t-98 33t-79 45.5t-67.5 64.5t-39.5 86.5t-16.5 114q0 198 139 307
t388 109q238 0 378 -135.5t150 -376.5h-127q-9 187 -116 292t-289 105q-185 0 -288.5 -78t-103.5 -219q0 -61 25.5 -107t58 -72.5t99 -48t111 -30t130.5 -22.5q73 -11 113.5 -18.5t106.5 -24.5t103.5 -35.5t85 -50.5t72.5 -72t42.5 -97.5t17.5 -127.5q0 -207 -151 -322.5
t-418 -115.5z" />
    <glyph glyph-name="T" unicode="T" horiz-adv-x="1165" 
d="M41 1516h1083v-111h-477v-1405h-129v1405h-477v111z" />
    <glyph glyph-name="U" unicode="U" horiz-adv-x="1449" 
d="M725 -20q-252 0 -394.5 142t-142.5 394v1000h129v-1010q0 -194 108 -303t300 -109q195 0 304.5 109t109.5 303v1010h123v-1000q0 -252 -142.5 -394t-394.5 -142z" />
    <glyph glyph-name="V" unicode="V" horiz-adv-x="1312" 
d="M659 14l476 1502h135l-492 -1516h-243l-492 1516h143l469 -1502h4z" />
    <glyph glyph-name="W" unicode="W" horiz-adv-x="2033" 
d="M1479 14l366 1502h135l-376 -1516h-250l-336 1501h-4l-334 -1501h-250l-377 1516h142l364 -1502h4l336 1502h236l340 -1502h4z" />
    <glyph glyph-name="X" unicode="X" horiz-adv-x="1282" 
d="M1204 1516l-416 -728l465 -788h-170l-440 780h-4l-438 -780h-170l465 788l-418 728h155l406 -719h4l406 719h155z" />
    <glyph glyph-name="Y" unicode="Y" horiz-adv-x="1314" 
d="M688 565l488 951h145l-789 -1516h-145l283 551h-127l-502 965h152l491 -951h4z" />
    <glyph glyph-name="Z" unicode="Z" horiz-adv-x="1337" 
d="M100 115v-4h1166v-111h-1186v258l1124 1143v4h-1095v111h1118v-259z" />
    <glyph glyph-name="bracketleft" unicode="[" horiz-adv-x="614" 
d="M569 1577v-86h-280v-1876h280v-86h-374v2048h374z" />
    <glyph glyph-name="backslash" unicode="\" horiz-adv-x="825" 
d="M766 -260l-84 -27l-621 1899l84 26z" />
    <glyph glyph-name="bracketright" unicode="]" horiz-adv-x="614" 
d="M420 1577v-2048h-373v86h279v1876h-279v86h373z" />
    <glyph glyph-name="asciicircum" unicode="^" horiz-adv-x="1069" 
d="M440 1475h189l358 -752h-100l-350 739h-5l-350 -739h-100z" />
    <glyph glyph-name="underscore" unicode="_" horiz-adv-x="1095" 
d="M1014 -225h-932v78h932v-78z" />
    <glyph glyph-name="grave" unicode="`" horiz-adv-x="450" 
d="M414 1294l-41 -73l-338 172l43 82z" />
    <glyph glyph-name="a" unicode="a" 
d="M930 684v324h123v-1008h-123v324h-4q0 -161 -100 -252.5t-277 -91.5q-207 0 -323.5 138.5t-116.5 385.5t116.5 385.5t323.5 138.5q177 0 277 -91.5t100 -252.5h4zM588 84q167 0 260.5 112t93.5 308q0 197 -93.5 309.5t-260.5 112.5t-261 -112t-94 -310t94 -309t261 -111z
" />
    <glyph glyph-name="b" unicode="b" 
d="M674 1028q207 0 323.5 -138.5t116.5 -385.5t-116.5 -385.5t-323.5 -138.5q-177 0 -277 91.5t-100 252.5h-4v-324h-123v1577h123v-893h4q0 161 100 252.5t277 91.5zM635 84q167 0 260.5 111t93.5 309t-93.5 310t-260.5 112t-260.5 -112.5t-93.5 -309.5q0 -196 93.5 -308
t260.5 -112z" />
    <glyph glyph-name="c" unicode="c" horiz-adv-x="1120" 
d="M582 -20q-223 0 -348 138.5t-125 385.5t125 385.5t348 138.5q174 0 290.5 -88t157.5 -248h-127q-37 112 -119 173t-202 61q-164 0 -256.5 -112t-92.5 -310t92.5 -309t256.5 -111q128 0 212.5 67.5t116.5 192.5h125q-35 -174 -152.5 -269t-301.5 -95z" />
    <glyph glyph-name="d" unicode="d" 
d="M930 684v893h123v-1577h-123v324h-4q0 -161 -100 -252.5t-277 -91.5q-207 0 -323.5 138.5t-116.5 385.5t116.5 385.5t323.5 138.5q177 0 277 -91.5t100 -252.5h4zM588 84q167 0 260.5 112t93.5 308q0 197 -93.5 309.5t-260.5 112.5t-261 -112t-94 -310t94 -309t261 -111z
" />
    <glyph glyph-name="e" unicode="e" horiz-adv-x="1122" 
d="M1016 502v-23h-785q4 -187 92 -292t240 -105q135 0 222.5 71.5t107.5 198.5h123q-22 -175 -142 -273.5t-311 -98.5q-215 0 -334.5 138t-119.5 384q0 249 119.5 387.5t334.5 138.5q214 0 333.5 -138.5t119.5 -387.5zM563 928q-145 0 -231.5 -96.5t-98.5 -270.5h658
q-12 173 -98.5 270t-229.5 97z" />
    <glyph glyph-name="f" unicode="f" horiz-adv-x="735" 
d="M573 1493q-120 0 -180.5 -59t-60.5 -168v-258h370v-99h-360v-909h-123v909h-166v99h271v4q-53 48 -84 118t-31 148q0 151 90.5 235t253.5 84q104 0 182 -38l-18 -99q-65 33 -144 33z" />
    <glyph glyph-name="g" unicode="g" 
d="M930 684v324h123v-1035q0 -219 -124 -342t-345 -123q-202 0 -322 101t-129 280l117 7q8 -132 96.5 -207.5t237.5 -75.5q163 0 254.5 92t91.5 256v365h-4q0 -161 -100 -252.5t-277 -91.5q-207 0 -323.5 138.5t-116.5 385.5q0 246 116.5 384t323.5 138q177 0 277 -91.5
t100 -252.5h4zM588 86q167 0 260.5 111.5t93.5 308.5q0 196 -93.5 308t-260.5 112t-261 -111.5t-94 -308.5q0 -198 94 -309t261 -111z" />
    <glyph glyph-name="h" unicode="h" horiz-adv-x="1177" 
d="M649 1028q173 0 271 -104.5t98 -290.5v-633h-123v631q0 139 -75.5 217t-209.5 78q-150 0 -233.5 -98t-83.5 -275v-553h-123v1577h123v-911h4q0 171 93 266.5t259 95.5z" />
    <glyph glyph-name="i" unicode="i" horiz-adv-x="462" 
d="M293 1245h-123v197h123v-197zM293 0h-123v1008h123v-1008z" />
    <glyph glyph-name="j" unicode="j" horiz-adv-x="462" 
d="M293 1245h-123v197h123v-197zM293 -471h-123v1479h123v-1479z" />
    <glyph glyph-name="k" unicode="k" horiz-adv-x="1099" 
d="M1049 1008l-598 -482l634 -526h-174l-614 516h-4v-516h-123v1577h123v-1045h4l582 476h170z" />
    <glyph glyph-name="l" unicode="l" horiz-adv-x="462" 
d="M293 0h-123v1577h123v-1577z" />
    <glyph glyph-name="m" unicode="m" horiz-adv-x="1859" 
d="M1341 1028q170 0 265.5 -101.5t95.5 -283.5v-643h-123v641q0 135 -72.5 210t-201.5 75q-145 0 -226.5 -96t-81.5 -267v-563h-123v641q0 135 -72.5 210t-201.5 75q-145 0 -226 -95.5t-81 -267.5v-563h-123v1008h123v-332h4q0 166 90.5 259t251.5 93q167 0 262.5 -96
t95.5 -256h4q0 166 90 259t250 93z" />
    <glyph glyph-name="n" unicode="n" horiz-adv-x="1177" 
d="M649 1028q173 0 271 -104.5t98 -290.5v-633h-123v631q0 139 -75.5 217t-209.5 78q-150 0 -233.5 -98t-83.5 -275v-553h-123v1008h123v-342h4q0 171 93 266.5t259 95.5z" />
    <glyph glyph-name="o" unicode="o" horiz-adv-x="1175" 
d="M588 -20q-226 0 -352.5 138.5t-126.5 385.5t126.5 385.5t352.5 138.5t352.5 -138.5t126.5 -385.5t-126.5 -385.5t-352.5 -138.5zM588 84q167 0 260.5 111t93.5 309t-93.5 310t-260.5 112t-261 -112t-94 -310t94 -309t261 -111z" />
    <glyph glyph-name="p" unicode="p" 
d="M674 1028q207 0 323.5 -138.5t116.5 -385.5t-116.5 -385.5t-323.5 -138.5q-177 0 -277 91.5t-100 252.5h-4v-795h-123v1479h123v-324h4q0 161 100 252.5t277 91.5zM635 84q167 0 260.5 111t93.5 309t-93.5 309t-260.5 111t-260.5 -111.5t-93.5 -308.5q0 -196 93.5 -308
t260.5 -112z" />
    <glyph glyph-name="q" unicode="q" 
d="M930 684v324h123v-1479h-123v795h-4q0 -161 -100 -252.5t-277 -91.5q-207 0 -323.5 138.5t-116.5 385.5t116.5 385.5t323.5 138.5q177 0 277 -91.5t100 -252.5h4zM588 84q167 0 260.5 111t93.5 309t-93.5 309t-260.5 111t-261 -111t-94 -309t94 -309t261 -111z" />
    <glyph glyph-name="r" unicode="r" horiz-adv-x="821" 
d="M639 1028q93 0 156 -29l-35 -122q-61 34 -154 34q-149 0 -231 -105t-82 -294v-512h-123v1008h123v-369h4q0 184 90.5 286.5t251.5 102.5z" />
    <glyph glyph-name="s" unicode="s" horiz-adv-x="1017" 
d="M508 -20q-195 0 -304.5 91t-109.5 255h121q0 -118 77.5 -184t215.5 -66t214.5 49.5t76.5 140.5q0 25 -6 47t-14.5 38.5t-25.5 31.5t-31 25t-39.5 20t-43 15.5t-49 13t-50 11t-53.5 9.5q-50 9 -76.5 14.5t-71.5 18t-69.5 24.5t-56.5 33t-48 45.5t-28 59.5t-12 78
q0 129 102 203.5t281 74.5q180 0 281.5 -88t101.5 -246h-123q0 114 -68 177t-192 63q-122 0 -191 -47.5t-69 -132.5q0 -30 10 -54.5t32 -42t43.5 -29.5t60.5 -22.5t65 -16t73 -14.5q163 -31 232 -63q158 -72 158 -240q0 -137 -109.5 -214.5t-304.5 -77.5z" />
    <glyph glyph-name="t" unicode="t" horiz-adv-x="745" 
d="M700 1008v-99h-358v-633q0 -92 51 -142t144 -50q78 0 149 33v-99q-78 -38 -186 -38q-132 0 -206.5 78t-74.5 216v635h-172v99h182v356h123v-86q0 -78 -30.5 -148t-83.5 -118v-4h462z" />
    <glyph glyph-name="u" unicode="u" horiz-adv-x="1157" 
d="M864 455v553h123v-1008h-123v342h-4q0 -170 -90.5 -266t-251.5 -96q-169 0 -263.5 104.5t-94.5 290.5v633h123v-631q0 -138 71.5 -215.5t200.5 -77.5q146 0 227.5 98t81.5 273z" />
    <glyph glyph-name="v" unicode="v" horiz-adv-x="1052" 
d="M528 10l336 998h133l-352 -1008h-239l-351 1008h133l336 -998h4z" />
    <glyph glyph-name="w" unicode="w" horiz-adv-x="1646" 
d="M1182 10l278 998h129l-295 -1008h-229l-240 997h-4l-239 -997h-230l-295 1008h133l277 -998h4l242 998h225l240 -998h4z" />
    <glyph glyph-name="x" unicode="x" horiz-adv-x="1062" 
d="M989 1008l-330 -482l365 -526h-147l-345 516h-4l-342 -516h-149l364 526l-329 482h145l311 -476h4l314 476h143z" />
    <glyph glyph-name="y" unicode="y" horiz-adv-x="1052" 
d="M530 10l336 998h133l-516 -1479h-133l164 471h-106l-351 1008h133l336 -998h4z" />
    <glyph glyph-name="z" unicode="z" horiz-adv-x="1042" 
d="M115 102v-4h850v-98h-871v229l813 676v4h-801v99h822v-230z" />
    <glyph glyph-name="braceleft" unicode="{" horiz-adv-x="550" 
d="M338 1364v-602q0 -154 -135 -209q135 -58 135 -211v-600q0 -57 32 -92t85 -35v-86q-94 0 -152.5 55.5t-58.5 145.5v600q0 85 -46.5 131.5t-131.5 46.5v88q85 0 131.5 46.5t46.5 131.5v602q0 90 58.5 145.5t152.5 55.5v-86q-53 0 -85 -35t-32 -92z" />
    <glyph glyph-name="bar" unicode="|" horiz-adv-x="483" 
d="M289 -471h-94v2048h94v-2048z" />
    <glyph glyph-name="braceright" unicode="}" horiz-adv-x="550" 
d="M307 1376v-602q0 -85 46.5 -131.5t131.5 -46.5v-88q-85 0 -131.5 -46.5t-46.5 -131.5v-600q0 -90 -58.5 -145.5t-152.5 -55.5v86q53 0 85 35t32 92v600q0 153 135 211q-135 55 -135 209v602q0 57 -32 92t-85 35v86q94 0 152.5 -55.5t58.5 -145.5z" />
    <glyph glyph-name="asciitilde" unicode="~" horiz-adv-x="1220" 
d="M223 387h-76q2 114 63 178t171 64q64 0 118.5 -15.5t93.5 -38t76.5 -45t83 -38t95.5 -15.5q65 0 105 43t46 117h74q0 -114 -61 -178t-170 -64q-64 0 -118.5 15.5t-93.5 38t-76.5 45t-83 38t-95.5 15.5q-65 0 -105.5 -43t-46.5 -117z" />
    <glyph glyph-name="uni00A0" unicode="&#xa0;" horiz-adv-x="505" 
 />
    <glyph glyph-name="exclamdown" unicode="&#xa1;" horiz-adv-x="471" 
d="M313 856h-159v152h159v-152zM301 -471h-131l10 1116h111z" />
    <glyph glyph-name="cent" unicode="&#xa2;" horiz-adv-x="1120" 
d="M911 606h125q-32 -162 -136.5 -256t-268.5 -106v-244h-92v244q-203 14 -316.5 151t-113.5 371t113.5 371t316.5 151v228h92v-228q155 -12 258 -98.5t141 -235.5h-127q-33 99 -102.5 158.5t-169.5 71.5v-836q108 12 179.5 78.5t100.5 179.5zM233 766q0 -184 80.5 -294
t225.5 -124v836q-145 -14 -225.5 -124t-80.5 -294z" />
    <glyph glyph-name="sterling" unicode="&#xa3;" horiz-adv-x="1253" 
d="M141 115v-4h1022v-111h-1063v100q127 91 180.5 194.5t53.5 227.5q0 50 -21 125h-190v88h160q-6 16 -27 67t-29.5 75.5t-22 66t-19 76.5t-5.5 70q0 192 125.5 298.5t349.5 106.5q220 0 350 -128t140 -355h-125q-9 173 -106 270.5t-259 97.5q-160 0 -250 -77.5t-90 -215.5
q0 -41 11.5 -90.5t23 -82.5t35.5 -94t33 -85h491v-88h-460q18 -74 18 -123q0 -124 -75.5 -224.5t-250.5 -184.5z" />
    <glyph glyph-name="currency" unicode="&#xa4;" horiz-adv-x="1169" 
d="M985 690q0 -161 -74 -264l119 -121l-59 -63l-119 118q-104 -81 -266 -81q-166 0 -269 83l-116 -118l-62 61l121 121q-74 103 -74 264t74 264l-119 121l60 64l116 -121q104 84 269 84t266 -84l119 119l61 -62l-121 -121q74 -103 74 -264zM586 358q145 0 226 87.5t81 244.5
t-81 244.5t-226 87.5t-226 -87.5t-81 -244.5t81 -244.5t226 -87.5z" />
    <glyph glyph-name="yen" unicode="&#xa5;" horiz-adv-x="1388" 
d="M1190 1516h143l-497 -959h333v-86h-378l-62 -119h440v-86h-485l-137 -266h-146l138 266h-303v86h346l61 119h-407v86h317l-500 959h154l491 -951h4z" />
    <glyph glyph-name="brokenbar" unicode="&#xa6;" horiz-adv-x="483" 
d="M289 758h-94v819h94v-819zM289 -471h-94v819h94v-819z" />
    <glyph glyph-name="section" unicode="&#xa7;" horiz-adv-x="1359" 
d="M797 90v-4q209 0 326.5 -64t117.5 -178q0 -159 -146.5 -247.5t-406.5 -88.5q-264 0 -419 132.5t-167 369.5h129q10 -183 130.5 -285t326.5 -102q200 0 311 62t111 174q0 106 -111 165.5t-307 59.5q-258 0 -403.5 124.5t-145.5 346.5q0 199 116.5 319.5t328.5 145.5v4
q-209 0 -327 64t-118 178q0 157 133 244t371 87q249 0 395 -126t158 -353h-129q-7 172 -119.5 268.5t-302.5 96.5q-177 0 -276 -61t-99 -171q0 -107 110.5 -166t307.5 -59q258 0 403.5 -124.5t145.5 -346.5q0 -199 -116 -319.5t-328 -145.5zM274 555q0 -168 110.5 -262
t307.5 -94t307.5 94t110.5 262t-110.5 262t-307.5 94q-195 0 -306.5 -94t-111.5 -262z" />
    <glyph glyph-name="dieresis" unicode="&#xa8;" horiz-adv-x="700" 
d="M262 1245h-121v197h121v-197zM557 1245h-119v197h119v-197z" />
    <glyph glyph-name="copyright" unicode="&#xa9;" horiz-adv-x="1748" 
d="M874 -20q-358 0 -558.5 205.5t-200.5 572.5t200.5 572.5t558.5 205.5q359 0 559.5 -205.5t200.5 -572.5t-200.5 -572.5t-559.5 -205.5zM874 59q315 0 491.5 185t176.5 514t-176.5 513.5t-491.5 184.5t-491 -184.5t-176 -513.5t176 -514t491 -185zM881 391
q-156 0 -245 98.5t-89 270.5q0 173 88.5 271.5t245.5 98.5q122 0 203 -63.5t110 -181.5h-88q-25 82 -82 126t-143 44q-115 0 -179.5 -78.5t-64.5 -216.5q0 -137 64.5 -215t179.5 -78q90 0 148.5 46t82.5 132h88q-25 -121 -108 -187.5t-211 -66.5z" />
    <glyph glyph-name="ordfeminine" unicode="&#xaa;" horiz-adv-x="847" 
d="M592 1315v201h104v-609h-104v201h-2q0 -101 -58.5 -157t-164.5 -56q-122 0 -190 83t-68 232q0 151 68 234.5t190 83.5q105 0 164 -56.5t59 -156.5h2zM410 979q90 0 140 62t50 169q0 108 -50 171t-140 63q-92 0 -143.5 -62.5t-51.5 -171.5t51.5 -170t143.5 -61z" />
    <glyph glyph-name="guillemotleft" unicode="&#xab;" horiz-adv-x="876" 
d="M193 512l258 -395h-101l-262 395l262 395h101zM510 512l258 -395h-100l-262 395l262 395h100z" />
    <glyph glyph-name="logicalnot" unicode="&#xac;" horiz-adv-x="1062" 
d="M150 606v76h757v-334h-90v258h-667z" />
    <glyph glyph-name="uni00AD" unicode="&#xad;" horiz-adv-x="811" 
d="M664 473h-517v78h517v-78z" />
    <glyph glyph-name="registered" unicode="&#xae;" horiz-adv-x="1015" 
d="M508 1597q190 0 295.5 -103t105.5 -288t-105.5 -288t-295.5 -103q-189 0 -295.5 103.5t-106.5 287.5t106.5 287.5t295.5 103.5zM508 877q157 0 245.5 87t88.5 242t-88.5 242.5t-245.5 87.5t-245.5 -87.5t-88.5 -242.5t88.5 -242t245.5 -87zM528 1167v-4q63 0 90 -45
l68 -110h-72l-92 155h-104v-155h-66v397h176q68 0 107 -31t39 -88t-39 -88t-107 -31zM418 1354v-142h114q34 0 53 18.5t19 53.5q0 34 -19 52t-53 18h-114z" />
    <glyph glyph-name="macron" unicode="&#xaf;" horiz-adv-x="636" 
d="M590 1296h-541v95h541v-95z" />
    <glyph glyph-name="degree" unicode="&#xb0;" horiz-adv-x="643" 
d="M322 1167q-106 0 -165 57t-59 158t59 158t165 57t164.5 -57t58.5 -158t-58.5 -158t-164.5 -57zM322 1253q57 0 88.5 34t31.5 95q0 62 -31.5 96.5t-88.5 34.5t-89 -34.5t-32 -96.5q0 -61 32 -95t89 -34z" />
    <glyph glyph-name="plusminus" unicode="&#xb1;" horiz-adv-x="1026" 
d="M557 1010v-330h334v-78h-332v-330h-92v330h-332v78h332v330h90zM891 10h-756v78h756v-78z" />
    <glyph glyph-name="uni00B2" unicode="&#xb2;" horiz-adv-x="749" 
d="M111 825v-4h579v-88h-631v82q233 66 363.5 207.5t130.5 329.5q0 99 -48 156t-134 57t-138.5 -64t-56.5 -176h-106q8 156 87.5 243t215.5 87q140 0 217.5 -80t77.5 -225q0 -209 -147 -348t-410 -177z" />
    <glyph glyph-name="uni00B3" unicode="&#xb3;" horiz-adv-x="745" 
d="M360 1241h2q149 0 232.5 -68t83.5 -188q0 -125 -83.5 -194.5t-234.5 -69.5q-136 0 -215.5 77.5t-87.5 217.5h105q5 -97 57.5 -152t142.5 -55q95 0 149 46.5t54 129.5q0 82 -56 128t-157 46h-24v84q99 12 155 57t56 113q0 72 -47.5 113t-131.5 41q-81 0 -129 -56t-53 -153
h-104q9 140 87.5 218.5t211.5 78.5q131 0 204.5 -56t73.5 -153q0 -95 -77 -148t-214 -53v-4z" />
    <glyph glyph-name="acute" unicode="&#xb4;" horiz-adv-x="454" 
d="M416 1393l-340 -172l-41 73l336 181z" />
    <glyph glyph-name="paragraph" unicode="&#xb6;" horiz-adv-x="1341" 
d="M1128 1577v-2048h-112v1950h-330v-1950h-113v1950q-185 0 -289 -92.5t-104 -256.5q0 -139 73 -228t202 -109v-109q-186 22 -291 139.5t-105 306.5q0 211 135.5 329t378.5 118h555z" />
    <glyph glyph-name="periodcentered" unicode="&#xb7;" horiz-adv-x="450" 
d="M305 453h-160v151h160v-151z" />
    <glyph glyph-name="cedilla" unicode="&#xb8;" horiz-adv-x="518" 
d="M211 -492q-96 0 -174 48v77q76 -47 168 -47q75 0 116 30t41 83q0 41 -27.5 64.5t-76.5 23.5q-83 3 -123 -53l-63 41q31 40 84 65t110 25q95 0 149 -43.5t54 -120.5q0 -91 -67.5 -142t-190.5 -51z" />
    <glyph glyph-name="uni00B9" unicode="&#xb9;" horiz-adv-x="446" 
d="M209 1642h108v-909h-108v866h-4q0 -80 -44.5 -124.5t-123.5 -44.5v92q82 0 127 31.5t45 88.5z" />
    <glyph glyph-name="ordmasculine" unicode="&#xba;" horiz-adv-x="808" 
d="M406 895q-141 0 -220.5 83t-79.5 232q0 150 79.5 234t220.5 84q140 0 219.5 -84t79.5 -234q0 -149 -79.5 -232t-219.5 -83zM406 979q91 0 141.5 61t50.5 170t-51 171.5t-141 62.5q-92 0 -143.5 -62.5t-51.5 -171.5t51.5 -170t143.5 -61z" />
    <glyph glyph-name="guillemotright" unicode="&#xbb;" horiz-adv-x="876" 
d="M209 117h-100l258 395l-258 395h100l262 -395zM526 117h-100l258 395l-258 395h100l262 -395z" />
    <glyph glyph-name="onequarter" unicode="&#xbc;" horiz-adv-x="1576" 
d="M252 1497h-4q0 -79 -45 -124.5t-125 -45.5v92q82 0 128 32t46 89h108v-909h-108v866zM127 29l971 1507l65 -49l-970 -1507zM1397 322h119v-89h-119v-233h-109v233h-438v99l342 577h205v-587zM1290 897h-4l-334 -571v-4h338v575z" />
    <glyph glyph-name="onehalf" unicode="&#xbd;" horiz-adv-x="1581" 
d="M252 1497h-4q0 -79 -45 -124.5t-125 -45.5v92q82 0 128 32t46 89h108v-909h-108v866zM127 29l971 1507l65 -49l-970 -1507zM920 92v-4h579v-88h-631v82q233 66 363.5 207.5t130.5 328.5q0 99 -48 156t-132 57q-88 0 -140.5 -63.5t-56.5 -175.5h-106q7 155 87.5 242.5
t215.5 87.5q140 0 217.5 -80.5t77.5 -225.5q0 -209 -146.5 -347.5t-410.5 -176.5z" />
    <glyph glyph-name="threequarters" unicode="&#xbe;" horiz-adv-x="1859" 
d="M700 883q0 -125 -84 -195t-233 -70q-136 0 -215.5 77.5t-87.5 217.5h104q5 -97 57 -151.5t142 -54.5q97 0 151 46.5t54 129.5q0 82 -56 128t-157 46h-25v84q99 12 155 57t56 113q0 72 -46.5 112.5t-131.5 40.5q-81 0 -129 -56t-53 -153h-105q9 140 87.5 218.5t211.5 78.5
q131 0 205 -56t74 -153q0 -95 -77 -147.5t-214 -52.5v-4h2q148 0 231.5 -68t83.5 -188zM410 29l970 1507l66 -49l-971 -1507zM1679 322h119v-89h-119v-233h-108v233h-438v99l342 577h204v-587zM1573 897h-4l-334 -571v-4h338v575z" />
    <glyph glyph-name="questiondown" unicode="&#xbf;" horiz-adv-x="1060" 
d="M672 856h-160v152h160v-152zM537 -492q-213 0 -333 112.5t-120 311.5q0 157 115.5 345.5t320.5 367.5h127v-4q-202 -184 -316 -371t-114 -333q0 -147 85 -230.5t237 -83.5t242.5 98t99.5 271h125q-11 -228 -135 -356t-334 -128z" />
    <glyph glyph-name="Agrave" unicode="&#xc0;" horiz-adv-x="1372" 
d="M461 1982l336 -180l-41 -73l-338 172zM1339 0h-141l-137 399h-758l-137 -399h-135l542 1516h228zM682 1501l-340 -991h682l-338 991h-4z" />
    <glyph glyph-name="Aacute" unicode="&#xc1;" horiz-adv-x="1372" 
d="M907 1982l45 -81l-338 -172l-41 73zM1339 0h-141l-137 399h-758l-137 -399h-135l542 1516h228zM682 1501l-340 -991h682l-338 991h-4z" />
    <glyph glyph-name="Acircumflex" unicode="&#xc2;" horiz-adv-x="1372" 
d="M688 1976h-4l-190 -301h-115l205 316h202l207 -316h-114zM1339 0h-141l-137 399h-758l-137 -399h-135l542 1516h228zM682 1501l-340 -991h682l-338 991h-4z" />
    <glyph glyph-name="Atilde" unicode="&#xc3;" horiz-adv-x="1372" 
d="M535 1874q-47 0 -76 -40t-35 -110h-80q0 118 52 185t143 67q40 0 75.5 -14.5t62 -35t51 -41.5t52 -35.5t54.5 -14.5q47 0 75 39.5t33 110.5h82q0 -119 -52 -185.5t-143 -66.5q-48 0 -92 22t-71.5 48.5t-62.5 48.5t-68 22zM1339 0h-141l-137 399h-758l-137 -399h-135
l542 1516h228zM682 1501l-340 -991h682l-338 991h-4z" />
    <glyph glyph-name="Adieresis" unicode="&#xc4;" horiz-adv-x="1372" 
d="M477 1950h119v-199h-119v199zM774 1950h119v-199h-119v199zM1339 0h-141l-137 399h-758l-137 -399h-135l542 1516h228zM682 1501l-340 -991h682l-338 991h-4z" />
    <glyph glyph-name="Aring" unicode="&#xc5;" horiz-adv-x="1372" 
d="M686 1638q-108 0 -168.5 57.5t-60.5 159.5q0 103 60.5 161.5t168.5 58.5q107 0 168 -58.5t61 -161.5q0 -101 -61 -159t-168 -58zM686 1995q-63 0 -98 -37t-35 -103q0 -65 35 -101t98 -36t98 36t35 101q0 66 -35 103t-98 37zM1339 0h-141l-137 399h-758l-137 -399h-135
l542 1516h228zM682 1501l-340 -991h682l-338 991h-4z" />
    <glyph glyph-name="AE" unicode="&#xc6;" horiz-adv-x="2156" 
d="M1155 711l131 -600h780v-111h-897l-82 399h-751l-191 -399h-143l737 1516h1305v-111h-1043l129 -584h842v-110h-817zM858 1501l-471 -991h678l-203 991h-4z" />
    <glyph glyph-name="Ccedilla" unicode="&#xc7;" horiz-adv-x="1437" 
d="M750 -20q-298 0 -464.5 205.5t-166.5 572.5t166.5 572.5t464.5 205.5q238 0 395.5 -145t200.5 -402h-125q-41 204 -165.5 318t-305.5 114q-235 0 -367.5 -175t-132.5 -488t132.5 -488.5t367.5 -175.5q181 0 305.5 119t165.5 330h125q-43 -263 -201 -413t-395 -150z
M700 -492q-100 0 -174 48v77q73 -47 166 -47q76 0 118 30t42 83q0 41 -27.5 64.5t-76.5 23.5q-82 3 -125 -53l-64 41q31 40 84.5 65t110.5 25q95 0 149.5 -43.5t54.5 -120.5q0 -91 -68.5 -142t-189.5 -51z" />
    <glyph glyph-name="Egrave" unicode="&#xc8;" horiz-adv-x="1257" 
d="M446 1982l334 -180l-41 -73l-338 172zM334 729v-618h833v-111h-962v1516h940v-111h-811v-565h739v-111h-739z" />
    <glyph glyph-name="Eacute" unicode="&#xc9;" horiz-adv-x="1257" 
d="M893 1982l43 -81l-338 -172l-41 73zM334 729v-618h833v-111h-962v1516h940v-111h-811v-565h739v-111h-739z" />
    <glyph glyph-name="Ecircumflex" unicode="&#xca;" horiz-adv-x="1257" 
d="M672 1976h-4l-191 -301h-115l205 316h205l205 -316h-115zM334 729v-618h833v-111h-962v1516h940v-111h-811v-565h739v-111h-739z" />
    <glyph glyph-name="Edieresis" unicode="&#xcb;" horiz-adv-x="1257" 
d="M461 1950h121v-199h-121v199zM758 1950h119v-199h-119v199zM334 729v-618h833v-111h-962v1516h940v-111h-811v-565h739v-111h-739z" />
    <glyph glyph-name="Igrave" unicode="&#xcc;" horiz-adv-x="538" 
d="M381 1802l-41 -73l-338 172l43 81zM334 0h-129v1516h129v-1516z" />
    <glyph glyph-name="Iacute" unicode="&#xcd;" horiz-adv-x="538" 
d="M537 1901l-340 -172l-41 73l336 180zM334 0h-129v1516h129v-1516z" />
    <glyph glyph-name="Icircumflex" unicode="&#xce;" horiz-adv-x="538" 
d="M371 1991l207 -316h-115l-191 301h-4l-190 -301h-115l205 316h203zM334 0h-129v1516h129v-1516z" />
    <glyph glyph-name="Idieresis" unicode="&#xcf;" horiz-adv-x="538" 
d="M180 1751h-119v199h119v-199zM477 1751h-121v199h121v-199zM334 0h-129v1516h129v-1516z" />
    <glyph glyph-name="Eth" unicode="&#xd0;" horiz-adv-x="1456" 
d="M223 1516h418q330 0 516 -201t186 -557t-186 -557t-516 -201h-418v729h-200v78h200v709zM352 111h299q264 0 411.5 170.5t147.5 476.5t-147.5 476.5t-411.5 170.5h-299v-598h299v-78h-299v-618z" />
    <glyph glyph-name="Ntilde" unicode="&#xd1;" horiz-adv-x="1484" 
d="M592 1874q-47 0 -75.5 -40t-33.5 -110h-82q0 118 52 185t143 67q48 0 92.5 -22t72 -48.5t63 -48.5t67.5 -22q47 0 76 39.5t34 110.5h80q0 -119 -51.5 -185.5t-142.5 -66.5q-40 0 -75.5 14.5t-62 35.5t-51 41.5t-52 35t-54.5 14.5zM1159 14l-2 1502h123v-1516h-240
l-708 1501h-4l2 -1501h-125v1516h241l709 -1502h4z" />
    <glyph glyph-name="Ograve" unicode="&#xd2;" horiz-adv-x="1511" 
d="M868 1802l-41 -73l-338 172l46 81zM756 -20q-301 0 -469 205.5t-168 572.5t168 572.5t469 205.5t469 -205.5t168 -572.5t-168 -572.5t-469 -205.5zM756 94q238 0 372 175.5t134 488.5t-134 488t-372 175q-239 0 -372.5 -175t-133.5 -488q0 -314 133.5 -489t372.5 -175z
" />
    <glyph glyph-name="Oacute" unicode="&#xd3;" horiz-adv-x="1511" 
d="M1024 1901l-338 -172l-41 73l334 180zM756 -20q-301 0 -469 205.5t-168 572.5t168 572.5t469 205.5t469 -205.5t168 -572.5t-168 -572.5t-469 -205.5zM756 94q238 0 372 175.5t134 488.5t-134 488t-372 175q-239 0 -372.5 -175t-133.5 -488q0 -314 133.5 -489t372.5 -175
z" />
    <glyph glyph-name="Ocircumflex" unicode="&#xd4;" horiz-adv-x="1511" 
d="M760 1976h-4l-191 -301h-114l204 316h205l205 -316h-115zM756 1536q301 0 469 -205.5t168 -572.5t-168 -572.5t-469 -205.5t-469 205.5t-168 572.5t168 572.5t469 205.5zM756 94q238 0 372 175.5t134 488.5t-134 488t-372 175q-239 0 -372.5 -175t-133.5 -488
q0 -314 133.5 -489t372.5 -175z" />
    <glyph glyph-name="Otilde" unicode="&#xd5;" horiz-adv-x="1511" 
d="M498 1724h-82q0 118 51.5 185t142.5 67q48 0 92.5 -22t72 -48.5t63 -48.5t67.5 -22q47 0 77 40t34 110h80q0 -119 -52 -185.5t-143 -66.5q-40 0 -75.5 14.5t-62 35.5t-51 41.5t-52 35t-54.5 14.5q-47 0 -75 -40t-33 -110zM756 -20q-301 0 -469 205.5t-168 572.5
t168 572.5t469 205.5t469 -205.5t168 -572.5t-168 -572.5t-469 -205.5zM756 94q238 0 372 175.5t134 488.5t-134 488t-372 175q-239 0 -372.5 -175t-133.5 -488q0 -314 133.5 -489t372.5 -175z" />
    <glyph glyph-name="Odieresis" unicode="&#xd6;" horiz-adv-x="1511" 
d="M668 1751h-119v199h119v-199zM965 1751h-119v199h119v-199zM756 -20q-301 0 -469 205.5t-168 572.5t168 572.5t469 205.5t469 -205.5t168 -572.5t-168 -572.5t-469 -205.5zM756 94q238 0 372 175.5t134 488.5t-134 488t-372 175q-239 0 -372.5 -175t-133.5 -488
q0 -314 133.5 -489t372.5 -175z" />
    <glyph glyph-name="multiply" unicode="&#xd7;" horiz-adv-x="985" 
d="M797 868l61 -61l-303 -303l303 -303l-61 -62l-303 303l-306 -303l-61 62l303 303l-303 303l61 61l306 -303z" />
    <glyph glyph-name="Oslash" unicode="&#xd8;" horiz-adv-x="1511" 
d="M1282 1538l-98 -164q209 -206 209 -616q0 -367 -168 -572.5t-469 -205.5q-204 0 -350 96l-91 -150l-84 51l97 162q-209 206 -209 619q0 367 168 572.5t469 205.5q203 0 352 -98l90 151zM250 758q0 -330 147 -506l645 1079q-119 90 -286 90q-239 0 -372.5 -175
t-133.5 -488zM756 94q238 0 372 175.5t134 488.5q0 325 -146 504l-647 -1080q120 -88 287 -88z" />
    <glyph glyph-name="Ugrave" unicode="&#xd9;" horiz-adv-x="1449" 
d="M838 1802l-41 -73l-340 172l45 81zM725 -20q-252 0 -394.5 142t-142.5 394v1000h129v-1010q0 -194 108 -303t300 -109q195 0 304.5 109t109.5 303v1010h123v-1000q0 -252 -142.5 -394t-394.5 -142z" />
    <glyph glyph-name="Uacute" unicode="&#xda;" horiz-adv-x="1449" 
d="M993 1901l-340 -172l-41 73l336 180zM725 -20q-252 0 -394.5 142t-142.5 394v1000h129v-1010q0 -194 108 -303t300 -109q195 0 304.5 109t109.5 303v1010h123v-1000q0 -252 -142.5 -394t-394.5 -142z" />
    <glyph glyph-name="Ucircumflex" unicode="&#xdb;" horiz-adv-x="1449" 
d="M727 1976h-4l-191 -301h-112l205 316h202l205 -316h-114zM1139 506v1010h123v-1000q0 -252 -142.5 -394t-394.5 -142t-394.5 142t-142.5 394v1000h129v-1010q0 -194 108 -303t300 -109q195 0 304.5 109t109.5 303z" />
    <glyph glyph-name="Udieresis" unicode="&#xdc;" horiz-adv-x="1449" 
d="M637 1751h-119v199h119v-199zM934 1751h-121v199h121v-199zM725 -20q-252 0 -394.5 142t-142.5 394v1000h129v-1010q0 -194 108 -303t300 -109q195 0 304.5 109t109.5 303v1010h123v-1000q0 -252 -142.5 -394t-394.5 -142z" />
    <glyph glyph-name="Yacute" unicode="&#xdd;" horiz-adv-x="1314" 
d="M905 1982l45 -81l-340 -172l-41 73zM688 565l488 951h145l-789 -1516h-145l283 551h-127l-502 965h152l491 -951h4z" />
    <glyph glyph-name="Thorn" unicode="&#xde;" horiz-adv-x="1296" 
d="M334 1233h375q228 0 356.5 -121.5t128.5 -337.5q0 -217 -128.5 -339t-358.5 -122h-373v-313h-129v1516h129v-283zM334 422h381q162 0 254 93.5t92 258.5q0 164 -90.5 256t-253.5 92h-383v-700z" />
    <glyph glyph-name="germandbls" unicode="&#xdf;" horiz-adv-x="1261" 
d="M616 928v-4q255 0 399 -123.5t144 -343.5q0 -224 -128 -350.5t-357 -126.5q-112 0 -189 24v100q82 -20 177 -20q175 0 272.5 99.5t97.5 277.5q0 177 -110 275t-308 98h-75v94q181 9 283 87.5t102 209.5q0 126 -78.5 197t-216.5 71q-159 0 -247.5 -85.5t-88.5 -240.5
v-1167h-123v1163q0 205 121 319.5t338 114.5q198 0 309 -90.5t111 -251.5q0 -155 -115 -241t-318 -86z" />
    <glyph glyph-name="agrave" unicode="&#xe0;" 
d="M365 1475l335 -181l-41 -73l-340 172zM930 684v324h123v-1008h-123v324h-4q0 -161 -100 -252.5t-277 -91.5q-207 0 -323.5 138.5t-116.5 385.5t116.5 385.5t323.5 138.5q177 0 277 -91.5t100 -252.5h4zM588 84q167 0 260.5 112t93.5 308q0 197 -93.5 309.5t-260.5 112.5
t-261 -112t-94 -310t94 -309t261 -111z" />
    <glyph glyph-name="aacute" unicode="&#xe1;" 
d="M811 1475l43 -82l-338 -172l-41 73zM930 684v324h123v-1008h-123v324h-4q0 -161 -100 -252.5t-277 -91.5q-207 0 -323.5 138.5t-116.5 385.5t116.5 385.5t323.5 138.5q177 0 277 -91.5t100 -252.5h4zM588 84q167 0 260.5 112t93.5 308q0 197 -93.5 309.5t-260.5 112.5
t-261 -112t-94 -310t94 -309t261 -111z" />
    <glyph glyph-name="acircumflex" unicode="&#xe2;" 
d="M590 1468h-4l-191 -301h-114l206 316h203l205 -316h-115zM930 684v324h123v-1008h-123v324h-4q0 -161 -100 -252.5t-277 -91.5q-207 0 -323.5 138.5t-116.5 385.5t116.5 385.5t323.5 138.5q177 0 277 -91.5t100 -252.5h4zM588 84q167 0 260.5 112t93.5 308
q0 197 -93.5 309.5t-260.5 112.5t-261 -112t-94 -310t94 -309t261 -111z" />
    <glyph glyph-name="atilde" unicode="&#xe3;" 
d="M436 1366q-46 0 -75 -39.5t-33 -109.5h-82q2 120 53 185.5t143 65.5q40 0 75.5 -14.5t62 -35t51 -41.5t52 -35.5t54.5 -14.5q46 0 75 40.5t34 109.5h80q0 -119 -51.5 -185.5t-143.5 -66.5q-40 0 -75.5 14.5t-62 35.5t-51 41.5t-52 35t-54.5 14.5zM930 684v324h123v-1008
h-123v324h-4q0 -161 -100 -252.5t-277 -91.5q-207 0 -323.5 138.5t-116.5 385.5t116.5 385.5t323.5 138.5q177 0 277 -91.5t100 -252.5h4zM588 84q167 0 260.5 112t93.5 308q0 197 -93.5 309.5t-260.5 112.5t-261 -112t-94 -310t94 -309t261 -111z" />
    <glyph glyph-name="adieresis" unicode="&#xe4;" 
d="M379 1442h121v-197h-121v197zM676 1442h119v-197h-119v197zM930 684v324h123v-1008h-123v324h-4q0 -161 -100 -252.5t-277 -91.5q-207 0 -323.5 138.5t-116.5 385.5t116.5 385.5t323.5 138.5q177 0 277 -91.5t100 -252.5h4zM588 84q167 0 260.5 112t93.5 308
q0 197 -93.5 309.5t-260.5 112.5t-261 -112t-94 -310t94 -309t261 -111z" />
    <glyph glyph-name="aring" unicode="&#xe5;" 
d="M588 1130q-107 0 -168.5 58.5t-61.5 161.5q0 101 61.5 159t168.5 58q108 0 168.5 -57.5t60.5 -159.5q0 -103 -60.5 -161.5t-168.5 -58.5zM588 1487q-63 0 -98 -36t-35 -101t35 -101.5t98 -36.5t98 36.5t35 101.5t-35 101t-98 36zM930 684v324h123v-1008h-123v324h-4
q0 -161 -100 -252.5t-277 -91.5q-207 0 -323.5 138.5t-116.5 385.5t116.5 385.5t323.5 138.5q177 0 277 -91.5t100 -252.5h4zM588 84q167 0 260.5 112t93.5 308q0 197 -93.5 309.5t-260.5 112.5t-261 -112t-94 -310t94 -309t261 -111z" />
    <glyph glyph-name="ae" unicode="&#xe6;" horiz-adv-x="1931" 
d="M1827 502v-23h-787q6 -189 93 -293t239 -104q135 0 222.5 71.5t109.5 198.5h123q-22 -175 -132 -273.5t-284 -98.5q-167 0 -260.5 88.5t-93.5 248.5h-4v-317h-123v324h-4q0 -161 -100 -252.5t-277 -91.5q-207 0 -323.5 138.5t-116.5 385.5t116.5 385.5t323.5 138.5
q177 0 277 -91.5t100 -252.5h4v324h123v-320h4q0 161 93.5 250.5t260.5 89.5q197 0 306.5 -138.5t109.5 -387.5zM1372 928q-145 0 -231.5 -96.5t-98.5 -270.5h660q-14 173 -101 270t-229 97zM588 84q167 0 260.5 112t93.5 308q0 197 -93.5 309.5t-260.5 112.5t-261 -112
t-94 -310t94 -309t261 -111z" />
    <glyph glyph-name="ccedilla" unicode="&#xe7;" horiz-adv-x="1120" 
d="M582 -20q-223 0 -348 138.5t-125 385.5t125 385.5t348 138.5q174 0 290.5 -88t157.5 -248h-127q-37 112 -119 173t-202 61q-164 0 -256.5 -112t-92.5 -310t92.5 -309t256.5 -111q128 0 212.5 67.5t116.5 192.5h125q-35 -174 -152.5 -269t-301.5 -95zM532 -492
q-100 0 -174 48v77q73 -47 166 -47q75 0 117.5 30t42.5 83q0 41 -28 64.5t-76 23.5q-82 3 -125 -53l-64 41q31 40 84.5 65t110.5 25q95 0 148.5 -43.5t53.5 -120.5q0 -91 -67.5 -142t-188.5 -51z" />
    <glyph glyph-name="egrave" unicode="&#xe8;" horiz-adv-x="1122" 
d="M338 1475l336 -181l-41 -73l-338 172zM1016 502v-23h-785q4 -187 92 -292t240 -105q135 0 222.5 71.5t107.5 198.5h123q-22 -175 -142 -273.5t-311 -98.5q-215 0 -334.5 138t-119.5 384q0 249 119.5 387.5t334.5 138.5q214 0 333.5 -138.5t119.5 -387.5zM563 928
q-145 0 -231.5 -96.5t-98.5 -270.5h658q-12 173 -98.5 270t-229.5 97z" />
    <glyph glyph-name="eacute" unicode="&#xe9;" horiz-adv-x="1122" 
d="M784 1475l45 -82l-340 -172l-40 73zM1016 502v-23h-785q4 -187 92 -292t240 -105q135 0 222.5 71.5t107.5 198.5h123q-22 -175 -142 -273.5t-311 -98.5q-215 0 -334.5 138t-119.5 384q0 249 119.5 387.5t334.5 138.5q214 0 333.5 -138.5t119.5 -387.5zM563 928
q-145 0 -231.5 -96.5t-98.5 -270.5h658q-12 173 -98.5 270t-229.5 97z" />
    <glyph glyph-name="ecircumflex" unicode="&#xea;" horiz-adv-x="1122" 
d="M565 1468h-4l-190 -301h-115l205 316h203l206 -316h-114zM1016 502v-23h-785q4 -187 92 -292t240 -105q135 0 222.5 71.5t107.5 198.5h123q-22 -175 -142 -273.5t-311 -98.5q-215 0 -334.5 138t-119.5 384q0 249 119.5 387.5t334.5 138.5q214 0 333.5 -138.5
t119.5 -387.5zM563 928q-145 0 -231.5 -96.5t-98.5 -270.5h658q-12 173 -98.5 270t-229.5 97z" />
    <glyph glyph-name="edieresis" unicode="&#xeb;" horiz-adv-x="1122" 
d="M354 1442h119v-197h-119v197zM651 1442h119v-197h-119v197zM1016 502v-23h-785q4 -187 92 -292t240 -105q135 0 222.5 71.5t107.5 198.5h123q-22 -175 -142 -273.5t-311 -98.5q-215 0 -334.5 138t-119.5 384q0 249 119.5 387.5t334.5 138.5q214 0 333.5 -138.5
t119.5 -387.5zM563 928q-145 0 -231.5 -96.5t-98.5 -270.5h658q-12 173 -98.5 270t-229.5 97z" />
    <glyph glyph-name="igrave" unicode="&#xec;" horiz-adv-x="462" 
d="M344 1294l-41 -73l-340 172l45 82zM293 0h-123v1008h123v-1008z" />
    <glyph glyph-name="iacute" unicode="&#xed;" horiz-adv-x="462" 
d="M500 1393l-340 -172l-41 73l336 181zM293 0h-123v1008h123v-1008z" />
    <glyph glyph-name="icircumflex" unicode="&#xee;" horiz-adv-x="462" 
d="M334 1483l205 -316h-115l-191 301h-4l-190 -301h-115l207 316h203zM293 0h-123v1008h123v-1008z" />
    <glyph glyph-name="idieresis" unicode="&#xef;" horiz-adv-x="462" 
d="M143 1245h-120v197h120v-197zM440 1245h-121v197h121v-197zM293 0h-123v1008h123v-1008z" />
    <glyph glyph-name="eth" unicode="&#xf0;" horiz-adv-x="1198" 
d="M836 1522l-207 -107q235 -145 336.5 -350.5t101.5 -515.5q0 -267 -126.5 -418t-352.5 -151t-352.5 138t-126.5 384q0 244 116 382t322 138q187 0 293 -126t106 -347h4q0 301 -97.5 490t-328.5 321l-280 -143l-47 75l231 119q-97 46 -231 94l32 92q193 -68 308 -129
l251 129zM588 84q167 0 260.5 110.5t93.5 307.5t-93.5 307.5t-260.5 110.5t-261 -110.5t-94 -307.5t94 -307.5t261 -110.5z" />
    <glyph glyph-name="ntilde" unicode="&#xf1;" horiz-adv-x="1177" 
d="M442 1366q-47 0 -75 -39t-33 -110h-82q0 119 51.5 185t142.5 66q48 0 92.5 -22t72 -48.5t63 -48.5t67.5 -22q47 0 76.5 40.5t34.5 109.5h80q0 -119 -51.5 -185.5t-143.5 -66.5q-40 0 -75.5 14.5t-62 35.5t-51 41.5t-52 35t-54.5 14.5zM649 1028q173 0 271 -104.5
t98 -290.5v-633h-123v631q0 139 -75.5 217t-209.5 78q-150 0 -233.5 -98t-83.5 -275v-553h-123v1008h123v-342h4q0 171 93 266.5t259 95.5z" />
    <glyph glyph-name="ograve" unicode="&#xf2;" horiz-adv-x="1175" 
d="M698 1294l-41 -73l-338 172l46 82zM588 -20q-226 0 -352.5 138.5t-126.5 385.5t126.5 385.5t352.5 138.5t352.5 -138.5t126.5 -385.5t-126.5 -385.5t-352.5 -138.5zM588 84q167 0 260.5 111t93.5 309t-93.5 310t-260.5 112t-261 -112t-94 -310t94 -309t261 -111z" />
    <glyph glyph-name="oacute" unicode="&#xf3;" horiz-adv-x="1175" 
d="M854 1393l-338 -172l-41 73l336 181zM588 -20q-226 0 -352.5 138.5t-126.5 385.5t126.5 385.5t352.5 138.5t352.5 -138.5t126.5 -385.5t-126.5 -385.5t-352.5 -138.5zM588 84q167 0 260.5 111t93.5 309t-93.5 310t-260.5 112t-261 -112t-94 -310t94 -309t261 -111z" />
    <glyph glyph-name="ocircumflex" unicode="&#xf4;" horiz-adv-x="1175" 
d="M590 1468h-4l-191 -301h-114l204 316h205l205 -316h-115zM588 1028q226 0 352.5 -138.5t126.5 -385.5t-126.5 -385.5t-352.5 -138.5t-352.5 138.5t-126.5 385.5t126.5 385.5t352.5 138.5zM588 84q167 0 260.5 111t93.5 309t-93.5 310t-260.5 112t-261 -112t-94 -310
t94 -309t261 -111z" />
    <glyph glyph-name="otilde" unicode="&#xf5;" horiz-adv-x="1175" 
d="M328 1217h-82q0 120 51.5 185.5t144.5 65.5q48 0 92 -22t71.5 -48.5t62.5 -48.5t67 -22q47 0 76.5 40.5t34.5 109.5h80q0 -119 -51.5 -185.5t-143.5 -66.5q-40 0 -75.5 14.5t-62 35.5t-51 41.5t-52 35t-54.5 14.5q-46 0 -75 -39.5t-33 -109.5zM588 -20
q-226 0 -352.5 138.5t-126.5 385.5t126.5 385.5t352.5 138.5t352.5 -138.5t126.5 -385.5t-126.5 -385.5t-352.5 -138.5zM588 84q167 0 260.5 111t93.5 309t-93.5 310t-260.5 112t-261 -112t-94 -310t94 -309t261 -111z" />
    <glyph glyph-name="odieresis" unicode="&#xf6;" horiz-adv-x="1175" 
d="M500 1245h-121v197h121v-197zM795 1245h-119v197h119v-197zM588 -20q-226 0 -352.5 138.5t-126.5 385.5t126.5 385.5t352.5 138.5t352.5 -138.5t126.5 -385.5t-126.5 -385.5t-352.5 -138.5zM588 84q167 0 260.5 111t93.5 309t-93.5 310t-260.5 112t-261 -112t-94 -310
t94 -309t261 -111z" />
    <glyph glyph-name="divide" unicode="&#xf7;" horiz-adv-x="1052" 
d="M526 739q-31 0 -48 16.5t-17 47.5t17 48t48 17q34 0 52 -17t18 -48q0 -64 -70 -64zM905 477h-758v78h758v-78zM526 164q-31 0 -48 16t-17 45q0 32 17 50t48 18q34 0 52 -18t18 -50q0 -61 -70 -61z" />
    <glyph glyph-name="oslash" unicode="&#xf8;" horiz-adv-x="1175" 
d="M989 1034l-76 -116q154 -141 154 -414q0 -247 -126.5 -385.5t-352.5 -138.5q-146 0 -252 59l-74 -115l-76 51l76 115q-153 141 -153 414q0 247 126.5 385.5t352.5 138.5q146 0 252 -59l73 112zM233 504q0 -200 97 -311l448 681q-79 52 -190 52q-167 0 -261 -112t-94 -310
zM588 84q167 0 260.5 111t93.5 309q0 200 -96 313l-447 -684q76 -49 189 -49z" />
    <glyph glyph-name="ugrave" unicode="&#xf9;" horiz-adv-x="1157" 
d="M350 1475l334 -181l-41 -73l-338 172zM864 455v553h123v-1008h-123v342h-4q0 -170 -90.5 -266t-251.5 -96q-169 0 -263.5 104.5t-94.5 290.5v633h123v-631q0 -138 71.5 -215.5t200.5 -77.5q146 0 227.5 98t81.5 273z" />
    <glyph glyph-name="uacute" unicode="&#xfa;" horiz-adv-x="1157" 
d="M797 1475l43 -82l-338 -172l-41 73zM864 455v553h123v-1008h-123v342h-4q0 -170 -90.5 -266t-251.5 -96q-169 0 -263.5 104.5t-94.5 290.5v633h123v-631q0 -138 71.5 -215.5t200.5 -77.5q146 0 227.5 98t81.5 273z" />
    <glyph glyph-name="ucircumflex" unicode="&#xfb;" horiz-adv-x="1157" 
d="M575 1468h-4l-190 -301h-115l205 316h205l205 -316h-115zM864 455v553h123v-1008h-123v342h-4q0 -170 -90.5 -266t-251.5 -96q-169 0 -263.5 104.5t-94.5 290.5v633h123v-631q0 -138 71.5 -215.5t200.5 -77.5q146 0 227.5 98t81.5 273z" />
    <glyph glyph-name="udieresis" unicode="&#xfc;" horiz-adv-x="1157" 
d="M365 1442h120v-197h-120v197zM662 1442h118v-197h-118v197zM864 455v553h123v-1008h-123v342h-4q0 -170 -90.5 -266t-251.5 -96q-169 0 -263.5 104.5t-94.5 290.5v633h123v-631q0 -138 71.5 -215.5t200.5 -77.5q146 0 227.5 98t81.5 273z" />
    <glyph glyph-name="yacute" unicode="&#xfd;" horiz-adv-x="1052" 
d="M754 1475l45 -82l-338 -172l-41 73zM530 10l336 998h133l-516 -1479h-133l164 471h-106l-351 1008h133l336 -998h4z" />
    <glyph glyph-name="thorn" unicode="&#xfe;" 
d="M674 1028q207 0 323.5 -138.5t116.5 -385.5t-116.5 -385.5t-323.5 -138.5q-177 0 -277 89.5t-100 247.5h-4v-788h-123v2048h123v-887h4q0 158 100 248t277 90zM635 84q167 0 260.5 111t93.5 309t-93.5 309t-260.5 111t-260.5 -111.5t-93.5 -308.5q0 -196 93.5 -308
t260.5 -112z" />
    <glyph glyph-name="ydieresis" unicode="&#xff;" horiz-adv-x="1052" 
d="M324 1442h118v-197h-118v197zM621 1442h118v-197h-118v197zM530 10l336 998h133l-516 -1479h-133l164 471h-106l-351 1008h133l336 -998h4z" />
    <glyph glyph-name="Amacron" unicode="&#x100;" horiz-adv-x="1372" 
d="M416 1898h540v-96h-540v96zM1339 0h-141l-137 399h-758l-137 -399h-135l542 1516h228zM682 1501l-340 -991h682l-338 991h-4z" />
    <glyph glyph-name="amacron" unicode="&#x101;" 
d="M317 1391h541v-95h-541v95zM930 684v324h123v-1008h-123v324h-4q0 -161 -100 -252.5t-277 -91.5q-207 0 -323.5 138.5t-116.5 385.5t116.5 385.5t323.5 138.5q177 0 277 -91.5t100 -252.5h4zM588 84q167 0 260.5 112t93.5 308q0 197 -93.5 309.5t-260.5 112.5t-261 -112
t-94 -310t94 -309t261 -111z" />
    <glyph glyph-name="Abreve" unicode="&#x102;" horiz-adv-x="1372" 
d="M686 1669q-134 0 -208.5 85t-74.5 237h101q0 -109 48 -171.5t134 -62.5q85 0 133.5 62.5t48.5 171.5h101q-1 -152 -76 -237t-207 -85zM1339 0h-141l-137 399h-758l-137 -399h-135l542 1516h228zM682 1501l-340 -991h682l-338 991h-4z" />
    <glyph glyph-name="abreve" unicode="&#x103;" 
d="M588 1161q-132 0 -206.5 85.5t-74.5 236.5h99q0 -109 48.5 -171.5t133.5 -62.5q86 0 134 62.5t48 171.5h100q0 -151 -74.5 -236.5t-207.5 -85.5zM930 684v324h123v-1008h-123v324h-4q0 -161 -100 -252.5t-277 -91.5q-207 0 -323.5 138.5t-116.5 385.5t116.5 385.5
t323.5 138.5q177 0 277 -91.5t100 -252.5h4zM588 84q167 0 260.5 112t93.5 308q0 197 -93.5 309.5t-260.5 112.5t-261 -112t-94 -310t94 -309t261 -111z" />
    <glyph glyph-name="Aogonek" unicode="&#x104;" horiz-adv-x="1372" 
d="M1208 -406q76 0 150 48v-86q-78 -48 -176 -48q-74 0 -115 38.5t-41 107.5q0 67 48 148.5t119 137.5t130 56v4h-125l-137 399h-758l-137 -399h-135l542 1516h228l538 -1516q-94 -86 -147 -175.5t-53 -160.5q0 -70 69 -70zM682 1501l-340 -991h682l-338 991h-4z" />
    <glyph glyph-name="aogonek" unicode="&#x105;" 
d="M922 -406q76 0 147 48v-86q-74 -48 -174 -48q-74 0 -116 38.5t-42 107.5q0 67 48.5 148.5t119 137.5t129.5 56v4h-104v324h-4q0 -161 -100 -252.5t-277 -91.5q-207 0 -323.5 138.5t-116.5 385.5t116.5 385.5t323.5 138.5q177 0 277 -91.5t100 -252.5h4v324h123v-1008
q-95 -86 -149 -175.5t-54 -160.5q0 -70 72 -70zM588 84q167 0 260.5 112t93.5 308q0 197 -93.5 309.5t-260.5 112.5t-261 -112t-94 -310t94 -309t261 -111z" />
    <glyph glyph-name="Cacute" unicode="&#x106;" horiz-adv-x="1437" 
d="M1016 1901l-338 -172l-41 73l336 180zM750 -20q-298 0 -464.5 205.5t-166.5 572.5t166.5 572.5t464.5 205.5q238 0 395.5 -145t200.5 -402h-125q-41 204 -165.5 318t-305.5 114q-235 0 -367.5 -175t-132.5 -488t132.5 -488.5t367.5 -175.5q181 0 305.5 119t165.5 330h125
q-43 -263 -201 -413t-395 -150z" />
    <glyph glyph-name="cacute" unicode="&#x107;" horiz-adv-x="1120" 
d="M848 1393l-338 -172l-41 73l336 181zM582 -20q-223 0 -348 138.5t-125 385.5t125 385.5t348 138.5q174 0 290.5 -88t157.5 -248h-127q-37 112 -119 173t-202 61q-164 0 -256.5 -112t-92.5 -310t92.5 -309t256.5 -111q128 0 212.5 67.5t116.5 192.5h125
q-35 -174 -152.5 -269t-301.5 -95z" />
    <glyph glyph-name="Cdotaccent" unicode="&#x10a;" horiz-adv-x="1437" 
d="M811 1751h-123v199h123v-199zM750 -20q-298 0 -464.5 205.5t-166.5 572.5t166.5 572.5t464.5 205.5q238 0 395.5 -145t200.5 -402h-125q-41 204 -165.5 318t-305.5 114q-235 0 -367.5 -175t-132.5 -488t132.5 -488.5t367.5 -175.5q181 0 305.5 119t165.5 330h125
q-43 -263 -201 -413t-395 -150z" />
    <glyph glyph-name="cdotaccent" unicode="&#x10b;" horiz-adv-x="1120" 
d="M643 1245h-123v197h123v-197zM582 -20q-223 0 -348 138.5t-125 385.5t125 385.5t348 138.5q174 0 290.5 -88t157.5 -248h-127q-37 112 -119 173t-202 61q-164 0 -256.5 -112t-92.5 -310t92.5 -309t256.5 -111q128 0 212.5 67.5t116.5 192.5h125q-35 -174 -152.5 -269
t-301.5 -95z" />
    <glyph glyph-name="Ccaron" unicode="&#x10c;" horiz-adv-x="1437" 
d="M647 1675l-205 316h115l191 -301h4l190 301h115l-205 -316h-205zM750 94q181 0 305.5 119t165.5 330h125q-43 -263 -201 -413t-395 -150q-298 0 -464.5 205.5t-166.5 572.5t166.5 572.5t464.5 205.5q238 0 395.5 -145t200.5 -402h-125q-41 204 -165.5 318t-305.5 114
q-235 0 -367.5 -175t-132.5 -488t132.5 -488.5t367.5 -175.5z" />
    <glyph glyph-name="ccaron" unicode="&#x10d;" horiz-adv-x="1120" 
d="M479 1167l-205 316h115l191 -301h4l190 301h115l-205 -316h-205zM911 344h125q-35 -174 -152.5 -269t-301.5 -95q-223 0 -348 138.5t-125 385.5t125 385.5t348 138.5q174 0 290.5 -88t157.5 -248h-127q-37 112 -119 173t-202 61q-164 0 -256.5 -112t-92.5 -310t92.5 -309
t256.5 -111q128 0 212.5 67.5t116.5 192.5z" />
    <glyph glyph-name="Dcaron" unicode="&#x10e;" horiz-adv-x="1437" 
d="M520 1675l-205 316h115l191 -301h4l190 301h113l-205 -316h-203zM205 1516h416q331 0 516.5 -200.5t185.5 -557.5t-185.5 -557.5t-516.5 -200.5h-416v1516zM334 111h299q263 0 411 171t148 476t-148 476t-411 171h-299v-1294z" />
    <glyph glyph-name="dcaron" unicode="&#x10f;" horiz-adv-x="1267" 
d="M1161 1176l101 421l102 -26l-113 -422zM926 684h4v893h123v-1577h-123v324h-4q0 -161 -100 -252.5t-277 -91.5q-207 0 -323.5 138.5t-116.5 385.5t116.5 385.5t323.5 138.5q177 0 277 -91.5t100 -252.5zM588 84q167 0 260.5 112t93.5 308q0 197 -93.5 309.5t-260.5 112.5
t-261 -112t-94 -310t94 -309t261 -111z" />
    <glyph glyph-name="Dcroat" unicode="&#x110;" horiz-adv-x="1456" 
d="M223 1516h418q330 0 516 -201t186 -557t-186 -557t-516 -201h-418v729h-200v78h200v709zM352 111h299q264 0 411.5 170.5t147.5 476.5t-147.5 476.5t-411.5 170.5h-299v-598h299v-78h-299v-618z" />
    <glyph glyph-name="dcroat" unicode="&#x111;" 
d="M1053 1341h149v-77h-149v-1264h-123v324h-4q0 -161 -100 -252.5t-277 -91.5q-207 0 -323.5 138.5t-116.5 385.5t116.5 385.5t323.5 138.5q177 0 277 -91.5t100 -252.5h4v580h-357v77h357v236h123v-236zM588 84q167 0 260.5 112t93.5 308q0 197 -93.5 309.5t-260.5 112.5
t-261 -112t-94 -310t94 -309t261 -111z" />
    <glyph glyph-name="Emacron" unicode="&#x112;" horiz-adv-x="1257" 
d="M399 1898h541v-96h-541v96zM334 729v-618h833v-111h-962v1516h940v-111h-811v-565h739v-111h-739z" />
    <glyph glyph-name="emacron" unicode="&#x113;" horiz-adv-x="1122" 
d="M293 1391h541v-95h-541v95zM1016 502v-23h-785q4 -187 92 -292t240 -105q135 0 222.5 71.5t107.5 198.5h123q-22 -175 -142 -273.5t-311 -98.5q-215 0 -334.5 138t-119.5 384q0 249 119.5 387.5t334.5 138.5q214 0 333.5 -138.5t119.5 -387.5zM563 928
q-145 0 -231.5 -96.5t-98.5 -270.5h658q-12 173 -98.5 270t-229.5 97z" />
    <glyph glyph-name="Edotaccent" unicode="&#x116;" horiz-adv-x="1257" 
d="M608 1950h123v-199h-123v199zM334 729v-618h833v-111h-962v1516h940v-111h-811v-565h739v-111h-739z" />
    <glyph glyph-name="edotaccent" unicode="&#x117;" horiz-adv-x="1122" 
d="M500 1442h123v-197h-123v197zM1016 502v-23h-785q4 -187 92 -292t240 -105q135 0 222.5 71.5t107.5 198.5h123q-22 -175 -142 -273.5t-311 -98.5q-215 0 -334.5 138t-119.5 384q0 249 119.5 387.5t334.5 138.5q214 0 333.5 -138.5t119.5 -387.5zM563 928
q-145 0 -231.5 -96.5t-98.5 -270.5h658q-12 173 -98.5 270t-229.5 97z" />
    <glyph glyph-name="Eogonek" unicode="&#x118;" horiz-adv-x="1257" 
d="M1167 0h-211q-94 -86 -147 -175.5t-53 -160.5q0 -70 69 -70q76 0 150 48v-86q-78 -48 -176 -48q-74 0 -115 38.5t-41 107.5q0 67 48 148.5t119 137.5t130 56v4h-735v1516h940v-111h-811v-565h739v-111h-739v-618h833v-111z" />
    <glyph glyph-name="eogonek" unicode="&#x119;" horiz-adv-x="1122" 
d="M1016 502v-23h-785q4 -187 92 -292t240 -105q135 0 222.5 71.5t107.5 198.5h123q-21 -185 -156 -284q-123 -104 -192.5 -211t-69.5 -193q0 -70 72 -70q76 0 147 48v-86q-74 -48 -174 -48q-74 0 -116 38.5t-42 107.5q0 86 97.5 196.5t220.5 176.5l-2 4q-102 -51 -238 -51
q-215 0 -334.5 138t-119.5 384q0 249 119.5 387.5t334.5 138.5q214 0 333.5 -138.5t119.5 -387.5zM563 928q-145 0 -231.5 -96.5t-98.5 -270.5h658q-12 173 -98.5 270t-229.5 97z" />
    <glyph glyph-name="Ecaron" unicode="&#x11a;" horiz-adv-x="1257" 
d="M567 1675l-205 316h115l191 -301h4l190 301h115l-205 -316h-205zM334 729v-618h833v-111h-962v1516h940v-111h-811v-565h739v-111h-739z" />
    <glyph glyph-name="ecaron" unicode="&#x11b;" horiz-adv-x="1122" 
d="M461 1167l-205 316h115l190 -301h4l191 301h114l-206 -316h-203zM1016 502v-23h-785q4 -187 92 -292t240 -105q135 0 222.5 71.5t107.5 198.5h123q-22 -175 -142 -273.5t-311 -98.5q-215 0 -334.5 138t-119.5 384q0 249 119.5 387.5t334.5 138.5q214 0 333.5 -138.5
t119.5 -387.5zM563 928q-145 0 -231.5 -96.5t-98.5 -270.5h658q-12 173 -98.5 270t-229.5 97z" />
    <glyph glyph-name="Gbreve" unicode="&#x11e;" horiz-adv-x="1482" 
d="M754 1669q-132 0 -207 85t-76 237h100q0 -109 49 -171.5t134 -62.5q86 0 134 62.5t48 171.5h100q0 -152 -74.5 -237t-207.5 -85zM711 674v104h639v-778h-123v553h-4q0 -270 -140.5 -421.5t-392.5 -151.5q-262 0 -416.5 207t-154.5 571q0 367 168 572.5t467 205.5
q231 0 385 -142.5t198 -392.5h-125q-41 197 -163 308.5t-295 111.5q-238 0 -371 -175t-133 -488t128 -488.5t357 -175.5t358 153t130 427h-512z" />
    <glyph glyph-name="gbreve" unicode="&#x11f;" 
d="M610 1161q-132 0 -207 85.5t-75 236.5h100q0 -109 48.5 -171.5t133.5 -62.5t134 62.5t49 171.5h100q0 -151 -75.5 -236.5t-207.5 -85.5zM930 684v324h123v-1035q0 -219 -124 -342t-345 -123q-202 0 -322 101t-129 280l117 7q8 -132 96.5 -207.5t237.5 -75.5
q163 0 254.5 92t91.5 256v365h-4q0 -161 -100 -252.5t-277 -91.5q-207 0 -323.5 138.5t-116.5 385.5q0 246 116.5 384t323.5 138q177 0 277 -91.5t100 -252.5h4zM588 86q167 0 260.5 111.5t93.5 308.5q0 196 -93.5 308t-260.5 112t-261 -111.5t-94 -308.5q0 -198 94 -309
t261 -111z" />
    <glyph glyph-name="Gdotaccent" unicode="&#x120;" horiz-adv-x="1482" 
d="M692 1950h123v-199h-123v199zM711 674v104h639v-778h-123v553h-4q0 -270 -140.5 -421.5t-392.5 -151.5q-262 0 -416.5 207t-154.5 571q0 367 168 572.5t467 205.5q231 0 385 -142.5t198 -392.5h-125q-41 197 -163 308.5t-295 111.5q-238 0 -371 -175t-133 -488
t128 -488.5t357 -175.5t358 153t130 427h-512z" />
    <glyph glyph-name="gdotaccent" unicode="&#x121;" 
d="M549 1442h123v-197h-123v197zM930 684v324h123v-1035q0 -219 -124 -342t-345 -123q-202 0 -322 101t-129 280l117 7q8 -132 96.5 -207.5t237.5 -75.5q163 0 254.5 92t91.5 256v365h-4q0 -161 -100 -252.5t-277 -91.5q-207 0 -323.5 138.5t-116.5 385.5q0 246 116.5 384
t323.5 138q177 0 277 -91.5t100 -252.5h4zM588 86q167 0 260.5 111.5t93.5 308.5q0 196 -93.5 308t-260.5 112t-261 -111.5t-94 -308.5q0 -198 94 -309t261 -111z" />
    <glyph glyph-name="uni0122" unicode="&#x122;" horiz-adv-x="1482" 
d="M711 674v104h639v-778h-123v553h-4q0 -270 -140.5 -421.5t-392.5 -151.5q-262 0 -416.5 207t-154.5 571q0 367 168 572.5t467 205.5q231 0 385 -142.5t198 -392.5h-125q-41 197 -163 308.5t-295 111.5q-238 0 -371 -175t-133 -488t128 -488.5t357 -175.5t358 153t130 427
h-512zM813 -279h-127v117h137v-102q0 -83 -31.5 -134.5t-105.5 -93.5v60q63 25 93.5 61.5t33.5 91.5z" />
    <glyph glyph-name="uni0123" unicode="&#x123;" 
d="M551 1362h127v-121h-135v105q0 67 30.5 108t104.5 72v-60q-121 -29 -127 -104zM930 684v324h123v-1035q0 -219 -124 -342t-345 -123q-202 0 -322 101t-129 280l117 7q8 -132 96.5 -207.5t237.5 -75.5q163 0 254.5 92t91.5 256v365h-4q0 -161 -100 -252.5t-277 -91.5
q-207 0 -323.5 138.5t-116.5 385.5q0 246 116.5 384t323.5 138q177 0 277 -91.5t100 -252.5h4zM588 86q167 0 260.5 111.5t93.5 308.5q0 196 -93.5 308t-260.5 112t-261 -111.5t-94 -308.5q0 -198 94 -309t261 -111z" />
    <glyph glyph-name="Hbar" unicode="&#x126;" horiz-adv-x="1488" 
d="M1282 1231h131v-78h-131v-1153h-129v715h-817v-715h-129v1153h-131v78h131v285h129v-285h817v285h129v-285zM336 825h817v328h-817v-328z" />
    <glyph glyph-name="hbar" unicode="&#x127;" horiz-adv-x="1177" 
d="M649 1028q173 0 271 -104.5t98 -290.5v-633h-123v631q0 139 -75.5 217t-209.5 78q-150 0 -233.5 -98t-83.5 -275v-553h-123v1264h-152v77h152v236h123v-236h356v-77h-356v-598h4q0 171 93 266.5t259 95.5z" />
    <glyph glyph-name="Imacron" unicode="&#x12a;" horiz-adv-x="538" 
d="M539 1802h-539v96h539v-96zM334 0h-129v1516h129v-1516z" />
    <glyph glyph-name="imacron" unicode="&#x12b;" horiz-adv-x="462" 
d="M502 1296h-541v95h541v-95zM293 0h-123v1008h123v-1008z" />
    <glyph glyph-name="Iogonek" unicode="&#x12e;" horiz-adv-x="538" 
d="M201 -406q78 0 149 48v-86q-78 -48 -174 -48q-75 0 -116.5 38.5t-41.5 107.5q0 67 48 148.5t119 137.5t130 56v4h-110v1516h129v-1516q-95 -86 -149 -175.5t-54 -160.5q0 -70 70 -70z" />
    <glyph glyph-name="iogonek" unicode="&#x12f;" horiz-adv-x="462" 
d="M170 1442h123v-197h-123v197zM162 -406q76 0 147 48v-86q-78 -48 -174 -48q-74 0 -116 38.5t-42 107.5q0 67 48.5 148.5t119 137.5t129.5 56v4h-104v1008h123v-1008q-95 -86 -149 -175.5t-54 -160.5q0 -70 72 -70z" />
    <glyph glyph-name="Idotaccent" unicode="&#x130;" horiz-adv-x="538" 
d="M330 1751h-123v199h123v-199zM334 0h-129v1516h129v-1516z" />
    <glyph glyph-name="dotlessi" unicode="&#x131;" horiz-adv-x="462" 
d="M293 0h-123v1008h123v-1008z" />
    <glyph glyph-name="uni0136" unicode="&#x136;" horiz-adv-x="1380" 
d="M1311 1516l-811 -728l880 -788h-188l-856 780h-4v-780h-127v1516h127v-719h4l799 719h176zM776 -279h-127v117h137v-102q0 -83 -31 -135t-106 -93v60q63 25 93.5 61.5t33.5 91.5z" />
    <glyph glyph-name="uni0137" unicode="&#x137;" horiz-adv-x="1099" 
d="M1049 1008l-598 -482l634 -526h-174l-614 516h-4v-516h-123v1577h123v-1045h4l582 476h170zM596 -279h-125v117h135v-102q0 -83 -30.5 -135t-104.5 -93v60q63 25 93.5 61.5t31.5 91.5z" />
    <glyph glyph-name="Lacute" unicode="&#x139;" horiz-adv-x="1087" 
d="M156 1802l336 180l45 -81l-340 -172zM334 1516v-1405h710v-111h-839v1516h129z" />
    <glyph glyph-name="lacute" unicode="&#x13a;" horiz-adv-x="462" 
d="M500 1962l-340 -172l-41 74l336 180zM293 0h-123v1577h123v-1577z" />
    <glyph glyph-name="uni013B" unicode="&#x13b;" horiz-adv-x="1087" 
d="M334 1516v-1405h710v-111h-839v1516h129zM598 -279h-125v117h135v-102q0 -83 -30.5 -135t-104.5 -93v60q63 25 93.5 61.5t31.5 91.5z" />
    <glyph glyph-name="uni013C" unicode="&#x13c;" horiz-adv-x="462" 
d="M170 1577h123v-1577h-123v1577zM164 -279v117h137v-102q0 -83 -31.5 -134.5t-105.5 -93.5v60q63 25 93.5 61.5t33.5 91.5h-127z" />
    <glyph glyph-name="Lcaron" unicode="&#x13d;" horiz-adv-x="1089" 
d="M588 1536l102 -27l-112 -422l-89 27zM334 1516v-1405h710v-111h-839v1516h129z" />
    <glyph glyph-name="lcaron" unicode="&#x13e;" horiz-adv-x="544" 
d="M604 1571l-115 -422l-88 27l101 421zM293 0h-123v1577h123v-1577z" />
    <glyph glyph-name="Lslash" unicode="&#x141;" horiz-adv-x="1099" 
d="M346 735v-624h711v-111h-840v653l-139 -92v94l139 95v766h129v-687l322 218v-95z" />
    <glyph glyph-name="lslash" unicode="&#x142;" horiz-adv-x="569" 
d="M346 907l137 121v-100l-137 -123v-805h-123v702l-135 -120v100l135 121v774h123v-670z" />
    <glyph glyph-name="Nacute" unicode="&#x143;" horiz-adv-x="1484" 
d="M965 1982l45 -81l-338 -172l-41 73zM1159 14l-2 1502h123v-1516h-240l-708 1501h-4l2 -1501h-125v1516h241l709 -1502h4z" />
    <glyph glyph-name="nacute" unicode="&#x144;" horiz-adv-x="1177" 
d="M815 1475l45 -82l-338 -172l-41 73zM649 1028q173 0 271 -104.5t98 -290.5v-633h-123v631q0 139 -75.5 217t-209.5 78q-150 0 -233.5 -98t-83.5 -275v-553h-123v1008h123v-342h4q0 171 93 266.5t259 95.5z" />
    <glyph glyph-name="uni0145" unicode="&#x145;" horiz-adv-x="1484" 
d="M1159 14l-2 1502h123v-1516h-240l-708 1501h-4l2 -1501h-125v1516h241l709 -1502h4zM801 -279h-125v117h135v-102q0 -83 -30.5 -135t-104.5 -93v60q63 25 92.5 61t32.5 92z" />
    <glyph glyph-name="uni0146" unicode="&#x146;" horiz-adv-x="1177" 
d="M649 1028q173 0 271 -104.5t98 -290.5v-633h-123v631q0 139 -75.5 217t-209.5 78q-150 0 -233.5 -98t-83.5 -275v-553h-123v1008h123v-342h4q0 171 93 266.5t259 95.5zM651 -279h-125v117h136v-102q0 -83 -31 -135t-105 -93v60q63 25 92.5 61t32.5 92z" />
    <glyph glyph-name="Ncaron" unicode="&#x147;" horiz-adv-x="1484" 
d="M641 1675l-205 316h115l190 -301h4l191 301h115l-205 -316h-205zM1159 14l-2 1502h123v-1516h-240l-708 1501h-4l2 -1501h-125v1516h241l709 -1502h4z" />
    <glyph glyph-name="ncaron" unicode="&#x148;" horiz-adv-x="1177" 
d="M492 1167l-205 316h114l191 -301h4l190 301h115l-205 -316h-204zM649 1028q173 0 271 -104.5t98 -290.5v-633h-123v631q0 139 -75.5 217t-209.5 78q-150 0 -233.5 -98t-83.5 -275v-553h-123v1008h123v-342h4q0 171 93 266.5t259 95.5z" />
    <glyph glyph-name="Eng" unicode="&#x14a;" horiz-adv-x="1484" 
d="M1159 14l-2 1502h123v-1559q0 -211 -109.5 -330t-304.5 -119q-107 0 -186 39l31 107q67 -31 149 -31q137 0 214 85t77 237v55h-111l-708 1501h-4l2 -1501h-125v1516h241l709 -1502h4z" />
    <glyph glyph-name="eng" unicode="&#x14b;" horiz-adv-x="1177" 
d="M649 1028q173 0 271 -104.5t98 -290.5v-762q0 -171 -91 -267t-253 -96q-121 0 -203 43l33 95q76 -33 170 -33q108 0 164.5 66t56.5 186v766q0 139 -75.5 217t-209.5 78q-150 0 -233.5 -98t-83.5 -275v-553h-123v1008h123v-342h4q0 171 93 266.5t259 95.5z" />
    <glyph glyph-name="Omacron" unicode="&#x14c;" horiz-adv-x="1511" 
d="M1028 1802h-541v96h541v-96zM756 -20q-301 0 -469 205.5t-168 572.5t168 572.5t469 205.5t469 -205.5t168 -572.5t-168 -572.5t-469 -205.5zM756 94q238 0 372 175.5t134 488.5t-134 488t-372 175q-239 0 -372.5 -175t-133.5 -488q0 -314 133.5 -489t372.5 -175z" />
    <glyph glyph-name="omacron" unicode="&#x14d;" horiz-adv-x="1175" 
d="M858 1296h-541v95h541v-95zM588 -20q-226 0 -352.5 138.5t-126.5 385.5t126.5 385.5t352.5 138.5t352.5 -138.5t126.5 -385.5t-126.5 -385.5t-352.5 -138.5zM588 84q167 0 260.5 111t93.5 309t-93.5 310t-260.5 112t-261 -112t-94 -310t94 -309t261 -111z" />
    <glyph glyph-name="Ohungarumlaut" unicode="&#x150;" horiz-adv-x="1511" 
d="M903 1950l-282 -256l-60 61l268 262zM1149 1950l-283 -256l-59 61l270 262zM756 -20q-301 0 -469 205.5t-168 572.5t168 572.5t469 205.5t469 -205.5t168 -572.5t-168 -572.5t-469 -205.5zM756 94q238 0 372 175.5t134 488.5t-134 488t-372 175q-239 0 -372.5 -175
t-133.5 -488q0 -314 133.5 -489t372.5 -175z" />
    <glyph glyph-name="ohungarumlaut" unicode="&#x151;" horiz-adv-x="1175" 
d="M733 1442l-282 -256l-60 61l271 264zM979 1442l-283 -256l-59 61l270 264zM588 -20q-226 0 -352.5 138.5t-126.5 385.5t126.5 385.5t352.5 138.5t352.5 -138.5t126.5 -385.5t-126.5 -385.5t-352.5 -138.5zM588 84q167 0 260.5 111t93.5 309t-93.5 310t-260.5 112
t-261 -112t-94 -310t94 -309t261 -111z" />
    <glyph glyph-name="OE" unicode="&#x152;" horiz-adv-x="2316" 
d="M1399 729v-618h825v-111h-952v516h-4q0 -250 -146 -393t-403 -143q-282 0 -441 206t-159 572t159 572t441 206q256 0 402.5 -143t146.5 -394h4v517h930v-111h-803v-565h731v-111h-731zM756 94q249 0 388.5 177t139.5 487t-139.5 486.5t-388.5 176.5q-239 0 -372.5 -175.5
t-133.5 -487.5t133.5 -488t372.5 -176z" />
    <glyph glyph-name="oe" unicode="&#x153;" horiz-adv-x="1945" 
d="M1839 502v-23h-784q5 -188 92 -292.5t239 -104.5q134 0 222 71.5t108 198.5h123q-23 -175 -143 -273.5t-310 -98.5q-181 0 -295.5 97.5t-148.5 278.5h-4q0 -177 -103 -276.5t-286 -99.5q-207 0 -323.5 138.5t-116.5 385.5t116.5 385.5t323.5 138.5q183 0 286 -100
t103 -277h4q32 180 147.5 278.5t296.5 98.5q214 0 333.5 -138.5t119.5 -387.5zM1386 928q-144 0 -230.5 -96.5t-98.5 -270.5h657q-12 173 -98.5 270t-229.5 97zM588 84q167 0 260.5 112t93.5 308q0 197 -93.5 309.5t-260.5 112.5t-261 -112t-94 -310t94 -309t261 -111z" />
    <glyph glyph-name="Racute" unicode="&#x154;" horiz-adv-x="1343" 
d="M856 1982l43 -81l-338 -172l-41 73zM979 475l289 -475h-148l-399 662h-387v-662h-129v1516h520q235 0 367.5 -109t132.5 -301q0 -207 -128.5 -323.5t-357.5 -116.5v-4q56 0 120.5 -49.5t119.5 -137.5zM334 1405v-637h405q167 0 261 86.5t94 241.5q0 146 -94.5 227.5
t-262.5 81.5h-403z" />
    <glyph glyph-name="racute" unicode="&#x155;" horiz-adv-x="821" 
d="M621 1475l45 -82l-338 -172l-41 73zM639 1028q93 0 156 -29l-35 -122q-61 34 -154 34q-149 0 -231 -105t-82 -294v-512h-123v1008h123v-369h4q0 184 90.5 286.5t251.5 102.5z" />
    <glyph glyph-name="uni0156" unicode="&#x156;" horiz-adv-x="1343" 
d="M979 475l289 -475h-148l-399 662h-387v-662h-129v1516h520q235 0 367.5 -109t132.5 -301q0 -207 -128.5 -323.5t-357.5 -116.5v-4q56 0 120.5 -49.5t119.5 -137.5zM334 1405v-637h405q167 0 261 86.5t94 241.5q0 146 -94.5 227.5t-262.5 81.5h-403zM754 -279h-127v117
h137v-102q0 -83 -31.5 -134.5t-105.5 -93.5v60q63 25 93.5 61.5t33.5 91.5z" />
    <glyph glyph-name="uni0157" unicode="&#x157;" horiz-adv-x="821" 
d="M639 1028q93 0 156 -29l-35 -122q-61 34 -154 34q-149 0 -231 -105t-82 -294v-512h-123v1008h123v-369h4q0 184 90.5 286.5t251.5 102.5zM295 -279h-127v117h137v-102q0 -83 -31 -135t-106 -93v60q63 25 93.5 61.5t33.5 91.5z" />
    <glyph glyph-name="Rcaron" unicode="&#x158;" horiz-adv-x="1343" 
d="M532 1675l-206 316h114l191 -301h4l190 301h115l-205 -316h-203zM979 475l289 -475h-148l-399 662h-387v-662h-129v1516h520q235 0 367.5 -109t132.5 -301q0 -207 -128.5 -323.5t-357.5 -116.5v-4q56 0 120.5 -49.5t119.5 -137.5zM334 1405v-637h405q167 0 261 86.5
t94 241.5q0 146 -94.5 227.5t-262.5 81.5h-403z" />
    <glyph glyph-name="rcaron" unicode="&#x159;" horiz-adv-x="821" 
d="M297 1167l-205 316h115l190 -301h4l191 301h115l-205 -316h-205zM639 1028q93 0 156 -29l-35 -122q-61 34 -154 34q-149 0 -231 -105t-82 -294v-512h-123v1008h123v-369h4q0 184 90.5 286.5t251.5 102.5z" />
    <glyph glyph-name="Sacute" unicode="&#x15a;" horiz-adv-x="1337" 
d="M932 1901l-340 -172l-41 73l336 180zM666 -20q-255 0 -405.5 141t-162.5 393h127q12 -198 128.5 -309t312.5 -111q207 0 322.5 83.5t115.5 234.5q0 71 -28.5 125t-60.5 83.5t-108 55t-116 33.5t-140 25q-3 1 -4 1q-71 12 -107.5 18.5t-100 23t-98 33t-79 45.5t-67.5 64.5
t-39.5 86.5t-16.5 114q0 198 139 307t388 109q238 0 378 -135.5t150 -376.5h-127q-9 187 -116 292t-289 105q-185 0 -288.5 -78t-103.5 -219q0 -61 25.5 -107t58 -72.5t99 -48t111 -30t130.5 -22.5q73 -11 113.5 -18.5t106.5 -24.5t103.5 -35.5t85 -50.5t72.5 -72
t42.5 -97.5t17.5 -127.5q0 -207 -151 -322.5t-418 -115.5z" />
    <glyph glyph-name="sacute" unicode="&#x15b;" horiz-adv-x="1017" 
d="M774 1393l-338 -172l-41 73l336 181zM508 -20q-195 0 -304.5 91t-109.5 255h121q0 -118 77.5 -184t215.5 -66t214.5 49.5t76.5 140.5q0 25 -6 47t-14.5 38.5t-25.5 31.5t-31 25t-39.5 20t-43 15.5t-49 13t-50 11t-53.5 9.5q-50 9 -76.5 14.5t-71.5 18t-69.5 24.5
t-56.5 33t-48 45.5t-28 59.5t-12 78q0 129 102 203.5t281 74.5q180 0 281.5 -88t101.5 -246h-123q0 114 -68 177t-192 63q-122 0 -191 -47.5t-69 -132.5q0 -30 10 -54.5t32 -42t43.5 -29.5t60.5 -22.5t65 -16t73 -14.5q163 -31 232 -63q158 -72 158 -240
q0 -137 -109.5 -214.5t-304.5 -77.5z" />
    <glyph glyph-name="Scedilla" unicode="&#x15e;" horiz-adv-x="1337" 
d="M666 -20q-255 0 -405.5 141t-162.5 393h127q12 -198 128.5 -309t312.5 -111q207 0 322.5 83.5t115.5 234.5q0 71 -28.5 125t-60.5 83.5t-108 55t-116 33.5t-140 25q-3 1 -4 1q-71 12 -107.5 18.5t-100 23t-98 33t-79 45.5t-67.5 64.5t-39.5 86.5t-16.5 114q0 198 139 307
t388 109q238 0 378 -135.5t150 -376.5h-127q-9 187 -116 292t-289 105q-185 0 -288.5 -78t-103.5 -219q0 -61 25.5 -107t58 -72.5t99 -48t111 -30t130.5 -22.5q73 -11 113.5 -18.5t106.5 -24.5t103.5 -35.5t85 -50.5t72.5 -72t42.5 -97.5t17.5 -127.5q0 -207 -151 -322.5
t-418 -115.5zM614 -492q-100 0 -174 48v77q76 -47 168 -47q75 0 116.5 30t41.5 83q0 41 -27.5 64.5t-76.5 23.5q-82 3 -125 -53l-62 41q29 40 83.5 65t111.5 25q95 0 148.5 -43.5t53.5 -120.5q0 -91 -68.5 -142t-189.5 -51z" />
    <glyph glyph-name="scedilla" unicode="&#x15f;" horiz-adv-x="1017" 
d="M508 -20q-195 0 -304.5 91t-109.5 255h121q0 -118 77.5 -184t215.5 -66t214.5 49.5t76.5 140.5q0 25 -6 47t-14.5 38.5t-25.5 31.5t-31 25t-39.5 20t-43 15.5t-49 13t-50 11t-53.5 9.5q-50 9 -76.5 14.5t-71.5 18t-69.5 24.5t-56.5 33t-48 45.5t-28 59.5t-12 78
q0 129 102 203.5t281 74.5q180 0 281.5 -88t101.5 -246h-123q0 114 -68 177t-192 63q-122 0 -191 -47.5t-69 -132.5q0 -30 10 -54.5t32 -42t43.5 -29.5t60.5 -22.5t65 -16t73 -14.5q163 -31 232 -63q158 -72 158 -240q0 -137 -109.5 -214.5t-304.5 -77.5zM457 -492
q-100 0 -174 48v77q76 -47 168 -47q75 0 116 30t41 83q0 41 -27.5 64.5t-76.5 23.5q-82 3 -125 -53l-62 41q29 40 83.5 65t111.5 25q95 0 149 -43.5t54 -120.5q0 -91 -68.5 -142t-189.5 -51z" />
    <glyph glyph-name="Scaron" unicode="&#x160;" horiz-adv-x="1337" 
d="M563 1675l-205 316h115l191 -301h4l190 301h113l-205 -316h-203zM694 844q73 -11 113.5 -18.5t106.5 -24.5t103.5 -35.5t85 -50.5t72.5 -72t42.5 -97.5t17.5 -127.5q0 -207 -151 -322.5t-418 -115.5q-255 0 -405.5 141t-162.5 393h127q12 -198 128.5 -309t312.5 -111
q207 0 322.5 83.5t115.5 234.5q0 71 -28.5 125t-60.5 83.5t-108 55t-116 33.5t-140 25q-3 1 -4 1q-71 12 -107.5 18.5t-100 23t-98 33t-79 45.5t-67.5 64.5t-39.5 86.5t-16.5 114q0 198 139 307t388 109q238 0 378 -135.5t150 -376.5h-127q-9 187 -116 292t-289 105
q-185 0 -288.5 -78t-103.5 -219q0 -61 25.5 -107t58 -72.5t99 -48t111 -30t130.5 -22.5z" />
    <glyph glyph-name="scaron" unicode="&#x161;" horiz-adv-x="1017" 
d="M406 1167l-205 316h114l191 -301h4l190 301h115l-205 -316h-204zM532 575q163 -31 232 -63q158 -72 158 -240q0 -137 -109.5 -214.5t-304.5 -77.5t-304.5 91t-109.5 255h121q0 -118 77.5 -184t215.5 -66t214.5 49.5t76.5 140.5q0 25 -6 47t-14.5 38.5t-25.5 31.5t-31 25
t-39.5 20t-43 15.5t-49 13t-50 11t-53.5 9.5q-50 9 -76.5 14.5t-71.5 18t-69.5 24.5t-56.5 33t-48 45.5t-28 59.5t-12 78q0 129 102 203.5t281 74.5q180 0 281.5 -88t101.5 -246h-123q0 114 -68 177t-192 63q-122 0 -191 -47.5t-69 -132.5q0 -30 10 -54.5t32 -42t43.5 -29.5
t60.5 -22.5t65 -16t73 -14.5z" />
    <glyph glyph-name="uni0162" unicode="&#x162;" horiz-adv-x="1165" 
d="M41 1405v111h1083v-111h-477v-1405h-129v1405h-477zM588 -135q95 0 149 -43.5t54 -120.5q0 -91 -67.5 -142t-188.5 -51q-99 0 -177 48v77q76 -47 168 -47q75 0 117.5 30t42.5 83q0 41 -28 64.5t-78 23.5q-80 3 -123 -53l-64 41q31 40 84.5 65t110.5 25z" />
    <glyph glyph-name="uni0163" unicode="&#x163;" horiz-adv-x="745" 
d="M700 1008v-99h-358v-633q0 -92 51 -142t144 -50q78 0 149 33v-99q-78 -38 -186 -38q-132 0 -206.5 78t-74.5 216v635h-172v99h182v356h123v-86q0 -78 -30.5 -148t-83.5 -118v-4h462zM379 -135q95 0 150 -44t55 -120q0 -91 -68.5 -142t-189.5 -51q-100 0 -174 48v77
q73 -47 165 -47q76 0 118 30t42 83q0 41 -27.5 64.5t-76.5 23.5q-82 3 -125 -53l-64 41q31 40 84.5 65t110.5 25z" />
    <glyph glyph-name="Tcaron" unicode="&#x164;" horiz-adv-x="1165" 
d="M481 1675l-205 316h115l191 -301h4l190 301h115l-205 -316h-205zM41 1516h1083v-111h-477v-1405h-129v1405h-477v111z" />
    <glyph glyph-name="tcaron" unicode="&#x165;" horiz-adv-x="745" 
d="M569 1597l103 -26l-115 -422l-88 27zM700 1008v-99h-358v-633q0 -92 51 -142t144 -50q78 0 149 33v-99q-78 -38 -186 -38q-132 0 -206.5 78t-74.5 216v635h-172v99h182v356h123v-86q0 -78 -30.5 -148t-83.5 -118v-4h462z" />
    <glyph glyph-name="Tbar" unicode="&#x166;" horiz-adv-x="1177" 
d="M1130 1516v-111h-477v-610h250v-78h-250v-717h-129v717h-250v78h250v610h-477v111h1083z" />
    <glyph glyph-name="tbar" unicode="&#x167;" horiz-adv-x="778" 
d="M719 1008v-99h-359v-360h357v-78h-357v-195q0 -92 51 -142t144 -50q79 0 150 33v-99q-78 -38 -187 -38q-132 0 -206 78t-74 216v197h-170v78h170v360h-172v99h182v356h123v-86q0 -78 -31 -148t-84 -118v-4h463z" />
    <glyph glyph-name="Umacron" unicode="&#x16a;" horiz-adv-x="1449" 
d="M995 1802h-538v96h538v-96zM725 -20q-252 0 -394.5 142t-142.5 394v1000h129v-1010q0 -194 108 -303t300 -109q195 0 304.5 109t109.5 303v1010h123v-1000q0 -252 -142.5 -394t-394.5 -142z" />
    <glyph glyph-name="umacron" unicode="&#x16b;" horiz-adv-x="1157" 
d="M303 1391h541v-95h-541v95zM864 455v553h123v-1008h-123v342h-4q0 -170 -90.5 -266t-251.5 -96q-169 0 -263.5 104.5t-94.5 290.5v633h123v-631q0 -138 71.5 -215.5t200.5 -77.5q146 0 227.5 98t81.5 273z" />
    <glyph glyph-name="Uring" unicode="&#x16e;" horiz-adv-x="1449" 
d="M725 1638q-107 0 -168 58t-61 159q0 103 61 161.5t168 58.5q109 0 170 -58.5t61 -161.5q0 -101 -61 -159t-170 -58zM725 1718q64 0 99.5 36t35.5 101q0 66 -35.5 103t-99.5 37q-63 0 -98 -37t-35 -103q0 -65 35 -101t98 -36zM725 -20q-252 0 -394.5 142t-142.5 394v1000
h129v-1010q0 -194 108 -303t300 -109q195 0 304.5 109t109.5 303v1010h123v-1000q0 -252 -142.5 -394t-394.5 -142z" />
    <glyph glyph-name="uring" unicode="&#x16f;" horiz-adv-x="1157" 
d="M573 1130q-108 0 -168.5 58.5t-60.5 161.5q0 102 60.5 159.5t168.5 57.5t169 -57.5t61 -159.5q0 -103 -61 -161.5t-169 -58.5zM573 1487q-63 0 -98 -36t-35 -101t35 -101.5t98 -36.5t98.5 36.5t35.5 101.5q0 64 -35.5 100.5t-98.5 36.5zM864 455v553h123v-1008h-123v342
h-4q0 -170 -90.5 -266t-251.5 -96q-169 0 -263.5 104.5t-94.5 290.5v633h123v-631q0 -138 71.5 -215.5t200.5 -77.5q146 0 227.5 98t81.5 273z" />
    <glyph glyph-name="Uhungarumlaut" unicode="&#x170;" horiz-adv-x="1449" 
d="M872 1950l-284 -256l-60 61l271 262zM1118 1950l-284 -256l-60 61l270 262zM725 -20q-252 0 -394.5 142t-142.5 394v1000h129v-1010q0 -194 108 -303t300 -109q195 0 304.5 109t109.5 303v1010h123v-1000q0 -252 -142.5 -394t-394.5 -142z" />
    <glyph glyph-name="uhungarumlaut" unicode="&#x171;" horiz-adv-x="1157" 
d="M647 1511l72 -69l-283 -256l-59 61zM965 1442l-283 -256l-59 61l270 264zM864 455v553h123v-1008h-123v342h-4q0 -170 -90.5 -266t-251.5 -96q-169 0 -263.5 104.5t-94.5 290.5v633h123v-631q0 -138 71.5 -215.5t200.5 -77.5q146 0 227.5 98t81.5 273z" />
    <glyph glyph-name="Uogonek" unicode="&#x172;" horiz-adv-x="1449" 
d="M1139 506v1010h123v-1000q0 -206 -97.5 -341.5t-275.5 -176.5q-90 -88 -140.5 -176t-50.5 -158t72 -70q77 0 148 48v-86q-78 -48 -175 -48q-74 0 -115.5 38.5t-41.5 107.5q0 77 84 175t194 159l-2 4q-64 -12 -137 -12q-252 0 -394.5 142t-142.5 394v1000h129v-1010
q0 -194 108 -303t300 -109q195 0 304.5 109t109.5 303z" />
    <glyph glyph-name="uogonek" unicode="&#x173;" horiz-adv-x="1157" 
d="M854 -406q79 0 150 48v-86q-78 -48 -175 -48q-75 0 -116 38.5t-41 107.5q0 67 48 148.5t119 137.5t130 56v4h-105v342h-4q0 -170 -90.5 -266t-251.5 -96q-169 0 -263.5 104.5t-94.5 290.5v633h123v-631q0 -138 71.5 -215.5t200.5 -77.5q146 0 227.5 98t81.5 273v553h123
v-1008q-95 -86 -149 -175.5t-54 -160.5q0 -70 70 -70z" />
    <glyph glyph-name="Wcircumflex" unicode="&#x174;" horiz-adv-x="2033" 
d="M1020 1976h-4l-191 -301h-112l205 316h202l205 -316h-115zM1479 14l366 1502h135l-376 -1516h-250l-336 1501h-4l-334 -1501h-250l-377 1516h142l364 -1502h4l336 1502h236l340 -1502h4z" />
    <glyph glyph-name="wcircumflex" unicode="&#x175;" horiz-adv-x="1646" 
d="M827 1468h-4l-190 -301h-115l205 316h203l204 -316h-112zM1182 10l278 998h129l-295 -1008h-229l-240 997h-4l-239 -997h-230l-295 1008h133l277 -998h4l242 998h225l240 -998h4z" />
    <glyph glyph-name="Ycircumflex" unicode="&#x176;" horiz-adv-x="1314" 
d="M684 1976h-4l-191 -301h-112l205 316h202l205 -316h-115zM688 565l488 951h145l-789 -1516h-145l283 551h-127l-502 965h152l491 -951h4z" />
    <glyph glyph-name="ycircumflex" unicode="&#x177;" horiz-adv-x="1052" 
d="M535 1468h-5l-190 -301h-115l205 316h205l205 -316h-115zM530 10l336 998h133l-516 -1479h-133l164 471h-106l-351 1008h133l336 -998h4z" />
    <glyph glyph-name="Ydieresis" unicode="&#x178;" horiz-adv-x="1314" 
d="M475 1950h119v-199h-119v199zM770 1950h121v-199h-121v199zM688 565l488 951h145l-789 -1516h-145l283 551h-127l-502 965h152l491 -951h4z" />
    <glyph glyph-name="Zacute" unicode="&#x179;" horiz-adv-x="1337" 
d="M897 1982l45 -81l-340 -172l-41 73zM100 115v-4h1166v-111h-1186v258l1124 1143v4h-1095v111h1118v-259z" />
    <glyph glyph-name="zacute" unicode="&#x17a;" horiz-adv-x="1042" 
d="M745 1475l46 -82l-340 -172l-41 73zM115 102v-4h850v-98h-871v229l813 676v4h-801v99h822v-230z" />
    <glyph glyph-name="Zdotaccent" unicode="&#x17b;" horiz-adv-x="1337" 
d="M612 1950h123v-199h-123v199zM100 115v-4h1166v-111h-1186v258l1124 1143v4h-1095v111h1118v-259z" />
    <glyph glyph-name="zdotaccent" unicode="&#x17c;" horiz-adv-x="1042" 
d="M461 1442h123v-197h-123v197zM115 102v-4h850v-98h-871v229l813 676v4h-801v99h822v-230z" />
    <glyph glyph-name="Zcaron" unicode="&#x17d;" horiz-adv-x="1337" 
d="M573 1675l-204 316h114l191 -301h4l190 301h113l-205 -316h-203zM100 115v-4h1166v-111h-1186v258l1124 1143v4h-1095v111h1118v-259z" />
    <glyph glyph-name="zcaron" unicode="&#x17e;" horiz-adv-x="1042" 
d="M422 1167l-205 316h115l190 -301h4l191 301h112l-204 -316h-203zM115 102v-4h850v-98h-871v229l813 676v4h-801v99h822v-230z" />
    <glyph glyph-name="florin" unicode="&#x192;" horiz-adv-x="1314" 
d="M1085 1432q-96 0 -161.5 -68t-85.5 -188l-64 -355h344v-78h-356l-80 -448q-26 -149 -117.5 -232t-228.5 -83q-128 0 -225 43l28 94q81 -33 180 -33q97 0 162.5 68t85.5 188l72 403h-326v78h340l70 400q26 149 117.5 232t228.5 83q128 0 225 -43l-28 -94q-81 33 -181 33z
" />
    <glyph glyph-name="uni0218" unicode="&#x218;" horiz-adv-x="1337" 
d="M694 844q73 -11 113.5 -18.5t106.5 -24.5t103.5 -35.5t85 -50.5t72.5 -72t42.5 -97.5t17.5 -127.5q0 -207 -151 -322.5t-418 -115.5q-255 0 -405.5 141t-162.5 393h127q12 -198 128.5 -309t312.5 -111q207 0 322.5 83.5t115.5 234.5q0 71 -28.5 125t-60.5 83.5t-108 55
t-116 33.5t-140 25q-3 1 -4 1q-71 12 -107.5 18.5t-100 23t-98 33t-79 45.5t-67.5 64.5t-39.5 86.5t-16.5 114q0 198 139 307t388 109q238 0 378 -135.5t150 -376.5h-127q-9 187 -116 292t-289 105q-185 0 -288.5 -78t-103.5 -219q0 -61 25.5 -107t58 -72.5t99 -48t111 -30
t130.5 -22.5zM723 -279h-127v117h137v-102q0 -83 -31 -135t-106 -93v60q63 25 93.5 61.5t33.5 91.5z" />
    <glyph glyph-name="uni0219" unicode="&#x219;" horiz-adv-x="1017" 
d="M532 575q163 -31 232 -63q158 -72 158 -240q0 -137 -109.5 -214.5t-304.5 -77.5t-304.5 91t-109.5 255h121q0 -118 77.5 -184t215.5 -66t214.5 49.5t76.5 140.5q0 25 -6 47t-14.5 38.5t-25.5 31.5t-31 25t-39.5 20t-43 15.5t-49 13t-50 11t-53.5 9.5q-50 9 -76.5 14.5
t-71.5 18t-69.5 24.5t-56.5 33t-48 45.5t-28 59.5t-12 78q0 129 102 203.5t281 74.5q180 0 281.5 -88t101.5 -246h-123q0 114 -68 177t-192 63q-122 0 -191 -47.5t-69 -132.5q0 -30 10 -54.5t32 -42t43.5 -29.5t60.5 -22.5t65 -16t73 -14.5zM565 -279h-127v117h137v-102
q0 -83 -31 -135t-106 -93v60q63 25 93.5 61.5t33.5 91.5z" />
    <glyph glyph-name="uni021A" unicode="&#x21a;" horiz-adv-x="1165" 
d="M41 1405v111h1083v-111h-477v-1405h-129v1405h-477zM641 -279h-125v117h135v-102q0 -83 -30.5 -135t-104.5 -93v60q63 25 93.5 61.5t31.5 91.5z" />
    <glyph glyph-name="uni021B" unicode="&#x21b;" horiz-adv-x="745" 
d="M700 1008v-99h-358v-633q0 -92 51 -142t144 -50q78 0 149 33v-99q-78 -38 -186 -38q-132 0 -206.5 78t-74.5 216v635h-172v99h182v356h123v-86q0 -78 -30.5 -148t-83.5 -118v-4h462zM434 -279h-127v117h137v-102q0 -83 -31.5 -134.5t-105.5 -93.5v60q63 25 93.5 61.5
t33.5 91.5z" />
    <glyph glyph-name="uni0237" unicode="&#x237;" horiz-adv-x="462" 
d="M293 -471h-123v1479h123v-1479z" />
    <glyph glyph-name="circumflex" unicode="&#x2c6;" horiz-adv-x="688" 
d="M446 1483l205 -316h-114l-191 301h-4l-190 -301h-115l205 316h204z" />
    <glyph glyph-name="caron" unicode="&#x2c7;" horiz-adv-x="688" 
d="M346 1182l191 301h114l-205 -316h-204l-205 316h115l190 -301h4z" />
    <glyph glyph-name="breve" unicode="&#x2d8;" horiz-adv-x="677" 
d="M338 1161q-132 0 -206.5 85.5t-74.5 236.5h99q0 -109 48.5 -171.5t133.5 -62.5q86 0 134 62.5t50 171.5h99q0 -151 -75 -236.5t-208 -85.5z" />
    <glyph glyph-name="dotaccent" unicode="&#x2d9;" horiz-adv-x="399" 
d="M262 1245h-123v197h123v-197z" />
    <glyph glyph-name="ring" unicode="&#x2da;" horiz-adv-x="565" 
d="M283 1130q-108 0 -169 58.5t-61 161.5q0 102 61 159.5t169 57.5t168.5 -57.5t60.5 -159.5q0 -103 -60.5 -161.5t-168.5 -58.5zM283 1212q63 0 98 36.5t35 101.5t-35 101t-98 36t-98 -36t-35 -101t35 -101.5t98 -36.5z" />
    <glyph glyph-name="ogonek" unicode="&#x2db;" horiz-adv-x="432" 
d="M213 -492q-74 0 -115 38.5t-41 107.5q0 67 48 148.5t119 137.5t130 56v4h17q-94 -86 -147.5 -175.5t-53.5 -160.5q0 -70 70 -70q75 0 149 48v-86q-78 -48 -176 -48z" />
    <glyph glyph-name="tilde" unicode="&#x2dc;" horiz-adv-x="815" 
d="M147 1223h-79q0 119 51 185.5t143 66.5q40 0 75.5 -14.5t62 -35.5t51 -42t52 -35.5t54.5 -14.5q46 0 75.5 40t33.5 110h82q-1 -120 -53 -186t-144 -66q-40 0 -75.5 14.5t-62 35.5t-51 41.5t-52 35t-54.5 14.5q-46 0 -75.5 -40t-33.5 -109z" />
    <glyph glyph-name="hungarumlaut" unicode="&#x2dd;" horiz-adv-x="716" 
d="M406 1442l-283 -256l-60 61l271 264zM651 1442l-282 -256l-60 61l271 264z" />
    <glyph glyph-name="gravecomb" unicode="&#x300;" horiz-adv-x="0" 
d="M-37 1294l-41 -73l-338 172l45 82z" />
    <glyph glyph-name="acutecomb" unicode="&#x301;" horiz-adv-x="0" 
d="M-39 1393l-340 -172l-41 73l336 181z" />
    <glyph glyph-name="uni0302" unicode="&#x302;" horiz-adv-x="0" 
d="M-242 1483l205 -316h-115l-190 301h-4l-191 -301h-114l205 316h204z" />
    <glyph glyph-name="tildecomb" unicode="&#x303;" horiz-adv-x="0" 
d="M-666 1217h-79q0 120 51 185.5t143 65.5q40 0 75.5 -14.5t62 -35t51 -41.5t52 -35.5t54.5 -14.5q46 0 75 40.5t34 109.5h81q-2 -119 -53 -185.5t-143 -66.5q-40 0 -75.5 14.5t-62 35.5t-51 41.5t-52 35t-54.5 14.5q-46 0 -75.5 -39.5t-33.5 -109.5z" />
    <glyph glyph-name="uni0304" unicode="&#x304;" horiz-adv-x="0" 
d="M-47 1296h-541v95h541v-95z" />
    <glyph glyph-name="uni0306" unicode="&#x306;" horiz-adv-x="0" 
d="M-340 1161q-132 0 -206.5 85.5t-74.5 236.5h99q0 -109 48.5 -171.5t133.5 -62.5q86 0 134 62.5t50 171.5h99q0 -151 -75 -236.5t-208 -85.5z" />
    <glyph glyph-name="uni0307" unicode="&#x307;" horiz-adv-x="0" 
d="M-137 1245h-123v197h123v-197z" />
    <glyph glyph-name="uni0308" unicode="&#x308;" horiz-adv-x="0" 
d="M-438 1245h-121v197h121v-197zM-143 1245h-119v197h119v-197z" />
    <glyph glyph-name="uni030A" unicode="&#x30a;" horiz-adv-x="0" 
d="M-283 1130q-108 0 -168.5 58.5t-60.5 161.5q0 102 60.5 159.5t168.5 57.5t169 -57.5t61 -159.5q0 -103 -61 -161.5t-169 -58.5zM-283 1212q63 0 98 36.5t35 101.5t-35 101t-98 36t-98 -36t-35 -101t35 -101.5t98 -36.5z" />
    <glyph glyph-name="uni030B" unicode="&#x30b;" horiz-adv-x="0" 
d="M-311 1442l-283 -256l-59 61l270 264zM-66 1442l-282 -256l-60 61l271 264z" />
    <glyph glyph-name="uni030C" unicode="&#x30c;" horiz-adv-x="0" 
d="M-342 1182l190 301h115l-205 -316h-204l-205 316h114l191 -301h4z" />
    <glyph glyph-name="uni0312" unicode="&#x312;" horiz-adv-x="0" 
d="M-35 1526v-60q-121 -29 -127 -104h127v-121h-135v105q0 67 30.5 108t104.5 72z" />
    <glyph glyph-name="uni0326" unicode="&#x326;" horiz-adv-x="0" 
d="M-205 -279v117h137v-102q0 -83 -31.5 -134.5t-105.5 -93.5v60q63 25 93.5 61.5t33.5 91.5h-127z" />
    <glyph glyph-name="uni0327" unicode="&#x327;" horiz-adv-x="0" 
d="M-307 -492q-96 0 -174 48v77q76 -47 168 -47q75 0 116 30t41 83q0 41 -27.5 64.5t-76.5 23.5q-83 3 -123 -53l-63 41q31 40 84 65t110 25q95 0 149 -43.5t54 -120.5q0 -91 -67.5 -142t-190.5 -51z" />
    <glyph glyph-name="uni0328" unicode="&#x328;" horiz-adv-x="0" 
d="M-219 -492q-74 0 -115 38.5t-41 107.5q0 67 48 148.5t119 137.5t130 56v4h17q-94 -86 -147.5 -175.5t-53.5 -160.5q0 -70 69 -70q76 0 150 48v-86q-78 -48 -176 -48z" />
    <glyph glyph-name="uni0335" unicode="&#x335;" horiz-adv-x="0" 
d="M-125 678h-631v76h631v-76z" />
    <glyph glyph-name="uni0336" unicode="&#x336;" horiz-adv-x="0" 
d="M-125 678h-1337v76h1337v-76z" />
    <glyph glyph-name="uni0337" unicode="&#x337;" horiz-adv-x="0" 
d="M-27 1034l-727 -1110l-75 51l727 1106z" />
    <glyph glyph-name="uni0338" unicode="&#x338;" horiz-adv-x="0" 
d="M-66 1538l-966 -1612l-84 51l966 1612z" />
    <glyph glyph-name="uni0394" unicode="&#x394;" horiz-adv-x="1372" 
d="M573 1516h228l538 -1516h-1308zM682 1501l-477 -1390h956l-475 1390h-4z" />
    <glyph glyph-name="uni03A9" unicode="&#x3a9;" horiz-adv-x="1570" 
d="M987 117v-4h432v-113h-532v113q198 0 308 173.5t110 481.5t-137.5 480.5t-381.5 172.5q-246 0 -383 -169.5t-137 -471.5q0 -315 110 -491t308 -176v-113h-532v113h432v4q-212 0 -331.5 181.5t-119.5 504.5q0 346 172 539.5t481 193.5q308 0 480 -193.5t172 -539.5
q0 -323 -119.5 -504.5t-331.5 -181.5z" />
    <glyph glyph-name="uni03BC" unicode="&#x3bc;" horiz-adv-x="1167" 
d="M874 455v553h123v-1008h-123v342h-4q0 -170 -90.5 -266t-251.5 -96q-136 0 -224.5 68.5t-119.5 193.5h-2l111 -705v-8h-123v1479h123v-631q0 -138 71.5 -215.5t200.5 -77.5q146 0 227.5 98t81.5 273z" />
    <glyph glyph-name="pi" unicode="&#x3c0;" horiz-adv-x="1218" 
d="M47 1008h1127v-99h-185v-909h-123v909h-512v-909h-123v909h-184v99z" />
    <glyph glyph-name="Wgrave" unicode="&#x1e80;" horiz-adv-x="2033" 
d="M795 1982l335 -180l-40 -73l-340 172zM1479 14l366 1502h135l-376 -1516h-250l-336 1501h-4l-334 -1501h-250l-377 1516h142l364 -1502h4l336 1502h236l340 -1502h4z" />
    <glyph glyph-name="wgrave" unicode="&#x1e81;" horiz-adv-x="1646" 
d="M600 1475l336 -181l-41 -73l-338 172zM1182 10l278 998h129l-295 -1008h-229l-240 997h-4l-239 -997h-230l-295 1008h133l277 -998h4l242 998h225l240 -998h4z" />
    <glyph glyph-name="Wacute" unicode="&#x1e82;" horiz-adv-x="2033" 
d="M1241 1982l45 -81l-340 -172l-41 73zM1479 14l366 1502h135l-376 -1516h-250l-336 1501h-4l-334 -1501h-250l-377 1516h142l364 -1502h4l336 1502h236l340 -1502h4z" />
    <glyph glyph-name="wacute" unicode="&#x1e83;" horiz-adv-x="1646" 
d="M1047 1475l45 -82l-340 -172l-41 73zM1182 10l278 998h129l-295 -1008h-229l-240 997h-4l-239 -997h-230l-295 1008h133l277 -998h4l242 998h225l240 -998h4z" />
    <glyph glyph-name="Wdieresis" unicode="&#x1e84;" horiz-adv-x="2033" 
d="M811 1950h119v-199h-119v199zM1106 1950h121v-199h-121v199zM1479 14l366 1502h135l-376 -1516h-250l-336 1501h-4l-334 -1501h-250l-377 1516h142l364 -1502h4l336 1502h236l340 -1502h4z" />
    <glyph glyph-name="wdieresis" unicode="&#x1e85;" horiz-adv-x="1646" 
d="M616 1442h119v-197h-119v197zM911 1442h121v-197h-121v197zM1182 10l278 998h129l-295 -1008h-229l-240 997h-4l-239 -997h-230l-295 1008h133l277 -998h4l242 998h225l240 -998h4z" />
    <glyph glyph-name="uni1E9E" unicode="&#x1e9e;" horiz-adv-x="1353" 
d="M643 827h21q278 0 434.5 -114t156.5 -316q0 -196 -140 -306.5t-388 -110.5q-127 0 -215 24v113q97 -23 209 -23q190 0 295.5 81t105.5 224q0 155 -119.5 240.5t-336.5 85.5h-101v106q212 10 330.5 92.5t118.5 219.5q0 131 -91 204.5t-253 73.5q-166 0 -258.5 -88.5
t-92.5 -247.5v-1085h-129v1081q0 215 127 335t353 120q224 0 349.5 -96t125.5 -266q0 -160 -133 -251.5t-369 -91.5v-4z" />
    <glyph glyph-name="Ygrave" unicode="&#x1ef2;" horiz-adv-x="1314" 
d="M459 1982l336 -180l-41 -73l-340 172zM688 565l488 951h145l-789 -1516h-145l283 551h-127l-502 965h152l491 -951h4z" />
    <glyph glyph-name="ygrave" unicode="&#x1ef3;" horiz-adv-x="1052" 
d="M309 1475l334 -181l-41 -73l-338 172zM530 10l336 998h133l-516 -1479h-133l164 471h-106l-351 1008h133l336 -998h4z" />
    <glyph glyph-name="endash" unicode="&#x2013;" horiz-adv-x="1173" 
d="M1026 473h-879v78h879v-78z" />
    <glyph glyph-name="emdash" unicode="&#x2014;" horiz-adv-x="1755" 
d="M1608 473h-1461v78h1461v-78z" />
    <glyph glyph-name="quoteleft" unicode="&#x2018;" horiz-adv-x="415" 
d="M287 1526v-92q-68 -26 -108.5 -78t-45.5 -117h152v-152h-162v132q0 106 43 186.5t121 120.5z" />
    <glyph glyph-name="quoteright" unicode="&#x2019;" horiz-adv-x="403" 
d="M137 1364v152h160v-132q0 -106 -42.5 -186.5t-119.5 -120.5v92q68 26 108.5 78.5t43.5 116.5h-150z" />
    <glyph glyph-name="quotesinglbase" unicode="&#x201a;" horiz-adv-x="434" 
d="M150 0v152h159v-134q0 -104 -42.5 -185t-119.5 -122v94q68 26 108.5 78.5t43.5 116.5h-149z" />
    <glyph glyph-name="quotedblleft" unicode="&#x201c;" horiz-adv-x="677" 
d="M123 1087v132q0 106 43 186.5t121 120.5v-92q-68 -26 -108.5 -78t-45.5 -117h152v-152h-162zM547 1526v-92q-67 -26 -107 -78t-45 -117h152v-152h-162v132q0 106 42.5 186.5t119.5 120.5z" />
    <glyph glyph-name="quotedblright" unicode="&#x201d;" horiz-adv-x="665" 
d="M287 1364h-150v152h160v-132q0 -106 -42.5 -186.5t-119.5 -120.5v92q68 26 108.5 78.5t43.5 116.5zM397 1364v152h162v-132q0 -106 -42.5 -186.5t-119.5 -120.5v92q67 26 107 78t45 117h-152z" />
    <glyph glyph-name="quotedblbase" unicode="&#x201e;" horiz-adv-x="696" 
d="M299 0h-149v152h159v-134q0 -104 -42.5 -185t-119.5 -122v94q68 26 108.5 78.5t43.5 116.5zM410 0v152h161v-134q0 -104 -42.5 -185t-118.5 -122v94q67 26 106.5 78t44.5 117h-151z" />
    <glyph glyph-name="dagger" unicode="&#x2020;" horiz-adv-x="780" 
d="M440 1577v-236h228v-81h-232v-512h-94v325q0 65 22.5 112.5t63.5 69.5v5h-313v81h231v236h94z" />
    <glyph glyph-name="daggerdbl" unicode="&#x2021;" horiz-adv-x="780" 
d="M668 1341v-81h-232v-195h232v-82h-232v-235h-94v49q0 65 22.5 112.5t63.5 69.5v4h-313v82h227v8q0 65 22.5 112.5t63.5 69.5v5h-313v81h231v236h94v-236h228z" />
    <glyph glyph-name="bullet" unicode="&#x2022;" horiz-adv-x="690" 
d="M500 463h-310v285h310v-285z" />
    <glyph glyph-name="ellipsis" unicode="&#x2026;" horiz-adv-x="1179" 
d="M301 0h-160v152h160v-152zM670 0h-160v152h160v-152zM1038 0h-161v152h161v-152z" />
    <glyph glyph-name="perthousand" unicode="&#x2030;" horiz-adv-x="2074" 
d="M1237 1487l-971 -1507l-63 49l968 1507zM365 737q-130 0 -202.5 100t-72.5 279t72.5 279t202.5 100t202 -100t72 -279t-72 -279t-202 -100zM365 825q78 0 122.5 77.5t44.5 213.5t-44.5 213.5t-122.5 77.5t-123 -77.5t-45 -213.5t45 -213.5t123 -77.5zM1077 -20
q-129 0 -201.5 100t-72.5 278t72.5 278.5t201.5 100.5q130 0 203.5 -100t73.5 -279q0 -178 -73 -278t-204 -100zM1729 -20q-130 0 -202.5 99.5t-72.5 278.5t72.5 279t202.5 100t202 -100t72 -279t-72 -278.5t-202 -99.5zM1077 68q78 0 123 77t45 213t-45 213.5t-123 77.5
t-123 -77.5t-45 -213.5t45 -213t123 -77zM1729 68q78 0 122.5 77t44.5 213t-44.5 213.5t-122.5 77.5t-123 -77.5t-45 -213.5t45 -213t123 -77z" />
    <glyph glyph-name="guilsinglleft" unicode="&#x2039;" horiz-adv-x="559" 
d="M193 512l258 -395h-101l-262 395l262 395h101z" />
    <glyph glyph-name="guilsinglright" unicode="&#x203a;" horiz-adv-x="559" 
d="M209 117h-100l258 395l-258 395h100l262 -395z" />
    <glyph glyph-name="fraction" unicode="&#x2044;" horiz-adv-x="417" 
d="M729 1487l-971 -1507l-65 49l971 1507z" />
    <glyph glyph-name="uni2070" unicode="&#x2070;" horiz-adv-x="802" 
d="M401 721q-155 0 -243 123.5t-88 343.5t88 343.5t243 123.5t242.5 -123.5t87.5 -343.5t-87.5 -343.5t-242.5 -123.5zM401 811q104 0 162 100t58 277t-58 277t-162 100t-161.5 -99.5t-57.5 -277.5t57.5 -277.5t161.5 -99.5z" />
    <glyph glyph-name="uni2074" unicode="&#x2074;" horiz-adv-x="749" 
d="M586 1055h119v-88h-119v-234h-109v234h-438v98l342 577h205v-587zM479 1630h-4l-334 -571v-4h338v575z" />
    <glyph glyph-name="uni2075" unicode="&#x2075;" horiz-adv-x="749" 
d="M375 721q-132 0 -215.5 70.5t-98.5 193.5h107q14 -80 68 -127t137 -47q98 0 154.5 58t56.5 159q0 104 -55 161.5t-152 57.5q-78 0 -129 -41t-74 -112l-104 14l71 534h484v-88h-387l-66 -438h4q17 103 83 160t167 57q126 0 197 -79.5t71 -219.5q0 -148 -84 -230.5
t-235 -82.5z" />
    <glyph glyph-name="uni2076" unicode="&#x2076;" horiz-adv-x="782" 
d="M442 1319q131 0 204 -75.5t73 -209.5q0 -146 -87 -229.5t-231 -83.5q-331 0 -331 440q0 232 91.5 363t252.5 131q125 0 200 -70t84 -196h-104q-8 83 -55 129.5t-125 46.5q-110 0 -172 -105t-62 -291v-88h4q0 111 68 174.5t190 63.5zM395 811q100 0 156.5 57.5t56.5 157.5
q0 96 -56.5 149.5t-156.5 53.5q-99 0 -154 -50.5t-55 -142.5q0 -103 58 -164t151 -61z" />
    <glyph glyph-name="uni2077" unicode="&#x2077;" horiz-adv-x="669" 
d="M25 1554v88h618v-81q-141 -37 -221 -228t-80 -495v-105h-115v86q0 319 97.5 512.5t269.5 218.5v4h-569z" />
    <glyph glyph-name="uni2078" unicode="&#x2078;" horiz-adv-x="776" 
d="M473 1247v-4q113 -17 175.5 -84t62.5 -172q0 -125 -85 -195.5t-237 -70.5q-151 0 -236 70.5t-85 195.5q0 105 62 171t177 85v4q-100 0 -155.5 50t-55.5 139q0 103 78 161t215 58t214 -58t77 -161q0 -89 -55 -139t-152 -50zM209 1401q0 -77 47.5 -120.5t132.5 -43.5
t132.5 43.5t47.5 120.5t-47.5 120.5t-132.5 43.5t-132.5 -43.5t-47.5 -120.5zM389 811q98 0 152.5 46.5t54.5 129.5q0 84 -54 130t-153 46t-154 -46t-55 -130q0 -83 55.5 -129.5t153.5 -46.5z" />
    <glyph glyph-name="uni2079" unicode="&#x2079;" horiz-adv-x="782" 
d="M387 1655q324 0 324 -441q0 -232 -90.5 -362.5t-251.5 -130.5q-125 0 -200.5 77.5t-84.5 213.5h104q8 -94 55.5 -147.5t125.5 -53.5q110 0 171.5 104.5t61.5 290.5v101h-4q0 -106 -68.5 -166t-189.5 -60q-131 0 -204 72t-73 201q0 140 88 220.5t236 80.5zM387 1171
q99 0 154 47.5t55 133.5q0 98 -57.5 155.5t-151.5 57.5q-100 0 -156.5 -54t-56.5 -149q0 -92 56 -141.5t157 -49.5z" />
    <glyph glyph-name="uni2080" unicode="&#x2080;" horiz-adv-x="802" 
d="M401 -238q-155 0 -243 123.5t-88 343.5t88 343.5t243 123.5t242.5 -123.5t87.5 -343.5t-87.5 -343.5t-242.5 -123.5zM401 -147q104 0 162 99.5t58 276.5t-58 277t-162 100t-161.5 -99.5t-57.5 -277.5q0 -177 57.5 -276.5t161.5 -99.5z" />
    <glyph glyph-name="uni2081" unicode="&#x2081;" horiz-adv-x="446" 
d="M209 684h108v-909h-108v866h-4q0 -80 -44.5 -125t-123.5 -45v92q82 0 127 32t45 89z" />
    <glyph glyph-name="uni2082" unicode="&#x2082;" horiz-adv-x="749" 
d="M111 -133v-4h579v-88h-631v82q233 66 363.5 207.5t130.5 328.5q0 99 -48 156t-134 57q-87 0 -140 -63.5t-57 -175.5h-104q8 156 87.5 242.5t215.5 86.5q140 0 217.5 -80t77.5 -225q0 -209 -147 -347.5t-410 -176.5z" />
    <glyph glyph-name="uni2083" unicode="&#x2083;" horiz-adv-x="745" 
d="M360 283h2q149 0 232.5 -68t83.5 -188q0 -125 -84 -195t-234 -70q-136 0 -215.5 77.5t-87.5 217.5h105q5 -97 57.5 -152t142.5 -55q95 0 149 47t54 130q0 82 -56 128t-157 46h-24v84q99 12 155 57t56 113q0 72 -47 112.5t-132 40.5q-81 0 -129 -56t-53 -153h-104
q9 140 87.5 218.5t211.5 78.5q131 0 204.5 -56t73.5 -153q0 -95 -77 -147.5t-214 -52.5v-4z" />
    <glyph glyph-name="uni2084" unicode="&#x2084;" horiz-adv-x="749" 
d="M588 96h119v-88h-119v-233h-109v233h-438v98l342 578h205v-588zM481 672h-4l-334 -572v-4h338v576z" />
    <glyph glyph-name="uni2085" unicode="&#x2085;" horiz-adv-x="749" 
d="M375 -238q-132 0 -215.5 71t-98.5 194h107q14 -80 68 -127t137 -47q98 0 154.5 58t56.5 159q0 104 -55 161.5t-152 57.5q-153 0 -203 -154l-104 15l71 534h484v-88h-387l-66 -438h4q17 103 83 160t167 57q126 0 197 -79.5t71 -219.5q0 -148 -84 -231t-235 -83z" />
    <glyph glyph-name="uni2086" unicode="&#x2086;" horiz-adv-x="782" 
d="M442 360q132 0 204.5 -75t72.5 -209q0 -146 -87 -230t-231 -84q-331 0 -331 441q0 232 91.5 362.5t252.5 130.5q125 0 200 -70t84 -196h-104q-8 83 -55 129.5t-125 46.5q-110 0 -172 -104.5t-62 -290.5v-88h4q0 111 68 174t190 63zM395 -147q100 0 156.5 57.5t56.5 157.5
q0 96 -56.5 149t-156.5 53q-99 0 -154 -50t-55 -142q0 -103 58 -164t151 -61z" />
    <glyph glyph-name="uni2087" unicode="&#x2087;" horiz-adv-x="669" 
d="M27 596v88h618v-82q-141 -37 -221 -228t-80 -495v-104h-115v86q0 319 96.5 512.5t268.5 218.5v4h-567z" />
    <glyph glyph-name="uni2088" unicode="&#x2088;" horiz-adv-x="776" 
d="M473 289v-4q113 -17 175.5 -84t62.5 -172q0 -125 -85 -196t-237 -71q-150 0 -235.5 71t-85.5 196q0 105 62 171t177 85v4q-100 0 -155.5 49.5t-55.5 138.5q0 103 78 161t215 58t214 -58t77 -161q0 -89 -55 -138.5t-152 -49.5zM209 442q0 -77 47.5 -120t132.5 -43
t132.5 43t47.5 120t-47.5 120.5t-132.5 43.5t-132.5 -43.5t-47.5 -120.5zM389 -147q98 0 152.5 46.5t54.5 129.5q0 84 -54 130t-153 46t-154 -46t-55 -130q0 -83 55.5 -129.5t153.5 -46.5z" />
    <glyph glyph-name="uni2089" unicode="&#x2089;" horiz-adv-x="782" 
d="M387 696q324 0 324 -440q0 -232 -90.5 -363t-251.5 -131q-125 0 -200.5 77.5t-84.5 213.5h104q8 -94 55.5 -147t125.5 -53q110 0 171.5 104.5t61.5 290.5v100h-4q0 -106 -68.5 -165.5t-189.5 -59.5q-131 0 -204 71.5t-73 200.5q0 140 88 220.5t236 80.5zM387 213
q99 0 154 47t55 133q0 98 -57.5 155.5t-151.5 57.5q-100 0 -156.5 -54t-56.5 -149q0 -91 56 -140.5t157 -49.5z" />
    <glyph glyph-name="Euro" unicode="&#x20ac;" horiz-adv-x="1304" 
d="M1182 242l57 -97q-86 -77 -205 -121t-231 -44q-251 0 -405.5 163.5t-186.5 460.5h-135v84h129q-2 23 -2 70q0 55 2 82h-129v84h137q34 292 187.5 452t402.5 160q109 0 217 -31.5t186 -89.5l-59 -98q-67 51 -159 77.5t-185 26.5q-189 0 -308.5 -129.5t-150.5 -365.5h590
l-47 -86h-551q-2 -27 -2 -82q0 -45 2 -68h469l-47 -86h-416q29 -243 149 -376.5t312 -133.5q95 0 197.5 37.5t181.5 110.5z" />
    <glyph glyph-name="trademark" unicode="&#x2122;" horiz-adv-x="1378" 
d="M248 1518h-187v59h445v-59h-184v-547h-74v547zM1065 1577h141l19 -606h-72l-18 596h-5l-169 -596h-132l-161 596h-4l-19 -596h-67l18 606h141l158 -596h4z" />
    <glyph glyph-name="oneeighth" unicode="&#x215b;" horiz-adv-x="1609" 
d="M252 1497h-4q0 -79 -45 -124.5t-125 -45.5v92q82 0 128 32t46 89h108v-909h-108v866zM127 29l971 1507l65 -49l-970 -1507zM1288 514v-4q113 -17 175.5 -84t62.5 -172q0 -125 -85 -195.5t-237 -70.5q-150 0 -234.5 70.5t-84.5 195.5q0 105 62 171t175 85v4
q-98 0 -153.5 49.5t-55.5 138.5q0 103 77.5 161.5t213.5 58.5t213.5 -58.5t77.5 -161.5q0 -89 -55 -138.5t-152 -49.5zM1024 668q0 -77 47.5 -120.5t132.5 -43.5t132.5 43.5t47.5 120.5t-47.5 120t-132.5 43t-132.5 -43t-47.5 -120zM1204 78q98 0 153.5 46.5t55.5 129.5
q0 84 -55 130t-154 46t-154 -46t-55 -130q0 -83 55.5 -129.5t153.5 -46.5z" />
    <glyph glyph-name="threeeighths" unicode="&#x215c;" horiz-adv-x="1892" 
d="M700 883q0 -125 -84 -195t-233 -70q-136 0 -215.5 77.5t-87.5 217.5h104q5 -97 57 -151.5t142 -54.5q97 0 151 46.5t54 129.5q0 82 -56 128t-157 46h-25v84q99 12 155 57t56 113q0 72 -46.5 112.5t-131.5 40.5q-81 0 -129 -56t-53 -153h-105q9 140 87.5 218.5t211.5 78.5
q131 0 205 -56t74 -153q0 -95 -77 -147.5t-214 -52.5v-4h2q148 0 231.5 -68t83.5 -188zM410 29l970 1507l66 -49l-971 -1507zM1571 514v-4q113 -17 175 -84t62 -172q0 -125 -84.5 -195.5t-236.5 -70.5q-151 0 -235.5 70.5t-84.5 195.5q0 105 62.5 171t175.5 85v4
q-98 0 -153.5 49.5t-55.5 138.5q0 103 77.5 161.5t213.5 58.5t213.5 -58.5t77.5 -161.5q0 -89 -55 -138.5t-152 -49.5zM1307 668q0 -77 47.5 -120.5t132.5 -43.5t132.5 43.5t47.5 120.5t-47.5 120t-132.5 43t-132.5 -43t-47.5 -120zM1487 78q98 0 153.5 46.5t55.5 129.5
q0 84 -55 130t-154 46t-154 -46t-55 -130q0 -83 55.5 -129.5t153.5 -46.5z" />
    <glyph glyph-name="fiveeighths" unicode="&#x215d;" horiz-adv-x="1904" 
d="M715 932q0 -148 -85 -231t-237 -83q-131 0 -213.5 70.5t-97.5 194.5h106q12 -80 67 -127t138 -47q98 0 153.5 58t55.5 159q0 104 -54.5 161.5t-152.5 57.5q-77 0 -128 -41.5t-72 -112.5l-107 15l72 534h485v-88h-387l-65 -438h4q17 103 82.5 160t166.5 57
q126 0 197.5 -79.5t71.5 -219.5zM422 29l969 1507l65 -49l-969 -1507zM1583 514v-4q113 -17 175.5 -84t62.5 -172q0 -125 -85 -195.5t-237 -70.5q-151 0 -236 70.5t-85 195.5q0 105 62 171t175 85v4q-98 0 -153.5 49.5t-55.5 138.5q0 103 78 161.5t215 58.5
q136 0 213.5 -58.5t77.5 -161.5q0 -89 -55 -138.5t-152 -49.5zM1319 668q0 -77 47.5 -120.5t132.5 -43.5q84 0 131 43.5t47 120.5t-47 120t-131 43q-85 0 -132.5 -43t-47.5 -120zM1499 78q98 0 152.5 46.5t54.5 129.5q0 84 -54 130t-153 46t-154 -46t-55 -130
q0 -83 55.5 -129.5t153.5 -46.5z" />
    <glyph glyph-name="seveneighths" unicode="&#x215e;" horiz-adv-x="1853" 
d="M256 631v86q0 319 97.5 512.5t269.5 218.5v4h-570v88h621v-82q-142 -37 -221.5 -227.5t-79.5 -495.5v-104h-117zM356 29l969 1507l66 -49l-969 -1507zM1518 514v-4q113 -17 175 -84t62 -172q0 -125 -84.5 -195.5t-236.5 -70.5q-151 0 -236.5 70.5t-85.5 195.5
q0 105 62.5 171t175.5 85v4q-98 0 -153.5 49.5t-55.5 138.5q0 103 78 161.5t215 58.5q136 0 213 -58.5t77 -161.5q0 -89 -54.5 -138.5t-151.5 -49.5zM1253 668q0 -77 48 -120.5t133 -43.5q84 0 131 43.5t47 120.5t-47 120t-131 43q-85 0 -133 -43.5t-48 -119.5zM1434 78
q98 0 152 46.5t54 129.5q0 85 -54 130.5t-152 45.5q-99 0 -154 -46t-55 -130q0 -83 55.5 -129.5t153.5 -46.5z" />
    <glyph glyph-name="partialdiff" unicode="&#x2202;" horiz-adv-x="1310" 
d="M645 1536q261 0 407 -205.5t146 -570.5q0 -367 -175 -573.5t-488 -206.5q-215 0 -335 92t-120 256q0 206 260.5 321t726.5 115q0 310 -113.5 483.5t-316.5 173.5q-155 0 -251.5 -77.5t-111.5 -215.5h-129q23 192 155 300t345 108zM537 94q250 0 390 176t140 490
q-403 0 -629.5 -110.5t-226.5 -307.5q0 -117 86 -182.5t240 -65.5z" />
    <glyph glyph-name="emptyset" unicode="&#x2205;" horiz-adv-x="1300" 
d="M1151 954l-80 -82q111 -136 111 -356q0 -252 -140 -393t-391 -141q-218 0 -354 106l-80 -82l-67 66l79 82q-112 136 -112 362q0 249 141 388.5t393 139.5q215 0 350 -104l80 82zM211 516q0 -176 86 -295l641 653q-117 87 -287 87q-207 0 -323.5 -118t-116.5 -327zM651 68
q206 0 322.5 118t116.5 330q0 178 -84 291l-644 -653q116 -86 289 -86z" />
    <glyph glyph-name="product" unicode="&#x220f;" horiz-adv-x="1683" 
d="M49 1577h1585v-111h-293v-1937h-122v1937h-754v-1937h-123v1937h-293v111z" />
    <glyph glyph-name="summation" unicode="&#x2211;" horiz-adv-x="1308" 
d="M100 -358v-4l1151 2v-111h-1173v248l923 833v4l-901 715v248h1110v-111l-1089 2v-4l901 -704v-295z" />
    <glyph glyph-name="minus" unicode="&#x2212;" horiz-adv-x="1056" 
d="M907 477h-757v78h757v-78z" />
    <glyph glyph-name="radical" unicode="&#x221a;" horiz-adv-x="1294" 
d="M580 -215l567 1792h143l-590 -1802h-243l-213 719h-224v110h330l225 -819h5z" />
    <glyph glyph-name="infinity" unicode="&#x221e;" horiz-adv-x="1652" 
d="M1157 909q179 0 278 -104t99 -291t-99 -291t-278 -104q-124 0 -209.5 58t-120.5 165q-37 -108 -122 -165.5t-209 -57.5q-179 0 -278 104t-99 291t99 291t278 104q124 0 209 -57.5t122 -165.5q35 107 120.5 165t209.5 58zM496 199q134 0 209 83t75 232t-75 232t-209 83
t-209.5 -83t-75.5 -232t75.5 -232t209.5 -83zM1157 199q134 0 209.5 83t75.5 232t-75.5 232t-209.5 83t-209.5 -83t-75.5 -232t75.5 -232t209.5 -83z" />
    <glyph glyph-name="integral" unicode="&#x222b;" horiz-adv-x="929" 
d="M182 -492q-118 0 -202 41l28 97q79 -33 172 -33q109 0 166 66t57 186v1368q0 172 91 268t254 96q118 0 202 -41l-28 -96q-79 33 -172 33q-109 0 -166.5 -66t-57.5 -186v-1368q0 -172 -91.5 -268.5t-252.5 -96.5z" />
    <glyph glyph-name="approxequal" unicode="&#x2248;" horiz-adv-x="1224" 
d="M223 555h-73q0 115 61 179.5t170 64.5q64 0 118.5 -15.5t93.5 -38t76.5 -45t83 -38t95.5 -15.5q66 0 105.5 42.5t45.5 117.5h76q-2 -116 -62.5 -180t-170.5 -64q-64 0 -118.5 16t-93.5 38.5t-76.5 45t-83 38.5t-95.5 16q-66 0 -106 -43.5t-46 -118.5zM223 217h-73
q0 115 61 179.5t170 64.5q64 0 118.5 -16t93.5 -38.5t76.5 -45t83 -38.5t95.5 -16q65 0 105 43t46 119h76q-2 -116 -62.5 -180t-170.5 -64q-64 0 -118.5 15.5t-93.5 38t-76.5 45t-83 38t-95.5 15.5q-66 0 -106 -42.5t-46 -117.5z" />
    <glyph glyph-name="notequal" unicode="&#x2260;" horiz-adv-x="1056" 
d="M907 688v-78h-305l-55 -188h360v-78h-383l-100 -344h-84l98 344h-288v78h311l55 188h-366v78h389l92 320h86l-92 -320h282z" />
    <glyph glyph-name="lessequal" unicode="&#x2264;" horiz-adv-x="1036" 
d="M893 1018v-86l-746 -281v-4l746 -274v-86l-758 288v152zM893 10h-758v78h758v-78z" />
    <glyph glyph-name="greaterequal" unicode="&#x2265;" horiz-adv-x="1036" 
d="M143 932v86l758 -291v-152l-758 -288v86l746 274v4zM901 10h-758v78h758v-78z" />
    <glyph glyph-name="lozenge" unicode="&#x25ca;" horiz-adv-x="1028" 
d="M612 1008l306 -392v-225l-306 -391h-196l-305 391v225l305 392h196zM516 8l389 494v4l-389 493h-4l-389 -493v-4l389 -494h4z" />
    <glyph glyph-name="uniF8FF" unicode="&#xf8ff;" horiz-adv-x="2609" 
d="M156 -20q-15 0 -25 10.5t-10 25.5q0 21 10 31l700 698h-663q-47 0 -47 39q0 16 14 33l696 701h-669q-41 0 -41 38v3q0 38 41 38h758q47 0 47 -41q0 -20 -17 -34l-698 -697h676q17 0 29 -12t12 -29v-669l694 692q13 16 35 16q37 0 37 -45v-663l696 692q13 16 33 16
q15 0 25 -12t10 -27q0 -18 -13 -28l-753 -762q-14 -14 -35 -14q-41 0 -41 47v663l-694 -696q-14 -14 -35 -14q-41 0 -41 47v663l-697 -696q-14 -14 -34 -14z" />
    <glyph glyph-name="uni004A0301" horiz-adv-x="1110" 
d="M1120 1901l-338 -172l-41 73l334 180zM498 -20q-189 0 -305.5 135t-133.5 374h121q17 -186 102 -290.5t218 -104.5q136 0 213.5 87t77.5 241v1094h129v-1084q0 -212 -112 -332t-310 -120z" />
    <glyph glyph-name="i.loclTRK" horiz-adv-x="462" 
d="M293 1245h-123v197h123v-197zM293 0h-123v1008h123v-1008z" />
    <glyph glyph-name="uni006A0301" horiz-adv-x="462" 
d="M500 1393l-340 -172l-41 73l336 181zM293 -471h-123v1479h123v-1479z" />
    <glyph glyph-name="f_b" horiz-adv-x="1959" 
d="M209 1278q0 151 90.5 235t253.5 84q103 0 176 -36l-18 -99q-67 31 -138 31q-120 0 -180.5 -59t-60.5 -168v-258h370v-99h-360v-909h-123v909h-166v99h271v4q-53 48 -84 118t-31 148zM1413 1028q207 0 323.5 -138.5t116.5 -385.5t-116.5 -385.5t-323.5 -138.5
q-177 0 -278 91.5t-101 252.5h-4v-324h-123v1577h123v-893h4q0 161 101 252.5t278 91.5zM1372 84q167 0 260.5 111t93.5 309t-93.5 310t-260.5 112t-260.5 -112.5t-93.5 -309.5q0 -196 93.5 -308t260.5 -112z" />
    <glyph glyph-name="f_f_j" horiz-adv-x="1806" 
d="M967 1266v-258h669v-1479h-123v1380h-534v-909h-123v909h-514v-909h-123v909h-166v99h271v4q-53 48 -84 118t-31 148q0 151 90.5 235t253.5 84q103 0 176 -36l-18 -99q-67 31 -138 31q-120 0 -180.5 -59t-60.5 -168v-258h626v4q-53 48 -83.5 118t-30.5 148
q0 150 91 234.5t253 84.5q105 0 176 -36l-18 -99q-67 31 -138 31q-119 0 -180 -59t-61 -168zM1513 1245v197h123v-197h-123z" />
    <glyph glyph-name="f_f_t" horiz-adv-x="2033" 
d="M1989 1008v-99h-359v-633q0 -92 52 -142t143 -50q81 0 149 33v-99q-74 -38 -186 -38q-132 0 -206.5 78t-74.5 216v635h-528v-909h-123v909h-514v-909h-123v909h-166v99h271v4q-53 48 -84 118t-31 148q0 151 90.5 235t253.5 84q103 0 176 -36l-18 -99q-67 31 -138 31
q-120 0 -180.5 -59t-60.5 -168v-258h626v4q-53 48 -83.5 118t-30.5 148q0 150 91 234.5t253 84.5q105 0 176 -36l-18 -99q-67 31 -138 31q-119 0 -180 -59t-61 -168v-258h553v356h122v-86q0 -78 -31 -147.5t-83 -118.5v-4h461z" />
    <glyph glyph-name="f_h" horiz-adv-x="1914" 
d="M209 1278q0 151 90.5 235t253.5 84q103 0 176 -36l-18 -99q-67 31 -138 31q-120 0 -180.5 -59t-60.5 -168v-258h370v-99h-360v-909h-123v909h-166v99h271v4q-53 48 -84 118t-31 148zM1386 1028q175 0 272 -104.5t97 -290.5v-633h-123v631q0 140 -74.5 217.5t-207.5 77.5
q-151 0 -235.5 -98t-84.5 -275v-553h-123v1577h123v-911h4q0 171 93.5 266.5t258.5 95.5z" />
    <glyph glyph-name="f_iacute" horiz-adv-x="1171" 
d="M332 1266v-258h669v-1008h-122v909h-537v-909h-123v909h-166v99h271v4q-53 48 -84 118t-31 148q0 151 90.5 235t253.5 84q103 0 176 -36l-18 -99q-67 31 -138 31q-120 0 -180.5 -59t-60.5 -168zM1163 1475l45 -82l-340 -172l-41 73z" />
    <glyph glyph-name="f_j" horiz-adv-x="1171" 
d="M332 1266v-258h669v-1479h-122v1380h-537v-909h-123v909h-166v99h271v4q-53 48 -84 118t-31 148q0 151 90.5 235t253.5 84q103 0 176 -36l-18 -99q-67 31 -138 31q-120 0 -180.5 -59t-60.5 -168zM879 1245v197h122v-197h-122z" />
    <glyph glyph-name="f_k" horiz-adv-x="1839" 
d="M209 1278q0 151 90.5 235t253.5 84q103 0 176 -36l-18 -99q-67 31 -138 31q-120 0 -180.5 -59t-60.5 -168v-258h370v-99h-360v-909h-123v909h-166v99h271v4q-53 48 -84 118t-31 148zM1786 1008l-598 -482l637 -526h-176l-615 516h-4v-516h-123v1577h123v-1045h4l582 476
h170z" />
    <glyph glyph-name="f_t" horiz-adv-x="1398" 
d="M1354 1008v-99h-359v-633q0 -92 51 -142t144 -50q78 0 149 33v-99q-78 -38 -186 -38q-132 0 -206.5 78t-74.5 216v635h-530v-909h-123v909h-166v99h271v4q-53 48 -84 118t-31 148q0 151 90.5 235t253.5 84q103 0 176 -36l-18 -99q-67 31 -138 31q-120 0 -180.5 -59
t-60.5 -168v-258h551v356h123v-86q0 -78 -31 -148t-84 -118v-4h463z" />
    <glyph glyph-name="t_t" horiz-adv-x="1431" 
d="M1386 909h-358v-633q0 -92 51 -142t144 -50q78 0 149 33v-99q-78 -38 -186 -38q-132 0 -206.5 78t-74.5 216v635h-563v-633q0 -92 51 -142t144 -50q78 0 149 33v-99q-78 -38 -186 -38q-132 0 -206.5 78t-74.5 216v635h-172v99h182v356h123v-86q0 -78 -30.5 -148
t-83.5 -118v-4h677v356h123v-86q0 -78 -30.5 -148t-83.5 -118v-4h462v-99z" />
    <glyph glyph-name="zero.lf" horiz-adv-x="1310" 
d="M655 -20q-252 0 -392 205.5t-140 572.5t140 572.5t392 205.5t392.5 -205.5t140.5 -572.5t-140.5 -572.5t-392.5 -205.5zM655 94q189 0 295.5 175.5t106.5 488.5t-106.5 488t-295.5 175t-295 -175t-106 -488t106 -488.5t295 -175.5z" />
    <glyph glyph-name="one.lf" horiz-adv-x="667" 
d="M336 1516h127v-1516h-127v1454h-4q0 -114 -73.5 -178t-203.5 -64v115q132 0 206.5 50t74.5 139z" />
    <glyph glyph-name="two.lf" horiz-adv-x="1212" 
d="M182 115v-4h932v-111h-1022v100q401 101 624.5 347t223.5 583q0 184 -90.5 287.5t-251.5 103.5t-257 -114t-105 -316h-125q11 257 140 401t349 144q224 0 349.5 -134.5t125.5 -373.5q0 -359 -236 -600t-657 -313z" />
    <glyph glyph-name="three.lf" horiz-adv-x="1216" 
d="M578 831h4q244 0 381 -111.5t137 -309.5q0 -203 -134.5 -316.5t-375.5 -113.5q-221 0 -351 129t-137 358h123q8 -177 104 -277t261 -100q179 0 279 84.5t100 235.5q0 149 -103 232t-288 83h-46v111q185 25 288.5 107t103.5 206q0 130 -88.5 203t-245.5 73
q-151 0 -241 -101.5t-97 -279.5h-123q11 231 137 361.5t340 130.5q212 0 330.5 -94t118.5 -260q0 -163 -126 -254.5t-351 -91.5v-5z" />
    <glyph glyph-name="four.lf" horiz-adv-x="1187" 
d="M924 520h196v-110h-196v-410h-129v410h-742v120l625 986h246v-996zM797 1501h-4l-611 -977v-4h615v981z" />
    <glyph glyph-name="five.lf" horiz-adv-x="1218" 
d="M608 -20q-211 0 -344 115t-158 319h127q23 -149 123 -234.5t252 -85.5q181 0 282 105.5t101 294.5q0 188 -99.5 292.5t-279.5 104.5q-146 0 -238 -77t-132 -210l-125 17l116 895h777v-111h-658l-108 -762h4q29 168 138 262t276 94q218 0 340 -132.5t122 -370.5
q0 -243 -136 -379.5t-380 -136.5z" />
    <glyph glyph-name="six.lf" horiz-adv-x="1275" 
d="M694 975q222 0 345.5 -126.5t123.5 -354.5q0 -240 -139.5 -377t-368.5 -137q-270 0 -401 179t-131 543q0 392 146 613t405 221q201 0 321.5 -116.5t132.5 -321.5h-127q-11 153 -97 238t-230 85q-198 0 -309 -185t-111 -515v-146h4q0 188 115.5 294t320.5 106zM647 94
q182 0 283.5 104t101.5 291q0 177 -101.5 275t-283.5 98q-180 0 -280.5 -93.5t-100.5 -262.5q0 -188 106.5 -300t274.5 -112z" />
    <glyph glyph-name="seven.lf" horiz-adv-x="1077" 
d="M31 1405v111h1009v-101q-244 -57 -381 -381.5t-137 -845.5v-188h-137v164q0 533 153 860t425 377v4h-932z" />
    <glyph glyph-name="eight.lf" horiz-adv-x="1267" 
d="M782 836v-5q177 -31 273 -139t96 -278q0 -204 -136.5 -319t-379.5 -115q-244 0 -381 115t-137 319q0 170 96 278t272 139v5q-151 0 -235 85.5t-84 239.5q0 175 124 275t345 100q219 0 343 -100t124 -275q0 -152 -84.5 -238.5t-235.5 -86.5zM297 1124q0 -144 89.5 -224.5
t248.5 -80.5t247.5 80.5t88.5 224.5q0 140 -89 218.5t-247 78.5t-248 -79t-90 -218zM635 94q181 0 283 84.5t102 235.5t-101.5 235t-283.5 84t-284.5 -84.5t-102.5 -234.5q0 -151 102.5 -235.5t284.5 -84.5z" />
    <glyph glyph-name="nine.lf" horiz-adv-x="1273" 
d="M627 1536q270 0 397 -181t127 -542q0 -392 -146 -612.5t-407 -220.5q-200 0 -321 127.5t-134 351.5h127q12 -172 99 -268.5t229 -96.5q198 0 310 185.5t112 515.5v166h-4q0 -179 -115.5 -279t-320.5 -100q-223 0 -347 121t-124 339q0 230 142 362t376 132zM627 694
q179 0 280 88.5t101 247.5q0 178 -107 284.5t-274 106.5q-182 0 -283.5 -98t-101.5 -276q0 -167 101.5 -260t283.5 -93z" />
    <glyph glyph-name="zero.osf" horiz-adv-x="1284" 
d="M641 -20q-246 0 -383 157t-137 438t137 438.5t383 157.5q247 0 384.5 -157t137.5 -439q0 -281 -137.5 -438t-384.5 -157zM641 84q187 0 292 129.5t105 361.5t-105 363t-292 131q-186 0 -290.5 -131t-104.5 -363t104.5 -361.5t290.5 -129.5z" />
    <glyph glyph-name="one.osf" horiz-adv-x="655" 
d="M338 1151h123v-1151h-123v1090h-4q0 -109 -70 -170.5t-196 -61.5v105q127 0 198.5 50t71.5 138z" />
    <glyph glyph-name="two.osf" horiz-adv-x="1189" 
d="M168 102v-4h924v-98h-994v90q391 125 610.5 309t219.5 389q0 132 -89.5 206.5t-250.5 74.5q-157 0 -250 -85.5t-102 -240.5h-119q9 202 134 315t339 113q219 0 341 -101t122 -282q0 -238 -234.5 -419.5t-650.5 -266.5z" />
    <glyph glyph-name="three.osf" horiz-adv-x="1191" 
d="M565 545v-4q242 0 378 -103t136 -286q0 -186 -135.5 -292t-376.5 -106q-215 0 -340 118t-133 327h117q8 -160 101.5 -251t254.5 -91q183 0 285 78t102 217q0 141 -103.5 220t-287.5 79h-45v94q186 17 288.5 91t102.5 191q0 114 -88.5 178t-245.5 64q-149 0 -238.5 -89.5
t-98.5 -246.5h-117q12 206 133.5 322t325.5 116q215 0 334.5 -85.5t119.5 -239.5q0 -142 -124 -221.5t-345 -79.5z" />
    <glyph glyph-name="four.osf" horiz-adv-x="1159" 
d="M905 98h197v-98h-197v-225h-123v225h-725v113l609 1040h239v-1055zM784 1139h-4l-596 -1037v-4h600v1041z" />
    <glyph glyph-name="five.osf" horiz-adv-x="1228" 
d="M608 -246q-214 0 -347 102t-159 285h121q25 -132 127.5 -207t257.5 -75q186 0 289.5 98.5t103.5 275.5q0 172 -101 269.5t-282 97.5q-152 0 -248.5 -68.5t-138.5 -187.5l-118 16l116 791h807v-98h-696l-107 -676h5q31 152 142 237.5t277 85.5q222 0 345.5 -123.5
t123.5 -343.5q0 -226 -136 -352.5t-382 -126.5z" />
    <glyph glyph-name="six.osf" horiz-adv-x="1288" 
d="M702 944q226 0 353 -125.5t127 -349.5q0 -228 -141.5 -358.5t-374.5 -130.5q-286 0 -416.5 173t-130.5 547q0 375 148.5 585t414.5 210q205 0 328 -110.5t137 -307.5h-119q-12 148 -103 231t-243 83q-206 0 -322 -183t-116 -508v-151h4q0 187 120.5 291t333.5 104z
M657 84q188 0 294 100t106 281q0 178 -106 278.5t-294 100.5q-189 0 -295 -96t-106 -265q0 -183 111.5 -291t289.5 -108z" />
    <glyph glyph-name="seven.osf" horiz-adv-x="1095" 
d="M61 1053v98h969v-90q-168 -46 -289 -214t-185 -442t-64 -630h-136q0 541 160 877t447 397v4h-902z" />
    <glyph glyph-name="eight.osf" horiz-adv-x="1284" 
d="M780 811v-4q187 -29 290.5 -134.5t103.5 -269.5q0 -199 -141 -311t-392 -112q-249 0 -389.5 112t-140.5 311q0 164 102.5 269.5t290.5 134.5v4q-163 0 -253.5 82t-90.5 231q0 173 128 272t353 99q227 0 355 -98.5t128 -272.5q0 -149 -91 -231t-253 -82zM285 1094
q0 -139 94 -217t262 -78t262 78t94 217q0 140 -94.5 218.5t-261.5 78.5t-261.5 -78.5t-94.5 -218.5zM641 84q191 0 298.5 84.5t107.5 234.5q0 149 -107.5 232.5t-298.5 83.5t-298 -83.5t-107 -232.5q0 -151 107 -235t298 -84z" />
    <glyph glyph-name="nine.osf" horiz-adv-x="1288" 
d="M621 1171q286 0 416 -163.5t130 -515.5q0 -347 -149 -542.5t-414 -195.5q-206 0 -329.5 100.5t-135.5 278.5h119q10 -129 102 -201.5t244 -72.5q206 0 322 172.5t116 478.5v113h-4q0 -178 -120.5 -276.5t-333.5 -98.5q-227 0 -353.5 119.5t-126.5 334.5q0 219 141.5 344
t375.5 125zM629 348q188 0 294.5 90t106.5 250q0 174 -111.5 276.5t-289.5 102.5q-189 0 -295.5 -94.5t-106.5 -265.5q0 -168 107 -263.5t295 -95.5z" />
    <glyph glyph-name="zero.dnom" horiz-adv-x="802" 
d="M401 -12q-155 0 -243 123.5t-88 343.5t88 343.5t243 123.5t242.5 -123.5t87.5 -343.5t-87.5 -343.5t-242.5 -123.5zM401 78q104 0 162 100t58 277t-58 276.5t-162 99.5t-161.5 -99.5t-57.5 -276.5q0 -178 57.5 -277.5t161.5 -99.5z" />
    <glyph glyph-name="one.dnom" horiz-adv-x="446" 
d="M209 909h108v-909h-108v866h-4q0 -80 -44.5 -125t-123.5 -45v92q82 0 127 32t45 89z" />
    <glyph glyph-name="two.dnom" horiz-adv-x="749" 
d="M111 92v-4h579v-88h-631v82q233 66 363.5 207.5t130.5 328.5q0 99 -48 156t-134 57q-87 0 -139 -63.5t-56 -175.5h-106q8 156 87.5 243t215.5 87q140 0 217.5 -80.5t77.5 -225.5q0 -209 -147 -347.5t-410 -176.5z" />
    <glyph glyph-name="three.dnom" horiz-adv-x="745" 
d="M362 508h3q148 0 231.5 -68t83.5 -188q0 -124 -84.5 -194t-233.5 -70q-136 0 -215.5 77.5t-87.5 217.5h105q5 -97 56.5 -152t141.5 -55q97 0 151 46.5t54 129.5q0 82 -56 128t-157 46h-24v84q99 12 155 57t56 113q0 72 -47.5 113t-131.5 41q-81 0 -129 -56t-53 -153h-104
q9 140 87.5 218.5t211.5 78.5q131 0 204.5 -56t73.5 -153q0 -95 -77 -148t-214 -53v-4z" />
    <glyph glyph-name="four.dnom" horiz-adv-x="749" 
d="M586 322h119v-89h-119v-233h-109v233h-438v99l342 577h205v-587zM479 897h-4l-334 -571v-4h338v575z" />
    <glyph glyph-name="five.dnom" horiz-adv-x="749" 
d="M375 -12q-132 0 -215.5 70.5t-98.5 193.5h107q14 -80 68 -127t137 -47q98 0 154.5 58t56.5 159q0 104 -55 161.5t-152 57.5q-153 0 -203 -154l-104 15l71 534h484v-88h-387l-66 -438h4q17 103 83 160t167 57q126 0 197 -79.5t71 -219.5q0 -148 -84 -230.5t-235 -82.5z
" />
    <glyph glyph-name="six.dnom" horiz-adv-x="782" 
d="M442 586q131 0 204 -75.5t73 -209.5q0 -146 -87 -229.5t-233 -83.5q-329 0 -329 440q0 232 91.5 363t252.5 131q125 0 200 -70.5t84 -196.5h-106q-7 83 -54 129.5t-124 46.5q-110 0 -173 -104.5t-63 -290.5v-88h4q0 111 69 174.5t191 63.5zM395 78q100 0 156.5 57.5
t56.5 157.5q0 96 -56.5 149.5t-156.5 53.5q-99 0 -154 -50.5t-55 -142.5q0 -103 58 -164t151 -61z" />
    <glyph glyph-name="seven.dnom" horiz-adv-x="669" 
d="M25 821v88h618v-82q-141 -37 -221 -228t-80 -495v-104h-115v86q0 319 97.5 512.5t269.5 218.5v4h-569z" />
    <glyph glyph-name="eight.dnom" horiz-adv-x="776" 
d="M473 514v-4q113 -17 175.5 -84t62.5 -172q0 -125 -85 -195.5t-237 -70.5q-151 0 -236 70.5t-85 195.5q0 105 62 171t177 85v4q-100 0 -155.5 49.5t-55.5 138.5q0 103 78 161.5t215 58.5q136 0 213.5 -58.5t77.5 -161.5q0 -89 -55 -138.5t-152 -49.5zM209 668
q0 -77 47.5 -120.5t132.5 -43.5t132.5 43.5t47.5 120.5t-47.5 120t-132.5 43t-132.5 -43t-47.5 -120zM389 78q98 0 152.5 46.5t54.5 129.5q0 84 -54 130t-153 46t-154 -46t-55 -130q0 -83 55.5 -129.5t153.5 -46.5z" />
    <glyph glyph-name="nine.dnom" horiz-adv-x="782" 
d="M387 922q324 0 324 -441q0 -232 -90.5 -362.5t-251.5 -130.5q-125 0 -200.5 77.5t-84.5 213.5h104q8 -94 55.5 -147.5t125.5 -53.5q110 0 171.5 104.5t61.5 290.5v100h-4q0 -106 -68.5 -165.5t-189.5 -59.5q-131 0 -204 72t-73 201q0 140 88 220.5t236 80.5zM387 438
q99 0 154 47t55 133q0 98 -57.5 155.5t-151.5 57.5q-100 0 -156.5 -53.5t-56.5 -148.5q0 -92 56 -141.5t157 -49.5z" />
    <glyph glyph-name="zero.numr" horiz-adv-x="802" 
d="M401 618q-155 0 -243 123.5t-88 343.5t88 343.5t243 123.5t242.5 -123.5t87.5 -343.5t-87.5 -343.5t-242.5 -123.5zM401 709q104 0 162 99.5t58 276.5t-58 277t-162 100t-161.5 -99.5t-57.5 -277.5q0 -177 57.5 -276.5t161.5 -99.5z" />
    <glyph glyph-name="one.numr" horiz-adv-x="446" 
d="M209 1540h108v-909h-108v866h-4q0 -80 -44.5 -125t-123.5 -45v92q82 0 127 32t45 89z" />
    <glyph glyph-name="two.numr" horiz-adv-x="749" 
d="M111 723v-4h579v-88h-631v82q233 66 363.5 207.5t130.5 328.5q0 99 -48 156t-134 57q-87 0 -140 -63.5t-57 -175.5h-104q8 156 87.5 242.5t215.5 86.5q140 0 217.5 -80t77.5 -225q0 -209 -147 -347.5t-410 -176.5z" />
    <glyph glyph-name="three.numr" horiz-adv-x="745" 
d="M360 1139h2q149 0 232.5 -68t83.5 -188q0 -125 -84 -195t-234 -70q-136 0 -215.5 77.5t-87.5 217.5h105q5 -97 57.5 -151.5t142.5 -54.5q95 0 149 46.5t54 129.5q0 82 -56 128t-157 46h-24v84q99 12 155 57t56 113q0 72 -47 112.5t-132 40.5q-81 0 -129 -56t-53 -153
h-104q9 140 87.5 218.5t211.5 78.5q131 0 204.5 -56t73.5 -153q0 -95 -77 -147.5t-214 -52.5v-4z" />
    <glyph glyph-name="four.numr" horiz-adv-x="749" 
d="M588 952h119v-88h-119v-233h-109v233h-438v99l342 577h205v-588zM481 1528h-4l-334 -572v-4h338v576z" />
    <glyph glyph-name="five.numr" horiz-adv-x="749" 
d="M375 618q-132 0 -215.5 71t-98.5 194h107q14 -80 68 -127t137 -47q98 0 154.5 58t56.5 159q0 104 -55 161.5t-152 57.5q-153 0 -203 -154l-104 15l71 534h484v-88h-387l-66 -438h4q17 103 83 160t167 57q126 0 197 -79.5t71 -219.5q0 -148 -84 -231t-235 -83z" />
    <glyph glyph-name="six.numr" horiz-adv-x="782" 
d="M442 1217q131 0 204 -75.5t73 -209.5q0 -146 -87 -230t-233 -84q-329 0 -329 441q0 232 91.5 362.5t252.5 130.5q125 0 200 -70t84 -196h-106q-7 83 -54 129.5t-124 46.5q-110 0 -173 -104.5t-63 -290.5v-88h4q0 111 69 174.5t191 63.5zM395 709q100 0 156.5 57.5
t56.5 157.5q0 96 -56.5 149t-156.5 53q-99 0 -154 -50t-55 -142q0 -103 58 -164t151 -61z" />
    <glyph glyph-name="seven.numr" horiz-adv-x="669" 
d="M27 1452v88h618v-82q-141 -37 -221 -228t-80 -495v-104h-115v86q0 319 96.5 512.5t268.5 218.5v4h-567z" />
    <glyph glyph-name="eight.numr" horiz-adv-x="776" 
d="M473 1145v-4q113 -17 175.5 -84t62.5 -172q0 -125 -85 -196t-237 -71q-150 0 -235.5 71t-85.5 196q0 105 62 171t177 85v4q-100 0 -155.5 49.5t-55.5 138.5q0 103 78 161t215 58t214 -58t77 -161q0 -89 -55 -138.5t-152 -49.5zM209 1298q0 -77 47.5 -120t132.5 -43
t132.5 43t47.5 120t-47.5 120.5t-132.5 43.5t-132.5 -43.5t-47.5 -120.5zM389 709q98 0 152.5 46.5t54.5 129.5q0 84 -54 130t-153 46t-154 -46t-55 -130q0 -83 55.5 -129.5t153.5 -46.5z" />
    <glyph glyph-name="nine.numr" horiz-adv-x="782" 
d="M387 1552q324 0 324 -440q0 -232 -90.5 -363t-251.5 -131q-125 0 -200.5 77.5t-84.5 213.5h104q8 -94 55.5 -147t125.5 -53q110 0 171.5 104.5t61.5 290.5v100h-4q0 -106 -68.5 -165.5t-189.5 -59.5q-131 0 -204 71.5t-73 200.5q0 140 88 220.5t236 80.5zM387 1069
q99 0 154 47t55 133q0 98 -57.5 155.5t-151.5 57.5q-100 0 -156.5 -53.5t-56.5 -148.5q0 -92 56 -141.5t157 -49.5z" />
    <glyph glyph-name="backslash.case" horiz-adv-x="743" 
d="M678 -35l-86 -26l-524 1611l86 27z" />
    <glyph glyph-name="exclamdown.case" horiz-adv-x="530" 
d="M184 1364v152h160v-152h-160zM199 0l10 1153h110l11 -1153h-131z" />
    <glyph glyph-name="questiondown.case" horiz-adv-x="1089" 
d="M532 1516h162v-152h-162v152zM543 1153h125v-4q-201 -195 -315.5 -392t-114.5 -349q0 -147 85.5 -230.5t235.5 -83.5q152 0 243.5 98t98.5 271h125q-11 -228 -134 -355.5t-335 -127.5q-213 0 -333 112.5t-120 310.5q0 165 116.5 363.5t322.5 386.5z" />
    <glyph glyph-name="slash.case" horiz-adv-x="743" 
d="M676 1550l-524 -1611l-86 26l524 1612z" />
    <glyph glyph-name="numbersign.osf" horiz-adv-x="1226" 
d="M1143 838l-8 -78h-215l-39 -332h206l-8 -78h-207l-41 -350h-96l39 350h-385l-41 -350h-96l41 350h-213l8 78h215l39 332h-207l8 78h207l37 309h96l-37 -309h385l37 309h97l-37 -309h215zM395 428h391l39 332h-389z" />
    <glyph glyph-name="braceleft.case" horiz-adv-x="571" 
d="M348 1405v-438q0 -154 -135 -209q135 -58 135 -211v-436q0 -57 33 -92t86 -35v-86q-96 0 -154.5 55t-58.5 145v437q0 85 -46.5 131.5t-131.5 46.5v88q85 0 131.5 46.5t46.5 131.5v438q0 91 59 146t154 55v-86q-53 0 -86 -35t-33 -92z" />
    <glyph glyph-name="braceright.case" horiz-adv-x="571" 
d="M317 1417v-438q0 -85 47 -131.5t132 -46.5v-88q-85 0 -132 -46.5t-47 -131.5v-437q0 -90 -58.5 -145t-152.5 -55v86q53 0 85 35t32 92v436q0 153 135 211q-135 55 -135 209v438q0 57 -32 92t-85 35v86q94 0 152.5 -55.5t58.5 -145.5z" />
    <glyph glyph-name="bracketleft.case" horiz-adv-x="641" 
d="M580 1618v-86h-281v-1548h281v-86h-375v1720h375z" />
    <glyph glyph-name="bracketright.case" horiz-adv-x="641" 
d="M436 1618v-1720h-375v86h279v1548h-279v86h375z" />
    <glyph glyph-name="parenleft.case" horiz-adv-x="544" 
d="M473 -68l-74 -55q-282 400 -282 881q0 480 282 880l74 -55q-260 -373 -260 -825q0 -453 260 -826z" />
    <glyph glyph-name="parenright.case" horiz-adv-x="544" 
d="M145 -123l-73 55q260 369 260 826q0 456 -260 825l73 55q285 -404 285 -880q0 -477 -285 -881z" />
    <glyph glyph-name="emdash.case" horiz-adv-x="1763" 
d="M1612 698h-1460v78h1460v-78z" />
    <glyph glyph-name="endash.case" horiz-adv-x="1181" 
d="M1030 698h-878v78h878v-78z" />
    <glyph glyph-name="hyphen.case" horiz-adv-x="819" 
d="M668 698h-516v78h516v-78z" />
    <glyph glyph-name="uni00AD.case" horiz-adv-x="819" 
d="M668 698h-516v78h516v-78z" />
    <glyph glyph-name="guillemotleft.case" horiz-adv-x="933" 
d="M211 737l258 -395h-100l-263 395l263 396h100zM526 737l258 -395h-100l-262 395l262 396h100z" />
    <glyph glyph-name="guillemotright.case" horiz-adv-x="933" 
d="M248 342h-101l259 395l-259 396h101l262 -396zM565 342h-100l258 395l-258 396h100l262 -396z" />
    <glyph glyph-name="guilsinglleft.case" horiz-adv-x="616" 
d="M211 737l258 -395h-100l-263 395l263 396h100z" />
    <glyph glyph-name="guilsinglright.case" horiz-adv-x="616" 
d="M248 342h-101l259 395l-259 396h101l262 -396z" />
    <glyph glyph-name="cent.osf" horiz-adv-x="1116" 
d="M911 344h127q-32 -162 -138 -256t-269 -106v-207h-90v207q-204 12 -318 149.5t-114 372.5t114 372.5t318 149.5v191h90v-191q155 -10 258.5 -97t140.5 -237h-125q-70 208 -274 232v-838q108 12 180 78.5t100 179.5zM233 504q0 -185 81 -295t227 -123v838
q-146 -15 -227 -125.5t-81 -294.5z" />
    <glyph glyph-name="dollar.osf" horiz-adv-x="1105" 
d="M1018 326q0 -152 -110.5 -241.5t-307.5 -98.5v-164h-90v164q-191 9 -302.5 113.5t-121.5 287.5h119q11 -132 90 -210.5t215 -88.5v467q-59 9 -97 17t-89 23t-83 35.5t-62.5 50t-45 72.5t-14.5 97q0 145 102 227.5t289 91.5v162h90v-164q173 -12 273.5 -112t111.5 -269
h-119q-7 120 -77 192.5t-189 86.5v-418q53 -8 88 -14.5t83 -19.5t79.5 -27.5t66 -39t54.5 -54t33.5 -72t13.5 -94.5zM242 854q0 -39 14.5 -69t37 -49t60 -34t72 -23t84.5 -17v403q-126 -6 -197 -61.5t-71 -149.5zM600 541v-453q140 9 218.5 69.5t78.5 159.5q0 46 -16 81.5
t-41.5 58.5t-66.5 40t-80 26.5t-93 17.5z" />
    <glyph glyph-name="Euro.osf" horiz-adv-x="1126" 
d="M985 201l53 -88q-71 -60 -167 -94.5t-187 -34.5q-208 0 -334.5 123t-154.5 350h-111v65h106q-2 18 -2 56q0 41 2 61h-106v68h113q28 221 155 341.5t332 120.5q89 0 176 -24t152 -68l-54 -90q-115 80 -274 80q-149 0 -242.5 -93t-119.5 -265h471l-39 -70h-441
q-2 -20 -2 -61q0 -38 2 -54h375l-37 -67h-332q25 -176 120 -273.5t245 -97.5q75 0 156.5 29.5t144.5 85.5z" />
    <glyph glyph-name="sterling.osf" horiz-adv-x="1077" 
d="M141 102v-2h838v-100h-868v94q188 124 188 336q0 32 -10 74h-162v78h133q-7 17 -27 64t-29 71.5t-18.5 63.5t-9.5 71q0 151 101.5 234t285.5 83q182 0 287.5 -99t114.5 -279h-117q-7 130 -82 203t-201 73q-125 0 -194.5 -57t-69.5 -160q0 -32 10 -70t19 -62t30.5 -72
t28.5 -64h387v-78h-360q10 -38 10 -70q0 -104 -66 -185.5t-219 -146.5z" />
    <glyph glyph-name="yen.osf" horiz-adv-x="1150" 
d="M940 1151h135l-366 -717h239v-65h-272l-47 -93h319v-67h-354l-107 -209h-137l105 209h-240v67h274l46 93h-320v65h227l-368 717h145l359 -711h4z" />
    <glyph glyph-name="plus.case" horiz-adv-x="931" 
d="M510 760h334v-78h-332v-340h-92v340h-332v78h332v340h90v-340z" />
    <glyph glyph-name="minus.case" horiz-adv-x="1056" 
d="M907 682h-757v78h757v-78z" />
    <glyph glyph-name="multiply.case" horiz-adv-x="976" 
d="M793 1073l61 -61l-303 -303l303 -303l-61 -62l-304 303l-305 -303l-61 62l303 303l-303 303l61 61l305 -303z" />
    <glyph glyph-name="divide.case" horiz-adv-x="1054" 
d="M528 944q-67 0 -67 64q0 31 17.5 48t49.5 17t50 -17t18 -48t-18 -47.5t-50 -16.5zM907 682h-757v78h757v-78zM528 369q-67 0 -67 61q0 32 17.5 50t49.5 18t50 -18t18 -50q0 -29 -18 -45t-50 -16z" />
    <glyph glyph-name="equal.case" horiz-adv-x="1056" 
d="M907 815h-757v78h757v-78zM907 549h-757v78h757v-78z" />
    <glyph glyph-name="notequal.case" horiz-adv-x="1056" 
d="M907 893v-78h-307l-55 -188h362v-78h-385l-100 -344h-84l100 344h-288v78h311l55 188h-366v78h389l92 319h86l-94 -319h284z" />
    <glyph glyph-name="greater.case" horiz-adv-x="972" 
d="M139 1036v88l746 -325v-154l-746 -323v88l733 309v4z" />
    <glyph glyph-name="less.case" horiz-adv-x="972" 
d="M834 1124v-88l-734 -313v-4l734 -309v-88l-746 323v154z" />
    <glyph glyph-name="greaterequal.case" horiz-adv-x="1093" 
d="M180 1137v86l756 -291v-152l-756 -288v86l744 274v4zM936 215h-756v78h756v-78z" />
    <glyph glyph-name="lessequal.case" horiz-adv-x="1093" 
d="M913 1223v-86l-743 -281v-4l743 -274v-86l-755 288v152zM913 215h-755v78h755v-78z" />
    <glyph glyph-name="plusminus.case" horiz-adv-x="1064" 
d="M575 1214v-329h336v-78h-333v-330h-93v330h-331v78h331v329h90zM911 215h-757v78h757v-78z" />
    <glyph glyph-name="logicalnot.case" horiz-adv-x="1050" 
d="M135 811v76h756v-334h-90v258h-666z" />
    <glyph glyph-name="percent.osf" horiz-adv-x="1337" 
d="M344 535q-118 0 -184 84t-66 235q0 149 66 233t184 84q117 0 182.5 -84t65.5 -233q0 -151 -65.5 -235t-182.5 -84zM1130 1128l-864 -1148l-61 45l864 1146zM344 616q69 0 108.5 63t39.5 175q0 110 -39.5 174t-108.5 64q-70 0 -109.5 -63.5t-39.5 -174.5
q0 -113 39.5 -175.5t109.5 -62.5zM991 -20q-118 0 -183 83.5t-65 233.5q0 151 65 235t183 84t184 -84t66 -235q0 -149 -66 -233t-184 -84zM991 61q70 0 110 63t40 173q0 112 -39.5 175t-110.5 63q-69 0 -109 -63t-40 -175q0 -110 40 -173t109 -63z" />
    <glyph glyph-name="perthousand.osf" horiz-adv-x="1900" 
d="M344 535q-118 0 -184 84t-66 235q0 149 66 233t184 84q117 0 182.5 -84t65.5 -233q0 -151 -65.5 -235t-182.5 -84zM1130 1128l-864 -1148l-61 45l864 1146zM344 616q69 0 108.5 63t39.5 175q0 110 -39.5 174t-108.5 64q-70 0 -109.5 -63.5t-39.5 -174.5
q0 -113 39.5 -175.5t109.5 -62.5zM991 -20q-118 0 -183 83.5t-65 233.5q0 151 65 235t183 84t184 -84t66 -235q0 -149 -66 -233t-184 -84zM1575 -20q-117 0 -182.5 84t-65.5 233q0 151 65.5 235t182.5 84q118 0 184 -84t66 -235q0 -149 -66 -233t-184 -84zM991 61
q70 0 110 63t40 173q0 112 -39.5 175t-110.5 63q-69 0 -109 -63t-40 -175q0 -110 40 -173t109 -63zM1575 61q70 0 109.5 62.5t39.5 173.5q0 113 -39.5 175.5t-109.5 62.5q-69 0 -108.5 -63t-39.5 -175q0 -110 39.5 -173t108.5 -63z" />
    </font>
</defs>
</svg>
