<?xml version="1.0" standalone="no"?>
<!DOCTYPE svg PUBLIC "-//W3C//DTD SVG 1.1//EN" "http://www.w3.org/Graphics/SVG/1.1/DTD/svg11.dtd" >
<svg xmlns="http://www.w3.org/2000/svg" xmlns:xlink="http://www.w3.org/1999/xlink" version="1.1">
<metadata>
Created by FontForge 20170731 at Mon Aug  8 10:21:54 2022
 By Aleksey,,,
Copyright (c) 2017 by Alberto Romanos. All rights reserved.
</metadata>
<defs>
<font id="BwGradual-BoldItalic" horiz-adv-x="1267" >
  <font-face 
    font-family="Bw Gradual Bold Italic"
    font-weight="700"
    font-style="italic"
    font-stretch="normal"
    units-per-em="2048"
    panose-1="0 0 8 0 0 0 0 0 0 0"
    ascent="1577"
    descent="-471"
    x-height="1028"
    cap-height="1516"
    bbox="-1520 -492 2499 2101"
    underline-thickness="102"
    underline-position="-307"
    slope="-10"
    unicode-range="U+000D-FB02"
  />
<missing-glyph horiz-adv-x="2609" 
d="M156 -20q-15 0 -25 10.5t-10 25.5q0 21 10 31l700 698h-663q-47 0 -47 39q0 16 14 33l696 701h-669q-41 0 -41 38v3q0 38 41 38h758q47 0 47 -41q0 -20 -17 -34l-698 -697h676q17 0 29 -12t12 -29v-669l694 692q13 16 35 16q37 0 37 -45v-663l696 692q13 16 33 16
q15 0 25 -12t10 -27q0 -18 -13 -28l-753 -762q-14 -14 -35 -14q-41 0 -41 47v663l-694 -696q-14 -14 -35 -14q-41 0 -41 47v663l-697 -696q-14 -14 -34 -14z" />
    <glyph glyph-name="fi" unicode="fi" horiz-adv-x="1343" 
d="M575 1192l-28 -164h756l-181 -1028h-270l147 842h-471l-147 -842h-270l147 842h-156l33 186h402l2 4q-105 17 -164.5 72t-59.5 133q0 166 124.5 263t338.5 97q121 0 205 -41l-72 -200q-45 26 -104 26q-96 0 -156.5 -50t-75.5 -140zM1069 1225l43 256h270l-43 -256h-270z
" />
    <glyph glyph-name="fl" unicode="fl" horiz-adv-x="1339" 
d="M547 1028h323l-32 -186h-310l-147 -842h-270l147 842h-156l33 186h402l2 4q-105 17 -164.5 72t-59.5 133q0 166 124.5 263t338.5 97q121 0 205 -41l-72 -200q-45 26 -104 26q-96 0 -156.5 -50t-75.5 -140zM846 0l278 1577h271l-279 -1577h-270z" />
    <glyph glyph-name="f_f" unicode="ff" horiz-adv-x="1497" 
d="M1503 1382q-96 0 -155 -50t-74 -140l-29 -164h324l-33 -186h-309l-150 -842h-270l147 842h-426l-147 -842h-270l147 842h-156l33 186h402l2 4q-105 17 -164.5 72t-59.5 133q0 166 124.5 263t338.5 97q121 0 205 -41l-72 -200q-45 26 -104 26q-96 0 -156.5 -50t-75.5 -140
l-28 -164h686l2 4q-105 17 -163 71.5t-58 133.5q0 166 124.5 263t338.5 97q133 0 235 -51l-70 -203q-58 39 -139 39z" />
    <glyph glyph-name="f_f_i" unicode="ffi" horiz-adv-x="2043" 
d="M1276 1192l-29 -164h756l-182 -1028h-271l150 842h-471l-150 -842h-270l147 842h-428l-147 -842h-270l147 842h-156l33 186h402l2 4q-105 17 -164.5 72t-59.5 133q0 166 124.5 263t338.5 97q121 0 205 -41l-72 -200q-45 26 -104 26q-96 0 -156.5 -50t-75.5 -140l-28 -164
h688l2 4q-105 17 -163 71.5t-58 133.5q0 166 124.5 263t338.5 97q118 0 202 -41l-69 -200q-45 26 -107 26q-96 0 -155 -50t-74 -140zM1767 1225l43 256h271l-43 -256h-271z" />
    <glyph glyph-name="f_f_l" unicode="ffl" horiz-adv-x="2037" 
d="M1247 1028h322l-31 -186h-309l-150 -842h-270l147 842h-428l-147 -842h-270l147 842h-156l33 186h402l2 4q-105 17 -164.5 72t-59.5 133q0 166 124.5 263t338.5 97q121 0 205 -41l-72 -200q-45 26 -104 26q-96 0 -156.5 -50t-75.5 -140l-28 -164h688l2 4
q-105 17 -163 71.5t-58 133.5q0 166 124.5 263t338.5 97q118 0 202 -41l-69 -200q-45 26 -107 26q-96 0 -155 -50t-74 -140zM1544 0l279 1577h270l-278 -1577h-271z" />
    <glyph glyph-name=".notdef" horiz-adv-x="2609" 
d="M156 -20q-15 0 -25 10.5t-10 25.5q0 21 10 31l700 698h-663q-47 0 -47 39q0 16 14 33l696 701h-669q-41 0 -41 38v3q0 38 41 38h758q47 0 47 -41q0 -20 -17 -34l-698 -697h676q17 0 29 -12t12 -29v-669l694 692q13 16 35 16q37 0 37 -45v-663l696 692q13 16 33 16
q15 0 25 -12t10 -27q0 -18 -13 -28l-753 -762q-14 -14 -35 -14q-41 0 -41 47v663l-694 -696q-14 -14 -35 -14q-41 0 -41 47v663l-697 -696q-14 -14 -34 -14z" />
    <glyph glyph-name=".null" horiz-adv-x="0" 
 />
    <glyph glyph-name="nonmarkingreturn" horiz-adv-x="682" 
 />
    <glyph glyph-name="CR" unicode="&#xd;" horiz-adv-x="444" 
 />
    <glyph glyph-name="space" unicode=" " horiz-adv-x="444" 
 />
    <glyph glyph-name="exclam" unicode="!" horiz-adv-x="589" 
d="M416 467h-258l174 1049h278zM354 0h-301l49 289h304z" />
    <glyph glyph-name="quotedbl" unicode="&#x22;" horiz-adv-x="827" 
d="M459 1102h-248l84 475h248zM821 1102h-250l84 475h250z" />
    <glyph glyph-name="numbersign" unicode="#" horiz-adv-x="1374" 
d="M1421 1122l-26 -90h-265l-139 -500h260l-26 -90h-258l-123 -442h-103l125 442h-460l-125 -442h-103l125 442h-254l25 90h254l141 500h-252l27 90h250l110 394h103l-107 -394h455l106 394h103l-109 -394h266zM430 535h459l141 497h-457z" />
    <glyph glyph-name="dollar" unicode="$" horiz-adv-x="1396" 
d="M1366 1008h-281q2 16 2 49q0 105 -51 169t-149 81l-72 -408h6q66 -10 100.5 -16t96 -21t96 -30.5t79.5 -43.5t68.5 -61.5t40.5 -82.5t17 -109q0 -243 -179.5 -393t-486.5 -162l-37 -209h-102l37 211q-228 12 -353.5 136.5t-125.5 338.5q0 48 2 73h280q-4 -28 -4 -43
q0 -120 63 -192t179 -86l80 461q-59 8 -95.5 14.5t-91.5 19.5t-89.5 28.5t-74.5 41.5t-62.5 58t-38 78t-15.5 102q0 235 165.5 373.5t454.5 150.5l37 205h103l-37 -207q212 -13 326 -133t114 -326q0 -42 -2 -67zM502 1077q0 -69 55 -104t160 -55l69 391q-132 -7 -208 -69.5
t-76 -162.5zM1022 467q0 43 -18.5 75t-55 52.5t-77.5 33.5t-99 23l-78 -444q153 9 240.5 78t87.5 182z" />
    <glyph glyph-name="percent" unicode="%" horiz-adv-x="1523" 
d="M1477 1483l-1272 -1503l-64 53l1272 1503zM424 737q-122 0 -189 77t-67 214q0 208 107.5 337.5t283.5 129.5q122 0 189 -77t67 -214q0 -208 -107.5 -337.5t-283.5 -129.5zM455 895q71 0 114 89t43 210q0 143 -82 143q-70 0 -114.5 -87.5t-44.5 -209.5q0 -68 21.5 -106.5
t62.5 -38.5zM1047 -20q-122 0 -189 76.5t-67 213.5q0 208 107.5 337.5t281.5 129.5q124 0 191 -77t67 -214q0 -208 -107 -337t-284 -129zM1075 137q72 0 116 89t44 210q0 68 -21.5 106t-60.5 38q-70 0 -115 -87.5t-45 -209.5q0 -68 21.5 -107t60.5 -39z" />
    <glyph glyph-name="ampersand" unicode="&#x26;" horiz-adv-x="1673" 
d="M1448 948l197 -71q-130 -279 -302 -478l246 -252l-182 -167l-238 247q-290 -247 -622 -247q-234 0 -364 99.5t-130 274.5q0 77 20 143t51.5 114.5t81.5 91.5t98.5 71.5t115.5 57t119 46t121 39.5q1 0 2 0.5t2 0.5q114 37 122 40q-209 0 -326.5 63t-117.5 171
q0 156 148 250t401 94q208 0 321 -79t113 -226q0 -58 -17 -109.5t-42.5 -90.5t-69.5 -75.5t-84.5 -61.5t-101 -52.5t-105.5 -45t-111 -41.5q-3 -1 -5 -1.5t-4.5 -1.5t-4.5 -2h-1l-1 -1h-1h-1l-1 -1h-1l-1 -1h-1h-1l-1 -1h-1h-1l-2 -1q-191 -70 -266 -115q-150 -90 -156 -225
v-12q0 -87 70 -137.5t198 -50.5q240 0 461 196.5t375 546.5zM608 1120q0 -72 51 -114.5t140 -42.5q113 42 172 90.5t59 124.5q0 63 -46 98t-130 35q-114 0 -180 -51t-66 -140z" />
    <glyph glyph-name="quotesingle" unicode="'" horiz-adv-x="464" 
d="M459 1102h-248l84 475h248z" />
    <glyph glyph-name="parenleft" unicode="(" horiz-adv-x="555" 
d="M379 -436l-90 -56q-112 164 -167.5 378.5t-55.5 428.5q0 332 144.5 656.5t446.5 625.5l72 -55q-148 -145 -257.5 -303.5t-174 -315t-95 -305.5t-30.5 -296q0 -200 51 -405t156 -353z" />
    <glyph glyph-name="parenright" unicode=")" horiz-adv-x="555" 
d="M-86 -492l-72 56q145 142 254 300.5t173.5 315.5t96 307.5t31.5 296.5q0 201 -50.5 404t-156.5 354l93 55q111 -163 166 -377t55 -429q0 -332 -144 -657t-446 -626z" />
    <glyph glyph-name="asterisk" unicode="*" horiz-adv-x="796" 
d="M831 1366l25 -145q-181 -56 -317 47l-7 -4l130 -234l-140 -90q-82 148 0 322l-2 4l-213 -234l-108 88q61 70 145.5 112.5t171.5 43.5l2 4l-256 90l70 146q81 -26 130.5 -85.5t63.5 -142.5h6l54 289h153q-36 -181 -194 -291l-2 -8z" />
    <glyph glyph-name="plus" unicode="+" horiz-adv-x="976" 
d="M547 561h371l-17 -90h-371l-65 -377h-103l66 377h-369l17 90h366l66 377h104z" />
    <glyph glyph-name="comma" unicode="," horiz-adv-x="526" 
d="M33 0l49 289h303l-41 -240q-29 -159 -127.5 -260.5t-245.5 -124.5l27 146q119 12 202 61.5t119 128.5h-286z" />
    <glyph glyph-name="hyphen" unicode="-" horiz-adv-x="858" 
d="M733 477h-620l16 90h621z" />
    <glyph glyph-name="period" unicode="." horiz-adv-x="530" 
d="M330 0h-303l51 289h303z" />
    <glyph glyph-name="slash" unicode="/" horiz-adv-x="862" 
d="M1001 1604l-991 -1891l-90 35l989 1890z" />
    <glyph glyph-name="zero" unicode="0" horiz-adv-x="1382" 
d="M598 -20q-227 0 -349 153.5t-122 429.5q0 285 91 505.5t261 344t393 123.5q227 0 349 -154t122 -430q0 -285 -91.5 -505.5t-261.5 -343.5t-392 -123zM639 205q121 0 216.5 100.5t146.5 267.5t51 367q0 174 -57 272.5t-162 98.5q-122 0 -218 -101t-147 -268t-51 -367
q0 -174 57.5 -272t163.5 -98z" />
    <glyph glyph-name="one" unicode="1" horiz-adv-x="800" 
d="M522 1516h283l-266 -1516h-283l254 1442h-4q-34 -189 -132 -294.5t-239 -105.5l43 246q144 0 234.5 61t109.5 167z" />
    <glyph glyph-name="two" unicode="2" horiz-adv-x="1273" 
d="M104 223v-4h1037l-39 -219h-1112l37 209q427 139 674 377.5t247 509.5q0 101 -48 158t-136 57q-110 0 -193 -88.5t-120 -243.5h-273q63 263 230 410t403 147q214 0 330 -109t116 -305q0 -238 -139.5 -427.5t-400 -311t-613.5 -160.5z" />
    <glyph glyph-name="three" unicode="3" horiz-adv-x="1263" 
d="M682 870h18q222 0 343.5 -94.5t121.5 -265.5q0 -242 -176 -386t-477 -144q-216 0 -333.5 112t-117.5 314q0 41 5 77h272q-4 -46 -4 -57q0 -105 58 -163t163 -58q144 0 229.5 74.5t85.5 199.5q0 94 -65 146.5t-184 52.5h-39l34 196q153 14 240.5 85.5t87.5 185.5
q0 78 -51.5 122t-144.5 44q-104 0 -181 -74.5t-108 -206.5h-266q60 238 222.5 372t395.5 134q210 0 326 -79.5t116 -213.5q0 -171 -153 -270t-418 -99v-4z" />
    <glyph glyph-name="four" unicode="4" horiz-adv-x="1308" 
d="M1061 573h199l-41 -221h-197l-61 -352h-283l61 352h-716l40 234l639 930h525zM944 1491l-625 -913v-5h465l164 918h-4z" />
    <glyph glyph-name="five" unicode="5" horiz-adv-x="1284" 
d="M539 -20q-224 0 -347.5 110t-123.5 307v37h278q0 -107 62.5 -168t171.5 -61q153 0 244 96.5t91 255.5q0 108 -59 169.5t-168 61.5q-102 0 -179.5 -52t-123.5 -142l-266 35l272 887h879l-39 -220h-629l-209 -669h4q60 175 185 272.5t288 97.5q167 0 258 -99t91 -277
q0 -293 -184 -467t-496 -174z" />
    <glyph glyph-name="six" unicode="6" horiz-adv-x="1359" 
d="M1333 1083h-274q0 5 1 15t1 14q0 93 -52.5 146t-148.5 53q-155 0 -268.5 -151.5t-159.5 -420.5l-26 -151h4q32 181 163 283t332 102q180 0 276.5 -96t96.5 -269q0 -285 -188.5 -456.5t-495.5 -171.5q-230 0 -350.5 143t-120.5 412q0 291 95 518.5t271.5 355t407.5 127.5
q210 0 324 -104.5t114 -292.5q0 -31 -2 -56zM727 762q-156 0 -249 -84.5t-93 -231.5q0 -112 65.5 -176.5t178.5 -64.5q159 0 253.5 92.5t94.5 245.5q0 103 -65.5 161t-184.5 58z" />
    <glyph glyph-name="seven" unicode="7" horiz-adv-x="1134" 
d="M162 1296l37 220h1077l-37 -209q-235 -68 -415 -376.5t-265 -789.5l-24 -141h-293l16 96q100 541 337 856t566 340v4h-999z" />
    <glyph glyph-name="eight" unicode="8" horiz-adv-x="1320" 
d="M846 895v-4q182 -20 279.5 -116.5t97.5 -252.5q0 -249 -177 -395.5t-481 -146.5q-235 0 -363 103t-128 288q0 217 142 354.5t392 165.5v4q-168 0 -260 65.5t-92 182.5q0 181 157.5 287t426.5 106q220 0 341.5 -78.5t121.5 -218.5q0 -157 -124 -250.5t-333 -93.5z
M530 1053q0 -82 50.5 -129t142.5 -47q124 0 197 70.5t73 187.5q0 83 -49.5 129.5t-142.5 46.5q-123 0 -197 -70t-74 -188zM606 205q147 0 234.5 77.5t87.5 206.5q0 94 -61.5 146.5t-174.5 52.5q-149 0 -236 -76.5t-87 -205.5q0 -94 62 -147.5t175 -53.5z" />
    <glyph glyph-name="nine" unicode="9" horiz-adv-x="1355" 
d="M854 1536q230 0 348.5 -143.5t118.5 -409.5q0 -292 -95 -519.5t-272 -355.5t-409 -128q-205 0 -317.5 110.5t-112.5 310.5q0 47 4 72h274q-2 -14 -2 -37q0 -108 51 -169.5t144 -61.5q154 0 266.5 151t159.5 420l30 172h-4q-31 -172 -161 -268t-332 -96q-180 0 -277.5 92
t-97.5 258q0 275 188 438.5t496 163.5zM725 795q155 0 246.5 76.5t91.5 211.5q0 106 -67 167t-181 61q-158 0 -252 -85.5t-94 -226.5q0 -97 67.5 -150.5t188.5 -53.5z" />
    <glyph glyph-name="colon" unicode=":" horiz-adv-x="536" 
d="M461 748h-303l51 290h303zM330 0h-303l51 289h301z" />
    <glyph glyph-name="semicolon" unicode=";" horiz-adv-x="540" 
d="M160 748l51 290h301l-49 -290h-303zM317 0h-286l49 289h303l-41 -240q-29 -159 -127.5 -260.5t-245.5 -124.5l27 146q119 12 202 61.5t119 128.5z" />
    <glyph glyph-name="less" unicode="&#x3c;" horiz-adv-x="956" 
d="M928 950l-17 -100l-829 -332l-2 -4l715 -328l-17 -100l-725 342l15 84l18 94z" />
    <glyph glyph-name="equal" unicode="=" horiz-adv-x="1087" 
d="M987 647h-842l19 88h842zM926 297h-842l16 88h842z" />
    <glyph glyph-name="greater" unicode="&#x3e;" horiz-adv-x="956" 
d="M180 950l723 -344l-14 -84l-17 -94l-843 -342l16 100l829 328l3 4l-713 332z" />
    <glyph glyph-name="question" unicode="?" horiz-adv-x="1138" 
d="M645 467h-258v4q224 179 351.5 355t127.5 311q0 81 -45 127.5t-127 46.5q-101 0 -175 -72.5t-103 -198.5h-269q57 234 214 365t382 131q206 0 318.5 -92t112.5 -256q0 -165 -139.5 -350.5t-389.5 -370.5zM575 0h-303l52 289h301z" />
    <glyph glyph-name="at" unicode="@" horiz-adv-x="2342" 
d="M1307 268q0 45 20 103l16 43h-4q-59 -163 -182.5 -255.5t-284.5 -92.5q-129 0 -196.5 76.5t-67.5 213.5q0 186 76 344.5t213 253.5t303 95q128 0 197 -57.5t69 -160.5q0 -53 -26 -133h4l117 332h258l-236 -665q-8 -24 -8 -48q0 -36 24 -56.5t68 -20.5q127 0 224 79
t148.5 217t51.5 312q0 273 -179 425t-507 152q-255 0 -466.5 -82t-356 -228t-224 -351t-79.5 -447q0 -300 186.5 -468t529.5 -168q141 0 304.5 33t312.5 91l33 -167q-156 -61 -334.5 -95.5t-343.5 -34.5q-431 0 -666 206t-235 575q0 288 97 530.5t273.5 414t433.5 267.5
t568 96q414 0 639 -190t225 -530q0 -243 -88.5 -426t-253 -283t-383.5 -100q-131 0 -200.5 52t-69.5 148zM1059 270q113 0 203 71.5t141 199.5l6 16q2 7 8 25t8.5 29t5.5 30t3 39q0 79 -44 121.5t-128 42.5q-158 0 -264.5 -116.5t-106.5 -283.5q0 -83 43 -128.5t125 -45.5z
" />
    <glyph glyph-name="A" unicode="A" horiz-adv-x="1468" 
d="M1364 0h-301l-39 367h-647l-170 -367h-283l738 1516h499zM897 1491l-420 -905h522l-98 905h-4z" />
    <glyph glyph-name="B" unicode="B" horiz-adv-x="1435" 
d="M870 870h31q219 0 339 -93t120 -259q0 -237 -173 -377.5t-468 -140.5h-641l266 1516h657q179 0 276 -73.5t97 -205.5q0 -167 -136 -265t-368 -98v-4zM1063 1124q0 80 -50 126t-143 46h-280l-74 -422h281q123 0 194.5 68t71.5 182zM399 219h373q132 0 211.5 74.5
t79.5 198.5q0 87 -55.5 136.5t-155.5 49.5h-371z" />
    <glyph glyph-name="C" unicode="C" horiz-adv-x="1509" 
d="M696 -20q-278 0 -427.5 160.5t-149.5 449.5q0 281 104.5 495.5t298 332.5t449.5 118q262 0 406.5 -142.5t144.5 -396.5q0 -9 -1 -27.5t-1 -27.5h-271v19q0 166 -83 258t-232 92q-233 0 -376.5 -193.5t-143.5 -499.5q0 -196 83 -304.5t240 -108.5q153 0 270 98.5
t179 276.5h270q-86 -282 -287.5 -441t-472.5 -159z" />
    <glyph glyph-name="D" unicode="D" horiz-adv-x="1511" 
d="M569 0h-491l266 1516h492q309 0 477 -160.5t168 -448.5q0 -272 -112 -477.5t-319 -317.5t-481 -112zM590 1296l-191 -1077h224q255 0 409 182t154 480q0 196 -97 305.5t-276 109.5h-223z" />
    <glyph glyph-name="E" unicode="E" horiz-adv-x="1325" 
d="M1403 1516l-39 -220h-774l-72 -409h703l-37 -219h-705l-80 -449h799l-39 -219h-1081l266 1516h1059z" />
    <glyph glyph-name="F" unicode="F" horiz-adv-x="1204" 
d="M1327 1516l-37 -220h-700l-76 -426h594l-39 -219h-594l-115 -651h-282l266 1516h983z" />
    <glyph glyph-name="G" unicode="G" horiz-adv-x="1556" 
d="M1518 963h-271v18q-2 155 -83 242.5t-226 87.5q-156 0 -275.5 -88.5t-184 -246t-64.5 -360.5q0 -194 83.5 -302.5t237.5 -108.5q173 0 294 107t165 298h-403l32 191h676l-139 -801h-266l94 541h-4q-47 -264 -211 -412.5t-408 -148.5q-214 0 -331 154t-117 427
q0 295 106 516t301 340t453 119q256 0 399.5 -138t143.5 -384q0 -8 -1 -25.5t-1 -25.5z" />
    <glyph glyph-name="H" unicode="H" horiz-adv-x="1550" 
d="M1163 879l113 637h283l-267 -1516h-282l114 657h-649l-115 -657h-282l266 1516h283l-113 -637h649z" />
    <glyph glyph-name="I" unicode="I" horiz-adv-x="618" 
d="M360 0h-282l266 1516h283z" />
    <glyph glyph-name="J" unicode="J" horiz-adv-x="1167" 
d="M426 -20q-188 0 -290.5 115t-102.5 323q0 73 6 112h262q-4 -50 -4 -67q0 -122 46.5 -190t131.5 -68q95 0 160.5 66.5t85.5 183.5l188 1061h281l-184 -1047q-41 -232 -194 -360.5t-386 -128.5z" />
    <glyph glyph-name="K" unicode="K" horiz-adv-x="1470" 
d="M1270 1516h327l-794 -723l612 -793h-350l-573 780h-5l-137 -780h-272l266 1516h272l-124 -717h4z" />
    <glyph glyph-name="L" unicode="L" horiz-adv-x="1144" 
d="M627 1516l-226 -1289h664l-39 -227h-948l266 1516h283z" />
    <glyph glyph-name="M" unicode="M" horiz-adv-x="2060" 
d="M938 25l561 1491h543l-213 -1516h-283l215 1491h-4l-590 -1491h-493l-39 1491h-4l-312 -1491h-268l320 1516h544l17 -1491h6z" />
    <glyph glyph-name="N" unicode="N" horiz-adv-x="1550" 
d="M1040 25l250 1491h269l-267 -1516h-467l-221 1491h-4l-252 -1491h-270l266 1516h471l221 -1491h4z" />
    <glyph glyph-name="O" unicode="O" horiz-adv-x="1593" 
d="M702 -20q-280 0 -431.5 161t-151.5 449q0 281 105 495.5t300 332.5t453 118q280 0 432 -160.5t152 -449.5q0 -281 -105 -495.5t-300.5 -332.5t-453.5 -118zM743 205q155 0 274.5 88t184 245t64.5 359q0 195 -85.5 304.5t-242.5 109.5t-276.5 -88.5t-183.5 -245.5
t-64 -359q0 -196 84.5 -304.5t244.5 -108.5z" />
    <glyph glyph-name="P" unicode="P" horiz-adv-x="1345" 
d="M344 1516h561q232 0 359 -104t127 -288q0 -257 -176.5 -408t-477.5 -151h-276l-101 -565h-282zM500 784h291q138 0 220.5 84t82.5 224q0 96 -55 150t-156 54h-293z" />
    <glyph glyph-name="Q" unicode="Q" horiz-adv-x="1613" 
d="M887 221v-4l612 2l-39 -219h-755q-281 0 -433.5 159.5t-152.5 444.5q0 277 105 488.5t299.5 327.5t451.5 116q283 0 438.5 -153.5t155.5 -409.5q0 -220 -83 -390.5t-238.5 -266t-360.5 -95.5zM414 625q0 -196 85 -305t244 -109q154 0 273 88t183.5 245t64.5 357
q0 192 -85.5 301t-242.5 109q-236 0 -379 -190t-143 -496z" />
    <glyph glyph-name="R" unicode="R" horiz-adv-x="1425" 
d="M1432 1149q0 -242 -176.5 -386.5t-477.5 -144.5v-4q126 0 220 -56.5t132 -156.5l158 -401h-315l-221 614h-283l-109 -614h-282l266 1516h586q240 0 371 -97t131 -270zM590 1296l-84 -475h319q142 0 226 77.5t84 205.5q0 90 -59.5 141t-168.5 51h-317z" />
    <glyph glyph-name="S" unicode="S" horiz-adv-x="1394" 
d="M600 -20q-254 0 -393 125.5t-139 351.5q0 23 4 73h280q-4 -28 -4 -43q0 -134 78 -208t219 -74q173 0 273 70t100 192q0 30 -10.5 55t-25 43t-43.5 33t-51.5 24t-65 19t-68.5 14.5t-76 12.5q-49 7 -75.5 11.5t-73 14t-73.5 18t-66 24t-62 32t-50 41.5t-41.5 54t-24 67
t-9.5 82q0 246 179.5 385t491.5 139q234 0 363 -121t129 -340q0 -9 -1 -31.5t-1 -35.5h-281q2 16 2 49q0 121 -68.5 187.5t-195.5 66.5q-149 0 -235 -63.5t-86 -170.5q0 -27 9.5 -48.5t23 -37t40.5 -29t48 -21.5t61 -17t64.5 -13t72.5 -12q65 -10 100 -16t96 -21t96 -30.5
t79 -43.5t67.5 -61.5t40.5 -82.5t17 -109q0 -254 -193.5 -404.5t-521.5 -150.5z" />
    <glyph glyph-name="T" unicode="T" horiz-adv-x="1232" 
d="M207 1516h1169l-37 -220h-442l-229 -1296h-283l229 1296h-444z" />
    <glyph glyph-name="U" unicode="U" horiz-adv-x="1497" 
d="M653 -20q-243 0 -375.5 112.5t-132.5 315.5q0 57 13 127l172 981h282l-174 -996q-8 -41 -8 -74q0 -116 70 -178.5t200 -62.5q152 0 251.5 83t125.5 232l174 996h269l-172 -981q-46 -261 -230 -408t-465 -147z" />
    <glyph glyph-name="V" unicode="V" horiz-adv-x="1406" 
d="M629 25l647 1491h283l-693 -1516h-506l-159 1516h301l123 -1491h4z" />
    <glyph glyph-name="W" unicode="W" horiz-adv-x="2162" 
d="M1483 25l522 1491h283l-553 -1516h-508l28 1491h-4l-495 -1491h-510l-19 1516h301l-4 -1491h4l506 1491h461l-16 -1491h4z" />
    <glyph glyph-name="X" unicode="X" horiz-adv-x="1417" 
d="M1208 1516h312l-471 -723l256 -793h-334l-213 780h-4l-486 -780h-334l537 793l-221 723h313l195 -717h4z" />
    <glyph glyph-name="Y" unicode="Y" horiz-adv-x="1431" 
d="M766 627l555 889h305l-981 -1516h-305l383 602h-264l-269 914h326l246 -889h4z" />
    <glyph glyph-name="Z" unicode="Z" horiz-adv-x="1415" 
d="M1477 1516l-88 -504l-1332 -789v-4h1246l-39 -219h-1272l88 504l1331 788l2 4h-1163l37 220h1190z" />
    <glyph glyph-name="bracketleft" unicode="[" horiz-adv-x="587" 
d="M756 1577l-17 -94h-305l-330 -1860h306l-17 -94h-409l362 2048h410z" />
    <glyph glyph-name="backslash" unicode="\" horiz-adv-x="843" 
d="M664 -252l-105 -35l-319 1891l100 34z" />
    <glyph glyph-name="bracketright" unicode="]" horiz-adv-x="587" 
d="M618 1577l-362 -2048h-410l19 94h303l330 1860h-305l16 94h409z" />
    <glyph glyph-name="asciicircum" unicode="^" horiz-adv-x="1050" 
d="M596 1475h207l225 -752h-110l-220 739h-4l-481 -739h-109z" />
    <glyph glyph-name="underscore" unicode="_" horiz-adv-x="1181" 
d="M993 -225h-1056l14 90h1057z" />
    <glyph glyph-name="grave" unicode="`" horiz-adv-x="507" 
d="M637 1325l-100 -141l-377 205l114 157z" />
    <glyph glyph-name="a" unicode="a" 
d="M893 676l61 352h271l-181 -1028h-270l62 354h-5q-31 -177 -145.5 -275.5t-286.5 -98.5q-158 0 -243.5 106t-85.5 297q0 195 64.5 346.5t183 235.5t272.5 84q147 0 227 -73.5t80 -207.5q0 -26 -8 -92h4zM563 195q121 0 206 88t110 231q10 58 10 88q0 108 -56 171t-157 63
q-147 0 -235.5 -110t-88.5 -286q0 -116 55 -180.5t156 -64.5z" />
    <glyph glyph-name="b" unicode="b" 
d="M866 1049q160 0 246 -106.5t86 -297.5q0 -195 -64.5 -346t-183 -235t-272.5 -84q-147 0 -227 73t-80 207q0 50 8 94h-4l-64 -354h-270l278 1577h271l-160 -901h4q31 175 145.5 274t286.5 99zM592 195q147 0 235 108.5t88 286.5q0 117 -54 181.5t-156 64.5
q-121 0 -206 -88.5t-112 -233.5q-6 -33 -6 -84q0 -108 54.5 -171.5t156.5 -63.5z" />
    <glyph glyph-name="c" unicode="c" horiz-adv-x="1175" 
d="M516 -20q-215 0 -331.5 113t-116.5 317q0 289 173.5 464t463.5 175q200 0 313 -105.5t119 -296.5h-267q-9 90 -60.5 139.5t-141.5 49.5q-145 0 -232.5 -111t-87.5 -287q0 -115 53.5 -179t153.5 -64q93 0 163.5 52t112.5 148h267q-65 -198 -216.5 -306.5t-365.5 -108.5z
" />
    <glyph glyph-name="d" unicode="d" 
d="M893 676l160 901h270l-279 -1577h-270l62 354h-5q-31 -177 -145.5 -275.5t-286.5 -98.5q-158 0 -243.5 106t-85.5 297q0 195 64.5 346.5t183 235.5t272.5 84q147 0 227 -73.5t80 -207.5q0 -26 -8 -92h4zM563 195q121 0 206 88t110 231q10 58 10 88q0 108 -56 171t-157 63
q-147 0 -235.5 -110t-88.5 -286q0 -116 55 -180.5t156 -64.5z" />
    <glyph glyph-name="e" unicode="e" horiz-adv-x="1167" 
d="M684 1049q201 0 312.5 -103.5t111.5 -290.5q0 -59 -16 -141l-7 -31h-749q-2 -16 -2 -51q0 -117 51.5 -182.5t144.5 -65.5q95 0 168 49t107 134h262q-60 -183 -211 -285t-362 -102q-203 0 -314.5 111.5t-111.5 311.5q0 293 167.5 469.5t448.5 176.5zM647 846
q-109 0 -188 -73.5t-109 -197.5h488q2 14 2 43q0 109 -50.5 168.5t-142.5 59.5z" />
    <glyph glyph-name="f" unicode="f" horiz-adv-x="800" 
d="M807 1382q-96 0 -156.5 -50t-75.5 -140l-28 -164h323l-32 -186h-310l-147 -842h-270l147 842h-156l33 186h402l2 4q-105 17 -164.5 72t-59.5 133q0 166 124.5 263t338.5 97q136 0 238 -51l-72 -203q-58 39 -137 39z" />
    <glyph glyph-name="g" unicode="g" 
d="M893 676l61 352h271l-183 -1040q-40 -226 -197.5 -353t-400.5 -127q-209 0 -326.5 98t-115.5 271l264 39q-3 -91 54 -141.5t161 -50.5q116 0 191.5 65t95.5 182l72 394h-4q-32 -175 -147.5 -274t-285.5 -99q-160 0 -245.5 105t-85.5 294q0 193 64 342.5t182 232.5t272 83
q147 0 227 -73.5t80 -207.5q0 -26 -8 -92h4zM565 207q121 0 206 85.5t110 227.5q8 47 8 84q0 107 -55.5 169.5t-157.5 62.5q-145 0 -233.5 -107t-88.5 -280q0 -115 54.5 -178.5t156.5 -63.5z" />
    <glyph glyph-name="h" unicode="h" horiz-adv-x="1220" 
d="M834 1049q144 0 220 -79.5t76 -226.5q0 -48 -10 -116l-110 -627h-271l109 614q6 30 6 58q0 78 -44 121t-124 43q-107 0 -180 -74t-96 -205l-99 -557h-270l278 1577h271l-162 -909h4q32 180 138.5 280.5t263.5 100.5z" />
    <glyph glyph-name="i" unicode="i" horiz-adv-x="534" 
d="M528 1225h-270l43 256h270zM311 0h-270l182 1028h271z" />
    <glyph glyph-name="j" unicode="j" horiz-adv-x="534" 
d="M528 1225h-270l43 256h270zM227 -471h-270l266 1499h271z" />
    <glyph glyph-name="k" unicode="k" horiz-adv-x="1173" 
d="M911 1028h320l-522 -489l389 -539h-332l-358 526h-5l-92 -526h-270l278 1577h271l-182 -1032h4z" />
    <glyph glyph-name="l" unicode="l" horiz-adv-x="534" 
d="M311 0h-270l278 1577h271z" />
    <glyph glyph-name="m" unicode="m" horiz-adv-x="1875" 
d="M1499 1049q140 0 214.5 -77t74.5 -220q0 -64 -10 -115l-113 -637h-270l112 625q4 40 4 55q0 75 -41.5 115.5t-117.5 40.5q-101 0 -171.5 -71.5t-93.5 -197.5l-98 -567h-270l110 625q7 35 7 55q0 75 -41.5 115.5t-118.5 40.5q-102 0 -171.5 -71t-92.5 -198l-101 -567h-270
l182 1028h271l-64 -356h4q31 178 136 277.5t261 99.5q137 0 210 -73.5t73 -205.5q0 -51 -8 -98h4q32 178 135 277.5t254 99.5z" />
    <glyph glyph-name="n" unicode="n" horiz-adv-x="1220" 
d="M834 1049q144 0 220 -79.5t76 -226.5q0 -48 -10 -116l-110 -627h-271l109 614q6 30 6 58q0 78 -44 121t-124 43q-107 0 -180 -74t-96 -205l-99 -557h-270l182 1028h271l-66 -360h4q32 180 138.5 280.5t263.5 100.5z" />
    <glyph glyph-name="o" unicode="o" horiz-adv-x="1228" 
d="M520 -20q-216 0 -334 113.5t-118 316.5q0 290 174.5 464.5t466.5 174.5q217 0 334.5 -113t117.5 -315q0 -291 -173.5 -466t-467.5 -175zM559 195q148 0 236 108.5t88 286.5q0 117 -54.5 181.5t-156.5 64.5q-147 0 -235.5 -110t-88.5 -286q0 -116 54.5 -180.5t156.5 -64.5
z" />
    <glyph glyph-name="p" unicode="p" 
d="M866 1049q160 0 246 -106.5t86 -297.5q0 -195 -64.5 -346t-183 -235t-272.5 -84q-147 0 -227 73t-80 207q0 50 8 94h-4l-148 -825h-270l266 1499h271l-64 -352h4q31 175 145.5 274t286.5 99zM592 195q147 0 235 108.5t88 286.5q0 116 -55.5 180t-157.5 64
q-120 0 -204 -87.5t-111 -232.5q-6 -35 -6 -84q0 -109 54.5 -172t156.5 -63z" />
    <glyph glyph-name="q" unicode="q" 
d="M893 676l61 352h271l-264 -1499h-271l146 825h-5q-31 -177 -145.5 -275.5t-286.5 -98.5q-158 0 -243.5 106t-85.5 297q0 195 64 346t182.5 235.5t273.5 84.5q147 0 227 -73.5t80 -207.5q0 -26 -8 -92h4zM563 195q123 0 206.5 84t109.5 235q10 58 10 92q0 108 -55.5 168
t-157.5 60q-147 0 -235.5 -109t-88.5 -285q0 -116 55 -180.5t156 -64.5z" />
    <glyph glyph-name="r" unicode="r" horiz-adv-x="878" 
d="M811 1049q90 0 154 -33l-123 -242q-56 37 -135 37q-118 0 -201.5 -91.5t-112.5 -254.5l-82 -465h-270l182 1028h271l-76 -424h4q37 210 139.5 327.5t249.5 117.5z" />
    <glyph glyph-name="s" unicode="s" horiz-adv-x="1071" 
d="M436 -20q-196 0 -302.5 74.5t-106.5 211.5q0 30 6 68h252q-4 -16 -4 -39q0 -68 48.5 -105.5t137.5 -37.5q110 0 172.5 41t62.5 112q0 22 -8 40t-25.5 31t-35.5 22.5t-49 17t-53.5 12t-59.5 10.5q-35 6 -54.5 9.5t-53.5 11t-53.5 14t-48 18t-45.5 24t-36.5 30.5t-30 38.5
t-17.5 48t-7 58.5q0 165 135.5 262t366.5 97q184 0 284.5 -71t100.5 -200q0 -32 -6 -67h-254q4 14 4 39q0 63 -41.5 97t-118.5 34q-92 0 -147.5 -37t-55.5 -99q0 -27 16.5 -46.5t45 -31.5t65 -21t79.5 -17q9 -1 13 -2q155 -27 219 -56q140 -62 140 -204q0 -179 -144 -283
t-391 -104z" />
    <glyph glyph-name="t" unicode="t" horiz-adv-x="815" 
d="M836 842h-322l-86 -496q-2 -14 -2 -35q0 -55 36.5 -85.5t102.5 -30.5q77 0 146 32l-37 -200q-110 -47 -232 -47q-143 0 -220 66t-77 187q0 17 9 78l92 531h-148l33 186h164l61 344h269l-15 -86q-15 -97 -95.5 -164t-209.5 -90l-2 -4h565z" />
    <glyph glyph-name="u" unicode="u" horiz-adv-x="1200" 
d="M791 473l98 555h270l-182 -1028h-270l65 362h-4q-32 -180 -135.5 -281t-255.5 -101q-139 0 -213 79t-74 224q0 54 12 118l111 627h270l-108 -614q-6 -37 -6 -60q0 -77 40.5 -118t116.5 -41q102 0 172 73t93 205z" />
    <glyph glyph-name="v" unicode="v" horiz-adv-x="1130" 
d="M481 18l410 1010h289l-449 -1028h-510l-90 1028h289l57 -1010h4z" />
    <glyph glyph-name="w" unicode="w" horiz-adv-x="1792" 
d="M1196 18l356 1010h281l-395 -1028h-471l18 1010h-4l-336 -1010h-471l-35 1028h289l2 -1010h4l334 1010h444l-20 -1010h4z" />
    <glyph glyph-name="x" unicode="x" horiz-adv-x="1163" 
d="M895 1028h297l-330 -489l185 -539h-308l-153 526h-4l-336 -526h-309l372 539l-155 489h295l137 -483h4z" />
    <glyph glyph-name="y" unicode="y" horiz-adv-x="1130" 
d="M481 18l412 1010h289l-658 -1499h-288l206 471h-221l-88 1028h289l55 -1010h4z" />
    <glyph glyph-name="z" unicode="z" horiz-adv-x="1091" 
d="M1077 1028l-76 -436l-948 -399v-5h916l-33 -188h-944l78 436l946 402l2 4h-864l30 186h893z" />
    <glyph glyph-name="braceleft" unicode="{" horiz-adv-x="536" 
d="M268 774l101 572q19 104 98.5 167.5t191.5 63.5l-16 -94q-65 0 -113.5 -42t-58.5 -108l-100 -571q-27 -154 -178 -209q108 -47 108 -162q0 -24 -4 -49l-102 -569q-2 -12 -2 -33q0 -53 33 -85t89 -32l-18 -94q-98 0 -154.5 50t-56.5 136q0 27 4 45l98 570q5 31 5 43
q0 63 -39 97t-111 34l4 24l12 72q85 0 140.5 45.5t68.5 128.5z" />
    <glyph glyph-name="bar" unicode="|" horiz-adv-x="421" 
d="M88 -471h-104l362 2048h105z" />
    <glyph glyph-name="braceright" unicode="}" horiz-adv-x="536" 
d="M356 731q0 -63 39.5 -97t112.5 -34l-16 -96q-85 0 -140.5 -45.5t-70.5 -128.5l-99 -570q-19 -104 -99.5 -167.5t-191.5 -63.5l17 94q64 0 112 42t60 108l100 569q27 154 178 209q-106 47 -106 162q0 24 4 49l98 571q4 24 4 33q0 53 -32 85t-88 32l16 94q98 0 154.5 -50
t56.5 -136q0 -25 -4 -45l-101 -572q-4 -40 -4 -43z" />
    <glyph glyph-name="asciitilde" unicode="~" horiz-adv-x="1181" 
d="M178 375h-90q26 126 103.5 196t191.5 70q64 0 115.5 -17t86 -41t67 -48t75 -41t92.5 -17q65 0 114 46t71 126h88q-28 -127 -104.5 -196.5t-190.5 -69.5q-64 0 -115.5 17t-86.5 41t-68 48t-76 41t-93 17q-65 0 -112.5 -46t-67.5 -126z" />
    <glyph glyph-name="uni00A0" unicode="&#xa0;" horiz-adv-x="444" 
 />
    <glyph glyph-name="exclamdown" unicode="&#xa1;" horiz-adv-x="559" 
d="M471 739h-303l51 289h301zM246 -471h-279l193 1032h258z" />
    <glyph glyph-name="cent" unicode="&#xa2;" horiz-adv-x="1193" 
d="M774 1081l-110 -630q73 13 130 63.5t93 130.5h266q-60 -184 -197 -291t-331 -121l-41 -233h-103l41 233q-192 12 -294.5 123.5t-102.5 302.5q0 278 158.5 451t425.5 188l39 218h102l-39 -218q178 -13 276.5 -116.5t104.5 -282.5h-266q-8 76 -46.5 123t-105.5 59zM403 688
q0 -98 40.5 -160t117.5 -77l111 630q-124 -20 -196.5 -126.5t-72.5 -266.5z" />
    <glyph glyph-name="sterling" unicode="&#xa3;" horiz-adv-x="1306" 
d="M1309 999h-273q2 18 2 50q0 104 -57 162.5t-158 58.5q-120 0 -190 -64t-70 -172q0 -40 13 -88.5t33.5 -108.5t29.5 -94h401l-16 -100h-369v-2q0 -150 -140 -257.5t-423 -160.5v-4h1094l-39 -219h-1153l37 209q79 38 138 82.5t92.5 85.5t53.5 87t26.5 83t6.5 78v18h-209
l17 100h172q-5 18 -21 68.5t-24 78t-15.5 70t-7.5 76.5q0 207 162 333t438 126q216 0 333.5 -109.5t117.5 -308.5q0 -51 -2 -78z" />
    <glyph glyph-name="currency" unicode="&#xa4;" horiz-adv-x="1116" 
d="M1114 1079l-145 -125q39 -71 39 -178q0 -222 -125 -360l92 -115l-80 -70l-94 115q-119 -78 -287 -78q-160 0 -252 86l-143 -121l-56 68l146 125q-39 71 -39 178q0 220 123 359l-92 114l80 72l94 -117q122 80 287 80q162 0 251 -86l146 121zM530 358q170 0 271.5 110
t101.5 292q0 124 -67 193t-189 69q-170 0 -271.5 -109.5t-101.5 -291.5q0 -124 66.5 -193.5t189.5 -69.5z" />
    <glyph glyph-name="yen" unicode="&#xa5;" horiz-adv-x="1536" 
d="M1352 1516h307l-588 -906h258l-16 -94h-303l-80 -125h362l-18 -94h-406l-192 -297h-305l190 297h-371l19 94h412l79 125h-469l17 94h239l-266 906h326l246 -889h4z" />
    <glyph glyph-name="brokenbar" unicode="&#xa6;" horiz-adv-x="421" 
d="M305 758h-104l145 819h105zM88 -471h-104l145 819h104z" />
    <glyph glyph-name="section" unicode="&#xa7;" horiz-adv-x="1421" 
d="M1391 1110h-279v43q0 104 -72.5 161.5t-205.5 57.5q-142 0 -224 -51t-82 -139q0 -71 75.5 -110.5t211.5 -39.5q252 0 390 -104t138 -291q0 -230 -156.5 -374t-430.5 -169v-4q218 0 336 -57.5t118 -163.5q0 -166 -180.5 -263.5t-492.5 -97.5q-261 0 -405 117.5t-144 329.5
q0 19 4 65h280q-2 -12 -2 -38q0 -119 81.5 -183.5t230.5 -64.5q165 0 259.5 54.5t94.5 148.5q0 73 -75 113t-212 40q-252 0 -390 104t-138 291q0 230 157 374t433 169v4q-218 0 -338.5 57t-120.5 158q0 159 165.5 254.5t450.5 95.5q250 0 387.5 -112.5t137.5 -315.5
q0 -32 -2 -59zM1053 600q0 97 -73 152t-204 55q-166 0 -264 -76.5t-98 -208.5q0 -98 72 -152.5t204 -54.5q167 0 265 77t98 208z" />
    <glyph glyph-name="dieresis" unicode="&#xa8;" horiz-adv-x="913" 
d="M514 1225h-252l43 256h252zM903 1225h-252l43 256h252z" />
    <glyph glyph-name="copyright" unicode="&#xa9;" horiz-adv-x="1728" 
d="M770 -20q-311 0 -480 164t-169 458q0 280 112.5 491.5t321.5 327t489 115.5q312 0 482 -164.5t170 -458.5q0 -280 -113 -491.5t-323 -326.5t-490 -115zM786 72q242 0 424.5 101.5t281.5 288.5t99 435q0 258 -146.5 402.5t-416.5 144.5q-368 0 -586.5 -225t-218.5 -601
q0 -258 146.5 -402t416.5 -144zM848 387q-136 0 -210.5 78t-74.5 215q0 205 114 330t302 125q126 0 198 -69t78 -192h-98q-6 81 -56.5 125.5t-135.5 44.5q-136 0 -216.5 -96t-80.5 -252q0 -104 51 -161.5t145 -57.5q89 0 157 46.5t103 131.5h99q-44 -126 -143 -197t-232 -71
z" />
    <glyph glyph-name="ordfeminine" unicode="&#xaa;" horiz-adv-x="849" 
d="M680 1298l37 218h188l-108 -621h-189l39 217h-2q-20 -107 -88.5 -168t-169.5 -61q-93 0 -143.5 63t-50.5 178q0 178 85 291t224 113q88 0 135 -45.5t47 -128.5q0 -29 -6 -56h2zM504 1030q65 0 110.5 48.5t57.5 125.5q6 27 6 47q0 59 -29 93t-84 34q-79 0 -127.5 -59.5
t-48.5 -155.5q0 -63 30 -98t85 -35z" />
    <glyph glyph-name="guillemotleft" unicode="&#xab;" horiz-adv-x="890" 
d="M375 117h-111l-192 395l331 395h111l-328 -395zM731 117h-110l-193 395l332 395h110l-327 -395z" />
    <glyph glyph-name="logicalnot" unicode="&#xac;" horiz-adv-x="1083" 
d="M131 621l14 88h842l-69 -406h-103l55 318h-739z" />
    <glyph glyph-name="uni00AD" unicode="&#xad;" horiz-adv-x="858" 
d="M733 477h-620l16 90h621z" />
    <glyph glyph-name="registered" unicode="&#xae;" horiz-adv-x="991" 
d="M686 1597q166 0 257 -85.5t91 -237.5q0 -217 -132.5 -347t-356.5 -130q-168 0 -259 85t-91 238q0 216 133 346.5t358 130.5zM557 866q181 0 290 107.5t109 286.5q0 125 -74 195.5t-210 70.5q-181 0 -289.5 -107t-108.5 -286q0 -126 74 -196.5t209 -70.5zM489 1401h181
q63 0 97 -26.5t34 -76.5q0 -66 -47 -104.5t-127 -38.5v-4q67 0 86 -45l49 -109h-82l-66 154h-94l-26 -154h-76l61 342h-2zM530 1208h105q40 0 63 21.5t23 56.5q0 53 -64 53h-104z" />
    <glyph glyph-name="macron" unicode="&#xaf;" horiz-adv-x="737" 
d="M829 1257h-659l33 191h659z" />
    <glyph glyph-name="degree" unicode="&#xb0;" horiz-adv-x="692" 
d="M444 1085q-113 0 -175 55t-62 154q0 138 89 220.5t241 82.5q112 0 173.5 -54.5t61.5 -153.5q0 -138 -89 -221t-239 -83zM467 1223q60 0 95.5 39t35.5 104q0 45 -23 69.5t-65 24.5q-58 0 -93.5 -39t-35.5 -104q0 -44 22.5 -69t63.5 -25z" />
    <glyph glyph-name="plusminus" unicode="&#xb1;" horiz-adv-x="1058" 
d="M672 1034l-58 -321h371l-16 -90h-369l-57 -320h-103l58 320h-371l16 90h369l57 321h103zM870 57h-841l16 90h842z" />
    <glyph glyph-name="uni00B2" unicode="&#xb2;" horiz-adv-x="778" 
d="M158 887v-4h639l-27 -150h-682l25 144q251 89 394.5 224.5t143.5 284.5q0 53 -25 83t-69 30q-58 0 -102 -47.5t-64 -132.5h-190q38 158 140 247t247 89q132 0 204 -66t72 -184q0 -211 -188.5 -348.5t-517.5 -169.5z" />
    <glyph glyph-name="uni00B3" unicode="&#xb3;" horiz-adv-x="774" 
d="M862 1481q0 -99 -93 -156t-253 -57v-4q139 0 216 -58.5t77 -161.5q0 -148 -108 -235.5t-293 -87.5q-133 0 -207 68.5t-74 191.5q0 9 4 45h188q0 -5 -1 -15.5t-1 -15.5q0 -58 30.5 -89.5t88.5 -31.5q76 0 122 41t46 109q0 51 -35 78.5t-98 27.5h-22l22 136q83 6 129.5 44
t46.5 101q0 43 -26.5 66.5t-75.5 23.5q-55 0 -96 -40t-58 -111h-184q37 143 137 224t244 81q129 0 201.5 -48t72.5 -126z" />
    <glyph glyph-name="acute" unicode="&#xb4;" horiz-adv-x="530" 
d="M655 1389l-448 -205l-49 141l440 221z" />
    <glyph glyph-name="paragraph" unicode="&#xb6;" horiz-adv-x="1533" 
d="M1534 1577l-363 -2048h-217l326 1845h-289l-325 -1845h-217l325 1845q-170 0 -271.5 -85t-101.5 -226q0 -85 48 -139t135 -66l-41 -225q-188 15 -290.5 118t-102.5 273q0 254 178 403.5t483 149.5h723z" />
    <glyph glyph-name="periodcentered" unicode="&#xb7;" horiz-adv-x="536" 
d="M397 393h-301l49 291h304z" />
    <glyph glyph-name="cedilla" unicode="&#xb8;" horiz-adv-x="593" 
d="M74 -492q-111 0 -195 43l21 113q63 -47 155 -47q76 0 120 27.5t44 74.5q0 29 -21 45.5t-57 16.5q-67 0 -110 -43l-76 67q47 38 114 61t132 23q96 0 148 -38.5t52 -108.5q0 -108 -87.5 -171t-239.5 -63z" />
    <glyph glyph-name="uni00B9" unicode="&#xb9;" horiz-adv-x="518" 
d="M416 1642h194l-159 -909h-195l152 862h-5q-23 -126 -84 -196t-147 -70l31 172q89 0 145 37t68 104z" />
    <glyph glyph-name="ordmasculine" unicode="&#xba;" horiz-adv-x="811" 
d="M469 883q-134 0 -207.5 68.5t-73.5 191.5q0 175 107.5 280t288.5 105q133 0 205.5 -68.5t72.5 -193.5q0 -174 -107 -278.5t-286 -104.5zM496 1030q78 0 126 59.5t48 155.5q0 64 -29 98.5t-84 34.5q-79 0 -127.5 -59.5t-48.5 -155.5q0 -63 30 -98t85 -35z" />
    <glyph glyph-name="guillemotright" unicode="&#xbb;" horiz-adv-x="892" 
d="M131 117h-108l327 395l-188 395h108l193 -395zM487 117h-108l328 395l-189 395h109l192 -395z" />
    <glyph glyph-name="onequarter" unicode="&#xbc;" horiz-adv-x="1783" 
d="M426 1493h-4q-23 -126 -84.5 -196t-147.5 -70l31 172q88 0 144.5 37t66.5 104h197l-160 -909h-197zM127 33l1272 1503l63 -53l-1272 -1503zM1579 352h121l-27 -149h-121l-34 -203h-195l35 203h-426l29 159l356 547h360zM1481 893l-344 -537v-4h254l94 541h-4z" />
    <glyph glyph-name="onehalf" unicode="&#xbd;" horiz-adv-x="1748" 
d="M424 1493h-4q-23 -126 -84.5 -196t-147.5 -70l31 172q88 0 144.5 37t66.5 104h197l-160 -909h-197zM125 33l1272 1503l63 -53l-1272 -1503zM979 154v-4h639l-25 -150h-684l27 143q250 90 393.5 225.5t143.5 284.5q0 53 -25.5 83t-69.5 30q-58 0 -102 -47.5t-64 -132.5
h-190q38 158 140 247t247 89q133 0 205 -66t72 -184q0 -211 -189 -348.5t-518 -169.5z" />
    <glyph glyph-name="threequarters" unicode="&#xbe;" horiz-adv-x="2027" 
d="M815 942q0 -148 -109 -236t-294 -88q-132 0 -205.5 69t-73.5 192q0 27 2 45h189v-31q0 -58 30 -89.5t86 -31.5q77 0 122.5 41t45.5 109q0 51 -34.5 78.5t-98.5 27.5h-20l22 135q82 6 129 44.5t47 101.5q0 43 -27.5 66.5t-76.5 23.5q-55 0 -95 -40.5t-57 -111.5h-186
q37 143 137 224t244 81q129 0 201.5 -48t72.5 -126q0 -100 -92.5 -156.5t-253.5 -56.5v-4q140 0 217.5 -58t77.5 -161zM373 33l1272 1503l63 -53l-1272 -1503zM1825 352h121l-27 -149h-121l-35 -203h-194l35 203h-426l28 159l357 547h360zM1726 893l-344 -537v-4h254l95 541
h-5z" />
    <glyph glyph-name="questiondown" unicode="&#xbf;" horiz-adv-x="1120" 
d="M803 739h-301l49 289h303zM387 -492q-207 0 -318.5 92.5t-111.5 256.5q0 163 138.5 344t385.5 360h258v-4q-222 -174 -348.5 -345t-126.5 -304q0 -81 45 -127.5t127 -46.5q101 0 175.5 72t103.5 198h268q-57 -234 -214 -365t-382 -131z" />
    <glyph glyph-name="Agrave" unicode="&#xc0;" horiz-adv-x="1468" 
d="M782 2032l365 -220l-100 -141l-377 205zM1364 0h-301l-39 367h-647l-170 -367h-283l738 1516h499zM897 1491l-420 -905h522l-98 905h-4z" />
    <glyph glyph-name="Aacute" unicode="&#xc1;" horiz-adv-x="1468" 
d="M1221 2032l55 -156l-447 -205l-51 141zM1364 0h-301l-39 367h-647l-170 -367h-283l738 1516h499zM897 1491l-420 -905h522l-98 905h-4z" />
    <glyph glyph-name="Acircumflex" unicode="&#xc2;" horiz-adv-x="1468" 
d="M993 1985h-4l-203 -328h-208l233 350h373l108 -350h-207zM1364 0h-301l-39 367h-647l-170 -367h-283l738 1516h499zM897 1491l-420 -905h522l-98 905h-4z" />
    <glyph glyph-name="Atilde" unicode="&#xc3;" horiz-adv-x="1468" 
d="M803 1812q-44 0 -77 -30t-48 -84h-119q28 146 107.5 227.5t195.5 81.5q45 0 86 -16.5t66 -35.5t58 -35.5t65 -16.5q44 0 78 30t47 82h120q-29 -147 -108.5 -228t-196.5 -81q-45 0 -85.5 16.5t-65.5 36.5t-58 36.5t-65 16.5zM-76 0l738 1516h499l203 -1516h-301l-39 367
h-647l-170 -367h-283zM897 1491l-420 -905h522l-98 905h-4z" />
    <glyph glyph-name="Adieresis" unicode="&#xc4;" horiz-adv-x="1468" 
d="M668 1966h254l-45 -256h-252zM1057 1966h254l-43 -256h-254zM1364 0h-301l-39 367h-647l-170 -367h-283l738 1516h499zM897 1491l-420 -905h522l-98 905h-4z" />
    <glyph glyph-name="Aring" unicode="&#xc5;" horiz-adv-x="1468" 
d="M928 1620q-108 0 -168 52t-60 145q0 129 85 206.5t229 77.5q108 0 167.5 -52.5t59.5 -145.5q0 -129 -84.5 -206t-228.5 -77zM991 1974q-61 0 -96 -37.5t-35 -99.5q0 -43 23 -67.5t67 -24.5q60 0 95.5 38t35.5 101q0 43 -23.5 66.5t-66.5 23.5zM1364 0h-301l-39 367h-647
l-170 -367h-283l738 1516h499zM897 1491l-420 -905h522l-98 905h-4z" />
    <glyph glyph-name="AE" unicode="&#xc6;" horiz-adv-x="2236" 
d="M2312 1516l-37 -220h-932v-417h787l-39 -220h-750v-440h766l-39 -219h-1028l11 367h-637l-217 -367h-295l925 1516h1485zM1079 1491l-536 -905h514l26 905h-4z" />
    <glyph glyph-name="Ccedilla" unicode="&#xc7;" horiz-adv-x="1509" 
d="M696 -20q-278 0 -427.5 160.5t-149.5 449.5q0 281 104.5 495.5t298 332.5t449.5 118q262 0 406.5 -142.5t144.5 -396.5q0 -9 -1 -27.5t-1 -27.5h-271v19q0 166 -83 258t-232 92q-233 0 -376.5 -193.5t-143.5 -499.5q0 -196 83 -304.5t240 -108.5q153 0 270 98.5
t179 276.5h270q-86 -282 -287.5 -441t-472.5 -159zM580 -492q-111 0 -195 43l21 113q63 -47 155 -47q76 0 119 27.5t43 74.5q0 29 -20.5 45.5t-57.5 16.5q-65 0 -108 -43l-76 67q47 38 113.5 61t132.5 23q96 0 148 -38.5t52 -108.5q0 -108 -87.5 -171t-239.5 -63z" />
    <glyph glyph-name="Egrave" unicode="&#xc8;" horiz-adv-x="1325" 
d="M745 2032l365 -220l-100 -141l-377 205zM1403 1516l-39 -220h-774l-72 -409h703l-37 -219h-705l-80 -449h799l-39 -219h-1081l266 1516h1059z" />
    <glyph glyph-name="Eacute" unicode="&#xc9;" horiz-adv-x="1325" 
d="M1184 2032l55 -156l-448 -205l-50 141zM1403 1516l-39 -220h-774l-72 -409h703l-37 -219h-705l-80 -449h799l-39 -219h-1081l266 1516h1059z" />
    <glyph glyph-name="Ecircumflex" unicode="&#xca;" horiz-adv-x="1325" 
d="M956 1985h-4l-202 -328h-209l231 350h373l110 -350h-208zM1403 1516l-39 -220h-774l-72 -409h703l-37 -219h-705l-80 -449h799l-39 -219h-1081l266 1516h1059z" />
    <glyph glyph-name="Edieresis" unicode="&#xcb;" horiz-adv-x="1325" 
d="M631 1966h252l-43 -256h-252zM1020 1966h254l-45 -256h-252zM1403 1516l-39 -220h-774l-72 -409h703l-37 -219h-705l-80 -449h799l-39 -219h-1081l266 1516h1059z" />
    <glyph glyph-name="Igrave" unicode="&#xcc;" horiz-adv-x="618" 
d="M725 1812l-102 -141l-377 205l114 156zM360 0h-282l266 1516h283z" />
    <glyph glyph-name="Iacute" unicode="&#xcd;" horiz-adv-x="618" 
d="M854 1876l-448 -205l-52 141l443 220zM360 0h-282l266 1516h283z" />
    <glyph glyph-name="Icircumflex" unicode="&#xce;" horiz-adv-x="618" 
d="M760 2007l110 -350h-208l-91 328h-4l-205 -328h-208l233 350h373zM360 0h-282l266 1516h283z" />
    <glyph glyph-name="Idieresis" unicode="&#xcf;" horiz-adv-x="618" 
d="M455 1710h-254l43 256h254zM844 1710h-254l45 256h252zM360 0h-282l266 1516h283z" />
    <glyph glyph-name="Eth" unicode="&#xd0;" horiz-adv-x="1525" 
d="M358 1516h490q309 0 477 -160.5t168 -448.5q0 -272 -111.5 -477.5t-318 -317.5t-481.5 -112h-490l127 725h-162l17 90h162zM414 219h223q254 0 407.5 182.5t153.5 479.5q0 197 -96 306t-275 109h-223l-86 -481h291l-16 -90h-289z" />
    <glyph glyph-name="Ntilde" unicode="&#xd1;" horiz-adv-x="1550" 
d="M848 1812q-45 0 -78.5 -30t-46.5 -84h-121q29 147 108.5 228t196.5 81q45 0 86 -16.5t65.5 -35.5t57 -35.5t64.5 -16.5q44 0 78 30t49 82h118q-28 -146 -107.5 -227.5t-195.5 -81.5q-45 0 -86 16.5t-66 36.5t-57.5 36.5t-64.5 16.5zM1040 25l250 1491h269l-267 -1516
h-467l-221 1491h-4l-252 -1491h-270l266 1516h471l221 -1491h4z" />
    <glyph glyph-name="Ograve" unicode="&#xd2;" horiz-adv-x="1593" 
d="M1210 1812l-100 -141l-377 205l113 156zM702 -20q-280 0 -431.5 161t-151.5 449q0 281 105 495.5t300 332.5t453 118q280 0 432 -160.5t152 -449.5q0 -281 -105 -495.5t-300.5 -332.5t-453.5 -118zM743 205q155 0 274.5 88t184 245t64.5 359q0 195 -85.5 304.5
t-242.5 109.5t-276.5 -88.5t-183.5 -245.5t-64 -359q0 -196 84.5 -304.5t244.5 -108.5z" />
    <glyph glyph-name="Oacute" unicode="&#xd3;" horiz-adv-x="1593" 
d="M1339 1876l-448 -205l-49 141l442 220zM702 -20q-280 0 -431.5 161t-151.5 449q0 281 105 495.5t300 332.5t453 118q280 0 432 -160.5t152 -449.5q0 -281 -105 -495.5t-300.5 -332.5t-453.5 -118zM743 205q155 0 274.5 88t184 245t64.5 359q0 195 -85.5 304.5
t-242.5 109.5t-276.5 -88.5t-183.5 -245.5t-64 -359q0 -196 84.5 -304.5t244.5 -108.5z" />
    <glyph glyph-name="Ocircumflex" unicode="&#xd4;" horiz-adv-x="1593" 
d="M1057 1985h-4l-203 -328h-209l231 350h373l111 -350h-209zM977 1536q280 0 432 -160.5t152 -449.5q0 -281 -105 -495.5t-300.5 -332.5t-453.5 -118q-280 0 -431.5 161t-151.5 449q0 281 105 495.5t300 332.5t453 118zM743 205q155 0 274.5 88t184 245t64.5 359
q0 195 -85.5 304.5t-242.5 109.5t-276.5 -88.5t-183.5 -245.5t-64 -359q0 -196 84.5 -304.5t244.5 -108.5z" />
    <glyph glyph-name="Otilde" unicode="&#xd5;" horiz-adv-x="1593" 
d="M741 1698h-118q28 146 107.5 227.5t195.5 81.5q45 0 86 -16.5t66 -35.5t57.5 -35.5t64.5 -16.5q44 0 77 29.5t48 82.5h119q-28 -146 -107.5 -227.5t-195.5 -81.5q-45 0 -86 16.5t-66 36.5t-58 36.5t-65 16.5q-45 0 -78.5 -30t-46.5 -84zM702 -20q-280 0 -431.5 161
t-151.5 449q0 281 105 495.5t300 332.5t453 118q280 0 432 -160.5t152 -449.5q0 -281 -105 -495.5t-300.5 -332.5t-453.5 -118zM743 205q155 0 274.5 88t184 245t64.5 359q0 195 -85.5 304.5t-242.5 109.5t-276.5 -88.5t-183.5 -245.5t-64 -359q0 -196 84.5 -304.5
t244.5 -108.5z" />
    <glyph glyph-name="Odieresis" unicode="&#xd6;" horiz-adv-x="1593" 
d="M940 1710h-252l43 256h252zM1329 1710h-252l43 256h254zM702 -20q-280 0 -431.5 161t-151.5 449q0 281 105 495.5t300 332.5t453 118q280 0 432 -160.5t152 -449.5q0 -281 -105 -495.5t-300.5 -332.5t-453.5 -118zM743 205q155 0 274.5 88t184 245t64.5 359
q0 195 -85.5 304.5t-242.5 109.5t-276.5 -88.5t-183.5 -245.5t-64 -359q0 -196 84.5 -304.5t244.5 -108.5z" />
    <glyph glyph-name="multiply" unicode="&#xd7;" horiz-adv-x="940" 
d="M842 879l57 -70l-360 -305l252 -305l-84 -70l-252 305l-361 -305l-55 68l360 305l-254 307l82 70l254 -308z" />
    <glyph glyph-name="Oslash" unicode="&#xd8;" horiz-adv-x="1593" 
d="M1524 1540l-123 -156q160 -160 160 -458q0 -281 -105 -495.5t-300.5 -332.5t-453.5 -118q-207 0 -344 90l-118 -150l-86 55l125 158q-160 160 -160 457q0 281 105 495.5t300 332.5t453 118q207 0 344 -90l119 149zM414 618q0 -152 51 -251l686 866q-81 78 -213 78
q-157 0 -276.5 -88.5t-183.5 -245.5t-64 -359zM743 205q155 0 274.5 88t184 245t64.5 359q0 148 -52 252l-688 -866q84 -78 217 -78z" />
    <glyph glyph-name="Ugrave" unicode="&#xd9;" horiz-adv-x="1497" 
d="M1169 1812l-102 -141l-375 205l113 156zM653 -20q-243 0 -375.5 112.5t-132.5 315.5q0 57 13 127l172 981h282l-174 -996q-8 -41 -8 -74q0 -116 70 -178.5t200 -62.5q152 0 251.5 83t125.5 232l174 996h269l-172 -981q-46 -261 -230 -408t-465 -147z" />
    <glyph glyph-name="Uacute" unicode="&#xda;" horiz-adv-x="1497" 
d="M1298 1876l-448 -205l-51 141l442 220zM653 -20q-243 0 -375.5 112.5t-132.5 315.5q0 57 13 127l172 981h282l-174 -996q-8 -41 -8 -74q0 -116 70 -178.5t200 -62.5q152 0 251.5 83t125.5 232l174 996h269l-172 -981q-46 -261 -230 -408t-465 -147z" />
    <glyph glyph-name="Ucircumflex" unicode="&#xdb;" horiz-adv-x="1497" 
d="M1016 1985h-4l-205 -328h-207l231 350h373l111 -350h-209zM1077 520l174 996h269l-172 -981q-46 -261 -230 -408t-465 -147q-243 0 -375.5 112.5t-132.5 315.5q0 57 13 127l172 981h282l-174 -996q-8 -41 -8 -74q0 -116 70 -178.5t200 -62.5q152 0 251.5 83t125.5 232z
" />
    <glyph glyph-name="Udieresis" unicode="&#xdc;" horiz-adv-x="1497" 
d="M899 1710h-254l45 256h252zM1288 1710h-252l43 256h252zM653 -20q-243 0 -375.5 112.5t-132.5 315.5q0 57 13 127l172 981h282l-174 -996q-8 -41 -8 -74q0 -116 70 -178.5t200 -62.5q152 0 251.5 83t125.5 232l174 996h269l-172 -981q-46 -261 -230 -408t-465 -147z" />
    <glyph glyph-name="Yacute" unicode="&#xdd;" horiz-adv-x="1431" 
d="M1231 2032l55 -156l-446 -205l-52 141zM766 627l555 889h305l-981 -1516h-305l383 602h-264l-269 914h326l246 -889h4z" />
    <glyph glyph-name="Thorn" unicode="&#xde;" horiz-adv-x="1363" 
d="M582 1255h280q229 0 355 -106t126 -295q0 -260 -177 -415.5t-476 -155.5h-280l-50 -283h-282l266 1516h283zM449 504h292q139 0 222.5 87.5t83.5 233.5q0 99 -55 154t-156 55h-293z" />
    <glyph glyph-name="germandbls" unicode="&#xdf;" horiz-adv-x="1300" 
d="M729 965v-4q237 0 366.5 -106t129.5 -294q0 -261 -159 -421t-427 -160q-109 0 -186 24l36 203q66 -12 119 -12q157 0 249.5 97t92.5 255q0 112 -69 175.5t-195 63.5h-57l30 179q139 6 220.5 74.5t81.5 181.5q0 76 -44.5 118.5t-125.5 42.5q-110 0 -184.5 -63.5
t-94.5 -175.5l-201 -1143h-270l201 1133q38 219 193 341.5t392 122.5q203 0 314.5 -72.5t111.5 -203.5q0 -166 -140.5 -261t-383.5 -95z" />
    <glyph glyph-name="agrave" unicode="&#xe0;" 
d="M584 1546l364 -221l-100 -141l-377 205zM893 676l61 352h271l-181 -1028h-270l62 354h-5q-31 -177 -145.5 -275.5t-286.5 -98.5q-158 0 -243.5 106t-85.5 297q0 195 64.5 346.5t183 235.5t272.5 84q147 0 227 -73.5t80 -207.5q0 -26 -8 -92h4zM563 195q121 0 206 88
t110 231q10 58 10 88q0 108 -56 171t-157 63q-147 0 -235.5 -110t-88.5 -286q0 -116 55 -180.5t156 -64.5z" />
    <glyph glyph-name="aacute" unicode="&#xe1;" 
d="M1022 1546l55 -157l-448 -205l-49 141zM893 676l61 352h271l-181 -1028h-270l62 354h-5q-31 -177 -145.5 -275.5t-286.5 -98.5q-158 0 -243.5 106t-85.5 297q0 195 64.5 346.5t183 235.5t272.5 84q147 0 227 -73.5t80 -207.5q0 -26 -8 -92h4zM563 195q121 0 206 88
t110 231q10 58 10 88q0 108 -56 171t-157 63q-147 0 -235.5 -110t-88.5 -286q0 -116 55 -180.5t156 -64.5z" />
    <glyph glyph-name="acircumflex" unicode="&#xe2;" 
d="M795 1497h-4l-203 -328h-209l231 353h373l111 -353h-209zM893 676l61 352h271l-181 -1028h-270l62 354h-5q-31 -177 -145.5 -275.5t-286.5 -98.5q-158 0 -243.5 106t-85.5 297q0 195 64.5 346.5t183 235.5t272.5 84q147 0 227 -73.5t80 -207.5q0 -26 -8 -92h4zM563 195
q121 0 206 88t110 231q10 58 10 88q0 108 -56 171t-157 63q-147 0 -235.5 -110t-88.5 -286q0 -116 55 -180.5t156 -64.5z" />
    <glyph glyph-name="atilde" unicode="&#xe3;" 
d="M604 1325q-44 0 -78 -30.5t-47 -82.5h-119q28 146 108 228t196 82q45 0 86 -16.5t66 -37t57.5 -37t64.5 -16.5q44 0 77 30.5t48 84.5h119q-28 -146 -107.5 -227.5t-195.5 -81.5q-45 0 -86 16.5t-66 35.5t-58 35.5t-65 16.5zM893 676l61 352h271l-181 -1028h-270l62 354
h-5q-31 -177 -145.5 -275.5t-286.5 -98.5q-158 0 -243.5 106t-85.5 297q0 195 64.5 346.5t183 235.5t272.5 84q147 0 227 -73.5t80 -207.5q0 -26 -8 -92h4zM563 195q121 0 206 88t110 231q10 58 10 88q0 108 -56 171t-157 63q-147 0 -235.5 -110t-88.5 -286
q0 -116 55 -180.5t156 -64.5z" />
    <glyph glyph-name="adieresis" unicode="&#xe4;" 
d="M469 1481h252l-43 -256h-252zM858 1481h254l-45 -256h-252zM893 676l61 352h271l-181 -1028h-270l62 354h-5q-31 -177 -145.5 -275.5t-286.5 -98.5q-158 0 -243.5 106t-85.5 297q0 195 64.5 346.5t183 235.5t272.5 84q147 0 227 -73.5t80 -207.5q0 -26 -8 -92h4zM563 195
q121 0 206 88t110 231q10 58 10 88q0 108 -56 171t-157 63q-147 0 -235.5 -110t-88.5 -286q0 -116 55 -180.5t156 -64.5z" />
    <glyph glyph-name="aring" unicode="&#xe5;" 
d="M729 1133q-108 0 -167.5 52.5t-59.5 145.5q0 129 84.5 206t228.5 77q108 0 167.5 -52t59.5 -145q0 -130 -84.5 -207t-228.5 -77zM791 1489q-60 0 -94.5 -38t-34.5 -101q0 -43 23 -66.5t67 -23.5q60 0 94.5 37.5t34.5 99.5q0 43 -23 67.5t-67 24.5zM893 676l61 352h271
l-181 -1028h-270l62 354h-5q-31 -177 -145.5 -275.5t-286.5 -98.5q-158 0 -243.5 106t-85.5 297q0 195 64.5 346.5t183 235.5t272.5 84q147 0 227 -73.5t80 -207.5q0 -26 -8 -92h4zM563 195q121 0 206 88t110 231q10 58 10 88q0 108 -56 171t-157 63q-147 0 -235.5 -110
t-88.5 -286q0 -116 55 -180.5t156 -64.5z" />
    <glyph glyph-name="ae" unicode="&#xe6;" horiz-adv-x="1943" 
d="M1573 1049q151 0 233 -94.5t82 -266.5q0 -84 -20 -174l-6 -31h-746q-6 -38 -6 -69q0 -110 51.5 -170t147.5 -60q93 0 165.5 49t106.5 134h262q-54 -183 -175.5 -285t-283.5 -102q-136 0 -210 70t-74 198q0 26 8 92h-4l-60 -340h-270l62 354h-5q-31 -177 -145.5 -275.5
t-286.5 -98.5q-158 0 -243.5 106t-85.5 297q0 195 64.5 346.5t183 235.5t272.5 84q147 0 227 -73.5t80 -207.5q0 -26 -8 -92h4l61 352h271l-60 -340h4q31 170 137.5 265.5t266.5 95.5zM1423 846q-103 0 -178.5 -71t-109.5 -200h479q2 14 2 43q0 109 -50 168.5t-143 59.5z
M563 195q121 0 206 88t110 231q10 58 10 88q0 108 -56 171t-157 63q-147 0 -235.5 -110t-88.5 -286q0 -116 55 -180.5t156 -64.5z" />
    <glyph glyph-name="ccedilla" unicode="&#xe7;" horiz-adv-x="1175" 
d="M516 -20q-215 0 -331.5 113t-116.5 317q0 289 173.5 464t463.5 175q200 0 313 -105.5t119 -296.5h-267q-9 90 -60.5 139.5t-141.5 49.5q-145 0 -232.5 -111t-87.5 -287q0 -115 53.5 -179t153.5 -64q93 0 163.5 52t112.5 148h267q-65 -198 -216.5 -306.5t-365.5 -108.5z
M397 -492q-110 0 -194 43l20 113q63 -47 158 -47q75 0 118.5 27.5t43.5 74.5q0 29 -20.5 45.5t-57.5 16.5q-65 0 -111 -43l-73 67q46 38 112 61t131 23q96 0 148.5 -39t52.5 -108q0 -108 -88 -171t-240 -63z" />
    <glyph glyph-name="egrave" unicode="&#xe8;" horiz-adv-x="1167" 
d="M553 1546l365 -221l-101 -141l-377 205zM684 1049q201 0 312.5 -103.5t111.5 -290.5q0 -59 -16 -141l-7 -31h-749q-2 -16 -2 -51q0 -117 51.5 -182.5t144.5 -65.5q95 0 168 49t107 134h262q-60 -183 -211 -285t-362 -102q-203 0 -314.5 111.5t-111.5 311.5
q0 293 167.5 469.5t448.5 176.5zM647 846q-109 0 -188 -73.5t-109 -197.5h488q2 14 2 43q0 109 -50.5 168.5t-142.5 59.5z" />
    <glyph glyph-name="eacute" unicode="&#xe9;" horiz-adv-x="1167" 
d="M991 1546l56 -157l-449 -205l-49 141zM684 1049q201 0 312.5 -103.5t111.5 -290.5q0 -59 -16 -141l-7 -31h-749q-2 -16 -2 -51q0 -117 51.5 -182.5t144.5 -65.5q95 0 168 49t107 134h262q-60 -183 -211 -285t-362 -102q-203 0 -314.5 111.5t-111.5 311.5
q0 293 167.5 469.5t448.5 176.5zM647 846q-109 0 -188 -73.5t-109 -197.5h488q2 14 2 43q0 109 -50.5 168.5t-142.5 59.5z" />
    <glyph glyph-name="ecircumflex" unicode="&#xea;" horiz-adv-x="1167" 
d="M764 1497h-4l-203 -328h-209l232 353h372l111 -353h-209zM684 1049q201 0 312.5 -103.5t111.5 -290.5q0 -59 -16 -141l-7 -31h-749q-2 -16 -2 -51q0 -117 51.5 -182.5t144.5 -65.5q95 0 168 49t107 134h262q-60 -183 -211 -285t-362 -102q-203 0 -314.5 111.5
t-111.5 311.5q0 293 167.5 469.5t448.5 176.5zM647 846q-109 0 -188 -73.5t-109 -197.5h488q2 14 2 43q0 109 -50.5 168.5t-142.5 59.5z" />
    <glyph glyph-name="edieresis" unicode="&#xeb;" horiz-adv-x="1167" 
d="M438 1481h252l-43 -256h-252zM827 1481h254l-45 -256h-252zM684 1049q201 0 312.5 -103.5t111.5 -290.5q0 -59 -16 -141l-7 -31h-749q-2 -16 -2 -51q0 -117 51.5 -182.5t144.5 -65.5q95 0 168 49t107 134h262q-60 -183 -211 -285t-362 -102q-203 0 -314.5 111.5
t-111.5 311.5q0 293 167.5 469.5t448.5 176.5zM647 846q-109 0 -188 -73.5t-109 -197.5h488q2 14 2 43q0 109 -50.5 168.5t-142.5 59.5z" />
    <glyph glyph-name="igrave" unicode="&#xec;" horiz-adv-x="534" 
d="M596 1325l-100 -141l-377 205l112 157zM311 0h-270l182 1028h271z" />
    <glyph glyph-name="iacute" unicode="&#xed;" horiz-adv-x="534" 
d="M725 1389l-449 -205l-49 141l443 221zM311 0h-270l182 1028h271z" />
    <glyph glyph-name="icircumflex" unicode="&#xee;" horiz-adv-x="534" 
d="M633 1522l108 -353h-209l-90 328h-4l-202 -328h-209l231 353h375zM311 0h-270l182 1028h271z" />
    <glyph glyph-name="idieresis" unicode="&#xef;" horiz-adv-x="534" 
d="M326 1225h-252l43 256h254zM715 1225h-252l43 256h254zM311 0h-270l182 1028h271z" />
    <glyph glyph-name="eth" unicode="&#xf0;" horiz-adv-x="1245" 
d="M1116 1466l-201 -96q141 -103 206 -236.5t65 -312.5q0 -113 -25 -250q-51 -290 -216 -440.5t-423 -150.5q-218 0 -336 110.5t-118 308.5q0 177 63.5 316t182.5 218t274 79q150 0 229.5 -84.5t79.5 -237.5q0 -51 -10 -119h4q24 144 24 252q0 153 -54.5 256t-178.5 181
l-328 -158l-57 131l225 106q-90 39 -192 72l90 186q209 -66 350 -139l289 139zM561 195q146 0 234 104t88 272q0 112 -56 175t-159 63q-143 0 -231.5 -104t-88.5 -273q0 -111 55.5 -174t157.5 -63z" />
    <glyph glyph-name="ntilde" unicode="&#xf1;" horiz-adv-x="1220" 
d="M602 1325q-44 0 -78 -30.5t-47 -82.5h-119q28 146 108 228t196 82q45 0 85.5 -16.5t65.5 -37t58 -37t65 -16.5q43 0 76.5 30.5t48.5 84.5h119q-28 -146 -107.5 -227.5t-195.5 -81.5q-45 0 -86 16.5t-66 35.5t-58 35.5t-65 16.5zM834 1049q144 0 220 -79.5t76 -226.5
q0 -48 -10 -116l-110 -627h-271l109 614q6 30 6 58q0 78 -44 121t-124 43q-107 0 -180 -74t-96 -205l-99 -557h-270l182 1028h271l-66 -360h4q32 180 138.5 280.5t263.5 100.5z" />
    <glyph glyph-name="ograve" unicode="&#xf2;" horiz-adv-x="1228" 
d="M944 1325l-102 -141l-375 205l113 157zM520 -20q-216 0 -334 113.5t-118 316.5q0 290 174.5 464.5t466.5 174.5q217 0 334.5 -113t117.5 -315q0 -291 -173.5 -466t-467.5 -175zM559 195q148 0 236 108.5t88 286.5q0 117 -54.5 181.5t-156.5 64.5q-147 0 -235.5 -110
t-88.5 -286q0 -116 54.5 -180.5t156.5 -64.5z" />
    <glyph glyph-name="oacute" unicode="&#xf3;" horiz-adv-x="1228" 
d="M1073 1389l-448 -205l-52 141l443 221zM520 -20q-216 0 -334 113.5t-118 316.5q0 290 174.5 464.5t466.5 174.5q217 0 334.5 -113t117.5 -315q0 -291 -173.5 -466t-467.5 -175zM559 195q148 0 236 108.5t88 286.5q0 117 -54.5 181.5t-156.5 64.5q-147 0 -235.5 -110
t-88.5 -286q0 -116 54.5 -180.5t156.5 -64.5z" />
    <glyph glyph-name="ocircumflex" unicode="&#xf4;" horiz-adv-x="1228" 
d="M791 1497h-5l-204 -328h-207l231 353h373l111 -353h-209zM709 1049q217 0 334.5 -113t117.5 -315q0 -291 -173.5 -466t-467.5 -175q-216 0 -334 113.5t-118 316.5q0 290 174.5 464.5t466.5 174.5zM559 195q148 0 236 108.5t88 286.5q0 117 -54.5 181.5t-156.5 64.5
q-147 0 -235.5 -110t-88.5 -286q0 -116 54.5 -180.5t156.5 -64.5z" />
    <glyph glyph-name="otilde" unicode="&#xf5;" horiz-adv-x="1228" 
d="M475 1212h-119q28 146 108 228t195 82q45 0 86 -16.5t65.5 -37t58 -37t65.5 -16.5q43 0 76.5 30.5t48.5 84.5h119q-28 -146 -108 -227.5t-196 -81.5q-45 0 -86 16.5t-66 35.5t-57.5 35.5t-64.5 16.5q-44 0 -78 -30.5t-47 -82.5zM520 -20q-216 0 -334 113.5t-118 316.5
q0 290 174.5 464.5t466.5 174.5q217 0 334.5 -113t117.5 -315q0 -291 -173.5 -466t-467.5 -175zM559 195q148 0 236 108.5t88 286.5q0 117 -54.5 181.5t-156.5 64.5q-147 0 -235.5 -110t-88.5 -286q0 -116 54.5 -180.5t156.5 -64.5z" />
    <glyph glyph-name="odieresis" unicode="&#xf6;" horiz-adv-x="1228" 
d="M674 1225h-254l45 256h252zM1063 1225h-252l43 256h252zM520 -20q-216 0 -334 113.5t-118 316.5q0 290 174.5 464.5t466.5 174.5q217 0 334.5 -113t117.5 -315q0 -291 -173.5 -466t-467.5 -175zM559 195q148 0 236 108.5t88 286.5q0 117 -54.5 181.5t-156.5 64.5
q-147 0 -235.5 -110t-88.5 -286q0 -116 54.5 -180.5t156.5 -64.5z" />
    <glyph glyph-name="divide" unicode="&#xf7;" horiz-adv-x="1069" 
d="M575 750q-61 0 -61 55q0 38 23 61t63 23q64 0 64 -58q0 -38 -24 -59.5t-65 -21.5zM946 471h-842l19 90h842zM469 143q-29 0 -46 14.5t-17 39.5q0 40 24 63t64 23q63 0 63 -58q0 -38 -23.5 -60t-64.5 -22z" />
    <glyph glyph-name="oslash" unicode="&#xf8;" horiz-adv-x="1228" 
d="M1135 1065l-101 -121q127 -112 127 -323q0 -291 -173.5 -466t-467.5 -175q-147 0 -250 53l-102 -123l-74 55l101 119q-127 118 -127 326q0 290 174.5 464.5t466.5 174.5q144 0 249 -54l103 123zM348 440q0 -77 27 -139l420 500q-50 35 -123 35q-147 0 -235.5 -110
t-88.5 -286zM559 195q148 0 236 108.5t88 286.5q0 78 -29 141l-418 -502q46 -34 123 -34z" />
    <glyph glyph-name="ugrave" unicode="&#xf9;" horiz-adv-x="1200" 
d="M561 1546l365 -221l-101 -141l-376 205zM791 473l98 555h270l-182 -1028h-270l65 362h-4q-32 -180 -135.5 -281t-255.5 -101q-139 0 -213 79t-74 224q0 54 12 118l111 627h270l-108 -614q-6 -37 -6 -60q0 -77 40.5 -118t116.5 -41q102 0 172 73t93 205z" />
    <glyph glyph-name="uacute" unicode="&#xfa;" horiz-adv-x="1200" 
d="M997 1546l58 -157l-449 -205l-49 141zM791 473l98 555h270l-182 -1028h-270l65 362h-4q-32 -180 -135.5 -281t-255.5 -101q-139 0 -213 79t-74 224q0 54 12 118l111 627h270l-108 -614q-6 -37 -6 -60q0 -77 40.5 -118t116.5 -41q102 0 172 73t93 205z" />
    <glyph glyph-name="ucircumflex" unicode="&#xfb;" horiz-adv-x="1200" 
d="M772 1497h-4l-205 -328h-207l232 353h373l110 -353h-209zM791 473l98 555h270l-182 -1028h-270l65 362h-4q-32 -180 -135.5 -281t-255.5 -101q-139 0 -213 79t-74 224q0 54 12 118l111 627h270l-108 -614q-6 -37 -6 -60q0 -77 40.5 -118t116.5 -41q102 0 172 73t93 205z
" />
    <glyph glyph-name="udieresis" unicode="&#xfc;" horiz-adv-x="1200" 
d="M446 1481h252l-43 -256h-252zM836 1481h251l-43 -256h-251zM791 473l98 555h270l-182 -1028h-270l65 362h-4q-32 -180 -135.5 -281t-255.5 -101q-139 0 -213 79t-74 224q0 54 12 118l111 627h270l-108 -614q-6 -37 -6 -60q0 -77 40.5 -118t116.5 -41q102 0 172 73t93 205
z" />
    <glyph glyph-name="yacute" unicode="&#xfd;" horiz-adv-x="1130" 
d="M973 1546l57 -157l-448 -205l-50 141zM481 18l412 1010h289l-658 -1499h-288l206 471h-221l-88 1028h289l55 -1010h4z" />
    <glyph glyph-name="thorn" unicode="&#xfe;" 
d="M866 1049q160 0 246 -106.5t86 -297.5q0 -195 -64.5 -346t-183 -235t-272.5 -84q-150 0 -231.5 68.5t-81.5 193.5q0 38 8 77h-4l-142 -790h-270l362 2048h271l-152 -866h4q28 158 140 248t284 90zM592 195q147 0 235 108.5t88 286.5q0 116 -55.5 180t-157.5 64
q-120 0 -204 -87.5t-111 -232.5q-6 -31 -6 -84q0 -109 54.5 -172t156.5 -63z" />
    <glyph glyph-name="ydieresis" unicode="&#xff;" horiz-adv-x="1130" 
d="M422 1481h252l-43 -256h-252zM811 1481h254l-45 -256h-252zM481 18l412 1010h289l-658 -1499h-288l206 471h-221l-88 1028h289l55 -1010h4z" />
    <glyph glyph-name="Amacron" unicode="&#x100;" horiz-adv-x="1468" 
d="M653 1935h660l-35 -190h-660zM1364 0h-301l-39 367h-647l-170 -367h-283l738 1516h499zM897 1491l-420 -905h522l-98 905h-4z" />
    <glyph glyph-name="amacron" unicode="&#x101;" 
d="M455 1448h659l-35 -191h-659zM893 676l61 352h271l-181 -1028h-270l62 354h-5q-31 -177 -145.5 -275.5t-286.5 -98.5q-158 0 -243.5 106t-85.5 297q0 195 64.5 346.5t183 235.5t272.5 84q147 0 227 -73.5t80 -207.5q0 -26 -8 -92h4zM563 195q121 0 206 88t110 231
q10 58 10 88q0 108 -56 171t-157 63q-147 0 -235.5 -110t-88.5 -286q0 -116 55 -180.5t156 -64.5z" />
    <glyph glyph-name="Abreve" unicode="&#x102;" horiz-adv-x="1468" 
d="M934 1649q-154 0 -225 94.5t-43 263.5h182q-15 -92 16 -144.5t99 -52.5q69 0 117 52t67 145h184q-32 -169 -137 -263.5t-260 -94.5zM1364 0h-301l-39 367h-647l-170 -367h-283l738 1516h499zM897 1491l-420 -905h522l-98 905h-4z" />
    <glyph glyph-name="abreve" unicode="&#x103;" 
d="M735 1161q-155 0 -225.5 95.5t-44.5 265.5h184q-15 -93 16 -146t99 -53t116.5 52.5t67.5 146.5h185q-32 -169 -137.5 -265t-260.5 -96zM893 676l61 352h271l-181 -1028h-270l62 354h-5q-31 -177 -145.5 -275.5t-286.5 -98.5q-158 0 -243.5 106t-85.5 297
q0 195 64.5 346.5t183 235.5t272.5 84q147 0 227 -73.5t80 -207.5q0 -26 -8 -92h4zM563 195q121 0 206 88t110 231q10 58 10 88q0 108 -56 171t-157 63q-147 0 -235.5 -110t-88.5 -286q0 -116 55 -180.5t156 -64.5z" />
    <glyph glyph-name="Aogonek" unicode="&#x104;" horiz-adv-x="1468" 
d="M1114 -289q0 -49 55 -49q75 0 164 47l-28 -153q-98 -48 -230 -48q-92 0 -141 35t-49 99q0 51 39.5 113t101.5 115.5t147 89.5t166 36v4h-276l-39 367h-647l-170 -367h-283l738 1516h499l203 -1516q-117 -84 -183.5 -160.5t-66.5 -128.5zM897 1491l-420 -905h522l-98 905
h-4z" />
    <glyph glyph-name="aogonek" unicode="&#x105;" 
d="M1225 1028l-181 -1028q-116 -84 -182.5 -160.5t-66.5 -128.5q0 -49 57 -49q76 0 162 47l-27 -153q-101 -48 -231 -48q-90 0 -139.5 35.5t-49.5 98.5q0 51 40 113t102 115.5t147 89.5t166 36v4h-248l62 354h-5q-31 -177 -145.5 -275.5t-286.5 -98.5q-158 0 -243.5 106
t-85.5 297q0 195 64.5 346.5t183 235.5t272.5 84q147 0 227 -73.5t80 -207.5q0 -26 -8 -92h4l61 352h271zM563 195q121 0 206 88t110 231q10 58 10 88q0 108 -56 171t-157 63q-147 0 -235.5 -110t-88.5 -286q0 -116 55 -180.5t156 -64.5z" />
    <glyph glyph-name="Cacute" unicode="&#x106;" horiz-adv-x="1509" 
d="M1335 1876l-448 -205l-51 141l442 220zM696 -20q-278 0 -427.5 160.5t-149.5 449.5q0 281 104.5 495.5t298 332.5t449.5 118q262 0 406.5 -142.5t144.5 -396.5q0 -9 -1 -27.5t-1 -27.5h-271v19q0 166 -83 258t-232 92q-233 0 -376.5 -193.5t-143.5 -499.5
q0 -196 83 -304.5t240 -108.5q153 0 270 98.5t179 276.5h270q-86 -282 -287.5 -441t-472.5 -159z" />
    <glyph glyph-name="cacute" unicode="&#x107;" horiz-adv-x="1175" 
d="M1067 1389l-446 -205l-52 141l443 221zM516 -20q-215 0 -331.5 113t-116.5 317q0 289 173.5 464t463.5 175q200 0 313 -105.5t119 -296.5h-267q-9 90 -60.5 139.5t-141.5 49.5q-145 0 -232.5 -111t-87.5 -287q0 -115 53.5 -179t153.5 -64q93 0 163.5 52t112.5 148h267
q-65 -198 -216.5 -306.5t-365.5 -108.5z" />
    <glyph glyph-name="Cdotaccent" unicode="&#x10a;" horiz-adv-x="1509" 
d="M1139 1710h-271l43 256h271zM696 -20q-278 0 -427.5 160.5t-149.5 449.5q0 281 104.5 495.5t298 332.5t449.5 118q262 0 406.5 -142.5t144.5 -396.5q0 -9 -1 -27.5t-1 -27.5h-271v19q0 166 -83 258t-232 92q-233 0 -376.5 -193.5t-143.5 -499.5q0 -196 83 -304.5
t240 -108.5q153 0 270 98.5t179 276.5h270q-86 -282 -287.5 -441t-472.5 -159z" />
    <glyph glyph-name="cdotaccent" unicode="&#x10b;" horiz-adv-x="1175" 
d="M872 1225h-270l43 256h270zM516 -20q-215 0 -331.5 113t-116.5 317q0 289 173.5 464t463.5 175q200 0 313 -105.5t119 -296.5h-267q-9 90 -60.5 139.5t-141.5 49.5q-145 0 -232.5 -111t-87.5 -287q0 -115 53.5 -179t153.5 -64q93 0 163.5 52t112.5 148h267
q-65 -198 -216.5 -306.5t-365.5 -108.5z" />
    <glyph glyph-name="Ccaron" unicode="&#x10c;" horiz-adv-x="1509" 
d="M807 1657l-111 350h209l90 -328h4l205 328h209l-233 -350h-373zM1520 942h-271v19q0 166 -83 258t-232 92q-233 0 -376.5 -193.5t-143.5 -499.5q0 -196 83 -304.5t240 -108.5q153 0 270 98.5t179 276.5h270q-86 -282 -287.5 -441t-472.5 -159q-278 0 -427.5 160.5
t-149.5 449.5q0 281 104.5 495.5t298 332.5t449.5 118q262 0 406.5 -142.5t144.5 -396.5q0 -9 -1 -27.5t-1 -27.5z" />
    <glyph glyph-name="ccaron" unicode="&#x10d;" horiz-adv-x="1175" 
d="M541 1169l-111 353h209l90 -328h4l205 328h207l-232 -353h-372zM668 836q-145 0 -232.5 -111t-87.5 -287q0 -115 53.5 -179t153.5 -64q93 0 163.5 52t112.5 148h267q-65 -198 -216.5 -306.5t-365.5 -108.5q-215 0 -331.5 113t-116.5 317q0 289 173.5 464t463.5 175
q200 0 313 -105.5t119 -296.5h-267q-9 90 -60.5 139.5t-141.5 49.5z" />
    <glyph glyph-name="Dcaron" unicode="&#x10e;" horiz-adv-x="1511" 
d="M686 1657l-111 350h209l90 -328h5l204 328h209l-233 -350h-373zM344 1516h492q309 0 477 -160.5t168 -448.5q0 -272 -112 -477.5t-319 -317.5t-481 -112h-491zM399 219h224q255 0 409 182t154 480q0 196 -97 305.5t-276 109.5h-223z" />
    <glyph glyph-name="dcaron" unicode="&#x10f;" horiz-adv-x="1331" 
d="M1350 1167l176 430l186 -53l-192 -430zM889 676h4l160 901h270l-279 -1577h-270l62 354h-5q-31 -177 -145.5 -275.5t-286.5 -98.5q-158 0 -243.5 106t-85.5 297q0 195 64.5 346.5t183 235.5t272.5 84q147 0 227 -73.5t80 -207.5q0 -26 -8 -92zM563 195q121 0 206 88
t110 231q10 58 10 88q0 108 -56 171t-157 63q-147 0 -235.5 -110t-88.5 -286q0 -116 55 -180.5t156 -64.5z" />
    <glyph glyph-name="Dcroat" unicode="&#x110;" horiz-adv-x="1525" 
d="M358 1516h490q309 0 477 -160.5t168 -448.5q0 -272 -111.5 -477.5t-318 -317.5t-481.5 -112h-490l127 725h-162l17 90h162zM414 219h223q254 0 407.5 182.5t153.5 479.5q0 197 -96 306t-275 109h-223l-86 -481h291l-16 -90h-289z" />
    <glyph glyph-name="dcroat" unicode="&#x111;" 
d="M1284 1358h131l-16 -90h-131l-224 -1268h-270l62 354h-5q-31 -177 -145.5 -275.5t-286.5 -98.5q-158 0 -243.5 106t-85.5 297q0 195 64.5 346.5t183 235.5t272.5 84q147 0 227 -73.5t80 -207.5q0 -26 -8 -92h4l104 592h-335l16 90h336l39 219h270zM563 195q121 0 206 88
t110 231q10 58 10 88q0 108 -56 171t-157 63q-147 0 -235.5 -110t-88.5 -286q0 -116 55 -180.5t156 -64.5z" />
    <glyph glyph-name="Emacron" unicode="&#x112;" horiz-adv-x="1325" 
d="M616 1935h660l-35 -190h-659zM1403 1516l-39 -220h-774l-72 -409h703l-37 -219h-705l-80 -449h799l-39 -219h-1081l266 1516h1059z" />
    <glyph glyph-name="emacron" unicode="&#x113;" horiz-adv-x="1167" 
d="M424 1448h659l-34 -191h-660zM684 1049q201 0 312.5 -103.5t111.5 -290.5q0 -59 -16 -141l-7 -31h-749q-2 -16 -2 -51q0 -117 51.5 -182.5t144.5 -65.5q95 0 168 49t107 134h262q-60 -183 -211 -285t-362 -102q-203 0 -314.5 111.5t-111.5 311.5q0 293 167.5 469.5
t448.5 176.5zM647 846q-109 0 -188 -73.5t-109 -197.5h488q2 14 2 43q0 109 -50.5 168.5t-142.5 59.5z" />
    <glyph glyph-name="Edotaccent" unicode="&#x116;" horiz-adv-x="1325" 
d="M817 1966h270l-43 -256h-270zM1403 1516l-39 -220h-774l-72 -409h703l-37 -219h-705l-80 -449h799l-39 -219h-1081l266 1516h1059z" />
    <glyph glyph-name="edotaccent" unicode="&#x117;" horiz-adv-x="1167" 
d="M625 1481h270l-43 -256h-270zM684 1049q201 0 312.5 -103.5t111.5 -290.5q0 -59 -16 -141l-7 -31h-749q-2 -16 -2 -51q0 -117 51.5 -182.5t144.5 -65.5q95 0 168 49t107 134h262q-60 -183 -211 -285t-362 -102q-203 0 -314.5 111.5t-111.5 311.5q0 293 167.5 469.5
t448.5 176.5zM647 846q-109 0 -188 -73.5t-109 -197.5h488q2 14 2 43q0 109 -50.5 168.5t-142.5 59.5z" />
    <glyph glyph-name="Eogonek" unicode="&#x118;" horiz-adv-x="1325" 
d="M1403 1516l-39 -220h-774l-72 -409h703l-37 -219h-705l-80 -449h799l-39 -219h-229q-116 -85 -183 -161t-67 -128q0 -49 57 -49q76 0 162 47l-27 -153q-98 -48 -229 -48q-92 0 -141 35t-49 99q0 51 39.5 113t101.5 115.5t147 89.5t166 36v4h-829l266 1516h1059z" />
    <glyph glyph-name="eogonek" unicode="&#x119;" horiz-adv-x="1167" 
d="M684 1049q201 0 312.5 -103.5t111.5 -290.5q0 -59 -16 -141l-7 -31h-749q-2 -16 -2 -51q0 -117 51.5 -182.5t144.5 -65.5q95 0 168 49t107 134h262q-71 -212 -260 -314q-143 -98 -226 -190t-83 -152q0 -49 57 -49q76 0 162 47l-27 -153q-101 -48 -229 -48
q-92 0 -141.5 35.5t-49.5 98.5q0 92 131 194t344 187v2q-118 -45 -251 -45q-203 0 -314.5 111.5t-111.5 311.5q0 293 167.5 469.5t448.5 176.5zM647 846q-109 0 -188 -73.5t-109 -197.5h488q2 14 2 43q0 109 -50.5 168.5t-142.5 59.5z" />
    <glyph glyph-name="Ecaron" unicode="&#x11a;" horiz-adv-x="1325" 
d="M711 1657l-109 350h209l90 -328h4l203 328h209l-234 -350h-372zM1403 1516l-39 -220h-774l-72 -409h703l-37 -219h-705l-80 -449h799l-39 -219h-1081l266 1516h1059z" />
    <glyph glyph-name="ecaron" unicode="&#x11b;" horiz-adv-x="1167" 
d="M518 1169l-108 353h208l91 -328h4l202 328h209l-233 -353h-373zM684 1049q201 0 312.5 -103.5t111.5 -290.5q0 -59 -16 -141l-7 -31h-749q-2 -16 -2 -51q0 -117 51.5 -182.5t144.5 -65.5q95 0 168 49t107 134h262q-60 -183 -211 -285t-362 -102q-203 0 -314.5 111.5
t-111.5 311.5q0 293 167.5 469.5t448.5 176.5zM647 846q-109 0 -188 -73.5t-109 -197.5h488q2 14 2 43q0 109 -50.5 168.5t-142.5 59.5z" />
    <glyph glyph-name="Gbreve" unicode="&#x11e;" horiz-adv-x="1556" 
d="M997 1649q-154 0 -225 94.5t-43 263.5h182q-15 -92 16 -144.5t99 -52.5q69 0 117 52t67 145h185q-32 -169 -137.5 -263.5t-260.5 -94.5zM1518 963h-271v18q-2 155 -83 242.5t-226 87.5q-156 0 -275.5 -88.5t-184 -246t-64.5 -360.5q0 -194 83.5 -302.5t237.5 -108.5
q173 0 294 107t165 298h-403l32 191h676l-139 -801h-266l94 541h-4q-47 -264 -211 -412.5t-408 -148.5q-214 0 -331 154t-117 427q0 295 106 516t301 340t453 119q256 0 399.5 -138t143.5 -384q0 -8 -1 -25.5t-1 -25.5z" />
    <glyph glyph-name="gbreve" unicode="&#x11f;" 
d="M762 1161q-154 0 -225 96t-43 265h182q-13 -94 17 -146.5t98 -52.5q69 0 117 52.5t67 146.5h184q-32 -169 -137 -265t-260 -96zM893 676l61 352h271l-183 -1040q-40 -226 -197.5 -353t-400.5 -127q-209 0 -326.5 98t-115.5 271l264 39q-3 -91 54 -141.5t161 -50.5
q116 0 191.5 65t95.5 182l72 394h-4q-32 -175 -147.5 -274t-285.5 -99q-160 0 -245.5 105t-85.5 294q0 193 64 342.5t182 232.5t272 83q147 0 227 -73.5t80 -207.5q0 -26 -8 -92h4zM565 207q121 0 206 85.5t110 227.5q8 47 8 84q0 107 -55.5 169.5t-157.5 62.5
q-145 0 -233.5 -107t-88.5 -280q0 -115 54.5 -178.5t156.5 -63.5z" />
    <glyph glyph-name="Gdotaccent" unicode="&#x120;" horiz-adv-x="1556" 
d="M918 1966h270l-43 -256h-271zM1518 963h-271v18q-2 155 -83 242.5t-226 87.5q-156 0 -275.5 -88.5t-184 -246t-64.5 -360.5q0 -194 83.5 -302.5t237.5 -108.5q173 0 294 107t165 298h-403l32 191h676l-139 -801h-266l94 541h-4q-47 -264 -211 -412.5t-408 -148.5
q-214 0 -331 154t-117 427q0 295 106 516t301 340t453 119q256 0 399.5 -138t143.5 -384q0 -8 -1 -25.5t-1 -25.5z" />
    <glyph glyph-name="gdotaccent" unicode="&#x121;" 
d="M682 1481h270l-43 -256h-270zM893 676l61 352h271l-183 -1040q-40 -226 -197.5 -353t-400.5 -127q-209 0 -326.5 98t-115.5 271l264 39q-3 -91 54 -141.5t161 -50.5q116 0 191.5 65t95.5 182l72 394h-4q-32 -175 -147.5 -274t-285.5 -99q-160 0 -245.5 105t-85.5 294
q0 193 64 342.5t182 232.5t272 83q147 0 227 -73.5t80 -207.5q0 -26 -8 -92h4zM565 207q121 0 206 85.5t110 227.5q8 47 8 84q0 107 -55.5 169.5t-157.5 62.5q-145 0 -233.5 -107t-88.5 -280q0 -115 54.5 -178.5t156.5 -63.5z" />
    <glyph glyph-name="uni0122" unicode="&#x122;" horiz-adv-x="1556" 
d="M1518 963h-271v18q-2 155 -83 242.5t-226 87.5q-156 0 -275.5 -88.5t-184 -246t-64.5 -360.5q0 -194 83.5 -302.5t237.5 -108.5q173 0 294 107t165 298h-403l32 191h676l-139 -801h-266l94 541h-4q-47 -264 -211 -412.5t-408 -148.5q-214 0 -331 154t-117 427
q0 295 106 516t301 340t453 119q256 0 399.5 -138t143.5 -384q0 -8 -1 -25.5t-1 -25.5zM758 -309h-228l31 174h246l-27 -148q-15 -87 -84.5 -138t-197.5 -71l12 78q113 12 168.5 36.5t79.5 68.5z" />
    <glyph glyph-name="uni0123" unicode="&#x123;" 
d="M702 1419h228l-37 -198h-244l29 161q34 190 285 220l-15 -78q-111 -7 -166.5 -32t-79.5 -73zM893 676l61 352h271l-183 -1040q-40 -226 -197.5 -353t-400.5 -127q-209 0 -326.5 98t-115.5 271l264 39q-3 -91 54 -141.5t161 -50.5q116 0 191.5 65t95.5 182l72 394h-4
q-32 -175 -147.5 -274t-285.5 -99q-160 0 -245.5 105t-85.5 294q0 193 64 342.5t182 232.5t272 83q147 0 227 -73.5t80 -207.5q0 -26 -8 -92h4zM565 207q121 0 206 85.5t110 227.5q8 47 8 84q0 107 -55.5 169.5t-157.5 62.5q-145 0 -233.5 -107t-88.5 -280
q0 -115 54.5 -178.5t156.5 -63.5z" />
    <glyph glyph-name="Hbar" unicode="&#x126;" horiz-adv-x="1556" 
d="M1518 1255h118l-16 -90h-119l-205 -1165h-282l114 657h-649l-114 -657h-283l205 1165h-121l16 90h121l45 261h283l-45 -261h649l45 261h283zM518 879h649l52 286h-650z" />
    <glyph glyph-name="hbar" unicode="&#x127;" horiz-adv-x="1220" 
d="M834 1049q144 0 220 -79.5t76 -226.5q0 -48 -10 -116l-110 -627h-271l109 614q6 30 6 58q0 78 -44 121t-124 43q-107 0 -180 -74t-96 -205l-99 -557h-270l223 1268h-129l17 90h129l38 219h271l-39 -219h338l-17 -90h-337l-107 -600h4q32 180 138.5 280.5t263.5 100.5z
" />
    <glyph glyph-name="Imacron" unicode="&#x12a;" horiz-adv-x="618" 
d="M856 1745h-659l32 190h660zM360 0h-282l266 1516h283z" />
    <glyph glyph-name="imacron" unicode="&#x12b;" horiz-adv-x="534" 
d="M727 1257h-659l34 191h660zM311 0h-270l182 1028h271z" />
    <glyph glyph-name="Iogonek" unicode="&#x12e;" horiz-adv-x="618" 
d="M627 1516l-267 -1516q-116 -84 -182.5 -160.5t-66.5 -128.5q0 -49 57 -49q76 0 162 47l-27 -153q-101 -48 -229 -48q-92 0 -141.5 35.5t-49.5 98.5q0 51 40 113t102 115.5t147 89.5t166 36v4h-260l266 1516h283z" />
    <glyph glyph-name="iogonek" unicode="&#x12f;" horiz-adv-x="534" 
d="M260 1225l43 256h270l-43 -256h-270zM289 0h-248l182 1028h271l-183 -1028q-117 -84 -183.5 -160.5t-66.5 -128.5q0 -49 58 -49q76 0 162 47l-27 -153q-101 -48 -229 -48q-92 0 -141.5 35.5t-49.5 98.5q0 51 40 113t102 115.5t147 89.5t166 36v4z" />
    <glyph glyph-name="Idotaccent" unicode="&#x130;" horiz-adv-x="618" 
d="M657 1710h-270l43 256h270zM360 0h-282l266 1516h283z" />
    <glyph glyph-name="dotlessi" unicode="&#x131;" horiz-adv-x="534" 
d="M311 0h-270l182 1028h271z" />
    <glyph glyph-name="uni0136" unicode="&#x136;" horiz-adv-x="1470" 
d="M1270 1516h327l-794 -723l612 -793h-350l-573 780h-5l-137 -780h-272l266 1516h272l-124 -717h4zM727 -309h-227l30 174h246l-26 -148q-15 -87 -85 -137.5t-198 -71.5l14 78q113 12 167.5 36t78.5 69z" />
    <glyph glyph-name="uni0137" unicode="&#x137;" horiz-adv-x="1173" 
d="M911 1028h320l-522 -489l389 -539h-332l-358 526h-5l-92 -526h-270l278 1577h271l-182 -1032h4zM567 -309h-227l31 174h245l-28 -148q-15 -87 -84.5 -138t-196.5 -71l12 78q113 12 168.5 36.5t79.5 68.5z" />
    <glyph glyph-name="Lacute" unicode="&#x139;" horiz-adv-x="1144" 
d="M797 2032l57 -156l-448 -205l-52 141zM627 1516l-226 -1289h664l-39 -227h-948l266 1516h283z" />
    <glyph glyph-name="lacute" unicode="&#x13a;" horiz-adv-x="534" 
d="M823 1937l-448 -204l-49 141l440 219zM311 0h-270l278 1577h271z" />
    <glyph glyph-name="uni013B" unicode="&#x13b;" horiz-adv-x="1144" 
d="M627 1516l-226 -1289h664l-39 -227h-948l266 1516h283zM555 -309h-229l32 174h244l-27 -148q-15 -87 -84.5 -137.5t-195.5 -71.5l12 78q113 12 168.5 36.5t79.5 68.5z" />
    <glyph glyph-name="uni013C" unicode="&#x13c;" horiz-adv-x="534" 
d="M41 0l278 1577h271l-279 -1577h-270zM227 -309h-227l31 174h245l-26 -148q-29 -168 -281 -209l13 78q113 12 167.5 36.5t77.5 68.5z" />
    <glyph glyph-name="Lcaron" unicode="&#x13d;" horiz-adv-x="1167" 
d="M928 1536l188 -53l-192 -430l-170 53zM344 1516h283l-226 -1289h664l-39 -227h-948z" />
    <glyph glyph-name="lcaron" unicode="&#x13e;" horiz-adv-x="616" 
d="M981 1544l-193 -430l-170 53l177 430zM311 0h-270l278 1577h271z" />
    <glyph glyph-name="Lslash" unicode="&#x141;" horiz-adv-x="1159" 
d="M508 754l-92 -527h663l-39 -227h-948l103 588l-152 -84l18 100l152 82l145 830h283l-117 -664l381 207l-18 -98z" />
    <glyph glyph-name="lslash" unicode="&#x142;" horiz-adv-x="630" 
d="M532 973l136 76l-19 -99l-135 -78l-154 -872h-270l127 723l-135 -76l18 101l136 75l133 754h270z" />
    <glyph glyph-name="Nacute" unicode="&#x143;" horiz-adv-x="1550" 
d="M1264 2032l57 -156l-449 -205l-51 141zM1040 25l250 1491h269l-267 -1516h-467l-221 1491h-4l-252 -1491h-270l266 1516h471l221 -1491h4z" />
    <glyph glyph-name="nacute" unicode="&#x144;" horiz-adv-x="1220" 
d="M1018 1546l57 -157l-448 -205l-52 141zM834 1049q144 0 220 -79.5t76 -226.5q0 -48 -10 -116l-110 -627h-271l109 614q6 30 6 58q0 78 -44 121t-124 43q-107 0 -180 -74t-96 -205l-99 -557h-270l182 1028h271l-66 -360h4q32 180 138.5 280.5t263.5 100.5z" />
    <glyph glyph-name="uni0145" unicode="&#x145;" horiz-adv-x="1550" 
d="M1040 25l250 1491h269l-267 -1516h-467l-221 1491h-4l-252 -1491h-270l266 1516h471l221 -1491h4zM737 -309h-227l31 174h245l-26 -148q-15 -87 -85 -137.5t-198 -71.5l15 78q113 12 167 36t78 69z" />
    <glyph glyph-name="uni0146" unicode="&#x146;" horiz-adv-x="1220" 
d="M834 1049q144 0 220 -79.5t76 -226.5q0 -48 -10 -116l-110 -627h-271l109 614q6 30 6 58q0 78 -44 121t-124 43q-107 0 -180 -74t-96 -205l-99 -557h-270l182 1028h271l-66 -360h4q32 180 138.5 280.5t263.5 100.5zM578 -309h-228l31 174h246l-27 -148
q-15 -87 -85 -137.5t-198 -71.5l15 78q113 12 167.5 36t78.5 69z" />
    <glyph glyph-name="Ncaron" unicode="&#x147;" horiz-adv-x="1550" 
d="M793 1657l-111 350h209l90 -328h4l205 328h209l-234 -350h-372zM1040 25l250 1491h269l-267 -1516h-467l-221 1491h-4l-252 -1491h-270l266 1516h471l221 -1491h4z" />
    <glyph glyph-name="ncaron" unicode="&#x148;" horiz-adv-x="1220" 
d="M547 1169l-109 353h207l90 -328h4l205 328h209l-233 -353h-373zM834 1049q144 0 220 -79.5t76 -226.5q0 -48 -10 -116l-110 -627h-271l109 614q6 30 6 58q0 78 -44 121t-124 43q-107 0 -180 -74t-96 -205l-99 -557h-270l182 1028h271l-66 -360h4q32 180 138.5 280.5
t263.5 100.5z" />
    <glyph glyph-name="Eng" unicode="&#x14a;" horiz-adv-x="1550" 
d="M1040 25l250 1491h269l-267 -1516l-4 -27q-41 -220 -182 -342.5t-356 -122.5q-130 0 -222 50l115 206q47 -30 119 -30q94 0 158 58.5t81 160.5l9 47h-185l-221 1491h-4l-252 -1491h-270l266 1516h471l221 -1491h4z" />
    <glyph glyph-name="eng" unicode="&#x14b;" horiz-adv-x="1220" 
d="M834 1049q144 0 220 -79.5t76 -226.5q0 -48 -10 -116l-123 -701q-35 -198 -160.5 -308t-314.5 -110q-161 0 -254 74l113 180q59 -38 131 -38q87 0 142.5 53t72.5 149l121 688q6 30 6 58q0 78 -44 121t-124 43q-107 0 -180 -74t-96 -205l-99 -557h-270l182 1028h271
l-66 -360h4q32 180 138.5 280.5t263.5 100.5z" />
    <glyph glyph-name="Omacron" unicode="&#x14c;" horiz-adv-x="1593" 
d="M1341 1745h-659l35 190h659zM702 -20q-280 0 -431.5 161t-151.5 449q0 281 105 495.5t300 332.5t453 118q280 0 432 -160.5t152 -449.5q0 -281 -105 -495.5t-300.5 -332.5t-453.5 -118zM743 205q155 0 274.5 88t184 245t64.5 359q0 195 -85.5 304.5t-242.5 109.5
t-276.5 -88.5t-183.5 -245.5t-64 -359q0 -196 84.5 -304.5t244.5 -108.5z" />
    <glyph glyph-name="omacron" unicode="&#x14d;" horiz-adv-x="1228" 
d="M1075 1257h-659l35 191h659zM520 -20q-216 0 -334 113.5t-118 316.5q0 290 174.5 464.5t466.5 174.5q217 0 334.5 -113t117.5 -315q0 -291 -173.5 -466t-467.5 -175zM559 195q148 0 236 108.5t88 286.5q0 117 -54.5 181.5t-156.5 64.5q-147 0 -235.5 -110t-88.5 -286
q0 -116 54.5 -180.5t156.5 -64.5z" />
    <glyph glyph-name="Ohungarumlaut" unicode="&#x150;" horiz-adv-x="1593" 
d="M1221 1939l-402 -307l-92 113l385 317zM1581 1939l-403 -307l-93 113l388 317zM702 -20q-280 0 -431.5 161t-151.5 449q0 281 105 495.5t300 332.5t453 118q280 0 432 -160.5t152 -449.5q0 -281 -105 -495.5t-300.5 -332.5t-453.5 -118zM743 205q155 0 274.5 88t184 245
t64.5 359q0 195 -85.5 304.5t-242.5 109.5t-276.5 -88.5t-183.5 -245.5t-64 -359q0 -196 84.5 -304.5t244.5 -108.5z" />
    <glyph glyph-name="ohungarumlaut" unicode="&#x151;" horiz-adv-x="1228" 
d="M954 1454l-401 -307l-94 113l387 317zM1313 1454l-402 -307l-92 113l385 317zM520 -20q-216 0 -334 113.5t-118 316.5q0 290 174.5 464.5t466.5 174.5q217 0 334.5 -113t117.5 -315q0 -291 -173.5 -466t-467.5 -175zM559 195q148 0 236 108.5t88 286.5q0 117 -54.5 181.5
t-156.5 64.5q-147 0 -235.5 -110t-88.5 -286q0 -116 54.5 -180.5t156.5 -64.5z" />
    <glyph glyph-name="OE" unicode="&#x152;" horiz-adv-x="2365" 
d="M2443 1516l-37 -220h-770l-71 -409h696l-37 -219h-698l-80 -449h792l-38 -219h-1076l95 535h-5q-46 -260 -214 -407.5t-420 -147.5q-221 0 -341 153.5t-120 429.5q0 283 91 504t258.5 345t385.5 124q216 0 334.5 -110.5t118.5 -309.5q0 -64 -15 -135h4l95 535h1052z
M748 205q198 0 339.5 153t184.5 400q14 93 14 151q0 185 -89 293.5t-255 108.5q-156 0 -275.5 -88.5t-184 -245.5t-64.5 -359q0 -195 85.5 -304t244.5 -109z" />
    <glyph glyph-name="oe" unicode="&#x153;" horiz-adv-x="1953" 
d="M1470 1049q201 0 312.5 -103t111.5 -289q0 -69 -14 -143l-6 -31h-750q-2 -16 -2 -51q0 -118 51 -183t146 -65t166.5 49t105.5 134h262q-60 -183 -211 -285t-360 -102q-206 0 -316 105t-110 298h-4q-34 -189 -153.5 -296t-299.5 -107q-158 0 -243.5 106t-85.5 297
q0 195 64.5 346.5t183 235.5t272.5 84q153 0 235 -78t82 -221q0 -54 -8 -103h4q68 193 215 297.5t352 104.5zM1436 846q-109 0 -188 -73.5t-109 -197.5h487q2 14 2 43q0 109 -50 168.5t-142 59.5zM563 195q121 0 206 88t110 231q10 58 10 88q0 108 -56 171t-157 63
q-147 0 -235.5 -110t-88.5 -286q0 -116 55 -180.5t156 -64.5z" />
    <glyph glyph-name="Racute" unicode="&#x154;" horiz-adv-x="1425" 
d="M1141 2032l55 -156l-448 -205l-50 141zM1432 1149q0 -242 -176.5 -386.5t-477.5 -144.5v-4q126 0 220 -56.5t132 -156.5l158 -401h-315l-221 614h-283l-109 -614h-282l266 1516h586q240 0 371 -97t131 -270zM590 1296l-84 -475h319q142 0 226 77.5t84 205.5
q0 90 -59.5 141t-168.5 51h-317z" />
    <glyph glyph-name="racute" unicode="&#x155;" horiz-adv-x="878" 
d="M840 1546l57 -157l-448 -205l-50 141zM811 1049q90 0 154 -33l-123 -242q-56 37 -135 37q-118 0 -201.5 -91.5t-112.5 -254.5l-82 -465h-270l182 1028h271l-76 -424h4q37 210 139.5 327.5t249.5 117.5z" />
    <glyph glyph-name="uni0156" unicode="&#x156;" horiz-adv-x="1425" 
d="M1432 1149q0 -242 -176.5 -386.5t-477.5 -144.5v-4q126 0 220 -56.5t132 -156.5l158 -401h-315l-221 614h-283l-109 -614h-282l266 1516h586q240 0 371 -97t131 -270zM590 1296l-84 -475h319q142 0 226 77.5t84 205.5q0 90 -59.5 141t-168.5 51h-317zM676 -309h-230
l33 174h244l-27 -148q-15 -87 -84 -138t-196 -71l12 78q113 12 168.5 36.5t79.5 68.5z" />
    <glyph glyph-name="uni0157" unicode="&#x157;" horiz-adv-x="878" 
d="M811 1049q90 0 154 -33l-123 -242q-56 37 -135 37q-118 0 -201.5 -91.5t-112.5 -254.5l-82 -465h-270l182 1028h271l-76 -424h4q37 210 139.5 327.5t249.5 117.5zM227 -309h-229l33 174h243l-26 -148q-29 -168 -281 -209l13 78q113 12 168 36.5t79 68.5z" />
    <glyph glyph-name="Rcaron" unicode="&#x158;" horiz-adv-x="1425" 
d="M668 1657l-109 350h209l90 -328h4l203 328h209l-232 -350h-374zM1432 1149q0 -242 -176.5 -386.5t-477.5 -144.5v-4q126 0 220 -56.5t132 -156.5l158 -401h-315l-221 614h-283l-109 -614h-282l266 1516h586q240 0 371 -97t131 -270zM590 1296l-84 -475h319
q142 0 226 77.5t84 205.5q0 90 -59.5 141t-168.5 51h-317z" />
    <glyph glyph-name="rcaron" unicode="&#x159;" horiz-adv-x="878" 
d="M369 1169l-109 353h207l92 -328h4l203 328h209l-234 -353h-372zM418 604h4q37 210 139.5 327.5t249.5 117.5q90 0 154 -33l-123 -242q-56 37 -135 37q-118 0 -201.5 -91.5t-112.5 -254.5l-82 -465h-270l182 1028h271z" />
    <glyph glyph-name="Sacute" unicode="&#x15a;" horiz-adv-x="1394" 
d="M1237 1876l-449 -205l-49 141l443 220zM600 -20q-254 0 -393 125.5t-139 351.5q0 23 4 73h280q-4 -28 -4 -43q0 -134 78 -208t219 -74q173 0 273 70t100 192q0 30 -10.5 55t-25 43t-43.5 33t-51.5 24t-65 19t-68.5 14.5t-76 12.5q-49 7 -75.5 11.5t-73 14t-73.5 18
t-66 24t-62 32t-50 41.5t-41.5 54t-24 67t-9.5 82q0 246 179.5 385t491.5 139q234 0 363 -121t129 -340q0 -9 -1 -31.5t-1 -35.5h-281q2 16 2 49q0 121 -68.5 187.5t-195.5 66.5q-149 0 -235 -63.5t-86 -170.5q0 -27 9.5 -48.5t23 -37t40.5 -29t48 -21.5t61 -17t64.5 -13
t72.5 -12q65 -10 100 -16t96 -21t96 -30.5t79 -43.5t67.5 -61.5t40.5 -82.5t17 -109q0 -254 -193.5 -404.5t-521.5 -150.5z" />
    <glyph glyph-name="sacute" unicode="&#x15b;" horiz-adv-x="1071" 
d="M989 1389l-448 -205l-49 141l440 221zM436 -20q-196 0 -302.5 74.5t-106.5 211.5q0 30 6 68h252q-4 -16 -4 -39q0 -68 48.5 -105.5t137.5 -37.5q110 0 172.5 41t62.5 112q0 22 -8 40t-25.5 31t-35.5 22.5t-49 17t-53.5 12t-59.5 10.5q-35 6 -54.5 9.5t-53.5 11t-53.5 14
t-48 18t-45.5 24t-36.5 30.5t-30 38.5t-17.5 48t-7 58.5q0 165 135.5 262t366.5 97q184 0 284.5 -71t100.5 -200q0 -32 -6 -67h-254q4 14 4 39q0 63 -41.5 97t-118.5 34q-92 0 -147.5 -37t-55.5 -99q0 -27 16.5 -46.5t45 -31.5t65 -21t79.5 -17q9 -1 13 -2q155 -27 219 -56
q140 -62 140 -204q0 -179 -144 -283t-391 -104z" />
    <glyph glyph-name="Scedilla" unicode="&#x15e;" horiz-adv-x="1394" 
d="M600 -20q-254 0 -393 125.5t-139 351.5q0 23 4 73h280q-4 -28 -4 -43q0 -134 78 -208t219 -74q173 0 273 70t100 192q0 30 -10.5 55t-25 43t-43.5 33t-51.5 24t-65 19t-68.5 14.5t-76 12.5q-49 7 -75.5 11.5t-73 14t-73.5 18t-66 24t-62 32t-50 41.5t-41.5 54t-24 67
t-9.5 82q0 246 179.5 385t491.5 139q234 0 363 -121t129 -340q0 -9 -1 -31.5t-1 -35.5h-281q2 16 2 49q0 121 -68.5 187.5t-195.5 66.5q-149 0 -235 -63.5t-86 -170.5q0 -27 9.5 -48.5t23 -37t40.5 -29t48 -21.5t61 -17t64.5 -13t72.5 -12q65 -10 100 -16t96 -21t96 -30.5
t79 -43.5t67.5 -61.5t40.5 -82.5t17 -109q0 -254 -193.5 -404.5t-521.5 -150.5zM481 -492q-110 0 -194 43l20 113q63 -47 156 -47q76 0 120 27.5t44 74.5q0 29 -20.5 45.5t-57.5 16.5q-65 0 -111 -43l-76 67q47 38 114 61t132 23q96 0 148.5 -39t52.5 -108q0 -108 -88 -171
t-240 -63z" />
    <glyph glyph-name="scedilla" unicode="&#x15f;" horiz-adv-x="1071" 
d="M436 -20q-196 0 -302.5 74.5t-106.5 211.5q0 30 6 68h252q-4 -16 -4 -39q0 -68 48.5 -105.5t137.5 -37.5q110 0 172.5 41t62.5 112q0 22 -8 40t-25.5 31t-35.5 22.5t-49 17t-53.5 12t-59.5 10.5q-35 6 -54.5 9.5t-53.5 11t-53.5 14t-48 18t-45.5 24t-36.5 30.5t-30 38.5
t-17.5 48t-7 58.5q0 165 135.5 262t366.5 97q184 0 284.5 -71t100.5 -200q0 -32 -6 -67h-254q4 14 4 39q0 63 -41.5 97t-118.5 34q-92 0 -147.5 -37t-55.5 -99q0 -27 16.5 -46.5t45 -31.5t65 -21t79.5 -17q9 -1 13 -2q155 -27 219 -56q140 -62 140 -204q0 -179 -144 -283
t-391 -104zM313 -492q-110 0 -194 43l20 113q63 -47 156 -47q76 0 119 27.5t43 74.5q0 29 -20.5 45.5t-57.5 16.5q-66 0 -109 -43l-75 67q48 38 113.5 61t131.5 23q96 0 148.5 -39t52.5 -108q0 -108 -88 -171t-240 -63z" />
    <glyph glyph-name="Scaron" unicode="&#x160;" horiz-adv-x="1394" 
d="M709 1657l-109 350h207l92 -328h4l203 328h209l-234 -350h-372zM1364 1008h-281q2 16 2 49q0 121 -68.5 187.5t-195.5 66.5q-149 0 -235 -63.5t-86 -170.5q0 -27 9.5 -48.5t23 -37t40.5 -29t48 -21.5t61 -17t64.5 -13t72.5 -12q65 -10 100 -16t96 -21t96 -30.5t79 -43.5
t67.5 -61.5t40.5 -82.5t17 -109q0 -254 -193.5 -404.5t-521.5 -150.5q-254 0 -393 125.5t-139 351.5q0 23 4 73h280q-4 -28 -4 -43q0 -134 78 -208t219 -74q173 0 273 70t100 192q0 30 -10.5 55t-25 43t-43.5 33t-51.5 24t-65 19t-68.5 14.5t-76 12.5q-49 7 -75.5 11.5
t-73 14t-73.5 18t-66 24t-62 32t-50 41.5t-41.5 54t-24 67t-9.5 82q0 246 179.5 385t491.5 139q234 0 363 -121t129 -340q0 -9 -1 -31.5t-1 -35.5z" />
    <glyph glyph-name="scaron" unicode="&#x161;" horiz-adv-x="1071" 
d="M461 1169l-109 353h207l90 -328h4l205 328h209l-233 -353h-373zM627 1049q184 0 284.5 -71t100.5 -200q0 -32 -6 -67h-254q4 14 4 39q0 63 -41.5 97t-118.5 34q-92 0 -147.5 -37t-55.5 -99q0 -27 16.5 -46.5t45 -31.5t65 -21t79.5 -17q9 -1 13 -2q155 -27 219 -56
q140 -62 140 -204q0 -179 -144 -283t-391 -104q-196 0 -302.5 74.5t-106.5 211.5q0 30 6 68h252q-4 -16 -4 -39q0 -68 48.5 -105.5t137.5 -37.5q110 0 172.5 41t62.5 112q0 22 -8 40t-25.5 31t-35.5 22.5t-49 17t-53.5 12t-59.5 10.5q-35 6 -54.5 9.5t-53.5 11t-53.5 14
t-48 18t-45.5 24t-36.5 30.5t-30 38.5t-17.5 48t-7 58.5q0 165 135.5 262t366.5 97z" />
    <glyph glyph-name="uni0162" unicode="&#x162;" horiz-adv-x="1232" 
d="M207 1516h1169l-37 -220h-442l-229 -1296h-283l229 1296h-444zM528 -111q96 0 148.5 -39t52.5 -108q0 -108 -87.5 -171t-240.5 -63q-110 0 -194 43l20 113q63 -47 158 -47q76 0 119 27.5t43 74.5q0 29 -20.5 45.5t-57.5 16.5q-65 0 -111 -43l-73 67q47 38 113 61t130 23z
" />
    <glyph glyph-name="uni0163" unicode="&#x163;" horiz-adv-x="815" 
d="M836 842h-322l-86 -496q-2 -14 -2 -35q0 -55 36.5 -85.5t102.5 -30.5q77 0 146 32l-37 -200q-110 -47 -232 -47q-143 0 -220 66t-77 187q0 17 9 78l92 531h-148l33 186h164l61 344h269l-15 -86q-15 -97 -95.5 -164t-209.5 -90l-2 -4h565zM324 -111q96 0 148 -38.5
t52 -108.5q0 -108 -87.5 -171t-239.5 -63q-111 0 -195 43l21 113q63 -47 157 -47q75 0 118.5 27.5t43.5 74.5q0 29 -20.5 45.5t-57.5 16.5q-64 0 -110 -43l-74 67q47 38 113.5 61t130.5 23z" />
    <glyph glyph-name="Tcaron" unicode="&#x164;" horiz-adv-x="1232" 
d="M631 1657l-111 350h209l90 -328h4l205 328h207l-231 -350h-373zM207 1516h1169l-37 -220h-442l-229 -1296h-283l229 1296h-444z" />
    <glyph glyph-name="tcaron" unicode="&#x165;" horiz-adv-x="815" 
d="M858 1597l186 -53l-192 -430l-170 53zM305 1032l-2 -4h565l-32 -186h-322l-86 -496q-2 -14 -2 -35q0 -55 36.5 -85.5t102.5 -30.5q77 0 146 32l-37 -200q-110 -47 -232 -47q-143 0 -220 66t-77 187q0 17 9 78l92 531h-148l33 186h164l61 344h269l-15 -86
q-15 -97 -95.5 -164t-209.5 -90z" />
    <glyph glyph-name="Tbar" unicode="&#x166;" horiz-adv-x="1247" 
d="M1384 1516l-38 -220h-443l-90 -503h225l-16 -91h-223l-125 -702h-283l125 702h-231l18 91h227l91 503h-445l37 220h1171z" />
    <glyph glyph-name="tbar" unicode="&#x167;" horiz-adv-x="835" 
d="M877 1028l-31 -186h-322l-47 -271h324l-17 -90h-321l-25 -135q-2 -14 -2 -35q0 -56 36 -86t103 -30q77 0 146 32l-37 -200q-110 -47 -233 -47q-141 0 -218 66t-77 187q0 24 8 78l31 170h-148l16 90h146l47 271h-147l32 186h164l62 344h268l-14 -86q-15 -97 -96 -164
t-210 -90l-2 -4h564z" />
    <glyph glyph-name="Umacron" unicode="&#x16a;" horiz-adv-x="1497" 
d="M1300 1745h-659l35 190h659zM653 -20q-243 0 -375.5 112.5t-132.5 315.5q0 57 13 127l172 981h282l-174 -996q-8 -41 -8 -74q0 -116 70 -178.5t200 -62.5q152 0 251.5 83t125.5 232l174 996h269l-172 -981q-46 -261 -230 -408t-465 -147z" />
    <glyph glyph-name="umacron" unicode="&#x16b;" horiz-adv-x="1200" 
d="M432 1448h660l-35 -191h-660zM791 473l98 555h270l-182 -1028h-270l65 362h-4q-32 -180 -135.5 -281t-255.5 -101q-139 0 -213 79t-74 224q0 54 12 118l111 627h270l-108 -614q-6 -37 -6 -60q0 -77 40.5 -118t116.5 -41q102 0 172 73t93 205z" />
    <glyph glyph-name="Uring" unicode="&#x16e;" horiz-adv-x="1497" 
d="M950 1620q-110 0 -169.5 52t-59.5 145q0 129 85.5 206.5t227.5 77.5q110 0 170 -52.5t60 -145.5q0 -129 -85.5 -206t-228.5 -77zM971 1745q61 0 96 37.5t35 101.5q0 43 -23 66.5t-67 23.5q-60 0 -95.5 -37.5t-35.5 -99.5q0 -43 23.5 -67.5t66.5 -24.5zM653 -20
q-243 0 -375.5 112.5t-132.5 315.5q0 57 13 127l172 981h282l-174 -996q-8 -41 -8 -74q0 -116 70 -178.5t200 -62.5q152 0 251.5 83t125.5 232l174 996h269l-172 -981q-46 -261 -230 -408t-465 -147z" />
    <glyph glyph-name="uring" unicode="&#x16f;" horiz-adv-x="1200" 
d="M707 1133q-109 0 -168.5 52.5t-59.5 145.5q0 129 85 206t227 77q110 0 169.5 -52t59.5 -145q0 -130 -84.5 -207t-228.5 -77zM768 1489q-60 0 -95.5 -38t-35.5 -101q0 -43 23.5 -66.5t66.5 -23.5q61 0 96 37.5t35 99.5q0 43 -23 67.5t-67 24.5zM791 473l98 555h270
l-182 -1028h-270l65 362h-4q-32 -180 -135.5 -281t-255.5 -101q-139 0 -213 79t-74 224q0 54 12 118l111 627h270l-108 -614q-6 -37 -6 -60q0 -77 40.5 -118t116.5 -41q102 0 172 73t93 205z" />
    <glyph glyph-name="Uhungarumlaut" unicode="&#x170;" horiz-adv-x="1497" 
d="M1180 1939l-402 -307l-94 113l387 317zM1538 1939l-401 -307l-93 113l386 317zM653 -20q-243 0 -375.5 112.5t-132.5 315.5q0 57 13 127l172 981h282l-174 -996q-8 -41 -8 -74q0 -116 70 -178.5t200 -62.5q152 0 251.5 83t125.5 232l174 996h269l-172 -981
q-46 -261 -230 -408t-465 -147z" />
    <glyph glyph-name="uhungarumlaut" unicode="&#x171;" horiz-adv-x="1200" 
d="M827 1577l109 -123l-401 -307l-93 113zM1294 1454l-401 -307l-92 113l387 317zM791 473l98 555h270l-182 -1028h-270l65 362h-4q-32 -180 -135.5 -281t-255.5 -101q-139 0 -213 79t-74 224q0 54 12 118l111 627h270l-108 -614q-6 -37 -6 -60q0 -77 40.5 -118t116.5 -41
q102 0 172 73t93 205z" />
    <glyph glyph-name="Uogonek" unicode="&#x172;" horiz-adv-x="1497" 
d="M1077 520l174 996h269l-172 -981q-37 -205 -161 -342t-315 -187q-116 -85 -183.5 -164t-67.5 -131q0 -49 57 -49q76 0 162 47l-27 -153q-101 -48 -229 -48q-92 0 -141.5 35.5t-49.5 98.5q0 87 121 180t322 170l-2 6q-82 -18 -181 -18q-243 0 -375.5 112.5t-132.5 315.5
q0 57 13 127l172 981h282l-174 -996q-8 -41 -8 -74q0 -116 70 -178.5t200 -62.5q152 0 251.5 83t125.5 232z" />
    <glyph glyph-name="uogonek" unicode="&#x173;" horiz-adv-x="1200" 
d="M1159 1028l-182 -1028q-116 -85 -183 -161t-67 -128q0 -49 57 -49q75 0 164 47l-28 -153q-98 -48 -230 -48q-92 0 -141 35t-49 99q0 51 39.5 113t101.5 115.5t147 89.5t166 36v4h-247l65 362h-4q-32 -180 -135.5 -281t-255.5 -101q-139 0 -213 79t-74 224q0 54 12 118
l111 627h270l-108 -614q-6 -37 -6 -60q0 -77 40.5 -118t116.5 -41q102 0 172 73t93 205l98 555h270z" />
    <glyph glyph-name="Wcircumflex" unicode="&#x174;" horiz-adv-x="2162" 
d="M1352 1985h-4l-205 -328h-209l233 350h373l109 -350h-207zM1483 25l522 1491h283l-553 -1516h-508l28 1491h-4l-495 -1491h-510l-19 1516h301l-4 -1491h4l506 1491h461l-16 -1491h4z" />
    <glyph glyph-name="wcircumflex" unicode="&#x175;" horiz-adv-x="1792" 
d="M1071 1497h-4l-203 -328h-209l234 353h373l108 -353h-207zM1196 18l356 1010h281l-395 -1028h-471l18 1010h-4l-336 -1010h-471l-35 1028h289l2 -1010h4l334 1010h444l-20 -1010h4z" />
    <glyph glyph-name="Ycircumflex" unicode="&#x176;" horiz-adv-x="1431" 
d="M1006 1985h-5l-204 -328h-209l233 350h373l109 -350h-207zM766 627l555 889h305l-981 -1516h-305l383 602h-264l-269 914h326l246 -889h4z" />
    <glyph glyph-name="ycircumflex" unicode="&#x177;" horiz-adv-x="1130" 
d="M748 1497h-5l-204 -328h-207l231 353h373l111 -353h-209zM481 18l412 1010h289l-658 -1499h-288l206 471h-221l-88 1028h289l55 -1010h4z" />
    <glyph glyph-name="Ydieresis" unicode="&#x178;" horiz-adv-x="1431" 
d="M678 1966h254l-45 -256h-252zM1067 1966h254l-43 -256h-254zM766 627l555 889h305l-981 -1516h-305l383 602h-264l-269 914h326l246 -889h4z" />
    <glyph glyph-name="Zacute" unicode="&#x179;" horiz-adv-x="1415" 
d="M1208 2032l56 -156l-449 -205l-49 141zM1477 1516l-88 -504l-1332 -789v-4h1246l-39 -219h-1272l88 504l1331 788l2 4h-1163l37 220h1190z" />
    <glyph glyph-name="zacute" unicode="&#x17a;" horiz-adv-x="1091" 
d="M944 1546l55 -157l-446 -205l-51 141zM1077 1028l-76 -436l-948 -399v-5h916l-33 -188h-944l78 436l946 402l2 4h-864l30 186h893z" />
    <glyph glyph-name="Zdotaccent" unicode="&#x17b;" horiz-adv-x="1415" 
d="M842 1966h270l-43 -256h-270zM1477 1516l-88 -504l-1332 -789v-4h1246l-39 -219h-1272l88 504l1331 788l2 4h-1163l37 220h1190z" />
    <glyph glyph-name="zdotaccent" unicode="&#x17c;" horiz-adv-x="1091" 
d="M578 1481h270l-43 -256h-270zM1077 1028l-76 -436l-948 -399v-5h916l-33 -188h-944l78 436l946 402l2 4h-864l30 186h893z" />
    <glyph glyph-name="Zcaron" unicode="&#x17d;" horiz-adv-x="1415" 
d="M735 1657l-108 350h209l90 -328h4l203 328h208l-231 -350h-375zM1477 1516l-88 -504l-1332 -789v-4h1246l-39 -219h-1272l88 504l1331 788l2 4h-1163l37 220h1190z" />
    <glyph glyph-name="zcaron" unicode="&#x17e;" horiz-adv-x="1091" 
d="M473 1169l-111 353h209l91 -328h4l202 328h209l-231 -353h-373zM1018 842h-864l30 186h893l-76 -436l-948 -399v-5h916l-33 -188h-944l78 436l946 402z" />
    <glyph glyph-name="florin" unicode="&#x192;" horiz-adv-x="1421" 
d="M1298 1536q156 0 269 -61l-88 -193q-70 39 -164 39q-83 0 -146.5 -53.5t-99.5 -149.5l-102 -289h286l-16 -90h-301l-152 -426q-57 -157 -181.5 -245t-289.5 -88q-155 0 -268 61l90 192q64 -38 164 -38q83 0 146.5 53t97.5 149l121 342h-277l16 90h293l131 373
q56 157 180.5 245.5t290.5 88.5z" />
    <glyph glyph-name="uni0218" unicode="&#x218;" horiz-adv-x="1394" 
d="M1364 1008h-281q2 16 2 49q0 121 -68.5 187.5t-195.5 66.5q-149 0 -235 -63.5t-86 -170.5q0 -27 9.5 -48.5t23 -37t40.5 -29t48 -21.5t61 -17t64.5 -13t72.5 -12q65 -10 100 -16t96 -21t96 -30.5t79 -43.5t67.5 -61.5t40.5 -82.5t17 -109q0 -254 -193.5 -404.5
t-521.5 -150.5q-254 0 -393 125.5t-139 351.5q0 23 4 73h280q-4 -28 -4 -43q0 -134 78 -208t219 -74q173 0 273 70t100 192q0 30 -10.5 55t-25 43t-43.5 33t-51.5 24t-65 19t-68.5 14.5t-76 12.5q-49 7 -75.5 11.5t-73 14t-73.5 18t-66 24t-62 32t-50 41.5t-41.5 54t-24 67
t-9.5 82q0 246 179.5 385t491.5 139q234 0 363 -121t129 -340q0 -9 -1 -31.5t-1 -35.5zM655 -309h-229l33 174h243l-26 -148q-15 -87 -84.5 -138t-196.5 -71l13 78q113 12 168 36.5t79 68.5z" />
    <glyph glyph-name="uni0219" unicode="&#x219;" horiz-adv-x="1071" 
d="M1006 711h-254q4 14 4 39q0 63 -41.5 97t-118.5 34q-92 0 -147.5 -37t-55.5 -99q0 -27 16.5 -46.5t45 -31.5t65 -21t79.5 -17q9 -1 13 -2q155 -27 219 -56q140 -62 140 -204q0 -179 -144 -283t-391 -104q-196 0 -302.5 74.5t-106.5 211.5q0 30 6 68h252q-4 -16 -4 -39
q0 -68 48.5 -105.5t137.5 -37.5q110 0 172.5 41t62.5 112q0 22 -8 40t-25.5 31t-35.5 22.5t-49 17t-53.5 12t-59.5 10.5q-35 6 -54.5 9.5t-53.5 11t-53.5 14t-48 18t-45.5 24t-36.5 30.5t-30 38.5t-17.5 48t-7 58.5q0 165 135.5 262t366.5 97q184 0 284.5 -71t100.5 -200
q0 -32 -6 -67zM485 -309h-227l31 174h246l-27 -148q-29 -168 -281 -209l13 78q113 12 167 36t78 69z" />
    <glyph glyph-name="uni021A" unicode="&#x21a;" horiz-adv-x="1232" 
d="M207 1516h1169l-37 -220h-442l-229 -1296h-283l229 1296h-444zM575 -309h-227l31 174h246l-27 -148q-15 -87 -85 -137.5t-198 -71.5l13 78q113 12 168 36.5t79 68.5z" />
    <glyph glyph-name="uni021B" unicode="&#x21b;" horiz-adv-x="815" 
d="M836 842h-322l-86 -496q-2 -14 -2 -35q0 -55 36.5 -85.5t102.5 -30.5q77 0 146 32l-37 -200q-110 -47 -232 -47q-143 0 -220 66t-77 187q0 17 9 78l92 531h-148l33 186h164l61 344h269l-15 -86q-15 -97 -95.5 -164t-209.5 -90l-2 -4h565zM371 -309h-228l31 174h246
l-29 -148q-15 -87 -84 -138t-196 -71l12 78q113 12 168.5 36.5t79.5 68.5z" />
    <glyph glyph-name="uni0237" unicode="&#x237;" horiz-adv-x="534" 
d="M227 -471h-270l266 1499h271z" />
    <glyph glyph-name="circumflex" unicode="&#x2c6;" horiz-adv-x="759" 
d="M743 1522l111 -353h-209l-90 328h-4l-205 -328h-207l232 353h372z" />
    <glyph glyph-name="caron" unicode="&#x2c7;" horiz-adv-x="759" 
d="M504 1194l203 328h208l-233 -353h-373l-108 353h207l92 -328h4z" />
    <glyph glyph-name="breve" unicode="&#x2d8;" horiz-adv-x="737" 
d="M483 1161q-155 0 -225.5 95.5t-44.5 265.5h184q-15 -93 16 -146t99 -53t116.5 52.5t67.5 146.5h185q-32 -169 -137.5 -265t-260.5 -96z" />
    <glyph glyph-name="dotaccent" unicode="&#x2d9;" horiz-adv-x="501" 
d="M514 1225h-270l43 256h270z" />
    <glyph glyph-name="ring" unicode="&#x2da;" horiz-adv-x="616" 
d="M418 1133q-110 0 -170 52.5t-60 145.5q0 129 85.5 206t228.5 77q110 0 169.5 -52t59.5 -145q0 -129 -85.5 -206.5t-227.5 -77.5zM438 1260q61 0 96 37.5t35 99.5q0 43 -23 67.5t-67 24.5q-60 0 -95.5 -38t-35.5 -101q0 -43 23.5 -66.5t66.5 -23.5z" />
    <glyph glyph-name="ogonek" unicode="&#x2db;" horiz-adv-x="499" 
d="M72 -492q-90 0 -139.5 35.5t-49.5 98.5q0 51 40 113t102 115.5t147 89.5t166 36v4h22q-116 -84 -182.5 -160.5t-66.5 -128.5q0 -49 57 -49q76 0 162 47l-27 -153q-101 -48 -231 -48z" />
    <glyph glyph-name="tilde" unicode="&#x2dc;" horiz-adv-x="892" 
d="M303 1196h-119q28 146 107.5 227.5t195.5 81.5q45 0 86 -16.5t65.5 -35.5t58 -35.5t65.5 -16.5q43 0 76.5 30t48.5 82h119q-28 -146 -108 -227.5t-196 -81.5q-45 0 -86 16.5t-66 37t-57.5 37t-64.5 16.5q-44 0 -78 -30.5t-47 -84.5z" />
    <glyph glyph-name="hungarumlaut" unicode="&#x2dd;" horiz-adv-x="935" 
d="M676 1454l-402 -307l-92 113l387 317zM1036 1454l-401 -307l-92 113l385 317z" />
    <glyph glyph-name="gravecomb" unicode="&#x300;" horiz-adv-x="0" 
d="M131 1325l-102 -141l-375 205l113 157z" />
    <glyph glyph-name="acutecomb" unicode="&#x301;" horiz-adv-x="0" 
d="M125 1389l-449 -205l-49 141l441 221z" />
    <glyph glyph-name="uni0302" unicode="&#x302;" horiz-adv-x="0" 
d="M-16 1522l110 -353h-209l-90 328h-4l-205 -328h-207l232 353h373z" />
    <glyph glyph-name="tildecomb" unicode="&#x303;" horiz-adv-x="0" 
d="M-588 1212h-119q28 146 108 228t196 82q45 0 86 -16.5t66 -37t57.5 -37t64.5 -16.5q44 0 77 30.5t48 84.5h119q-28 -147 -107 -228t-196 -81q-45 0 -86 16.5t-66 35.5t-58 35.5t-65 16.5q-44 0 -77 -30t-48 -83z" />
    <glyph glyph-name="uni0304" unicode="&#x304;" horiz-adv-x="0" 
d="M92 1257h-659l32 191h660z" />
    <glyph glyph-name="uni0306" unicode="&#x306;" horiz-adv-x="0" 
d="M-254 1161q-155 0 -225.5 95.5t-44.5 265.5h184q-15 -93 16 -146t99 -53t116.5 52.5t67.5 146.5h184q-32 -169 -137 -265t-260 -96z" />
    <glyph glyph-name="uni0307" unicode="&#x307;" horiz-adv-x="0" 
d="M12 1225h-270l43 256h270z" />
    <glyph glyph-name="uni0308" unicode="&#x308;" horiz-adv-x="0" 
d="M-399 1225h-252l43 256h252zM-10 1225h-252l43 256h252z" />
    <glyph glyph-name="uni030A" unicode="&#x30a;" horiz-adv-x="0" 
d="M-199 1133q-109 0 -169 52.5t-60 145.5q0 129 85 206t228 77q110 0 170 -52t60 -145q0 -129 -85.5 -206.5t-228.5 -77.5zM-178 1260q61 0 96 37.5t35 99.5q0 43 -23 67.5t-67 24.5q-60 0 -95.5 -38t-35.5 -101q0 -43 23.5 -66.5t66.5 -23.5z" />
    <glyph glyph-name="uni030B" unicode="&#x30b;" horiz-adv-x="0" 
d="M-260 1454l-402 -307l-92 113l387 317zM100 1454l-401 -307l-92 113l385 317z" />
    <glyph glyph-name="uni030C" unicode="&#x30c;" horiz-adv-x="0" 
d="M-256 1194l203 328h209l-234 -353h-373l-108 353h207l92 -328h4z" />
    <glyph glyph-name="uni0312" unicode="&#x312;" horiz-adv-x="0" 
d="M143 1602l-14 -78q-111 -7 -166.5 -32t-79.5 -73h228l-35 -198h-246l29 161q34 190 284 220z" />
    <glyph glyph-name="uni0326" unicode="&#x326;" horiz-adv-x="0" 
d="M-451 -309l33 174h244l-27 -148q-15 -87 -84.5 -137.5t-195.5 -71.5l12 78q113 12 168.5 36.5t79.5 68.5h-230z" />
    <glyph glyph-name="uni0327" unicode="&#x327;" horiz-adv-x="0" 
d="M-520 -492q-111 0 -195 43l21 113q63 -47 155 -47q76 0 120 27.5t44 74.5q0 29 -21 45.5t-57 16.5q-67 0 -110 -43l-76 67q47 38 114 61t132 23q96 0 148 -38.5t52 -108.5q0 -108 -87.5 -171t-239.5 -63z" />
    <glyph glyph-name="uni0328" unicode="&#x328;" horiz-adv-x="0" 
d="M-428 -492q-90 0 -139 35.5t-49 98.5q0 51 39.5 113t101.5 115.5t147 89.5t166 36v4h23q-117 -84 -183.5 -160.5t-66.5 -128.5q0 -49 57 -49q76 0 162 47l-27 -153q-101 -48 -231 -48z" />
    <glyph glyph-name="uni0335" unicode="&#x335;" horiz-adv-x="0" 
d="M-66 684h-737l17 90h737z" />
    <glyph glyph-name="uni0336" unicode="&#x336;" horiz-adv-x="0" 
d="M-63 684h-1457l17 90h1456z" />
    <glyph glyph-name="uni0337" unicode="&#x337;" horiz-adv-x="0" 
d="M117 1065l-965 -1155l-74 55l965 1153z" />
    <glyph glyph-name="uni0338" unicode="&#x338;" horiz-adv-x="0" 
d="M160 1540l-1286 -1620l-84 55l1286 1620z" />
    <glyph glyph-name="uni0394" unicode="&#x394;" horiz-adv-x="1470" 
d="M664 1516h499l203 -1516h-1440zM899 1491l-588 -1272h729l-137 1272h-4z" />
    <glyph glyph-name="uni03A9" unicode="&#x3a9;" horiz-adv-x="1656" 
d="M963 221v-4h503l-36 -217h-596l36 217q132 0 235.5 93t157.5 247t54 340q0 195 -91.5 304.5t-258.5 109.5q-249 0 -399 -190t-150 -513q0 -185 66.5 -288t189.5 -103l-39 -217h-596l39 217h504l2 4q-211 0 -326 130t-115 362q0 188 61.5 342.5t173.5 260t272.5 163
t355.5 57.5q297 0 458.5 -143t161.5 -400q0 -221 -80 -395.5t-232 -275.5t-351 -101z" />
    <glyph glyph-name="uni03BC" unicode="&#x3bc;" horiz-adv-x="1210" 
d="M803 473l96 555h270l-180 -1028h-270l63 362h-4q-32 -180 -135 -281t-254 -101q-216 0 -270 184l112 -629l-2 -6h-270l150 842q1 5 2 15t2 15l110 627h273l-111 -614q-6 -37 -6 -60q0 -76 41.5 -117.5t116.5 -41.5q102 0 171.5 73t94.5 205z" />
    <glyph glyph-name="pi" unicode="&#x3c0;" horiz-adv-x="1339" 
d="M123 1028h1274l-33 -186h-182l-150 -842h-270l149 842h-364l-150 -842h-270l149 842h-186z" />
    <glyph glyph-name="Wgrave" unicode="&#x1e80;" horiz-adv-x="2162" 
d="M1141 2032l362 -220l-100 -141l-377 205zM1483 25l522 1491h283l-553 -1516h-508l28 1491h-4l-495 -1491h-510l-19 1516h301l-4 -1491h4l506 1491h461l-16 -1491h4z" />
    <glyph glyph-name="wgrave" unicode="&#x1e81;" horiz-adv-x="1792" 
d="M860 1546l365 -221l-101 -141l-376 205zM1196 18l356 1010h281l-395 -1028h-471l18 1010h-4l-336 -1010h-471l-35 1028h289l2 -1010h4l334 1010h444l-20 -1010h4z" />
    <glyph glyph-name="Wacute" unicode="&#x1e82;" horiz-adv-x="2162" 
d="M1577 2032l55 -156l-446 -205l-51 141zM1483 25l522 1491h283l-553 -1516h-508l28 1491h-4l-495 -1491h-510l-19 1516h301l-4 -1491h4l506 1491h461l-16 -1491h4z" />
    <glyph glyph-name="wacute" unicode="&#x1e83;" horiz-adv-x="1792" 
d="M1298 1546l56 -157l-447 -205l-51 141zM1196 18l356 1010h281l-395 -1028h-471l18 1010h-4l-336 -1010h-471l-35 1028h289l2 -1010h4l334 1010h444l-20 -1010h4z" />
    <glyph glyph-name="Wdieresis" unicode="&#x1e84;" horiz-adv-x="2162" 
d="M1024 1966h254l-43 -256h-254zM1413 1966h254l-43 -256h-254zM1483 25l522 1491h283l-553 -1516h-508l28 1491h-4l-495 -1491h-510l-19 1516h301l-4 -1491h4l506 1491h461l-16 -1491h4z" />
    <glyph glyph-name="wdieresis" unicode="&#x1e85;" horiz-adv-x="1792" 
d="M745 1481h254l-45 -256h-252zM1135 1481h254l-43 -256h-254zM1196 18l356 1010h281l-395 -1028h-471l18 1010h-4l-336 -1010h-471l-35 1028h289l2 -1010h4l334 1010h444l-20 -1010h4z" />
    <glyph glyph-name="uni1E9E" unicode="&#x1e9e;" horiz-adv-x="1419" 
d="M748 866h20q269 0 418 -100t149 -279q0 -232 -175 -369.5t-474 -137.5q-116 0 -199 24l41 221q78 -20 177 -20q158 0 248.5 70.5t90.5 191.5q0 99 -78 154t-223 55h-100l35 194q174 6 275.5 77t101.5 190q0 82 -56 128t-159 46q-123 0 -204 -66.5t-101 -183.5l-189 -1061
h-283l187 1051q40 229 206 357t423 128q229 0 355 -78.5t126 -218.5q0 -173 -163.5 -271t-448.5 -98v-4z" />
    <glyph glyph-name="Ygrave" unicode="&#x1ef2;" horiz-adv-x="1431" 
d="M793 2032l364 -220l-100 -141l-377 205zM766 627l555 889h305l-981 -1516h-305l383 602h-264l-269 914h326l246 -889h4z" />
    <glyph glyph-name="ygrave" unicode="&#x1ef3;" horiz-adv-x="1130" 
d="M537 1546l364 -221l-100 -141l-377 205zM481 18l412 1010h289l-658 -1499h-288l206 471h-221l-88 1028h289l55 -1010h4z" />
    <glyph glyph-name="endash" unicode="&#x2013;" horiz-adv-x="1228" 
d="M1106 477h-993l16 90h991z" />
    <glyph glyph-name="emdash" unicode="&#x2014;" horiz-adv-x="1812" 
d="M1690 477h-1577l16 90h1575z" />
    <glyph glyph-name="quoteleft" unicode="&#x2018;" horiz-adv-x="514" 
d="M580 1522l-25 -146q-120 -12 -204 -62t-118 -128h287l-51 -291h-303l43 242q28 158 125.5 260t245.5 125z" />
    <glyph glyph-name="quoteright" unicode="&#x2019;" horiz-adv-x="501" 
d="M238 1227l51 289h303l-43 -240q-28 -158 -125.5 -260t-245.5 -125l25 143q121 13 204 63.5t117 129.5h-286z" />
    <glyph glyph-name="quotesinglbase" unicode="&#x201a;" horiz-adv-x="526" 
d="M33 0l49 289h303l-41 -240q-29 -159 -127.5 -260.5t-245.5 -124.5l27 146q119 12 202 61.5t119 128.5h-286z" />
    <glyph glyph-name="quotedblleft" unicode="&#x201c;" horiz-adv-x="921" 
d="M580 1522l-25 -146q-120 -12 -204 -62t-118 -128h287l-51 -291h-303l43 242q28 158 125.5 260t245.5 125zM987 1522l-26 -146q-118 -12 -202 -62t-120 -128h289l-51 -291h-304l43 242q28 158 125.5 260t245.5 125z" />
    <glyph glyph-name="quotedblright" unicode="&#x201d;" horiz-adv-x="909" 
d="M238 1227l51 289h303l-43 -240q-28 -158 -125.5 -260t-245.5 -125l25 143q121 13 204 63.5t117 129.5h-286zM645 1227l51 289h301l-41 -240q-28 -159 -125.5 -260.5t-244.5 -124.5l24 143q120 13 203 63.5t119 129.5h-287z" />
    <glyph glyph-name="quotedblbase" unicode="&#x201e;" horiz-adv-x="933" 
d="M33 0l49 289h303l-41 -240q-29 -159 -127.5 -260.5t-245.5 -124.5l27 146q119 12 202 61.5t119 128.5h-286zM438 0l51 289h304l-43 -240q-28 -158 -125.5 -260t-245.5 -125l27 146q119 12 202 61.5t119 128.5h-289z" />
    <glyph glyph-name="dagger" unicode="&#x2020;" horiz-adv-x="776" 
d="M651 1577l-43 -238h226l-23 -127h-231l-95 -540h-145l63 354q12 73 56 120.5t110 61.5v4h-360l22 127h234l41 238h145z" />
    <glyph glyph-name="daggerdbl" unicode="&#x2021;" horiz-adv-x="776" 
d="M834 1339l-23 -127h-231l-31 -174h231l-22 -129h-232l-41 -235h-145l10 51q12 73 56 120.5t110 59.5v4h-360l22 129h228q15 69 57.5 112.5t105.5 57.5v4h-360l22 127h234l41 238h145l-43 -238h226z" />
    <glyph glyph-name="bullet" unicode="&#x2022;" horiz-adv-x="778" 
d="M594 395h-453l74 420h453z" />
    <glyph glyph-name="ellipsis" unicode="&#x2026;" horiz-adv-x="1433" 
d="M330 0h-303l51 289h303zM782 0h-303l51 289h304zM1233 0h-301l51 289h301z" />
    <glyph glyph-name="perthousand" unicode="&#x2030;" horiz-adv-x="2242" 
d="M1477 1483l-1272 -1503l-64 53l1272 1503zM424 737q-122 0 -189 77t-67 214q0 208 107.5 337.5t283.5 129.5q122 0 189 -77t67 -214q0 -208 -107.5 -337.5t-283.5 -129.5zM455 895q71 0 114 89t43 210q0 143 -82 143q-70 0 -114.5 -87.5t-44.5 -209.5q0 -68 21.5 -106.5
t62.5 -38.5zM1047 -20q-122 0 -189 76.5t-67 213.5q0 208 107.5 337.5t281.5 129.5q124 0 191 -77t67 -214q0 -208 -107 -337t-284 -129zM1774 -20q-122 0 -189 76.5t-67 213.5q0 208 107.5 337.5t281.5 129.5q124 0 191 -77t67 -214q0 -208 -107 -337t-284 -129zM1075 137
q72 0 116 89t44 210q0 68 -21.5 106t-60.5 38q-70 0 -115 -87.5t-45 -209.5q0 -68 21.5 -107t60.5 -39zM1802 137q69 0 115.5 85.5t46.5 209.5q0 69 -22 108.5t-62 39.5q-67 0 -113.5 -85t-46.5 -210q0 -69 22 -108.5t60 -39.5z" />
    <glyph glyph-name="guilsinglleft" unicode="&#x2039;" horiz-adv-x="534" 
d="M375 117h-111l-192 395l331 395h111l-328 -395z" />
    <glyph glyph-name="guilsinglright" unicode="&#x203a;" horiz-adv-x="536" 
d="M131 117h-108l327 395l-188 395h108l193 -395z" />
    <glyph glyph-name="fraction" unicode="&#x2044;" horiz-adv-x="456" 
d="M938 1483l-1270 -1503l-63 53l1269 1503z" />
    <glyph glyph-name="uni2070" unicode="&#x2070;" horiz-adv-x="843" 
d="M459 721q-140 0 -216.5 93.5t-76.5 260.5q0 258 126 419t331 161q140 0 216 -94t76 -261q0 -258 -125.5 -418.5t-330.5 -160.5zM485 877q101 0 164.5 122.5t63.5 294.5q0 96 -30.5 150.5t-86.5 54.5q-99 0 -163 -121.5t-64 -294.5q0 -98 30 -152t86 -54z" />
    <glyph glyph-name="uni2074" unicode="&#x2074;" horiz-adv-x="811" 
d="M756 1085h118l-24 -149h-121l-35 -203h-196l34 203h-423l28 160l355 546h362zM657 1626l-346 -536v-5h254l97 541h-5z" />
    <glyph glyph-name="uni2075" unicode="&#x2075;" horiz-adv-x="778" 
d="M420 721q-137 0 -213 67t-76 187v22h193q0 -57 31 -88.5t91 -31.5q83 0 133 51t50 137q0 59 -32 92t-91 33q-52 0 -94 -28t-68 -75l-184 25l164 530h542l-26 -149h-371l-125 -387h4q38 107 113.5 166t173.5 59q96 0 149.5 -59t53.5 -164q0 -177 -113.5 -282t-304.5 -105z
" />
    <glyph glyph-name="uni2076" unicode="&#x2076;" horiz-adv-x="829" 
d="M909 1380h-188v15q0 51 -28 77.5t-81 26.5q-85 0 -147 -84t-90 -235l-15 -90h5q19 106 96 166.5t196 60.5q107 0 164.5 -56.5t57.5 -158.5q0 -173 -116.5 -277t-307.5 -104q-140 0 -214.5 89t-74.5 251q0 265 129 429.5t344 164.5q130 0 201 -64.5t71 -181.5
q0 -19 -2 -29zM532 1171q-85 0 -134.5 -44t-49.5 -123q0 -59 35 -93t96 -34q87 0 140 49t53 129q0 55 -37 85.5t-103 30.5z" />
    <glyph glyph-name="uni2077" unicode="&#x2077;" horiz-adv-x="694" 
d="M190 1493l25 149h657l-26 -143q-136 -41 -241 -223.5t-156 -466.5l-13 -76h-203l9 47q60 324 206.5 510.5t352.5 198.5v4h-611z" />
    <glyph glyph-name="uni2078" unicode="&#x2078;" horiz-adv-x="806" 
d="M604 1280v-4q115 -10 177.5 -69.5t62.5 -155.5q0 -151 -109 -240.5t-295 -89.5q-146 0 -225.5 63t-79.5 177q0 133 90 216.5t246 98.5v4q-107 0 -166 39t-59 108q0 105 96.5 166.5t261.5 61.5q136 0 211.5 -46.5t75.5 -129.5q0 -91 -78 -145t-209 -54zM436 1364
q0 -44 27 -69t74 -25q64 0 102.5 37.5t38.5 99.5q0 44 -26.5 68t-73.5 24q-63 0 -102.5 -37t-39.5 -98zM465 877q79 0 125.5 42t46.5 113q0 51 -31.5 79t-91.5 28q-79 0 -126.5 -42.5t-47.5 -113.5q0 -51 32.5 -78.5t92.5 -27.5z" />
    <glyph glyph-name="uni2079" unicode="&#x2079;" horiz-adv-x="827" 
d="M612 1655q141 0 215 -88.5t74 -251.5q0 -264 -130.5 -429t-344.5 -165q-127 0 -197.5 69t-70.5 191q0 25 2 39h188v-25q0 -57 27 -87.5t78 -30.5q85 0 147.5 84.5t87.5 234.5l19 102h-5q-17 -101 -94 -158t-196 -57q-107 0 -164.5 54t-57.5 153q0 167 115.5 266t306.5 99
zM537 1229q85 0 133.5 39.5t48.5 111.5q0 55 -35.5 87t-97.5 32q-86 0 -137.5 -44.5t-51.5 -119.5q0 -51 37 -78.5t103 -27.5z" />
    <glyph glyph-name="uni2080" unicode="&#x2080;" horiz-adv-x="843" 
d="M291 -238q-140 0 -216.5 94t-76.5 261q0 257 126 418t331 161q140 0 215 -93.5t75 -260.5q0 -258 -125 -419t-329 -161zM315 -82q101 0 165.5 123.5t64.5 294.5q0 96 -30.5 150.5t-86.5 54.5q-100 0 -164.5 -121.5t-64.5 -294.5q0 -97 30.5 -152t85.5 -55z" />
    <glyph glyph-name="uni2081" unicode="&#x2081;" horiz-adv-x="518" 
d="M246 684h194l-159 -909h-195l152 862h-5q-23 -126 -84 -196t-147 -70l31 172q89 0 145 37t68 104z" />
    <glyph glyph-name="uni2082" unicode="&#x2082;" horiz-adv-x="778" 
d="M-12 -72v-4h639l-27 -149h-682l25 143q251 89 394.5 225t143.5 285q0 53 -25 83t-69 30q-58 0 -102 -48t-64 -133h-190q38 158 140 247t247 89q132 0 204 -66t72 -184q0 -211 -188.5 -348.5t-517.5 -169.5z" />
    <glyph glyph-name="uni2083" unicode="&#x2083;" horiz-adv-x="774" 
d="M692 522q0 -100 -92.5 -156.5t-253.5 -56.5v-4q140 0 217.5 -58t77.5 -161q0 -148 -109 -236t-294 -88q-132 0 -205.5 69t-73.5 192q0 27 2 45h189v-31q0 -58 30 -89.5t86 -31.5q77 0 122.5 41t45.5 109q0 51 -34.5 78.5t-98.5 27.5h-20l22 135q82 6 129 44.5t47 101.5
q0 43 -27.5 66.5t-76.5 23.5q-55 0 -95 -40.5t-57 -111.5h-186q37 143 137 224t244 81q129 0 201.5 -48t72.5 -126z" />
    <glyph glyph-name="uni2084" unicode="&#x2084;" horiz-adv-x="811" 
d="M588 127h119l-25 -150h-121l-35 -202h-196l35 202h-424l28 160l355 547h362zM489 668l-346 -537v-4h254l97 541h-5z" />
    <glyph glyph-name="uni2085" unicode="&#x2085;" horiz-adv-x="778" 
d="M252 -238q-137 0 -213 67t-76 187v23h193q0 -57 32 -89t91 -32q83 0 132.5 51t49.5 137q0 59 -32 92t-91 33q-53 0 -94.5 -27.5t-67.5 -74.5l-184 25l164 530h542l-26 -149h-371l-125 -388h4q38 107 113.5 166.5t173.5 59.5q96 0 149.5 -59t53.5 -164
q0 -177 -113.5 -282.5t-304.5 -105.5z" />
    <glyph glyph-name="uni2086" unicode="&#x2086;" horiz-adv-x="829" 
d="M739 422h-188v14q0 51 -28 78t-81 27q-85 0 -147 -84.5t-90 -235.5l-15 -90h5q19 106 96 166.5t196 60.5q107 0 164.5 -56.5t57.5 -158.5q0 -173 -116.5 -277t-307.5 -104q-140 0 -214.5 89t-74.5 251q0 265 129 429.5t344 164.5q130 0 201 -64t71 -181q0 -19 -2 -29z
M362 213q-85 0 -134.5 -44.5t-49.5 -123.5q0 -59 35 -93t96 -34q87 0 140 49t53 129q0 55 -37 86t-103 31z" />
    <glyph glyph-name="uni2087" unicode="&#x2087;" horiz-adv-x="694" 
d="M20 535l27 149h655l-24 -143q-138 -41 -242.5 -223.5t-154.5 -467.5l-15 -75h-203l9 47q60 324 206.5 510t352.5 198v5h-611z" />
    <glyph glyph-name="uni2088" unicode="&#x2088;" horiz-adv-x="806" 
d="M436 322v-5q115 -10 177.5 -69.5t62.5 -155.5q0 -151 -109 -240.5t-295 -89.5q-146 0 -225.5 63t-79.5 177q0 133 90 216.5t246 98.5v5q-107 0 -166 39t-59 108q0 104 96.5 165.5t261.5 61.5q136 0 211.5 -46.5t75.5 -129.5q0 -91 -78 -144.5t-209 -53.5zM268 406
q0 -44 27 -69.5t74 -25.5q64 0 102.5 38t38.5 100q0 44 -26.5 68t-73.5 24q-63 0 -102.5 -37t-39.5 -98zM297 -82q79 0 125.5 42.5t46.5 113.5q0 51 -31.5 78.5t-91.5 27.5q-79 0 -126.5 -42t-47.5 -113q0 -51 32.5 -79t92.5 -28z" />
    <glyph glyph-name="uni2089" unicode="&#x2089;" horiz-adv-x="827" 
d="M442 696q141 0 215 -88.5t74 -251.5q0 -264 -130.5 -429t-344.5 -165q-127 0 -197.5 69.5t-70.5 191.5q0 24 2 38h188v-24q0 -57 27 -88t78 -31q85 0 147.5 85t87.5 235l19 102h-5q-17 -101 -94 -158t-196 -57q-107 0 -164.5 54t-57.5 153q0 167 115.5 265.5t306.5 98.5z
M367 270q85 0 133.5 40t48.5 112q0 55 -35.5 87t-97.5 32q-86 0 -137.5 -44.5t-51.5 -119.5q0 -51 37 -79t103 -28z" />
    <glyph glyph-name="Euro" unicode="&#x20ac;" horiz-adv-x="1404" 
d="M1034 1311q-165 0 -288 -103.5t-181 -283.5h561l-71 -95h-514q-14 -78 -19 -141h434l-69 -94h-367q5 -183 87.5 -286t230.5 -103q83 0 180.5 33t179.5 94l88 -187q-111 -79 -245 -122t-242 -43q-276 0 -425 159.5t-149 446.5v8h-147l16 92h135q2 47 19 143h-127l16 93
h131q80 287 291.5 450.5t513.5 163.5q108 0 219 -31.5t185 -85.5l-152 -202q-114 94 -291 94z" />
    <glyph glyph-name="trademark" unicode="&#x2122;" horiz-adv-x="1378" 
d="M686 1577l-12 -70h-180l-95 -536h-84l95 536h-181l13 70h444zM983 983l272 594h160l-88 -606h-82l86 594h-4l-274 -594h-150l-57 594h-4l-123 -594h-78l125 606h162l51 -594h4z" />
    <glyph glyph-name="oneeighth" unicode="&#x215b;" horiz-adv-x="1777" 
d="M424 1493h-4q-23 -126 -84.5 -196t-147.5 -70l31 172q88 0 144.5 37t66.5 104h197l-160 -909h-197zM125 33l1272 1503l63 -53l-1272 -1503zM1434 547v-4q115 -10 177 -70t62 -156q0 -151 -109.5 -240t-295.5 -89q-146 0 -224.5 62.5t-78.5 176.5q0 133 89.5 217t245.5 99
v4q-107 0 -167 39t-60 108q0 104 97.5 166t261.5 62q136 0 211 -46.5t75 -130.5q0 -91 -77 -144.5t-207 -53.5zM1264 631q0 -45 26.5 -69.5t75.5 -24.5q63 0 101 37.5t38 99.5q0 44 -26.5 68t-73.5 24q-63 0 -102 -37t-39 -98zM1294 143q79 0 125.5 42.5t46.5 113.5
q0 51 -32.5 79t-92.5 28q-78 0 -125 -42.5t-47 -113.5q0 -51 32.5 -79t92.5 -28z" />
    <glyph glyph-name="threeeighths" unicode="&#x215c;" horiz-adv-x="2023" 
d="M813 942q0 -148 -109 -236t-294 -88q-132 0 -205.5 69t-73.5 192q0 27 2 45h191q-2 -10 -2 -31q0 -58 30 -89.5t86 -31.5q77 0 122.5 41t45.5 109q0 51 -34.5 78.5t-98.5 27.5h-20l22 135q82 6 129 44.5t47 101.5q0 43 -26.5 66.5t-77.5 23.5q-55 0 -95 -40.5t-57 -111.5
h-186q37 143 138 224t243 81q129 0 201.5 -48t72.5 -126q0 -100 -92.5 -156.5t-253.5 -56.5v-4q140 0 217.5 -58t77.5 -161zM371 33l1271 1503l64 -53l-1272 -1503zM1679 547v-4q115 -10 177.5 -70t62.5 -156q0 -151 -110 -240t-296 -89q-146 0 -224.5 62.5t-78.5 176.5
q0 133 90 217t246 99v4q-107 0 -167 39t-60 108q0 104 97 166t261 62q136 0 211.5 -47t75.5 -130q0 -91 -77 -144.5t-208 -53.5zM1509 631q0 -44 27.5 -69t75.5 -25q63 0 101 37.5t38 99.5q0 44 -26.5 68t-73.5 24q-63 0 -102.5 -37t-39.5 -98zM1540 143q79 0 125.5 42.5
t46.5 113.5q0 51 -32.5 79t-92.5 28q-78 0 -125 -42.5t-47 -113.5q0 -51 32.5 -79t92.5 -28z" />
    <glyph glyph-name="fiveeighths" unicode="&#x215d;" horiz-adv-x="2029" 
d="M838 1006q0 -177 -113.5 -282.5t-304.5 -105.5q-137 0 -213 67t-76 187v23h193q0 -57 31 -89t89 -32q84 0 134.5 51.5t50.5 137.5q0 59 -31.5 91.5t-91.5 32.5q-53 0 -94.5 -27.5t-67.5 -74.5l-184 25l164 530h542l-26 -149h-371l-125 -387h4q37 107 112.5 166t174.5 59
q96 0 149.5 -59t53.5 -164zM379 33l1272 1503l63 -53l-1272 -1503zM1686 547v-4q115 -10 178 -70t63 -156q0 -151 -109.5 -240t-295.5 -89q-146 0 -224.5 62.5t-78.5 176.5q0 133 88.5 217t244.5 99v4q-107 0 -166 39t-59 108q0 104 97.5 166t261.5 62q136 0 211 -46.5
t75 -130.5q0 -91 -77.5 -144.5t-208.5 -53.5zM1518 631q0 -44 26.5 -69t73.5 -25q64 0 102.5 37.5t38.5 99.5q0 44 -26.5 68t-73.5 24q-63 0 -102 -37t-39 -98zM1548 143q78 0 125 42.5t47 113.5q0 51 -32.5 79t-92.5 28q-78 0 -125 -42.5t-47 -113.5q0 -51 32.5 -79
t92.5 -28z" />
    <glyph glyph-name="seveneighths" unicode="&#x215e;" horiz-adv-x="1982" 
d="M246 631l8 47q62 324 207.5 510t351.5 198v5h-610l26 149h656l-25 -143q-137 -41 -241.5 -223t-155.5 -467l-14 -76h-203zM317 33l1270 1503l64 -53l-1272 -1503zM1624 547v-4q115 -10 177.5 -70t62.5 -156q0 -151 -109.5 -240t-296.5 -89q-145 0 -224 62.5t-79 176.5
q0 133 90 217t246 99v4q-107 0 -166 39t-59 108q0 104 96 166t260 62q137 0 212 -46.5t75 -130.5q0 -91 -77 -144.5t-208 -53.5zM1456 631q0 -44 26.5 -69t73.5 -25q63 0 102.5 38t39.5 99q0 44 -26.5 68t-76.5 24q-62 0 -100.5 -37t-38.5 -98zM1485 143q79 0 125.5 42.5
t46.5 113.5q0 51 -32.5 79t-92.5 28q-78 0 -125 -42.5t-47 -113.5q0 -51 32.5 -79t92.5 -28z" />
    <glyph glyph-name="partialdiff" unicode="&#x2202;" horiz-adv-x="1374" 
d="M842 1536q244 0 376 -155.5t132 -434.5q0 -290 -106.5 -509t-303.5 -338t-459 -119q-225 0 -348 82t-123 229t125.5 253t359 161t554.5 55q10 85 10 160q0 185 -68 288t-194 103q-112 0 -193 -60t-115 -166h-274q65 213 229.5 332t397.5 119zM524 205q208 0 348 148
t177 403q-341 0 -538.5 -103t-197.5 -282q0 -77 55.5 -121.5t155.5 -44.5z" />
    <glyph glyph-name="emptyset" unicode="&#x2205;" horiz-adv-x="1255" 
d="M1149 1020l59 -72l-98 -84q61 -98 61 -246q0 -289 -172.5 -462.5t-463.5 -173.5q-211 0 -328 108l-103 -86l-61 72l102 88q-61 98 -61 246q0 289 173 461.5t466 172.5q211 0 328 -108zM188 426q0 -112 43 -188l734 624q-95 86 -260 86q-235 0 -376 -142t-141 -380z
M1063 602q0 109 -41 186l-733 -626q95 -86 262 -86q234 0 373 143.5t139 382.5z" />
    <glyph glyph-name="product" unicode="&#x220f;" horiz-adv-x="1769" 
d="M236 1577h1671l-43 -248h-275l-317 -1800h-271l318 1800h-584l-317 -1800h-271l318 1800h-272z" />
    <glyph glyph-name="summation" unicode="&#x2211;" horiz-adv-x="1441" 
d="M1534 1577l-39 -219l-1204 6l-2 -4l887 -486l-17 -92l-84 -479l-1095 -557l-3 -4l1274 6l-39 -219h-1300l88 491l1100 568v4l-887 495l88 490h1233z" />
    <glyph glyph-name="minus" unicode="&#x2212;" horiz-adv-x="1085" 
d="M954 471h-841l18 90h842z" />
    <glyph glyph-name="radical" unicode="&#x221a;" horiz-adv-x="1441" 
d="M526 -207l807 1784h301l-850 -1802h-518l-28 610h-252l39 219h493l4 -811h4z" />
    <glyph glyph-name="infinity" unicode="&#x221e;" horiz-adv-x="1630" 
d="M1221 920q156 0 240.5 -85t84.5 -237q0 -223 -127.5 -356t-339.5 -133q-119 0 -193.5 57t-97.5 164q-56 -106 -153.5 -163.5t-226.5 -57.5q-154 0 -239 84.5t-85 236.5q0 223 127 356.5t340 133.5q118 0 192 -57.5t97 -164.5q56 106 154 164t227 58zM424 199
q158 0 253 105t95 278q0 118 -61 182.5t-176 64.5q-157 0 -253 -105t-96 -278q0 -117 62 -182t176 -65zM1094 199q158 0 253 105t95 278q0 118 -61.5 182.5t-176.5 64.5q-157 0 -252.5 -105t-95.5 -278q0 -117 62 -182t176 -65z" />
    <glyph glyph-name="integral" unicode="&#x222b;" horiz-adv-x="1003" 
d="M59 -492q-162 0 -256 62l91 192q68 -38 145 -38q90 0 149 53t76 149l217 1241q35 202 163 316t317 114q161 0 253 -61l-90 -193q-67 39 -145 39q-92 0 -150 -53t-73 -149l-219 -1241q-35 -202 -162 -316.5t-316 -114.5z" />
    <glyph glyph-name="approxequal" unicode="&#x2248;" horiz-adv-x="1206" 
d="M231 567h-90q26 126 103.5 196.5t191.5 70.5q64 0 115.5 -17t86.5 -41t68 -48t75.5 -41t92.5 -17q65 0 113 46t70 126h88q-26 -126 -103.5 -196.5t-191.5 -70.5q-64 0 -115.5 17t-86 41t-67 48t-75 41t-92.5 17q-66 0 -114.5 -46t-68.5 -126zM150 182h-91
q26 126 103.5 196.5t191.5 70.5q64 0 115.5 -17t86.5 -41t68 -48t76 -41t93 -17q65 0 112.5 45.5t69.5 126.5h88q-26 -126 -103.5 -196.5t-191.5 -70.5q-64 0 -115.5 17t-86 41t-67 48t-75 41t-92.5 17q-65 0 -113.5 -46t-68.5 -126z" />
    <glyph glyph-name="notequal" unicode="&#x2260;" horiz-adv-x="1087" 
d="M1006 735l-19 -88h-330l-122 -262h407l-16 -88h-432l-140 -297h-100l139 297h-309l16 88h334l121 262h-410l19 88h432l137 293h103l-138 -293h308z" />
    <glyph glyph-name="lessequal" unicode="&#x2264;" horiz-adv-x="1075" 
d="M1049 1036l-19 -96l-874 -268l-2 -4l784 -262l-16 -97l-795 277l14 80l17 92zM877 57h-842l16 90h842z" />
    <glyph glyph-name="greaterequal" unicode="&#x2265;" horiz-adv-x="1064" 
d="M211 1036l793 -278l-15 -82l-16 -90l-889 -277l16 97l875 262l2 4l-784 268zM881 57h-842l14 90h842z" />
    <glyph glyph-name="lozenge" unicode="&#x25ca;" horiz-adv-x="974" 
d="M686 1028l225 -391l-16 -100l-25 -144l-366 -393h-215l-226 393l17 99l24 145l365 391h217zM397 8h4l478 504v4l-299 504h-5l-479 -504v-4z" />
    <glyph glyph-name="uniF8FF" unicode="&#xf8ff;" horiz-adv-x="2609" 
d="M156 -20q-15 0 -25 10.5t-10 25.5q0 21 10 31l700 698h-663q-47 0 -47 39q0 16 14 33l696 701h-669q-41 0 -41 38v3q0 38 41 38h758q47 0 47 -41q0 -20 -17 -34l-698 -697h676q17 0 29 -12t12 -29v-669l694 692q13 16 35 16q37 0 37 -45v-663l696 692q13 16 33 16
q15 0 25 -12t10 -27q0 -18 -13 -28l-753 -762q-14 -14 -35 -14q-41 0 -41 47v663l-694 -696q-14 -14 -35 -14q-41 0 -41 47v663l-697 -696q-14 -14 -34 -14z" />
    <glyph glyph-name="uni004A0301" horiz-adv-x="1167" 
d="M1415 1876l-448 -205l-49 141l442 220zM426 -20q-188 0 -290.5 115t-102.5 323q0 73 6 112h262q-4 -50 -4 -67q0 -122 46.5 -190t131.5 -68q95 0 160.5 66.5t85.5 183.5l188 1061h281l-184 -1047q-41 -232 -194 -360.5t-386 -128.5z" />
    <glyph glyph-name="i.loclTRK" horiz-adv-x="534" 
d="M530 1225h-270l43 256h270zM311 0h-270l182 1028h271z" />
    <glyph glyph-name="uni006A0301" horiz-adv-x="534" 
d="M725 1389l-449 -205l-49 141l443 221zM227 -471h-270l266 1499h271z" />
    <glyph glyph-name="f_b" horiz-adv-x="2078" 
d="M547 1028h323l-32 -186h-310l-147 -842h-270l147 842h-156l33 186h402l2 4q-105 17 -164.5 72t-59.5 133q0 166 124.5 263t338.5 97q121 0 205 -41l-72 -200q-45 26 -104 26q-96 0 -156.5 -50t-75.5 -140zM1677 1049q160 0 246 -106.5t86 -297.5q0 -195 -64.5 -346
t-183 -235t-272.5 -84q-149 0 -229 73t-80 207q0 39 10 94h-4l-64 -354h-270l278 1577h271l-160 -901h4q31 175 145.5 274t286.5 99zM1403 195q147 0 235 108.5t88 286.5q0 116 -54.5 181t-155.5 65q-121 0 -206 -88.5t-112 -233.5q-8 -44 -8 -84q0 -108 55.5 -171.5
t157.5 -63.5z" />
    <glyph glyph-name="f_f_j" horiz-adv-x="2041" 
d="M1274 1192l-29 -164h756l-266 -1499h-271l234 1313h-471l-150 -842h-270l147 842h-426l-147 -842h-270l147 842h-156l33 186h402l2 4q-105 17 -164.5 72t-59.5 133q0 166 124.5 263t338.5 97q121 0 205 -41l-72 -200q-45 26 -104 26q-96 0 -156.5 -50t-75.5 -140
l-28 -164h686l2 4q-105 17 -163 71.5t-58 133.5q0 166 124.5 263t338.5 97q118 0 202 -41l-69 -200q-45 26 -107 26q-96 0 -155 -50t-74 -140zM1765 1225l43 256h271l-43 -256h-271z" />
    <glyph glyph-name="f_f_t" horiz-adv-x="2250" 
d="M2271 842h-321l-86 -496q-4 -28 -4 -35q0 -56 37 -86t104 -30q76 0 145 32l-37 -200q-110 -47 -233 -47q-141 0 -218 66t-77 187q0 24 8 78l92 531h-454l-148 -842h-270l147 842h-428l-147 -842h-270l147 842h-156l33 186h402l2 4q-105 17 -164.5 72t-59.5 133
q0 166 124.5 263t338.5 97q121 0 205 -41l-72 -200q-45 26 -104 26q-96 0 -156.5 -50t-75.5 -140l-28 -164h688l2 4q-105 17 -164 72t-59 133q0 166 124.5 263t338.5 97q120 0 204 -41l-71 -200q-45 26 -105 26q-96 0 -156 -50t-75 -140l-29 -164h486l61 344h268l-14 -86
q-15 -97 -95.5 -164t-209.5 -90l-2 -4h563z" />
    <glyph glyph-name="f_h" horiz-adv-x="2031" 
d="M547 1028h323l-32 -186h-310l-147 -842h-270l147 842h-156l33 186h402l2 4q-105 17 -164.5 72t-59.5 133q0 166 124.5 263t338.5 97q121 0 205 -41l-72 -200q-45 26 -104 26q-96 0 -156.5 -50t-75.5 -140zM1642 1049q146 0 223 -79.5t77 -226.5q0 -41 -11 -116l-110 -627
h-271l109 614q4 40 4 58q0 78 -43.5 121t-124.5 43q-106 0 -178.5 -74t-95.5 -205l-99 -557h-270l278 1577h271l-162 -909h4q32 180 138 280.5t261 100.5z" />
    <glyph glyph-name="f_iacute" horiz-adv-x="1343" 
d="M575 1192l-28 -164h756l-181 -1028h-270l147 842h-471l-147 -842h-270l147 842h-156l33 186h402l2 4q-105 17 -164.5 72t-59.5 133q0 166 124.5 263t338.5 97q121 0 205 -41l-72 -200q-45 26 -104 26q-96 0 -156.5 -50t-75.5 -140zM1479 1546l57 -157l-449 -205l-51 141z
" />
    <glyph glyph-name="f_j" horiz-adv-x="1343" 
d="M575 1192l-28 -164h756l-265 -1499h-270l231 1313h-471l-147 -842h-270l147 842h-156l33 186h402l2 4q-105 17 -164.5 72t-59.5 133q0 166 124.5 263t338.5 97q121 0 205 -41l-72 -200q-45 26 -104 26q-96 0 -156.5 -50t-75.5 -140zM1069 1225l43 256h270l-43 -256h-270z
" />
    <glyph glyph-name="f_k" horiz-adv-x="1982" 
d="M547 1028h323l-32 -186h-310l-147 -842h-270l147 842h-156l33 186h402l2 4q-105 17 -164.5 72t-59.5 133q0 166 124.5 263t338.5 97q121 0 205 -41l-72 -200q-45 26 -104 26q-96 0 -156.5 -50t-75.5 -140zM1722 1028h320l-524 -489l389 -539h-332l-356 526h-5l-92 -526
h-270l278 1577h271l-182 -1032h4z" />
    <glyph glyph-name="f_t" horiz-adv-x="1552" 
d="M1573 842h-322l-86 -496q-2 -14 -2 -35q0 -56 36.5 -86t103.5 -30q76 0 145 32l-37 -200q-110 -47 -233 -47q-141 0 -218 66t-77 187q0 24 8 78l92 531h-455l-147 -842h-270l147 842h-156l33 186h402l2 4q-105 17 -164.5 72t-59.5 133q0 166 124.5 263t338.5 97
q121 0 205 -41l-72 -200q-45 26 -104 26q-96 0 -156.5 -50t-75.5 -140l-28 -164h485l62 344h268l-14 -86q-15 -97 -96 -164t-210 -90l-2 -4h564z" />
    <glyph glyph-name="t_t" horiz-adv-x="1579" 
d="M1599 842h-321l-86 -496q-2 -14 -2 -35q0 -55 36.5 -85.5t102.5 -30.5q77 0 146 32l-37 -200q-110 -47 -232 -47q-143 0 -220 66t-77 187q0 17 9 78l92 531h-496l-86 -496q-2 -14 -2 -35q0 -55 36.5 -85.5t102.5 -30.5q77 0 146 32l-37 -200q-110 -47 -232 -47
q-143 0 -220 66t-77 187q0 17 9 78l92 531h-148l33 186h164l61 344h269l-15 -86q-15 -97 -95.5 -164t-209.5 -90l-2 -4h756l61 344h269l-15 -86q-15 -97 -95.5 -164t-209.5 -90l-2 -4h565z" />
    <glyph glyph-name="zero.lf" horiz-adv-x="1382" 
d="M598 -20q-227 0 -349 153.5t-122 429.5q0 285 91 505.5t261 344t393 123.5q227 0 349 -154t122 -430q0 -285 -91.5 -505.5t-261.5 -343.5t-392 -123zM639 205q121 0 216.5 100.5t146.5 267.5t51 367q0 174 -57 272.5t-162 98.5q-122 0 -218 -101t-147 -268t-51 -367
q0 -174 57.5 -272t163.5 -98z" />
    <glyph glyph-name="one.lf" horiz-adv-x="800" 
d="M522 1516h283l-266 -1516h-283l254 1442h-4q-34 -189 -132 -294.5t-239 -105.5l43 246q144 0 234.5 61t109.5 167z" />
    <glyph glyph-name="two.lf" horiz-adv-x="1273" 
d="M104 223v-4h1037l-39 -219h-1112l37 209q427 139 674 377.5t247 509.5q0 101 -48 158t-136 57q-110 0 -193 -88.5t-120 -243.5h-273q63 263 230 410t403 147q214 0 330 -109t116 -305q0 -238 -139.5 -427.5t-400 -311t-613.5 -160.5z" />
    <glyph glyph-name="three.lf" horiz-adv-x="1263" 
d="M682 870h18q222 0 343.5 -94.5t121.5 -265.5q0 -242 -176 -386t-477 -144q-216 0 -333.5 112t-117.5 314q0 41 5 77h272q-4 -46 -4 -57q0 -105 58 -163t163 -58q144 0 229.5 74.5t85.5 199.5q0 94 -65 146.5t-184 52.5h-39l34 196q153 14 240.5 85.5t87.5 185.5
q0 78 -51.5 122t-144.5 44q-104 0 -181 -74.5t-108 -206.5h-266q60 238 222.5 372t395.5 134q210 0 326 -79.5t116 -213.5q0 -171 -153 -270t-418 -99v-4z" />
    <glyph glyph-name="four.lf" horiz-adv-x="1308" 
d="M1061 573h199l-41 -221h-197l-61 -352h-283l61 352h-716l40 234l639 930h525zM944 1491l-625 -913v-5h465l164 918h-4z" />
    <glyph glyph-name="five.lf" horiz-adv-x="1284" 
d="M539 -20q-224 0 -347.5 110t-123.5 307v37h278q0 -107 62.5 -168t171.5 -61q153 0 244 96.5t91 255.5q0 108 -59 169.5t-168 61.5q-102 0 -179.5 -52t-123.5 -142l-266 35l272 887h879l-39 -220h-629l-209 -669h4q60 175 185 272.5t288 97.5q167 0 258 -99t91 -277
q0 -293 -184 -467t-496 -174z" />
    <glyph glyph-name="six.lf" horiz-adv-x="1359" 
d="M1333 1083h-274q0 5 1 15t1 14q0 93 -52.5 146t-148.5 53q-155 0 -268.5 -151.5t-159.5 -420.5l-26 -151h4q32 181 163 283t332 102q180 0 276.5 -96t96.5 -269q0 -285 -188.5 -456.5t-495.5 -171.5q-230 0 -350.5 143t-120.5 412q0 291 95 518.5t271.5 355t407.5 127.5
q210 0 324 -104.5t114 -292.5q0 -31 -2 -56zM727 762q-156 0 -249 -84.5t-93 -231.5q0 -112 65.5 -176.5t178.5 -64.5q159 0 253.5 92.5t94.5 245.5q0 103 -65.5 161t-184.5 58z" />
    <glyph glyph-name="seven.lf" horiz-adv-x="1134" 
d="M162 1296l37 220h1077l-37 -209q-235 -68 -415 -376.5t-265 -789.5l-24 -141h-293l16 96q100 541 337 856t566 340v4h-999z" />
    <glyph glyph-name="eight.lf" horiz-adv-x="1320" 
d="M846 895v-4q182 -20 279.5 -116.5t97.5 -252.5q0 -249 -177 -395.5t-481 -146.5q-235 0 -363 103t-128 288q0 217 142 354.5t392 165.5v4q-168 0 -260 65.5t-92 182.5q0 181 157.5 287t426.5 106q220 0 341.5 -78.5t121.5 -218.5q0 -157 -124 -250.5t-333 -93.5z
M530 1053q0 -82 50.5 -129t142.5 -47q124 0 197 70.5t73 187.5q0 83 -49.5 129.5t-142.5 46.5q-123 0 -197 -70t-74 -188zM606 205q147 0 234.5 77.5t87.5 206.5q0 94 -61.5 146.5t-174.5 52.5q-149 0 -236 -76.5t-87 -205.5q0 -94 62 -147.5t175 -53.5z" />
    <glyph glyph-name="nine.lf" horiz-adv-x="1355" 
d="M854 1536q230 0 348.5 -143.5t118.5 -409.5q0 -292 -95 -519.5t-272 -355.5t-409 -128q-205 0 -317.5 110.5t-112.5 310.5q0 47 4 72h274q-2 -14 -2 -37q0 -108 51 -169.5t144 -61.5q154 0 266.5 151t159.5 420l30 172h-4q-31 -172 -161 -268t-332 -96q-180 0 -277.5 92
t-97.5 258q0 275 188 438.5t496 163.5zM725 795q155 0 246.5 76.5t91.5 211.5q0 106 -67 167t-181 61q-158 0 -252 -85.5t-94 -226.5q0 -97 67.5 -150.5t188.5 -53.5z" />
    <glyph glyph-name="zero.osf" horiz-adv-x="1337" 
d="M573 -20q-229 0 -353 127t-124 354q0 331 187.5 531t504.5 200q230 0 355 -126.5t125 -352.5q0 -332 -189 -532.5t-506 -200.5zM612 195q170 0 273.5 136t103.5 353q0 138 -61.5 216.5t-175.5 78.5q-170 0 -273.5 -136.5t-103.5 -353.5q0 -139 61.5 -216.5t175.5 -77.5z
" />
    <glyph glyph-name="one.osf" horiz-adv-x="782" 
d="M467 1171h270l-207 -1171h-270l195 1098h-4q-32 -176 -128.5 -274.5t-234.5 -98.5l39 221q141 0 231 59.5t109 165.5z" />
    <glyph glyph-name="two.osf" horiz-adv-x="1218" 
d="M92 207v-4h993l-34 -203h-1061l37 197q403 128 632.5 294.5t229.5 333.5q0 74 -51.5 116t-143.5 42q-113 0 -191 -64.5t-106 -181.5h-258q49 215 204.5 335t381.5 120q208 0 321 -88t113 -246q0 -250 -284.5 -422t-782.5 -229z" />
    <glyph glyph-name="three.osf" horiz-adv-x="1218" 
d="M1157 924q0 -154 -150.5 -241t-410.5 -87v-4q229 0 355 -91.5t126 -256.5q0 -224 -170.5 -357t-462.5 -133q-209 0 -323.5 102.5t-114.5 290.5q0 22 4 68h256q-2 -20 -2 -47q0 -97 57 -151t162 -54q146 0 232 68.5t86 185.5q0 90 -66.5 139.5t-187.5 49.5h-37l33 190
q153 19 238 81t85 157q0 71 -52 110t-148 39q-104 0 -179 -65t-104 -181h-250q52 215 207.5 335t380.5 120q207 0 321.5 -71t114.5 -197z" />
    <glyph glyph-name="four.osf" horiz-adv-x="1277" 
d="M977 203h197l-37 -203h-197l-39 -225h-270l39 225h-697l39 219l627 957h510zM877 1151l-611 -944v-4h447l168 948h-4z" />
    <glyph glyph-name="five.osf" horiz-adv-x="1263" 
d="M489 -246q-224 0 -348.5 104t-124.5 292v26h260q2 -97 68.5 -152t181.5 -55q156 0 249 91.5t93 242.5q0 102 -61 159.5t-174 57.5q-108 0 -191.5 -48t-128.5 -132l-245 37l254 794h886l-37 -202h-645l-209 -604h5q64 167 190.5 260.5t286.5 93.5q168 0 260 -97t92 -270
q0 -277 -179 -437.5t-483 -160.5z" />
    <glyph glyph-name="six.osf" horiz-adv-x="1323" 
d="M1300 1063h-253v22q0 91 -55 143t-156 52q-154 0 -265 -148.5t-157 -412.5l-27 -148h4q32 177 165.5 277t328.5 100q173 0 266.5 -95t93.5 -265q0 -278 -182.5 -443t-480.5 -165q-232 0 -349.5 138t-117.5 402q0 287 93 508t266 344t400 123q205 0 317 -100.5t112 -282.5
q0 -25 -3 -49zM713 748q-157 0 -251.5 -86.5t-94.5 -233.5q0 -109 66 -171t183 -62q159 0 255 88.5t96 238.5q0 106 -66.5 166t-187.5 60z" />
    <glyph glyph-name="seven.osf" horiz-adv-x="1130" 
d="M127 969l35 202h1034l-35 -192q-243 -65 -429.5 -383.5t-274.5 -820.5h-283q94 532 333 845.5t574 344.5v4h-954z" />
    <glyph glyph-name="eight.osf" horiz-adv-x="1310" 
d="M836 868v-4q185 -23 284 -116t99 -244q0 -238 -179 -381t-479 -143q-236 0 -365.5 100.5t-129.5 281.5q0 209 142.5 341.5t393.5 160.5v4q-171 0 -264.5 63t-93.5 177q0 179 157.5 283t427.5 104q220 0 341.5 -77.5t121.5 -217.5q0 -155 -122.5 -243.5t-333.5 -88.5z
M504 1026q0 -83 55 -128.5t156 -45.5q131 0 208.5 67.5t77.5 182.5q0 84 -54.5 131t-155.5 47q-131 0 -209 -68.5t-78 -185.5zM598 195q155 0 247.5 76.5t92.5 205.5q0 94 -66.5 146.5t-187.5 52.5q-155 0 -246.5 -75t-91.5 -204q0 -94 66.5 -148t185.5 -54z" />
    <glyph glyph-name="nine.osf" horiz-adv-x="1323" 
d="M766 1190q235 0 354 -132t119 -386q0 -272 -92 -480.5t-262.5 -323t-395.5 -114.5q-205 0 -319.5 95.5t-114.5 267.5v41h256v-19q0 -79 57.5 -124.5t159.5 -45.5q152 0 262 140.5t154 390.5l21 118h-4q-29 -167 -161.5 -261.5t-326.5 -94.5q-175 0 -269.5 91.5
t-94.5 254.5q0 266 180.5 424t476.5 158zM643 465q156 0 249 78.5t93 212.5q0 101 -67.5 160t-184.5 59q-157 0 -250.5 -81.5t-93.5 -219.5q0 -99 66.5 -154t187.5 -55z" />
    <glyph glyph-name="zero.dnom" horiz-adv-x="843" 
d="M330 -12q-140 0 -216.5 93.5t-76.5 260.5q0 258 126 419t331 161q140 0 216 -94t76 -261q0 -258 -125.5 -418.5t-330.5 -160.5zM356 143q67 0 120 58.5t80.5 153.5t27.5 206q0 96 -30.5 150.5t-86.5 54.5q-99 0 -163 -121.5t-64 -294.5q0 -98 30 -152.5t86 -54.5z" />
    <glyph glyph-name="one.dnom" horiz-adv-x="518" 
d="M285 909h196l-159 -909h-197l154 862h-5q-23 -126 -84 -196t-147 -70l29 172q89 0 145 37t68 104z" />
    <glyph glyph-name="two.dnom" horiz-adv-x="778" 
d="M29 154v-4h639l-27 -150h-682l25 143q251 89 394.5 225t143.5 285q0 53 -25 83t-69 30q-58 0 -102 -47.5t-64 -132.5h-190q38 158 140 247t247 89q132 0 204 -66t72 -184q0 -211 -188.5 -348.5t-517.5 -169.5z" />
    <glyph glyph-name="three.dnom" horiz-adv-x="774" 
d="M733 748q0 -99 -93 -156t-253 -57v-5q139 0 216 -58t77 -161q0 -148 -108 -235.5t-293 -87.5q-133 0 -207 68.5t-74 191.5q0 9 4 45h188q0 -5 -1 -15.5t-1 -15.5q0 -58 30.5 -89.5t88.5 -31.5q76 0 122 41t46 109q0 51 -35 78.5t-98 27.5h-23l23 135q83 6 129.5 44.5
t46.5 101.5q0 43 -26.5 66.5t-75.5 23.5q-55 0 -96 -40.5t-58 -111.5h-184q37 144 137 225t244 81q129 0 201.5 -48t72.5 -126z" />
    <glyph glyph-name="four.dnom" horiz-adv-x="811" 
d="M627 352h118l-24 -149h-121l-35 -203h-196l34 203h-423l28 159l354 547h363zM528 893l-346 -537v-4h254l96 541h-4z" />
    <glyph glyph-name="five.dnom" horiz-adv-x="778" 
d="M291 -12q-137 0 -213 67t-76 187v22h193q0 -58 31.5 -89.5t90.5 -31.5q83 0 133 51.5t50 137.5q0 59 -32 92t-91 33q-52 0 -94 -28t-68 -75l-184 25l164 530h542l-26 -149h-371l-125 -387h4q38 107 113.5 166t173.5 59q96 0 149.5 -59t53.5 -164q0 -177 -113.5 -282
t-304.5 -105z" />
    <glyph glyph-name="six.dnom" horiz-adv-x="829" 
d="M780 647h-190q2 8 2 15q0 50 -28.5 77t-80.5 27q-86 0 -147.5 -84t-89.5 -236l-17 -90h4q20 107 97.5 167.5t197.5 60.5q107 0 164.5 -56.5t57.5 -158.5q0 -173 -116.5 -277t-307.5 -104q-141 0 -216 88.5t-75 251.5q0 265 130 429.5t345 164.5q130 0 200 -64.5
t70 -181.5v-29zM403 438q-87 0 -136.5 -44.5t-49.5 -123.5q0 -59 35 -93t98 -34q86 0 138.5 49.5t52.5 129.5q0 55 -36 85.5t-102 30.5z" />
    <glyph glyph-name="seven.dnom" horiz-adv-x="694" 
d="M59 760l27 149h655l-24 -143q-138 -41 -243.5 -223.5t-154.5 -466.5l-14 -76h-203l9 47q60 324 206.5 510.5t352.5 198.5v4h-611z" />
    <glyph glyph-name="eight.dnom" horiz-adv-x="806" 
d="M475 547v-4q115 -10 177.5 -70t62.5 -156q0 -151 -109 -240t-295 -89q-146 0 -225.5 62.5t-79.5 176.5q0 133 90 217t246 99v4q-107 0 -166 39t-59 108q0 105 96.5 166.5t261.5 61.5q136 0 211.5 -47t75.5 -130q0 -91 -78 -144.5t-209 -53.5zM307 631q0 -44 27 -69
t74 -25q64 0 102.5 37.5t38.5 99.5q0 44 -26.5 68t-73.5 24q-63 0 -102.5 -37t-39.5 -98zM336 143q79 0 125.5 42.5t46.5 113.5q0 51 -31.5 79t-91.5 28q-79 0 -126.5 -42.5t-47.5 -113.5q0 -51 32.5 -79t92.5 -28z" />
    <glyph glyph-name="nine.dnom" horiz-adv-x="827" 
d="M483 922q141 0 215 -88.5t74 -251.5q0 -264 -129.5 -429t-343.5 -165q-128 0 -198 69t-70 191v39h190q-2 -8 -2 -25q0 -57 27 -88t78 -31q85 0 148 85t89 235l19 102h-5q-19 -101 -95.5 -158t-194.5 -57q-107 0 -165.5 54.5t-58.5 152.5q0 167 115.5 266t306.5 99z
M410 496q84 0 133 40t49 111q0 55 -35.5 87t-97.5 32q-86 0 -137.5 -44.5t-51.5 -119.5q0 -51 37 -78.5t103 -27.5z" />
    <glyph glyph-name="zero.numr" horiz-adv-x="843" 
d="M440 618q-140 0 -216.5 94t-76.5 261q0 257 126 418t331 161q140 0 216.5 -93.5t76.5 -260.5q0 -258 -126 -419t-331 -161zM467 774q67 0 120 58.5t80 153.5t27 206q0 97 -30 151t-86 54q-99 0 -163.5 -121.5t-64.5 -294.5q0 -98 30.5 -152.5t86.5 -54.5z" />
    <glyph glyph-name="one.numr" horiz-adv-x="518" 
d="M397 1540h195l-160 -909h-194l151 862h-4q-23 -126 -84 -196t-147 -70l30 172q89 0 145 37t68 104z" />
    <glyph glyph-name="two.numr" horiz-adv-x="778" 
d="M139 784v-4h639l-26 -149h-682l24 143q251 89 395 225t144 285q0 53 -25 83t-69 30q-58 0 -102 -47.5t-64 -132.5h-191q38 158 140 246.5t247 88.5q133 0 205 -65.5t72 -183.5q0 -211 -189 -349t-518 -170z" />
    <glyph glyph-name="three.numr" horiz-adv-x="774" 
d="M844 1378q0 -99 -93 -156t-253 -57v-4q139 0 216 -58t77 -161q0 -148 -108.5 -236t-293.5 -88q-133 0 -206.5 69t-73.5 192q0 9 4 45h188q0 -5 -1 -15.5t-1 -15.5q0 -58 30.5 -89.5t88.5 -31.5q76 0 122 41t46 109q0 51 -35 78.5t-98 27.5h-23l23 135q83 6 129.5 44.5
t46.5 101.5q0 43 -27 66.5t-76 23.5q-55 0 -95.5 -40.5t-57.5 -111.5h-185q37 143 137 224t244 81q129 0 202 -48t73 -126z" />
    <glyph glyph-name="four.numr" horiz-adv-x="811" 
d="M739 983h119l-24 -149h-121l-35 -203h-197l35 203h-424l29 159l354 547h363zM641 1524l-346 -537v-4h254l96 541h-4z" />
    <glyph glyph-name="five.numr" horiz-adv-x="778" 
d="M401 618q-136 0 -212 67t-76 187v23h192q0 -57 31.5 -89t91.5 -32q83 0 132.5 51.5t49.5 137.5q0 59 -31.5 91.5t-91.5 32.5q-106 0 -161 -102l-185 25l164 530h543l-27 -149h-370l-125 -387h4q38 107 113 166t173 59q96 0 149.5 -59t53.5 -164q0 -177 -113.5 -282.5
t-304.5 -105.5z" />
    <glyph glyph-name="six.numr" horiz-adv-x="829" 
d="M891 1278h-191q2 8 2 14q0 51 -28.5 78t-79.5 27q-86 0 -148 -84t-90 -236l-16 -90h4q20 107 97.5 167t197.5 60q106 0 163.5 -56.5t57.5 -158.5q0 -173 -116.5 -277t-307.5 -104q-141 0 -216 88.5t-75 251.5q0 264 130.5 429t345.5 165q130 0 200 -64t70 -181v-29z
M514 1069q-87 0 -136.5 -44.5t-49.5 -123.5q0 -59 35 -93t98 -34q86 0 138 49t52 129q0 56 -35.5 86.5t-101.5 30.5z" />
    <glyph glyph-name="seven.numr" horiz-adv-x="694" 
d="M172 1391l27 149h655l-25 -143q-138 -41 -242.5 -223.5t-154.5 -466.5l-14 -76h-203l8 47q60 324 206.5 510t352.5 198v5h-610z" />
    <glyph glyph-name="eight.numr" horiz-adv-x="806" 
d="M586 1178v-4q115 -10 177 -70t62 -156q0 -151 -108.5 -240.5t-294.5 -89.5q-146 0 -225.5 63t-79.5 177q0 133 90 217t246 99v4q-107 0 -166.5 39t-59.5 108q0 104 96.5 165.5t262.5 61.5q136 0 211 -46.5t75 -129.5q0 -91 -77.5 -144.5t-208.5 -53.5zM418 1262
q0 -44 26.5 -69.5t73.5 -25.5q64 0 102.5 38t38.5 100q0 44 -26.5 68t-73.5 24q-63 0 -102 -37t-39 -98zM446 774q79 0 125.5 42.5t46.5 113.5q0 51 -31 78.5t-91 27.5q-79 0 -126.5 -42t-47.5 -113q0 -51 32 -79t92 -28z" />
    <glyph glyph-name="nine.numr" horiz-adv-x="827" 
d="M594 1552q141 0 215 -88.5t74 -251.5q0 -264 -129.5 -429t-343.5 -165q-128 0 -198.5 69.5t-70.5 191.5v39h191q-2 -8 -2 -25q0 -57 26.5 -88t77.5 -31q85 0 148.5 85t89.5 235l18 102h-4q-19 -101 -96 -158t-195 -57q-107 0 -165 54t-58 153q0 167 115.5 265.5
t306.5 98.5zM520 1126q84 0 133 40.5t49 111.5q0 55 -35.5 87t-97.5 32q-86 0 -137 -44.5t-51 -119.5q0 -51 36.5 -79t102.5 -28z" />
    <glyph glyph-name="backslash.case" horiz-adv-x="757" 
d="M612 -27l-102 -34l-279 1603l103 35z" />
    <glyph glyph-name="exclamdown.case" horiz-adv-x="610" 
d="M582 1227h-303l51 289h303zM354 0h-278l196 1049h258z" />
    <glyph glyph-name="questiondown.case" horiz-adv-x="1138" 
d="M901 1227h-303l51 289h301zM481 -20q-206 0 -319 92t-113 256t140 349.5t391 371.5h258v-5q-225 -180 -353.5 -355t-128.5 -310q0 -81 46 -127.5t130 -46.5q100 0 174 72t105 198h266q-57 -234 -214 -364.5t-382 -130.5z" />
    <glyph glyph-name="slash.case" horiz-adv-x="778" 
d="M899 1542l-842 -1603l-92 34l844 1604z" />
    <glyph glyph-name="numbersign.osf" horiz-adv-x="1185" 
d="M1182 842l-25 -86h-209l-94 -324h201l-27 -86h-201l-100 -346h-106l98 346h-375l-100 -346h-107l103 346h-211l26 86h209l96 324h-202l24 86h203l90 305h107l-90 -305h374l90 305h107l-90 -305h209zM367 432h381l96 324h-379z" />
    <glyph glyph-name="braceleft.case" horiz-adv-x="555" 
d="M311 979l74 407q19 105 98 168.5t191 63.5l-17 -94q-64 0 -111.5 -42t-58.5 -108l-73 -407q-27 -152 -176 -211q106 -44 106 -160q0 -9 -4 -49l-72 -406q-2 -12 -2 -32q0 -53 32.5 -85t88.5 -32l-16 -94q-99 0 -155 49.5t-56 136.5q0 20 4 45l69 406q5 30 5 40
q0 65 -39.5 99.5t-112.5 34.5l16 96q85 0 140.5 45.5t68.5 128.5z" />
    <glyph glyph-name="braceright.case" horiz-adv-x="555" 
d="M406 938q0 -65 39 -99t112 -34l-16 -96q-85 0 -140.5 -45.5t-68.5 -128.5l-72 -406q-19 -104 -99.5 -167.5t-191.5 -63.5l17 94q65 0 113.5 41.5t58.5 107.5l71 406q27 152 177 211q-107 44 -107 160q0 24 4 49l72 407q4 24 4 33q0 53 -33 85t-90 32l16 94
q98 0 155.5 -50t57.5 -134q0 -28 -4 -48l-71 -407q-4 -18 -4 -41z" />
    <glyph glyph-name="bracketleft.case" horiz-adv-x="612" 
d="M772 1618l-16 -94h-305l-271 -1532h305l-16 -94h-410l303 1720h410z" />
    <glyph glyph-name="bracketright.case" horiz-adv-x="614" 
d="M641 1618l-303 -1720h-410l19 94h303l270 1532h-305l16 94h410z" />
    <glyph glyph-name="parenleft.case" horiz-adv-x="524" 
d="M387 -63l-90 -60q-92 141 -138 321.5t-46 360.5q0 279 121 552.5t374 526.5l68 -59q-159 -156 -264 -336t-149 -346t-44 -332q0 -165 41.5 -334.5t126.5 -293.5z" />
    <glyph glyph-name="parenright.case" horiz-adv-x="524" 
d="M2 -123l-68 60q233 227 345 493t112 522q0 166 -40.5 334.5t-125.5 292.5l88 59q93 -142 140 -323t47 -359q0 -279 -122 -552.5t-376 -526.5z" />
    <glyph glyph-name="emdash.case" horiz-adv-x="1826" 
d="M1733 702h-1577l16 91h1575z" />
    <glyph glyph-name="endash.case" horiz-adv-x="1243" 
d="M1149 702h-993l16 91h991z" />
    <glyph glyph-name="hyphen.case" horiz-adv-x="872" 
d="M776 702h-620l16 91h621z" />
    <glyph glyph-name="uni00AD.case" horiz-adv-x="872" 
d="M776 702h-620l16 91h621z" />
    <glyph glyph-name="guillemotleft.case" horiz-adv-x="929" 
d="M428 342h-111l-192 395l332 396h110l-327 -396zM782 342h-108l-193 395l332 396h109l-328 -396z" />
    <glyph glyph-name="guillemotright.case" horiz-adv-x="929" 
d="M197 342h-111l328 395l-189 396h111l192 -396zM553 342h-111l328 395l-188 396h110l193 -396z" />
    <glyph glyph-name="guilsinglleft.case" horiz-adv-x="573" 
d="M428 342h-111l-192 395l332 396h110l-327 -396z" />
    <glyph glyph-name="guilsinglright.case" horiz-adv-x="573" 
d="M197 342h-111l328 395l-189 396h111l192 -396z" />
    <glyph glyph-name="cent.osf" horiz-adv-x="1187" 
d="M727 831l-111 -632q75 14 132.5 64t91.5 132h266q-60 -186 -196 -292.5t-330 -120.5l-37 -207h-103l37 207q-193 12 -296 123.5t-103 304.5q0 277 159 449.5t429 187.5l32 190h101l-33 -190q177 -13 275 -117t106 -283h-266q-19 157 -154 184zM356 438q0 -100 41 -162
t119 -77l111 632q-123 -19 -197 -126t-74 -267z" />
    <glyph glyph-name="dollar.osf" horiz-adv-x="1175" 
d="M1110 791h-252q0 4 1 13t1 13q0 139 -143 164l-47 -272h4q41 -7 62.5 -10.5t61 -11.5t62.5 -15.5t56.5 -20.5t53 -27t43 -34.5t35.5 -44t20.5 -54.5t8.5 -67q0 -192 -143.5 -310t-392.5 -128l-29 -168h-102l28 168q-188 12 -290.5 109.5t-102.5 264.5q0 29 2 43h254
q-2 -8 -2 -22q0 -79 46 -129t130 -62l55 316q-48 7 -78 12t-74.5 15.5t-72.5 23t-60.5 32.5t-51 45.5t-31 61.5t-12.5 80q0 186 133.5 293.5t367.5 118.5l29 166h102l-28 -166q171 -12 264.5 -105t93.5 -252q0 -26 -2 -40zM420 834q0 -44 38.5 -69t110.5 -40l45 260
q-92 -6 -143 -45.5t-51 -105.5zM809 362q0 57 -46.5 85t-131.5 42l-53 -301q107 8 169 54.5t62 119.5z" />
    <glyph glyph-name="Euro.osf" horiz-adv-x="1191" 
d="M840 987q-124 0 -217.5 -70.5t-139.5 -195.5h445l-58 -80h-409q-12 -70 -12 -109h344l-60 -79h-284q8 -127 72.5 -197t176.5 -70q64 0 141 25.5t144 71.5l76 -166q-89 -64 -198 -98.5t-197 -34.5q-229 0 -355 123.5t-129 345.5h-123l13 77h112q2 34 15 111h-107l14 78
h111q65 221 237.5 346t421.5 125q90 0 179.5 -24.5t152.5 -67.5l-133 -176q-85 65 -233 65z" />
    <glyph glyph-name="sterling.osf" horiz-adv-x="1110" 
d="M1077 795h-250q2 10 2 30q0 77 -41 119.5t-116 42.5q-86 0 -136.5 -43t-50.5 -117q0 -32 12 -70t31 -85t27 -74h309l-16 -90h-283q-11 -103 -133 -182t-358 -125v-4h909l-35 -197h-950l33 190q97 54 157 115t80.5 108.5t20.5 94.5h-176l16 90h143q-6 17 -19 54
t-20.5 60.5t-14.5 56.5t-7 60q0 163 133 262t361 99q179 0 276.5 -89t97.5 -251q0 -32 -2 -55z" />
    <glyph glyph-name="yen.osf" horiz-adv-x="1280" 
d="M1047 1171h288l-428 -679h174l-12 -76h-209l-63 -101h256l-15 -75h-288l-152 -240h-291l150 240h-307l14 75h340l63 101h-387l13 76h163l-186 679h309l164 -665h4z" />
    <glyph glyph-name="plus.case" horiz-adv-x="972" 
d="M580 766h372l-16 -90h-371l-67 -377h-101l66 377h-369l17 90h366l66 377h104z" />
    <glyph glyph-name="minus.case" horiz-adv-x="1093" 
d="M993 676h-841l16 90h842z" />
    <glyph glyph-name="multiply.case" horiz-adv-x="929" 
d="M870 1083l58 -69l-361 -305l252 -306l-82 -69l-254 305l-360 -305l-55 67l360 306l-254 307l84 69l252 -305z" />
    <glyph glyph-name="divide.case" horiz-adv-x="1062" 
d="M606 954q-29 0 -45 15t-16 41q0 38 24 61t62 23q63 0 63 -58q0 -39 -23 -60.5t-65 -21.5zM979 676h-842l17 90h841zM500 348q-29 0 -45.5 14t-16.5 39q0 40 24 63t64 23q62 0 62 -57q0 -39 -23 -60.5t-65 -21.5z" />
    <glyph glyph-name="equal.case" horiz-adv-x="1091" 
d="M1024 852h-842l17 88h841zM961 502h-842l18 88h842z" />
    <glyph glyph-name="notequal.case" horiz-adv-x="1091" 
d="M1040 940l-16 -88h-332l-123 -262h410l-18 -88h-433l-139 -297h-100l139 297h-309l18 88h332l121 262h-408l17 88h432l137 293h102l-137 -293h307z" />
    <glyph glyph-name="greater.case" horiz-adv-x="970" 
d="M231 1155l723 -344l-14 -84l-16 -94l-844 -342l16 100l830 328l2 4l-713 332z" />
    <glyph glyph-name="less.case" horiz-adv-x="972" 
d="M965 1155l-17 -100l-829 -332l-2 -4l712 -328l-16 -100l-723 342l14 84l17 94z" />
    <glyph glyph-name="greaterequal.case" horiz-adv-x="1112" 
d="M260 1145l16 96l795 -278l-16 -82l-17 -90l-888 -277l16 96l874 262l2 5zM946 262h-842l15 90h842z" />
    <glyph glyph-name="lessequal.case" horiz-adv-x="1118" 
d="M1100 1241l-19 -96l-874 -268l-2 -5l782 -262l-16 -96l-795 277l17 81l16 91zM926 262h-842l18 90h842z" />
    <glyph glyph-name="plusminus.case" horiz-adv-x="1089" 
d="M723 1239l-57 -321h370l-16 -91h-369l-57 -319h-100l55 319h-371l17 91h370l56 321h102zM922 262h-842l16 90h842z" />
    <glyph glyph-name="logicalnot.case" horiz-adv-x="1060" 
d="M141 825l15 88h841l-69 -405h-103l56 317h-740z" />
    <glyph glyph-name="percent.osf" horiz-adv-x="1443" 
d="M367 545q-115 0 -176.5 66.5t-61.5 185.5q0 178 96 286.5t256 108.5q115 0 176.5 -66.5t61.5 -185.5q0 -179 -95.5 -287t-256.5 -108zM1300 1143l-1071 -1163l-61 51l1071 1161zM393 692q62 0 100.5 66.5t38.5 165.5q0 57 -19.5 88.5t-57.5 31.5q-61 0 -100.5 -65.5
t-39.5 -163.5q0 -58 20 -90.5t58 -32.5zM989 -20q-114 0 -175.5 65.5t-61.5 183.5q0 179 96 288.5t256 109.5q113 0 175 -66.5t62 -185.5q0 -179 -95.5 -287t-256.5 -108zM1016 127q62 0 100.5 65.5t38.5 163.5q0 58 -20 89.5t-58 31.5q-61 0 -100 -65t-39 -164
q0 -57 20.5 -89t57.5 -32z" />
    <glyph glyph-name="perthousand.osf" horiz-adv-x="2086" 
d="M367 545q-115 0 -176.5 66.5t-61.5 185.5q0 178 96 286.5t256 108.5q115 0 176.5 -66.5t61.5 -185.5q0 -179 -95.5 -287t-256.5 -108zM1300 1143l-1071 -1163l-61 51l1071 1161zM393 692q62 0 100.5 66.5t38.5 165.5q0 57 -19.5 88.5t-57.5 31.5q-61 0 -100.5 -65.5
t-39.5 -163.5q0 -58 20 -90.5t58 -32.5zM989 -20q-114 0 -175.5 65.5t-61.5 183.5q0 179 96 288.5t256 109.5q113 0 175 -66.5t62 -185.5q0 -179 -95.5 -287t-256.5 -108zM1645 -20q-115 0 -176.5 65.5t-61.5 183.5q0 179 96 288.5t256 109.5q115 0 176.5 -66.5t61.5 -185.5
q0 -179 -95.5 -287t-256.5 -108zM1016 127q62 0 100.5 65.5t38.5 163.5q0 58 -20 89.5t-58 31.5q-61 0 -100 -65t-39 -164q0 -57 20.5 -89t57.5 -32zM1671 127q62 0 100.5 65.5t38.5 163.5q0 121 -77 121q-61 0 -100.5 -65t-39.5 -164q0 -57 20.5 -89t57.5 -32z" />
    </font>
</defs>
</svg>
