{
    "asset" : {
        "generator" : "Khronos glTF Blender I/O v3.3.3",
        "version" : "2.0"
    },
    "scene" : 0,
    "scenes" : [
        {
            "name" : "Scene",
            "nodes" : [
                0
            ]
        }
    ],
    "nodes" : [
        {
            "mesh" : 0,
            "name" : "pSphere1",
            "rotation" : [
                0.7071068286895752,
                0,
                0,
                0.7071067094802856
            ]
        }
    ],
    "materials" : [
        {
            "doubleSided" : true,
            "name" : "lambert2",
            "pbrMetallicRoughness" : {
                "baseColorTexture" : {
                    "index" : 0
                },
                "metallicFactor" : 0,
                "roughnessFactor" : 0.5527864098548889
            }
        },
        {
            "doubleSided" : true,
            "name" : "Material",
            "pbrMetallicRoughness" : {
                "baseColorTexture" : {
                    "index" : 1
                },
                "metallicFactor" : 0,
                "roughnessFactor" : 0.5
            }
        }
    ],
    "meshes" : [
        {
            "name" : "Mesh",
            "primitives" : [
                {
                    "attributes" : {
                        "POSITION" : 0,
                        "NORMAL" : 1,
                        "TEXCOORD_0" : 2
                    },
                    "indices" : 3,
                    "material" : 0
                },
                {
                    "attributes" : {
                        "POSITION" : 4,
                        "NORMAL" : 5,
                        "TEXCOORD_0" : 6
                    },
                    "indices" : 7,
                    "material" : 1
                }
            ]
        }
    ],
    "textures" : [
        {
            "sampler" : 0,
            "source" : 0
        },
        {
            "sampler" : 0,
            "source" : 1
        }
    ],
    "images" : [
        {
            "mimeType" : "image/jpeg",
            "name" : "Ball_TEXTURE",
            "uri" : "Ball_TEXTURE.jpg"
        },
        {
            "mimeType" : "image/jpeg",
            "name" : "Ball_6_EMI",
            "uri" : "Ball_6_EMI.jpg"
        }
    ],
    "accessors" : [
        {
            "bufferView" : 0,
            "componentType" : 5126,
            "count" : 230,
            "max" : [
                1,
                1.0000001192092896,
                1
            ],
            "min" : [
                -1.000000238418579,
                -1.0000004768371582,
                0
            ],
            "type" : "VEC3"
        },
        {
            "bufferView" : 1,
            "componentType" : 5126,
            "count" : 230,
            "type" : "VEC3"
        },
        {
            "bufferView" : 2,
            "componentType" : 5126,
            "count" : 230,
            "type" : "VEC2"
        },
        {
            "bufferView" : 3,
            "componentType" : 5123,
            "count" : 1140,
            "type" : "SCALAR"
        },
        {
            "bufferView" : 4,
            "componentType" : 5126,
            "count" : 230,
            "max" : [
                1,
                1.0000001192092896,
                0
            ],
            "min" : [
                -1.000000238418579,
                -1.0000004768371582,
                -1
            ],
            "type" : "VEC3"
        },
        {
            "bufferView" : 5,
            "componentType" : 5126,
            "count" : 230,
            "type" : "VEC3"
        },
        {
            "bufferView" : 6,
            "componentType" : 5126,
            "count" : 230,
            "type" : "VEC2"
        },
        {
            "bufferView" : 7,
            "componentType" : 5123,
            "count" : 1140,
            "type" : "SCALAR"
        }
    ],
    "bufferViews" : [
        {
            "buffer" : 0,
            "byteLength" : 2760,
            "byteOffset" : 0
        },
        {
            "buffer" : 0,
            "byteLength" : 2760,
            "byteOffset" : 2760
        },
        {
            "buffer" : 0,
            "byteLength" : 1840,
            "byteOffset" : 5520
        },
        {
            "buffer" : 0,
            "byteLength" : 2280,
            "byteOffset" : 7360
        },
        {
            "buffer" : 0,
            "byteLength" : 2760,
            "byteOffset" : 9640
        },
        {
            "buffer" : 0,
            "byteLength" : 2760,
            "byteOffset" : 12400
        },
        {
            "buffer" : 0,
            "byteLength" : 1840,
            "byteOffset" : 15160
        },
        {
            "buffer" : 0,
            "byteLength" : 2280,
            "byteOffset" : 17000
        }
    ],
    "samplers" : [
        {
            "magFilter" : 9729,
            "minFilter" : 9987
        }
    ],
    "buffers" : [
        {
            "byteLength" : 19280,
            "uri" : "Ball_new.bin"
        }
    ]
}
