<?xml version="1.0" encoding="UTF-8"?>
<svg width="21px" height="26px" viewBox="0 0 21 26" version="1.1" xmlns="http://www.w3.org/2000/svg" xmlns:xlink="http://www.w3.org/1999/xlink">
    <title>Group</title>
    <g id="Design" stroke="none" stroke-width="1" fill="none" fill-rule="evenodd" stroke-linecap="round" stroke-linejoin="round">
        <g id="01_Dashboard" transform="translate(-1685.000000, -37.000000)" stroke="#464546" stroke-width="1.4">
            <g id="Group-5" transform="translate(1681.000000, 26.000000)">
                <g id="User-Outline-Copy" transform="translate(0.000000, 10.000000)">
                    <g id="Group" transform="translate(5.000000, 2.000000)">
                        <path d="M7.12871287,19.1287129 L11.8811881,19.1287129 C12.249505,19.6158416 12.4752475,20.2455446 12.4752475,20.9108911 C12.4752475,22.550495 11.1445545,23.8811881 9.5049505,23.8811881 C7.86534653,23.8811881 6.53465347,22.550495 6.53465347,20.9108911 C6.53465347,20.2455446 6.76039604,19.6158416 7.12871287,19.1287129 Z" id="Path"></path>
                        <path d="M7.62064158,3.93557228 C8.22099802,3.77104158 8.85286337,3.68316832 9.5049505,3.68316832 C10.1570376,3.68316832 10.788903,3.77104158 11.3892594,3.93557228 C11.7055842,3.53320396 11.8811881,3.03754455 11.8811881,2.4950495 C11.8811881,1.18811881 10.8118812,0.118811881 9.5049505,0.118811881 C8.1980198,0.118811881 7.12871287,1.18811881 7.12871287,2.4950495 C7.12871287,3.03754455 7.30431683,3.53320396 7.62064158,3.93557228 Z" id="Path"></path>
                        <path d="M2.37623762,14.3762376 L0,19.1287129 L19.009901,19.1287129 L16.6336634,14.3762376 L16.6336634,10.8118812 C16.6336634,6.87920792 13.4376238,3.68316832 9.5049505,3.68316832 C5.57227723,3.68316832 2.37623762,6.87920792 2.37623762,10.8118812 L2.37623762,14.3762376 Z" id="Path"></path>
                    </g>
                </g>
            </g>
        </g>
    </g>
</svg>