<?xml version="1.0" encoding="UTF-8"?>
<svg width="36px" height="36px" viewBox="0 0 36 36" version="1.1" xmlns="http://www.w3.org/2000/svg" xmlns:xlink="http://www.w3.org/1999/xlink">
    <title>Group 7</title>
    <g id="Design" stroke="none" stroke-width="1" fill="none" fill-rule="evenodd">
        <g id="17.2-Edit_account-" transform="translate(-456.000000, -416.000000)">
            <g id="Group-7" transform="translate(457.000000, 417.000000)">
                <circle id="Oval" stroke="#FFFFFF" fill="#0566FF" cx="17" cy="17" r="17.5"></circle>
                <g id="Group-6" transform="translate(5.000000, 5.000000)">
                    <rect id="Rectangle" x="0" y="0" width="24" height="24"></rect>
                    <g id="Group" transform="translate(2.000000, 5.000000)" stroke="#FFFFFF" stroke-width="1.2">
                        <path d="M19,14 L1,14 C0.45,14 0,13.55 0,13 L0,1 C0,0.45 0.45,0 1,0 L19,0 C19.55,0 20,0.45 20,1 L20,13 C20,13.55 19.55,14 19,14 Z" id="Path" stroke-linecap="round" stroke-linejoin="round"></path>
                        <path d="M10,10 C11.6569,10 13,8.6569 13,7 C13,5.3431 11.6569,4 10,4 C8.3431,4 7,5.3431 7,7 C7,8.6569 8.3431,10 10,10 Z" id="Path" stroke-linecap="round" stroke-linejoin="round"></path>
                        <path d="M20,4 L16,4 L16,0 L19,0 C19.55,0 20,0.45 20,1 L20,4 Z" id="Path" stroke-linecap="round" stroke-linejoin="round"></path>
                        <path d="M3.5,4 C3.77614,4 4,3.77614 4,3.5 C4,3.22386 3.77614,3 3.5,3 C3.22386,3 3,3.22386 3,3.5 C3,3.77614 3.22386,4 3.5,4 Z" id="Path"></path>
                    </g>
                </g>
            </g>
        </g>
    </g>
</svg>