<?xml version="1.0" encoding="UTF-8"?>
<svg width="32px" height="64px" viewBox="0 0 32 64" version="1.1" xmlns="http://www.w3.org/2000/svg" xmlns:xlink="http://www.w3.org/1999/xlink">
    <title>Artboard</title>
    <g id="Artboard" stroke="none" stroke-width="1" fill="none" fill-rule="evenodd">
        <g id="Group" transform="translate(0.000000, 32.000000)">
            <rect id="ViewBox" fill="#FFFFFF" opacity="0.165411086" x="0" y="0" width="32" height="32" rx="4"></rect>
            <g id="desktop(24x24)@1x" transform="translate(7.000000, 8.000000)">
                <polygon id="Path" stroke="#FFFFFF" stroke-width="0.9" stroke-linecap="round" stroke-linejoin="round" points="9.9 11.7 8.1 11.7 8.1 16.2 9.9 16.2"></polygon>
                <line x1="4.5" y1="16.2" x2="13.5" y2="16.2" id="Path" stroke="#FFFFFF" stroke-width="0.9" stroke-linecap="round" stroke-linejoin="round"></line>
                <path d="M17.55,11.7 L0.45,11.7 C0.198,11.7 0,11.502 0,11.25 L0,0.45 C0,0.198 0.198,0 0.45,0 L17.55,0 C17.802,0 18,0.198 18,0.45 L18,11.25 C18,11.502 17.802,11.7 17.55,11.7 Z" id="Path" stroke="#FFFFFF" stroke-width="0.9" stroke-linecap="round" stroke-linejoin="round"></path>
                <path d="M10.0395447,3.61035 L9.9418947,2.8386 C9.9324447,2.75985 9.8662947,2.7 9.7843947,2.7 L8.8047447,2.7 C8.7259947,2.7 8.6566947,2.75985 8.6472447,2.8386 L8.5621947,3.51585 C8.5558947,3.57255 8.5149447,3.62295 8.4613947,3.64185 C8.1967947,3.7395 7.9447947,3.8907 7.7274447,4.086 L7.0092447,3.7836 C6.9367947,3.7521 6.8517447,3.78045 6.8107947,3.84975 L6.3193947,4.70025 C6.2815947,4.76955 6.3004947,4.85775 6.3634947,4.905 L6.9840447,5.37435 C6.9178947,5.6925 6.9178947,6.01695 6.9808947,6.32565 L6.9840447,6.32565 L6.3634947,6.795 C6.3004947,6.84225 6.2815947,6.93045 6.3225447,6.99975 L6.8139447,7.85025 C6.8548947,7.91955 6.9399447,7.9479 7.0123947,7.9164 L7.7305947,7.614 L7.7274447,7.61715 C7.8439947,7.7211 7.9762947,7.8156 8.1180447,7.8975 C8.2597947,7.9794 8.4046947,8.04555 8.5558947,8.09595 L8.5558947,8.08965 L8.6535447,8.8614 C8.6566947,8.94015 8.7259947,9 8.8047447,9 L9.7875447,9 C9.8662947,9 9.9324447,8.94015 9.9450447,8.8614 L10.0300947,8.18415 C10.0363947,8.12745 10.0773447,8.07705 10.1308947,8.05815 C10.3954947,7.9605 10.6474947,7.8093 10.8648447,7.614 L11.5830447,7.9164 C11.6554947,7.9479 11.7405447,7.91955 11.7814947,7.85025 L12.2728947,6.99975 C12.3138447,6.93045 12.2949447,6.84225 12.2319447,6.795 L11.6113947,6.32565 C11.6775447,6.0075 11.6775447,5.68305 11.6145447,5.37435 L11.6113947,5.37435 L12.2256447,4.905 C12.2886447,4.85775 12.3075447,4.76955 12.2665947,4.70025 L11.7751947,3.84975 C11.7342447,3.78045 11.6491947,3.7521 11.5767447,3.7836 L10.8616947,4.086 L10.8648447,4.08285 C10.7482947,3.9789 10.6159947,3.8844 10.4742447,3.8025 C10.3324947,3.7206 10.1875947,3.65445 10.0363947,3.60405" id="Path"></path>
                <path d="M9.6500555,2 C9.75935413,2 9.84763379,2.076 9.86024517,2.176 L9.86024517,2.176 L9.989,3.148 L10.1854942,3.21866667 C10.2510422,3.24444444 10.3158118,3.27244444 10.3799586,3.30266667 L10.5706862,3.4 C10.7598569,3.504 10.9364162,3.624 11.0919566,3.756 L11.0919566,3.756 L11.0877528,3.76 L12.0420139,3.376 C12.1387011,3.336 12.2522035,3.372 12.3068528,3.46 L12.3068528,3.46 L12.9626446,4.54 C13.0172939,4.628 12.9920711,4.74 12.9079953,4.8 L12.9079953,4.8 L12.0882556,5.396 C12.1765352,5.788 12.1765352,6.2 12.0882556,6.604 L12.0882556,6.604 L12.9164028,7.2 C13.0004787,7.26 13.0257015,7.372 12.9710522,7.46 L12.9710522,7.46 L12.3152604,8.54 C12.2606111,8.628 12.1471087,8.664 12.0504214,8.624 L12.0504214,8.624 L11.0919566,8.24 C10.8018948,8.488 10.4655914,8.68 10.1124728,8.804 C10.0410083,8.828 9.98635896,8.892 9.97795138,8.964 L9.97795138,8.964 L9.86444896,9.824 C9.84763379,9.924 9.75935413,10 9.6542593,10 L9.6542593,10 L8.34267581,10 C8.23758098,10 8.14509753,9.924 8.14089373,9.824 L8.14089373,9.824 L8.01057614,8.844 C7.80879407,8.788 7.61541958,8.704 7.42624889,8.6 C7.23707819,8.496 7.06051887,8.376 6.90497852,8.244 L6.90497852,8.244 L6.90918232,8.24 L5.95071746,8.624 C5.85403022,8.664 5.7405278,8.628 5.68587849,8.54 L5.68587849,8.54 L5.03008674,7.46 C4.97543743,7.372 5.00066019,7.26 5.08473606,7.2 L5.08473606,7.2 L5.91288332,6.604 C5.82460366,6.212 5.82460366,5.8 5.91288332,5.396 L5.91288332,5.396 L5.08473606,4.8 C5.00066019,4.74 4.97543743,4.628 5.02588295,4.54 L5.02588295,4.54 L5.68167469,3.46 C5.73632401,3.372 5.84982642,3.336 5.94651367,3.376 L5.94651367,3.376 L6.90497852,3.76 C7.19504026,3.512 7.53134372,3.32 7.88446235,3.196 C7.95592683,3.172 8.01057614,3.108 8.01898373,3.036 L8.01898373,3.036 L8.13248615,2.176 C8.14509753,2.076 8.23758098,2 8.34267581,2 L8.34267581,2 Z M9.08368485,4.28571429 C8.15500807,4.28571429 7.40216756,5.00205829 7.40216756,5.88571429 C7.40216756,6.76935429 8.15500807,7.48571429 9.08368485,7.48571429 C10.0123448,7.48571429 10.7652021,6.76935429 10.7652021,5.88571429 C10.7652021,5.00205829 10.0123448,4.28571429 9.08368485,4.28571429 Z" id="Combined-Shape" stroke="#FFFFFF" stroke-width="0.667268767" stroke-linecap="round" stroke-linejoin="round"></path>
            </g>
        </g>
        <g id="Group-Copy">
            <rect id="ViewBox" opacity="0.165411086" x="0" y="0" width="32" height="32" rx="4"></rect>
            <g id="desktop(24x24)@1x" transform="translate(7.000000, 7.000000)">
                <polygon id="Path" stroke="#454546" stroke-width="0.9" stroke-linecap="round" stroke-linejoin="round" points="9.9 11.7 8.1 11.7 8.1 16.2 9.9 16.2"></polygon>
                <line x1="4.5" y1="16.2" x2="13.5" y2="16.2" id="Path" stroke="#454546" stroke-width="0.9" stroke-linecap="round" stroke-linejoin="round"></line>
                <path d="M17.55,11.7 L0.45,11.7 C0.198,11.7 0,11.502 0,11.25 L0,0.45 C0,0.198 0.198,0 0.45,0 L17.55,0 C17.802,0 18,0.198 18,0.45 L18,11.25 C18,11.502 17.802,11.7 17.55,11.7 Z" id="Path" stroke="#454546" stroke-width="0.9" stroke-linecap="round" stroke-linejoin="round"></path>
                <path d="M10.0395447,3.61035 L9.9418947,2.8386 C9.9324447,2.75985 9.8662947,2.7 9.7843947,2.7 L8.8047447,2.7 C8.7259947,2.7 8.6566947,2.75985 8.6472447,2.8386 L8.5621947,3.51585 C8.5558947,3.57255 8.5149447,3.62295 8.4613947,3.64185 C8.1967947,3.7395 7.9447947,3.8907 7.7274447,4.086 L7.0092447,3.7836 C6.9367947,3.7521 6.8517447,3.78045 6.8107947,3.84975 L6.3193947,4.70025 C6.2815947,4.76955 6.3004947,4.85775 6.3634947,4.905 L6.9840447,5.37435 C6.9178947,5.6925 6.9178947,6.01695 6.9808947,6.32565 L6.9840447,6.32565 L6.3634947,6.795 C6.3004947,6.84225 6.2815947,6.93045 6.3225447,6.99975 L6.8139447,7.85025 C6.8548947,7.91955 6.9399447,7.9479 7.0123947,7.9164 L7.7305947,7.614 L7.7274447,7.61715 C7.8439947,7.7211 7.9762947,7.8156 8.1180447,7.8975 C8.2597947,7.9794 8.4046947,8.04555 8.5558947,8.09595 L8.5558947,8.08965 L8.6535447,8.8614 C8.6566947,8.94015 8.7259947,9 8.8047447,9 L9.7875447,9 C9.8662947,9 9.9324447,8.94015 9.9450447,8.8614 L10.0300947,8.18415 C10.0363947,8.12745 10.0773447,8.07705 10.1308947,8.05815 C10.3954947,7.9605 10.6474947,7.8093 10.8648447,7.614 L11.5830447,7.9164 C11.6554947,7.9479 11.7405447,7.91955 11.7814947,7.85025 L12.2728947,6.99975 C12.3138447,6.93045 12.2949447,6.84225 12.2319447,6.795 L11.6113947,6.32565 C11.6775447,6.0075 11.6775447,5.68305 11.6145447,5.37435 L11.6113947,5.37435 L12.2256447,4.905 C12.2886447,4.85775 12.3075447,4.76955 12.2665947,4.70025 L11.7751947,3.84975 C11.7342447,3.78045 11.6491947,3.7521 11.5767447,3.7836 L10.8616947,4.086 L10.8648447,4.08285 C10.7482947,3.9789 10.6159947,3.8844 10.4742447,3.8025 C10.3324947,3.7206 10.1875947,3.65445 10.0363947,3.60405" id="Path"></path>
                <path d="M9.6500555,2 C9.75935413,2 9.84763379,2.076 9.86024517,2.176 L9.86024517,2.176 L9.989,3.148 L10.1854942,3.21866667 C10.2510422,3.24444444 10.3158118,3.27244444 10.3799586,3.30266667 L10.5706862,3.4 C10.7598569,3.504 10.9364162,3.624 11.0919566,3.756 L11.0919566,3.756 L11.0877528,3.76 L12.0420139,3.376 C12.1387011,3.336 12.2522035,3.372 12.3068528,3.46 L12.3068528,3.46 L12.9626446,4.54 C13.0172939,4.628 12.9920711,4.74 12.9079953,4.8 L12.9079953,4.8 L12.0882556,5.396 C12.1765352,5.788 12.1765352,6.2 12.0882556,6.604 L12.0882556,6.604 L12.9164028,7.2 C13.0004787,7.26 13.0257015,7.372 12.9710522,7.46 L12.9710522,7.46 L12.3152604,8.54 C12.2606111,8.628 12.1471087,8.664 12.0504214,8.624 L12.0504214,8.624 L11.0919566,8.24 C10.8018948,8.488 10.4655914,8.68 10.1124728,8.804 C10.0410083,8.828 9.98635896,8.892 9.97795138,8.964 L9.97795138,8.964 L9.86444896,9.824 C9.84763379,9.924 9.75935413,10 9.6542593,10 L9.6542593,10 L8.34267581,10 C8.23758098,10 8.14509753,9.924 8.14089373,9.824 L8.14089373,9.824 L8.01057614,8.844 C7.80879407,8.788 7.61541958,8.704 7.42624889,8.6 C7.23707819,8.496 7.06051887,8.376 6.90497852,8.244 L6.90497852,8.244 L6.90918232,8.24 L5.95071746,8.624 C5.85403022,8.664 5.7405278,8.628 5.68587849,8.54 L5.68587849,8.54 L5.03008674,7.46 C4.97543743,7.372 5.00066019,7.26 5.08473606,7.2 L5.08473606,7.2 L5.91288332,6.604 C5.82460366,6.212 5.82460366,5.8 5.91288332,5.396 L5.91288332,5.396 L5.08473606,4.8 C5.00066019,4.74 4.97543743,4.628 5.02588295,4.54 L5.02588295,4.54 L5.68167469,3.46 C5.73632401,3.372 5.84982642,3.336 5.94651367,3.376 L5.94651367,3.376 L6.90497852,3.76 C7.19504026,3.512 7.53134372,3.32 7.88446235,3.196 C7.95592683,3.172 8.01057614,3.108 8.01898373,3.036 L8.01898373,3.036 L8.13248615,2.176 C8.14509753,2.076 8.23758098,2 8.34267581,2 L8.34267581,2 Z M9.08368485,4.28571429 C8.15500807,4.28571429 7.40216756,5.00205829 7.40216756,5.88571429 C7.40216756,6.76935429 8.15500807,7.48571429 9.08368485,7.48571429 C10.0123448,7.48571429 10.7652021,6.76935429 10.7652021,5.88571429 C10.7652021,5.00205829 10.0123448,4.28571429 9.08368485,4.28571429 Z" id="Combined-Shape" stroke="#454546" stroke-width="0.667268767" stroke-linecap="round" stroke-linejoin="round"></path>
            </g>
        </g>
    </g>
</svg>