<?xml version="1.0" encoding="UTF-8"?>
<svg width="32px" height="64px" viewBox="0 0 32 64" version="1.1" xmlns="http://www.w3.org/2000/svg" xmlns:xlink="http://www.w3.org/1999/xlink">
    <title>Artboard</title>
    <g id="Artboard" stroke="none" stroke-width="1" fill="none" fill-rule="evenodd">
        <g id="Group" transform="translate(0.000000, 32.000000)">
            <rect id="ViewBox" fill="#FFFFFF" opacity="0.165411086" x="0" y="0" width="32" height="32" rx="4"></rect>
            <path d="M7.94117647,16.4117647 L13.5882353,16.4117647 C14.1080327,16.4117647 14.5294118,15.9903856 14.5294118,15.4705882 L14.5294118,7.94117647 C14.5294118,7.42137906 14.1080327,7 13.5882353,7 L7.94117647,7 C7.42137906,7 7,7.42137906 7,7.94117647 L7,15.4705882 C7,15.9903856 7.42137906,16.4117647 7.94117647,16.4117647 Z M7,24.0588235 C7,24.5786209 7.42137906,25 7.94117647,25 L13.5882353,25 C14.1080327,25 14.5294118,24.5786209 14.5294118,24.0588235 L14.5294118,20.2941176 C14.5294118,19.7743202 14.1080327,19.3529412 13.5882353,19.3529412 L7.94117647,19.3529412 C7.42137906,19.3529412 7,19.7743202 7,20.2941176 L7,24.0588235 Z M17.4705882,24.0588235 C17.4705882,24.5786209 17.8919673,25 18.4117647,25 L24.0588235,25 C24.5786209,25 25,24.5786209 25,24.0588235 L25,17.4705882 C25,16.9507908 24.5786209,16.5294118 24.0588235,16.5294118 L18.4117647,16.5294118 C17.8919673,16.5294118 17.4705882,16.9507908 17.4705882,17.4705882 L17.4705882,24.0588235 Z M18.4117647,13.5882353 L24.0588235,13.5882353 C24.5786209,13.5882353 25,13.1668562 25,12.6470588 L25,7.94117647 C25,7.42137906 24.5786209,7 24.0588235,7 L18.4117647,7 C17.8919673,7 17.4705882,7.42137906 17.4705882,7.94117647 L17.4705882,12.6470588 C17.4705882,13.1668562 17.8919673,13.5882353 18.4117647,13.5882353 Z" id="Icon-Shape" stroke="#FFFFFF" stroke-width="1.48235294" stroke-linecap="round" stroke-linejoin="round"></path>
        </g>
        <g id="Group-Copy">
            <rect id="ViewBox" opacity="0.165411086" x="0" y="0" width="32" height="32" rx="4"></rect>
            <path d="M7.94117647,16.4117647 L13.5882353,16.4117647 C14.1080327,16.4117647 14.5294118,15.9903856 14.5294118,15.4705882 L14.5294118,7.94117647 C14.5294118,7.42137906 14.1080327,7 13.5882353,7 L7.94117647,7 C7.42137906,7 7,7.42137906 7,7.94117647 L7,15.4705882 C7,15.9903856 7.42137906,16.4117647 7.94117647,16.4117647 Z M7,24.0588235 C7,24.5786209 7.42137906,25 7.94117647,25 L13.5882353,25 C14.1080327,25 14.5294118,24.5786209 14.5294118,24.0588235 L14.5294118,20.2941176 C14.5294118,19.7743202 14.1080327,19.3529412 13.5882353,19.3529412 L7.94117647,19.3529412 C7.42137906,19.3529412 7,19.7743202 7,20.2941176 L7,24.0588235 Z M17.4705882,24.0588235 C17.4705882,24.5786209 17.8919673,25 18.4117647,25 L24.0588235,25 C24.5786209,25 25,24.5786209 25,24.0588235 L25,17.4705882 C25,16.9507908 24.5786209,16.5294118 24.0588235,16.5294118 L18.4117647,16.5294118 C17.8919673,16.5294118 17.4705882,16.9507908 17.4705882,17.4705882 L17.4705882,24.0588235 Z M18.4117647,13.5882353 L24.0588235,13.5882353 C24.5786209,13.5882353 25,13.1668562 25,12.6470588 L25,7.94117647 C25,7.42137906 24.5786209,7 24.0588235,7 L18.4117647,7 C17.8919673,7 17.4705882,7.42137906 17.4705882,7.94117647 L17.4705882,12.6470588 C17.4705882,13.1668562 17.8919673,13.5882353 18.4117647,13.5882353 Z" id="Icon-Shape" stroke="#464546" stroke-width="1.48235294" stroke-linecap="round" stroke-linejoin="round"></path>
        </g>
    </g>
</svg>