<?xml version="1.0" encoding="UTF-8"?>
<svg width="35px" height="38px" viewBox="0 0 35 38" version="1.1" xmlns="http://www.w3.org/2000/svg" xmlns:xlink="http://www.w3.org/1999/xlink">
    <title>Group</title>
    <g id="Design" stroke="none" stroke-width="1" fill="none" fill-rule="evenodd" stroke-linecap="round" stroke-linejoin="round">
        <g id="01_Dashboard" transform="translate(-412.000000, -583.000000)" stroke="#FFFFFF" stroke-width="1.8">
            <g id="Group-10" transform="translate(374.000000, 234.000000)">
                <g id="Group-13" transform="translate(0.000000, 250.000000)">
                    <g id="Group-12-Copy-4" transform="translate(0.000000, 63.000000)">
                        <g id="Group-11" transform="translate(24.000000, 24.000000)">
                            <g id="Group" transform="translate(15.000000, 13.000000)">
                                <polygon id="Path" points="32.4 36 32.4 0 0 0 0 36 4.05 32.4 8.1 36 12.15 32.4 16.2 36 20.25 32.4 24.3 36 28.35 32.4"></polygon>
                                <line x1="21.6" y1="27" x2="21.6" y2="25.182" id="Path"></line>
                                <line x1="21.6" y1="14.418" x2="21.6" y2="12.6" id="Path"></line>
                                <path d="M25.2,16.686 C24.894,15.57 23.904,14.706 22.644,14.472 C21.384,14.238 20.07,14.67 19.332,15.552 C19.242,15.66 18.414,16.668 18.81,17.766 C19.062,18.45 19.656,18.828 20.484,19.332 C21.384,19.89 21.636,19.8 23.004,20.502 C24.39,21.222 24.624,21.582 24.732,21.762 C25.128,22.518 24.858,23.274 24.804,23.418 C24.426,24.39 23.382,24.786 23.004,24.948 C22.842,25.02 21.33,25.56 19.836,24.876 C19.008,24.498 18.576,23.922 18.432,23.742 C18.198,23.4 18.072,23.094 18,22.878" id="Path"></path>
                                <line x1="5.4" y1="7.2" x2="27" y2="7.2" id="Path"></line>
                                <line x1="5.4" y1="12.6" x2="14.4" y2="12.6" id="Path"></line>
                                <line x1="5.4" y1="25.2" x2="14.4" y2="25.2" id="Path"></line>
                                <line x1="5.4" y1="18" x2="12.6" y2="18" id="Path"></line>
                            </g>
                        </g>
                    </g>
                </g>
            </g>
        </g>
    </g>
</svg>