<?xml version="1.0" encoding="UTF-8"?>
<svg width="20px" height="20px" viewBox="0 0 20 20" version="1.1" xmlns="http://www.w3.org/2000/svg" xmlns:xlink="http://www.w3.org/1999/xlink">
    <title>Group</title>
    <g id="Design" stroke="none" stroke-width="1" fill="none" fill-rule="evenodd">
        <g id="01_Dashboard" transform="translate(-1002.000000, -1298.000000)" stroke="#000000" stroke-width="1.2">
            <g id="Group-8" transform="translate(374.000000, 1149.000000)">
                <g id="Group-58" transform="translate(0.000000, 139.000000)">
                    <g id="Group-9" transform="translate(437.000000, 0.000000)">
                        <g id="Group" transform="translate(192.000000, 11.000000)">
                            <path d="M17.1,18 L0.9,18 C0.405,18 0,17.595 0,17.1 L0,9 L18,9 L18,17.1 C18,17.595 17.595,18 17.1,18 Z" id="Path" stroke-linecap="round" stroke-linejoin="round"></path>
                            <path d="M13.5,2.7 L17.1,2.7 C17.595,2.7 18,3.105 18,3.6 L18,9 L0,9 L0,3.6 C0,3.105 0.405,2.7 0.9,2.7 L4.5,2.7" id="Path" stroke-linecap="round" stroke-linejoin="round"></path>
                            <line x1="10.8" y1="2.7" x2="7.2" y2="2.7" id="Path" stroke-linecap="round" stroke-linejoin="round"></line>
                            <path d="M12.15,5.4 C11.403,5.4 10.8,4.797 10.8,4.05 L10.8,1.35 C10.8,0.603 11.403,0 12.15,0 C12.897,0 13.5,0.603 13.5,1.35 L13.5,4.05 C13.5,4.797 12.897,5.4 12.15,5.4 Z" id="Path"></path>
                            <path d="M5.85,5.4 C5.103,5.4 4.5,4.797 4.5,4.05 L4.5,1.35 C4.5,0.603 5.103,0 5.85,0 C6.597,0 7.2,0.603 7.2,1.35 L7.2,4.05 C7.2,4.797 6.597,5.4 5.85,5.4 Z" id="Path"></path>
                            <line x1="13.95" y1="15.3" x2="14.85" y2="15.3" id="Path" stroke-linecap="round" stroke-linejoin="round"></line>
                            <line x1="10.35" y1="15.3" x2="11.25" y2="15.3" id="Path" stroke-linecap="round" stroke-linejoin="round"></line>
                            <line x1="6.75" y1="15.3" x2="7.65" y2="15.3" id="Path" stroke-linecap="round" stroke-linejoin="round"></line>
                            <line x1="3.15" y1="15.3" x2="4.05" y2="15.3" id="Path" stroke-linecap="round" stroke-linejoin="round"></line>
                            <line x1="13.95" y1="11.7" x2="14.85" y2="11.7" id="Path" stroke-linecap="round" stroke-linejoin="round"></line>
                            <line x1="10.35" y1="11.7" x2="11.25" y2="11.7" id="Path" stroke-linecap="round" stroke-linejoin="round"></line>
                            <line x1="6.75" y1="11.7" x2="7.65" y2="11.7" id="Path" stroke-linecap="round" stroke-linejoin="round"></line>
                            <line x1="3.15" y1="11.7" x2="4.05" y2="11.7" id="Path" stroke-linecap="round" stroke-linejoin="round"></line>
                        </g>
                    </g>
                </g>
            </g>
        </g>
    </g>
</svg>