<?xml version="1.0" encoding="UTF-8"?>
<svg width="32px" height="32px" viewBox="0 0 32 32" version="1.1" xmlns="http://www.w3.org/2000/svg" xmlns:xlink="http://www.w3.org/1999/xlink">
    <title>dribbble</title>
    <g id="Design" stroke="none" stroke-width="1" fill="none" fill-rule="evenodd">
        <g id="08.2_Artist-Details" transform="translate(-1153.000000, -951.000000)" fill-rule="nonzero">
            <g id="Group-24" transform="translate(374.000000, 903.000000)">
                <g id="Group-8-Copy-7" transform="translate(771.000000, 40.000000)">
                    <g id="dribbble" transform="translate(8.000000, 8.000000)">
                        <circle id="Oval" fill="#EC407A" cx="16" cy="15.892" r="15"></circle>
                        <path d="M16,0 C7.178,0 0,7.178 0,16 C0,24.822 7.178,32 16,32 C24.822,32 32,24.822 32,16 C32,7.178 24.822,0 16,0 Z M29.994,16.12 C26.606,15.226 23.132,15.122 19.822,15.804 C19.37,14.676 18.882,13.566 18.358,12.47 C21.352,11.07 24.12,9.172 26.548,6.826 C28.69,9.284 30,12.488 30,16 C30,16.04 29.994,16.078 29.994,16.12 Z M25.134,5.414 C22.866,7.604 20.286,9.388 17.49,10.692 C15.996,7.832 14.248,5.1 12.27,2.52 C13.46,2.19 14.706,2 16,2 C19.49,2 22.68,3.292 25.134,5.414 Z M10.294,3.228 C12.324,5.812 14.106,8.564 15.624,11.446 C11.424,13.05 6.864,13.666 2.298,13.132 C3.224,8.7 6.256,5.04 10.294,3.228 Z M2,16 C2,15.7 2.026,15.406 2.046,15.112 C3.23,15.252 4.414,15.344 5.594,15.344 C9.358,15.344 13.056,14.608 16.522,13.258 C17.002,14.258 17.454,15.272 17.872,16.3 C12.956,17.776 8.576,20.924 5.628,25.37 C3.382,22.886 2,19.604 2,16 Z M7.09,26.79 C9.802,22.526 13.938,19.52 18.592,18.16 C19.856,21.64 20.766,25.254 21.296,28.952 C19.662,29.624 17.874,30 16,30 C12.618,30 9.512,28.794 7.09,26.79 Z M23.172,28 C22.622,24.476 21.75,21.026 20.556,17.696 C23.578,17.128 26.74,17.262 29.82,18.132 C29.174,22.324 26.672,25.9 23.172,28 Z" id="Shape" fill="#C2185B"></path>
                    </g>
                </g>
            </g>
        </g>
    </g>
</svg>