<?xml version="1.0" encoding="UTF-8"?>
<svg width="72px" height="72px" viewBox="0 0 72 72" version="1.1" xmlns="http://www.w3.org/2000/svg" xmlns:xlink="http://www.w3.org/1999/xlink">
    <title>Shape</title>
    <g id="Design" stroke="none" stroke-width="1" fill="none" fill-rule="evenodd">
        <g id="Group-6-Copy" transform="translate(-16.000000, -14.000000)" fill="#0566FF">
            <path d="M52,14 C71.882251,14 88,30.117749 88,50 C88,69.882251 71.882251,86 52,86 C32.117749,86 16,69.882251 16,50 C16,30.117749 32.117749,14 52,14 Z M52,16.6590909 C33.5863244,16.6590909 18.6590909,31.5863244 18.6590909,50 C18.6590909,68.4136756 33.5863244,83.3409091 52,83.3409091 C70.4136756,83.3409091 85.3409091,68.4136756 85.3409091,50 C85.3409091,31.5863244 70.4136756,16.6590909 52,16.6590909 Z M38.6770706,61.6590909 C39.1716178,61.6590909 39.4271338,61.8443793 39.4436187,62.2149561 L39.4444713,62.2539526 L39.4444713,63.5569829 L41.8887848,63.5569829 L41.9369438,63.5576397 C42.3785419,63.5699 42.599341,63.7538049 42.599341,64.1093544 C42.599341,64.4649039 42.3785419,64.6488088 41.9369438,64.6610692 L41.8887848,64.661726 L39.4444713,64.661726 L39.4444713,69.8596838 L39.4435927,69.9000014 C39.4271904,70.2696974 39.1811572,70.4545455 38.7054929,70.4545455 C38.2109457,70.4545455 37.9554297,70.2692571 37.9389448,69.8986803 L37.9380921,69.8596838 L37.9380921,64.661726 L37.355436,64.661726 L37.3065853,64.6610214 C36.8749224,64.6483394 36.6590909,64.4644504 36.6590909,64.1093544 C36.6590909,63.7542584 36.8749224,63.5703694 37.3065853,63.5576874 L37.355436,63.5569829 L37.9380921,63.5569829 L37.9380921,62.2539526 L37.9389708,62.213635 C37.955373,61.8439389 38.2014063,61.6590909 38.6770706,61.6590909 Z M51.7797276,63.5003294 L51.870759,63.5007456 C53.7979389,63.5185029 54.7763533,64.1044946 54.8060022,65.2587206 L54.8066971,65.3132411 L54.8066971,66.8995389 L54.8058633,66.9353086 C54.7914319,67.2392264 54.5896694,67.3970298 54.2005758,67.4087189 L54.1529854,67.4094203 L46.0668554,67.4094203 L46.0668554,68.273386 L46.067586,68.311691 C46.0919271,68.9436568 46.7245543,69.2659593 47.9654675,69.2785986 L48.0422018,69.2789855 L50.1454482,69.2789855 L50.1936072,69.2796423 C50.6352054,69.2919026 50.8560045,69.4758076 50.8560045,69.831357 C50.8560045,70.1869065 50.6352054,70.3708115 50.1936072,70.3830718 L50.1454482,70.3837286 L48.0422018,70.3837286 L47.9491184,70.3833458 C45.7307424,70.3649752 44.6061491,69.6853921 44.5753383,68.3445963 L44.5746874,68.2875494 L44.5746874,65.5115283 L44.5753381,65.4536551 C44.6043966,64.170874 45.6066988,63.5199105 47.5822447,63.5007645 L47.6727125,63.5003294 L51.7797276,63.5003294 Z M64.3139395,63.5003294 L64.404971,63.5007456 C66.3321509,63.5185029 67.3105653,64.1044946 67.3402142,65.2587206 L67.3409091,65.3132411 L67.3409091,66.8995389 L67.3400753,66.9353086 C67.3256438,67.2392264 67.1238813,67.3970298 66.7347878,67.4087189 L66.6871974,67.4094203 L58.6010674,67.4094203 L58.6010674,68.273386 L58.6017979,68.311691 C58.6261391,68.9436568 59.2587663,69.2659593 60.4996794,69.2785986 L60.5764137,69.2789855 L62.6796602,69.2789855 L62.7278192,69.2796423 C63.1694173,69.2919026 63.3902164,69.4758076 63.3902164,69.831357 C63.3902164,70.1869065 63.1694173,70.3708115 62.7278192,70.3830718 L62.6796602,70.3837286 L60.5764137,70.3837286 L60.4833304,70.3833458 C58.2649544,70.3649752 57.140361,69.6853921 57.1095503,68.3445963 L57.1088993,68.2875494 L57.1088993,65.5115283 L57.10955,65.4536551 C57.1386086,64.170874 58.1409108,63.5199105 60.1164567,63.5007645 L60.2069245,63.5003294 L64.3139395,63.5003294 Z M51.6660386,64.6192358 L47.7579793,64.6192358 L47.6867821,64.6196782 C46.6303082,64.6329504 46.0905878,64.9448459 46.067621,65.5553649 L46.0668554,65.5965086 L46.0668554,66.4321476 L53.20084,66.4321476 C53.2682113,66.4321476 53.3056398,66.4060357 53.3131255,66.3538119 L53.314529,66.333004 L53.314529,65.5965086 L53.3137828,65.5553649 C53.2913949,64.9448459 52.765281,64.6329504 51.7354408,64.6196782 L51.6660386,64.6192358 Z M64.2002505,64.6192358 L60.2921913,64.6192358 L60.2209941,64.6196782 C59.1645202,64.6329504 58.6247998,64.9448459 58.601833,65.5553649 L58.6010674,65.5965086 L58.6010674,66.4321476 L65.735052,66.4321476 C65.8024233,66.4321476 65.8398517,66.4060357 65.8473374,66.3538119 L65.848741,66.333004 L65.848741,65.5965086 L65.8479947,65.5553649 C65.8256069,64.9448459 65.2994929,64.6329504 64.2696528,64.6196782 L64.2002505,64.6192358 Z M63.2592702,29.75 C66.5225565,29.75 69.0972117,30.8585544 71.0206082,32.8222639 C72.7936604,34.6373216 73.6818182,36.8242028 73.6818182,39.3830629 C73.6818182,42.1732538 72.5235846,45.1189345 70.2075837,48.2199496 L62.2176603,58.5909091 L57.055996,58.5909091 L67.882803,44.5593733 C69.1820571,42.6089516 69.5630847,41.0397557 69.5630847,39.3376825 C69.5630847,37.4912315 69.1016404,36.243661 67.882803,35.0237538 C66.6116753,33.7870621 65.0207455,33.0730213 63.2592702,33.0730213 C61.4633749,33.0730213 59.6556697,33.8252935 58.4196612,35.0960204 C57.6043273,35.9223076 57.1457016,36.7372277 56.925116,37.709736 L56.888636,37.8835693 L56.8588002,38.0488404 L56.8271483,38.2661939 L56.8064614,38.4410325 L56.7834339,38.6856511 L56.7629995,39.0577854 C56.7586484,39.1827367 56.7563952,39.3091644 56.7563952,39.4394775 C56.7563952,39.5526175 56.7590369,39.6649027 56.7645534,39.7764886 L56.7701476,39.864141 C56.7755087,39.9465871 56.7809475,40.0284893 56.7894943,40.1097698 L56.8004496,40.2011521 C56.8089963,40.2814225 56.8190192,40.3613043 56.8309846,40.4403313 L56.8450478,40.5227774 C56.8586448,40.6050681 56.8730965,40.6875919 56.8900345,40.7684062 L56.9348076,40.9651579 L56.9739476,41.1191033 L57.0203135,41.2802268 L57.0744102,41.4497328 L57.123884,41.5919057 L57.1831087,41.7496782 C57.2227344,41.8496081 57.2650794,41.9485279 57.3092891,42.0467484 C57.0598031,42.737322 56.6983553,43.4249428 56.2074638,44.1641604 L54.8649323,45.9036879 C54.1932691,45.1361912 53.6745362,44.2910952 53.306717,43.3691333 L53.1898563,43.0615116 C53.1561357,42.9668656 53.1251345,42.8705101 53.0936671,42.7744655 L53.0527983,42.6416658 C53.0265366,42.5549459 53.0022174,42.4672935 52.9783643,42.3790971 L52.9347761,42.2106304 L52.876814,41.9639137 L52.8361006,41.767162 L52.792357,41.5333445 L52.7566162,41.3105613 L52.725615,41.0899538 L52.7107651,40.9636427 L52.6977217,40.836399 C52.6904958,40.7689502 52.6828038,40.7025892 52.6775981,40.6349072 L52.666701,40.4846723 L52.6577853,40.3337963 C52.6549882,40.2780811 52.6504817,40.2229098 52.6483839,40.1672723 C52.641935,40.0090628 52.6379725,39.8492991 52.6379725,39.6884476 C52.6379725,39.509646 52.6424789,39.3334087 52.6504817,39.1588809 L52.662991,38.9632171 C52.6692068,38.8573815 52.6765103,38.7518567 52.6854455,38.6475752 L52.7113187,38.4034228 L52.7258578,38.2798313 L52.7617248,38.0178065 L52.7995246,37.7876024 L52.8466577,37.5366993 L52.8864873,37.3471257 L52.8941405,37.3152273 C52.9227849,37.1883593 52.9547098,37.0631835 52.9885801,36.9390783 L53.0550321,36.7044481 L53.0697363,36.6556584 C53.1057879,36.5367682 53.1437387,36.4193975 53.1840262,36.3032702 L53.2583854,36.093766 L53.260017,36.0942323 C53.8261972,34.5869681 54.7817962,33.2784761 56.1313205,32.1720974 C58.0000958,30.6419877 60.3887437,29.75 63.2592702,29.75 Z M43.7126513,46.9569156 C44.6903575,47.9153511 45.7797671,48.6108444 46.9692851,49.043849 L47.19349,49.1219614 L39.8973257,58.5909091 L34.7358945,58.5909091 L43.7126513,46.9569156 Z M60.9871682,34.1994481 C62.0086545,35.7131618 62.5210682,37.4407226 62.5210682,39.3830629 C62.5210682,42.1732538 61.3629123,45.1189345 59.0472222,48.2199496 L50.734078,58.5909091 L45.5690727,58.5909091 L56.7222084,44.5593733 C58.0223949,42.6089516 58.4034224,41.0397557 58.4034224,39.3376825 C58.4034224,38.3576539 58.271337,37.5467136 57.9668413,36.818608 C58.1908426,36.3898261 58.4944837,35.9848222 58.9020837,35.5722808 C59.4773544,34.9809378 60.1979191,34.5130697 60.9871682,34.1994481 Z M61.5281745,45.6423624 C61.7159883,45.6905596 61.9079103,45.7292281 62.1033505,45.7597119 L62.2999417,45.7875173 L62.384554,45.7976968 L62.5365785,45.8131603 L62.7900562,45.8321206 C62.9208985,45.8390364 63.0515076,45.8435434 63.1852246,45.8435434 C63.4957652,45.8435434 63.7975539,45.8236506 64.0908295,45.7857351 L64.3091937,45.7539483 L61.9353083,48.834449 C61.7040034,48.8567507 61.474641,48.8705823 61.2497851,48.8705823 C61.1051127,48.8705823 60.9614504,48.8669301 60.8188759,48.8603251 L60.5833268,48.8456387 L60.3897537,48.8295535 C60.2009493,48.8115775 60.0161851,48.787834 59.834172,48.7580697 L59.562666,48.7088761 L59.620162,48.6341228 C60.3736704,47.6257315 61.0097004,46.6279082 61.5281745,45.6423624 Z M40.9396349,29.75 C44.2027658,29.75 46.7772656,30.8585544 48.700196,32.8222639 C50.4737921,34.6372439 51.3614059,36.8242028 51.3614059,39.3830629 C51.3614059,41.1431048 50.8986409,42.9656223 49.977151,44.8497608 C49.2235649,44.5707961 48.5465884,44.1209558 47.9351107,43.4922362 C47.4747542,43.0250675 47.1115194,42.5310124 46.8414436,42.0052533 C47.1343624,41.1027753 47.2434494,40.238995 47.2434494,39.3376825 C47.2434494,37.4912315 46.781539,36.243661 45.5623131,35.0237538 C44.2916515,33.7870621 42.7009548,33.0730213 40.9396349,33.0730213 C39.1434289,33.0730213 37.3361121,33.8252935 36.0998705,35.0960204 C34.8458362,36.3665142 34.4358276,37.6097332 34.4358276,39.4394775 C34.4358276,41.1675822 35.0626893,42.6671534 36.3165683,43.9376472 C37.5527322,45.2080634 39.0687618,45.8435434 40.8652786,45.8435434 C41.1761299,45.8435434 41.4777322,45.8236506 41.770881,45.7857351 L41.9891699,45.7539483 L39.6149738,48.834449 C39.3836689,48.8567507 39.1548504,48.8705823 38.9299167,48.8705823 C36.6553285,48.8705823 34.6916071,48.0576994 33.0401511,46.4325552 C31.2250646,44.6446945 30.3181818,42.3971249 30.3181818,39.6884476 C30.3181818,36.5871217 31.4830196,34.0814126 33.8118406,32.1720974 C35.6803828,30.6419877 38.0687199,29.75 40.9396349,29.75 Z M43.0975995,34.1851502 C43.8138909,34.4818318 44.4869048,34.9232799 45.0896804,35.5094943 C45.5158501,35.9355565 45.8295141,36.3578889 46.0576333,36.8113036 C45.7248558,37.5758534 45.5961891,38.415778 45.5961891,39.4394775 C45.5961891,41.1675822 46.2226624,42.6671534 47.475842,43.9376472 C48.7130937,45.2080634 50.2291233,45.8435434 52.0248631,45.8435434 C52.3354037,45.8435434 52.6372421,45.8236506 52.9306569,45.7857351 L53.149143,45.7539483 L50.7758014,48.834449 C50.5437973,48.8567507 50.3149788,48.8705823 50.0905113,48.8705823 C47.8158454,48.8705823 45.852124,48.0576994 44.1995025,46.4325552 C42.3844938,44.6446945 41.4779994,42.3971249 41.4779994,39.6884476 C41.4779994,37.5777961 42.0188503,35.7442442 43.0975995,34.1851502 Z M52.0994525,29.75 C53.9366827,29.75 55.5553504,30.1016198 56.9625261,30.7588576 C56.5246242,31.0253893 56.1034272,31.3191959 55.7023537,31.6476593 C55.0602633,32.1737292 54.5006874,32.7510074 54.0207512,33.3707908 C53.4098951,33.1762149 52.7670277,33.0730213 52.0994525,33.0730213 C51.4160271,33.0730213 50.7308924,33.1826645 50.0763704,33.3878085 C49.8052069,33.0278741 49.5089471,32.6798287 49.1850271,32.3479462 C48.584427,31.7351563 47.925787,31.2112622 47.2195186,30.7676384 C48.6438654,30.1116439 50.27411,29.75 52.0994525,29.75 Z" id="Shape"></path>
        </g>
    </g>
</svg>