<?xml version="1.0" encoding="UTF-8"?>
<svg width="32px" height="64px" viewBox="0 0 32 64" version="1.1" xmlns="http://www.w3.org/2000/svg" xmlns:xlink="http://www.w3.org/1999/xlink">
    <title>Artboard</title>
    <g id="Artboard" stroke="none" stroke-width="1" fill="none" fill-rule="evenodd">
        <g id="Group" transform="translate(0.000000, 32.000000)">
            <rect id="ViewBox" fill="#FFFFFF" opacity="0.165411086" x="0" y="0" width="32" height="32" rx="4"></rect>
            <g id="headphone-with-mic(24x24)@1x" transform="translate(8.000000, 7.000000)" stroke="#FFFFFF" stroke-linecap="round" stroke-linejoin="round" stroke-width="0.9">
                <path d="M7.65,18 C11.25,18 14.4,16.2 14.4,12.6" id="Path"></path>
                <path d="M7.65,18 C8.39556,18 9,17.39556 9,16.65 C9,15.90444 8.39556,15.3 7.65,15.3 C6.90444,15.3 6.3,15.90444 6.3,16.65 C6.3,17.39556 6.90444,18 7.65,18 Z" id="Path"></path>
                <path d="M12.6,12.6 L13.95,12.6 C15.19272,12.6 16.2,11.5929 16.2,10.35018 C16.2,9.74376 16.2,9.12006 16.2,8.54937 C16.2,7.30674 15.19272,6.3 13.95,6.3 L12.6,6.3 L12.6,12.6 Z" id="Path"></path>
                <path d="M3.6,12.6 L2.249955,12.6 C1.007316,12.6 -4.5e-05,11.5929 -4.5e-05,10.35018 C-4.5e-05,9.74376 -4.5e-05,9.12006 -4.5e-05,8.54937 C-4.5e-05,7.30674 1.007316,6.3 2.249955,6.3 L3.6,6.3 L3.6,12.6 Z" id="Path"></path>
                <path d="M14.4,6.3 C14.4,2.25 11.7,0 8.1,0 C4.5,0 1.8,2.25 1.8,6.3" id="Path"></path>
            </g>
        </g>
        <g id="Group-Copy">
            <rect id="ViewBox" opacity="0.165411086" x="0" y="0" width="32" height="32" rx="4"></rect>
            <g id="headphone-with-mic(24x24)@1x" transform="translate(8.000000, 7.000000)" stroke="#464546" stroke-linecap="round" stroke-linejoin="round" stroke-width="0.9">
                <path d="M7.65,18 C11.25,18 14.4,16.2 14.4,12.6" id="Path"></path>
                <path d="M7.65,18 C8.39556,18 9,17.39556 9,16.65 C9,15.90444 8.39556,15.3 7.65,15.3 C6.90444,15.3 6.3,15.90444 6.3,16.65 C6.3,17.39556 6.90444,18 7.65,18 Z" id="Path"></path>
                <path d="M12.6,12.6 L13.95,12.6 C15.19272,12.6 16.2,11.5929 16.2,10.35018 C16.2,9.74376 16.2,9.12006 16.2,8.54937 C16.2,7.30674 15.19272,6.3 13.95,6.3 L12.6,6.3 L12.6,12.6 Z" id="Path"></path>
                <path d="M3.6,12.6 L2.249955,12.6 C1.007316,12.6 -4.5e-05,11.5929 -4.5e-05,10.35018 C-4.5e-05,9.74376 -4.5e-05,9.12006 -4.5e-05,8.54937 C-4.5e-05,7.30674 1.007316,6.3 2.249955,6.3 L3.6,6.3 L3.6,12.6 Z" id="Path"></path>
                <path d="M14.4,6.3 C14.4,2.25 11.7,0 8.1,0 C4.5,0 1.8,2.25 1.8,6.3" id="Path"></path>
            </g>
        </g>
    </g>
</svg>