<?xml version="1.0" encoding="UTF-8"?>
<svg width="32px" height="64px" viewBox="0 0 32 64" version="1.1" xmlns="http://www.w3.org/2000/svg" xmlns:xlink="http://www.w3.org/1999/xlink">
    <title>Artboard</title>
    <g id="Artboard" stroke="none" stroke-width="1" fill="none" fill-rule="evenodd">
        <g id="Group" transform="translate(0.000000, 9.000000)">
            <rect id="ViewBox" fill="#FFFFFF" opacity="0.165411086" x="0" y="23" width="32" height="32" rx="4"></rect>
            <g id="multiple-user-2(24x24)@1x" transform="translate(7.000000, 0.000000)" stroke="#454546" stroke-linecap="round" stroke-linejoin="round">
                <path d="M4.5,9.9 C2.016,9.9 0,11.916 0,14.4 C0.009,14.4 9,14.4 9,14.4 C9,11.916 6.984,9.9 4.5,9.9 Z" id="Path"></path>
                <path d="M4.5,9.9 C5.742639,9.9 6.75,8.89263 6.75,7.65 C6.75,6.40737 5.742639,5.4 4.5,5.4 C3.257361,5.4 2.25,6.40737 2.25,7.65 C2.25,8.89263 3.257361,9.9 4.5,9.9 Z" id="Path"></path>
                <path d="M13.5,4.5 C11.016,4.5 9,6.516 9,9 C9.009,9 18,9 18,9 C18,6.516 15.984,4.5 13.5,4.5 Z" id="Path"></path>
                <path d="M13.5,4.5 C14.74263,4.5 15.75,3.492639 15.75,2.25 C15.75,1.007361 14.74263,0 13.5,0 C12.25737,0 11.25,1.007361 11.25,2.25 C11.25,3.492639 12.25737,4.5 13.5,4.5 Z" id="Path"></path>
            </g>
        </g>
        <g id="Group-Copy" transform="translate(0.000000, 32.000000)">
            <rect id="ViewBox" fill="#FFFFFF" opacity="0.165411086" x="0" y="0" width="32" height="32" rx="4"></rect>
            <g id="multiple-user-2(24x24)@1x" transform="translate(7.000000, 9.000000)" stroke="#FFFFFF" stroke-linecap="round" stroke-linejoin="round">
                <path d="M4.5,9.9 C2.016,9.9 0,11.916 0,14.4 C0.009,14.4 9,14.4 9,14.4 C9,11.916 6.984,9.9 4.5,9.9 Z" id="Path"></path>
                <path d="M4.5,9.9 C5.742639,9.9 6.75,8.89263 6.75,7.65 C6.75,6.40737 5.742639,5.4 4.5,5.4 C3.257361,5.4 2.25,6.40737 2.25,7.65 C2.25,8.89263 3.257361,9.9 4.5,9.9 Z" id="Path"></path>
                <path d="M13.5,4.5 C11.016,4.5 9,6.516 9,9 C9.009,9 18,9 18,9 C18,6.516 15.984,4.5 13.5,4.5 Z" id="Path"></path>
                <path d="M13.5,4.5 C14.74263,4.5 15.75,3.492639 15.75,2.25 C15.75,1.007361 14.74263,0 13.5,0 C12.25737,0 11.25,1.007361 11.25,2.25 C11.25,3.492639 12.25737,4.5 13.5,4.5 Z" id="Path"></path>
            </g>
        </g>
    </g>
</svg>