<?xml version="1.0" encoding="UTF-8"?>
<svg width="32px" height="64px" viewBox="0 0 32 64" version="1.1" xmlns="http://www.w3.org/2000/svg" xmlns:xlink="http://www.w3.org/1999/xlink">
    <title>Artboard</title>
    <g id="Artboard" stroke="none" stroke-width="1" fill="none" fill-rule="evenodd">
        <g id="Group" transform="translate(0.000000, 32.000000)">
            <rect id="ViewBox" fill="#FFFFFF" opacity="0.165411086" x="0" y="0" width="32" height="32" rx="4"></rect>
            <g id="horn(24x24)@1x" transform="translate(7.000000, 8.000000)" stroke="#FFFFFF" stroke-linecap="round" stroke-linejoin="round" stroke-width="0.9">
                <polygon id="Path" points="5.4 10.8 4.5 10.8 4.5 16.2 5.4 16.2"></polygon>
                <path d="M15.3,4.5 L15.3,9.9 C16.794,9.9 18,8.694 18,7.2 C18,5.706 16.794,4.5 15.3,4.5 Z" id="Path"></path>
                <polygon id="Path" points="15.3 14.4 6.3 9.9 6.3 4.5 15.3 0"></polygon>
                <path d="M6.3,10.8 L3.6,10.8 C1.611,10.8 -2.26485497e-14,9.189 -2.26485497e-14,7.2 C-2.26485497e-14,5.211 1.611,3.6 3.6,3.6 L6.3,3.6 L6.3,10.8 Z" id="Path"></path>
            </g>
        </g>
        <g id="Group-Copy">
            <rect id="ViewBox" opacity="0.165411086" x="0" y="0" width="32" height="32" rx="4"></rect>
            <g id="horn(24x24)@1x" transform="translate(7.000000, 7.000000)" stroke="#454546" stroke-linecap="round" stroke-linejoin="round" stroke-width="0.9">
                <polygon id="Path" points="5.4 10.8 4.5 10.8 4.5 16.2 5.4 16.2"></polygon>
                <path d="M15.3,4.5 L15.3,9.9 C16.794,9.9 18,8.694 18,7.2 C18,5.706 16.794,4.5 15.3,4.5 Z" id="Path"></path>
                <polygon id="Path" points="15.3 14.4 6.3 9.9 6.3 4.5 15.3 0"></polygon>
                <path d="M6.3,10.8 L3.6,10.8 C1.611,10.8 -2.26485497e-14,9.189 -2.26485497e-14,7.2 C-2.26485497e-14,5.211 1.611,3.6 3.6,3.6 L6.3,3.6 L6.3,10.8 Z" id="Path"></path>
            </g>
        </g>
    </g>
</svg>