<?xml version="1.0" encoding="UTF-8"?>
<svg width="231px" height="180px" viewBox="0 0 231 180" version="1.1" xmlns="http://www.w3.org/2000/svg" xmlns:xlink="http://www.w3.org/1999/xlink">
    <!-- Generator: Sketch 63.1 (92452) - https://sketch.com -->
    <title>Group 12</title>
    <desc>Created with Sketch.</desc>
    <g id="Home-Page_06/10/2020" stroke="none" stroke-width="1" fill="none" fill-rule="evenodd">
        <g id="06_Contact-delete-chat" transform="translate(-605.000000, -324.000000)">
            <g id="Group-43" transform="translate(420.000000, 220.000000)">
                <g id="Group-28">
                    <g id="Group-12" transform="translate(185.000000, 104.000000)">
                        <path d="M88.8255927,173.751205 C90.542936,173.751205 91.9351178,175.150046 91.9351178,176.875603 C91.9351178,178.60116 90.542936,180 88.8255927,180 C87.1082494,180 85.7160676,178.60116 85.7160676,176.875603 C85.7160676,175.150046 87.1082494,173.751205 88.8255927,173.751205 Z M118.978114,161.569275 L120.27994,162.04892 L119.171878,165.061174 L122.935715,166.789113 L121.605901,170.495977 L125.69352,172.23168 L124.918466,177.259465 L123.547486,177.047692 L124.157894,173.086846 L119.857431,171.261977 L121.199518,167.519573 L117.426672,165.788705 L118.978114,161.569275 Z M45.6377423,172.70975 C46.7826379,172.70975 47.7107591,173.64231 47.7107591,174.792681 C47.7107591,175.943053 46.7826379,176.875613 45.6377423,176.875613 C44.4928468,176.875613 43.5647256,175.943053 43.5647256,174.792681 C43.5647256,173.64231 44.4928468,172.70975 45.6377423,172.70975 Z M149.634084,169.585342 C151.351427,169.585342 152.743609,170.984183 152.743609,172.70974 C152.743609,174.435297 151.351427,175.834137 149.634084,175.834137 C147.91674,175.834137 146.524558,174.435297 146.524558,172.70974 C146.524558,170.984183 147.91674,169.585342 149.634084,169.585342 Z M91.935119,144.937328 C94.3253645,144.937328 96.2603985,146.881617 96.2603985,149.276769 C96.2603985,151.671921 94.3253645,153.61621 91.935119,153.61621 C89.5448735,153.61621 87.6098395,151.671921 87.6098395,149.276769 C87.6098395,146.881617 89.5448735,144.937328 91.935119,144.937328 Z M91.935119,146.673104 C90.5039995,146.673104 89.3438479,147.838805 89.3438479,149.276769 C89.3438479,150.714733 90.5039995,151.880433 91.935119,151.880433 C93.3662385,151.880433 94.5263901,150.714733 94.5263901,149.276769 C94.5263901,147.838805 93.3662385,146.673104 91.935119,146.673104 Z M178.656324,147.540992 C179.80122,147.540992 180.729341,148.473553 180.729341,149.623924 C180.729341,150.774295 179.80122,151.706855 178.656324,151.706855 C177.511429,151.706855 176.583307,150.774295 176.583307,149.623924 C176.583307,148.473553 177.511429,147.540992 178.656324,147.540992 Z M152.398111,144.06944 C153.82923,144.06944 154.989382,145.23514 154.989382,146.673104 C154.989382,148.111068 153.82923,149.276769 152.398111,149.276769 C150.966991,149.276769 149.80684,148.111068 149.80684,146.673104 C149.80684,145.23514 150.966991,144.06944 152.398111,144.06944 Z M23.698314,129.31534 C26.560553,129.31534 28.8808562,131.646741 28.8808562,134.52267 C28.8808562,137.398598 26.560553,139.729999 23.698314,139.729999 C20.836075,139.729999 18.5157719,137.398598 18.5157719,134.52267 C18.5157719,131.646741 20.836075,129.31534 23.698314,129.31534 Z M81.2245313,133.481196 C82.9418746,133.481196 84.3340564,134.880036 84.3340564,136.605593 C84.3340564,138.33115 82.9418746,139.72999 81.2245313,139.72999 C79.507188,139.72999 78.1150062,138.33115 78.1150062,136.605593 C78.1150062,134.880036 79.507188,133.481196 81.2245313,133.481196 Z M67.5454795,125.431262 L69.2651269,125.654195 C68.9174795,128.341323 68.1360509,130.064595 66.7848705,130.769647 C65.8985952,131.232109 65.1370031,131.097316 63.9670704,130.534847 L63.241125,130.174055 C62.4875885,129.81165 62.1834711,129.757781 61.9309092,129.899378 C61.7388943,130.007029 61.6766236,130.209638 61.7274031,130.798776 L61.820816,131.635949 C61.9464929,132.891363 61.8143163,133.488993 60.9945606,134.014632 C60.1994907,134.524442 59.6258124,134.442169 58.4275778,133.8894 L57.7662907,133.575211 C57.4716942,133.43848 57.2880205,133.367898 57.1055938,133.322001 C56.8428296,133.255891 56.6778868,133.271209 56.5302346,133.364132 C55.9523479,133.727819 55.7174318,134.66282 55.9644155,136.295944 L56.0010951,136.522982 L54.2920997,136.816743 C53.8821211,134.42677 54.2676088,132.737772 55.6073111,131.894644 C56.194657,131.525004 56.8390031,131.465168 57.5282653,131.63858 C57.8293151,131.714322 58.0848728,131.810741 58.455181,131.981541 L59.101702,132.288696 L59.3478765,132.399324 C59.7927854,132.59151 59.9640338,132.614068 60.0592561,132.55301 C60.1300483,132.507617 60.1551568,132.31979 60.0759127,131.627645 L60.0369959,131.304718 C59.8616533,129.832767 60.0284366,128.976506 61.0835876,128.384947 C62.0398068,127.848852 62.758493,127.998028 64.1481712,128.685596 L64.5334293,128.879505 C65.3504264,129.289537 65.71338,129.371306 65.983341,129.230439 C66.6678781,128.873245 67.2162499,127.711946 67.5087837,125.698695 L67.5454795,125.431262 Z M221.930551,124.108011 C224.07723,124.108011 225.817458,125.856562 225.817458,128.013508 C225.817458,130.170454 224.07723,131.919005 221.930551,131.919005 C219.783872,131.919005 218.043645,130.170454 218.043645,128.013508 C218.043645,125.856562 219.783872,124.108011 221.930551,124.108011 Z M175.465804,110.84785 L177.618945,115.586857 L182.274908,113.900857 L184.5464,119.3035 L189.468052,118.537317 L189.734444,120.252487 L183.474612,121.226719 L181.315694,116.094051 L176.704285,117.764003 L174.555123,113.037011 L170.813402,114.426178 L170.210489,112.798703 L175.465804,110.84785 Z M43.5647256,95.4677009 C44.9958451,95.4677009 46.1559967,96.6334013 46.1559967,98.0713655 C46.1559967,99.5093297 44.9958451,100.67503 43.5647256,100.67503 C42.1336061,100.67503 40.9734545,99.5093297 40.9734545,98.0713655 C40.9734545,96.6334013 42.1336061,95.4677009 43.5647256,95.4677009 Z M207.67856,90.2603718 C209.10968,90.2603718 210.269831,91.4260721 210.269831,92.8640364 C210.269831,94.3020006 209.10968,95.4677009 207.67856,95.4677009 C206.247441,95.4677009 205.087289,94.3020006 205.087289,92.8640364 C205.087289,91.4260721 206.247441,90.2603718 207.67856,90.2603718 Z M12.0375942,80.7136017 C14.1842734,80.7136017 15.9245008,82.4621522 15.9245008,84.6190986 C15.9245008,86.7760449 14.1842734,88.5245954 12.0375942,88.5245954 C9.89091495,88.5245954 8.15068758,86.7760449 8.15068758,84.6190986 C8.15068758,82.4621522 9.89091495,80.7136017 12.0375942,80.7136017 Z M180.038336,72.3240159 C183.22533,72.3240159 185.805375,74.9164011 185.805375,78.1099371 C185.805375,81.3034732 183.22533,83.8958584 180.038336,83.8958584 C176.851342,83.8958584 174.271296,81.3034732 174.271296,78.1099371 C174.271296,74.9164011 176.851342,72.3240159 180.038336,72.3240159 Z M180.038336,74.6383844 C178.130176,74.6383844 176.583307,76.1926515 176.583307,78.1099371 C176.583307,80.0272228 178.130176,81.5814899 180.038336,81.5814899 C181.946495,81.5814899 183.493364,80.0272228 183.493364,78.1099371 C183.493364,76.1926515 181.946495,74.6383844 180.038336,74.6383844 Z M28.3969179,71.357544 L28.432426,71.6133518 C28.6679393,73.1982 29.103761,74.1136151 29.6466287,74.3968857 C29.8459844,74.5009103 30.1087293,74.4531738 30.6620442,74.1872134 L31.1498783,73.9436936 C32.2386964,73.4084921 32.8095508,73.2961544 33.5664311,73.7204916 C34.3661245,74.1688315 34.5279649,74.8072283 34.4235148,75.87443 L34.3716072,76.3230942 C34.3093816,76.8698961 34.3295515,77.0188127 34.3858963,77.0549417 C34.4665884,77.1066827 34.6155233,77.0833682 35.0206152,76.9032158 L35.137587,76.8501333 L35.5535103,76.6518797 C35.9148599,76.4806691 36.139744,76.3915657 36.4106888,76.3233983 C36.9620986,76.1846685 37.4775754,76.2325376 37.9474521,76.5282495 C38.9745571,77.1746471 39.3005795,78.4425252 39.0372954,80.2298599 L38.9996212,80.4659281 L37.6324249,80.2309192 L37.6673351,80.0119351 C37.8557336,78.7285161 37.6669986,77.9920049 37.2091133,77.7038396 C37.0909916,77.629501 36.9590373,77.6172472 36.748826,77.6701345 C36.6362427,77.6984595 36.5230657,77.7385368 36.3690151,77.8055941 L36.2451841,77.8611839 L35.9944813,77.9801943 C34.8226687,78.548369 34.3373142,78.6728724 33.6376527,78.2242397 C32.9949972,77.8121601 32.8805684,77.3447735 32.9708524,76.3810734 L33.0423006,75.7475801 L33.0616319,75.5039862 C33.0794891,75.1447594 33.0249159,75.008475 32.8885739,74.9320363 C32.7066545,74.830045 32.4912996,74.854819 32.0101887,75.0723839 L31.8722131,75.1365494 L31.239052,75.4502821 C30.3147337,75.8919471 29.7092119,75.9955008 29.0054051,75.6282515 C27.9714584,75.0887339 27.3545399,73.8039328 27.0594533,71.8119102 L27.0212001,71.5358907 L28.3969179,71.357544 Z M59.1123521,64.2237261 C61.5025975,64.2237261 63.4376316,66.168015 63.4376316,68.563167 C63.4376316,70.9583191 61.5025975,72.902608 59.1123521,72.902608 C56.7221066,72.902608 54.7870725,70.9583191 54.7870725,68.563167 C54.7870725,66.168015 56.7221066,64.2237261 59.1123521,64.2237261 Z M166.56372,64.7444552 C168.475917,64.7444552 170.023944,66.2998862 170.023944,68.216008 C170.023944,70.1321293 168.475917,71.6875607 166.56372,71.6875607 C164.651524,71.6875607 163.103497,70.1321293 163.103497,68.216008 C163.103497,66.2998862 164.651524,64.7444552 166.56372,64.7444552 Z M59.1123521,65.9595025 C57.6812326,65.9595025 56.521081,67.1252028 56.521081,68.563167 C56.521081,70.0011313 57.6812326,71.1668316 59.1123521,71.1668316 C60.5434715,71.1668316 61.7036231,70.0011313 61.7036231,68.563167 C61.7036231,67.1252028 60.5434715,65.9595025 59.1123521,65.9595025 Z M166.56372,66.1330762 C165.418825,66.1330762 164.490704,67.0656364 164.490704,68.2160077 C164.490704,69.3663791 165.418825,70.2989393 166.56372,70.2989393 C167.708616,70.2989393 168.636737,69.3663791 168.636737,68.2160077 C168.636737,67.0656364 167.708616,66.1330762 166.56372,66.1330762 Z M227.113093,47.7338505 C229.259773,47.7338505 231,49.482401 231,51.6393473 C231,53.7962937 229.259773,55.5448442 227.113093,55.5448442 C224.966414,55.5448442 223.226187,53.7962937 223.226187,51.6393473 C223.226187,49.482401 224.966414,47.7338505 227.113093,47.7338505 Z M75.8188132,34.8519807 L81.2084364,36.3765607 L80.1785449,41.4815839 L84.9310449,42.8678705 L83.6084136,48.5800415 L88.0413667,50.8680077 L87.2465261,52.4106869 L81.6153653,49.5034032 L82.87146,44.0748339 L78.1637475,42.7027802 L79.191027,37.6090668 L75.3472739,36.5223449 L75.8188132,34.8519807 Z M149.385514,31.4163308 C150.245253,33.9841834 150.294732,35.876694 149.388834,37.1042783 C148.79709,37.9061522 148.052592,38.1224244 146.766858,38.1332392 L145.944868,38.1287591 L145.638356,38.1356471 C145.032331,38.160518 144.790224,38.2525325 144.646363,38.4602028 C144.510118,38.6568801 144.558035,38.884924 144.929452,39.4821032 L145.101457,39.7511921 C145.931572,41.0325179 146.154922,41.6602475 145.600063,42.5716124 C145.108716,43.378657 144.556982,43.5573481 143.239528,43.5883028 L142.503372,43.5973087 L142.213399,43.608565 C142.043425,43.6190993 141.914289,43.6362611 141.790921,43.6634536 C141.533844,43.7201182 141.395147,43.8060267 141.303769,43.9533077 C140.942222,44.536045 141.138998,45.4800655 142.073462,46.8390885 L142.205478,47.0269872 L140.796923,48.0393328 C139.385694,46.0717729 138.995313,44.3840435 139.830732,43.0375272 C140.191865,42.455458 140.73551,42.1187276 141.418036,41.9682863 C141.77132,41.8904157 142.08214,41.865918 142.606279,41.8595035 L143.142352,41.8539244 L143.412011,41.8449084 C143.895967,41.8216201 144.059749,41.7662158 144.119367,41.6682928 C144.160848,41.6001597 144.112778,41.44043 143.806767,40.9476275 L143.55529,40.5542543 C142.755904,39.3090797 142.532292,38.4658996 143.221431,37.4710896 C143.846153,36.5692682 144.557313,36.3868081 146.105876,36.3926747 L146.549708,36.3973847 L146.882687,36.3953813 C147.54525,36.379402 147.837121,36.2856574 147.994101,36.0729335 C148.454414,35.4491622 148.440655,34.1632982 147.8251,32.2245087 L147.741387,31.9679211 L149.385514,31.4163308 Z M177.015186,38.1870804 C179.161865,38.1870804 180.902093,39.9356309 180.902093,42.0925772 C180.902093,44.2495236 179.161865,45.9980741 177.015186,45.9980741 C174.868507,45.9980741 173.128279,44.2495236 173.128279,42.0925772 C173.128279,39.9356309 174.868507,38.1870804 177.015186,38.1870804 Z M43.5647256,29.5081985 C44.9958451,29.5081985 46.1559967,30.6738988 46.1559967,32.111863 C46.1559967,33.5498273 44.9958451,34.7155276 43.5647256,34.7155276 C42.1336061,34.7155276 40.9734545,33.5498273 40.9734545,32.111863 C40.9734545,30.6738988 42.1336061,29.5081985 43.5647256,29.5081985 Z M73.2779671,27.2516876 C74.4228627,27.2516876 75.3509839,28.1842478 75.3509839,29.3346191 C75.3509839,30.4849905 74.4228627,31.4175507 73.2779671,31.4175507 C72.1330716,31.4175507 71.2049504,30.4849905 71.2049504,29.3346191 C71.2049504,28.1842478 72.1330716,27.2516876 73.2779671,27.2516876 Z M110.419519,22.9122483 C112.331715,22.9122483 113.879743,24.4676793 113.879743,26.3838011 C113.879743,28.2999224 112.331715,29.8553538 110.419519,29.8553538 C108.507323,29.8553538 106.959296,28.2999224 106.959296,26.3838011 C106.959296,24.4676793 108.507323,22.9122483 110.419519,22.9122483 Z M1.3356662,19.4819155 L2.20109864,22.5711207 L6.25643812,21.7457302 L7.34850276,25.5288837 L11.6708298,24.5201466 L13.986244,29.0479083 L12.7514236,29.6806611 L10.9300972,26.1181798 L6.38226367,27.1818307 L5.27896366,23.360899 L1.21389774,24.1893759 L0,19.8569148 L1.3356662,19.4819155 Z M110.419519,24.3008693 C109.274624,24.3008693 108.346502,25.2334295 108.346502,26.3838009 C108.346502,27.5341722 109.274624,28.4667324 110.419519,28.4667324 C111.564415,28.4667324 112.492536,27.5341722 112.492536,26.3838009 C112.492536,25.2334295 111.564415,24.3008693 110.419519,24.3008693 Z M176.410556,12.1504347 C178.700347,12.1504347 180.556589,14.0155551 180.556589,16.3162977 C180.556589,18.6170404 178.700347,20.4821608 176.410556,20.4821608 C174.120765,20.4821608 172.264522,18.6170404 172.264522,16.3162977 C172.264522,14.0155551 174.120765,12.1504347 176.410556,12.1504347 Z M135.615891,1.52771619 C136.259423,0.495360146 137.523743,0.167195625 139.304389,0.431970395 L139.539567,0.469859696 L139.30308,1.83815361 L139.085434,1.80311892 C137.809937,1.61402986 137.079355,1.80309412 136.79277,2.26283465 C136.717619,2.38339134 136.705398,2.51887858 136.759332,2.73345138 C136.787774,2.84660614 136.827726,2.96016291 136.894333,3.11451876 L136.949524,3.23856668 L137.157556,3.67927258 C137.644051,4.71967058 137.730842,5.18985338 137.310708,5.85135283 C136.876096,6.53564761 136.377758,6.62461967 135.297639,6.50401573 L135.112144,6.4820407 L134.713901,6.4384594 C134.271466,6.40279156 134.11766,6.45366396 134.034064,6.6042025 C133.931395,6.7890865 133.956099,7.00702963 134.173161,7.4919169 L134.237178,7.63095305 L134.548544,8.26534371 C134.988547,9.19440015 135.091551,9.80053639 134.726904,10.5060574 C134.190136,11.5445985 132.910155,12.165049 130.926577,12.4617189 L130.651732,12.5001759 L130.472247,11.1232272 L130.726676,11.0875736 C132.302946,10.8511101 133.212728,10.4137751 133.49483,9.86796274 C133.599688,9.66508327 133.551716,9.39910304 133.285405,8.83994912 L133.043969,8.35168137 C132.512134,7.25938896 132.40066,6.68753717 132.821595,5.92952638 C133.267915,5.1258021 133.905695,4.96271929 134.969381,5.06778305 L135.534113,5.1328891 L135.765335,5.15282656 C136.027336,5.16943911 136.113771,5.14772304 136.140061,5.10633013 C136.19287,5.02318216 136.169659,4.87202018 135.989807,4.46341689 L135.936812,4.34545447 L135.739628,3.92777408 C135.570276,3.56699577 135.48196,3.34243482 135.414056,3.0722845 C135.27468,2.51778732 135.321368,2.00019134 135.615891,1.52771619 Z M88.9983449,-1.42108547e-14 C90.7156882,-1.42108547e-14 92.10787,1.39884032 92.10787,3.1243973 C92.10787,4.84995428 90.7156882,6.2487946 88.9983449,6.2487946 C87.2810016,6.2487946 85.8888198,4.84995428 85.8888198,3.1243973 C85.8888198,1.39884032 87.2810016,-1.42108547e-14 88.9983449,-1.42108547e-14 Z" id="Shape" fill="#DADADA"></path>
                        <g id="trash-delete-2---filled(24x24)@1x" transform="translate(75.000000, 50.000000)">
                            <path d="M56.76,79.28 C56.76,79.28 56.72,79.32 56.76,79.28 C48.24,76.96 42,69.2 42,60 C42,55.48 43.48,51.32 46,48 C49.64,43.16 55.48,40 62,40 C62.56,40 63.12,40.04 63.68,40.08 L66,24 L10,24 L17.52,76.56 C17.8,78.52 19.48,80 21.48,80 L54.52,80 C55.36,80 56.12,79.76 56.76,79.28 Z" id="Path" fill="#0566FF" fill-rule="nonzero"></path>
                            <path d="M2,24 C2,21.79088 3.79088,20 6,20 L70,20 C72.2092,20 74,21.79088 74,24 C74,26.20912 72.2092,28 70,28 L6,28 C3.79088,28 2,26.20912 2,24 Z" id="Path" fill="#0566FF"></path>
                            <line x1="30" y1="40" x2="30" y2="64" id="Path" stroke="#FFFFFF" stroke-width="4" stroke-linecap="round" stroke-linejoin="round"></line>
                            <line x1="46" y1="48" x2="46" y2="40" id="Path" stroke="#FFFFFF" stroke-width="4" stroke-linecap="round" stroke-linejoin="round"></line>
                            <path d="M54,12 L22,12 L28.8,1.8 C29.56,0.68 30.8,0 32.16,0 L43.88,0 C45.2,0 46.48,0.68 47.2,1.8 L54,12 Z" id="Path" fill="#0566FF" fill-rule="nonzero"></path>
                            <path d="M0,12 C0,9.79088 1.79088,8 4,8 L72,8 C74.2092,8 76,9.79088 76,12 C76,14.20912 74.2092,16 72,16 L4,16 C1.79088,16 0,14.20912 0,12 Z" id="Path" fill="#0566FF"></path>
                            <path d="M62,80 C73.0456,80 82,71.0456 82,60 C82,48.9544 73.0456,40 62,40 C50.9544,40 42,48.9544 42,60 C42,71.0456 50.9544,80 62,80 Z" id="Path" fill="#FF654F" fill-rule="nonzero"></path>
                            <path d="M62,80 C73.0456,80 82,71.0456 82,60 C82,48.9544 73.0456,40 62,40 C50.9544,40 42,48.9544 42,60 C42,71.0456 50.9544,80 62,80 Z" id="Path" stroke="#FFFFFF" stroke-width="4" stroke-linecap="round" stroke-linejoin="round"></path>
                            <line x1="53.52" y1="51.52" x2="70.48" y2="68.48" id="Path" stroke="#FFFFFF" stroke-width="4" stroke-linejoin="round"></line>
                            <line x1="70.48" y1="51.52" x2="53.52" y2="68.48" id="Path" stroke="#FFFFFF" stroke-width="4" stroke-linejoin="round"></line>
                        </g>
                    </g>
                </g>
            </g>
        </g>
    </g>
</svg>