<?xml version="1.0" encoding="UTF-8"?>
<svg width="32px" height="64px" viewBox="0 0 32 64" version="1.1" xmlns="http://www.w3.org/2000/svg" xmlns:xlink="http://www.w3.org/1999/xlink">
    <title>Artboard</title>
    <g id="Artboard" stroke="none" stroke-width="1" fill="none" fill-rule="evenodd">
        <g id="Group" transform="translate(0.000000, 32.000000)">
            <rect id="ViewBox" fill="#FFFFFF" opacity="0.165411086" x="0" y="0" width="32" height="32" rx="4"></rect>
            <g id="chart(24x24)@1x" transform="translate(7.000000, 7.000000)" stroke="#FFFFFF" stroke-linecap="round" stroke-linejoin="round" stroke-width="0.9">
                <polyline id="Path" points="0 0 0 18 18 18"></polyline>
                <polygon id="Path" points="5.4 5.4 3.6 5.4 3.6 14.4 5.4 14.4"></polygon>
                <polygon id="Path" points="10.8 0 9 0 9 14.4 10.8 14.4"></polygon>
                <polygon id="Path" points="16.2 9 14.4 9 14.4 14.4 16.2 14.4"></polygon>
            </g>
        </g>
        <g id="Group-Copy">
            <rect id="ViewBox" opacity="0.165411086" x="0" y="0" width="32" height="32" rx="4"></rect>
            <g id="chart(24x24)@1x" transform="translate(7.000000, 7.000000)" stroke="#454546" stroke-linecap="round" stroke-linejoin="round" stroke-width="0.9">
                <polyline id="Path" points="0 0 0 18 18 18"></polyline>
                <polygon id="Path" points="5.4 5.4 3.6 5.4 3.6 14.4 5.4 14.4"></polygon>
                <polygon id="Path" points="10.8 0 9 0 9 14.4 10.8 14.4"></polygon>
                <polygon id="Path" points="16.2 9 14.4 9 14.4 14.4 16.2 14.4"></polygon>
            </g>
        </g>
    </g>
</svg>