<?xml version="1.0" encoding="UTF-8"?>
<svg width="32px" height="32px" viewBox="0 0 32 32" version="1.1" xmlns="http://www.w3.org/2000/svg" xmlns:xlink="http://www.w3.org/1999/xlink">
    <title>twitter</title>
    <g id="Home-Page" stroke="none" stroke-width="1" fill="none" fill-rule="evenodd">
        <g id="Profile-Set-Up-1" transform="translate(-854.000000, -879.000000)">
            <g id="Group-8" transform="translate(846.000000, 257.000000)">
                <g id="Group-8-Copy-4" transform="translate(0.000000, 588.000000)">
                    <g id="twitter" transform="translate(8.000000, 34.000000)">
                        <circle id="Oval" fill="#1DA1F2" cx="16" cy="16" r="16"></circle>
                        <path d="M24.9655,10.92675 C24.30175,11.2185 23.593,11.41725 22.84675,11.508 C23.60725,11.04975 24.19225,10.3275 24.469,9.46575 C23.75575,9.882 22.96525,10.185 22.12375,10.35375 C21.45175,9.6345 20.494,9.1845 19.4305,9.1845 C17.39275,9.1845 15.7405,10.83675 15.7405,12.87225 C15.7405,13.16475 15.77425,13.446 15.83575,13.71525 C12.76825,13.5705 10.0495,12.0975 8.23,9.87075 C7.90975,10.41225 7.7305,11.0415 7.7305,11.727 C7.7305,13.0095 8.383,14.13675 9.3715,14.799 C8.76625,14.7795 8.197,14.613 7.7005,14.337 L7.7005,14.38275 C7.7005,16.1715 8.97025,17.66325 10.66,18.003 C10.35025,18.08625 10.02325,18.13125 9.688,18.13125 C9.4525,18.13125 9.22675,18.10875 9.001,18.06675 C9.47425,19.5315 10.83475,20.5995 12.454,20.6295 C11.194,21.61875 9.59725,22.20825 7.8775,22.20825 C7.585,22.20825 7.29325,22.191 7,22.158 C8.64175,23.2035 10.576,23.81475 12.66775,23.81475 C19.45825,23.81475 23.167,18.19275 23.167,13.32525 C23.167,13.1685 23.167,13.01025 23.15575,12.85275 C23.8765,12.336 24.50575,11.68275 25.00075,10.94175 L24.9655,10.92675 Z" id="Path" fill="#FFFFFF" fill-rule="nonzero"></path>
                    </g>
                </g>
            </g>
        </g>
    </g>
</svg>