<svg width="100" height="100" viewBox="0 0 100 100" fill="none" xmlns="http://www.w3.org/2000/svg">
<g clip-path="url(#clip0)">
<rect width="100" height="100" rx="14.2857" fill="#F2F6FE"/>
<path d="M60 68V64C60 61.8783 59.1571 59.8434 57.6569 58.3431C56.1566 56.8429 54.1217 56 52 56H36C33.8783 56 31.8434 56.8429 30.3431 58.3431C28.8429 59.8434 28 61.8783 28 64V68" stroke="#3246D3" stroke-width="4" stroke-linecap="round" stroke-linejoin="round"/>
<path d="M44 48C48.4183 48 52 44.4183 52 40C52 35.5817 48.4183 32 44 32C39.5817 32 36 35.5817 36 40C36 44.4183 39.5817 48 44 48Z" stroke="#3246D3" stroke-width="4" stroke-linecap="round" stroke-linejoin="round"/>
<path d="M72 67.9998V63.9998C71.9987 62.2272 71.4087 60.5053 70.3227 59.1044C69.2368 57.7035 67.7163 56.7029 66 56.2598" stroke="#3246D3" stroke-width="4" stroke-linecap="round" stroke-linejoin="round"/>
<path d="M58 32.2598C59.7208 32.7004 61.2461 33.7012 62.3353 35.1044C63.4245 36.5076 64.0157 38.2334 64.0157 40.0098C64.0157 41.7861 63.4245 43.5119 62.3353 44.9151C61.2461 46.3184 59.7208 47.3192 58 47.7598" stroke="#3246D3" stroke-width="4" stroke-linecap="round" stroke-linejoin="round"/>
</g>
<defs>
<clipPath id="clip0">
<rect width="100" height="100" rx="14.2857" fill="white"/>
</clipPath>
</defs>
</svg>
