<svg width="24" height="24" viewBox="0 0 24 24" fill="none" xmlns="http://www.w3.org/2000/svg">
<path d="M13.23 19.6289C12.2733 19.6289 11.3478 19.4733 10.4844 19.1933C10.2122 19.1 9.90889 19.17 9.69889 19.38L8.47778 20.9122C6.27667 19.8622 4.21556 17.8789 3.11889 15.6L4.63556 14.3089C4.84556 14.0911 4.90778 13.7878 4.82222 13.5156C4.53444 12.6522 4.38667 11.7267 4.38667 10.77C4.38667 10.35 4.03667 10 3.61667 10H0.925556C0.505556 10 0 10.1867 0 10.77C0 17.9956 6.01222 24 13.23 24C13.7822 24 14 23.51 14 23.0822V20.3989C14 19.9789 13.65 19.6289 13.23 19.6289Z" fill="#9FA3C0"/>
<path fill-rule="evenodd" clip-rule="evenodd" d="M9.5 1H21.5C22.325 1 23 1.675 23 2.5V11.5C23 12.325 22.325 13 21.5 13H11L8 16L8.0075 2.5C8.0075 1.675 8.675 1 9.5 1ZM10.9998 6.00003H16.5098V3.00003L20.4998 7.00003L16.5098 11V8.00003H10.9998V6.00003Z" fill="#9FA3C0"/>
</svg>
