<svg width="24" height="24" viewBox="0 0 24 24" fill="none" xmlns="http://www.w3.org/2000/svg">
<path d="M7.49986 18.7884C6.76679 18.0553 6.17675 17.2269 5.72975 16.3508C5.59267 16.0706 5.3066 15.8918 4.98476 15.8918L2.87493 16.1302C1.99286 13.639 1.93326 10.5398 2.83917 7.95318L4.99072 8.12602C5.31852 8.12006 5.59863 7.9353 5.74167 7.66114C6.18271 6.77907 6.77871 5.95659 7.51178 5.22352C7.83362 4.90168 7.83362 4.36528 7.51178 4.04345L5.44964 1.9813C5.1278 1.65946 4.59736 1.4151 4.15036 1.8621C-1.38644 7.3989 -1.38047 16.607 4.15037 22.1379C4.57352 22.561 5.11588 22.3524 5.44368 22.0246L7.49986 19.9685C7.8217 19.6466 7.8217 19.1102 7.49986 18.7884Z" fill="#9FA3C0"/>
<path d="M13.01 11H7V13H13.01V16L17 12L13.01 8V11Z" fill="#9FA3C0"/>
<path d="M16.2533 18.7884C16.9864 18.0553 17.5764 17.2269 18.0234 16.3508C18.1605 16.0706 18.4466 15.8918 18.7684 15.8918L20.8782 16.1302C21.7603 13.639 21.8199 10.5398 20.914 7.95318L18.7625 8.12602C18.4347 8.12006 18.1545 7.9353 18.0115 7.66114C17.5705 6.77907 16.9745 5.95659 16.2414 5.22352C15.9196 4.90168 15.9196 4.36528 16.2414 4.04345L18.3035 1.9813C18.6254 1.65946 19.1558 1.4151 19.6028 1.8621C25.1396 7.3989 25.1336 16.607 19.6028 22.1379C19.1797 22.561 18.6373 22.3524 18.3095 22.0246L16.2533 19.9685C15.9315 19.6466 15.9315 19.1102 16.2533 18.7884Z" fill="#9FA3C0"/>
</svg>
