<svg width="24" height="24" viewBox="0 0 24 24" fill="none" xmlns="http://www.w3.org/2000/svg">
<path fill-rule="evenodd" clip-rule="evenodd" d="M0.205946 5.05509C0.0414327 4.89062 -0.0310285 4.65543 0.012373 4.42689C0.0557276 4.19835 0.209367 4.00604 0.422672 3.91329L2.7927 2.88248L3.6244 0.480773C3.70366 0.251908 3.89517 0.0799421 4.1312 0.0256668C4.36719 -0.0285148 4.61457 0.0424462 4.78588 0.213709L6.12655 1.55437L7.1665 2.59428L9.08601 4.51378L9.07846 6.06888L8.71592 7.73764L9.60743 8.62329L10.6275 9.63661L12.5282 11.5249C12.8037 11.7985 12.8051 12.2437 12.5315 12.5191C12.3941 12.6574 12.2134 12.7267 12.0327 12.7267C11.8536 12.7267 11.6743 12.6586 11.5373 12.5224L9.6356 10.6333L8.60455 9.63661L8.61595 9.62035L7.73714 8.74731L6.00806 9.21132L4.44547 9.29245L4.43715 9.28506C4.43244 9.28094 4.42772 9.27682 4.42325 9.27234L2.49934 7.34843L1.45568 6.30492L0.205946 5.05509ZM8.03491 2.20146C9.30888 1.69017 10.6735 1.41709 12.0082 1.41709C14.8357 1.41709 17.494 2.51821 19.4934 4.51758C21.4928 6.51691 22.5939 9.17518 22.5939 12.0027C22.5939 14.8303 21.4928 17.4886 19.4934 19.488C17.494 21.4873 14.8357 22.5884 12.0082 22.5884C9.18068 22.5884 6.52236 21.4873 4.52299 19.488C2.52361 17.4886 1.4225 14.8303 1.4225 12.0027C1.4225 10.7275 1.65197 9.4695 2.0944 8.2881L0.955336 7.34843C0.337958 8.81432 0.0163097 10.3965 0.0163097 12.0027C0.0163097 15.2059 1.26371 18.2173 3.52865 20.4822C5.79363 22.7472 8.80502 23.9945 12.0082 23.9945C15.2113 23.9945 18.2227 22.7471 20.4877 20.4822C22.7527 18.2173 24 15.2058 24 12.0027C24 8.79966 22.7527 5.78832 20.4877 3.52333C18.2227 1.25834 15.2113 0.0109965 12.0082 0.0109965C10.3155 0.0109965 8.58228 0.39766 7 1.11562L8.03491 2.20146ZM5.13033 7.99101L6.5833 7.6011L3.19901 4.23908L1.93024 4.79093L5.13033 7.99101ZM5.3951 12.0027C5.3951 15.6492 8.36173 18.6159 12.0082 18.6159C15.6547 18.6159 18.6213 15.6492 18.6213 12.0027C18.6213 8.35627 15.6547 5.38964 12.0082 5.38964C11.2792 5.38964 10.6218 5.48512 10 5.68467V4.22443C10.6346 4.06316 11.3009 3.98355 12.0082 3.98355C16.43 3.98355 20.0274 7.58095 20.0274 12.0027C20.0274 16.4245 16.43 20.0219 12.0082 20.0219C7.58645 20.0219 3.98905 16.4245 3.98905 12.0027C3.98905 11.407 4.0423 10.8508 4.15212 10.3194H5.5968C5.46063 10.8442 5.3951 11.3977 5.3951 12.0027ZM11.7688 9.27234L10.6275 8.09221C11.0596 7.93919 11.5244 7.85589 12.0082 7.85589C14.2949 7.85589 16.1552 9.71615 16.1552 12.0028C16.1552 14.2894 14.2949 16.1497 12.0082 16.1497C9.72161 16.1497 7.86134 14.2894 7.86134 12.0028C7.86134 11.5899 7.92202 11.191 8.03491 10.8144L9.28043 11.735C9.27181 11.8231 9.26739 11.9124 9.26739 12.0027C9.26739 13.514 10.4969 14.7436 12.0082 14.7436C13.5195 14.7436 14.749 13.514 14.749 12.0027C14.749 10.4915 13.5195 9.26194 12.0082 9.26194C11.9275 9.26194 11.8477 9.26546 11.7688 9.27234ZM4.58566 2.00193L4.165 3.21661L7.53241 6.5619L7.82033 5.23666L4.58566 2.00193Z" fill="#3246D3"/>
</svg>
