<svg width="391" height="462" viewBox="0 0 391 462" fill="none" xmlns="http://www.w3.org/2000/svg">
<path d="M272.454 87.5723C360.307 87.5157 417.411 180.048 377.969 258.55L308.675 396.463C267.215 478.98 151.316 484.043 102.818 405.457L17.7689 267.642C-30.7291 189.056 25.7637 87.7313 118.11 87.6718L272.454 87.5723Z" fill="url(#paint0_linear)"/>
<mask id="mask0" mask-type="alpha" maskUnits="userSpaceOnUse" x="0" y="87" width="391" height="375">
<path d="M272.454 87.5723C360.307 87.5157 417.411 180.048 377.969 258.55L308.675 396.463C267.215 478.98 151.316 484.043 102.818 405.457L17.7689 267.642C-30.7291 189.056 25.7637 87.7313 118.11 87.6718L272.454 87.5723Z" fill="url(#paint1_linear)"/>
</mask>
<g mask="url(#mask0)">
<path d="M162.317 336.289C167.856 332.953 175.063 334.728 178.399 340.288C181.735 345.827 179.96 353.034 174.4 356.37C168.861 359.706 161.654 357.931 158.318 352.371C154.982 346.853 156.778 339.646 162.317 336.289Z" fill="#FCC9A7"/>
<path d="M175.597 337.122C175.212 336.823 154.639 312.657 154.639 312.657L146.234 322.837L164.797 346.339L175.597 337.122Z" fill="#FCC9A7"/>
<path d="M214.09 216.143L199.27 217.426L175.703 230.706V325.145H238.598V230.706L214.09 216.143Z" fill="#F2F6FE"/>
<path d="M210.029 225.66H205.774C201.368 225.66 197.797 222.088 197.797 217.683V201.687H217.985V217.683C218.006 222.088 214.435 225.66 210.029 225.66Z" fill="#FCC9A7"/>
<path d="M197.797 209.834C197.797 209.834 200.941 216.143 208.083 216.143C215.226 216.143 217.985 209.706 217.985 209.706L197.797 209.834Z" fill="#F4BE9A"/>
<path d="M208.125 212.444H207.462C197.176 212.444 188.707 204.318 188.301 194.031L187.937 183.788C187.509 172.903 196.213 163.856 207.098 163.856H208.488C216.722 163.856 228.077 172.903 227.65 183.788L227.286 194.031C226.88 204.318 218.411 212.444 208.125 212.444Z" fill="#FCC9A7"/>
<path d="M194.179 191.548C194.415 195.012 191.806 198.006 188.341 198.241C184.877 198.477 181.883 195.868 181.648 192.403C181.412 188.939 184.021 185.945 187.486 185.71C190.95 185.496 193.944 188.105 194.179 191.548Z" fill="#FCC9A7"/>
<path d="M233.914 191.548C234.149 195.012 231.54 198.006 228.076 198.241C224.611 198.477 221.617 195.868 221.382 192.403C221.147 188.939 223.756 185.945 227.22 185.71C230.685 185.496 233.679 188.105 233.914 191.548Z" fill="#FCC9A7"/>
<path d="M175.704 324.695L136.59 532.627L159.066 532.413L216.251 325.102L175.704 324.695Z" fill="#151F64"/>
<path d="M238.599 325.146L236.139 532.842H212.38L202.906 326.45L238.599 325.146Z" fill="#151F64"/>
<path d="M175.704 230.707C175.704 230.707 123.181 262.4 110.414 284.385C107.912 288.683 111.162 294.243 115.568 296.532C120.444 299.076 126.453 297.344 129.255 292.618L177.842 264.432C177.864 264.432 175.704 240.224 175.704 230.707Z" fill="#F2F6FE"/>
<path d="M186.846 172.153L188.321 187.893H190.695L190.995 179.638C190.995 179.638 192.235 176.473 197.774 169.672C197.774 169.672 201.388 178.911 223.779 177.114L225.083 187.551L227.393 187.294L228.612 176.088C229.424 172.303 229.702 168.774 229.018 164.967C227.628 157.269 221.362 153.013 203.27 158.445C201.773 158.894 204.831 158.595 203.27 158.445C198.095 157.867 184.451 157.803 186.846 172.153Z" fill="#0C1347"/>
<path d="M213.49 323.649L208.401 378.096C208.208 380.149 209.598 382.01 211.63 382.395L274.076 394.328C276.364 394.777 278.545 393.152 278.802 390.842L284.512 339.089C284.726 337.079 283.421 335.218 281.432 334.748L218.366 320.12C216.014 319.564 213.726 321.232 213.49 323.649Z" fill="#AFAFAF"/>
<path d="M216.951 324.609L211.862 379.056C211.669 381.109 213.059 382.97 215.091 383.355L277.536 395.288C279.825 395.715 282.006 394.111 282.263 391.802L287.972 340.049C288.186 338.039 286.882 336.178 284.893 335.708L221.827 321.08C219.496 320.524 217.186 322.192 216.951 324.609Z" fill="#D1D1D1"/>
<path d="M249.463 380.193C255.665 382.032 259.215 388.555 257.376 394.757C255.537 400.959 249.014 404.509 242.812 402.691C236.61 400.852 233.06 394.329 234.878 388.127C236.739 381.904 243.24 378.354 249.463 380.193Z" fill="#FCC9A7"/>
<path d="M257.824 390.542C257.781 390.05 255.771 357.416 255.771 357.416L244.672 359.426L246.147 387.249L257.824 390.542Z" fill="#FCC9A7"/>
<path d="M238.596 230.707C238.596 230.707 255.405 242.747 256.474 259.898L261.735 299.996C262.034 302.349 262.163 304.701 262.077 307.075L260.046 368.066H236.971L236.543 302.049L238.596 230.707Z" fill="#F2F6FE"/>
<path d="M201.043 216.143C199.247 217.447 190.586 222.323 190.586 222.323C190.586 222.323 190.821 234.513 209.17 233.529C225.316 232.674 225.209 222.772 225.209 222.772L214.067 216.143H201.043Z" fill="#FCC9A7"/>
<path d="M136.291 276.473L167.685 326.643L152.8 340.736L110.5 291.357L136.291 276.473Z" fill="#F2F6FE"/>
<path d="M236.527 324.481V302.026L231.309 261.073" stroke="#E0E6F3" stroke-width="1.64519" stroke-miterlimit="10" stroke-linecap="round" stroke-linejoin="round"/>
</g>
<circle cx="91.5" cy="79.5" r="79.5" fill="#F2F6FE"/>
<circle cx="138" cy="149" r="19" fill="#F2F6FE"/>
<circle cx="167" cy="165" r="8" fill="#F2F6FE"/>
<g clip-path="url(#clip0)">
<path d="M123.691 82.6522L121.151 62.0169L116.391 62.6029L116.393 62.5995L107.164 57.406C106.18 56.8521 105.05 56.6111 103.925 56.715L89.3541 58.0626C87.5629 58.2283 85.9623 59.2503 85.0586 60.8058L74.7883 78.4831C74.0299 79.7883 74.6252 81.4624 76.0375 81.9958L76.4576 82.1543C77.2658 82.4596 78.0965 82.6364 78.9268 82.7055L77.6254 83.8389L75.0219 86.1073L67.617 92.4236C66.2989 93.5719 66.162 95.5699 67.3102 96.8881L68.0614 97.7484C69.536 99.4394 72.1026 99.615 73.7967 98.14L76.6268 101.386C77.5469 102.443 78.8949 102.91 80.19 102.751C80.9684 102.655 81.7277 102.332 82.3619 101.778L85.1888 105.024C86.1123 106.083 87.4601 106.548 88.7552 106.388C89.5336 106.292 90.2931 105.973 90.9275 105.418L92.4638 106.746C93.9388 108.44 96.5083 108.615 98.2025 107.14L100.291 105.318L117.849 91.644L117.868 91.6266L124.795 91.6197L123.691 82.6522Z" fill="#F4B991"/>
<path d="M116.164 86.3107L116.145 86.3281L98.5875 100.002L96.499 101.824C94.8051 103.299 92.2353 103.124 90.7603 101.43L89.224 100.102C88.5897 100.657 87.8299 100.977 87.0518 101.072C85.7567 101.232 84.409 100.768 83.4854 99.7081L80.6584 96.4619C80.0241 97.0164 79.2647 97.339 78.4866 97.4349C77.1915 97.5943 75.8434 97.1271 74.9233 96.0703L72.0932 92.8242C70.6429 94.0871 68.5546 94.1363 67.0579 93.0638C66.2903 94.2212 66.3517 95.79 67.3085 96.8884L68.0597 97.7488C69.5343 99.4398 72.1009 99.6154 73.795 98.1404L76.6251 101.386C77.5452 102.443 78.8932 102.91 80.1883 102.751C80.9666 102.655 81.7258 102.333 82.3602 101.778L85.1871 105.025C86.1106 106.084 87.4584 106.548 88.7535 106.389C89.5318 106.293 90.2914 105.973 90.9258 105.419L92.4621 106.747C93.9371 108.441 96.5066 108.616 98.2008 107.141L100.289 105.319L117.847 91.6445L117.866 91.6271L124.793 91.6203L124.027 85.3945L116.164 86.3107Z" fill="#E4AA83"/>
<path d="M119.362 95.2374L109.955 87.1261L107.339 84.8723L105.467 83.2602L97.4186 76.3227L98.3481 68.4106C98.6625 65.7346 96.978 63.2294 94.3811 62.5108L80.1943 60.4489C77.4801 59.6979 72.8702 63.226 69.9347 64.0249L60.4644 63.3821L58.0387 84.0312L56.9844 93.0048L66.2027 93.6179L66.2218 93.6353L85.48 110.235L87.5786 112.046C89.2807 113.512 91.8493 113.322 93.3149 111.62L96.1235 108.361C96.7608 108.912 97.5223 109.227 98.3012 109.319C99.5971 109.471 100.942 109 101.86 107.935L104.669 104.673C105.306 105.224 106.067 105.543 106.846 105.634C108.142 105.786 109.488 105.312 110.402 104.25L113.214 100.988C114.916 102.454 117.482 102.264 118.947 100.565L119.693 99.6999C120.834 98.3757 120.686 96.3785 119.362 95.2374Z" fill="#FCC9A7"/>
<path d="M119.365 95.2363L116.499 92.7656C117.431 94.0006 117.412 95.7574 116.361 96.9773L115.568 97.8951C114.013 99.6988 111.289 99.9004 109.482 98.3445L106.497 101.807C105.527 102.934 104.098 103.438 102.723 103.277C101.896 103.179 101.088 102.841 100.411 102.256L97.4293 105.719C96.4552 106.849 95.0273 107.35 93.6515 107.188C92.8248 107.091 92.0164 106.756 91.3398 106.171L88.3582 109.631C87.7965 110.284 87.0811 110.723 86.3125 110.95L87.5818 112.045C89.284 113.511 91.8525 113.321 93.3181 111.619L96.1267 108.36C96.764 108.911 97.5255 109.227 98.3044 109.318C99.6003 109.47 100.946 108.999 101.863 107.934L104.672 104.672C105.309 105.223 106.071 105.542 106.85 105.633C108.145 105.786 109.491 105.311 110.405 104.249L113.217 100.987C114.919 102.453 117.485 102.263 118.95 100.564L119.697 99.699C120.837 98.3746 120.689 96.3773 119.365 95.2363Z" fill="#F4BE9A"/>
<path d="M114.17 99.9014L109.015 95.4569C108.403 94.9288 107.478 94.9972 106.949 95.6098C106.421 96.2225 106.489 97.1475 107.102 97.6759L112.248 102.113L113.218 100.988C113.605 101.321 114.038 101.564 114.491 101.728C114.826 101.132 114.707 100.365 114.17 99.9014Z" fill="#F4BE9A"/>
<path d="M105.927 105.41C106.28 104.812 106.167 104.029 105.622 103.559L100.992 99.5663C100.379 99.0382 99.4543 99.1065 98.9258 99.7192C98.3974 100.332 98.466 101.257 99.0787 101.785L103.709 105.778C103.711 105.779 103.713 105.781 103.715 105.782L104.672 104.671C105.053 105.001 105.48 105.246 105.927 105.41Z" fill="#F4BE9A"/>
<path d="M66.6832 93.5957L65.5674 95.0691C64.3523 96.6736 64.668 98.9593 66.2724 100.175C67.8769 101.39 70.1627 101.074 71.3779 99.4695L72.4937 97.9961C73.7087 96.3916 73.3931 94.1058 71.7886 92.8906C70.1841 91.6756 67.8982 91.9912 66.6832 93.5957Z" fill="#F4B991"/>
<path d="M73.4812 96.6953L71.3799 99.4701C70.1648 101.075 70.4805 103.36 72.0849 104.576C73.6894 105.791 75.9752 105.475 77.1904 103.87L79.2918 101.096C80.5068 99.4912 80.1912 97.2055 78.5867 95.9902C76.982 94.7752 74.6963 95.0908 73.4812 96.6953Z" fill="#F4B991"/>
<path d="M80.0523 100.088L77.1885 103.87C75.9734 105.474 76.2891 107.76 77.8935 108.975C79.498 110.19 81.7838 109.874 82.999 108.27L85.8628 104.488C87.0779 102.884 86.7622 100.598 85.1578 99.3829C83.5533 98.1677 81.2675 98.4835 80.0523 100.088Z" fill="#F4B991"/>
<path d="M86.031 104.27L83.001 108.27C81.7859 109.875 82.1016 112.161 83.706 113.376C85.3105 114.591 87.5963 114.275 88.8115 112.671L91.8416 108.67C93.0566 107.065 92.741 104.78 91.1365 103.564C89.5318 102.349 87.2461 102.665 86.031 104.27Z" fill="#F4B991"/>
<path d="M116.393 62.5995L107.165 57.406C106.18 56.8521 105.051 56.6111 103.926 56.715L89.3544 58.0626C87.5632 58.2283 85.9626 59.2503 85.0589 60.8058L74.7886 78.4831C74.0302 79.7885 74.6255 81.4624 76.0378 81.9958L76.4579 82.1543C80.2226 83.5762 84.4741 82.3663 86.9259 79.1755L90.8608 74.0544C90.8608 74.0544 100.32 85.0061 110.734 72.2165" fill="#F4B991"/>
<path d="M141.988 94.3805L137.161 55.1715C137.113 54.7859 136.915 54.4349 136.608 54.1959C136.302 53.9568 135.914 53.8494 135.528 53.8967L124.241 55.2861C121.31 55.647 119.219 58.3255 119.58 61.2568L123.455 92.741C123.789 95.4514 126.104 97.4434 128.768 97.4434C128.985 97.4434 129.205 97.4301 129.426 97.4029L140.713 96.0135C141.515 95.9145 142.086 95.1834 141.988 94.3805Z" fill="#4A5CD8"/>
<path d="M141.99 94.3797L141.46 90.0758C141.22 90.4283 140.836 90.6803 140.379 90.7365L128.548 92.193C128.316 92.2215 128.086 92.2353 127.858 92.2353C125.866 92.2353 124.061 91.1725 123.062 89.5322L123.457 92.74C123.791 95.4504 126.106 97.4424 128.77 97.4424C128.987 97.4424 129.207 97.4291 129.428 97.4019L140.715 96.0125C141.518 95.9137 142.089 95.1826 141.99 94.3797Z" fill="#3D4FCD"/>
<path d="M59.7573 55.2842L48.4707 53.8948C48.0845 53.8473 47.6964 53.9549 47.3902 54.194C47.084 54.433 46.8853 54.784 46.8379 55.1696L42.0111 94.3788C41.9123 95.1817 42.4832 95.9128 43.2859 96.0116L54.5726 97.401C54.7937 97.4282 55.0134 97.4415 55.2308 97.4415C57.8948 97.4415 60.2097 95.4493 60.5433 92.7391L64.419 61.2549C64.78 58.3237 62.6888 55.6452 59.7573 55.2842Z" fill="#F0BEEE"/>
<path d="M42.0111 94.3797L42.541 90.0758C42.7812 90.4283 43.1648 90.6803 43.6215 90.7365L55.4529 92.193C55.6845 92.2215 55.9152 92.2353 56.1429 92.2353C58.1351 92.2353 59.94 91.1725 60.9384 89.5322L60.5435 92.74C60.2099 95.4504 57.8952 97.4424 55.231 97.4424C55.0138 97.4424 54.7937 97.4291 54.5728 97.4019L43.2861 96.0125C42.483 95.9137 41.9123 95.1826 42.0111 94.3797Z" fill="#E1A7DF"/>
</g>
<defs>
<linearGradient id="paint0_linear" x1="12.0528" y1="142.461" x2="384.856" y2="462.169" gradientUnits="userSpaceOnUse">
<stop stop-color="#2F80ED"/>
<stop offset="1" stop-color="#369FFF"/>
</linearGradient>
<linearGradient id="paint1_linear" x1="12.0528" y1="142.461" x2="384.856" y2="462.169" gradientUnits="userSpaceOnUse">
<stop stop-color="#2F80ED"/>
<stop offset="1" stop-color="#369FFF"/>
</linearGradient>
<clipPath id="clip0">
<rect width="100" height="100" fill="white" transform="translate(42 34)"/>
</clipPath>
</defs>
</svg>
