<?xml version="1.0" encoding="UTF-8"?>
<svg width="20px" height="24px" viewBox="0 0 20 24" version="1.1" xmlns="http://www.w3.org/2000/svg" xmlns:xlink="http://www.w3.org/1999/xlink">
    <title>Artboard</title>
    <g id="Artboard" stroke="none" stroke-width="1" fill="none" fill-rule="evenodd">
        <g id="credit-card-ic-blue" transform="translate(0.000000, 4.000000)" fill="#3246D3" fill-rule="nonzero" stroke="#3246D3" stroke-width="0.3">
            <path d="M17.9144167,1.1927 L17.904,1.31726667 L17.9143333,1.1927 L5.00395833,0.114691667 C4.604325,0.081325 4.215125,0.205775 3.90899167,0.464683333 L3.90898333,0.464691667 C3.60441667,0.722316667 3.41746667,1.08321667 3.38275,1.48039167 L3.13505,3.8043 L2.21028333,3.8043 C1.382,3.8043 0.708333333,4.477975 0.708333333,5.30625833 L0.708333333,13.3879167 C0.708333333,14.21625 1.382,14.8899167 2.21028333,14.8899167 L15.1656667,14.8899167 C15.994,14.8899167 16.6676667,14.21625 16.6676667,13.3879167 L16.6676667,12.2128333 L16.992,12.2399167 L16.992,12.2399167 C17.0341667,12.2434167 17.07625,12.2451667 17.118,12.2451667 C17.89025,12.2451667 18.5483333,11.6513333 18.61375,10.8680833 L19.28625,2.814475 L19.1616667,2.804075 L19.28625,2.81446667 C19.3195833,2.414875 19.1950833,2.02560833 18.9361667,1.71946667 L18.84075,1.80019167 L18.9361667,1.71945833 C18.6771667,1.41335833 18.314,1.226075 17.9144167,1.1927 Z M17.0724167,11.2770833 L17.0724167,11.2770833 L16.6676667,11.2433333 L16.6676667,5.30625833 C16.6676667,4.47796667 15.994,3.8043 15.1656667,3.8043 L4.10668333,3.8043 L4.34399167,1.57786667 L4.34400833,1.57770833 L4.34500833,1.56685833 L4.34501667,1.56685833 C4.3696,1.27249167 4.629175,1.052825 4.92353333,1.07749167 L4.923575,1.07749167 L17.834,2.1555 L17.8444167,2.03093333 L17.834,2.1555 C17.9769167,2.167425 18.106,2.23396667 18.1985,2.343425 C18.2910833,2.45290833 18.3353333,2.59119167 18.3234167,2.73405 L17.6509167,10.7876667 C17.6263333,11.0820833 17.3665833,11.30175 17.0724167,11.2770833 Z M2.21028333,4.77044167 L15.1656667,4.77044167 C15.461,4.77044167 15.7015,5.01093333 15.7015,5.30625833 L15.7015,5.91766667 L1.67446667,5.91766667 L1.67446667,5.30625833 C1.67446667,5.010925 1.91495,4.77044167 2.21028333,4.77044167 Z M1.67446667,6.88383333 L15.7015,6.88383333 L15.7015,8.11941667 L1.67446667,8.11941667 L1.67446667,6.88383333 Z M15.1656667,13.92375 L2.21028333,13.92375 C1.91495,13.92375 1.67446667,13.68325 1.67446667,13.3879167 L1.67446667,9.0855 L15.7015,9.0855 L15.7015,13.3879167 C15.7015,13.68325 15.461,13.92375 15.1656667,13.92375 Z" id="Shape"></path>
        </g>
    </g>
</svg>