<svg width="48" height="48" viewBox="0 0 48 48" fill="none" xmlns="http://www.w3.org/2000/svg">
<path d="M24 3C12.4206 3 3 12.4206 3 24C3 35.5794 12.4206 45 24 45C35.5794 45 45 35.5794 45 24C45 12.4206 35.5794 3 24 3ZM24 41.7692C14.202 41.7692 6.23077 33.798 6.23077 24C6.23077 14.202 14.202 6.23077 24 6.23077C33.798 6.23077 41.7692 14.202 41.7692 24C41.7692 33.798 33.798 41.7692 24 41.7692Z" fill="#60698B"/>
<path d="M28.8469 19.1377C28.8469 20.0299 29.5702 20.7531 30.4623 20.7531C31.3544 20.7531 32.0777 20.0299 32.0777 19.1377C32.0777 17.3487 31.1524 15.6287 29.5389 14.4187C28.4369 13.5921 27.081 13.04 25.6161 12.8051V11.0607C25.6161 10.1686 24.8929 9.44531 24.0008 9.44531C23.1086 9.44531 22.3854 10.1686 22.3854 11.0607V12.8051C20.9204 13.04 19.5645 13.5921 18.4626 14.4187C16.8491 15.6287 15.9238 17.3487 15.9238 19.1377C15.9238 20.9267 16.8491 22.6467 18.4626 23.8568C19.5646 24.6833 20.9205 25.2355 22.3854 25.4704V31.8683C20.5244 31.4135 19.1546 30.2058 19.1546 28.83C19.1546 27.9379 18.4313 27.2147 17.5392 27.2147C16.6471 27.2147 15.9238 27.9379 15.9238 28.83C15.9238 30.619 16.8491 32.339 18.4626 33.5491C19.5646 34.3757 20.9205 34.9278 22.3854 35.1627V36.9233C22.3854 37.8155 23.1086 38.5387 24.0008 38.5387C24.8929 38.5387 25.6161 37.8155 25.6161 36.9233V35.1627C27.0811 34.9278 28.437 34.3757 29.5389 33.5491C31.1524 32.3391 32.0777 30.619 32.0777 28.83C32.0777 27.041 31.1524 25.321 29.5389 24.111C28.4369 23.2844 27.081 22.7323 25.6161 22.4974V16.0995C27.4771 16.5544 28.8469 17.762 28.8469 19.1377ZM19.1546 19.1377C19.1546 17.762 20.5244 16.5543 22.3854 16.0995V22.1758C20.5244 21.7212 19.1546 20.5135 19.1546 19.1377ZM28.8469 28.83C28.8469 30.2058 27.4771 31.4135 25.6161 31.8683V25.7919C27.4771 26.2467 28.8469 27.4543 28.8469 28.83Z" fill="#60698B"/>
</svg>
