<svg width="48" height="48" viewBox="0 0 48 48" fill="none" xmlns="http://www.w3.org/2000/svg">
<path d="M24.736 45.446C27.4928 46.7844 30.3494 47.8132 33.4558 47.983C35.5933 48.1029 37.4511 47.5635 38.9394 45.8955C39.609 45.1471 40.3347 44.4418 41.0598 43.7372C41.4379 43.3697 41.8159 43.0024 42.1856 42.6293M24.736 45.446L25.3918 44.097M24.736 45.446L25.3911 44.0966C25.3913 44.0967 25.3916 44.0969 25.3918 44.097M24.736 45.446C18.6131 42.4695 13.3792 38.3443 8.99433 33.1304C5.74812 29.2749 3.07124 25.0698 1.31329 20.3353L1.53032 13.3293M25.3918 44.097C28.0619 45.3933 30.7128 46.3309 33.5377 46.4853L33.5398 46.4854C35.3365 46.5861 36.7054 46.1462 37.8201 44.8969L37.8215 44.8953C38.5238 44.1104 39.3207 43.3354 40.0695 42.6073C40.4369 42.25 40.7927 41.904 41.1201 41.5735M25.3918 44.097C19.4631 41.2148 14.3955 37.2222 10.1423 32.1649L10.1418 32.1643C6.97972 28.4087 4.40433 24.3508 2.71949 19.8132L2.7195 19.8132L2.71754 19.808C1.89085 17.6067 1.36507 15.4993 1.53032 13.3293M41.1201 41.5735C41.1195 41.5741 41.1189 41.5747 41.1184 41.5752L42.1856 42.6293M41.1201 41.5735L42.1856 42.6293M41.1201 41.5735C41.7057 40.9799 41.8887 40.4451 41.8905 40.0285C41.8922 39.6145 41.716 39.0906 41.1416 38.5127M42.1856 42.6293C43.7837 41.0112 43.7937 39.0535 42.2056 37.4553M42.2056 37.4553L41.1421 38.5132C41.142 38.513 41.1418 38.5128 41.1416 38.5127M42.2056 37.4553C40.3078 35.5476 38.4 33.6498 36.4923 31.752M42.2056 37.4553L41.1416 38.5127M41.1416 38.5127C39.248 36.6091 37.3439 34.7149 35.4366 32.8176M36.4923 31.752L35.4384 32.8194C35.4378 32.8188 35.4372 32.8182 35.4366 32.8176M36.4923 31.752C34.9241 30.2038 32.9664 30.2038 31.4082 31.752C30.2196 32.9306 29.031 34.1092 27.8623 35.3078M36.4923 31.752L35.4344 32.8154C35.4351 32.8162 35.4358 32.8169 35.4366 32.8176M35.4366 32.8176C34.8781 32.267 34.3597 32.0908 33.9465 32.0908C33.5335 32.0908 33.0183 32.2667 32.4654 32.8161L32.4644 32.8171C31.2748 33.9967 30.0956 35.166 28.9378 36.3535M27.8623 35.3078L28.9392 36.3521C28.9387 36.3525 28.9383 36.353 28.9378 36.3535M27.8623 35.3078C27.5427 35.6375 27.273 35.7074 26.8835 35.4876M27.8623 35.3078L28.9363 36.355C28.9368 36.3545 28.9373 36.354 28.9378 36.3535M28.9378 36.3535C28.6906 36.6082 28.2833 36.9566 27.6933 37.0746C27.0691 37.1994 26.5361 37.0116 26.1578 36.8005M26.8835 35.4876L26.1652 36.8045C26.1627 36.8031 26.1603 36.8018 26.1578 36.8005M26.8835 35.4876C26.5787 35.3214 26.2661 35.1677 25.9537 35.0141C25.4778 34.7801 25.0024 34.5464 24.5562 34.2691L11.0978 21.6565C11.9613 23.7109 13.182 25.5025 14.5033 27.1255L14.504 27.1263C17.1345 30.3529 20.1389 33.2627 23.7575 35.5388L23.7575 35.5388L23.7643 35.543C24.1988 35.8131 24.6428 36.0394 25.0429 36.2375C25.1338 36.2825 25.2216 36.3257 25.307 36.3677C25.6122 36.5178 25.886 36.6525 26.1578 36.8005M26.8835 35.4876L26.1465 36.7941C26.1502 36.7962 26.154 36.7983 26.1578 36.8005M1.53032 13.3293C1.62415 12.137 2.04989 11.1872 2.88402 10.3974L2.88626 10.3952C3.62532 9.69253 4.36911 8.94154 5.09399 8.20964C5.56277 7.73632 6.02365 7.27099 6.47022 6.83186L6.4723 6.82981C7.02412 6.28507 7.54103 6.10802 7.95892 6.10742C8.3774 6.10683 8.89732 6.28298 9.45437 6.82532C10.0927 7.4505 10.7162 8.07837 11.3481 8.7147C11.6675 9.03632 11.989 9.36009 12.3157 9.68678C12.7821 10.1582 13.2481 10.6241 13.7107 11.0868L13.7119 11.088C14.1769 11.5529 14.6385 12.0146 15.0996 12.4807L15.1021 12.4831C15.7171 13.1019 15.8952 13.6336 15.8958 14.0335C15.8963 14.4327 15.7204 14.9602 15.1121 15.5722L15.1108 15.5735C14.9419 15.7439 14.7736 15.9138 14.6058 16.0832C13.6061 17.0927 12.6229 18.0855 11.6177 19.0569L11.6085 19.0658L11.5994 19.0749C11.3272 19.347 11.0169 19.7517 10.9169 20.3181C10.819 20.8733 10.9667 21.3449 11.0974 21.6556L1.53032 13.3293ZM1.53032 13.3293C1.53028 13.3299 1.53023 13.3304 1.53019 13.3309L0.0347857 13.2136L1.53044 13.3278C1.5304 13.3283 1.53036 13.3288 1.53032 13.3293Z" stroke="#60698B" stroke-width="3"/>
<path d="M34.5852 23.7913L38.2709 23.1621C37.6916 19.776 36.0934 16.7096 33.6663 14.2724C31.0992 11.7054 27.853 10.0873 24.2772 9.58789L23.7578 13.2936C26.5246 13.6831 29.0416 14.9317 31.0293 16.9193C32.9071 18.7971 34.1357 21.1744 34.5852 23.7913Z" fill="#60698B"/>
<path d="M40.3473 7.77093C36.0923 3.5159 30.7086 0.829033 24.7655 0L24.2461 3.70568C29.3801 4.42484 34.0347 6.75212 37.7104 10.4178C41.1963 13.9038 43.4837 18.3086 44.3127 23.153L47.9984 22.5237C47.0295 16.9103 44.3826 11.8162 40.3473 7.77093Z" fill="#60698B"/>
</svg>
