<svg width="48" height="48" viewBox="0 0 48 48" fill="none" xmlns="http://www.w3.org/2000/svg">
<path d="M35.1572 6.23438V3.31247H29.4991C28.437 1.296 26.3392 0 24 0C21.6608 0 19.563 1.296 18.5009 3.31247H12.8428V6.23438H5.625V48H42.375V6.23438H35.1572ZM15.6553 6.12497H20.446L20.7635 5.15681C21.2232 3.75459 22.5238 2.8125 24 2.8125C25.4762 2.8125 26.7768 3.75459 27.2365 5.15681L27.554 6.12497H32.3447V9.59372H15.6553V6.12497ZM39.5625 45.1875H8.4375V9.04688H12.8428V12.4062H35.1572V9.04688H39.5625V45.1875Z" fill="#60698B"/>
<path d="M22.6255 30.3565L19.6707 27.4349L17.6934 29.4348L22.5511 34.2379L30.2683 27.1721L28.3691 25.0977L22.6255 30.3565Z" fill="#60698B"/>
<path d="M24.0002 17.4023C17.5017 17.4023 12.2148 22.6893 12.2148 29.1877C12.2148 35.686 17.5017 40.973 24.0002 40.973C30.4986 40.973 35.7855 35.686 35.7855 29.1877C35.7855 22.6893 30.4986 17.4023 24.0002 17.4023ZM24.0002 38.1605C19.0525 38.1605 15.0273 34.1352 15.0273 29.1877C15.0273 24.2401 19.0525 20.2148 24.0002 20.2148C28.9478 20.2148 32.973 24.2401 32.973 29.1877C32.973 34.1352 28.9478 38.1605 24.0002 38.1605Z" fill="#60698B"/>
</svg>
