<?xml version="1.0" encoding="UTF-8"?>
<svg width="66px" height="130px" viewBox="0 0 66 130" version="1.1" xmlns="http://www.w3.org/2000/svg" xmlns:xlink="http://www.w3.org/1999/xlink">
    <title>delete-loanapp-ic</title>
    <defs>
        <path d="M52.3109,53.103 L57.557,6.7628 C57.9598,3.2045 55.1761,0.0879 51.5951,0.0879 L6.2027,0.0879 C2.5993,0.0879 -0.1913,3.2417 0.2473,6.8183 L5.9306,53.159 C6.2995,56.167 8.8547,58.428 11.8859,58.428 L46.349,58.428 C49.4015,58.428 51.9675,56.136 52.3109,53.103 Z" id="path-1"></path>
        <path d="M52.3109,53.103 L57.557,6.7628 C57.9598,3.2045 55.1761,0.0879 51.5951,0.0879 L6.2027,0.0879 C2.5993,0.0879 -0.1913,3.2417 0.2473,6.8183 L5.9306,53.159 C6.2995,56.167 8.8547,58.428 11.8859,58.428 L46.349,58.428 C49.4015,58.428 51.9675,56.136 52.3109,53.103 Z" id="path-3"></path>
        <path d="M52.3109,53.103 L57.557,6.7628 C57.9598,3.2045 55.1761,0.0879 51.5951,0.0879 L6.2027,0.0879 C2.5993,0.0879 -0.1913,3.2417 0.2473,6.8183 L5.9306,53.159 C6.2995,56.167 8.8547,58.428 11.8859,58.428 L46.349,58.428 C49.4015,58.428 51.9675,56.136 52.3109,53.103 Z" id="path-5"></path>
    </defs>
    <g id="Page-1" stroke="none" stroke-width="1" fill="none" fill-rule="evenodd">
        <g id="delete-loanapp-ic" transform="translate(1.000000, 1.000000)">
            <path d="M58.3109,122.103 L63.557,75.7628 C63.9598,72.2045 61.1761,69.0879 57.5951,69.0879 L12.2027,69.0879 C8.5993,69.0879 5.8087,72.2417 6.2473,75.8183 L11.9306,122.159 C12.2995,125.167 14.8547,127.428 17.8859,127.428 L52.349,127.428 C55.4015,127.428 57.9675,125.136 58.3109,122.103 Z" id="Path" stroke="#9FA3C0" stroke-width="2"></path>
            <g id="Clipped" transform="translate(6.000000, 69.000000)">
                <mask id="mask-2" fill="white">
                    <use xlink:href="#path-1"></use>
                </mask>
                <g id="Path"></g>
                <g id="Group" mask="url(#mask-2)" stroke="#9FA3C0">
                    <g transform="translate(-19.000000, -72.000000)" id="Path">
                        <line x1="95.1304" y1="36.0509" x2="2.62022" y2="128.561" stroke-width="2"></line>
                        <line x1="-17.9544664" y1="82.3059579" x2="112.874574" y2="82.3059579" stroke-width="2.00000062" transform="translate(47.460054, 82.305958) scale(-1, 1) rotate(135.000000) translate(-47.460054, -82.305958) "></line>
                        <line x1="95.1304" y1="18.6251" x2="2.62022" y2="111.135" stroke-width="2"></line>
                        <line x1="-17.9544664" y1="64.8801579" x2="112.874574" y2="64.8801579" stroke-width="2.00000062" transform="translate(47.460054, 64.880158) scale(-1, 1) rotate(135.000000) translate(-47.460054, -64.880158) "></line>
                        <line x1="95.1304" y1="1.1934" x2="2.62022" y2="93.704" stroke-width="2"></line>
                        <line x1="-17.9544664" y1="47.4484579" x2="112.874574" y2="47.4484579" stroke-width="2.00000062" transform="translate(47.460054, 47.448458) scale(-1, 1) rotate(135.000000) translate(-47.460054, -47.448458) "></line>
                        <line x1="95.1304" y1="53.4825" x2="2.62022" y2="145.993" stroke-width="2"></line>
                        <line x1="-17.9544664" y1="99.7375579" x2="112.874574" y2="99.7375579" stroke-width="2.00000062" transform="translate(47.460054, 99.737558) scale(-1, 1) rotate(135.000000) translate(-47.460054, -99.737558) "></line>
                        <line x1="95.1304" y1="70.9102" x2="2.62022" y2="163.42" stroke-width="2"></line>
                        <line x1="-17.9544664" y1="117.165258" x2="112.874574" y2="117.165258" stroke-width="2.00000062" transform="translate(47.460054, 117.165258) scale(-1, 1) rotate(135.000000) translate(-47.460054, -117.165258) "></line>
                        <line x1="95.1304" y1="88.34" x2="2.62022" y2="180.85" stroke-width="2"></line>
                        <line x1="-17.9544664" y1="134.595158" x2="112.874574" y2="134.595158" stroke-width="2.00000062" transform="translate(47.460054, 134.595158) scale(-1, 1) rotate(135.000000) translate(-47.460054, -134.595158) "></line>
                        <line x1="95.1304" y1="105.768" x2="2.62022" y2="198.278" stroke-width="2"></line>
                        <line x1="-17.9544664" y1="152.023158" x2="112.874574" y2="152.023158" stroke-width="2.00000062" transform="translate(47.460054, 152.023158) scale(-1, 1) rotate(135.000000) translate(-47.460054, -152.023158) "></line>
                    </g>
                </g>
                <mask id="mask-4" fill="white">
                    <use xlink:href="#path-3"></use>
                </mask>
                <g id="Path"></g>
                <mask id="mask-6" fill="white">
                    <use xlink:href="#path-5"></use>
                </mask>
                <g id="Path"></g>
            </g>
            <g id="Group" stroke="#9FA3C0" stroke-width="2">
                <path d="M34.5145,25.5175 C34.8095,25.9548 34.9902,26.459 35.0401,26.9841 L35.6246,35.5788 C35.6474,35.9207 35.636,36.264 35.5904,36.6036 C35.2443,38.0198 35.0347,38.7037 33.4789,39.1379 C33.0926,39.147 32.7082,39.0796 32.348,38.9395 C31.9878,38.7994 31.659,38.5893 31.3804,38.3215 C31.1018,38.0536 30.879,37.7332 30.7248,37.3788 C30.5707,37.0244 30.4882,36.643 30.4822,36.2566 L29.5922,28.806 L22.0569,25.1364 C20.3316,26.6128 18.955,27.3836 18.1793,28.3114 C17.905,28.645 17.7546,29.0633 17.7535,29.4952 C17.7525,29.9272 17.9009,30.3462 18.1736,30.6811 C19.3045,32.1008 20.3382,33.5954 21.2675,35.1545 C21.3755,35.3344 21.5135,35.4944 21.6755,35.6276 C24.7365,38.1782 27.0399,41.3203 26.5833,42.3692 C26.4745,42.8368 26.2015,43.2497 25.8138,43.5327 C25.4262,43.8158 24.9498,43.9503 24.4714,43.9116 C22.4112,44.0215 18.0734,39.801 16.4535,39.2122 L9.9821,36.3949 C9.9821,36.3949 2.4923,32.539 1.3142,29.4952 C-2.4016,19.896 4.2594,11.3389 7.2489,10.1509 C8.1263,9.8146 13.6349,7.611 14.5532,7.4118 C15.4195,7.233 16.5897,6.6127 17.4736,6.5771" id="Path"></path>
                <path d="M34.9015,26.2523 C34.6578,25.5898 34.2296,25.0108 33.6675,24.5839 C33.4359,24.4058 33.1787,24.2637 32.9047,24.1623 L24.9873,19.6389" id="Path"></path>
                <path d="M26.4232,20.601 L45.5457,22.0651 C47.4691,22.1108 48.8334,22.1572 49.2674,20.601 C49.7086,19.042 48.6193,18.1144 47.0607,17.6721 C46.8492,17.6123 34.0546,14.9489 29.8876,14.2646 L29.8797,14.2678" id="Path"></path>
                <path d="M25.4816,8.7927 C30.2955,8.168 44.2115,6.9949 44.4176,6.9945 C44.7329,6.9479 45.0543,6.9653 45.3627,7.0457 C45.671,7.1262 45.96,7.268 46.2123,7.4627 C46.4647,7.6573 46.6751,7.9009 46.8312,8.1788 C46.9872,8.4567 47.0856,8.7631 47.1205,9.0799 C47.1434,10.7067 45.6155,11.5242 44.1226,11.8547 L32.8139,14.7165" id="Path"></path>
                <path d="M30.0729,8.3257 C31.5492,7.6358 39.6633,4.2172 38.2247,2.328 C38.1085,1.886 37.8515,1.494 37.4925,1.2111 C37.1336,0.9283 36.6923,0.7701 36.2354,0.7605 C35.5915,0.7024 34.9427,0.7838 34.3331,0.999 C31.1476,2.0385 17.8981,6.3953 17.8981,6.3953 C17.7543,6.4475 16.9365,6.7137 16.8032,6.7888" id="Path"></path>
                <line x1="30.7427" y1="14.4414" x2="25.2746" y2="13.3915" id="Path"></line>
            </g>
            <polyline id="Path" stroke="#9FA3C0" stroke-width="2" points="20.489 68.5841 10.9004 58.9955 30.5324 39.3652 54.2731 63.1059 48.3348 69.0442"></polyline>
            <line x1="19.5742" y1="61.1602" x2="32.8618" y2="47.5837" id="Path" stroke="#9FA3C0" stroke-width="2"></line>
            <line x1="25.0522" y1="66.6387" x2="38.3398" y2="53.0622" id="Path" stroke="#9FA3C0" stroke-width="2"></line>
            <line x1="33.3184" y1="69.041" x2="43.8181" y2="58.5405" id="Path" stroke="#9FA3C0" stroke-width="2"></line>
        </g>
    </g>
</svg>