<svg width="68" height="68" viewBox="0 0 68 68" fill="none" xmlns="http://www.w3.org/2000/svg">
<circle cx="34" cy="34" r="34" fill="#32D3AC"/>
<path d="M45.3475 38.7883C43.605 38.7883 41.9192 38.505 40.3467 37.995C39.8508 37.825 39.2983 37.9525 38.9158 38.335L36.6917 41.1258C32.6825 39.2133 28.9283 35.6008 26.9308 31.45L29.6933 29.0983C30.0758 28.7017 30.1892 28.1492 30.0333 27.6533C29.5092 26.0808 29.24 24.395 29.24 22.6525C29.24 21.8875 28.6025 21.25 27.8375 21.25H22.9358C22.1708 21.25 21.25 21.59 21.25 22.6525C21.25 35.8133 32.2008 46.75 45.3475 46.75C46.3533 46.75 46.75 45.8575 46.75 45.0783V40.1908C46.75 39.4258 46.1125 38.7883 45.3475 38.7883Z" fill="white"/>
<path d="M45.3475 38.7883C43.605 38.7883 41.9192 38.505 40.3467 37.995C39.8508 37.825 39.2983 37.9525 38.9158 38.335L36.6917 41.1258C32.6825 39.2133 28.9283 35.6008 26.9308 31.45L29.6933 29.0983C30.0758 28.7017 30.1892 28.1492 30.0333 27.6533C29.5092 26.0808 29.24 24.395 29.24 22.6525C29.24 21.8875 28.6025 21.25 27.8375 21.25H22.9358C22.1708 21.25 21.25 21.59 21.25 22.6525C21.25 35.8133 32.2008 46.75 45.3475 46.75C46.3533 46.75 46.75 45.8575 46.75 45.0783V40.1908C46.75 39.4258 46.1125 38.7883 45.3475 38.7883Z" fill="#FDFDFD"/>
</svg>
