<svg width="24" height="24" viewBox="0 0 24 24" fill="none" xmlns="http://www.w3.org/2000/svg">
<path d="M7.19995 6.2998C7.59778 6.2998 7.97931 6.14177 8.26061 5.86046C8.54192 5.57916 8.69995 5.19763 8.69995 4.7998C8.69995 4.40198 8.54192 4.02045 8.26061 3.73914C7.97931 3.45784 7.59778 3.2998 7.19995 3.2998C6.80213 3.2998 6.4206 3.45784 6.13929 3.73914C5.85799 4.02045 5.69995 4.40198 5.69995 4.7998C5.69995 5.19763 5.85799 5.57916 6.13929 5.86046C6.4206 6.14177 6.80213 6.2998 7.19995 6.2998Z" fill="#9FA3C0"/>
<path d="M7.19995 11.0996C7.59778 11.0996 7.97931 10.9416 8.26061 10.6603C8.54192 10.379 8.69995 9.99743 8.69995 9.59961C8.69995 9.20178 8.54192 8.82025 8.26061 8.53895C7.97931 8.25764 7.59778 8.09961 7.19995 8.09961C6.80213 8.09961 6.4206 8.25764 6.13929 8.53895C5.85799 8.82025 5.69995 9.20178 5.69995 9.59961C5.69995 9.99743 5.85799 10.379 6.13929 10.6603C6.4206 10.9416 6.80213 11.0996 7.19995 11.0996Z" fill="#9FA3C0"/>
<path d="M8.69995 14.3999C8.69995 14.7977 8.54192 15.1793 8.26061 15.4606C7.97931 15.7419 7.59778 15.8999 7.19995 15.8999C6.80213 15.8999 6.4206 15.7419 6.13929 15.4606C5.85799 15.1793 5.69995 14.7977 5.69995 14.3999C5.69995 14.0021 5.85799 13.6205 6.13929 13.3392C6.4206 13.0579 6.80213 12.8999 7.19995 12.8999C7.59778 12.8999 7.97931 13.0579 8.26061 13.3392C8.54192 13.6205 8.69995 14.0021 8.69995 14.3999Z" fill="#9FA3C0"/>
<path d="M12 6.2998C12.3978 6.2998 12.7794 6.14177 13.0607 5.86046C13.342 5.57916 13.5 5.19763 13.5 4.7998C13.5 4.40198 13.342 4.02045 13.0607 3.73914C12.7794 3.45784 12.3978 3.2998 12 3.2998C11.6022 3.2998 11.2206 3.45784 10.9393 3.73914C10.658 4.02045 10.5 4.40198 10.5 4.7998C10.5 5.19763 10.658 5.57916 10.9393 5.86046C11.2206 6.14177 11.6022 6.2998 12 6.2998Z" fill="#9FA3C0"/>
<path d="M13.5 9.59961C13.5 9.99743 13.342 10.379 13.0607 10.6603C12.7794 10.9416 12.3978 11.0996 12 11.0996C11.6022 11.0996 11.2206 10.9416 10.9393 10.6603C10.658 10.379 10.5 9.99743 10.5 9.59961C10.5 9.20178 10.658 8.82025 10.9393 8.53895C11.2206 8.25764 11.6022 8.09961 12 8.09961C12.3978 8.09961 12.7794 8.25764 13.0607 8.53895C13.342 8.82025 13.5 9.20178 13.5 9.59961Z" fill="#9FA3C0"/>
<path d="M12 15.8999C12.3978 15.8999 12.7794 15.7419 13.0607 15.4606C13.342 15.1793 13.5 14.7977 13.5 14.3999C13.5 14.0021 13.342 13.6205 13.0607 13.3392C12.7794 13.0579 12.3978 12.8999 12 12.8999C11.6022 12.8999 11.2206 13.0579 10.9393 13.3392C10.658 13.6205 10.5 14.0021 10.5 14.3999C10.5 14.7977 10.658 15.1793 10.9393 15.4606C11.2206 15.7419 11.6022 15.8999 12 15.8999Z" fill="#9FA3C0"/>
<path d="M13.5 19.1997C13.5 19.5975 13.342 19.9791 13.0607 20.2604C12.7794 20.5417 12.3978 20.6997 12 20.6997C11.6022 20.6997 11.2206 20.5417 10.9393 20.2604C10.658 19.9791 10.5 19.5975 10.5 19.1997C10.5 18.8019 10.658 18.4204 10.9393 18.139C11.2206 17.8577 11.6022 17.6997 12 17.6997C12.3978 17.6997 12.7794 17.8577 13.0607 18.139C13.342 18.4204 13.5 18.8019 13.5 19.1997Z" fill="#9FA3C0"/>
<path d="M16.8 6.2998C17.1979 6.2998 17.5794 6.14177 17.8607 5.86046C18.142 5.57916 18.3 5.19763 18.3 4.7998C18.3 4.40198 18.142 4.02045 17.8607 3.73914C17.5794 3.45784 17.1979 3.2998 16.8 3.2998C16.4022 3.2998 16.0207 3.45784 15.7394 3.73914C15.4581 4.02045 15.3 4.40198 15.3 4.7998C15.3 5.19763 15.4581 5.57916 15.7394 5.86046C16.0207 6.14177 16.4022 6.2998 16.8 6.2998Z" fill="#9FA3C0"/>
<path d="M18.3 9.59961C18.3 9.99743 18.142 10.379 17.8607 10.6603C17.5794 10.9416 17.1979 11.0996 16.8 11.0996C16.4022 11.0996 16.0207 10.9416 15.7394 10.6603C15.4581 10.379 15.3 9.99743 15.3 9.59961C15.3 9.20178 15.4581 8.82025 15.7394 8.53895C16.0207 8.25764 16.4022 8.09961 16.8 8.09961C17.1979 8.09961 17.5794 8.25764 17.8607 8.53895C18.142 8.82025 18.3 9.20178 18.3 9.59961Z" fill="#9FA3C0"/>
<path d="M16.8 15.8999C17.1979 15.8999 17.5794 15.7419 17.8607 15.4606C18.142 15.1793 18.3 14.7977 18.3 14.3999C18.3 14.0021 18.142 13.6205 17.8607 13.3392C17.5794 13.0579 17.1979 12.8999 16.8 12.8999C16.4022 12.8999 16.0207 13.0579 15.7394 13.3392C15.4581 13.6205 15.3 14.0021 15.3 14.3999C15.3 14.7977 15.4581 15.1793 15.7394 15.4606C16.0207 15.7419 16.4022 15.8999 16.8 15.8999Z" fill="#9FA3C0"/>
</svg>
