<?xml version="1.0" encoding="UTF-8"?>
<svg width="20px" height="24px" viewBox="0 0 20 24" version="1.1" xmlns="http://www.w3.org/2000/svg" xmlns:xlink="http://www.w3.org/1999/xlink">
    <title>Artboard</title>
    <g id="Artboard" stroke="none" stroke-width="1" fill="none" fill-rule="evenodd" stroke-linecap="round" stroke-linejoin="round">
        <g id="duplicate-gray" transform="translate(1.000000, 3.000000)" stroke="#9FA3C0" stroke-width="2">
            <path d="M16.3076923,7 L8.69230769,7 C7.75767154,7 7,7.75767154 7,8.69230769 L7,16.3076923 C7,17.2423538 7.75767154,18 8.69230769,18 L16.3076923,18 C17.2423538,18 18,17.2423538 18,16.3076923 L18,8.69230769 C18,7.75767154 17.2423538,7 16.3076923,7 Z" id="Path"></path>
            <path d="M2.53846154,11 L1.69230769,11 C1.24348231,11 0.813035385,10.8217154 0.495668462,10.5043231 C0.178293077,10.1869308 0,9.75649231 0,9.30769231 L0,1.69230769 C0,1.24348231 0.178293077,0.813035385 0.495668462,0.495668462 C0.813035385,0.178293077 1.24348231,0 1.69230769,0 L9.30769231,0 C9.75649231,0 10.1869308,0.178293077 10.5043231,0.495668462 C10.8217154,0.813035385 11,1.24348231 11,1.69230769 L11,2.53846154" id="Path"></path>
        </g>
    </g>
</svg>