<?xml version="1.0" encoding="UTF-8"?>
<svg width="20px" height="24px" viewBox="0 0 20 24" version="1.1" xmlns="http://www.w3.org/2000/svg" xmlns:xlink="http://www.w3.org/1999/xlink">
    <title>Artboard</title>
    <g id="Artboard" stroke="none" stroke-width="1" fill="none" fill-rule="evenodd" stroke-linecap="round" stroke-linejoin="round">
        <g id="edit-gray" transform="translate(1.000000, 3.000000)" stroke="#9FA3C0" stroke-width="2">
            <path d="M8,2 L1.77777778,2 C1.30628444,2 0.854097778,2.18729778 0.520702222,2.52070222 C0.187297778,2.85409778 0,3.30628444 0,3.77777778 L0,16.2222222 C0,16.6936889 0.187297778,17.1458667 0.520702222,17.4792889 C0.854097778,17.8127111 1.30628444,18 1.77777778,18 L14.2222222,18 C14.6936889,18 15.1458667,17.8127111 15.4792889,17.4792889 C15.8127111,17.1458667 16,16.6936889 16,16.2222222 L16,10" id="Path"></path>
            <path d="M14.6662489,0.571984571 C15.0324616,0.205743951 15.5292147,0 16.0471416,0 C16.5650684,0 17.0618215,0.205743951 17.4280342,0.571984571 C17.794247,0.938215985 18,1.43494185 18,1.95287824 C18,2.47081464 17.794247,2.96753129 17.4280342,3.33377191 L8.68238052,12.0794042 L5,13 L5.92059513,9.31761687 L14.6662489,0.571984571 Z" id="Path"></path>
        </g>
    </g>
</svg>