<svg width="68" height="68" viewBox="0 0 68 68" fill="none" xmlns="http://www.w3.org/2000/svg">
<circle cx="34" cy="34" r="34" fill="#FF0340"/>
<circle cx="34" cy="34" r="34" fill="#D33232"/>
<g clip-path="url(#clip0)">
<path d="M22.5903 39.638C23.8224 38.4059 25.2148 37.4142 26.6874 36.6629C27.1582 36.4325 27.4587 35.9516 27.4587 35.4107L27.058 31.8646C31.2453 30.382 36.4543 30.2818 40.8018 31.8045L40.5113 35.4207C40.5213 35.9717 40.8319 36.4425 41.2927 36.6829C42.7752 37.4242 44.1576 38.4259 45.3897 39.6581C45.9307 40.199 46.8322 40.199 47.3732 39.6581L50.8392 36.1921C51.3801 35.6511 51.7908 34.7596 51.0395 34.0083C41.7334 24.7022 26.2566 24.7122 16.9605 34.0083C16.2493 34.7195 16.5999 35.6311 17.1509 36.182L20.6068 39.638C21.1478 40.179 22.0493 40.179 22.5903 39.638Z" fill="white"/>
<path d="M22.5903 39.638C23.8224 38.4059 25.2148 37.4142 26.6874 36.6629C27.1582 36.4325 27.4587 35.9516 27.4587 35.4107L27.058 31.8646C31.2453 30.382 36.4543 30.2818 40.8018 31.8045L40.5113 35.4207C40.5213 35.9717 40.8319 36.4425 41.2927 36.6829C42.7752 37.4242 44.1576 38.4259 45.3897 39.6581C45.9307 40.199 46.8322 40.199 47.3732 39.6581L50.8392 36.1921C51.3801 35.6511 51.7908 34.7596 51.0395 34.0083C41.7334 24.7022 26.2566 24.7122 16.9605 34.0083C16.2493 34.7195 16.5999 35.6311 17.1509 36.182L20.6068 39.638C21.1478 40.179 22.0493 40.179 22.5903 39.638Z" fill="#FDFDFD"/>
</g>
<defs>
<clipPath id="clip0">
<rect width="34" height="34" fill="white" transform="translate(17 17)"/>
</clipPath>
</defs>
</svg>
