<?xml version="1.0" encoding="UTF-8"?>
<svg width="20px" height="24px" viewBox="0 0 20 24" version="1.1" xmlns="http://www.w3.org/2000/svg" xmlns:xlink="http://www.w3.org/1999/xlink">
    <title>Artboard</title>
    <g id="Artboard" stroke="none" stroke-width="1" fill="none" fill-rule="evenodd">
        <g id="file-ic-blue" transform="translate(2.000000, 2.000000)" stroke="#3246D3" stroke-width="2">
            <path d="M10,0 L2,0 C1.46957,0 0.96086,0.21071 0.58579,0.58579 C0.21071,0.96086 0,1.46957 0,2 L0,18 C0,18.5304 0.21071,19.0391 0.58579,19.4142 C0.96086,19.7893 1.46957,20 2,20 L14,20 C14.5304,20 15.0391,19.7893 15.4142,19.4142 C15.7893,19.0391 16,18.5304 16,18 L16,6 L10,0 Z" id="Path"></path>
            <polyline id="Path" points="10 0 10 6 16 6"></polyline>
            <line x1="12" y1="11" x2="4" y2="11" id="Path"></line>
            <line x1="12" y1="15" x2="4" y2="15" id="Path"></line>
            <polyline id="Path" points="6 7 5 7 4 7"></polyline>
        </g>
    </g>
</svg>