<svg width="12" height="14" viewBox="0 0 12 14" fill="none" xmlns="http://www.w3.org/2000/svg">
<path d="M10.2449 6.4C10.0724 6.175 9.86241 5.98 9.66741 5.785C9.16492 5.335 8.59491 5.0125 8.11491 4.54C6.99742 3.445 6.74992 1.6375 7.46241 0.25C6.74992 0.4225 6.12742 0.8125 5.59492 1.24C3.65242 2.8 2.88741 5.5525 3.80241 7.915C3.83241 7.99 3.86241 8.065 3.86241 8.1625C3.86241 8.3275 3.74992 8.4775 3.59992 8.5375C3.42742 8.6125 3.24742 8.5675 3.10492 8.4475C3.06209 8.4121 3.02645 8.36882 2.99992 8.32C2.15242 7.2475 2.01742 5.71 2.58741 4.48C1.33492 5.5 0.652415 7.225 0.749915 8.8525C0.794915 9.2275 0.839915 9.6025 0.967415 9.9775C1.07242 10.4275 1.27492 10.8775 1.49992 11.275C2.30992 12.5725 3.71242 13.5025 5.21992 13.69C6.82492 13.8925 8.54242 13.6 9.77242 12.49C11.1449 11.245 11.6249 9.25 10.9199 7.54L10.8224 7.345C10.6649 7 10.2449 6.4 10.2449 6.4ZM7.87492 11.125C7.66492 11.305 7.31991 11.5 7.04991 11.575C6.20991 11.875 5.36992 11.455 4.87492 10.96C5.76742 10.75 6.29991 10.09 6.45741 9.4225C6.58491 8.8225 6.34491 8.3275 6.24742 7.75C6.15741 7.195 6.17242 6.7225 6.37492 6.205C6.51742 6.49 6.66742 6.775 6.84741 7C7.42492 7.75 8.33242 8.08 8.52742 9.1C8.55742 9.205 8.57242 9.31 8.57242 9.4225C8.59492 10.0375 8.32491 10.7125 7.87492 11.125Z" fill="#FF0340"/>
<path d="M10.2449 6.4C10.0724 6.175 9.86241 5.98 9.66741 5.785C9.16492 5.335 8.59491 5.0125 8.11491 4.54C6.99742 3.445 6.74992 1.6375 7.46241 0.25C6.74992 0.4225 6.12742 0.8125 5.59492 1.24C3.65242 2.8 2.88741 5.5525 3.80241 7.915C3.83241 7.99 3.86241 8.065 3.86241 8.1625C3.86241 8.3275 3.74992 8.4775 3.59992 8.5375C3.42742 8.6125 3.24742 8.5675 3.10492 8.4475C3.06209 8.4121 3.02645 8.36882 2.99992 8.32C2.15242 7.2475 2.01742 5.71 2.58741 4.48C1.33492 5.5 0.652415 7.225 0.749915 8.8525C0.794915 9.2275 0.839915 9.6025 0.967415 9.9775C1.07242 10.4275 1.27492 10.8775 1.49992 11.275C2.30992 12.5725 3.71242 13.5025 5.21992 13.69C6.82492 13.8925 8.54242 13.6 9.77242 12.49C11.1449 11.245 11.6249 9.25 10.9199 7.54L10.8224 7.345C10.6649 7 10.2449 6.4 10.2449 6.4ZM7.87492 11.125C7.66492 11.305 7.31991 11.5 7.04991 11.575C6.20991 11.875 5.36992 11.455 4.87492 10.96C5.76742 10.75 6.29991 10.09 6.45741 9.4225C6.58491 8.8225 6.34491 8.3275 6.24742 7.75C6.15741 7.195 6.17242 6.7225 6.37492 6.205C6.51742 6.49 6.66742 6.775 6.84741 7C7.42492 7.75 8.33242 8.08 8.52742 9.1C8.55742 9.205 8.57242 9.31 8.57242 9.4225C8.59492 10.0375 8.32491 10.7125 7.87492 11.125Z" fill="#D33232"/>
</svg>
