<svg width="24" height="24" viewBox="0 0 24 24" fill="none" xmlns="http://www.w3.org/2000/svg">
<g clip-path="url(#clip0)">
<path d="M5.266 9.765C5.73388 8.34945 6.63686 7.11781 7.84612 6.2458C9.05537 5.37378 10.5091 4.90594 12 4.909C13.69 4.909 15.218 5.509 16.418 6.491L19.91 3C17.782 1.145 15.055 0 12 0C7.27 0 3.198 2.698 1.24 6.65L5.266 9.765Z" fill="#EA4335"/>
<path d="M16.04 18.0126C14.95 18.7156 13.566 19.0906 12 19.0906C10.5151 19.0936 9.0668 18.6295 7.86024 17.7639C6.65367 16.8984 5.74994 15.6752 5.277 14.2676L1.237 17.3346C2.22824 19.3409 3.76227 21.029 5.66482 22.2071C7.56738 23.3853 9.76221 24.0063 12 23.9996C14.933 23.9996 17.735 22.9566 19.834 20.9996L16.041 18.0126H16.04Z" fill="#34A853"/>
<path d="M19.834 21.0004C22.029 18.9524 23.454 15.9044 23.454 12.0004C23.454 11.2904 23.345 10.5274 23.182 9.81836H12V14.4554H18.436C18.119 16.0144 17.266 17.2214 16.041 18.0134L19.834 21.0004Z" fill="#4A90E2"/>
<path d="M5.277 14.2684C5.03235 13.5373 4.90807 12.7713 4.909 12.0004C4.909 11.2184 5.034 10.4674 5.266 9.76539L1.24 6.65039C0.416376 8.31308 -0.0081982 10.1449 -1.80108e-06 12.0004C-1.80108e-06 13.9204 0.444998 15.7304 1.237 17.3354L5.277 14.2684Z" fill="#FBBC05"/>
</g>
<defs>
<clipPath id="clip0">
<rect width="24" height="24" fill="white"/>
</clipPath>
</defs>
</svg>
