<svg width="24" height="24" viewBox="0 0 24 24" fill="none" xmlns="http://www.w3.org/2000/svg">
<path d="M3.4819 9.5H20.5176C20.7828 9.5 20.9998 9.71094 20.9998 9.96875V20.125C20.9998 21.1602 20.1359 22 19.0712 22H4.92833C3.8636 22 2.99976 21.1602 2.99976 20.125V9.96875C2.99976 9.71094 3.21672 9.5 3.4819 9.5ZM20.9998 7.78125V6.375C20.9998 5.33984 20.1359 4.5 19.0712 4.5H17.1426V2.46875C17.1426 2.21094 16.9256 2 16.6605 2H15.0533C14.7881 2 14.5712 2.21094 14.5712 2.46875V4.5H9.42833V2.46875C9.42833 2.21094 9.21136 2 8.94618 2H7.33904C7.07386 2 6.8569 2.21094 6.8569 2.46875V4.5H4.92833C3.8636 4.5 2.99976 5.33984 2.99976 6.375V7.78125C2.99976 8.03906 3.21672 8.25 3.4819 8.25H20.5176C20.7828 8.25 20.9998 8.03906 20.9998 7.78125Z" fill="#9FA3C0"/>
</svg>
