<?xml version="1.0" encoding="UTF-8"?>
<svg width="20px" height="24px" viewBox="0 0 20 24" version="1.1" xmlns="http://www.w3.org/2000/svg" xmlns:xlink="http://www.w3.org/1999/xlink">
    <title>Artboard</title>
    <g id="Artboard" stroke="none" stroke-width="1" fill="none" fill-rule="evenodd">
        <g id="group-ic" transform="translate(0.000000, 3.000000)" fill="#9FA3C0" fill-rule="nonzero" stroke="#9FA3C0" stroke-width="0.3">
            <path d="M16.7651818,9.54518182 L14.892,9.54518182 C14.637,9.54518182 14.3901818,9.58 14.1552727,9.64409091 C13.6919091,8.73318182 12.7458182,8.10727273 11.6557273,8.10727273 L8.34454545,8.10727273 C7.25442727,8.10727273 6.30837273,8.73318182 5.84498182,9.64409091 C5.61007273,9.58 5.36324545,9.54518182 5.1083,9.54518182 L3.2351,9.54518182 C1.68941818,9.54518182 0.431909091,10.8027273 0.431909091,12.3483636 L0.431909091,15.3428182 C0.431909091,16.2702727 1.18641818,17.0247273 2.11381818,17.0247273 L17.8864545,17.0247273 C18.8138182,17.0247273 19.5683636,16.2702727 19.5683636,15.3428182 L19.5683636,12.3483636 C19.5683636,10.8027273 18.3108182,9.54518182 16.7651818,9.54518182 Z M5.54138182,10.9105455 L5.54138182,15.9035455 L2.11381818,15.9035455 C1.80468182,15.9035455 1.55318182,15.652 1.55318182,15.3429091 L1.55318182,12.3483636 C1.55318182,11.421 2.30769091,10.6664545 3.2351,10.6664545 L5.1083,10.6664545 C5.2605,10.6664545 5.40787273,10.6871818 5.54818182,10.7252727 C5.54414545,10.7865455 5.54138182,10.8482727 5.54138182,10.9105455 Z M13.3376364,15.9035455 L6.66265455,15.9035455 L6.66265455,10.9104545 C6.66265455,9.98309091 7.41716364,9.22854545 8.34454545,9.22854545 L11.6557273,9.22854545 C12.5830909,9.22854545 13.3376364,9.98309091 13.3376364,10.9104545 L13.3376364,15.9035455 Z M18.4470909,15.3429091 C18.4470909,15.652 18.1955455,15.9035455 17.8864545,15.9035455 L14.4589091,15.9035455 L14.4589091,10.9104545 C14.4589091,10.8481818 14.4560909,10.7864545 14.4520909,10.7251818 C14.5923636,10.6871818 14.7397273,10.6664545 14.892,10.6664545 L16.7651818,10.6664545 C17.6925455,10.6664545 18.4470909,11.4209091 18.4470909,12.3483636 L18.4470909,15.3429091 Z" id="Shape"></path>
            <path d="M3.87145455,3.25994545 C2.49792727,3.25994545 1.3805,4.37737273 1.3805,5.7509 C1.3805,7.12441818 2.49792727,8.24181818 3.87145455,8.24181818 C5.24494545,8.24181818 6.36240909,7.12441818 6.36240909,5.7509 C6.36240909,4.37737273 5.24498182,3.25994545 3.87145455,3.25994545 Z M3.87141818,7.12057273 C3.11616364,7.12057273 2.50174545,6.50615455 2.50174545,5.7509 C2.50174545,4.99564545 3.11616364,4.38121818 3.87141818,4.38121818 C4.62667273,4.38121818 5.2411,4.99564545 5.2411,5.7509 C5.2411,6.50615455 4.62667273,7.12057273 3.87141818,7.12057273 Z" id="Shape"></path>
            <path d="M10,0.165127273 C8.16500909,0.165127273 6.67214545,1.65799091 6.67214545,3.493 C6.67214545,5.32800909 8.16500909,6.82087273 10,6.82087273 C11.835,6.82087273 13.3279091,5.32800909 13.3279091,3.493 C13.3279091,1.65803636 11.835,0.165127273 10,0.165127273 Z M10,5.6996 C8.78327273,5.6996 7.79341818,4.70973636 7.79341818,3.493 C7.79341818,2.27630909 8.78327273,1.2864 10,1.2864 C11.2167273,1.2864 12.2066364,2.27626364 12.2066364,3.493 C12.2066364,4.70973636 11.2167273,5.6996 10,5.6996 Z" id="Shape"></path>
            <path d="M16.1326364,3.25994545 C14.7591818,3.25994545 13.6417273,4.37737273 13.6417273,5.7509 C13.6417273,7.12441818 14.7591818,8.24181818 16.1326364,8.24181818 C17.5061818,8.24181818 18.6236364,7.12441818 18.6236364,5.7509 C18.6236364,4.37737273 17.5061818,3.25994545 16.1326364,3.25994545 Z M16.1326364,7.12057273 C15.3774545,7.12057273 14.763,6.50615455 14.763,5.7509 C14.763,4.99564545 15.3774545,4.38121818 16.1326364,4.38121818 C16.8879091,4.38121818 17.5023636,4.99564545 17.5023636,5.7509 C17.5023636,6.50615455 16.8879091,7.12057273 16.1326364,7.12057273 Z" id="Shape"></path>
        </g>
    </g>
</svg>