<svg width="25" height="24" viewBox="0 0 25 24" fill="none" xmlns="http://www.w3.org/2000/svg">
<path d="M22.7646 12H16.7646L14.7646 15H10.7646L8.76465 12H2.76465" stroke="#3246D3" stroke-width="2" stroke-linecap="round" stroke-linejoin="round"/>
<path d="M6.21465 5.11L2.76465 12V18C2.76465 18.5304 2.97536 19.0391 3.35043 19.4142C3.72551 19.7893 4.23422 20 4.76465 20H20.7646C21.2951 20 21.8038 19.7893 22.1789 19.4142C22.5539 19.0391 22.7646 18.5304 22.7646 18V12L19.3146 5.11C19.1491 4.77679 18.8938 4.49637 18.5776 4.30028C18.2614 4.10419 17.8967 4.0002 17.5246 4H8.00465C7.63256 4.0002 7.26791 4.10419 6.95169 4.30028C6.63547 4.49637 6.38023 4.77679 6.21465 5.11V5.11Z" stroke="#3246D3" stroke-width="2" stroke-linecap="round" stroke-linejoin="round"/>
</svg>
