<svg width="40" height="40" viewBox="0 0 40 40" fill="none" xmlns="http://www.w3.org/2000/svg">
<g clip-path="url(#clip0)">
<path d="M22 12C22 13.1046 21.1046 14 20 14C18.8954 14 18 13.1046 18 12C18 10.8954 18.8954 10 20 10C21.1046 10 22 10.8954 22 12Z" fill="#657FDB"/>
<path d="M22 28C22 29.1046 21.1046 30 20 30C18.8954 30 18 29.1046 18 28V20C18 18.8954 18.8954 18 20 18C21.1046 18 22 18.8954 22 20V28Z" fill="#657FDB"/>
<path fill-rule="evenodd" clip-rule="evenodd" d="M20 0C8.972 0 0 8.972 0 20C0 31.028 8.972 40 20 40C31.028 40 40 31.028 40 20C40 8.972 31.028 0 20 0ZM18 28C18 29.1046 18.8954 30 20 30C21.1046 30 22 29.1046 22 28V20C22 18.8954 21.1046 18 20 18C18.8954 18 18 18.8954 18 20V28ZM18 12C18 13.1046 18.8954 14 20 14C21.1046 14 22 13.1046 22 12C22 10.8954 21.1046 10 20 10C18.8954 10 18 10.8954 18 12Z" fill="#657FDB"/>
<path d="M22 12C22 13.1046 21.1046 14 20 14C18.8954 14 18 13.1046 18 12C18 10.8954 18.8954 10 20 10C21.1046 10 22 10.8954 22 12Z" fill="white"/>
<path d="M22 12C22 13.1046 21.1046 14 20 14C18.8954 14 18 13.1046 18 12C18 10.8954 18.8954 10 20 10C21.1046 10 22 10.8954 22 12Z" fill="#FDFDFD"/>
<path d="M22 28C22 29.1046 21.1046 30 20 30C18.8954 30 18 29.1046 18 28V20C18 18.8954 18.8954 18 20 18C21.1046 18 22 18.8954 22 20V28Z" fill="white"/>
<path d="M22 28C22 29.1046 21.1046 30 20 30C18.8954 30 18 29.1046 18 28V20C18 18.8954 18.8954 18 20 18C21.1046 18 22 18.8954 22 20V28Z" fill="#FDFDFD"/>
</g>
<defs>
<clipPath id="clip0">
<rect width="40" height="40" fill="white"/>
</clipPath>
</defs>
</svg>
