<svg width="32" height="32" viewBox="0 0 32 32" fill="none" xmlns="http://www.w3.org/2000/svg">
<path fill-rule="evenodd" clip-rule="evenodd" d="M0.000245539 16C0.00024591 11.7565 1.68596 7.68687 4.68654 4.68629C7.68712 1.68571 11.7568 -1.76974e-06 16.0002 -1.39876e-06C20.2437 -1.02779e-06 24.3134 1.68571 27.314 4.68629C30.3145 7.68687 32.0002 11.7565 32.0002 16C32.0002 20.2435 30.3145 24.3131 27.314 27.3137C24.3134 30.3143 20.2437 32 16.0002 32C11.7568 32 7.68712 30.3143 4.68654 27.3137C1.68596 24.3131 0.000245168 20.2435 0.000245539 16ZM16.0002 24C16.253 23.9999 16.503 23.9468 16.734 23.8441C16.965 23.7415 17.172 23.5916 17.3416 23.4042C17.5111 23.2167 17.6396 22.9958 17.7186 22.7557C17.7976 22.5155 17.8254 22.2615 17.8002 22.01L17.8002 15.36C17.8002 14.72 16.8844 13.966 16.0002 13.9859C15.1412 14.0052 14.2819 14.72 14.2819 15.36L14.2002 22.01C14.1751 22.2615 14.2029 22.5155 14.2819 22.7557C14.3609 22.9958 14.4894 23.2167 14.6589 23.4042C14.8285 23.5916 15.0355 23.7415 15.2665 23.8441C15.4975 23.9468 15.7475 23.9999 16.0002 24ZM15.9962 12C16.5267 12 17.0354 11.7893 17.4105 11.4142C17.7855 11.0391 17.9962 10.5304 17.9962 10C17.9962 9.46957 17.7855 8.96086 17.4105 8.58579C17.0354 8.21071 16.5267 8 15.9962 8C15.4658 8 14.9571 8.21071 14.582 8.58579C14.207 8.96086 13.9962 9.46957 13.9962 10C13.9962 10.5304 14.207 11.0391 14.582 11.4142C14.9571 11.7893 15.4658 12 15.9962 12Z" fill="#60698B"/>
</svg>
