<svg width="10" height="10" viewBox="0 0 10 10" fill="none" xmlns="http://www.w3.org/2000/svg">
<g clip-path="url(#clip0)">
<path d="M5 0C4.0111 0 3.0444 0.293245 2.22215 0.842652C1.39991 1.39206 0.759043 2.17295 0.380605 3.08658C0.00216642 4.00021 -0.0968503 5.00555 0.0960759 5.97545C0.289002 6.94536 0.765206 7.83627 1.46447 8.53553C2.16373 9.2348 3.05465 9.711 4.02455 9.90393C4.99446 10.0969 5.99979 9.99784 6.91342 9.6194C7.82705 9.24096 8.60794 8.6001 9.15735 7.77785C9.70676 6.95561 10 5.98891 10 5C10 4.34339 9.87067 3.69321 9.6194 3.08658C9.36813 2.47995 8.99983 1.92876 8.53554 1.46447C8.07124 1.00017 7.52005 0.631876 6.91342 0.380602C6.30679 0.129329 5.65661 0 5 0ZM5 7.5C4.90111 7.5 4.80444 7.47068 4.72222 7.41574C4.63999 7.3608 4.57591 7.28271 4.53806 7.19134C4.50022 7.09998 4.49032 6.99945 4.50961 6.90246C4.5289 6.80547 4.57652 6.71637 4.64645 6.64645C4.71638 6.57652 4.80547 6.5289 4.90246 6.50961C4.99945 6.49032 5.09998 6.50022 5.19134 6.53806C5.28271 6.5759 5.3608 6.63999 5.41574 6.72222C5.47068 6.80444 5.5 6.90111 5.5 7C5.5 7.13261 5.44732 7.25979 5.35356 7.35355C5.25979 7.44732 5.13261 7.5 5 7.5ZM5.5 5.5C5.5 5.63261 5.44732 5.75979 5.35356 5.85355C5.25979 5.94732 5.13261 6 5 6C4.86739 6 4.74022 5.94732 4.64645 5.85355C4.55268 5.75979 4.5 5.63261 4.5 5.5V3C4.5 2.86739 4.55268 2.74022 4.64645 2.64645C4.74022 2.55268 4.86739 2.5 5 2.5C5.13261 2.5 5.25979 2.55268 5.35356 2.64645C5.44732 2.74022 5.5 2.86739 5.5 3V5.5Z" fill="#B55BB5"/>
</g>
<defs>
<clipPath id="clip0">
<rect width="10" height="10" fill="white"/>
</clipPath>
</defs>
</svg>
