<svg width="16" height="16" viewBox="0 0 16 16" fill="none" xmlns="http://www.w3.org/2000/svg">
<path d="M8.00072 1.06641C4.17191 1.06641 1.06738 4.17093 1.06738 7.99974C1.06738 11.8285 4.17191 14.9331 8.00072 14.9331C11.8295 14.9331 14.934 11.8285 14.934 7.99974C14.934 4.17093 11.8295 1.06641 8.00072 1.06641ZM8.00072 12.0235C7.65869 12.0235 7.38167 11.7465 7.38167 11.4045C7.38167 11.0625 7.65869 10.7855 8.00072 10.7855C8.34274 10.7855 8.61976 11.0625 8.61976 11.4045C8.61976 11.7465 8.34274 12.0235 8.00072 12.0235ZM8.97417 8.62653C8.83401 8.68065 8.71342 8.77575 8.62811 8.89943C8.54281 9.0231 8.49675 9.16962 8.49595 9.31986V9.67117C8.49595 9.73926 8.44024 9.79498 8.37214 9.79498H7.62929C7.56119 9.79498 7.50548 9.73926 7.50548 9.67117V9.33843C7.50548 8.98093 7.60917 8.62807 7.81345 8.33402C8.0131 8.04617 8.29167 7.82641 8.61976 7.70105C9.14595 7.49831 9.48643 7.05724 9.48643 6.57593C9.48643 5.89343 8.81941 5.33783 8.00072 5.33783C7.18203 5.33783 6.515 5.89343 6.515 6.57593V6.69355C6.515 6.76164 6.45929 6.81736 6.39119 6.81736H5.64833C5.58024 6.81736 5.52453 6.76164 5.52453 6.69355V6.57593C5.52453 5.96772 5.79072 5.39974 6.27357 4.97724C6.73786 4.57022 7.35072 4.34736 8.00072 4.34736C8.65072 4.34736 9.26357 4.57176 9.72786 4.97724C10.2107 5.39974 10.4769 5.96772 10.4769 6.57593C10.4769 7.47045 9.88726 8.27522 8.97417 8.62653Z" fill="#9FA3C0"/>
</svg>
