<svg width="123" height="20" viewBox="0 0 123 20" fill="none" xmlns="http://www.w3.org/2000/svg">
<path d="M10.0013 18.3327C14.6037 18.3327 18.3346 14.6017 18.3346 9.99935C18.3346 5.39698 14.6037 1.66602 10.0013 1.66602C5.39893 1.66602 1.66797 5.39698 1.66797 9.99935C1.66797 14.6017 5.39893 18.3327 10.0013 18.3327Z" stroke="#3246D3" stroke-width="2" stroke-linecap="round" stroke-linejoin="round"/>
<path d="M10.0004 6.46447V13.5355" stroke="#3246D3" stroke-width="2" stroke-linecap="round" stroke-linejoin="round"/>
<path d="M6.46484 10H13.5359" stroke="#3246D3" stroke-width="2" stroke-linecap="round" stroke-linejoin="round"/>
<path d="M28.3477 4.81818H26.5033V15H28.3477V4.81818ZM32.0653 10.5256C32.0653 9.42188 32.7314 8.78551 33.681 8.78551C34.6107 8.78551 35.1675 9.39702 35.1675 10.4162V15H36.9672V10.1378C36.9722 8.30824 35.9282 7.2642 34.3522 7.2642C33.2087 7.2642 32.4232 7.81108 32.0752 8.66122H31.9857V7.36364H30.2655V15H32.0653V10.5256ZM44.8323 9.3821C44.5837 8.08949 43.5496 7.2642 41.7599 7.2642C39.9204 7.2642 38.6675 8.16903 38.6725 9.58097C38.6675 10.6946 39.3536 11.4304 40.8202 11.7337L42.1228 12.0071C42.8238 12.1612 43.1519 12.4446 43.1519 12.8771C43.1519 13.3991 42.5851 13.7919 41.73 13.7919C40.9047 13.7919 40.3678 13.4339 40.2137 12.7479L38.4587 12.9169C38.6824 14.3189 39.8607 15.1491 41.735 15.1491C43.6441 15.1491 44.9914 14.1598 44.9964 12.7131C44.9914 11.6243 44.2904 10.9581 42.8486 10.6449L41.5461 10.3665C40.7705 10.1925 40.4623 9.92401 40.4672 9.48153C40.4623 8.96449 41.034 8.60653 41.7847 8.60653C42.615 8.60653 43.0525 9.05895 43.1917 9.56108L44.8323 9.3821ZM49.8611 15.1491C51.6409 15.1491 52.8639 14.2791 53.1821 12.9517L51.5017 12.7628C51.2581 13.4091 50.6615 13.7472 49.8859 13.7472C48.7226 13.7472 47.952 12.9815 47.9371 11.674H53.2567V11.1222C53.2567 8.44247 51.6459 7.2642 49.7666 7.2642C47.5791 7.2642 46.1523 8.87003 46.1523 11.2266C46.1523 13.6229 47.5592 15.1491 49.8611 15.1491ZM47.942 10.4609C47.9967 9.48651 48.7176 8.66619 49.7915 8.66619C50.8256 8.66619 51.5216 9.42188 51.5315 10.4609H47.942ZM54.7792 15H56.5789V10.5107C56.5789 9.54119 57.3097 8.85511 58.2991 8.85511C58.6024 8.85511 58.9802 8.9098 59.1343 8.95952V7.30398C58.9703 7.27415 58.6869 7.25426 58.488 7.25426C57.613 7.25426 56.8822 7.75142 56.6038 8.63636H56.5242V7.36364H54.7792V15ZM64.5534 7.36364H63.047V5.53409H61.2472V7.36364H60.1634V8.75568H61.2472V13.0014C61.2373 14.4382 62.2813 15.1442 63.6336 15.1044C64.1457 15.0895 64.4987 14.9901 64.6926 14.9254L64.3893 13.5185C64.2899 13.5433 64.086 13.5881 63.8623 13.5881C63.4099 13.5881 63.047 13.429 63.047 12.7031V8.75568H64.5534V7.36364ZM76.3522 7.36364H74.4381L72.6782 13.0362H72.5986L70.8437 7.36364H68.9246L71.6441 15H73.6327L76.3522 7.36364ZM79.5763 15.1541C80.7744 15.1541 81.4903 14.5923 81.8184 13.951H81.8781V15H83.6082V9.8892C83.6082 7.87074 81.9626 7.2642 80.5059 7.2642C78.9001 7.2642 77.6672 7.98011 77.2694 9.37216L78.9498 9.6108C79.1288 9.08878 79.6359 8.64134 80.5159 8.64134C81.3511 8.64134 81.8085 9.06889 81.8085 9.8196V9.84943C81.8085 10.3665 81.2666 10.3913 79.9193 10.5355C78.4378 10.6946 77.0209 11.1371 77.0209 12.8572C77.0209 14.3587 78.1196 15.1541 79.5763 15.1541ZM80.0436 13.8317C79.2929 13.8317 78.7559 13.4886 78.7559 12.8274C78.7559 12.1364 79.3575 11.848 80.1629 11.7337C80.6352 11.669 81.5798 11.5497 81.8135 11.3608V12.2607C81.8135 13.1108 81.1274 13.8317 80.0436 13.8317ZM85.4179 15H87.2176V10.5107C87.2176 9.54119 87.9484 8.85511 88.9378 8.85511C89.241 8.85511 89.6189 8.9098 89.773 8.95952V7.30398C89.6089 7.27415 89.3256 7.25426 89.1267 7.25426C88.2517 7.25426 87.5209 7.75142 87.2425 8.63636H87.1629V7.36364H85.4179V15ZM90.9687 15H92.7684V7.36364H90.9687V15ZM91.8735 6.27983C92.4452 6.27983 92.9126 5.84233 92.9126 5.3054C92.9126 4.76349 92.4452 4.32599 91.8735 4.32599C91.2968 4.32599 90.8295 4.76349 90.8295 5.3054C90.8295 5.84233 91.2968 6.27983 91.8735 6.27983ZM96.8165 15.1541C98.0146 15.1541 98.7306 14.5923 99.0587 13.951H99.1183V15H100.848V9.8892C100.848 7.87074 99.2029 7.2642 97.7462 7.2642C96.1404 7.2642 94.9074 7.98011 94.5097 9.37216L96.1901 9.6108C96.3691 9.08878 96.8762 8.64134 97.7561 8.64134C98.5914 8.64134 99.0487 9.06889 99.0487 9.8196V9.84943C99.0487 10.3665 98.5068 10.3913 97.1595 10.5355C95.678 10.6946 94.2611 11.1371 94.2611 12.8572C94.2611 14.3587 95.3598 15.1541 96.8165 15.1541ZM97.2838 13.8317C96.5331 13.8317 95.9962 13.4886 95.9962 12.8274C95.9962 12.1364 96.5977 11.848 97.4031 11.7337C97.8754 11.669 98.82 11.5497 99.0537 11.3608V12.2607C99.0537 13.1108 98.3676 13.8317 97.2838 13.8317ZM102.738 15H104.508V13.7969H104.612C104.895 14.3537 105.487 15.1342 106.799 15.1342C108.599 15.1342 109.946 13.7074 109.946 11.1918C109.946 8.64631 108.559 7.2642 106.794 7.2642C105.447 7.2642 104.885 8.07457 104.612 8.62642H104.537V4.81818H102.738V15ZM104.503 11.1818C104.503 9.70028 105.139 8.74077 106.297 8.74077C107.495 8.74077 108.112 9.75994 108.112 11.1818C108.112 12.6136 107.486 13.6577 106.297 13.6577C105.149 13.6577 104.503 12.6634 104.503 11.1818ZM113.276 4.81818H111.476V15H113.276V4.81818ZM118.508 15.1491C120.287 15.1491 121.51 14.2791 121.829 12.9517L120.148 12.7628C119.905 13.4091 119.308 13.7472 118.532 13.7472C117.369 13.7472 116.598 12.9815 116.584 11.674H121.903V11.1222C121.903 8.44247 120.292 7.2642 118.413 7.2642C116.226 7.2642 114.799 8.87003 114.799 11.2266C114.799 13.6229 116.206 15.1491 118.508 15.1491ZM116.589 10.4609C116.643 9.48651 117.364 8.66619 118.438 8.66619C119.472 8.66619 120.168 9.42188 120.178 10.4609H116.589Z" fill="#3246D3"/>
</svg>
