<svg width="24" height="24" viewBox="0 0 24 24" fill="none" xmlns="http://www.w3.org/2000/svg">
<path fill-rule="evenodd" clip-rule="evenodd" d="M16.613 3.03548C16.677 3.09934 16.7278 3.1752 16.7625 3.25873C16.7971 3.34225 16.815 3.4318 16.815 3.52222C16.815 3.61265 16.7971 3.7022 16.7625 3.78572C16.7278 3.86925 16.677 3.94511 16.613 4.00898L8.84835 11.7722L16.613 19.5355C16.7421 19.6646 16.8146 19.8397 16.8146 20.0222C16.8146 20.2048 16.7421 20.3799 16.613 20.509C16.4839 20.6381 16.3088 20.7106 16.1262 20.7106C15.9437 20.7106 15.7686 20.6381 15.6395 20.509L7.38948 12.259C7.32545 12.1951 7.27466 12.1192 7.24 12.0357C7.20534 11.9522 7.1875 11.8627 7.1875 11.7722C7.1875 11.6818 7.20534 11.5923 7.24 11.5087C7.27466 11.4252 7.32545 11.3493 7.38948 11.2855L15.6395 3.03548C15.7033 2.97145 15.7792 2.92065 15.8627 2.886C15.9463 2.85134 16.0358 2.8335 16.1262 2.8335C16.2167 2.8335 16.3062 2.85134 16.3897 2.886C16.4732 2.92065 16.5491 2.97145 16.613 3.03548Z" fill="#3246D3" stroke="#3246D3" stroke-width="1.8"/>
</svg>
