<?xml version="1.0" encoding="UTF-8"?>
<svg width="20px" height="24px" viewBox="0 0 20 24" version="1.1" xmlns="http://www.w3.org/2000/svg" xmlns:xlink="http://www.w3.org/1999/xlink">
    <title>Artboard</title>
    <g id="Artboard" stroke="none" stroke-width="1" fill="none" fill-rule="evenodd" stroke-linecap="round" stroke-linejoin="round">
        <g id="link" transform="translate(1.000000, 2.000000)" stroke="#6B6B6B" stroke-width="2">
            <path d="M6.0002,11 C6.4297,11.5741 6.9776,12.0491 7.6068,12.3929 C8.2359,12.7367 8.9317,12.9411 9.6469,12.9923 C10.362,13.0435 11.0798,12.9403 11.7515,12.6897 C12.4233,12.4392 13.0333,12.047 13.5402,11.54 L16.5402,8.54 C17.451,7.59695 17.955,6.33394 17.9436,5.02296 C17.9322,3.71198 17.4063,2.45791 16.4793,1.53087 C15.5523,0.60383 14.2982,0.07799 12.9872,0.0666 C11.6762,0.0552 10.4132,0.55918 9.4702,1.46997 L7.7502,3.17997" id="Path"></path>
            <path d="M12.0002,9.0012 C11.5707,8.4271 11.0228,7.95202 10.3936,7.60826 C9.7645,7.2645 9.0687,7.06009 8.3535,7.00887 C7.63841,6.95765 6.92061,7.06083 6.24885,7.31142 C5.5771,7.56201 4.96709,7.95413 4.4602,8.4612 L1.4602,11.4612 C0.54941,12.4042 0.04544,13.6672 0.05683,14.9782 C0.06822,16.2892 0.59407,17.5433 1.52111,18.4703 C2.44815,19.3973 3.70221,19.9232 5.01319,19.9346 C6.32418,19.946 7.58719,19.442 8.5302,18.5312 L10.2402,16.8212" id="Path"></path>
        </g>
    </g>
</svg>