<svg width="16" height="16" viewBox="0 0 16 16" fill="none" xmlns="http://www.w3.org/2000/svg">
<path d="M8.00102 0C5.421 0 3.32192 2.099 3.32192 4.6791V7.35145C3.32192 7.38182 3.28445 7.43299 3.25501 7.44277C3.00198 7.52715 2.79648 7.60027 2.60837 7.67279C2.38404 7.75927 2.21484 8.00787 2.21484 8.25109V14.3914C2.21484 14.633 2.38295 14.8818 2.60586 14.9701C4.33054 15.6535 6.14573 16 8.00099 16C9.85625 16 11.6714 15.6535 13.3962 14.97C13.619 14.8817 13.7871 14.633 13.7871 14.3914V8.25109C13.7871 8.00787 13.6179 7.75927 13.3934 7.6727C13.2053 7.60019 12.9998 7.52707 12.7469 7.44269C12.7176 7.4329 12.6801 7.38171 12.6801 7.35134V4.67901C12.68 2.099 10.581 0 8.00102 0ZM6.72655 10.1212C6.72655 9.41685 7.29714 8.84686 8.00094 8.84686C8.70467 8.84686 9.27527 9.4168 9.27527 10.1212C9.27527 10.5879 9.01207 10.9787 8.63809 11.2002V13.3071C8.63809 13.6594 8.35311 13.9443 8.00091 13.9443C7.64868 13.9443 7.36373 13.6594 7.36373 13.3071V11.2002C6.98977 10.9787 6.72655 10.5879 6.72655 10.1212ZM11.0712 4.67901V6.98477C10.0644 6.76812 9.03145 6.6584 8.00143 6.65832C6.97187 6.65832 5.93917 6.76806 4.93079 6.98452V4.67901C4.93079 2.98609 6.30804 1.60887 8.00094 1.60887C9.69381 1.60885 11.0712 2.98609 11.0712 4.67901Z" fill="white"/>
</svg>
