<svg width="24" height="24" viewBox="0 0 24 24" fill="none" xmlns="http://www.w3.org/2000/svg">
<g clip-path="url(#clip0)">
<path d="M22.7321 15.7493C22.9329 16.4728 22.8391 17.231 22.4683 17.8843C21.7033 19.2315 19.9814 19.708 18.6299 18.9465C18.1785 18.6922 18.0188 18.1201 18.2731 17.6687C18.5274 17.2173 19.0995 17.0575 19.5509 17.3119C20.2708 17.7211 21.1484 17.0506 20.9243 16.2509C20.8575 16.01 20.7001 15.8094 20.4812 15.6861L20.4205 15.6516C19.4609 15.1066 18.937 14.0523 19.0858 12.9656C19.1771 12.3003 19.1748 11.6113 19.0784 10.9466C18.8467 9.57522 19.8672 8.53176 20.4783 8.20855C20.7001 8.08355 20.8575 7.88299 20.9243 7.6421C20.9908 7.40261 20.9597 7.15153 20.8368 6.93507C20.5809 6.48452 20.004 6.32561 19.5508 6.58105C19.5508 6.58105 18.8009 6.97607 18.1911 6.97607C17.5776 6.97607 16.9644 6.78259 16.4572 6.3765C15.9035 5.93326 15.2902 5.57581 14.6343 5.31409C13.6038 4.90289 12.938 3.92359 12.938 2.81921V2.8003C12.8864 1.55596 11.1133 1.556 11.0618 2.8003C11.0618 3.91079 10.3909 4.8921 9.35257 5.30026C8.68949 5.56094 8.06938 5.91929 7.5094 6.36539C6.51036 7.19323 5.1389 7.0384 4.44619 6.5794C3.99563 6.32561 3.41886 6.48443 3.16301 6.93498C2.89899 7.38253 3.08397 7.97187 3.53622 8.21685C4.49595 8.76196 5.03431 9.85443 4.8761 10.9355C4.82578 11.2795 4.80022 11.6315 4.80022 11.9816C4.80022 12.3174 4.82367 12.6548 4.86982 12.9847C5.02216 14.0731 4.49849 15.1295 3.53584 15.6762L3.52144 15.6843C3.29963 15.8093 3.14232 16.0099 3.07548 16.2508C3.00902 16.4903 3.04012 16.7414 3.16301 16.9578C3.41886 17.4084 3.99573 17.5672 4.44896 17.3118C4.90031 17.0576 5.47239 17.2173 5.7267 17.6686C5.98101 18.12 5.8213 18.6921 5.36995 18.9464C4.93337 19.1923 4.45806 19.3091 3.98897 19.3092C3.00579 19.3092 2.04942 18.7962 1.53156 17.8842C1.16065 17.231 1.06689 16.4727 1.26764 15.7492C1.46876 15.0243 1.94108 14.4213 2.59763 14.0514C2.88276 13.8895 3.05611 13.5614 3.01184 13.2448C2.89247 12.3937 2.89505 11.514 3.01976 10.6638C3.06685 10.342 2.88735 10.0058 2.5951 9.83989C1.26342 9.12556 0.756908 7.3081 1.53156 6.00854C2.29651 4.66134 4.01834 4.18485 5.3699 4.94637C5.58003 5.08131 6.01037 5.17995 6.34034 4.89787C7.04656 4.33527 7.8291 3.88316 8.66613 3.55409C8.98175 3.42998 9.18568 3.13407 9.18568 2.80016C9.34046 -0.933628 14.6602 -0.931846 14.8141 2.80016C14.8141 3.13224 15.0164 3.4464 15.3297 3.57135C16.1576 3.90174 16.9314 4.35271 17.6297 4.91171C17.9682 5.19421 18.4123 5.10636 18.6271 4.94787C19.9814 4.1848 21.7033 4.66134 22.4683 6.0085C23.2431 7.30983 22.7366 9.12546 21.4022 9.84126L21.338 9.87775C21.0513 10.0405 20.8895 10.362 20.9352 10.6777C20.9973 11.1068 21.0288 11.5455 21.0288 11.9815C21.0288 12.3957 21.0005 12.8124 20.9446 13.2201C20.9012 13.5371 21.0629 13.8587 21.347 14.02L21.405 14.0529C22.0586 14.4215 22.531 15.0244 22.7321 15.7493V15.7493ZM16.268 11.9465C16.268 14.2741 14.3744 16.1678 12.0467 16.1678C6.44662 15.9359 6.44826 7.95621 12.0468 7.72516C14.3744 7.72516 16.268 9.61884 16.268 11.9465V11.9465ZM14.3919 11.9465C14.3919 10.6533 13.3399 9.6013 12.0467 9.6013C8.93555 9.73014 8.93648 14.1633 12.0467 14.2916C13.3399 14.2916 14.3919 13.2396 14.3919 11.9465V11.9465ZM18.238 23.0626C18.238 19.9073 15.6796 17.3404 12.5349 17.3404H11.6525C8.50774 17.3404 5.94935 19.9073 5.94935 23.0626C5.94935 23.5807 6.36932 24.0006 6.88742 24.0006C7.40551 24.0006 7.82548 23.5807 7.82548 23.0626C7.82548 20.9418 9.54229 19.2165 11.6525 19.2165H12.5349C14.6451 19.2165 16.3619 20.9418 16.3619 23.0626C16.3619 23.5807 16.7818 24.0006 17.2999 24.0006C17.818 24.0006 18.238 23.5807 18.238 23.0626Z" fill="#9FA3C0"/>
</g>
<defs>
<clipPath id="clip0">
<rect width="24" height="24" fill="white"/>
</clipPath>
</defs>
</svg>
