<svg width="24" height="24" viewBox="0 0 24 24" fill="none" xmlns="http://www.w3.org/2000/svg">
<path d="M19.5496 11.373H18.2917C18.2917 12.5052 17.9772 13.5744 17.4111 14.5178L18.3546 15.4612C19.1093 14.2033 19.4867 12.8196 19.5496 11.373Z" fill="#9FA3C0"/>
<path d="M16.4048 11.3729V6.34126C16.4048 3.88834 14.3922 1.93858 11.9393 2.00148C10.1153 2.00148 8.41713 3.19649 7.85107 4.95756L16.0275 13.134C16.2791 12.5679 16.4048 11.939 16.4048 11.3729Z" fill="#9FA3C0"/>
<path d="M16.5305 17.4108L20.8703 21.7506L21.7508 20.8701L3.1967 2.31592L2.31616 3.19645L7.59938 8.47967V11.3729C7.59938 13.8258 9.54913 15.7755 12.0021 15.7755C12.8197 15.7755 13.5744 15.5868 14.2663 15.1466L15.65 16.5303C14.5808 17.285 13.3229 17.6624 12.0021 17.6624C8.6057 17.7882 5.8383 15.0837 5.71251 11.7502V11.3729H4.45461C4.5175 15.2724 7.47358 18.5429 11.3731 18.9203V20.8072H9.48624C9.10886 20.8072 8.85728 21.0587 8.85728 21.4361C8.85728 21.8135 9.10886 22.0651 9.48624 22.0651H14.5179C14.8952 22.0651 15.1468 21.8135 15.1468 21.4361C15.1468 21.0587 14.8952 20.8072 14.5179 20.8072H12.631V18.9203C14.0147 18.7945 15.3984 18.2913 16.5305 17.4108Z" fill="#9FA3C0"/>
</svg>
