<svg width="188" height="43" viewBox="0 0 188 43" fill="none" xmlns="http://www.w3.org/2000/svg">
<path d="M6.13231 24.832H11.5083V28H2.02831V11.152H6.13231V24.832ZM19.5618 28.192C18.2498 28.192 17.0658 27.912 16.0098 27.352C14.9698 26.792 14.1458 25.992 13.5378 24.952C12.9458 23.912 12.6498 22.696 12.6498 21.304C12.6498 19.928 12.9538 18.72 13.5618 17.68C14.1698 16.624 15.0018 15.816 16.0578 15.256C17.1138 14.696 18.2978 14.416 19.6098 14.416C20.9218 14.416 22.1058 14.696 23.1618 15.256C24.2178 15.816 25.0498 16.624 25.6578 17.68C26.2658 18.72 26.5698 19.928 26.5698 21.304C26.5698 22.68 26.2578 23.896 25.6338 24.952C25.0258 25.992 24.1858 26.792 23.1138 27.352C22.0578 27.912 20.8738 28.192 19.5618 28.192ZM19.5618 24.64C20.3458 24.64 21.0098 24.352 21.5538 23.776C22.1138 23.2 22.3938 22.376 22.3938 21.304C22.3938 20.232 22.1218 19.408 21.5778 18.832C21.0498 18.256 20.3938 17.968 19.6098 17.968C18.8098 17.968 18.1458 18.256 17.6178 18.832C17.0898 19.392 16.8258 20.216 16.8258 21.304C16.8258 22.376 17.0818 23.2 17.5938 23.776C18.1218 24.352 18.7778 24.64 19.5618 24.64ZM27.9311 21.28C27.9311 19.904 28.1871 18.696 28.6991 17.656C29.2271 16.616 29.9391 15.816 30.8351 15.256C31.7311 14.696 32.7311 14.416 33.8351 14.416C34.7791 14.416 35.6031 14.608 36.3071 14.992C37.0271 15.376 37.5791 15.88 37.9631 16.504V14.608H42.0671V28H37.9631V26.104C37.5631 26.728 37.0031 27.232 36.2831 27.616C35.5791 28 34.7551 28.192 33.8111 28.192C32.7231 28.192 31.7311 27.912 30.8351 27.352C29.9391 26.776 29.2271 25.968 28.6991 24.928C28.1871 23.872 27.9311 22.656 27.9311 21.28ZM37.9631 21.304C37.9631 20.28 37.6751 19.472 37.0991 18.88C36.5391 18.288 35.8511 17.992 35.0351 17.992C34.2191 17.992 33.5231 18.288 32.9471 18.88C32.3871 19.456 32.1071 20.256 32.1071 21.28C32.1071 22.304 32.3871 23.12 32.9471 23.728C33.5231 24.32 34.2191 24.616 35.0351 24.616C35.8511 24.616 36.5391 24.32 37.0991 23.728C37.6751 23.136 37.9631 22.328 37.9631 21.304ZM52.4761 14.464C54.0441 14.464 55.2921 14.976 56.2201 16C57.1641 17.008 57.6361 18.4 57.6361 20.176V28H53.5561V20.728C53.5561 19.832 53.3241 19.136 52.8601 18.64C52.3961 18.144 51.7721 17.896 50.9881 17.896C50.2041 17.896 49.5801 18.144 49.1161 18.64C48.6521 19.136 48.4201 19.832 48.4201 20.728V28H44.3161V14.608H48.4201V16.384C48.8361 15.792 49.3961 15.328 50.1001 14.992C50.8041 14.64 51.5961 14.464 52.4761 14.464Z" fill="#293A3E"/>
<path d="M102.208 18.016H100V28H95.896V18.016H94.408V14.608H95.896V14.224C95.896 12.576 96.368 11.328 97.312 10.48C98.256 9.616 99.64 9.184 101.464 9.184C101.768 9.184 101.992 9.192 102.136 9.208V12.688C101.352 12.64 100.8 12.752 100.48 13.024C100.16 13.296 100 13.784 100 14.488V14.608H102.208V18.016ZM111.336 18.016H109.128V28H105.024V18.016H103.536V14.608H105.024V14.224C105.024 12.576 105.496 11.328 106.44 10.48C107.384 9.616 108.768 9.184 110.592 9.184C110.896 9.184 111.12 9.192 111.264 9.208V12.688C110.48 12.64 109.928 12.752 109.608 13.024C109.288 13.296 109.128 13.784 109.128 14.488V14.608H111.336V18.016ZM115.329 13.216C114.609 13.216 114.017 13.008 113.553 12.592C113.105 12.16 112.881 11.632 112.881 11.008C112.881 10.368 113.105 9.84 113.553 9.424C114.017 8.992 114.609 8.776 115.329 8.776C116.033 8.776 116.609 8.992 117.057 9.424C117.521 9.84 117.753 10.368 117.753 11.008C117.753 11.632 117.521 12.16 117.057 12.592C116.609 13.008 116.033 13.216 115.329 13.216ZM117.369 14.608V28H113.265V14.608H117.369ZM119.287 21.304C119.287 19.912 119.567 18.696 120.127 17.656C120.703 16.616 121.495 15.816 122.503 15.256C123.527 14.696 124.695 14.416 126.007 14.416C127.687 14.416 129.087 14.856 130.207 15.736C131.343 16.616 132.087 17.856 132.439 19.456H128.071C127.703 18.432 126.991 17.92 125.935 17.92C125.183 17.92 124.583 18.216 124.135 18.808C123.687 19.384 123.463 20.216 123.463 21.304C123.463 22.392 123.687 23.232 124.135 23.824C124.583 24.4 125.183 24.688 125.935 24.688C126.991 24.688 127.703 24.176 128.071 23.152H132.439C132.087 24.72 131.343 25.952 130.207 26.848C129.071 27.744 127.671 28.192 126.007 28.192C124.695 28.192 123.527 27.912 122.503 27.352C121.495 26.792 120.703 25.992 120.127 24.952C119.567 23.912 119.287 22.696 119.287 21.304ZM147.018 21.088C147.018 21.472 146.994 21.872 146.946 22.288H137.658C137.722 23.12 137.986 23.76 138.45 24.208C138.93 24.64 139.514 24.856 140.202 24.856C141.226 24.856 141.938 24.424 142.338 23.56H146.706C146.482 24.44 146.074 25.232 145.482 25.936C144.906 26.64 144.178 27.192 143.298 27.592C142.418 27.992 141.434 28.192 140.346 28.192C139.034 28.192 137.866 27.912 136.842 27.352C135.818 26.792 135.018 25.992 134.442 24.952C133.866 23.912 133.578 22.696 133.578 21.304C133.578 19.912 133.858 18.696 134.418 17.656C134.994 16.616 135.794 15.816 136.818 15.256C137.842 14.696 139.018 14.416 140.346 14.416C141.642 14.416 142.794 14.688 143.802 15.232C144.81 15.776 145.594 16.552 146.154 17.56C146.73 18.568 147.018 19.744 147.018 21.088ZM142.818 20.008C142.818 19.304 142.578 18.744 142.098 18.328C141.618 17.912 141.018 17.704 140.298 17.704C139.61 17.704 139.026 17.904 138.546 18.304C138.082 18.704 137.794 19.272 137.682 20.008H142.818ZM152.807 16.84C153.287 16.104 153.887 15.528 154.607 15.112C155.327 14.68 156.127 14.464 157.007 14.464V18.808H155.879C154.855 18.808 154.087 19.032 153.575 19.48C153.063 19.912 152.807 20.68 152.807 21.784V28H148.703V14.608H152.807V16.84ZM160.889 28.192C160.169 28.192 159.577 27.984 159.113 27.568C158.665 27.136 158.441 26.608 158.441 25.984C158.441 25.344 158.665 24.808 159.113 24.376C159.577 23.944 160.169 23.728 160.889 23.728C161.593 23.728 162.169 23.944 162.617 24.376C163.081 24.808 163.313 25.344 163.313 25.984C163.313 26.608 163.081 27.136 162.617 27.568C162.169 27.984 161.593 28.192 160.889 28.192ZM164.926 21.28C164.926 19.904 165.182 18.696 165.694 17.656C166.222 16.616 166.934 15.816 167.83 15.256C168.726 14.696 169.726 14.416 170.83 14.416C171.774 14.416 172.598 14.608 173.302 14.992C174.022 15.376 174.574 15.88 174.958 16.504V14.608H179.062V28H174.958V26.104C174.558 26.728 173.998 27.232 173.278 27.616C172.574 28 171.75 28.192 170.806 28.192C169.718 28.192 168.726 27.912 167.83 27.352C166.934 26.776 166.222 25.968 165.694 24.928C165.182 23.872 164.926 22.656 164.926 21.28ZM174.958 21.304C174.958 20.28 174.67 19.472 174.094 18.88C173.534 18.288 172.846 17.992 172.03 17.992C171.214 17.992 170.518 18.288 169.942 18.88C169.382 19.456 169.102 20.256 169.102 21.28C169.102 22.304 169.382 23.12 169.942 23.728C170.518 24.32 171.214 24.616 172.03 24.616C172.846 24.616 173.534 24.32 174.094 23.728C174.67 23.136 174.958 22.328 174.958 21.304ZM184.095 13.216C183.375 13.216 182.783 13.008 182.319 12.592C181.871 12.16 181.647 11.632 181.647 11.008C181.647 10.368 181.871 9.84 182.319 9.424C182.783 8.992 183.375 8.776 184.095 8.776C184.799 8.776 185.375 8.992 185.823 9.424C186.287 9.84 186.519 10.368 186.519 11.008C186.519 11.632 186.287 12.16 185.823 12.592C185.375 13.008 184.799 13.216 184.095 13.216ZM186.135 14.608V28H182.031V14.608H186.135Z" fill="#293A3E"/>
<path d="M90 20C90 27.732 83.732 34 76 34C68.268 34 62 27.732 62 20C62 12.268 68.268 6 76 6C83.732 6 90 12.268 90 20ZM65.7578 20C65.7578 25.6566 70.3434 30.2422 76 30.2422C81.6566 30.2422 86.2422 25.6566 86.2422 20C86.2422 14.3434 81.6566 9.75784 76 9.75784C70.3434 9.75784 65.7578 14.3434 65.7578 20Z" fill="#3246D3"/>
<rect x="78" y="21" width="3" height="7" transform="rotate(-180 78 21)" fill="#3246D3"/>
<path fill-rule="evenodd" clip-rule="evenodd" d="M93.1844 5.29456C93.1844 3.47502 91.7093 2 89.8898 2C88.0703 2 86.5952 3.47502 86.5952 5.29456C86.5952 5.35668 86.597 5.4184 86.6003 5.47968C86.6504 6.38246 86.5881 7.37968 85.9487 8.01902L83.621 10.3467C83.1329 10.8349 83.1329 11.6263 83.621 12.1145C84.1092 12.6026 84.9006 12.6026 85.3888 12.1145L88.4115 9.09173C88.7929 8.71038 89.3505 8.58912 89.8898 8.58912C91.7093 8.58912 93.1844 7.11409 93.1844 5.29456Z" fill="#3246D3"/>
<path fill-rule="evenodd" clip-rule="evenodd" d="M66 4C66 1.79086 64.2091 0 62 0C59.7908 0 58 1.79086 58 4C58 6.20914 59.7908 8 62 8C62.8238 8 63.6929 8.14661 64.2754 8.72915L67.1699 11.6236C67.7557 12.2094 68.7054 12.2094 69.2912 11.6236C69.877 11.0379 69.877 10.0881 69.2912 9.50232L66.8901 7.10124C66.1069 6.31798 66 5.10769 66 4Z" fill="#3246D3"/>
<rect x="83" y="21" width="3" height="7" transform="rotate(-180 83 21)" fill="#3246D3"/>
</svg>
