<svg width="128" height="128" viewBox="0 0 128 128" fill="none" xmlns="http://www.w3.org/2000/svg">
<path d="M53.9868 46.395L53.4043 46.9761H59.5327L58.9502 46.395C58.5828 46.0289 58.3675 45.5437 58.3675 45.0826C58.3675 44.6216 58.5828 44.1363 58.9502 43.7702L59.5327 43.1891H53.4043L53.9868 43.7702C54.3542 44.1363 54.5695 44.6216 54.5695 45.0826C54.5695 45.5437 54.3542 46.0289 53.9868 46.395Z" fill="#9FA3C0"/>
<path d="M42.5929 55.8624C42.0151 56.4388 41.9736 56.4435 37.4787 56.4435H48.1389L47.5563 55.8624C47.1889 55.4963 46.9736 55.0111 46.9736 54.55C46.9736 54.0889 47.1889 53.6037 47.5563 53.2376L48.1389 52.6565H37.4787C41.9736 52.6565 42.0151 52.6613 42.5929 53.2376C42.9603 53.6037 43.1756 54.0889 43.1756 54.55C43.1756 55.0111 42.9603 55.4963 42.5929 55.8624Z" fill="#9FA3C0"/>
<path d="M63.4817 55.8624L62.8992 56.4435H71.6603C69.1817 56.4435 68.9937 56.4094 68.4451 55.8624C68.0777 55.4963 67.8624 55.0111 67.8624 54.55C67.8624 54.0889 68.0777 53.6037 68.4451 53.2376C68.9937 52.6906 69.1817 52.6565 71.6603 52.6565H62.8992L63.4817 53.2376C63.8491 53.6037 64.0644 54.0889 64.0644 54.55C64.0644 55.0111 63.8491 55.4963 63.4817 55.8624Z" fill="#9FA3C0"/>
<path d="M55.8857 65.3298L55.3032 65.9109H61.4317L60.8492 65.3298C60.4818 64.9637 60.2665 64.4785 60.2665 64.0174C60.2665 63.5563 60.4818 63.0711 60.8492 62.705L61.4317 62.1239H55.3032L55.8857 62.705C56.2532 63.0711 56.4685 63.5563 56.4685 64.0174C56.4685 64.4785 56.2532 64.9637 55.8857 65.3298Z" fill="#9FA3C0"/>
<path d="M36.8959 65.3298C36.387 65.8375 36.1007 65.9109 34.6302 65.9109H42.4419L41.8594 65.3298C41.492 64.9637 41.2767 64.4785 41.2767 64.0174C41.2767 63.5563 41.492 63.0711 41.8594 62.705L42.4419 62.1239H34.6302C36.1007 62.1239 36.387 62.1973 36.8959 62.705C37.2634 63.0711 37.4787 63.5563 37.4787 64.0174C37.4787 64.4785 37.2634 64.9637 36.8959 65.3298Z" fill="#9FA3C0"/>
<path d="M48.2898 74.7972L47.7073 75.3783H53.8358L53.2533 74.7972C52.8858 74.4311 52.6705 73.9459 52.6705 73.4848C52.6705 73.0237 52.8858 72.5385 53.2533 72.1724L53.8358 71.5913H47.7073L48.2898 72.1724C48.6573 72.5385 48.8726 73.0237 48.8726 73.4848C48.8726 73.9459 48.6573 74.4311 48.2898 74.7972Z" fill="#9FA3C0"/>
<path d="M65.3807 74.7972L64.7981 75.3783H72.6098C71.1393 75.3783 70.853 75.3049 70.3441 74.7972C69.9767 74.4311 69.7614 73.9459 69.7614 73.4848C69.7614 73.0237 69.9767 72.5385 70.3441 72.1724C70.853 71.6647 71.1393 71.5913 72.6098 71.5913H64.7981L65.3807 72.1724C65.7481 72.5385 65.9634 73.0237 65.9634 73.4848C65.9634 73.9459 65.7481 74.4311 65.3807 74.7972Z" fill="#9FA3C0"/>
<path fill-rule="evenodd" clip-rule="evenodd" d="M9.57674 11.5811C8.82285 12.3325 8.80623 13.4379 9.53758 14.1671C9.95725 14.5855 10.4583 14.7439 11.7333 14.8615C15.1201 15.1737 18.0013 17.2329 19.5179 20.4248L20.2692 22.0058L20.3879 58.5737C20.5009 93.4144 20.5272 95.1973 20.9459 96.3249C21.7551 98.5036 22.8119 100.211 24.2449 101.653C25.8427 103.261 27.0856 104.056 29.3795 104.94L30.951 105.546L40.2638 105.625L49.5764 105.704L50.1741 105.108C50.8962 104.388 50.955 103.349 50.3182 102.564L49.8648 102.005L40.6452 101.887L31.4257 101.769L29.84 101.02C27.6334 99.9772 26.2588 98.6354 25.1911 96.4813L24.3045 94.6929L24.1858 58.1128C24.0724 23.1386 24.0477 21.4804 23.6237 20.3491C22.9259 18.4856 22.1596 17.0932 21.2063 15.9559L20.3259 14.9053L25.757 14.8409C28.7443 14.8057 41.2349 14.8057 53.5139 14.8409L75.8393 14.9053L77.6329 15.7893C79.7932 16.8539 81.1389 18.2246 82.1842 20.4248L82.9355 22.0058L83.0542 42.8687C83.1686 62.9625 83.1895 63.7497 83.6251 64.2295C84.3037 64.9767 85.723 64.9116 86.3601 64.1038C86.8491 63.4839 86.8522 63.3571 86.8522 43.3191C86.8522 30.0463 86.7655 22.678 86.5984 21.7535C85.6909 16.7294 81.1061 12.1579 76.0674 11.253C75.1134 11.0817 64.2569 11 42.4092 11H10.1593L9.57674 11.5811ZM101.466 20.2614C98.3275 21.0183 96.0354 23.7151 95.7266 27.014C95.4465 30.0031 96.9357 32.7148 99.6855 34.223C101.12 35.01 101.37 35.0687 103.246 35.0604C104.956 35.053 105.448 34.9558 106.476 34.4235C108.265 33.4966 109.01 32.7794 109.908 31.1184C110.643 29.7591 110.715 29.4491 110.718 27.6152C110.721 25.7492 110.66 25.4919 109.873 24.065C108.178 20.9928 104.79 19.4598 101.466 20.2614ZM105.326 24.4607C106.536 25.3613 106.925 26.1298 106.925 27.6152C106.925 29.9193 105.557 31.2838 103.246 31.2838C101.745 31.2838 100.986 30.8962 100.056 29.6543C99.2967 28.6398 99.37 26.5338 100.203 25.4451C100.553 24.9878 101.194 24.4332 101.627 24.2129C102.631 23.7026 104.473 23.8259 105.326 24.4607ZM107.581 37.6178C96.6749 48.492 95.6501 49.5805 95.6501 50.2913C95.6501 51.3348 96.5484 52.2304 97.5949 52.2304C98.3078 52.2304 99.3994 51.2087 110.305 40.3344C121.211 29.4602 122.236 28.3717 122.236 27.6609C122.236 26.6174 121.338 25.7217 120.291 25.7217C119.578 25.7217 118.487 26.7435 107.581 37.6178ZM32.3645 43.7702C31.9971 44.1363 31.7818 44.6216 31.7818 45.0826C31.7818 45.5437 31.9971 46.0289 32.3645 46.395L32.947 46.9761H43.1756H53.4043L53.9868 46.395C54.3542 46.0289 54.5695 45.5437 54.5695 45.0826C54.5695 44.6216 54.3542 44.1363 53.9868 43.7702L53.4043 43.1891H43.1756H32.947L32.3645 43.7702ZM58.9502 43.7702C58.5828 44.1363 58.3675 44.6216 58.3675 45.0826C58.3675 45.5437 58.5828 46.0289 58.9502 46.395L59.5327 46.9761H66.9129H74.293L74.8756 46.395C75.243 46.0289 75.4583 45.5437 75.4583 45.0826C75.4583 44.6216 75.243 44.1363 74.8756 43.7702L74.293 43.1891H66.9129H59.5327L58.9502 43.7702ZM114.759 41.075C112.57 41.6485 110.647 43.2229 109.662 45.2482C109.193 46.2106 109.084 46.8073 109.078 48.4435C109.071 50.2896 109.137 50.5786 109.88 51.9523C110.758 53.576 111.766 54.5374 113.446 55.3528C115.093 56.1528 118.123 56.1043 119.769 55.2517C121.558 54.3249 122.303 53.6077 123.201 51.9467C123.94 50.5793 124.007 50.2882 124 48.4435C123.994 46.8617 123.88 46.2026 123.468 45.3592C122.182 42.7242 119.881 41.1503 117.073 40.9837C116.192 40.9311 115.15 40.9723 114.759 41.075ZM32.3645 53.2376C31.9971 53.6037 31.7818 54.0889 31.7818 54.55C31.7818 55.0111 31.9971 55.4963 32.3645 55.8624C32.9423 56.4388 32.9838 56.4435 37.4787 56.4435C41.9736 56.4435 42.0151 56.4388 42.5929 55.8624C42.9603 55.4963 43.1756 55.0111 43.1756 54.55C43.1756 54.0889 42.9603 53.6037 42.5929 53.2376C42.0151 52.6613 41.9736 52.6565 37.4787 52.6565C32.9838 52.6565 32.9423 52.6613 32.3645 53.2376ZM47.5563 53.2376C47.1889 53.6037 46.9736 54.0889 46.9736 54.55C46.9736 55.0111 47.1889 55.4963 47.5563 55.8624L48.1389 56.4435H55.519H62.8992L63.4817 55.8624C63.8491 55.4963 64.0644 55.0111 64.0644 54.55C64.0644 54.0889 63.8491 53.6037 63.4817 53.2376L62.8992 52.6565H55.519H48.1389L47.5563 53.2376ZM68.4451 53.2376C68.0777 53.6037 67.8624 54.0889 67.8624 54.55C67.8624 55.0111 68.0777 55.4963 68.4451 55.8624C68.9937 56.4094 69.1817 56.4435 71.6603 56.4435C74.139 56.4435 74.327 56.4094 74.8756 55.8624C75.243 55.4963 75.4583 55.0111 75.4583 54.55C75.4583 54.0889 75.243 53.6037 74.8756 53.2376C74.327 52.6906 74.139 52.6565 71.6603 52.6565C69.1817 52.6565 68.9937 52.6906 68.4451 53.2376ZM118.041 44.9794C120.48 45.9955 121.075 49.1836 119.178 51.075C117.638 52.6101 115.44 52.6101 113.9 51.075C110.964 48.1479 114.203 43.3806 118.041 44.9794ZM32.3645 62.705C31.9971 63.0711 31.7818 63.5563 31.7818 64.0174C31.7818 64.4785 31.9971 64.9637 32.3645 65.3298C32.8734 65.8375 33.1597 65.9109 34.6302 65.9109C36.1007 65.9109 36.387 65.8375 36.8959 65.3298C37.2634 64.9637 37.4787 64.4785 37.4787 64.0174C37.4787 63.5563 37.2634 63.0711 36.8959 62.705C36.387 62.1973 36.1007 62.1239 34.6302 62.1239C33.1597 62.1239 32.8734 62.1973 32.3645 62.705ZM41.8594 62.705C41.492 63.0711 41.2767 63.5563 41.2767 64.0174C41.2767 64.4785 41.492 64.9637 41.8594 65.3298L42.4419 65.9109H48.8726H55.3032L55.8857 65.3298C56.2532 64.9637 56.4685 64.4785 56.4685 64.0174C56.4685 63.5563 56.2532 63.0711 55.8857 62.705L55.3032 62.1239H48.8726H42.4419L41.8594 62.705ZM60.8492 62.705C60.4818 63.0711 60.2665 63.5563 60.2665 64.0174C60.2665 64.4785 60.4818 64.9637 60.8492 65.3298L61.4317 65.9109H67.8624H74.293L74.8756 65.3298C75.243 64.9637 75.4583 64.4785 75.4583 64.0174C75.4583 63.5563 75.243 63.0711 74.8756 62.705L74.293 62.1239H67.8624H61.4317L60.8492 62.705ZM91.578 68.1672C87.1672 68.8526 83.4767 70.6112 81.9913 72.7352L81.2739 73.761L81.1996 79.5089L81.1251 85.2568L79.4193 84.5981C76.9542 83.6461 74.3438 83.1692 70.8295 83.0286C63.9023 82.7512 57.6088 84.7323 55.4055 87.8835L54.6882 88.9096L54.6196 99.4212C54.5728 106.584 54.6348 110.244 54.8143 110.908C55.8895 114.89 64.3721 117.691 72.8064 116.85C80.2342 116.11 84.9425 113.268 84.9518 109.52C84.9525 109.227 84.9938 108.988 85.0432 108.988C85.0928 108.988 85.7204 109.255 86.438 109.583C91.8315 112.045 102.171 111.801 107.548 109.083C109.176 108.261 110.886 106.508 111.249 105.291C111.648 103.952 111.666 75.1174 111.269 73.9343C110.847 72.6768 109.933 71.6171 108.446 70.6583C104.774 68.2919 97.5961 67.2318 91.578 68.1672ZM32.3645 72.1724C31.9971 72.5385 31.7818 73.0237 31.7818 73.4848C31.7818 73.9459 31.9971 74.4311 32.3645 74.7972L32.947 75.3783H40.3272H47.7073L48.2898 74.7972C48.6573 74.4311 48.8726 73.9459 48.8726 73.4848C48.8726 73.0237 48.6573 72.5385 48.2898 72.1724L47.7073 71.5913H40.3272H32.947L32.3645 72.1724ZM53.2533 72.1724C52.8858 72.5385 52.6705 73.0237 52.6705 73.4848C52.6705 73.9459 52.8858 74.4311 53.2533 74.7972L53.8358 75.3783H59.317H64.7981L65.3807 74.7972C65.7481 74.4311 65.9634 73.9459 65.9634 73.4848C65.9634 73.0237 65.7481 72.5385 65.3807 72.1724L64.7981 71.5913H59.317H53.8358L53.2533 72.1724ZM70.3441 72.1724C69.9767 72.5385 69.7614 73.0237 69.7614 73.4848C69.7614 73.9459 69.9767 74.4311 70.3441 74.7972C70.853 75.3049 71.1393 75.3783 72.6098 75.3783C74.0804 75.3783 74.3666 75.3049 74.8756 74.7972C75.243 74.4311 75.4583 73.9459 75.4583 73.4848C75.4583 73.0237 75.243 72.5385 74.8756 72.1724C74.3666 71.6647 74.0804 71.5913 72.6098 71.5913C71.1393 71.5913 70.853 71.6647 70.3441 72.1724ZM100.059 71.8474C104.072 72.4041 107.622 74.0616 107.622 75.3783C107.622 77.2119 101.806 79.1652 96.3471 79.1652C90.9224 79.1652 85.0719 77.2003 85.0719 75.3783C85.0719 74.1139 88.678 72.3859 92.4304 71.8517C94.5096 71.5558 97.942 71.5539 100.059 71.8474ZM90.4128 82.3955C91.8937 82.7096 93.4723 82.8232 96.3471 82.8232C100.701 82.8232 103.038 82.4556 106.02 81.3018L107.741 80.636V82.9333C107.741 85.134 107.713 85.2561 107.088 85.8395C106.128 86.7356 105.1 87.1872 102.56 87.8298C96.8002 89.2866 89.1658 88.5254 86.089 86.1877L85.0719 85.4147L85.0045 83.0222L84.9371 80.6298L86.6661 81.2987C87.617 81.6668 89.303 82.1602 90.4128 82.3955ZM32.3645 81.6398C31.9971 82.0059 31.7818 82.4911 31.7818 82.9522C31.7818 83.4133 31.9971 83.8985 32.3645 84.2646L32.947 84.8457H39.3777H49.8083L50.3908 84.2646C50.7583 83.8985 50.9736 83.4133 50.9736 82.9522C50.9736 82.4911 50.7583 82.0059 50.3908 81.6398L49.8083 81.0587H39.3777H32.947L32.3645 81.6398ZM73.4729 86.9952C77.4859 87.5519 81.0366 89.2094 81.0366 90.5261C81.0366 92.3597 75.2205 94.3131 69.7614 94.3131C64.3367 94.3131 58.4862 92.3481 58.4862 90.5261C58.4862 89.2617 62.0923 87.5337 65.8447 86.9995C67.9239 86.7037 71.3563 86.7018 73.4729 86.9952ZM86.9709 90.8508C89.5195 91.9031 92.0428 92.2906 96.3471 92.2906C100.704 92.2906 103.038 91.923 106.028 90.7661L107.757 90.0972L107.69 92.4896L107.622 94.8821L106.605 95.6551C103.543 97.9819 95.8519 98.7516 90.1448 97.3022C87.6445 96.6671 86.8147 96.3062 85.6938 95.3656C84.9553 94.7462 84.9532 94.7374 84.9532 92.3732C84.9532 90.5647 85.0237 90.0331 85.2499 90.1323C85.4132 90.204 86.1875 90.5273 86.9709 90.8508ZM63.827 97.5433C65.308 97.8574 66.8865 97.971 69.7614 97.971C74.1181 97.971 76.4524 97.6035 79.4424 96.4465L81.1714 95.7777L81.104 98.1701L81.0366 100.562L80.0194 101.336C75.6819 104.631 63.1921 104.473 59.137 101.071L58.3675 100.425V98.1043V95.7838L60.0884 96.4496C61.0351 96.816 62.7173 97.3081 63.827 97.5433ZM86.9709 100.318C89.5195 101.371 92.0428 101.758 96.3471 101.758C100.701 101.758 103.038 101.39 106.02 100.237L107.741 99.5708V101.868C107.741 104.069 107.713 104.191 107.088 104.774C106.128 105.67 105.102 106.121 102.549 106.771C96.8287 108.227 89.1654 107.46 86.089 105.122L85.0719 104.349L85.004 101.906C84.9503 99.9845 85.0012 99.4915 85.2414 99.5966C85.4092 99.67 86.1875 99.9947 86.9709 100.318ZM63.827 107.011C65.308 107.325 66.8865 107.438 69.7614 107.438C74.1181 107.438 76.4524 107.071 79.4424 105.914L81.1714 105.245L81.104 107.637L81.0366 110.03L80.0194 110.803C75.6802 114.1 63.1747 113.944 59.1389 110.542L58.3675 109.892V107.572V105.251L60.0884 105.917C61.0351 106.283 62.7173 106.775 63.827 107.011Z" fill="#9FA3C0"/>
<path d="M48.3645 24.0485C47.9971 24.4146 47.7818 24.8998 47.7818 25.3609C47.7818 25.8219 47.9971 26.3071 48.3645 26.6733L48.947 27.2544H50.8726H66.7981L67.3807 26.6733C68.1516 25.9048 68.1516 24.817 67.3807 24.0485L66.7981 23.4674H50.8726H48.947L48.3645 24.0485Z" fill="#9FA3C0"/>
<path d="M48.3645 31.6224C47.9971 31.9885 47.7818 32.4737 47.7818 32.9348C47.7818 33.3958 47.9971 33.8811 48.3645 34.2472L48.947 34.8283H55.3777H66.8083L67.3908 34.2472C67.7583 33.8811 67.9736 33.3958 67.9736 32.9348C67.9736 32.4737 67.7583 31.9885 67.3908 31.6224L66.8083 31.0413H55.3777H48.947L48.3645 31.6224Z" fill="#9FA3C0"/>
<path d="M38 21L38 37" stroke="#9FA3C0" stroke-width="2.65" stroke-linecap="round" stroke-linejoin="round"/>
<path d="M42.1667 23.1665H35.9167C35.1431 23.1665 34.4013 23.4738 33.8543 24.0208C33.3073 24.5678 33 25.3096 33 26.0832C33 26.8567 33.3073 27.5986 33.8543 28.1456C34.4013 28.6925 35.1431 28.9998 35.9167 28.9998H40.0833C40.8569 28.9998 41.5987 29.3071 42.1457 29.8541C42.6927 30.4011 43 31.143 43 31.9165C43 32.6901 42.6927 33.4319 42.1457 33.9789C41.5987 34.5259 40.8569 34.8332 40.0833 34.8332H33" stroke="#9FA3C0" stroke-width="2.65" stroke-linecap="round" stroke-linejoin="round"/>
</svg>
