<svg width="24" height="24" viewBox="0 0 24 24" fill="none" xmlns="http://www.w3.org/2000/svg">
<path d="M22.8113 8.00305C23.0628 7.75151 23.063 7.34318 22.8113 7.09147L17.3947 1.67548C17.143 1.42381 16.735 1.42381 16.4832 1.67548L14.7893 3.36926L12.4024 4.09969L10.0543 3.33579L8.3402 1.62186C8.08844 1.37019 7.68037 1.37019 7.4287 1.62186L1.18875 7.86117C0.93721 8.11271 0.937038 8.52104 1.18875 8.77275L2.88889 10.4727L3.51348 12.8503C3.28055 13.0115 3.19865 13.1305 2.79066 13.5281C1.60572 14.713 2.39776 16.7321 4.05124 16.8216C4.10331 17.8066 4.89016 18.5916 5.8747 18.6449C5.92678 19.6299 6.71366 20.4149 7.69816 20.4682C7.72338 20.945 7.92091 21.3896 8.26105 21.7297C9.01425 22.4829 10.2398 22.4829 10.993 21.7297L11.4784 21.2444C11.4879 21.2349 11.4968 21.2249 11.5061 21.2153L12.2911 22.0001C13.0442 22.7534 14.2702 22.7537 15.0238 22.0002C15.3337 21.6904 15.5248 21.2937 15.5756 20.8653C15.5839 20.8653 15.5922 20.8659 15.6005 20.8659C16.0953 20.8658 16.5902 20.6775 16.9669 20.3009C17.2696 19.9983 17.459 19.6129 17.515 19.196C17.5342 19.1965 17.5535 19.1973 17.5727 19.1973C18.0674 19.1973 18.5623 19.009 18.939 18.6324C19.2359 18.3355 19.4243 17.9589 19.4843 17.5509C19.5162 17.5525 19.5481 17.5533 19.5801 17.5533C20.0749 17.5533 20.5698 17.3649 20.9465 16.9883C21.7017 16.2331 21.7018 15.011 20.9465 14.2557L19.1506 12.46L21.043 9.77121L22.8113 8.00305ZM3.46794 9.22882L2.55601 8.31698L7.88443 2.98908L8.79635 3.90091L3.46794 9.22882ZM4.61112 15.3484C4.36044 15.599 3.95271 15.599 3.7022 15.3484C3.45105 15.0973 3.45101 14.6908 3.7022 14.4397L4.15728 13.9847C4.55947 13.5825 5.2544 13.868 5.2544 14.439C5.2544 14.8449 4.93325 14.9789 4.61112 15.3484ZM6.43454 17.1716C6.18394 17.4222 5.77626 17.4222 5.52566 17.1716C5.27451 16.9206 5.27447 16.5141 5.52566 16.263L7.34603 14.4428C7.59667 14.1922 8.00431 14.1921 8.25499 14.4427C8.50606 14.6939 8.50614 15.1002 8.25499 15.3514L6.43454 17.1716ZM8.258 18.995C8.00741 19.2455 7.59972 19.2455 7.34913 18.9949C7.09797 18.7438 7.09793 18.3374 7.34913 18.0863L8.71446 16.7211C8.96505 16.4705 9.37278 16.4705 9.62337 16.7211C9.87448 16.9722 9.87448 17.3786 9.62337 17.6298H9.62333L8.258 18.995ZM10.5669 20.3328L10.0815 20.8182C9.83082 21.0688 9.42314 21.0688 9.1725 20.8182C8.92139 20.5671 8.92135 20.1607 9.17254 19.9096L9.65796 19.4242C9.90856 19.1737 10.3163 19.1735 10.5669 19.4242C10.818 19.6752 10.8181 20.0817 10.5669 20.3328V20.3328ZM20.0349 15.1672C20.2864 15.4185 20.2863 15.8254 20.0349 16.0767C19.7841 16.3275 19.376 16.3276 19.1252 16.0767L17.6101 14.5618C17.3186 14.2704 16.9093 14.2914 16.6641 14.5365C16.4124 14.7882 16.4125 15.1963 16.6641 15.448L18.0275 16.8113C18.2788 17.0626 18.2789 17.4694 18.0275 17.7208C17.7767 17.9716 17.3685 17.9716 17.1178 17.7208C16.6327 17.2333 16.7141 17.3163 15.7552 16.3567C15.5035 16.105 15.0953 16.1051 14.8437 16.3567C14.8435 16.3569 14.8433 16.3571 14.8431 16.3574C14.843 16.3575 14.8429 16.3575 14.8429 16.3576C14.5912 16.6093 14.5912 17.0175 14.8429 17.2692L16.072 18.4981C16.3083 18.7527 16.2995 19.1453 16.0555 19.3894C15.8046 19.6402 15.3965 19.6403 15.1457 19.3894L13.934 18.1778C13.6823 17.9262 13.2742 17.9262 13.0225 18.1779C12.7708 18.4296 12.7709 18.8376 13.0225 19.0894L13.0512 19.1181C13.0516 19.1185 13.052 19.119 13.0524 19.1194L14.1124 20.1793C14.3637 20.4305 14.3638 20.8373 14.1124 21.0888C13.8615 21.3395 13.4535 21.3397 13.2026 21.0887L12.043 19.9292C12.0434 19.9123 12.0442 19.8954 12.0442 19.8785C12.0442 19.3625 11.8433 18.8774 11.4784 18.5125C11.2971 18.3313 11.0883 18.1941 10.8655 18.1001C11.4479 17.0353 10.9087 15.6531 9.68654 15.3153C9.82468 14.6867 9.64963 14.0143 9.16644 13.5311C8.41329 12.7781 7.18774 12.7782 6.43454 13.5311L6.35694 13.6087C6.06943 13.0055 5.47389 12.5682 4.75803 12.5143L4.18534 10.3344L9.88423 4.63607L11.2078 5.06666C9.14431 7.13229 8.78819 7.4888 8.73817 7.53886C8.7383 7.53877 8.73817 7.53886 8.73787 7.53916C8.73495 7.54208 8.7331 7.54393 8.73207 7.54496C8.7322 7.54483 8.73233 7.5447 8.73246 7.54457C8.73207 7.54496 8.73177 7.54526 8.73138 7.54565C7.96805 8.30877 7.96779 9.54438 8.73134 10.3077C9.49288 11.0693 10.732 11.0693 11.4936 10.3078L13.3344 8.46715L20.0349 15.1672ZM18.2254 11.5348L13.79 7.09998C13.5383 6.84835 13.1302 6.84835 12.8786 7.09998L10.582 9.39627C10.3231 9.65515 9.90177 9.6552 9.64275 9.39622C9.38326 9.13674 9.38318 8.71676 9.64279 8.45723C9.64292 8.4571 9.64301 8.45701 9.64314 8.45688C9.64361 8.45641 9.64468 8.45534 9.6467 8.45332C9.64662 8.45336 9.64658 8.45345 9.64649 8.45353C9.64688 8.45315 9.64713 8.45289 9.64731 8.45272C9.64726 8.45276 9.64718 8.4528 9.64713 8.45289C9.64718 8.4528 9.64731 8.45272 9.64739 8.45263C9.64752 8.4525 9.64756 8.45246 9.64743 8.45259C9.6889 8.41095 10.062 8.03652 12.7469 5.34226L14.9496 4.66825L19.7089 9.42703L18.2254 11.5348ZM16.043 3.93856L16.939 3.04266L21.444 7.54724L20.548 8.44314L16.043 3.93856Z" fill="#9FA3C0"/>
<path d="M9.64689 8.45215C9.64614 8.4529 9.64493 8.45412 9.64328 8.4558C9.64324 8.45585 9.64314 8.45594 9.6431 8.45599C9.64366 8.45538 9.64558 8.45346 9.64689 8.45215Z" fill="#9FA3C0"/>
<path d="M8.73244 7.54412L8.73652 7.54004C8.7352 7.54135 8.73361 7.54295 8.73244 7.54412Z" fill="#9FA3C0"/>
</svg>
