<?xml version="1.0" encoding="UTF-8"?>
<svg width="20px" height="24px" viewBox="0 0 20 24" version="1.1" xmlns="http://www.w3.org/2000/svg" xmlns:xlink="http://www.w3.org/1999/xlink">
    <title>Artboard</title>
    <g id="Artboard" stroke="none" stroke-width="1" fill="none" fill-rule="evenodd">
        <g id="payment-ic-blue" transform="translate(0.000000, 2.000000)" fill="#3246D3" fill-rule="nonzero">
            <path d="M12.1055,3.57148333 C11.7265833,3.57148333 11.4183333,3.30444167 11.4183333,2.9762 C11.4183333,2.64796667 11.7265833,2.380925 12.1055,2.380925 C12.3489167,2.380925 12.6059167,2.48849167 12.8486667,2.692075 C13.1214167,2.920725 13.5563333,2.91453333 13.8201667,2.67820833 C14.0840833,2.44194167 14.0769167,2.06513333 13.8041667,1.83655 C13.4555,1.54420833 13.1065,1.3789 12.7925,1.28859167 L12.7925,0.595216667 C12.7925,0.266441667 12.4848333,0 12.1053333,0 C11.7258333,0 11.41825,0.266508333 11.41825,0.595216667 L11.41825,1.292825 C10.6185,1.53855 10.044,2.20014167 10.044,2.9762 C10.044,3.96085 10.9686667,4.76191667 12.1053333,4.76191667 C12.4841667,4.76191667 12.7924167,5.02895833 12.7924167,5.35719167 C12.7924167,5.685425 12.4841667,5.95246667 12.1053333,5.95246667 C11.81175,5.95246667 11.4948333,5.79251667 11.213,5.50214167 C10.9688333,5.25045833 10.5355,5.21795833 10.245,5.429575 C9.95441667,5.64113333 9.917,6.01663333 10.16125,6.2682 C10.5285833,6.64673333 10.9604167,6.91044167 11.41825,7.04343333 L11.41825,7.73808333 C11.41825,8.06691667 11.7258333,8.33333333 12.1053333,8.33333333 C12.4848333,8.33333333 12.7924167,8.06683333 12.7924167,7.73808333 L12.7924167,7.04051667 C13.5921667,6.79478333 14.1666608,6.13319167 14.1666608,5.35713333 C14.1668333,4.37254167 13.2420833,3.57148333 12.1055,3.57148333 Z" id="Path"></path>
            <path d="M17.8175,7.84975 L17.8174167,7.84975 C17.22,7.82658333 16.6619167,8.15725 16.3945833,8.69183333 C16.1743333,9.13225 15.96325,9.45875 15.7111667,9.72591667 C15.4825833,9.96825 15.2164167,10.16575 14.8709167,10.3543333 C14.5940833,9.90825 14.0988333,9.614 13.5463333,9.614 L9.95841667,9.614 C9.766,9.614 9.60908333,9.53416667 9.34725,9.39625 C8.93175,9.17725 8.40075,8.89783333 7.45194167,8.89783333 C6.591925,8.89783333 5.75625833,9.31866667 5.05891667,9.87083333 C4.41436667,10.38125 3.87585,11.0134167 3.53043333,11.56125 C3.34068333,11.3988333 3.054725,11.4074167 2.87508333,11.587 L2.87506667,11.587 L0.849425,13.6125833 L0.849425,13.6126667 C0.758786667,13.70325 0.707926633,13.82625 0.707926633,13.9544167 C0.707926633,14.0826667 0.7590475,14.2056667 0.8498,14.2961667 L0.849808333,14.2961667 L4.879175,18.3165833 C4.87918333,18.3165833 4.87918333,18.3165833 4.87918333,18.3165833 C5.06743333,18.5045 5.37245,18.5049167 5.56118333,18.317 C5.56119167,18.317 5.56119167,18.317 5.5612,18.317 L7.58679167,16.3003333 L7.50128333,16.2144167 L7.5868,16.3003333 C7.77608333,16.1119167 7.77646667,15.8054167 7.587575,15.6164167 L7.58756667,15.6164167 L7.33949167,15.3683333 C7.45119167,15.24875 7.61696667,15.1359167 7.80646667,15.0476667 C8.037025,14.94025 8.28576667,14.877 8.48425,14.877 L8.48425,14.877 L8.48425,14.877 L8.48425,14.877 L8.48425,14.877 L8.48425,14.877 L8.48425,14.877 L8.48425,14.877 L8.48425,14.877 L8.48425,14.877 L8.48425,14.877 L8.48425,14.877 L8.48425,14.877 L8.48433333,14.877 L8.48433333,14.877 L8.48433333,14.877 L8.48433333,14.877 L8.48433333,14.877 L8.48433333,14.877 L8.48433333,14.877 L8.48433333,14.877 L8.48433333,14.877 L8.48433333,14.877 L8.48433333,14.877 L8.48433333,14.877 L8.48433333,14.877 L8.48441667,14.877 L8.48441667,14.877 L8.48441667,14.877 L8.48441667,14.877 L8.48441667,14.877 L8.48441667,14.877 L8.48441667,14.877 L8.48441667,14.877 L8.48441667,14.877 L8.48441667,14.877 L8.48441667,14.877 L8.48441667,14.877 L8.4845,14.877 L8.4845,14.877 L8.4845,14.877 L8.4845,14.877 L8.4845,14.877 L8.4845,14.877 L8.4845,14.877 L8.4845,14.877 L8.4845,14.877 L8.4845,14.877 L8.4845,14.877 L8.4845,14.877 L8.4845,14.877 L8.48458333,14.877 L8.48458333,14.877 L8.48458333,14.877 L8.48458333,14.877 L8.48458333,14.877 L8.48458333,14.877 L8.48458333,14.877 L8.48458333,14.877 L8.48458333,14.877 L8.48458333,14.877 L8.48458333,14.877 L8.48458333,14.877 L8.48466667,14.877 L8.48466667,14.877 L8.48466667,14.877 L8.48466667,14.877 L8.48466667,14.877 L8.48466667,14.877 L8.48466667,14.877 L8.48466667,14.877 L8.48466667,14.877 L8.48466667,14.877 L8.48466667,14.877 L8.48466667,14.877 L8.48466667,14.877 L8.48475,14.877 L8.48475,14.877 L8.48475,14.877 L8.48475,14.877 L8.48475,14.877 L8.48475,14.877 L8.48475,14.877 L8.48475,14.877 L8.48475,14.877 L13.31825,14.8784167 L13.31825,14.8784167 L13.31825,14.8784167 L13.31825,14.8784167 L13.31825,14.8784167 L13.31825,14.8784167 L13.3183333,14.8784167 L13.3183333,14.8784167 L13.3183333,14.8784167 L13.3183333,14.8784167 L13.3183333,14.8784167 L13.3183333,14.8784167 L13.3183333,14.8784167 L13.3183333,14.8784167 L13.3183333,14.8784167 L13.3183333,14.8784167 L13.3184167,14.8784167 L13.3184167,14.8784167 L13.3184167,14.8784167 L13.3184167,14.8784167 L13.3184167,14.8784167 L13.3184167,14.8784167 L13.3184167,14.8784167 L13.3184167,14.8784167 L13.3184167,14.8784167 L13.3184167,14.8784167 L13.3185,14.8784167 L13.3185,14.8784167 L13.3185,14.8784167 L13.3185,14.8784167 L13.3185,14.8784167 L13.3185,14.8784167 L13.3185,14.8784167 L13.3185,14.8784167 L13.3185,14.8784167 L13.3185,14.8784167 L13.3185833,14.8784167 L13.3185833,14.8784167 L13.3185833,14.8784167 L13.3185833,14.8784167 L13.3185833,14.8784167 L13.3185833,14.8784167 L13.3185833,14.8784167 L13.3185833,14.8784167 L13.3185833,14.8784167 L13.3185833,14.8784167 L13.3186667,14.8784167 L13.3186667,14.8784167 L13.3186667,14.8784167 L13.3186667,14.8784167 L13.3186667,14.8784167 L13.3186667,14.8784167 L13.3186667,14.8784167 L13.3186667,14.8784167 L13.3186667,14.8784167 L13.3186667,14.8784167 L13.31875,14.8784167 L13.31875,14.8784167 L13.31875,14.8784167 L13.31875,14.8784167 L13.31875,14.8784167 L13.31875,14.8784167 L13.31875,14.8784167 L13.31875,14.8784167 L13.31875,14.8784167 L13.31875,14.8784167 L13.3188333,14.8784167 L13.3188333,14.8784167 L13.3188333,14.8784167 L13.3188333,14.8784167 L13.3188333,14.8784167 L13.3188333,14.8784167 L13.3188333,14.8784167 L13.3188333,14.8784167 L13.3188333,14.8784167 L13.3188333,14.8784167 L13.3189167,14.8784167 L13.3189167,14.8784167 L13.3189167,14.8784167 L13.3189167,14.8784167 L13.3189167,14.8784167 L13.3189167,14.8784167 L13.3189167,14.8784167 L13.3189167,14.8784167 L13.3189167,14.8784167 L13.319,14.8784167 L13.319,14.8784167 L13.319,14.8784167 L13.319,14.8784167 L13.319,14.8784167 L13.319,14.8784167 L13.319,14.8784167 L13.319,14.8784167 L13.319,14.8784167 L13.319,14.8784167 L13.3190833,14.8784167 L13.3190833,14.8784167 L13.3190833,14.8784167 L13.3190833,14.8784167 L13.3190833,14.8784167 L13.3190833,14.8784167 L13.3190833,14.8784167 L13.3190833,14.8784167 L13.3190833,14.8784167 L13.3190833,14.8784167 L13.3191667,14.8784167 L13.3191667,14.8784167 L13.3191667,14.8784167 L13.3191667,14.8784167 L13.3191667,14.8784167 L13.3191667,14.8784167 L13.3191667,14.8784167 L13.3191667,14.8784167 L13.3191667,14.8784167 L13.3191667,14.8784167 L13.31925,14.8784167 L13.31925,14.8784167 L13.31925,14.8784167 L13.31925,14.8784167 L13.31925,14.8784167 L13.31925,14.8784167 L13.31925,14.8784167 L13.31925,14.8784167 L13.31925,14.8784167 L13.31925,14.8784167 L13.3193333,14.8784167 L13.3193333,14.8784167 L13.3193333,14.8784167 L13.3193333,14.8784167 L13.3193333,14.8784167 L13.3193333,14.8784167 L13.3193333,14.8784167 L13.3193333,14.8784167 L13.3193333,14.8784167 L13.3193333,14.8784167 L13.3194167,14.8784167 L13.3194167,14.8784167 L13.3194167,14.8784167 L13.3194167,14.8784167 L13.3194167,14.8784167 L13.3194167,14.8784167 L13.3194167,14.8784167 L13.3194167,14.8784167 L13.3194167,14.8784167 L13.3195,14.8784167 L13.3195,14.8784167 L13.3195,14.8784167 L13.3195,14.8784167 L13.3195,14.8784167 L13.3195,14.8784167 L13.3195,14.8784167 L13.3195,14.8784167 L13.3195,14.8784167 L13.3195,14.8784167 L13.3195833,14.8784167 L13.3195833,14.8784167 L13.3195833,14.8784167 L13.3195833,14.8784167 L13.3195833,14.8784167 L13.3195833,14.8784167 L13.3195833,14.8784167 L13.3195833,14.8784167 L13.3195833,14.8784167 L13.3195833,14.8784167 L13.3196667,14.8784167 L13.3196667,14.8784167 L13.3196667,14.8784167 L13.3196667,14.8784167 L13.3196667,14.8784167 L13.3196667,14.8784167 L13.3196667,14.8784167 L13.3196667,14.8784167 L13.3196667,14.8784167 L13.3196667,14.8784167 L13.31975,14.8784167 L13.31975,14.8784167 L13.31975,14.8784167 L13.31975,14.8784167 L13.31975,14.8784167 L13.31975,14.8784167 L13.31975,14.8784167 L13.31975,14.8784167 L13.31975,14.8784167 L13.3198333,14.8784167 L13.3198333,14.8784167 L13.3198333,14.8784167 L13.3198333,14.8784167 L13.3198333,14.8784167 L13.3198333,14.8784167 L13.3198333,14.8784167 L13.3198333,14.8784167 L13.3198333,14.8784167 L13.3198333,14.8784167 L13.3199167,14.8784167 L13.3199167,14.8784167 L13.3199167,14.8784167 L13.3199167,14.8784167 L13.3199167,14.8784167 L13.3199167,14.8784167 L13.3199167,14.8784167 L13.3199167,14.8784167 L13.3199167,14.8784167 L13.3199167,14.8784167 L13.32,14.8784167 L13.32,14.8784167 L13.32,14.8784167 L13.32,14.8784167 L13.32,14.8784167 L13.32,14.8784167 L13.32,14.8784167 L13.32,14.8784167 L13.32,14.8784167 L13.3200833,14.8784167 L13.3200833,14.8784167 L13.3200833,14.8784167 L13.3200833,14.8784167 L13.3200833,14.8784167 L13.3200833,14.8784167 L13.3200833,14.8784167 L13.3200833,14.8784167 L13.3200833,14.8784167 L13.3200833,14.8784167 L13.3201667,14.8784167 L13.3201667,14.8784167 L13.3201667,14.8784167 L13.3201667,14.8784167 L13.3201667,14.8784167 L13.3201667,14.8784167 L13.3201667,14.8784167 L13.3201667,14.8784167 L13.3201667,14.8784167 L13.32025,14.8784167 L13.32025,14.8784167 L13.32025,14.8784167 L13.32025,14.8784167 L13.32025,14.8784167 L13.32025,14.8784167 L13.32025,14.8784167 L13.32025,14.8784167 L13.32025,14.8784167 L13.32025,14.8784167 L13.3203333,14.8784167 L13.3203333,14.8784167 L13.3203333,14.8784167 L13.3203333,14.8784167 L13.3203333,14.8784167 L13.3203333,14.8784167 L13.3203333,14.8784167 L13.3203333,14.8784167 L13.3203333,14.8784167 L13.3204167,14.8784167 L13.3204167,14.8784167 L13.3204167,14.8784167 L13.3204167,14.8784167 L13.3204167,14.8784167 L13.3204167,14.8784167 L13.3204167,14.8784167 L13.3204167,14.8784167 C13.9685833,14.8784167 14.5915833,14.69875 15.1216667,14.3576667 C16.4318333,13.5151667 18.298,12.1305 19.183,9.928 L19.067,9.88133333 L19.183,9.928 C19.5786667,8.943 18.8511667,7.89025 17.8175,7.84975 Z M14.5990833,13.5450833 L14.599,13.5451667 C14.2265833,13.7848333 13.7848333,13.91225 13.3204167,13.91225 L13.3204167,13.91225 L13.3204167,13.91225 L13.3204167,13.91225 L13.3203333,13.91225 L13.3203333,13.91225 L13.3203333,13.91225 L13.3203333,13.91225 L13.3203333,13.91225 L13.3203333,13.91225 L13.3203333,13.91225 L13.3203333,13.91225 L13.3203333,13.91225 L13.3203333,13.91225 L13.3203333,13.91225 L13.3203333,13.91225 L13.3203333,13.91225 L13.32025,13.91225 L13.32025,13.91225 L13.32025,13.91225 L13.32025,13.91225 L13.32025,13.91225 L13.32025,13.91225 L13.32025,13.91225 L13.32025,13.91225 L13.32025,13.91225 L13.32025,13.91225 L13.32025,13.91225 L13.32025,13.91225 L13.3201667,13.91225 L13.3201667,13.91225 L13.3201667,13.91225 L13.3201667,13.91225 L13.3201667,13.91225 L13.3201667,13.91225 L13.3201667,13.91225 L13.3201667,13.91225 L13.3201667,13.91225 L13.3201667,13.91225 L13.3201667,13.91225 L13.3201667,13.91225 L13.3201667,13.91225 L13.3200833,13.91225 L13.3200833,13.91225 L13.3200833,13.91225 L13.3200833,13.91225 L13.3200833,13.91225 L13.3200833,13.91225 L13.3200833,13.91225 L13.3200833,13.91225 L13.3200833,13.91225 L13.3200833,13.91225 L13.3200833,13.91225 L13.3200833,13.91225 L13.32,13.91225 L13.32,13.91225 L13.32,13.91225 L13.32,13.91225 L13.32,13.91225 L13.32,13.91225 L13.32,13.91225 L13.32,13.91225 L13.32,13.91225 L13.32,13.91225 L13.32,13.91225 L13.32,13.91225 L13.3199167,13.91225 L13.3199167,13.91225 L13.3199167,13.91225 L13.3199167,13.91225 L13.3199167,13.91225 L13.3199167,13.91225 L13.3199167,13.91225 L13.3199167,13.91225 L13.3199167,13.91225 L13.3199167,13.91225 L13.3199167,13.91225 L13.3199167,13.91225 L13.3199167,13.91225 L13.3198333,13.91225 L13.3198333,13.91225 L13.3198333,13.91225 L13.3198333,13.91225 L13.3198333,13.91225 L13.3198333,13.91225 L13.3198333,13.91225 L13.3198333,13.91225 L13.3198333,13.91225 L13.3198333,13.91225 L13.3198333,13.91225 L13.3198333,13.91225 L13.31975,13.91225 L13.31975,13.91225 L13.31975,13.91225 L13.31975,13.91225 L13.31975,13.91225 L13.31975,13.91225 L13.31975,13.91225 L13.31975,13.91225 L13.31975,13.91225 L13.31975,13.91225 L13.31975,13.91225 L13.31975,13.91225 L13.31975,13.91225 L13.3196667,13.91225 L13.3196667,13.91225 L13.3196667,13.91225 L13.3196667,13.91225 L13.3196667,13.91225 L13.3196667,13.91225 L13.3196667,13.91225 L13.3196667,13.91225 L13.3196667,13.91225 L13.3196667,13.91225 L13.3196667,13.91225 L13.3196667,13.91225 L13.3195833,13.91225 L13.3195833,13.91225 L13.3195833,13.91225 L13.3195833,13.91225 L13.3195833,13.91225 L13.3195833,13.91225 L13.3195833,13.91225 L13.3195833,13.91225 L13.3195833,13.91225 L13.3195833,13.91225 L13.3195833,13.91225 L13.3195833,13.91225 L13.3195,13.91225 L13.3195,13.91225 L13.3195,13.91225 L13.3195,13.91225 L13.3195,13.91225 L13.3195,13.91225 L13.3195,13.91225 L13.3195,13.91225 L13.3195,13.91225 L13.3195,13.91225 L13.3195,13.91225 L13.3195,13.91225 L13.3195,13.91225 L13.3194167,13.91225 L13.3194167,13.91225 L13.3194167,13.91225 L13.3194167,13.91225 L13.3194167,13.91225 L13.3194167,13.91225 L13.3194167,13.91225 L13.3194167,13.91225 L13.3194167,13.91225 L13.3194167,13.91225 L13.3194167,13.91225 L13.3194167,13.91225 L13.3193333,13.91225 L13.3193333,13.91225 L13.3193333,13.91225 L13.3193333,13.91225 L13.3193333,13.91225 L13.3193333,13.91225 L13.3193333,13.91225 L13.3193333,13.91225 L13.3193333,13.91225 L13.3193333,13.91225 L13.3193333,13.91225 L13.3193333,13.91225 L13.3193333,13.91225 L13.31925,13.91225 L13.31925,13.91225 L13.31925,13.91225 L13.31925,13.91225 L13.31925,13.91225 L13.31925,13.91225 L13.31925,13.91225 L13.31925,13.91225 L13.31925,13.91225 L13.31925,13.91225 L13.31925,13.91225 L13.31925,13.91225 L13.3191667,13.91225 L13.3191667,13.91225 L13.3191667,13.91225 L13.3191667,13.91225 L13.3191667,13.91225 L13.3191667,13.91225 L13.3191667,13.91225 L13.3191667,13.91225 L13.3191667,13.91225 L13.3191667,13.91225 L13.3191667,13.91225 L13.3191667,13.91225 L13.3191667,13.91225 L13.3190833,13.91225 L13.3190833,13.91225 L13.3190833,13.91225 L13.3190833,13.91225 L13.3190833,13.91225 L13.3190833,13.91225 L13.3190833,13.91225 L13.3190833,13.91225 L13.3190833,13.91225 L13.3190833,13.91225 L13.3190833,13.91225 L13.3190833,13.91225 L13.319,13.91225 L13.319,13.91225 L13.319,13.91225 L13.319,13.91225 L13.319,13.91225 L13.319,13.91225 L13.319,13.91225 L13.319,13.91225 L13.319,13.91225 L13.319,13.91225 L13.319,13.91225 L13.319,13.91225 L13.3189167,13.91225 L13.3189167,13.91225 L13.3189167,13.91225 L13.3189167,13.91225 L13.3189167,13.91225 L13.3189167,13.91225 L13.3189167,13.91225 L13.3189167,13.91225 L13.3189167,13.91225 L13.3189167,13.91225 L13.3189167,13.91225 L13.3189167,13.91225 L13.3189167,13.91225 L13.3188333,13.91225 L13.3188333,13.91225 L13.3188333,13.91225 L13.3188333,13.91225 L13.3188333,13.91225 L13.3188333,13.91225 L13.3188333,13.91225 L13.3188333,13.91225 L13.3188333,13.91225 L13.3188333,13.91225 L13.3188333,13.91225 L13.3188333,13.91225 L13.31875,13.91225 L13.31875,13.91225 L13.31875,13.91225 L13.31875,13.91225 L13.31875,13.91225 L13.31875,13.91225 L13.31875,13.91225 L13.31875,13.91225 L13.31875,13.91225 L13.31875,13.91225 L13.31875,13.91225 L13.3186667,13.91225 L13.3186667,13.91225 L13.3186667,13.91225 L13.3186667,13.91225 L8.48525,13.9108333 L8.48516667,13.9108333 L8.48516667,13.9108333 L8.48516667,13.9108333 L8.48516667,13.9108333 L8.48516667,13.9108333 L8.48516667,13.9108333 L8.48516667,13.9108333 L8.48516667,13.9108333 L8.48508333,13.9108333 L8.48508333,13.9108333 L8.48508333,13.9108333 L8.48508333,13.9108333 L8.48508333,13.9108333 L8.48508333,13.9108333 L8.48508333,13.9108333 L8.48508333,13.9108333 L8.48508333,13.9108333 L8.48508333,13.9108333 L8.48508333,13.9108333 L8.485,13.9108333 L8.485,13.9108333 L8.485,13.9108333 L8.485,13.9108333 L8.485,13.9108333 L8.485,13.9108333 L8.485,13.9108333 L8.485,13.9108333 L8.485,13.9108333 L8.485,13.9108333 L8.485,13.9108333 L8.48491667,13.9108333 L8.48491667,13.9108333 L8.48491667,13.9108333 L8.48491667,13.9108333 L8.48491667,13.9108333 L8.48491667,13.9108333 L8.48491667,13.9108333 L8.48491667,13.9108333 L8.48491667,13.9108333 L8.48491667,13.9108333 L8.48491667,13.9108333 L8.48483333,13.9108333 L8.48483333,13.9108333 L8.48483333,13.9108333 L8.48483333,13.9108333 L8.48483333,13.9108333 L8.48483333,13.9108333 L8.48483333,13.9108333 L8.48483333,13.9108333 L8.48483333,13.9108333 L8.48483333,13.9108333 L8.48483333,13.9108333 L8.48475,13.9108333 L8.48475,13.9108333 L8.48475,13.9108333 L8.48475,13.9108333 L8.48475,13.9108333 L8.48475,13.9108333 L8.48475,13.9108333 L8.48475,13.9108333 L8.48475,13.9108333 L8.48475,13.9108333 L8.48475,13.9108333 L8.48475,13.9108333 L8.48466667,13.9108333 L8.48466667,13.9108333 L8.48466667,13.9108333 L8.48466667,13.9108333 L8.48466667,13.9108333 L8.48466667,13.9108333 L8.48466667,13.9108333 L8.48466667,13.9108333 L8.48466667,13.9108333 L8.48466667,13.9108333 L8.48466667,13.9108333 L8.48466667,13.9108333 L8.48458333,13.9108333 L8.48458333,13.9108333 L8.48458333,13.9108333 L8.48458333,13.9108333 L8.48458333,13.9108333 L8.48458333,13.9108333 L8.48458333,13.9108333 L8.48458333,13.9108333 L8.48458333,13.9108333 L8.48458333,13.9108333 L8.48458333,13.9108333 L8.4845,13.9108333 L8.4845,13.9108333 L8.4845,13.9108333 L8.4845,13.9108333 L8.4845,13.9108333 L8.4845,13.9108333 L8.4845,13.9108333 L8.4845,13.9108333 L8.4845,13.9108333 L8.4845,13.9108333 L8.4845,13.9108333 L8.48441667,13.9108333 L8.48441667,13.9108333 L8.48441667,13.9108333 L8.48441667,13.9108333 L8.48441667,13.9108333 L8.48441667,13.9108333 L8.48441667,13.9108333 L8.48441667,13.9108333 L8.48441667,13.9108333 L8.48441667,13.9108333 L8.48441667,13.9108333 L8.48433333,13.9108333 L8.48433333,13.9108333 L8.48433333,13.9108333 L8.48433333,13.9108333 L8.48433333,13.9108333 L8.48433333,13.9108333 L8.48433333,13.9108333 L8.48433333,13.9108333 L8.48433333,13.9108333 L8.48433333,13.9108333 L8.48433333,13.9108333 L8.48425,13.9108333 L8.48425,13.9108333 L8.48425,13.9108333 L8.48425,13.9108333 L8.48425,13.9108333 L8.48425,13.9108333 L8.48425,13.9108333 L8.48425,13.9108333 L8.48425,13.9108333 L8.48425,13.9108333 L8.48425,13.9108333 L8.48425,13.9108333 L8.48416667,13.9108333 L8.48416667,13.9108333 L8.48416667,13.9108333 L8.48416667,13.9108333 L8.48416667,13.9108333 L8.48416667,13.9108333 C7.86779167,13.9108333 7.1181,14.207 6.65718333,14.6859167 L4.23588333,12.2646667 C4.40424167,11.9606667 4.81223333,11.3944167 5.35875833,10.8860833 C5.95855,10.3283333 6.70000833,9.864 7.45194167,9.864 C8.16229167,9.864 8.52791667,10.0565833 8.89583333,10.2503333 L8.897,10.251 L8.897,10.251 L8.90433333,10.2548333 C9.19466667,10.4078333 9.52175,10.5801667 9.9585,10.5801667 L13.5463333,10.5801667 C13.8393333,10.5801667 14.0911667,10.7986667 14.13175,11.0899167 L14.1318333,11.09075 C14.1823333,11.43575 13.9104167,11.7624167 13.5463333,11.7624167 L9.95841667,11.7624167 C9.69166667,11.7624167 9.47533333,11.9786667 9.47533333,12.2455 C9.47533333,12.5123333 9.69158333,12.7285833 9.95841667,12.7285833 L13.5463333,12.7285833 C14.3530833,12.7285833 15.01825,12.11225 15.096,11.3256667 C15.6046667,11.07325 16.0043333,10.8021667 16.34425,10.4601667 C16.6983333,10.104 16.9825833,9.67608333 17.25875,9.12391667 L17.25875,9.12391667 C17.3566667,8.928 17.5613333,8.80683333 17.78,8.81516667 C18.169,8.8305 18.4250833,9.223 18.2865833,9.56783333 C17.5086667,11.5035833 15.81975,12.7601667 14.5990833,13.5450833 Z M5.22085,17.2926667 L1.874625,13.9538333 L3.2167,12.6118333 C3.44166667,12.83675 3.67198333,13.0670833 3.92318333,13.3183333 C4.57328333,13.9684167 5.363225,14.7584167 6.56218333,15.9573333 L5.22085,17.2926667 Z" id="Shape" stroke="#3246D3" stroke-width="0.3"></path>
        </g>
    </g>
</svg>