<svg width="34" height="34" viewBox="0 0 34 34" fill="none" xmlns="http://www.w3.org/2000/svg">
<path d="M19.834 2.83594H8.50063C7.74918 2.83594 7.02851 3.13445 6.49716 3.6658C5.96581 4.19715 5.6673 4.91782 5.6673 5.66927V28.3359C5.6673 29.0874 5.96581 29.8081 6.49716 30.3394C7.02851 30.8708 7.74918 31.1693 8.50063 31.1693H25.5006C26.2521 31.1693 26.9727 30.8708 27.5041 30.3394C28.0354 29.8081 28.334 29.0874 28.334 28.3359V11.3359L19.834 2.83594Z" stroke="#9FA3C0" stroke-width="1.66667" stroke-linecap="round" stroke-linejoin="round"/>
<path d="M19.8327 2.83594V11.3359H28.3327" stroke="#9FA3C0" stroke-width="1.66667" stroke-linecap="round" stroke-linejoin="round"/>
<path d="M22.666 18.4141H11.3327" stroke="#9FA3C0" stroke-width="1.66667" stroke-linecap="round" stroke-linejoin="round"/>
<path d="M22.666 24.0859H11.3327" stroke="#9FA3C0" stroke-width="1.66667" stroke-linecap="round" stroke-linejoin="round"/>
<path d="M14.1669 12.75H12.7502H11.3336" stroke="#9FA3C0" stroke-width="1.66667" stroke-linecap="round" stroke-linejoin="round"/>
</svg>
