<svg width="110" height="110" viewBox="0 0 110 110" fill="none" xmlns="http://www.w3.org/2000/svg">
<g clip-path="url(#clip0)">
<path d="M67.0312 99.8375H67.1813V99.6875V97.9688C67.1813 96.9382 66.343 96.1 65.3125 96.1C64.282 96.1 63.4437 96.9382 63.4437 97.9688V99.6875V99.8375H63.5938H67.0312ZM60.3063 97.9688C60.3063 95.2084 62.5522 92.9625 65.3125 92.9625C68.0728 92.9625 70.3188 95.2084 70.3188 97.9688V101.406C70.3188 102.273 69.6163 102.975 68.75 102.975H61.875C61.0087 102.975 60.3063 102.273 60.3063 101.406V97.9688Z" fill="#3246D3" stroke="#F2F6FE" stroke-width="0.3"/>
<path d="M87.6862 75.8586L87.8063 75.8341V75.7116V75.625C87.8063 74.7586 88.5087 74.0563 89.375 74.0563C90.2413 74.0563 90.9437 74.7586 90.9437 75.625V75.775H91.0938H92.8125C93.6788 75.775 94.3813 76.4773 94.3813 77.3438C94.3813 78.2102 93.6788 78.9125 92.8125 78.9125H88.5156C87.9588 78.9125 87.5062 79.3652 87.5062 79.9219C87.5062 80.4786 87.9588 80.9313 88.5156 80.9313H90.2344C92.5209 80.9313 94.3813 82.7917 94.3813 85.0781C94.3813 87.0803 92.9544 88.7561 91.0638 89.1414L90.9437 89.1659V89.2884V89.375C90.9437 90.2414 90.2413 90.9438 89.375 90.9438C88.5087 90.9438 87.8063 90.2414 87.8063 89.375V89.225H87.6562H85.9375C85.0712 89.225 84.3688 88.5227 84.3688 87.6562C84.3688 86.7898 85.0712 86.0875 85.9375 86.0875H90.2344C90.7912 86.0875 91.2438 85.6348 91.2438 85.0781C91.2438 84.5214 90.7912 84.0688 90.2344 84.0688H88.5156C86.2291 84.0688 84.3688 82.2083 84.3688 79.9219C84.3688 77.9197 85.7956 76.2439 87.6862 75.8586Z" fill="#3246D3" stroke="#F2F6FE" stroke-width="0.3"/>
<mask id="path-3-inside-1" fill="white">
<path d="M108.281 99.6875H104.844V94.5312C104.844 93.582 104.074 92.8125 103.125 92.8125H98.4553C101.316 90.291 103.125 86.6038 103.125 82.5C103.125 75.5007 97.8668 69.7102 91.0938 68.8613V32.3606C91.6317 32.5514 92.2099 32.6562 92.8125 32.6562H104.844C107.687 32.6562 110 30.3432 110 27.5C110 24.936 108.119 22.8031 105.664 22.409C104.474 20.2741 102.201 18.9062 99.6875 18.9062C97.1622 18.9062 94.8818 20.2784 93.6971 22.4178C93.4086 22.3687 93.1127 22.3438 92.8125 22.3438C92.2099 22.3438 91.6317 22.4486 91.0938 22.6394V1.71875C91.0938 0.769472 90.3242 0 89.375 0H20.625C19.6758 0 18.9062 0.769472 18.9062 1.71875V10.3125H15.4688C14.5196 10.3125 13.75 11.082 13.75 12.0312V25.7812C13.75 26.7305 14.5196 27.5 15.4688 27.5H18.9062V43.8937C17.8942 43.3067 16.7205 42.9688 15.4688 42.9688C15.2764 42.9688 15.0833 42.977 14.888 42.9938C13.6476 41.8756 12.0281 41.25 10.3125 41.25C7.02879 41.25 4.27547 43.564 3.59737 46.647C1.51398 47.3093 0 49.2625 0 51.5625C0 54.4057 2.31314 56.7188 5.15625 56.7188H15.4688C16.7205 56.7188 17.8942 56.3808 18.9062 55.7938V65.3125H12.0312C11.461 65.3125 10.9277 65.5954 10.6079 66.0677C10.2884 66.54 10.2235 67.14 10.4354 67.6696L12.9301 73.9062H12.7358C10.7432 73.9062 8.79055 74.7162 7.37833 76.1284C5.96611 77.5407 5.15625 79.4933 5.15625 81.4859V102.413L0.50333 107.066C0.0119591 107.558 -0.135117 108.297 0.13092 108.939C0.396957 109.581 1.02365 110 1.71875 110H55H55H55H108.281C109.23 110 110 109.231 110 108.281V101.406C110 100.457 109.23 99.6875 108.281 99.6875ZM99.6875 82.5C99.6875 88.1863 95.0614 92.8125 89.375 92.8125C83.6886 92.8125 79.0625 88.1863 79.0625 82.5C79.0625 76.8137 83.6886 72.1875 89.375 72.1875C95.0614 72.1875 99.6875 76.8137 99.6875 82.5ZM43.4721 76.1284L42.4997 77.1008C39.5044 73.9291 37.8125 69.7158 37.8125 65.3125C37.8125 55.8352 45.5227 48.125 55 48.125C58.5648 48.125 62.0149 49.2326 64.8956 51.2675L55 61.1631L51.0592 57.2222C50.3878 56.551 49.2997 56.551 48.6283 57.2222L43.4721 62.3784C42.8009 63.0496 42.8009 64.1379 43.4721 64.8091L53.7846 75.1216C54.1203 75.4572 54.56 75.625 55 75.625C55.44 75.625 55.8797 75.4572 56.2154 75.1216L71.3492 59.9877C71.9062 61.7014 72.1875 63.4841 72.1875 65.3125C72.1875 69.7157 70.4956 73.9289 67.5004 77.1008L66.5279 76.1284C66.2054 75.8061 65.7684 75.625 65.3125 75.625H55H44.6875V75.6251C44.2476 75.6251 43.8078 75.793 43.4721 76.1284ZM55 71.4756L47.1181 63.5938L49.8438 60.8681L53.7846 64.8091C54.456 65.4802 55.544 65.4802 56.2154 64.8091L72.1875 48.8369L74.9131 51.5625L55 71.4756ZM64.6006 79.0625L71.4755 85.9375H55.712L48.837 79.0625H64.6006ZM56.7188 89.375H73.9062V106.562H56.7188V89.375ZM77.3438 103.125H79.0625V106.562H77.3438V103.125ZM77.3438 89.1473C78.1125 90.5331 79.1141 91.7717 80.2947 92.8125H77.3438V89.1473ZM92.8125 25.7812C93.1555 25.7812 93.4558 25.8667 93.7046 26.0353C94.1851 26.361 94.7981 26.4224 95.3342 26.1975C95.8698 25.9725 96.2557 25.4923 96.3595 24.9207C96.3629 24.9043 96.3769 24.8498 96.4367 24.6998C96.4474 24.6729 96.4575 24.6459 96.4669 24.6185C96.9321 23.2579 98.2264 22.3438 99.6875 22.3438C101.145 22.3438 102.439 23.2648 102.908 24.6357C103.175 25.4183 103.961 25.8976 104.776 25.7814C104.799 25.7808 104.821 25.7812 104.844 25.7812C105.791 25.7812 106.562 26.5523 106.562 27.5C106.562 28.4477 105.791 29.2188 104.844 29.2188H92.8125C91.8648 29.2188 91.0938 28.4477 91.0938 27.5C91.0938 26.5523 91.8648 25.7812 92.8125 25.7812ZM17.1875 13.75H30.9375V24.0625H17.1875V13.75ZM15.4688 53.2812H5.15625C4.20855 53.2812 3.4375 52.5102 3.4375 51.5625C3.4375 50.6148 4.20855 49.8438 5.15625 49.8438C6.10542 49.8438 6.875 49.0743 6.875 48.125C6.875 46.2296 8.41709 44.6875 10.3125 44.6875C11.342 44.6875 12.2979 45.1343 12.9351 45.9132C13.3442 46.4133 13.9988 46.6414 14.6304 46.5045C14.939 46.4375 15.2052 46.4062 15.4688 46.4062C17.3642 46.4062 18.9062 47.9483 18.9062 49.8438C18.9062 51.7392 17.3642 53.2812 15.4688 53.2812ZM22.3438 27.5H49.0182C48.7289 27.8812 48.354 28.2903 47.8736 28.6971C46.6666 29.7191 44.5377 30.9375 41.25 30.9375H39.5312C38.5821 30.9375 37.8125 31.707 37.8125 32.6562V39.5312C37.8125 40.4805 38.5821 41.25 39.5312 41.25H70.4688C71.4179 41.25 72.1875 40.4805 72.1875 39.5312V32.6562C72.1875 31.707 71.4179 30.9375 70.4688 30.9375H68.75C65.4623 30.9375 63.3334 29.7191 62.1264 28.6971C61.646 28.2903 61.2712 27.8812 60.9818 27.5H63.5938C64.5429 27.5 65.3125 26.7305 65.3125 25.7812V12.0312C65.3125 11.082 64.5429 10.3125 63.5938 10.3125H58.4375V8.59375C58.4375 7.64447 57.6679 6.875 56.7188 6.875H46.4062C45.9503 6.875 45.5133 7.05606 45.1908 7.37844L42.2569 10.3125H22.3438V3.4375H87.6562V68.8613C80.8832 69.7102 75.625 75.5007 75.625 82.5C75.625 83.558 75.7491 84.5869 75.9764 85.5769L69.9319 79.5323C73.569 75.7173 75.625 70.6303 75.625 65.3125C75.625 62.5401 75.0855 59.8562 74.0204 57.3165L78.5592 52.7778C79.2303 52.1066 79.2303 51.0184 78.5592 50.3472L73.4029 45.1909C72.7315 44.5198 71.6435 44.5198 70.9721 45.1909L67.3558 48.8072C63.8047 46.1426 59.4771 44.6875 55 44.6875C43.6273 44.6875 34.375 53.9398 34.375 65.3125C34.375 70.6304 36.431 75.7174 40.0681 79.5324L36.0938 83.5068V81.4859C36.0938 79.4933 35.2839 77.5407 33.8717 76.1284C32.4594 74.7162 30.5066 73.9062 28.514 73.9062H28.3199L30.8146 67.6696C31.0265 67.14 30.9616 66.54 30.6421 66.0677C30.3223 65.5954 29.789 65.3125 29.2188 65.3125H22.3438V27.5ZM34.375 13.75H37.8125V24.0625H34.375V13.75ZM58.4375 18.9062V13.75H61.875V24.0625H51.5625V20.625H56.7188C57.6679 20.625 58.4375 19.8555 58.4375 18.9062ZM59.4829 30.9375H50.5171C51.6904 29.8344 52.4943 28.6121 52.9205 27.5H57.0795C57.5057 28.6121 58.3096 29.8344 59.4829 30.9375ZM41.25 34.375H68.75V37.8125H41.25V34.375ZM41.25 20.625H46.4062C46.8622 20.625 47.2992 20.4439 47.6217 20.1216L48.125 19.6182V24.0625H41.25V20.625ZM55 17.1875H51.5625V15.4688C51.5625 14.7736 51.1437 14.1469 50.5015 13.8808C49.8589 13.6146 49.1201 13.762 48.6283 14.2534L45.6944 17.1875H41.25V13.75H42.9688C43.4247 13.75 43.8617 13.5689 44.1842 13.2466L47.1181 10.3125H55V17.1875ZM26.6801 68.75L24.6176 73.9062H16.6324L14.5699 68.75H26.6801ZM8.09042 104.34C8.41269 104.018 8.59375 103.581 8.59375 103.125V81.4859C8.59375 80.3982 9.03666 79.3315 9.80917 78.5591C10.5815 77.7868 11.6481 77.3438 12.7358 77.3438H16.4755L15.9721 77.8472C15.3009 78.5184 15.3009 79.6066 15.9721 80.2778C16.6435 80.949 17.7315 80.949 18.4029 80.2778L20.625 78.0556L22.8471 80.2778C23.1828 80.6134 23.6225 80.7812 24.0625 80.7812C24.5025 80.7812 24.9422 80.6134 25.2779 80.2778C25.9491 79.6066 25.9491 78.5184 25.2779 77.8472L24.7745 77.3438H28.514C29.6017 77.3438 30.6685 77.7868 31.4408 78.5591C32.2133 79.3315 32.6562 80.3982 32.6562 81.4859V87.6562V106.562H5.86813L8.09042 104.34ZM42.9688 106.562V91.0938C42.9688 90.146 43.7398 89.375 44.6875 89.375C45.6352 89.375 46.4062 90.146 46.4062 91.0938V106.562H42.9688ZM49.8438 106.562V91.0938C49.8438 88.2505 47.5306 85.9375 44.6875 85.9375C41.8444 85.9375 39.5312 88.2505 39.5312 91.0938V106.562H36.0938V88.3681L44.6875 79.7744L53.2812 88.3681V106.562H49.8438ZM77.3438 99.6875V96.25H101.406V99.6875H80.7812H77.3438ZM106.562 106.562H82.5V103.125H106.562V106.562Z"/>
</mask>
<path d="M108.281 99.6875H104.844V94.5312C104.844 93.582 104.074 92.8125 103.125 92.8125H98.4553C101.316 90.291 103.125 86.6038 103.125 82.5C103.125 75.5007 97.8668 69.7102 91.0938 68.8613V32.3606C91.6317 32.5514 92.2099 32.6562 92.8125 32.6562H104.844C107.687 32.6562 110 30.3432 110 27.5C110 24.936 108.119 22.8031 105.664 22.409C104.474 20.2741 102.201 18.9062 99.6875 18.9062C97.1622 18.9062 94.8818 20.2784 93.6971 22.4178C93.4086 22.3687 93.1127 22.3438 92.8125 22.3438C92.2099 22.3438 91.6317 22.4486 91.0938 22.6394V1.71875C91.0938 0.769472 90.3242 0 89.375 0H20.625C19.6758 0 18.9062 0.769472 18.9062 1.71875V10.3125H15.4688C14.5196 10.3125 13.75 11.082 13.75 12.0312V25.7812C13.75 26.7305 14.5196 27.5 15.4688 27.5H18.9062V43.8937C17.8942 43.3067 16.7205 42.9688 15.4688 42.9688C15.2764 42.9688 15.0833 42.977 14.888 42.9938C13.6476 41.8756 12.0281 41.25 10.3125 41.25C7.02879 41.25 4.27547 43.564 3.59737 46.647C1.51398 47.3093 0 49.2625 0 51.5625C0 54.4057 2.31314 56.7188 5.15625 56.7188H15.4688C16.7205 56.7188 17.8942 56.3808 18.9062 55.7938V65.3125H12.0312C11.461 65.3125 10.9277 65.5954 10.6079 66.0677C10.2884 66.54 10.2235 67.14 10.4354 67.6696L12.9301 73.9062H12.7358C10.7432 73.9062 8.79055 74.7162 7.37833 76.1284C5.96611 77.5407 5.15625 79.4933 5.15625 81.4859V102.413L0.50333 107.066C0.0119591 107.558 -0.135117 108.297 0.13092 108.939C0.396957 109.581 1.02365 110 1.71875 110H55H55H55H108.281C109.23 110 110 109.231 110 108.281V101.406C110 100.457 109.23 99.6875 108.281 99.6875ZM99.6875 82.5C99.6875 88.1863 95.0614 92.8125 89.375 92.8125C83.6886 92.8125 79.0625 88.1863 79.0625 82.5C79.0625 76.8137 83.6886 72.1875 89.375 72.1875C95.0614 72.1875 99.6875 76.8137 99.6875 82.5ZM43.4721 76.1284L42.4997 77.1008C39.5044 73.9291 37.8125 69.7158 37.8125 65.3125C37.8125 55.8352 45.5227 48.125 55 48.125C58.5648 48.125 62.0149 49.2326 64.8956 51.2675L55 61.1631L51.0592 57.2222C50.3878 56.551 49.2997 56.551 48.6283 57.2222L43.4721 62.3784C42.8009 63.0496 42.8009 64.1379 43.4721 64.8091L53.7846 75.1216C54.1203 75.4572 54.56 75.625 55 75.625C55.44 75.625 55.8797 75.4572 56.2154 75.1216L71.3492 59.9877C71.9062 61.7014 72.1875 63.4841 72.1875 65.3125C72.1875 69.7157 70.4956 73.9289 67.5004 77.1008L66.5279 76.1284C66.2054 75.8061 65.7684 75.625 65.3125 75.625H55H44.6875V75.6251C44.2476 75.6251 43.8078 75.793 43.4721 76.1284ZM55 71.4756L47.1181 63.5938L49.8438 60.8681L53.7846 64.8091C54.456 65.4802 55.544 65.4802 56.2154 64.8091L72.1875 48.8369L74.9131 51.5625L55 71.4756ZM64.6006 79.0625L71.4755 85.9375H55.712L48.837 79.0625H64.6006ZM56.7188 89.375H73.9062V106.562H56.7188V89.375ZM77.3438 103.125H79.0625V106.562H77.3438V103.125ZM77.3438 89.1473C78.1125 90.5331 79.1141 91.7717 80.2947 92.8125H77.3438V89.1473ZM92.8125 25.7812C93.1555 25.7812 93.4558 25.8667 93.7046 26.0353C94.1851 26.361 94.7981 26.4224 95.3342 26.1975C95.8698 25.9725 96.2557 25.4923 96.3595 24.9207C96.3629 24.9043 96.3769 24.8498 96.4367 24.6998C96.4474 24.6729 96.4575 24.6459 96.4669 24.6185C96.9321 23.2579 98.2264 22.3438 99.6875 22.3438C101.145 22.3438 102.439 23.2648 102.908 24.6357C103.175 25.4183 103.961 25.8976 104.776 25.7814C104.799 25.7808 104.821 25.7812 104.844 25.7812C105.791 25.7812 106.562 26.5523 106.562 27.5C106.562 28.4477 105.791 29.2188 104.844 29.2188H92.8125C91.8648 29.2188 91.0938 28.4477 91.0938 27.5C91.0938 26.5523 91.8648 25.7812 92.8125 25.7812ZM17.1875 13.75H30.9375V24.0625H17.1875V13.75ZM15.4688 53.2812H5.15625C4.20855 53.2812 3.4375 52.5102 3.4375 51.5625C3.4375 50.6148 4.20855 49.8438 5.15625 49.8438C6.10542 49.8438 6.875 49.0743 6.875 48.125C6.875 46.2296 8.41709 44.6875 10.3125 44.6875C11.342 44.6875 12.2979 45.1343 12.9351 45.9132C13.3442 46.4133 13.9988 46.6414 14.6304 46.5045C14.939 46.4375 15.2052 46.4062 15.4688 46.4062C17.3642 46.4062 18.9062 47.9483 18.9062 49.8438C18.9062 51.7392 17.3642 53.2812 15.4688 53.2812ZM22.3438 27.5H49.0182C48.7289 27.8812 48.354 28.2903 47.8736 28.6971C46.6666 29.7191 44.5377 30.9375 41.25 30.9375H39.5312C38.5821 30.9375 37.8125 31.707 37.8125 32.6562V39.5312C37.8125 40.4805 38.5821 41.25 39.5312 41.25H70.4688C71.4179 41.25 72.1875 40.4805 72.1875 39.5312V32.6562C72.1875 31.707 71.4179 30.9375 70.4688 30.9375H68.75C65.4623 30.9375 63.3334 29.7191 62.1264 28.6971C61.646 28.2903 61.2712 27.8812 60.9818 27.5H63.5938C64.5429 27.5 65.3125 26.7305 65.3125 25.7812V12.0312C65.3125 11.082 64.5429 10.3125 63.5938 10.3125H58.4375V8.59375C58.4375 7.64447 57.6679 6.875 56.7188 6.875H46.4062C45.9503 6.875 45.5133 7.05606 45.1908 7.37844L42.2569 10.3125H22.3438V3.4375H87.6562V68.8613C80.8832 69.7102 75.625 75.5007 75.625 82.5C75.625 83.558 75.7491 84.5869 75.9764 85.5769L69.9319 79.5323C73.569 75.7173 75.625 70.6303 75.625 65.3125C75.625 62.5401 75.0855 59.8562 74.0204 57.3165L78.5592 52.7778C79.2303 52.1066 79.2303 51.0184 78.5592 50.3472L73.4029 45.1909C72.7315 44.5198 71.6435 44.5198 70.9721 45.1909L67.3558 48.8072C63.8047 46.1426 59.4771 44.6875 55 44.6875C43.6273 44.6875 34.375 53.9398 34.375 65.3125C34.375 70.6304 36.431 75.7174 40.0681 79.5324L36.0938 83.5068V81.4859C36.0938 79.4933 35.2839 77.5407 33.8717 76.1284C32.4594 74.7162 30.5066 73.9062 28.514 73.9062H28.3199L30.8146 67.6696C31.0265 67.14 30.9616 66.54 30.6421 66.0677C30.3223 65.5954 29.789 65.3125 29.2188 65.3125H22.3438V27.5ZM34.375 13.75H37.8125V24.0625H34.375V13.75ZM58.4375 18.9062V13.75H61.875V24.0625H51.5625V20.625H56.7188C57.6679 20.625 58.4375 19.8555 58.4375 18.9062ZM59.4829 30.9375H50.5171C51.6904 29.8344 52.4943 28.6121 52.9205 27.5H57.0795C57.5057 28.6121 58.3096 29.8344 59.4829 30.9375ZM41.25 34.375H68.75V37.8125H41.25V34.375ZM41.25 20.625H46.4062C46.8622 20.625 47.2992 20.4439 47.6217 20.1216L48.125 19.6182V24.0625H41.25V20.625ZM55 17.1875H51.5625V15.4688C51.5625 14.7736 51.1437 14.1469 50.5015 13.8808C49.8589 13.6146 49.1201 13.762 48.6283 14.2534L45.6944 17.1875H41.25V13.75H42.9688C43.4247 13.75 43.8617 13.5689 44.1842 13.2466L47.1181 10.3125H55V17.1875ZM26.6801 68.75L24.6176 73.9062H16.6324L14.5699 68.75H26.6801ZM8.09042 104.34C8.41269 104.018 8.59375 103.581 8.59375 103.125V81.4859C8.59375 80.3982 9.03666 79.3315 9.80917 78.5591C10.5815 77.7868 11.6481 77.3438 12.7358 77.3438H16.4755L15.9721 77.8472C15.3009 78.5184 15.3009 79.6066 15.9721 80.2778C16.6435 80.949 17.7315 80.949 18.4029 80.2778L20.625 78.0556L22.8471 80.2778C23.1828 80.6134 23.6225 80.7812 24.0625 80.7812C24.5025 80.7812 24.9422 80.6134 25.2779 80.2778C25.9491 79.6066 25.9491 78.5184 25.2779 77.8472L24.7745 77.3438H28.514C29.6017 77.3438 30.6685 77.7868 31.4408 78.5591C32.2133 79.3315 32.6562 80.3982 32.6562 81.4859V87.6562V106.562H5.86813L8.09042 104.34ZM42.9688 106.562V91.0938C42.9688 90.146 43.7398 89.375 44.6875 89.375C45.6352 89.375 46.4062 90.146 46.4062 91.0938V106.562H42.9688ZM49.8438 106.562V91.0938C49.8438 88.2505 47.5306 85.9375 44.6875 85.9375C41.8444 85.9375 39.5312 88.2505 39.5312 91.0938V106.562H36.0938V88.3681L44.6875 79.7744L53.2812 88.3681V106.562H49.8438ZM77.3438 99.6875V96.25H101.406V99.6875H80.7812H77.3438ZM106.562 106.562H82.5V103.125H106.562V106.562Z" fill="#3246D3" stroke="#F2F6FE" stroke-width="0.6" mask="url(#path-3-inside-1)"/>
<path d="M22.1937 85.9375V86.0875H22.3438H24.0625C24.9288 86.0875 25.6313 86.7898 25.6313 87.6562C25.6313 88.5227 24.9288 89.225 24.0625 89.225H19.7656C19.2088 89.225 18.7562 89.6777 18.7562 90.2344C18.7562 90.7911 19.2088 91.2438 19.7656 91.2438H21.4844C23.7709 91.2438 25.6313 93.1042 25.6313 95.3906C25.6313 97.3928 24.2044 99.0686 22.3138 99.4539L22.1937 99.4784V99.6009V99.6875C22.1937 100.554 21.4913 101.256 20.625 101.256C19.7587 101.256 19.0563 100.554 19.0563 99.6875V99.5375H18.9062H17.1875C16.3212 99.5375 15.6188 98.8352 15.6188 97.9688C15.6188 97.1023 16.3212 96.4 17.1875 96.4H21.4844C22.0412 96.4 22.4938 95.9473 22.4938 95.3906C22.4938 94.8339 22.0412 94.3813 21.4844 94.3813H19.7656C17.4791 94.3813 15.6188 92.5208 15.6188 90.2344C15.6188 88.2322 17.0456 86.5564 18.9362 86.1711L19.0563 86.1466V86.0241V85.9375C19.0563 85.0711 19.7587 84.3688 20.625 84.3688C21.4913 84.3688 22.1937 85.0711 22.1937 85.9375Z" fill="#3246D3" stroke="#F2F6FE" stroke-width="0.3"/>
<path d="M13.6 92.8125C13.6 93.6789 12.8976 94.3812 12.0312 94.3812C11.1649 94.3812 10.4625 93.6789 10.4625 92.8125C10.4625 91.9461 11.1649 91.2438 12.0312 91.2438C12.8976 91.2438 13.6 91.9461 13.6 92.8125Z" fill="#3246D3" stroke="#F2F6FE" stroke-width="0.3"/>
<path d="M30.7875 92.8125C30.7875 93.6789 30.0851 94.3812 29.2188 94.3812C28.3524 94.3812 27.65 93.6789 27.65 92.8125C27.65 91.9461 28.3524 91.2438 29.2188 91.2438C30.0851 91.2438 30.7875 91.9461 30.7875 92.8125Z" fill="#3246D3" stroke="#F2F6FE" stroke-width="0.3"/>
</g>
<defs>
<clipPath id="clip0">
<rect width="110" height="110" fill="white"/>
</clipPath>
</defs>
</svg>
