<svg width="32" height="32" viewBox="0 0 32 32" fill="none" xmlns="http://www.w3.org/2000/svg">
<g clip-path="url(#clip0)">
<path fill-rule="evenodd" clip-rule="evenodd" d="M1.39876e-06 16.001C1.76974e-06 11.7575 1.68571 7.68785 4.6863 4.68727C7.68688 1.68669 11.7565 0.000974793 16 0.000975164C20.2435 0.000975535 24.3131 1.68669 27.3137 4.68727C30.3143 7.68785 32 11.7575 32 16.001C32 20.2444 30.3143 24.3141 27.3137 27.3147C24.3131 30.3153 20.2435 32.001 16 32.001C11.7565 32.001 7.68687 30.3153 4.68629 27.3147C1.68571 24.3141 1.02779e-06 20.2444 1.39876e-06 16.001ZM16 24.001C16.2528 24.0008 16.5027 23.9477 16.7338 23.8451C16.9648 23.7425 17.1717 23.5926 17.3413 23.4052C17.5109 23.2177 17.6393 22.9968 17.7183 22.7566C17.7973 22.5165 17.8251 22.2625 17.8 22.011L17.8 15.361C17.8 14.721 16.8841 13.9669 16 13.9869C15.141 14.0062 14.2817 14.721 14.2817 15.361L14.2 22.011C14.1749 22.2625 14.2027 22.5165 14.2817 22.7566C14.3607 22.9968 14.4891 23.2177 14.6587 23.4052C14.8283 23.5926 15.0352 23.7425 15.2662 23.8451C15.4973 23.9477 15.7472 24.0008 16 24.001ZM15.996 12.001C16.5264 12.001 17.0351 11.7903 17.4102 11.4152C17.7853 11.0401 17.996 10.5314 17.996 10.001C17.996 9.47054 17.7853 8.96183 17.4102 8.58676C17.0351 8.21169 16.5264 8.00098 15.996 8.00098C15.4656 8.00098 14.9569 8.21169 14.5818 8.58676C14.2067 8.96183 13.996 9.47054 13.996 10.001C13.996 10.5314 14.2067 11.0401 14.5818 11.4152C14.9569 11.7903 15.4656 12.001 15.996 12.001Z" fill="#FF0340"/>
<path fill-rule="evenodd" clip-rule="evenodd" d="M1.39876e-06 16.001C1.76974e-06 11.7575 1.68571 7.68785 4.6863 4.68727C7.68688 1.68669 11.7565 0.000974793 16 0.000975164C20.2435 0.000975535 24.3131 1.68669 27.3137 4.68727C30.3143 7.68785 32 11.7575 32 16.001C32 20.2444 30.3143 24.3141 27.3137 27.3147C24.3131 30.3153 20.2435 32.001 16 32.001C11.7565 32.001 7.68687 30.3153 4.68629 27.3147C1.68571 24.3141 1.02779e-06 20.2444 1.39876e-06 16.001ZM16 24.001C16.2528 24.0008 16.5027 23.9477 16.7338 23.8451C16.9648 23.7425 17.1717 23.5926 17.3413 23.4052C17.5109 23.2177 17.6393 22.9968 17.7183 22.7566C17.7973 22.5165 17.8251 22.2625 17.8 22.011L17.8 15.361C17.8 14.721 16.8841 13.9669 16 13.9869C15.141 14.0062 14.2817 14.721 14.2817 15.361L14.2 22.011C14.1749 22.2625 14.2027 22.5165 14.2817 22.7566C14.3607 22.9968 14.4891 23.2177 14.6587 23.4052C14.8283 23.5926 15.0352 23.7425 15.2662 23.8451C15.4973 23.9477 15.7472 24.0008 16 24.001ZM15.996 12.001C16.5264 12.001 17.0351 11.7903 17.4102 11.4152C17.7853 11.0401 17.996 10.5314 17.996 10.001C17.996 9.47054 17.7853 8.96183 17.4102 8.58676C17.0351 8.21169 16.5264 8.00098 15.996 8.00098C15.4656 8.00098 14.9569 8.21169 14.5818 8.58676C14.2067 8.96183 13.996 9.47054 13.996 10.001C13.996 10.5314 14.2067 11.0401 14.5818 11.4152C14.9569 11.7903 15.4656 12.001 15.996 12.001Z" fill="#D33232"/>
</g>
<defs>
<clipPath id="clip0">
<rect width="32" height="32" fill="white"/>
</clipPath>
</defs>
</svg>
