<svg width="110" height="110" viewBox="0 0 110 110" fill="none" xmlns="http://www.w3.org/2000/svg">
<g clip-path="url(#clip0)">
<path d="M73.0716 106.388H7.48783V3.61283H63.1788V17.6276C63.1788 18.1378 63.3815 18.6271 63.7422 18.9878C64.103 19.3486 64.5923 19.5512 65.1024 19.5512H79.1161V45.3825C79.1161 45.8926 79.3188 46.3819 79.6795 46.7426C80.0403 47.1034 80.5296 47.306 81.0397 47.306C81.5499 47.306 82.0392 47.1034 82.3999 46.7426C82.7607 46.3819 82.9633 45.8926 82.9633 45.3825V17.6276C82.9631 17.1176 82.7602 16.6285 82.3994 16.2679L66.461 0.329514C66.1005 -0.0312892 65.6114 -0.23412 65.1013 -0.234375H5.56423C5.05406 -0.234375 4.56478 -0.0317109 4.20403 0.329034C3.84329 0.689779 3.64063 1.17906 3.64062 1.68923V108.312C3.64063 108.822 3.84329 109.311 4.20403 109.672C4.56478 110.033 5.05406 110.235 5.56423 110.235H73.0716C73.5818 110.235 74.0711 110.033 74.4318 109.672C74.7926 109.311 74.9952 108.822 74.9952 108.312C74.9952 107.802 74.7926 107.312 74.4318 106.951C74.0711 106.591 73.5818 106.388 73.0716 106.388ZM67.026 6.33335L76.3956 15.7029H67.026V6.33335Z" fill="#3246D3"/>
<path d="M39.7922 45.8411H49.7487C50.2589 45.8411 50.7482 45.6384 51.1089 45.2777C51.4697 44.9169 51.6723 44.4276 51.6723 43.9175V23.136L53.0573 23.8692C53.2809 23.9923 53.5267 24.0698 53.7805 24.097C54.0342 24.1242 54.2909 24.1007 54.5355 24.0277C54.7801 23.9548 55.0077 23.8339 55.2051 23.6721C55.4025 23.5103 55.5657 23.3108 55.6852 23.0853C55.8048 22.8598 55.8782 22.6128 55.9013 22.3586C55.9244 22.1044 55.8967 21.8481 55.8198 21.6048C55.7429 21.3614 55.6184 21.1358 55.4534 20.941C55.2884 20.7463 55.0863 20.5863 54.8589 20.4704L35.403 10.1621C35.1245 10.0134 34.8136 9.93555 34.4979 9.93555C34.1821 9.93555 33.8712 10.0134 33.5927 10.1621L14.3929 20.4704C13.9434 20.7117 13.6081 21.1216 13.4608 21.6101C13.3135 22.0985 13.3663 22.6255 13.6075 23.075C13.8488 23.5245 14.2587 23.8598 14.7472 24.0071C15.2356 24.1544 15.7626 24.1016 16.2121 23.8604L17.5674 23.1327V43.9175C17.5674 44.4276 17.7701 44.9169 18.1308 45.2777C18.4916 45.6384 18.9808 45.8411 19.491 45.8411H29.4476C29.9577 45.8411 30.447 45.6384 30.8078 45.2777C31.1685 44.9169 31.3712 44.4276 31.3712 43.9175V35.0975H37.8686V43.9175C37.8686 44.4276 38.0712 44.9169 38.432 45.2777C38.7927 45.6384 39.282 45.8411 39.7922 45.8411ZM29.4476 31.2503C29.1947 31.2499 28.9442 31.2993 28.7104 31.3958C28.4767 31.4922 28.2642 31.6339 28.0853 31.8125C27.9063 31.9912 27.7643 32.2034 27.6674 32.437C27.5705 32.6706 27.5207 32.921 27.5207 33.1739V41.9939H21.4146V21.0684L34.5083 14.0423L47.8251 21.0981V41.9939H41.7158V33.1739C41.7158 32.6637 41.5131 32.1744 41.1523 31.8137C40.7916 31.453 40.3023 31.2503 39.7922 31.2503H29.4476Z" fill="#3246D3"/>
<path d="M58.4608 54.0007C58.4608 53.4906 58.2582 53.0013 57.8974 52.6406C57.5367 52.2798 57.0474 52.0771 56.5373 52.0771H15.1502C14.64 52.0771 14.1507 52.2798 13.79 52.6406C13.4292 53.0013 13.2266 53.4906 13.2266 54.0007C13.2266 54.5109 13.4292 55.0002 13.79 55.3609C14.1507 55.7217 14.64 55.9243 15.1502 55.9243H56.5383C57.0483 55.924 57.5373 55.7212 57.8978 55.3605C58.2583 54.9998 58.4609 54.5107 58.4608 54.0007Z" fill="#3246D3"/>
<path d="M15.1502 64.9849H34.8446C35.3547 64.9849 35.844 64.7822 36.2047 64.4215C36.5655 64.0607 36.7682 63.5715 36.7682 63.0613C36.7682 62.5511 36.5655 62.0619 36.2047 61.7011C35.844 61.3404 35.3547 61.1377 34.8446 61.1377H15.1502C14.64 61.1377 14.1507 61.3404 13.79 61.7011C13.4292 62.0619 13.2266 62.5511 13.2266 63.0613C13.2266 63.5715 13.4292 64.0607 13.79 64.4215C14.1507 64.7822 14.64 64.9849 15.1502 64.9849Z" fill="#3246D3"/>
<path d="M49.7475 70.1992H15.1502C14.64 70.1992 14.1507 70.4019 13.79 70.7626C13.4292 71.1234 13.2266 71.6126 13.2266 72.1228C13.2266 72.633 13.4292 73.1223 13.79 73.483C14.1507 73.8438 14.64 74.0464 15.1502 74.0464H49.7475C50.2577 74.0464 50.747 73.8438 51.1077 73.483C51.4684 73.1223 51.6711 72.633 51.6711 72.1228C51.6711 71.6126 51.4684 71.1234 51.1077 70.7626C50.747 70.4019 50.2577 70.1992 49.7475 70.1992Z" fill="#3246D3"/>
<path d="M15.1502 83.107H34.8446C35.3547 83.107 35.844 82.9043 36.2047 82.5436C36.5655 82.1828 36.7682 81.6935 36.7682 81.1834C36.7682 80.6732 36.5655 80.1839 36.2047 79.8232C35.844 79.4624 35.3547 79.2598 34.8446 79.2598H15.1502C14.64 79.2598 14.1507 79.4624 13.79 79.8232C13.4292 80.1839 13.2266 80.6732 13.2266 81.1834C13.2266 81.6935 13.4292 82.1828 13.79 82.5436C14.1507 82.9043 14.64 83.107 15.1502 83.107Z" fill="#3246D3"/>
<path d="M51.6711 90.2439C51.6711 89.7337 51.4684 89.2445 51.1077 88.8837C50.747 88.523 50.2577 88.3203 49.7475 88.3203H15.1502C14.64 88.3203 14.1507 88.523 13.79 88.8837C13.4292 89.2445 13.2266 89.7337 13.2266 90.2439C13.2266 90.7541 13.4292 91.2434 13.79 91.6041C14.1507 91.9649 14.64 92.1675 15.1502 92.1675H49.7475C50.2577 92.1675 50.747 91.9649 51.1077 91.6041C51.4684 91.2434 51.6711 90.7541 51.6711 90.2439Z" fill="#3246D3"/>
<path d="M15.3025 97.3818C14.7923 97.3818 14.3031 97.5845 13.9423 97.9452C13.5816 98.306 13.3789 98.7953 13.3789 99.3054C13.3789 99.8156 13.5816 100.305 13.9423 100.666C14.3031 101.026 14.7923 101.229 15.3025 101.229H34.8463C35.3565 101.229 35.8457 101.026 36.2065 100.666C36.5672 100.305 36.7699 99.8156 36.7699 99.3054C36.7699 98.7953 36.5672 98.306 36.2065 97.9452C35.8457 97.5845 35.3565 97.3818 34.8463 97.3818H15.3025Z" fill="#3246D3"/>
<path d="M73.9835 99.6405C69.5156 98.0863 65.6863 95.0994 63.0911 91.1444C60.4958 87.1893 59.28 82.4875 59.6326 77.7702C59.9852 73.0528 61.8866 68.5841 65.041 65.0588C68.1954 61.5335 72.4262 59.1492 77.0756 58.2765L75.2696 60.8585C75.1228 61.0654 75.0184 61.2993 74.9624 61.5467C74.9064 61.7942 74.8999 62.0502 74.9432 62.3002C74.9866 62.5501 75.0789 62.7891 75.215 63.0032C75.351 63.2173 75.5281 63.4024 75.736 63.5478C75.9439 63.6932 76.1785 63.796 76.4263 63.8504C76.6741 63.9047 76.9302 63.9096 77.1798 63.8646C77.4295 63.8195 77.6678 63.7256 77.881 63.5881C78.0942 63.4506 78.2781 63.2723 78.4221 63.0635L82.6166 57.0674C82.9083 56.6504 83.0229 56.1349 82.9354 55.6337C82.8478 55.1325 82.5652 54.6864 82.1495 54.393L76.3061 50.2732C76.0998 50.1275 75.8668 50.0238 75.6204 49.9682C75.3739 49.9125 75.119 49.9059 74.87 49.9488C74.6211 49.9917 74.383 50.0832 74.1694 50.218C73.9558 50.3529 73.7709 50.5285 73.6252 50.7349C73.4795 50.9412 73.3758 51.1742 73.3202 51.4207C73.2645 51.6671 73.2579 51.922 73.3008 52.171C73.3436 52.4199 73.4351 52.658 73.57 52.8716C73.7049 53.0852 73.8805 53.2701 74.0868 53.4158L75.762 54.5986C70.3562 55.7517 65.4762 58.642 61.8669 62.8283C58.2575 67.0145 56.117 72.2668 55.772 77.7834C55.4271 83.3001 56.8967 88.7781 59.9565 93.3813C63.0163 97.9846 67.4983 101.46 72.7183 103.278C72.9602 103.377 73.2198 103.427 73.4814 103.422C73.7429 103.418 74.0009 103.361 74.2395 103.254C74.478 103.146 74.6923 102.992 74.869 102.799C75.0457 102.606 75.1813 102.379 75.2674 102.132C75.3534 101.885 75.3882 101.623 75.3696 101.362C75.351 101.101 75.2794 100.847 75.1591 100.615C75.0388 100.382 74.8725 100.177 74.6701 100.011C74.4678 99.8455 74.2338 99.7227 73.9824 99.6504L73.9835 99.6405Z" fill="#3246D3"/>
<path d="M106.356 79.3584C106.356 74.0861 104.711 68.9452 101.649 64.6526C98.5881 60.36 94.2636 57.1298 89.2789 55.4123C88.7962 55.2463 88.2674 55.2788 87.8088 55.5026C87.3501 55.7265 86.9992 56.1234 86.8331 56.606C86.6671 57.0886 86.6996 57.6174 86.9235 58.0761C87.1474 58.5348 87.5443 58.8857 88.0269 59.0517C92.5062 60.5929 96.3498 63.5725 98.9588 67.5263C101.568 71.4801 102.796 76.1859 102.451 80.9103C102.106 85.6348 100.208 90.1124 97.0527 93.6456C93.8974 97.1787 89.6619 99.5687 85.0063 100.443L86.8156 97.8568C87.1039 97.4387 87.2152 96.9234 87.1251 96.4235C87.0349 95.9236 86.7508 95.4796 86.3345 95.1885C85.9183 94.8974 85.4038 94.7827 84.9033 94.8695C84.4028 94.9563 83.957 95.2375 83.6631 95.6518L79.4685 101.648C79.1768 102.065 79.0622 102.58 79.1498 103.082C79.2373 103.583 79.5199 104.029 79.9357 104.322L85.7757 108.448C85.9821 108.593 86.2151 108.697 86.4615 108.753C86.7079 108.808 86.9629 108.815 87.2118 108.772C87.4608 108.729 87.6988 108.638 87.9124 108.503C88.126 108.368 88.311 108.192 88.4567 107.986C88.6024 107.78 88.706 107.547 88.7617 107.3C88.8174 107.054 88.8239 106.799 88.7811 106.55C88.7382 106.301 88.6467 106.063 88.5119 105.849C88.377 105.636 88.2014 105.451 87.995 105.305L86.2868 104.096C91.9561 102.888 97.0402 99.7743 100.692 95.273C104.344 90.7716 106.343 85.1548 106.356 79.3584Z" fill="#3246D3"/>
<path d="M92.3084 73.3904C92.4695 73.1955 92.5905 72.9708 92.6647 72.7292C92.7389 72.4875 92.7648 72.2336 92.7408 71.982C92.7169 71.7303 92.6436 71.4858 92.5252 71.2625C92.4068 71.0391 92.2455 70.8413 92.0507 70.6803C91.8558 70.5193 91.6311 70.3982 91.3895 70.324C91.1478 70.2498 90.8939 70.224 90.6422 70.2479C90.3906 70.2718 90.1461 70.3451 89.9228 70.4635C89.6994 70.5819 89.5016 70.7432 89.3406 70.9381L78.0309 84.611L71.5676 78.4137C71.3864 78.2339 71.1712 78.0919 70.9345 77.9961C70.6978 77.9003 70.4445 77.8525 70.1892 77.8557C69.9338 77.8588 69.6817 77.9127 69.4475 78.0143C69.2132 78.1158 69.0015 78.263 68.8247 78.4473C68.6479 78.6315 68.5096 78.8491 68.4178 79.0873C68.3259 79.3255 68.2825 79.5797 68.2899 79.8349C68.2973 80.0901 68.3554 80.3413 68.4609 80.5738C68.5664 80.8064 68.7171 81.0155 68.9043 81.1892L76.8614 88.8221C77.2194 89.1655 77.6964 89.3573 78.1925 89.3574H78.3024C78.5664 89.3421 78.8245 89.2726 79.0605 89.1533C79.2965 89.034 79.5054 88.8673 79.6742 88.6638L92.3084 73.3904Z" fill="#3246D3"/>
</g>
<defs>
<clipPath id="clip0">
<rect width="110" height="110" fill="white"/>
</clipPath>
</defs>
</svg>
