<?xml version="1.0" encoding="UTF-8"?>
<svg width="20px" height="24px" viewBox="0 0 20 24" version="1.1" xmlns="http://www.w3.org/2000/svg" xmlns:xlink="http://www.w3.org/1999/xlink">
    <title>Artboard</title>
    <g id="Artboard" stroke="none" stroke-width="1" fill="none" fill-rule="evenodd">
        <g id="request-ic" fill="#9FA3C0" fill-rule="nonzero" stroke="#9FA3C0" stroke-width="0.2">
            <path d="M18.7884762,0.9 L1.56621905,0.9 C1.17461905,0.9 0.857142857,1.23335 0.857142857,1.64453 L0.857142857,22.3555 C0.857142857,22.7667 1.17461905,23.1 1.56621905,23.1 L18.7884762,23.1 C19.18,23.1 19.4975238,22.7667 19.4975238,22.3555 L19.4975238,1.64453 C19.4975238,1.23335 19.18,0.9 18.7884762,0.9 Z M18.0793333,21.6109 L2.27529524,21.6109 L2.27529524,2.38906 L18.0793333,2.38906 L18.0793333,21.6109 Z" id="Shape"></path>
            <path d="M7.46385714,4.81534 C7.18698095,4.52457 6.73799048,4.52458 6.46107619,4.81534 L5.09793333,6.24664 L4.72061905,5.85038 C4.72060952,5.85038 4.72060952,5.85038 4.72060952,5.85038 C4.4437619,5.55959 3.99478095,5.55962 3.71782857,5.85037 L3.71782857,5.85037 C3.44090476,6.14114 3.44090476,6.61253 3.71782857,6.90329 C3.71782857,6.90329 3.71782857,6.90329 3.71782857,6.90329 L4.59655238,7.826 L4.59655238,7.826 C4.72952381,7.96562 4.90986667,8.0441 5.09792381,8.0441 C5.28598095,8.0441 5.4663619,7.96563 5.59929524,7.82605 L7.46384762,5.86826 C7.7407619,5.5775 7.7407619,5.10611 7.46385714,4.81534 Z" id="Shape"></path>
            <path d="M9.34895238,7.27383 L16.104381,7.27383 C16.4959048,7.27383 16.8134286,6.94048 16.8134286,6.5293 C16.8134286,6.11812 16.4959048,5.78477 16.104381,5.78477 L9.34895238,5.78477 C8.95733333,5.78477 8.63990476,6.11812 8.63990476,6.5293 C8.63990476,6.94047 8.95733333,7.27383 9.34895238,7.27383 Z M9.34895238,11.1842 L16.104381,11.1842 C16.4959048,11.1842 16.8134286,10.8509 16.8134286,10.4397 C16.8134286,10.0285 16.4959048,9.69515 16.104381,9.69515 L9.34895238,9.69515 C8.95733333,9.69515 8.63990476,10.0285 8.63990476,10.4397 C8.63990476,10.8509 8.95733333,11.1842 9.34895238,11.1842 Z M9.34895238,15.0945 L16.104381,15.0945 C16.4959048,15.0945 16.8134286,14.7611 16.8134286,14.3499 C16.8134286,13.9388 16.4959048,13.6054 16.104381,13.6054 L9.34895238,13.6054 C8.95733333,13.6054 8.63990476,13.9388 8.63990476,14.3499 C8.63990476,14.7611 8.95733333,15.0945 9.34895238,15.0945 Z M9.34895238,19.1547 L16.104381,19.1547 C16.4959048,19.1547 16.8134286,18.8213 16.8134286,18.4102 C16.8134286,17.999 16.4959048,17.6656 16.104381,17.6656 L9.34895238,17.6656 C8.95733333,17.6656 8.63990476,17.999 8.63990476,18.4102 C8.63990476,18.8213 8.95733333,19.1547 9.34895238,19.1547 Z" id="Shape"></path>
            <path d="M7.46387619,12.6356 C7.18699048,12.3449 6.73800952,12.3449 6.46109524,12.6356 L6.46109524,12.6356 L5.09795238,14.0669 L4.72062857,13.6707 C4.72062857,13.6707 4.72062857,13.6707 4.72062857,13.6707 C4.44378095,13.3799 3.99479048,13.3799 3.71784762,13.6707 C3.44087619,13.9614 3.44093333,14.4328 3.7178381,14.7236 L4.59657143,15.6463 C4.72954286,15.7859 4.90988571,15.8643 5.09794286,15.8643 C5.28599048,15.8643 5.46638095,15.7859 5.59931429,15.6463 L7.46387619,13.6886 C7.7407619,13.3978 7.7407619,12.9264 7.46387619,12.6356 Z" id="Shape"></path>
            <path d="M7.46387619,8.6356 C7.18699048,8.3449 6.73800952,8.3449 6.46109524,8.6356 L6.46109524,8.6356 L5.09795238,10.0669 L4.72062857,9.6707 C4.72062857,9.6707 4.72062857,9.6707 4.72062857,9.6707 C4.44378095,9.3799 3.99479048,9.3799 3.71784762,9.6707 C3.44087619,9.9614 3.44093333,10.4328 3.7178381,10.7236 L4.59657143,11.6463 C4.72954286,11.7859 4.90988571,11.8643 5.09794286,11.8643 C5.28599048,11.8643 5.46638095,11.7859 5.59931429,11.6463 L7.46387619,9.6886 C7.7407619,9.3978 7.7407619,8.9264 7.46387619,8.6356 Z" id="Shape"></path>
        </g>
    </g>
</svg>