<svg width="24" height="24" viewBox="0 0 24 24" fill="none" xmlns="http://www.w3.org/2000/svg">
<path fill-rule="evenodd" clip-rule="evenodd" d="M7.38702 3.03548C7.323 3.09934 7.2722 3.1752 7.23754 3.25873C7.20288 3.34225 7.18504 3.4318 7.18504 3.52222C7.18504 3.61265 7.20288 3.7022 7.23754 3.78572C7.2722 3.86925 7.323 3.94511 7.38702 4.00898L15.1516 11.7722L7.38702 19.5355C7.25793 19.6646 7.1854 19.8397 7.1854 20.0222C7.1854 20.2048 7.25793 20.3799 7.38702 20.509C7.51612 20.6381 7.69121 20.7106 7.87377 20.7106C8.05634 20.7106 8.23143 20.6381 8.36052 20.509L16.6105 12.259C16.6745 12.1951 16.7253 12.1192 16.76 12.0357C16.7947 11.9522 16.8125 11.8627 16.8125 11.7722C16.8125 11.6818 16.7947 11.5923 16.76 11.5087C16.7253 11.4252 16.6745 11.3493 16.6105 11.2855L8.36052 3.03548C8.29666 2.97145 8.22079 2.92065 8.13727 2.886C8.05374 2.85134 7.9642 2.8335 7.87377 2.8335C7.78334 2.8335 7.6938 2.85134 7.61028 2.886C7.52675 2.92065 7.45088 2.97145 7.38702 3.03548Z" fill="#3246D3" stroke="#3246D3" stroke-width="1.8"/>
</svg>
