<svg width="20" height="20" viewBox="0 0 20 20" fill="none" xmlns="http://www.w3.org/2000/svg">
<path d="M17.1561 9.44491L3.40612 2.56991C3.29835 2.51602 3.1773 2.49442 3.05754 2.50773C2.93778 2.52104 2.82443 2.56868 2.73112 2.64491C2.64201 2.7196 2.5755 2.81766 2.53906 2.92807C2.50262 3.03848 2.49771 3.15686 2.52487 3.26991L4.18112 9.37616H11.2499V10.6262H4.18112L2.49987 16.7137C2.47438 16.8081 2.47141 16.9071 2.49118 17.0029C2.51096 17.0987 2.55292 17.1885 2.61372 17.2651C2.67451 17.3417 2.75242 17.4029 2.8412 17.4439C2.92998 17.4849 3.02714 17.5045 3.12487 17.5012C3.22271 17.5006 3.31904 17.477 3.40612 17.4324L17.1561 10.5574C17.2585 10.505 17.3444 10.4253 17.4044 10.3271C17.4644 10.229 17.4961 10.1162 17.4961 10.0012C17.4961 9.88613 17.4644 9.77334 17.4044 9.67519C17.3444 9.57705 17.2585 9.49736 17.1561 9.44491Z" fill="white"/>
</svg>
