<svg width="32" height="33" viewBox="0 0 32 33" fill="none" xmlns="http://www.w3.org/2000/svg">
<path d="M24 11.6543C26.2091 11.6543 28 9.86344 28 7.6543C28 5.44516 26.2091 3.6543 24 3.6543C21.7909 3.6543 20 5.44516 20 7.6543C20 9.86344 21.7909 11.6543 24 11.6543Z" stroke="white" stroke-width="2" stroke-linecap="round" stroke-linejoin="round"/>
<path d="M8 20.9883C10.2091 20.9883 12 19.1974 12 16.9883C12 14.7791 10.2091 12.9883 8 12.9883C5.79086 12.9883 4 14.7791 4 16.9883C4 19.1974 5.79086 20.9883 8 20.9883Z" stroke="white" stroke-width="2" stroke-linecap="round" stroke-linejoin="round"/>
<path d="M24 30.3223C26.2091 30.3223 28 28.5314 28 26.3223C28 24.1131 26.2091 22.3223 24 22.3223C21.7909 22.3223 20 24.1131 20 26.3223C20 28.5314 21.7909 30.3223 24 30.3223Z" stroke="white" stroke-width="2" stroke-linecap="round" stroke-linejoin="round"/>
<path d="M11.4531 19.002L20.5598 24.3086" stroke="white" stroke-width="2" stroke-linecap="round" stroke-linejoin="round"/>
<path d="M20.5465 9.66797L11.4531 14.9746" stroke="white" stroke-width="2" stroke-linecap="round" stroke-linejoin="round"/>
</svg>
