<svg width="100" height="100" viewBox="0 0 100 100" fill="none" xmlns="http://www.w3.org/2000/svg">
<g clip-path="url(#clip0)">
<rect width="100" height="100" rx="14.2857" fill="#F2F6FE"/>
<path d="M66 68V64C66 61.8783 65.1571 59.8434 63.6569 58.3431C62.1566 56.8429 60.1217 56 58 56H42C39.8783 56 37.8434 56.8429 36.3431 58.3431C34.8429 59.8434 34 61.8783 34 64V68" stroke="#3246D3" stroke-width="4" stroke-linecap="round" stroke-linejoin="round"/>
<path d="M50 48C54.4183 48 58 44.4183 58 40C58 35.5817 54.4183 32 50 32C45.5817 32 42 35.5817 42 40C42 44.4183 45.5817 48 50 48Z" stroke="#3246D3" stroke-width="4" stroke-linecap="round" stroke-linejoin="round"/>
</g>
<defs>
<clipPath id="clip0">
<rect width="100" height="100" rx="14.2857" fill="white"/>
</clipPath>
</defs>
</svg>
