<svg width="18" height="20" viewBox="0 0 18 20" fill="none" xmlns="http://www.w3.org/2000/svg">
<path fill-rule="evenodd" clip-rule="evenodd" d="M11.82 2H16C17.1 2 18 2.9 18 4V18C18 19.1 17.1 20 16 20H2C0.9 20 0 19.1 0 18V4C0 2.9 0.9 2 2 2H6.18C6.6 0.84 7.7 0 9 0C10.3 0 11.4 0.84 11.82 2ZM10 3C10 2.45 9.55 2 9 2C8.45 2 8 2.45 8 3C8 3.55 8.45 4 9 4C9.55 4 10 3.55 10 3ZM8.06665 6.99999H9.93332V10.7333H13.6667V12.6H9.93332V16.3333H8.06665V12.6H4.33332V10.7333H8.06665V6.99999Z" fill="#A953DE"/>
</svg>
