<svg width="10" height="10" viewBox="0 0 10 10" fill="none" xmlns="http://www.w3.org/2000/svg">
<path d="M10 5C10 6.32608 9.47322 7.59785 8.53553 8.53553C7.59785 9.47322 6.32608 10 5 10C3.67392 10 2.40215 9.47322 1.46447 8.53553C0.526784 7.59785 0 6.32608 0 5C0 3.67392 0.526784 2.40215 1.46447 1.46447C2.40215 0.526784 3.67392 0 5 0C6.32608 0 7.59785 0.526784 8.53553 1.46447C9.47322 2.40215 10 3.67392 10 5ZM7.51875 3.10625C7.47411 3.06176 7.42095 3.02673 7.36246 3.00326C7.30397 2.97979 7.24134 2.96835 7.17833 2.96963C7.11531 2.97092 7.05321 2.98489 6.99572 3.01073C6.93823 3.03657 6.88655 3.07373 6.84375 3.12L4.67313 5.88562L3.365 4.57687C3.27614 4.49407 3.15861 4.449 3.03717 4.45114C2.91574 4.45328 2.79987 4.50248 2.71399 4.58836C2.6281 4.67424 2.57891 4.79011 2.57677 4.91155C2.57462 5.03299 2.6197 5.15052 2.7025 5.23938L4.35625 6.89375C4.4008 6.93822 4.45385 6.97326 4.51224 6.99678C4.57063 7.02031 4.63315 7.03183 4.69609 7.03066C4.75903 7.02949 4.82108 7.01566 4.87856 6.98999C4.93604 6.96432 4.98775 6.92734 5.03062 6.88125L7.52563 3.7625C7.61068 3.67406 7.65767 3.5558 7.6565 3.4331C7.65534 3.3104 7.6061 3.19305 7.51937 3.10625H7.51875Z" fill="#B6B6B6"/>
</svg>
