<?xml version="1.0" encoding="UTF-8"?>
<svg width="24px" height="22px" viewBox="0 0 24 22" version="1.1" xmlns="http://www.w3.org/2000/svg" xmlns:xlink="http://www.w3.org/1999/xlink">
    <title>tv-ic</title>
    <g id="Page-1" stroke="none" stroke-width="1" fill="none" fill-rule="evenodd" stroke-linecap="round" stroke-linejoin="round">
        <g id="tv-ic" transform="translate(1.000000, 1.000000)" stroke="#3246D3" stroke-width="2">
            <path d="M17.4,5 L4.6,5 C3.71634,5 3,5.89543 3,7 L3,18 C3,19.1046 3.71634,20 4.6,20 L17.4,20 C18.2837,20 19,19.1046 19,18 L19,7 C19,5.89543 18.2837,5 17.4,5 Z" id="Path"></path>
            <line x1="8" y1="10" x2="8.01" y2="10" id="Path"></line>
            <line x1="14" y1="10" x2="14.01" y2="10" id="Path"></line>
            <polyline id="Path" points="16 0 11 5 6 0"></polyline>
            <path d="M20,10 C21.1046,10 22,10.2985 22,10.6667 L22,14.3333 C22,14.7015 21.1046,15 20,15" id="Path"></path>
            <path d="M2,10 C0.89543,10 0,10.2985 0,10.6667 L0,14.3333 C0,14.7015 0.89543,15 2,15" id="Path"></path>
            <line x1="9" y1="15" x2="13" y2="15" id="Path"></line>
        </g>
    </g>
</svg>