<svg width="16" height="16" viewBox="0 0 16 16" fill="none" xmlns="http://www.w3.org/2000/svg">
<path d="M15.0397 10.8671L9.92641 2.38711C9.71964 2.06366 9.43477 1.79746 9.09806 1.61307C8.76135 1.42868 8.38364 1.33203 7.99974 1.33203C7.61585 1.33203 7.23813 1.42868 6.90142 1.61307C6.56471 1.79746 6.27984 2.06366 6.07307 2.38711L0.959741 10.8671C0.77911 11.1682 0.680934 11.5116 0.675082 11.8626C0.669231 12.2137 0.755911 12.5602 0.926408 12.8671C1.12353 13.2126 1.40885 13.4996 1.75321 13.6987C2.09757 13.8978 2.48862 14.002 2.88641 14.0004H13.1131C13.5082 14.0047 13.8975 13.9046 14.2417 13.7103C14.5858 13.516 14.8726 13.2343 15.0731 12.8938C15.2486 12.5836 15.338 12.2322 15.3322 11.8759C15.3263 11.5196 15.2253 11.1713 15.0397 10.8671ZM7.99974 11.3338C7.86789 11.3338 7.73899 11.2947 7.62936 11.2214C7.51973 11.1482 7.43428 11.0441 7.38382 10.9222C7.33336 10.8004 7.32016 10.6664 7.34588 10.5371C7.37161 10.4077 7.4351 10.2889 7.52834 10.1957C7.62157 10.1025 7.74036 10.039 7.86968 10.0133C7.999 9.98753 8.13305 10.0007 8.25486 10.0512C8.37668 10.1017 8.4808 10.1871 8.55405 10.2967C8.62731 10.4064 8.66641 10.5353 8.66641 10.6671C8.66641 10.8439 8.59617 11.0135 8.47115 11.1385C8.34612 11.2635 8.17655 11.3338 7.99974 11.3338ZM8.66641 8.66711C8.66641 8.84392 8.59617 9.01349 8.47115 9.13852C8.34612 9.26354 8.17655 9.33378 7.99974 9.33378C7.82293 9.33378 7.65336 9.26354 7.52834 9.13852C7.40331 9.01349 7.33307 8.84392 7.33307 8.66711V6.00045C7.33307 5.82364 7.40331 5.65407 7.52834 5.52904C7.65336 5.40402 7.82293 5.33378 7.99974 5.33378C8.17655 5.33378 8.34612 5.40402 8.47115 5.52904C8.59617 5.65407 8.66641 5.82364 8.66641 6.00045V8.66711Z" fill="#FF0340"/>
<path d="M15.0397 10.8671L9.92641 2.38711C9.71964 2.06366 9.43477 1.79746 9.09806 1.61307C8.76135 1.42868 8.38364 1.33203 7.99974 1.33203C7.61585 1.33203 7.23813 1.42868 6.90142 1.61307C6.56471 1.79746 6.27984 2.06366 6.07307 2.38711L0.959741 10.8671C0.77911 11.1682 0.680934 11.5116 0.675082 11.8626C0.669231 12.2137 0.755911 12.5602 0.926408 12.8671C1.12353 13.2126 1.40885 13.4996 1.75321 13.6987C2.09757 13.8978 2.48862 14.002 2.88641 14.0004H13.1131C13.5082 14.0047 13.8975 13.9046 14.2417 13.7103C14.5858 13.516 14.8726 13.2343 15.0731 12.8938C15.2486 12.5836 15.338 12.2322 15.3322 11.8759C15.3263 11.5196 15.2253 11.1713 15.0397 10.8671ZM7.99974 11.3338C7.86789 11.3338 7.73899 11.2947 7.62936 11.2214C7.51973 11.1482 7.43428 11.0441 7.38382 10.9222C7.33336 10.8004 7.32016 10.6664 7.34588 10.5371C7.37161 10.4077 7.4351 10.2889 7.52834 10.1957C7.62157 10.1025 7.74036 10.039 7.86968 10.0133C7.999 9.98753 8.13305 10.0007 8.25486 10.0512C8.37668 10.1017 8.4808 10.1871 8.55405 10.2967C8.62731 10.4064 8.66641 10.5353 8.66641 10.6671C8.66641 10.8439 8.59617 11.0135 8.47115 11.1385C8.34612 11.2635 8.17655 11.3338 7.99974 11.3338ZM8.66641 8.66711C8.66641 8.84392 8.59617 9.01349 8.47115 9.13852C8.34612 9.26354 8.17655 9.33378 7.99974 9.33378C7.82293 9.33378 7.65336 9.26354 7.52834 9.13852C7.40331 9.01349 7.33307 8.84392 7.33307 8.66711V6.00045C7.33307 5.82364 7.40331 5.65407 7.52834 5.52904C7.65336 5.40402 7.82293 5.33378 7.99974 5.33378C8.17655 5.33378 8.34612 5.40402 8.47115 5.52904C8.59617 5.65407 8.66641 5.82364 8.66641 6.00045V8.66711Z" fill="#D33232"/>
</svg>
