<svg width="24" height="24" viewBox="0 0 24 24" fill="none" xmlns="http://www.w3.org/2000/svg">
<path d="M15.8672 0.9H8.13281C7.72158 0.9 7.38828 1.2333 7.38828 1.64453V6.37109C7.38828 6.78233 7.72158 7.11562 8.13281 7.11562H15.8672C16.2784 7.11562 16.6117 6.78233 16.6117 6.37109V1.64453C16.6117 1.2333 16.2784 0.9 15.8672 0.9ZM15.1227 5.62656H8.87734V2.38906H15.1227V5.62656Z" fill="#3246D3" stroke="#3246D3" stroke-width="0.2"/>
<path d="M15.8672 8.89219H8.13281C7.72158 8.89219 7.38828 9.22549 7.38828 9.63672V14.3633C7.38828 14.7745 7.72158 15.1078 8.13281 15.1078H15.8672C16.2784 15.1078 16.6117 14.7745 16.6117 14.3633V9.63672C16.6117 9.22549 16.2784 8.89219 15.8672 8.89219ZM15.1227 13.6188H8.87734V10.3813H15.1227V13.6188Z" fill="#3246D3" stroke="#3246D3" stroke-width="0.2"/>
<path d="M15.8672 16.8844H8.13281C7.72158 16.8844 7.38828 17.2177 7.38828 17.6289V22.3555C7.38828 22.7667 7.72158 23.1 8.13281 23.1H15.8672C16.2784 23.1 16.6117 22.7667 16.6117 22.3555V17.6289C16.6117 17.2177 16.2784 16.8844 15.8672 16.8844ZM15.1227 21.6109H8.87734V18.3734H15.1227V21.6109Z" fill="#3246D3" stroke="#3246D3" stroke-width="0.2"/>
<path d="M18.0586 4.25156H20.6367C21.9951 4.25156 23.1 5.35645 23.1 6.71484V9.29297C23.1 10.6514 21.9951 11.7562 20.6367 11.7562H19.8561L20.3037 12.204C20.3037 12.204 20.3038 12.2041 20.3038 12.2041C20.5946 12.4947 20.5946 12.9662 20.3038 13.2568C20.1586 13.4023 19.9678 13.475 19.7773 13.475C19.5869 13.475 19.3962 13.4023 19.2509 13.2569L18.0586 4.25156ZM18.0586 4.25156C17.6474 4.25156 17.3141 4.58486 17.3141 4.99609C17.3141 5.40733 17.6474 5.74063 18.0586 5.74063H20.6367C21.1738 5.74063 21.6109 6.17774 21.6109 6.71484V9.29297C21.6109 9.83007 21.1738 10.2672 20.6367 10.2672H19.8561L20.3037 9.81941C20.3037 9.8194 20.3038 9.81938 20.3038 9.81937C20.5946 9.52873 20.5946 9.05723 20.3038 8.76658C20.0131 8.47572 19.5416 8.47572 19.2509 8.76658L17.5322 10.4853C17.5322 10.4853 17.5322 10.4853 17.5322 10.4853C17.2413 10.776 17.2414 11.2473 17.5322 11.5381L19.2509 13.2568L18.0586 4.25156Z" fill="#3246D3" stroke="#3246D3" stroke-width="0.2"/>
<path d="M5.94141 13.7328H3.36328C2.82618 13.7328 2.38906 14.1699 2.38906 14.707V17.2852C2.38906 17.8223 2.82618 18.2594 3.36328 18.2594H4.14392L3.69624 17.8116C3.69624 17.8116 3.69624 17.8116 3.69623 17.8116C3.40545 17.5208 3.4054 17.0494 3.69622 16.7588C3.69623 16.7587 3.69625 16.7587 3.69627 16.7587M5.94141 13.7328L4.67836 16.8295C4.42676 16.5777 4.01855 16.5777 3.76695 16.8295L3.69627 16.7587M5.94141 13.7328C6.35264 13.7328 6.68594 13.3995 6.68594 12.9883C6.68594 12.577 6.35264 12.2437 5.94141 12.2437H3.36328C2.00489 12.2437 0.9 13.3486 0.9 14.707V17.2852C0.9 18.6435 2.00489 19.7484 3.36328 19.7484H4.14392M5.94141 13.7328L4.14392 19.7484M3.69627 16.7587C3.98693 16.4679 4.45845 16.4679 4.74909 16.7588M3.69627 16.7587L4.74909 16.7588M4.74909 16.7588L6.4678 18.4775C6.4678 18.4775 6.46781 18.4775 6.46782 18.4775C6.75864 18.7681 6.75864 19.2397 6.46782 19.5303C6.46781 19.5303 6.4678 19.5303 6.4678 19.5303L4.74912 21.249L4.74909 16.7588ZM4.14392 19.7484L3.69627 20.1962C3.69625 20.1962 3.69624 20.1962 3.69623 20.1963C3.40543 20.4869 3.40542 20.9584 3.69619 21.249C3.84145 21.3945 4.03224 21.4672 4.22266 21.4672C4.41305 21.4672 4.60383 21.3945 4.74907 21.2491L4.14392 19.7484Z" fill="#3246D3" stroke="#3246D3" stroke-width="0.2"/>
</svg>
