<svg width="24" height="25" viewBox="0 0 24 25" fill="none" xmlns="http://www.w3.org/2000/svg">
<path d="M12 22.5508C17.5228 22.5508 22 18.0736 22 12.5508C22 7.02793 17.5228 2.55078 12 2.55078C6.47715 2.55078 2 7.02793 2 12.5508C2 18.0736 6.47715 22.5508 12 22.5508Z" stroke="#FF0340" stroke-width="2" stroke-linecap="round" stroke-linejoin="round"/>
<path d="M12 22.5508C17.5228 22.5508 22 18.0736 22 12.5508C22 7.02793 17.5228 2.55078 12 2.55078C6.47715 2.55078 2 7.02793 2 12.5508C2 18.0736 6.47715 22.5508 12 22.5508Z" stroke="#D33232" stroke-width="2" stroke-linecap="round" stroke-linejoin="round"/>
<path d="M15 9.55078L9 15.5508" stroke="#FF0340" stroke-width="2" stroke-linecap="round" stroke-linejoin="round"/>
<path d="M15 9.55078L9 15.5508" stroke="#D33232" stroke-width="2" stroke-linecap="round" stroke-linejoin="round"/>
<path d="M9 9.55078L15 15.5508" stroke="#FF0340" stroke-width="2" stroke-linecap="round" stroke-linejoin="round"/>
<path d="M9 9.55078L15 15.5508" stroke="#D33232" stroke-width="2" stroke-linecap="round" stroke-linejoin="round"/>
</svg>
