<svg xmlns="http://www.w3.org/2000/svg" width="17.995" height="17.997" viewBox="0 0 17.995 17.997">
  <g id="Group_336" data-name="Group 336" transform="translate(-930.97 -37.002)">
    <path id="Path_407" data-name="Path 407" d="M9,0A9,9,0,0,0,9,18q.407,0,.81-.036c.25-.022.5-.057.743-.1l.094-.017A9,9,0,0,0,9,0ZM8.276,17.365H8.255c-.233-.021-.465-.052-.694-.092l-.039-.006q-.337-.06-.666-.148L6.8,17.106c-.214-.058-.427-.126-.636-.2L6.1,16.882c-.2-.075-.406-.16-.6-.251L5.423,16.6c-.194-.09-.385-.191-.572-.3l-.079-.045q-.276-.161-.54-.344l-.08-.055c-.173-.123-.342-.253-.507-.39l-.045-.04V12.9A3.3,3.3,0,0,1,6.9,9.6h4.2a3.3,3.3,0,0,1,3.3,3.3v2.529l-.04.033q-.252.21-.517.4l-.07.048q-.268.186-.548.35l-.071.04c-.19.108-.383.21-.579.3l-.068.03c-.2.092-.4.177-.609.253l-.06.021c-.21.075-.423.143-.639.2l-.052.013c-.22.058-.442.108-.667.149l-.039.006c-.23.04-.462.071-.7.092H9.723c-.24.021-.48.032-.723.032S8.515,17.386,8.276,17.365ZM15,14.871V12.9A3.9,3.9,0,0,0,11.1,9H6.9A3.9,3.9,0,0,0,3,12.9v1.973a8.4,8.4,0,1,1,12,0Zm0,0" transform="translate(930.97 37.002)"/>
    <path id="Path_408" data-name="Path 408" d="M163,64a3,3,0,1,0,3,3A3,3,0,0,0,163,64Zm0,5.4a2.4,2.4,0,1,1,2.4-2.4A2.4,2.4,0,0,1,163,69.4Zm0,0" transform="translate(776.969 -24.599)"/>
  </g>
</svg>
