<svg id="Group_302" data-name="Group 302" xmlns="http://www.w3.org/2000/svg" width="16.664" height="16.664" viewBox="0 0 16.664 16.664">
  <path id="Path_409" data-name="Path 409" d="M15.444,1.515H3.03v.109l-.155-.533A1.522,1.522,0,0,0,1.42,0H.379a.379.379,0,0,0,0,.757H1.42a.761.761,0,0,1,.727.546L4.5,9.385,3.3,10.9a1.22,1.22,0,0,0,.953,1.982H14.77a.379.379,0,1,0,0-.757H4.25a.462.462,0,0,1-.361-.751L5.106,9.847h7.429a1.522,1.522,0,0,0,1.371-.87l2.643-5.616a1.23,1.23,0,0,0,.116-.519V2.735A1.221,1.221,0,0,0,15.444,1.515Zm.462,1.327a.463.463,0,0,1-.044.2L13.22,8.655a.761.761,0,0,1-.686.435H5.208L3.219,2.272H15.444a.463.463,0,0,1,.462.462Z"/>
  <path id="Path_410" data-name="Path 410" d="M86.848,384a1.515,1.515,0,1,0,1.515,1.515A1.516,1.516,0,0,0,86.848,384Zm0,2.272a.757.757,0,1,1,.757-.757A.758.758,0,0,1,86.848,386.272Z" transform="translate(-82.303 -370.366)"/>
  <path id="Path_411" data-name="Path 411" d="M342.848,384a1.515,1.515,0,1,0,1.515,1.515A1.516,1.516,0,0,0,342.848,384Zm0,2.272a.757.757,0,1,1,.757-.757A.758.758,0,0,1,342.848,386.272Z" transform="translate(-329.214 -370.366)"/>
</svg>
