<?xml version="1.0" encoding="UTF-8"?>
<svg width="25px" height="25px" viewBox="0 0 25 25" version="1.1" xmlns="http://www.w3.org/2000/svg" xmlns:xlink="http://www.w3.org/1999/xlink">
    <!-- Generator: Sketch 54.1 (76490) - https://sketchapp.com -->
    <title>LinkedIn</title>
    <desc>Created with Sketch.</desc>
    <g id="Page-1" stroke="none" stroke-width="1" fill="none" fill-rule="evenodd">
        <g id="LinkedIn" fill="#AF8F6E" fill-rule="nonzero">
            <path d="M22.9240283,0.0309187279 L2.03091873,0.0309187279 C0.926678445,0.0309187279 0.0318021201,0.925795053 0.0318021201,2.03003534 L0.0318021201,22.9240283 C0.0318021201,24.0282686 0.926678445,24.9231449 2.03091873,24.9231449 L22.9240283,24.9231449 C24.0282686,24.9231449 24.9231449,24.0282686 24.9231449,22.9240283 L24.9231449,2.03091873 C24.9231449,0.926678445 24.0282686,0.0309187279 22.9240283,0.0309187279 Z M7.73144876,20.9045936 L4.19257951,20.9045936 L4.19257951,9.68374558 L7.73144876,9.68374558 L7.73144876,20.9045936 L7.73144876,20.9045936 Z M5.96201413,8.14134276 C4.81890459,8.14134276 3.89222615,7.21466431 3.89222615,6.07155477 C3.89222615,4.92844523 4.81890459,4.00176678 5.96201413,4.00176678 C7.10512367,4.00176678 8.03180212,4.92844523 8.03180212,6.07155477 C8.03180212,7.21466431 7.10512367,8.14134276 5.96201413,8.14134276 Z M21.0618375,20.9531802 L17.5238516,20.9531802 L17.5238516,14.6272085 C17.5238516,14.1183746 17.2332155,12.3083039 15.5680212,12.3083039 C13.9037102,12.3083039 13.5971731,14.2800353 13.5971731,14.2800353 L13.5971731,20.905477 L10.0583039,20.905477 L10.0583039,9.68374558 L13.5971731,9.68374558 L13.5971731,10.9690813 C13.8931095,10.5114841 14.9151943,9.27031802 17.3136042,9.27031802 C20.254417,9.27031802 21.0627208,12.1466431 21.0627208,14.2791519 L21.0627208,20.9531802 L21.0618375,20.9531802 Z" id="Shape"></path>
        </g>
    </g>
</svg>