<svg xmlns="http://www.w3.org/2000/svg" xmlns:xlink="http://www.w3.org/1999/xlink" width="167.842" height="108.469" viewBox="0 0 167.842 108.469">
  <defs>
    <clipPath id="clip-path">
      <rect id="SVGID" width="167.842" height="108.469" transform="translate(213.717 303.725)" fill="none"/>
    </clipPath>
    <clipPath id="clip-path-2">
      <rect id="SVGID-2" data-name="SVGID" width="167.834" height="108.468" transform="translate(213.717 303.726)" fill="none"/>
    </clipPath>
  </defs>
  <g id="Group_175" data-name="Group 175" transform="translate(-213.717 -303.725)">
    <rect id="Rectangle_751" data-name="Rectangle 751" width="167.842" height="108.469" transform="translate(213.717 303.725)"/>
    <g id="Group_172" data-name="Group 172">
      <g id="Group_171" data-name="Group 171" clip-path="url(#clip-path)">
        <path id="Path_346" data-name="Path 346" d="M263.7,337.337c-.116-2.17-.255-4.777-.231-6.716h-.07c-.532,1.823-1.181,3.762-1.968,5.908l-2.755,7.546h-1.528l-2.523-7.407c-.741-2.193-1.366-4.2-1.806-6.047h-.047c-.046,1.939-.162,4.546-.3,6.877l-.416,6.67h-1.922l1.088-15.555h2.57l2.663,7.524c.648,1.915,1.18,3.623,1.574,5.238h.069c.394-1.569.95-3.277,1.644-5.238l2.778-7.524h2.57l.973,15.555h-1.968Z" fill="#ad8f6f"/>
        <path id="Path_347" data-name="Path 347" d="M274.927,339.276l-1.62,4.892h-2.084l5.3-15.554h2.431l5.325,15.554h-2.153l-1.667-4.892Zm5.117-1.57-1.528-4.477c-.348-1.015-.579-1.938-.811-2.838h-.046c-.231.923-.486,1.869-.787,2.815l-1.528,4.5Z" fill="#ad8f6f"/>
        <rect id="Rectangle_752" data-name="Rectangle 752" width="2.014" height="15.554" transform="translate(290.049 328.613)" fill="#ad8f6f"/>
        <path id="Path_348" data-name="Path 348" d="M298.779,341.721a7.162,7.162,0,0,0,3.612,1.015c2.06,0,3.264-1.085,3.264-2.654,0-1.454-.833-2.284-2.94-3.092-2.547-.9-4.121-2.216-4.121-4.408,0-2.423,2.014-4.223,5.047-4.223a7.1,7.1,0,0,1,3.45.762l-.556,1.638a6.233,6.233,0,0,0-2.964-.738c-2.13,0-2.94,1.269-2.94,2.33,0,1.454.95,2.169,3.1,3,2.64,1.015,3.983,2.284,3.983,4.568,0,2.4-1.783,4.478-5.464,4.478a8.087,8.087,0,0,1-3.983-.993Z" fill="#ad8f6f"/>
        <path id="Path_349" data-name="Path 349" d="M327.28,336.228c0,5.354-3.264,8.193-7.246,8.193-4.121,0-7.015-3.185-7.015-7.893,0-4.938,3.079-8.169,7.246-8.169,4.26,0,7.015,3.254,7.015,7.869m-12.108.254c0,3.323,1.806,6.3,4.977,6.3,3.2,0,5-2.93,5-6.461,0-3.092-1.62-6.323-4.977-6.323-3.334,0-5,3.069-5,6.484" fill="#ad8f6f"/>
        <path id="Path_350" data-name="Path 350" d="M333.373,344.168V328.614h2.2l5,7.869a43.726,43.726,0,0,1,2.8,5.054l.047-.023c-.185-2.077-.231-3.969-.231-6.392v-6.508h1.9v15.554H343.05l-4.954-7.893a49.2,49.2,0,0,1-2.917-5.192l-.069.023c.115,1.962.162,3.831.162,6.416v6.646Z" fill="#ad8f6f"/>
        <path id="Path_351" data-name="Path 351" d="M250.011,370.767h8.9v1.79h-6.766v5.491H258.4v1.766h-6.252v7.477h-2.133Z" fill="#ad8f6f"/>
        <path id="Path_352" data-name="Path 352" d="M266.242,370.767h2.133V385.5h7.061v1.79h-9.194Z" fill="#ad8f6f"/>
        <path id="Path_353" data-name="Path 353" d="M290.662,379.543h-6.423V385.5H291.4v1.789h-9.292V370.766h8.923v1.79h-6.79v5.221h6.423Z" fill="#ad8f6f"/>
        <path id="Path_354" data-name="Path 354" d="M300.592,370.767v9.782c0,3.7,1.643,5.271,3.849,5.271,2.452,0,4.021-1.618,4.021-5.271v-9.782h2.157V380.4c0,5.075-2.672,7.159-6.251,7.159-3.383,0-5.933-1.937-5.933-7.061v-9.733Z" fill="#ad8f6f"/>
        <path id="Path_355" data-name="Path 355" d="M318.613,370.987a22.282,22.282,0,0,1,4.094-.343c2.281,0,3.751.417,4.781,1.349a4.113,4.113,0,0,1,1.3,3.138,4.337,4.337,0,0,1-3.114,4.216v.074c1.275.442,2.035,1.618,2.427,3.334a26.264,26.264,0,0,0,1.275,4.536H327.17a21.382,21.382,0,0,1-1.1-3.947c-.49-2.28-1.372-3.138-3.309-3.212h-2.011v7.159h-2.133Zm2.133,7.527h2.182c2.28,0,3.726-1.25,3.726-3.138,0-2.133-1.544-3.065-3.8-3.089a8.784,8.784,0,0,0-2.109.2Z" fill="#ad8f6f"/>
        <path id="Path_356" data-name="Path 356" d="M335.8,384.692a7.564,7.564,0,0,0,3.825,1.079c2.182,0,3.457-1.152,3.457-2.819,0-1.545-.883-2.427-3.114-3.286-2.7-.956-4.364-2.353-4.364-4.682,0-2.575,2.133-4.487,5.345-4.487a7.509,7.509,0,0,1,3.653.809l-.588,1.741a6.576,6.576,0,0,0-3.139-.785c-2.255,0-3.113,1.349-3.113,2.477,0,1.544,1.005,2.3,3.285,3.187,2.794,1.078,4.217,2.427,4.217,4.854,0,2.55-1.888,4.756-5.787,4.756a8.529,8.529,0,0,1-4.216-1.054Z" fill="#ad8f6f"/>
        <path id="Path_357" data-name="Path 357" d="M291.594,355.118a10.823,10.823,0,0,1,1.6-.121,3.341,3.341,0,0,1,2.361.726,2.691,2.691,0,0,1,.822,2.094,3.081,3.081,0,0,1-.84,2.265,3.59,3.59,0,0,1-2.577.839,12.227,12.227,0,0,1-1.367-.069Zm.754,5.155a4.8,4.8,0,0,0,.76.043,2.241,2.241,0,0,0,2.482-2.473,2.079,2.079,0,0,0-2.361-2.249,4.272,4.272,0,0,0-.881.078Z" fill="#ad8f6f"/>
        <path id="Path_358" data-name="Path 358" d="M301.242,358.137h-2.266v2.1H301.5v.631h-3.278v-5.829h3.148v.631h-2.4v1.842h2.266Z" fill="#ad8f6f"/>
      </g>
    </g>
    <g id="Group_174" data-name="Group 174">
      <g id="Group_173" data-name="Group 173" clip-path="url(#clip-path-2)">
        <path id="Path_359" data-name="Path 359" d="M303.243,359.953a2.673,2.673,0,0,0,1.349.38c.77,0,1.22-.406,1.22-.994,0-.545-.312-.856-1.1-1.159-.951-.337-1.539-.83-1.539-1.652a1.678,1.678,0,0,1,1.885-1.583,2.651,2.651,0,0,1,1.289.286l-.208.614a2.316,2.316,0,0,0-1.107-.277c-.8,0-1.1.476-1.1.873,0,.545.354.813,1.159,1.125.986.38,1.487.856,1.487,1.712,0,.9-.665,1.678-2.041,1.678a3.005,3.005,0,0,1-1.487-.372Z" fill="#ad8f6f"/>
        <path id="Path_360" data-name="Path 360" d="M213.716,412.193H381.558V303.725H213.716Zm159.912-105.7a4.949,4.949,0,1,1-.756,9.834c.142.012.284.021.429.021a4.908,4.908,0,1,0,0-9.815c-.138,0-.274.009-.409.02a4.959,4.959,0,0,1,.736-.06m0,102.962a5.083,5.083,0,0,1-.755-.063c.141.012.283.021.428.021a4.908,4.908,0,1,0,0-9.815c-.138,0-.273.009-.408.02a4.946,4.946,0,1,1,.735,9.837m2.1-4.95a2.285,2.285,0,1,1-2.285-2.285,2.284,2.284,0,0,1,2.285,2.285m-5.625-.147a3.668,3.668,0,0,0,3.669,3.667,3.628,3.628,0,0,0,1.813-.5,3.707,3.707,0,1,1-2.884-6.657,3.654,3.654,0,0,0-2.6,3.488m5.625-92.918a2.285,2.285,0,1,1-2.285-2.285,2.284,2.284,0,0,1,2.285,2.285M372.7,307.8a3.654,3.654,0,1,0,2.886,6.657A3.707,3.707,0,1,1,372.7,307.8M219.38,404.5a2.285,2.285,0,1,1,2.285,2.285,2.285,2.285,0,0,1-2.285-2.285m5.625.147a3.668,3.668,0,0,0-3.668-3.668,3.622,3.622,0,0,0-1.814.5,3.707,3.707,0,1,1,2.886,6.657,3.654,3.654,0,0,0,2.6-3.488m-3.2-5.055a4.908,4.908,0,1,0,0,9.815c.139,0,.274-.009.409-.021a4.948,4.948,0,1,1,.02-9.773c-.142-.012-.284-.021-.429-.021m-5.275-88.158a4.919,4.919,0,0,1,5.7-4.886c-.142-.012-.284-.021-.429-.021a4.908,4.908,0,1,0,0,9.815c.138,0,.274-.009.409-.02a4.918,4.918,0,0,1-5.684-4.888m2.848,0a2.285,2.285,0,1,1,2.285,2.285,2.285,2.285,0,0,1-2.285-2.285m5.625.147a3.643,3.643,0,0,0-5.482-3.169,3.707,3.707,0,1,1,2.886,6.657,3.654,3.654,0,0,0,2.6-3.488m1.888,94.753a5.713,5.713,0,0,0-7.2-7.268v-82.2a5.709,5.709,0,0,0,7.167-7.347h141.38A5.71,5.71,0,0,0,376,316.637V399.3a5.711,5.711,0,0,0-7.783,7.036Z" fill="#ad8f6f"/>
      </g>
    </g>
  </g>
</svg>
