<svg id="Layer_3" data-name="Layer 3" xmlns="http://www.w3.org/2000/svg" width="25.914" height="14.841" viewBox="0 0 25.914 14.841">
  <path id="Path_138" data-name="Path 138" d="M26.051,9.685H22.759a.864.864,0,0,0-.864.864v.682H20.444L18,8.778a4.794,4.794,0,0,0-6.79,0L9.189,10.8H1.864A.864.864,0,0,0,1,11.663v4.025H1v5.658a.864.864,0,0,0,.864.864H16.6a.864.864,0,0,0,.864-.864V18.064h1.3a3.455,3.455,0,0,0,2.591,1.209h.5v.691a.864.864,0,0,0,.864.864h3.326a.864.864,0,0,0,.864-.864V10.549A.864.864,0,0,0,26.051,9.685ZM9.526,12.544h6.219v1.365H13.5a2.073,2.073,0,0,0-1.728.959H2.728V12.544Zm6.219,7.99H2.728V16.552h8.785a2.073,2.073,0,0,0,1.978,1.477h2.246ZM21.4,17.546a1.728,1.728,0,0,1-1.46-.8.864.864,0,0,0-.734-.406H13.491a.354.354,0,1,1,0-.7H19.2a.864.864,0,1,0,0-1.728H17.473V11.68a.864.864,0,0,0-.864-.864H11.642l.795-.795a3.144,3.144,0,0,1,4.319,0l2.7,2.7a.864.864,0,0,0,.613.251h1.814v4.587ZM25.187,19.1H23.623V11.412h1.563Z" transform="translate(-1 -7.369)"/>
</svg>
