<svg id="noun_cart_2102832_4_" data-name="noun_cart_2102832 (4)" xmlns="http://www.w3.org/2000/svg" width="19.977" height="19.977" viewBox="0 0 19.977 19.977">
  <path id="Path_5" data-name="Path 5" d="M6.832,7.665h1.39l2.084,9.4a2.987,2.987,0,0,0-1.7,2.763A2.845,2.845,0,0,0,11.3,22.8H22.334a.832.832,0,1,0,0-1.665H11.3a1.21,1.21,0,0,1-1.025-1.309A1.21,1.21,0,0,1,11.3,18.521H22.334a.832.832,0,0,0,.783-.55l2.811-7.8a.832.832,0,0,0-.783-1.114H10.236L9.7,6.652A.832.832,0,0,0,8.891,6H6.832a.832.832,0,1,0,0,1.665ZM23.96,10.72l-2.211,6.136H11.965L10.6,10.72H23.96Z" transform="translate(-6 -6)"/>
  <path id="Path_6" data-name="Path 6" d="M19.177,50a.832.832,0,1,0,0,1.665h1.057a.832.832,0,1,0,0-1.665Z" transform="translate(-13.207 -31.688)"/>
  <path id="Path_7" data-name="Path 7" d="M37.629,50a.832.832,0,0,0,0,1.665h1.057a.832.832,0,1,0,0-1.665Z" transform="translate(-23.979 -31.688)"/>
</svg>
