<svg xmlns="http://www.w3.org/2000/svg" width="19.406" height="16.169" viewBox="0 0 19.406 16.169">
  <path id="noun_delivery_1665162" d="M35.708,22.59H23.568a.808.808,0,0,0-.808.808v4.033H20.343a.805.805,0,0,0-.673.36l-2.425,3.649a.808.808,0,0,0-.136.448V35.53a.808.808,0,0,0,.808.808h.044a2.817,2.817,0,0,0,5.579,0h4.93a2.817,2.817,0,0,0,5.579,0h1.658a.808.808,0,0,0,.808-.808V23.4A.808.808,0,0,0,35.708,22.59ZM18.727,32.134l2.065-3.074h1.98v4.894c-.032-.032-.068-.053-.1-.083-.08-.074-.159-.142-.245-.207l-.171-.118a2.3,2.3,0,0,0-.3-.153c-.109-.047-.118-.059-.183-.086a2.62,2.62,0,0,0-.336-.106c-.056-.015-.109-.032-.168-.044a2.7,2.7,0,0,0-.537-.056,2.656,2.656,0,0,0-.534.056.731.731,0,0,0-.171.044,2.578,2.578,0,0,0-.333.106c-.065.027-.127.056-.189.089a2.478,2.478,0,0,0-.274.15c-.062.038-.121.08-.183.124a2.829,2.829,0,0,0-.224.189c-.071.065-.077.059-.112.094Zm2.021,5.015a1.215,1.215,0,0,1-1.213-1.213,1.5,1.5,0,0,1,.024-.245,1.213,1.213,0,0,1,2.378,0,1.357,1.357,0,0,1,.024.248,1.215,1.215,0,0,1-1.213,1.207Zm10.514,0a1.215,1.215,0,1,1,1.18-1.475,1.357,1.357,0,0,1,.027.248,1.215,1.215,0,0,1-1.207,1.224Zm2.555-2.428c-.027-.056-.062-.109-.094-.165s-.044-.089-.071-.13a3.3,3.3,0,0,0-.227-.3.493.493,0,0,1-.035-.047,2.841,2.841,0,0,0-.319-.3l-.1-.074a2.331,2.331,0,0,0-.266-.18l-.136-.074a2.17,2.17,0,0,0-.266-.124,1.554,1.554,0,0,0-.15-.056,2.622,2.622,0,0,0-.3-.083l-.142-.03a2.537,2.537,0,0,0-.912,0l-.139.03a2.675,2.675,0,0,0-.3.083.5.5,0,0,0-.148.053,2.921,2.921,0,0,0-.274.13l-.127.068a2.737,2.737,0,0,0-.3.2l-.074.053a2.921,2.921,0,0,0-.59.681l-.05.089c-.035.065-.077.127-.106.192H24.388V24.207H34.9v2.428H29.238a.808.808,0,0,0,0,1.617H34.9v6.467Z" transform="translate(-17.11 -22.59)"/>
</svg>
