<svg xmlns="http://www.w3.org/2000/svg" width="14.218" height="17.5" viewBox="0 0 14.218 17.5">
  <path id="pinterest" d="M9.6,0C4.8,0,2.25,3.074,2.25,6.426c0,1.554.868,3.493,2.259,4.107.4.179.344-.039.685-1.345a.31.31,0,0,0-.074-.3c-1.988-2.3-.388-7.026,4.193-7.026,6.63,0,5.392,9.175,1.154,9.175A1.565,1.565,0,0,1,8.818,9.115a20.777,20.777,0,0,0,.923-3.533c0-2.3-3.42-1.955-3.42,1.086a3.679,3.679,0,0,0,.333,1.574s-1.1,4.445-1.3,5.276A11.8,11.8,0,0,0,5.431,17.4a.115.115,0,0,0,.21.053,13.751,13.751,0,0,0,1.811-3.411c.136-.5.692-2.527.692-2.527a3.023,3.023,0,0,0,2.551,1.216c3.351,0,5.774-2.946,5.774-6.6C16.457,2.622,13.457,0,9.6,0Z" transform="translate(-2.25)" fill="#ad8f6f"/>
</svg>
