<?xml version="1.0" encoding="utf-8"?>
<svg width="54px" height="72px" viewBox="0 0 54 72" version="1.1" xmlns:xlink="http://www.w3.org/1999/xlink" xmlns="http://www.w3.org/2000/svg">
  <desc>Created with Lunacy</desc>
  <g id="bonus">
    <path d="M0 0L14.1261 0L14.1261 6.20319L4.87745e-15 6.20319L0 0Z" transform="translate(19.89905 11.18384)" id="Path" fill="#FE4400" stroke="none" />
    <path d="M12.9231 0L2.46333 0C0.804715 0 -0.374247 1.60541 0.109522 3.19178C2.0609 9.59026 5.86001 11.4452 5.86001 11.4452L12.923 11.4452L19.9859 11.4452C19.9859 11.4452 23.7852 9.59026 25.7364 3.19178C26.2202 1.60541 25.0412 6.09682e-16 23.3826 6.09682e-16L12.9231 0Z" transform="translate(14.03888 0)" id="Path" fill="#FDBB1C" stroke="none" />
    <path d="M9.36545 3.19143C7.41442 9.58975 3.61566 11.4445 3.61566 11.4445L0 11.4445C0 11.4445 3.3301 9.33268 5.86426 3.19143C6.49682 1.65861 5.16924 0 3.51063 0L7.01182 0C8.67043 0 9.84888 1.60524 9.36545 3.19143L9.36545 3.19143Z" transform="translate(30.40967 0.0004882813)" id="Path" fill="#FE4400" stroke="none" />
    <path d="M0 0L3.61531 0L3.61531 5.68047L0 5.68047L0 0Z" transform="translate(30.40967 11.44507)" id="Path" fill="#FE4400" stroke="none" />
    <path d="M50.7554 41.9747C49.4522 41.9747 48.3956 40.9182 48.3956 39.6148L48.3956 15.8376C48.3956 11.515 46.1259 7.49164 42.3762 5.16735L34.0399 0L26.9618 0L19.884 0L11.5476 5.16735C7.79797 7.49164 5.52825 11.5152 5.52825 15.8376L5.52825 39.615C5.52825 40.9182 4.47182 41.9748 3.16844 41.9748C1.41853 41.9748 0 43.3933 0 45.1433L0 51.2014C0 52.9514 1.41853 54.3699 3.16844 54.3699L50.7554 54.3699C52.5053 54.3699 53.9239 52.9514 53.9239 51.2014L53.9239 45.1433C53.9239 43.3933 52.5053 41.9747 50.7554 41.9747Z" transform="translate(0 17.12573)" id="Path" fill="#FDBB1C" stroke="none" />
    <path d="M16.7349 26L8.92771 16.0952C8.13253 15.0756 7.59036 14.4202 7.3012 14.2017C9.21687 13.7647 10.7349 12.9636 11.8916 11.7983C12.6867 10.9244 13.2289 9.83193 13.4458 8.59384L17.2048 8.59384L18 6.19048L13.5181 6.19048C13.3735 4.69748 12.9036 3.42297 12.1446 2.40336L17.1687 2.40336L17.9639 0L0.795181 0L0 2.40336L3.86747 2.40336C5.63855 2.40336 6.9759 2.76751 7.91566 3.56863C8.63855 4.18767 9.07229 5.06162 9.25301 6.19048L0.86747 6.19048L0.0722892 8.59384L9.18072 8.59384C8.96386 9.5042 8.45783 10.2325 7.69879 10.7787C6.57831 11.5798 4.87952 11.9804 2.60241 11.9804L0.361446 11.9804L0.361446 14.8207C1.15663 14.8207 1.95181 15.0756 2.6747 15.5854C3.3253 16.0224 3.93976 16.605 4.51807 17.4062L10.988 26L16.7349 26Z" transform="translate(18.08441 30.99097)" id="₹" fill="#FFFFFF" stroke="none" />
    <path d="M23.5144 45.1433L23.5144 51.2009C23.5144 52.9507 22.095 54.37 20.3452 54.37L16.8441 54.37C18.5938 54.37 20.0115 52.9507 20.0115 51.2009L20.0115 47.2266C20.0115 46.0154 19.029 45.0331 17.8179 45.0331L16.8442 45.0331C15.5402 45.0331 14.4837 43.9767 14.4837 42.6726L14.4837 15.9424C14.5517 14.6773 14.2016 12.6564 12.4915 10.5516C8.30456 5.39868 0 0 0 0L3.6311 0L11.9667 5.1665C15.7155 7.49078 17.9866 11.515 17.9866 15.8367L17.9866 39.6152C17.9866 40.9175 19.0431 41.974 20.3454 41.974C22.095 41.9741 23.5144 43.3935 23.5144 45.1433L23.5144 45.1433Z" transform="translate(30.40982 17.12598)" id="Path" fill="#FE4400" stroke="none" />
  </g>
</svg>