<?xml version="1.0" encoding="utf-8"?>
<svg width="73px" height="73px" viewBox="0 0 73 73" version="1.1" xmlns:xlink="http://www.w3.org/1999/xlink" xmlns="http://www.w3.org/2000/svg">
  <desc>Created with Lunacy</desc>
  <g id="cards" transform="translate(0.4100037 0.4100342)">
    <path d="M36.1905 39.0435L16.134 46.0143C14.084 46.7265 11.8434 45.6421 11.1313 43.5921L0.218673 12.1922C-0.493452 10.1422 0.590908 7.90158 2.64094 7.18945L13.0949 3.55683L22.6974 0.218673C24.749 -0.493452 26.9895 0.590908 27.7017 2.64094L36.4485 27.8086L38.6142 34.0408C39.3263 36.0908 38.242 38.3313 36.1905 39.0435Z" transform="translate(0 25.76697)" id="Path" fill="#FDBB1C" stroke="none" />
    <path d="M14.0192 12.9926C13.392 14.1767 12.5758 15.3035 11.5472 16.2956C3.06565 15.4546 -2.45585 6.24911 1.0917 3.79464C1.54592 3.47964 2.00028 3.2891 2.44719 3.19825C5.47751 2.57402 8.13575 6.48072 8.13575 6.48072C8.13575 6.48072 7.69179 0.277753 11.997 0.00522179C15.5799 -0.223575 17.136 7.11213 14.0192 12.9926Z" transform="translate(10.64767 40.58276)" id="Path" fill="#CC150C" stroke="none" />
    <path d="M1.09655 2.18939C0.67524 2.18939 0.282896 1.94077 0.103037 1.55995C-0.105791 1.11755 0.0100836 0.56897 0.384709 0.252704C1.11891 -0.367029 2.28821 0.231611 2.19005 1.19784C2.13366 1.75275 1.65554 2.18939 1.09655 2.18939Z" transform="translate(22.3642 29.88623)" id="Path" fill="#ED3561" stroke="none" />
    <path d="M1.09732 2.19315C0.632695 2.19315 0.209273 1.88897 0.0583821 1.45079C-0.0946179 1.00655 0.0607728 0.501708 0.434695 0.218067C1.24259 -0.394637 2.41399 0.378379 2.16227 1.36402C2.03923 1.84468 1.59443 2.19315 1.09732 2.19315Z" transform="translate(14.27469 65.69592)" id="Path" fill="#CC150C" stroke="none" />
    <path d="M29.0949 3.93159L29.0949 37.172C29.0949 37.279 29.0905 37.3859 29.0817 37.4899C28.9205 39.5137 27.228 41.1036 25.1633 41.1036L3.93019 41.1036C1.75992 41.1036 0 39.3436 0 37.172L0 3.93159C0 1.75992 1.75992 0 3.93019 0L25.1634 0C27.335 -9.99201e-16 29.0949 1.75992 29.0949 3.93159Z" transform="translate(17.19788 8.661987)" id="Path" fill="#FFFFFF" stroke="none" />
    <g id="Group" transform="translate(20.85455 12.51563)">
      <path d="M1.09796 2.19091C0.62757 2.19091 0.202882 1.88252 0.054523 1.43702C-0.091727 0.997851 0.0633824 0.494554 0.434211 0.216398C1.21468 -0.368883 2.34854 0.315961 2.17993 1.28037C2.08895 1.80012 1.62685 2.19091 1.09796 2.19091Z" transform="translate(19.49123 0.0190081)" id="Path" fill="#1C1A19" stroke="none" />
      <path d="M1.09649 2.19151C0.648321 2.19151 0.231508 1.9059 0.0716176 1.48754C-0.0953043 1.0509 0.0358988 0.539028 0.399133 0.24245C1.17131 -0.387691 2.35087 0.299825 2.17832 1.27998C2.08705 1.79889 1.62566 2.19151 1.09649 2.19151Z" transform="translate(0.09558557 31.19272)" id="Path" fill="#1C1A19" stroke="none" />
    </g>
    <path d="M7.57279 10.942L7.57279 16.1236L10.2281 16.1236C10.8347 16.1236 11.3271 16.616 11.3271 17.2226C11.3271 17.8293 10.8347 18.3216 10.2281 18.3216L2.72094 18.3216C2.11429 18.3216 1.62196 17.8293 1.62196 17.2226C1.62196 16.616 2.11429 16.1236 2.72094 16.1236L5.37468 16.1236L5.37468 10.942C4.61263 12.0601 3.4214 13.058 1.7083 12.5817C-1.7221 11.6277 0.0876006 2.95566 6.47366 0C7.73971 0.586125 8.82702 1.39795 9.72829 2.32847C13.3727 6.09159 13.9911 11.8167 11.239 12.5817C9.52607 13.058 8.33624 12.0601 7.57279 10.942Z" transform="translate(25.27089 19.78247)" id="Path" fill="#1C1A19" stroke="none" />
    <path d="M2.92773 39.8705L23.4564 45.2947C25.5554 45.8493 27.7066 44.5973 28.2612 42.4983L36.7527 10.3603C37.3073 8.26135 36.0553 6.11021 33.9564 5.55558L13.4276 0.131394C11.3287 -0.423231 9.17753 0.828894 8.6229 2.92786L0.131404 35.0659C-0.423221 37.1647 0.828763 39.3158 2.92773 39.8705Z" transform="translate(34.91869 0)" id="Path" fill="#FDBB1C" stroke="none" />
    <g id="Group" transform="translate(38.85455 9)">
      <path d="M1.09615 2.19593C0.628295 2.19593 0.200514 1.88445 0.0541235 1.44092C-0.0966265 0.983886 0.0750766 0.461746 0.475295 0.190339C0.828686 -0.0494263 1.29387 -0.0639106 1.66133 0.153917C2.06689 0.394246 2.27248 0.886574 2.16617 1.34445C2.05212 1.83565 1.60212 2.19593 1.09615 2.19593Z" transform="translate(26.7677 0.02453563)" id="Path" fill="#CC150C" stroke="none" />
      <path d="M1.09593 2.19259C0.665761 2.19259 0.267089 1.93102 0.0928551 1.53868C-0.105707 1.09149 0.0222613 0.55529 0.399558 0.244368C1.16821 -0.389006 2.34778 0.298509 2.17875 1.28092C2.08931 1.80151 1.62328 2.19259 1.09593 2.19259Z" transform="translate(0.05142618 25.21171)" id="Path" fill="#CC150C" stroke="none" />
    </g>
    <path d="M6.38845 17.3651C9.28083 13.9184 12.9396 11.7889 17.3651 10.9766C13.9185 8.08439 11.7889 4.42561 10.9766 0C8.08439 3.44672 4.42561 5.5762 0 6.38845C3.44672 9.28069 5.5762 12.9396 6.38845 17.3651Z" transform="translate(44.67825 14.0304)" id="Path" fill="#CC150C" stroke="none" />
  </g>
</svg>