<?xml version="1.0" encoding="utf-8"?>
<svg width="59px" height="73px" viewBox="0 0 59 73" version="1.1" xmlns:xlink="http://www.w3.org/1999/xlink" xmlns="http://www.w3.org/2000/svg">
  <desc>Created with Lunacy</desc>
  <g id="insurance" transform="translate(0.25 0.25)">
    <path d="M55.5342 9.84375C49.4536 9.84375 43.9158 6.5025 41.078 1.125C40.7136 0.433125 39.9952 0 39.2131 0L18.4428 0C17.661 0 16.9424 0.433125 16.5767 1.125C13.7405 6.5025 8.20266 9.84375 2.10938 9.84375C0.945 9.84375 0 10.7887 0 11.9531L0 33.4336C0 42.0694 2.69859 50.3156 7.80328 57.2808C12.908 64.2459 19.9575 69.3013 28.1925 71.9016C28.3992 71.9677 28.6144 72 28.8281 72C29.0419 72 29.257 71.9677 29.4638 71.9016C37.6989 69.3014 44.7483 64.2461 49.853 57.2808C54.9577 50.3155 57.6563 42.0694 57.6563 33.4336L57.6563 11.9531C57.6563 10.7887 56.6986 9.84375 55.5342 9.84375ZM29.6395 62.768C41.5336 57.8082 49.2188 46.2558 49.2188 33.338L49.2188 18.9493C49.2188 18.8705 49.2131 18.7946 49.2047 18.7186C49.2031 18.7032 49.2005 18.6863 49.1991 18.6708C49.1778 18.5147 49.14 18.3629 49.0864 18.218C49.0836 18.2124 49.0823 18.2054 49.0794 18.1997C48.8572 17.6161 48.3848 17.1479 47.7674 16.9454C43.2913 15.473 39.3481 12.766 36.3655 9.11676C36.1406 8.84254 35.3784 8.34192 34.7316 8.34192L22.9247 8.34192C22.2919 8.34192 21.6914 8.62598 21.2906 9.11676C18.308 12.766 14.3648 15.473 9.88875 16.9454C9.0225 17.2294 8.4375 18.038 8.4375 18.9493L8.4375 33.338C8.4375 46.2557 16.1227 57.8082 28.0167 62.768C28.2755 62.8763 28.5525 62.9297 28.8281 62.9297C29.1038 62.9297 29.3794 62.8764 29.6395 62.768ZM33.7542 12.6563L23.902 12.6563C20.835 16.1522 16.9847 18.8452 12.6563 20.5284L12.6563 33.4336C12.6563 44.3475 18.9745 54.135 28.8281 58.6153C38.6817 54.135 45 44.3475 45 33.4336L45 20.5298C40.6702 18.8466 36.8213 16.1536 33.7542 12.6563ZM27.038 43.9258L40.1639 30.8011C40.9866 29.9771 40.9866 28.6425 40.1639 27.8186C39.3399 26.9945 38.0039 26.9945 37.1813 27.8186L25.5474 39.4511L20.4764 34.3802C19.6524 33.5575 18.3164 33.5575 17.4924 34.3802C16.6697 35.2042 16.6697 36.5402 17.4924 37.3642L24.0553 43.9258C24.4674 44.3377 25.0074 44.5444 25.5474 44.5444C26.086 44.5444 26.626 44.3378 27.038 43.9258Z" id="Shape" fill="#FDBB1C" fill-rule="evenodd" stroke="none" />
  </g>
</svg>