<?xml version="1.0" encoding="utf-8"?>
<svg width="60px" height="60px" viewBox="0 0 60 60" version="1.1" xmlns:xlink="http://www.w3.org/1999/xlink" xmlns="http://www.w3.org/2000/svg">
  <desc>Created with Lunacy</desc>
  <g id="money-(1)" transform="translate(0.4100037 0.4099121)">
    <path d="M37.392 29.52L48.216 18.696L29.52 0L0 29.52" transform="translate(10.82401 0)" id="Path" fill="#FDBB1C" stroke="none" />
    <path d="M0 9.83975C0 7.3217 0.960384 4.80364 2.88214 2.88189C6.72466 -0.96063 12.9553 -0.96063 16.7979 2.88189C18.7196 4.80364 19.68 7.3217 19.68 9.83975" transform="translate(19.68002 19.68018)" id="Path" fill="#FFFFFF" stroke="none" />
    <path d="M6.78029 11.9032L6.78029 11.7012L2.5933 6.74759C2.54929 6.6991 2.51157 6.65331 2.48013 6.61021C2.4487 6.5725 2.42198 6.53883 2.39998 6.5092C2.37797 6.47957 2.36697 6.46206 2.36697 6.45667C2.84477 6.40819 3.30999 6.32064 3.76264 6.19404C4.21528 6.06744 4.6255 5.88697 4.99327 5.65262C5.36105 5.41827 5.67224 5.12332 5.92686 4.76776C6.18147 4.41219 6.3465 3.9839 6.42194 3.48289L6.42194 3.48289L7.87419 3.48289L8.65689 2.35155L6.33707 2.35155C6.31192 2.14145 6.25063 1.93808 6.15318 1.74144C6.05574 1.54481 5.941 1.34952 5.80898 1.15557L5.80898 1.15557L7.87419 1.15557C7.87419 1.15557 7.89462 1.12729 7.93548 1.07072C7.97635 1.01416 8.02664 0.942777 8.08637 0.85658C8.14609 0.770383 8.21053 0.677452 8.27968 0.577787C8.34884 0.478122 8.41171 0.386538 8.46829 0.303035C8.52487 0.219532 8.57045 0.148151 8.60503 0.0888904C8.6396 0.0296301 8.65689 0 8.65689 0L8.65689 0L0.801564 0C0.795277 0 0.755985 0.0484857 0.683687 0.145457C0.611389 0.242428 0.528089 0.354215 0.433788 0.480816C0.339486 0.607417 0.249899 0.735366 0.165028 0.864661C0.0801564 0.993956 0.0251471 1.09093 0 1.15557L0 1.15557L2.38583 1.15557C2.53671 1.15557 2.72846 1.19194 2.96107 1.26467C3.19368 1.3374 3.42158 1.43033 3.64476 1.54346C3.86794 1.65659 4.05811 1.78454 4.21528 1.9273C4.37245 2.07007 4.45104 2.21148 4.45104 2.35155L4.45104 2.35155L0.801564 2.35155C0.663255 2.53472 0.537519 2.70442 0.424357 2.86065C0.330056 2.99534 0.240469 3.12328 0.155598 3.2445C0.0707262 3.36571 0.0188603 3.44517 0 3.48289L0 3.48289L4.68679 3.48289C4.64907 3.82767 4.55948 4.12263 4.41803 4.36775C4.27658 4.61287 4.09583 4.81624 3.8758 4.97786C3.65576 5.13948 3.40743 5.26608 3.13081 5.35766C2.8542 5.44925 2.56343 5.51524 2.25852 5.55565C1.95362 5.59605 1.64242 5.61625 1.32494 5.61625C1.00746 5.61625 0.700976 5.60817 0.405497 5.59201L0.405497 5.59201L0.405497 6.6587L4.98856 11.9032L6.78029 11.9032Z" transform="matrix(0.8571673 -0.5150381 0.5150381 0.8571673 23.10519 24.66382)" id="₹" fill="#FE4400" stroke="none" />
    <path d="M13.9177 22.5541L12.5253 21.1618L20.1789 13.5082L9.04591 2.37624L1.39236 10.0298L0 8.63743L8.34924 0.288189C8.73398 -0.0955709 9.35686 -0.0965549 9.7416 0.288189L22.2669 12.8125C22.4519 12.9975 22.5543 13.2475 22.5543 13.5082C22.5543 13.77 22.4519 14.0199 22.2669 14.2049L13.9177 22.5541Z" transform="translate(31.56473 4.919189)" id="Path" fill="#FFFFFF" stroke="none" />
    <path d="M0 0L1.96909 0L1.96909 1.9691L0 1.9691L0 0Z" transform="matrix(0.7066069 -0.7076064 0.7076064 0.7066069 41.33041 23.28247)" id="Path" fill="#FFFFFF" stroke="none" />
    <path d="M0 0L1.9677 0L1.9677 1.96869L0 1.96869L0 0Z" transform="matrix(0.7071068 -0.7071068 0.7071068 0.7071068 44.08493 20.52661)" id="Path" fill="#FFFFFF" stroke="none" />
    <path d="M0 0L1.96909 0L1.96909 1.96811L0 1.96811L0 0Z" transform="matrix(0.7076064 -0.7066069 0.7066069 0.7076064 34.3718 16.33936)" id="Path" fill="#FFFFFF" stroke="none" />
    <path d="M0 0L1.9677 0L1.9677 1.96869L0 1.96869L0 0Z" transform="matrix(0.7071068 -0.7071068 0.7071068 0.7071068 37.12869 13.56665)" id="Path" fill="#FFFFFF" stroke="none" />
    <path d="M0 0L59.04 0L59.04 25.584L0 25.584L0 0Z" transform="translate(0 29.52002)" id="Path" fill="#FE4400" stroke="none" />
    <path d="M9.84 19.68C15.2745 19.68 19.68 15.2745 19.68 9.84C19.68 4.40552 15.2745 0 9.84 0C4.40552 0 0 4.40552 0 9.84C0 15.2745 4.40552 19.68 9.84 19.68Z" transform="translate(19.83871 33.06445)" id="Oval" fill="#FDBB1C" stroke="none" />
    <path d="M0 0L3.936 3.936L7.872 0" transform="translate(14.75998 55.104)" id="Path" fill="#FDBB1C" stroke="none" />
    <path d="M8.28702 14.5484L8.28702 14.3015L3.16958 8.24705C3.1158 8.18779 3.06969 8.13182 3.03127 8.07914C2.99285 8.03305 2.9602 7.9919 2.93331 7.95569C2.90641 7.91947 2.89296 7.89807 2.89296 7.89149C3.47694 7.83223 4.04554 7.72523 4.59878 7.57049C5.15201 7.41576 5.65338 7.19518 6.10289 6.90875C6.55239 6.62233 6.93274 6.26183 7.24394 5.82726C7.55513 5.39268 7.75683 4.86922 7.84904 4.25686L7.84904 4.25686L9.62401 4.25686L10.5806 2.87412L7.74531 2.87412C7.71457 2.61733 7.63966 2.36876 7.52056 2.12843C7.40146 1.8881 7.26123 1.64941 7.09987 1.41237L7.09987 1.41237L9.62401 1.41237C9.62401 1.41237 9.64898 1.3778 9.69892 1.30866C9.74887 1.23953 9.81034 1.15228 9.88334 1.04693C9.95633 0.941579 10.0351 0.827997 10.1196 0.706184C10.2041 0.584372 10.281 0.472436 10.3501 0.370376C10.4193 0.268317 10.475 0.181073 10.5173 0.108644C10.5595 0.0362146 10.5806 0 10.5806 0L10.5806 0L0.979689 0C0.972005 0 0.923981 0.0592602 0.835617 0.177781C0.747253 0.296301 0.645442 0.432929 0.530185 0.587664C0.414927 0.742399 0.305433 0.89878 0.201701 1.05681C0.0979689 1.21483 0.0307354 1.33336 0 1.41237L0 1.41237L2.91602 1.41237C3.10043 1.41237 3.33479 1.45681 3.61909 1.5457C3.90339 1.63459 4.18193 1.74818 4.4547 1.88645C4.72748 2.02472 4.95992 2.18111 5.15201 2.35559C5.34411 2.53008 5.44016 2.70292 5.44016 2.87412L5.44016 2.87412L0.979689 2.87412C0.810645 3.09799 0.656968 3.3054 0.518659 3.49635C0.403401 3.66097 0.293907 3.81735 0.190175 3.9655C0.0864432 4.11365 0.0230515 4.21077 0 4.25686L0 4.25686L5.7283 4.25686C5.6822 4.67827 5.5727 5.03877 5.39982 5.33836C5.22693 5.63795 5.00602 5.88652 4.73709 6.08405C4.46815 6.28158 4.16464 6.43632 3.82655 6.54825C3.48846 6.66019 3.13308 6.74085 2.76042 6.79023C2.38775 6.83962 2.0074 6.86431 1.61937 6.86431C1.23133 6.86431 0.856748 6.85443 0.495608 6.83468L0.495608 6.83468L0.495608 8.1384L6.09713 14.5484L8.28702 14.5484Z" transform="translate(23.80643 35.70972)" id="₹" fill="#FFFFFF" stroke="none" />
    <path d="M11.807 19.679L0 19.679L0 17.711L10.823 17.711L10.823 1.968L0 1.968L0 0L11.807 0C12.3512 0 12.791 0.439848 12.791 0.984L12.791 18.696C12.791 19.2392 12.3512 19.679 11.807 19.679Z" transform="translate(43.29501 32.47192)" id="Path" fill="#FFFFFF" stroke="none" />
    <path d="M12.791 19.68L0.984 19.68C0.439848 19.68 0 19.2392 0 18.696L0 0.984C0 0.439848 0.439848 0 0.983016 0L12.791 0L12.792 1.968L1.968 1.968L1.968 17.712L12.791 17.712L12.791 19.68Z" transform="translate(2.951996 32.47192)" id="Path" fill="#FFFFFF" stroke="none" />
    <path d="M0 0L1.96701 0L1.96701 1.968L0 1.968L0 0Z" transform="translate(43.29501 46.24805)" id="Path" fill="#FFFFFF" stroke="none" />
    <path d="M0 0L1.96701 0L1.96701 1.968L0 1.968L0 0Z" transform="translate(47.23099 46.24805)" id="Path" fill="#FFFFFF" stroke="none" />
    <path d="M0 0L1.96701 0L1.96701 1.968L0 1.968L0 0Z" transform="translate(43.29501 36.40796)" id="Path" fill="#FFFFFF" stroke="none" />
    <path d="M0 0L1.96701 0L1.96701 1.968L0 1.968L0 0Z" transform="translate(47.23099 36.40796)" id="Path" fill="#FFFFFF" stroke="none" />
    <path d="M0 0L1.96702 0L1.96702 1.968L0 1.968L0 0Z" transform="translate(9.839996 36.40796)" id="Path" fill="#FFFFFF" stroke="none" />
    <path d="M1.74794e-15 0L1.96702 0L1.96702 1.968L0 1.968L1.74794e-15 0Z" transform="translate(13.77597 36.40796)" id="Path" fill="#FFFFFF" stroke="none" />
    <path d="M0 0L1.96702 0L1.96702 1.968L0 1.968L0 0Z" transform="translate(9.839996 46.24805)" id="Path" fill="#FFFFFF" stroke="none" />
    <path d="M1.74794e-15 0L1.96702 0L1.96702 1.968L0 1.968L1.74794e-15 0Z" transform="translate(13.77597 46.24805)" id="Path" fill="#FFFFFF" stroke="none" />
  </g>
</svg>