<?xml version="1.0" encoding="utf-8"?>
<svg width="72px" height="70px" viewBox="0 0 72 70" version="1.1" xmlns:xlink="http://www.w3.org/1999/xlink" xmlns="http://www.w3.org/2000/svg">
  <desc>Created with Lunacy</desc>
  <g id="tournament">
    <path d="M4.30369 33.8824L3.17647 33.8824C1.42221 33.8824 0 32.4601 0 30.7059C0 28.9516 1.42221 27.5294 3.17647 27.5294L4.30369 27.5294C10.7259 27.5294 15.9508 22.3045 15.9508 15.8824L15.9508 9.52941C15.9508 7.77791 14.526 6.35294 12.7743 6.35294L4.30369 6.35294C2.54944 6.35294 1.12722 4.93073 1.12722 3.17647C1.12722 1.42221 2.54944 0 4.30369 0L12.7743 0C18.029 0 22.3037 4.27489 22.3037 9.52941L22.3037 15.8824C22.3037 25.8076 14.2289 33.8824 4.30369 33.8824Z" transform="translate(49.6963 6.352941)" id="Path" fill="#FDBB1C" stroke="none" />
    <path d="M19.1272 33.8824L18 33.8824C8.0748 33.8824 0 25.8076 0 15.8824L0 9.52941C0 4.27489 4.27489 0 9.52941 0L18 0C19.7543 0 21.1765 1.42221 21.1765 3.17647C21.1765 4.93073 19.7543 6.35294 18 6.35294L9.52941 6.35294C7.77791 6.35294 6.35294 7.77791 6.35294 9.52941L6.35294 15.8824C6.35294 22.3045 11.5778 27.5294 18 27.5294L19.1272 27.5294C20.8815 27.5294 22.3037 28.9516 22.3037 30.7059C22.3037 32.4601 20.8815 33.8824 19.1272 33.8824Z" transform="translate(0 6.352941)" id="Path" fill="#FE4400" stroke="none" />
    <path d="M39.1765 0L3.17647 0C1.42221 0 0 1.42221 0 3.17647L0 30.9068C0 37.1077 2.73219 42.941 7.49583 46.9108C10.807 49.67 12.7059 53.7243 12.7059 58.0343L12.7059 66.7059L29.6471 66.7059L29.6471 58.0343C29.6471 53.7243 31.5462 49.67 34.8571 46.911C39.621 42.941 42.3529 37.1077 42.3529 30.9068L42.3529 3.17647C42.3529 1.42221 40.9307 1.20374e-14 39.1765 0Z" transform="translate(14.82353 0)" id="Path" fill="#FDBB1C" stroke="none" />
    <path d="M18 0L0 0L0 66.7059L8.47059 66.7059L8.47059 58.0343C8.47059 53.7243 10.3697 49.67 13.6806 46.911C18.4445 42.941 21.1765 37.1077 21.1765 30.9068L21.1765 3.17647C21.1765 1.42221 19.7543 0 18 0Z" transform="translate(36 0)" id="Path" fill="#FE4400" stroke="none" />
    <path d="M8.60781 31.7647C6.85355 31.7647 5.43134 30.3425 5.43134 28.5882L5.43134 6.35294L3.17647 6.35294C1.42221 6.35294 0 4.93073 0 3.17647C0 1.42221 1.42221 0 3.17647 0L8.60781 0C10.3621 0 11.7843 1.42221 11.7843 3.17647L11.7843 28.5882C11.7843 30.3425 10.3621 31.7647 8.60781 31.7647Z" transform="translate(27.99021 9.529411)" id="Path" fill="#FFFFFF" stroke="none" />
    <path d="M30.7059 6.35294L3.17647 6.35294C1.42221 6.35294 0 4.93073 0 3.17647C0 1.42221 1.42221 0 3.17647 0L30.7059 0C32.4601 0 33.8824 1.42221 33.8824 3.17647C33.8824 4.93073 32.4601 6.35294 30.7059 6.35294Z" transform="translate(19.05882 63.52941)" id="Path" fill="#FE4400" stroke="none" />
    <path d="M13.7647 0L0 0L0 6.35294L13.7647 6.35294C15.519 6.35294 16.9412 4.93073 16.9412 3.17647C16.9412 1.42221 15.519 0 13.7647 0Z" transform="translate(36 63.52941)" id="Path" fill="#FDBB1C" stroke="none" />
    <path d="M0.598024 0L0 0L0 31.7067C0.193765 31.7435 0.393459 31.7647 0.598024 31.7647C2.35228 31.7647 3.77449 30.3425 3.77449 28.5882L3.77449 3.17647C3.77449 1.42221 2.35228 0 0.598024 0Z" transform="translate(36 9.529411)" id="Path" fill="#FDBB1C" stroke="none" />
  </g>
</svg>