<?xml version="1.0" encoding="utf-8"?>
<svg width="73px" height="70px" viewBox="0 0 73 70" version="1.1" xmlns:xlink="http://www.w3.org/1999/xlink" xmlns="http://www.w3.org/2000/svg">
  <desc>Created with Lunacy</desc>
  <g id="vip" transform="translate(0.4100037 0.4100342)">
    <path d="M71.8983 26.2034C71.6908 25.562 71.1876 25.0606 70.5472 24.858L50.1234 18.392L37.691 0.875094C37.3012 0.326077 36.6713 0 36 0C35.3287 0 34.6988 0.326077 34.309 0.875094L21.8765 18.392L1.45279 24.8581C0.812379 25.0608 0.309222 25.5621 0.10166 26.2035C-0.105762 26.8448 0.00814417 27.5475 0.407519 28.0896L13.1477 45.3817L12.9575 66.8949C12.9516 67.5692 13.2704 68.205 13.8136 68.6014C14.3568 68.998 15.0573 69.1062 15.6937 68.892L36 62.0622L56.3064 68.8919C56.5217 68.9643 56.7442 68.9998 56.9656 68.9998C57.3988 68.9998 57.8271 68.8636 58.1866 68.6012C58.7296 68.2048 59.0486 67.569 59.0427 66.8947L58.8524 45.3816L71.5926 28.0895C71.9919 27.5475 72.1058 26.8448 71.8983 26.2034Z" id="Path" fill="#FDBB1C" stroke="none" />
    <g id="Group-84" transform="translate(14 30)">
      <path d="M2.59611 19.0383C1.16227 19.0383 0 17.8759 0 16.4422L0 2.59611C0 1.16227 1.16244 0 2.59611 0C4.02996 0 5.19223 1.16244 5.19223 2.59611L5.19223 16.4422C5.19223 17.8761 4.02996 19.0383 2.59611 19.0383Z" transform="translate(19.03912 0.0007055618)" id="Path" fill="#FFFFFF" stroke="none" />
      <path d="M0 16.4422C0 17.8759 1.16227 19.0383 2.59611 19.0383C4.02979 19.0383 5.19223 17.8761 5.19223 16.4424L5.19223 12.1155L9.51926 12.1155C12.8596 12.1155 15.577 9.39814 15.577 6.05777C15.577 2.7174 12.8595 0 9.51926 0L2.59611 0C1.16244 0 0 1.16227 0 2.59611L0 16.4422ZM9.51908 6.92297L5.19223 6.92297L5.19223 5.19223L9.51908 5.19223C9.99615 5.19223 10.3845 5.58035 10.3845 6.0576C10.3845 6.53484 9.99633 6.92297 9.51908 6.92297Z" transform="translate(27.693 0.0007055618)" id="Shape" fill="#FFFFFF" fill-rule="evenodd" stroke="none" />
      <path d="M7.78912 19.039C6.70701 19.039 5.7381 18.3677 5.35824 17.3545L0.166011 3.50842C-0.337426 2.1658 0.342671 0.669553 1.68529 0.16594C3.02808 -0.337322 4.52433 0.3426 5.02777 1.68522L7.78929 9.04905L10.5508 1.68522C11.0543 0.3426 12.5505 -0.337322 13.8933 0.16594C15.2357 0.669377 15.916 2.1658 15.4126 3.50842L10.2203 17.3545C9.84013 18.3677 8.8714 19.039 7.78912 19.039Z" id="Path" fill="#FFFFFF" stroke="none" />
    </g>
  </g>
</svg>