<svg width="25" height="24" viewBox="0 0 25 24" fill="none" xmlns="http://www.w3.org/2000/svg">
<path d="M12.2749 22C17.7978 22 22.2749 17.5228 22.2749 12C22.2749 6.47715 17.7978 2 12.2749 2C6.75205 2 2.2749 6.47715 2.2749 12C2.2749 17.5228 6.75205 22 12.2749 22Z" stroke-width="2" stroke-linecap="round" stroke-linejoin="round"/>
<path d="M9.36487 8.99996C9.59997 8.33163 10.064 7.76807 10.6748 7.40909C11.2856 7.05012 12.0038 6.9189 12.702 7.03867C13.4003 7.15844 14.0337 7.52148 14.4899 8.06349C14.9462 8.60549 15.1959 9.29148 15.1949 9.99996C15.1949 12 12.1949 13 12.1949 13" stroke-width="2" stroke-linecap="round" stroke-linejoin="round"/>
<path d="M12.2749 17H12.2849" stroke-width="2" stroke-linecap="round" stroke-linejoin="round"/>
</svg>
