<svg width="24" height="24" viewBox="0 0 24 24" fill="none" xmlns="http://www.w3.org/2000/svg">
<g clip-path="url(#clip0)">
<path d="M23.5779 7.12741L23.5779 7.12742L22.6938 7.45756V17.0435C23.0554 17.2556 23.365 17.6128 23.6033 18.0896C23.9251 18.7332 24.1 19.5671 24.1 20.4375V21.8438C24.1 22.2873 23.7404 22.6469 23.2969 22.6469H20.4844C20.0408 22.6469 19.6812 22.2873 19.6812 21.8438V20.4375C19.6812 19.5671 19.8561 18.7332 20.1779 18.0896C20.4163 17.6128 20.7258 17.2556 21.0875 17.0435V8.05738L18.9884 8.84126C19.5182 10.36 19.7212 11.5415 19.7957 12.4111C19.8337 12.8546 19.8382 13.2162 19.8358 13.4987C19.835 13.5909 19.8336 13.6733 19.8323 13.7468C19.8295 13.9026 19.8274 14.0182 19.8341 14.1014L19.8347 14.1094H19.8344C19.8344 14.3758 19.7022 14.625 19.4815 14.7744C19.2609 14.9238 18.9805 14.954 18.7331 14.8551C18.733 14.8551 18.733 14.8551 18.733 14.8551L18.7328 14.855L18.7317 14.8545L18.7277 14.853L18.7128 14.8472C18.6998 14.8423 18.681 14.8352 18.6566 14.8262C18.6077 14.8082 18.5368 14.7827 18.4471 14.7522C18.2676 14.6913 18.013 14.6106 17.7094 14.5301C17.1013 14.3688 16.301 14.2094 15.5156 14.2094C14.9176 14.2094 14.2732 14.4282 13.7192 14.695C13.1664 14.9611 12.7136 15.2701 12.5017 15.4396C12.2084 15.6742 11.7918 15.6743 11.4985 15.4398C11.4984 15.4397 11.4983 15.4397 11.4983 15.4396L11.4981 15.4395L11.4972 15.4388L11.4935 15.4359L11.4793 15.425C11.467 15.4156 11.449 15.402 11.4257 15.3848C11.3792 15.3504 11.3116 15.3018 11.2261 15.2436C11.0552 15.1271 10.8132 14.9729 10.5261 14.8192C9.94927 14.5102 9.20148 14.2094 8.48438 14.2094C6.9045 14.2094 5.28906 14.8463 5.26697 14.8551L23.5779 7.12741ZM23.5779 7.12741C23.8918 7.0101 24.1 6.71018 24.1 6.375M23.5779 7.12741L24.1 6.375M12.281 1.40388L12.281 1.40388L12.246 1.49755L12.281 1.40388ZM12.281 1.40388L23.5779 5.62263M12.281 1.40388L23.5779 5.62263M24.1 6.375C24.1 6.03983 23.8918 5.73989 23.5779 5.62263M24.1 6.375L23.5779 5.62263M0.422187 5.62263L0.457172 5.71631L12.246 1.49756C12.0874 1.43831 11.9127 1.43831 11.754 1.49756L11.7191 1.40388L11.7191 1.40388L0.422191 5.62263L0.422187 5.62263ZM12.281 11.3461L17.4836 9.40323C17.9279 10.6745 18.1671 11.6867 18.2179 13.0025C17.5006 12.8066 16.5155 12.6031 15.5156 12.6031C14.0845 12.6031 12.7071 13.3647 12 13.8283C11.2929 13.3647 9.91546 12.6031 8.48438 12.6031C7.48451 12.6031 6.49936 12.8066 5.78213 13.0025C5.83282 11.6867 6.07205 10.6745 6.51642 9.40323L11.719 11.3461C11.7191 11.3461 11.7191 11.3461 11.7191 11.3461C11.9002 11.4138 12.0998 11.4138 12.281 11.3461ZM2.99878 6.375L12 3.01356L21.0012 6.375L12 9.73644L2.99878 6.375ZM21.2875 21.0406V20.4375C21.2875 19.8133 21.4088 19.2195 21.6146 18.8079C21.7004 18.6362 21.7795 18.5372 21.8357 18.4827C21.8584 18.4607 21.877 18.4463 21.8906 18.4372C21.9042 18.4463 21.9228 18.4607 21.9455 18.4827C22.0018 18.5372 22.0808 18.6362 22.1667 18.8079C22.3724 19.2195 22.4937 19.8133 22.4937 20.4375V21.0406H21.2875Z" fill="#9FA3C0" stroke="#9FA3C0" stroke-width="0.2"/>
</g>
<defs>
<clipPath id="clip0">
<rect width="24" height="24" fill="white"/>
</clipPath>
</defs>
</svg>
