<svg width="25" height="24" viewBox="0 0 25 24" fill="none" xmlns="http://www.w3.org/2000/svg">
<g clip-path="url(#clip0)">
<path d="M23.8528 7.12741L23.8528 7.12742L22.9687 7.45756V17.0435C23.3303 17.2556 23.6399 17.6128 23.8783 18.0896C24.2 18.7332 24.3749 19.5671 24.3749 20.4375V21.8438C24.3749 22.2873 24.0153 22.6469 23.5718 22.6469H20.7593C20.3157 22.6469 19.9562 22.2873 19.9562 21.8438V20.4375C19.9562 19.5671 20.131 18.7332 20.4528 18.0896C20.6912 17.6128 21.0007 17.2556 21.3624 17.0435V8.05738L19.2633 8.84126C19.7931 10.36 19.9961 11.5415 20.0706 12.4111C20.1086 12.8546 20.1131 13.2162 20.1107 13.4987C20.1099 13.5909 20.1085 13.6733 20.1072 13.7468C20.1044 13.9026 20.1023 14.0182 20.109 14.1014L20.1096 14.1094H20.1093C20.1093 14.3758 19.9771 14.625 19.7564 14.7744C19.5358 14.9238 19.2554 14.954 19.008 14.8551C19.0079 14.8551 19.0079 14.8551 19.0079 14.8551L19.0077 14.855L19.0066 14.8545L19.0026 14.853L18.9877 14.8472C18.9747 14.8423 18.9559 14.8352 18.9315 14.8262C18.8826 14.8082 18.8117 14.7827 18.722 14.7522C18.5425 14.6913 18.2879 14.6106 17.9843 14.5301C17.3762 14.3688 16.5759 14.2094 15.7905 14.2094C15.1925 14.2094 14.5481 14.4282 13.9941 14.695C13.4413 14.9611 12.9885 15.2701 12.7766 15.4396C12.4833 15.6742 12.0667 15.6743 11.7734 15.4398C11.7733 15.4397 11.7732 15.4397 11.7732 15.4396L11.7721 15.4388L11.7684 15.4359L11.7542 15.425C11.7419 15.4156 11.7239 15.402 11.7006 15.3848C11.6541 15.3504 11.5865 15.3018 11.501 15.2436C11.3301 15.1271 11.0881 14.9729 10.801 14.8192C10.2242 14.5102 9.47638 14.2094 8.75928 14.2094C7.1759 14.2094 5.5568 14.8491 5.54175 14.8551L5.50475 14.7622M23.8528 7.12741L11.994 1.40388L0.69709 5.62263C0.383074 5.73989 0.174902 6.03982 0.174902 6.375C0.174902 6.71017 0.383071 7.01011 0.697041 7.12737L0.732027 7.03369L0.697043 7.12737L5.28646 8.84125C4.7539 10.3674 4.55165 11.5388 4.47825 12.4015C4.44083 12.8414 4.43698 13.2002 4.43969 13.4833C4.44051 13.5691 4.44188 13.6469 4.44312 13.7173C4.44605 13.8831 4.44826 14.0081 4.44084 14.1015L4.44053 14.1014V14.1094C4.44053 14.3758 4.57272 14.625 4.79337 14.7744C5.01408 14.9239 5.29443 14.954 5.54187 14.8551L5.50475 14.7622M23.8528 7.12741C24.1667 7.0101 24.3749 6.71018 24.3749 6.375M23.8528 7.12741L24.3749 6.375M5.50475 14.7622C5.28809 14.8488 5.04265 14.8224 4.84943 14.6916L19.045 14.7622C19.0292 14.7559 17.3855 14.1094 15.7905 14.1094C14.5509 14.1094 13.1495 15.0133 12.7141 15.3615C12.4573 15.567 12.0925 15.567 11.8356 15.3615C11.8208 15.3497 10.2429 14.1094 8.75928 14.1094C7.15545 14.1094 5.52111 14.7557 5.50475 14.7622ZM12.5559 1.40388L12.5559 1.40388L12.5209 1.49754L12.5559 1.40388ZM12.5559 1.40388L23.8528 5.62263M12.5559 1.40388L23.8528 5.62263M24.3749 6.375C24.3749 6.03983 24.1667 5.73989 23.8528 5.62263M24.3749 6.375L23.8528 5.62263M12.2749 9.73644L3.27368 6.375L12.2749 3.01356L21.2761 6.375L12.2749 9.73644ZM12.5559 11.3461L17.7585 9.40323C18.2028 10.6745 18.442 11.6867 18.4928 13.0025C17.7755 12.8066 16.7904 12.6031 15.7905 12.6031C14.3594 12.6031 12.982 13.3647 12.2749 13.8283C11.5678 13.3647 10.1904 12.6031 8.75928 12.6031C7.75941 12.6031 6.77426 12.8066 6.05704 13.0025C6.10772 11.6867 6.34695 10.6745 6.79132 9.40323L11.9939 11.3461C11.994 11.3461 11.994 11.3461 11.994 11.3461C12.1751 11.4138 12.3747 11.4138 12.5559 11.3461ZM21.5624 21.0406V20.4375C21.5624 19.8133 21.6838 19.2195 21.8895 18.8079C21.9754 18.6362 22.0544 18.5372 22.1106 18.4827C22.1333 18.4607 22.1519 18.4463 22.1655 18.4372C22.1791 18.4463 22.1978 18.4607 22.2204 18.4827C22.2767 18.5372 22.3557 18.6362 22.4416 18.8079C22.6473 19.2195 22.7687 19.8133 22.7687 20.4375V21.0406H21.5624Z" fill="#9FA3C0" stroke-width="0.2"/>
</g>
<defs>
<clipPath id="clip0">
<rect width="24" height="24" fill="white" transform="translate(0.274902)"/>
</clipPath>
</defs>
</svg>
