<svg width="23" height="22" viewBox="0 0 23 22" fill="none" xmlns="http://www.w3.org/2000/svg">
<path d="M22.0861 7.00305C22.3377 6.75151 22.3379 6.34318 22.0861 6.09147L16.6696 0.675481C16.4178 0.423813 16.0099 0.423813 15.7581 0.675481L14.0642 2.36926L11.6772 3.09969L9.32918 2.33579L7.61507 0.621856C7.36332 0.370189 6.95524 0.370189 6.70358 0.621856L0.463621 6.86117C0.212082 7.11271 0.21191 7.52104 0.463621 7.77275L2.16376 9.47272L2.78836 11.8503C2.55542 12.0115 2.47352 12.1305 2.06554 12.5281C0.880589 13.713 1.67263 15.7321 3.32611 15.8216C3.37819 16.8066 4.16503 17.5916 5.14957 17.6449C5.20165 18.6299 5.98853 19.4149 6.97303 19.4682C6.99825 19.945 7.19578 20.3896 7.53592 20.7297C8.28912 21.4829 9.51463 21.4829 10.2679 20.7297L10.7533 20.2444C10.7628 20.2349 10.7717 20.2249 10.781 20.2153L11.566 21.0001C12.3191 21.7534 13.5451 21.7537 14.2986 21.0002C14.6085 20.6904 14.7996 20.2937 14.8505 19.8653C14.8588 19.8653 14.8671 19.8659 14.8754 19.8659C15.3702 19.8658 15.8651 19.6775 16.2418 19.3009C16.5444 18.9983 16.7338 18.6129 16.7899 18.196C16.8091 18.1965 16.8283 18.1973 16.8475 18.1973C17.3423 18.1973 17.8372 18.009 18.2139 17.6324C18.5108 17.3355 18.6992 16.9589 18.7591 16.5509C18.791 16.5525 18.823 16.5533 18.8549 16.5533C19.3497 16.5533 19.8446 16.3649 20.2213 15.9883C20.9765 15.2331 20.9767 14.011 20.2213 13.2557L18.4255 11.46L20.3179 8.77121L22.0861 7.00305ZM2.74281 8.22882L1.83088 7.31698L7.1593 1.98908L8.07123 2.90091L2.74281 8.22882ZM3.88599 14.3484C3.63531 14.599 3.22758 14.599 2.97707 14.3484C2.72592 14.0973 2.72588 13.6908 2.97707 13.4397L3.43215 12.9847C3.83434 12.5825 4.52927 12.868 4.52927 13.439C4.52927 13.8449 4.20813 13.9789 3.88599 14.3484ZM5.70941 16.1716C5.45882 16.4222 5.05113 16.4222 4.80054 16.1716C4.54938 15.9206 4.54934 15.5141 4.80054 15.263L6.6209 13.4428C6.87154 13.1922 7.27918 13.1921 7.52986 13.4427C7.78093 13.6939 7.78101 14.1002 7.52986 14.3514L5.70941 16.1716ZM7.53287 17.995C7.28228 18.2455 6.87459 18.2455 6.624 17.9949C6.37285 17.7438 6.3728 17.3374 6.624 17.0863L7.98933 15.7211C8.23992 15.4705 8.64765 15.4705 8.89824 15.7211C9.14935 15.9722 9.14935 16.3786 8.89824 16.6298H8.8982L7.53287 17.995ZM9.84175 19.3328L9.35633 19.8182C9.1057 20.0688 8.69801 20.0688 8.44737 19.8182C8.19626 19.5671 8.19622 19.1607 8.44742 18.9096L8.93283 18.4242C9.18343 18.1737 9.59116 18.1735 9.84175 18.4242C10.0929 18.6752 10.093 19.0817 9.84175 19.3328ZM19.3098 14.1672C19.5612 14.4185 19.5612 14.8254 19.3098 15.0767C19.059 15.3275 18.6508 15.3276 18.4 15.0767L16.885 13.5618C16.5935 13.2704 16.1841 13.2914 15.939 13.5365C15.6873 13.7882 15.6873 14.1963 15.939 14.448L17.3024 15.8113C17.5537 16.0626 17.5538 16.4694 17.3024 16.7208C17.0516 16.9716 16.6434 16.9716 16.3926 16.7208C15.9076 16.2333 15.9889 16.3163 15.0301 15.3567C14.7783 15.105 14.3702 15.1051 14.1186 15.3567C14.1183 15.3569 14.1182 15.3571 14.1179 15.3574C14.1179 15.3575 14.1178 15.3575 14.1177 15.3576C13.8661 15.6093 13.8661 16.0175 14.1178 16.2692L15.3469 17.4981C15.5831 17.7527 15.5744 18.1453 15.3304 18.3894C15.0795 18.6402 14.6713 18.6403 14.4205 18.3894L13.2089 17.1778C12.9572 16.9262 12.5491 16.9262 12.2974 17.1779C12.0457 17.4296 12.0457 17.8376 12.2974 18.0894L12.3261 18.1181C12.3265 18.1185 12.3268 18.119 12.3273 18.1194L13.3873 19.1793C13.6385 19.4305 13.6387 19.8373 13.3872 20.0888C13.1364 20.3395 12.7283 20.3397 12.4774 20.0887L11.3179 18.9292C11.3183 18.9123 11.3191 18.8954 11.3191 18.8785C11.3191 18.3625 11.1181 17.8774 10.7533 17.5125C10.572 17.3313 10.3632 17.1941 10.1404 17.1001C10.7228 16.0353 10.1836 14.6531 8.96141 14.3153C9.09955 13.6867 8.9245 13.0143 8.44131 12.5311C7.68816 11.7781 6.46261 11.7782 5.70941 12.5311L5.63181 12.6087C5.3443 12.0055 4.74876 11.5682 4.0329 11.5143L3.46021 9.3344L9.15911 3.63607L10.4826 4.06666C8.41919 6.13229 8.06306 6.4888 8.01305 6.53886C8.01317 6.53877 8.01305 6.53886 8.01274 6.53916C8.00982 6.54208 8.00798 6.54393 8.00694 6.54496C8.00707 6.54483 8.0072 6.5447 8.00733 6.54457C8.00694 6.54496 8.00664 6.54526 8.00626 6.54565C7.24292 7.30877 7.24266 8.54438 8.00621 9.30772C8.76775 10.0693 10.0069 10.0693 10.7685 9.30776L12.6092 7.46715L19.3098 14.1672ZM17.5002 10.5348L13.0649 6.09998C12.8132 5.84835 12.4051 5.84835 12.1534 6.09998L9.85692 8.39627C9.59795 8.65515 9.17664 8.6552 8.91762 8.39622C8.65813 8.13674 8.65805 7.71676 8.91767 7.45723C8.91779 7.4571 8.91788 7.45701 8.91801 7.45688C8.91848 7.45641 8.91956 7.45534 8.92158 7.45332C8.92149 7.45336 8.92145 7.45345 8.92136 7.45353C8.92175 7.45315 8.92201 7.45289 8.92218 7.45272C8.92213 7.45276 8.92205 7.4528 8.92201 7.45289C8.92205 7.4528 8.92218 7.45272 8.92226 7.45263C8.92239 7.4525 8.92243 7.45246 8.92231 7.45259C8.96377 7.41095 9.33691 7.03652 12.0218 4.34226L14.2245 3.66825L18.9838 8.42703L17.5002 10.5348ZM15.3179 2.93856L16.2138 2.04266L20.7188 6.54724L19.8229 7.44314L15.3179 2.93856Z" fill="#9FA3C0"/>
<path d="M8.92177 7.45215C8.92102 7.4529 8.9198 7.45412 8.91816 7.4558C8.91811 7.45585 8.91802 7.45594 8.91797 7.45599C8.91853 7.45538 8.92045 7.45346 8.92177 7.45215Z" fill="#9FA3C0"/>
<path d="M8.92221 7.45224L8.92212 7.45234L8.92226 7.45215L8.92221 7.45224Z" fill="#9FA3C0"/>
<path d="M8.00732 6.54412L8.0114 6.54004C8.01009 6.54135 8.0085 6.54295 8.00732 6.54412Z" fill="#9FA3C0"/>
</svg>
