<svg width="24" height="24" viewBox="0 0 24 24" fill="none" xmlns="http://www.w3.org/2000/svg">
<path d="M4.50057 0H19.4996C21.5665 0 23.2494 1.68289 23.2494 3.74977V8.24948C23.2494 8.66346 22.9134 8.99944 22.4995 8.99944H17.2498V23.2335V23.235V23.2485C17.2498 23.2965 17.2318 23.3385 17.2228 23.3835C17.2138 23.4315 17.2153 23.4795 17.1958 23.5275C17.1958 23.529 17.1928 23.5305 17.1928 23.532C17.1418 23.658 17.0518 23.757 16.9453 23.8365C16.9198 23.856 16.8973 23.871 16.8703 23.886C16.7593 23.9505 16.6378 23.9985 16.4998 23.9985C16.4068 23.9985 16.3123 23.982 16.2208 23.9445L16.2073 23.9385C16.2073 23.9385 16.2073 23.9385 16.2058 23.9385L12.7501 22.5571L9.27928 23.946C9.10079 24.018 8.9013 24.018 8.72281 23.946L5.25053 22.5571L1.77974 23.946C1.54876 24.039 1.28627 24.009 1.08079 23.871C0.8753 23.73 0.750809 23.4975 0.750809 23.2485V3.74977C0.750809 1.68289 2.4337 0 4.50057 0ZM17.2498 7.49953H21.7495V3.74977C21.7495 2.50934 20.7401 1.49991 19.4996 1.49991C18.2592 1.49991 17.2498 2.50934 17.2498 3.74977V7.49953ZM2.25072 22.1416L4.97155 21.0527C5.15003 20.9807 5.34952 20.9807 5.52801 21.0527L9.00029 22.4401L12.4711 21.0512C12.6496 20.9792 12.8491 20.9792 13.0275 21.0512L15.7499 22.1401V3.74977C15.7499 2.90232 16.0424 2.12837 16.5193 1.49991H4.50057C3.26015 1.49991 2.25072 2.50934 2.25072 3.74977V22.1416Z" fill="#3246D3"/>
<path d="M5.7501 12.9993H11.7497C12.1637 12.9993 12.4997 13.3352 12.4997 13.7492C12.4997 14.1632 12.1637 14.4992 11.7497 14.4992H5.7501C5.33613 14.4992 5.00015 14.1632 5.00015 13.7492C5.00015 13.3352 5.33613 12.9993 5.7501 12.9993Z" fill="#3246D3"/>
<path d="M5.7501 9.99927H11.7497C12.1637 9.99927 12.4997 10.3352 12.4997 10.7492C12.4997 11.1632 12.1637 11.4992 11.7497 11.4992H5.7501C5.33613 11.4992 5.00015 11.1632 5.00015 10.7492C5.00015 10.3352 5.33613 9.99927 5.7501 9.99927Z" fill="#3246D3"/>
<path d="M5.7501 3.99927H11.7497C12.1637 3.99927 12.4997 4.33525 12.4997 4.74922C12.4997 5.1632 12.1637 5.49917 11.7497 5.49917H5.7501C5.33613 5.49917 5.00015 5.1632 5.00015 4.74922C5.00015 4.33525 5.33613 3.99927 5.7501 3.99927Z" fill="#3246D3"/>
<path d="M5.7501 6.99927H11.7497C12.1637 6.99927 12.4997 7.33525 12.4997 7.74922C12.4997 8.1632 12.1637 8.49917 11.7497 8.49917H5.7501C5.33613 8.49917 5.00015 8.1632 5.00015 7.74922C5.00015 7.33525 5.33613 6.99927 5.7501 6.99927Z" fill="#3246D3"/>
<path d="M5.7501 16.001H11.7497C12.1637 16.001 12.4997 16.337 12.4997 16.7509C12.4997 17.1649 12.1637 17.5009 11.7497 17.5009H5.7501C5.33613 17.5009 5.00015 17.1649 5.00015 16.7509C5.00015 16.337 5.33613 16.001 5.7501 16.001Z" fill="#3246D3"/>
</svg>
