<svg width="25" height="24" viewBox="0 0 25 24" fill="none" xmlns="http://www.w3.org/2000/svg">
<path d="M2.2749 3H8.2749C9.33577 3 10.3532 3.42143 11.1033 4.17157C11.8535 4.92172 12.2749 5.93913 12.2749 7V21C12.2749 20.2044 11.9588 19.4413 11.3962 18.8787C10.8336 18.3161 10.0706 18 9.2749 18H2.2749V3Z" stroke-width="2" stroke-linecap="round" stroke-linejoin="round"/>
<path d="M22.2749 3H16.2749C15.214 3 14.1966 3.42143 13.4465 4.17157C12.6963 4.92172 12.2749 5.93913 12.2749 7V21C12.2749 20.2044 12.591 19.4413 13.1536 18.8787C13.7162 18.3161 14.4793 18 15.2749 18H22.2749V3Z" stroke-width="2" stroke-linecap="round" stroke-linejoin="round"/>
</svg>
