<svg width="24" height="24" viewBox="0 0 24 24" fill="none" xmlns="http://www.w3.org/2000/svg">
<g clip-path="url(#clip0)">
<path fill-rule="evenodd" clip-rule="evenodd" d="M23.9566 15.0862L22.6928 11.6502C22.5853 11.3579 22.2987 11.1711 21.9876 11.1912L20.7688 11.2698L20.2275 10.175C20.1017 9.92058 19.8353 9.76673 19.5519 9.78502L18.0778 9.88008L14.8463 8.01436C14.963 7.06866 14.8267 6.11409 14.4444 5.22558C13.983 4.15312 13.2034 3.27694 12.1898 2.6917C11.1144 2.07084 9.85687 1.84083 8.63466 2.03869C7.96664 1.93045 7.27261 1.94695 6.58734 2.10281C6.42544 2.06597 6.26077 2.03639 6.0937 2.01455L4.68745 2.01459C2.04614 2.3602 0 4.62525 0 7.35938C0 8.5298 0.369 9.64312 1.06706 10.5789C1.64541 11.3543 2.40389 11.9496 3.28125 12.3213V22.3594C3.28125 22.5945 3.39872 22.814 3.59438 22.9444L5.00063 23.8819C5.12002 23.9615 5.25562 24 5.39025 24C5.59266 24 5.79263 23.9129 5.93081 23.747L8.27456 20.9345C8.47388 20.6953 8.49216 20.3535 8.31947 20.0944L7.64194 19.0781L8.31942 18.0619C8.47688 17.8257 8.47688 17.518 8.31942 17.2818L7.5 16.0527V12.7434C7.81214 12.7602 8.12437 12.7502 8.43525 12.7119L13.4543 21.4052C13.5719 21.6088 13.7834 21.7402 14.0179 21.7553L15.7046 21.8641C15.72 21.8651 15.7351 21.8656 15.7504 21.8656C16.0899 21.8656 16.3842 21.6212 16.4428 21.2822L17.0662 17.6747C17.1193 17.3678 16.9642 17.0626 16.685 16.9246L15.5902 16.3833L15.6688 15.1645C15.6871 14.8812 15.5332 14.6147 15.2788 14.4889L13.9546 13.8342L12.7134 11.6843C12.7189 11.6803 12.7245 11.6764 12.7301 11.6724C12.7322 11.6708 12.7344 11.6692 12.7365 11.6676L21.4303 16.687C21.5388 16.7497 21.6602 16.7812 21.7818 16.7812C21.8883 16.7812 21.9951 16.757 22.0935 16.7084L23.6085 15.9592C23.9305 15.7999 24.0807 15.4234 23.9566 15.0862ZM6.21183 19.4681L6.85814 20.4375L5.25497 22.3613L4.6875 21.9831V11.8316C4.6875 11.5245 4.48814 11.2529 4.19513 11.1608C2.52703 10.6368 1.40625 9.10908 1.40625 7.35938C1.40625 5.40239 2.82487 3.77161 4.6875 3.43837H6.09375C7.95638 3.77156 9.375 5.40239 9.375 7.35938C9.375 9.10908 8.25422 10.6368 6.58612 11.1608C6.29311 11.2529 6.09375 11.5245 6.09375 11.8316V16.2656C6.09375 16.4044 6.13481 16.5401 6.21183 16.6556L6.88931 17.6719L6.21183 18.6881C6.05438 18.9243 6.05438 19.232 6.21183 19.4681ZM4.6875 4.78125H4.45312C4.06481 4.78125 3.75 5.09606 3.75 5.48438C3.75 5.87269 4.06481 6.1875 4.45312 6.1875H6.32812C6.71644 6.1875 7.03125 5.87269 7.03125 5.48438C7.03125 5.09606 6.71644 4.78125 6.32812 4.78125H6.09375H4.6875ZM12.8431 14.7217C12.9125 14.8418 13.016 14.9389 13.1404 15.0004L14.2352 15.5417L14.1566 16.7605C14.1383 17.0438 14.2922 17.3102 14.5466 17.436L15.591 17.9525L15.1645 20.4201L14.4839 20.3762L9.40828 11.5848C9.3308 11.4506 9.21389 11.3498 9.07861 11.2913C9.30877 11.0747 9.52167 10.837 9.71419 10.5789C10.4123 9.64312 10.7812 8.5298 10.7812 7.35938C10.7812 5.946 10.2342 4.6582 9.34111 3.69581C10.1166 4.02628 10.7887 4.60083 11.2317 5.36798C12.1065 6.88327 11.8998 8.76666 10.7172 10.0545C10.5094 10.2808 10.4726 10.6157 10.6262 10.8817L12.8431 14.7217ZM21.8074 15.2809L13.016 10.2052C12.8188 10.0913 12.5839 10.0824 12.3833 10.1699C12.7864 9.5107 13.0428 8.77059 13.1352 7.98656C13.2697 6.84553 13.0414 5.71533 12.4764 4.71366C13.312 5.6505 13.6695 6.94584 13.3844 8.22553C13.3175 8.52534 13.4531 8.83378 13.7191 8.98734L17.559 11.2043C17.6793 11.2737 17.8174 11.3063 17.9559 11.2971L19.1747 11.2185L19.716 12.3133C19.8419 12.5677 20.1079 12.7218 20.3916 12.7033L21.5543 12.6283L22.4188 14.9786L21.8074 15.2809Z" fill="#9FA3C0"/>
</g>
<defs>
<clipPath id="clip0">
<rect width="24" height="24" fill="white"/>
</clipPath>
</defs>
</svg>
