<svg width="23" height="24" viewBox="0 0 23 24" fill="none" xmlns="http://www.w3.org/2000/svg">
<path d="M15.1421 0.9H7.40771C6.99648 0.9 6.66318 1.2333 6.66318 1.64453V6.37109C6.66318 6.78233 6.99648 7.11562 7.40771 7.11562H15.1421C15.5533 7.11562 15.8866 6.78233 15.8866 6.37109V1.64453C15.8866 1.2333 15.5533 0.9 15.1421 0.9ZM14.3976 5.62656H8.15225V2.38906H14.3976V5.62656Z" fill="#9FA3C0" stroke-width="0.2"/>
<path d="M15.1421 8.89219H7.40771C6.99648 8.89219 6.66318 9.22549 6.66318 9.63672V14.3633C6.66318 14.7745 6.99648 15.1078 7.40771 15.1078H15.1421C15.5533 15.1078 15.8866 14.7745 15.8866 14.3633V9.63672C15.8866 9.22549 15.5533 8.89219 15.1421 8.89219ZM14.3976 13.6188H8.15225V10.3813H14.3976V13.6188Z" fill="#9FA3C0" stroke-width="0.2"/>
<path d="M15.1421 16.8844H7.40771C6.99648 16.8844 6.66318 17.2177 6.66318 17.6289V22.3555C6.66318 22.7667 6.99648 23.1 7.40771 23.1H15.1421C15.5533 23.1 15.8866 22.7667 15.8866 22.3555V17.6289C15.8866 17.2177 15.5533 16.8844 15.1421 16.8844ZM14.3976 21.6109H8.15225V18.3734H14.3976V21.6109Z" fill="#9FA3C0" stroke-width="0.2"/>
<path d="M17.3335 4.25156H19.9116C21.27 4.25156 22.3749 5.35645 22.3749 6.71484V9.29297C22.3749 10.6514 21.27 11.7562 19.9116 11.7562H19.131L19.5786 12.204C19.5786 12.204 19.5787 12.2041 19.5787 12.2041C19.8695 12.4947 19.8695 12.9662 19.5787 13.2568C19.4335 13.4023 19.2427 13.475 19.0522 13.475C18.8618 13.475 18.6711 13.4023 18.5258 13.2569L17.3335 4.25156ZM17.3335 4.25156C16.9223 4.25156 16.589 4.58486 16.589 4.99609C16.589 5.40733 16.9223 5.74063 17.3335 5.74063H19.9116C20.4487 5.74063 20.8858 6.17774 20.8858 6.71484V9.29297C20.8858 9.83007 20.4487 10.2672 19.9116 10.2672H19.131L19.5786 9.81941C19.5786 9.8194 19.5787 9.81938 19.5787 9.81937C19.8695 9.52873 19.8695 9.05723 19.5787 8.76658C19.288 8.47572 18.8165 8.47572 18.5258 8.76658L16.8071 10.4853C16.8071 10.4853 16.8071 10.4853 16.8071 10.4853C16.5162 10.776 16.5163 11.2473 16.8071 11.5381L18.5258 13.2568L17.3335 4.25156Z" fill="#9FA3C0" stroke-width="0.2"/>
<path d="M5.21631 13.7328H2.63818C2.10108 13.7328 1.66396 14.1699 1.66396 14.707V17.2852C1.66396 17.8223 2.10108 18.2594 2.63818 18.2594H3.41883L2.97114 17.8116C2.97114 17.8116 2.97114 17.8116 2.97113 17.8116C2.68035 17.5208 2.6803 17.0494 2.97112 16.7588C2.97114 16.7587 2.97115 16.7587 2.97117 16.7587M5.21631 13.7328L3.95326 16.8295C3.70166 16.5777 3.29346 16.5777 3.04185 16.8295L2.97117 16.7587M5.21631 13.7328C5.62754 13.7328 5.96084 13.3995 5.96084 12.9883C5.96084 12.577 5.62754 12.2437 5.21631 12.2437H2.63818C1.27979 12.2437 0.174902 13.3486 0.174902 14.707V17.2852C0.174902 18.6435 1.27979 19.7484 2.63818 19.7484H3.41883M5.21631 13.7328L3.41883 19.7484M2.97117 16.7587C3.26183 16.4679 3.73335 16.4679 4.024 16.7588M2.97117 16.7587L4.024 16.7588M4.024 16.7588L5.7427 18.4775C5.74271 18.4775 5.74272 18.4775 5.74272 18.4775C6.03355 18.7681 6.03355 19.2397 5.74272 19.5303C5.74272 19.5303 5.74271 19.5303 5.7427 19.5303L4.02402 21.249L4.024 16.7588ZM3.41883 19.7484L2.97117 20.1962C2.97116 20.1962 2.97115 20.1962 2.97113 20.1963C2.68034 20.4869 2.68032 20.9584 2.9711 21.249C3.11635 21.3945 3.30714 21.4672 3.49756 21.4672C3.68796 21.4672 3.87873 21.3945 4.02397 21.2491L3.41883 19.7484Z" fill="#9FA3C0" stroke-width="0.2"/>
</svg>
