<svg xmlns="http://www.w3.org/2000/svg" width="102" height="102.163" viewBox="0 0 102 102.163">
  <g id="Group_271" data-name="Group 271" transform="translate(-105 -1465)">
    <circle id="Ellipse_24" data-name="Ellipse 24" cx="3" cy="3" r="3" transform="translate(105 1465)" fill="#931867"/>
    <circle id="Ellipse_24-2" data-name="Ellipse 24" cx="2.807" cy="2.807" r="2.807" transform="translate(123.949 1465)" fill="#931867"/>
    <circle id="Ellipse_24-3" data-name="Ellipse 24" cx="2.807" cy="2.807" r="2.807" transform="translate(143.888 1465)" fill="#931867"/>
    <circle id="Ellipse_24-4" data-name="Ellipse 24" cx="2.807" cy="2.807" r="2.807" transform="translate(162.749 1465)" fill="#931867"/>
    <circle id="Ellipse_24-5" data-name="Ellipse 24" cx="2.807" cy="2.807" r="2.807" transform="translate(182.776 1465)" fill="#931867"/>
    <ellipse id="Ellipse_24-6" data-name="Ellipse 24" cx="2.5" cy="3" rx="2.5" ry="3" transform="translate(202 1465)" fill="#931867"/>
    <ellipse id="Ellipse_24-7" data-name="Ellipse 24" cx="3" cy="2.5" rx="3" ry="2.5" transform="translate(105 1490)" fill="#931867"/>
    <circle id="Ellipse_24-8" data-name="Ellipse 24" cx="2.807" cy="2.807" r="2.807" transform="translate(123.949 1489.699)" fill="#931867"/>
    <circle id="Ellipse_24-9" data-name="Ellipse 24" cx="2.807" cy="2.807" r="2.807" transform="translate(143.888 1489.699)" fill="#931867"/>
    <circle id="Ellipse_24-10" data-name="Ellipse 24" cx="2.807" cy="2.807" r="2.807" transform="translate(162.749 1489.699)" fill="#931867"/>
    <circle id="Ellipse_24-11" data-name="Ellipse 24" cx="2.807" cy="2.807" r="2.807" transform="translate(182.776 1489.699)" fill="#931867"/>
    <circle id="Ellipse_24-12" data-name="Ellipse 24" cx="2.5" cy="2.5" r="2.5" transform="translate(202 1490)" fill="#931867"/>
    <circle id="Ellipse_24-13" data-name="Ellipse 24" cx="3" cy="3" r="3" transform="translate(105 1513)" fill="#931867"/>
    <circle id="Ellipse_24-14" data-name="Ellipse 24" cx="2.807" cy="2.807" r="2.807" transform="translate(123.949 1513.275)" fill="#931867"/>
    <circle id="Ellipse_24-15" data-name="Ellipse 24" cx="2.807" cy="2.807" r="2.807" transform="translate(143.888 1513.275)" fill="#931867"/>
    <circle id="Ellipse_24-16" data-name="Ellipse 24" cx="2.807" cy="2.807" r="2.807" transform="translate(162.749 1513.275)" fill="#931867"/>
    <circle id="Ellipse_24-17" data-name="Ellipse 24" cx="2.807" cy="2.807" r="2.807" transform="translate(182.776 1513.275)" fill="#931867"/>
    <ellipse id="Ellipse_24-18" data-name="Ellipse 24" cx="2.5" cy="3" rx="2.5" ry="3" transform="translate(202 1513)" fill="#931867"/>
    <circle id="Ellipse_24-19" data-name="Ellipse 24" cx="3" cy="3" r="3" transform="translate(105 1538)" fill="#931867"/>
    <circle id="Ellipse_24-20" data-name="Ellipse 24" cx="2.807" cy="2.807" r="2.807" transform="translate(123.949 1537.973)" fill="#931867"/>
    <circle id="Ellipse_24-21" data-name="Ellipse 24" cx="2.807" cy="2.807" r="2.807" transform="translate(143.888 1537.973)" fill="#931867"/>
    <circle id="Ellipse_24-22" data-name="Ellipse 24" cx="2.807" cy="2.807" r="2.807" transform="translate(162.749 1537.973)" fill="#931867"/>
    <circle id="Ellipse_24-23" data-name="Ellipse 24" cx="2.807" cy="2.807" r="2.807" transform="translate(182.776 1537.973)" fill="#931867"/>
    <ellipse id="Ellipse_24-24" data-name="Ellipse 24" cx="2.5" cy="3" rx="2.5" ry="3" transform="translate(202 1538)" fill="#931867"/>
    <ellipse id="Ellipse_24-25" data-name="Ellipse 24" cx="3" cy="2.5" rx="3" ry="2.5" transform="translate(105 1562)" fill="#931867"/>
    <circle id="Ellipse_24-26" data-name="Ellipse 24" cx="2.807" cy="2.807" r="2.807" transform="translate(123.949 1561.549)" fill="#931867"/>
    <circle id="Ellipse_24-27" data-name="Ellipse 24" cx="2.807" cy="2.807" r="2.807" transform="translate(143.888 1561.549)" fill="#931867"/>
    <circle id="Ellipse_24-28" data-name="Ellipse 24" cx="2.807" cy="2.807" r="2.807" transform="translate(162.749 1561.549)" fill="#931867"/>
    <circle id="Ellipse_24-29" data-name="Ellipse 24" cx="2.807" cy="2.807" r="2.807" transform="translate(182.776 1561.549)" fill="#931867"/>
    <circle id="Ellipse_24-30" data-name="Ellipse 24" cx="2.5" cy="2.5" r="2.5" transform="translate(202 1562)" fill="#931867"/>
  </g>
</svg>
