<svg xmlns="http://www.w3.org/2000/svg" width="26.243" height="26.243" viewBox="0 0 26.243 26.243">
  <path id="Path_2428" data-name="Path 2428" d="M8.831,25.776a3.77,3.77,0,0,1-2.7-1.162h0A3.983,3.983,0,0,1,5,21.839H5a3.725,3.725,0,0,1,1.039-2.6h0l.16-.164,9.578-9.851A4.61,4.61,0,0,1,19.1,7.82h0a4.981,4.981,0,0,1,3.57,1.528h0a5.27,5.27,0,0,1,1.49,3.67h0a4.9,4.9,0,0,1-1.362,3.423h0l-8.04,8.278-.6.615L12.961,24.1,21.6,15.217a3.108,3.108,0,0,0,.851-2.192h0a3.5,3.5,0,0,0-1-2.437h0A3.3,3.3,0,0,0,19.1,9.561h0a2.94,2.94,0,0,0-2.129.892h0L7.39,20.306l-.16.164A1.948,1.948,0,0,0,6.7,21.839h0a2.224,2.224,0,0,0,.639,1.545h0a2.1,2.1,0,0,0,1.49.651h0a1.835,1.835,0,0,0,1.332-.558h0l6.771-6.969.568-.583a.736.736,0,0,0,.213-.526h0a.894.894,0,0,0-.258-.624h0a.851.851,0,0,0-.609-.266h0a.7.7,0,0,0-.509.213h0l-6.254,6.422-1.2-1.23,6.243-6.424a2.365,2.365,0,0,1,1.7-.719h0a2.52,2.52,0,0,1,1.805.775h0A2.669,2.669,0,0,1,19.4,15.4h0a2.518,2.518,0,0,1-.7,1.756h0l-.566.583L11.356,24.71a3.516,3.516,0,0,1-2.522,1.064h0Z" transform="translate(-9.065 11.552) rotate(-45)"/>
</svg>
