<svg xmlns="http://www.w3.org/2000/svg" xmlns:xlink="http://www.w3.org/1999/xlink" viewBox="0 0 68.83 71.13"><defs><style>.cls-1{isolation:isolate;}.cls-2{fill:url(#_ÂÁ_Ï_ÌÌ_È_ËÂÌÚ_13);}.cls-3{fill:url(#_ÂÁ_Ï_ÌÌ_È_ËÂÌÚ_10);}.cls-4{fill:#687e9f;}.cls-5{fill:url(#_ÂÁ_Ï_ÌÌ_È_ËÂÌÚ_9);}.cls-6,.cls-7,.cls-8,.cls-9{mix-blend-mode:screen;}.cls-6{fill:url(#_ÂÁ_Ï_ÌÌ_È_ËÂÌÚ_7);}.cls-7,.cls-8,.cls-9{opacity:0.63;}.cls-7{fill:url(#_ÂÁ_Ï_ÌÌ_È_ËÂÌÚ_7-2);}.cls-8{fill:url(#_ÂÁ_Ï_ÌÌ_È_ËÂÌÚ_7-3);}.cls-9{fill:#a6bcdd;}.cls-10{fill:#092041;opacity:0.52;}.cls-11{fill:#c7d9ef;}</style><linearGradient id="_ÂÁ_Ï_ÌÌ_È_ËÂÌÚ_13" x1="35.88" y1="71.1" x2="33.2" y2="8" gradientTransform="translate(1.26 -1.14) rotate(1.94)" gradientUnits="userSpaceOnUse"><stop offset="0" stop-color="#001435"/><stop offset="0.9" stop-color="#0e2546"/><stop offset="1" stop-color="#102748"/></linearGradient><radialGradient id="_ÂÁ_Ï_ÌÌ_È_ËÂÌÚ_10" cx="34.67" cy="7.52" r="57.36" gradientTransform="translate(1.25 -1.29) rotate(2.16)" gradientUnits="userSpaceOnUse"><stop offset="0" stop-color="#364d6e"/><stop offset="0.5" stop-color="#253c5d"/><stop offset="1" stop-color="#102748"/></radialGradient><linearGradient id="_ÂÁ_Ï_ÌÌ_È_ËÂÌÚ_9" x1="2717.64" y1="-441.13" x2="2754.35" y2="-487.02" gradientTransform="translate(2468.68 -1299.11) rotate(160.93)" gradientUnits="userSpaceOnUse"><stop offset="0" stop-color="#7f95b6"/><stop offset="0.6" stop-color="#405778"/><stop offset="0.7" stop-color="#364d6e"/><stop offset="1" stop-color="#102748"/></linearGradient><linearGradient id="_ÂÁ_Ï_ÌÌ_È_ËÂÌÚ_7" x1="2706.55" y1="-477.97" x2="2742.36" y2="-459.88" gradientTransform="translate(2468.68 -1299.11) rotate(160.93)" gradientUnits="userSpaceOnUse"><stop offset="0" stop-color="#5f7697"/><stop offset="0.23" stop-color="#404f6a"/><stop offset="0.46" stop-color="#242d43"/><stop offset="0.67" stop-color="#101426"/><stop offset="0.86" stop-color="#040515"/><stop offset="1" stop-color="#00000f"/></linearGradient><linearGradient id="_ÂÁ_Ï_ÌÌ_È_ËÂÌÚ_7-2" x1="2717.85" y1="-437.12" x2="2750.5" y2="-455.32" xlink:href="#_ÂÁ_Ï_ÌÌ_È_ËÂÌÚ_7"/><linearGradient id="_ÂÁ_Ï_ÌÌ_È_ËÂÌÚ_7-3" x1="2704.5" y1="-459.61" x2="2733.73" y2="-475.9" xlink:href="#_ÂÁ_Ï_ÌÌ_È_ËÂÌÚ_7"/></defs><g class="cls-1"><g id="Layer_2" data-name="Layer 2"><g id="Layer_1-2" data-name="Layer 1"><circle class="cls-2" cx="34.42" cy="36.71" r="34.42" transform="translate(-1.22 1.19) rotate(-1.94)"/><circle class="cls-3" cx="34.8" cy="32.5" r="32.51" transform="translate(-1.2 1.33) rotate(-2.16)"/><path class="cls-4" d="M4.6,44.21a30.72,30.72,0,1,1,39.07,19A30.72,30.72,0,0,1,4.6,44.21Z"/><path class="cls-5" d="M5.77,42.54a30.72,30.72,0,1,1,39.07,19A30.71,30.71,0,0,1,5.77,42.54Z"/><path class="cls-6" d="M63.83,22.47a30.7,30.7,0,0,0-59.66,12c5.36,3.05,9.31,7.93,13.11,12.91,1.28,1.68,2.54,3.36,3.84,5,1.63,2,3.35,4,5.06,6a38.18,38.18,0,0,0,4.46,4.53A30.67,30.67,0,0,0,63.83,22.47Z"/><path class="cls-7" d="M24.76,3.47A30.69,30.69,0,0,0,5.26,40.81a15,15,0,0,1,1-5.07A31.6,31.6,0,0,1,11,27.81c8.74-11.37,23-19.31,37.73-17.32l.92.14c1.91.31,4,.93,5,2.61a36.18,36.18,0,0,0-3.91-7A30.64,30.64,0,0,0,24.76,3.47Z"/><path class="cls-8" d="M44.84,61.54A30.69,30.69,0,0,0,49.32,5.47a16.89,16.89,0,0,1,2.8,2.74,20.74,20.74,0,0,1,3.07,6c4.67,13.13,3.08,31.06-6.78,41.56-2.61,2.78-5.56,5.58-9,7.07A29.87,29.87,0,0,0,44.84,61.54Z"/><path class="cls-9" d="M53.87,10.75c9.23,6.46,10.49,17.46,10.26,28a25.43,25.43,0,0,1-.5,4.38A30.71,30.71,0,0,0,24.76,3.47C19,5.48,14.89,9,10.81,13.38,21.56,1.74,41.47,2.07,53.87,10.75Z"/><path class="cls-10" d="M8.62,46.58A26.89,26.89,0,0,0,34.17,62.9c10.89-.37,21.29-7.9,24.64-18.26-7.49,9.88-22.63,12.52-33.49,6.54C13.54,44.69,5.56,26.41,12.4,13.85c-3.77,3.46-5.12,8.82-5.69,13.91a41.5,41.5,0,0,0,.89,15.9A25.82,25.82,0,0,0,8.62,46.58Z"/><path class="cls-11" d="M31.24,27.41A10.91,10.91,0,0,0,33,27.09a6.34,6.34,0,0,0,1.52-.6,3.3,3.3,0,0,0,1.08-.94A2.22,2.22,0,0,0,36,24.21a2,2,0,0,0-.86-1.76,3.87,3.87,0,0,0-2.28-.6c-.43,0-.82,0-1.16,0s-.68.1-1,.17-.68.18-1,.29-.76.25-1.19.41c-.14-.29-.28-.63-.43-1a11.82,11.82,0,0,1-.39-1.19c-.12-.41-.22-.82-.31-1.22a6.71,6.71,0,0,1-.17-1.1c.64-.23,1.22-.42,1.76-.58a14.21,14.21,0,0,1,1.53-.38c.49-.09,1-.16,1.45-.2a14.51,14.51,0,0,1,1.5-.07q4.14,0,6.21,1.87a6.64,6.64,0,0,1,2.09,5.19,6.17,6.17,0,0,1-.53,2.63,7.06,7.06,0,0,1-1.3,1.91,8.48,8.48,0,0,1-1.62,1.3,13.83,13.83,0,0,1-1.54.81v3.11c-.5.07-1,.12-1.46.17a12.5,12.5,0,0,1-1.3.07A12.14,12.14,0,0,1,32.63,34c-.47,0-.93-.1-1.39-.17Zm-.3,10.64c.52-.07,1-.13,1.5-.17a13.39,13.39,0,0,1,1.4-.07,13.53,13.53,0,0,1,1.4.07c.47,0,1,.1,1.5.17.09.52.16,1,.2,1.5a13.94,13.94,0,0,1,0,2.79c0,.48-.11,1-.2,1.51-.53.09-1,.15-1.5.2a13.53,13.53,0,0,1-1.4.07,13.39,13.39,0,0,1-1.4-.07c-.48,0-1-.11-1.5-.2-.09-.53-.16-1-.21-1.51s-.07-.94-.07-1.39,0-.93.07-1.4S30.85,38.57,30.94,38.05Z"/></g></g></g></svg>