<?xml version="1.0" encoding="UTF-8"?>
<svg width="115px" height="75px" viewBox="0 0 115 75" version="1.1" xmlns="http://www.w3.org/2000/svg" xmlns:xlink="http://www.w3.org/1999/xlink">
    <!-- Generator: Sketch 59 (86127) - https://sketch.com -->
    <title>logo</title>
    <desc>Created with Sketch.</desc>
    <defs>
        <rect id="path-1" x="0.487899408" y="0.494318182" width="114.212012" height="73.9561364"></rect>
        <rect id="path-3" x="0.487899408" y="0.495" width="114.206568" height="73.9554545"></rect>
    </defs>
    <g id="Page-1" stroke="none" stroke-width="1" fill="none" fill-rule="evenodd">
        <g id="logo">
            <g id="Group_172">
                <g id="Group_171-Clipped">
                    <mask id="mask-2" fill="white">
                        <use xlink:href="#path-1"></use>
                    </mask>
                    <g id="SVGID"></g>
                    <g id="Group_171" mask="url(#mask-2)" fill="#FFFFFF" fill-rule="nonzero">
                        <g transform="translate(25.177515, 17.045455)">
                            <path d="M9.32248521,6.36613636 C9.2435503,4.88659091 9.1489645,3.10909091 9.16529586,1.78704545 L9.11766272,1.78704545 C8.75565089,3.03 8.31402367,4.35204545 7.77849112,5.81522727 L5.90378698,10.9602273 L4.86402367,10.9602273 L3.14718935,5.91 C2.64295858,4.41477273 2.21766272,3.04636364 1.91825444,1.78704545 L1.88627219,1.78704545 C1.85497041,3.10909091 1.7760355,4.88659091 1.68213018,6.47590909 L1.39905325,11.0236364 L0.091183432,11.0236364 L0.831538462,0.417954545 L2.58035503,0.417954545 L4.39245562,5.54795455 C4.83340237,6.85363636 5.1954142,8.01818182 5.46352071,9.11931818 L5.51047337,9.11931818 C5.77857988,8.04954545 6.15692308,6.885 6.6291716,5.54795455 L8.51952663,0.417954545 L10.2683432,0.417954545 L10.9304438,11.0236364 L9.59127219,11.0236364 L9.32248521,6.36613636 Z" id="Path_346"></path>
                            <path d="M16.9621598,7.68818182 L15.8597929,11.0236364 L14.4416864,11.0236364 L18.0481953,0.418636364 L19.702426,0.418636364 L23.3259467,11.0236364 L21.8608876,11.0236364 L20.7265385,7.68818182 L16.9621598,7.68818182 Z M20.444142,6.61772727 L19.4043787,3.56522727 C19.167574,2.87318182 19.0103846,2.24386364 18.8525148,1.63022727 L18.821213,1.63022727 C18.6640237,2.25954545 18.490503,2.90454545 18.2856805,3.54954545 L17.2459172,6.61772727 L20.444142,6.61772727 Z" id="Path_347"></path>
                            <rect id="Rectangle_752" x="27.2522781" y="0.417954545" width="1.37047337" height="10.605"></rect>
                            <path d="M33.1928107,9.35522727 C33.9361694,9.80065254 34.7845718,10.0395313 35.6506805,10.0472727 C37.0524556,10.0472727 37.8717456,9.3075 37.8717456,8.23772727 C37.8717456,7.24636364 37.3049112,6.68045455 35.8711538,6.12954545 C34.1379882,5.51590909 33.0669231,4.61863636 33.0669231,3.12409091 C33.0669231,1.47204545 34.4373964,0.244772727 36.5012722,0.244772727 C37.315007,0.216978921 38.1225544,0.395694063 38.8489053,0.764318182 L38.4705621,1.88113636 C37.8503115,1.54839192 37.1571923,1.3754726 36.4536391,1.37795455 C35.0042308,1.37795455 34.4530473,2.24318182 34.4530473,2.96659091 C34.4530473,3.95795455 35.099497,4.44545455 36.5625148,5.01204545 C38.3589645,5.70409091 39.2728402,6.56931818 39.2728402,8.12659091 C39.2728402,9.76295455 38.0595562,11.1797727 35.5547337,11.1797727 C34.6082127,11.1914151 33.6746976,10.9582209 32.8444083,10.5027273 L33.1928107,9.35522727 Z" id="Path_348"></path>
                            <path d="M52.5869822,5.61 C52.5869822,9.26045455 50.3659172,11.1961364 47.6562722,11.1961364 C44.8520414,11.1961364 42.8827515,9.02454545 42.8827515,5.81454545 C42.8827515,2.44772727 44.977929,0.244772727 47.8134615,0.244772727 C50.7122781,0.244772727 52.5869822,2.46340909 52.5869822,5.61 M44.3478107,5.78318182 C44.3478107,8.04886364 45.5767456,10.0786364 47.7345266,10.0786364 C49.9120414,10.0786364 51.1368935,8.08090909 51.1368935,5.67340909 C51.1368935,3.56522727 50.0345266,1.36227273 47.7501775,1.36227273 C45.4814793,1.36227273 44.3478107,3.45477273 44.3478107,5.78318182" id="Path_349"></path>
                            <path d="M56.7331065,11.0236364 L56.7331065,0.418636364 L58.2301479,0.418636364 L61.6325148,5.78386364 C62.3427502,6.88915443 62.9792478,8.04030319 63.5378402,9.22977273 L63.5698225,9.21409091 C63.4439349,7.79795455 63.4126331,6.50795455 63.4126331,4.85590909 L63.4126331,0.418636364 L64.7055325,0.418636364 L64.7055325,11.0236364 L63.3180473,11.0236364 L59.9469822,5.64204545 C59.2146024,4.50328777 58.5517415,3.32112273 57.9620414,2.10204545 L57.9150888,2.11772727 C57.9933432,3.45545455 58.0253254,4.72977273 58.0253254,6.49227273 L58.0253254,11.0236364 L56.7331065,11.0236364 Z" id="Path_350"></path>
                            <polygon id="Path_351" points="0.0074852071 29.1593182 6.06369822 29.1593182 6.06369822 30.3797727 1.45961538 30.3797727 1.45961538 34.1236364 5.71597633 34.1236364 5.71597633 35.3277273 1.4616568 35.3277273 1.4616568 40.4256818 0.0102071006 40.4256818"></polygon>
                            <polygon id="Path_352" points="11.0522485 29.1593182 12.5036982 29.1593182 12.5036982 39.2045455 17.3085207 39.2045455 17.3085207 40.425 11.0522485 40.425"></polygon>
                            <polygon id="Path_353" points="27.6694083 35.1429545 23.2987278 35.1429545 23.2987278 39.2045455 28.1715976 39.2045455 28.1715976 40.4243182 21.8486391 40.4243182 21.8486391 29.1586364 27.920503 29.1586364 27.920503 30.3790909 23.3000888 30.3790909 23.3000888 33.9388636 27.6707692 33.9388636"></polygon>
                            <path d="M34.4265089,29.1593182 L34.4265089,35.8288636 C34.4265089,38.3515909 35.5445266,39.4227273 37.0456509,39.4227273 C38.7141716,39.4227273 39.7818343,38.3195455 39.7818343,35.8288636 L39.7818343,29.1593182 L41.2496154,29.1593182 L41.2496154,35.7272727 C41.2496154,39.1875 39.4313905,40.6084091 36.9959763,40.6084091 C34.6939349,40.6084091 32.9587278,39.2877273 32.9587278,35.7940909 L32.9587278,29.1579545 L34.4265089,29.1593182 Z" id="Path_354"></path>
                            <path d="M46.6893195,29.3093182 C47.6087696,29.1455686 48.5413519,29.0672814 49.4751775,29.0754545 C51.0273373,29.0754545 52.0276331,29.3597727 52.7285207,29.9952273 C53.3172484,30.5474107 53.6396602,31.3272011 53.6131361,32.1347727 C53.6298897,33.4606033 52.76379,34.6355207 51.494142,35.0093182 L51.494142,35.0597727 C52.3617456,35.3611364 52.8789053,36.1629545 53.1456509,37.3329545 C53.341791,38.3878268 53.6321603,39.4229001 54.0132544,40.4256818 L52.5121302,40.4256818 C52.1772203,39.5547136 51.9265628,38.6535315 51.7636095,37.7345455 C51.4301775,36.18 50.83,35.595 49.5119231,35.5445455 L48.1434911,35.5445455 L48.1434911,40.4256818 L46.6920414,40.4256818 L46.6893195,29.3093182 Z M48.1407692,34.4413636 L49.6255621,34.4413636 C51.1770414,34.4413636 52.1610059,33.5890909 52.1610059,32.3018182 C52.1610059,30.8475 51.110355,30.2120455 49.5752071,30.1956818 C49.0930957,30.182959 48.6112193,30.2287464 48.1400888,30.3320455 L48.1407692,34.4413636 Z" id="Path_355"></path>
                            <path d="M58.3846154,38.6536364 C59.1712632,39.1269409 60.0698863,39.3809358 60.987426,39.3893182 C62.4722189,39.3893182 63.3398225,38.6038636 63.3398225,37.4672727 C63.3398225,36.4138636 62.7389645,35.8125 61.2208284,35.2268182 C59.3835503,34.575 58.2512426,33.6225 58.2512426,32.0345455 C58.2512426,30.2788636 59.7026923,28.9752273 61.8883728,28.9752273 C62.7501389,28.9459939 63.6052736,29.1357479 64.374142,29.5268182 L63.9740237,30.7138636 C63.3176238,30.3599861 62.5833966,30.176008 61.8380178,30.1786364 C60.3035503,30.1786364 59.7197041,31.0984091 59.7197041,31.8675 C59.7197041,32.9202273 60.4035799,33.4356818 61.9550592,34.0404545 C63.8563018,34.7754545 64.8246154,35.6952273 64.8246154,37.35 C64.8246154,39.0886364 63.5398817,40.5927273 60.886716,40.5927273 C59.8845372,40.6054048 58.8961616,40.3578225 58.0178402,39.8740909 L58.3846154,38.6536364 Z" id="Path_356"></path>
                            <path d="M28.3036095,18.4895455 C28.6639914,18.4350907 29.0279104,18.4075149 29.3923669,18.4070455 C29.9713454,18.3603449 30.5462051,18.5374618 30.9989645,18.9020455 C31.3845209,19.2732951 31.5888575,19.7948601 31.5583136,20.3297727 C31.5855361,20.9010466 31.3791152,21.4587458 30.986716,21.8740909 C30.4992302,22.2870093 29.8698039,22.4923381 29.2331361,22.4461364 C28.9224336,22.44787 28.6118781,22.4321636 28.302929,22.3990909 L28.3036095,18.4895455 Z M28.8166864,22.0043182 C28.9880266,22.0277932 29.1609568,22.0375968 29.3338462,22.0336364 C29.7948332,22.0864544 30.2547431,21.9261043 30.5834298,21.5979623 C30.9121165,21.2698202 31.07382,20.8095869 31.0227811,20.3475 C31.0623896,19.9160439 30.9028851,19.490131 30.5897796,19.1912891 C30.2766742,18.8924471 29.844357,18.7534988 29.4161834,18.8140909 C29.2150529,18.8109878 29.0141441,18.8288105 28.8166864,18.8672727 L28.8166864,22.0043182 Z" id="Path_357"></path>
                            <polygon id="Path_358" points="34.8688166 20.5479545 33.3268639 20.5479545 33.3268639 21.9797727 35.0443787 21.9797727 35.0443787 22.41 32.813787 22.41 32.813787 18.4356818 34.9559172 18.4356818 34.9559172 18.8659091 33.3227811 18.8659091 33.3227811 20.1218182 34.8647337 20.1218182"></polygon>
                        </g>
                    </g>
                </g>
            </g>
            <g id="Group_174">
                <g id="Group_173-Clipped">
                    <mask id="mask-4" fill="white">
                        <use xlink:href="#path-3"></use>
                    </mask>
                    <g id="SVGID-2"></g>
                    <g id="Group_173" mask="url(#mask-4)" fill="#FFFFFF" fill-rule="nonzero">
                        <path d="M61.4079586,38.8315909 C61.6855001,38.9982234 62.0023787,39.0876614 62.3259172,39.0906818 C62.8498817,39.0906818 63.1560947,38.8138636 63.1560947,38.4129545 C63.1560947,38.0413636 62.943787,37.8293182 62.407574,37.6227273 C61.7604438,37.3929545 61.3603254,37.0568182 61.3603254,36.4963636 C61.375848,36.1782115 61.5230418,35.8809466 61.7664878,35.6760996 C62.0099338,35.4712526 62.3275895,35.377371 62.6430178,35.4170455 C62.9471287,35.4068837 63.2488638,35.4739642 63.5201479,35.6120455 L63.3786095,36.0306818 C63.1471659,35.9057611 62.8882111,35.8408358 62.6253254,35.8418182 C62.0809467,35.8418182 61.8768047,36.1663636 61.8768047,36.4370455 C61.8768047,36.8086364 62.1176923,36.9913636 62.6654734,37.2040909 C63.3364201,37.4631818 63.6773373,37.7877273 63.6773373,38.3713636 C63.6773373,38.985 63.2248225,39.5154545 62.2884911,39.5154545 C61.9349919,39.5199737 61.5863619,39.4325852 61.2766272,39.2618182 L61.4079586,38.8315909 Z" id="Path_359"></path>
                        <path d="M0.487218935,74.4497727 L114.699231,74.4497727 L114.699231,0.494318182 L0.487218935,0.494318182 L0.487218935,74.4497727 Z M109.303077,2.38159091 C110.573909,2.37219873 111.741786,3.08043054 112.322897,4.21289022 C112.904008,5.3453499 112.799372,6.70914372 112.052335,7.73929872 C111.305298,8.76945372 110.043105,9.29050191 108.788639,9.08659091 C108.885266,9.09477273 108.981893,9.10090909 109.080562,9.10090909 C110.284984,9.11813638 111.405346,8.48418261 112.012575,7.44183823 C112.619803,6.39949385 112.619803,5.11027888 112.012575,4.0679345 C111.405346,3.02559012 110.284984,2.39163635 109.080562,2.40886364 C108.986657,2.40886364 108.894112,2.415 108.802249,2.4225 C108.967945,2.39641104 109.135351,2.38273678 109.303077,2.38159091 M109.303077,72.5829545 C109.130996,72.581462 108.959267,72.5671039 108.78932,72.54 C108.885266,72.5481818 108.981893,72.5543182 109.080562,72.5543182 C110.284984,72.5715455 111.405346,71.9375917 112.012575,70.8952473 C112.619803,69.8529029 112.619803,68.563688 112.012575,67.5213436 C111.405346,66.4789992 110.284984,65.8450454 109.080562,65.8622727 C108.986657,65.8622727 108.894793,65.8684091 108.802929,65.8759091 C110.051387,65.6877842 111.299921,66.2155575 112.036632,67.2428424 C112.773343,68.2701274 112.874312,69.6241264 112.29814,70.7497011 C111.721969,71.8752758 110.565574,72.5830954 109.303077,72.5829545 M110.732071,69.2079545 C110.732071,70.0683891 110.035927,70.7659091 109.177189,70.7659091 C108.318452,70.7659091 107.622308,70.0683891 107.622308,69.2079545 C107.622308,68.34752 108.318452,67.6499999 109.177189,67.6499999 C109.589625,67.649819 109.98522,67.8139021 110.276856,68.1061145 C110.568492,68.3983269 110.732252,68.7947039 110.732071,69.2079545 M106.904408,69.1077273 C106.904589,69.7710096 107.16773,70.4070538 107.635944,70.8759374 C108.104158,71.344821 108.739091,71.6081354 109.401065,71.6079545 C109.835055,71.6049483 110.260586,71.487361 110.634763,71.2670455 C109.796651,71.8619882 108.682211,71.8883405 107.817021,71.3336743 C106.951832,70.7790081 106.508689,69.7541021 106.696583,68.742309 C106.884477,67.7305159 107.66588,66.9339123 108.672278,66.7281818 C107.624498,67.0444505 106.906249,68.0099139 106.903047,69.1063636 M110.73071,5.75318182 C110.73071,6.61361635 110.034566,7.31113636 109.175828,7.31113636 C108.317091,7.31113636 107.620947,6.61361635 107.620947,5.75318182 C107.620947,4.89274728 108.317091,4.19522712 109.175828,4.19522712 C109.588264,4.1950463 109.983859,4.35912935 110.275495,4.65134175 C110.567131,4.94355414 110.730891,5.33993113 110.73071,5.75318182 M108.671598,3.27272727 C107.75185,3.54705291 107.071752,4.32721309 106.924131,5.27729701 C106.776511,6.22738093 107.187721,7.1777755 107.98071,7.7192727 C108.773698,8.26076989 109.806896,8.2966993 110.635444,7.81159091 C109.797432,8.40612349 108.683387,8.43236086 107.818422,7.87793579 C106.953458,7.32351072 106.510215,6.29908154 106.697619,5.28752283 C106.885024,4.27596412 107.665672,3.47917403 108.671598,3.27272727 M4.34142012,69.2045455 C4.34142012,68.5744117 4.72025487,68.0063249 5.30127433,67.7651831 C5.88229378,67.5240414 6.5510761,67.6573334 6.99576914,68.1029052 C7.44046218,68.5484771 7.57349125,69.2185811 7.33282511,69.8007488 C7.09215898,70.3829166 6.5251927,70.7625 5.89630178,70.7625 C5.03756435,70.7625 4.34142012,70.06498 4.34142012,69.2045455 M8.16908284,69.3047727 C8.16908284,67.9235588 7.05159617,66.8038636 5.67310651,66.8038636 C5.23885835,66.8065568 4.81302891,66.9241618 4.43872781,67.1447727 C5.27673913,66.5502401 6.39078508,66.5240028 7.25574936,67.0784278 C8.12071363,67.6328529 8.56395702,68.6572821 8.37655248,69.6688408 C8.18914793,70.6803995 7.40849974,71.4771896 6.40257396,71.6836364 C7.45035389,71.3673677 8.16860326,70.4019043 8.17180473,69.3054545 M5.99428994,65.8588636 C4.7898684,65.8416364 3.66950613,66.4755901 3.06227739,67.5179345 C2.45504865,68.5602789 2.45504865,69.8494938 3.06227739,70.8918382 C3.66950613,71.9341826 4.7898684,72.5681364 5.99428994,72.5509091 C6.08887574,72.5509091 6.18073964,72.5447727 6.27260355,72.5365909 C4.95831765,72.7433972 3.6457343,72.15539 2.92316036,71.0361172 C2.20058643,69.9168443 2.20352881,68.4762072 2.93066872,67.359907 C3.65780863,66.2436068 4.97278289,65.6609874 6.28621302,65.8731818 C6.1895858,65.865 6.09295858,65.8588636 5.99428994,65.8588636 M2.4047929,5.75113636 C2.398909,4.76510466 2.8263784,3.82643781 3.5735477,3.18470379 C4.32071699,2.54296976 5.31187261,2.26319797 6.28349112,2.41977273 C6.18686391,2.41159091 6.09023669,2.40545455 5.99156805,2.40545455 C4.78714651,2.38822726 3.66678423,3.02218103 3.0595555,4.06452541 C2.45232676,5.10686979 2.45232676,6.39608476 3.0595555,7.43842914 C3.66678423,8.48077352 4.78714651,9.11472729 5.99156805,9.0975 C6.08547337,9.0975 6.17801775,9.09136364 6.26988166,9.08386364 C5.29967872,9.23716513 4.31124394,8.95567616 3.56654445,8.31400041 C2.82184496,7.67232465 2.39607267,6.73525178 2.40207101,5.75113636 M4.34005917,5.75113636 C4.34005917,4.89070183 5.0362034,4.19318182 5.89494083,4.19318182 C6.75367826,4.19318182 7.44982249,4.89070183 7.44982249,5.75113636 C7.44982249,6.6115709 6.75367826,7.30909091 5.89494083,7.30909091 C5.0362034,7.30909091 4.34005917,6.6115709 4.34005917,5.75113636 M8.16772189,5.85136364 C8.17366207,4.95854784 7.70091047,4.13122752 6.92945899,3.68439038 C6.15800751,3.23755324 5.20656132,3.23995522 4.43736686,3.69068182 C5.27537818,3.09614924 6.38942414,3.06991187 7.25438841,3.62433693 C8.11935268,4.178762 8.56259607,5.20319119 8.37519153,6.2147499 C8.18778699,7.22630861 7.4071388,8.02309869 6.40121302,8.22954545 C7.44899295,7.91327676 8.16724232,6.94781334 8.17044379,5.85136364 M9.45517751,70.4556818 C9.93129467,69.05639 9.57579141,67.5076373 8.53739711,66.4573644 C7.49900282,65.4070915 5.95671482,65.0363434 4.55576923,65.5002273 L4.55576923,9.45477273 C5.96623687,9.92228327 7.51929956,9.54285128 8.55669714,8.47729767 C9.59409471,7.41174405 9.93414617,5.84668083 9.43272189,4.44545455 L105.638047,4.44545455 C105.109818,5.92070744 105.515996,7.56949187 106.668669,8.62901554 C107.821342,9.6885392 109.495716,9.95217494 110.91716,9.29795455 L110.91716,65.6590909 C109.505587,65.0114312 107.844742,65.2677201 106.693062,66.3109214 C105.541382,67.3541227 105.119879,68.9840416 105.621036,70.4563636 L9.45517751,70.4556818 Z" id="Path_360"></path>
                    </g>
                </g>
            </g>
        </g>
    </g>
</svg>