<?xml version="1.0" encoding="utf-8"?>
<svg width="60px" height="60px" viewBox="0 0 60 60" version="1.1" xmlns:xlink="http://www.w3.org/1999/xlink" xmlns="http://www.w3.org/2000/svg">
  <desc>Created with Lunacy</desc>
  <g id="24-hours-support" transform="translate(0.4100037 0.4099121)">
    <path d="M52.4672 32.4993C51.5119 32.4993 50.7375 31.7249 50.7375 30.7696L50.7375 27.0984C50.7375 14.0639 40.133 3.45938 27.0984 3.45938C14.0639 3.45938 3.45938 14.0637 3.45938 27.0984L3.45938 30.7696C3.45938 31.7249 2.68494 32.4993 1.72969 32.4993C0.774439 32.4993 0 31.7249 0 30.7696L0 27.0984C0 19.8602 2.8187 13.0552 7.93696 7.93707C13.0552 2.8187 19.8602 0 27.0984 0C34.3367 0 41.1417 2.8187 46.2599 7.93696C51.3782 13.0551 54.1969 19.8602 54.1969 27.0984L54.1969 30.7696C54.1969 31.7249 53.4224 32.4993 52.4672 32.4993Z" transform="translate(2.306244 0)" id="Path" fill="#FDBB1C" stroke="none" />
    <path d="M23.6391 27.0984L23.6391 30.7696C23.6391 31.7249 24.4135 32.4993 25.3688 32.4993C26.324 32.4993 27.0984 31.7249 27.0984 30.7696L27.0984 27.0984C27.0984 19.8602 24.2797 13.0552 19.1615 7.93707C14.0432 2.8187 7.23828 0 0 0L0 3.45938C13.0346 3.45938 23.6391 14.0637 23.6391 27.0984Z" transform="translate(29.40469 0)" id="Path" fill="#FE4400" stroke="none" />
    <path d="M5.18906 17.2969L1.72969 17.2969C0.774439 17.2969 0 16.5224 0 15.5672L0 1.72969C0 0.774439 0.774439 0 1.72969 0L5.18906 0C8.05031 0 10.3781 2.32781 10.3781 5.18906L10.3781 12.1078C10.3781 14.9691 8.05031 17.2969 5.18906 17.2969Z" transform="translate(48.43126 28.82813)" id="Path" fill="#FE4400" stroke="none" />
    <path d="M8.64844 17.2969L5.18906 17.2969C2.32781 17.2969 0 14.9691 0 12.1078L0 5.18906C0 2.32781 2.32781 0 5.18906 0L8.64844 0C9.60369 0 10.3781 0.774439 10.3781 1.72969L10.3781 15.5672C10.3781 16.5224 9.60369 17.2969 8.64844 17.2969Z" transform="translate(0 28.82813)" id="Path" fill="#FE4400" stroke="none" />
    <path d="M12.1078 9.45562L7.72594 9.45562C3.46583 9.45562 0 5.98979 0 1.72969C0 0.774439 0.774439 0 1.72969 0C2.68494 0 3.45938 0.774439 3.45938 1.72969C3.45938 4.08229 5.37345 5.99625 7.72594 5.99625L12.1078 5.99625C13.0631 5.99625 13.8375 6.77069 13.8375 7.72594C13.8375 8.68118 13.0631 9.45562 12.1078 9.45562Z" transform="translate(10.37813 46.125)" id="Path" fill="#FE4400" stroke="none" />
    <path d="M8.60404 17.298L8.61926 17.298C9.56747 17.298 10.3404 16.5334 10.3485 15.5832C10.3534 15.0139 10.3604 14.184 10.3677 13.214L10.4191 13.214C11.3743 13.214 12.1487 12.4396 12.1487 11.4843C12.1487 10.5291 11.3743 9.75462 10.4191 9.75462L10.3909 9.75462C10.4099 6.44469 10.4184 3.0402 10.3772 2.5462C10.2794 1.37336 9.56943 0.414994 8.56841 0.105034C7.57222 -0.203196 6.51838 0.176298 5.74867 1.12071C4.9529 2.09717 1.31214 8.66042 0.215169 10.6487C-0.0803765 11.1846 -0.0709209 11.8367 0.240192 12.3637C0.551305 12.8907 1.11772 13.214 1.72968 13.214L6.90802 13.214C6.9018 14.0414 6.89557 14.8339 6.88934 15.5535C6.88104 16.5087 7.64879 17.2898 8.60404 17.298ZM6.93074 9.75461L4.67004 9.75461C5.49325 8.2845 6.29318 6.87492 6.94711 5.74589C6.94492 6.90617 6.93893 8.3056 6.93074 9.75461Z" transform="translate(29.09589 9.223877)" id="Shape" fill="#FE4400" fill-rule="evenodd" stroke="none" />
    <path d="M4.82988 17.3C2.15613 17.3 1.95064 17.2315 1.72279 17.1555C1.15603 16.9665 0.732022 16.5366 0.55963 15.9759C0.26835 15.0289 0.702041 14.4608 1.56642 13.3291C2.25472 12.4278 3.53608 10.7501 5.68343 7.68189C6.27728 6.8333 6.6758 6.05068 6.83989 5.41242L6.87841 5.11077C6.83067 4.19196 6.06811 3.45926 5.13754 3.45926C4.30625 3.45926 3.58693 4.04943 3.42722 4.8625C3.24307 5.79987 2.33406 6.41057 1.39668 6.22641C0.459308 6.04237 -0.151387 5.13325 0.032767 4.19588C0.510276 1.76463 2.65716 0 5.13765 0C8.0064 0 10.3402 2.33381 10.3402 5.20244C10.332 5.37794 10.2872 5.81994 10.2284 6.11813C9.97466 7.21245 9.39914 8.40594 8.51769 9.66561C7.23357 11.5002 6.25215 12.8488 5.51795 13.8361C6.64006 13.8324 7.93686 13.8217 9.1639 13.8062C9.17117 13.8062 9.17878 13.8061 9.18604 13.8061C10.1313 13.8061 10.9033 14.5663 10.9152 15.5141C10.9271 16.4694 10.1625 17.2534 9.20726 17.2655C7.27877 17.2897 5.86816 17.3 4.82988 17.3L4.82988 17.3Z" transform="translate(18.52713 9.225098)" id="Path" fill="#FE4400" stroke="none" />
    <path d="M5.18906 10.3781C2.32781 10.3781 0 8.05031 0 5.18906C0 2.32781 2.32781 0 5.18906 0C8.05031 0 10.3781 2.32781 10.3781 5.18906C10.3781 8.05031 8.05031 10.3781 5.18906 10.3781Z" transform="translate(19.02657 48.66187)" id="Path" fill="#FDBB1C" stroke="none" />
    <path d="M5.18906 24.2156C2.32781 24.2156 0 21.8878 0 19.0266L0 5.18906C0 2.32781 2.32781 0 5.18906 0C8.05031 0 10.3781 2.32781 10.3781 5.18906L10.3781 19.0266C10.3781 21.8878 8.05031 24.2156 5.18906 24.2156Z" transform="translate(6.918747 25.36865)" id="Path" fill="#FDBB1C" stroke="none" />
    <path d="M5.18906 24.2156C2.32781 24.2156 0 21.8878 0 19.0266L0 5.18906C0 2.32781 2.32781 0 5.18906 0C8.05031 0 10.3781 2.32781 10.3781 5.18906L10.3781 19.0266C10.3781 21.8878 8.05031 24.2156 5.18906 24.2156Z" transform="translate(41.5125 25.36865)" id="Path" fill="#FDBB1C" stroke="none" />
  </g>
</svg>