<?xml version="1.0" encoding="utf-8"?>
<svg width="32px" height="32px" viewBox="0 0 32 32" version="1.1" xmlns:xlink="http://www.w3.org/1999/xlink" xmlns="http://www.w3.org/2000/svg">
  <desc>Created with Lunacy</desc>
  <g id="android-(1)">
    <path d="M2.84375 0C1.28744 0 0 1.25619 0 2.8125L0 10.3125C0 11.8688 1.28744 13.125 2.84375 13.125C4.40006 13.125 5.6875 11.8688 5.6875 10.3125L5.6875 2.8125C5.6875 1.25619 4.40006 0 2.84375 0Z" transform="translate(26.3125 13.12433)" id="Path" fill="#FFFFFF" stroke="none" />
    <path d="M2.84375 0C1.28744 0 0 1.25619 0 2.8125L0 10.3125C0 11.8688 1.28744 13.125 2.84375 13.125C4.40006 13.125 5.6875 11.8688 5.6875 10.3125L5.6875 2.8125C5.6875 1.25619 4.40006 0 2.84375 0Z" transform="translate(0 13.12433)" id="Path" fill="#FFFFFF" stroke="none" />
    <path d="M12.2984 2.81113L12.3 2.81181C15.0188 4.21806 16.875 7.04931 16.875 10.3118C16.875 10.8369 16.4626 11.2493 15.9375 11.2493L0.9375 11.2493C0.412437 11.2493 0 10.8369 0 10.3118C0 7.04931 1.85625 4.21806 4.575 2.81181L4.57663 2.81113L3.84888 1.35613C3.61725 0.892877 3.80494 0.329815 4.26819 0.0981896C4.73056 -0.130685 5.29356 0.0533146 5.52613 0.517502L6.34475 2.15413C7.01731 1.96794 7.70875 1.87431 8.4375 1.87431C9.16613 1.87431 9.85769 1.96794 10.5302 2.15413L11.3489 0.517502C11.5805 0.0533146 12.1445 -0.130685 12.6068 0.0981896C13.0701 0.329815 13.2578 0.892877 13.0261 1.35613L12.2984 2.81113ZM5.9375 7.49931C5.41244 7.49931 5 7.08688 5 6.56181C5 6.03675 5.41244 5.62431 5.9375 5.62431C6.46256 5.62431 6.875 6.03675 6.875 6.56181C6.875 7.08688 6.46256 7.49931 5.9375 7.49931ZM10 6.56181C10 7.08688 10.4124 7.49931 10.9375 7.49931C11.4626 7.49931 11.875 7.08688 11.875 6.56181C11.875 6.03675 11.4626 5.62431 10.9375 5.62431C10.4124 5.62431 10 6.03675 10 6.56181Z" transform="translate(7.5625 0)" id="Shape" fill="#FFFFFF" fill-rule="evenodd" stroke="none" />
    <path d="M15.9375 0L0.9375 0C0.412437 0 0 0.412437 0 0.9375L0 12.1875C0 12.7126 0.412437 13.125 0.9375 13.125L1.875 13.125L1.875 16.0625C1.875 17.6188 3.13119 18.875 4.6875 18.875C6.24381 18.875 7.5 17.6188 7.5 16.0625L7.5 13.125L9.375 13.125L9.375 16.0625C9.375 17.6188 10.6312 18.875 12.1875 18.875C13.7438 18.875 15 17.6188 15 16.0625L15 13.125L15.9375 13.125C16.4626 13.125 16.875 12.7126 16.875 12.1875L16.875 0.9375C16.875 0.412437 16.4626 0 15.9375 0Z" transform="translate(7.5625 13.12433)" id="Path" fill="#FFFFFF" stroke="none" />
  </g>
</svg>