<?xml version="1.0" encoding="utf-8"?>
<svg width="12px" height="10px" viewBox="0 0 12 10" version="1.1" xmlns:xlink="http://www.w3.org/1999/xlink" xmlns="http://www.w3.org/2000/svg">
  <desc>Created with Lunacy</desc>
  <g id="email-(2)">
    <path d="M10.2241 0L0.446682 0C0.286188 0 0.135934 0.0394574 0 0.104494L5.31224 5.41674L6.50289 4.27247C6.50289 4.27247 6.50298 4.27236 6.50301 4.27231C6.50303 4.27226 6.50312 4.27222 6.50312 4.27222L10.671 0.104586C10.535 0.0395037 10.3847 0 10.2241 0Z" transform="translate(0.5959473 0)" id="Path" fill="#9B0000" stroke="none" />
    <path d="M3.92217 0L0 3.92197L3.92203 7.844C3.98707 7.70807 4.02653 7.55781 4.02653 7.39732L4.02653 0.446519C4.02653 0.286118 3.98716 0.135888 3.92217 0Z" transform="translate(7.836182 0.5961914)" id="Path" fill="#9B0000" stroke="none" />
    <path d="M0.104494 0C0.0394574 0.135935 0 0.286188 0 0.446682L0 7.39748C0 7.55788 0.039411 7.70816 0.104401 7.84405L4.02658 3.92208L0.104494 0Z" transform="translate(0 0.5959473)" id="Path" fill="#9B0000" stroke="none" />
    <path d="M6.74895 4.63387e-05L5.55814 1.14445C5.49025 1.21234 5.40133 1.24628 5.31243 1.24628C5.22353 1.24628 5.13458 1.21234 5.06672 1.14445L3.92224 0L0 3.92199C0.135958 3.98707 0.286303 4.02658 0.446844 4.02658L10.2243 4.02658C10.3848 4.02658 10.5351 3.98712 10.671 3.92208L6.74895 4.63387e-05Z" transform="translate(0.5957642 5.009521)" id="Path" fill="#9B0000" stroke="none" />
  </g>
</svg>