<?xml version="1.0" encoding="utf-8"?>
<svg width="73px" height="73px" viewBox="0 0 73 73" version="1.1" xmlns:xlink="http://www.w3.org/1999/xlink" xmlns="http://www.w3.org/2000/svg">
  <desc>Created with Lunacy</desc>
  <g id="jackpot" transform="translate(0.4100037 0.4100342)">
    <path d="M0 29.5313L0 0L21.0938 0L21.0938 29.5313L0 29.5313ZM10.5469 24.2578C13.6485 24.2578 16.1719 21.7344 16.1719 18.6328C16.1719 17.1357 15.5829 15.7745 14.6258 14.7656C15.5829 13.7568 16.1719 12.3955 16.1719 10.8984C16.1719 7.79681 13.6485 5.27344 10.5469 5.27344C7.86487 5.27344 5.54372 7.18144 5.02748 9.81028C4.84031 10.7629 5.46103 11.6868 6.41362 11.8738C7.36538 12.0608 8.29012 11.4403 8.47716 10.4877C8.67037 9.50344 9.54098 8.78906 10.5469 8.78906C11.71 8.78906 12.6563 9.73533 12.6563 10.8984C12.6563 12.0615 11.71 13.0078 10.5469 13.0078C9.57614 13.0078 8.78906 13.7947 8.78906 14.7656C8.78906 15.7365 9.57614 16.5234 10.5469 16.5234C11.71 16.5234 12.6563 17.4697 12.6563 18.6328C12.6563 19.7959 11.71 20.7422 10.5469 20.7422C9.50034 20.7422 8.60217 19.9628 8.45803 18.9294C8.44439 18.8318 8.4375 18.7321 8.4375 18.6328C8.4375 17.6619 7.65042 16.875 6.67969 16.875C5.70895 16.875 4.92188 17.6619 4.92188 18.6328C4.92188 18.894 4.94016 19.1571 4.97616 19.4151C5.36133 22.1759 7.75631 24.2578 10.5469 24.2578Z" transform="translate(25.3125 31.64063)" id="Shape" fill="#FDBB1C" fill-rule="evenodd" stroke="none" />
    <path d="M0 29.5313L0 0L21.0938 0L21.0938 29.5313L0 29.5313ZM10.5469 24.2578C13.6485 24.2578 16.1719 21.7344 16.1719 18.6328C16.1719 17.1357 15.5829 15.7745 14.6258 14.7656C15.5829 13.7568 16.1719 12.3955 16.1719 10.8984C16.1719 7.79681 13.6485 5.27344 10.5469 5.27344C7.86487 5.27344 5.54372 7.18144 5.02748 9.81028C4.84031 10.7629 5.46103 11.6868 6.41362 11.8738C7.36509 12.0608 8.29012 11.4403 8.47716 10.4877C8.67037 9.50344 9.54098 8.78906 10.5469 8.78906C11.71 8.78906 12.6563 9.73533 12.6563 10.8984C12.6563 12.0615 11.71 13.0078 10.5469 13.0078C9.57614 13.0078 8.78906 13.7947 8.78906 14.7656C8.78906 15.7365 9.57614 16.5234 10.5469 16.5234C11.71 16.5234 12.6563 17.4697 12.6563 18.6328C12.6563 19.7959 11.71 20.7422 10.5469 20.7422C9.50034 20.7422 8.60217 19.9628 8.45803 18.9294C8.44439 18.8318 8.4375 18.7321 8.4375 18.6328C8.4375 17.6619 7.65042 16.875 6.67969 16.875C5.70895 16.875 4.92188 17.6619 4.92188 18.6328C4.92188 18.894 4.94016 19.1571 4.97616 19.4151C5.36133 22.1759 7.75631 24.2578 10.5469 24.2578Z" transform="translate(50.625 31.64063)" id="Shape" fill="#FDBB1C" fill-rule="evenodd" stroke="none" />
    <path d="M0 29.5313L0 0L21.0938 0L21.0938 29.5313L0 29.5313ZM10.5469 24.2578C13.6485 24.2578 16.1719 21.7344 16.1719 18.6328C16.1719 17.1357 15.5829 15.7745 14.6258 14.7656C15.5829 13.7568 16.1719 12.3955 16.1719 10.8984C16.1719 7.79681 13.6485 5.27344 10.5469 5.27344C7.86487 5.27344 5.54372 7.18144 5.02748 9.81028C4.84031 10.7629 5.46103 11.6868 6.41362 11.8738C7.36509 12.0608 8.29012 11.4403 8.47716 10.4877C8.67037 9.50344 9.54098 8.78906 10.5469 8.78906C11.71 8.78906 12.6563 9.73533 12.6563 10.8984C12.6563 12.0615 11.71 13.0078 10.5469 13.0078C9.57614 13.0078 8.78906 13.7947 8.78906 14.7656C8.78906 15.7365 9.57614 16.5234 10.5469 16.5234C11.71 16.5234 12.6563 17.4697 12.6563 18.6328C12.6563 19.7959 11.71 20.7422 10.5469 20.7422C9.50034 20.7422 8.60217 19.9628 8.45803 18.9294C8.44439 18.8318 8.4375 18.7321 8.4375 18.6328C8.4375 17.6619 7.65042 16.875 6.67969 16.875C5.70895 16.875 4.92188 17.6619 4.92188 18.6328C4.92188 18.894 4.94016 19.1571 4.97616 19.4151C5.36133 22.1759 7.75631 24.2578 10.5469 24.2578Z" transform="translate(0 31.64063)" id="Shape" fill="#FDBB1C" fill-rule="evenodd" stroke="none" />
    <g id="Group">
      <path d="M0 0L0 4.5C0 5.66494 0.944438 6.60938 2.10938 6.60938L69.6094 6.60938C70.7743 6.60938 71.7188 5.66494 71.7188 4.5L71.7188 0L0 0Z" transform="translate(0 65.39063)" id="Path" fill="#FDBB1C" stroke="none" />
      <path d="M44.6148 7.03125L47.1094 7.03125C51.3741 7.03125 54.8438 10.5009 54.8438 14.7656L0 14.7656C0 10.5009 3.46964 7.03125 7.73438 7.03125L10.2289 7.03125C10.99 7.03125 11.7001 6.60052 12.0822 5.90709C14.1203 2.20838 19.8547 0 27.4219 0C34.989 0 40.7235 2.20838 42.7615 5.90723C43.1436 6.60052 43.8538 7.03125 44.6148 7.03125ZM19.6875 8.4375C19.6875 9.60244 20.6319 10.5469 21.7969 10.5469L33.0469 10.5469C34.2118 10.5469 35.1563 9.60244 35.1563 8.4375C35.1563 7.27256 34.2118 6.32813 33.0469 6.32813L21.7969 6.32813C20.6319 6.32813 19.6875 7.27256 19.6875 8.4375Z" transform="translate(8.4375 0)" id="Shape" fill="#FDBB1C" fill-rule="evenodd" stroke="none" />
      <path d="M71.7188 8.4375L71.7188 7.73438C71.7188 3.46964 68.2491 0 63.9844 0L7.73438 0C3.46964 0 0 3.46964 0 7.73438L0 8.4375L71.7188 8.4375Z" transform="translate(0 18.98438)" id="Path" fill="#FDBB1C" stroke="none" />
    </g>
  </g>
</svg>