<?xml version="1.0" encoding="utf-8"?>
<svg width="9px" height="12px" viewBox="0 0 9 12" version="1.1" xmlns:xlink="http://www.w3.org/1999/xlink" xmlns="http://www.w3.org/2000/svg">
  <desc>Created with Lunacy</desc>
  <g id="padlock">
    <path d="M7.5 4.5L7.875 4.5C8.495 4.5 9 5.0045 9 5.625L9 10.875C9 11.4955 8.495 12 7.875 12L1.125 12C0.505 12 0 11.4955 0 10.875L0 5.625C0 5.0045 0.505 4.5 1.125 4.5L1.5 4.5L1.5 3C1.5 1.3455 2.8455 0 4.5 0C6.1545 0 7.5 1.3455 7.5 3L7.5 4.5ZM2.5 3C2.5 1.897 3.397 1 4.5 1C5.603 1 6.5 1.897 6.5 3L6.5 4.5L2.5 4.5L2.5 3ZM5 9.5L5 8.361C5.2975 8.1875 5.5 7.8685 5.5 7.5C5.5 6.9485 5.0515 6.5 4.5 6.5C3.9485 6.5 3.5 6.9485 3.5 7.5C3.5 7.8685 3.7025 8.1875 4 8.361L4 9.5C4 9.776 4.2235 10 4.5 10C4.7765 10 5 9.776 5 9.5Z" id="Shape" fill="#9B0000" fill-rule="evenodd" stroke="none" />
  </g>
</svg>