<?xml version="1.0" encoding="utf-8"?>
<svg width="55px" height="72px" viewBox="0 0 55 72" version="1.1" xmlns:xlink="http://www.w3.org/1999/xlink" xmlns="http://www.w3.org/2000/svg">
  <desc>Created with Lunacy</desc>
  <g id="medal">
    <g id="Group">
      <g id="Group" transform="translate(6.796233 45.90925)">
        <path d="M6.8998 25.0934C6.80965 25.0935 6.7188 25.0876 6.62768 25.0756C5.7934 24.9658 5.10754 24.3641 4.88964 23.5513L0.0713917 5.56932C-0.224453 4.46528 0.425905 3.32934 1.52773 3.02531L12.2244 0.074917C12.7589 -0.0725196 13.33 -0.00053503 13.8112 0.27492C14.2923 0.550237 14.6436 1.00642 14.7872 1.54207L19.6265 19.6026C19.8443 20.4153 19.5511 21.2794 18.8835 21.7917C18.2158 22.3037 17.3054 22.3635 16.5768 21.9428L11.5837 19.06L8.70094 24.0531C8.32618 24.7024 7.63588 25.0934 6.8998 25.0934Z" transform="translate(20.73118 0.01107613)" id="Path" fill="#FDBB1C" stroke="none" />
        <path d="M12.7976 25.0932C12.0615 25.0933 11.3712 24.7022 10.9965 24.0529L8.11376 19.0598L3.12074 21.9426C2.39202 22.3634 1.48146 22.3037 0.814047 21.7914C0.14649 21.2792 -0.146858 20.4151 0.071038 19.6025L4.91023 1.54213C5.05379 1.00662 5.40497 0.550576 5.88612 0.274982C6.36712 -0.000473406 6.93842 -0.0725967 7.47283 0.0749786L18.1697 3.0251C19.2716 3.32885 19.922 4.46507 19.6262 5.56911L14.8079 23.5511C14.5901 24.3639 13.9041 24.9656 13.0699 25.0754C12.9786 25.0873 12.8878 25.0932 12.7976 25.0932L12.7976 25.0932Z" transform="translate(0.07140552 0.0112919)" id="Path" fill="#FDBB1C" stroke="none" />
      </g>
      <path d="M27.0462 54.0925C25.1404 54.0925 23.639 52.9392 22.4324 52.0127C21.7854 51.5159 21.1164 51.002 20.6599 50.8799C20.1535 50.7444 19.2852 50.8566 18.4457 50.9652C16.885 51.1668 15.1162 51.3955 13.5183 50.4708C11.9005 49.5347 11.1829 47.8028 10.6061 46.4111C10.2867 45.6402 9.95648 44.8431 9.60252 44.4893C9.24856 44.1352 8.45146 43.8049 7.68071 43.4856C6.28915 42.9091 4.55722 42.1913 3.62128 40.5738C2.69686 38.9758 2.92529 37.207 3.1271 35.6464C3.23556 34.8067 3.34777 33.9384 3.21254 33.4325C3.09048 32.9759 2.57674 32.3069 2.07992 31.66C1.15328 30.4534 0 28.9521 0 27.0462C0 25.1404 1.15314 23.639 2.07979 22.4324C2.57674 21.7855 3.09048 21.1164 3.21254 20.6599C3.34791 20.1537 3.2357 19.2855 3.12724 18.4459C2.92557 16.8852 2.69699 15.1163 3.6217 13.5183C4.55764 11.9006 6.28971 11.1829 7.68141 10.6063C8.45216 10.2869 9.24926 9.95648 9.60322 9.60266C9.95717 9.2487 10.2874 8.4516 10.6068 7.68099C11.1835 6.28943 11.9012 4.55736 13.519 3.62156C15.117 2.69686 16.8859 2.92543 18.4464 3.12738C19.286 3.2357 20.1542 3.34791 20.6603 3.21281C21.1167 3.09076 21.7857 2.57702 22.4326 2.08006C23.639 1.15314 25.1404 0 27.0462 0C28.9521 0 30.4535 1.15314 31.66 2.07979C32.3071 2.5766 32.976 3.09048 33.4326 3.21254C33.9386 3.34805 34.8068 3.23556 35.6467 3.12724C37.2073 2.92585 38.9763 2.69713 40.5742 3.6217C42.192 4.55778 42.9096 6.28971 43.4863 7.68141C43.8057 8.45229 44.136 9.2494 44.4899 9.60322C44.8439 9.95731 45.641 10.2876 46.4118 10.6068C47.8033 11.1834 49.5352 11.9012 50.4712 13.5187C51.3957 15.1166 51.1672 16.8854 50.9655 18.4461C50.857 19.2858 50.7448 20.1539 50.8801 20.66C51.0021 21.1166 51.5159 21.7855 52.0128 22.4324C52.9393 23.6391 54.0925 25.1404 54.0925 27.0462C54.0925 28.9521 52.9393 30.4535 52.0127 31.66C51.5157 32.3069 51.002 32.976 50.8798 33.4326C50.7444 33.9387 50.8566 34.807 50.9651 35.6465C51.1668 37.2073 51.3953 38.9761 50.4706 40.5742C49.5347 42.1918 47.8026 42.9096 46.4109 43.4862C45.6402 43.8056 44.8431 44.136 44.489 44.4898C44.135 44.8438 43.8048 45.6409 43.4853 46.4115C42.9086 47.803 42.191 49.5351 40.5732 50.4709C38.9753 51.3955 37.2063 51.167 35.6458 50.9652C34.8061 50.8569 33.938 50.7447 33.4319 50.8798C32.9755 51.0018 32.3065 51.5156 31.6596 52.0125C30.4535 52.9392 28.9521 54.0925 27.0462 54.0925L27.0462 54.0925Z" id="Path" fill="#FE4400" stroke="none" />
      <path d="M16.6438 33.2877C25.836 33.2877 33.2877 25.836 33.2877 16.6438C33.2877 7.4517 25.836 0 16.6438 0C7.4517 0 0 7.4517 0 16.6438C0 25.836 7.4517 33.2877 16.6438 33.2877Z" transform="translate(10.4024 10.4024)" id="Oval" fill="#FFFFFF" stroke="none" />
      <path d="M0 18.7243C0 29.0489 8.39973 37.4486 18.7243 37.4486C29.0489 37.4486 37.4486 29.0489 37.4486 18.7243C37.4486 8.39973 29.0489 0 18.7243 0C8.39973 0 0 8.39973 0 18.7243ZM4.16096 18.7243C4.16096 10.6939 10.6941 4.16096 18.7243 4.16096C26.7545 4.16096 33.2877 10.6939 33.2877 18.7243C33.2877 26.7547 26.7545 33.2877 18.7243 33.2877C10.6941 33.2877 4.16096 26.7547 4.16096 18.7243Z" transform="translate(8.321918 8.321918)" id="Shape" fill="#FDBB1C" fill-rule="evenodd" stroke="none" />
      <path d="M16.2384 20.8049C15.9072 20.8049 15.5749 20.726 15.2706 20.566L10.8307 18.2318L6.39094 20.566C5.68996 20.9342 4.84071 20.873 4.19992 20.4076C3.55927 19.9421 3.23832 19.1532 3.3723 18.3727L4.22017 13.4288L0.628289 9.92763C0.0612895 9.37492 -0.142875 8.54814 0.101928 7.79486C0.346593 7.04173 0.997783 6.49276 1.78143 6.37903L6.74518 5.65779L8.96505 1.15966C9.31554 0.449522 10.0389 0 10.8307 0C11.6227 0 12.3458 0.449522 12.6963 1.15966L14.9162 5.65779L19.8799 6.37903C20.6636 6.49276 21.3148 7.04173 21.5594 7.79486C21.8042 8.54814 21.6001 9.37492 21.0331 9.92763L17.4412 13.4288L18.2891 18.3727C18.4229 19.1532 18.1021 19.942 17.4614 20.4076C17.099 20.671 16.6698 20.8049 16.2384 20.8049Z" transform="translate(16.21555 15.25671)" id="Path" fill="#FE4400" stroke="none" />
    </g>
  </g>
</svg>