<?xml version="1.0" encoding="utf-8"?>
<svg width="73px" height="73px" viewBox="0 0 73 73" version="1.1" xmlns:xlink="http://www.w3.org/1999/xlink" xmlns="http://www.w3.org/2000/svg">
  <desc>Created with Lunacy</desc>
  <g id="payment" transform="translate(0.5 0.5)">
    <path d="M48.4803 3.72709L40.5017 14.1608C38.9052 16.2483 36.4272 17.4729 33.7992 17.4729L18.9844 17.4729C17.8194 17.4729 16.875 16.5285 16.875 15.3635C16.875 14.1986 17.8194 13.2542 18.9844 13.2542L31.8247 13.2542C34.5845 13.2542 36.8956 10.9956 36.8429 8.23623C36.7917 5.56225 34.6081 3.41041 31.9219 3.41041L17.1563 3.41041C12.9168 -0.665891 6.37467 -1.14289 1.58878 2.27556L0 3.41041L0 27.3167L14.0625 27.3167L16.875 27.3167L36.684 27.3167C40.9905 27.3167 45.0014 25.1268 47.3302 21.5043L55.5622 8.69889C56.0112 8.0004 56.2499 7.18773 56.2499 6.35734C56.25 2.2165 50.9955 0.437734 48.4803 3.72709L48.4803 3.72709Z" transform="translate(15.75 40.4646)" id="Path" fill="#FDBB1C" stroke="none" />
    <path d="M9.42188 0L2.10938 0C0.944438 0 0 0.944438 0 2.10938L0 30.2344C0 31.3993 0.944438 32.3438 2.10938 32.3438L9.42188 32.3438C10.5868 32.3438 11.5313 31.3993 11.5313 30.2344L11.5313 2.10938C11.5313 0.944438 10.5868 0 9.42188 0Z" transform="translate(0 39.65625)" id="Path" fill="#FE4400" stroke="none" />
    <path d="M17.5781 35.1563C27.2707 35.1563 35.1563 27.2707 35.1563 17.5781C35.1563 7.88555 27.2707 0 17.5781 0C7.88555 0 0 7.88555 0 17.5781C0 27.2707 7.88555 35.1563 17.5781 35.1563Z" transform="translate(24 0)" id="Path" fill="#FE4400" stroke="none" />
    <path d="M13.0161 20L6.94378 12.381C6.3253 11.5966 5.90361 11.0924 5.67871 10.9244C7.16867 10.5882 8.3494 9.97199 9.249 9.07563C9.86747 8.40336 10.2892 7.56303 10.4578 6.61064L13.3815 6.61064L14 4.7619L10.5141 4.7619C10.4016 3.61345 10.0361 2.63305 9.44578 1.84874L13.3534 1.84874L13.9719 0L0.618474 0L0 1.84874L3.00803 1.84874C4.38554 1.84874 5.4257 2.12885 6.15663 2.7451C6.71888 3.22129 7.05622 3.89356 7.19679 4.7619L0.674699 4.7619L0.0562249 6.61064L7.14056 6.61064C6.97189 7.31092 6.57831 7.87115 5.98795 8.29132C5.11647 8.90756 3.79518 9.21569 2.0241 9.21569L0.281124 9.21569L0.281124 11.4006C0.899598 11.4006 1.51807 11.5966 2.08032 11.9888C2.58635 12.3249 3.06426 12.7731 3.51406 13.3894L8.54618 20L13.0161 20Z" transform="translate(35 8)" id="₹" fill="#FFFFFF" stroke="none" />
  </g>
</svg>