<?xml version="1.0" encoding="utf-8"?>
<svg width="73px" height="73px" viewBox="0 0 73 73" version="1.1" xmlns:xlink="http://www.w3.org/1999/xlink" xmlns="http://www.w3.org/2000/svg">
  <desc>Created with Lunacy</desc>
  <g id="poker-cards" transform="translate(0.5 0.5)">
    <path d="M12.8184 10.9846L10.4718 10.4718C4.00177 16.9419 0 25.8802 0 35.753L1.47421 36.8358L10.7459 58.3502L10.4718 61.0341C16.9419 67.5042 25.8802 71.5059 35.753 71.5059L57.7703 61.6368L61.0345 61.0341C67.5046 54.5641 71.5063 45.6257 71.5063 35.753L69.4327 34.3428L60.3487 13.3069L61.0345 10.4718C54.5645 4.00177 45.6261 0 35.753 0L34.8042 1.08119L12.8184 10.9846Z" id="Path" fill="#FFFFFF" stroke="none" />
    <path d="M16.015 0C11.9166 4.09843 6.25445 6.63355 0 6.63355L0 19.7379C9.87315 19.7379 18.8111 15.7362 25.2811 9.26612L16.015 0Z" transform="translate(35.75299 51.76794)" id="Path" fill="#FDBB1C" stroke="none" />
    <path d="M9.26612 19.7383C13.3646 15.6399 19.0267 13.1048 25.2811 13.1048L25.2811 0C15.408 0 6.47006 4.00177 0 10.4718L9.26612 19.7383Z" transform="translate(10.4718 0)" id="Path" fill="#FDBB1C" stroke="none" />
    <path d="M10.4718 25.2811L19.7383 16.0146C15.6399 11.9162 13.1048 6.25405 13.1048 0L0 0C0 9.87275 4.00177 18.8111 10.4718 25.2811Z" transform="translate(0 35.7533)" id="Path" fill="#FDBB1C" stroke="none" />
    <path d="M0 9.26612C4.09843 13.3646 6.63355 19.0271 6.63355 25.2811L19.7383 25.2811C19.7383 15.408 15.7366 6.46966 9.26652 0L0 9.26612Z" transform="translate(51.76801 10.47217)" id="Path" fill="#FDBB1C" stroke="none" />
    <path d="M23 46C35.7025 46 46 35.7025 46 23C46 10.2975 35.7025 0 23 0C10.2975 0 0 10.2975 0 23C0 35.7025 10.2975 46 23 46Z" transform="translate(12.76929 12.65466)" id="Oval" fill="#8A0602" stroke="none" />
    <g id="Group-87" transform="translate(13.76929 21.65466)">
      <g id="18+" fill="#FBFCFB" transform="translate(17.21338 0)">
        <path d="M2.12109 6.10059L1.64063 6.10059L1.64063 2.4707Q1.58496 2.52637 1.47803 2.59814Q1.37109 2.66992 1.23779 2.74023Q1.10449 2.81055 0.956543 2.87207Q0.808594 2.93359 0.667969 2.96875L0.667969 2.48242Q0.826172 2.43848 1.00342 2.36377Q1.18066 2.28906 1.35205 2.19678Q1.52344 2.10449 1.67578 2.00342Q1.82812 1.90234 1.93945 1.80566L2.12109 1.80566L2.12109 6.10059ZM3.49805 4.92871Q3.49805 4.76172 3.55078 4.59326Q3.60352 4.4248 3.70166 4.27832Q3.7998 4.13184 3.94482 4.01172Q4.08984 3.8916 4.27441 3.82129Q4.00195 3.66895 3.84082 3.43018Q3.67969 3.19141 3.67969 2.90137Q3.67969 2.66992 3.76904 2.47363Q3.8584 2.27734 4.0166 2.13379Q4.1748 1.99023 4.3916 1.90967Q4.6084 1.8291 4.86035 1.8291Q5.11523 1.8291 5.33203 1.91113Q5.54883 1.99316 5.70703 2.13672Q5.86523 2.28027 5.95313 2.47656Q6.04102 2.67285 6.04102 2.90137Q6.04102 3.19141 5.87988 3.43018Q5.71875 3.66895 5.45215 3.82129Q5.63379 3.8916 5.77734 4.01172Q5.9209 4.13184 6.01904 4.27832Q6.11719 4.4248 6.16992 4.59326Q6.22266 4.76172 6.22266 4.92871Q6.22266 5.2041 6.12305 5.43262Q6.02344 5.66113 5.84326 5.82373Q5.66309 5.98633 5.4126 6.07715Q5.16211 6.16797 4.86035 6.16797Q4.56152 6.16797 4.3125 6.07715Q4.06348 5.98633 3.88184 5.82373Q3.7002 5.66113 3.59912 5.43262Q3.49805 5.2041 3.49805 4.92871ZM4.16895 2.93945Q4.16895 3.08887 4.22314 3.21631Q4.27734 3.34375 4.37256 3.43896Q4.46777 3.53418 4.59375 3.58838Q4.71973 3.64258 4.86328 3.64258Q5.00684 3.64258 5.13428 3.58691Q5.26172 3.53125 5.35547 3.43604Q5.44922 3.34082 5.50488 3.21338Q5.56055 3.08594 5.56055 2.93945Q5.56055 2.78711 5.50635 2.6582Q5.45215 2.5293 5.3584 2.43555Q5.26465 2.3418 5.13721 2.2876Q5.00977 2.2334 4.86328 2.2334Q4.70801 2.2334 4.58057 2.28906Q4.45313 2.34473 4.36084 2.43994Q4.26855 2.53516 4.21875 2.66406Q4.16895 2.79297 4.16895 2.93945ZM8.71875 4.54785L9.90234 4.54785L9.90234 4.15527L8.71875 4.15527L8.71875 2.97461L8.3291 2.97461L8.3291 4.15527L7.14844 4.15527L7.14844 4.54785L8.3291 4.54785L8.3291 5.72852L8.71875 5.72852L8.71875 4.54785ZM4.01953 4.8877Q4.01953 5.08398 4.07959 5.24219Q4.13965 5.40039 4.24951 5.51172Q4.35938 5.62305 4.51611 5.68311Q4.67285 5.74316 4.86328 5.74316Q5.04785 5.74316 5.20313 5.68164Q5.3584 5.62012 5.47119 5.50879Q5.58398 5.39746 5.64697 5.23926Q5.70996 5.08105 5.70996 4.8877Q5.70996 4.71191 5.6499 4.55811Q5.58984 4.4043 5.47852 4.28711Q5.36719 4.16992 5.21191 4.10254Q5.05664 4.03516 4.86328 4.03516Q4.68164 4.03516 4.52783 4.09814Q4.37402 4.16113 4.26123 4.27393Q4.14844 4.38672 4.08398 4.54346Q4.01953 4.7002 4.01953 4.8877Z" />
      </g>
      <g id="RESPONSIBLE" fill="#FBFCFB" transform="translate(3.044922 10)">
        <path d="M6.97852 5.35059L6.97852 5.93066Q7.06055 5.98633 7.19678 6.03174Q7.33301 6.07715 7.48535 6.10791Q7.6377 6.13867 7.78418 6.15479Q7.93066 6.1709 8.03027 6.1709Q8.3291 6.1709 8.59863 6.11084Q8.86816 6.05078 9.07471 5.91602Q9.28125 5.78125 9.40283 5.56592Q9.52441 5.35059 9.52441 5.04004Q9.52441 4.80566 9.43506 4.62402Q9.3457 4.44238 9.19336 4.29297Q9.04102 4.14355 8.83887 4.02051Q8.63672 3.89746 8.41113 3.78613Q8.19141 3.67773 8.02295 3.58691Q7.85449 3.49609 7.7373 3.39941Q7.62012 3.30273 7.56006 3.18555Q7.5 3.06836 7.5 2.90723Q7.5 2.73438 7.5791 2.61426Q7.6582 2.49414 7.78418 2.41797Q7.91016 2.3418 8.07129 2.30811Q8.23242 2.27441 8.39355 2.27441Q8.97656 2.27441 9.34863 2.53223L9.34863 1.97852Q9.06445 1.8291 8.44336 1.8291Q8.1709 1.8291 7.90869 1.89648Q7.64648 1.96387 7.44141 2.10156Q7.23633 2.23926 7.11035 2.45166Q6.98438 2.66406 6.98438 2.95117Q6.98438 3.18555 7.06494 3.35986Q7.14551 3.53418 7.28613 3.67188Q7.42676 3.80957 7.61719 3.92383Q7.80762 4.03809 8.02734 4.14941Q8.23535 4.25488 8.41553 4.3501Q8.5957 4.44531 8.72754 4.54932Q8.85938 4.65332 8.93408 4.7793Q9.00879 4.90527 9.00879 5.0752Q9.00879 5.3916 8.78467 5.56006Q8.56055 5.72852 8.10645 5.72852Q7.97461 5.72852 7.81934 5.70215Q7.66406 5.67578 7.51025 5.62744Q7.35645 5.5791 7.21729 5.50879Q7.07813 5.43848 6.97852 5.35059ZM13.9849 5.58203Q14.5225 6.1709 15.416 6.1709Q16.3301 6.1709 16.875 5.57324Q17.4199 4.97559 17.4199 3.94727Q17.4199 3.00098 16.8882 2.41504Q16.3564 1.8291 15.4863 1.8291Q14.543 1.8291 13.9951 2.43262Q13.4473 3.03613 13.4473 4.0498Q13.4473 4.99316 13.9849 5.58203ZM22.5381 5.35059L22.5381 5.93066Q22.6201 5.98633 22.7563 6.03174Q22.8926 6.07715 23.0449 6.10791Q23.1973 6.13867 23.3438 6.15479Q23.4902 6.1709 23.5898 6.1709Q23.8887 6.1709 24.1582 6.11084Q24.4277 6.05078 24.6343 5.91602Q24.8408 5.78125 24.9624 5.56592Q25.084 5.35059 25.084 5.04004Q25.084 4.80566 24.9946 4.62402Q24.9053 4.44238 24.7529 4.29297Q24.6006 4.14355 24.3984 4.02051Q24.1963 3.89746 23.9707 3.78613Q23.751 3.67773 23.5825 3.58691Q23.4141 3.49609 23.2969 3.39941Q23.1797 3.30273 23.1196 3.18555Q23.0596 3.06836 23.0596 2.90723Q23.0596 2.73438 23.1387 2.61426Q23.2178 2.49414 23.3438 2.41797Q23.4697 2.3418 23.6309 2.30811Q23.792 2.27441 23.9531 2.27441Q24.5361 2.27441 24.9082 2.53223L24.9082 1.97852Q24.624 1.8291 24.0029 1.8291Q23.7305 1.8291 23.4683 1.89648Q23.2061 1.96387 23.001 2.10156Q22.7959 2.23926 22.6699 2.45166Q22.5439 2.66406 22.5439 2.95117Q22.5439 3.18555 22.6245 3.35986Q22.7051 3.53418 22.8457 3.67188Q22.9863 3.80957 23.1768 3.92383Q23.3672 4.03809 23.5869 4.14941Q23.7949 4.25488 23.9751 4.3501Q24.1553 4.44531 24.2871 4.54932Q24.4189 4.65332 24.4937 4.7793Q24.5684 4.90527 24.5684 5.0752Q24.5684 5.3916 24.3442 5.56006Q24.1201 5.72852 23.666 5.72852Q23.5342 5.72852 23.3789 5.70215Q23.2236 5.67578 23.0698 5.62744Q22.916 5.5791 22.7769 5.50879Q22.6377 5.43848 22.5381 5.35059ZM3.5625 6.10059L2.97656 6.10059L2.27344 4.92285Q2.17676 4.75879 2.08594 4.64307Q1.99512 4.52734 1.8999 4.4541Q1.80469 4.38086 1.69482 4.34717Q1.58496 4.31348 1.44727 4.31348L1.04297 4.31348L1.04297 6.10059L0.550781 6.10059L0.550781 1.89941L1.80469 1.89941Q2.08008 1.89941 2.31299 1.96826Q2.5459 2.03711 2.71729 2.17773Q2.88867 2.31836 2.98535 2.52783Q3.08203 2.73731 3.08203 3.01855Q3.08203 3.23828 3.01611 3.42139Q2.9502 3.60449 2.82861 3.74805Q2.70703 3.8916 2.53564 3.99268Q2.36426 4.09375 2.15039 4.14941L2.15039 4.16113Q2.25586 4.20801 2.3335 4.26807Q2.41113 4.32813 2.48145 4.41016Q2.55176 4.49219 2.62061 4.59619Q2.68945 4.7002 2.77441 4.83789L3.5625 6.10059ZM6.36621 6.10059L4.13965 6.10059L4.13965 1.89941L6.27246 1.89941L6.27246 2.34473L4.63184 2.34473L4.63184 3.74219L6.14941 3.74219L6.14941 4.18457L4.63184 4.18457L4.63184 5.65527L6.36621 5.65527L6.36621 6.10059ZM10.8545 4.5127L10.8545 6.10059L10.3623 6.10059L10.3623 1.89941L11.5166 1.89941Q12.1904 1.89941 12.561 2.22754Q12.9316 2.55566 12.9316 3.15332Q12.9316 3.75098 12.52 4.13184Q12.1084 4.5127 11.4082 4.5127L10.8545 4.5127ZM21.6328 6.10059L21.0293 6.10059L18.8672 2.75195Q18.7852 2.62598 18.7324 2.48828L18.7148 2.48828Q18.7383 2.62305 18.7383 3.06543L18.7383 6.10059L18.2461 6.10059L18.2461 1.89941L18.8848 1.89941L20.9883 5.19531Q21.1201 5.40039 21.1582 5.47656L21.1699 5.47656Q21.1406 5.29492 21.1406 4.8584L21.1406 1.89941L21.6328 1.89941L21.6328 6.10059ZM26.4141 6.10059L25.9219 6.10059L25.9219 1.89941L26.4141 1.89941L26.4141 6.10059ZM27.5186 1.89941L27.5186 6.10059L28.7432 6.10059Q29.332 6.10059 29.7188 5.7666Q30.1055 5.43262 30.1055 4.89355Q30.1055 4.45996 29.8506 4.18896Q29.5957 3.91797 29.1709 3.86816L29.1709 3.85645Q29.5107 3.74512 29.7041 3.48145Q29.8975 3.21777 29.8975 2.86035Q29.8975 2.43262 29.5781 2.16602Q29.2588 1.89941 28.7139 1.89941L27.5186 1.89941ZM33.1377 6.10059L30.958 6.10059L30.958 1.89941L31.4502 1.89941L31.4502 5.65527L33.1377 5.65527L33.1377 6.10059ZM33.7822 6.10059L36.0088 6.10059L36.0088 5.65527L34.2744 5.65527L34.2744 4.18457L35.792 4.18457L35.792 3.74219L34.2744 3.74219L34.2744 2.34473L35.915 2.34473L35.915 1.89941L33.7822 1.89941L33.7822 6.10059ZM14.376 2.75195Q14.7891 2.27441 15.4512 2.27441Q16.1309 2.27441 16.5176 2.72852Q16.9043 3.18262 16.9043 4.01465Q16.9043 4.82617 16.5059 5.27734Q16.1074 5.72852 15.416 5.72852Q14.7686 5.72852 14.3657 5.25537Q13.9629 4.78223 13.9629 4.00586Q13.9629 3.22949 14.376 2.75195ZM1.04297 2.34473L1.04297 3.86816L1.71094 3.86816Q1.89551 3.86816 2.05225 3.8125Q2.20898 3.75684 2.32324 3.65283Q2.4375 3.54883 2.50195 3.39795Q2.56641 3.24707 2.56641 3.05957Q2.56641 2.72266 2.34814 2.53369Q2.12988 2.34473 1.7168 2.34473L1.04297 2.34473ZM10.8545 2.34473L10.8545 4.06738L11.3701 4.06738Q11.8799 4.06738 12.1479 3.83447Q12.416 3.60156 12.416 3.17676Q12.416 2.34473 11.4316 2.34473L10.8545 2.34473ZM28.0107 3.70117L28.0107 2.34473L28.5762 2.34473Q29.3818 2.34473 29.3818 2.95703Q29.3818 3.31152 29.1504 3.50635Q28.9189 3.70117 28.5146 3.70117L28.0107 3.70117ZM28.0107 5.65527L28.0107 4.14355L28.5762 4.14355Q29.5898 4.14355 29.5898 4.8877Q29.5898 5.24512 29.3511 5.4502Q29.1123 5.65527 28.6787 5.65527L28.0107 5.65527Z" />
      </g>
      <g id="GAMING" fill="#FBFCFB" transform="translate(10.2124 20)">
        <path d="M2.28516 6.1709Q3.05859 6.1709 3.69141 5.81348L3.69141 3.90918L2.2793 3.90918L2.2793 4.35449L3.19922 4.35449L3.19922 5.53223Q2.83887 5.72852 2.34668 5.72852Q1.62891 5.72852 1.20996 5.27295Q0.791016 4.81738 0.791016 4.02051Q0.791016 3.24707 1.24219 2.76074Q1.69336 2.27441 2.39941 2.27441Q3.09668 2.27441 3.60645 2.59668L3.60645 2.05176Q3.14063 1.8291 2.45508 1.8291Q1.50879 1.8291 0.89209 2.45459Q0.275391 3.08008 0.275391 4.05566Q0.275391 5.01074 0.830566 5.59082Q1.38574 6.1709 2.28516 6.1709ZM21.7441 6.1709Q22.5176 6.1709 23.1504 5.81348L23.1504 3.90918L21.7383 3.90918L21.7383 4.35449L22.6582 4.35449L22.6582 5.53223Q22.2979 5.72852 21.8057 5.72852Q21.0879 5.72852 20.6689 5.27295Q20.25 4.81738 20.25 4.02051Q20.25 3.24707 20.7012 2.76074Q21.1523 2.27441 21.8584 2.27441Q22.5557 2.27441 23.0654 2.59668L23.0654 2.05176Q22.5996 1.8291 21.9141 1.8291Q20.9678 1.8291 20.3511 2.45459Q19.7344 3.08008 19.7344 4.05566Q19.7344 5.01074 20.2896 5.59082Q20.8447 6.1709 21.7441 6.1709ZM7.37402 6.10059L7.91895 6.10059L6.30176 1.89941L5.79199 1.89941L4.18066 6.10059L4.72852 6.10059L5.14746 4.92285L6.92871 4.92285L7.37402 6.10059ZM12.8203 6.10059L12.3311 6.10059L12.3311 3.28223Q12.3311 2.94824 12.3721 2.46484L12.3604 2.46484Q12.29 2.74902 12.2344 2.87207L10.7988 6.10059L10.5586 6.10059L9.12598 2.89551Q9.06445 2.75488 9 2.46484L8.98828 2.46484Q9.01172 2.7168 9.01172 3.28809L9.01172 6.10059L8.53711 6.10059L8.53711 1.89941L9.1875 1.89941L10.4766 4.8291Q10.626 5.16602 10.6699 5.33301L10.6875 5.33301Q10.8135 4.9873 10.8896 4.81738L12.2051 1.89941L12.8203 1.89941L12.8203 6.10059ZM13.9248 6.10059L14.417 6.10059L14.417 1.89941L13.9248 1.89941L13.9248 6.10059ZM18.9082 6.10059L18.3047 6.10059L16.1426 2.75195Q16.0605 2.62598 16.0078 2.48828L15.9902 2.48828Q16.0137 2.62305 16.0137 3.06543L16.0137 6.10059L15.5215 6.10059L15.5215 1.89941L16.1602 1.89941L18.2637 5.19531Q18.3955 5.40039 18.4336 5.47656L18.4453 5.47656Q18.416 5.29492 18.416 4.8584L18.416 1.89941L18.9082 1.89941L18.9082 6.10059ZM6.1084 2.69043L6.76758 4.48047L5.31152 4.48047L5.96484 2.69043Q6.00293 2.58789 6.03223 2.40918L6.04395 2.40918Q6.07617 2.60254 6.1084 2.69043Z" />
      </g>
      <path d="M0 0L24 0L24 0.5L0 0.5L0 0Z" transform="translate(10 19)" id="Rectangle" fill="#FFFFFF" stroke="none" />
      <path d="M0 0L24 0L24 0.5L0 0.5L0 0Z" transform="translate(10 8)" id="Rectangle-Copy-12" fill="#FFFFFF" stroke="none" />
    </g>
  </g>
</svg>