<?xml version="1.0" encoding="utf-8"?>
<svg width="52px" height="60px" viewBox="0 0 52 60" version="1.1" xmlns:xlink="http://www.w3.org/1999/xlink" xmlns="http://www.w3.org/2000/svg">
  <desc>Created with Lunacy</desc>
  <g id="security-system" transform="translate(0.4099731 0.4099121)">
    <path d="M36.5529 0L14.5563 0C13.8396 0 13.239 0.546168 13.1767 1.26003C12.6488 7.3075 7.47193 12.0434 1.40158 12.0242C0.630016 12.0217 0 12.638 0 13.4098L0 20.6028C0 37.6862 10.2885 52.3654 25.0068 58.7856C25.3559 58.9379 25.7547 58.9379 26.1036 58.7856C40.8218 52.3654 51.1104 37.6864 51.1104 20.6028L51.1104 13.4088C51.1104 12.6374 50.4807 12.0203 49.7092 12.0234C43.5963 12.0465 38.4535 7.34058 37.9327 1.26215C37.8714 0.54713 37.2702 5.46586e-15 36.5529 0Z" id="Path" fill="#FDBB1C" stroke="none" />
    <path d="M28.6115 12.023C22.4987 12.0461 17.356 7.34038 16.8351 1.26176C16.7737 0.54713 16.1725 0 15.4552 0L6.53998 0C7.2573 0 7.85867 0.54713 7.91982 1.26176C8.4408 7.34038 13.5834 12.0459 19.6963 12.023C20.4676 12.0201 21.0975 12.6371 21.0975 13.4084L21.0975 20.6025C21.0975 36.1288 12.5986 49.6684 0 56.8274C1.26349 57.5453 2.56776 58.2 3.90914 58.7852C4.25819 58.9373 4.65704 58.9373 5.0059 58.7852C19.7242 52.365 30.0127 37.686 30.0127 20.6025L30.0127 13.4084C30.0125 12.6371 29.3829 12.0201 28.6115 12.023Z" transform="translate(21.09766 0)" id="Path" fill="#FE4400" stroke="none" />
    <g id="Group" transform="translate(16.97748 13.91187)">
      <path d="M3.75168 19.3276L10.6086 19.3276C12.6772 19.3276 14.3601 17.6446 14.36 15.576L14.36 7.18014C14.36 3.22105 11.1391 0 7.17999 0C3.2209 0 0 3.22105 0 7.18014L0 15.576C0 17.6446 1.68307 19.3276 3.75168 19.3276ZM2.229 7.18014C2.229 4.44992 4.45007 2.22886 7.18014 2.22886C9.91021 2.22886 12.1313 4.45007 12.1314 7.18014L12.1314 15.576C12.1314 16.4156 11.4482 17.0987 10.6086 17.0987L3.75183 17.0987C2.9121 17.0987 2.229 16.4156 2.229 15.576L2.229 7.18014Z" transform="translate(1.473933 0.05884769)" id="Shape" fill="#FFFFFF" fill-rule="evenodd" stroke="none" />
      <path d="M14.4615 12.1311L2.63718 12.1311C1.1807 12.1311 0 10.9504 0 9.49395L0 2.63718C0 1.1807 1.1807 0 2.63718 0L14.4615 0C15.918 0 17.0987 1.1807 17.0987 2.63718L17.0987 9.49395C17.0987 10.9504 15.918 12.1311 14.4615 12.1311Z" transform="translate(0.1047143 11.83271)" id="Path" fill="#FFFFFF" stroke="none" />
    </g>
  </g>
</svg>