<?xml version="1.0" encoding="utf-8"?>
<svg width="60px" height="38px" viewBox="0 0 60 38" version="1.1" xmlns:xlink="http://www.w3.org/1999/xlink" xmlns="http://www.w3.org/2000/svg">
  <desc>Created with Lunacy</desc>
  <g id="smartphone" transform="translate(0.4100037 0.4099121)">
    <path d="M0 32.5738L0 6.10759L6.10759 0L18.3228 0L18.3228 22.3945C18.3228 24.081 16.9555 25.4483 15.269 25.4483L15.269 32.5738L0 32.5738Z" transform="translate(0 4.071777)" id="Path" fill="#FDBB1C" stroke="none" />
    <path d="M18.3228 32.5738L18.3228 6.10759L12.2152 0L0 0L0 22.3945C0 24.081 1.36723 25.4483 3.05379 25.4483L3.05379 32.5738L18.3228 32.5738Z" transform="translate(40.71724 4.071777)" id="Path" fill="#FDBB1C" stroke="none" />
    <path d="M2.03486 0L46.8258 0Q46.9258 0 47.0253 0.00979842Q47.1248 0.0195968 47.2228 0.0390993Q47.3209 0.0586018 47.4165 0.0876205Q47.5122 0.116639 47.6045 0.154895Q47.6969 0.19315 47.785 0.240274Q47.8732 0.287398 47.9563 0.342936Q48.0395 0.398474 48.1167 0.461892Q48.194 0.52531 48.2647 0.595997Q48.3354 0.666684 48.3988 0.743959Q48.4622 0.821234 48.5177 0.904353Q48.5733 0.987472 48.6204 1.07563Q48.6675 1.1638 48.7058 1.25615Q48.744 1.34851 48.7731 1.44417Q48.8021 1.53983 48.8216 1.63788Q48.8411 1.73593 48.8509 1.83541Q48.8607 1.9349 48.8607 2.03486L48.8607 22.3955Q48.8607 22.4955 48.8509 22.5949Q48.8411 22.6944 48.8216 22.7925Q48.8021 22.8905 48.7731 22.9862Q48.744 23.0818 48.7058 23.1742Q48.6675 23.2665 48.6204 23.3547Q48.5733 23.4429 48.5177 23.526Q48.4622 23.6091 48.3988 23.6864Q48.3354 23.7637 48.2647 23.8343Q48.194 23.905 48.1167 23.9685Q48.0395 24.0319 47.9563 24.0874Q47.8732 24.1429 47.785 24.1901Q47.6969 24.2372 47.6045 24.2754Q47.5122 24.3137 47.4165 24.3427Q47.3209 24.3717 47.2228 24.3912Q47.1248 24.4107 47.0253 24.4205Q46.9258 24.4303 46.8258 24.4303L2.03486 24.4303Q1.9349 24.4303 1.83541 24.4205Q1.73593 24.4107 1.63788 24.3912Q1.53983 24.3717 1.44417 24.3427Q1.34851 24.3137 1.25615 24.2754Q1.1638 24.2372 1.07563 24.1901Q0.987472 24.1429 0.904353 24.0874Q0.821234 24.0319 0.743959 23.9685Q0.666684 23.905 0.595997 23.8343Q0.52531 23.7637 0.461892 23.6864Q0.398474 23.6091 0.342936 23.526Q0.287398 23.4429 0.240274 23.3547Q0.19315 23.2665 0.154895 23.1742Q0.116639 23.0818 0.0876205 22.9862Q0.0586018 22.8905 0.0390993 22.7925Q0.0195968 22.6944 0.00979842 22.5949Q0 22.4955 0 22.3955L0 2.03486Q0 1.9349 0.00979842 1.83541Q0.0195968 1.73593 0.0390993 1.63788Q0.0586018 1.53983 0.0876205 1.44417Q0.116639 1.34851 0.154895 1.25615Q0.19315 1.1638 0.240274 1.07563Q0.287398 0.987472 0.342936 0.904353Q0.398474 0.821234 0.461892 0.743959Q0.52531 0.666684 0.595997 0.595997Q0.666684 0.52531 0.743959 0.461892Q0.821234 0.398474 0.904353 0.342936Q0.987472 0.287398 1.07563 0.240274Q1.1638 0.19315 1.25615 0.154895Q1.34851 0.116639 1.44417 0.0876205Q1.53983 0.0586018 1.63788 0.0390993Q1.73593 0.0195968 1.83541 0.00979842Q1.9349 0 2.03486 0Z" transform="translate(5.089661 0)" id="Rectangle" fill="#FE4400" stroke="none" />
    <path d="M0 0L36.6455 0L36.6455 24.4303L0 24.4303L0 0Z" transform="translate(11.19724 0)" id="Rectangle" fill="#FDBB1C" stroke="none" />
    <path d="M8.65698 17.1935L8.65698 16.9017L3.31108 9.74651C3.25489 9.67648 3.20673 9.61033 3.1666 9.54808C3.12646 9.49361 3.09235 9.44497 3.06426 9.40217C3.03616 9.35937 3.02212 9.33408 3.02212 9.3263C3.63216 9.25627 4.22615 9.12982 4.80408 8.94695C5.38201 8.76408 5.90577 8.50339 6.37534 8.16489C6.84491 7.82639 7.24224 7.40034 7.56733 6.88676C7.89242 6.37317 8.10312 5.75453 8.19944 5.03083L8.19944 5.03083L10.0537 5.03083L11.053 3.39669L8.09108 3.39669C8.05897 3.0932 7.98071 2.79945 7.8563 2.51542C7.73188 2.23139 7.58539 1.9493 7.41682 1.66916L7.41682 1.66916L10.0537 1.66916C10.0537 1.66916 10.0797 1.62831 10.1319 1.5466C10.1841 1.46489 10.2483 1.36179 10.3246 1.23728C10.4008 1.11278 10.4831 0.978542 10.5714 0.834582C10.6597 0.690621 10.7399 0.558333 10.8122 0.437718C10.8844 0.317102 10.9426 0.213995 10.9868 0.128397C11.0309 0.042799 11.053 0 11.053 0L11.053 0L1.02343 0C1.0154 0 0.965231 0.0700348 0.872922 0.210104C0.780613 0.350174 0.674257 0.511643 0.553854 0.694512C0.433451 0.877381 0.319068 1.06219 0.210705 1.24895C0.102343 1.43571 0.0321075 1.57578 0 1.66916L0 1.66916L3.0462 1.66916C3.23884 1.66916 3.48366 1.72169 3.78065 1.82674C4.07765 1.93179 4.36862 2.06603 4.65358 2.22944C4.93853 2.39286 5.18134 2.57767 5.38201 2.78388C5.58269 2.9901 5.68302 3.19437 5.68302 3.39669L5.68302 3.39669L1.02343 3.39669C0.846834 3.66126 0.686297 3.90639 0.541814 4.13205C0.421411 4.3266 0.307028 4.51141 0.198665 4.6865C0.0903023 4.86158 0.0240806 4.97636 0 5.03083L0 5.03083L5.98403 5.03083C5.93587 5.52886 5.82149 5.9549 5.64088 6.30897C5.46028 6.66303 5.2295 6.95679 4.94856 7.19024C4.66762 7.42369 4.35056 7.60656 3.99738 7.73885C3.6442 7.87113 3.27295 7.96646 2.88365 8.02482C2.49435 8.08318 2.09702 8.11237 1.69166 8.11237C1.28631 8.11237 0.894996 8.10069 0.517733 8.07735L0.517733 8.07735L0.517733 9.61811L6.36932 17.1935L8.65698 17.1935Z" transform="translate(23.80646 3.967773)" id="₹" fill="#FFFFFF" stroke="none" />
    <path d="M0 0L2.03586 0L2.03586 6.10759L0 6.10759L0 0Z" transform="translate(7.125519 9.161377)" id="Path" fill="#68737F" stroke="none" />
    <path d="M0 0L2.03586 0L2.03586 6.10759L0 6.10759L0 0Z" transform="translate(49.87862 9.161377)" id="Path" fill="#68737F" stroke="none" />
    <path d="M1.01793 2.03586C1.58012 2.03586 2.03586 1.58012 2.03586 1.01793C2.03586 0.455743 1.58012 0 1.01793 0C0.455743 0 0 0.455743 0 1.01793C0 1.58012 0.455743 2.03586 1.01793 2.03586Z" transform="translate(7.125519 6.107666)" id="Oval" fill="#68737F" stroke="none" />
    <path d="M1.01793 2.03586C1.58012 2.03586 2.03586 1.58012 2.03586 1.01793C2.03586 0.455743 1.58012 0 1.01793 0C0.455743 0 0 0.455743 0 1.01793C0 1.58012 0.455743 2.03586 1.01793 2.03586Z" transform="translate(7.125519 3.053711)" id="Oval" fill="#68737F" stroke="none" />
    <g id="Group" transform="translate(7.125519 3.053711)">
      <path d="M0 0L2.03586 0L2.03586 6.10759L0 6.10759L0 0Z" transform="translate(0 6.107586)" id="Path" fill="#FFFFFF" stroke="none" />
      <path d="M0 0L2.03586 0L2.03586 6.10759L0 6.10759L0 0Z" transform="translate(42.75311 6.107586)" id="Path" fill="#FFFFFF" stroke="none" />
      <path d="M1.01793 2.03586C1.58012 2.03586 2.03586 1.58012 2.03586 1.01793C2.03586 0.455743 1.58012 0 1.01793 0C0.455743 0 0 0.455743 0 1.01793C0 1.58012 0.455743 2.03586 1.01793 2.03586Z" transform="translate(0 3.053793)" id="Oval" fill="#FFFFFF" stroke="none" />
      <path d="M1.01793 2.03586C1.58012 2.03586 2.03586 1.58012 2.03586 1.01793C2.03586 0.455743 1.58012 0 1.01793 0C0.455743 0 0 0.455743 0 1.01793C0 1.58012 0.455743 2.03586 1.01793 2.03586Z" id="Oval" fill="#FFFFFF" stroke="none" />
    </g>
    <path d="M6.17993 23.4124C4.49337 23.4124 3.12614 22.0452 3.12614 20.3586L3.12614 11.1972L2.10821 10.1793C0.758345 8.82945 0 6.99865 0 5.08966C0 3.18066 0.758345 1.34986 2.10821 0L11.2696 9.16138L11.2696 23.4124L6.17993 23.4124Z" transform="translate(43.69868 6.107666)" id="Path" fill="#E9AB15" stroke="none" />
    <path d="M5.08965 23.4124C6.77622 23.4124 8.14345 22.0452 8.14345 20.3586L8.14345 11.1972L9.16138 10.1793C10.5112 8.82945 11.2696 6.99865 11.2696 5.08966C11.2696 3.18066 10.5112 1.34986 9.16138 0L0 9.16138L0 23.4124L5.08965 23.4124Z" transform="translate(4.071732 6.107666)" id="Path" fill="#E9AB15" stroke="none" />
  </g>
</svg>