<?xml version="1.0" encoding="utf-8"?>
<svg width="11px" height="12px" viewBox="0 0 11 12" version="1.1" xmlns:xlink="http://www.w3.org/1999/xlink" xmlns="http://www.w3.org/2000/svg">
  <desc>Created with Lunacy</desc>
  <g id="Group-8">
    <path d="M2.8764 5.75281C4.465 5.75281 5.75281 4.465 5.75281 2.8764C5.75281 1.28781 4.465 0 2.8764 0C1.28781 0 0 1.28781 0 2.8764C0 4.465 1.28781 5.75281 2.8764 5.75281Z" transform="translate(2.397004 0)" id="Oval" fill="#9B0000" stroke="none" />
    <path d="M7.91011 0L2.6367 0C1.1822 0 0 1.1822 0 2.6367L0 4.07491C0 4.47185 0.322157 4.79401 0.719101 4.79401L9.82772 4.79401C10.2247 4.79401 10.5468 4.47185 10.5468 4.07491L10.5468 2.6367C10.5468 1.1822 9.36461 0 7.91011 0Z" transform="translate(0 7.190918)" id="Path" fill="#9B0000" stroke="none" />
  </g>
</svg>