<?xml version="1.0" encoding="utf-8"?>
<svg width="73px" height="73px" viewBox="0 0 73 73" version="1.1" xmlns:xlink="http://www.w3.org/1999/xlink" xmlns="http://www.w3.org/2000/svg">
  <desc>Created with Lunacy</desc>
  <g id="withdraw" transform="translate(0.25 0.25)">
    <path d="M69.75 0L2.25 0C1.008 0 0 1.008 0 2.25L0 33.75C0 34.992 1.008 36 2.25 36L10.521 36C12.312 32.8635 13.5135 29.8305 14.2515 27L13.5 27C11.016 27 9 24.984 9 22.5L9 13.5C9 11.016 11.016 9 13.5 9L58.5 9C60.984 9 63 11.016 63 13.5L63 22.5C63 24.57 61.5735 26.235 59.6745 26.7615C59.148 29.682 58.2795 32.7825 56.997 36L69.75 36C70.992 36 72 34.992 72 33.75L72 2.25C72 1.008 70.992 0 69.75 0Z" id="Path" fill="#FDBB1C" stroke="none" />
    <path d="M48.499 0L12.463 0C13.2595 5.85 13.066 15.435 6.73446 25.8255C-4.79904 44.7435 1.91496 56.8575 2.20296 57.366C2.60346 58.0635 3.35046 58.4955 4.15596 58.4955L35.656 58.4955C36.4525 58.4955 37.186 58.0635 37.591 57.3795C37.996 56.6955 38.005 55.836 37.618 55.1385C37.384 54.72 32.029 44.6625 42.0775 28.17C48.922 16.9425 49.3225 6.651 48.499 0ZM22.1514 4.5C20.9094 4.5 19.9014 5.508 19.9014 6.75L19.9014 11.25C19.9014 12.492 20.9094 13.5 22.1514 13.5C23.3934 13.5 24.4014 12.492 24.4014 11.25L24.4014 6.75C24.4014 5.508 23.3934 4.5 22.1514 4.5ZM17.6514 27C17.6514 31.3425 20.6799 34.875 24.4014 34.875C28.1229 34.875 31.1514 31.3425 31.1514 27C31.1514 22.6575 28.1229 19.125 24.4014 19.125C20.6799 19.125 17.6514 22.6575 17.6514 27ZM28.9015 47.25C28.9015 48.492 27.8935 49.5 26.6515 49.5C25.4095 49.5 24.4015 48.492 24.4015 47.25L24.4015 42.75C24.4015 41.508 25.4095 40.5 26.6515 40.5C27.8935 40.5 28.9015 41.508 28.9015 42.75L28.9015 47.25Z" transform="translate(7.098572 13.5)" id="Shape" fill="#FDBB1C" fill-rule="evenodd" stroke="none" />
  </g>
</svg>