<?xml version="1.0" encoding="UTF-8"?>
<svg width="68px" height="71px" viewBox="0 0 68 71" version="1.1" xmlns="http://www.w3.org/2000/svg" xmlns:xlink="http://www.w3.org/1999/xlink">
    <!-- Generator: Sketch 63.1 (92452) - https://sketch.com -->
    <title>Shape</title>
    <desc>Created with Sketch.</desc>
    <g id="My-Account" stroke="none" stroke-width="1" fill="none" fill-rule="evenodd">
        <g id="My-Account_Tokens" transform="translate(-769.000000, -339.000000)" fill="#DADADA" fill-rule="nonzero">
            <g id="Group-7" transform="translate(420.000000, 244.000000)">
                <g id="Group-8" transform="translate(0.000000, 53.000000)">
                    <g id="Shape">
                        <path d="M389.000172,42 C411.056217,42 429,59.9440509 429,82 C429,104.055949 411.055872,122 388.999828,122 C366.944128,122 349,104.055949 349,82 C349,59.9440509 366.944128,42 389.000172,42 Z M391.98793,112.680663 L385.782826,112.680663 L385.782826,118.88574 L391.98793,118.88574 L391.98793,112.680663 Z M365.111899,101.500836 L360.7242,105.888515 L365.111899,110.276195 L369.499597,105.888515 L365.111899,101.500836 Z M412.888446,101.500836 L408.500748,105.888515 L412.888446,110.276195 L417.276144,105.888515 L412.888446,101.500836 Z M389.000172,54.0647396 C373.597034,54.0647396 361.065136,66.5965838 361.065136,82 C361.065136,97.4034162 373.59669,109.93526 389.000172,109.93526 C404.403655,109.93526 416.935553,97.403761 416.935553,82 C416.935553,66.5965838 404.403655,54.0647396 389.000172,54.0647396 Z M388.999826,59 C401.682035,59 412,69.3178872 412,82 C412,94.6821128 401.682035,105 388.999826,105 C376.317617,105 366,94.6821128 366,82 C366,69.3178872 376.317617,59 388.999826,59 Z M389,62 C377.954305,62 369,70.954305 369,82 C369,93.045695 377.954305,102 389,102 C400.045695,102 409,93.045695 409,82 C409,70.954305 400.045695,62 389,62 Z M389,63.4772727 C399.22982,63.4772727 407.522727,71.7701802 407.522727,82 C407.522727,92.2298198 399.22982,100.522727 389,100.522727 C378.77018,100.522727 370.477273,92.2298198 370.477273,82 C370.477273,71.7701802 378.77018,63.4772727 389,63.4772727 Z M381.598373,88.4772727 C381.367147,88.4772727 381.233594,88.5558973 381.197714,88.7131465 L381.187829,88.8077514 L381.187829,89.5316572 L380.836992,89.5320486 C380.597179,89.5390941 380.477273,89.6412547 380.477273,89.8385302 C380.477273,90.0111463 380.569076,90.11094 380.752683,90.1379113 L380.836992,90.1450119 L381.187829,90.1454033 L381.188303,93.0548224 C381.197461,93.2606984 381.339414,93.3636364 381.614163,93.3636364 C381.845388,93.3636364 381.978941,93.2850118 382.014821,93.1277626 L382.024218,93.0555563 L382.024706,90.1454033 L383.409413,90.1450384 C383.654746,90.1382271 383.777412,90.0360577 383.777412,89.8385302 C383.777412,89.6656937 383.683495,89.5658657 383.495663,89.5390462 L383.382658,89.5316572 L382.024706,89.5316572 L382.024233,88.7860867 C382.015074,88.5802107 381.873121,88.4772727 381.598373,88.4772727 Z M395.891651,89.5004142 L393.509143,89.5004142 C392.476177,89.5104357 391.922163,89.8313757 391.8471,90.4632448 L391.838639,90.585364 L391.838639,92.1914424 C391.854805,92.8949463 392.412986,93.2707918 393.513183,93.3189787 L393.712961,93.324081 L394.9599,93.3239288 C395.205232,93.3171175 395.327898,93.2149481 395.327898,93.0174206 C395.327898,92.844584 395.233982,92.744756 395.046149,92.7179365 L394.9599,92.7109124 L393.722044,92.7103325 C393.085678,92.7038509 392.737259,92.550783 392.676785,92.2511291 L392.667666,92.1731617 L392.66726,91.6719002 L397.185993,91.6715105 C397.371276,91.6659443 397.480097,91.6007395 397.512456,91.4758963 L397.522264,91.4085048 L397.522341,90.477067 C397.506899,89.8759076 397.028193,89.5522064 396.086222,89.5059634 L395.891651,89.5004142 Z M388.928199,89.5004142 L386.545692,89.5004142 C385.512726,89.5104357 384.958712,89.8313757 384.883649,90.4632448 L384.874826,90.6175157 L384.875188,92.1914424 C384.891354,92.8949463 385.449535,93.2707918 386.549731,93.3189787 L386.74951,93.324081 L387.996448,93.3239288 C388.241781,93.3171175 388.364447,93.2149481 388.364447,93.0174206 C388.364447,92.844584 388.270531,92.744756 388.082698,92.7179365 L387.996448,92.7109124 L386.758593,92.7103325 C386.122227,92.7038509 385.773808,92.550783 385.713334,92.2511291 L385.703809,92.1518811 L385.703809,91.6719002 L390.222542,91.6715105 C390.407825,91.6659443 390.516646,91.6007395 390.549005,91.4758963 L390.559276,91.3886327 L390.55889,90.477067 C390.543448,89.8759076 390.064741,89.5522064 389.122771,89.5059634 L388.928199,89.5004142 Z M386.643322,90.1217977 L388.814466,90.1217977 L388.853023,90.1220435 C389.377478,90.1288024 389.666784,90.2749651 389.72094,90.5605314 L389.730294,90.664727 L389.729514,91.085451 C389.726742,91.1047932 389.716576,91.1176879 389.699017,91.1241353 L389.667133,91.1289709 L385.703809,91.1289709 L385.704234,90.6418694 C385.71593,90.330957 385.968857,90.1594482 386.463016,90.1273431 L386.643322,90.1217977 Z M393.606773,90.1217977 L395.777917,90.1217977 L395.816474,90.1220435 C396.340929,90.1288024 396.630235,90.2749651 396.684391,90.5605314 L396.69333,90.6418694 L396.692965,91.085451 C396.690193,91.1047932 396.680027,91.1176879 396.662468,91.1241353 L396.630584,91.1289709 L392.66726,91.1289709 L392.667685,90.6418694 C392.679381,90.330957 392.932309,90.1594482 393.426467,90.1273431 L393.606773,90.1217977 Z M395.25515,70.75 C393.660413,70.75 392.333387,71.2455487 391.295178,72.0956097 C390.628746,72.6419695 390.135231,73.2770485 389.812874,73.999543 L389.699103,74.2743145 L389.657792,74.3907056 L389.586129,74.6135823 L389.521889,74.8478426 L389.492493,74.9706254 L389.44418,75.2153347 L389.42318,75.3432259 L389.395177,75.5574571 L389.380803,75.6930973 L389.361379,75.9771561 C389.356933,76.074116 389.354429,76.1720256 389.354429,76.2713598 L389.355978,76.4049171 L389.370389,76.7137068 L389.39487,76.9798015 L389.420342,77.1725341 L389.440198,77.2963025 L389.4645,77.4262011 L389.51932,77.6725724 L389.584888,77.9120366 L389.633843,78.0658406 L389.725954,78.3161852 C389.896241,78.7430194 390.12475,79.1401986 390.412131,79.5074869 L390.591629,79.724271 L391.33748,78.7578669 C391.610197,78.3471904 391.811002,77.9651789 391.949605,77.5815269 L391.879505,77.4164879 L391.819117,77.2498516 L391.763304,77.0661685 L391.716686,76.8713368 L391.68388,76.689073 L391.66083,76.5054277 L391.646974,76.3202714 L391.642442,76.133043 L391.646111,75.9209919 L391.657463,75.7142506 L391.681749,75.4812188 L391.715909,75.2686496 L391.736176,75.1720756 C391.858723,74.6317932 392.113515,74.1790598 392.566478,73.7200113 C393.25315,73.0140519 394.257431,72.5961229 395.25515,72.5961229 C396.233748,72.5961229 397.117597,72.9928123 397.823779,73.6798632 C398.500911,74.3575894 398.757269,75.0506842 398.757269,76.0764903 C398.757269,76.9545439 398.574748,77.768946 397.970753,78.7483742 L397.823779,78.9774296 L391.808887,86.7727273 L394.676478,86.7727273 L399.115324,81.0110831 C400.401991,79.288297 401.045455,77.6518077 401.045455,76.1017016 C401.045455,74.6801127 400.552034,73.4651787 399.567005,72.4568133 C398.498451,71.3658636 397.068087,70.75 395.25515,70.75 Z M384.395917,80.3093975 L379.40883,86.7727273 L382.276292,86.7727273 L386.329717,81.5122008 L386.205158,81.468805 C385.62692,81.2583166 385.091263,80.9361794 384.602503,80.5022246 L384.395917,80.3093975 Z M393.992871,73.2219156 C393.5544,73.3961498 393.154086,73.6560765 392.834491,73.9846004 C392.608046,74.2137901 392.439357,74.4387923 392.314912,74.6770044 C392.484076,75.0815076 392.557457,75.53203 392.557457,76.0764903 C392.557457,76.9545439 392.374935,77.768946 391.770526,78.7483742 L391.623449,78.9774296 L385.427263,86.7727273 L388.29671,86.7727273 L392.915123,81.0110831 C394.201618,79.288297 394.845038,77.6518077 394.845038,76.1017016 C394.845038,75.0226237 394.560364,74.0628677 393.992871,73.2219156 Z M425.771277,78.8974611 L419.566173,78.8974611 L419.566173,85.1025389 L425.771277,85.1025389 L425.771277,78.8974611 Z M358.204583,78.8974611 L351.999479,78.8974611 L351.999479,85.1025389 L358.204583,85.1025389 L358.204583,78.8974611 Z M394.29343,79.5790902 C394.062997,80.0171106 393.790767,80.4594963 393.476761,80.905761 L393.233423,81.2411794 L393.201481,81.2827089 L393.352318,81.3100387 L393.505231,81.3323512 L393.660974,81.349752 L393.899375,81.3668473 C393.978584,81.3705167 394.058396,81.3725457 394.138769,81.3725457 L394.327849,81.3671549 L394.519616,81.3524717 L395.838441,79.6410824 L395.717127,79.6587417 C395.554197,79.6798059 395.386536,79.6908574 395.214014,79.6908574 L395.103646,79.6891252 L394.994476,79.6845114 L394.769197,79.6653871 L394.612973,79.6442844 C394.504395,79.6273489 394.397771,79.6058664 394.29343,79.5790902 Z M382.855353,70.75 C381.2604,70.75 379.933546,71.2455487 378.895467,72.0956097 C377.601678,73.1563403 376.954545,74.5484009 376.954545,76.2713598 C376.954545,77.7761805 377.458369,79.0248303 378.466751,80.0180862 C379.384226,80.9209441 380.475182,81.3725457 381.738843,81.3725457 L381.927809,81.3671549 L382.11943,81.3524717 L383.438428,79.6410824 L383.317156,79.6587417 C383.154296,79.6798059 382.986739,79.6908574 382.814044,79.6908574 C381.815979,79.6908574 380.97374,79.337813 380.286982,78.6320262 C379.590383,77.9261963 379.242126,77.0931012 379.242126,76.133043 C379.242126,75.1165185 379.469909,74.4258412 380.166595,73.7200113 C380.853396,73.0140519 381.85746,72.5961229 382.855353,72.5961229 C383.833864,72.5961229 384.717584,72.9928123 385.423507,73.6798632 C386.100855,74.3575894 386.357472,75.0506842 386.357472,76.0764903 C386.357472,76.5772194 386.296868,77.0570974 386.134135,77.5584741 C386.284177,77.8505625 386.485975,78.1250375 386.741728,78.3845757 C387.081438,78.7338643 387.457536,78.9837756 387.876195,79.138756 C388.388134,78.0920124 388.645226,77.0795027 388.645226,76.1017016 C388.645226,74.6801127 388.152107,73.4651355 387.166776,72.4568133 C386.098481,71.3658636 384.668203,70.75 382.855353,70.75 Z M384.054222,73.2139723 C383.454917,74.0801357 383.154444,75.0987756 383.154444,76.2713598 C383.154444,77.7761805 383.658052,79.0248303 384.66639,80.0180862 C385.584513,80.9209441 386.67547,81.3725457 387.939173,81.3725457 L388.127961,81.3671549 L388.31989,81.3524717 L389.638413,79.6410824 L389.517032,79.6587417 C389.354023,79.6798059 389.186335,79.6908574 389.013813,79.6908574 C388.01618,79.6908574 387.173941,79.337813 386.486579,78.6320262 C385.790368,77.9261963 385.442327,77.0931012 385.442327,76.133043 C385.442327,75.5643211 385.513809,75.0976963 385.698685,74.6729465 C385.571952,74.4210494 385.397694,74.1864203 385.160934,73.949719 C384.826058,73.6240444 384.452162,73.3787955 384.054222,73.2139723 Z M389.055251,70.75 C388.041172,70.75 387.135481,70.9509133 386.344177,71.3153546 C386.736548,71.5618123 387.102459,71.8528646 387.436126,72.1933034 C387.616082,72.3776826 387.78067,72.5710411 387.931317,72.7710047 C388.29494,72.6570358 388.675571,72.5961229 389.055251,72.5961229 C389.426126,72.5961229 389.783275,72.6534527 390.12264,72.7615505 C390.389271,72.4172263 390.700146,72.0965162 391.056863,71.8042552 C391.279682,71.6217755 391.51368,71.4585496 391.756959,71.3104764 C390.975195,70.9453444 390.075935,70.75 389.055251,70.75 Z M412.888446,53.7241498 L408.500748,58.1118293 L412.888446,62.4995088 L417.276144,58.1118293 L412.888446,53.7241498 Z M365.111899,53.7241498 L360.7242,58.1118293 L365.111899,62.4995088 L369.499597,58.1118293 L365.111899,53.7241498 Z M391.98793,45.1142596 L385.782826,45.1142596 L385.782826,51.3193374 L391.98793,51.3193374 L391.98793,45.1142596 Z" transform="translate(389.000000, 82.000000) rotate(-17.000000) translate(-389.000000, -82.000000) "></path>
                    </g>
                </g>
            </g>
        </g>
    </g>
</svg>