<?xml version="1.0" encoding="UTF-8"?>
<svg width="6px" height="44px" viewBox="0 0 6 44" version="1.1" xmlns="http://www.w3.org/2000/svg" xmlns:xlink="http://www.w3.org/1999/xlink">
    <!-- Generator: Sketch 63.1 (92452) - https://sketch.com -->
    <title>Artboard</title>
    <desc>Created with Sketch.</desc>
    <g id="Artboard" stroke="none" stroke-width="1" fill="none" fill-rule="evenodd" stroke-linecap="round" stroke-linejoin="round">
        <path d="M3,39 C4.1045695,39 5,39.8954305 5,41 C5,42.1045695 4.1045695,43 3,43 C1.8954305,43 1,42.1045695 1,41 C1,39.8954305 1.8954305,39 3,39 Z M3,31 C4.1045695,31 5,31.8954305 5,33 C5,34.1045695 4.1045695,35 3,35 C1.8954305,35 1,34.1045695 1,33 C1,31.8954305 1.8954305,31 3,31 Z M3,23 C4.1045695,23 5,23.8954305 5,25 C5,26.1045695 4.1045695,27 3,27 C1.8954305,27 1,26.1045695 1,25 C1,23.8954305 1.8954305,23 3,23 Z" id="Combined-Shape" stroke="#FF654F" stroke-width="1.2"></path>
        <path d="M3,17 C4.1045695,17 5,17.8954305 5,19 C5,20.1045695 4.1045695,21 3,21 C1.8954305,21 1,20.1045695 1,19 C1,17.8954305 1.8954305,17 3,17 Z M3,9 C4.1045695,9 5,9.8954305 5,11 C5,12.1045695 4.1045695,13 3,13 C1.8954305,13 1,12.1045695 1,11 C1,9.8954305 1.8954305,9 3,9 Z M3,1 C4.1045695,1 5,1.8954305 5,3 C5,4.1045695 4.1045695,5 3,5 C1.8954305,5 1,4.1045695 1,3 C1,1.8954305 1.8954305,1 3,1 Z" id="Combined-Shape" stroke="#464546" stroke-width="1.2"></path>
    </g>
</svg>