<?xml version="1.0" encoding="UTF-8"?>
<svg width="22px" height="22px" viewBox="0 0 22 22" version="1.1" xmlns="http://www.w3.org/2000/svg" xmlns:xlink="http://www.w3.org/1999/xlink">
    <!-- Generator: Sketch 63.1 (92452) - https://sketch.com -->
    <title>local_offer-24px</title>
    <desc>Created with Sketch.</desc>
    <g id="Home-Page_17/09/2020" stroke="none" stroke-width="1" fill="none" fill-rule="evenodd">
        <g id="Cart_Detail-Page" transform="translate(-975.000000, -239.000000)">
            <g id="Group-13" transform="translate(958.000000, 222.000000)">
                <g id="Group-11" transform="translate(16.000000, 16.000000)">
                    <g id="local_offer-24px">
                        <polygon id="Path" points="0 0 24 0 24 24 0 24"></polygon>
                        <path d="M21.41,11.58 L12.41,2.58 C12.05,2.22 11.55,2 11,2 L4,2 C2.9,2 2,2.9 2,4 L2,11 C2,11.55 2.22,12.05 2.59,12.42 L11.59,21.42 C11.95,21.78 12.45,22 13,22 C13.55,22 14.05,21.78 14.41,21.41 L21.41,14.41 C21.78,14.05 22,13.55 22,13 C22,12.45 21.77,11.94 21.41,11.58 Z" id="Path" stroke="#FF654F" stroke-width="1.4" stroke-linecap="round" stroke-linejoin="round"></path>
                        <circle id="Oval" stroke="#FF654F" stroke-width="1.4" stroke-linecap="round" stroke-linejoin="round" cx="6.5" cy="6.5" r="1.5"></circle>
                    </g>
                </g>
            </g>
        </g>
    </g>
</svg>