<?xml version="1.0" encoding="UTF-8"?>
<svg width="22px" height="16px" viewBox="0 0 22 16" version="1.1" xmlns="http://www.w3.org/2000/svg" xmlns:xlink="http://www.w3.org/1999/xlink">
    <!-- Generator: Sketch 63.1 (92452) - https://sketch.com -->
    <title>check---filled(24x24)@1x</title>
    <desc>Created with Sketch.</desc>
    <g id="Home-Page_06/10/2020" stroke="none" stroke-width="1" fill="none" fill-rule="evenodd">
        <g id="10.1_notifications" transform="translate(-319.000000, -740.000000)" fill="#26A541">
            <g id="Group-7-Copy-5" transform="translate(288.000000, 706.000000)">
                <g id="ic_like" transform="translate(18.000000, 18.000000)">
                    <g id="check---filled(24x24)@1x" transform="translate(13.000000, 16.000000)">
                        <path d="M0.29289,8.0329 C0.68342,7.6424 1.31658,7.6424 1.70711,8.0329 L7.83711,14.1629 C8.22763,14.5534 8.22763,15.1866 7.83711,15.5771 C7.44658,15.9676 6.81342,15.9676 6.42289,15.5771 L0.29289,9.4471 C-0.097631,9.0566 -0.097631,8.4234 0.29289,8.0329 Z" id="Path"></path>
                        <path d="M21.7071,0.29289 C22.0976,0.68342 22.0976,1.31658 21.7071,1.70711 L7.83711,15.5771 C7.44659,15.9676 6.81342,15.9676 6.4229,15.5771 C6.03237,15.1866 6.03237,14.5534 6.4229,14.1629 L20.2929,0.29289 C20.6834,-0.09763 21.3166,-0.09763 21.7071,0.29289 Z" id="Path"></path>
                    </g>
                </g>
            </g>
        </g>
    </g>
</svg>