<?xml version="1.0" encoding="UTF-8"?>
<svg width="181px" height="140px" viewBox="0 0 181 140" version="1.1" xmlns="http://www.w3.org/2000/svg" xmlns:xlink="http://www.w3.org/1999/xlink">
    <title>Group 33</title>
    <g id="Artist-Informative" stroke="none" stroke-width="1" fill="none" fill-rule="evenodd">
        <g transform="translate(-1076.000000, -1644.000000)" id="Group-14">
            <g transform="translate(65.000000, 1502.000000)">
                <g id="Group-8" transform="translate(893.000000, 92.000000)">
                    <g id="Group-13" transform="translate(89.000000, 0.000000)">
                        <g id="Group-33" transform="translate(29.000000, 50.000000)">
                            <path d="M44.3000797,21.5583465 C46.1243028,21.1639242 48.0105179,20.7561154 49.8753785,21.1797011 C51.8178486,21.6214541 53.3660558,22.8326094 54.8632669,24.0039242 C55.8226295,24.7543624 56.7286056,25.463207 57.67251,25.9185059 C58.645259,26.3878286 59.7827888,26.6619321 60.9870916,26.951972 L60.9870916,26.951972 L61.6758276,27.1196005 C63.2857644,27.5191483 64.9020916,28.0013744 66.234741,29.0655975 C67.7654183,30.2877489 68.630757,32.0365935 69.4675697,33.7275895 C70.0151394,34.8340437 70.5322709,35.8791433 71.2009562,36.7164341 C71.8632669,37.5459162 72.7631873,38.277231 73.7158566,39.0515736 C75.1848606,40.2453584 76.7039044,41.4797808 77.5611155,43.2568325 C78.4025498,45.0008963 78.4250199,46.9435258 78.4466932,48.8224102 C78.4610359,50.0670317 78.4745817,51.2424899 78.7166534,52.3073505 C78.9458167,53.315478 79.4315538,54.3492628 79.9456574,55.4437648 C80.7558566,57.1683863 81.5936255,58.9514939 81.5936255,60.9624899 C81.5936255,62.9733266 80.7558566,64.7565935 79.9450199,66.4816931 C79.4309163,67.5761951 78.9451793,68.60998 78.7160159,69.6181074 C78.4739442,70.6828086 78.4603984,71.8582668 78.4460558,73.1028883 C78.4243825,74.9816134 78.4019124,76.9245616 77.5604781,78.6686254 C76.7032669,80.4455178 75.1843825,81.6799401 73.7153785,82.873725 C72.7627092,83.6480676 71.8627888,84.3793823 71.2004781,85.2088644 C70.5319522,86.0461553 70.0148207,87.0912549 69.467251,88.197709 C68.6304382,89.8888644 67.7650996,91.6375497 66.2344223,92.8597011 C64.7112351,94.0761154 62.8176892,94.5323704 60.9864542,94.9733266 C59.7823108,95.2633664 58.6449402,95.53747 57.6721912,96.0066333 C56.7284462,96.4619321 55.8224701,97.1707768 54.8632669,97.921215 C53.3660558,99.0926891 51.8176892,100.304004 49.8750598,100.745438 C49.3144223,100.872928 48.7513944,100.925199 48.1891633,100.925199 C46.8812749,100.925199 45.5754582,100.642649 44.299761,100.366793 C43.0701195,100.100657 41.9083665,99.8495019 40.796494,99.8495019 C39.6846215,99.8495019 38.5230279,100.100817 37.2932271,100.366793 C35.4691633,100.761374 33.5827888,101.169343 31.7179283,100.745438 C29.7752988,100.303844 28.2269323,99.0925298 26.7297211,97.921215 C25.7705179,97.1707768 24.8645418,96.4619321 23.9207968,96.0066333 C22.9478884,95.5373106 21.8103586,95.263207 20.6060558,94.9731672 C18.7749801,94.5318923 16.8815936,94.0757967 15.3585657,92.8598604 C14.5286056,92.1970716 13.8133865,91.3148405 13.1075697,90.0837648 C12.7794422,89.5116533 12.9773705,88.7820915 13.5494821,88.4541234 C14.1214343,88.1263146 14.850996,88.3240835 15.1789641,88.8960357 C15.7305179,89.8581074 16.2610359,90.524721 16.8486056,90.9938843 C17.9568127,91.8788246 19.5153785,92.2542827 21.165259,92.6517329 C22.4385657,92.9585059 23.7553785,93.2757967 24.958247,93.8560357 C26.1333865,94.4230477 27.1845418,95.2453584 28.2009562,96.0405776 C29.5505976,97.0965138 30.825498,98.093964 32.247012,98.4169919 C33.5956972,98.7236055 35.1462948,98.3881473 36.7882072,98.0329282 C38.0865339,97.7521314 39.4291633,97.4617728 40.7963347,97.4617728 C42.163506,97.4617728 43.5061355,97.7521314 44.8044622,98.0329282 C46.4463745,98.3879879 47.9972908,98.7234461 49.3456574,98.4169919 C50.7673307,98.093964 52.0420717,97.0965138 53.3918725,96.0405776 C54.4082869,95.2453584 55.4592829,94.4230477 56.6345817,93.8560357 C57.8372908,93.2757967 59.1539442,92.9586652 60.427251,92.6518923 C62.0772908,92.2542827 63.6358566,91.8788246 64.7443825,90.9938843 C65.860239,90.102729 66.572749,88.6630477 67.327012,87.1387449 C67.9064542,85.9679082 68.5056574,84.7569122 69.334502,83.7189839 C70.1572908,82.6887051 71.2004781,81.8408963 72.2094024,81.0208166 C73.5333865,79.9446413 74.7840637,78.928227 75.4098805,77.6311752 C76.0203984,76.3655178 76.0388845,74.7672708 76.0584861,73.0751592 C76.0737849,71.7605776 76.0894024,70.401215 76.3877291,69.0888644 C76.6742629,67.8286254 77.2384064,66.6275098 77.7840637,65.4662349 C78.5150598,63.910219 79.2054183,62.4407369 79.2054183,60.9628086 C79.2054183,59.484721 78.5150598,58.0152389 77.7840637,56.4593823 C77.2384064,55.2979481 76.6742629,54.0969919 76.3877291,52.8367529 C76.0894024,51.5244023 76.0736255,50.1650397 76.0584861,48.8502987 C76.0388845,47.1581871 76.0205578,45.5599401 75.4100398,44.2946015 C74.7842231,42.997231 73.5335458,41.9808166 72.2095618,40.9048007 C71.2006375,40.084721 70.1572908,39.2369122 69.3346614,38.206474 C68.5058167,37.1683863 67.9066135,35.9575497 67.3271713,34.786713 C66.5729084,33.2624102 65.8605578,31.8228883 64.7445418,30.9315736 C63.6361753,30.046474 62.0776096,29.6710158 60.4275697,29.2735656 C59.1542629,28.9669521 57.8374502,28.6496612 56.634741,28.0692628 C55.4594422,27.5022509 54.4082869,26.6799401 53.3917131,25.884721 C52.0419124,24.8287847 50.767012,23.8314939 49.3456574,23.5083067 C47.9974502,23.2018525 46.4465339,23.5373106 44.8046215,23.8923704 C43.5062948,24.1733266 42.1636653,24.4636851 40.796494,24.4636851 C39.4293227,24.4636851 38.0866932,24.1733266 36.7883665,23.8923704 C35.1464542,23.5373106 33.5953785,23.2016931 32.2473307,23.5083067 C30.8259761,23.8314939 29.5510757,24.8287847 28.2014343,25.8845616 C27.1848606,26.6797808 26.1337052,27.5020915 24.9584064,28.0691035 C23.7556972,28.6493425 22.4388845,28.9666333 21.1654183,29.2734063 C19.5153785,29.6710158 17.9569721,30.046474 16.8486056,30.9314142 C15.732749,31.8224102 15.020239,33.2620915 14.2659761,34.7863943 C13.6865339,35.9575497 13.0873307,37.1683863 12.2584861,38.2063146 C11.4356972,39.2367529 10.39251,40.0844023 9.38374502,40.9043226 C8.05976096,41.9804979 6.8089243,42.9967529 6.18310757,44.2941234 C5.57258964,45.5597808 5.55410359,47.1580278 5.53450199,48.8501393 C5.51936255,50.1645616 5.50358566,51.5240835 5.20525896,52.8364341 C4.9187251,54.0968325 4.35458167,55.2976294 3.8089243,56.4590636 C3.07792829,58.0149202 2.38756972,59.4844023 2.38756972,60.9624899 C2.38756972,62.4405776 3.07792829,63.9100596 3.8089243,65.4659162 C4.35458167,66.6273505 4.9187251,67.8283067 5.20525896,69.0885457 C5.50358566,70.4008963 5.51936255,71.7602588 5.53450199,73.0748405 C5.55410359,74.7671114 5.57243028,76.3653584 6.18294821,77.6306971 C6.8089243,78.9280676 8.05944223,79.9444819 9.38358566,81.0204979 C10.39251,81.8402588 11.4358566,82.688227 12.2584861,83.7185059 C12.2970518,83.7667927 12.334502,83.8147608 12.3716335,83.8628883 C12.7735458,84.3855975 12.6756972,85.1350796 12.152988,85.5371513 C11.6304382,85.9390636 10.8809562,85.8413744 10.4788845,85.3185059 C10.4501992,85.2810557 10.4211952,85.2440835 10.3920319,85.2074302 C9.73035857,84.3789043 8.83043825,83.6475895 7.87776892,82.8732469 C6.40876494,81.6793027 4.88972112,80.4448804 4.03250996,78.6679879 C3.1910757,76.9239242 3.16860558,74.9811353 3.14693227,73.1024102 C3.13258964,71.8579481 3.11904382,70.6823306 2.87697211,69.6176294 C2.64780876,68.6095019 2.16207171,67.575717 1.64796813,66.481215 C0.837768924,64.7567529 -8.52651283e-14,62.9734859 -8.52651283e-14,60.9624899 C-8.52651283e-14,58.9514939 0.837768924,57.1683863 1.6476494,55.4437648 C2.16175299,54.3492628 2.64749004,53.315478 2.87665339,52.3073505 C3.1187251,51.2424899 3.13227092,50.0670317 3.14661355,48.8224102 C3.16828685,46.9436851 3.19075697,45.0007369 4.03219124,43.2566732 C4.88940239,41.4797808 6.40844622,40.2451991 7.8774502,39.0512549 C8.83011952,38.2770716 9.72988048,37.5457568 10.3921912,36.7164341 C11.0608765,35.8789839 11.578008,34.8338843 12.1255777,33.7274302 C12.9623904,32.0364341 13.8277291,30.2877489 15.3584064,29.0654381 C16.8815936,27.8491831 18.7749801,27.3930875 20.6060558,26.951972 C21.8103586,26.6619321 22.9478884,26.3878286 23.9207968,25.9185059 C24.8648606,25.463207 25.7708367,24.7543624 26.7300398,24.0039242 C28.227251,22.8324501 29.7754582,21.6212947 31.7179283,21.1797011 C33.5826295,20.7557967 35.469004,21.1639242 37.2932271,21.5583465 C38.5231873,21.8244819 39.6846215,22.0756373 40.7966534,22.0756373 C41.9086853,22.0756373 43.0702789,21.8244819 44.3000797,21.5583465 Z M40.7968127,90.1259959 C41.456255,90.1259959 41.990757,90.6604979 41.990757,91.3199401 L41.990757,91.3199401 L41.990757,93.362968 C41.990757,94.0224102 41.456255,94.5569122 40.7968127,94.5569122 C40.1373705,94.5569122 39.6028685,94.0224102 39.6028685,93.362968 L39.6028685,93.362968 L39.6028685,91.3199401 C39.6028685,90.6604979 40.1373705,90.1261553 40.7968127,90.1259959 Z M50.7714741,88.3672708 C51.3905976,88.1420915 52.0760159,88.4611353 52.3018327,89.0808963 L52.3018327,89.0808963 L53.0004781,91.0005776 C53.2259761,91.6203385 52.9064542,92.3052788 52.2868526,92.5309361 C52.1520319,92.5798604 52.0141833,92.6031274 51.8785657,92.6031274 C51.390757,92.6031274 50.9330677,92.3020915 50.756494,91.8173106 L50.756494,91.8173106 L50.0578486,89.8976294 C49.8323506,89.2778684 50.1518725,88.5927688 50.7714741,88.3672708 Z M29.2919522,89.0808963 C29.5174502,88.4612947 30.2027092,88.1420915 30.8223108,88.3672708 C31.4419124,88.5929282 31.7614343,89.2780278 31.5359363,89.8976294 L31.5359363,89.8976294 L30.8372908,91.8173106 C30.6607171,92.3019321 30.2028685,92.6031274 29.7152191,92.6031274 C29.5796016,92.6031274 29.441753,92.5798604 29.3069323,92.5309361 C28.6873307,92.3052788 28.3678088,91.6201792 28.5933068,91.0005776 L28.5933068,91.0005776 Z M40.7968127,34.0651194 C50.7969721,34.0651194 59.9144223,39.5620118 64.5913944,48.4101393 C64.8996016,48.9930875 64.6768127,49.7156373 64.0938645,50.0236851 C63.510757,50.3317329 62.7883665,50.1089441 62.4803187,49.5259959 C58.218008,41.4622509 49.9094821,36.4530078 40.7968127,36.4530078 C27.2822311,36.4530078 16.2873307,47.4479082 16.2873307,60.9624899 C16.2873307,74.4770716 27.2823904,85.471972 40.7969721,85.471972 C54.3115538,85.471972 65.3064542,74.4770716 65.3064542,60.9624899 C65.3064542,58.7500596 65.0119522,56.557709 64.4310757,54.4461553 C64.2560956,53.8102987 64.6298008,53.1530875 65.265498,52.9782668 C65.9013546,52.8037648 66.5585657,53.1768325 66.7333865,53.8126891 C67.3708367,56.1306174 67.6941833,58.5361951 67.6941833,60.9624899 C67.6941833,75.7938843 55.6280478,87.8598604 40.7968127,87.8598604 C25.9655777,87.8598604 13.8994422,75.7938843 13.8994422,60.9624899 C13.8994422,46.1310955 25.9655777,34.0651194 40.7968127,34.0651194 Z M20.3689243,83.4501393 C20.7926693,82.94496 21.5456574,82.8788246 22.050996,83.3030477 C22.5561753,83.7267927 22.621992,84.4800995 22.1980876,84.9851194 L22.1980876,84.9851194 L20.8849402,86.5500596 C20.6487649,86.8314939 20.3104382,86.9765138 19.9697211,86.9765138 C19.6988048,86.9765138 19.4266135,86.8848804 19.2028685,86.6971513 C18.6976892,86.2734063 18.6318725,85.5200995 19.0557769,85.0150796 L19.0557769,85.0150796 Z M59.5427888,83.303207 C60.0478088,82.8793027 60.8009562,82.9451194 61.2248606,83.4502987 L61.2248606,83.4502987 L62.538008,85.0152389 C62.9619124,85.5204182 62.8960956,86.2735656 62.3909163,86.6973106 C62.1671713,86.8850397 61.8948207,86.9766732 61.6240637,86.9766732 C61.2831873,86.9766732 60.9450199,86.8316533 60.7088446,86.550219 L60.7088446,86.550219 L59.3956972,84.9852788 C58.9717928,84.4800995 59.0376096,83.7269521 59.5427888,83.303207 Z M66.0532271,75.5443226 C66.3829482,74.9731672 67.112988,74.7776294 67.6841434,75.1073505 L67.6841434,75.1073505 L69.4533865,76.1288644 C70.0243825,76.4585855 70.2200797,77.1887847 69.8903586,77.7597808 C69.6691633,78.1428883 69.2678884,78.3569122 68.8552988,78.3569122 C68.652749,78.3569122 68.44749,78.3052788 68.2594422,78.1967529 L68.2594422,78.1967529 L66.4901992,77.1752389 C65.9192032,76.8455178 65.723506,76.1153186 66.0532271,75.5443226 Z M13.9094821,75.1071911 C14.4804781,74.7776294 15.2106773,74.9731672 15.5403984,75.5441632 C15.8701195,76.1151592 15.6744223,76.8453584 15.1034263,77.1750796 L15.1034263,77.1750796 L13.3341833,78.1965935 C13.1461355,78.3051194 12.9408765,78.3567529 12.7383267,78.3567529 C12.3257371,78.3567529 11.9244622,78.142729 11.7032669,77.7596214 C11.3735458,77.1886254 11.569243,76.4584262 12.140239,76.1287051 L12.140239,76.1287051 Z M45.5799203,61.4979481 C46.2393625,61.4979481 46.7738645,62.0324501 46.7738645,62.6918923 L46.7738645,62.6918923 L46.7738645,72.6493425 C46.7738645,73.3087847 46.2393625,73.8432867 45.5799203,73.8432867 C44.9204781,73.8432867 44.3859761,73.3087847 44.3859761,72.6493425 L44.3859761,72.6493425 L44.3859761,62.6918923 C44.3859761,62.0324501 44.9204781,61.4979481 45.5799203,61.4979481 Z M53.8125896,61.4979481 C56.9351394,61.4979481 59.0331474,63.9784262 59.0331474,67.6705377 C59.0331474,71.182729 56.8809562,73.7693425 53.9158566,73.8211353 C53.2693986,73.832488 51.8363372,73.8396633 51.2688867,73.8421539 L51.1072427,73.8428377 C51.0671357,73.8430002 51.0416999,73.843097 51.0336255,73.8431274 C50.7062948,73.8431274 50.396494,73.715478 50.1673307,73.4880676 C49.9370518,73.2593823 49.8071713,72.9489441 49.8058964,72.6244819 L49.8058964,72.6244819 L49.8052692,72.4468362 C49.8051697,72.4183745 49.8050598,72.3867847 49.8049402,72.3522819 L49.804116,72.1120257 C49.801345,71.2966969 49.7960956,69.6767352 49.7939442,68.5051814 L49.7930301,67.8043271 L49.7930301,67.8043271 L49.792988,67.6595417 L49.792988,67.6595417 L49.792242,66.7127242 C49.7921655,66.6480304 49.7920842,66.5818016 49.7919986,66.5142781 L49.7911282,65.8780927 C49.7910219,65.8049624 49.790913,65.731258 49.7908019,65.6572197 L49.7901143,65.2109049 C49.7899969,65.1364919 49.7898784,65.0622255 49.7897594,64.9883458 L49.7890431,64.5516311 C49.788924,64.4802594 49.7888055,64.409755 49.7886881,64.3403581 L49.7880005,63.9391875 C49.7878894,63.8751813 49.7877805,63.8127629 49.7876742,63.7521727 L49.7870727,63.4124906 C49.7869792,63.3601737 49.7868894,63.3101655 49.7868038,63.262706 L49.7860152,62.830909 C49.7859722,62.8076835 49.7859355,62.7879677 49.7859058,62.7720019 L49.7858144,62.7231274 C49.7851793,62.3985059 49.9137849,62.0867927 50.1432669,61.8569919 C50.372749,61.6270317 50.6841434,61.4979481 51.0089243,61.4979481 L51.0089243,61.4979481 Z M36.5394422,61.4979481 C37.1172908,61.4979481 37.63251,61.842968 37.8522709,62.3776294 C37.8567331,62.388466 37.8610359,62.3993027 37.8651793,62.4101393 L37.8651793,62.4101393 L41.5701992,72.2276692 C41.8030279,72.8445616 41.4916335,73.5334859 40.874741,73.7661553 C40.7359363,73.8185855 40.5934661,73.8434461 40.4533865,73.8434461 C39.9708367,73.8434461 39.5166534,73.5489441 39.3360956,73.0708565 L39.3360956,73.0708565 L38.7048606,71.3981871 L34.3456574,71.3981871 L33.7074104,73.0742031 C33.4726693,73.6906174 32.7831076,73.9999401 32.1666932,73.7650397 C31.5504382,73.5302987 31.2411155,72.8405776 31.4758566,72.2244819 L31.4758566,72.2244819 L35.2148207,62.4074302 C35.2183267,62.3981871 35.2218327,62.3894222 35.225498,62.3803385 C35.4443028,61.8448804 35.9596813,61.4985855 36.538008,61.4979481 L36.538008,61.4979481 Z M26.6372908,61.4979481 C28.8753785,61.4979481 30.6960956,63.2941234 30.6960956,65.5019321 C30.6960956,67.7097409 28.8753785,69.5059162 26.6372908,69.5059162 C26.5915139,69.5059162 26.5414368,69.5059585 26.4877344,69.5060385 L26.1274188,69.5069331 C25.7999054,69.5079929 25.4155179,69.5097608 25.0586454,69.5116533 L25.0586454,69.5116533 L25.0586454,72.6493425 C25.0586454,73.3087847 24.5241434,73.8432867 23.8647012,73.8432867 C23.205259,73.8432867 22.670757,73.3087847 22.670757,72.6493425 L22.670757,72.6493425 L22.670757,62.6918923 C22.670757,62.5422509 22.6976892,62.3930875 22.7523506,62.2538047 C22.8858964,61.9138843 23.1630279,61.6558764 23.5166534,61.5497409 C23.6298008,61.5159561 23.7467729,61.4979481 23.8647012,61.4979481 L23.8647012,61.4979481 Z M53.8125896,63.9441632 L52.2342629,63.9441632 C52.2348154,64.2687104 52.2354245,64.6336124 52.2360208,65.0078062 L52.2368969,65.572183 C52.2373214,65.8539729 52.2377192,66.1322531 52.2380609,66.3939188 L52.2388883,67.1159675 C52.238955,67.1877448 52.2390122,67.25622 52.2390589,67.3209077 L52.2399376,68.3701926 C52.2405548,68.7313661 52.2415119,69.1429413 52.2426189,69.5643954 L52.2443677,70.1989203 C52.2455767,70.6201226 52.2468403,71.0309423 52.2479681,71.3908565 C52.8392032,71.3871911 53.5000797,71.3819321 53.8731474,71.3753983 C55.2239044,71.3518126 56.5869323,70.1970716 56.5869323,67.6705377 C56.5869323,65.8689441 55.8581673,63.9440039 53.8125896,63.9440039 L53.8125896,63.9441632 Z M36.5351394,65.6490238 L35.2549801,69.0102987 L37.8036653,69.0102987 L36.5351394,65.6490238 Z M10.6932271,65.0582668 C11.3429482,64.9430477 11.9619124,65.3771513 12.0763347,66.0265537 C12.1909163,66.6761154 11.7572908,67.2952389 11.1078884,67.4096612 L11.1078884,67.4096612 L9.09593625,67.7644023 C9.02581673,67.7768325 8.95601594,67.782729 8.88717131,67.782729 C8.3187251,67.782729 7.81498008,67.3753983 7.71282869,66.7961154 C7.59824701,66.146713 8.03203187,65.5275895 8.6812749,65.4130078 L8.6812749,65.4130078 Z M69.5172908,66.026713 C69.6318725,65.3776294 70.2513147,64.9430477 70.9003984,65.0584262 L70.9003984,65.0584262 L72.9123506,65.4131672 C73.5615936,65.5275895 73.9952191,66.146713 73.8807968,66.7962748 C73.7786454,67.3752389 73.2749004,67.7828883 72.7064542,67.7828883 C72.6374502,67.7828883 72.5678088,67.7769919 72.4976892,67.7645616 L72.4976892,67.7645616 L70.4857371,67.4098206 C69.836494,67.2953983 69.4028685,66.6761154 69.5172908,66.026713 Z M26.6372908,63.8856772 L25.0621514,63.8856772 C25.0628597,64.1590016 25.0635994,64.4461454 25.0642028,64.7085921 L25.0649845,65.0789249 C25.0650907,65.1359551 25.0651832,65.190238 25.0652593,65.241172 L25.0659686,65.8300796 C25.0668725,66.2010158 25.0689641,66.6829282 25.0712351,67.1236055 C25.64,67.1207369 26.2736255,67.1178684 26.6372908,67.1178684 C27.5431076,67.1178684 28.3083665,66.3777887 28.3083665,65.5017728 C28.3083665,64.6259162 27.5431076,63.8856772 26.6372908,63.8856772 L26.6372908,63.8856772 Z M42.7609562,44.2648007 C44.2988048,42.5114939 46.9768924,42.335717 48.7306773,43.873725 C50.4843028,45.4117329 50.659761,48.0898206 49.121753,49.8436055 L49.121753,49.8436055 L42.3150598,57.604721 C41.5399203,58.4887051 40.4211952,59.0133266 39.2457371,59.0440835 C39.2065339,59.0450397 39.1703586,59.0456772 39.134502,59.0456772 C38.0009562,59.0456772 36.8968924,58.5801792 36.1053386,57.768227 L36.1053386,57.768227 L32.6227888,54.1948405 C30.994741,52.5244023 31.0291633,49.8407369 32.6996016,48.2126891 C34.3695618,46.58496 37.0532271,46.6189043 38.6815936,48.2895019 L38.6815936,48.2895019 L38.9708367,48.5863943 Z M7.71282869,55.1288644 C7.82741036,54.4797808 8.44685259,54.0456772 9.09593625,54.1605776 L9.09593625,54.1605776 L11.1078884,54.5153186 C11.7571315,54.6297409 12.1909163,55.2488644 12.0763347,55.8984262 C11.9741833,56.4773903 11.4704382,56.8850397 10.901992,56.8850397 C10.832988,56.8850397 10.7633466,56.8791433 10.6932271,56.866713 L10.6932271,56.866713 L8.6812749,56.511972 C8.03203187,56.3975497 7.59840637,55.7784262 7.71282869,55.1288644 Z M72.4976892,54.1605776 C73.147251,54.0456772 73.7663745,54.479462 73.8807968,55.1288644 C73.9953785,55.7784262 73.561753,56.3975497 72.9123506,56.511972 L72.9123506,56.511972 L70.9003984,56.866713 C70.8302789,56.8791433 70.7604781,56.8850397 70.6916335,56.8850397 C70.1231873,56.8850397 69.6194422,56.477709 69.5172908,55.8984262 C69.4027092,55.2488644 69.8363347,54.6297409 70.4857371,54.5153186 L70.4857371,54.5153186 Z M47.1560159,45.6687847 C46.3923506,44.9991433 45.2258167,45.0751592 44.5560159,45.8391433 L44.5560159,45.8391433 L39.9145817,51.1312549 C39.6951394,51.3816134 39.3811952,51.5287051 39.0484462,51.53747 C38.7141036,51.5479879 38.3944223,51.415717 38.1620717,51.1773106 L38.1620717,51.1773106 L36.9716335,49.9559561 C36.610996,49.5862349 36.1314741,49.4004182 35.6517928,49.4004182 C35.1878884,49.4004182 34.7238247,49.573964 34.3662151,49.9226493 C33.6387251,50.6316533 33.6235857,51.8005776 34.332749,52.528227 L34.332749,52.528227 L37.8151394,56.1014541 C38.1598406,56.4549202 38.6407968,56.6577887 39.134502,56.6577887 L39.134502,56.6577887 L39.1864542,56.6569919 C39.6949801,56.6436055 40.1823108,56.4150796 40.5198406,56.030219 L40.5198406,56.030219 L47.3265339,48.2691035 C47.996494,47.5051194 47.92,46.3387449 47.1560159,45.6687847 Z M11.7032669,44.1653584 C12.032988,43.5942031 12.7630279,43.3986652 13.3341833,43.7283863 L13.3341833,43.7283863 L15.1034263,44.7499003 C15.6744223,45.0796214 15.8701195,45.8098206 15.5403984,46.3808166 C15.3192032,46.7639242 14.9179283,46.9779481 14.5053386,46.9779481 C14.3027888,46.9779481 14.0975299,46.9263146 13.9094821,46.8177887 L13.9094821,46.8177887 L12.140239,45.7962748 C11.569243,45.4665537 11.3735458,44.7363545 11.7032669,44.1653584 Z M68.2594422,43.7283863 C68.8304382,43.3988246 69.5606375,43.5942031 69.8903586,44.1653584 C70.2200797,44.7363545 70.0243825,45.4665537 69.4533865,45.7962748 L69.4533865,45.7962748 L67.6841434,46.8177887 C67.4960956,46.9263146 67.2908367,46.9779481 67.0882869,46.9779481 C66.6756972,46.9779481 66.2744223,46.7639242 66.0532271,46.3808166 C65.723506,45.8098206 65.9192032,45.0796214 66.4901992,44.7499003 L66.4901992,44.7499003 Z M19.2028685,35.2276692 C19.7078884,34.8040835 20.4610359,34.8697409 20.8847809,35.3747608 L20.8847809,35.3747608 L22.1979283,36.9397011 C22.6218327,37.4448804 22.5560159,38.1980278 22.0508367,38.6217728 C21.8270916,38.8095019 21.554741,38.9011353 21.2839841,38.9011353 C20.9432669,38.9011353 20.6049402,38.7561154 20.3689243,38.4746812 L20.3689243,38.4746812 L19.0557769,36.9097409 C18.6318725,36.4045616 18.6976892,35.6514142 19.2028685,35.2276692 Z M60.709004,35.3747608 C61.132749,34.8697409 61.8857371,34.8036055 62.3909163,35.2276692 C62.8960956,35.6514142 62.9619124,36.404721 62.538008,36.9097409 L62.538008,36.9097409 L61.2248606,38.4746812 C60.9886853,38.7561154 60.6503586,38.9011353 60.3096414,38.9011353 C60.0387251,38.9011353 59.7665339,38.8095019 59.5429482,38.6217728 C59.0377689,38.1980278 58.9719522,37.444721 59.3958566,36.9397011 L59.3958566,36.9397011 Z M29.3070916,29.3940437 C29.9262151,29.1685457 30.6117928,29.4879082 30.8372908,30.1075098 L30.8372908,30.1075098 L31.5359363,32.0271911 C31.7614343,32.6469521 31.4419124,33.3318923 30.8223108,33.5575497 C30.68749,33.6066333 30.5496414,33.6299003 30.4140239,33.6299003 C29.9262151,33.6299003 29.4685259,33.3290238 29.2921116,32.8440835 L29.2921116,32.8440835 L28.5934661,30.9244023 C28.3679681,30.3046413 28.68749,29.6195417 29.3070916,29.3940437 Z M50.756494,30.1075098 C50.981992,29.4880676 51.6670916,29.1687051 52.2866932,29.3940437 C52.9062948,29.6197011 53.2258167,30.3048007 53.0003187,30.9244023 L53.0003187,30.9244023 L52.3016733,32.8440835 C52.1250996,33.3287051 51.667251,33.6299003 51.1796016,33.6299003 C51.0441434,33.6299003 50.9061355,33.6066333 50.7714741,33.5575497 C50.1518725,33.3318923 49.8323506,32.6467927 50.0578486,32.0271911 L50.0578486,32.0271911 Z M40.7968127,27.3680676 C41.456255,27.3680676 41.990757,27.9025696 41.990757,28.5620118 L41.990757,28.5620118 L41.990757,30.6050397 C41.990757,31.2644819 41.456255,31.7989839 40.7968127,31.7989839 C40.1373705,31.7989839 39.6028685,31.2644819 39.6028685,30.6050397 L39.6028685,30.6050397 L39.6028685,28.5620118 C39.6028685,27.9025696 40.1373705,27.3680676 40.7968127,27.3680676 Z" id="Combined-Shape" fill="#0566FF" fill-rule="nonzero"></path>
                            <g id="bust-mask-16" transform="translate(131.500000, 70.000000) scale(-1, 1) translate(-131.500000, -70.000000) translate(82.000000, 0.000000)">
                                <g id="BODY" transform="translate(0.032325, 44.784415)">
                                    <path d="M75.4063649,31.5972547 C74.3536981,31.2218135 73.3390941,30.7881642 72.4146771,30.1503021 C69.7499172,28.1660174 68.0123624,25.1798283 66.3705706,22.3505581 C64.0579523,18.2356199 62.4104633,13.8508635 61.2716097,9.27668882 C60.7822481,7.31144292 60.6160567,5.03284422 59.5042349,3.29048626 C56.983847,-0.357818252 49.5932386,0.114878806 45.6687697,0.755287519 C43.0407392,1.22046605 42.4975563,4.16263537 41.9006734,6.33973396 C41.403675,8.14866726 41.0783229,9.97809462 40.8052162,11.8320178 C40.1554817,12.2593612 39.4219849,12.6064261 38.722793,12.9087436 C31.1030805,15.2461566 29.7638516,19.5794959 26.8535018,26.2731676 C21.9379454,36.0022626 8.59959973,39.8116091 6.58481677,51.3257479 C5.28668124,58.9273423 8.97816704,66.0787953 12.7840837,72.3982383 C16.3285307,79.3008523 21.2768163,82.6138548 29.15715,80.9830621 C36.5484857,79.324378 43.651926,76.5496778 50.9131936,74.4055637 C54.4301239,73.5405694 57.9414781,71.2905896 61.6409643,72.075063 C69.2638285,73.7877106 77.095917,74.5929206 84.9080043,74.370639 C95.8763949,74.8143533 95.8746979,64.2829588 94.7489359,56.1274187 C93.9604055,43.435539 87.5612483,35.285941 75.4063649,31.5972547 L75.4063649,31.5972547 Z" id="âœ‹-Skin" fill="#FFFFFF"></path>
                                    <path d="M76.1396678,49.9624328 C77.0562056,50.5687656 77.827038,51.4880874 78.4458616,52.4555521 C75.8624397,52.1867041 73.283503,51.8767468 70.7102636,51.5238611 C71.0471315,51.3084917 71.3871511,51.0978516 71.7349288,50.8989745 C73.0037293,50.1837443 74.7228588,49.0252848 76.1396678,49.9624328 Z M33.2177965,57.6019837 C32.7444358,57.4165671 32.5612737,56.694546 32.3767782,56.2806632 C31.7983206,54.9827472 31.2704113,53.6627607 30.7211675,52.3522329 C32.8066212,51.7575417 34.834617,51.0977304 36.9949842,50.7807396 C39.3179061,50.4402231 41.6751331,50.3577618 44.0195108,50.434281 C48.7681486,50.5892597 53.4726625,51.3656082 58.1412956,52.1981031 C62.8044739,53.029628 67.4674097,53.8285321 72.1631959,54.4554802 C76.7638251,55.0696953 81.3790006,55.5192305 86.0027826,55.9138319 C86.9011375,55.9905936 88.3990421,56.313769 89.1215081,55.6065424 C89.6935411,55.0464122 89.7120876,54.0133423 88.9962887,53.5579864 C88.5504448,53.2741014 87.9044681,53.2699783 87.3951054,53.2044943 C86.7536138,53.1219118 86.1095766,53.0669781 85.4642061,53.024171 C85.2012818,53.0068299 84.9383575,52.9908227 84.675312,52.9748155 C86.7865854,52.178458 88.9916824,51.7442024 91.2805418,51.8652264 C91.4100038,52.6518826 91.993189,53.4612157 92.3123589,54.1099918 C92.8697244,55.2426215 93.3041737,56.3889543 93.5894023,57.6205375 C94.1855579,60.194784 94.2114988,62.8665289 94.0431255,65.4920713 C93.8884499,67.6811752 93.5561883,70.1026259 91.8397256,71.6530189 C90.5401354,72.8268793 88.706575,73.2614986 87.0055071,73.398166 C85.0284233,73.5570252 83.0207923,73.3873733 81.0603155,73.1222846 C78.310581,72.7503601 75.5479973,72.2585029 72.8523266,71.5992978 C67.631298,70.3226035 62.6268879,68.291146 58.0097729,65.5369399 C55.7581278,64.1939127 53.6096401,62.6829314 51.3270841,61.3909574 C49.0012529,60.0742451 46.5264434,59.0528168 43.927748,58.4185927 C41.0195801,57.7088195 37.9794046,57.4058956 34.9903836,57.5810046 C34.471687,57.6113212 33.7223104,57.7995269 33.2177965,57.6019837 Z M29.8476625,56.2840587 C30.1532559,57.2761404 30.3870876,58.4088914 31.0393677,59.2424777 C31.6854656,60.0685455 32.6601885,60.3600704 33.6699438,60.4335579 C34.8874686,60.5219612 36.1192973,60.4653297 37.3394889,60.5106834 C39.8420576,60.6036949 42.3103213,61.0103017 44.7027018,61.7562123 C46.9321638,62.4514335 49.0017378,63.5357991 50.9953074,64.7387634 C52.8388078,65.8512628 54.6282444,67.0456172 56.4723508,68.1547212 C55.9815346,68.3797919 55.4962945,68.6232952 55.0083875,68.8352691 C53.9850557,69.2798323 52.9554206,69.7087521 51.921179,70.1270005 C49.8816674,70.9516131 47.8335492,71.7562168 45.76446,72.5037039 C41.5923404,74.010926 37.3516108,75.3277596 33.0598479,76.4494753 C31.0129419,76.9845033 28.9369433,77.6093899 26.8103963,77.6983996 C24.9247117,77.7772228 23.1780654,77.2440138 21.6572504,76.1224193 C18.5028865,73.7960416 15.9932871,70.4381705 13.9645639,67.1260169 C12.7592823,65.1582244 11.707464,63.0906295 10.8374744,60.9528213 C10.397449,59.8717299 9.99839562,58.774025 9.63922337,57.6634658 C9.4707288,57.1420196 9.310962,56.617663 9.15968054,56.0908811 C9.09313125,55.8592619 9.02936999,55.6269152 8.96621483,55.3943259 C12.1917343,54.4096414 15.4555591,53.5207575 18.7959943,53.0273239 C20.5794912,52.7638117 22.386747,52.6304184 24.1897602,52.6498211 C25.084721,52.6594012 25.9791968,52.7077865 26.86943,52.8001916 C27.3486092,52.8499109 27.8258489,52.9139397 28.3010278,52.993248 C28.4974028,53.0258687 28.6992326,53.0741328 28.9016685,53.1096639 C29.2108985,54.1696549 29.5226741,55.2287971 29.8476625,56.2840587 Z M96.5232686,52.0695606 C96.6970968,51.7177663 96.7704344,51.3716715 96.832741,50.9887117 C96.8802589,50.6965806 97.0063268,50.2853657 96.8958962,49.9060439 C96.7722527,49.4812471 96.4353848,49.101319 96.1935526,48.7389745 C95.9265069,48.3385523 95.6597036,47.9378876 95.393264,47.5369803 C94.8602636,46.7352871 94.3284753,45.9328662 93.7975355,45.1298391 C91.6292892,41.85067 89.4758315,38.5620421 87.3189798,35.2754757 C85.4049299,32.3588936 83.5231243,29.416118 81.5507681,26.538705 C79.8642465,24.0782065 78.0259585,21.6583322 75.7174617,19.7447459 C72.7986265,17.3252354 69.323032,16.185451 65.6926406,15.296082 C65.2961329,14.8843821 64.7665265,14.6595539 64.2004333,14.7051501 C63.4006295,13.7977124 62.7649565,13.1638521 62.4768186,12.0098795 C62.33875,11.4571465 62.3820253,9.90408563 61.8439336,9.57702972 C61.2047452,9.18849165 60.870924,9.70273895 60.6946551,10.282316 C60.1049241,12.2213684 60.7818117,14.8283569 62.3394774,16.7706834 C61.6831971,19.0397021 60.8130862,22.2644225 59.2608754,24.0822082 C57.5987189,26.0286578 55.3000407,26.6345056 52.8198976,26.6744023 C48.09017,26.7505577 43.3654125,24.9920713 39.7578103,21.9444 C38.6612622,21.018166 37.6429004,19.983641 36.7215138,18.8833895 C36.0304436,18.057928 35.2129419,16.7840228 34.6723046,15.8211663 C34.6723046,15.4459404 34.2294541,15.0535489 38.7379939,14.7503825 C43.2465336,14.4472161 43.5884557,8.27147391 43.6887039,7.43097537 C43.7701631,6.74848716 44.1166074,5.68910248 43.6358523,5.13261022 C43.4318406,4.89626169 43.0131497,4.85818399 42.7544681,5.01874092 C42.2666824,5.32178606 42.1064307,6.09667939 41.9530885,6.622855 C41.7382883,7.36003443 41.0360659,11.935058 39.7054436,12.4647504 C39.0824986,12.7127405 38.3680331,12.7173486 37.709086,12.7631874 C36.8953421,12.8200614 36.079901,12.8616558 35.26943,12.956365 C34.9705037,12.9912898 34.6444243,13.0880605 34.3494981,13.0908496 C34.1576083,13.0926686 33.9596575,12.9994146 33.7741922,12.9339307 C33.1482167,12.7126192 32.522726,12.8786331 31.8778403,12.9653387 C26.1761779,13.7318647 20.3054148,15.4813773 15.4421038,18.629336 C11.1555533,21.403915 8.13562144,25.3941912 6.14290035,30.0595583 C4.10969209,34.8207261 2.94429149,39.9693405 1.96762905,45.0377977 C1.64045866,46.7360147 1.35474519,48.4421139 1.10927648,50.154034 C0.872050666,51.8082312 0.575306265,53.4994146 0.504271862,55.1703466 C0.476149027,55.8314919 0.634097538,56.445707 0.877141869,57.0496145 C1.15085464,57.7293136 1.79780107,57.9973127 2.41832174,58.3146673 C3.78046096,59.0117075 5.21739239,59.5523138 6.69784148,59.9351523 C7.60225732,61.5811034 8.36339216,63.2913257 8.97506383,65.0663044 C8.74814164,65.516082 8.74341409,66.1877775 8.69977521,66.6249435 C8.59152654,67.7135534 8.54522083,68.8078629 8.53552331,69.9014447 C8.51600703,72.0933378 8.64777221,74.2830481 8.7510509,76.4715458 C8.85578422,78.6912089 9.20392552,87.4489588 9.26065607,88.5184086 C9.30477983,89.3492058 9.24538246,90.5113032 9.68286226,91.2488465 C10.3551435,92.3825676 12.0143908,92.3443686 12.78292,91.425168 C31.8778403,95.5317148 67.770906,94.29482 82.2268071,92.2286803 C84.1076656,91.9598547 83.5170634,92.2580268 83.995394,91.7826619 C84.3543238,91.4256531 84.659796,90.8143484 84.7590744,90.3230975 C84.8916882,89.667288 84.6776152,89.0738094 84.3023208,88.5431469 C83.9077526,87.9853208 83.8358696,87.0818849 83.6893157,86.4185568 C83.3427503,84.8504589 83.1704979,77.9637308 83.0085492,77.2006003 C82.958122,76.9627966 82.9092707,76.711411 82.8503582,76.4599042 C85.5020264,76.7111685 88.2649738,76.7111685 90.7876648,75.8239823 C92.2181717,75.3208474 93.5523093,74.5305532 94.5792776,73.4021678 C95.8227433,72.0358575 96.5145409,70.3158126 96.870319,68.5204611 C97.3293758,66.2053612 97.4268359,63.8073149 97.3366489,61.4538948 C97.2113083,58.6725249 96.7501908,55.8519859 95.6056399,53.2982334 C95.9822677,52.9483794 96.2979223,52.5262505 96.5232686,52.0695606 Z" id="ðŸ–-Ink" fill="#000000"></path>
                                </g>
                                <g id="HEAD" transform="translate(20.421381, 0.024702)">
                                    <path d="M31.9070479,1.38138821 C37.3227642,1.38138821 43.8206441,4.0134268 44.3731107,4.06606757 L44.388025,4.06686784 C44.6786918,4.06686784 45.8144493,4.93431419 47.7952975,6.66920689 L45.6498153,10.8643031 L45.8234404,11.0305083 C46.6542899,11.8290898 47.3635863,12.5569737 47.923459,13.130765 C52.4948646,17.8158175 53.3164973,36.2106856 52.2391699,42.6255834 C51.1618426,49.0404812 49.166422,55.3175769 39.8766165,55.3175769 C30.5868111,55.3175769 20.2516913,49.7178126 18.6596308,47.9739793 C17.5982571,46.8114237 16.4060574,46.2544589 15.0830317,46.3030848 C15.0286558,46.2343006 14.9747186,46.1657179 14.92122,46.0973366 L14.7265618,46.069692 C12.8955215,45.8038409 11.5835378,45.4460085 10.7906605,44.9963142 C9.2419479,44.1179348 7.53972519,39.5001922 7.53972519,38.4829622 C7.53972519,37.4759044 4.99794903,30.1499073 4.94711351,29.3746477 L4.94634068,29.3531734 C4.94634068,28.7050842 1.62576563,25.7258617 1.62576563,24.7797191 C1.62576563,23.8335765 0.956449285,23.8909794 1.62576563,20.5569197 L1.82022101,19.5774704 C2.5324787,16.0276787 3.92656165,10.1497372 9.2419479,7.59559446 C15.0830317,4.78884424 26.4366275,1.38138821 31.9070479,1.38138821 Z" id="âœ‹-Skin" fill="#FFFFFF"></path>
                                    <path d="M31.9061312,1.41702223 C37.3218474,1.41702223 43.8197273,4.04906082 44.3721939,4.10170159 L44.3871082,4.10250186 C44.677775,4.10250186 45.8135325,4.96994821 47.7943807,6.70484091 L47.312829,7.64576303 C36.6498372,7.8556977 29.3106931,8.72449951 25.295397,10.2521685 C20.6404045,12.0232178 17.7182124,18.7517148 16.5288206,30.4376594 C14.9024312,31.2098286 13.2760418,32.2261573 11.6496524,33.4866456 C10.0232631,34.7471339 9.61157747,35.3981785 10.4145957,35.4397796 C10.3446349,38.1410496 10.5602507,40.0274407 11.061443,41.0989527 C11.5626353,42.1704647 13.2974177,42.8010439 16.2657902,42.9906905 L16.2657902,42.9906905 L17.0198978,45.5223721 L16.9157934,46.6957675 C16.335376,46.434138 15.7241499,46.3151217 15.0821149,46.3387188 L14.9203033,46.1329707 L14.9203033,46.1329707 L14.7256451,46.1053261 C12.8946047,45.8394749 11.582621,45.4816425 10.7897437,45.0319482 C9.24103112,44.1535688 7.53880841,39.5358263 7.53880841,38.5185962 C7.53880841,37.5115384 4.99703225,30.1855413 4.94619673,29.4102818 L4.9454239,29.3888074 C4.9454239,28.7407182 1.62484884,25.7614957 1.62484884,24.8153531 C1.62484884,23.8692105 0.955532504,23.9266135 1.62484884,20.5925537 L1.81930423,19.6131044 C2.53156192,16.0633127 3.92564487,10.1853712 9.24103112,7.63122848 C15.0821149,4.82447826 26.4357107,1.41702223 31.9061312,1.41702223 Z" id="ðŸ§¢-Hat" fill="#0566FF"></path>
                                    <path d="M8.34033582,7.46373681 C11.2534655,4.36394521 27.7917862,-0.430695271 36.1589816,0.585654483 L36.4100095,0.618239389 C37.0777273,0.703125982 37.7357681,0.831668538 38.3852205,1.00629239 C40.484419,1.49778576 42.6528086,2.24199865 44.3873025,3.48510218 C45.8353552,4.50204357 50.4032953,6.16278913 49.0569729,8.82313497 C49.5561888,9.77131821 49.7424724,10.9427532 49.4051055,11.876627 C49.3626474,12.199196 49.2634574,12.4962991 49.1365668,12.8043162 C50.2031009,14.3821154 51.0475463,16.1664316 51.7311104,17.8635572 C52.9256238,22.1346867 53.6689438,26.5795913 53.7778108,30.9373052 C54.1399752,39.2164159 53.2344433,49.1058253 46.0417187,54.4595015 C41.6965931,57.8519335 34.8902255,57.9659241 30.0072967,53.7596721 C29.7301696,53.4309185 28.4270311,52.5437323 28.8618944,52.3881473 C28.9913253,52.5251785 29.124385,52.6585717 29.259864,52.7895396 C29.2536948,52.7749876 29.2524852,52.7604357 29.2550254,52.744671 L29.1275994,52.6289861 C28.8876414,52.4064386 28.5767758,52.0836629 28.9308436,52.1468269 C28.9464479,52.1650168 28.9635037,52.1807815 28.9803176,52.1989715 C29.0553073,52.2440675 29.1119598,52.2831634 29.1560399,52.3176327 L29.1787145,52.335825 L29.1717092,52.3285197 C28.9677541,52.1104902 28.8454788,51.8881103 29.1504254,52.0301358 L29.1907939,52.0498136 C29.3263938,52.1929082 29.4641711,52.3299394 29.6044886,52.4633326 C29.6021903,52.4475679 29.6044886,52.4318033 29.613077,52.414826 L29.4822491,52.2881237 C29.3545405,52.1626667 29.3740321,52.1621314 29.4364705,52.0607276 C29.1650287,51.6793443 29.6717443,51.9058702 29.7073075,52.0546643 C30.0243525,51.979479 30.3026893,52.5761105 30.5068755,52.6488704 C39.4580447,59.5477251 52.4479394,53.4263104 52.2375841,34.2025286 L52.2343719,33.8264069 C52.1728498,27.6794678 51.6568534,21.361559 49.1207206,15.7971749 C48.8740763,15.2611767 48.5981588,14.7397305 48.2946617,14.2352616 C48.085395,13.8569099 47.8616128,13.4882596 47.6208956,13.1293106 C46.9470086,13.0747406 46.28171,12.9510487 45.6262095,12.7594476 C45.4010966,12.7024523 45.178524,12.6393937 44.9560724,12.5654211 C41.7045767,12.7431978 38.525538,12.936618 35.2649701,13.1199731 L34.2465156,13.183564 C31.4844259,13.3615809 28.627898,13.6467053 26.398959,15.3594026 C24.2119411,16.9186481 24.2020221,19.9933618 22.3298719,21.7052818 C19.66021,23.5217337 19.6407349,25.1596811 19.1266405,27.8365192 C19.164744,29.8543948 20.5604195,32.7862565 17.9992618,33.6354862 C18.431343,34.2530968 17.8290664,33.9563575 17.7816487,33.7397754 C17.7768102,33.7409881 17.7719716,33.7422008 17.7683427,33.7422008 C18.1533692,34.459735 17.5873815,34.0078958 17.5373027,33.7773681 C17.5070618,33.7688794 17.476821,33.7470514 17.4465801,33.7167348 C17.8345097,34.3453806 17.2074355,33.905183 17.2445713,33.7907074 C16.4949612,32.6356434 14.9521943,32.4562901 13.8647335,32.7623669 C13.8514275,32.8035976 13.8031631,32.8072356 13.7729222,32.7854076 C9.14885506,33.7899798 10.3419169,43.3865304 15.0805364,42.4588412 C15.283392,42.4173681 15.2785535,42.5149876 15.3188343,42.5243252 C15.2093624,42.2361958 15.51794,42.3534606 15.514674,42.4139726 L15.5334762,42.4130574 C15.548375,42.4117404 15.5422805,42.4101055 15.5533823,42.4139726 C15.4475393,41.8247384 16.043163,42.678455 15.9961082,42.713501 C16.0143737,42.702587 16.0349375,42.6965237 16.053082,42.6940984 L16.0325786,42.638164 C15.9337283,42.3741622 15.9422026,42.483892 15.9428843,42.332724 C15.8686128,42.1458522 15.8631695,42.2275859 15.8805882,42.1058343 C16.1416272,41.9030766 16.2186809,42.5181406 16.3057745,42.5631305 C16.1565057,42.354552 16.2751708,42.1841725 16.4159721,42.2974354 C17.483232,44.5479003 18.8618517,46.6624253 20.6435213,48.3281428 C20.8383934,48.4821514 21.0355637,48.6337346 21.2398708,48.7768291 C21.9977064,49.4385807 23.1601645,49.8641051 23.8696147,50.4503077 C23.8696147,50.460009 23.8648972,50.4721356 23.8576394,50.4842623 L23.8738787,50.4989659 L23.8738787,50.4989659 L23.8902995,50.5145789 L24.1370648,50.6334202 C24.2096428,50.6952661 24.274963,50.7643881 24.3329045,50.840786 C24.3947168,50.9123333 24.4490293,50.9911565 24.4951164,51.0748305 C24.5180994,51.1766944 24.4672948,51.2191377 24.3705241,51.1754817 C24.3280659,51.1609297 24.2858497,51.1439524 24.2435125,51.1281877 C24.2459318,51.1318257 24.2470205,51.1342511 24.2495607,51.1366764 C24.2634413,51.1577248 24.3574057,51.3761021 24.2491318,51.3405694 L24.2362547,51.3355536 C24.1768617,51.3137256 24.1177106,51.2894723 24.0596482,51.2664316 C24.1285973,51.3525309 24.1913773,51.4459061 24.2470205,51.5247294 C24.3064135,51.5865753 24.3425816,51.6593353 24.3572181,51.7417965 C24.3546779,51.7878778 24.3293965,51.8072805 24.2834305,51.8012172 C24.2132717,51.7781765 24.1443226,51.7539232 24.0752525,51.7284572 L24.0948951,51.7660226 C24.143695,51.8622505 24.2130493,52.0236435 24.0898891,51.9697777 C23.9845299,51.9370357 23.8830417,51.8994431 23.7814324,51.8582124 C23.772844,51.8751898 23.7560301,51.8812531 23.7221604,51.8654884 C23.3991881,51.7502852 23.0871026,51.609616 22.7883231,51.4434808 C22.5258325,51.2518796 22.2608018,51.0639165 21.9972226,50.873528 C21.7491267,50.7243701 21.5096192,50.5582349 21.2811193,50.3714844 C19.7514164,49.3809791 18.4122308,48.1227173 17.3498094,46.7213609 C15.5729783,48.2639928 12.0204048,46.7902403 9.82286303,45.5826679 C7.87910245,44.5033955 7.11509773,42.5078329 6.91756453,40.3563216 C6.50689385,37.4597485 4.14568864,36.4682731 4.30995692,30.1126926 C4.30632801,30.1139052 4.30257815,30.1139052 4.29773961,30.1139052 C4.21185561,30.0884393 4.12851184,30.0544846 4.04988565,30.0108287 C3.96884018,29.9720234 3.89263325,29.9259421 3.82114389,29.8701594 L3.73284062,29.7476802 L3.73284062,29.7476802 C3.6869955,29.7222142 3.64586795,29.6955356 3.61441747,29.668857 L3.59810709,29.6899445 C3.54647637,29.7524054 3.58118278,29.658428 3.58417663,29.639753 L3.43077734,29.4306167 C3.06705628,28.9327784 2.6680151,28.3741848 2.34297137,27.9274691 L2.33273286,27.9456202 C2.32537984,27.9593202 2.32149173,27.9692195 2.32494783,27.9735504 C1.551387,26.8593532 0.823913226,25.5135369 0.621783415,24.210649 C0.383122664,23.2070469 0.476385431,22.1728857 0.68456341,21.2432562 C1.5771522,17.9878554 4.50107906,10.6211543 8.34033582,7.46373681 Z M29.3332628,52.4843156 L29.2847885,52.441036 L29.3274108,52.4945724 C29.3497464,52.5222391 29.3726127,52.547106 29.4098586,52.5724725 C29.4074393,52.5639838 29.4074393,52.5554952 29.408528,52.5457938 C29.383827,52.526891 29.3585707,52.5062191 29.3332628,52.4843156 Z M36.1219956,2.22138334 C30.4478453,1.73231529 24.8669578,2.98548394 19.4523949,4.50240737 L19.0788756,4.61003367 C16.0000983,5.49073803 12.7446141,6.28323045 10.1428112,8.16829553 C6.50774059,10.959488 4.63063084,15.3997844 2.99254473,19.4994431 C1.56215274,22.5454166 2.29337638,25.9800494 4.44894384,28.1069436 C4.67320995,25.9933887 5.0555752,23.9416798 5.6531343,21.9064631 C5.77784755,21.5885021 5.68349611,21.4843342 5.95227675,21.442861 C6.35822985,26.9275051 4.35882612,30.9797485 8.31553833,37.4798787 C10.0323716,40.5469526 8.04494324,42.7911116 12.8931556,44.4050483 L13.0243574,44.4553072 C14.0344115,44.8374002 15.1374598,45.139004 16.1267487,44.9254031 L16.038118,44.7808731 C15.9477276,44.6320351 15.9202982,44.5597844 16.0517514,44.4961195 C16.0482435,44.4888435 16.0434049,44.4815675 16.0384454,44.4730788 C15.9321186,44.2717763 15.8292997,44.0680485 15.7311984,43.8618954 C15.6914015,43.8752347 15.6514836,43.884936 15.610235,43.89585 C15.636968,43.9455693 15.6404759,43.9952886 15.5655996,44.0122659 C15.2990447,44.1039434 15.0253244,44.1406899 14.7451273,44.1234912 L14.6849861,44.1189805 C14.368425,44.0995778 14.1689564,44.0417337 13.9905354,43.9880126 C13.9313843,43.9783113 13.8721122,43.9686099 13.8139288,43.9564833 C13.2399576,43.8289108 12.6323585,43.5044015 12.2391066,43.1828026 C7.75644558,40.630384 8.21973533,31.9417561 13.7451007,31.1204177 C13.8584434,25.6498406 16.4539546,16.4204851 20.7614606,11.2075994 C24.65503,6.41259825 35.2845662,4.33433191 42.6797834,5.06714574 C42.7875618,5.10291938 42.8953402,5.13905682 43.0031186,5.17555805 C44.1440452,5.27717943 45.231385,5.78674152 46.3731584,6.02345385 C45.5533895,5.40754098 44.6234231,4.9972962 43.665514,4.64865484 C41.7569538,3.47831125 39.5689682,2.84505726 37.4551331,2.39843252 C37.0172456,2.29050528 36.57331,2.23108466 36.1219956,2.22138334 Z M13.4922025,35.5151058 C13.7892886,35.3533362 13.7552979,35.5095275 13.8236422,35.4641738 C15.9605813,35.2894287 18.2648127,37.1650586 19.4593261,38.7286697 C19.3649747,38.8268956 19.109742,38.5358558 19.0649855,38.4897745 C19.0589373,38.4958379 19.0516795,38.5006885 19.0444217,38.5031139 L19.0776835,38.5501759 C19.5618317,39.2466984 18.6020612,38.4270848 18.5121829,38.2581554 C18.4964576,38.2666441 18.4807324,38.2714947 18.4625879,38.2678567 C18.5386738,38.3426782 18.7710445,38.5377961 18.8109624,38.676525 L18.8725684,38.7279218 C19.4534834,39.2266277 19.4052715,39.6017782 18.7457631,38.8935922 C18.7613674,38.9263342 18.7674156,38.9566508 18.7565289,38.9809041 L18.7792374,38.9960749 C19.1035458,39.2232722 19.3702586,39.8566085 18.6924183,39.2064599 C18.7629399,39.6813398 18.0207086,38.7634732 17.9968789,38.7699003 C16.7124897,37.7591435 14.8214691,36.7761567 13.2103578,36.6440975 L13.154907,36.6377106 C12.8592663,36.59963 12.7194884,36.5116917 12.823275,36.3178904 C12.4591752,36.2310636 12.5444544,36.0513465 12.7168273,36.0571673 C12.460022,35.8878792 12.691183,35.7259883 12.8402099,35.7891682 C12.7377539,35.5047981 13.1486665,35.6942165 13.1861652,35.6545623 C13.3994236,35.3248385 13.4568812,35.5998711 13.4922025,35.5151058 Z M9.01294061,17.889011 C10.0393149,17.5121145 13.0710201,18.6403786 12.8284885,20.1346252 C12.6840583,20.4776883 12.2081883,20.6742614 11.8737246,20.4805987 L11.4371885,20.1866777 C10.677502,19.676635 9.99234928,19.2293958 9.17672503,18.7845646 C8.73278942,18.5637382 8.54166727,18.0949216 9.01294061,17.889011 Z M14.8524358,15.6684747 L14.4560461,15.4098731 C12.3169374,14.0063821 9.29294664,11.8797581 14.6558703,14.080004 C15.2670982,14.3427887 16.0792464,14.4982524 16.4127424,15.0817871 C16.9366348,16.1573002 15.5578942,16.2295751 14.8524358,15.6684747 Z M15.0928142,9.37122344 C14.9211671,8.71820301 17.0570176,9.48448641 17.6787694,9.68651651 L17.7734705,9.72237342 C18.3782894,9.94830252 19.0715901,10.1578918 19.4333432,10.6811448 C19.8571989,11.4041361 18.9993266,11.5539003 18.4679345,11.2273294 C17.3784173,10.5135545 16.1839039,9.97500966 15.0928142,9.37122344 Z M20.5241063,6.32926387 C19.3218984,5.013113 22.5393475,6.27394063 23.0213041,6.62392605 L23.0350642,6.63424927 C23.3946883,6.88806018 23.3217474,7.43472985 22.9838967,7.59528677 C22.0226007,7.61359802 21.3152068,6.81032832 20.5241063,6.32926387 Z M25.9947962,4.88725893 C24.0835748,3.51027712 26.6011856,4.16523782 27.4756299,4.70487402 C28.0716165,5.23177723 27.4577273,6.12126746 25.9947962,4.88725893 Z" id="ðŸ–-Ink" fill="#000000"></path>
                                </g>
                                <g id="FACE" transform="translate(48.301778, 22.580283)" fill="#000000">
                                    <path d="M11.4576189,23.4786299 C10.6427506,23.1460745 9.91568206,22.5913501 9.3841248,21.8827256 C9.19932184,21.6363786 9.15140557,21.37624 9.19017319,21.1383101 C9.23376465,20.8707746 9.39198078,20.6283014 9.60775211,20.4656578 C9.82419178,20.3025104 10.0949303,20.2220501 10.3566781,20.2630665 C10.5841215,20.2987073 10.8105306,20.4232866 10.9897164,20.6816596 L11.0271528,20.7333281 C11.3431728,21.1610294 11.7549759,21.5119533 12.2241968,21.738144 C12.6764495,21.9561551 13.1822484,22.0579092 13.7056677,21.9987371 C14.7025535,21.8860828 15.3896574,21.3467452 16.1199738,20.6143339 C16.2104987,20.5218651 16.3010815,20.4264976 16.3921034,20.3295949 C16.4495856,20.2417531 16.5293564,20.1852971 16.6179237,20.1556756 C16.7162619,20.1227862 16.8275054,20.124647 16.929396,20.1602185 C17.0276699,20.1945274 17.1155219,20.2595411 17.174429,20.3460702 C17.2304154,20.428309 17.262158,20.529904 17.2518583,20.6467633 C17.1850112,21.4057878 16.7883396,22.0831847 16.2248842,22.6150845 C15.599095,23.2058271 14.7695657,23.6145067 13.9886002,23.7578435 C13.1282054,23.9157345 12.2514861,23.8026146 11.4576189,23.4786299 L11.4576189,23.4786299 Z M14.3944838,11.7692036 C15.3098553,12.3258226 16.7046002,13.6237497 15.7198712,15.0036761 C14.560751,16.2204028 12.8918796,14.8253425 12.0694887,14.1944111 C11.3069293,13.7054357 10.4501511,14.9630438 11.1576542,15.534005 C17.1002681,19.9354035 19.5119067,11.9147517 14.8574659,11.114756 C14.3449953,11.0265999 14.1546624,11.5970074 14.3944838,11.7692036 Z M3.74526264,6.64923782 C3.84639919,5.39336786 5.75834853,5.10818235 5.94854133,6.35092208 C6.11885419,7.46414911 5.91835777,8.48679003 5.41711672,9.48905816 C4.93817998,10.4465789 3.73441143,9.99985042 3.64337587,9.12794384 C3.52134649,7.95918931 3.68234992,7.43046081 3.74526264,6.64923782 Z M18.2992785,6.09324276 C18.5658393,5.74399506 18.95071,5.505585 19.4118275,5.64031215 C20.8525167,6.06147092 20.4278862,8.10760162 19.9219176,9.10356389 C19.6469926,9.64441276 18.7583353,9.78156524 18.3567363,9.30535145 C17.7021531,8.52876039 17.3886804,6.97788233 18.2208497,6.21293285 C18.2433964,6.17339996 18.2684888,6.13350326 18.2992785,6.09324276 Z M5.39682464,1.15393443 L5.62439789,1.11408684 C6.32841417,0.992281249 7.20377742,0.875239614 7.70180616,1.44145744 C7.96594262,1.74171345 8.05685696,2.29978217 7.70180616,2.58718392 C7.07728527,3.09286548 6.38682117,2.89689872 5.63841434,2.93970582 C5.02165147,2.97511565 4.42888998,3.0772221 3.83479508,3.24711655 C2.53144713,3.6197687 1.46944643,4.30007411 0.356291272,5.04707613 C0.210222235,5.14505951 0.0611227199,4.95818774 0.130823713,4.82152032 C0.773406257,3.56240961 2.01869026,2.52812711 3.26603498,1.89766225 C3.93177038,1.56114754 4.66029728,1.28199192 5.39682464,1.15393443 Z M16.9859755,0.589910011 L17.1601589,0.625572182 C19.0556909,1.02194511 21.5184307,1.81373259 22.4160565,3.67632086 C22.4502602,3.93969743 22.4141208,3.9961443 22.3847329,4.03302346 L22.3749483,4.0452956 C22.3507327,4.07678824 22.3314105,4.12020068 22.2172964,4.1560467 C22.1856297,4.14849882 22.1536478,4.1405046 22.1213272,4.13203123 C21.7098712,4.02416151 21.3843299,3.87555579 21.0691715,3.72135961 L20.7274597,3.55294468 C20.3310059,3.35847938 19.9310516,3.17109171 19.5071919,3.03275504 C18.602639,2.73759891 17.6722285,2.52967984 16.7274031,2.41865578 C16.5226195,2.39461268 16.3254257,2.3254712 16.169854,2.20697398 C16.0221852,2.09449634 15.9093758,1.93876843 15.857941,1.7317721 C15.7912815,1.46388579 15.810438,1.26107388 15.9541143,1.0194012 C16.06215,0.83791019 16.2167319,0.712113204 16.3942309,0.639876297 C16.5751835,0.566233902 16.7811963,0.548872732 16.9859755,0.589910011 Z" id="ðŸ–-Ink"></path>
                                </g>
                                <g id="FACIAL-HAIR" transform="translate(50.823128, 38.717677)" fill="#000000">
                                    <path d="M12.0064668,0.356440153 C10.6583889,-0.250984056 8.23764315,0.279072086 7.35880455,0.489833371 C5.31565631,0.979992814 3.26026495,2.03925623 2.62507677,3.69878913 C1.90927788,5.56908331 3.33748153,6.15783247 3.54755426,6.06166809 C4.96193893,6.1613492 6.64627857,5.27185897 8.12842473,5.04230137 C9.33164569,4.8543382 10.6009311,4.69026454 11.7282689,4.05070469 C12.5513467,4.5036353 14.4103631,4.74847249 15.9106921,5.14452908 C17.1884628,5.48165012 17.7420705,6.21276623 18.9266238,6.05730249 C20.3463421,5.87103705 19.7652176,2.88387784 18.1829445,1.67375881 C16.4512082,0.349406692 13.5223118,-0.18768291 12.0064668,0.356440153 Z M14.6756875,13.1288772 C13.4962732,13.416539 13.4170694,10.830512 13.2849405,9.91688974 C13.1817154,9.20312601 12.5995414,7.36241885 11.1236037,7.44183921 C9.64766592,7.52125957 9.09286007,9.06344739 9.1677332,10.0226342 C9.21628658,10.6446432 9.78925398,13.7953643 7.96039079,14.1939614 C6.79438409,14.1898383 5.44545775,14.1111363 4.21944759,13.8849742 C2.77645521,13.5580395 0.900081875,12.4133881 0.404439506,14.6676286 C0.226057551,15.4789309 6.58249307,17.8893173 9.40314073,18.1073546 C12.2637149,18.6872608 15.6106118,17.7955555 17.6472473,15.6063812 C18.1105814,15.1083445 19.4155411,13.0411506 19.5085312,12.5346547 C19.7038963,11.4705453 19.2515713,10.7857819 17.9353908,11.1608421 C17.0056402,11.65755 15.4341638,12.9438831 14.6756875,13.1288772 Z" id="ðŸ–-Ink"></path>
                                </g>
                                <g id="ACCESORIES" transform="translate(29.561302, 24.086009)" fill="#000000">
                                    <path d="M43.9836822,11.0020566 C42.5119609,12.5233456 40.0550918,12.9599052 38.0970394,12.1440238 C33.0693552,10.0425956 35.5302245,3.48813788 39.4076605,1.72795374 C39.8920521,1.60717224 40.5389985,1.32061936 41.1289719,1.25562048 C41.1823084,1.2294269 41.2984363,1.3052185 41.4391717,1.23354997 C45.7146912,1.71109769 46.6883231,8.35068448 43.9836822,11.0020566 M27.767231,11.3914435 C26.1165903,13.5816389 23.0478071,14.2573362 20.5405109,13.2391821 C15.5872553,11.2877606 17.3440839,5.47557557 20.7330068,3.19697687 C27.8918443,0.505950595 30.8480149,7.35314574 27.767231,11.3914435 M17.0296415,6.53859825 C17.0250352,6.53641545 17.0204289,6.53532405 17.0157013,6.53314125 C17.0418847,6.52162093 17.068068,6.51010061 17.0941301,6.49833775 C17.0856448,6.52052953 17.0764321,6.54247878 17.0681892,6.56467056 C17.05534,6.5558181 17.0440666,6.54551044 17.0296415,6.53859825 M47.391394,4.17111116 C46.9872495,4.17196003 46.4034582,4.2384141 46.0688934,4.51890366 C45.2438761,1.73547227 42.1986094,-0.840593308 39.5502142,1.03782574 C37.4646392,1.70879362 35.9170347,3.1968556 35.0374688,5.17519829 C33.4515591,4.23150191 30.9578394,4.63447069 29.5826085,5.88242488 C28.6819505,2.90520952 26.4653377,1.86268089 23.8270036,1.70879362 C20.9473222,1.23694543 18.0770959,4.03468628 17.1815291,6.27908781 C16.4368801,6.19432248 15.3242098,5.95724635 14.6236845,6.41696789 C10.077119,5.22418998 2.12817536,4.56656142 1.20387959,5.22928318 C0.545174902,5.48212396 0.183699492,7.03748888 1.1037526,7.12140534 C1.90549584,7.00753604 1.01017144,5.9817422 1.8183393,5.86981316 C6.12440603,5.60278419 10.3046473,6.47032517 14.5651356,6.83436739 C14.9455212,7.34623355 16.1745619,7.51746194 16.8302361,7.31179385 C15.7975704,11.1190788 18.02679,13.7093326 21.3669828,14.485196 C26.5390389,15.6737296 31.0388138,11.0452275 29.6863721,6.23094498 C31.2531292,5.45120099 33.0552938,5.48467056 34.762059,5.8954004 C31.9100156,16.395872 48.8148701,15.9247514 46.1745965,4.87870155 C47.9316676,5.75303346 48.3132654,4.34755401 47.391394,4.17111116" id="ðŸ–-Ink"></path>
                                </g>
                            </g>
                        </g>
                    </g>
                </g>
            </g>
        </g>
    </g>
</svg>