<?xml version="1.0" encoding="UTF-8"?>
<svg width="48px" height="48px" viewBox="0 0 48 48" version="1.1" xmlns="http://www.w3.org/2000/svg" xmlns:xlink="http://www.w3.org/1999/xlink">
    <!-- Generator: Sketch 62 (91390) - https://sketch.com -->
    <title>paint-palette</title>
    <desc>Created with Sketch.</desc>
    <g id="Home-Page_17/09/2020" stroke="none" stroke-width="1" fill="none" fill-rule="evenodd">
        <g id="Signup-page_White-theme" transform="translate(-1086.000000, -397.000000)" fill-rule="nonzero">
            <g id="Group-8-Copy-6" transform="translate(846.000000, 355.000000)">
                <g id="Group-7-Copy-2" transform="translate(224.000000, 26.000000)">
                    <g id="Group-10" transform="translate(16.000000, 16.000000)">
                        <g id="paint-palette">
                            <circle id="Oval" fill="#000000" cx="31.5863438" cy="22.125" r="1"></circle>
                            <path d="M31.7472187,26.142 C31.2354375,26.0659688 30.7583437,26.419875 30.6825,26.9320313 C30.4262812,28.6621875 28.9637812,30.097125 26.7704062,30.770625 C24.426,31.4905313 21.1718437,31.2492188 19.1866875,29.0874375 C18.8364375,28.7060625 18.243375,28.6809375 17.8620937,29.031 C17.4807187,29.38125 17.4555,29.9743125 17.8056562,30.3555938 C18.9548437,31.6070625 20.5156875,32.46 22.3194375,32.8221563 C22.956375,32.9500313 23.617125,33.0135 24.2821875,33.0135 C25.3095,33.0135 26.3469375,32.8620938 27.3208125,32.5630313 C30.222375,31.672125 32.1724687,29.6698125 32.53725,27.2067188 C32.6130937,26.6945625 32.259375,26.2178438 31.7472187,26.142 Z" id="Path" fill="#464546"></path>
                            <path d="M44.7774375,17.8510312 C43.0734375,15.875625 40.721625,14.5948125 37.89075,14.0804062 C40.6010625,12.2513438 42.9388125,10.4310938 44.6056875,8.84278125 C47.1471562,6.421125 47.9993437,4.719375 47.2877812,3.48759375 C46.4959687,2.11565625 44.21025,2.125125 40.0940625,3.5176875 C36.6162187,4.69425 32.2836562,6.73771875 27.8946562,9.27178125 C27.1365,9.70940625 26.3854687,10.1575313 25.6506562,10.609125 C25.1056875,9.07003125 25.465125,7.3119375 26.6675625,5.78746875 C27.5682187,4.64559375 27.7693125,3.19528125 27.1924687,2.0023125 C26.5877812,0.75196875 25.2606563,0.003375 23.6401875,0 L23.596125,0 C17.8768125,0 12.2826562,2.25665625 7.84425,6.35428125 C3.4003125,10.4569687 0.6796875,15.8880938 0.1835625,21.6470625 C-0.41334375,28.5826875 1.80365625,35.1765 6.426,40.2137812 C10.9666875,45.1620937 17.4040312,48 24.087375,48 C27.6855,48 31.0633125,47.3416875 34.1267813,46.0431563 C36.9280312,44.8558125 39.4155937,43.1604375 41.5204687,41.0039062 C43.4720625,39.0043125 45.0107813,36.7024688 46.093875,34.162125 C47.1245625,31.744875 47.687625,29.18325 47.7225,26.7542813 C47.7732187,23.2219687 46.7548125,20.1433125 44.7774375,17.8510312 Z M25.76025,12.748875 C26.7525,12.1230937 27.7859063,11.4995625 28.8320625,10.895625 C32.890125,8.552625 36.931125,6.62278125 40.2107812,5.4615 C43.8210937,4.18321875 45.29925,4.26665625 45.643875,4.43165625 C45.6140625,4.6498125 45.343125,5.62040625 42.9739688,7.80215625 C40.9956563,9.624 38.10675,11.7664688 34.8394688,13.834875 C33.806625,14.4889688 32.7316875,15.1390313 31.6446563,15.7667813 C30.1460625,16.6317188 28.6485938,17.4405 27.178875,18.1810313 C26.885625,17.3251875 26.5097813,16.4946563 26.052375,15.7022813 C25.6090313,14.934375 25.0948125,14.2134375 24.5200313,13.5464063 C24.9268125,13.2797813 25.3407187,13.0131562 25.76025,12.748875 Z M25.4803125,19.0126875 C22.8330937,20.2680937 20.4040312,21.2251875 18.46425,21.780375 C18.3632812,21.2954062 18.1857187,20.8266562 17.9338125,20.3899687 C17.6950312,19.9760625 17.3955,19.6060313 17.0492812,19.2869063 C18.5014688,17.8854375 20.5454062,16.2616875 22.9521562,14.6005312 C23.5109063,15.225 24.0062812,15.9080625 24.428625,16.6395937 C24.8654062,17.3961562 25.2169687,18.1919062 25.4803125,19.0126875 Z M45.8476875,26.727375 C45.714,36.05625 37.3564687,46.125 24.087375,46.125 C17.9278125,46.125 11.9940938,43.5084375 7.80759375,38.9461875 C3.5445,34.3005 1.50046875,28.2139687 2.05171875,21.8079375 C2.9985,10.816875 12.6632813,1.875 23.596125,1.875 L23.6382188,1.875 C24.535125,1.876875 25.215375,2.22075 25.5044063,2.81859375 C25.7701875,3.36815625 25.6546875,4.04390625 25.1953125,4.62628125 C23.5056563,6.76846875 23.0819062,9.403125 24.0365625,11.6245312 C23.5339687,11.9483437 23.04,12.2735625 22.5627187,12.5961562 C22.5604687,12.5976562 22.5582187,12.5991562 22.5560625,12.6006562 C19.5749062,14.61225 17.0575312,16.6131563 15.3825938,18.297 C14.1122812,17.8628437 12.7165313,17.9894062 11.5302187,18.6741562 C9.58246875,19.79925 7.02496875,25.0422187 6.532125,26.0818125 C6.400125,26.3600625 6.41334375,26.6854687 6.56728125,26.9521875 C6.7213125,27.2189062 6.99646875,27.393 7.30340625,27.4179375 C7.8215625,27.4599375 9.29296875,27.5660625 10.9306875,27.5660625 C12.918,27.5660625 15.15,27.4096875 16.2178125,26.7929062 C17.3745,26.1252187 18.17625,25.0095937 18.4539375,23.7270937 C20.7529688,23.123625 23.7568125,21.9430312 27.010125,20.358 C28.8329063,19.4708437 30.7075313,18.4725 32.5821563,17.390625 C33.5330625,16.8414375 34.4731875,16.2752812 35.386875,15.70425 C35.3924063,15.7045312 35.39775,15.705375 35.4032812,15.7055625 C43.21725,15.929625 45.9220312,21.546 45.8476875,26.727375 Z M16.6820625,22.9096875 C16.6220625,23.8525312 16.0981875,24.6970313 15.2803125,25.1691563 C14.3937188,25.6813125 11.3479688,25.7503125 8.8471875,25.6359375 C9.99796875,23.4136875 11.580375,20.810625 12.4679063,20.298 C13.3058438,19.81425 14.3189063,19.7930625 15.1784063,20.2414687 C15.6508125,20.4874687 16.0419375,20.86275 16.3096875,21.3269063 C16.5882187,21.8097188 16.7169375,22.3570312 16.6820625,22.9096875 Z" id="Shape" fill="#464546"></path>
                            <path d="M16.5864375,5.7975 C14.5186875,5.7975 12.8364375,7.47975 12.8364375,9.5475 C12.8364375,11.61525 14.5186875,13.2975 16.5864375,13.2975 C18.6541875,13.2975 20.3364375,11.61525 20.3364375,9.5475 C20.3364375,7.47975 18.6541875,5.7975 16.5864375,5.7975 Z M16.5864375,11.4225 C15.5525625,11.4225 14.7114375,10.581375 14.7114375,9.5475 C14.7114375,8.513625 15.5525625,7.6725 16.5864375,7.6725 C17.6203125,7.6725 18.4614375,8.513625 18.4614375,9.5475 C18.4614375,10.581375 17.6203125,11.4225 16.5864375,11.4225 Z" id="Shape" fill="#464546"></path>
                            <path d="M11.8989375,30.9890625 C9.8311875,30.9890625 8.1489375,32.6713125 8.1489375,34.7390625 C8.1489375,36.8068125 9.8311875,38.4890625 11.8989375,38.4890625 C13.9666875,38.4890625 15.6489375,36.8068125 15.6489375,34.7390625 C15.6489375,32.6713125 13.9666875,30.9890625 11.8989375,30.9890625 Z M11.8989375,36.6140625 C10.8650625,36.6140625 10.0239375,35.7729375 10.0239375,34.7390625 C10.0239375,33.7051875 10.8650625,32.8640625 11.8989375,32.8640625 C12.9328125,32.8640625 13.7739375,33.7051875 13.7739375,34.7390625 C13.7739375,35.7729375 12.9328125,36.6140625 11.8989375,36.6140625 Z" id="Shape" fill="#464546"></path>
                            <path d="M21.2739375,36.6140625 C19.2061875,36.6140625 17.5239375,38.2963125 17.5239375,40.3640625 C17.5239375,42.4318125 19.2061875,44.1140625 21.2739375,44.1140625 C23.3416875,44.1140625 25.0239375,42.4318125 25.0239375,40.3640625 C25.0239375,38.2963125 23.3416875,36.6140625 21.2739375,36.6140625 Z M21.2739375,42.2390625 C20.2400625,42.2390625 19.3989375,41.3979375 19.3989375,40.3640625 C19.3989375,39.3301875 20.2400625,38.4890625 21.2739375,38.4890625 C22.3078125,38.4890625 23.1489375,39.3301875 23.1489375,40.3640625 C23.1489375,41.3979375 22.3078125,42.2390625 21.2739375,42.2390625 Z" id="Shape" fill="#464546"></path>
                            <path d="M32.5239375,34.7390625 C30.4561875,34.7390625 28.7739375,36.4213125 28.7739375,38.4890625 C28.7739375,40.5568125 30.4561875,42.2390625 32.5239375,42.2390625 C34.5916875,42.2390625 36.2739375,40.5568125 36.2739375,38.4890625 C36.2739375,36.4213125 34.5916875,34.7390625 32.5239375,34.7390625 Z M32.5239375,40.3640625 C31.4900625,40.3640625 30.6489375,39.5229375 30.6489375,38.4890625 C30.6489375,37.4551875 31.4900625,36.6140625 32.5239375,36.6140625 C33.5578125,36.6140625 34.3989375,37.4551875 34.3989375,38.4890625 C34.3989375,39.5229375 33.5578125,40.3640625 32.5239375,40.3640625 Z" id="Shape" fill="#464546"></path>
                            <path d="M40.0239375,25.3640625 C37.9561875,25.3640625 36.2739375,27.0463125 36.2739375,29.1140625 C36.2739375,31.1818125 37.9561875,32.8640625 40.0239375,32.8640625 C42.0916875,32.8640625 43.7739375,31.1818125 43.7739375,29.1140625 C43.7739375,27.0463125 42.0916875,25.3640625 40.0239375,25.3640625 Z M40.0239375,30.9890625 C38.9900625,30.9890625 38.1489375,30.1479375 38.1489375,29.1140625 C38.1489375,28.0801875 38.9900625,27.2390625 40.0239375,27.2390625 C41.0578125,27.2390625 41.8989375,28.0801875 41.8989375,29.1140625 C41.8989375,30.1479375 41.0578125,30.9890625 40.0239375,30.9890625 Z" id="Shape" fill="#464546"></path>
                        </g>
                    </g>
                </g>
            </g>
        </g>
    </g>
</svg>