<?xml version="1.0" encoding="UTF-8"?>
<svg width="32px" height="32px" viewBox="0 0 32 32" version="1.1" xmlns="http://www.w3.org/2000/svg" xmlns:xlink="http://www.w3.org/1999/xlink">
    <title>behance</title>
    <g id="Design" stroke="none" stroke-width="1" fill="none" fill-rule="evenodd">
        <g id="08.2_Artist-Details" transform="translate(-1153.000000, -1015.000000)" fill-rule="nonzero">
            <g id="Group-24" transform="translate(374.000000, 903.000000)">
                <g id="Group-8-Copy-5" transform="translate(771.000000, 104.000000)">
                    <g id="behance" transform="translate(8.000000, 8.000000)">
                        <circle id="Oval" fill="#4176FA" cx="15.8861593" cy="15.8861593" r="15.8861593"></circle>
                        <path d="M21.5813097,13.123115 C16.9928496,13.123115 16.9869027,17.6943009 16.9869027,17.7178053 C16.9869027,17.7178053 16.6725664,22.2946549 21.5813097,22.2946549 C21.5813097,22.2946549 25.6750442,22.5274336 25.6750442,19.1093805 L23.5729558,19.1093805 C23.5729558,19.1093805 23.6426195,20.396177 21.6512566,20.396177 C21.6512566,20.396177 19.5491681,20.5360708 19.5491681,18.3173097 L25.7449912,18.3173097 C25.7449912,18.3173097 26.4263363,13.123115 21.5813097,13.123115 Z M19.5256637,16.7158938 C19.5256637,16.7158938 19.7819469,14.8757522 21.6280354,14.8757522 C23.4797876,14.8757522 23.4506467,16.7158938 23.4506467,16.7158938 L19.5256637,16.7158938 Z M14.2736991,15.539823 C14.2736991,15.539823 16.0962832,15.4058761 16.0962832,13.2630088 C16.0962832,11.1260885 14.6055929,10.0777345 12.7130619,10.0777345 L6.48778761,10.0777345 L6.48778761,22.0440354 L12.7124956,22.0440354 C12.7124956,22.0440354 16.515115,22.160708 16.515115,18.5095929 C16.5153982,18.5095929 16.6785133,15.539823 14.2736991,15.539823 Z M9.23072566,12.2030442 L12.7127788,12.2030442 C12.7127788,12.2030442 13.5572389,12.2030442 13.5572389,13.4490619 C13.5572389,14.6950796 13.0622301,14.8757522 12.4972743,14.8757522 L9.23072566,14.8757522 L9.23072566,12.2030442 Z M12.5383363,19.9187257 L9.23072566,19.9187257 L9.23072566,16.7158916 L12.7127788,16.7158916 C12.7127788,16.7158916 13.9766372,16.7042832 13.9707112,18.3637522 C13.9707112,19.7615575 13.0333451,19.907115 12.5383363,19.9187257 Z M19.0074336,10.7823009 L19.0074336,12.2557168 L23.9456283,12.2557168 L23.9456283,10.7823009 L19.0074336,10.7823009 Z" id="Shape" fill="#F1F2F2"></path>
                    </g>
                </g>
            </g>
        </g>
    </g>
</svg>