<?xml version="1.0" encoding="UTF-8"?>
<svg width="41px" height="48px" viewBox="0 0 41 48" version="1.1" xmlns="http://www.w3.org/2000/svg" xmlns:xlink="http://www.w3.org/1999/xlink">
    <!-- Generator: Sketch 62 (91390) - https://sketch.com -->
    <title>shopping-bag</title>
    <desc>Created with Sketch.</desc>
    <g id="Home-Page_17/09/2020" stroke="none" stroke-width="1" fill="none" fill-rule="evenodd">
        <g id="Signup-page_White-theme" transform="translate(-864.000000, -397.000000)" fill="#464546" fill-rule="nonzero">
            <g id="Group-8-Copy-6" transform="translate(846.000000, 355.000000)">
                <g id="Group-7" transform="translate(0.000000, 26.000000)">
                    <g id="Group-10" transform="translate(16.000000, 16.000000)">
                        <g id="shopping-bag" transform="translate(2.250000, 0.000000)">
                            <path d="M20.3624554,-2.59792188e-14 C23.6166192,-2.59792188e-14 26.4376784,2.315735 27.1063259,5.45740046 L34.3544554,7.15223762 C34.5640396,7.20118812 34.7453465,7.33116832 34.8589307,7.51437624 C34.9725149,7.69687129 35.0086337,7.91738614 34.9592079,8.12673267 L34.9592079,8.12673267 L34.393189,10.543 L35.7730693,10.5438416 C36.0225743,10.5438416 36.2558874,10.6580941 36.4083778,10.850463 L36.4685941,10.9375842 L38.9018614,14.9931089 C38.9053776,14.9989637 38.9088137,15.0048524 38.9121697,15.0107735 C38.9266338,15.035379 38.9395618,15.0611954 38.9511143,15.0877627 C38.9557122,15.0996807 38.9603198,15.111031 38.9646599,15.1224579 C38.9760255,15.1506758 38.9854804,15.1804593 38.9932181,15.2109481 C38.994046,15.2167503 38.9954204,15.222435 38.9967325,15.228131 C39.0078953,15.273697 39.0146025,15.3208987 39.0171089,15.3692673 L39.0117665,15.3145161 C39.0132796,15.327253 39.0144901,15.3400188 39.0153979,15.3528025 L39.0171089,15.3692673 L40.6393663,47.0017426 C40.6505347,47.2239208 40.5702178,47.4408713 40.4174257,47.6019802 C40.2634455,47.7630891 40.0507723,47.8543366 39.8285941,47.8543366 L39.8285941,47.8543366 L0.896316832,47.8543366 C0.67390099,47.8543366 0.461465347,47.7628515 0.30819802,47.6019802 C0.155168317,47.4408713 0.0748514852,47.2236832 0.0862574257,47.0017426 L0.0862574257,47.0017426 L1.70851485,15.3692673 C1.70879582,15.3638423 1.70912957,15.3584321 1.70951559,15.353037 C1.71031738,15.3393548 1.71163925,15.325623 1.71331141,15.3119249 C1.71643543,15.2879292 1.72040108,15.264322 1.72535434,15.2410938 C1.72873865,15.2242929 1.73286948,15.2075391 1.73754208,15.190901 C1.74356387,15.1702049 1.75020742,15.1497677 1.75761739,15.1297113 C1.77469438,15.0827405 1.79650763,15.0369909 1.82281188,14.9931089 L1.77408102,15.0886524 C1.78361109,15.0666526 1.79408352,15.0451672 1.80544642,15.0242455 L1.82281188,14.9931089 L4.25607921,10.9375842 C4.40245545,10.6930693 4.66645545,10.5438416 4.95160396,10.5438416 L4.95160396,10.5438416 L5.53318905,10.543 L4.87556436,4.97489109 C4.82708911,4.56405788 5.09426821,4.18906228 5.48534479,4.09231036 L5.58558416,4.07405941 L14.6989773,2.99632669 C14.7230332,2.93913121 14.7540849,2.88380602 14.7923168,2.83152475 C16.0871287,1.05813861 18.1696634,-2.59792188e-14 20.3624554,-2.59792188e-14 Z M37.4357228,16.2218614 L3.2889505,16.2218614 L1.74986139,46.2320792 L38.9748119,46.2320792 L37.4357228,16.2218614 Z M26.4456238,17.8438812 C27.7874851,17.8438812 28.8788911,18.9352871 28.8788911,20.2771485 C28.8788911,21.3344978 28.2012372,22.2363392 27.257366,22.5712364 L27.2566337,25.5493069 C27.2566337,29.3508119 24.1639604,32.4434851 20.3624554,32.4434851 C16.5609505,32.4434851 13.4682772,29.3508119 13.4682772,25.5493069 L13.4682772,25.5493069 L13.4685501,22.5715929 C12.5241549,22.2369795 11.8460198,21.3348731 11.8460198,20.2771485 C11.8460198,18.9352871 12.9374257,17.8438812 14.2792871,17.8438812 C15.6211485,17.8438812 16.7125545,18.9352871 16.7125545,20.2771485 C16.7125545,21.3344978 16.0349006,22.2363392 15.0910294,22.5712364 L15.090297,25.5490693 C15.090297,28.4561584 17.4553663,30.8212277 20.3624554,30.8212277 C23.2695446,30.8212277 25.6346139,28.4559208 25.6346139,25.5490693 L25.6346139,25.5490693 L25.6338815,22.5712364 C24.6900103,22.2363392 24.0123564,21.3344978 24.0123564,20.2771485 C24.0123564,18.9352871 25.1037624,17.8438812 26.4456238,17.8438812 Z M14.2792871,19.4663762 C13.8320792,19.4663762 13.4682772,19.8301782 13.4682772,20.2773861 C13.4682772,20.4254766 13.5081705,20.564421 13.5777754,20.6840376 C13.7174207,20.440383 13.9794318,20.2773861 14.2792871,20.2773861 C14.5787225,20.2773861 14.8404195,20.4399268 14.9809035,20.6815334 C15.0506294,20.5636337 15.090297,20.425057 15.090297,20.2773861 C15.090297,19.8301782 14.726495,19.4663762 14.2792871,19.4663762 Z M26.4456238,19.4663762 C25.9984158,19.4663762 25.6346139,19.8301782 25.6346139,20.2773861 C25.6346139,20.4028702 25.6632385,20.5217874 25.7143089,20.6279433 C25.8618527,20.416001 26.1063715,20.2771485 26.3831287,20.2771485 L26.3831287,20.2771485 L26.4456238,20.2771485 C26.7450591,20.2771485 27.0067561,20.4397955 27.1472401,20.6814725 C27.2169661,20.5636337 27.2566337,20.425057 27.2566337,20.2773861 C27.2566337,19.8301782 26.8928317,19.4663762 26.4456238,19.4663762 Z M5.72518905,12.165 L5.41069307,12.1658614 L3.95073267,14.5991287 L6.01218905,14.599 L5.72518905,12.165 Z M35.3139802,12.1658614 L34.014189,12.165 L33.444189,14.599 L36.7739406,14.5991287 L35.3139802,12.1658614 Z M18.5367921,4.17647525 L6.58170297,5.58938614 L7.64618905,14.599 L11.594189,14.599 L10.9525545,11.9296634 C10.8560427,11.527604 11.0770074,11.1233174 11.4541563,10.9812636 L11.551604,10.9513663 L19.122189,9.13 L18.5367921,4.17647525 Z M24.2081584,9.57623762 L12.7190495,12.3388515 L13.262189,14.599 L25.416189,14.599 L24.2081584,9.57623762 Z M23.7179406,6.33029703 L23.297189,8.126 L24.6178218,7.8090297 C24.7860594,7.76910891 24.9603802,7.7834804 25.1171815,7.84788594 L25.2311287,7.90550495 C25.4143366,8.01790099 25.5457426,8.19873267 25.5961188,8.40760396 L25.5961188,8.40760396 L27.084189,14.599 L31.779189,14.599 L33.1950891,8.54708911 L23.7179406,6.33029703 Z M20.3622178,1.62225743 C19.1980709,1.62225743 18.0745789,2.01254532 17.1647404,2.70495232 L19.1515248,2.47057426 C19.366099,2.44538614 19.5797228,2.50621782 19.7489109,2.63928713 C19.918099,2.77235644 20.0271683,2.96744554 20.0523564,3.18106931 L20.0523564,3.18106931 L20.710189,8.748 L21.532189,8.551 L22.3230891,5.17116832 C22.3638812,4.99651485 22.4611089,4.84149835 22.5979956,4.72894609 L22.6847525,4.66669307 C22.8677228,4.55358416 23.0882376,4.5169901 23.2975842,4.56617822 L23.2975842,4.56617822 L25.2955009,5.03345161 C24.5344512,3.02798091 22.5800888,1.62225743 20.3622178,1.62225743 Z" id="Combined-Shape"></path>
                        </g>
                    </g>
                </g>
            </g>
        </g>
    </g>
</svg>