<?xml version="1.0" encoding="UTF-8"?>
<svg width="266px" height="207px" viewBox="0 0 266 207" version="1.1" xmlns="http://www.w3.org/2000/svg" xmlns:xlink="http://www.w3.org/1999/xlink">
    <!-- Generator: Sketch 63.1 (92452) - https://sketch.com -->
    <title>Group 60</title>
    <desc>Created with Sketch.</desc>
    <g id="Home-Page_17/09/2020" stroke="none" stroke-width="1" fill="none" fill-rule="evenodd">
        <g id="My-Orders-Detail-Confirm-Cancellation" transform="translate(-587.000000, -333.000000)">
            <g id="Group-61" transform="translate(494.000000, 227.000000)">
                <g id="Group-60" transform="translate(93.000000, 106.000000)">
                    <path d="M102.284016,199.813886 C104.261563,199.813886 105.864681,201.422553 105.864681,203.406943 C105.864681,205.391334 104.261563,207 102.284016,207 C100.306469,207 98.7033505,205.391334 98.7033505,203.406943 C98.7033505,201.422553 100.306469,199.813886 102.284016,199.813886 Z M137.005101,185.804667 L138.504173,186.356258 L137.228223,189.820351 L141.562338,191.80748 L140.031037,196.070374 L144.737992,198.066432 L143.845506,203.848385 L142.266802,203.604846 L142.969696,199.049873 L138.017647,196.951274 L139.563081,192.647508 L135.218592,190.65701 L137.005101,185.804667 Z M52.5525518,198.616212 C53.8709163,198.616212 54.939662,199.688657 54.939662,201.011584 C54.939662,202.334511 53.8709163,203.406955 52.5525518,203.406955 C51.2341872,203.406955 50.1654416,202.334511 50.1654416,201.011584 C50.1654416,199.688657 51.2341872,198.616212 52.5525518,198.616212 Z M172.305914,195.023144 C174.283461,195.023144 175.88658,196.63181 175.88658,198.616201 C175.88658,200.600591 174.283461,202.209257 172.305914,202.209257 C170.328368,202.209257 168.725249,200.600591 168.725249,198.616201 C168.725249,196.63181 170.328368,195.023144 172.305914,195.023144 Z M105.864682,166.677927 C108.617086,166.677927 110.845307,168.913859 110.845307,171.668284 C110.845307,174.422709 108.617086,176.658641 105.864682,176.658641 C103.112279,176.658641 100.884058,174.422709 100.884058,171.668284 C100.884058,168.913859 103.112279,166.677927 105.864682,166.677927 Z M105.864682,168.67407 C104.216727,168.67407 102.880795,170.014625 102.880795,171.668284 C102.880795,173.321943 104.216727,174.662498 105.864682,174.662498 C107.512638,174.662498 108.84857,173.321943 108.84857,171.668284 C108.84857,170.014625 107.512638,168.67407 105.864682,168.67407 Z M205.725464,169.672141 C207.043829,169.672141 208.112574,170.744585 208.112574,172.067512 C208.112574,173.390439 207.043829,174.462884 205.725464,174.462884 C204.4071,174.462884 203.338354,173.390439 203.338354,172.067512 C203.338354,170.744585 204.4071,169.672141 205.725464,169.672141 Z M175.488734,165.679856 C177.136689,165.679856 178.472621,167.020411 178.472621,168.67407 C178.472621,170.327729 177.136689,171.668284 175.488734,171.668284 C173.840778,171.668284 172.504846,170.327729 172.504846,168.67407 C172.504846,167.020411 173.840778,165.679856 175.488734,165.679856 Z M27.2889677,148.712641 C30.5848792,148.712641 33.2567435,151.393752 33.2567435,154.70107 C33.2567435,158.008388 30.5848792,160.689498 27.2889677,160.689498 C23.9930561,160.689498 21.3211919,158.008388 21.3211919,154.70107 C21.3211919,151.393752 23.9930561,148.712641 27.2889677,148.712641 Z M93.5312785,153.503375 C95.5088253,153.503375 97.1119437,155.112042 97.1119437,157.096432 C97.1119437,159.080823 95.5088253,160.689489 93.5312785,160.689489 C91.5537316,160.689489 89.9506132,159.080823 89.9506132,157.096432 C89.9506132,155.112042 91.5537316,153.503375 93.5312785,153.503375 Z M77.7796431,144.245951 L79.7598431,144.502325 C79.3595218,147.592522 78.459695,149.574285 76.9037903,150.385094 C75.8832308,150.916925 75.006246,150.761914 73.6590508,150.115074 L72.8231137,149.700164 C71.955405,149.283397 71.6052091,149.221449 71.3143803,149.384284 C71.0932722,149.508083 71.0215665,149.741084 71.0800399,150.418592 L71.1876063,151.381341 C71.3323251,152.825068 71.1801218,153.512342 70.2361607,154.116827 C69.3206257,154.703108 68.6600264,154.608495 67.2802411,153.97281 L66.518759,153.611492 C66.1795266,153.454252 65.9680236,153.373082 65.7579565,153.320301 C65.4553795,153.244275 65.2654454,153.26189 65.0954217,153.368752 C64.4299764,153.786992 64.159467,154.862243 64.4438724,156.740335 L64.4861096,157.001429 L62.5181754,157.339254 C62.0460789,154.590786 62.4899738,152.648437 64.0326613,151.678841 C64.708999,151.253755 65.4509732,151.184943 66.2446691,151.384367 C66.5913326,151.47147 66.8856111,151.582352 67.3120266,151.778772 L68.0565053,152.132001 L68.339979,152.259222 C68.8522983,152.480236 69.0494935,152.506178 69.1591434,152.435961 C69.2406617,152.383759 69.2695745,152.167758 69.1783237,151.371792 L69.1335104,151.000425 C68.9316008,149.307682 69.1236542,148.322982 70.3386766,147.642689 C71.4397775,147.02618 72.2673556,147.197732 73.8675911,147.988435 L74.3112216,148.211431 C75.2520061,148.682968 75.6699528,148.777002 75.9808169,148.615005 C76.7690718,148.204232 77.4005302,146.868738 77.7373872,144.5535 L77.7796431,144.245951 Z M255.556392,142.724213 C258.028326,142.724213 260.032224,144.735046 260.032224,147.215534 C260.032224,149.696023 258.028326,151.706856 255.556392,151.706856 C253.084459,151.706856 251.08056,149.696023 251.08056,147.215534 C251.08056,144.735046 253.084459,142.724213 255.556392,142.724213 Z M202.051532,127.475027 L204.530906,132.924885 L209.892318,130.985985 L212.507976,137.199025 L218.175332,136.317914 L218.482087,138.29036 L211.273795,139.410727 L208.787769,133.508159 L203.477661,135.428604 L201.002869,129.992562 L196.694221,131.590105 L195.999957,129.718509 L202.051532,127.475027 Z M50.1654416,109.787856 C51.8133974,109.787856 53.1493295,111.128411 53.1493295,112.78207 C53.1493295,114.435729 51.8133974,115.776285 50.1654416,115.776285 C48.5174858,115.776285 47.1815537,114.435729 47.1815537,112.78207 C47.1815537,111.128411 48.5174858,109.787856 50.1654416,109.787856 Z M239.145009,103.799428 C240.792965,103.799428 242.128897,105.139983 242.128897,106.793642 C242.128897,108.447301 240.792965,109.787856 239.145009,109.787856 C237.497053,109.787856 236.161121,108.447301 236.161121,106.793642 C236.161121,105.139983 237.497053,103.799428 239.145009,103.799428 Z M13.8614721,92.820642 C16.3334058,92.820642 18.337304,94.831475 18.337304,97.3119633 C18.337304,99.7924516 16.3334058,101.803285 13.8614721,101.803285 C11.3895384,101.803285 9.38564025,99.7924516 9.38564025,97.3119633 C9.38564025,94.831475 11.3895384,92.820642 13.8614721,92.820642 Z M207.316871,83.1726182 C210.986743,83.1726182 213.957704,86.1538612 213.957704,89.8264277 C213.957704,93.4989942 210.986743,96.4802372 207.316871,96.4802372 C203.646999,96.4802372 200.676038,93.4989942 200.676038,89.8264277 C200.676038,86.1538612 203.646999,83.1726182 207.316871,83.1726182 Z M207.316871,85.834142 C205.119597,85.834142 203.338354,87.6215492 203.338354,89.8264277 C203.338354,92.0313062 205.119597,93.8187134 207.316871,93.8187134 C209.514146,93.8187134 211.295388,92.0313062 211.295388,89.8264277 C211.295388,87.6215492 209.514146,85.834142 207.316871,85.834142 Z M32.6994812,82.0611756 L32.7403694,82.3553545 C33.0115665,84.17793 33.5134217,85.2306574 34.1385421,85.5564185 C34.3681033,85.6760469 34.670658,85.6211499 35.3078085,85.3152954 L35.8695569,85.0352476 C37.1233474,84.4197659 37.7806949,84.2905775 38.652254,84.7785653 C39.5731131,85.2941562 39.7594747,86.0283125 39.6391988,87.2555945 L39.5794265,87.7715584 C39.5077728,88.4003805 39.5309986,88.5716346 39.5958805,88.613183 C39.6887987,88.672685 39.8602996,88.6458735 40.326769,88.4386982 L40.4614638,88.3776533 L40.9404058,88.1496617 C41.3565054,87.9527695 41.6154628,87.8503005 41.9274599,87.7719081 C42.5624165,87.6123687 43.1559959,87.6674183 43.697066,88.007487 C44.879793,88.7508442 45.2552128,90.2089039 44.9520371,92.2643389 L44.9086547,92.5358173 L43.3343074,92.2655571 L43.3745071,92.0137254 C43.5914508,90.5377935 43.3741196,89.6908056 42.8468578,89.3594156 C42.7108388,89.2739261 42.5588915,89.2598343 42.3168299,89.3206547 C42.1871885,89.3532284 42.0568635,89.3993173 41.879472,89.4764333 L41.7368787,89.5403614 L41.4481905,89.6772235 C40.0988306,90.3306243 39.5399376,90.4738032 38.7342668,89.9578757 C37.9942392,89.4839841 37.8624727,88.9464895 37.9664361,87.8382344 L38.0487098,87.1097171 L38.07097,86.8295841 C38.0915329,86.4164733 38.028691,86.2597462 37.8716912,86.1718417 C37.6622082,86.0545518 37.4142238,86.0830418 36.8602173,86.3332415 L36.7013363,86.4070318 L35.9722417,86.7678244 C34.9078751,87.2757392 34.2106077,87.394826 33.4001634,86.9724893 C32.2095582,86.352044 31.4991671,84.8745228 31.1593704,82.5836967 L31.1153213,82.2662743 L32.6994812,82.0611756 Z M68.068769,73.857285 C70.8211729,73.857285 73.049394,76.0932172 73.049394,78.8476421 C73.049394,81.602067 70.8211729,83.8379992 68.068769,83.8379992 C65.3163651,83.8379992 63.0881441,81.602067 63.0881441,78.8476421 C63.0881441,76.0932172 65.3163651,73.857285 68.068769,73.857285 Z M191.800648,74.4561235 C194.002571,74.4561235 195.785147,76.2448692 195.785147,78.4484091 C195.785147,80.6519487 194.002571,82.4406948 191.800648,82.4406948 C189.598725,82.4406948 187.816148,80.6519487 187.816148,78.4484091 C187.816148,76.2448692 189.598725,74.4561235 191.800648,74.4561235 Z M68.068769,75.8534278 C66.4208132,75.8534278 65.0848811,77.1939832 65.0848811,78.8476421 C65.0848811,80.501301 66.4208132,81.8418563 68.068769,81.8418563 C69.7167248,81.8418563 71.0526569,80.501301 71.0526569,78.8476421 C71.0526569,77.1939832 69.7167248,75.8534278 68.068769,75.8534278 Z M191.800648,76.0530376 C190.482283,76.0530376 189.413537,77.1254819 189.413537,78.4484089 C189.413537,79.7713359 190.482283,80.8437802 191.800648,80.8437802 C193.119012,80.8437802 194.187758,79.7713359 194.187758,78.4484089 C194.187758,77.1254819 193.119012,76.0530376 191.800648,76.0530376 Z M261.524168,54.893928 C263.996102,54.893928 266,56.9047611 266,59.3852494 C266,61.8657377 263.996102,63.8765708 261.524168,63.8765708 C259.052234,63.8765708 257.048336,61.8657377 257.048336,59.3852494 C257.048336,56.9047611 259.052234,54.893928 261.524168,54.893928 Z M87.3065121,40.0797778 L93.512745,41.8330448 L92.3268092,47.7038215 L97.7993851,49.298051 L96.2763551,55.8670477 L101.380968,58.4982089 L100.465697,60.27229 L93.9813297,56.9289136 L95.4277418,50.6860589 L90.0067395,49.1081972 L91.1896675,43.2504269 L86.7635275,42.0006967 L87.3065121,40.0797778 Z M172.019683,36.1287804 C173.009685,39.0818109 173.066661,41.2581981 172.023506,42.66992 C171.342103,43.5920751 170.484803,43.840788 169.004261,43.853225 L168.057726,43.848073 L167.704773,43.8559942 C167.006926,43.8845957 166.728136,43.9904124 166.562479,44.2292332 C166.405591,44.4554121 166.460768,44.7176626 166.88846,45.4044187 L167.086526,45.7138709 C168.042416,47.1873956 168.299607,47.9092846 167.660678,48.9573542 C167.094885,49.8854556 166.459555,50.0909503 164.942487,50.1265483 L164.094792,50.136905 L163.760883,50.1498498 C163.565156,50.1619642 163.416454,50.1817002 163.274394,50.2129716 C162.978366,50.2781359 162.818654,50.3769307 162.713431,50.5463038 C162.297104,51.2164517 162.523695,52.3020753 163.599744,53.8649518 L163.751763,54.0810353 L162.12979,55.2452327 C160.504738,52.9825388 160.055209,51.04165 161.017206,49.4931562 C161.433056,48.8237767 162.059072,48.4365368 162.845011,48.2635292 C163.251823,48.1739781 163.609737,48.1458057 164.213291,48.138429 L164.830587,48.1320131 L165.141104,48.1216447 C165.698387,48.0948631 165.886984,48.0311482 165.955635,47.9185367 C166.003401,47.8401837 165.948047,47.6564945 165.595672,47.0897716 L165.306091,46.6373924 C164.385587,45.2054417 164.128094,44.2357846 164.921648,43.091753 C165.641025,42.0546584 166.459936,41.8448293 168.24313,41.8515759 L168.754209,41.8569924 L169.137639,41.8546885 C169.900591,41.8363123 170.236685,41.728506 170.41745,41.4838735 C170.947507,40.7665365 170.931663,39.2877929 170.222843,37.058185 L170.126446,36.7631092 L172.019683,36.1287804 Z M203.835669,43.9151424 C206.307602,43.9151424 208.311501,45.9259755 208.311501,48.4064638 C208.311501,50.8869521 206.307602,52.8977852 203.835669,52.8977852 C201.363735,52.8977852 199.359837,50.8869521 199.359837,48.4064638 C199.359837,45.9259755 201.363735,43.9151424 203.835669,43.9151424 Z M50.1654416,33.9344282 C51.8133974,33.9344282 53.1493295,35.2749836 53.1493295,36.9286425 C53.1493295,38.5823014 51.8133974,39.9228568 50.1654416,39.9228568 C48.5174858,39.9228568 47.1815537,38.5823014 47.1815537,36.9286425 C47.1815537,35.2749836 48.5174858,33.9344282 50.1654416,33.9344282 Z M84.3806894,31.3394407 C85.699054,31.3394407 86.7677996,32.411885 86.7677996,33.734812 C86.7677996,35.057739 85.699054,36.1301833 84.3806894,36.1301833 C83.0623249,36.1301833 81.9935792,35.057739 81.9935792,33.734812 C81.9935792,32.411885 83.0623249,31.3394407 84.3806894,31.3394407 Z M127.149749,26.3490856 C129.351672,26.3490856 131.134249,28.1378312 131.134249,30.3413712 C131.134249,32.5449108 129.351672,34.3336569 127.149749,34.3336569 C124.947826,34.3336569 123.16525,32.5449108 123.16525,30.3413712 C123.16525,28.1378312 124.947826,26.3490856 127.149749,26.3490856 Z M1.53803987,22.4042028 L2.53459844,25.9567889 L7.20438329,25.0075898 L8.46191227,29.3582162 L13.4391374,28.1981685 L16.1053719,33.4050945 L14.6834574,34.1327602 L12.5861726,30.0359067 L7.34927332,31.2591053 L6.07880664,26.8650338 L1.39782164,27.8177823 L0,22.8354521 L1.53803987,22.4042028 Z M127.149749,27.9459997 C125.831385,27.9459997 124.762639,29.018444 124.762639,30.341371 C124.762639,31.664298 125.831385,32.7367423 127.149749,32.7367423 C128.468114,32.7367423 129.53686,31.664298 129.53686,30.341371 C129.53686,29.018444 128.468114,27.9459997 127.149749,27.9459997 Z M203.139428,13.9729999 C205.776157,13.9729999 207.913648,16.1178884 207.913648,18.7637424 C207.913648,21.4095964 205.776157,23.5544849 203.139428,23.5544849 C200.502699,23.5544849 198.365208,21.4095964 198.365208,18.7637424 C198.365208,16.1178884 200.502699,13.9729999 203.139428,13.9729999 Z M156.163753,1.75687362 C156.90479,0.569664168 158.360673,0.192274968 160.411114,0.496765955 L160.681925,0.54033865 L160.409607,2.11387665 L160.158985,2.07358676 C158.690231,1.85613434 157.848954,2.07355823 157.518947,2.60225985 C157.43241,2.74090004 157.418337,2.89671037 157.480443,3.14346909 C157.513195,3.27359706 157.5592,3.40418735 157.635899,3.58169658 L157.699451,3.72435169 L157.939004,4.23116346 C158.49921,5.42762117 158.599151,5.96833139 158.11536,6.72905576 C157.614898,7.51599475 157.041054,7.61831262 155.797282,7.47961809 L155.583681,7.45434681 L155.125098,7.40422831 C154.615628,7.36321029 154.438518,7.42171356 154.342255,7.59483288 C154.22403,7.80744947 154.252478,8.05808408 154.502428,8.61570443 L154.576144,8.775596 L154.934687,9.50514526 C155.441357,10.5735602 155.559968,11.2706168 155.140071,12.081966 C154.521975,13.2762883 153.048057,13.9898064 150.763937,14.3309768 L150.447449,14.3752023 L150.240769,12.7917112 L150.533748,12.7507096 C152.348847,12.4787766 153.396474,11.9758414 153.721319,11.3481572 C153.842065,11.1148458 153.786824,10.8089685 153.480164,10.1659415 L153.202146,9.60443358 C152.58973,8.3482973 152.461366,7.69066774 152.946079,6.81895534 C153.460023,5.89467242 154.194437,5.70712718 155.419287,5.8279505 L156.069585,5.90282247 L156.33584,5.92575055 C156.637538,5.94485497 156.73707,5.9198815 156.767343,5.87227965 C156.828154,5.77665948 156.801426,5.6028232 156.594323,5.13292942 L156.533299,4.99727264 L156.306238,4.5169402 C156.111227,4.10204513 156.00953,3.84380005 155.931337,3.53312718 C155.770843,2.89545542 155.824605,2.30022004 156.163753,1.75687362 Z M102.482943,0 C104.460489,0 106.063608,1.60866637 106.063608,3.59305689 C106.063608,5.57744742 104.460489,7.18611379 102.482943,7.18611379 C100.505396,7.18611379 98.9022774,5.57744742 98.9022774,3.59305689 C98.9022774,1.60866637 100.505396,0 102.482943,0 Z" id="Shape" fill="#DADADA"></path>
                    <g id="parcel" transform="translate(83.000000, 54.000000)" fill-rule="nonzero">
                        <polygon id="Path" fill="#0566FF" points="50.0333304 99.999994 50.0333304 48.6499971 99.999994 24.3249986 99.999994 52.0458302 99.999994 72.9749957"></polygon>
                        <polygon id="Path" fill="#5798FF" points="49.9666637 99.999994 49.9666637 48.6499971 0 24.3249986 0 52.0458302 0 72.9749957"></polygon>
                        <polygon id="Path" fill="#3D88FF" points="0 24.2999986 49.949997 48.6499971 69.3999959 39.1999977 77.4999954 35.2499979 99.999994 24.2999986 50.049997 2.7755574e-15 28.7499983 10.3499994 20.2499988 14.4499991"></polygon>
                        <polygon id="Path" fill="#003D9E" points="21.3416654 13.9833325 70.7583291 38.5999977 70.7583291 63.4708296 75.0166622 56.7915474 78.591662 59.4791631 78.591662 34.7791646 29.8416649 9.88333274"></polygon>
                    </g>
                    <g id="Group-58" transform="translate(139.000000, 127.000000)">
                        <circle id="Oval-Copy-12" stroke="#FFFFFF" stroke-width="2" fill="#FF654F" cx="13" cy="13" r="13"></circle>
                        <polygon id="Path" fill="#FFFFFF" fill-rule="nonzero" points="18.6 6 20 7.4 14.4007 12.9993 20 18.6 18.6 20 13 14.4 7.4 20 6 18.6 11.6 13 6 7.4 7.4 6 13 11.6"></polygon>
                    </g>
                </g>
            </g>
        </g>
    </g>
</svg>