<?xml version="1.0" encoding="UTF-8"?>
<svg width="20px" height="40px" viewBox="0 0 20 40" version="1.1" xmlns="http://www.w3.org/2000/svg" xmlns:xlink="http://www.w3.org/1999/xlink">
    <!-- Generator: Sketch 63.1 (92452) - https://sketch.com -->
    <title>Artboard</title>
    <desc>Created with Sketch.</desc>
    <g id="Artboard" stroke="none" stroke-width="1" fill="none" fill-rule="evenodd" stroke-linecap="round" stroke-linejoin="round">
        <g id="Group" transform="translate(1.000000, 1.000000)" stroke="#464546" stroke-width="1.68">
            <path d="M4,5.15294118 L4,13.4117647 C4,13.9164706 4.42,14.3294118 4.93333333,14.3294118 L14.2666667,14.3294118 L18,18 L18,5.15294118 C18,4.64823529 17.58,4.23529412 17.0666667,4.23529412 L4.93333333,4.23529412 C4.42,4.23529412 4,4.64823529 4,5.15294118 Z" id="Path"></path>
            <path d="M4.66666667,4.81283422 C4.66666667,4.28342246 5.08666667,3.85026738 5.6,3.85026738 L14,3.85026738 L14,0.962566845 C14,0.43315508 13.58,0 13.0666667,0 L0.933333333,0 C0.42,0 0,0.43315508 0,0.962566845 L0,9.62566845 C0,10.1550802 0.42,10.5882353 0.933333333,10.5882353 L4.66666667,10.5882353 L4.66666667,4.81283422 Z" id="Path"></path>
        </g>
        <g id="Group" transform="translate(1.000000, 21.000000)" stroke="#0566FF" stroke-width="1.68">
            <path d="M4,5.15294118 L4,13.4117647 C4,13.9164706 4.42,14.3294118 4.93333333,14.3294118 L14.2666667,14.3294118 L18,18 L18,5.15294118 C18,4.64823529 17.58,4.23529412 17.0666667,4.23529412 L4.93333333,4.23529412 C4.42,4.23529412 4,4.64823529 4,5.15294118 Z" id="Path"></path>
            <path d="M4.66666667,4.81283422 C4.66666667,4.28342246 5.08666667,3.85026738 5.6,3.85026738 L14,3.85026738 L14,0.962566845 C14,0.43315508 13.58,0 13.0666667,0 L0.933333333,0 C0.42,0 0,0.43315508 0,0.962566845 L0,9.62566845 C0,10.1550802 0.42,10.5882353 0.933333333,10.5882353 L4.66666667,10.5882353 L4.66666667,4.81283422 Z" id="Path"></path>
        </g>
    </g>
</svg>