<?xml version="1.0" encoding="UTF-8"?>
<svg width="20px" height="20px" viewBox="0 0 20 20" version="1.1" xmlns="http://www.w3.org/2000/svg" xmlns:xlink="http://www.w3.org/1999/xlink">
    <!-- Generator: Sketch 63.1 (92452) - https://sketch.com -->
    <title>error</title>
    <desc>Created with Sketch.</desc>
    <g id="Home-Page_17/09/2020" stroke="none" stroke-width="1" fill="none" fill-rule="evenodd">
        <g id="Listing_Page" transform="translate(-650.000000, -214.000000)" fill="#FF654F" fill-rule="nonzero">
            <g id="Group-6-Copy-4" transform="translate(493.000000, 208.000000)">
                <g id="error" transform="translate(157.000000, 6.000000)">
                    <path d="M10,0 C4.48609375,0 0,4.48609375 0,10 C0,15.5139062 4.48609375,20 10,20 C15.5139062,20 20,15.5139062 20,10 C20,4.48609375 15.5139062,0 10,0 Z M14.0445312,12.8661719 C14.2073047,13.0288672 14.2073047,13.2926953 14.0445312,13.4554297 L13.4554687,14.0445313 C13.2926953,14.2072266 13.0289453,14.2072266 12.8661719,14.0445313 L10,11.1783984 L7.13382812,14.0445703 C6.97105469,14.2072656 6.70730469,14.2072656 6.54453125,14.0445703 L5.95542969,13.4554297 C5.79265625,13.2927344 5.79265625,13.0289062 5.95542969,12.8661719 L8.82160156,9.99996094 L5.95542969,7.13378906 C5.79265625,6.97109375 5.79265625,6.70726562 5.95542969,6.54453125 L6.54453125,5.95539062 C6.70730469,5.79269531 6.97105469,5.79269531 7.13382812,5.95539062 L10,8.8215625 L12.8661719,5.95539063 C13.0289453,5.79269531 13.2926953,5.79269531 13.4554687,5.95539063 L14.0445703,6.54453125 C14.2073437,6.70722656 14.2073437,6.97105469 14.0445703,7.13378906 L11.1783984,9.99996094 L14.0445312,12.8661719 Z" id="Shape"></path>
                </g>
            </g>
        </g>
    </g>
</svg>