<?xml version="1.0" encoding="UTF-8"?>
<svg width="168px" height="165px" viewBox="0 0 168 165" version="1.1" xmlns="http://www.w3.org/2000/svg" xmlns:xlink="http://www.w3.org/1999/xlink">
    <title>Group 32</title>
    <g id="Artist-Informative" stroke="none" stroke-width="1" fill="none" fill-rule="evenodd">
        <g transform="translate(-626.000000, -1639.000000)" id="Group-14">
            <g transform="translate(65.000000, 1502.000000)">
                <g id="Group-10" transform="translate(447.000000, 92.000000)">
                    <g id="Group-12" transform="translate(89.000000, 0.000000)">
                        <g id="Group-32" transform="translate(25.000000, 45.000000)">
                            <g id="Group-47" transform="translate(138.500000, 82.500000) scale(-1, 1) translate(-138.500000, -82.500000) translate(109.000000, 0.000000)">
                                <g id="pose/standing/walking-1" transform="translate(0.000000, 24.952411)">
                                    <path d="M57.7967427,135.920578 C58.1903013,134.086074 56.3902332,133.465901 55.2554174,133.057773 C54.4425751,132.529831 51.4307706,130.701518 49.1003658,128.444498 C47.1934155,126.597598 45.8952665,124.230561 45.3548875,124.004928 C44.9840778,123.789605 44.779418,123.601938 44.740908,123.441929 C44.4024308,122.035557 44.6847259,120.724837 44.740908,119.872237 C45.825781,119.587029 46.6951111,119.231261 47.345263,118.733757 C47.5348557,118.797037 47.819077,118.878013 47.9038065,118.600365 C48.4913761,114.674989 48.7450053,110.796037 49.2230697,106.867637 C51.0326454,91.9055006 51.2367791,74.4258846 48.1235998,60.7602046 C48.0908825,60.0828286 48.1498855,59.4710846 48.2102308,58.8890766 C48.6311937,58.8435486 48.8857177,58.4355326 49.2294454,58.1916526 C49.7629336,57.7671166 50.3946296,57.4408606 50.3685676,56.6988606 C50.4952983,56.6027646 50.4805336,56.5487246 50.418063,56.4263086 C50.8249883,54.6740686 49.0098758,52.8276366 48.4965214,51.3830606 C49.4296643,42.2441966 48.1600083,33.6081566 48.8683244,24.4671086 C49.7629895,24.0922446 49.161494,21.7493166 49.1003658,20.7829246 C48.6047402,14.5571806 45.37266,8.40177258 39.5523317,6.36790858 C39.2196217,6.30037258 38.719522,5.91957258 38.4441931,6.17526858 C37.9121032,5.96420458 37.2041785,6.38034058 36.7923877,5.90126058 L36.7965263,5.89812458 C36.4497785,5.41669258 36.2943573,4.80466858 36.1803779,4.22596458 C36.1994491,4.38903658 36.2312715,4.55076458 36.2704764,4.70885258 C35.2670892,1.87726858 35.0142989,1.12014858 31.7841202,0.986812582 C30.3290661,0.967324582 28.4109919,1.01106058 27.5625785,2.40064458 C27.214936,3.04660458 27.3211415,3.78832458 27.1053749,4.46827658 C26.7092995,5.71601258 24.9996095,5.11306058 24.1020363,5.76098058 C16.9183184,8.06806858 11.0259001,12.7772206 9.08909039,20.3357086 C8.69312687,21.2467166 8.24403264,22.1534126 7.91300042,23.0935966 C7.86177124,23.2331486 7.72083507,23.7053966 8.05930559,23.9227326 L8.22300407,24.0278446 C6.06679252,34.1191006 5.92373112,42.6223646 13.1677943,49.3498126 C13.7114053,52.2405886 12.3129494,56.1883086 12.8505202,58.9950286 C12.5442077,59.4302046 12.9326211,59.7807086 13.3242223,59.8086526 C13.3619731,59.8296526 13.5145421,59.8965166 13.5561518,59.9156126 C12.9329567,68.7249726 15.5494478,80.5973086 16.7027755,85.2832206 C16.8597627,88.0966606 15.9007816,90.4078366 13.9280108,91.9411166 C11.7483658,93.2853406 7.43918644,99.3564686 8.23804845,105.724789 C7.30445817,105.908189 6.37763507,106.008765 5.48196334,106.360109 C1.56293112,105.667501 1.60180042,113.232485 1.35208614,115.892429 C0.929165771,120.346109 0.666308628,126.801285 4.89176516,129.652133 C6.0049372,130.460773 8.26204115,131.407397 9.41866851,130.113181 C9.79768614,129.657285 9.89259434,129.216901 9.74349282,128.751317 C11.6534016,126.049373 11.138705,122.515157 11.3141481,119.346117 C11.8679937,119.312685 12.4474539,119.572805 12.9831791,119.478053 C13.5330539,118.992869 11.5270624,119.125085 11.3190138,119.096637 C11.340322,118.607925 11.3795828,118.093341 11.4302527,117.600653 C11.7448983,117.663765 12.1479646,117.814965 12.4505299,117.826557 C12.6296083,117.870181 12.7561712,117.623277 12.6480643,117.495317 C12.4119402,117.269805 11.8098855,117.304749 11.4710794,117.272717 C11.5282928,116.860277 11.5982576,116.426669 11.6759962,116.027781 C12.0904715,116.012829 12.5184813,116.277261 12.9109214,116.223165 C12.6138928,116.024701 12.056356,116.085125 11.6942843,115.954029 C11.9297372,114.669333 12.4094794,113.449821 12.8554977,112.248173 C13.9498782,112.700205 14.8939828,112.718013 15.9623573,112.582493 C16.3993712,112.649805 16.6124533,112.560261 16.683201,112.012917 L16.6552934,111.978365 C17.5020849,106.904653 20.2345688,102.067765 25.3101165,96.5825646 C26.3126649,95.4590926 27.4455791,94.1363166 28.2004266,92.6573566 C29.7172241,89.5794846 29.9762782,86.1831406 31.1449858,82.9867166 C32.2361226,79.7738846 33.7280886,76.7006606 35.1288934,73.6549886 C35.3343135,75.2159326 35.6102576,76.8171966 35.8971074,78.3477326 C37.1596047,83.7715006 37.0372363,89.5583166 36.1081202,95.0121566 C34.7334332,102.650725 35.396057,110.325525 35.0903038,118.018133 C35.0944983,118.461821 35.1494187,118.864853 35.0844314,119.326797 C35.0758187,119.362357 35.0925968,119.404469 35.1346539,119.403349 L35.2140144,119.405533 C35.8747366,119.889989 36.7872424,119.977517 37.5636217,120.240325 C37.8896764,120.498709 37.7978442,120.907957 37.8277092,121.227269 C37.912998,122.603245 38.0220557,123.984485 37.8867123,125.402741 C37.2876217,126.552141 36.5436241,126.314701 36.3914466,127.934949 C36.2582284,129.784741 36.0225518,131.751797 36.9221943,133.398925 L36.5818223,133.457725 C36.0766892,134.519093 36.3850709,135.208229 37.5722904,135.657125 C43.4333336,137.958165 51.6806722,140.047301 57.7967427,138.310461 C57.907917,138.420838 58.0695904,138.306323 58.1959969,138.13285 C58.3174631,137.966156 58.4063651,137.745022 58.3866053,137.616677 C58.2820217,137.053317 58.4258101,136.024682 57.7967427,135.920578 Z" id="âœ‹-Skin" fill="#FFFFFF"></path>
                                    <path d="M13.368337,49.8459165 L13.8114439,50.3053002 L14.0235609,50.5241773 L14.3333215,50.8420498 C14.9961945,51.5199822 15.6870109,52.211659 16.6903398,53.2050083 L19.2790457,55.7629651 L19.7777757,56.2590263 L20.0216496,56.5021514 L19.0173537,56.6275442 L18.8062814,56.654541 L18.6425623,56.6760891 L18.4792645,56.6982093 C17.4271497,56.8429616 16.7308083,56.9841763 16.039113,57.2118378 C15.0271908,57.5448973 14.2388629,58.0260468 13.6501579,58.7183336 L13.6222751,58.7514595 L13.3815299,59.0404186 L13.3274069,58.6680344 C13.2726646,58.2913881 13.2506966,57.900929 13.252337,57.4432765 L13.2539946,57.265603 L13.2567002,57.1239316 L13.2597769,57.0073378 C13.261681,56.9418886 13.264026,56.8703355 13.2669082,56.7884607 L13.2892693,56.1749213 L13.2948044,55.9930508 L13.2969186,55.9070145 C13.2978439,55.8652833 13.2985785,55.8251592 13.299155,55.7851882 L13.3004401,55.660552 L13.295008,55.5284325 L13.2885003,55.3559314 L13.2842692,55.2323662 C13.2407119,53.9027447 13.2631974,52.6323479 13.3447711,50.4626732 L13.368337,49.8459165 Z M24.4701926,5.78189318 L24.4236844,6.05249313 C24.1632864,7.56757123 24.8442463,8.82059155 26.3062697,9.73702593 C27.6444292,10.5758192 29.5753209,11.0791201 31.6441071,11.1589045 C33.6956118,11.2380224 35.6969787,10.8926701 37.1583937,10.1854061 C38.7246418,9.42740712 39.5777019,8.31360153 39.5439909,6.92799199 L39.5426977,6.88592071 L39.5328426,6.62045775 L39.7765963,6.72532423 C42.8323185,8.03994132 45.2026603,10.5482315 46.6911875,13.8383555 C48.0506835,16.8432792 48.5946531,20.355271 48.2462387,23.648424 L48.2354074,23.7481488 L48.213724,23.9427435 L48.0249345,23.8917144 C47.6882177,23.800701 46.8226124,24.0592568 45.4800321,24.6744579 L45.3672778,24.726432 L44.7524158,25.154496 L44.7419903,25.4713791 C44.331504,38.3994755 45.567909,47.6211368 48.4430969,53.1306255 L48.5307254,53.2964434 L48.6211764,53.4633028 C48.6730086,53.5608074 48.7315901,53.662129 48.8053588,53.7831828 L48.8912382,53.9222862 L49.021832,54.1312461 L49.0925686,54.2459009 L49.1272243,54.3028685 C49.2670848,54.5341304 49.351581,54.691737 49.431959,54.8744268 C49.5596011,55.1645424 49.6310567,55.4399269 49.6409819,55.7189998 L49.6419017,55.7539044 L49.6420061,55.765328 L49.6476428,55.7761702 C49.6899133,55.8622453 49.6875834,55.96557 49.6406256,56.0535228 L49.6332473,56.0665964 L49.630597,56.070752 L49.6189977,56.1612354 L49.5422881,56.176256 L49.5318591,56.1863111 C49.4197565,56.2906082 49.2692453,56.3573863 49.0735718,56.406174 L49.0466085,56.4127171 L49.0202398,56.4187886 C48.9788203,56.428086 48.9363555,56.4365589 48.8874369,56.4454779 L48.705291,56.4772427 L48.4854389,56.5205063 L48.2095414,56.5743573 L48.1343772,56.5895855 L48.056107,56.6059273 C47.595034,56.7038058 47.285426,56.79956 46.9973502,56.945707 C45.5449553,57.7092057 44.1050967,58.076097 42.5845787,58.1188558 C41.3730017,58.1529268 40.1722578,57.9927908 38.6048562,57.6356791 L38.2856073,57.5615848 L38.1000944,57.5174224 L37.872165,57.4620278 C37.8008438,57.4445306 37.724182,57.4255924 37.6392809,57.4045091 L36.5366397,57.1290827 L36.1890812,57.0436391 L35.9869579,56.9946874 C35.2004832,56.8055091 34.6690725,56.6939896 34.0631707,56.5922202 C33.0022505,56.4140244 32.0363241,56.3416784 31.0851654,56.3864832 L31.0120271,56.390161 L30.9693056,56.3924453 L30.9307079,56.373967 C28.9748738,55.4376281 27.3689091,54.0774727 25.9091882,52.232418 L25.8105826,52.1070178 L25.7489913,52.0278804 C24.7481086,50.7365998 23.9912619,49.4995022 22.5534446,46.9386139 L22.1775957,46.2687844 L21.9133473,45.800496 L21.7410765,45.4971802 C20.9863428,44.1724976 20.49878,43.3760144 19.8987735,42.4993563 C18.9308264,41.0851073 17.9470557,39.9376727 16.8418406,38.9836818 L16.785538,38.9353401 L16.7787442,38.9292098 C16.5594458,38.720207 16.4116583,38.5315576 16.3183541,38.3200753 L16.307829,38.2955697 L16.2914657,38.2564133 L16.3205671,37.95917 L16.3509464,37.640804 C16.5945757,35.0545739 16.8524724,31.5250999 17.1245779,27.0528263 L17.1735562,26.24 L15.8462195,25.7238451 L15.2330285,25.4876311 L15.0999962,25.4370842 L14.9427998,25.3779794 L14.7830077,25.3183881 L14.6257812,25.2602711 C13.949847,25.0115769 13.3427062,24.8034604 12.7592417,24.6235407 L12.6276221,24.5833222 C11.2085706,24.1537251 10.0112021,23.9228037 9.01678696,23.9182871 L8.97103491,23.9182395 L8.7618878,23.9187593 L8.76928632,23.884864 L8.76301759,23.8841614 C8.71483391,23.8781309 8.66979158,23.8688359 8.62812557,23.8555105 L8.60757501,23.8485084 L8.5875937,23.8408133 C8.41679815,23.7710129 8.33391559,23.6174506 8.40013296,23.4338493 L8.40548085,23.419616 L8.44065947,23.2922255 C9.67015002,18.8551506 11.3344829,15.3751157 13.6391099,12.6136381 L13.7091433,12.5301767 L13.7810113,12.4454639 C16.336866,9.44945909 19.693241,7.29527714 24.0752952,5.90549377 L24.2083989,5.86361301 L24.4701926,5.78189318 Z" id="ðŸ‘•-Top" fill="#0566FF"></path>
                                    <path d="M47.325228,138.352 C46.2723147,138.161966 40.2224924,136.784 36.7550152,134.992 C36.0468222,134.626004 36.221127,133.76115 36.451882,133.199628 C36.5575995,132.942373 36.807731,132.748785 36.7550152,132.696 C35.6463505,131.585889 36.4753799,128.664 36.4753799,128.104 C36.4753799,127.271583 37.8228396,126.144627 37.593921,125.696 C37.3296473,125.178085 37.6545831,126.949521 38.3209726,127.936 C38.9017891,128.795802 39.8134262,128.862319 39.9038435,128.824595 L39.9201826,128.817606 L39.9318438,128.811374 C40.1825972,128.673914 43.969117,123.21207 45.5355623,124.016 C46.2727621,124.394345 46.6688293,126.067476 47.4930091,126.76 C49.3412654,128.313012 50.2334347,130.792 57.112462,133.984 C57.8487561,134.325655 57.8552125,135.056454 57.7050833,135.628138 C57.6497447,135.838864 58.3987842,135.832 58.2869301,135.944 C58.0027384,136.228562 58.7910867,137.863591 58.175076,138.128 C55.7514986,139.168266 49.4587624,138.73707 47.325228,138.352 Z M8.00968991,105.816 C8.27469812,106.148165 8.40480148,106.390832 8.4,106.544 C8.34066954,108.436654 7.89107024,109.830835 7.87703817,110.7615 L7.87616312,110.824358 L7.87772806,110.847392 C7.90492859,111.22494 8.4808241,112.674995 9.74224924,112.984 C10.2172181,113.100351 11.1493356,112.895017 12.5386018,112.368 C11.7449339,114.563278 11.2788752,116.653944 11.1404255,118.64 C10.9773288,120.979617 11.1089559,123.633019 10.8048632,125.696 C10.6388637,126.82215 10.0377302,128.075297 9.35075988,128.944 C9.18240892,129.156887 9.91426014,129.559902 9.74224924,129.728 C9.42011175,130.04281 8.62370821,131.128 6.16291793,130.288 C5.4466245,130.043491 3.36254233,128.684852 2.19209726,126.088 C1.33712007,124.191073 1.25667728,121.427586 1.12948328,118.976 C0.98891479,116.266629 1.51124446,112.038637 2.19209726,109.736 C2.94920574,107.175467 3.89053537,106.675155 4.08559927,106.533333 C4.13117371,106.500198 5.54816478,106.219992 5.68459497,106.204732 L5.70841366,106.202174 L5.72722209,106.200326 L5.73760088,106.196276 C6.29391996,105.980702 6.9299358,105.876864 7.7663434,105.828778 L7.81780344,105.825903 L8.00968991,105.816 Z" id="ðŸ‘Ÿ-Shoes" fill="#FFFFFF"></path>
                                    <path d="M58.0760475,137.76325 C52.8093411,140.131378 43.2458152,137.143386 38.0708851,135.414554 C36.6755611,134.910498 36.2107514,134.811714 36.6016815,133.20093 C37.3332073,134.614538 38.9064353,134.955914 40.4136693,135.23933 C45.5192499,136.404746 50.7243806,138.556378 56.1845946,137.506546 C56.9860292,137.38021 57.7790189,136.945706 58.0122347,136.143898 C58.1560231,136.483706 58.0670991,136.943914 58.1246481,137.317602 C58.1353301,137.466562 58.1386298,137.627674 58.0760475,137.76325 M36.7750554,128.95501 C36.8701313,128.005642 37.0222529,127.002738 37.561949,126.163858 C37.5032256,127.520626 38.3169642,129.826762 40.0999186,129.058498 C40.6049399,128.790482 40.8879867,128.25081 41.2128669,127.817426 C42.2928183,126.391666 43.6775721,125.153618 45.2419076,124.253978 C46.1120766,124.403834 46.4862845,125.997202 47.0471769,126.664106 C46.4219125,126.94321 45.2888304,127.578922 45.1742359,128.236474 C45.9549775,127.973498 46.6735842,127.483778 47.4924122,127.31169 C47.7546541,127.674122 48.0326675,128.025634 48.3246067,128.365218 C47.9431283,128.533442 46.4051344,129.311842 46.4152572,129.700426 C47.2468365,129.56513 48.0527453,129.15745 48.8888548,128.989954 C49.2607696,129.359274 49.5991842,129.756762 49.9693654,130.127314 C49.4100949,130.357978 48.8195052,130.615522 48.5141435,131.153122 C48.4996584,131.177426 48.5353958,131.204586 48.5550262,131.181122 C48.9739198,130.675386 49.6948195,130.582538 50.3195247,130.468746 C51.2780584,131.37253 52.3513544,132.169802 53.5526116,132.766258 C54.7544839,133.424314 56.5811174,133.574842 57.0592377,135.002338 C57.4417788,136.429442 56.2488548,136.581818 55.1482104,136.682618 C54.0347028,136.84121 52.9133654,136.86529 51.8071283,136.772666 C48.3491587,136.628354 45.0802225,135.608986 41.8124049,134.718362 C37.8170323,133.982018 36.5205873,133.38573 36.7750554,128.95501 M37.9846481,120.609386 C37.9693328,120.672106 37.9559093,120.734826 37.9414949,120.798106 C37.9233868,120.731466 37.9108643,120.664266 37.8846481,120.598746 C37.9180715,120.602106 37.9513147,120.606026 37.9846481,120.609386 M44.4018833,123.796682 C42.871104,124.930234 41.3767332,126.19337 40.3135599,127.774418 C39.6099976,129.060794 38.6737788,128.277802 38.4411782,127.24729 C38.2526481,124.94653 38.4148365,122.959706 38.1939806,120.645226 C40.3108195,120.934186 42.4852073,120.756106 44.5528304,120.244826 C44.304011,121.278026 44.1898639,121.67025 44.1820341,122.730218 C44.1955125,123.07949 44.1904231,123.505874 44.4018833,123.796682 M47.8285338,39.1120256 C47.8737788,42.4983456 47.895031,45.8857856 47.7775842,49.2709856 C44.8005873,41.5665056 45.7116949,33.2062656 45.2888304,25.1081056 C46.1686189,24.8146656 47.1137301,24.6864256 48.0203076,24.5609856 C47.6562225,29.5875456 47.75018,34.0776256 47.8285338,39.1120256 M31.0039429,56.2200256 C23.6942772,52.7205856 22.6831162,43.7482656 16.8952815,38.8051456 C16.7084292,38.6270656 16.5535672,38.4439456 16.4634687,38.2283456 C16.8784475,34.0300256 16.8482469,30.3491456 17.338783,26.1553056 C17.8868122,25.1596256 18.1033058,24.0032256 18.5115174,22.9437056 C18.7252146,22.2985856 18.9846602,21.6596256 19.04618,20.9825856 C19.0976329,20.7597056 18.7497666,20.6628256 18.6849472,20.8733856 C17.9125386,22.3764256 17.5283198,24.0480256 16.9517678,25.6328256 C16.8706177,25.6653056 16.7626785,25.6395456 16.7308,25.5544256 C16.7258225,25.5751456 16.7201739,25.5958656 16.7151405,25.6165856 C14.2336572,24.6455456 11.6749946,23.7411456 8.97148089,23.7478656 C8.97321463,23.7394656 8.97545171,23.7305056 8.97712953,23.7221056 C8.81041098,23.7271456 8.46086691,23.7137056 8.5654505,23.4717856 C10.9417909,14.7945856 15.2085216,8.8468256 24.2591964,6.0216256 C23.1020098,12.7545056 39.9438821,13.1442656 39.7112256,6.8773056 C46.0555903,9.6067456 48.7887453,17.2725856 48.0695234,23.7271456 C47.4666298,23.5641856 45.8967575,24.2053856 45.2843563,24.5777856 C45.1596389,21.9569856 45.4695307,18.7941056 45.2871526,16.4505056 C44.3218517,28.3997856 42.5204414,42.6977056 48.473932,53.5398656 C48.860332,54.2667456 49.4906298,54.9622656 49.4749703,55.8157056 C49.5213897,55.8627456 49.5258639,55.9450656 49.4693775,56.0055456 C49.4693775,56.0094656 49.4693775,56.0133856 49.4688742,56.0173056 C49.4660219,56.0178656 49.4626663,56.0178656 49.4593666,56.0178656 C49.286552,56.2239456 48.9230262,56.2648256 48.6729763,56.3101856 C48.0824426,56.4294656 47.4610371,56.5201856 46.9202225,56.7945856 C41.1581143,59.8236256 36.6385934,55.9187456 31.0039429,56.2200256 M32.8249836,61.7259456 C33.1034444,62.2585056 33.5710505,62.6869056 34.1252876,62.9545856 C34.0570007,63.0889856 34.0335113,63.2401856 34.0262408,63.3818656 C33.0279429,63.5862656 33.3086967,64.0605856 32.6342724,64.2868256 C32.192952,64.4089056 31.7684657,64.4609856 31.3870432,64.7286656 C30.0889763,65.9393856 29.7668365,65.8503456 28.3736937,64.7852256 C28.3927648,64.6889056 26.4968377,62.8347456 25.9096037,61.7981856 C25.420242,60.9335456 24.9078943,60.0627456 24.1579125,59.3941056 C20.485183,55.6286656 16.5725265,52.0749056 13.0172438,48.2053056 C5.89219336,41.0961056 7.25172405,33.0349056 8.88820551,24.1549856 C11.5295842,24.4708256 14.1855599,25.1053056 16.5641934,26.2701056 C15.7252876,30.1895456 15.6715417,33.7421856 15.3102529,37.7193056 C15.2011952,38.2109856 15.3242347,39.1579456 16.0200231,38.9395456 C22.4152256,44.0237856 23.1584961,54.4717056 31.5509095,57.4929056 C34.9714079,58.8850656 33.5279307,60.0151456 34.6582165,62.6437856 C34.0363076,62.5295456 33.4815113,62.0076256 33.21418,61.5081056 C33.0816888,61.2600256 32.6957362,61.4784256 32.8249836,61.7259456 M13.4943016,58.6414656 C13.3495064,57.6452256 13.4624231,56.6534656 13.4691344,55.6555456 C13.3914517,53.8383456 13.4518529,52.0670656 13.5217617,50.2437056 C15.5272499,52.3241056 17.6122104,54.3339456 19.660259,56.3757056 C17.479104,56.6512256 14.9635052,56.8780256 13.4943016,58.6414656 M13.4573897,60.1069856 C13.4915611,60.0957856 13.5250614,60.0806656 13.5558213,60.0621856 C13.5479915,60.8439456 13.5602955,61.6257056 13.5888183,62.4063456 C13.5340098,61.6402656 13.4903867,60.8736256 13.4573897,60.1069856 M11.00387,115.675786 C10.4155733,115.630426 7.89935931,115.543626 7.59740916,115.938986 C7.93744563,116.082906 8.40493986,116.003386 8.77070278,116.019626 C9.48103226,116.048746 10.189628,116.111466 10.892631,116.211146 C10.8400037,116.485546 10.7924657,116.759386 10.7533727,117.034346 C10.0442177,117.102106 8.66332284,117.132906 8.213166,117.629626 C9.01622253,117.757866 9.85233196,117.642506 10.6582408,117.802666 C10.6190918,118.178986 10.590569,118.555866 10.5693727,118.932746 C10.2482955,118.966906 8.36025415,119.279946 8.36193196,119.577306 C9.06879396,119.671386 9.81765719,119.547626 10.5380535,119.617626 C10.3819611,121.876106 10.911087,128.696346 7.82833196,129.113546 C5.13320734,128.971306 3.95090946,124.597706 3.5846432,122.499386 C2.77252649,117.610586 2.91184077,112.398106 4.52142132,107.685706 C5.09629548,106.375306 6.66119032,106.147946 7.98442436,106.080186 C8.03470278,106.301946 8.08447785,106.519786 8.14040491,106.739306 C7.56659336,108.041866 7.38376782,109.508506 7.36805232,110.918026 C7.48941402,112.944106 9.98599761,114.450506 11.7991526,113.112106 C11.4602347,113.940906 11.198552,114.803306 11.00387,115.675786 M7.43745779,130.250906 C2.09916478,129.101786 1.22334715,122.911546 1.59028454,118.359866 C1.88943834,115.191386 1.52988332,108.511146 4.45089731,106.649706 C0.675821319,110.100426 1.00360977,133.592426 9.3696815,129.492106 C9.1610736,130.154026 8.08839275,130.344986 7.43745779,130.250906 M8.48329366,108.164506 C8.49280126,108.082746 8.50337147,108.001546 8.51455688,107.919786 C9.10682436,109.530906 10.1213411,111.061946 11.6319867,111.994906 C11.053645,112.717306 9.92727421,112.932346 9.16722557,112.340986 C7.84175445,111.345866 8.39436965,109.545466 8.48329366,108.164506 M26.6796633,5.2398656 C26.6690931,5.26449247 26.6578517,5.28911933 26.6466663,5.31299993 C26.5728426,5.31971635 26.4984596,5.32867157 26.4229581,5.3398656 C26.5085824,5.30553724 26.5941508,5.27344769 26.6796633,5.2398656 M36.8444244,5.8629056 C36.8393244,5.8479056 36.8343244,5.8329056 36.8303244,5.8189056 C36.8423244,5.8259056 36.8543244,5.8339056 36.8673244,5.8419056 C36.8574244,5.8479056 36.8513244,5.8549056 36.8444244,5.8629056 M58.5944912,136.782746 C58.5799502,136.38201 58.5743016,135.864346 58.1056329,135.722106 C58.3181557,133.995122 56.8864231,133.012042 55.3831599,132.533522 C54.1013119,131.74829 52.6477119,131.199826 51.4698882,130.253202 C52.0168548,130.15033 52.5638213,130.026178 53.0498274,129.787842 C53.4167089,129.608082 53.2399794,129.00961 52.842394,129.06505 C52.1382165,129.158066 51.5057374,129.516522 50.8440645,129.765666 C50.4682347,129.45649 50.1041496,129.133762 49.7602541,128.791994 C50.1885994,128.709114 50.7333289,128.739634 50.9828195,128.31381 C51.0605581,128.180698 51.0258274,128.042602 50.9319259,127.93973 C50.497932,127.499906 49.637718,127.93917 49.0985812,128.067298 C48.8396949,127.768482 48.589645,127.463618 48.3441253,127.155114 C48.7513301,127.117594 49.8105326,127.19213 49.6030991,126.519178 C49.2054578,125.992834 48.3503332,126.308618 47.7753472,126.416922 C47.0460584,125.518962 46.8111648,124.141362 45.6713715,123.647386 C45.6305447,123.429602 45.3464912,123.44629 45.1568985,123.511026 C44.8778225,122.17677 44.8990748,121.498666 44.9807283,120.131146 C45.8268487,119.896506 46.6663137,119.588506 47.369876,119.083386 C47.6931903,119.178586 48.085183,119.068826 48.1523514,118.688586 C48.3535769,117.348842 48.4659344,115.802402 48.6070383,114.433706 L48.6584353,114.433706 C48.92627,111.937338 49.1421484,109.433634 49.4453848,106.943706 C51.1807453,92.5511456 51.5588122,74.9839456 48.3463624,60.7649856 C48.3211952,60.2262656 48.3592815,59.6869856 48.4134748,59.1521856 C48.7965751,59.0497056 49.0247575,58.6750656 49.3418639,58.4583456 C49.931335,57.9773056 50.5309289,57.7079456 50.5851782,56.8685056 C50.7042469,56.7548256 50.7182286,56.5829056 50.6528499,56.4339456 C50.8055307,55.5721056 50.5806481,54.7164256 50.1226055,53.9716256 C49.6204365,53.1232256 49.1461192,52.2669856 48.7272815,51.3765856 C49.6433107,42.4020256 48.4006675,33.7041056 49.0801253,24.6847456 C49.9514687,24.2227456 49.4045022,21.6557056 49.3234639,20.8000256 C48.8144718,15.1804256 46.1942894,8.9756256 40.6233958,6.6381856 C40.2324657,6.3077856 39.6866177,6.1957856 39.2090007,6.0137856 C38.8863016,5.8547456 38.3611465,5.7169856 38.1402347,6.0871456 C37.9059563,5.9779456 37.1514444,5.8945056 36.8930614,5.7052256 C36.8449642,5.6699456 36.8142043,5.6313056 36.8069338,5.5881856 C36.7879186,5.5887456 36.7655478,5.5848256 36.7414991,5.5797856 C36.5033058,5.2426656 36.2761861,2.8945856 35.982569,3.0620256 C35.662107,3.8684256 35.8841374,4.7795456 36.1906736,5.5937856 C36.4020219,6.3139456 36.69178,8.1664256 37.8147393,7.6926656 C38.0083028,7.5963456 37.888563,7.3460256 37.7151891,7.3258656 C37.1828195,7.1735456 37.0641982,6.3901056 36.8583867,5.9309056 C37.1022286,6.1336256 38.2129958,6.4377056 38.3343575,6.5021056 C40.7436949,12.0393856 26.1763198,11.7487456 25.0309897,7.9312256 C24.2143988,6.6124256 24.9191356,5.8978656 26.3749168,5.6861856 C25.3049763,6.8767456 26.6595855,7.1410656 27.1746177,5.9734656 C27.667335,5.1373856 27.8916025,4.1215456 27.723262,3.1594656 C27.809949,2.8217856 27.8832693,2.3704256 27.3787514,2.4611456 C27.36147,2.4163456 27.3340098,2.4516256 27.3446918,2.4835456 C27.1606359,2.7769856 27.2887648,3.1986656 27.2233301,3.5374656 C27.1679624,4.0918656 27.0107514,4.6350656 26.7440353,5.1256256 C26.2490809,5.2202656 25.7563076,5.3216256 25.2658833,5.4325056 C24.9716511,4.8338656 23.0634201,6.0277856 22.5511283,6.1683456 C15.7453654,8.1815456 10.569876,13.5429856 8.76348819,20.3055456 C8.36025415,21.2060256 7.92508576,22.1109856 7.59511615,23.0394656 C7.44746874,23.4415456 7.44746874,23.9405056 7.85293986,24.2009056 C5.87703712,33.2768256 5.39494594,42.7329856 12.8595855,49.5403456 C13.0289885,50.2773056 12.9160718,51.0590656 12.9110383,51.8094656 C12.9736207,53.5185856 11.5150432,59.3761856 13.2091295,60.1338656 C12.7141192,67.7218656 14.570394,78.0465856 16.3695672,85.3669056 C16.5026177,87.8829856 15.744862,90.1717056 13.7051465,91.7593056 C9.82716478,94.6623456 8.1935356,99.5080256 7.73996722,104.125786 C7.67565111,104.598986 7.73884867,105.080586 7.845166,105.545386 C7.00452649,105.702186 6.2176888,105.804106 5.40165719,106.112666 C0.901207337,105.249146 1.22228454,114.930986 0.877773902,117.803786 C0.608149586,122.050826 0.776490012,127.141786 4.67404624,129.922746 C5.98441706,130.856826 8.29755992,131.753946 9.57443044,130.339386 C9.93566326,129.906506 10.1325824,129.400266 9.99047177,128.846986 C11.8209642,126.162906 11.3886481,122.732346 11.5256693,119.678106 C12.0049642,119.694906 12.5273228,119.908826 12.9994031,119.791226 C13.3629289,119.694906 13.4093484,119.227866 13.1017496,119.041946 C12.6576329,118.789946 12.05418,118.885706 11.5575478,118.868906 C11.572704,118.576586 11.5945155,118.284266 11.6224791,117.991946 C12.0938882,118.107306 12.769487,118.384506 12.9098639,117.724826 C12.9664061,117.123946 12.2085386,117.078026 11.7365703,117.052266 C11.7695672,116.825466 11.8064791,116.599786 11.8484244,116.374666 C12.2097131,116.411066 12.5910797,116.641786 12.9462724,116.531466 C13.1475538,116.451946 13.2174627,116.248106 13.0703745,116.082906 C12.7969472,115.814666 12.3293411,115.868426 11.967549,115.784986 C12.1872864,114.706986 12.5844244,113.676026 12.9669654,112.645066 C13.6593423,112.885866 14.4092681,113.044906 15.1481204,112.984426 C15.5311648,112.903786 15.9495551,112.880826 16.3365703,112.932906 C16.7671526,112.818666 16.8667028,112.357786 16.923245,111.981466 C16.914856,111.968026 16.906411,111.955146 16.8969034,111.943386 C17.8918456,106.141786 21.461166,101.129786 25.4632499,96.8116256 C26.5655721,95.5762656 27.646642,94.2916256 28.3955052,92.8244256 C29.9167769,89.7578656 30.189645,86.3077056 31.353487,83.1218656 C32.3338882,80.2289056 33.644259,77.4546656 34.9289034,74.6765056 C35.4439915,78.3355456 36.4059368,81.9346656 36.516169,85.6452256 C36.6839502,90.3397056 35.6509216,94.9658656 35.2102165,99.6228256 C34.573487,104.547578 34.9126845,109.49697 34.8723052,114.433706 L34.8997095,114.433706 C34.8892511,115.624154 34.8569812,116.866178 34.7829897,118.052986 C34.7857861,118.486986 34.8417131,118.895786 34.7801374,119.329786 C34.7460779,119.570026 34.9183332,119.720666 35.0995368,119.725706 C35.7650128,120.163066 36.6011782,120.318186 37.3662043,120.505226 C37.5781678,120.667626 37.4865034,121.067466 37.5239745,121.312186 C37.6061313,122.686986 37.7146858,123.724498 37.5809642,125.110554 C36.8326602,126.218458 36.2935794,126.041498 36.0854748,127.725586 C35.9708803,129.483594 35.7185934,131.384682 36.4859125,132.980514 C36.1425204,133.058746 36.0122104,134.108074 36.0636633,134.385778 C36.1509095,135.168882 36.84049,135.416626 37.5071405,135.686882 C42.3789459,137.514722 52.7305399,140.52377 57.7365703,138.454458 C58.0950627,138.657626 58.4948851,138.259354 58.6107101,137.93881 C58.7638943,137.54849 58.6229581,137.170378 58.5944912,136.782746" id="ðŸ–-Ink" fill="#000000"></path>
                                </g>
                                <path d="M42.7262861,15.4344905 C42.7027755,14.1306704 42.676784,12.8007762 42.4800751,11.5096439 C42.2877376,10.2473794 41.7586321,9.10640582 40.8494,8.18979735 C38.9181679,6.24279735 36.1187586,5.76723651 33.5129865,5.33142698 L29.0578557,4.58627883 C27.6986743,4.3590037 26.2486405,3.9957127 24.8754,4.31803016 C24.1987333,4.47686085 23.6240835,4.84585555 23.0988768,5.28242169 C22.5926321,5.70321534 22.0483451,6.15508836 21.7053156,6.72121005 C21.3616954,7.28814656 21.2434928,7.95088201 21.1317882,8.59208307 C21.0057882,9.31499841 20.9079063,10.0435593 20.8383789,10.7738661 C20.6990287,12.2370407 20.6800076,13.7112153 20.7810793,15.1774164 C20.8300498,15.8885751 20.9079654,16.5976968 21.0074422,17.3036757 C21.0567671,17.653755 21.1125308,18.0029614 21.1755013,18.3509455 C21.1940498,18.453554 21.2081679,18.5671624 21.227189,18.6819349 C21.0866574,19.0757233 21.0067924,19.4835381 21.0132312,19.8896069 C21.0321932,21.085755 22.0569105,21.8388185 23.089957,22.2431413 C23.6889443,22.4775751 24.3151637,22.6368714 24.9036954,22.8987762 C25.5228262,23.1742418 25.9442439,23.6208185 26.3675519,24.1302524 C27.1748852,25.1018608 28.0859485,25.9751095 29.1262608,26.7036704 C31.331881,28.2483847 34.1255013,28.9789825 36.8016869,28.4244429 C37.4437966,28.2913952 38.0915772,28.0847815 38.6687671,27.773464 C39.2781511,27.4448026 39.7363705,26.9685434 40.1211637,26.4054481 C40.8356363,25.3600989 41.3480245,24.1829825 41.7356532,22.9851466 C42.1310203,21.7632735 42.41167,20.5391889 42.5647249,19.2651095 C42.7172481,17.9951624 42.7493831,16.7122947 42.7262861,15.4344905 L42.7262861,15.4344905 Z" id="âœ‹-Skin" fill="#FFFFFF"></path>
                                <path d="M28.5095105,0.0444835965 C30.3531392,-0.205373546 32.8977722,0.606705819 33.8159241,2.24413439 C38.1994008,1.22596508 43.7281013,1.19261587 47.3409873,4.5820709 C51.1108861,8.6027164 46.3756962,13.9039598 43.2358565,15.0991767 C43.4644641,16.193764 43.1080253,23.2061185 40.5859578,26.334018 C38.5843713,28.9842614 33.9231983,30.2073566 31.7663122,27.0418593 L31.7494877,27.0157403 C31.5184088,26.650164 31.7174237,26.6619029 31.9546329,26.9338381 C34.0666835,28.7637958 36.9383376,28.7950497 39.1512236,26.8638222 C43.2985316,23.333928 42.8709114,14.6788487 40.897443,9.67175344 C35.2779494,9.06366878 29.2612574,10.7417799 25.3799494,14.9094995 L25.6424051,16.4662614 C25.6871224,16.7314836 25.7379241,16.996473 25.7766751,17.2626265 C25.8014852,17.4331556 25.8042616,17.6027534 25.684346,17.7408063 C25.2883882,18.1965206 24.6210549,17.511727 24.0719831,17.239346 C23.9098903,17.2168804 23.7475021,17.2082085 23.5882447,17.2192667 C20.9502194,17.5540392 21.4699916,22.5959968 24.3693502,21.7122138 C24.612962,21.5626952 24.8222532,21.6083249 24.9167679,21.8252984 C25.6078481,22.448981 26.0635274,23.5613196 27.2117046,24.6326847 C27.6168186,25.034563 27.9854852,25.3707905 28.4411646,25.6931661 C28.7088186,25.9598434 29.5164473,26.2317587 29.2604304,26.6881132 C28.7762785,27.7265365 25.9212827,24.4646582 25.4165148,23.5626 C23.8349873,24.1779016 22.0823291,23.9689016 20.443384,23.8185101 C11.7970549,23.3756 12.9513165,14.3957587 20.0385063,8.72633545 C21.3725823,7.75868465 22.8444726,6.9693037 24.3744895,6.36185926 C24.5833671,6.27892275 24.4921013,5.94100741 24.28027,6.02510794 C23.2678987,6.42710264 22.2809873,6.90557354 21.340211,7.45935661 L21.3387867,7.12827504 C21.3374083,6.57063615 21.3462855,5.9900806 21.4445907,5.48057883 C21.4937384,5.12753122 21.5763797,4.75044656 21.7036203,4.4667746 C21.8609283,3.59707619 24.3251055,0.611827512 28.5095105,0.0444835965 Z M23.472854,18.3768042 C23.6063561,18.2518466 23.8555797,18.4008413 23.9744321,18.3971164 C24.2783561,18.4380899 24.5670987,18.5645608 24.7922802,18.7206561 C24.9409637,18.8027196 25.0451662,18.8797778 25.132238,18.9506667 L25.1346008,18.9500265 C25.1339511,18.9500265 25.1331241,18.9506667 25.1324152,18.9508413 L25.1406108,18.9562975 C25.2673947,19.0450494 25.731514,19.5449518 25.4382886,19.4105132 C25.4164321,19.3825185 25.3940439,19.3556296 25.3714785,19.3292645 C25.3690565,19.332873 25.3656895,19.3364233 25.3616726,19.3398571 L25.3781432,19.36394 C25.6273665,19.7333122 25.1970782,19.344164 25.1308793,19.2407989 C25.1277485,19.2433016 25.1242042,19.2449894 25.120719,19.2467936 L25.2069303,19.3501727 C25.218983,19.3648499 25.2284584,19.3765675 25.2363224,19.3864762 L25.2545017,19.4037674 C25.5426541,19.6828237 25.5516562,19.9339641 25.2168878,19.5213862 C25.2300608,19.5408254 25.2406346,19.5614286 25.2421114,19.5797037 L25.2619505,19.6046212 C25.5247984,19.9383332 25.3110029,19.8198184 25.1803898,19.6772912 L25.1694599,19.6650317 L25.1716963,19.6683604 C25.2932057,19.8527875 25.0521146,19.7233836 25.0095126,19.6247316 L25.0077148,19.6202698 C24.9612923,19.5829513 24.9327257,19.5410698 24.9229276,19.5304937 L24.9211156,19.5287196 C24.6951072,19.3005714 24.3674954,19.1075185 24.0892084,19.0198095 C24.0488624,19.0122434 24.0080439,19.0061905 23.9668118,19.0018836 C23.7994616,18.9651005 23.6302802,18.9398995 23.4593266,18.9262804 C23.4384152,18.923836 23.4172084,18.9087037 23.4013772,18.8891481 C23.1428693,18.8805586 23.2226673,18.7761599 23.3299203,18.7567732 L23.3317974,18.756455 L23.3105196,18.7546904 C23.1446201,18.7387381 23.0313203,18.6800909 23.199066,18.6440954 L23.2203224,18.6399312 C23.2177232,18.6359153 23.2154194,18.6318995 23.2131747,18.6278836 C23.0695122,18.6123439 23.1632591,18.4747566 23.2430059,18.5080476 C23.2094532,18.3999683 23.3628034,18.4539206 23.3819426,18.4378571 C23.3965333,18.4219101 23.4146684,18.4078254 23.4251241,18.4070688 C23.4713181,18.3749418 23.44893,18.3778519 23.472854,18.3768042 Z M24.351865,16.6269545 L24.3181941,16.6463354 C24.290962,16.6619915 24.262962,16.6724095 24.2348439,16.6785206 C24.2745401,16.6951661 24.3137637,16.7131503 24.3525738,16.7323566 C24.3519437,16.7088822 24.3514974,16.6854336 24.3514974,16.6620282 L24.351865,16.6269545 Z" id="ðŸ–-Ink" fill="#000000"></path>
                                <g id="FACE" transform="translate(30.000000, 13.952411)" fill="#000000">
                                    <path d="M5.45736454,10.7171161 C5.06923561,10.565317 4.72292647,10.3121061 4.46974108,9.98864548 C4.3817178,9.8761973 4.35889486,9.75745378 4.37736022,9.64884765 C4.39812321,9.52672773 4.47348295,9.41604776 4.57625673,9.34180705 C4.67934885,9.26733637 4.808304,9.23060927 4.93297674,9.24933169 C5.04131004,9.26560038 5.14915067,9.32246619 5.23449847,9.4404038 L5.25232976,9.46398853 C5.40285286,9.65921819 5.5989983,9.8194018 5.82249233,9.9226494 C6.03790425,10.0221633 6.2788207,10.0686103 6.52812991,10.0416004 C7.00295539,9.99017791 7.33022899,9.7439905 7.67808513,9.40967214 C7.72120291,9.3674636 7.76434831,9.32393188 7.80770286,9.27969944 C7.83508212,9.23960295 7.87307766,9.2138329 7.91526303,9.20031179 C7.9621024,9.18529899 8.01508865,9.18614841 8.06362002,9.20238546 C8.11042874,9.21804617 8.15227341,9.24772251 8.18033138,9.28721979 C8.2069982,9.32475874 8.22211749,9.37113303 8.21721166,9.42447495 C8.18537178,9.77094122 7.99643364,10.0801476 7.72805488,10.3229399 C7.42998598,10.5925918 7.0348739,10.7791388 6.66289315,10.8445666 C6.25307957,10.916638 5.83549046,10.865003 5.45736454,10.7171161 L5.45736454,10.7171161 Z M6.85621909,5.37220108 C7.29221855,5.62627685 7.95654783,6.21873198 7.48751276,6.84861677 C6.93541363,7.404007 6.14051552,6.76721417 5.74880351,6.47921757 C5.38558977,6.25601859 4.97749879,6.83006965 5.31448869,7.0906921 C8.14500792,9.09976584 9.29369256,5.43863835 7.07674153,5.07347026 C6.83264726,5.03323031 6.74199003,5.29359996 6.85621909,5.37220108 Z M1.7839015,3.03512828 C1.83207372,2.46187064 2.74275199,2.33169412 2.83334249,2.89895831 C2.914464,3.4071048 2.81896579,3.87390212 2.58022028,4.33140002 C2.3520985,4.76847243 1.77873297,4.56455757 1.73537193,4.16656484 C1.67724826,3.63307213 1.75393561,3.39172735 1.7839015,3.03512828 Z M8.71610708,2.78133734 C8.84307235,2.62191883 9.02638964,2.51309356 9.24602397,2.57459146 C9.9322369,2.76683468 9.72998163,3.70081679 9.48898434,4.15543631 C9.35803517,4.40231358 8.93475986,4.46491855 8.74347476,4.24754478 C8.43169102,3.89306001 8.28238124,3.1851422 8.67875077,2.83597139 C8.68948998,2.8179261 8.70144169,2.79971475 8.71610708,2.78133734 Z M2.57055498,0.526727891 L2.67895012,0.508538959 C3.01427926,0.452939264 3.43122247,0.399514137 3.66843793,0.657971391 C3.79424845,0.795027025 3.83755175,1.04976451 3.66843793,1.18095266 C3.37097314,1.41177737 3.04209903,1.32232588 2.68562628,1.34186572 C2.39185671,1.35802898 2.1095192,1.40463675 1.82654658,1.48218721 C1.2057505,1.65228898 0.699910244,1.96282294 0.169704663,2.30380142 C0.100130697,2.34852716 0.0291132884,2.26322719 0.0623124836,2.20084363 C0.368380194,1.6261067 0.961519902,1.15399543 1.55564115,0.866211816 C1.87273677,0.712605442 2.21974053,0.585181344 2.57055498,0.526727891 Z M8.09056935,0.269271849 L8.17353441,0.285550296 C9.07639295,0.466479708 10.2494176,0.827901065 10.6769646,1.67810292 C10.6932561,1.79832447 10.6760426,1.82409036 10.6620449,1.84092432 L10.6573844,1.84652609 C10.6458503,1.8609013 10.636647,1.88071745 10.5822934,1.89707982 C10.5672103,1.8936345 10.5519771,1.88998543 10.5365825,1.88611766 C10.3406024,1.83687917 10.1855442,1.76904621 10.0354314,1.69866143 L9.87267115,1.62178631 C9.6838367,1.53302018 9.49333497,1.44748472 9.29144688,1.38433921 C8.86060038,1.24961148 8.4174377,1.1547042 7.96740906,1.10402587 C7.86986882,1.09305109 7.77594368,1.0614906 7.7018435,1.00740105 C7.63150757,0.956059215 7.57777544,0.88497525 7.55327659,0.790489171 C7.52152611,0.668209093 7.5306505,0.575633043 7.5990848,0.465318507 C7.65054316,0.382474651 7.72417184,0.325053034 7.8087162,0.292079589 C7.89490551,0.258464591 7.99303119,0.250539866 8.09056935,0.269271849 Z" id="ðŸ–-Ink"></path>
                                </g>
                                <g id="FACIAL-HAIR" transform="translate(25.000000, 19.952411)" fill="#000000">
                                    <path d="M7.10612163,5.49838082 C7.59482843,4.40282553 8.66145952,3.59765283 9.88952601,3.30328053 C10.7913459,3.08766193 11.7377745,3.09454276 12.6570762,3.18011946 C13.13873,3.22464247 13.6553474,3.26112822 14.1092715,3.43228163 C14.4968852,3.57851371 14.8127633,3.85490334 15.0502747,4.17934313 C15.3329977,4.56380225 15.5252975,5.00382842 15.6603293,5.45484078 C15.679499,5.51896548 15.6975234,5.58355277 15.7143421,5.64848698 C15.6556273,5.98877003 15.530964,6.27840091 15.2015827,6.49234267 C14.8801587,6.70125391 14.4966441,6.78671497 14.1143352,6.81707157 C14.0768397,6.79984059 14.0406102,6.78214703 14.0073948,6.76399089 C13.411627,6.43764297 12.9923048,5.66641183 12.2403462,5.77078072 C11.5692861,5.86398994 11.127539,6.67193811 10.7284717,7.14573238 C9.44747753,7.28855296 8.16744789,6.9202262 7.12517076,6.21930673 C7.0722431,5.97940285 7.06916871,5.73747519 7.10612163,5.49838082 M16.5849961,4.66730381 C16.4825166,4.39212845 16.3534527,4.1256264 16.2004568,3.87456285 C15.6946901,3.04429535 14.918257,2.38275273 13.996544,2.00459622 C11.8161412,1.11124481 8.99493998,1.74098527 7.23410048,3.2061394 C6.6326059,3.70699441 6.02442002,4.44301189 5.8404994,5.23471205 C5.78558243,5.24512003 5.73373984,5.27246988 5.69106013,5.3109794 C4.41886715,4.5445475 3.10875675,3.80714229 2.08359973,2.74471906 C1.33911607,1.97279406 0.821293021,1.05926274 0.50420929,0.0554133067 C0.478287997,-0.0272144707 0.339036397,-0.0151296523 0.343256142,0.076287084 C0.344461784,0.0976812601 0.345667425,0.119017614 0.346873067,0.14041179 C0.33361101,0.101092764 0.270917649,0.121330498 0.266095082,0.159493082 C0.0954968016,1.37896112 -0.117901755,2.67186322 0.0786178197,3.89769169 C0.196167872,4.62914122 0.543392641,5.16463167 1.00756464,5.74285265 C1.50489178,6.36264771 2.06792639,6.93913402 2.64362024,7.4919711 C3.00892963,7.84289341 3.39051518,8.24764809 3.8378082,8.50495642 C4.35804254,8.80389667 4.94820408,9.03119533 5.50340202,9.26184768 C6.06824509,9.49718362 6.64152765,9.71459471 7.22566099,9.90309474 C8.39332484,10.2812513 9.60017204,10.5426071 10.828118,10.6570949 C11.8113187,10.7484538 12.9349766,10.8479656 13.8771855,10.4940366 C14.5993648,10.2228509 15.1822925,9.73257738 15.644656,9.14273416 C16.1480113,8.50033066 16.5459333,7.76859201 16.7659026,6.99695612 C16.9944923,6.1954262 16.6331615,4.7965362 16.5849961,4.66730381" id="ðŸ–-Ink"></path>
                                </g>
                                <g id="ACCESORIES" transform="translate(20.000000, 14.952411)" fill="#000000">
                                    <path d="M21.6641174,5.65131473 C21.2816059,6.19750428 20.5724853,6.37147576 19.918415,6.31139189 C18.5077297,6.16706984 18.0637481,4.46412994 18.0175036,3.14053363 C18.9634712,3.42338071 17.9375131,1.42014224 21.1711644,1.19985485 C22.3110863,1.0988898 21.9968053,1.8306449 22.5004389,2.36530075 C22.4900992,3.48738966 22.3143813,4.70663931 21.6641174,5.65131473 M14.9449696,4.36195717 C14.1121136,8.50762337 9.55140348,7.52152329 9.07231246,3.78448778 C9.51470328,3.45260744 9.39818298,2.63311177 9.94777702,2.3361948 C10.8188103,1.74465552 11.9076587,1.76995717 12.8968029,1.7838459 C14.1611419,1.87617579 14.5214402,2.43287246 15.1709087,3.04023282 C15.1396624,3.44590461 15.0495595,3.92669634 14.9449696,4.36195717 M23.4707786,0.513268325 C23.4240227,0.504995471 23.3772101,0.497205703 23.3303974,0.489899022 C23.2938677,0.467858205 23.250975,0.450889796 23.2010946,0.440684596 C23.0871876,0.409948225 22.974076,0.389235896 22.8611348,0.378064523 C21.2401903,-0.00967268661 17.4902365,0.540864635 17.3354821,2.01113805 C16.8192932,2.19428817 16.3726415,2.03028035 15.77436,2.04658451 C15.3189594,0.023358345 7.44585726,0.308922784 7.0672089,1.52871591 C7.06578861,1.52829321 7.06436833,1.52793089 7.06289123,1.52744781 C6.69907066,1.40776315 6.16271369,1.43662756 5.74628571,1.41766642 C4.8571296,1.39785988 3.96695088,1.48209807 3.09699704,1.68143159 C1.46792851,1.95660967 -0.755387857,2.27876791 0.37760303,4.44106257 C0.377830276,4.44142488 0.37800071,4.44184758 0.378284767,4.4422099 L0.378455202,4.44202874 C0.573716179,4.65476791 0.905097408,4.4834534 0.917425494,4.19547353 C0.536504675,3.17108885 1.39685738,3.04808297 2.05882448,2.75370221 C3.70595905,2.12472373 5.38291964,2.03752664 7.08646798,2.23208968 C7.21463463,2.39247436 7.40910025,2.53232787 7.6146441,2.60551546 C8.753657,2.8064794 8.15338715,3.70453699 8.87335874,3.83515147 C8.74110167,6.96567202 12.3168716,8.67446933 14.3887286,6.61658172 C15.2159602,5.75692949 15.4131528,4.4834534 15.6049483,3.33557976 C15.7063567,3.31136505 15.7708377,3.25242852 15.8085037,3.17441006 C16.0523953,2.91559653 16.2056158,2.67658954 16.6878883,2.60551546 C17.1701607,2.53450176 17.5414236,2.67707263 17.5916449,2.72073156 C17.6043139,2.74784479 17.6178918,2.7750184 17.6336854,2.802192 C17.6557283,2.84271088 17.6857247,2.87501728 17.7198116,2.9004397 C17.2435611,6.01779614 19.5203939,7.98927168 21.8189286,6.37244193 C22.817674,5.37384199 23.0287286,3.84499435 23.0704282,2.48039609 C23.2058099,2.39356131 23.2915384,2.22526609 23.244669,2.01367425 C23.1800743,1.72201085 23.3315337,1.46947744 23.5727551,1.34266726 C23.8861839,1.17799519 23.8307359,0.576613028 23.4707786,0.513268325" id="ðŸ–-Ink"></path>
                                </g>
                            </g>
                            <g id="Group-21-Copy" transform="translate(0.000000, 28.000000)">
                                <g id="BODY" transform="translate(0.000000, 0.004944)">
                                    <path d="M26.8079896,1.60293452 L26.9226583,1.55877886 C28.472246,0.953158289 30.0851351,-0.0239206883 31.7707702,0.336919461 C31.8303934,0.314753311 32.9272029,0.538452239 33.6784804,0.680242789 L32.9654038,1.42484892 L31.7069717,1.66705447 C36.0484028,8.83501604 41.1830767,12.4189968 47.1109933,12.4189968 C53.03891,12.4189968 57.5370708,8.83501604 60.6054756,1.66705447 L61.0241688,1.55114714 C61.0758985,1.5631341 61.1309612,1.58014402 61.1898479,1.60293452 C62.1797483,1.98594312 64.1123136,3.69675761 65.0598385,4.17599952 C68.8695782,6.1030182 71.9522097,8.9889484 73.7743566,12.88597 C74.7024727,14.8710316 75.3955968,16.9552102 76.1066313,19.0253073 L76.1802608,19.2394004 C76.9687441,21.5285771 77.7460198,23.8221378 78.4548757,26.1375113 C79.1222934,28.3173401 79.7290646,30.5171261 80.224466,32.742952 L80.2913256,33.0466357 C80.5331969,34.1574889 80.9200202,35.4049935 80.8302524,36.5494214 C80.7962564,36.9827334 80.6844981,37.3539168 80.5194521,37.6906366 L71.9326613,40.7815772 L76.0235272,68.6935453 C72.2762561,68.8542708 68.5255693,68.8958097 64.7712154,68.8290693 C59.5165456,68.7355092 54.2649712,68.5069016 49.0114754,68.3701433 C43.9216273,68.2377367 38.8398086,68.2940506 33.7554107,68.5479573 L32.4642159,68.61407 C27.4887803,68.8629286 22.5525636,68.9900223 17.5792015,68.506367 L17.2403128,68.4730601 L17.2403128,68.4730601 L17.2402591,64.3901632 L18.9872593,41.655266 L10.1337916,39.9881088 L1.44289378,35.7653268 C1.18030354,35.502747 0.969584031,35.1962569 0.852403366,34.8285559 C0.648849364,34.1899884 0.799279683,33.5436243 0.966001127,32.9166488 L1.00600124,32.7671314 C1.32846072,31.5637872 1.69404288,30.372098 2.1010399,29.1947369 C3.77695392,24.3475717 6.1306626,19.7097674 9.16419399,15.5720557 C12.1728551,11.4681325 15.8222724,7.84152651 20.0831992,5.04862184 C22.1963174,3.66361058 24.4455283,2.49822513 26.8079896,1.60293452 Z" id="ðŸ‘•-Top" fill="#0566FF"></path>
                                    <path d="M47.9085611,31.8651597 C47.8327169,31.9626706 47.7583454,32.060323 47.6847102,32.1585411 C47.4652773,32.4534074 47.7583454,32.9045459 48.1191577,32.8855245 C48.8400461,32.8486839 49.5601982,32.7971353 50.2803503,32.7448089 C48.8010195,34.3279655 47.5727847,36.294519 46.2142156,37.9717217 C46.1221717,38.0841527 46.0316004,38.1973616 45.9410291,38.3104291 C45.5971528,38.7410612 45.9417655,38.9362953 46.4115579,38.820258 C46.5087564,38.7962868 46.6059548,38.7722449 46.7031532,38.7489102 C47.3864877,38.5806172 48.0690858,38.4123241 48.7524203,38.2447382 C49.1301688,38.1513285 49.5101263,38.0361397 49.8930292,37.9647213 C50.0506085,37.9357296 50.2015606,37.9597715 50.3503037,37.9675497 C50.2788776,38.0721318 50.1787337,38.2609311 50.1588522,38.2899228 C49.9357376,38.6236804 49.7111503,38.9560238 49.4850903,39.2869529 C49.0447519,39.930497 48.6022045,40.5731925 48.1434573,41.2046449 C46.3541225,43.6668143 44.4241444,46.0173305 42.5111024,48.3896965 C42.0295284,48.9864296 41.5413271,49.5769402 41.045026,50.1617231 C41.0472351,50.1581168 41.0487078,50.1545813 41.0509168,50.1511164 C41.4978824,49.3152375 41.9448479,48.480207 42.3918134,47.6443281 C43.2415634,46.0562218 44.0832135,44.463802 44.9417997,42.8798676 C44.9859808,42.7971353 45.0308983,42.7151102 45.0758158,42.6323779 C45.2540129,42.3042065 44.9616812,41.9634485 44.5957144,42.0326749 C42.8103558,42.370463 41.0423015,42.7855387 39.2961905,43.2770533 C39.2176218,43.3574521 39.1020882,43.380999 38.9989253,43.3615534 C38.9287509,43.3817061 38.8582821,43.401081 38.7881077,43.4215166 C38.8093883,43.3791605 38.8314052,43.3372287 38.8528331,43.295014 C38.7814806,43.235475 38.7459884,43.1433381 38.7923786,43.0282908 C39.7971306,40.5386853 41.1746976,38.1352771 42.806895,35.934174 C42.7412124,35.935376 42.6756771,35.9362953 42.6097736,35.9381338 C40.8182297,35.9848033 39.0605579,36.2315859 37.3338129,36.7003315 C37.3257131,36.5468879 37.4221752,36.3093684 37.4744561,36.1962302 C37.68358,35.744314 37.9236307,35.3030751 38.148218,34.8583007 C38.6077016,33.9447099 39.0671851,33.031897 39.5266686,32.1182356 C39.9758432,31.2258583 40.421336,30.3307232 40.844002,29.4256179 C41.0656439,28.951074 41.2872858,28.4758937 41.5081913,28.0007841 C41.6885975,27.6139222 41.8307134,27.2243026 41.9801928,26.8283898 C42.4190585,26.9521346 48.0543588,26.9789342 49.4239731,27.0702226 C49.7597495,27.0928502 50.0962623,27.1133565 50.4327751,27.1310344 C50.7008071,27.1458838 51.0785556,27.2024528 51.2633799,26.9698125 L51.3333333,27.0263109 C50.7251067,27.724939 50.1419161,28.44273 49.5572528,29.1596725 C49.0130888,29.8272584 48.4372617,31.1856235 47.9085611,31.8651597 Z" id="ðŸ–-Ink" fill="#FFFFFF"></path>
                                    <path d="M30.1327162,0.219391148 C30.6755924,0.195792527 31.2291425,0.283673367 31.7707378,0.336957133 C31.8179166,0.34154872 31.8358488,0.414373426 31.7826926,0.425478659 C30.8134195,0.628042394 29.8547704,0.905166028 28.9028122,1.1866022 L28.4952284,1.30727693 C27.4217511,1.62495069 26.3797618,1.95266186 25.3405478,2.37636924 C23.2693781,3.22079413 21.3022793,4.36057553 19.4918737,5.67003208 C12.5205154,10.7123421 7.4749479,18.3465496 4.29091407,26.250593 C3.42621886,28.3971065 2.69356018,30.5970106 2.10008958,32.8339678 C1.95577802,33.378231 1.82000561,33.9246298 1.691278,34.4727372 C1.65349228,34.6334427 1.48879351,35.0449771 1.57909497,35.20942 C1.65893598,35.354749 1.96933392,35.4445519 2.11353873,35.520153 L2.60038916,35.7726903 C3.55003564,36.2623279 5.13189725,37.0671588 5.29052777,37.1455748 L5.53792942,37.2674431 C9.58448582,39.2519782 13.9081949,40.9348364 18.4618393,41.0513068 L18.4974902,40.6623033 C18.7005084,38.5116253 18.9669297,36.3495217 19.5484455,34.2649412 C19.5797202,34.1529278 19.7222171,34.1907283 19.7352393,34.2902483 C20.0591932,36.7580662 19.955656,39.2451046 19.8426191,41.7243481 C19.6424829,46.1154002 19.376702,50.5039964 19.1404879,54.89334 C19.0222207,57.0890797 18.86937,59.2833244 18.7313561,61.4778894 C18.5931287,63.6768325 18.5484049,65.9286322 18.2327767,68.1094224 C18.1624355,68.59549 17.5933015,68.85988 17.1622881,68.808625 C16.6853768,68.7518175 16.3185138,68.3316339 16.3162723,67.8499444 C16.3105084,66.5794629 16.4700836,65.2940321 16.558784,64.0267541 C16.6430013,62.8226905 16.7334095,61.6192676 16.8260593,60.4158446 C17.1646364,56.0238315 17.5541281,51.6369438 17.9143733,47.2468527 C18.0420336,45.6897708 18.1799408,44.134077 18.321904,42.57849 C13.4980341,42.42291 8.99139338,40.6355013 4.69214716,38.5470766 C4.29091407,38.3554974 4.20550208,38.2681314 3.78731797,38.102013 C3.4537576,37.9360752 3.12115789,37.7689628 2.78983905,37.6011029 C2.20213237,37.3033972 1.59446543,37.0240579 1.02319661,36.6954925 C0.569981468,36.4348398 0.179102089,36.0773367 0.052936216,35.5497313 C-0.0877706016,34.9618922 0.12739129,34.3189339 0.270331878,33.7455649 L0.282745966,33.6951573 C0.422894689,33.1176851 0.573824084,32.5427757 0.733079145,31.9703223 C1.37885201,29.6490081 2.17736885,27.3729691 3.11187157,25.1524562 C4.9830118,20.7069457 7.39820233,16.4836467 10.3483703,12.665048 C13.0039378,9.22776457 16.1410063,6.11061088 19.8177488,3.77274561 C21.6152389,2.62976078 23.5307827,1.69126175 25.5565882,1.02772403 C26.5034727,0.717631732 27.5337206,0.447902689 28.5251154,0.336850352 C29.0598794,0.277052939 29.5953905,0.242776208 30.1327162,0.219391148 Z M31.7069717,1.66705447 L31.8953378,1.92265143 C33.3741858,3.9238386 34.9343025,5.89738363 36.8146615,7.53307386 C40.6458558,10.8658186 45.8622063,12.6633715 50.8992346,11.3846679 C54.862252,10.3786832 58.3536951,7.2436971 59.3805273,3.24837569 C59.2333338,3.31436641 59.322251,1.67413823 59.5725764,1.92888102 L59.6184493,1.97778745 L59.6197301,1.9690314 C59.6830265,1.43074791 60.06035,1.1935871 60.4295613,1.20842967 C60.7868626,1.22279345 61.2065373,1.38012416 61.3690664,1.45548581 L61.3844504,1.46274041 C63.8770252,2.65973014 66.1727035,4.21993042 68.3330741,5.95089839 C72.8007549,9.53062778 76.1482066,14.2103092 77.7701106,19.7210679 C78.5661551,22.4256887 79.0229417,25.2125774 79.5051189,27.9864688 L79.8019631,29.6860162 C80.2520193,32.2468095 80.7547443,34.8579691 81.7707002,37.2401081 C82.0334924,37.8563418 81.8309012,38.434241 81.1865159,38.6765273 C80.3819149,38.979145 79.5743253,39.2721523 78.7654547,39.561529 C78.5632863,39.561529 78.6268115,39.6651148 78.3109587,39.7241567 L77.8272828,39.8959407 L75.4672098,40.7305685 C74.8820649,40.9374034 74.1370244,41.3613244 73.5072625,41.2842284 C73.1989993,41.2464279 72.9639593,41.1493639 72.7825025,40.9729615 C72.9998237,44.0411027 73.2939973,47.1039048 73.6860508,50.1511169 C74.0427736,52.9237948 74.4382428,55.6927353 74.905334,58.4490757 C75.1366381,59.8139516 75.3743466,61.1775462 75.632549,62.5375102 C75.7615968,63.217599 75.8948075,63.8967268 76.0320743,64.5752138 C76.1004942,64.9137099 76.1819363,65.2525263 76.2353059,65.5937987 C76.2963608,65.9846175 76.1887676,66.2250885 75.9704857,66.5466064 C75.7912704,66.810676 75.432733,66.946288 75.1420818,66.7640127 C74.7571799,66.5223671 74.5564032,66.3130761 74.4431528,65.8730312 C74.3402561,65.4733496 74.2777069,65.0560491 74.1980793,64.651242 C74.0510993,63.9039879 73.9090293,63.1558795 73.7718692,62.4067034 C73.4850607,60.8400112 73.2206674,59.2694748 72.98456,57.6942401 C72.152527,52.1449335 71.6245944,46.549177 71.3579596,40.9443442 C71.22635,38.1790342 71.1856823,35.4112683 71.2090582,32.6430752 C71.221013,31.224168 71.2673379,29.8012032 71.3676728,28.3858198 C71.4692887,26.9531378 71.6806325,25.5490732 71.8693476,24.1301661 C71.8759655,24.0801925 71.9464134,24.0773094 71.9494021,24.1301661 C72.0387429,25.7209908 72.1787849,27.3100002 72.2474183,28.9049894 C72.3129562,30.4269404 72.3416691,31.9512405 72.3937579,33.4737253 C72.4621778,35.4750166 72.5570691,37.4774824 72.6827012,39.4785601 C72.9101627,39.2296534 73.2530094,39.0861396 73.5960696,39.1421997 C74.0930478,39.0378746 74.6280253,38.7770083 75.1018411,38.618652 L76.8880169,38.0217457 C77.8270026,37.7080228 78.7659884,37.3964356 79.7082831,37.0942451 C78.8658085,34.258849 78.2886929,31.3812042 77.7958968,28.4616036 L77.5761189,27.1485606 C77.1410814,24.5640274 76.6720171,21.9782728 75.8840268,19.4754714 C75.055623,16.8441717 73.8159526,14.3978168 72.1714199,12.1824295 C70.5503699,9.99907644 68.5781475,8.07658963 66.5475388,6.27839601 C64.8090755,4.73903976 62.9493564,3.34917704 61.1762028,1.85210611 C61.1947755,1.95130574 61.1987248,2.0605428 61.1823937,2.18056475 C60.8053905,4.94085603 59.3660108,7.5113973 57.3600588,9.42331278 C53.3301159,13.2643355 47.3647756,14.0612428 42.2069184,12.2600593 C37.2176025,10.517819 32.8063867,6.39158397 31.2478859,1.2856324 C31.2212011,1.19828547 31.3381874,1.16358161 31.3851527,1.22775705 C31.4716115,1.34628407 31.5584973,1.46481108 31.6454899,1.58333809 C31.6396192,1.53624763 31.7198872,1.67314099 31.7069717,1.66705447 Z" id="ðŸ–-Ink" fill="#000000"></path>
                                </g>
                            </g>
                            <path d="M114.638143,64.0340867 C108.013958,67.9014408 102.662311,67.9014408 98.5832002,64.0340867 C94.5040897,60.1667325 90.1964568,60.1667325 85.6603013,64.0340867" id="Path-4" stroke="#0566FF" stroke-dasharray="2"></path>
                        </g>
                    </g>
                </g>
            </g>
        </g>
    </g>
</svg>