<?xml version="1.0" encoding="UTF-8"?>
<svg width="30px" height="38px" viewBox="0 0 30 38" version="1.1" xmlns="http://www.w3.org/2000/svg" xmlns:xlink="http://www.w3.org/1999/xlink">
    <title>money-bag</title>
    <g id="Design" stroke="none" stroke-width="1" fill="none" fill-rule="evenodd">
        <g id="01_Dashboard" transform="translate(-799.000000, -583.000000)">
            <g id="Group-10" transform="translate(374.000000, 234.000000)">
                <g id="Group-13" transform="translate(0.000000, 250.000000)">
                    <g id="Group-12-Copy-5" transform="translate(385.000000, 63.000000)">
                        <g id="Group-11" transform="translate(24.000000, 24.000000)">
                            <g id="money-bag" transform="translate(17.000000, 13.000000)">
                                <g id="Group" stroke="#FFFFFF" stroke-linecap="round" stroke-linejoin="round" stroke-width="1.8">
                                    <path d="M17.3644191,10.0407273 C17.2264036,9.8985 17.0361605,9.81818182 16.8373386,9.81818182 L10.9809118,9.81818182 C10.7820899,9.81818182 10.5918468,9.8985 10.4538313,10.0407273 C9.38354228,11.1417955 0,20.9222045 0,25.0909091 C0,31.1069318 6.24007003,36 13.9090909,36 C21.5781118,36 27.8181818,31.1069318 27.8181818,25.0909091 C27.8181818,20.9222045 18.4346395,11.1417955 17.3644191,10.0407273 Z" id="Path"></path>
                                    <path d="M22.497612,0.938332911 C21.3755723,-0.382907152 18.4567284,1.35069446 16.7810876,2.52466254 C16.0133197,1.3885644 14.8765055,0 13.9107343,0 C12.9449631,0 11.8081489,1.3885644 11.040381,2.52466254 C9.36878113,1.34931378 6.44450731,-0.384287827 5.32385663,0.938332911 C5.0132137,1.31131235 4.86666853,1.80263535 4.91976827,2.29323514 C5.13665007,4.89081046 10.2146517,9.1841832 10.7924981,9.66386908 C10.9127775,9.76439536 11.0625428,9.8188334 11.2167909,9.81818182 L16.6046146,9.81818182 C16.7572843,9.81830742 16.905471,9.76439536 17.0248665,9.6653155 C17.6027129,9.18424895 22.6821036,4.8965304 22.8975963,2.29468156 C22.9527796,1.80414752 22.8076235,1.31203556 22.497612,0.938332911 Z" id="Path"></path>
                                </g>
                                <path d="M21.9090909,11 L5.90909091,11 C5.35680616,11 4.90909091,10.5522847 4.90909091,10 C4.90909091,9.44771525 5.35680616,9 5.90909091,9 L21.9090909,9 C22.4613757,9 22.9090909,9.44771525 22.9090909,10 C22.9090909,10.5522847 22.4613757,11 21.9090909,11 Z" id="Path" fill="#FFFFFF" fill-rule="nonzero"></path>
                                <path d="M13.6246449,15.5454545 C14.0200281,15.5454545 14.3405763,15.8660028 14.3405763,16.261386 L14.3409075,16.9837544 C15.7446279,17.1493105 16.924351,18.2036186 17.2042351,19.6433182 C17.2374577,20.0387013 16.9438232,20.3861634 16.54844,20.419386 C16.1860054,20.4498401 15.8638379,20.2056433 15.7870704,19.8601867 L15.7723722,19.7635909 C15.7255928,19.1821903 15.1321239,18.6857111 14.3417233,18.4938459 L14.341936,21.4103035 C16.2748875,21.884295 17.2085305,22.7920151 17.2085305,24.1377731 C17.0146293,25.6611342 15.8068215,26.8137451 14.3412271,26.9916236 L14.3405763,27.7159538 C14.3405763,28.1112699 14.0200281,28.4318182 13.6246449,28.4318182 C13.2292617,28.4318182 12.9087134,28.1112699 12.9087134,27.7158867 L12.9094406,26.9936351 C11.5052843,26.8284584 10.3250717,25.773993 10.0451218,24.3339545 C10.0118991,23.9385714 10.3055337,23.5911094 10.7009169,23.5578867 C11.0963001,23.5246641 11.4437621,23.8182987 11.4769847,24.2136818 C11.5260045,24.7950277 12.1198646,25.2914681 12.9089063,25.4833726 L12.9078326,22.567608 C10.9742711,22.0932183 10.0451889,21.1846772 10.0451889,19.8409091 C10.2383962,18.3186422 11.4443189,17.1660794 12.9086815,16.9865638 L12.9087134,16.261386 C12.9087134,15.8660028 13.2292617,15.5454545 13.6246449,15.5454545 Z M14.3421768,22.8812608 L14.3412777,25.4829846 C15.1662625,25.2813975 15.7724393,24.7459719 15.7724393,24.1363636 C15.7724393,23.562057 15.3139696,23.157999 14.3421768,22.8812608 Z M11.4769176,19.8409091 C11.4769176,20.4148961 11.9358283,20.818824 12.9076675,21.0955498 L12.9083686,18.4942174 C12.0832362,18.69575 11.4769176,19.2312296 11.4769176,19.8409091 Z" id="Combined-Shape" fill="#FFFFFF" fill-rule="nonzero"></path>
                            </g>
                        </g>
                    </g>
                </g>
            </g>
        </g>
    </g>
</svg>