<?xml version="1.0" encoding="UTF-8"?>
<svg width="14px" height="18px" viewBox="0 0 14 18" version="1.1" xmlns="http://www.w3.org/2000/svg" xmlns:xlink="http://www.w3.org/1999/xlink">
    <!-- Generator: Sketch 63.1 (92452) - https://sketch.com -->
    <title>Group</title>
    <desc>Created with Sketch.</desc>
    <g id="Symbols" stroke="none" stroke-width="1" fill="none" fill-rule="evenodd">
        <g id="Addresses-List" transform="translate(-853.000000, -83.000000)">
            <g id="Group-7" transform="translate(850.000000, 46.000000)">
                <g id="Group-3" transform="translate(0.000000, 36.000000)">
                    <g id="Group">
                        <rect id="Rectangle" x="0" y="0" width="20" height="20"></rect>
                        <path d="M11.7069596,1.66671494 C12.1110973,1.66346168 12.4997663,1.8247722 12.7858615,2.11446028 C13.0401683,2.37209631 13.1946807,2.71201204 13.224295,3.07252782 L13.2294968,3.2085664 L13.2294968,3.69646211 L15.1979219,3.69646211 C15.935612,3.69661457 16.5587138,4.25205334 16.654229,4.9945696 C16.7448259,5.70010492 16.3324392,6.36642373 15.6797426,6.59600117 L15.5747265,6.62856285 L15.5747265,16.2451397 C15.5747265,16.8135382 15.3694288,17.3473266 15.0107961,17.7303247 C14.6864047,18.0794751 14.2463365,18.2914048 13.7782631,18.3277392 L13.6370886,18.3333333 L6.36291147,18.3333333 C5.84298414,18.3324185 5.34618466,18.1143901 4.98920394,17.7303247 C4.66317418,17.3821446 4.4638676,16.9093444 4.43032451,16.3992121 L4.42527352,16.2451397 L4.42527352,6.62856285 C3.71236331,6.43645392 3.25040591,5.73723836 3.34577095,4.9945696 C3.43651047,4.28917916 4.00339685,3.75262614 4.69233569,3.7006036 L4.80207817,3.69646211 L6.7705033,3.69646211 L6.7705033,3.2085664 C6.76825057,2.79827659 6.92804337,2.40430081 7.21413857,2.11446028 C7.46844541,1.85695976 7.8037982,1.70089337 8.15902023,1.67171077 L8.29304038,1.66671494 L11.7069596,1.66671494 Z M14.8057988,6.66286801 L5.19420132,6.66286801 L5.19420132,16.2451397 C5.19420132,16.9427086 5.65571004,17.4949699 6.2654505,17.5484522 L6.36291147,17.5527002 L13.6370886,17.5527002 C14.2615645,17.5527002 14.7542971,17.0353173 14.8020092,16.3540231 L14.8057988,16.2451397 L14.8057988,6.66286801 Z M12.268337,7.70513521 C12.4594576,7.70513521 12.6179769,7.84666463 12.6477696,8.03213481 L12.6528009,8.09545178 L12.6528009,15.4724349 C12.6528009,15.6878713 12.4806932,15.8627514 12.268337,15.8627514 C12.0772164,15.8627514 11.9186971,15.7210985 11.8889045,15.5357148 L11.8838731,15.4724349 L11.8838731,8.09545178 C11.8838731,7.87986288 12.0559808,7.70513521 12.268337,7.70513521 Z M7.73166304,7.70513521 C7.92278363,7.70513521 8.08130291,7.84666463 8.11109556,8.03213481 L8.11612694,8.09545178 L8.11612694,15.4724349 C8.11612694,15.6878713 7.94401925,15.8627514 7.73166304,15.8627514 C7.54054241,15.8627514 7.38202316,15.7210985 7.35223051,15.5357148 L7.34719914,15.4724349 L7.34719914,8.09545178 C7.34719914,7.87986288 7.51930679,7.70513521 7.73166304,7.70513521 Z M10,7.70513521 C10.1911206,7.70513521 10.3496399,7.84666463 10.3794326,8.03213481 L10.3844639,8.09545178 L10.3844639,15.4724349 C10.3844639,15.6878713 10.2123562,15.8627514 10,15.8627514 C9.80887941,15.8627514 9.65036015,15.7210985 9.62056751,15.5357148 L9.61553614,15.4724349 L9.61553614,8.09545178 C9.61553614,7.87986288 9.78764378,7.70513521 10,7.70513521 Z M15.1979219,4.47709524 L4.80207817,4.47709524 C4.41986696,4.47709524 4.11004315,4.79163551 4.11004315,5.17966506 C4.11004315,5.54182597 4.37993411,5.83996956 4.72667144,5.87811243 L4.80207817,5.88223488 L15.1979219,5.88223488 C15.580133,5.88223488 15.8899569,5.5676946 15.8899569,5.17966506 C15.8899569,4.81750415 15.6200659,4.51936056 15.2733286,4.48121769 L15.1979219,4.47709524 Z M11.7069596,2.4474491 L8.29304038,2.4474491 C8.09269863,2.44394234 7.89956561,2.52276802 7.75764438,2.66623984 C7.63586886,2.78921568 7.56065565,2.95050132 7.54325917,3.12206049 L7.53943109,3.2085664 L7.53943109,3.69646211 L12.460569,3.69646211 L12.460569,3.2085664 C12.463122,3.00532735 12.3844271,2.8095592 12.2423557,2.66623984 C12.1207089,2.54326399 11.9614371,2.46778327 11.7922507,2.4509354 L11.7069596,2.4474491 Z" id="Shape" fill="#FF0000" fill-rule="nonzero"></path>
                    </g>
                </g>
            </g>
        </g>
    </g>
</svg>