<?xml version="1.0" encoding="UTF-8"?>
<svg width="24px" height="24px" viewBox="0 0 24 24" version="1.1" xmlns="http://www.w3.org/2000/svg" xmlns:xlink="http://www.w3.org/1999/xlink">
    <!-- Generator: Sketch 63.1 (92452) - https://sketch.com -->
    <title>Group 7</title>
    <desc>Created with Sketch.</desc>
    <g id="Home-Page_17/09/2020" stroke="none" stroke-width="1" fill="none" fill-rule="evenodd">
        <g id="My-Orders-Detail" transform="translate(-988.000000, -789.000000)">
            <g id="Group-10" transform="translate(65.000000, 759.000000)">
                <g id="Stacked-Group-3" transform="translate(921.000000, 28.000000)">
                    <g id="Group-7">
                        <rect id="Rectangle" x="0" y="0" width="28" height="28"></rect>
                        <path d="M14.0409374,14.5286459 C14.190943,14.5286459 14.3409485,14.5362776 14.4883678,14.5464532 C14.5607842,14.5515409 14.635787,14.5591726 14.7082035,14.5668043 C14.7366528,14.5693481 14.7935514,14.5668043 14.8168282,14.5795237 C14.8013104,14.5769798 14.7857925,14.5769798 14.7754473,14.5744359 C14.7780336,14.5769798 14.7806199,14.5769798 14.7832062,14.5769798 C14.806483,14.5795237 14.832346,14.5846115 14.8556227,14.5871554 C15.1530475,14.6329453 15.4452997,14.6990864 15.7323792,14.7855786 C15.8694533,14.8288247 16.003941,14.8720708 16.1358424,14.9229485 C16.1694644,14.9356679 16.2005,14.9483874 16.2341219,14.9611068 C16.2470534,14.9661946 16.2573986,14.9687385 16.2677438,14.9738263 L16.2755028,14.9763701 C16.2729165,14.9738263 16.2573986,14.9687385 16.2392945,14.9611068 C16.3091247,14.9687385 16.3996453,15.0297918 16.4643028,15.0603184 C16.7281057,15.182425 16.9841496,15.3248827 17.2272621,15.4826038 C17.3436457,15.5563765 17.457443,15.6377809 17.568654,15.7191853 C17.568654,15.7191853 17.5712403,15.7217292 17.5712403,15.7217292 C17.5996896,15.7420803 17.6281389,15.7624314 17.654002,15.7853264 C17.7160732,15.8362041 17.7781445,15.8870819 17.8402157,15.9405035 C18.0574652,16.1287512 18.261783,16.3322622 18.4505831,16.5484926 C18.4971366,16.5993704 18.5411037,16.652792 18.5850709,16.7062136 C18.603175,16.7291086 18.6393832,16.7621792 18.6497284,16.787618 C18.6367969,16.7723547 18.6212791,16.7545475 18.6083476,16.7367403 C18.6212791,16.7570914 18.6367969,16.7748986 18.6497284,16.7927058 C18.740249,16.9122685 18.825597,17.0343751 18.9083587,17.1590256 C19.0661231,17.4006949 19.2083697,17.6525398 19.329926,17.9145602 C19.3454438,17.9450869 19.3609616,17.9781574 19.3738931,18.008684 C19.3790657,18.0188596 19.3842383,18.0290351 19.3894109,18.0392107 L19.3919972,18.0430265 C19.3894109,18.0366668 19.3868246,18.0239474 19.3790657,18.008684 C19.4178602,18.0493862 19.4385507,18.1485979 19.4592411,18.2020195 C19.5135534,18.3444772 19.5626932,18.4894788 19.6066603,18.6344804 C19.689422,18.9168519 19.77477,19.2068551 19.800633,19.4994021 L19.800633,19.4994021 C19.8032193,19.5375604 19.8032193,19.5731749 19.8058056,19.6087893 C19.8135645,19.6800181 19.8213234,19.7537909 19.826496,19.8250197 C19.8368412,19.9700213 19.8420138,20.1175668 19.8342549,20.2625684 C19.8342549,20.450816 19.826496,20.6365198 19.8109782,20.8247675 L19.8109782,20.8247675 L19.7980467,20.9621374 C19.7954604,20.972313 19.7902878,21.0409979 19.7902878,21.0537174 L19.7902878,21.0537174 L19.7809005,21.1427534 C19.7695974,21.2021108 19.7506312,21.2614682 19.7385617,21.3208256 C19.663559,21.6896893 19.552348,22.0509213 19.4126876,22.4019778 C19.4023424,22.4274166 19.3919972,22.4553994 19.381652,22.4808383 L19.381652,22.4808383 L19.3722647,22.5030737 C19.3626858,22.5249323 19.3488922,22.555459 19.3454438,22.5622427 C19.3092355,22.6436471 19.270441,22.7250515 19.2290602,22.803912 C19.1462985,22.9692647 19.0557779,23.1295296 18.9574984,23.2847067 C18.877323,23.4119011 18.791975,23.5390955 18.7014545,23.6612021 C18.680764,23.6917287 18.6574873,23.7222554 18.6342106,23.752782 C18.6316243,23.7553259 18.6316243,23.7578698 18.629038,23.7604137 C18.629038,23.7604137 18.6264517,23.7629576 18.6264517,23.7629576 C18.5669667,23.8341864 18.5126544,23.9028714 18.4531694,23.9690125 C18.2436789,24.2081379 18.0186706,24.4294561 17.7755582,24.635511 C17.7160732,24.6863887 17.6565883,24.7321787 17.5971033,24.7805126 C17.594517,24.7830565 17.5867581,24.7881442 17.5815855,24.793232 C17.5789992,24.7957759 17.5764129,24.7983198 17.5738266,24.8008637 L17.5337389,24.8301184 L17.5337389,24.8301184 L17.4936512,24.8593731 C17.3591635,24.9560408 17.2220895,25.0476208 17.0798428,25.1341129 C16.9479414,25.2155173 16.8134537,25.2892901 16.6763796,25.3605189 C16.6091358,25.3961333 16.5393056,25.4292039 16.4694754,25.4622744 L16.4694754,25.4622744 L16.363437,25.5106083 C16.3530918,25.5156961 16.3142973,25.5335033 16.2884343,25.5462227 C16.2832617,25.5487666 16.2780891,25.5513105 16.2729165,25.5538544 C15.9884232,25.6785049 15.6806532,25.7675409 15.3806421,25.8387698 C15.225464,25.8743842 15.0702858,25.9074547 14.9125214,25.9328936 C14.8737268,25.9379814 14.832346,25.945613 14.7935514,25.9507008 C14.7909651,25.9532447 14.7883788,25.9532447 14.7857925,25.9532447 L14.7857925,25.9532447 L14.7754473,25.9532447 C14.6823404,25.9634203 14.5866473,25.9735958 14.4935404,25.9812275 C14.1521484,26.0066663 13.8107565,26.0066663 13.4693646,25.9786836 C13.3866029,25.9710519 13.3064275,25.9608764 13.2262522,25.9532447 L13.2262522,25.9532447 L13.2159069,25.9532447 C13.2133206,25.9507008 13.2107343,25.9507008 13.208148,25.9507008 C13.1693535,25.945613 13.1279727,25.9405253 13.0891781,25.9328936 C12.9184822,25.9049108 12.7503725,25.8692964 12.5822628,25.8285942 C12.429671,25.7904359 12.2796655,25.7471898 12.1296599,25.698856 C12.0546571,25.675961 11.9796544,25.6505221 11.9072379,25.6225393 C11.8710297,25.6098199 11.8348214,25.5971005 11.7986132,25.5818371 C11.7727502,25.5716616 11.6072268,25.5182399 11.7468872,25.561486 C11.6020542,25.5182399 11.4598076,25.4342917 11.3253199,25.3656067 C11.1779006,25.291834 11.0330677,25.2078857 10.890821,25.1213935 C10.7589196,25.042533 10.6321908,24.9560408 10.5080483,24.8670047 C10.4821853,24.8466536 10.4537359,24.8288464 10.4278729,24.8084953 L10.4278729,24.8084953 L10.4239934,24.8046795 C10.420114,24.7983198 10.4175277,24.7983198 10.4175277,24.7983198 C10.4123551,24.7957759 10.4071825,24.7906881 10.4045962,24.7881442 C10.334766,24.7321787 10.2649358,24.6762132 10.197692,24.6177038 C9.95716585,24.409105 9.73215754,24.1852429 9.52525334,23.9461175 C9.47611359,23.8876081 9.42956015,23.8290986 9.3804204,23.7705892 C9.3804204,23.7705892 9.3778341,23.7680453 9.3778341,23.7680453 C9.3752478,23.7680453 9.3752478,23.7655015 9.3752478,23.7655015 C9.3752478,23.7629576 9.3726615,23.7604137 9.37007519,23.7578698 C9.34938477,23.7273431 9.32610805,23.6968165 9.30283133,23.6662898 C9.20455184,23.5340077 9.11403125,23.3966378 9.02609697,23.256724 C8.93557638,23.1117224 8.8502284,22.961633 8.77263933,22.8089998 C8.73125849,22.7275954 8.69246395,22.6487348 8.65625572,22.5673304 C8.65366941,22.5571549 8.63039269,22.508821 8.62263378,22.4910138 C8.62263378,22.4884699 8.62004748,22.485926 8.62004748,22.485926 C8.60194336,22.4452238 8.58642555,22.4045216 8.57090773,22.3638194 C8.4338337,22.012763 8.33038161,21.6489871 8.26055144,21.2801234 C8.24503362,21.2063506 8.23210211,21.1325779 8.2217569,21.0588052 L8.2217569,21.0588052 L8.21782955,21.032801 C8.21457273,21.0079274 8.21054959,20.9740089 8.20882539,20.9672252 C8.20623909,20.9214352 8.20106648,20.8756453 8.19589388,20.8298553 C8.17778976,20.6288882 8.16744455,20.4304649 8.17003085,20.2294978 C8.17003085,20.0844962 8.17778976,19.9369508 8.18813497,19.7919492 C8.19330758,19.7207203 8.20106648,19.6469476 8.20882539,19.5757187 C8.21141169,19.547736 8.20882539,19.4917705 8.2217569,19.4688755 C8.2191706,19.4968582 8.2165843,19.5172093 8.21399799,19.5273849 C8.2165843,19.5197532 8.2165843,19.5121216 8.2191706,19.4994021 C8.2217569,19.4765071 8.22692951,19.4510683 8.22951581,19.4281733 C8.27606925,19.1356262 8.34331312,18.8481669 8.4312474,18.5657954 C8.47262824,18.4309694 8.51918168,18.2986872 8.57090773,18.168949 C8.58383925,18.1358784 8.59677076,18.1053518 8.60970227,18.0722812 L8.60970227,18.0722812 L8.616,18.055 L8.63499056,17.9934207 C8.64648524,17.9676992 8.66085359,17.9414123 8.67493457,17.9162561 L8.71315437,17.8458752 C8.83729689,17.5863987 8.98212982,17.3345539 9.14248058,17.0954284 C9.21748335,16.9809535 9.30024503,16.8690224 9.38300671,16.7596353 L9.38300671,16.7596353 C9.40628343,16.7291086 9.42956015,16.7036698 9.45025057,16.675687 C9.50197662,16.6120898 9.55370267,16.5510365 9.60801502,16.4925271 C9.7994014,16.2788405 10.0063056,16.0778734 10.2261413,15.8921696 C10.2778674,15.8463797 10.3321797,15.8031336 10.3864921,15.7598875 C10.4097688,15.7420803 10.4433907,15.7064659 10.4692537,15.6962903 C10.4537359,15.7090097 10.4356318,15.7242731 10.4175277,15.7369925 C10.4382181,15.7242731 10.4563222,15.7090097 10.4744263,15.6962903 C10.5959826,15.6072542 10.7201251,15.523306 10.8468539,15.4419016 C11.0925526,15.2867244 11.3485966,15.1468106 11.6149857,15.0272479 C11.6460214,15.0119846 11.677057,14.9967212 11.7106789,14.9840018 L11.7106789,14.9840018 L11.7679607,14.9517792 C11.814131,14.9336894 11.8710297,14.9212526 11.9072379,14.9076852 C12.0520708,14.8542635 12.1994901,14.8059297 12.3469093,14.7626836 C12.6339889,14.6787353 12.9288274,14.6202259 13.2262522,14.5744359 L13.2262522,14.5744359 C13.2650467,14.5693481 13.3012549,14.5642604 13.3374632,14.5617165 C13.4098796,14.5540848 13.4848824,14.548997 13.5572989,14.5439093 C13.7176496,14.5337337 13.8780004,14.5286459 14.0409374,14.5286459 Z M24.3395938,2 C24.4223555,2 24.4999446,2.00763166 24.5827063,2.00763166 C25.3637696,2.01526333 25.9870685,2.63851576 26,3.40676979 C26,3.43984033 25.9818959,3.47036698 25.9818959,3.49580585 L25.9818959,3.49580585 L25.9818959,22.0407457 C25.9818959,22.124694 25.9948274,22.2060984 25.9948274,22.2900467 C25.9844822,23.0633885 25.3611833,23.6739215 24.5775336,23.6815532 C23.6981908,23.6917287 22.818848,23.6764654 21.9420914,23.6764654 L21.9420914,23.6764654 L19.9739153,23.6764654 C20.023055,23.6001488 20.0747811,23.503481 20.1213345,23.414445 C20.167888,23.3279528 20.2144414,23.2414606 20.2558222,23.1524246 C20.501521,22.6385593 20.6825621,22.0941674 20.7860142,21.537056 C20.8661896,21.1198585 20.9127431,20.6924854 20.9127431,20.2676561 L20.9127431,20.2676561 C20.9127431,18.9651857 20.5247977,17.6678031 19.800633,16.5790193 C19.7126987,16.4467371 19.6144192,16.3169989 19.518726,16.1898045 C19.4695863,16.1262073 19.4178602,16.0626101 19.3661342,16.0015568 L19.3661342,16.0015568 L19.2807862,15.9099769 L19.2067533,15.8187149 L19.2067533,15.8187149 L19.1307807,15.7293608 C19.0506053,15.6403248 18.9756025,15.5538326 18.8902545,15.4698843 C18.5204133,15.1035645 18.1091912,14.7779469 17.6669335,14.5032071 C17.5919307,14.4574171 17.5169279,14.4090832 17.4393389,14.3658371 C17.423821,14.3556616 17.4108895,14.345486 17.3953717,14.3378544 C17.3048511,14.2869766 17.2117442,14.233555 17.1160511,14.1826772 L17.1160511,14.1826772 L17.0843449,14.16487 C17.0628882,14.1569557 17.0410483,14.1546945 17.0203579,14.1445189 C16.9893222,14.1317995 16.9557003,14.1216239 16.9246647,14.1063606 C16.9039743,14.098729 16.8858701,14.0885534 16.8651797,14.0809217 L16.8651797,14.0809217 C16.7022427,14.0122368 16.5470645,13.9562713 16.3918864,13.9003057 C16.3324014,13.8799546 16.2729165,13.8596035 16.2134315,13.8392524 C15.1504612,13.4907398 14.0254196,13.4017038 12.9055507,13.5670565 C12.5434683,13.6204781 12.1865586,13.7069703 11.839994,13.8189013 C11.8296488,13.8239891 11.8218899,13.826533 11.8115447,13.8290769 L11.8115447,13.8290769 L11.8011995,13.8316208 L11.7830954,13.8367085 C11.7649913,13.8417963 11.7468872,13.8468841 11.728783,13.8545158 L11.728783,13.8545158 L11.7003337,13.8646913 L11.7003337,13.8646913 L11.5529145,13.9181129 L11.5529145,13.9181129 L11.4960158,13.938464 C11.4572213,13.9537274 11.421013,13.9562713 11.3822185,13.9817101 L11.3822185,13.9817101 L11.2710075,14.0271821 L11.2710075,14.0271821 L11.1597965,14.0783779 C11.1158294,14.098729 11.0692759,14.1190801 11.0253088,14.141975 C11.0123773,14.1470628 10.9994457,14.1521506 10.9865142,14.1597823 C10.9554786,14.1750456 10.9270293,14.187765 10.8985799,14.2030283 C10.8804758,14.21066 10.8597854,14.2208356 10.8416813,14.2310111 C10.8158183,14.2437305 10.7899552,14.2589939 10.7640922,14.2717133 C10.7330566,14.2869766 10.7046073,14.30224 10.6735716,14.3200472 C10.6528812,14.3302227 10.6321908,14.3403983 10.6115004,14.3531177 C10.5597743,14.3811005 10.5080483,14.4116271 10.4563222,14.4421538 C10.4304592,14.4574171 10.4071825,14.4726804 10.3813195,14.4879437 C10.3399386,14.5133826 10.2959715,14.5388215 10.2545906,14.5668043 L10.2545906,14.5668043 L10.1136372,14.6609281 L10.1136372,14.6609281 L10.0683769,14.6914547 L10.0683769,14.6914547 L10.026996,14.7219814 C9.99854669,14.7423325 9.97009736,14.7626836 9.94164804,14.7830347 C9.90802611,14.8084736 9.87181787,14.8339124 9.83819594,14.8593513 L9.78776304,14.8975096 L9.78776304,14.8975096 L9.73733014,14.9356679 L9.73733014,14.9356679 C9.73474384,14.9382118 9.73215754,14.9382118 9.72957124,14.9407557 L9.72957124,14.9407557 L9.65974107,14.9941774 C9.64680956,15.0043529 9.63387804,15.0145285 9.62094653,15.024704 C9.59508351,15.047599 9.56922048,15.0679501 9.54335746,15.0883012 L9.54335746,15.0883012 L9.53301225,15.0984767 C9.52783964,15.1010206 9.52525334,15.1035645 9.52266704,15.1061084 L9.52266704,15.1061084 L9.43473276,15.182425 C9.34162587,15.2612855 9.25369158,15.3401461 9.1683436,15.4240943 C9.163171,15.4266382 9.15799839,15.431726 9.15282579,15.4368138 L9.15282579,15.4368138 L9.12437646,15.4647965 C9.10885865,15.4800599 9.09334083,15.4927793 9.08040932,15.5080426 C9.02351066,15.5640082 8.96402571,15.6225176 8.91229966,15.681027 L8.91229966,15.681027 L8.83341743,15.7691091 L8.83341743,15.7691091 L8.75453521,15.8590991 C8.73643109,15.8819941 8.71574067,15.9048891 8.69763655,15.9277841 C8.67953244,15.9506791 8.65884202,15.973574 8.6407379,15.996469 L8.61131871,16.0308115 L8.61131871,16.0308115 L8.58383925,16.065154 C8.56314883,16.088049 8.54504471,16.1134879 8.52694059,16.1363828 C8.50883648,16.1592778 8.49073236,16.1847167 8.47262824,16.2076117 C8.43642001,16.2559456 8.40021177,16.3042794 8.36658984,16.3526133 L8.36658984,16.3526133 L8.31486379,16.426386 C7.9036417,17.0165679 7.5881128,17.6678031 7.38379491,18.3521089 C6.9544687,19.7868614 7.02171256,21.3844228 7.59587171,22.7682976 C7.65018406,22.8980358 7.70708271,23.0252302 7.76915397,23.1524246 C7.81312111,23.2414606 7.85708826,23.3279528 7.9036417,23.414445 C7.95019514,23.503481 7.99933489,23.6001488 8.05106094,23.6764654 L8.05106094,23.6764654 L3.51468643,23.6764654 C3.33881786,23.6764654 3.1655356,23.6713776 2.99742594,23.617956 C2.58103124,23.4856738 2.25257083,23.1804073 2.09739268,22.781017 C1.96290495,22.4350483 2.0068721,22.0076752 2.0068721,21.6438993 L2.0068721,21.6438993 L2.0068721,3.44238421 C2.0094584,2.92597505 2.27067495,2.43246088 2.74138199,2.18061601 C2.98708073,2.04833386 3.25346988,2 3.52761794,2 L3.52761794,2 Z M17.2091579,17.9603502 C16.8910427,17.6728909 16.3944727,17.6499959 16.0789438,17.9603502 C15.6780669,18.3546527 15.2746037,18.7514992 14.8737268,19.1458018 L14.8737268,19.1458018 L13.0891781,20.8959964 C12.7736492,20.588186 12.4607066,20.2829195 12.1451777,19.9725652 C12.0727613,19.9038802 12.0029311,19.8351953 11.9305146,19.7639664 C11.6356761,19.4714194 11.0925526,19.4510683 10.8003005,19.7639664 C10.5080483,20.0768646 10.4847716,20.565291 10.8003005,20.8756453 C11.3046294,21.3717033 11.8063721,21.8652175 12.3081148,22.3587317 C12.377945,22.4274166 12.4503614,22.4986455 12.5227779,22.5698743 C12.8279616,22.8700531 13.3478084,22.8700531 13.6529921,22.5698743 C14.0538689,22.1755718 14.4573321,21.7787253 14.858209,21.3844228 C15.4970257,20.7560825 16.1332561,20.1302862 16.7694865,19.5044899 C16.9169058,19.3620322 17.064325,19.2170306 17.2117442,19.072029 C17.5065827,18.779482 17.5298594,18.2478095 17.2091579,17.9603502 Z M16.5884454,3.47545475 L11.4106678,3.47545475 C11.2684212,3.47545475 11.1365198,3.62045634 11.1365198,3.76291404 L11.1365198,3.76291404 L11.1365198,10.0183334 C11.1365198,10.2243883 11.3667007,10.3363193 11.5425693,10.2447394 C12.2977696,9.85298071 13.0581425,9.46122204 13.8107565,9.07200725 L13.8107565,9.07200725 L14.0021429,8.97025175 C14.7159624,9.33911544 15.4271956,9.70797913 16.1384287,10.0742989 L16.1384287,10.0742989 L16.4565439,10.2421955 C16.6324125,10.3337755 16.8496619,10.2243883 16.8496619,10.0183334 L16.8496619,10.0183334 L16.8496619,3.76545793 C16.8496619,3.68150964 16.8212126,3.6077369 16.7746591,3.56449081 C16.7332783,3.51870084 16.671207,3.47545475 16.5884454,3.47545475 L16.5884454,3.47545475 Z" id="Combined-Shape" fill="#26A541" fill-rule="nonzero"></path>
                    </g>
                </g>
            </g>
        </g>
    </g>
</svg>