<?xml version="1.0" encoding="UTF-8"?>
<svg width="142px" height="142px" viewBox="0 0 142 142" version="1.1" xmlns="http://www.w3.org/2000/svg" xmlns:xlink="http://www.w3.org/1999/xlink">
    <title>Group 36</title>
    <g id="Artist-Informative" stroke="none" stroke-width="1" fill="none" fill-rule="evenodd">
        <g transform="translate(-202.000000, -1643.000000)" id="Group-14">
            <g transform="translate(65.000000, 1502.000000)">
                <g id="Group-11" transform="translate(0.000000, 92.000000)">
                    <g id="Group-6" transform="translate(88.000000, 0.000000)">
                        <g id="Group-36" transform="translate(50.000000, 50.000000)">
                            <circle id="Oval" stroke="#CCCCCC" stroke-width="1.12903226" fill="#FFFFFF" cx="70" cy="70" r="70"></circle>
                            <path d="M83.2629418,44.3358835 C82.9815841,44.7133453 82.7056898,45.0913545 82.432527,45.4715535 C81.618502,46.6129717 82.7056898,48.3593141 84.0441873,48.285683 C86.7184508,48.1430742 89.3899826,47.9435313 92.0615144,47.7409775 C86.5736745,53.8693254 82.0173196,61.4817907 76.9774666,67.9741881 C76.6360131,68.4094051 76.3000229,68.847633 75.9640327,69.2853135 C74.6883626,70.9522767 75.9667644,71.7080214 77.7095428,71.2588446 C78.0701176,71.1660531 78.4306925,71.0729878 78.7912673,70.9826598 C81.3262178,70.3312029 83.8584366,69.679746 86.3933871,69.0310263 C87.794712,68.6694404 89.2042319,68.2235483 90.6246783,67.9470897 C91.2092466,67.8348639 91.7692303,67.9279292 92.321019,67.9580385 C92.0560512,68.3628724 91.6845498,69.0937085 91.6107959,69.2059343 C90.7831127,70.4978992 89.9499662,71.7843897 89.1113566,73.0654057 C87.4778432,75.556544 85.836135,78.0443976 84.134331,80.4887295 C77.4964758,90.0197079 70.3368798,99.1184803 63.2401112,108.301833 C61.4536267,110.611767 59.6425576,112.897615 57.8014406,115.16129 C57.8096355,115.147331 57.8150987,115.133644 57.8232936,115.120232 C59.4813916,111.884572 61.1394895,108.652196 62.7975875,105.416536 C65.9498858,99.2690271 69.0721362,93.1048216 72.257214,86.9734627 C72.4211117,86.6532087 72.587741,86.3356919 72.7543703,86.0154379 C73.4154242,84.745097 72.330968,83.4260336 70.973349,83.6940069 C64.3502447,85.0015739 57.7913335,86.6083184 51.3138249,88.5109557 C51.0223603,88.8221769 50.5937679,88.9133261 50.2110668,88.8380527 C49.9507427,88.9160633 49.689326,88.991063 49.4290019,89.0701685 C49.5079459,88.9062094 49.5896216,88.7438926 49.6691119,88.5804809 C49.4044172,88.3500075 49.2727528,87.9933486 49.4448453,87.5480039 C53.1721512,77.9108216 58.2824802,68.6073056 64.337406,60.0869065 C64.0937448,60.0915598 63.85063,60.0951182 63.6061493,60.1022349 C56.9600993,60.282891 50.4397041,61.2381787 44.0340373,63.0526777 C44.0039894,62.4587023 44.3618326,61.5392722 44.5557781,61.101318 C45.3315604,59.3519646 46.222071,57.6439432 47.0552174,55.9222358 C48.7597531,52.3857555 50.4642887,48.8522863 52.1688244,45.3155323 C53.8351172,41.8611685 55.487752,38.3961296 57.0557062,34.8924959 C57.8779261,33.0555518 58.7001461,31.2161441 59.5196344,29.3770101 C60.1888831,27.8794805 60.7160873,26.3712757 61.2706077,24.8387097 C62.8986577,25.3177221 83.8038041,25.4214625 88.8846315,25.7748368 C90.1302537,25.8624276 91.3786075,25.9418068 92.6269613,26.0102372 C93.6212738,26.0677187 95.0225988,26.2866958 95.7082373,25.3861524 L95.9677419,25.6048558 C93.7114175,28.309223 91.5479684,31.0877688 89.3790561,33.8630298 C87.3603832,36.4472334 85.2242504,41.7054211 83.2629418,44.3358835 Z" id="ðŸ–-Ink" fill="#0566FF"></path>
                            <circle id="Oval" stroke="#CCCCCC" stroke-width="1.12903226" fill="#FFFFFF" cx="123.064516" cy="123.064516" r="16.9354839"></circle>
                            <g id="upload-2(24x24)@1x" transform="translate(115.161290, 115.161290)">
                                <path d="M15.8064516,9.48387097 L15.8064516,15.016129 C15.8064516,15.4508065 15.4508065,15.8064516 15.016129,15.8064516 L0.790322581,15.8064516 C0.355645161,15.8064516 0,15.4508065 0,15.016129 L0,9.48387097" id="Path"></path>
                                <path d="M15.8064516,9.48387097 L15.8064516,15.016129 C15.8064516,15.4508065 15.4508065,15.8064516 15.016129,15.8064516 L0.790322581,15.8064516 C0.355645161,15.8064516 0,15.4508065 0,15.016129 L0,9.48387097" id="Path" stroke="#0566FF" stroke-width="2" stroke-linecap="round" stroke-linejoin="round"></path>
                                <line x1="7.90322581" y1="11.8548387" x2="7.90322581" y2="0" id="Path" stroke="#0566FF" stroke-width="2" stroke-linecap="round" stroke-linejoin="round"></line>
                                <polyline id="Path" stroke="#0566FF" stroke-width="2" stroke-linecap="round" stroke-linejoin="round" points="3.9516129 3.9516129 7.90322581 0 11.8548387 3.9516129"></polyline>
                            </g>
                        </g>
                    </g>
                </g>
            </g>
        </g>
    </g>
</svg>