<?xml version="1.0" encoding="UTF-8"?>
<svg width="26px" height="26px" viewBox="0 0 26 26" version="1.1" xmlns="http://www.w3.org/2000/svg" xmlns:xlink="http://www.w3.org/1999/xlink">
    <title>download(24x24)@1x</title>
    <g id="Design" stroke="none" stroke-width="1" fill="none" fill-rule="evenodd">
        <g id="01_Dashboard" transform="translate(-1828.000000, -1183.000000)">
            <g id="Group-8" transform="translate(374.000000, 1149.000000)">
                <g id="Group-7" transform="translate(1360.000000, 32.000000)">
                    <g id="Group-37" transform="translate(92.000000, 0.000000)">
                        <g id="download(24x24)@1x" transform="translate(3.000000, 3.000000)">
                            <path d="M24,14.4 L24,22.8 C24,23.46 23.46,24 22.8,24 L1.2,24 C0.54,24 0,23.46 0,22.8 L0,14.4" id="Path"></path>
                            <path d="M24,14.4 L24,22.8 C24,23.46 23.46,24 22.8,24 L1.2,24 C0.54,24 0,23.46 0,22.8 L0,14.4" id="Path" stroke="#221B38" stroke-width="1.2" stroke-linecap="round" stroke-linejoin="round"></path>
                            <line x1="12" y1="0" x2="12" y2="18" id="Path" stroke="#221B38" stroke-width="1.2" stroke-linecap="round" stroke-linejoin="round"></line>
                            <polyline id="Path" stroke="#221B38" stroke-width="1.2" stroke-linecap="round" stroke-linejoin="round" points="18 12 12 18 6 12"></polyline>
                        </g>
                    </g>
                </g>
            </g>
        </g>
    </g>
</svg>