<?xml version="1.0" encoding="UTF-8"?>
<svg width="24px" height="24px" viewBox="0 0 24 24" version="1.1" xmlns="http://www.w3.org/2000/svg" xmlns:xlink="http://www.w3.org/1999/xlink">
    <title>drag</title>
    <g id="Symbols" stroke="none" stroke-width="1" fill="none" fill-rule="evenodd">
        <g id="Table/Featured-Products" transform="translate(-10.000000, -24.000000)">
            <g id="drag" transform="translate(10.000000, 24.000000)">
                <rect id="Rectangle" x="0" y="0" width="24" height="24"></rect>
                <g id="Group-16" transform="translate(7.200000, 3.600000)" stroke="#B9B9B9" stroke-linecap="round" stroke-linejoin="round" stroke-width="1.2">
                    <path d="M1.2,9.6 C1.86,9.6 2.4,9.06 2.4,8.4 C2.4,7.74 1.86,7.2 1.2,7.2 C0.54,7.2 0,7.74 0,8.4 C0,9.06 0.54,9.6 1.2,9.6 Z" id="Path"></path>
                    <path d="M8.4,9.6 C9.06,9.6 9.6,9.06 9.6,8.4 C9.6,7.74 9.06,7.2 8.4,7.2 C7.74,7.2 7.2,7.74 7.2,8.4 C7.2,9.06 7.74,9.6 8.4,9.6 Z" id="Path"></path>
                    <path d="M1.2,16.8 C1.86,16.8 2.4,16.26 2.4,15.6 C2.4,14.94 1.86,14.4 1.2,14.4 C0.54,14.4 0,14.94 0,15.6 C0,16.26 0.54,16.8 1.2,16.8 Z" id="Path"></path>
                    <path d="M8.4,16.8 C9.06,16.8 9.6,16.26 9.6,15.6 C9.6,14.94 9.06,14.4 8.4,14.4 C7.74,14.4 7.2,14.94 7.2,15.6 C7.2,16.26 7.74,16.8 8.4,16.8 Z" id="Path"></path>
                    <path d="M1.2,2.4 C1.86,2.4 2.4,1.86 2.4,1.2 C2.4,0.54 1.86,0 1.2,0 C0.54,0 0,0.54 0,1.2 C0,1.86 0.54,2.4 1.2,2.4 Z" id="Path"></path>
                    <path d="M8.4,2.4 C9.06,2.4 9.6,1.86 9.6,1.2 C9.6,0.54 9.06,0 8.4,0 C7.74,0 7.2,0.54 7.2,1.2 C7.2,1.86 7.74,2.4 8.4,2.4 Z" id="Path"></path>
                </g>
            </g>
        </g>
    </g>
</svg>