<?xml version="1.0" encoding="UTF-8"?>
<svg width="34px" height="34px" viewBox="0 0 34 34" version="1.1" xmlns="http://www.w3.org/2000/svg" xmlns:xlink="http://www.w3.org/1999/xlink">
    <!-- Generator: Sketch 63.1 (92452) - https://sketch.com -->
    <title>ic_edit</title>
    <desc>Created with Sketch.</desc>
    <g id="Home-Page_06/10/2020" stroke="none" stroke-width="1" fill="none" fill-rule="evenodd">
        <g id="02.2_Submit-profile_detail" transform="translate(-893.000000, -343.000000)">
            <g id="Group-7" transform="translate(846.000000, 296.000000)">
                <g id="ic_edit" transform="translate(48.000000, 48.000000)">
                    <circle id="Oval" stroke="#FFFFFF" stroke-width="2" fill="#0566FF" cx="16" cy="16" r="16"></circle>
                    <g id="edit-(1)" transform="translate(7.000000, 8.000000)" fill="#FFFFFF" fill-rule="nonzero">
                        <path d="M15.8762277,1.09968298 C14.4149511,-0.365210638 12.0385681,-0.365210638 10.5772915,1.09968298 L0.86197234,10.8113851 C0.786014894,10.8873426 0.738993617,10.9850021 0.724525532,11.0898957 L0.00473829787,16.4213851 C-0.0169638298,16.5733 0.0372914894,16.7252149 0.142185106,16.8301085 C0.232610638,16.920534 0.359206383,16.9747894 0.485802128,16.9747894 C0.507504255,16.9747894 0.529206383,16.9747894 0.550908511,16.9711723 L3.7628234,16.5371298 C4.03048298,16.5009596 4.21856809,16.2550021 4.18239787,15.9873426 C4.14622766,15.719683 3.90027021,15.5315979 3.63261064,15.5677681 L1.05729149,15.9150021 L1.56005745,12.1967043 L5.47367447,16.1103213 C5.5641,16.2007468 5.69069574,16.2550021 5.81729149,16.2550021 C5.94388723,16.2550021 6.07048298,16.2043638 6.16090851,16.1103213 L15.8762277,6.39861915 C16.5851638,5.68968298 16.9758021,4.74925745 16.9758021,3.74734255 C16.9758021,2.74542766 16.5851638,1.80500213 15.8762277,1.09968298 Z M10.7653766,2.2933 L12.3966532,3.9245766 L3.53133404,12.7898957 L1.90005745,11.1586191 L10.7653766,2.2933 Z M5.82090851,15.0758532 L4.22580213,13.4807468 L13.0911213,4.61542766 L14.6862277,6.21053404 L5.82090851,15.0758532 Z M15.3662277,5.51244894 L11.4634617,1.60968298 C11.9589936,1.20095957 12.5775043,0.976704255 13.2285681,0.976704255 C13.9700574,0.976704255 14.6645255,1.26606596 15.1889936,1.78691702 C15.7134617,2.30776809 15.9992064,3.00585319 15.9992064,3.74734255 C15.9992064,4.4020234 15.7749511,5.01691702 15.3662277,5.51244894 Z" id="Shape"></path>
                    </g>
                </g>
            </g>
        </g>
    </g>
</svg>