<?xml version="1.0" encoding="UTF-8"?>
<svg width="24px" height="24px" viewBox="0 0 24 24" version="1.1" xmlns="http://www.w3.org/2000/svg" xmlns:xlink="http://www.w3.org/1999/xlink">
    <title>pen(24x24)@1x (1)</title>
    <g id="Symbols" stroke="none" stroke-width="1" fill="none" fill-rule="evenodd">
        <g id="Table/Manage-Roles&amp;Permissions" transform="translate(-1297.000000, -24.000000)">
            <g id="Group-54-Copy-6" transform="translate(1170.000000, 0.000000)">
                <g id="Group-65" transform="translate(20.000000, 24.000000)">
                    <g id="pen(24x24)@1x-(1)" transform="translate(107.000000, 0.000000)">
                        <rect id="Rectangle" x="0" y="0" width="24" height="24"></rect>
                        <g id="Group-60" transform="translate(2.000000, 1.998738)" stroke="#464546" stroke-linecap="round" stroke-linejoin="round">
                            <path d="M15.82,0.291261867 L3.01,13.1112619 L-2.00728323e-13,20.0012619 L6.89,16.9912619 L19.71,4.18126187 C20.1,3.79126187 20.1,3.16126187 19.71,2.77126187 L17.24,0.301261867 C16.84,-0.0987381326 16.21,-0.0987381326 15.82,0.291261867 Z" id="Path"></path>
                            <polygon id="Path" points="3.01 13.1112619 6.89 16.9912619 1.63424829e-13 20.0012619"></polygon>
                            <path d="M17.23,6.66125187 L13.34,2.77125187 L15.81,0.301251867 C16.2,-0.0887481326 16.83,-0.0887481326 17.22,0.301251867 L19.69,2.77125187 C20.08,3.16125187 20.08,3.79125187 19.69,4.18125187 L17.23,6.66125187 Z" id="Path"></path>
                        </g>
                    </g>
                </g>
            </g>
        </g>
    </g>
</svg>