<?xml version="1.0" encoding="UTF-8"?>
<svg width="24px" height="24px" viewBox="0 0 24 24" version="1.1" xmlns="http://www.w3.org/2000/svg" xmlns:xlink="http://www.w3.org/1999/xlink">
    <title>visible(24x24)@1x</title>
    <g id="Symbols" stroke="none" stroke-width="1" fill="none" fill-rule="evenodd">
        <g id="Table/Manage-Roles&amp;Permissions" transform="translate(-1190.000000, -24.000000)">
            <g id="Group-54-Copy-6" transform="translate(1170.000000, 0.000000)">
                <g id="visible(24x24)@1x" transform="translate(20.000000, 24.000000)">
                    <rect id="Rectangle" x="0" y="0" width="24" height="24"></rect>
                    <g id="Group-58" transform="translate(2.000000, 6.000000)" stroke="#0566FF" stroke-linecap="round" stroke-linejoin="round">
                        <path d="M10,12 C4.48,12 0,6 0,6 C0,6 4.48,0 10,0 C15.52,0 20,6 20,6 C20,6 15.52,12 10,12 Z" id="Path"></path>
                        <path d="M10,8.5 C11.3807,8.5 12.5,7.3807 12.5,6 C12.5,4.6193 11.3807,3.5 10,3.5 C8.6193,3.5 7.5,4.6193 7.5,6 C7.5,7.3807 8.6193,8.5 10,8.5 Z" id="Path"></path>
                    </g>
                </g>
            </g>
        </g>
    </g>
</svg>