<?xml version="1.0" encoding="UTF-8"?>
<svg width="32px" height="32px" viewBox="0 0 32 32" version="1.1" xmlns="http://www.w3.org/2000/svg" xmlns:xlink="http://www.w3.org/1999/xlink">
    <!-- Generator: Sketch 63.1 (92452) - https://sketch.com -->
    <title>ic_facebook</title>
    <desc>Created with Sketch.</desc>
    <g id="Home-Page_06/10/2020" stroke="none" stroke-width="1" fill="none" fill-rule="evenodd">
        <g id="02.2_Submit-profile_detail" transform="translate(-854.000000, -894.000000)">
            <g id="Group-8-Copy-4" transform="translate(846.000000, 860.000000)">
                <g id="ic_facebook" transform="translate(8.000000, 34.000000)">
                    <circle id="Oval" fill="#2196F3" cx="16" cy="16" r="16"></circle>
                    <g id="facebook-(1)" transform="translate(12.000000, 8.000000)" fill="#FFFFFF" fill-rule="nonzero">
                        <path d="M6.34375,2.66665625 L8.34375,2.66665625 C8.52784375,2.66665625 8.67709375,2.51740625 8.67709375,2.3333125 L8.67709375,0.3333125 C8.67709375,0.14925 8.52784375,0 8.34375,0 L6.34375,0 C4.319625,0.00221875 2.67928125,1.64253125 2.67709375,3.66665625 L2.67709375,6 L0.34375,6 C0.15965625,6 0.01040625,6.14925 0.01040625,6.33334375 L0.01040625,8.33334375 C0.01040625,8.5174375 0.15965625,8.6666875 0.34375,8.6666875 L2.67709375,8.6666875 L2.67709375,15.6666875 C2.67709375,15.8507813 2.82634375,16.0000312 3.0104375,16.0000312 L5.0104375,16.0000312 C5.19453125,16.0000312 5.34378125,15.8507812 5.34378125,15.6666875 L5.34378125,8.6666875 L7.677125,8.6666875 C7.82053125,8.66659375 7.9478125,8.57475 7.993125,8.4386875 L8.65978125,6.4386875 C8.71796875,6.26403125 8.62353125,6.07528125 8.448875,6.01709375 C8.415,6.0058125 8.3795,6.00003125 8.34378125,6 L5.34378125,6 L5.34378125,3.66665625 C5.34375,3.114375 5.79146875,2.66665625 6.34375,2.66665625 Z" id="Path"></path>
                    </g>
                </g>
            </g>
        </g>
    </g>
</svg>