<?xml version="1.0" encoding="UTF-8"?>
<svg width="32px" height="32px" viewBox="0 0 32 32" version="1.1" xmlns="http://www.w3.org/2000/svg" xmlns:xlink="http://www.w3.org/1999/xlink">
    <title>facebook</title>
    <g id="Home-Page" stroke="none" stroke-width="1" fill="none" fill-rule="evenodd">
        <g id="Profile-Set-Up-1" transform="translate(-854.000000, -683.000000)" fill="#1877F2" fill-rule="nonzero">
            <g id="Group-8" transform="translate(846.000000, 257.000000)">
                <g id="Group-8-Copy-6" transform="translate(0.000000, 392.000000)">
                    <g id="facebook" transform="translate(8.000000, 34.000000)">
                        <path d="M31.9974667,15.9988 C31.9974667,7.16288 24.8346667,0 15.9988,0 C7.16288,0 0,7.16288 0,15.9988 C0,23.9842667 5.85052,30.6029333 13.4989333,31.8032 L13.4989333,20.6234667 L9.43677333,20.6234667 L9.43677333,15.9988 L13.4989333,15.9988 L13.4989333,12.47404 C13.4989333,8.46434667 15.8874667,6.24952 19.5418667,6.24952 C21.2922667,6.24952 23.1232,6.56198667 23.1232,6.56198667 L23.1232,10.4991867 L21.1058667,10.4991867 C19.1184,10.4991867 18.4985333,11.73244 18.4985333,12.9976533 L18.4985333,15.9988 L22.9357333,15.9988 L22.2264,20.6234667 L18.4985333,20.6234667 L18.4985333,31.8032 C26.1470667,30.6029333 31.9974667,23.9842667 31.9974667,15.9988 Z" id="Path"></path>
                    </g>
                </g>
            </g>
        </g>
    </g>
</svg>