<?xml version="1.0" encoding="UTF-8"?>
<svg width="40px" height="40px" viewBox="0 0 40 40" version="1.1" xmlns="http://www.w3.org/2000/svg" xmlns:xlink="http://www.w3.org/1999/xlink">
    <!-- Generator: Sketch 62 (91390) - https://sketch.com -->
    <title>ic_facebook</title>
    <desc>Created with Sketch.</desc>
    <g id="Home-Page_17/09/2020" stroke="none" stroke-width="1" fill="none" fill-rule="evenodd">
        <g id="login-page_White-theme" transform="translate(-1062.000000, -707.000000)">
            <g id="ic_facebook" transform="translate(1062.000000, 707.000000)">
                <circle id="Oval" fill="#2196F3" cx="20" cy="20" r="20"></circle>
                <g id="facebook-(1)" transform="translate(15.000000, 10.000000)" fill="#FFFFFF" fill-rule="nonzero">
                    <path d="M7.9296875,3.33332031 L10.4296875,3.33332031 C10.6598047,3.33332031 10.8463672,3.14675781 10.8463672,2.91664062 L10.8463672,0.416640625 C10.8463672,0.1865625 10.6598047,0 10.4296875,0 L7.9296875,0 C5.39953125,0.0027734375 3.34910156,2.05316406 3.34636719,4.58332031 L3.34636719,7.5 L0.4296875,7.5 C0.199570312,7.5 0.0130078125,7.6865625 0.0130078125,7.91667969 L0.0130078125,10.4166797 C0.0130078125,10.6467969 0.199570312,10.8333594 0.4296875,10.8333594 L3.34636719,10.8333594 L3.34636719,19.5833594 C3.34636719,19.8134766 3.53292969,20.0000391 3.76304688,20.0000391 L6.26304688,20.0000391 C6.49316406,20.0000391 6.67972656,19.8134766 6.67972656,19.5833594 L6.67972656,10.8333594 L9.59640625,10.8333594 C9.77566406,10.8332422 9.93476563,10.7184375 9.99140625,10.5483594 L10.8247266,8.04835938 C10.8974609,7.83003906 10.7794141,7.59410156 10.5610938,7.52136719 C10.51875,7.50726563 10.474375,7.50003906 10.4297266,7.5 L6.67972656,7.5 L6.67972656,4.58332031 C6.6796875,3.89296875 7.23933594,3.33332031 7.9296875,3.33332031 Z" id="Path"></path>
                </g>
            </g>
        </g>
    </g>
</svg>