<?xml version="1.0" encoding="UTF-8"?>
<svg width="20px" height="20px" viewBox="0 0 20 20" version="1.1" xmlns="http://www.w3.org/2000/svg" xmlns:xlink="http://www.w3.org/1999/xlink">
    <!-- Generator: Sketch 63.1 (92452) - https://sketch.com -->
    <title>Facebook</title>
    <desc>Created with Sketch.</desc>
    <g id="Home-Page_06/10/2020" stroke="none" stroke-width="1" fill="none" fill-rule="evenodd">
        <g id="01.1_login-page_White-theme-Copy" transform="translate(-1116.000000, -263.000000)" fill="#1877F2" fill-rule="nonzero">
            <g id="Group-15" transform="translate(902.000000, 257.000000)">
                <g id="Group-20" transform="translate(197.000000, 0.000000)">
                    <g id="Group-19" transform="translate(17.000000, 6.000000)">
                        <path d="M20,10.0611259 C20,4.50450269 15.5228956,0 10.0000417,0 C4.47715444,0 0,4.50450269 0,10.0611259 C0,15.0829267 3.6568645,19.2451913 8.4375013,20 L8.4375013,12.9694287 L5.89845029,12.9694287 L5.89845029,10.0611259 L8.4375013,10.0611259 L8.4375013,7.84451879 C8.4375013,5.32295283 9.93045283,3.93012024 12.2146337,3.93012024 C13.3087203,3.93012024 14.4531442,4.12662038 14.4531442,4.12662038 L14.4531442,6.60259764 L13.1922111,6.60259764 C11.949946,6.60259764 11.5624987,7.37815063 11.5624987,8.17380222 L11.5624987,10.0611259 L14.3359683,10.0611259 L13.8925998,12.9694287 L11.5624987,12.9694287 L11.5624987,20 C16.3432105,19.2451913 20,15.0829267 20,10.0611259 Z" id="Facebook"></path>
                    </g>
                </g>
            </g>
        </g>
    </g>
</svg>