<?xml version="1.0" encoding="UTF-8"?>
<svg width="60px" height="60px" viewBox="0 0 60 60" version="1.1" xmlns="http://www.w3.org/2000/svg" xmlns:xlink="http://www.w3.org/1999/xlink">
    <!-- Generator: Sketch 63.1 (92452) - https://sketch.com -->
    <title>Shape</title>
    <desc>Created with Sketch.</desc>
    <g id="Home-Page_17/09/2020" stroke="none" stroke-width="1" fill="none" fill-rule="evenodd">
        <g id="Home-page_White-theme" transform="translate(-65.000000, -4720.000000)" fill="#FFFFFF">
            <g id="Group-41" transform="translate(0.000000, 4660.000000)">
                <g id="Group-42">
                    <g id="Group-40" transform="translate(65.000000, 60.000000)">
                        <path d="M30,0 C46.5685425,0 60,13.4314575 60,30 C60,46.5685425 46.5685425,60 30,60 C13.4314575,60 0,46.5685425 0,30 C0,13.4314575 13.4314575,0 30,0 Z M30,2.21590909 C14.6552703,2.21590909 2.21590909,14.6552703 2.21590909,30 C2.21590909,45.3447297 14.6552703,57.7840909 30,57.7840909 C45.3447297,57.7840909 57.7840909,45.3447297 57.7840909,30 C57.7840909,14.6552703 45.3447297,2.21590909 30,2.21590909 Z M18.8975588,39.7159091 C19.3096815,39.7159091 19.5226115,39.8703161 19.5363489,40.1791301 L19.5370595,40.2116271 L19.5370595,41.2974857 L21.5739873,41.2974857 L21.6141198,41.2980331 C21.9821183,41.30825 22.1661175,41.4615041 22.1661175,41.7577953 C22.1661175,42.0540866 21.9821183,42.2073407 21.6141198,42.2175576 L21.5739873,42.218105 L19.5370595,42.218105 L19.5370595,46.5497365 L19.5363272,46.5833345 C19.5226587,46.8914145 19.317631,47.0454545 18.9212441,47.0454545 C18.5091214,47.0454545 18.2961914,46.8910476 18.282454,46.5822336 L18.2817434,46.5497365 L18.2817434,42.218105 L17.7961967,42.218105 L17.7554877,42.2175178 C17.3957686,42.2069495 17.2159091,42.0537087 17.2159091,41.7577953 C17.2159091,41.461882 17.3957686,41.3086412 17.7554877,41.2980729 L17.7961967,41.2974857 L18.2817434,41.2974857 L18.2817434,40.2116271 L18.2824757,40.1780291 C18.2961442,39.8699491 18.5011719,39.7159091 18.8975588,39.7159091 Z M29.8164396,41.2502745 L29.8922992,41.2506213 C31.4982824,41.2654191 32.3136278,41.7537455 32.3383352,42.7156005 L32.3389143,42.7610343 L32.3389143,44.0829491 L32.3382194,44.1127572 C32.3261932,44.366022 32.1580578,44.4975248 31.8338132,44.5072658 L31.7941545,44.5078502 L25.0557129,44.5078502 L25.0557129,45.2278217 L25.0563216,45.2597425 C25.076606,45.7863806 25.6037953,46.0549661 26.6378896,46.0654988 L26.7018348,46.0658213 L28.4545402,46.0658213 L28.4946727,46.0663686 C28.8626711,46.0765855 29.0466704,46.2298396 29.0466704,46.5261309 C29.0466704,46.8224221 28.8626711,46.9756762 28.4946727,46.9858932 L28.4545402,46.9864405 L26.7018348,46.9864405 L26.6242653,46.9861215 C24.7756187,46.9708127 23.8384576,46.4044934 23.8127819,45.2871635 L23.8122395,45.2396245 L23.8122395,42.9262736 L23.8127817,42.8780459 C23.8369972,41.8090617 24.672249,41.2665921 26.3185373,41.2506371 L26.3939271,41.2502745 L29.8164396,41.2502745 Z M40.2616163,41.2502745 L40.3374758,41.2506213 C41.9434591,41.2654191 42.7588044,41.7537455 42.7835118,42.7156005 L42.7840909,42.7610343 L42.7840909,44.0829491 L42.7833961,44.1127572 C42.7713699,44.366022 42.6032345,44.4975248 42.2789898,44.5072658 L42.2393311,44.5078502 L35.5008895,44.5078502 L35.5008895,45.2278217 L35.5014983,45.2597425 C35.5217826,45.7863806 36.0489719,46.0549661 37.0830662,46.0654988 L37.1470115,46.0658213 L38.8997168,46.0658213 L38.9398493,46.0663686 C39.3078478,46.0765855 39.491847,46.2298396 39.491847,46.5261309 C39.491847,46.8224221 39.3078478,46.9756762 38.9398493,46.9858932 L38.8997168,46.9864405 L37.1470115,46.9864405 L37.069442,46.9861215 C35.2207953,46.9708127 34.2836342,46.4044934 34.2579585,45.2871635 L34.2574161,45.2396245 L34.2574161,42.9262736 L34.2579584,42.8780459 C34.2821738,41.8090617 35.1174256,41.2665921 36.7637139,41.2506371 L36.8391038,41.2502745 L40.2616163,41.2502745 Z M29.7216988,42.1826965 L26.4649827,42.1826965 L26.4056518,42.1830652 C25.5252568,42.1941253 25.0754899,42.4540383 25.0563508,42.9628041 L25.0557129,42.9970905 L25.0557129,43.6934563 L31.0007,43.6934563 C31.0568427,43.6934563 31.0880331,43.6716964 31.0942712,43.6281766 L31.0954409,43.6108366 L31.0954409,42.9970905 L31.094819,42.9628041 C31.0761625,42.4540383 30.6377341,42.1941253 29.779534,42.1830652 L29.7216988,42.1826965 Z M40.1668754,42.1826965 L36.9101594,42.1826965 L36.8508284,42.1830652 C35.9704335,42.1941253 35.5206665,42.4540383 35.5015275,42.9628041 L35.5008895,42.9970905 L35.5008895,43.6934563 L41.4458767,43.6934563 C41.5020194,43.6934563 41.5332098,43.6716964 41.5394479,43.6281766 L41.5406175,43.6108366 L41.5406175,42.9970905 L41.5399956,42.9628041 C41.5213391,42.4540383 41.0829108,42.1941253 40.2247107,42.1830652 L40.1668754,42.1826965 Z M39.3827251,13.125 C42.1021304,13.125 44.2476764,14.0487954 45.8505068,15.6852199 C47.3280504,17.197768 48.0681818,19.020169 48.0681818,21.1525524 C48.0681818,23.4777115 47.1029872,25.9324454 45.1729864,28.5166247 L38.5147169,37.1590909 L34.21333,37.1590909 L43.2356692,25.4661444 C44.3183809,23.840793 44.6359039,22.5331298 44.6359039,21.1147355 C44.6359039,19.5760263 44.251367,18.5363842 43.2356692,17.5197948 C42.1763961,16.4892184 40.8506213,15.8941844 39.3827251,15.8941844 C37.8861458,15.8941844 36.3797248,16.5210779 35.3497176,17.580017 C34.6702728,18.2685897 34.2880846,18.9476898 34.1042633,19.7581134 L34.0738633,19.9029745 L34.0490002,20.0407003 L34.0226236,20.2218283 L34.0053845,20.3675271 L33.9861949,20.5713759 L33.9691662,20.8814878 C33.9655404,20.9856139 33.9636627,21.0909704 33.9636627,21.1995646 C33.9636627,21.2938479 33.9658641,21.3874189 33.9704612,21.4804071 L33.975123,21.5534508 C33.9795906,21.6221559 33.984123,21.6904077 33.9912452,21.7581415 L34.0003746,21.8342934 C34.0074969,21.9011854 34.0158494,21.9677536 34.0258205,22.0336094 L34.0375398,22.1023145 C34.0488707,22.1708901 34.0609138,22.23966 34.0750288,22.3070052 L34.1123397,22.4709649 L34.1449564,22.5992528 L34.1835946,22.7335223 L34.2286752,22.8747774 L34.2699033,22.9932548 L34.3192573,23.1247318 C34.3522786,23.2080068 34.3875662,23.2904399 34.4244076,23.3722903 C34.2165026,23.9477683 33.9152961,24.5207856 33.5062199,25.1368003 L32.3874436,26.5864065 C31.8277242,25.946826 31.3954468,25.2425794 31.0889308,24.4742778 L30.991547,24.2179263 C30.9634464,24.1390547 30.9376121,24.0587584 30.9113893,23.9787212 L30.8773319,23.8680549 C30.8554472,23.7957882 30.8351812,23.7227446 30.8153036,23.6492476 L30.7789801,23.5088587 L30.7306783,23.3032614 L30.6967505,23.1393017 L30.6602975,22.9444538 L30.6305135,22.7588011 L30.6046792,22.5749615 L30.5923043,22.4697022 L30.5814347,22.3636658 C30.5754132,22.3074585 30.5690032,22.2521577 30.5646651,22.195756 L30.5555842,22.0705603 L30.5481544,21.9448303 C30.5458235,21.8984009 30.5420681,21.8524248 30.5403199,21.8060602 C30.5349459,21.674219 30.5316437,21.5410826 30.5316437,21.4070397 C30.5316437,21.2580384 30.5353991,21.1111739 30.5420681,20.9657341 L30.5524925,20.8026809 C30.5576723,20.7144846 30.5637586,20.6265472 30.5712046,20.539646 L30.5927656,20.3361856 L30.6048815,20.2331928 L30.6347707,20.0148388 L30.6662705,19.823002 L30.7055481,19.6139161 L30.7387394,19.4559381 L30.745117,19.4293561 C30.7689874,19.3236327 30.7955915,19.2193196 30.8238167,19.1158986 L30.8791934,18.9203734 L30.8914469,18.8797154 C30.9214899,18.7806402 30.9531156,18.6828313 30.9866885,18.5860585 L31.0486545,18.4114717 L31.0500142,18.4118602 C31.521831,17.1558068 32.3181635,16.0653967 33.4427671,15.1434145 C35.0000798,13.8683231 36.9906197,13.125 39.3827251,13.125 Z M23.0938761,27.4640963 C23.9086312,28.2627926 24.8164726,28.8423703 25.8077376,29.2032075 L25.994575,29.2683012 L19.9144381,37.1590909 L15.6132454,37.1590909 L23.0938761,27.4640963 Z M37.4893068,16.8328734 C38.3405454,18.0943015 38.7675568,19.5339355 38.7675568,21.1525524 C38.7675568,23.4777115 37.8024269,25.9324454 35.8726852,28.5166247 L28.945065,37.1590909 L24.6408939,37.1590909 L33.9351737,25.4661444 C35.0186624,23.840793 35.3361854,22.5331298 35.3361854,21.1147355 C35.3361854,20.2980449 35.2261142,19.6222614 34.9723678,19.0155067 C35.1590355,18.6581884 35.4120697,18.3206851 35.7517364,17.9769006 C36.2311287,17.4841148 36.8315993,17.0942247 37.4893068,16.8328734 Z M37.9401454,26.3686354 C38.0966569,26.4087997 38.2565919,26.4410234 38.4194588,26.4664266 L38.5832847,26.4895978 L38.653795,26.4980807 L38.7804821,26.5109669 L38.9917135,26.5267672 C39.1007487,26.5325304 39.2095897,26.5362862 39.3210205,26.5362862 C39.5798043,26.5362862 39.8312949,26.5197089 40.0756912,26.4881125 L40.2576614,26.4616236 L38.2794236,29.0287075 C38.0866695,29.0472922 37.8955342,29.0588186 37.7081542,29.0588186 C37.5875939,29.0588186 37.4678753,29.0557751 37.3490632,29.0502709 L37.1527724,29.0380322 L36.9914614,29.0246279 C36.8341244,29.0096479 36.6801543,28.9898617 36.5284767,28.9650581 L36.3022217,28.9240634 L36.350135,28.861769 C36.9780587,28.0214429 37.5080837,27.1899235 37.9401454,26.3686354 Z M20.7830291,13.125 C23.5023049,13.125 25.6477214,14.0487954 27.2501633,15.6852199 C28.7281601,17.1977033 29.4678383,19.020169 29.4678383,21.1525524 C29.4678383,22.619254 29.0822007,24.1380186 28.3142925,25.708134 C27.6863041,25.4756634 27.122157,25.1007965 26.6125923,24.5768635 C26.2289619,24.1875562 25.9262662,23.7758437 25.701203,23.3377111 C25.945302,22.5856461 26.0362078,21.8658291 26.0362078,21.1147355 C26.0362078,19.5760263 25.6512825,18.5363842 24.6352609,17.5197948 C23.5763763,16.4892184 22.2507957,15.8941844 20.7830291,15.8941844 C19.2861907,15.8941844 17.7800934,16.5210779 16.7498921,17.580017 C15.7048635,18.6387619 15.3631896,19.6747777 15.3631896,21.1995646 C15.3631896,22.6396518 15.8855744,23.8892945 16.9304735,24.9480394 C17.9606102,26.0067195 19.2239681,26.5362862 20.7210655,26.5362862 C20.9801083,26.5362862 21.2314435,26.5197089 21.4757341,26.4881125 L21.6576416,26.4616236 L19.6791448,29.0287075 C19.4863908,29.0472922 19.2957086,29.0588186 19.1082639,29.0588186 C17.2127737,29.0588186 15.5763392,28.3814162 14.2001259,27.0271293 C12.6875539,25.5372454 11.9318182,23.6642708 11.9318182,21.4070397 C11.9318182,18.8226014 12.9025164,16.7345105 14.8432005,15.1434145 C16.400319,13.8683231 18.3905999,13.125 20.7830291,13.125 Z M22.5813329,16.8209585 C23.1782424,17.0681932 23.7390874,17.4360666 24.2414004,17.9245786 C24.5965417,18.2796304 24.8579284,18.6315741 25.0480278,19.0094197 C24.7707132,19.6465445 24.6634909,20.3464817 24.6634909,21.1995646 C24.6634909,22.6396518 25.185552,23.8892945 26.2298683,24.9480394 C27.2609114,26.0067195 28.5242694,26.5362862 30.0207193,26.5362862 C30.2795031,26.5362862 30.5310351,26.5197089 30.7755474,26.4881125 L30.9576191,26.4616236 L28.9798345,29.0287075 C28.7864978,29.0472922 28.5958157,29.0588186 28.4087594,29.0588186 C26.5132045,29.0588186 24.87677,28.3814162 23.4995855,27.0271293 C21.9870781,25.5372454 21.2316662,23.6642708 21.2316662,21.4070397 C21.2316662,19.6481634 21.6823753,18.1202035 22.5813329,16.8209585 Z M30.0828771,13.125 C31.6139023,13.125 32.962792,13.4180165 34.1354384,13.9657146 C33.7705201,14.1878244 33.4195226,14.4326632 33.0852948,14.7063828 C32.5502194,15.1447744 32.0839062,15.6258395 31.6839593,16.1423257 C31.1749126,15.9801791 30.6391897,15.8941844 30.0828771,15.8941844 C29.513356,15.8941844 28.9424103,15.9855537 28.3969753,16.156507 C28.1710057,15.8565617 27.9241226,15.5665239 27.6541892,15.2899551 C27.1536892,14.7792969 26.6048225,14.3427185 26.0162655,13.973032 C27.2032212,13.4263699 28.5617584,13.125 30.0828771,13.125 Z" id="Shape"></path>
                    </g>
                </g>
            </g>
        </g>
    </g>
</svg>