<?xml version="1.0" encoding="UTF-8"?>
<svg width="42px" height="42px" viewBox="0 0 42 42" version="1.1" xmlns="http://www.w3.org/2000/svg" xmlns:xlink="http://www.w3.org/1999/xlink">
    <!-- Generator: Sketch 62 (91390) - https://sketch.com -->
    <title>ic_facebook copy</title>
    <desc>Created with Sketch.</desc>
    <g id="Home-Page_17/09/2020" stroke="none" stroke-width="1" fill="none" fill-rule="evenodd">
        <g id="login-page_White-theme" transform="translate(-1005.000000, -706.000000)">
            <g id="ic_facebook-copy" transform="translate(1006.000000, 707.000000)">
                <circle id="Oval" stroke="#DADADA" fill="#FFFFFF" cx="20" cy="20" r="20"></circle>
                <g id="google-symbol" transform="translate(10.000000, 10.000000)" fill-rule="nonzero">
                    <path d="M19.8390234,8.14890625 C19.9279297,8.14890625 20,8.22097656 20,8.30988281 L20,10 C20,10.6325781 19.94125,11.2510937 19.8285547,11.8510937 C18.9567969,16.5116016 14.8509375,20.0336719 9.92949219,19.9997266 C4.40726562,19.9616797 -0.0121875,15.4997656 1.37548547e-05,9.97746094 C0.0121875,4.46507812 4.48476562,-2.22044605e-15 10,-2.22044605e-15 C12.7020703,-2.22044605e-15 15.1537109,1.07195312 16.9536719,2.81320312 C17.0186719,2.87605469 17.0203516,2.97964844 16.9564063,3.04355469 L14.5653516,5.43460937 C14.5037891,5.49617187 14.4043359,5.49777344 14.34125,5.43773437 C13.2115234,4.36238281 11.6830078,3.7021875 10,3.7021875 C6.52457031,3.7021875 3.7259375,6.4809375 3.70234375,9.95628906 C3.67863281,13.4544531 6.50738281,16.2977734 10,16.2977734 C12.8337891,16.2977734 15.2305859,14.4257422 16.0209375,11.8510937 L10.1609766,11.8510937 C10.0720703,11.8510937 10,11.7790234 10,11.6901172 L10,8.30984375 C10,8.2209375 10.0720703,8.14886719 10.1609766,8.14886719 L19.8390234,8.14886719 L19.8390234,8.14890625 Z" id="Path" fill="#2196F3"></path>
                    <path d="M19.8390234,8.14890625 L18.6317969,8.14890625 C18.7207031,8.14890625 18.7927734,8.22097656 18.7927734,8.30988281 L18.7927734,10 C18.7927734,10.6325781 18.7340234,11.2510937 18.6213281,11.8510937 C17.7896484,16.2972656 14.0144531,19.7072266 9.39574219,19.9819531 C9.57246094,19.9923828 9.75035156,19.9984766 9.92949219,19.9997266 C14.8509766,20.0336719 18.9567969,16.5115625 19.8285547,11.8510938 C19.94125,11.2510937 20,10.6325781 20,10 L20,8.30984375 C20,8.22097656 19.9279297,8.14890625 19.8390234,8.14890625 Z" id="Path" fill="#1E88E5"></path>
                    <path d="M4.2796875,7.36257812 L1.24265625,5.16820312 C2.94648437,2.08652344 6.22976562,-1.11022302e-15 10,-1.11022302e-15 C12.7020703,-1.11022302e-15 15.1537109,1.07195312 16.9536719,2.81320312 C17.0186719,2.87605469 17.0203516,2.97964844 16.9564062,3.04355469 L14.5653516,5.43460937 C14.5039062,5.49605469 14.4044531,5.49796875 14.3415234,5.43804687 C13.2117969,4.3625 11.6831641,3.70222656 10,3.70222656 C7.46359375,3.70222656 5.27726562,5.20160156 4.2796875,7.36257812 Z" id="Path" fill="#F44336"></path>
                    <path d="M3.40292969,6.72910156 L4.2796875,7.36257812 C5.19023437,5.39015625 7.09132812,3.96960937 9.34484375,3.73660156 C9.36179687,3.73476562 9.37808594,3.73253906 9.39535156,3.73089844 C9.19703125,3.71207031 8.99605469,3.70222656 8.79277344,3.70222656 C6.50148438,3.70222656 4.50460938,4.91015625 3.40292969,6.72910156 L3.40292969,6.72910156 Z" id="Path" fill="#E53935"></path>
                    <path d="M15.7464453,2.81320313 C15.8114453,2.87605469 15.813125,2.97964844 15.7491797,3.04359375 L13.8084375,4.98433594 C13.994375,5.12574219 14.1723437,5.27699219 14.34125,5.43777344 C14.4042969,5.4978125 14.5037891,5.49621094 14.5653516,5.43464844 L16.9564063,3.04359375 C17.0203516,2.97964844 17.0186328,2.87609375 16.9536719,2.81320312 C15.1537109,1.07195312 12.7020703,-5.55111512e-16 10,-5.55111512e-16 C9.79722656,-5.55111512e-16 9.59605469,0.0067578125 9.39628906,0.018671875 C11.8587891,0.165351562 14.0814844,1.20257812 15.7464453,2.81320313 Z" id="Path" fill="#E53935"></path>
                    <path d="M17.335625,16.7959766 C15.5094531,18.7666016 12.8985937,20 10,20 C6.08492187,20 2.69539062,17.7501172 1.05390625,14.4724219 L4.15449219,12.3476562 C5.08492187,14.6627734 7.35171875,16.2977734 10,16.2977734 C11.6619531,16.2977734 13.1734375,15.6539062 14.2985937,14.6019922 L17.335625,16.7959766 Z" id="Path" fill="#4CAF50"></path>
                    <path d="M4.15453125,12.3476953 L3.24023438,12.9742188 C4.30214844,14.9525 6.39039063,16.2977734 8.79277344,16.2977734 C8.9959375,16.2977734 9.19675781,16.2878125 9.395,16.2690234 C7.01027344,16.0416797 5.01320313,14.484375 4.15453125,12.3476953 Z" id="Path" fill="#43A047"></path>
                    <path d="M10,20 C12.8985937,20 15.5094531,18.7666016 17.335625,16.7959766 L16.5917578,16.2585937 C14.8770703,18.3925781 12.3048047,19.8082422 9.39789063,19.9817969 C9.59710938,19.9936719 9.7978125,20 10,20 Z" id="Path" fill="#43A047"></path>
                    <path d="M3.70222656,10 C3.70222656,10.8297656 3.86277344,11.6221484 4.15453125,12.3476953 L1.05390625,14.4724219 C0.379492187,13.1267578 -2.77555756e-16,11.6076563 -2.77555756e-16,10 C-2.77555756e-16,8.2475 0.450703125,6.60039063 1.24265625,5.16820312 L4.2796875,7.36257812 C3.9090625,8.16457031 3.70222656,9.05835938 3.70222656,10 Z" id="Path" fill="#FFC107"></path>
                    <path d="M3.24023438,12.9742187 L4.15453125,12.3476953 C3.86277344,11.6221484 3.70222656,10.8297656 3.70222656,10 C3.70222656,9.05835937 3.9090625,8.16457031 4.2796875,7.36257812 L3.40292969,6.72910156 C2.83359375,7.66914062 2.50316406,8.77222656 2.49511719,9.95632812 C2.48769531,11.0482812 2.75828125,12.0764453 3.24023438,12.9742187 L3.24023438,12.9742187 Z" id="Path" fill="#FFB300"></path>
                </g>
            </g>
        </g>
    </g>
</svg>