<?xml version="1.0" encoding="UTF-8"?>
<svg width="20px" height="20px" viewBox="0 0 20 20" version="1.1" xmlns="http://www.w3.org/2000/svg" xmlns:xlink="http://www.w3.org/1999/xlink">
    <!-- Generator: Sketch 63.1 (92452) - https://sketch.com -->
    <title>Google</title>
    <desc>Created with Sketch.</desc>
    <g id="Home-Page_06/10/2020" stroke="none" stroke-width="1" fill="none" fill-rule="evenodd">
        <g id="01.1_login-page_White-theme-Copy" transform="translate(-1004.000000, -263.000000)" fill-rule="nonzero">
            <g id="Group-15" transform="translate(902.000000, 257.000000)">
                <g id="Group-18" transform="translate(80.000000, 0.000000)">
                    <g id="Group-17" transform="translate(22.000000, 6.000000)">
                        <g id="Google">
                            <g id="google-symbol">
                                <path d="M19.8390234,8.14890625 C19.9279297,8.14890625 20,8.22097656 20,8.30988281 L20,10 C20,10.6325781 19.94125,11.2510937 19.8285547,11.8510937 C18.9567969,16.5116016 14.8509375,20.0336719 9.92949219,19.9997266 C4.40726562,19.9616797 -0.0121875,15.4997656 1.37548547e-05,9.97746094 C0.0121875,4.46507812 4.48476562,-2.22044605e-15 10,-2.22044605e-15 C12.7020703,-2.22044605e-15 15.1537109,1.07195312 16.9536719,2.81320312 C17.0186719,2.87605469 17.0203516,2.97964844 16.9564063,3.04355469 L14.5653516,5.43460937 C14.5037891,5.49617187 14.4043359,5.49777344 14.34125,5.43773437 C13.2115234,4.36238281 11.6830078,3.7021875 10,3.7021875 C6.52457031,3.7021875 3.7259375,6.4809375 3.70234375,9.95628906 C3.67863281,13.4544531 6.50738281,16.2977734 10,16.2977734 C12.8337891,16.2977734 15.2305859,14.4257422 16.0209375,11.8510937 L10.1609766,11.8510937 C10.0720703,11.8510937 10,11.7790234 10,11.6901172 L10,8.30984375 C10,8.2209375 10.0720703,8.14886719 10.1609766,8.14886719 L19.8390234,8.14886719 L19.8390234,8.14890625 Z" id="Path" fill="#2196F3"></path>
                                <path d="M4.2796875,7.36257812 L1.24265625,5.16820312 C2.94648437,2.08652344 6.22976562,-1.11022302e-15 10,-1.11022302e-15 C12.7020703,-1.11022302e-15 15.1537109,1.07195312 16.9536719,2.81320312 C17.0186719,2.87605469 17.0203516,2.97964844 16.9564062,3.04355469 L14.5653516,5.43460937 C14.5039062,5.49605469 14.4044531,5.49796875 14.3415234,5.43804687 C13.2117969,4.3625 11.6831641,3.70222656 10,3.70222656 C7.46359375,3.70222656 5.27726562,5.20160156 4.2796875,7.36257812 Z" id="Path" fill="#F44336"></path>
                                <path d="M15.7464453,2.81320313 C15.8114453,2.87605469 15.813125,2.97964844 15.7491797,3.04359375 L13.8084375,4.98433594 C13.994375,5.12574219 14.1723437,5.27699219 14.34125,5.43777344 C14.4042969,5.4978125 14.5037891,5.49621094 14.5653516,5.43464844 L16.9564063,3.04359375 C17.0203516,2.97964844 17.0186328,2.87609375 16.9536719,2.81320312 C15.1537109,1.07195312 12.7020703,-5.55111512e-16 10,-5.55111512e-16 C9.79722656,-5.55111512e-16 9.59605469,0.0067578125 9.39628906,0.018671875 C11.8587891,0.165351562 14.0814844,1.20257812 15.7464453,2.81320313 Z" id="Path" fill="#E53935"></path>
                                <path d="M17.335625,16.7959766 C15.5094531,18.7666016 12.8985937,20 10,20 C6.08492187,20 2.69539062,17.7501172 1.05390625,14.4724219 L4.15449219,12.3476562 C5.08492187,14.6627734 7.35171875,16.2977734 10,16.2977734 C11.6619531,16.2977734 13.1734375,15.6539062 14.2985937,14.6019922 L17.335625,16.7959766 Z" id="Path" fill="#4CAF50"></path>
                                <path d="M3.70222656,10 C3.70222656,10.8297656 3.86277344,11.6221484 4.15453125,12.3476953 L1.05390625,14.4724219 C0.379492187,13.1267578 -2.77555756e-16,11.6076563 -2.77555756e-16,10 C-2.77555756e-16,8.2475 0.450703125,6.60039063 1.24265625,5.16820312 L4.2796875,7.36257812 C3.9090625,8.16457031 3.70222656,9.05835938 3.70222656,10 Z" id="Path" fill="#FFC107"></path>
                            </g>
                        </g>
                    </g>
                </g>
            </g>
        </g>
    </g>
</svg>