<?xml version="1.0" encoding="UTF-8"?>
<svg width="120px" height="120px" viewBox="0 0 120 120" version="1.1" xmlns="http://www.w3.org/2000/svg" xmlns:xlink="http://www.w3.org/1999/xlink">
    <!-- Generator: Sketch 63.1 (92452) - https://sketch.com -->
    <title>Shape</title>
    <desc>Created with Sketch.</desc>
    <g id="Static-Pages" stroke="none" stroke-width="1" fill="none" fill-rule="evenodd">
        <g id="About-Us" transform="translate(-585.000000, -1755.000000)" fill="#DADADA">
            <g id="Group-8" transform="translate(65.000000, 1115.000000)">
                <path d="M580.227245,640.000437 L581.165505,640.011935 C605.226818,640.484844 627.641758,655.514558 636.366217,679.484816 C647.696684,710.615022 631.645827,745.0362 600.515625,756.366668 C593.978283,758.746066 587.295809,759.917948 580.712523,759.996242 L579.772755,760 C555.357697,759.904918 532.471547,744.797632 523.633783,720.516072 C512.303316,689.385866 528.354173,654.964688 559.484375,643.63422 C566.333019,641.141517 573.340947,639.97407 580.227245,640.000437 Z M580.21046,644.432673 L579.340106,644.436154 C573.243086,644.508665 567.054204,645.593987 560.999733,647.797634 C532.168921,658.291193 517.303639,690.169897 527.797197,719.000713 C535.982172,741.488749 557.177867,755.480156 579.78954,755.568215 L580.659894,755.564734 C586.756914,755.492224 592.945796,754.406901 599.000267,752.203254 C627.831079,741.709695 642.696361,709.830991 632.202803,681.000175 C624.099678,658.737019 603.244746,644.80141 580.888374,644.439481 L580.21046,644.432673 Z M566.468949,725.708134 L566.612156,725.717623 C566.933245,725.760465 567.162913,725.948377 567.30116,726.281361 L568.067287,728.382124 L571.970196,726.962746 C572.160671,726.899348 572.332708,726.865298 572.486306,726.860597 L572.633759,726.865679 C572.963473,726.900363 573.1928,727.094836 573.32174,727.449095 C573.52436,728.005789 573.283452,728.419563 572.599016,728.690417 L568.696856,730.111852 L571.680661,738.31407 C571.865661,738.90226 571.585781,739.331891 570.84102,739.602962 C570.647438,739.67342 570.470648,739.717232 570.31065,739.734399 L570.156249,739.742684 C569.759438,739.741092 569.482035,739.55002 569.324038,739.169468 L566.338276,730.970305 L565.349106,731.329084 C565.224907,731.3702 565.108654,731.398389 565.000347,731.41365 L564.843846,731.426845 C564.442403,731.436178 564.168095,731.238669 564.020923,730.834317 C563.818561,730.278333 564.0517,729.867415 564.72034,729.601563 L565.708706,729.240577 L564.966137,727.200386 L564.944537,727.136759 C564.759537,726.548568 565.039417,726.118937 565.784178,725.847866 C566.042287,725.753922 566.270544,725.707348 566.468949,725.708134 Z M590.469226,720.612241 L590.710296,720.622032 C591.88987,720.702725 592.68279,721.259506 593.089053,722.292376 L594.044287,724.917537 C594.194888,725.401614 593.968911,725.763671 593.366358,726.00371 L580.631562,730.64004 L581.14689,732.052335 C581.390269,732.648544 581.923427,732.934225 582.746366,732.909378 L582.977988,732.894902 C583.455602,732.850553 584.019432,732.713814 584.669477,732.484688 L588.158733,731.216553 C588.349208,731.153154 588.521245,731.119105 588.674844,731.114404 L588.822296,731.119486 C589.15201,731.15417 589.381337,731.348643 589.510277,731.702902 C589.712897,732.259596 589.47199,732.67337 588.787554,732.944224 L585.27345,734.223739 C584.153644,734.620845 583.171842,734.846591 582.328046,734.900975 L582.051892,734.912757 C580.425636,734.945366 579.351401,734.292532 578.829188,732.954256 L577.181703,728.427827 C576.521561,726.477782 577.60835,724.930763 580.442071,723.78677 L580.918191,723.604322 L587.491428,721.212597 C588.655874,720.800883 589.648473,720.600765 590.469226,720.612241 Z M589.401378,722.724259 L589.18612,722.737991 C588.890549,722.766745 588.560734,722.837278 588.196676,722.94959 L587.808295,723.080515 L581.578113,725.3489 C579.931525,725.971743 579.264212,726.767662 579.576174,727.736657 L580.074635,729.109897 L591.244516,725.044392 C591.350002,725.005998 591.393724,724.943785 591.375683,724.85775 L591.366023,724.824371 L590.921694,723.607225 C590.673887,722.996952 590.167115,722.70263 589.401378,722.724259 Z M610.094395,713.469263 L610.335466,713.479053 C611.51504,713.559746 612.307959,714.116528 612.714223,715.149398 L613.669457,717.774559 C613.820058,718.258635 613.594081,718.620693 612.991528,718.860731 L600.256732,723.497062 L600.77206,724.909357 C601.14819,725.830771 602.21644,726.01051 603.976809,725.448574 L604.415012,725.298586 L607.783903,724.073574 C607.974378,724.010176 608.146415,723.976126 608.300013,723.971425 L608.447466,723.976507 C608.77718,724.011192 609.006507,724.205664 609.135447,724.559924 C609.338067,725.116618 609.097159,725.530392 608.412724,725.801245 L604.89862,727.08076 C603.778813,727.477867 602.797012,727.703612 601.953216,727.757997 L601.677062,727.769778 L601.411131,727.768867 C599.93315,727.727735 598.947559,727.075205 598.454358,725.811277 L596.806872,721.284849 C596.146731,719.334804 597.23352,717.787784 600.06724,716.643791 L600.543361,716.461344 L607.116598,714.069619 C608.281044,713.657905 609.273643,713.457786 610.094395,713.469263 Z M565.290076,699.958582 C567.36709,700.902058 569.469156,701.370181 571.578378,701.370268 L571.973936,701.364801 L565.946275,720.348529 L557.864877,723.289918 L565.290076,699.958582 Z M609.026548,715.58128 L608.81129,715.595013 C608.515719,715.623767 608.185904,715.6943 607.821846,715.806611 L607.433465,715.937536 L601.203283,718.205922 C599.556695,718.828764 598.889382,719.624683 599.201344,720.593678 L599.699805,721.966918 L610.869686,717.901413 C610.975171,717.86302 611.018894,717.800806 611.000853,717.714772 L610.991192,717.681392 L610.546864,716.464246 C610.299057,715.853974 609.792285,715.559652 609.026548,715.58128 Z M585.067069,670.139476 C587.529072,671.927418 589.315872,674.340295 590.42277,677.381472 C592.012839,681.750154 591.878162,687.022298 590.019622,693.197308 L582.913684,714.172897 L574.82669,717.116322 L584.293199,688.790815 C585.217434,684.996036 584.919769,682.321962 583.949794,679.656977 C583.391297,678.122518 582.72235,676.928079 581.83066,675.961589 C581.937032,675.162579 582.181648,674.355414 582.584741,673.477204 C583.148465,672.223487 584.010045,671.080298 585.067069,670.139476 Z M599.991881,662.265337 C603.802362,664.0968 606.439232,667.014721 607.897471,671.0212 C609.487541,675.389882 609.352742,680.66207 607.493716,686.837257 L600.893854,707.628649 L592.81209,710.570171 L601.767657,682.430631 C602.690433,678.636383 602.392767,675.962309 601.422793,673.297325 C600.37054,670.406284 598.93708,668.715895 596.333513,667.500441 C594.986011,666.894473 593.58779,666.53865 592.181695,666.459797 L591.712764,666.443808 L591.243602,666.448556 C590.148897,666.483999 589.055189,666.690598 587.982637,667.080975 C585.170753,668.104418 582.769081,670.312444 581.557988,673.006432 C580.75228,674.764815 580.498602,676.302119 580.707436,677.95051 L580.749382,678.243475 L580.796852,678.519247 L580.871159,678.877602 L580.938406,679.163141 L581.041754,679.55927 L581.22183,680.153576 L581.429008,680.754966 L581.429008,680.754966 C581.493484,680.932112 581.561609,681.106415 581.633837,681.277985 L581.692547,681.412036 C581.747925,681.538069 581.803115,681.663207 581.862817,681.785599 L581.932047,681.922436 C581.991173,682.043247 582.052389,682.162608 582.11616,682.279524 L582.185163,682.400598 C582.253348,682.521694 582.323004,682.642669 582.395579,682.759549 L582.577806,683.042094 L582.726818,683.260825 L582.891236,683.486678 L583.072534,683.72125 L583.231018,683.91566 L583.413659,684.128938 C583.53265,684.262819 583.655323,684.393569 583.780517,684.522162 C583.783433,685.745589 583.609364,687.028198 583.262026,688.465361 L582.151305,691.954068 C580.662283,691.135143 579.368487,690.107567 578.267176,688.873637 L577.908896,688.458582 L577.594709,688.063962 L577.594709,688.063962 L577.45504,687.879324 L577.188864,687.510631 L577.188864,687.510631 L577.024611,687.271698 L576.79326,686.918438 L576.617389,686.63358 L576.415651,686.292413 L576.232731,685.963963 L576.058472,685.636219 L575.870304,685.255117 C575.820552,685.153628 575.770691,685.054108 575.72397,684.951103 L575.411733,684.235562 L575.411733,684.235562 C575.311476,683.991524 575.214226,683.743636 575.12256,683.491786 C575.020665,683.211832 574.927287,682.933324 574.840357,682.6555 L574.748439,682.342015 C574.697857,682.172763 574.649157,682.003377 574.603719,681.835009 L574.457424,681.236192 L574.36426,680.805492 L574.292256,680.423514 L574.223069,680.003807 L574.171202,679.629983 C574.143752,679.415018 574.122403,679.200834 574.10471,678.987217 L574.070263,678.497209 C574.058957,678.290514 574.051491,678.085116 574.048392,677.880333 L574.045426,677.509931 L574.048246,677.509731 C574.075773,674.827111 574.8263,672.233792 576.308787,669.732439 C578.362805,666.271728 581.594454,663.513878 586.088918,661.878026 C591.198338,660.01835 595.861289,660.286804 599.991881,662.265337 Z M557.961419,673.341502 L558.460551,673.351989 C560.781108,673.434026 562.97925,673.995862 565.044181,674.985261 C568.855469,676.816293 571.491532,679.734645 572.949771,683.741125 C573.885914,686.313156 574.221895,689.200128 573.962462,692.399082 L573.897758,693.089346 C572.558871,693.082016 571.242555,692.763482 569.926853,692.127546 C568.939831,691.658434 568.089553,691.091878 567.367068,690.422592 C567.311397,688.842629 566.989948,687.428017 566.476309,686.016806 C565.424056,683.125766 563.989867,681.435642 561.385691,680.220409 C559.888872,679.546964 558.329324,679.182381 556.765863,679.163441 L556.296765,679.168166 C555.202206,679.203556 554.108611,679.410114 553.036153,679.800457 C550.223782,680.824076 547.822719,683.031881 546.611261,685.726002 C545.371811,688.429898 545.438333,690.610096 546.481064,693.474979 C547.465874,696.180721 549.301943,698.171408 551.989203,699.446097 C553.528902,700.18985 555.094194,700.546929 556.685208,700.517102 L557.119759,700.499375 C558.1352,700.435627 559.161061,700.215189 560.197377,699.838001 C560.684086,699.660853 561.144976,699.45783 561.58236,699.231405 L561.906027,699.057237 L559.944192,705.233468 C559.594741,705.400202 559.244356,705.552258 558.892171,705.680443 C557.435239,706.210722 555.982239,706.498352 554.533344,706.543343 L554.050532,706.549353 C552.119891,706.537449 550.196582,706.09419 548.281019,705.219605 C544.420223,703.45468 541.71945,700.452409 540.175833,696.211356 C538.408454,691.355522 538.804324,686.768446 541.362547,682.451832 C543.4162,678.991253 546.647362,676.233581 551.142435,674.597508 C553.514552,673.734128 555.790429,673.32949 557.961419,673.341502 Z M557.048718,680.311971 C558.339308,680.368295 559.644636,680.675946 560.92249,681.25029 C561.83256,681.674523 562.56435,682.15703 563.179914,682.736954 C563.094576,684.123674 563.371774,685.512093 563.955158,687.114928 C564.939968,689.820671 566.775428,691.811578 569.461594,693.086666 C571.002278,693.83006 572.567986,694.186989 574.158939,694.157184 L574.593461,694.139467 C575.608808,694.075753 576.634386,693.855418 577.670254,693.478393 C578.156476,693.301422 578.617736,693.098264 579.055537,692.871688 L579.379512,692.697408 L577.419015,698.873152 C577.068469,699.040285 576.718084,699.19234 576.366629,699.320259 C574.909648,699.850557 573.456618,700.138197 572.007581,700.18324 L571.524717,700.189269 C569.59385,700.177447 567.670089,699.734353 565.753531,698.86013 C561.892857,697.095161 559.192692,694.092669 557.649075,689.851616 C556.44626,686.546908 556.248184,683.367845 557.048718,680.311971 Z M596.853119,686.337535 L594.89177,692.513589 C594.542319,692.680323 594.191082,692.832688 593.839019,692.960829 C593.612501,693.043274 593.385484,693.119426 593.158487,693.190334 L592.781312,693.301574 L592.469062,693.386702 C592.163202,693.466152 591.86038,693.534269 591.558435,693.591392 L591.105296,693.669093 L591.152719,693.519284 C591.757848,691.511009 592.18506,689.586229 592.435208,687.747665 C592.75674,687.716097 593.079274,687.667269 593.402652,687.603622 L593.864587,687.502844 L594.111429,687.44042 L594.519111,687.325655 C594.727916,687.261919 594.934983,687.194545 595.144347,687.118342 C595.630569,686.941372 596.091752,686.738242 596.529334,686.511745 L596.853119,686.337535 Z M575.126222,666.983256 L575.690516,666.985556 C576.065136,666.993332 576.436597,667.013555 576.804854,667.046003 C576.27111,667.71287 575.779064,668.412922 575.338276,669.15577 C574.632733,670.345366 574.085567,671.568118 573.687319,672.812035 C572.62,672.855496 571.554636,673.060279 570.509395,673.440716 C569.592202,673.774547 568.718949,674.23522 567.916429,674.79719 L567.521188,675.086498 C566.891501,674.677469 566.229295,674.301357 565.532992,673.966314 C564.2434,673.34912 562.913592,672.904189 561.554956,672.612082 C563.411259,670.773268 565.757686,669.277991 568.615676,668.237767 C570.875865,667.415126 573.048495,667.009252 575.126222,666.983256 Z" id="Shape"></path>
            </g>
        </g>
    </g>
</svg>