<?xml version="1.0" encoding="UTF-8"?>
<svg width="32px" height="32px" viewBox="0 0 32 32" version="1.1" xmlns="http://www.w3.org/2000/svg" xmlns:xlink="http://www.w3.org/1999/xlink">
    <title>instagram</title>
    <defs>
        <linearGradient x1="11.128804%" y1="76.67687%" x2="89.5697187%" y2="17.803048%" id="linearGradient-1">
            <stop stop-color="#B900B4" offset="0%"></stop>
            <stop stop-color="#F50000" offset="100%"></stop>
        </linearGradient>
    </defs>
    <g id="Home-Page" stroke="none" stroke-width="1" fill="none" fill-rule="evenodd">
        <g id="Profile-Set-Up-1" transform="translate(-854.000000, -781.000000)">
            <g id="Group-8" transform="translate(846.000000, 257.000000)">
                <g id="Group-8-Copy-3" transform="translate(0.000000, 490.000000)">
                    <g id="instagram" transform="translate(8.000000, 34.000000)">
                        <circle id="Oval" fill="url(#linearGradient-1)" cx="16" cy="16" r="16"></circle>
                        <path d="M16,7 C13.555,7 13.24975,7.01125 12.28975,7.054 C11.33125,7.099 10.67875,7.24975 10.105,7.4725 C9.51325,7.702 9.01075,8.01025 8.5105,8.5105 C8.01025,9.01075 7.70125,9.5125 7.4725,10.105 C7.24975,10.67875 7.09825,11.33125 7.054,12.28975 C7.009,13.24975 7,13.555 7,16 C7,18.445 7.01125,18.75025 7.054,19.71025 C7.099,20.668 7.24975,21.32125 7.4725,21.895 C7.702,22.486 8.01025,22.98925 8.5105,23.4895 C9.01075,23.989 9.5125,24.29875 10.105,24.5275 C10.6795,24.7495 11.332,24.90175 12.28975,24.946 C13.24975,24.991 13.555,25 16,25 C18.445,25 18.75025,24.98875 19.71025,24.946 C20.668,24.901 21.32125,24.7495 21.895,24.5275 C22.486,24.298 22.98925,23.989 23.4895,23.4895 C23.989,22.98925 24.29875,22.48825 24.5275,21.895 C24.7495,21.32125 24.90175,20.668 24.946,19.71025 C24.991,18.75025 25,18.445 25,16 C25,13.555 24.98875,13.24975 24.946,12.28975 C24.901,11.332 24.7495,10.678 24.5275,10.105 C24.298,9.51325 23.989,9.01075 23.4895,8.5105 C22.98925,8.01025 22.48825,7.70125 21.895,7.4725 C21.32125,7.24975 20.668,7.09825 19.71025,7.054 C18.75025,7.009 18.445,7 16,7 Z M16,8.62 C18.40225,8.62 18.68875,8.632 19.6375,8.67325 C20.515,8.7145 20.99125,8.86 21.30775,8.9845 C21.72925,9.14725 22.02775,9.34225 22.34425,9.6565 C22.6585,9.9715 22.8535,10.27075 23.01625,10.69225 C23.13925,11.00875 23.28625,11.485 23.326,12.3625 C23.36875,13.312 23.3785,13.597 23.3785,16 C23.3785,18.403 23.36725,18.68875 23.323,19.6375 C23.27725,20.515 23.131,20.99125 23.00725,21.30775 C22.83925,21.72925 22.648,22.02775 22.333,22.34425 C22.01875,22.6585 21.715,22.8535 21.298,23.01625 C20.983,23.13925 20.49925,23.28625 19.62175,23.326 C18.66625,23.36875 18.385,23.3785 15.9775,23.3785 C13.56925,23.3785 13.288,23.36725 12.33325,23.323 C11.455,23.27725 10.97125,23.131 10.65625,23.00725 C10.2295,22.83925 9.93625,22.648 9.622,22.333 C9.30625,22.01875 9.1045,21.715 8.947,21.298 C8.82325,20.983 8.67775,20.49925 8.632,19.62175 C8.59825,18.67675 8.58625,18.385 8.58625,15.98875 C8.58625,13.59175 8.59825,13.29925 8.632,12.343 C8.67775,11.4655 8.82325,10.9825 8.947,10.6675 C9.1045,10.24 9.30625,9.9475 9.622,9.63175 C9.93625,9.3175 10.2295,9.115 10.65625,8.95825 C10.97125,8.83375 11.4445,8.6875 12.322,8.6425 C13.27825,8.60875 13.5595,8.5975 15.96625,8.5975 L16,8.62 L16,8.62 Z M16,11.3785 C13.44625,11.3785 11.3785,13.4485 11.3785,16 C11.3785,18.55375 13.4485,20.6215 16,20.6215 C18.55375,20.6215 20.6215,18.5515 20.6215,16 C20.6215,13.44625 18.5515,11.3785 16,11.3785 Z M16,19 C14.3425,19 13,17.6575 13,16 C13,14.3425 14.3425,13 16,13 C17.6575,13 19,14.3425 19,16 C19,17.6575 17.6575,19 16,19 Z M21.8845,11.19625 C21.8845,11.7925 21.4,12.27625 20.8045,12.27625 C20.20825,12.27625 19.7245,11.79175 19.7245,11.19625 C19.7245,10.60075 20.209,10.1169991 20.8045,10.1169991 C21.39925,10.11625 21.8845,10.60075 21.8845,11.19625 Z" id="Shape" fill="#FFFFFF" fill-rule="nonzero"></path>
                    </g>
                </g>
            </g>
        </g>
    </g>
</svg>