<?xml version="1.0" encoding="UTF-8"?>
<svg width="32px" height="32px" viewBox="0 0 32 32" version="1.1" xmlns="http://www.w3.org/2000/svg" xmlns:xlink="http://www.w3.org/1999/xlink">
    <!-- Generator: Sketch 63.1 (92452) - https://sketch.com -->
    <title>instagram (1)</title>
    <desc>Created with Sketch.</desc>
    <defs>
        <linearGradient x1="8.3918274%" y1="91.6080519%" x2="91.6081538%" y2="8.39109063%" id="linearGradient-1">
            <stop stop-color="#FFD600" offset="0%"></stop>
            <stop stop-color="#FF0100" offset="50%"></stop>
            <stop stop-color="#D800B9" offset="100%"></stop>
        </linearGradient>
    </defs>
    <g id="Home-Page_06/10/2020" stroke="none" stroke-width="1" fill="none" fill-rule="evenodd">
        <g id="02.2_Submit-profile_detail" transform="translate(-854.000000, -992.000000)" fill-rule="nonzero">
            <g id="Group-8-Copy-5" transform="translate(846.000000, 958.000000)">
                <g id="instagram-(1)" transform="translate(8.000000, 34.000000)">
                    <circle id="Oval" fill="url(#linearGradient-1)" cx="16" cy="16" r="16"></circle>
                    <path d="M23.9519043,12.7016602 C23.9129639,11.8500977 23.77771,11.2685547 23.5799561,10.7597656 C23.3791504,10.2259522 23.064209,9.74243163 22.6572266,9.34277344 C22.2576904,8.935791 21.7740478,8.62072753 21.2402344,8.41979981 C20.7313232,8.22216797 20.1499023,8.08703612 19.2983398,8.04833984 C18.4451904,8.00927734 18.1726074,8 16,8 C13.8273926,8 13.5548096,8.00927734 12.7016602,8.04809569 C11.8500977,8.08703613 11.2686768,8.22229003 10.7597656,8.42004394 C10.2259522,8.62084962 9.74243163,8.935791 9.34277344,9.34277344 C8.935791,9.74230956 8.62072753,10.2258301 8.41979981,10.7596436 C8.22216797,11.2685547 8.08703612,11.8500977 8.04833984,12.7015381 C8.00927734,13.5548096 8,13.8272705 8,15.9998779 C8,18.1726074 8.00927734,18.4451904 8.04833984,19.2983398 C8.08715819,20.1497803 8.22241212,20.7313233 8.420166,21.2402344 C8.62097169,21.7739258 8.93591309,22.2575684 9.3428955,22.6571045 C9.74243163,23.0640869 10.2260742,23.3790283 10.7598877,23.579834 C11.2686768,23.77771 11.8502197,23.9128418 12.7017822,23.9517822 C13.5550537,23.9907227 13.8275147,23.9998779 16.0001221,23.9998779 C18.1727295,23.9998779 18.4453125,23.9907227 19.2984619,23.9517822 C20.1500244,23.9128418 20.7314453,23.77771 21.2403564,23.579834 C22.3149414,23.1643066 23.1644287,22.3148193 23.5799561,21.2402344 C23.777832,20.7313233 23.9129639,20.1497803 23.9519043,19.2983398 C23.9907227,18.4450684 24,18.1726074 24,16 C24,13.8272705 23.9907227,13.5548096 23.9519043,12.7016602 Z M22.5118408,19.2327881 C22.4763184,20.0128174 22.3459473,20.4364014 22.2364502,20.7182617 C21.9672852,21.4160156 21.4158936,21.9674072 20.7181397,22.2365723 C20.4362793,22.3460693 20.0126953,22.4764404 19.232666,22.5119629 C18.3892822,22.5505371 18.1362305,22.5585938 16,22.5585938 C13.8636475,22.5585938 13.6107178,22.5505371 12.7672119,22.5119629 C11.9873047,22.4764404 11.5637207,22.3460693 11.2817383,22.2365723 C10.9343262,22.1082764 10.6199951,21.9038086 10.3619385,21.6380615 C10.0961914,21.3800049 9.89172363,21.0657959 9.76342775,20.7182617 C9.65393066,20.4364014 9.52355956,20.0128174 9.48803713,19.2327881 C9.44958497,18.3892822 9.44140625,18.1362305 9.44140625,16.0001221 C9.44140625,13.8638916 9.44958497,13.6109619 9.48803713,12.767334 C9.52368163,11.9873047 9.65393066,11.5637207 9.76342775,11.2818603 C9.89172363,10.9343262 10.0963135,10.6199951 10.3619385,10.3619385 C10.6199951,10.0961914 10.9343262,9.89172362 11.2818603,9.76354981 C11.5637207,9.65393066 11.9873047,9.52368162 12.767334,9.48803712 C13.6108398,9.44958497 13.8638916,9.44140625 16,9.44140625 L15.9998779,9.44140625 C18.1359863,9.44140625 18.3890381,9.44958497 19.232666,9.48815919 C20.0126953,9.52368162 20.4361572,9.65405275 20.7181397,9.76354981 C21.0655518,9.89184569 21.3798828,10.0963135 21.6379394,10.3619385 C21.9036865,10.6199951 22.1081543,10.9343262 22.2363281,11.2818603 C22.3459473,11.5637207 22.4763184,11.9873047 22.5118408,12.767334 C22.550293,13.6108398 22.5584717,13.8638916 22.5584717,16 C22.5584717,18.1362305 22.550415,18.3891602 22.5118408,19.2327881 Z" id="Shape" fill="#FFFFFF"></path>
                    <path d="M15.9998779,11.8918457 C13.7310791,11.8918457 11.8918457,13.7312012 11.8918457,16 C11.8918457,18.2687988 13.7310791,20.1080322 15.9998779,20.1080322 C18.2687988,20.1080322 20.1080322,18.2687988 20.1080322,16 C20.1080322,13.7312012 18.2687988,11.8918457 15.9998779,11.8918457 Z M15.9998779,18.666626 C14.5272217,18.6665039 13.3332519,17.4726562 13.333374,15.9998779 C13.333374,14.5272217 14.5272217,13.3332519 16,13.3332519 C17.4727783,13.333374 18.666626,14.5272217 18.666626,15.9998779 C18.666626,17.4726562 17.4726563,18.666626 15.9998779,18.666626 Z" id="Shape" fill="#FFFFFF"></path>
                    <path d="M21.2303467,11.7296142 C21.2303467,12.2597656 20.8005371,12.6895752 20.2703857,12.6895752 C19.7401123,12.6895752 19.3103027,12.2597656 19.3103027,11.7296142 C19.3103027,11.1993408 19.7401123,10.7695312 20.2703857,10.7695312 C20.8005371,10.7695312 21.2303467,11.1993408 21.2303467,11.7296142 L21.2303467,11.7296142 Z" id="Path" fill="#FFFFFF"></path>
                </g>
            </g>
        </g>
    </g>
</svg>