<?xml version="1.0" encoding="UTF-8"?>
<svg width="100px" height="79px" viewBox="0 0 100 79" version="1.1" xmlns="http://www.w3.org/2000/svg" xmlns:xlink="http://www.w3.org/1999/xlink">
    <title>“</title>
    <g id="Select-Package" stroke="none" stroke-width="1" fill="none" fill-rule="evenodd">
        <g transform="translate(-65.000000, -3853.000000)" fill="#F4F4F4" fill-rule="nonzero" id="Group-31">
            <g transform="translate(65.000000, 3751.000000)">
                <g id="Group-28" transform="translate(0.000000, 102.000000)">
                    <path d="M22.50406,79 C29.0000773,79 34.3360916,76.947549 38.5121027,72.8426471 C42.6881138,68.7377451 44.7761194,63.354902 44.7761194,56.6941176 C44.7761194,52.0470588 43.6934498,48.0196078 41.5281107,44.6117647 C39.3627716,41.2039216 36.3467636,38.6480392 32.4800866,36.9441176 L32.4800866,36.9441176 L42.6881138,0 L19.7200526,0 L6.2640167,33.4588235 C3.63467636,39.654902 1.93333849,44.3019608 1.16000309,47.4 C0.386667698,50.4980392 0,53.5960784 0,56.6941176 C0,63.2 2.12667234,68.5441176 6.38001701,72.7264706 C10.6333617,76.9088235 16.0080427,79 22.50406,79 Z M77.7279406,79 C84.2239579,79 89.5599722,76.947549 93.7359833,72.8426471 C97.9119944,68.7377451 100,63.354902 100,56.6941176 C100,52.0470588 98.9173304,48.0196078 96.7519913,44.6117647 C94.5866522,41.2039216 91.5706442,38.6480392 87.7039672,36.9441176 L87.7039672,36.9441176 L97.9119944,0 L74.9439332,0 L61.4878973,33.4588235 C58.858557,39.654902 57.1572191,44.3019608 56.3838837,47.4 C55.6105483,50.4980392 55.2238806,53.5960784 55.2238806,56.6941176 C55.2238806,63.2 57.3505529,68.5441176 61.6038976,72.7264706 C65.8572423,76.9088235 71.2319233,79 77.7279406,79 Z" id="“"></path>
                </g>
            </g>
        </g>
    </g>
</svg>