<?xml version="1.0" encoding="UTF-8"?>
<svg width="24px" height="24px" viewBox="0 0 24 24" version="1.1" xmlns="http://www.w3.org/2000/svg" xmlns:xlink="http://www.w3.org/1999/xlink">
    <title>Group 2</title>
    <g id="Symbols" stroke="none" stroke-width="1" fill="none" fill-rule="evenodd">
        <g id="Table/Manage-User" transform="translate(-1165.000000, -24.000000)">
            <g id="Group-54-Copy-6" transform="translate(941.000000, 0.000000)">
                <g id="Group-65" transform="translate(20.000000, 24.000000)">
                    <g id="Group-2" transform="translate(204.000000, 0.000000)">
                        <rect id="Rectangle" x="0" y="0" width="24" height="24"></rect>
                        <g id="receipt(24x24)@1x" transform="translate(4.000000, 2.000000)" stroke="#464546" stroke-linejoin="round">
                            <polygon id="Path" stroke-linecap="round" points="16 20 16 0 0 0 0 20 2 18 4 20 6 18 8 20 10 18 12 20 14 18"></polygon>
                            <line x1="3" y1="14" x2="13" y2="14" id="Path"></line>
                            <line x1="3" y1="10" x2="8" y2="10" id="Path"></line>
                            <line x1="3" y1="4" x2="8" y2="4" id="Path"></line>
                            <line x1="10" y1="4" x2="13" y2="4" id="Path"></line>
                            <line x1="10" y1="7" x2="13" y2="7" id="Path"></line>
                            <line x1="10" y1="10" x2="13" y2="10" id="Path"></line>
                            <line x1="3" y1="7" x2="8" y2="7" id="Path"></line>
                        </g>
                    </g>
                </g>
            </g>
        </g>
    </g>
</svg>