<?xml version="1.0" encoding="UTF-8"?>
<svg width="80px" height="80px" viewBox="0 0 80 80" version="1.1" xmlns="http://www.w3.org/2000/svg" xmlns:xlink="http://www.w3.org/1999/xlink">
    <!-- Generator: Sketch 62 (91390) - https://sketch.com -->
    <title>Shape</title>
    <desc>Created with Sketch.</desc>
    <g id="Home-Page_17/09/2020" stroke="none" stroke-width="1" fill="none" fill-rule="evenodd">
        <g id="login-page_White-theme" transform="translate(-16.000000, -10.000000)" fill="#0566FF">
            <g id="Group-6-Copy">
                <path d="M56,10 C78.09139,10 96,27.90861 96,50 C96,72.09139 78.09139,90 56,90 C33.90861,90 16,72.09139 16,50 C16,27.90861 33.90861,10 56,10 Z M56,12.9545455 C35.5403604,12.9545455 18.9545455,29.5403604 18.9545455,50 C18.9545455,70.4596396 35.5403604,87.0454545 56,87.0454545 C76.4596396,87.0454545 93.0454545,70.4596396 93.0454545,50 C93.0454545,29.5403604 76.4596396,12.9545455 56,12.9545455 Z M41.1967451,62.9545455 C41.7462419,62.9545455 42.0301486,63.1604214 42.0484652,63.5721734 L42.0494126,63.6155029 L42.0494126,65.0633143 L44.7653164,65.0633143 L44.8188264,65.0640441 C45.309491,65.0776667 45.5548234,65.2820055 45.5548234,65.6770605 C45.5548234,66.0721155 45.309491,66.2764542 44.8188264,66.2900768 L44.7653164,66.2908066 L42.0494126,66.2908066 L42.0494126,72.0663153 L42.0484363,72.1111127 C42.0302116,72.521886 41.7568413,72.7272727 41.2283254,72.7272727 C40.6788286,72.7272727 40.3949219,72.5213967 40.3766053,72.1096448 L40.3756579,72.0663153 L40.3756579,66.2908066 L39.7282622,66.2908066 L39.6739836,66.2900238 C39.1943582,66.2759327 38.9545455,66.0716116 38.9545455,65.6770605 C38.9545455,65.2825094 39.1943582,65.0781883 39.6739836,65.0640971 L39.7282622,65.0633143 L40.3756579,65.0633143 L40.3756579,63.6155029 L40.3766342,63.5707055 C40.3948589,63.1599321 40.6682292,62.9545455 41.1967451,62.9545455 Z M55.7552529,65.000366 L55.8563989,65.0008284 C57.9977099,65.0205588 59.084837,65.6716606 59.1177803,66.954134 L59.1185524,67.0147123 L59.1185524,68.7772654 L59.1176259,68.8170096 C59.101591,69.1546959 58.8774104,69.3300331 58.4450842,69.343021 L58.392206,69.3438003 L49.4076172,69.3438003 L49.4076172,70.3037623 L49.4084289,70.3463234 C49.4354746,71.0485075 50.1383937,71.4066214 51.5171861,71.4206651 L51.6024464,71.421095 L53.9393869,71.421095 L53.9928969,71.4218248 C54.4835615,71.4354474 54.7288938,71.6397862 54.7288938,72.0348412 C54.7288938,72.4298962 54.4835615,72.634235 53.9928969,72.6478575 L53.9393869,72.6485873 L51.6024464,72.6485873 L51.4990204,72.648162 C49.0341583,72.6277503 47.7846101,71.8726578 47.7503759,70.3828847 L47.7496526,70.3194993 L47.7496526,67.2350315 L47.7503756,67.1707279 C47.7826629,65.7454156 48.896332,65.0221228 51.091383,65.0008495 L51.1919028,65.000366 L55.7552529,65.000366 Z M69.682155,65.000366 L69.7833011,65.0008284 C71.9246121,65.0205588 73.0117392,65.6716606 73.0446824,66.954134 L73.0454545,67.0147123 L73.0454545,68.7772654 L73.0445281,68.8170096 C73.0284932,69.1546959 72.8043126,69.3300331 72.3719864,69.343021 L72.3191082,69.3438003 L63.3345193,69.3438003 L63.3345193,70.3037623 L63.335331,70.3463234 C63.3623768,71.0485075 64.0652959,71.4066214 65.4440883,71.4206651 L65.5293486,71.421095 L67.8662891,71.421095 L67.9197991,71.4218248 C68.4104637,71.4354474 68.655796,71.6397862 68.655796,72.0348412 C68.655796,72.4298962 68.4104637,72.634235 67.9197991,72.6478575 L67.8662891,72.6485873 L65.5293486,72.6485873 L65.4259226,72.648162 C62.9610604,72.6277503 61.7115123,71.8726578 61.6772781,70.3828847 L61.6765548,70.3194993 L61.6765548,67.2350315 L61.6772778,67.1707279 C61.7095651,65.7454156 62.8232342,65.0221228 65.0182852,65.0008495 L65.118805,65.000366 L69.682155,65.000366 Z M55.6289317,66.2435954 L51.2866436,66.2435954 L51.2075357,66.2440869 C50.0336758,66.2588338 49.4339865,66.6053844 49.4084678,67.2837388 L49.4076172,67.329454 L49.4076172,68.2579417 L57.3342667,68.2579417 C57.4091237,68.2579417 57.4507109,68.2289285 57.4590283,68.1709021 L57.4605878,68.1477822 L57.4605878,67.329454 L57.4597586,67.2837388 C57.4348833,66.6053844 56.8503122,66.2588338 55.7060454,66.2440869 L55.6289317,66.2435954 Z M69.5558339,66.2435954 L65.2135458,66.2435954 L65.1344379,66.2440869 C63.960578,66.2588338 63.3608887,66.6053844 63.33537,67.2837388 L63.3345193,67.329454 L63.3345193,68.2579417 L71.2611689,68.2579417 C71.3360258,68.2579417 71.377613,68.2289285 71.3859305,68.1709021 L71.38749,68.1477822 L71.38749,67.329454 L71.3866608,67.2837388 C71.3617855,66.6053844 70.7772144,66.2588338 69.6329476,66.2440869 L69.5558339,66.2435954 Z M68.5103002,27.5 C72.1361739,27.5 74.9969019,28.7317271 77.1340091,30.9136265 C79.1040671,32.9303574 80.0909091,35.3602254 80.0909091,38.2034032 C80.0909091,41.3036153 78.8039829,44.5765939 76.2306486,48.0221662 L67.3529558,59.5454545 L61.6177733,59.5454545 L73.6475589,43.9548592 C75.0911746,41.787724 75.5145385,40.044173 75.5145385,38.1529806 C75.5145385,36.1013684 75.0018227,34.7151789 73.6475589,33.3597264 C72.2351948,31.9856246 70.467495,31.1922459 68.5103002,31.1922459 C66.514861,31.1922459 64.5062997,32.0281039 63.1329568,33.4400227 C62.2270304,34.3581196 61.7174462,35.2635863 61.4723511,36.3441511 L61.4318178,36.5372993 L61.3986669,36.7209338 L61.3634981,36.9624377 L61.3405127,37.1567028 L61.3149265,37.4285013 L61.2922216,37.8419837 C61.2873871,37.9808185 61.2848836,38.1212938 61.2848836,38.2660861 C61.2848836,38.3917972 61.2878188,38.5165586 61.2939482,38.6405429 L61.300164,38.7379344 C61.3061208,38.8295412 61.3121639,38.9205436 61.3216603,39.0108553 L61.3338329,39.1123912 C61.3433292,39.2015805 61.3544658,39.2903381 61.3677607,39.3781459 L61.3833865,39.4697527 C61.3984943,39.5611868 61.4145517,39.6528799 61.4333717,39.7426736 L61.4831196,39.9612866 L61.5266085,40.132337 L61.5781261,40.3113631 L61.6382336,40.4997031 L61.6932044,40.657673 L61.7590097,40.8329757 C61.8030382,40.944009 61.8500882,41.0539199 61.8992102,41.1630537 C61.6220035,41.9303577 61.2203948,42.6943808 60.6749598,43.5157337 L59.1832581,45.4485421 C58.4369656,44.595768 57.8605958,43.6567725 57.4519078,42.6323703 L57.3220626,42.2905684 C57.2845952,42.1854063 57.2501494,42.0783446 57.2151857,41.9716283 L57.1697759,41.8240731 C57.1405963,41.7277177 57.1135749,41.6303261 57.0870715,41.5323301 L57.0386402,41.3451449 L56.9742377,41.0710152 L56.9290006,40.8524022 L56.8803967,40.592605 L56.8406847,40.3450681 L56.8062389,40.0999487 L56.789739,39.959603 L56.7752463,39.8182211 C56.7672176,39.743278 56.7586709,39.6695436 56.7528868,39.5943414 L56.7407789,39.4274137 L56.7308725,39.2597737 C56.7277646,39.1978679 56.7227575,39.1365664 56.7204266,39.074747 C56.7132612,38.8989586 56.7088583,38.7214435 56.7088583,38.5427196 C56.7088583,38.3440511 56.7138655,38.1482319 56.7227575,37.9543122 L56.7366567,37.7369079 C56.7435631,37.6193128 56.7516781,37.502063 56.7616061,37.3861946 L56.7903541,37.1149142 L56.8065087,36.9775903 L56.8463609,36.6864517 L56.8883606,36.4306693 L56.9407308,36.1518881 L56.9849859,35.9412507 L56.9934894,35.9058082 C57.0253165,35.7648436 57.0607887,35.6257594 57.0984223,35.4878648 L57.1722579,35.2271646 L57.1885959,35.1729538 C57.2286532,35.0408535 57.2708208,34.9104417 57.3155846,34.7814113 L57.398206,34.5486289 L57.4000189,34.549147 C58.029108,32.874409 59.0908847,31.4205289 60.5903561,30.1912193 C62.6667731,28.4910974 65.3208263,27.5 68.5103002,27.5 Z M46.7918348,46.6187951 C47.878175,47.6837234 49.0886301,48.4564937 50.4103168,48.9376099 L50.6594334,49.0244015 L42.5525841,59.5454545 L36.8176606,59.5454545 L46.7918348,46.6187951 Z M65.9857425,32.4438312 C67.1207273,34.1257354 67.6900758,36.0452473 67.6900758,38.2034032 C67.6900758,41.3036153 66.4032359,44.5765939 63.8302469,48.0221662 L54.59342,59.5454545 L48.8545253,59.5454545 L61.2468982,43.9548592 C62.6915499,41.787724 63.1149138,40.044173 63.1149138,38.1529806 C63.1149138,37.0640599 62.9681523,36.1630152 62.6298237,35.3540089 C62.878714,34.8775845 63.216093,34.4275802 63.6689818,33.9692009 C64.3081716,33.3121531 65.108799,32.7922996 65.9857425,32.4438312 Z M66.5868605,45.1581805 C66.7955425,45.2117329 67.0087892,45.2546979 67.225945,45.2885688 L67.4443797,45.3194637 L67.5383934,45.3307742 L67.7073095,45.3479559 L67.9889513,45.3690229 C68.1343316,45.3767071 68.2794529,45.3817149 68.4280274,45.3817149 C68.7730724,45.3817149 69.1083932,45.3596118 69.434255,45.3174834 L69.6768819,45.2821648 L67.0392314,48.7049434 C66.7822261,48.7297229 66.5273789,48.7450915 66.277539,48.7450915 C66.1167919,48.7450915 65.9571671,48.7410335 65.798751,48.7336946 L65.5370298,48.7173763 L65.3219486,48.6995039 C65.1121659,48.6795306 64.9068724,48.6531489 64.7046356,48.6200775 L64.4029623,48.5654178 L64.4668467,48.4823587 C65.3040782,47.3619239 66.0107783,46.2532313 66.5868605,45.1581805 Z M43.7107054,27.5 C47.3364065,27.5 50.1969618,28.7317271 52.3335511,30.9136265 C54.3042134,32.930271 55.2904511,35.3602254 55.2904511,38.2034032 C55.2904511,40.1590053 54.7762676,42.1840248 53.75239,44.277512 C52.9150721,43.9675512 52.162876,43.4677287 51.4834563,42.7691513 C50.9719492,42.250075 50.5683549,41.7011249 50.2682707,41.1169481 C50.593736,40.1141948 50.7149438,39.1544388 50.7149438,38.1529806 C50.7149438,36.1013684 50.20171,34.7151789 48.8470145,33.3597264 C47.4351684,31.9856246 45.6677276,31.1922459 43.7107054,31.1922459 C41.714921,31.1922459 39.7067913,32.0281039 38.3331894,33.4400227 C36.939818,34.8516825 36.4842529,36.2330369 36.4842529,38.2660861 C36.4842529,40.1862024 37.1807659,41.8523927 38.5739647,43.2640525 C39.9474802,44.6756259 41.6319575,45.3817149 43.6280873,45.3817149 C43.9734777,45.3817149 44.3085913,45.3596118 44.6343122,45.3174834 L44.8768555,45.2821648 L42.2388597,48.7049434 C41.9818543,48.7297229 41.7276115,48.7450915 41.4776852,48.7450915 C38.9503649,48.7450915 36.7684523,47.8418882 34.9335012,46.0361724 C32.9167385,44.0496606 31.9090909,41.552361 31.9090909,38.5427196 C31.9090909,35.0968019 33.2033552,32.3126807 35.790934,30.1912193 C37.867092,28.4910974 40.5207999,27.5 43.7107054,27.5 Z M46.1084439,32.4279446 C46.9043232,32.7575909 47.6521165,33.2480888 48.3218671,33.8994381 C48.795389,34.3728406 49.1439045,34.8420987 49.3973703,35.3458929 C49.0276176,36.1953927 48.8846545,37.1286423 48.8846545,38.2660861 C48.8846545,40.1862024 49.580736,41.8523927 50.9731578,43.2640525 C52.3478819,44.6756259 54.0323592,45.3817149 56.0276257,45.3817149 C56.3726708,45.3817149 56.7080468,45.3596118 57.0340633,45.3174834 L57.2768255,45.2821648 L54.6397794,48.7049434 C54.381997,48.7297229 54.1277542,48.7450915 53.8783459,48.7450915 C51.3509393,48.7450915 49.1690266,47.8418882 47.3327806,46.0361724 C45.3161042,44.0496606 44.3088883,41.552361 44.3088883,38.5427196 C44.3088883,36.1975512 44.9098337,34.1602714 46.1084439,32.4279446 Z M56.1105028,27.5 C58.1518697,27.5 59.9503894,27.8906887 61.5139179,28.6209529 C61.0273602,28.9170992 60.5593635,29.2435509 60.1137264,29.6085103 C59.4002925,30.1930325 58.7785415,30.8344527 58.2452791,31.5231009 C57.5665501,31.3069054 56.852253,31.1922459 56.1105028,31.1922459 C55.3511413,31.1922459 54.5898805,31.3140717 53.8626338,31.5420094 C53.561341,31.1420823 53.2321634,30.7553652 52.8722523,30.3866069 C52.2049189,29.7057292 51.4730967,29.1236246 50.688354,28.6307093 C52.2709616,27.9018266 54.0823445,27.5 56.1105028,27.5 Z" id="Shape"></path>
            </g>
        </g>
    </g>
</svg>