<?xml version="1.0" encoding="UTF-8"?>
<svg width="32px" height="64px" viewBox="0 0 32 64" version="1.1" xmlns="http://www.w3.org/2000/svg" xmlns:xlink="http://www.w3.org/1999/xlink">
    <title>Artboard</title>
    <g id="Artboard" stroke="none" stroke-width="1" fill="none" fill-rule="evenodd">
        <g id="Group" transform="translate(0.000000, 32.000000)">
            <rect id="ViewBox" fill="#FFFFFF" opacity="0.165411086" x="0" y="0" width="32" height="32" rx="4"></rect>
            <g id="color-palette(24x24)@1x" transform="translate(7.000000, 7.000000)" stroke="#FFFFFF" stroke-linejoin="round" stroke-width="0.9">
                <path d="M0.666,12.249 C0.495,11.826 0.351,11.394 0.252,10.944 C-0.342,8.433 0.117,5.723991 1.584,3.590991 C3.069,1.439991 5.472,0.323991 8.037,0.062991 C9.675,-0.108009 11.367,0.080991 12.915,0.647991 C14.868,1.367991 16.65,2.744991 17.541,4.652991 C18.162,5.984991 18.243,7.74 17.217,8.784 C16.551,9.468 15.561,9.693 14.769,10.215 C13.851,10.809 13.194,11.808 13.014,12.897 C12.888,13.635 12.96,14.409 12.78,15.138 C12.177,17.568 9.207,18.351 7.038,17.865 C4.554,17.298 2.385,15.417 1.143,13.23 C0.963,12.906 0.81,12.582 0.666,12.249 Z" id="Path"></path>
                <path d="M9.9,4.5 C10.39707,4.5 10.8,4.097052 10.8,3.6 C10.8,3.102948 10.39707,2.7 9.9,2.7 C9.40293,2.7 9,3.102948 9,3.6 C9,4.097052 9.40293,4.5 9.9,4.5 Z" id="Path"></path>
                <path d="M14.4,7.2 C14.89707,7.2 15.3,6.797052 15.3,6.3 C15.3,5.802948 14.89707,5.4 14.4,5.4 C13.90293,5.4 13.5,5.802948 13.5,6.3 C13.5,6.797052 13.90293,7.2 14.4,7.2 Z" id="Path"></path>
                <path d="M5.4,6.3 C5.897052,6.3 6.3,5.897052 6.3,5.4 C6.3,4.902948 5.897052,4.5 5.4,4.5 C4.902948,4.5 4.5,4.902948 4.5,5.4 C4.5,5.897052 4.902948,6.3 5.4,6.3 Z" id="Path"></path>
                <path d="M3.6,10.8 C4.097052,10.8 4.5,10.39707 4.5,9.9 C4.5,9.40293 4.097052,9 3.6,9 C3.102948,9 2.7,9.40293 2.7,9.9 C2.7,10.39707 3.102948,10.8 3.6,10.8 Z" id="Path"></path>
                <path d="M8.1,15.3 C9.09414,15.3 9.9,14.69556 9.9,13.95 C9.9,13.20444 9.09414,12.6 8.1,12.6 C7.105887,12.6 6.3,13.20444 6.3,13.95 C6.3,14.69556 7.105887,15.3 8.1,15.3 Z" id="Path"></path>
            </g>
        </g>
        <g id="Group-Copy">
            <rect id="ViewBox" opacity="0.165411086" x="0" y="0" width="32" height="32" rx="4"></rect>
            <g id="color-palette(24x24)@1x" transform="translate(7.000000, 7.000000)" stroke="#464546" stroke-linejoin="round" stroke-width="0.9">
                <path d="M0.666,12.249 C0.495,11.826 0.351,11.394 0.252,10.944 C-0.342,8.433 0.117,5.723991 1.584,3.590991 C3.069,1.439991 5.472,0.323991 8.037,0.062991 C9.675,-0.108009 11.367,0.080991 12.915,0.647991 C14.868,1.367991 16.65,2.744991 17.541,4.652991 C18.162,5.984991 18.243,7.74 17.217,8.784 C16.551,9.468 15.561,9.693 14.769,10.215 C13.851,10.809 13.194,11.808 13.014,12.897 C12.888,13.635 12.96,14.409 12.78,15.138 C12.177,17.568 9.207,18.351 7.038,17.865 C4.554,17.298 2.385,15.417 1.143,13.23 C0.963,12.906 0.81,12.582 0.666,12.249 Z" id="Path"></path>
                <path d="M9.9,4.5 C10.39707,4.5 10.8,4.097052 10.8,3.6 C10.8,3.102948 10.39707,2.7 9.9,2.7 C9.40293,2.7 9,3.102948 9,3.6 C9,4.097052 9.40293,4.5 9.9,4.5 Z" id="Path"></path>
                <path d="M14.4,7.2 C14.89707,7.2 15.3,6.797052 15.3,6.3 C15.3,5.802948 14.89707,5.4 14.4,5.4 C13.90293,5.4 13.5,5.802948 13.5,6.3 C13.5,6.797052 13.90293,7.2 14.4,7.2 Z" id="Path"></path>
                <path d="M5.4,6.3 C5.897052,6.3 6.3,5.897052 6.3,5.4 C6.3,4.902948 5.897052,4.5 5.4,4.5 C4.902948,4.5 4.5,4.902948 4.5,5.4 C4.5,5.897052 4.902948,6.3 5.4,6.3 Z" id="Path"></path>
                <path d="M3.6,10.8 C4.097052,10.8 4.5,10.39707 4.5,9.9 C4.5,9.40293 4.097052,9 3.6,9 C3.102948,9 2.7,9.40293 2.7,9.9 C2.7,10.39707 3.102948,10.8 3.6,10.8 Z" id="Path"></path>
                <path d="M8.1,15.3 C9.09414,15.3 9.9,14.69556 9.9,13.95 C9.9,13.20444 9.09414,12.6 8.1,12.6 C7.105887,12.6 6.3,13.20444 6.3,13.95 C6.3,14.69556 7.105887,15.3 8.1,15.3 Z" id="Path"></path>
            </g>
        </g>
    </g>
</svg>