<?xml version="1.0" encoding="UTF-8"?>
<svg width="32px" height="64px" viewBox="0 0 32 64" version="1.1" xmlns="http://www.w3.org/2000/svg" xmlns:xlink="http://www.w3.org/1999/xlink">
    <title>Artboard</title>
    <g id="Artboard" stroke="none" stroke-width="1" fill="none" fill-rule="evenodd">
        <g id="Group" transform="translate(0.000000, 32.000000)">
            <rect id="ViewBox" fill="#FFFFFF" opacity="0.165411086" x="0" y="0" width="32" height="32" rx="4"></rect>
            <g id="group-communication-2(24x24)@1x" transform="translate(7.000000, 7.000000)" stroke="#FFFFFF" stroke-width="0.9">
                <path d="M10.8,1.8 C10.8,2.400003 10.19997,3.6 9,3.6 C7.80003,3.6 7.2,2.683413 7.2,1.8 C7.2,0.600003 8.19684,0 9,0 C9.80316,0 10.8,0.600003 10.8,1.8 Z" id="Path" stroke-linecap="round" stroke-linejoin="round"></path>
                <path d="M11.7,7.2 L11.39814,5.590314 C11.18178,4.436271 10.17414,3.6 9,3.6 C7.82586,3.6 6.818202,4.436271 6.601815,5.590314 L6.3,7.2 L11.7,7.2 Z" id="Path"></path>
                <path d="M17.1,9 C17.1,9.60003 16.49997,10.8 15.3,10.8 C14.10003,10.8 13.5,9.88344 13.5,9 C13.5,7.80003 14.49684,7.2 15.3,7.2 C16.10316,7.2 17.1,7.80003 17.1,9 Z" id="Path" stroke-linecap="round" stroke-linejoin="round"></path>
                <path d="M18,14.4 L17.69814,12.79035 C17.48178,11.63628 16.47414,10.8 15.3,10.8 C14.12586,10.8 13.11822,11.63628 12.90186,12.79035 L12.6,14.4 L18,14.4 Z" id="Path"></path>
                <path d="M4.5,9 C4.5,9.60003 3.9,10.8 2.7,10.8 C1.500003,10.8 0.9,9.88344 0.9,9 C0.9,7.80003 1.896804,7.2 2.7,7.2 C3.503205,7.2 4.5,7.80003 4.5,9 Z" id="Path" stroke-linecap="round" stroke-linejoin="round"></path>
                <path d="M5.4,14.4 L5.098185,12.79035 C4.881798,11.63628 3.874149,10.8 2.7,10.8 C1.525851,10.8 0.518202,11.63628 0.301815,12.79035 L4.52970994e-14,14.4 L5.4,14.4 Z" id="Path"></path>
                <path d="M8.1,16.2 L11.7,16.2 M9.9,15.3 L8.1,16.2 L9.9,15.3 Z M8.1,16.2 L9.9,17.1 L8.1,16.2 Z" id="Shape" stroke-linecap="round" stroke-linejoin="round"></path>
                <path d="M3.465306,3.437127 L0.516357,5.502006 M2.507049,5.206806 L3.465306,3.437127 L2.507049,5.206806 Z M3.465306,3.437127 L1.474614,3.732327 L3.465306,3.437127 Z" id="Shape" stroke-linecap="round" stroke-linejoin="round"></path>
                <path d="M16.06509,4.602114 L13.11615,2.537235 M14.07438,4.306905 L16.06509,4.602114 L14.07438,4.306905 Z M16.06509,4.602114 L15.10686,2.832435 L16.06509,4.602114 Z" id="Shape" stroke-linecap="round" stroke-linejoin="round"></path>
            </g>
        </g>
        <g id="Group-Copy">
            <rect id="ViewBox" opacity="0.165411086" x="0" y="0" width="32" height="32" rx="4"></rect>
            <g id="group-communication-2(24x24)@1x" transform="translate(7.000000, 7.000000)" stroke="#464546" stroke-width="0.9">
                <path d="M10.8,1.8 C10.8,2.400003 10.19997,3.6 9,3.6 C7.80003,3.6 7.2,2.683413 7.2,1.8 C7.2,0.600003 8.19684,0 9,0 C9.80316,0 10.8,0.600003 10.8,1.8 Z" id="Path" stroke-linecap="round" stroke-linejoin="round"></path>
                <path d="M11.7,7.2 L11.39814,5.590314 C11.18178,4.436271 10.17414,3.6 9,3.6 C7.82586,3.6 6.818202,4.436271 6.601815,5.590314 L6.3,7.2 L11.7,7.2 Z" id="Path"></path>
                <path d="M17.1,9 C17.1,9.60003 16.49997,10.8 15.3,10.8 C14.10003,10.8 13.5,9.88344 13.5,9 C13.5,7.80003 14.49684,7.2 15.3,7.2 C16.10316,7.2 17.1,7.80003 17.1,9 Z" id="Path" stroke-linecap="round" stroke-linejoin="round"></path>
                <path d="M18,14.4 L17.69814,12.79035 C17.48178,11.63628 16.47414,10.8 15.3,10.8 C14.12586,10.8 13.11822,11.63628 12.90186,12.79035 L12.6,14.4 L18,14.4 Z" id="Path"></path>
                <path d="M4.5,9 C4.5,9.60003 3.9,10.8 2.7,10.8 C1.500003,10.8 0.9,9.88344 0.9,9 C0.9,7.80003 1.896804,7.2 2.7,7.2 C3.503205,7.2 4.5,7.80003 4.5,9 Z" id="Path" stroke-linecap="round" stroke-linejoin="round"></path>
                <path d="M5.4,14.4 L5.098185,12.79035 C4.881798,11.63628 3.874149,10.8 2.7,10.8 C1.525851,10.8 0.518202,11.63628 0.301815,12.79035 L4.52970994e-14,14.4 L5.4,14.4 Z" id="Path"></path>
                <path d="M8.1,16.2 L11.7,16.2 M9.9,15.3 L8.1,16.2 L9.9,15.3 Z M8.1,16.2 L9.9,17.1 L8.1,16.2 Z" id="Shape" stroke-linecap="round" stroke-linejoin="round"></path>
                <path d="M3.465306,3.437127 L0.516357,5.502006 M2.507049,5.206806 L3.465306,3.437127 L2.507049,5.206806 Z M3.465306,3.437127 L1.474614,3.732327 L3.465306,3.437127 Z" id="Shape" stroke-linecap="round" stroke-linejoin="round"></path>
                <path d="M16.06509,4.602114 L13.11615,2.537235 M14.07438,4.306905 L16.06509,4.602114 L14.07438,4.306905 Z M16.06509,4.602114 L15.10686,2.832435 L16.06509,4.602114 Z" id="Shape" stroke-linecap="round" stroke-linejoin="round"></path>
            </g>
        </g>
    </g>
</svg>