<?xml version="1.0" encoding="UTF-8"?>
<svg width="20px" height="20px" viewBox="0 0 20 20" version="1.1" xmlns="http://www.w3.org/2000/svg" xmlns:xlink="http://www.w3.org/1999/xlink">
    <!-- Generator: Sketch 63.1 (92452) - https://sketch.com -->
    <title>Shape</title>
    <desc>Created with Sketch.</desc>
    <g id="Static-Pages" stroke="none" stroke-width="1" fill="none" fill-rule="evenodd">
        <g id="Contact-Us" transform="translate(-197.000000, -752.000000)" fill="#0566FF">
            <g id="Group-31" transform="translate(0.000000, 554.000000)">
                <g id="Group-32" transform="translate(187.000000, 188.000000)">
                    <g id="Group-29">
                        <path d="M20,10 C25.5228475,10 30,14.4771525 30,20 C30,25.5228475 25.5228475,30 20,30 C14.4771525,30 10,25.5228475 10,20 C10,14.4771525 14.4771525,10 20,10 Z M20,10.7386364 C14.8850901,10.7386364 10.7386364,14.8850901 10.7386364,20 C10.7386364,25.1149099 14.8850901,29.2613636 20,29.2613636 C25.1149099,29.2613636 29.2613636,25.1149099 29.2613636,20 C29.2613636,14.8850901 25.1149099,10.7386364 20,10.7386364 Z M16.2991863,23.2386364 C16.4365605,23.2386364 16.5075372,23.2901054 16.5121163,23.3930434 L16.5123532,23.4038757 L16.5123532,23.7658286 L17.1913291,23.7658286 L17.2047066,23.766011 C17.3273728,23.7694167 17.3887058,23.8205014 17.3887058,23.9192651 C17.3887058,24.0180289 17.3273728,24.0691136 17.2047066,24.0725192 L17.1913291,24.0727017 L16.5123532,24.0727017 L16.5123532,25.5165788 L16.5121091,25.5277782 C16.5075529,25.6304715 16.4392103,25.6818182 16.3070814,25.6818182 C16.1697071,25.6818182 16.0987305,25.6303492 16.0941513,25.5274112 L16.0939145,25.5165788 L16.0939145,24.0727017 L15.9320656,24.0727017 L15.9184959,24.0725059 C15.7985895,24.0689832 15.7386364,24.0179029 15.7386364,23.9192651 C15.7386364,23.8206273 15.7985895,23.7695471 15.9184959,23.7660243 L15.9320656,23.7658286 L16.0939145,23.7658286 L16.0939145,23.4038757 L16.0941586,23.3926764 C16.0987147,23.289983 16.1670573,23.2386364 16.2991863,23.2386364 Z M19.9388132,23.7500915 L19.9640997,23.7502071 C20.4994275,23.7551397 20.7712093,23.9179152 20.7794451,24.2385335 L20.7796381,24.2536781 L20.7796381,24.6943164 L20.7794065,24.7042524 C20.7753977,24.788674 20.7193526,24.8325083 20.6112711,24.8357553 L20.5980515,24.8359501 L18.3519043,24.8359501 L18.3519043,25.0759406 L18.3521072,25.0865808 C18.3588687,25.2621269 18.5345984,25.3516554 18.8792965,25.3551663 L18.9006116,25.3552738 L19.4848467,25.3552738 L19.4982242,25.3554562 C19.6208904,25.3588618 19.6822235,25.4099465 19.6822235,25.5087103 C19.6822235,25.607474 19.6208904,25.6585587 19.4982242,25.6619644 L19.4848467,25.6621468 L18.9006116,25.6621468 L18.8747551,25.6620405 C18.2585396,25.6569376 17.9461525,25.4681645 17.937594,25.0957212 L17.9374132,25.0798748 L17.9374132,24.3087579 L17.9375939,24.292682 C17.9456657,23.9363539 18.224083,23.7555307 18.7728458,23.7502124 L18.7979757,23.7500915 L19.9388132,23.7500915 Z M23.4205388,23.7500915 L23.4458253,23.7502071 C23.981153,23.7551397 24.2529348,23.9179152 24.2611706,24.2385335 L24.2613636,24.2536781 L24.2613636,24.6943164 L24.261132,24.7042524 C24.2571233,24.788674 24.2010782,24.8325083 24.0929966,24.8357553 L24.079777,24.8359501 L21.8336298,24.8359501 L21.8336298,25.0759406 L21.8338328,25.0865808 C21.8405942,25.2621269 22.016324,25.3516554 22.3610221,25.3551663 L22.3823372,25.3552738 L22.9665723,25.3552738 L22.9799498,25.3554562 C23.1026159,25.3588618 23.163949,25.4099465 23.163949,25.5087103 C23.163949,25.607474 23.1026159,25.6585587 22.9799498,25.6619644 L22.9665723,25.6621468 L22.3823372,25.6621468 L22.3564807,25.6620405 C21.7402651,25.6569376 21.4278781,25.4681645 21.4193195,25.0957212 L21.4191387,25.0798748 L21.4191387,24.3087579 L21.4193195,24.292682 C21.4273913,23.9363539 21.7058085,23.7555307 22.2545713,23.7502124 L22.2797013,23.7500915 L23.4205388,23.7500915 Z M19.9072329,24.0608988 L18.8216609,24.0608988 L18.8018839,24.0610217 C18.5084189,24.0647084 18.3584966,24.1513461 18.3521169,24.3209347 L18.3519043,24.3323635 L18.3519043,24.5644854 L20.3335667,24.5644854 C20.3522809,24.5644854 20.3626777,24.5572321 20.3647571,24.5427255 L20.365147,24.5369455 L20.365147,24.3323635 L20.3649397,24.3209347 C20.3587208,24.1513461 20.212578,24.0647084 19.9265113,24.0610217 L19.9072329,24.0608988 Z M23.3889585,24.0608988 L22.3033865,24.0608988 L22.2836095,24.0610217 C21.9901445,24.0647084 21.8402222,24.1513461 21.8338425,24.3209347 L21.8336298,24.3323635 L21.8336298,24.5644854 L23.8152922,24.5644854 C23.8340065,24.5644854 23.8444033,24.5572321 23.8464826,24.5427255 L23.8468725,24.5369455 L23.8468725,24.3323635 L23.8466652,24.3209347 C23.8404464,24.1513461 23.6943036,24.0647084 23.4082369,24.0610217 L23.3889585,24.0608988 Z M23.127575,14.375 C24.0340435,14.375 24.7492255,14.6829318 25.2835023,15.2284066 C25.7760168,15.7325893 26.0227273,16.3400563 26.0227273,17.0508508 C26.0227273,17.8259038 25.7009957,18.6441485 25.0576621,19.5055416 L22.838239,22.3863636 L21.4044433,22.3863636 L24.4118897,18.4887148 C24.7727936,17.946931 24.8786346,17.5110433 24.8786346,17.0382452 C24.8786346,16.5253421 24.7504557,16.1787947 24.4118897,15.8399316 C24.0587987,15.4964061 23.6168738,15.2980615 23.127575,15.2980615 C22.6287153,15.2980615 22.1265749,15.507026 21.7832392,15.8600057 C21.5567576,16.0895299 21.4293615,16.3158966 21.3680878,16.5860378 L21.3579544,16.6343248 L21.3496667,16.6802334 L21.3408745,16.7406094 L21.3351282,16.7891757 L21.3287316,16.8571253 L21.3230554,16.9604959 C21.3218468,16.9952046 21.3212209,17.0303235 21.3212209,17.0665215 C21.3212209,17.0979493 21.3219547,17.1291396 21.3234871,17.1601357 L21.325041,17.1844836 C21.3265302,17.2073853 21.328041,17.2301359 21.3304151,17.2527138 L21.3334582,17.2780978 C21.3358323,17.3003951 21.3386165,17.3225845 21.3419402,17.3445365 L21.3458466,17.3674382 C21.3496236,17.3902967 21.3536379,17.41322 21.3583429,17.4356684 L21.3707799,17.4903216 L21.3816521,17.5330843 L21.3945315,17.5778408 L21.4095584,17.6249258 L21.4233011,17.6644183 L21.4397524,17.7082439 C21.4507595,17.7360023 21.4625221,17.76348 21.4748025,17.7907634 C21.4055009,17.9825894 21.3050987,18.1735952 21.16874,18.3789334 L20.7958145,18.8621355 C20.6092414,18.648942 20.4651489,18.4141931 20.3629769,18.1580926 L20.3305157,18.0726421 C20.3211488,18.0463516 20.3125374,18.0195861 20.3037964,17.9929071 L20.292444,17.9560183 C20.2851491,17.9319294 20.2783937,17.9075815 20.2717679,17.8830825 L20.25966,17.8362862 L20.2435594,17.7677538 L20.2322502,17.7131006 L20.2200992,17.6481513 L20.2101712,17.586267 L20.2015597,17.5249872 L20.1974348,17.4899007 L20.1938116,17.4545553 C20.1918044,17.4358195 20.1896677,17.4173859 20.1882217,17.3985853 L20.1851947,17.3568534 L20.1827181,17.3149434 C20.1819412,17.299467 20.1806894,17.2841416 20.1801066,17.2686867 C20.1783153,17.2247397 20.1772146,17.1803609 20.1772146,17.1356799 C20.1772146,17.0860128 20.1784664,17.037058 20.1806894,16.988578 L20.1841642,16.934227 C20.1858908,16.9048282 20.1879195,16.8755157 20.1904015,16.8465487 L20.1975885,16.7787285 L20.2016272,16.7443976 L20.2115902,16.6716129 L20.2220902,16.6076673 L20.2351827,16.537972 L20.2462465,16.4853127 L20.2483723,16.476452 C20.2563291,16.4412109 20.2651972,16.4064399 20.2746056,16.3719662 L20.2930645,16.3067911 L20.297149,16.2932385 C20.3071633,16.2602134 20.3177052,16.2276104 20.3288962,16.1953528 L20.3495515,16.1371572 L20.3500047,16.1372867 C20.507277,15.7186023 20.7727212,15.3551322 21.147589,15.0478048 C21.6666933,14.6227744 22.3302066,14.375 23.127575,14.375 Z M17.6979587,19.1546988 C17.9695437,19.4209309 18.2721575,19.6141234 18.6025792,19.7344025 L18.6648583,19.7561004 L16.638146,22.3863636 L15.2044151,22.3863636 L17.6979587,19.1546988 Z M22.4964356,15.6109578 C22.7801818,16.0314338 22.9225189,16.5113118 22.9225189,17.0508508 C22.9225189,17.8259038 22.600809,18.6441485 21.9575617,19.5055416 L19.648355,22.3863636 L18.2136313,22.3863636 L21.3117246,18.4887148 C21.6728875,17.946931 21.7787285,17.5110433 21.7787285,17.0382452 C21.7787285,16.766015 21.7420381,16.5407538 21.6574559,16.3385022 C21.7196785,16.2193961 21.8040232,16.106895 21.9172455,15.9923002 C22.0770429,15.8280383 22.2771998,15.6980749 22.4964356,15.6109578 Z M22.6467151,18.7895451 C22.6988856,18.8029332 22.7521973,18.8136745 22.8064863,18.8221422 L22.8610949,18.8298659 L22.8845983,18.8326936 L22.9268274,18.836989 L22.9972378,18.8422557 C23.0335829,18.8441768 23.0698632,18.8454287 23.1070068,18.8454287 C23.1932681,18.8454287 23.2770983,18.839903 23.3585637,18.8293708 L23.4192205,18.8205412 L22.7598079,19.6762358 C22.6955565,19.6824307 22.6318447,19.6862729 22.5693847,19.6862729 C22.529198,19.6862729 22.4892918,19.6852584 22.4496877,19.6834236 L22.3842575,19.6793441 L22.3304871,19.674876 C22.2780415,19.6698826 22.2267181,19.6632872 22.1761589,19.6550194 L22.1007406,19.6413545 L22.1167117,19.6205897 C22.3260196,19.340481 22.5026946,19.0633078 22.6467151,18.7895451 Z M16.9276764,14.375 C17.8341016,14.375 18.5492405,14.6829318 19.0833878,15.2284066 C19.5760534,15.7325678 19.8226128,16.3400563 19.8226128,17.0508508 C19.8226128,17.5397513 19.6940669,18.0460062 19.4380975,18.569378 C19.228768,18.4918878 19.040719,18.3669322 18.8708641,18.1922878 C18.7429873,18.0625187 18.6420887,17.9252812 18.5670677,17.779237 C18.648434,17.5285487 18.6787359,17.2886097 18.6787359,17.0382452 C18.6787359,16.5253421 18.5504275,16.1787947 18.2117536,15.8399316 C17.8587921,15.4964061 17.4169319,15.2980615 16.9276764,15.2980615 C16.4287302,15.2980615 15.9266978,15.507026 15.5832974,15.8600057 C15.2349545,16.2129206 15.1210632,16.5582592 15.1210632,17.0665215 C15.1210632,17.5465506 15.2951915,17.9630982 15.6434912,18.3160131 C15.9868701,18.6689065 16.4079894,18.8454287 16.9070218,18.8454287 C16.9933694,18.8454287 17.0771478,18.839903 17.158578,18.8293708 L17.2192139,18.8205412 L16.5597149,19.6762358 C16.4954636,19.6824307 16.4319029,19.6862729 16.3694213,19.6862729 C15.7375912,19.6862729 15.1921131,19.4604721 14.7333753,19.0090431 C14.2291846,18.5124151 13.9772727,17.8880903 13.9772727,17.1356799 C13.9772727,16.2742005 14.3008388,15.5781702 14.9477335,15.0478048 C15.466773,14.6227744 16.1302,14.375 16.9276764,14.375 Z M17.527111,15.6069862 C17.7260808,15.6893977 17.9130291,15.8120222 18.0804668,15.9748595 C18.1988472,16.0932101 18.2859761,16.2105247 18.3493426,16.3364732 C18.2569044,16.5488482 18.2211636,16.7821606 18.2211636,17.0665215 C18.2211636,17.5465506 18.395184,17.9630982 18.7432894,18.3160131 C19.0869705,18.6689065 19.5080898,18.8454287 20.0069064,18.8454287 C20.0931677,18.8454287 20.1770117,18.839903 20.2585158,18.8293708 L20.3192064,18.8205412 L19.6599448,19.6762358 C19.5954993,19.6824307 19.5319386,19.6862729 19.4695865,19.6862729 C18.8377348,19.6862729 18.2922567,19.4604721 17.8331952,19.0090431 C17.329026,18.5124151 17.0772221,17.8880903 17.0772221,17.1356799 C17.0772221,16.5493878 17.2274584,16.0400678 17.527111,15.6069862 Z M20.0276257,14.375 C20.5379674,14.375 20.9875973,14.4726722 21.3784795,14.6552382 C21.25684,14.7292748 21.1398409,14.8108877 21.0284316,14.9021276 C20.8500731,15.0482581 20.6946354,15.2086132 20.5613198,15.3807752 C20.3916375,15.3267264 20.2130632,15.2980615 20.0276257,15.2980615 C19.8377853,15.2980615 19.6474701,15.3285179 19.4656584,15.3855023 C19.3903352,15.2855206 19.3080409,15.1888413 19.2180631,15.0966517 C19.0512297,14.9264323 18.8682742,14.7809062 18.6720885,14.6576773 C19.0677404,14.4754566 19.5205861,14.375 20.0276257,14.375 Z" id="Shape"></path>
                    </g>
                </g>
            </g>
        </g>
    </g>
</svg>