<?xml version="1.0" encoding="UTF-8"?>
<svg width="22px" height="18px" viewBox="0 0 22 18" version="1.1" xmlns="http://www.w3.org/2000/svg" xmlns:xlink="http://www.w3.org/1999/xlink">
    <!-- Generator: Sketch 63.1 (92452) - https://sketch.com -->
    <title>Group</title>
    <desc>Created with Sketch.</desc>
    <g id="Mega-menu-&amp;-Mobile-Menu" stroke="none" stroke-width="1" fill="none" fill-rule="evenodd" stroke-linecap="round" stroke-linejoin="round">
        <g id="0" transform="translate(-210.000000, -18.000000)" stroke="#FFFFFF" stroke-width="1.2">
            <g id="Group-17">
                <g id="Cart-Outline" transform="translate(209.000000, 15.000000)">
                    <g id="Group" transform="translate(2.000000, 4.000000)">
                        <path d="M16,16.25 C16.5523,16.25 17,15.8023 17,15.25 C17,14.6977 16.5523,14.25 16,14.25 C15.4477,14.25 15,14.6977 15,15.25 C15,15.8023 15.4477,16.25 16,16.25 Z" id="Path"></path>
                        <path d="M8,16.25 C8.5523,16.25 9,15.8023 9,15.25 C9,14.6977 8.5523,14.25 8,14.25 C7.4477,14.25 7,14.6977 7,15.25 C7,15.8023 7.4477,16.25 8,16.25 Z" id="Path"></path>
                        <polyline id="Path" points="20 0.25 18 11.25 6 11.25 4 0.25"></polyline>
                        <line x1="0" y1="0.25" x2="4" y2="0.25" id="Path"></line>
                        <line x1="9" y1="7.25" x2="15" y2="7.25" id="Path"></line>
                        <line x1="8" y1="3.25" x2="16" y2="3.25" id="Path"></line>
                    </g>
                </g>
            </g>
        </g>
    </g>
</svg>