<?xml version="1.0" encoding="UTF-8"?>
<svg width="20px" height="40px" viewBox="0 0 20 40" version="1.1" xmlns="http://www.w3.org/2000/svg" xmlns:xlink="http://www.w3.org/1999/xlink">
    <!-- Generator: Sketch 63.1 (92452) - https://sketch.com -->
    <title>Artboard</title>
    <desc>Created with Sketch.</desc>
    <g id="Artboard" stroke="none" stroke-width="1" fill="none" fill-rule="evenodd" stroke-linecap="round" stroke-linejoin="round">
        <g id="Group" transform="translate(3.000000, 1.000000)" stroke="#464546" stroke-width="1.4">
            <path d="M5.21052632,14.2105263 L9,14.2105263 C9.29368421,14.5989474 9.47368421,15.1010526 9.47368421,15.6315789 C9.47368421,16.9389474 8.41263158,18 7.10526316,18 C5.79789474,18 4.73684211,16.9389474 4.73684211,15.6315789 C4.73684211,15.1010526 4.91684211,14.5989474 5.21052632,14.2105263 Z" id="Path"></path>
            <path d="M5.39224842,2.84210526 C5.87095368,2.71958944 6.37478316,2.65415565 6.89473684,2.65415565 C7.41469053,2.65415565 7.91852,2.71958944 8.39722526,2.84210526 C8.64945263,2.54248648 8.78947368,2.17339959 8.78947368,1.7694371 C8.78947368,0.796246696 7.93684211,1.19904087e-14 6.89473684,1.19904087e-14 C5.85263158,1.19904087e-14 5,0.796246696 5,1.7694371 C5,2.17339959 5.14002105,2.54248648 5.39224842,2.84210526 Z" id="Path"></path>
            <path d="M1.77631579,10.7125506 L0,14.2105263 L14.2105263,14.2105263 L12.4342105,10.7125506 L12.4342105,8.08906883 C12.4342105,5.19449393 10.0450658,2.84210526 7.10526316,2.84210526 C4.16546053,2.84210526 1.77631579,5.19449393 1.77631579,8.08906883 L1.77631579,10.7125506 Z" id="Path"></path>
        </g>
        <g id="Group" transform="translate(3.000000, 21.000000)" stroke="#0566FF" stroke-width="1.4">
            <path d="M5.21052632,14.2105263 L9,14.2105263 C9.29368421,14.5989474 9.47368421,15.1010526 9.47368421,15.6315789 C9.47368421,16.9389474 8.41263158,18 7.10526316,18 C5.79789474,18 4.73684211,16.9389474 4.73684211,15.6315789 C4.73684211,15.1010526 4.91684211,14.5989474 5.21052632,14.2105263 Z" id="Path"></path>
            <path d="M5.39224842,2.84210526 C5.87095368,2.71958944 6.37478316,2.65415565 6.89473684,2.65415565 C7.41469053,2.65415565 7.91852,2.71958944 8.39722526,2.84210526 C8.64945263,2.54248648 8.78947368,2.17339959 8.78947368,1.7694371 C8.78947368,0.796246696 7.93684211,1.19904087e-14 6.89473684,1.19904087e-14 C5.85263158,1.19904087e-14 5,0.796246696 5,1.7694371 C5,2.17339959 5.14002105,2.54248648 5.39224842,2.84210526 Z" id="Path"></path>
            <path d="M1.77631579,10.7125506 L0,14.2105263 L14.2105263,14.2105263 L12.4342105,10.7125506 L12.4342105,8.08906883 C12.4342105,5.19449393 10.0450658,2.84210526 7.10526316,2.84210526 C4.16546053,2.84210526 1.77631579,5.19449393 1.77631579,8.08906883 L1.77631579,10.7125506 Z" id="Path"></path>
        </g>
    </g>
</svg>