<?xml version="1.0" encoding="UTF-8"?>
<svg width="60px" height="60px" viewBox="0 0 60 60" version="1.1" xmlns="http://www.w3.org/2000/svg" xmlns:xlink="http://www.w3.org/1999/xlink">
    <title>Pending Request Copy 3</title>
    <g id="Design" stroke="none" stroke-width="1" fill="none" fill-rule="evenodd">
        <g id="14.1-B2C-User-Orders_Details" transform="translate(-374.000000, -1445.000000)">
            <g id="Pending-Request-Copy-3" transform="translate(374.000000, 1445.000000)">
                <rect id="Rectangle" fill-opacity="0" fill="#D8D8D8" x="0" y="0" width="60" height="60"></rect>
                <g id="Group-26" transform="translate(12.000000, 11.000000)" stroke="#5674FF" stroke-width="2">
                    <g id="Group-40" transform="translate(18.000000, 11.000000) rotate(-13.000000) translate(-18.000000, -11.000000) translate(2.000000, 4.000000)">
                        <path d="M2,5.51724138 L30,5.51724138 C31.1045695,5.51724138 32,6.41267188 32,7.51724138 L32,11.2413793 C32,12.3459488 31.1045695,13.2413793 30,13.2413793 L2,13.2413793 C0.8954305,13.2413793 1.3527075e-16,12.3459488 0,11.2413793 L0,7.51724138 C-1.3527075e-16,6.41267188 0.8954305,5.51724138 2,5.51724138 Z" id="Rectangle"></path>
                        <polygon id="Rectangle" points="28.137931 6.27053964e-13 28.137931 5.51724138 16 5.51724138"></polygon>
                        <polygon id="Rectangle-Copy-19" transform="translate(9.379310, 2.758621) scale(-1, 1) translate(-9.379310, -2.758621) " points="15.4482759 6.27053964e-13 15.4482759 5.51724138 3.31034483 5.51724138"></polygon>
                        <rect id="Rectangle" x="13.2413793" y="0.551724138" width="5.51724138" height="4.96551724"></rect>
                    </g>
                    <polygon id="Rectangle" points="17.2413793 20.2413793 22.7586207 20.2413793 22.7586207 39 17.2413793 39"></polygon>
                    <path d="M10.4137931,20.2413793 L29.5862069,20.2413793 C30.6907764,20.2413793 31.5862069,21.1368098 31.5862069,22.2413793 L31.5862069,37 C31.5862069,38.1045695 30.6907764,39 29.5862069,39 L10.4137931,39 C9.3092236,39 8.4137931,38.1045695 8.4137931,37 L8.4137931,22.2413793 C8.4137931,21.1368098 9.3092236,20.2413793 10.4137931,20.2413793 Z" id="Rectangle-Copy-17"></path>
                </g>
            </g>
        </g>
    </g>
</svg>