<?xml version="1.0" encoding="UTF-8"?>
<svg width="24px" height="24px" viewBox="0 0 24 24" version="1.1" xmlns="http://www.w3.org/2000/svg" xmlns:xlink="http://www.w3.org/1999/xlink">
    <!-- Generator: Sketch 63.1 (92452) - https://sketch.com -->
    <title>Group 7</title>
    <desc>Created with Sketch.</desc>
    <g id="Home-Page_17/09/2020" stroke="none" stroke-width="1" fill="none" fill-rule="evenodd">
        <g id="My-Orders" transform="translate(-986.000000, -574.000000)">
            <g id="Group-10" transform="translate(65.000000, 544.000000)">
                <g id="Group-9" transform="translate(919.000000, 28.000000)">
                    <g id="Group-7">
                        <rect id="Rectangle" x="0" y="0" width="28" height="28"></rect>
                        <path d="M6.52604167,24.9375 C6.70833333,24.9375 6.890625,25.0833333 6.890625,25.3020833 C6.890625,25.5208333 6.74479167,25.6666667 6.52604167,25.6666667 L6.52604167,25.6666667 L5.06770833,25.6666667 C4.84895833,25.6666667 4.703125,25.5208333 4.703125,25.3020833 C4.703125,25.0833333 4.84895833,24.9375 5.06770833,24.9375 L5.06770833,24.9375 Z M9.80729167,24.9375 C9.98958333,24.9375 10.171875,25.0833333 10.171875,25.3020833 C10.171875,25.5208333 10.0260417,25.6666667 9.80729167,25.6666667 L9.80729167,25.6666667 L8.34895833,25.6666667 C8.13020833,25.6666667 7.984375,25.5208333 7.984375,25.3020833 C7.984375,25.0833333 8.13020833,24.9375 8.34895833,24.9375 L8.34895833,24.9375 Z M13.0885417,24.9375 C13.3072917,24.9375 13.453125,25.0833333 13.453125,25.3020833 C13.453125,25.5208333 13.3072917,25.6666667 13.0885417,25.6666667 L13.0885417,25.6666667 L11.6302083,25.6666667 C11.4114583,25.6666667 11.265625,25.5208333 11.265625,25.3020833 C11.265625,25.0833333 11.4114583,24.9375 11.6302083,24.9375 L11.6302083,24.9375 Z M16.3697917,24.9375 C16.5885417,24.9375 16.734375,25.0833333 16.734375,25.3020833 C16.734375,25.5208333 16.5885417,25.6666667 16.3697917,25.6666667 L16.3697917,25.6666667 L14.9114583,25.6666667 C14.6927083,25.6666667 14.546875,25.5208333 14.546875,25.3020833 C14.546875,25.0833333 14.6927083,24.9375 14.9114583,24.9375 L14.9114583,24.9375 Z M19.6510417,24.9375 C19.8697917,24.9375 20.015625,25.0833333 20.015625,25.3020833 C20.015625,25.5208333 19.8697917,25.6666667 19.6510417,25.6666667 L19.6510417,25.6666667 L18.1927083,25.6666667 C17.9739583,25.6666667 17.828125,25.5208333 17.828125,25.3020833 C17.828125,25.0833333 17.9739583,24.9375 18.1927083,24.9375 L18.1927083,24.9375 Z M22.9322917,24.9375 C23.1510417,24.9375 23.296875,25.0833333 23.296875,25.3020833 C23.296875,25.5208333 23.1510417,25.6666667 22.9322917,25.6666667 L22.9322917,25.6666667 L21.4739583,25.6666667 C21.2552083,25.6666667 21.109375,25.5208333 21.109375,25.3020833 C21.109375,25.0833333 21.2552083,24.9375 21.4739583,24.9375 L21.4739583,24.9375 Z M21.9114583,19.140625 C23.0052083,19.140625 23.9166667,20.0520833 23.9166667,21.1458333 C23.9166667,22.2395833 23.0052083,23.1510417 21.9114583,23.1510417 C20.8177083,23.1510417 19.90625,22.2395833 19.90625,21.1458333 C19.90625,20.0520833 20.8177083,19.140625 21.9114583,19.140625 Z M6.05208333,19.140625 C7.14583333,19.140625 8.05729167,20.0520833 8.05729167,21.1458333 C8.05729167,22.2395833 7.14583333,23.1510417 6.05208333,23.1510417 C4.95833333,23.1510417 4.046875,22.2395833 4.046875,21.1458333 C4.046875,20.0520833 4.95833333,19.140625 6.05208333,19.140625 Z M11.8854167,19.140625 C12.9791667,19.140625 13.890625,20.0520833 13.890625,21.1458333 C13.890625,22.2395833 12.9791667,23.1510417 11.8854167,23.1510417 C10.7916667,23.1510417 9.88020833,22.2395833 9.88020833,21.1458333 C9.88020833,20.0520833 10.7916667,19.140625 11.8854167,19.140625 Z M22.6041667,11.484375 C22.7864583,11.484375 23.0052083,11.5572917 23.1510417,11.7395833 C23.1510417,11.7395833 23.1875,11.7760417 23.1875,11.7760417 L23.1875,11.7760417 L25.6302083,16.0052083 C25.6302083,16.078125 25.6666667,16.1145833 25.6666667,16.1875 L25.6666667,16.1875 L25.6666667,20.8177083 C25.6666667,21.21875 25.3385417,21.546875 24.9375,21.546875 L24.9375,21.546875 L24.5729167,21.546875 C24.828125,19.9791667 23.5885417,18.4479167 21.875,18.4479167 C20.1979167,18.4479167 18.921875,19.9791667 19.1770833,21.546875 L19.1770833,21.546875 L14.546875,21.546875 C14.8020833,19.9791667 13.5625,18.4479167 11.8489583,18.4479167 C10.171875,18.4479167 8.89583333,19.9791667 9.15104167,21.546875 L9.15104167,21.546875 L8.75,21.546875 C9.00520833,19.9791667 7.765625,18.4479167 6.05208333,18.4479167 C4.375,18.4479167 3.09895833,19.9791667 3.35416667,21.546875 L3.35416667,21.546875 L3.0625,21.546875 C2.66145833,21.546875 2.33333333,21.21875 2.33333333,20.8177083 L2.33333333,20.8177083 L2.33333333,18.4114583 C2.33333333,18.0104167 2.66145833,17.6822917 3.0625,17.6822917 L3.0625,17.6822917 L18.15625,17.6822917 L18.15625,12.2135417 C18.15625,11.8125 18.484375,11.484375 18.8854167,11.484375 L18.8854167,11.484375 Z M9.77083333,2.33333333 C12.1041667,2.33333333 14,4.22916667 14.0364583,6.5625 C14.0364583,8.13020833 12.1041667,11.8125 10.9739583,13.8541667 C12.6145833,13.9635417 14.2552083,14.4375 14.2552083,15.3489583 C14.2552083,16.4427083 11.9583333,16.9166667 9.80729167,16.9166667 C7.65625,16.9166667 5.359375,16.40625 5.359375,15.3489583 C5.359375,14.4010417 7,13.9635417 8.640625,13.8177083 C7.47395833,11.7395833 5.578125,8.09375 5.578125,6.52604167 C5.578125,4.22916667 7.47395833,2.33333333 9.77083333,2.33333333 Z M21.9479167,12.90625 L19.9791667,12.90625 C19.796875,12.90625 19.6145833,13.0520833 19.6145833,13.2708333 L19.6145833,13.2708333 L19.6145833,16.40625 C19.6145833,16.625 19.796875,16.7708333 19.9791667,16.7708333 L19.9791667,16.7708333 L23.734375,16.7708333 C23.8802083,16.7708333 23.9895833,16.6979167 24.0625,16.5885417 C24.1354167,16.4791667 24.1354167,16.3333333 24.0625,16.2239583 L24.0625,16.2239583 L22.2760417,13.0885417 C22.203125,12.9791667 22.09375,12.90625 21.9479167,12.90625 L21.9479167,12.90625 Z M10.5729167,14.5104167 C10.3177083,14.9479167 10.171875,15.2395833 10.1354167,15.2760417 C10.0625,15.3854167 9.953125,15.4583333 9.80729167,15.4583333 C9.66145833,15.4583333 9.55208333,15.3854167 9.47916667,15.2760417 C9.44270833,15.203125 9.296875,14.9479167 9.04166667,14.5104167 C7.03645833,14.6197917 6.125,15.1302083 6.08854167,15.3125 C6.125,15.5677083 7.4375,16.1510417 9.80729167,16.1510417 C12.1770833,16.1510417 13.4895833,15.5677083 13.5260417,15.3125 C13.4895833,15.1302083 12.578125,14.6197917 10.5729167,14.5104167 Z M8.38541667,4.44791667 C8.16666667,4.44791667 8.02083333,4.63020833 8.02083333,4.8125 L8.02083333,4.8125 L8.02083333,5.39583333 L7.328125,5.76041667 C7.14583333,5.86979167 7.07291667,6.08854167 7.18229167,6.27083333 C7.29166667,6.453125 7.51041667,6.48958333 7.69270833,6.41666667 L7.69270833,6.41666667 L7.72916667,6.38020833 L7.72916667,8.34895833 C7.72916667,8.53125 7.875,8.71354167 8.09375,8.71354167 L8.09375,8.71354167 L11.484375,8.71354167 C11.6666667,8.71354167 11.8489583,8.53125 11.8489583,8.34895833 L11.8489583,8.34895833 L11.8489583,6.38020833 L11.8854167,6.41666667 C12.0677083,6.52604167 12.2864583,6.453125 12.3958333,6.27083333 C12.5052083,6.08854167 12.4322917,5.86979167 12.25,5.76041667 L12.25,5.76041667 L9.953125,4.59375 C9.84375,4.55729167 9.734375,4.55729167 9.625,4.59375 L9.625,4.59375 L8.75,5.03125 L8.75,4.8125 C8.75,4.63020833 8.56770833,4.44791667 8.38541667,4.44791667 Z" id="Combined-Shape" fill="#0566FF" fill-rule="nonzero"></path>
                    </g>
                </g>
            </g>
        </g>
    </g>
</svg>