<?xml version="1.0" encoding="UTF-8"?>
<svg width="20px" height="32px" viewBox="0 0 20 32" version="1.1" xmlns="http://www.w3.org/2000/svg" xmlns:xlink="http://www.w3.org/1999/xlink">
    <!-- Generator: Sketch 63.1 (92452) - https://sketch.com -->
    <title>Artboard</title>
    <desc>Created with Sketch.</desc>
    <g id="Artboard" stroke="none" stroke-width="1" fill="none" fill-rule="evenodd" stroke-linecap="round">
        <g id="Group" transform="translate(0.000000, 1.000000)" stroke="#000000" stroke-width="1.6">
            <path d="M20,5 L0,5 L0,1.5 C0,0.67 0.67,0 1.5,0 L18.5,0 C19.33,0 20,0.67 20,1.5 L20,5 Z" id="Path" stroke-linejoin="round"></path>
            <path d="M18.5,14 L1.5,14 C0.67,14 0,13.33 0,12.5 L0,5 L20,5 L20,12.5 C20,13.33 19.33,14 18.5,14 Z" id="Path" stroke-linejoin="round"></path>
            <polygon id="Path" points="20 4 0 4 0 5 20 5"></polygon>
        </g>
        <g id="Group" transform="translate(0.000000, 17.000000)" stroke="#0566FF" stroke-width="1.6">
            <path d="M20,5 L0,5 L0,1.5 C0,0.67 0.67,0 1.5,0 L18.5,0 C19.33,0 20,0.67 20,1.5 L20,5 Z" id="Path" stroke-linejoin="round"></path>
            <path d="M18.5,14 L1.5,14 C0.67,14 0,13.33 0,12.5 L0,5 L20,5 L20,12.5 C20,13.33 19.33,14 18.5,14 Z" id="Path" stroke-linejoin="round"></path>
            <polygon id="Path" points="20 4 0 4 0 5 20 5"></polygon>
        </g>
    </g>
</svg>