<?xml version="1.0" encoding="UTF-8"?>
<svg width="22px" height="22px" viewBox="0 0 22 22" version="1.1" xmlns="http://www.w3.org/2000/svg" xmlns:xlink="http://www.w3.org/1999/xlink">
    <!-- Generator: Sketch 63.1 (92452) - https://sketch.com -->
    <title>indian-rupee(24x24)@1x</title>
    <desc>Created with Sketch.</desc>
    <g id="Home-Page_06/10/2020" stroke="none" stroke-width="1" fill="none" fill-rule="evenodd" stroke-linecap="round" stroke-linejoin="round">
        <g id="10.1_notifications" transform="translate(-319.000000, -495.000000)" stroke="#221B38">
            <g id="Group-7-Copy-2" transform="translate(288.000000, 464.000000)">
                <g id="ic_like" transform="translate(18.000000, 18.000000)">
                    <g id="indian-rupee(24x24)@1x" transform="translate(14.000000, 14.000000)">
                        <path d="M10,20 C15.5228,20 20,15.5228 20,10 C20,4.47715 15.5228,0 10,0 C4.47715,0 0,4.47715 0,10 C0,15.5228 4.47715,20 10,20 Z" id="Path" fill="#60CED9" fill-rule="nonzero"></path>
                        <path d="M11.1,15.5 L5.70001,10.5 L8.5,10.5 C10,10.5 11.1,9.2 11.1,7.6 L11.1,7.4 C11.1,5.8 9.9,4.5 8.5,4.5 L5.70001,4.5" id="Path"></path>
                        <line x1="5" y1="4.5" x2="14" y2="4.5" id="Path"></line>
                        <line x1="5" y1="6.90002" x2="14" y2="6.90002" id="Path"></line>
                    </g>
                </g>
            </g>
        </g>
    </g>
</svg>