<?xml version="1.0" encoding="UTF-8"?>
<svg width="52px" height="14px" viewBox="0 0 52 14" version="1.1" xmlns="http://www.w3.org/2000/svg" xmlns:xlink="http://www.w3.org/1999/xlink">
    <!-- Generator: Sketch 63.1 (92452) - https://sketch.com -->
    <title>paypal</title>
    <desc>Created with Sketch.</desc>
    <g id="Home-Page_17/09/2020" stroke="none" stroke-width="1" fill="none" fill-rule="evenodd">
        <g id="Checkout" transform="translate(-249.000000, -738.000000)" fill-rule="nonzero">
            <g id="Group-10" transform="translate(65.000000, 668.000000)">
                <g id="Group-9" transform="translate(0.000000, 48.000000)">
                    <g id="paypal" transform="translate(184.000000, 22.000000)">
                        <path d="M34.7958333,0.0291666667 L30.8291667,0.0291666667 C30.5958333,0.0291666667 30.3625,0.2625 30.2458333,0.495833333 L28.6125,10.7625 C28.6125,10.9958333 28.7291667,11.1125 28.9625,11.1125 L31.0625,11.1125 C31.2958333,11.1125 31.4125,10.9958333 31.4125,10.7625 L31.8791667,7.84583333 C31.8791667,7.6125 32.1125,7.37916667 32.4625,7.37916667 L33.7458333,7.37916667 C36.4291667,7.37916667 37.9458333,6.09583333 38.2958333,3.52916667 C38.5291667,2.47916667 38.2958333,1.54583333 37.8291667,0.9625 C37.1291667,0.379166667 36.0791667,0.0291666667 34.7958333,0.0291666667 M35.2625,3.87916667 C35.0291667,5.27916667 33.9791667,5.27916667 32.9291667,5.27916667 L32.2291667,5.27916667 L32.6958333,2.59583333 C32.6958333,2.47916667 32.8125,2.3625 33.0458333,2.3625 L33.2791667,2.3625 C33.9791667,2.3625 34.6791667,2.3625 35.0291667,2.82916667 C35.2625,2.94583333 35.2625,3.29583333 35.2625,3.87916667" id="Shape" fill="#139AD6"></path>
                        <g id="Group" fill="#263B80">
                            <path d="M6.2125,0.0291666667 L2.24583333,0.0291666667 C2.0125,0.0291666667 1.77916667,0.2625 1.6625,0.495833333 L0.0291666667,10.7625 C0.0291666667,10.9958333 0.145833333,11.1125 0.379166667,11.1125 L2.24583333,11.1125 C2.47916667,11.1125 2.7125,10.8791667 2.82916667,10.6458333 L3.29583333,7.84583333 C3.29583333,7.6125 3.52916667,7.37916667 3.87916667,7.37916667 L5.1625,7.37916667 C7.84583333,7.37916667 9.3625,6.09583333 9.7125,3.52916667 C9.94583333,2.47916667 9.7125,1.54583333 9.24583333,0.9625 C8.54583333,0.379166667 7.6125,0.0291666667 6.2125,0.0291666667 M6.67916667,3.87916667 C6.44583333,5.27916667 5.39583333,5.27916667 4.34583333,5.27916667 L3.7625,5.27916667 L4.22916667,2.59583333 C4.22916667,2.47916667 4.34583333,2.3625 4.57916667,2.3625 L4.8125,2.3625 C5.5125,2.3625 6.2125,2.3625 6.5625,2.82916667 C6.67916667,2.94583333 6.79583333,3.29583333 6.67916667,3.87916667" id="Shape"></path>
                            <path d="M18.2291667,3.7625 L16.3625,3.7625 C16.2458333,3.7625 16.0125,3.87916667 16.0125,3.99583333 L15.8958333,4.57916667 L15.7791667,4.34583333 C15.3125,3.7625 14.4958333,3.52916667 13.5625,3.52916667 C11.4625,3.52916667 9.59583333,5.1625 9.24583333,7.37916667 C9.0125,8.54583333 9.3625,9.59583333 9.94583333,10.2958333 C10.5291667,10.9958333 11.3458333,11.2291667 12.3958333,11.2291667 C14.1458333,11.2291667 15.0791667,10.1791667 15.0791667,10.1791667 L14.9625,10.7625 C14.9625,10.9958333 15.0791667,11.1125 15.3125,11.1125 L17.0625,11.1125 C17.2958333,11.1125 17.5291667,10.8791667 17.6458333,10.6458333 L18.6958333,4.1125 C18.5791667,3.99583333 18.3458333,3.7625 18.2291667,3.7625 M15.5458333,7.49583333 C15.3125,8.54583333 14.4958333,9.3625 13.3291667,9.3625 C12.7458333,9.3625 12.2791667,9.12916667 12.0458333,8.89583333 C11.8125,8.54583333 11.6958333,8.07916667 11.6958333,7.49583333 C11.8125,6.44583333 12.7458333,5.62916667 13.7958333,5.62916667 C14.3791667,5.62916667 14.7291667,5.8625 15.0791667,6.09583333 C15.4291667,6.44583333 15.5458333,7.02916667 15.5458333,7.49583333" id="Shape"></path>
                        </g>
                        <path d="M46.6958333,3.7625 L44.8291667,3.7625 C44.7125,3.7625 44.4791667,3.87916667 44.4791667,3.99583333 L44.3625,4.57916667 L44.2458333,4.34583333 C43.7791667,3.7625 42.9625,3.52916667 42.0291667,3.52916667 C39.9291667,3.52916667 38.0625,5.1625 37.7125,7.37916667 C37.4791667,8.54583333 37.8291667,9.59583333 38.4125,10.2958333 C38.9958333,10.9958333 39.8125,11.2291667 40.8625,11.2291667 C42.6125,11.2291667 43.5458333,10.1791667 43.5458333,10.1791667 L43.4291667,10.7625 C43.4291667,10.9958333 43.5458333,11.1125 43.7791667,11.1125 L45.5291667,11.1125 C45.7625,11.1125 45.9958333,10.8791667 46.1125,10.6458333 L47.1625,4.1125 C47.0458333,3.99583333 46.9291667,3.7625 46.6958333,3.7625 M44.0125,7.49583333 C43.7791667,8.54583333 42.9625,9.3625 41.7958333,9.3625 C41.2125,9.3625 40.7458333,9.12916667 40.5125,8.89583333 C40.2791667,8.54583333 40.1625,8.07916667 40.1625,7.49583333 C40.2791667,6.44583333 41.2125,5.62916667 42.2625,5.62916667 C42.8458333,5.62916667 43.1958333,5.8625 43.5458333,6.09583333 C44.0125,6.44583333 44.1291667,7.02916667 44.0125,7.49583333" id="Shape" fill="#139AD6"></path>
                        <path d="M28.3791667,3.7625 L26.3958333,3.7625 C26.1625,3.7625 26.0458333,3.87916667 25.9291667,3.99583333 L23.3625,7.9625 L22.1958333,4.22916667 C22.0791667,3.99583333 21.9625,3.87916667 21.6125,3.87916667 L19.7458333,3.87916667 C19.5125,3.87916667 19.3958333,4.1125 19.3958333,4.34583333 L21.4958333,10.5291667 L19.5125,13.3291667 C19.3958333,13.5625 19.5125,13.9125 19.7458333,13.9125 L21.6125,13.9125 C21.8458333,13.9125 21.9625,13.7958333 22.0791667,13.6791667 L28.4958333,4.4625 C28.8458333,4.1125 28.6125,3.7625 28.3791667,3.7625" id="Path" fill="#263B80"></path>
                        <path d="M48.9125,0.379166667 L47.2791667,10.8791667 C47.2791667,11.1125 47.3958333,11.2291667 47.6291667,11.2291667 L49.2625,11.2291667 C49.4958333,11.2291667 49.7291667,10.9958333 49.8458333,10.7625 L51.4791667,0.495833333 C51.4791667,0.2625 51.3625,0.145833333 51.1291667,0.145833333 L49.2625,0.145833333 C49.1458333,0.0291666667 49.0291667,0.145833333 48.9125,0.379166667" id="Path" fill="#139AD6"></path>
                    </g>
                </g>
            </g>
        </g>
    </g>
</svg>