<?xml version="1.0" encoding="UTF-8"?>
<svg width="84px" height="84px" viewBox="0 0 84 84" version="1.1" xmlns="http://www.w3.org/2000/svg" xmlns:xlink="http://www.w3.org/1999/xlink">
    <title>play-4(24x24)@1x</title>
    <g id="Static-Pages" stroke="none" stroke-width="1" fill="none" fill-rule="evenodd">
        <g id="About-Us" transform="translate(-678.000000, -830.000000)">
            <g id="Group-9" transform="translate(65.000000, 572.000000)">
                <g id="play-4(24x24)@1x" transform="translate(615.000000, 260.000000)">
                    <path d="M40,80 C62.08,80 80,62.08 80,40 C80,17.92 62.08,0 40,0 C17.92,0 0,17.92 0,40 C0,62.08 17.92,80 40,80 Z" id="Path" stroke="#FFFFFF" stroke-width="4" fill="#FFFFFF"></path>
                    <path d="M28,23.99968 L28,55.9996 C28,57.5596 29.63896,58.5196 30.99812,57.7596 L58.9808,41.7596 C60.3396,40.9996 60.3396,39.0396 58.9808,38.2796 L30.99812,22.27968 C29.63896,21.51968 28,22.47968 28,23.99968 Z" id="Path" fill="#464546"></path>
                </g>
            </g>
        </g>
    </g>
</svg>