<?xml version="1.0" encoding="UTF-8"?>
<svg width="20px" height="40px" viewBox="0 0 20 40" version="1.1" xmlns="http://www.w3.org/2000/svg" xmlns:xlink="http://www.w3.org/1999/xlink">
    <!-- Generator: Sketch 63.1 (92452) - https://sketch.com -->
    <title>Artboard</title>
    <desc>Created with Sketch.</desc>
    <g id="Artboard" stroke="none" stroke-width="1" fill="none" fill-rule="evenodd" stroke-linecap="round" stroke-linejoin="round">
        <g id="Group" transform="translate(1.000000, 1.000000)" stroke="#464546" stroke-width="1.6">
            <path d="M14.8992079,10.7374309 L7.89628765,17.7368471 C7.54524152,18.0877176 6.96916582,18.0877176 6.62712087,17.7368471 L0.263284598,11.3761951 C-0.0877615328,11.0253246 -0.0877615328,10.4495372 0.263284598,10.1076634 L7.26620485,3.10823811 L3.61172462,6.74289642 L10.0925763,0.265287556 C10.2816011,0.076357297 10.5426354,-0.0226070715 10.8126709,0.00438296543 L16.6454374,0.535187925 C17.0774942,0.571174641 17.4195391,0.913048443 17.464545,1.35388571 L17.9956148,7.18373369 C18.0226184,7.45363406 17.9236053,7.71453775 17.7345805,7.90346801 L11.2537289,14.3810859" id="Path"></path>
            <path d="M13.5396582,6.53965959 C14.1368257,5.94250488 14.1554252,4.99294451 13.581268,4.41875616 C13.0070374,3.84456046 12.0575094,3.86318203 11.4603418,4.46033673 C10.8631743,5.05749879 10.8445748,6.00705917 11.418732,6.58124752 C11.9929626,7.15543587 12.9424906,7.13682165 13.5396582,6.53965959 Z" id="Path"></path>
        </g>
        <g id="Group" transform="translate(1.000000, 21.000000)" stroke="#0566FF" stroke-width="1.6">
            <path d="M14.8992079,10.7374309 L7.89628765,17.7368471 C7.54524152,18.0877176 6.96916582,18.0877176 6.62712087,17.7368471 L0.263284598,11.3761951 C-0.0877615328,11.0253246 -0.0877615328,10.4495372 0.263284598,10.1076634 L7.26620485,3.10823811 L3.61172462,6.74289642 L10.0925763,0.265287556 C10.2816011,0.076357297 10.5426354,-0.0226070715 10.8126709,0.00438296543 L16.6454374,0.535187925 C17.0774942,0.571174641 17.4195391,0.913048443 17.464545,1.35388571 L17.9956148,7.18373369 C18.0226184,7.45363406 17.9236053,7.71453775 17.7345805,7.90346801 L11.2537289,14.3810859" id="Path"></path>
            <path d="M13.5396582,6.53965959 C14.1368257,5.94250488 14.1554252,4.99294451 13.581268,4.41875616 C13.0070374,3.84456046 12.0575094,3.86318203 11.4603418,4.46033673 C10.8631743,5.05749879 10.8445748,6.00705917 11.418732,6.58124752 C11.9929626,7.15543587 12.9424906,7.13682165 13.5396582,6.53965959 Z" id="Path"></path>
        </g>
    </g>
</svg>