<?xml version="1.0" encoding="UTF-8"?>
<svg width="15px" height="19px" viewBox="0 0 15 19" version="1.1" xmlns="http://www.w3.org/2000/svg" xmlns:xlink="http://www.w3.org/1999/xlink">
    <!-- Generator: Sketch 63.1 (92452) - https://sketch.com -->
    <title>Group</title>
    <desc>Created with Sketch.</desc>
    <g id="Home-Page_06/10/2020" stroke="none" stroke-width="1" fill="none" fill-rule="evenodd" stroke-linecap="round" stroke-linejoin="round">
        <g id="03.1_My-Projects_4" transform="translate(-1109.000000, -790.000000)" stroke="#FFFFFF" stroke-width="1.8">
            <g id="Group-20" transform="translate(233.000000, 775.000000)">
                <g id="ic_delete" transform="translate(867.000000, 8.000000)">
                    <g id="Group" transform="translate(10.000000, 8.000000)">
                        <path d="M10.048,17 L2.752,17 C2.328,17 1.976,16.672 1.952,16.248 L1.952,5.2 L10.848,5.2 L10.848,16.248 C10.824,16.672 10.472,17 10.048,17 Z" id="Path"></path>
                        <polygon id="Path" points="8.4 0 4.4 0 4.4 0.8 8.4 0.8"></polygon>
                        <path d="M12.4,5.2 L0.4,5.2 C0.176,5.2 0,5.024 0,4.8 L0,2.2 C0,1.976 0.176,1.8 0.4,1.8 L12.4,1.8 C12.624,1.8 12.8,1.976 12.8,2.2 L12.8,4.8 C12.8,5.024 12.624,5.2 12.4,5.2 Z" id="Path"></path>
                    </g>
                </g>
            </g>
        </g>
    </g>
</svg>