<?xml version="1.0" encoding="UTF-8"?>
<svg width="50px" height="56px" viewBox="0 0 50 56" version="1.1" xmlns="http://www.w3.org/2000/svg" xmlns:xlink="http://www.w3.org/1999/xlink">
    <!-- Generator: Sketch 63.1 (92452) - https://sketch.com -->
    <title>Group 50</title>
    <desc>Created with Sketch.</desc>
    <g id="Symbols" stroke="none" stroke-width="1" fill="none" fill-rule="evenodd">
        <g id="Promocode-card" transform="translate(-27.000000, -23.000000)">
            <g id="Group-50" transform="translate(20.000000, 20.000000)">
                <rect id="Rectangle" x="0" y="0" width="64" height="64"></rect>
                <path d="M19.3667187,16 L19.3667187,20 C19.3667187,20.7369778 19.9956875,21.3333333 20.7729687,21.3333333 C21.55025,21.3333333 22.1792187,20.7369778 22.1792187,20 L22.1792187,20 L22.1792187,16 L54.59375,16 C55.3710312,16 56,16.5963556 56,17.3333333 L56,17.3333333 L56,44 C56,44.7369778 55.3710312,45.3333333 54.59375,45.3333333 L54.59375,45.3333333 L22.0625,45.3333333 L22.0625,41.3333333 C22.0625,40.5963556 21.4335312,40 20.65625,40 C19.8789687,40 19.25,40.5963556 19.25,41.3333333 L19.25,41.3333333 L19.25,45.3333333 L9.40625,45.3333333 C8.62896875,45.3333333 8,44.7369778 8,44 L8,44 L8,36 C8,35.2630222 8.62896875,34.6666667 9.40625,34.6666667 C11.7325625,34.6666667 13.625,32.8723556 13.625,30.6666667 C13.625,28.4609778 11.7325625,26.6666667 9.40625,26.6666667 C8.62896875,26.6666667 8,26.0703111 8,25.3333333 L8,25.3333333 L8,17.3333333 C8,16.5963556 8.62896875,16 9.40625,16 L9.40625,16 L19.3667187,16 Z M46.15625,32 C43.8299375,32 41.9375,33.7943111 41.9375,36 C41.9375,38.2056889 43.8299375,40 46.15625,40 C48.4825625,40 50.375,38.2056889 50.375,36 C50.375,33.7943111 48.4825625,32 46.15625,32 Z M46.9363437,21.5572444 C46.2881562,21.1496889 45.4160937,21.3137778 44.98625,21.9270222 L44.98625,21.9270222 L33.73625,37.9270222 C33.305,38.5403556 33.4794687,39.3671111 34.12625,39.776 C34.7833437,40.1889778 35.652125,40.0104 36.0763437,39.4062222 L36.0763437,39.4062222 L47.3263437,23.4062222 C47.7575937,22.7928889 47.583125,21.9661333 46.9363437,21.5572444 Z M46.15625,34.6666667 C46.932125,34.6666667 47.5625,35.2643556 47.5625,36 C47.5625,36.7356444 46.932125,37.3333333 46.15625,37.3333333 C45.380375,37.3333333 44.75,36.7356444 44.75,36 C44.75,35.2643556 45.380375,34.6666667 46.15625,34.6666667 Z M20.65625,32 C19.8789687,32 19.25,32.5963556 19.25,33.3333333 L19.25,33.3333333 L19.25,36 C19.25,36.7369778 19.8789687,37.3333333 20.65625,37.3333333 C21.4335312,37.3333333 22.0625,36.7369778 22.0625,36 L22.0625,36 L22.0625,33.3333333 C22.0625,32.5963556 21.4335312,32 20.65625,32 Z M20.65625,24 C19.8789687,24 19.25,24.5963556 19.25,25.3333333 L19.25,25.3333333 L19.25,28 C19.25,28.7369778 19.8789687,29.3333333 20.65625,29.3333333 C21.4335312,29.3333333 22.0625,28.7369778 22.0625,28 L22.0625,28 L22.0625,25.3333333 C22.0625,24.5963556 21.4335312,24 20.65625,24 Z M34.90625,21.3333333 C32.5799375,21.3333333 30.6875,23.1276444 30.6875,25.3333333 C30.6875,27.5390222 32.5799375,29.3333333 34.90625,29.3333333 C37.2325625,29.3333333 39.125,27.5390222 39.125,25.3333333 C39.125,23.1276444 37.2325625,21.3333333 34.90625,21.3333333 Z M34.90625,24 C35.682125,24 36.3125,24.5976889 36.3125,25.3333333 C36.3125,26.0689778 35.682125,26.6666667 34.90625,26.6666667 C34.130375,26.6666667 33.5,26.0689778 33.5,25.3333333 C33.5,24.5976889 34.130375,24 34.90625,24 Z" id="Combined-Shape" fill="#FF654F" fill-rule="nonzero" transform="translate(32.000000, 30.666667) rotate(-56.000000) translate(-32.000000, -30.666667) "></path>
            </g>
        </g>
    </g>
</svg>