<?xml version="1.0" encoding="UTF-8"?>
<svg width="38px" height="33px" viewBox="0 0 38 33" version="1.1" xmlns="http://www.w3.org/2000/svg" xmlns:xlink="http://www.w3.org/1999/xlink">
    <title>Path</title>
    <g id="Design" stroke="none" stroke-width="1" fill="none" fill-rule="evenodd" stroke-linecap="round" stroke-linejoin="round">
        <g id="05.1.1_B2B's-Sub-user-detail" transform="translate(-410.000000, -1306.000000)" stroke="#FFFFFF" stroke-width="1.8">
            <g id="Group-12-Copy-4" transform="translate(374.000000, 1268.000000)">
                <g id="Group-11" transform="translate(24.000000, 24.000000)">
                    <path d="M48.9551602,19.7774489 C48.8810958,19.5717364 48.7269979,19.4025602 48.5262444,19.3104358 L41.662739,16.1741045 C40.2027686,15.6845426 38.7153895,15.2978369 37.2135143,15.0151933 C37.1606459,15.0049439 37.1080212,15 37.0561274,15 C36.6843435,15 36.3514191,15.2540657 36.2685839,15.6266633 C35.7201661,18.0165936 33.5828962,19.8059062 30.9998997,19.8059062 C28.4170251,19.8059062 26.2796333,18.0167142 25.7313374,15.6266633 C25.6475277,15.2540657 25.3152123,15 24.9436721,15 C24.8917783,15 24.8391536,15.0049439 24.7862852,15.0151933 C23.2845318,15.2978369 21.7971527,15.6845426 20.3348678,16.1741045 L13.4737987,19.3103152 C13.271827,19.4024396 13.1166328,19.5716158 13.0461011,19.7773283 C12.973133,19.9854524 12.9862892,20.2100962 13.0891023,20.4064033 L16.0687332,26.2271254 C16.208213,26.5033782 16.4919236,26.6691781 16.7920794,26.6691781 C16.8695546,26.6691781 16.9481263,26.6580846 17.0256015,26.6350535 L20.3349896,25.6641293 L20.3349896,45.1947551 C20.3349896,45.6382548 20.7005608,46 21.14982,46 L40.850345,46 C41.298386,46 41.6628608,45.6381342 41.6628608,45.1947551 L41.6628608,25.6643704 L44.9745634,26.6352947 C45.0520387,26.6583258 45.1304885,26.6694193 45.2078419,26.6694193 C45.5073886,26.6694193 45.7900028,26.5036194 45.9314318,26.2273666 L48.912159,20.4066444 C49.0125357,20.2102168 49.0269101,19.985573 48.9551602,19.7774489 Z" id="Path"></path>
                </g>
            </g>
        </g>
    </g>
</svg>