<?xml version="1.0" encoding="UTF-8"?>
<svg width="20px" height="40px" viewBox="0 0 20 40" version="1.1" xmlns="http://www.w3.org/2000/svg" xmlns:xlink="http://www.w3.org/1999/xlink">
    <!-- Generator: Sketch 63.1 (92452) - https://sketch.com -->
    <title>Artboard</title>
    <desc>Created with Sketch.</desc>
    <g id="Artboard" stroke="none" stroke-width="1" fill="none" fill-rule="evenodd">
        <g id="Group" stroke="#464546" stroke-width="1.52727273">
            <line x1="8.95454545" y1="8.18188182" x2="6.36363636" y2="3.70006364" id="Path" stroke-linejoin="round"></line>
            <line x1="6.36363636" y1="16.3" x2="8.95454545" y2="11.8181818" id="Path" stroke-linejoin="round"></line>
            <line x1="12.1000909" y1="10" x2="17.2728182" y2="10" id="Path" stroke-linejoin="round"></line>
            <polygon id="Path" stroke-linecap="round" points="12.0999091 10 11.0453636 11.8181818 8.95449091 11.8181818 7.89994545 10 8.95449091 8.18181818 11.0453636 8.18181818"></polygon>
            <line x1="10" y1="2.72727273" x2="10" y2="0" id="Path" stroke-linejoin="round"></line>
            <line x1="19.5455455" y1="6.90008182" x2="16.9182727" y2="7.75462727" id="Path" stroke-linejoin="round"></line>
            <line x1="15.9454545" y1="18.1818182" x2="14.2727273" y2="15.8818182" id="Path" stroke-linejoin="round"></line>
            <line x1="5.72723636" y1="15.8818182" x2="4.05450909" y2="18.1818182" id="Path" stroke-linejoin="round"></line>
            <line x1="3.08181818" y1="7.75462727" x2="0.454545455" y2="6.90008182" id="Path" stroke-linejoin="round"></line>
            <line x1="10" y1="19.0909091" x2="10" y2="17.2727273" id="Path" stroke-linecap="round" stroke-linejoin="round"></line>
            <line x1="3.08181818" y1="12.2454545" x2="0.909090909" y2="12.9545455" id="Path" stroke-linecap="round" stroke-linejoin="round"></line>
            <line x1="5.72733636" y1="4.11818182" x2="4.38188182" y2="2.27272727" id="Path" stroke-linecap="round" stroke-linejoin="round"></line>
            <line x1="15.6181818" y1="2.27272727" x2="14.2727273" y2="4.11818182" id="Path" stroke-linecap="round" stroke-linejoin="round"></line>
            <line x1="19.091" y1="12.9545455" x2="16.9182727" y2="12.2454545" id="Path" stroke-linecap="round" stroke-linejoin="round"></line>
            <path d="M10,17.2727273 C14.0166364,17.2727273 17.2727273,14.0166364 17.2727273,10 C17.2727273,5.98338182 14.0166364,2.72727273 10,2.72727273 C5.98338182,2.72727273 2.72727273,5.98338182 2.72727273,10 C2.72727273,14.0166364 5.98338182,17.2727273 10,17.2727273 Z" id="Path" stroke-linecap="round" stroke-linejoin="round"></path>
        </g>
        <g id="Group" transform="translate(0.000000, 20.000000)" stroke="#0566FF" stroke-width="1.52727273">
            <line x1="8.95454545" y1="8.18188182" x2="6.36363636" y2="3.70006364" id="Path" stroke-linejoin="round"></line>
            <line x1="6.36363636" y1="16.3" x2="8.95454545" y2="11.8181818" id="Path" stroke-linejoin="round"></line>
            <line x1="12.1000909" y1="10" x2="17.2728182" y2="10" id="Path" stroke-linejoin="round"></line>
            <polygon id="Path" stroke-linecap="round" points="12.0999091 10 11.0453636 11.8181818 8.95449091 11.8181818 7.89994545 10 8.95449091 8.18181818 11.0453636 8.18181818"></polygon>
            <line x1="10" y1="2.72727273" x2="10" y2="0" id="Path" stroke-linejoin="round"></line>
            <line x1="19.5455455" y1="6.90008182" x2="16.9182727" y2="7.75462727" id="Path" stroke-linejoin="round"></line>
            <line x1="15.9454545" y1="18.1818182" x2="14.2727273" y2="15.8818182" id="Path" stroke-linejoin="round"></line>
            <line x1="5.72723636" y1="15.8818182" x2="4.05450909" y2="18.1818182" id="Path" stroke-linejoin="round"></line>
            <line x1="3.08181818" y1="7.75462727" x2="0.454545455" y2="6.90008182" id="Path" stroke-linejoin="round"></line>
            <line x1="10" y1="19.0909091" x2="10" y2="17.2727273" id="Path" stroke-linecap="round" stroke-linejoin="round"></line>
            <line x1="3.08181818" y1="12.2454545" x2="0.909090909" y2="12.9545455" id="Path" stroke-linecap="round" stroke-linejoin="round"></line>
            <line x1="5.72733636" y1="4.11818182" x2="4.38188182" y2="2.27272727" id="Path" stroke-linecap="round" stroke-linejoin="round"></line>
            <line x1="15.6181818" y1="2.27272727" x2="14.2727273" y2="4.11818182" id="Path" stroke-linecap="round" stroke-linejoin="round"></line>
            <line x1="19.091" y1="12.9545455" x2="16.9182727" y2="12.2454545" id="Path" stroke-linecap="round" stroke-linejoin="round"></line>
            <path d="M10,17.2727273 C14.0166364,17.2727273 17.2727273,14.0166364 17.2727273,10 C17.2727273,5.98338182 14.0166364,2.72727273 10,2.72727273 C5.98338182,2.72727273 2.72727273,5.98338182 2.72727273,10 C2.72727273,14.0166364 5.98338182,17.2727273 10,17.2727273 Z" id="Path" stroke-linecap="round" stroke-linejoin="round"></path>
        </g>
    </g>
</svg>