<?xml version="1.0" encoding="UTF-8"?>
<svg width="18px" height="22px" viewBox="0 0 18 22" version="1.1" xmlns="http://www.w3.org/2000/svg" xmlns:xlink="http://www.w3.org/1999/xlink">
    <title>award-badge(24x24)@1x</title>
    <g id="My-Account" stroke="none" stroke-width="1" fill="none" fill-rule="evenodd" stroke-linecap="round" stroke-linejoin="round">
        <g id="My-Account_Personal-Information" transform="translate(-1161.000000, -321.000000)" stroke="#26A541">
            <g id="Group-10" transform="translate(420.000000, 295.000000)">
                <g id="Group-28" transform="translate(738.000000, 25.000000)">
                    <g id="award-badge(24x24)@1x" transform="translate(4.000000, 2.000000)">
                        <path d="M8.02,12.06 L10,20 L12,16 L16,18 L13,10.02 C12.17,9.98 11.48,10.67 11.52,11.5 L11.52,11.51 C11.59,12.84 9.95,13.52 9.05,12.53 C8.78,12.23 8.39,12.07 8.02,12.06 Z" id="Path"></path>
                        <path d="M6.95,12.53 C6.05,13.52 4.41,12.84 4.48,11.51 L4.48,11.5 C4.52,10.67 3.83,9.98 3,10.02 L0,18 L4,16 L6,20 L7.98,12.06 C7.61,12.07 7.22,12.23 6.95,12.53 Z" id="Path"></path>
                        <path d="M9.05,0.47 C9.95,-0.52 11.59,0.16 11.52,1.49 C11.48,2.33 12.17,3.02 13,2.98 C14.33,2.91 15.01,4.55 14.02,5.45 C13.4,6.01 13.4,6.99 14.02,7.55 C15.01,8.44 14.33,10.08 13,10.02 C12.16,9.98 11.47,10.67 11.51,11.51 C11.58,12.84 9.94,13.52 9.04,12.53 C8.48,11.91 7.5,11.91 6.94,12.53 C6.05,13.52 4.41,12.84 4.47,11.51 C4.51,10.67 3.82,9.98 2.98,10.02 C1.65,10.09 0.97,8.45 1.96,7.55 C2.58,6.99 2.58,6.01 1.96,5.45 C0.98,4.55 1.66,2.91 2.99,2.98 C3.83,3.02 4.52,2.33 4.48,1.5 C4.41,0.16 6.05,-0.52 6.95,0.47 C7.51,1.1 8.49,1.1 9.05,0.47 Z" id="Path"></path>
                        <path d="M8,9 C9.3807,9 10.5,7.88071 10.5,6.5 C10.5,5.11929 9.3807,4 8,4 C6.6193,4 5.5,5.11929 5.5,6.5 C5.5,7.88071 6.6193,9 8,9 Z" id="Path"></path>
                    </g>
                </g>
            </g>
        </g>
    </g>
</svg>