<?xml version="1.0" encoding="UTF-8"?>
<svg width="24px" height="48px" viewBox="0 0 24 48" version="1.1" xmlns="http://www.w3.org/2000/svg" xmlns:xlink="http://www.w3.org/1999/xlink">
    <!-- Generator: Sketch 63.1 (92452) - https://sketch.com -->
    <title>Artboard</title>
    <desc>Created with Sketch.</desc>
    <g id="Artboard" stroke="none" stroke-width="1" fill="none" fill-rule="evenodd" stroke-linecap="round" stroke-linejoin="round">
        <g id="Group-2" transform="translate(2.000000, 2.000000)" stroke="#000000" stroke-width="1.4">
            <polygon id="Path" points="14.7376217 14 14 14.7376162 20.2623783 21 21 20.2623838"></polygon>
            <path d="M8,16 C12.4183,16 16,12.4183 16,8 C16,3.5817 12.4183,0 8,0 C3.5817,0 0,3.5817 0,8 C0,12.4183 3.5817,16 8,16 Z" id="Path"></path>
        </g>
        <g id="Group-2" transform="translate(2.000000, 26.000000)" stroke="#0566FF" stroke-width="1.4">
            <polygon id="Path" points="14.7376217 14 14 14.7376162 20.2623783 21 21 20.2623838"></polygon>
            <path d="M8,16 C12.4183,16 16,12.4183 16,8 C16,3.5817 12.4183,0 8,0 C3.5817,0 0,3.5817 0,8 C0,12.4183 3.5817,16 8,16 Z" id="Path"></path>
        </g>
    </g>
</svg>