<?xml version="1.0" encoding="UTF-8"?>
<svg width="32px" height="64px" viewBox="0 0 32 64" version="1.1" xmlns="http://www.w3.org/2000/svg" xmlns:xlink="http://www.w3.org/1999/xlink">
    <title>Artboard</title>
    <g id="Artboard" stroke="none" stroke-width="1" fill="none" fill-rule="evenodd">
        <g id="Group" transform="translate(0.000000, 32.000000)">
            <rect id="ViewBox" fill="#FFFFFF" opacity="0.165411086" x="0" y="0" width="32" height="32" rx="4"></rect>
            <path d="M17.4626249,7 C17.7085468,7 17.907176,7.171 17.9355516,7.396 L17.9355516,7.396 L18.226,9.584 L18.5564158,9.6994375 C18.7789869,9.7826875 18.9974199,9.8771875 19.2128972,9.9829375 L19.534044,10.15 C19.9596781,10.384 20.3569365,10.654 20.7069023,10.951 L20.7069023,10.951 L20.6974438,10.96 L22.8445312,10.096 C23.0620775,10.006 23.3174579,10.087 23.4404189,10.285 L23.4404189,10.285 L24.9159503,12.715 C25.0389112,12.913 24.98216,13.165 24.7929893,13.3 L24.7929893,13.3 L22.948575,14.641 L22.9580336,14.641 C23.1472043,15.523 23.1472043,16.45 22.948575,17.359 L22.948575,17.359 L24.8119064,18.7 C25.0010771,18.835 25.0578283,19.087 24.9348674,19.285 L24.9348674,19.285 L23.4593359,21.715 C23.336375,21.913 23.0809945,21.994 22.8634482,21.904 L22.8634482,21.904 L20.7069023,21.04 C20.0542634,21.598 19.2975806,22.03 18.5030637,22.309 C18.3422686,22.363 18.2193077,22.507 18.2003906,22.669 L18.2003906,22.669 L17.9450102,24.604 C17.907176,24.829 17.7085468,25 17.4720834,25 L17.4720834,25 L14.5210206,25 C14.2845572,25 14.0764694,24.829 14.0670109,24.604 L14.0670109,24.604 L13.7737963,22.399 L13.7737963,22.417 C13.3197867,22.273 12.8846941,22.084 12.45906,21.85 C12.0334259,21.616 11.6361675,21.346 11.2862017,21.049 L11.2862017,21.049 L11.2956602,21.04 L9.13911429,21.904 C8.92156799,21.994 8.66618755,21.913 8.5432266,21.715 L8.5432266,21.715 L7.06769517,19.285 C6.94473422,19.087 7.00148543,18.835 7.19065613,18.7 L7.19065613,18.7 L9.05398747,17.359 C8.85535824,16.477 8.85535824,15.55 9.05398747,14.641 L9.05398747,14.641 L7.19065613,13.3 C7.00148543,13.165 6.94473422,12.913 7.05823664,12.715 L7.05823664,12.715 L8.53376806,10.285 C8.65672901,10.087 8.91210945,10.006 9.12965575,10.096 L9.12965575,10.096 L11.2862017,10.96 C11.9388406,10.402 12.6955234,9.97 13.4900403,9.691 C13.6508354,9.637 13.7737963,9.493 13.7927134,9.331 L13.7927134,9.331 L14.0480938,7.396 C14.0764694,7.171 14.2845572,7 14.5210206,7 L14.5210206,7 Z M16.1882909,12.1428571 C14.0987682,12.1428571 12.404877,13.7546311 12.404877,15.7428571 C12.404877,17.7310471 14.0987682,19.3428571 16.1882909,19.3428571 C18.2777758,19.3428571 19.9717048,17.7310471 19.9717048,15.7428571 C19.9717048,13.7546311 18.2777758,12.1428571 16.1882909,12.1428571 Z" id="Combined-Shape" stroke="#FFFFFF" stroke-width="0.9" stroke-linecap="round" stroke-linejoin="round"></path>
        </g>
        <g id="Group-Copy">
            <rect id="ViewBox" opacity="0.165411086" x="0" y="0" width="32" height="32" rx="4"></rect>
            <path d="M17.4626249,7 C17.7085468,7 17.907176,7.171 17.9355516,7.396 L17.9355516,7.396 L18.226,9.584 L18.5564158,9.6994375 C18.7789869,9.7826875 18.9974199,9.8771875 19.2128972,9.9829375 L19.534044,10.15 C19.9596781,10.384 20.3569365,10.654 20.7069023,10.951 L20.7069023,10.951 L20.6974438,10.96 L22.8445312,10.096 C23.0620775,10.006 23.3174579,10.087 23.4404189,10.285 L23.4404189,10.285 L24.9159503,12.715 C25.0389112,12.913 24.98216,13.165 24.7929893,13.3 L24.7929893,13.3 L22.948575,14.641 L22.9580336,14.641 C23.1472043,15.523 23.1472043,16.45 22.948575,17.359 L22.948575,17.359 L24.8119064,18.7 C25.0010771,18.835 25.0578283,19.087 24.9348674,19.285 L24.9348674,19.285 L23.4593359,21.715 C23.336375,21.913 23.0809945,21.994 22.8634482,21.904 L22.8634482,21.904 L20.7069023,21.04 C20.0542634,21.598 19.2975806,22.03 18.5030637,22.309 C18.3422686,22.363 18.2193077,22.507 18.2003906,22.669 L18.2003906,22.669 L17.9450102,24.604 C17.907176,24.829 17.7085468,25 17.4720834,25 L17.4720834,25 L14.5210206,25 C14.2845572,25 14.0764694,24.829 14.0670109,24.604 L14.0670109,24.604 L13.7737963,22.399 L13.7737963,22.417 C13.3197867,22.273 12.8846941,22.084 12.45906,21.85 C12.0334259,21.616 11.6361675,21.346 11.2862017,21.049 L11.2862017,21.049 L11.2956602,21.04 L9.13911429,21.904 C8.92156799,21.994 8.66618755,21.913 8.5432266,21.715 L8.5432266,21.715 L7.06769517,19.285 C6.94473422,19.087 7.00148543,18.835 7.19065613,18.7 L7.19065613,18.7 L9.05398747,17.359 C8.85535824,16.477 8.85535824,15.55 9.05398747,14.641 L9.05398747,14.641 L7.19065613,13.3 C7.00148543,13.165 6.94473422,12.913 7.05823664,12.715 L7.05823664,12.715 L8.53376806,10.285 C8.65672901,10.087 8.91210945,10.006 9.12965575,10.096 L9.12965575,10.096 L11.2862017,10.96 C11.9388406,10.402 12.6955234,9.97 13.4900403,9.691 C13.6508354,9.637 13.7737963,9.493 13.7927134,9.331 L13.7927134,9.331 L14.0480938,7.396 C14.0764694,7.171 14.2845572,7 14.5210206,7 L14.5210206,7 Z M16.1882909,12.1428571 C14.0987682,12.1428571 12.404877,13.7546311 12.404877,15.7428571 C12.404877,17.7310471 14.0987682,19.3428571 16.1882909,19.3428571 C18.2777758,19.3428571 19.9717048,17.7310471 19.9717048,15.7428571 C19.9717048,13.7546311 18.2777758,12.1428571 16.1882909,12.1428571 Z" id="Combined-Shape" stroke="#454546" stroke-width="0.9" stroke-linecap="round" stroke-linejoin="round"></path>
        </g>
    </g>
</svg>