<?xml version="1.0" encoding="UTF-8"?>
<svg width="24px" height="23px" viewBox="0 0 24 23" version="1.1" xmlns="http://www.w3.org/2000/svg" xmlns:xlink="http://www.w3.org/1999/xlink">
    <!-- Generator: Sketch 63.1 (92452) - https://sketch.com -->
    <title>Group 7</title>
    <desc>Created with Sketch.</desc>
    <g id="Home-Page_17/09/2020" stroke="none" stroke-width="1" fill="none" fill-rule="evenodd">
        <g id="My-Orders" transform="translate(-1009.000000, -251.000000)">
            <g id="Group-10-Copy" transform="translate(65.000000, 220.000000)">
                <g id="Stacked-Group-3" transform="translate(942.000000, 28.000000)">
                    <g id="Group-7">
                        <rect id="Rectangle" x="0" y="0" width="28" height="28"></rect>
                        <path d="M2,15.7326437 L7.51507412,18.9856818 L7.51507412,26 L2,22.696186 L2,15.7326437 Z M13.3910689,15.7326437 L13.3910689,22.696186 L7.92748485,26 L7.92748485,18.9856818 L13.3910689,15.7326437 Z M17.0998233,20.5297506 C17.1594046,20.5665027 17.2175148,20.6047054 17.2785673,20.6400067 C18.1629701,21.1487322 19.124608,21.4176023 20.1607838,21.4526618 L20.1607838,21.4526618 L17.0998233,23.0182499 Z M11.2238284,6.6258778 L16.6874125,9.87891594 L16.6874125,10.443253 C16.0124026,10.9369875 15.4563101,11.5482318 15.0230581,12.2803709 C14.468682,13.2168223 14.1918617,14.2393507 14.1918617,15.3481981 C14.1918617,16.4570455 14.468682,17.4793322 15.0230581,18.4157836 C15.4563101,19.1479227 16.0124026,19.7594088 16.6874125,20.2531433 L16.6874125,20.2531433 L16.6874125,23.0182499 L13.7259994,21.489172 L13.7240379,15.1714499 L11.2238284,13.7086224 L11.2238284,6.6258778 Z M20.3893015,9.81508347 C21.4070881,9.81508347 22.3459232,10.0624343 23.2055617,10.5571359 C24.0652003,11.0520794 24.7456044,11.7232875 25.2475098,12.5707603 C25.7491699,13.4184748 26,14.3442875 26,15.3481981 C26,16.3521088 25.7491699,17.2776797 25.2475098,18.1253942 C24.7456044,18.9731088 24.0652003,19.6443169 23.2055617,20.1390185 C22.3459232,20.6332366 21.4070881,20.8805874 20.3893015,20.8805874 C19.3712698,20.8805874 18.4326798,20.6332366 17.5730413,20.1387768 C16.7134027,19.6440751 16.0327534,18.972867 15.5310932,18.1251524 C15.0291879,17.2774379 14.778603,16.351867 14.778603,15.3479564 C14.778603,14.3440457 15.0291879,13.4184748 15.5310932,12.5705185 C16.0327534,11.7230457 16.7134027,11.0518376 17.5730413,10.5571359 C18.4324346,10.0624343 19.3712698,9.81508347 20.3893015,9.81508347 Z M4.97980242,13.661957 L10.557155,17.0228334 L7.69553446,18.6933581 L2,15.3682667 L4.97980242,13.661957 Z M23.0336831,13.064253 C22.9069195,13.064253 22.7975644,13.1099512 22.7048824,13.2011059 L19.7245896,16.1332892 L18.0734755,14.5053194 C17.9810386,14.4139229 17.8714383,14.3684664 17.7446748,14.3684664 C17.6179112,14.3684664 17.5083109,14.4139229 17.4158741,14.5053194 L16.7511621,15.1535575 C16.6633838,15.2401182 16.6197399,15.350616 16.6197399,15.4850511 C16.6197399,15.6146504 16.6633838,15.7227303 16.7511621,15.809291 L19.3957888,18.4169926 C19.4882257,18.5083891 19.597826,18.5540873 19.7245896,18.5540873 C19.8560118,18.5540873 19.9680639,18.5083891 20.060746,18.4169926 L24.0276861,14.5053194 C24.1152192,14.4187587 24.1588631,14.3106787 24.1588631,14.1808376 C24.1588631,14.0466444 24.1152192,13.9361465 24.0274409,13.8495858 L23.362729,13.2011059 C23.2700469,13.1099512 23.1604467,13.064253 23.0336831,13.064253 Z M7.69553446,12.1070077 L13.3910689,15.3682667 L10.8082302,16.8763088 L5.23332959,13.5168832 L7.69553446,12.1070077 Z M22.6148974,6.6258778 L22.6148974,9.63930238 C21.9153683,9.37309196 21.1739117,9.23672259 20.3893015,9.23672259 C19.264857,9.23672259 18.2279456,9.50994491 17.2785673,10.0563896 C17.2175148,10.0914491 17.1594046,10.1298936 17.0998233,10.1666456 L17.0998233,10.1666456 L17.0998233,9.87891594 L22.6148974,6.6258778 Z M19.6353402,4.55519112 L22.6151426,6.26150078 L16.9196081,9.58659224 L14.0579876,7.91606745 L19.6353402,4.55519112 Z M16.9196081,3 L19.381813,4.41011732 L13.8069123,7.76954291 L11.2238284,6.26150078 L16.9196081,3 Z" id="Combined-Shape" fill="#FF654F" fill-rule="nonzero"></path>
                    </g>
                </g>
            </g>
        </g>
    </g>
</svg>