<?xml version="1.0" encoding="UTF-8"?>
<svg width="24px" height="24px" viewBox="0 0 24 24" version="1.1" xmlns="http://www.w3.org/2000/svg" xmlns:xlink="http://www.w3.org/1999/xlink">
    <title>trash-2(24x24)@1x</title>
    <g id="Symbols" stroke="none" stroke-width="1" fill="none" fill-rule="evenodd">
        <g id="Table/Manage-Products" transform="translate(-1373.000000, -25.000000)">
            <g id="Group-8" transform="translate(1025.000000, 1.000000)">
                <g id="Group-65" transform="translate(20.000000, 24.000000)">
                    <g id="trash-2(24x24)@1x" transform="translate(328.000000, 0.000000)">
                        <rect id="Rectangle" x="0" y="0" width="24" height="24"></rect>
                        <g id="tag(24x24)@1x" transform="translate(2.000000, 6.000000)">
                            <path d="M10.94,12 L1,12 C0.45,12 0,11.55 0,11 L0,1 C0,0.45 0.45,0 1,0 L10.94,0 L5.72,0 L14.53,0 C14.83,0 15.11,0.13 15.3,0.36 L20,6 L15.3,11.64 C15.11,11.87 14.83,12 14.53,12 L5.72,12" id="Path"></path>
                            <path d="M10.94,12 L1,12 C0.45,12 0,11.55 0,11 L0,1 C0,0.45 0.45,0 1,0 L10.94,0 L5.72,0 L14.53,0 C14.83,0 15.11,0.13 15.3,0.36 L20,6 L15.3,11.64 C15.11,11.87 14.83,12 14.53,12 L5.72,12" id="Path" stroke="#FA6400" stroke-linecap="round" stroke-linejoin="round"></path>
                            <path d="M13,8 C14.1046,8 15,7.1046 15,6 C15,4.8954 14.1046,4 13,4 C11.8954,4 11,4.8954 11,6 C11,7.1046 11.8954,8 13,8 Z" id="Path" stroke="#FA6400" stroke-linecap="round" stroke-linejoin="round"></path>
                        </g>
                    </g>
                </g>
            </g>
        </g>
    </g>
</svg>