<?xml version="1.0" encoding="UTF-8"?>
<svg width="60px" height="64px" viewBox="0 0 60 64" version="1.1" xmlns="http://www.w3.org/2000/svg" xmlns:xlink="http://www.w3.org/1999/xlink">
    <!-- Generator: Sketch 63.1 (92452) - https://sketch.com -->
    <title>tshirt</title>
    <desc>Created with Sketch.</desc>
    <g id="Home-Page_17/09/2020" stroke="none" stroke-width="1" fill="none" fill-rule="evenodd">
        <g id="Product-Detail-Page" transform="translate(-993.000000, -326.000000)" fill="#464546" fill-rule="nonzero">
            <g id="Group-8" transform="translate(855.000000, 310.000000)">
                <g id="Group-7" transform="translate(120.000000, 0.000000)">
                    <g id="Group-10" transform="translate(16.000000, 16.000000)">
                        <g id="tshirt" transform="translate(2.666667, 0.000000)">
                            <path d="M58.7498026,25.6124531 L50.1182481,8.19872263 C49.9362419,7.83155921 49.6574347,7.52086308 49.3119507,7.30028773 L38.9562532,0.689959686 C37.7293501,-0.0932718611 36.1444847,-0.109279329 34.9188421,0.649121736 C31.6243287,2.68723794 28.0952492,2.62572893 24.1300607,0.460561325 C22.9255932,-0.197131339 21.4512676,-0.147470375 20.2823443,0.590259629 L18.4961882,1.71746267 C18.4940455,1.71872311 18.4921548,1.72010958 18.4900121,1.72137001 L9.65451992,7.2972627 C9.30449836,7.51821618 9.02228796,7.83105504 8.83851718,8.20187371 L0.208475214,25.6124531 C-0.159066336,26.3538383 0.115959611,27.2561805 0.834278984,27.6667028 L10.2539807,33.0493715 L10.2539807,62.4881135 C10.2539807,63.3217623 10.9322184,64 11.7658671,64 L47.1924106,64 C48.0260594,64 48.7042971,63.3217623 48.7042971,62.4881135 L48.7042971,52.3960982 C48.7042971,51.8740278 48.2810445,51.4507753 47.7589742,51.4507753 C47.2369038,51.4507753 46.8136513,51.8740278 46.8136513,52.3960982 L46.8136513,62.1093542 L12.1446265,62.1093542 L12.1446265,21.2693875 C12.1446265,20.7473172 11.7213739,20.3240646 11.1993036,20.3240646 C10.6772333,20.3240646 10.2539807,20.7473172 10.2539807,21.2693875 L10.2539807,30.8718516 L2.03862038,26.177378 L10.5325358,9.0414465 C10.5620299,8.98182814 10.6074054,8.93153696 10.6636206,8.89611886 L18.34355,4.04938524 C18.7765079,5.61370561 19.5385643,7.07832591 20.5885029,8.34342006 C20.7754248,8.56878504 21.0449048,8.68499674 21.3164015,8.68499674 C21.5291622,8.68499674 21.7431833,8.61365637 21.9196436,8.4670683 C22.3214689,8.13355837 22.3768018,7.53762681 22.0434179,7.13592759 C21.0407454,5.92767886 20.3511638,4.50339233 20.0282415,2.98621207 L21.2911929,2.18911579 C21.3305184,2.16428531 21.3707261,2.14121943 21.411312,2.11954002 C21.6592387,3.89183143 22.4785185,5.52698798 23.7763839,6.79838429 C25.3085632,8.29943103 27.3339491,9.12614743 29.4792019,9.12614743 C31.6069347,9.12614743 33.6203465,8.31102699 35.1484925,6.83102944 C36.47018,5.55093617 37.3057194,3.89271373 37.5517554,2.09433141 C37.6858653,2.14235381 37.8160677,2.20499721 37.9390858,2.28352204 L38.9417583,2.92356867 C38.0290805,7.36129257 34.0640181,10.6385381 29.4792019,10.6385381 C27.8013168,10.6385381 26.1453631,10.1973874 24.6904481,9.36298234 C24.2374494,9.1032076 23.659794,9.25975307 23.4001453,9.71262577 C23.1403706,10.1654985 23.2970421,10.7432798 23.7497888,11.0029285 C25.4906955,12.0013156 27.4718402,12.5290578 29.4792019,12.5290578 C34.7184336,12.5290578 39.2808141,8.94905694 40.6274581,3.99947219 L48.2946572,8.893598 C48.3501161,8.92914214 48.3949874,8.97905519 48.4242294,9.03804334 L56.9196574,26.1771259 L48.7042971,30.8715995 L48.7042971,21.2691354 C48.7042971,20.7470651 48.2810445,20.3238125 47.7589742,20.3238125 C47.2369038,20.3238125 46.8136513,20.7470651 46.8136513,21.2691354 L46.8136513,48.6148065 C46.8136513,49.1368769 47.2369038,49.5601294 47.7589742,49.5601294 C48.2810445,49.5601294 48.7042971,49.1368769 48.7042971,48.6148065 L48.7042971,33.0493715 L58.1239988,27.6667028 C58.8423182,27.2561805 59.1173441,26.3538383 58.7498026,25.6124531 Z M29.4790759,7.2355016 C27.8315671,7.2355016 26.2760697,6.60062273 25.0993318,5.44783295 C24.1824946,4.54952409 23.5767317,3.41513659 23.3371238,2.17991465 C27.7077928,4.52986137 31.8175527,4.62678848 35.5607793,2.46729281 C34.8965324,5.22360235 32.4326428,7.2355016 29.4790759,7.2355016 L29.4790759,7.2355016 Z" id="Shape"></path>
                        </g>
                    </g>
                </g>
            </g>
        </g>
    </g>
</svg>