<?xml version="1.0" encoding="UTF-8"?>
<svg width="24px" height="22px" viewBox="0 0 24 22" version="1.1" xmlns="http://www.w3.org/2000/svg" xmlns:xlink="http://www.w3.org/1999/xlink">
    <!-- Generator: Sketch 63.1 (92452) - https://sketch.com -->
    <title>ic_Tee</title>
    <desc>Created with Sketch.</desc>
    <g id="Home-Page_17/09/2020" stroke="none" stroke-width="1" fill="none" fill-rule="evenodd">
        <g id="Product-Detail-Page" transform="translate(-1109.000000, -227.000000)">
            <g id="Group-9" transform="translate(855.000000, 214.000000)">
                <g id="Group-6-Copy-3" transform="translate(242.000000, 0.000000)">
                    <g id="ic_Tee" transform="translate(12.000000, 12.000000)">
                        <rect id="Rectangle" fill-opacity="0" fill="#D8D8D8" x="0" y="0" width="24" height="24"></rect>
                        <g id="sweatshirt" transform="translate(0.000000, 1.500000)" fill-rule="nonzero">
                            <polygon id="Path" fill="#000000" points="5.75189873 19.635443 18.243038 19.635443 18.243038 21.3670886 5.75189873 21.3670886"></polygon>
                            <polygon id="Path" fill="#464546" points="0.0759493671 20.6177215 2.6278481 20.7493671 2.90126582 19.2860759 0.197468354 19.1291139"></polygon>
                            <path d="M12,2.58227848 C12.7088608,2.57721519 13.3873418,2.2835443 13.8734177,1.76202532 C14.3291139,1.28607595 14.6126582,0.663291139 14.6632911,0 L9.33670886,0 C9.39240506,0.658227848 9.67088608,1.28101266 10.1265823,1.76202532 C10.6126582,2.27848101 11.2911392,2.57721519 12,2.58227848 Z" id="Path" fill="#464546"></path>
                            <path d="M22.7088608,8.64810127 C22.5164557,7.16962025 22.1974684,5.7164557 21.7468354,4.29873418 C20.9974684,1.92405063 18.8911392,0.237974684 16.4101266,0.0202531646 C16.2734177,2.41518987 14.3493671,4.31898734 12,4.31898734 C9.65063291,4.31898734 7.72658228,2.41518987 7.58987342,0.0202531646 C5.10886076,0.232911392 3.00253165,1.91898734 2.25316456,4.29367089 C1.80759494,5.71139241 1.4835443,7.16962025 1.29113924,8.64303797 L0,18.6126582 L3.29620253,18.8050633 L4.66329114,14.4607595 L4.67341772,14.4658228 L4.70379747,9.80759494 C4.71392405,8.48101266 4.56708861,7.34177215 4.19746835,5.88860759 C4.16202532,5.75189873 4.24303797,5.61518987 4.37974684,5.57974684 C4.5164557,5.5443038 4.65316456,5.62531646 4.68860759,5.76202532 C5.06835443,7.26075949 5.22025316,8.43544304 5.21012658,9.80759494 L5.1443038,19.1291139 L18.8455696,19.1291139 L18.7848101,9.80759494 C18.7746835,8.43037975 18.9265823,7.26075949 19.3063291,5.76202532 C19.3417722,5.62531646 19.478481,5.5443038 19.6151899,5.57974684 C19.7518987,5.61518987 19.8329114,5.75189873 19.7974684,5.88860759 C19.4278481,7.34177215 19.2810127,8.48101266 19.2911392,9.80759494 L19.321519,14.4658228 L19.3316456,14.4607595 L20.6987342,18.8050633 L23.9949367,18.6126582 L22.7088608,8.64810127 Z" id="Shape" fill="#464546"></path>
                            <polygon id="Path" fill="#464546" points="21.0987342 19.2860759 21.3721519 20.7493671 23.9240506 20.6177215 23.8025316 19.1291139"></polygon>
                        </g>
                    </g>
                </g>
            </g>
        </g>
    </g>
</svg>