<?xml version="1.0" encoding="UTF-8"?>
<svg width="17px" height="24px" viewBox="0 0 17 24" version="1.1" xmlns="http://www.w3.org/2000/svg" xmlns:xlink="http://www.w3.org/1999/xlink">
    <!-- Generator: Sketch 63.1 (92452) - https://sketch.com -->
    <title>Shape</title>
    <desc>Created with Sketch.</desc>
    <g id="Home-Page_17/09/2020" stroke="none" stroke-width="1" fill="none" fill-rule="evenodd">
        <g id="Product-Detail-Page" transform="translate(-1285.000000, -226.000000)" fill="#464546" fill-rule="nonzero">
            <g id="Group-9" transform="translate(855.000000, 214.000000)">
                <g id="Group-6-Copy-2" transform="translate(415.000000, 0.000000)">
                    <g id="ic_Tee" transform="translate(12.000000, 12.000000)">
                        <g id="tee" transform="translate(3.750000, 0.000000)">
                            <path d="M16.212,12.6359104 C14.2644776,10.0866567 13.6488358,5.96973134 14.3650746,0.285134328 C14.3666866,0.0950447761 14.3185672,0 14.2207164,0 L11.9369552,0 C11.8363881,0 11.7566866,0.0825671642 11.7584776,0.183044776 C11.7587463,0.196656716 11.7588358,0.210268657 11.7588358,0.223880597 C11.7588358,2.02907463 10.1638209,7.24253731 8.19635821,7.24253731 C6.22889552,7.24253731 4.6338806,2.02907463 4.6338806,0.223880597 C4.6338806,0.210268657 4.63397015,0.196656716 4.63423881,0.183044776 C4.63602985,0.0825671642 4.55632836,0 4.45576119,0 L2.07438806,0 C1.97653731,0 1.92841791,0.0950447761 1.93002985,0.285134328 C2.62740299,5.99444776 2.01173134,10.1113731 0.0830149254,12.6359104 C0.0593731343,12.6668955 0.0465671642,12.7045075 0.0465671642,12.7434627 L0.0465671642,23.8208955 C0.0465671642,23.9198507 0.126716418,24 0.225671642,24 L16.0693433,24 C16.1682985,24 16.2484478,23.9198507 16.2484478,23.8208955 C16.2484478,11.9611343 16.2687761,12.7102388 16.212,12.6359104 Z" id="Shape"></path>
                        </g>
                    </g>
                </g>
            </g>
        </g>
    </g>
</svg>