<?xml version="1.0" encoding="UTF-8"?>
<svg width="23px" height="23px" viewBox="0 0 23 23" version="1.1" xmlns="http://www.w3.org/2000/svg" xmlns:xlink="http://www.w3.org/1999/xlink">
    <!-- Generator: Sketch 63.1 (92452) - https://sketch.com -->
    <title>Combined Shape</title>
    <desc>Created with Sketch.</desc>
    <g id="Home-Page_06/10/2020" stroke="none" stroke-width="1" fill="none" fill-rule="evenodd" stroke-linecap="round" stroke-linejoin="round">
        <g id="07_My_Dashboard" transform="translate(-1094.000000, -258.000000)" stroke="#FFFFFF" stroke-width="1.60269885">
            <g id="Group-7-Copy-3" transform="translate(1071.000000, 233.000000)">
                <g id="Group-4" transform="translate(16.000000, 16.000000)">
                    <path d="M27.392312,22.1112139 C27.972337,22.1112139 28.509276,22.4325426 28.7936208,22.9498473 C29.2282025,23.7407437 28.9539524,24.7464566 28.1822401,25.1919824 L28.1822401,25.1919824 L20.8418364,29.4284364 C20.4938778,29.6294403 20.0734513,29.6902385 19.684437,29.596036 L19.684437,29.596036 L14.4385523,28.3256315 C14.3488838,28.3039591 14.2510381,28.3256315 14.1780627,28.3831354 L14.1780627,28.3831354 L10.9301484,30.9459636 C10.8855397,30.9812173 10.8310055,31 10.7753434,31 C10.7640644,31 10.7528417,30.9992487 10.7416191,30.9976883 C10.6745651,30.9884414 10.6138839,30.9521474 10.5729973,30.8968974 L10.5729973,30.8968974 L8.05145362,27.483646 C7.9687782,27.3717011 7.98767061,27.2127127 8.0942012,27.1244629 L8.0942012,27.1244629 L12.7512069,23.2640675 C13.8733592,22.3549845 15.0432784,22.1645567 15.8275105,22.1645567 C16.3882483,22.1645567 16.7759655,22.2602041 16.9166717,22.3012949 C18.1831394,22.671632 20.1708459,23.3369444 20.1905842,23.3435328 L20.2024836,23.3472316 C20.8501265,23.5346541 21.8091312,24.1850695 21.7578679,24.8715341 C21.7578115,24.872112 21.7578115,24.8726321 21.7565144,24.8858667 C21.7475476,24.9676437 21.5133344,25.9466252 21.082644,26.2633306 C20.7417348,26.513863 19.6281276,26.6704426 18.9944707,26.5065418 C18.9900719,26.5053859 18.985673,26.5041145 18.981387,26.5027852 L18.981387,26.5027852 L16.3607274,25.7051259 L19.0617208,26.5645648 L19.0617208,26.5645648 L19.0759324,26.5686681 C19.8999232,26.7852183 20.5761584,26.7086426 21.0760458,26.3410217 C21.5276588,26.0088857 21.7199102,25.5319205 21.8015705,25.1903064 C21.8183198,25.1204925 21.8624209,25.0608502 21.9235533,25.0255965 L21.9235533,25.0255965 L26.6057113,22.3234295 C26.8462933,22.1846109 27.118344,22.1112139 27.392312,22.1112139 Z M24.5078203,10 C24.7796291,10 25,10.2340888 25,10.5228697 L25,10.5228697 L25,18.4771303 C25,18.7659112 24.7796291,19 24.5077711,19 L24.5077711,19 L17.4922289,19 C17.2203709,19 17,18.7659112 17,18.4771303 L17,18.4771303 L17,10.5228697 C17,10.2340888 17.2204201,10 17.4922289,10 L17.4922289,10 Z M22.035502,12.9259189 L19.9645964,12.9259189 C19.7474742,12.9259189 19.5708133,13.1135769 19.5708133,13.3442147 C19.5708133,13.5748526 19.7474742,13.7625105 19.9645964,13.7625105 L19.9645964,13.7625105 L22.035502,13.7625105 C22.2526242,13.7625105 22.4292852,13.5748526 22.4292852,13.3442147 C22.4292852,13.1135769 22.2526242,12.9259189 22.035502,12.9259189 L22.035502,12.9259189 Z" id="Combined-Shape"></path>
                </g>
            </g>
        </g>
    </g>
</svg>