<?xml version="1.0" encoding="UTF-8"?>
<svg width="971px" height="282px" viewBox="0 0 971 282" version="1.1" xmlns="http://www.w3.org/2000/svg" xmlns:xlink="http://www.w3.org/1999/xlink">
    <!-- Generator: Sketch 63.1 (92452) - https://sketch.com -->
    <title>Group 13</title>
    <desc>Created with Sketch.</desc>
    <defs>
        <path d="M0,70 C40.9818136,39.1822904 77.477267,23.019876 109.48636,21.512757 C157.5,19.2520785 320,53.5908098 414.881602,50.4656776 C509.763203,47.3405454 675.929833,-2.77511091 758.964917,0.120766276 C814.321639,2.05135107 886.333333,25.344429 975,70 L0,70 Z" id="path-1"></path>
    </defs>
    <g id="My-Account" stroke="none" stroke-width="1" fill="none" fill-rule="evenodd">
        <g id="My-Account_Tokens" transform="translate(-404.000000, -283.000000)">
            <g id="Group-6-+-Oval-+-Rectangle-Mask" transform="translate(400.000000, 224.000000)">
                <g id="Group-13" transform="translate(0.000000, 59.000000)">
                    <g id="Group-6" transform="translate(0.000000, 42.000000)">
                        <g id="Group-3" transform="translate(0.000000, 170.000000)">
                            <g id="Path-3-+-Path-3-Mask">
                                <mask id="mask-2" fill="white">
                                    <use xlink:href="#path-1"></use>
                                </mask>
                                <use id="Mask" fill="#8BD59B" xlink:href="#path-1"></use>
                                <path d="M414.792559,50.5420433 C509.653797,47.4121821 675.784763,-2.77931026 758.802025,0.120949022 C841.819287,3.02120831 613.042308,62.5522131 414.792559,50.5420433 Z" id="Path-3" fill="#4FC067" mask="url(#mask-2)"></path>
                                <path d="M2.20268248e-13,70.1059254 C40.9730179,39.2415818 77.4606386,23.0547102 109.462862,21.5453106 C77.8290705,33.6208304 41.3414498,49.807702 2.20268248e-13,70.1059254 Z" id="Path-3" fill="#4FC067" mask="url(#mask-2)"></path>
                            </g>
                        </g>
                        <g id="peep-6" transform="translate(808.500000, 110.000000) scale(-1, 1) translate(-808.500000, -110.000000) translate(767.000000, 0.000000)">
                            <g id="BODY" transform="translate(0.335517, 32.414359)">
                                <path d="M79.8467033,181.075224 C80.3043914,179.242061 79.6310023,177.779855 77.6975979,176.700192 C77.5312252,176.264019 73.7944789,174.849662 70.8252392,172.773533 C68.1577019,170.908359 66.2227946,168.347794 66.1416744,168.205841 C65.7418026,167.284075 65.5190757,166.615162 65.4734936,166.199105 C65.1455756,163.205977 65.3352476,161.243915 65.1327439,160.312918 C66.4970897,160.135436 69.8512453,72.3315495 69.3087973,69.4214696 C70.1972596,69.2279542 71.1394739,69.0238983 71.9864661,68.5274537 C72.0540162,68.5102325 71.9429489,68.3156779 71.9461331,68.2790829 C74.0710432,64.145187 70.8113517,50.0884118 68.7683205,46.1966514 C70.3907365,46.1547861 72.527701,45.9361071 73.5321585,44.5935985 C74.0076628,44.4386081 74.3074307,44.1684139 74.5382081,43.7343218 C74.8039355,43.3207912 75.0505579,42.8869218 75.2726166,42.4422149 C76.3535703,40.2168991 77.0204288,37.7459589 76.659934,35.2941699 C76.7286971,35.2725692 77.0825203,35.2703424 77.1001091,35.1722114 C77.1348318,34.5694707 77.0231581,34.0383611 76.8404467,33.4690977 C74.984145,27.0568863 72.7496081,20.743845 69.7959012,14.7070847 C68.3157877,11.476038 65.2535154,10.2969821 62.0805548,9.08400347 C60.5541191,8.48965062 59.0270011,7.80369899 57.433925,7.4144413 C57.4138344,7.30398832 57.5089807,6.96795293 57.3001894,6.99534349 C57.0423466,7.04864002 57.0932177,7.4594984 56.9976164,7.69005416 C53.3138981,4.7017368 55.6499497,3.16185297 53.428756,1.52524854 C51.1303839,0.343000778 48.3273949,0.294974514 45.7933175,0.550842414 C44.8584571,0.57763914 44.110402,0.99525237 43.8899354,1.92779325 C43.0863088,3.85730593 41.2033206,5.27745814 39.149069,5.71281213 C38.9793218,5.41337172 38.5126119,4.55461462 38.2512058,4.82569949 C35.284383,4.92605731 30.7861209,6.00534924 28.0092118,6.81281399 C25.2215372,7.51836212 22.4014142,8.80638643 21.6720852,11.808065 C20.3487547,17.1568695 22.4541048,39.1389433 25.9074249,43.3723062 L26.0197052,43.374162 C26.6319019,43.9950146 27.4640346,44.4501136 28.407007,44.7551212 C28.3858549,46.7342189 27.7563727,48.6664781 27.4431099,50.6020033 C26.7378138,54.1122259 26.1957449,57.6262341 25.4100862,61.1551624 C25.4065988,61.5483542 23.9117774,66.9286319 25.3855225,65.8497854 C25.6896876,65.9980952 26.0623126,66.1595436 26.3899042,66.2980552 C24.8241969,69.8341837 24.1077562,75.5395851 24.2187476,79.9079709 C24.2464955,82.5093317 24.1379301,84.788241 23.549084,87.4522512 C19.1925938,110.024076 15.3515617,160.510294 15.2612675,161.185185 C15.1782513,161.830236 15.7295189,165.331782 15.2612675,166.255549 C14.8457037,167.075374 13.0732023,166.591258 12.7341267,166.907575 C11.8535491,168.328766 12.2567091,169.234298 11.5344307,170.653188 C11.1640043,170.981652 10.3358119,171.700116 10.0640951,172.205171 C9.51406576,172.730046 0.404637128,178.653821 0.773850494,179.552661 C0.773850494,179.552661 0.732304514,179.983941 0.718354768,180.077619 C-0.0582821358,184.555641 1.23495023,184.518452 5.41911566,185.177236 C11.5313785,186.24569 16.0994652,184.190011 21.2651165,181.443533 C22.9816933,180.296321 25.4215341,178.106092 24.6273842,175.512006 C24.605474,175.353452 24.1344168,172.624937 23.9476115,171.23945 C24.2851193,170.499776 23.8007623,170.176061 22.4945405,170.268303 C22.8167493,169.917867 23.5245962,165.377351 23.2831291,164.776689 C23.1297577,163.22953 23.367889,161.825189 23.29253,160.232825 C24.1132906,160.293173 38.5229984,92.5944017 47.5613719,88.3874643 C47.6172467,88.8371445 47.5088329,89.6741525 48.111098,89.7580314 C50.9067331,111.371632 57.6283875,159.790939 57.9370256,159.875708 C57.4738031,162.343902 57.4878287,168.065662 57.4791859,170.515892 C57.4082999,170.581362 57.082907,170.869223 57.0305196,170.939369 C57.0196024,170.921109 56.8077028,171.13088 56.7968614,171.136299 L56.7682038,171.071274 C55.8161336,173.19883 54.4285118,175.38997 55.6549522,177.474993 C54.7447313,177.4093 54.8908258,179.145097 54.8501138,179.943803 C55.3685634,181.506894 70.1068895,185.72431 73.400394,185.92458 C74.4824849,186.111712 79.5220756,184.523246 80.4918861,184.294992 C81.7485004,184.062135 80.5157604,181.747592 79.8467033,181.075224 Z" id="âœ‹-Skin" fill="#EDB98A"></path>
                                <path d="M57.1262229,170.85035 C56.8467001,171.886172 57.3545391,172.404083 58.6497401,172.404083 C60.5925416,172.404083 61.8241156,169.445498 62.7849263,169.106592 L63.1584844,168.972319 C63.7201371,168.768104 64.6729133,168.414788 66.016813,167.912372 C66.0563168,168.007218 66.0979359,168.105017 66.1416744,168.205841 C66.2227946,168.347794 68.1577019,170.908359 70.8252392,172.773533 C73.7944789,174.849662 77.5312252,176.264019 77.6975979,176.700192 C79.6310023,177.779855 80.3043914,179.242061 79.8467033,181.075224 C80.5157604,181.747592 81.7485004,184.062135 80.4918861,184.294992 C79.5220756,184.523246 74.4824849,186.111712 73.400394,185.92458 C70.1068895,185.72431 55.3685634,181.506894 54.8501138,179.943803 L54.8533071,179.869463 C54.8830108,179.04257 54.7720379,177.411271 55.6549522,177.474993 C54.4530406,175.431671 55.7616744,173.286434 56.7105813,171.199003 L56.7682038,171.071274 L56.7968614,171.136299 C56.8077028,171.13088 57.0196024,170.921109 57.0305196,170.939369 C57.0438962,170.921458 57.0750723,170.889352 57.1152661,170.850378 L57.1262229,170.85035 Z M18.0816742,168.936802 L18.0949014,168.98131 C18.3189201,169.747487 18.9318363,172.404083 19.6549857,172.404083 C20.146924,172.404083 20.7538581,172.10203 21.475788,171.497924 L21.5591641,171.421736 C22.1930689,170.845793 22.7047917,170.457729 23.0943325,170.257544 C23.9427844,170.299399 24.227207,170.626696 23.9476115,171.23945 L23.9713456,171.411905 C24.1713828,172.839106 24.6063504,175.359795 24.6273842,175.512006 C25.4215341,178.106092 22.9816933,180.296321 21.2651165,181.443533 C16.0994652,184.190011 11.5313785,186.24569 5.41911566,185.177236 L5.05032412,185.119684 C1.15921917,184.51662 -0.0349830287,184.4213 0.718354768,180.077619 L0.723596633,180.037711 C0.740590693,179.897924 0.773850494,179.552661 0.773850494,179.552661 C0.404637128,178.653821 9.51406576,172.730046 10.0640951,172.205171 C10.3358119,171.700116 11.1640043,170.981652 11.5344307,170.653188 C12.2567091,169.234298 11.8535491,168.328766 12.7341267,166.907575 C12.9722878,166.685399 13.9176187,166.858111 14.603215,166.696512 C15.7594551,166.884091 17.8760314,168.257561 18.0816742,168.936802 Z" id="ðŸ‘Ÿ-Shoes" fill="#FF654F"></path>
                                <path d="M39.0619442,5.55923331 L39.149069,5.71281213 C41.2406096,11.7600481 44.6686685,15.0144624 49.4332457,15.4760549 C54.197823,15.9376475 56.6558621,14.4233714 56.807363,10.9332269 L57.3369557,6.99442578 C57.4971705,7.01042067 57.415132,7.31112244 57.433925,7.4144413 C59.0270011,7.80369899 60.5541191,8.48965062 62.0805548,9.08400347 L62.5554848,9.26595659 C65.5557872,10.4200177 68.3897934,11.6375904 69.7959012,14.7070847 C72.7496081,20.743845 74.984145,27.0568863 76.8404467,33.4690977 C77.0231581,34.0383611 77.1348318,34.5694707 77.1001091,35.1722114 C77.0825203,35.2703424 76.7286971,35.2725692 76.659934,35.2941699 C77.0204288,37.7459589 76.3535703,40.2168991 75.2726166,42.4422149 C75.0505579,42.8869218 74.8039355,43.3207912 74.5382081,43.7343218 C74.3074307,44.1684139 74.0076628,44.4386081 73.5321585,44.5935985 C72.527701,45.9361071 70.3907365,46.1547861 68.7683205,46.1966514 C70.8113517,50.0884118 74.0710432,64.145187 71.9461331,68.2790829 C71.9429489,68.3156779 71.9890686,69.3718257 71.9215185,69.3890469 C71.0745263,69.8854915 69.549986,70.1721461 68.6615236,70.3656615 L67.0694332,70.5910341 C67.126735,70.9789602 69.3810026,71.2709874 69.3506731,73.5036214 L25.3718251,74.7979894 C25.6858835,71.6935956 25.664049,69.6115264 26.6606602,67.3606935 L25.4476389,66.9099483 C25.1578028,66.7862379 25.6462355,65.9769081 25.3855225,65.8497854 C23.9117774,66.9286319 25.4065988,61.5483542 25.4100862,61.1551624 C26.1957449,57.6262341 26.7378138,54.1122259 27.4431099,50.6020033 C27.7563727,48.6664781 28.3858549,46.7342189 28.407007,44.7551212 C27.4836798,44.4564679 26.6666222,44.0139119 26.0582529,43.4127496 L26.0197052,43.374162 L25.9074249,43.3723062 C22.4541048,39.1389433 20.3487547,17.1568695 21.6720852,11.808065 C22.4014142,8.80638643 25.2215372,7.51836212 28.0092118,6.81281399 L28.177866,6.76404992 C30.9654388,5.96256913 35.3437195,4.92405016 38.2512058,4.82569949 C38.4761055,4.5924727 38.8529701,5.1955496 39.0619442,5.55923331 Z M42.7846408,29.2119756 C40.5192718,29.2119756 38.1117016,29.4769325 35.5619299,30.0068461 L35.1613745,30.5657074 L35.5619299,33.9318742 C37.1304991,33.7694768 38.7827329,33.9872009 40.5186311,34.5850464 L40.6013561,34.6138026 C42.3675065,35.2333967 43.6298814,35.7090157 44.3884811,36.0406597 L47.1382756,38.334744 L46.2564268,42.4311256 L46.4691708,42.4409279 C49.9132056,42.5944023 51.848815,42.4230274 52.2759991,41.9268032 C52.7119013,41.420452 52.9052748,40.9080799 52.8561197,40.3896869 L52.7715505,40.1896029 C51.4059449,36.9452061 50.8092142,34.8592965 50.9813583,33.9318742 C51.1570155,32.9855249 51.1570155,32.2438424 50.9813583,31.7068268 L50.789972,31.6080307 C47.673146,30.0106606 45.0047023,29.2119756 42.7846408,29.2119756 Z" id="ðŸ‘•-Top" fill="#0566FF"></path>
                                <path d="M44.5031859,1.40223533 C44.9802045,1.38780396 45.0712936,1.98262819 44.7452127,2.22925766 L44.7317646,2.23906303 C44.4537553,2.43446108 44.3233555,2.60919997 44.172486,2.92096541 C43.4368644,4.85023003 41.3624463,5.9567344 39.3335923,5.54700701 C40.0382819,6.84966067 40.5115118,8.11039502 41.2169595,9.39103729 C44.4651274,16.0215745 55.1324369,18.1786157 56.4082321,9.08107483 C54.4535999,8.70680606 53.2952403,4.35110484 54.5494285,3.05160639 L54.583332,3.20976792 C54.94483,4.91581197 55.1921335,6.66242035 56.4972375,7.94880286 C56.536964,7.96029687 56.5749467,7.9638277 56.6123987,7.9638277 C56.6621326,7.73026656 56.7194479,7.49925964 56.7907887,7.27268505 C56.9644782,6.71984605 57.8338354,6.82381794 57.8094234,7.42188171 C60.4123397,8.20783111 62.9137413,9.32109666 65.4033917,10.3965747 C67.473261,11.291304 69.1656532,12.89175 70.1298535,14.9184507 C72.8331474,20.4622412 74.8972548,26.3142662 76.6969235,32.2012992 C76.8174675,32.9968645 78.1630873,35.9536028 77.0774332,36.2378728 C77.3437672,38.6735497 76.6626557,41.1372479 75.6103597,43.324489 C75.1221186,44.1462727 74.7774689,45.2856063 73.7965896,45.6283229 C72.7781823,46.8958936 70.9159672,47.2247873 69.3655743,47.3143354 C71.4507579,52.1786274 74.2839967,64.5690123 72.3680295,69.4025786 C72.5380799,70.1955145 70.3303053,70.5721121 69.7395639,70.7533117 C70.2156748,73.572723 70.1118098,76.4770247 69.906506,79.3167195 C67.9837914,103.537664 67.6188994,127.891653 69.6417641,152.118832 C69.7607918,153.628829 69.888993,155.138825 70.0246239,156.64807 L70.1067455,157.553017 C70.2143526,158.758009 70.3058023,159.958193 70.2778421,161.172801 C70.2688203,161.594248 69.9162101,161.847416 69.5636758,161.869202 C68.3796912,162.617815 66.7894202,162.62405 65.4196917,162.804499 C65.6616137,164.113087 65.7971688,166.154587 66.220589,167.255608 C67.1020007,167.02738 67.6700737,167.841652 66.7916188,168.301487 C67.8729515,168.896095 68.4292734,170.034302 69.2949158,170.833248 C71.672665,169.876315 72.1154178,171.306154 70.1723851,171.632269 C70.7006559,172.069266 71.2614508,172.472908 71.8411992,172.856267 L71.8823959,172.850548 C72.5678781,172.747526 73.8601488,172.185716 74.1846806,172.929664 C74.3303189,173.468154 73.6594423,173.639287 73.1734757,173.70472 C73.6047047,173.97419 74.0373743,174.242158 74.4701196,174.509751 C74.8488097,174.344553 75.2243915,174.138262 75.6105113,174.005968 C76.5610652,173.796296 76.6430957,175.018642 75.4026298,175.087606 C76.1797216,175.656447 77.2523357,175.328755 77.7489921,176.131532 C79.5664013,176.858659 80.4254478,179.054765 80.0012695,180.809742 C80.6393187,181.372121 81.0873784,182.215015 81.1391593,183.061965 C81.2621293,183.96939 80.5334067,184.823027 79.546159,185.061922 C78.4341975,185.428678 77.3060877,185.763507 76.1810862,186.078202 L76.0631873,186.118335 C75.1359389,186.431502 74.1234787,186.712026 73.1591468,186.657334 C67.4405094,186.319275 59.8146992,183.991552 55.2375149,181.095138 C54.0959102,180.244732 53.8962924,178.141856 55.4674582,177.469344 C54.7434361,176.168643 55.0893747,175.223506 55.3962691,173.806889 C55.6093817,172.882936 55.8987631,171.934869 56.4225609,171.080031 C56.4690348,171.004155 56.5807844,171.026993 56.5870011,171.101666 C56.6555747,172.068322 56.5645471,173.05726 56.4918834,174.030559 L56.4838943,174.138637 C56.418846,175.036447 56.2720705,175.366768 56.5177831,176.216573 C57.1060226,178.385033 62.7768973,179.467948 65.0053691,180.362227 C66.7547733,180.899139 68.530864,181.380084 70.3318974,181.802884 L70.4639915,181.83126 C71.9843829,182.162777 73.5498326,182.664445 75.1511553,182.403952 C75.98162,181.805287 77.2279994,181.973791 78.0439837,181.288884 C79.2748213,179.971806 78.3070577,178.041189 77.4446754,176.844311 C76.6107084,177.107972 75.8978402,176.398535 75.2838562,176.023346 L75.2611612,176.009606 C74.6342566,175.616631 74.0089441,175.891886 73.3810539,175.499888 L73.2392194,175.526473 C70.9325296,175.962197 69.1465739,176.45906 72.825566,175.155293 C72.219586,174.779973 71.6120898,174.401497 71.0234712,174.003414 C69.8152261,174.147802 68.4914408,174.776517 67.3684863,174.833611 C68.1241986,174.135858 69.1551909,173.749494 70.1266693,173.36576 C69.5610982,172.940181 69.0228958,172.484778 68.5414779,171.9837 L68.0816022,172.097385 C65.2563472,172.792665 64.145754,172.993534 67.9492961,171.298116 C67.201241,170.475055 67.0797114,169.25624 66.2572829,168.48201 C64.9346348,168.756589 63.7193391,169.333017 62.6421003,170.077423 C62.206474,170.386484 61.8783518,170.772622 61.533323,171.159287 C59.8983977,173.243532 57.3656092,173.565139 56.5918532,170.861645 C56.5784847,170.806209 56.6662155,170.771748 56.6908985,170.818628 L56.693747,170.825209 C57.0638466,171.655509 58.2579159,172.328758 59.2552809,171.812718 L59.2854429,171.796715 C60.2607878,171.293008 60.7138513,170.265309 61.4821487,169.565226 C62.5189787,168.637593 63.8185794,168.015714 65.1594986,167.548893 C64.8344089,166.371771 64.7247063,164.229004 64.7616276,162.848071 C62.5038917,162.953771 60.2313721,162.845892 58.0134384,162.420614 C58.3687778,164.987833 58.1351954,168.328682 58.2984984,170.618092 C58.5345827,171.386237 57.0983654,171.866356 56.9456764,171.10114 C56.8612956,168.624145 57.1057952,165.051163 57.4865322,162.286893 L57.3272296,162.248517 C57.1768348,162.211442 57.018862,162.166744 56.8898774,162.094575 C55.4665485,162.254289 55.8547911,158.670339 55.6158259,157.662322 C54.0100131,135.434423 50.6274273,113.405979 47.7527942,91.3245719 C47.3541651,91.173422 47.2834308,90.6884953 47.2175486,90.2833505 C43.5951636,92.7130925 42.8732643,97.5687453 41.2517581,101.332618 C34.1702154,120.821263 31.0062009,141.382081 26.098165,161.450761 L26.1251535,161.457815 C26.1444277,161.463501 26.1445982,161.466334 26.1043156,161.46348 L26.0950566,161.46278 L26.0950566,161.464283 C26.3983119,161.504099 26.6372013,161.81962 26.4521397,162.113431 C25.8996085,163.218433 24.3679417,162.827336 23.3596935,162.75717 C23.4575692,164.459034 23.0897963,168.131105 23.322848,169.647412 C24.5665739,169.670175 24.6456477,171.026692 24.8103154,171.833076 L24.823108,171.915888 C25.0428933,173.293458 25.7815255,175.876528 25.2297175,176.990277 C26.0826989,177.99604 25.4691376,179.362474 24.5842385,180.049184 C23.6366414,180.742956 22.4571298,181.149603 21.3859562,181.684187 C16.3444121,183.702474 11.4669292,187.593908 5.28885992,186.096382 L5.01989363,186.040201 C0.689892618,185.133474 -0.554151608,184.730651 0.305768308,180.484003 C-0.0473725253,179.620976 -0.0497227541,178.675839 0.447161107,177.912577 C1.33327319,176.785714 2.82210524,176.169244 4.00677219,175.313129 C6.0133369,173.977195 8.14893676,172.808789 10.1088002,171.418089 C10.0359431,171.355511 10.1370787,171.332448 10.1965168,171.34304 C11.5796643,170.269966 11.4502501,168.412295 12.4152086,167.086879 C12.656524,166.403849 13.8750797,166.237374 14.6775692,166.332031 C14.4268528,165.059051 15.6516253,159.264346 15.8071953,163.357413 L15.8071409,163.416157 C15.8101695,164.04808 15.9145872,166.157543 15.7268326,166.570625 C18.3904758,167.377234 18.9648414,169.912901 19.5348856,171.960486 L19.5715794,171.970281 C19.7535326,172.016777 19.9972571,172.054425 20.0882508,172.231384 C20.9447955,171.691992 21.1841398,170.630037 22.0136947,170.058642 C21.7810221,169.878344 21.7687402,169.5342 21.8874647,169.267359 C22.273812,167.863738 22.5054232,164.291132 23.0890381,162.723365 C20.3469276,162.316267 17.5534153,162.109149 14.8753675,161.370378 C14.527382,161.709188 13.8132157,161.588989 13.8412668,160.977478 C14.6706701,147.653375 16.0971832,134.370514 17.8954115,121.142194 C19.3739329,108.759923 21.9749538,96.5352617 23.786677,84.2178224 L23.8020283,82.5272634 C23.8509285,77.445284 23.9879324,72.2872352 25.900215,67.5026875 C25.7319083,67.429817 25.5651179,67.3546928 25.4006019,67.2758124 C23.3270177,68.1274955 24.96073,62.9521141 25.0369987,62.0194471 C26.0560125,56.6117066 27.2563729,51.2050178 28.0217135,45.7635465 C27.2194515,45.475971 26.4786746,45.0680466 25.860716,44.4752415 C22.114148,41.4531451 19.9422334,16.9782812 21.3039256,12.0571201 C22.0146803,8.96155223 25.0266881,7.44081301 27.8973788,6.74110619 L28.3213949,6.62237547 C31.5275129,5.72865797 34.7892716,4.91882795 38.1273184,4.71981442 C38.2461945,4.6129878 38.5957721,4.6437136 38.6415636,4.73281091 C38.8506582,4.85759221 39.0491388,5.10121999 39.2169906,5.35859551 C43.8502772,4.83092311 42.5970745,1.82978637 44.5031859,1.40223533 Z M55.587699,177.665042 C54.9390358,179.124931 55.8009633,180.235267 57.2460508,180.849032 C62.2502944,183.148208 67.8370916,184.995887 73.5724839,185.348746 C75.3224946,184.929327 77.0558262,184.236232 78.8291876,183.807423 L78.9056833,183.793759 C79.5299165,183.680166 79.8231623,183.566337 79.7695824,182.923737 L79.7923441,182.663941 C79.8323499,182.202275 79.8661532,181.741531 79.8337209,181.280094 C79.2881645,182.572831 77.6552104,183.283431 76.2236936,183.544488 C73.9539033,184.611928 71.4119413,183.526458 69.1819532,183.069252 C65.5598715,181.977923 57.7235263,180.263138 55.587699,177.665042 Z M24.1490671,177.695543 L24.0741548,177.718299 C23.4245239,177.917473 22.7639961,178.161466 22.0359082,177.981841 C18.7834947,179.074372 15.6177365,180.313621 12.4757838,181.603804 C9.08569248,183.212138 3.62694489,185.08198 0.689158861,181.195129 C1.11151772,183.233849 0.514407977,183.931077 3.31929235,184.439668 C7.7698676,185.87777 11.3459303,185.141403 15.0389737,183.176379 C17.7446936,181.872749 20.6548834,180.836411 23.2738722,179.419643 L23.3092196,179.394987 C23.8243831,179.030513 24.4459524,178.36572 24.1490671,177.695543 Z M17.393903,168.919008 C16.5447122,167.366566 14.2595317,166.514057 12.560013,167.086353 C12.3870817,168.583578 12.8350656,170.259749 11.8757173,171.559774 C12.7252113,171.707352 13.5720155,171.877359 14.4175417,172.053378 L15.1912823,172.215443 C15.5710289,172.297871 16.0542473,172.43899 15.9908164,172.838087 C15.9206409,173.27928 15.3363518,173.144484 14.9475098,173.033493 L14.7968243,172.989688 C13.7048019,172.671161 12.614599,172.346249 11.5364504,171.982197 C10.96815,172.601972 10.2052354,173.0881 9.46536816,173.557552 L9.77224066,173.592128 C10.8473851,173.711745 11.9329139,173.820385 12.9951844,174.036243 C13.4593167,174.172518 13.3591666,174.799505 12.8842688,174.749322 C11.616055,174.42148 10.351177,174.050817 9.06120461,173.815603 C8.43066097,174.228711 7.80307406,174.643923 7.17101413,175.055077 C8.41413355,175.233347 9.66271157,175.249424 10.9052245,175.354523 C11.7096851,175.428069 11.7094576,176.51752 10.9051487,176.454641 C9.45369283,176.322798 8.00314676,175.89722 6.62121222,175.41372 L5.89289171,175.888232 C5.04282531,176.441698 4.19087345,176.993724 3.33043699,177.534026 C2.81270432,177.860891 2.14402631,178.17183 1.7822427,178.645113 C0.639728242,180.473636 3.49457393,182.221025 5.42373273,182.192102 C8.35370993,182.222978 10.7940056,180.715461 13.3606071,179.813069 C14.7803727,179.464793 21.9986836,175.883848 22.6555346,176.826356 C23.0684926,176.629756 23.6428582,176.558839 23.9402,176.234978 C24.0003962,174.737678 23.6820539,173.169009 23.414886,171.658863 C23.3604516,171.395252 23.2303551,171.079129 23.2157988,170.808532 C22.0133915,171.247933 21.6710162,172.910958 20.0883266,172.769424 C19.8406428,173.161572 19.077804,172.97887 18.7336092,172.66748 C18.3590131,172.328745 18.3120085,171.851631 18.222624,171.426654 L18.1812005,171.231406 C18.0131468,170.448597 17.8116955,169.64658 17.393903,168.919008 Z M53.0235235,41.9268032 L52.8301059,41.9752588 C50.8606709,42.4635875 48.8004427,42.8168569 46.7764637,42.6857079 C46.4265829,43.9974516 46.6089909,47.1175851 45.1858895,47.6161844 C44.6996954,47.7976845 43.9680919,47.6503659 43.7451992,47.1584527 C40.8015755,47.106617 37.8373305,46.845936 34.8935552,46.6724742 C32.6775926,46.4997637 30.3784623,46.5063746 28.2452885,45.8400229 C28.5037379,47.1296801 28.5927433,48.3958234 28.4480905,49.714779 C27.9504627,55.3401849 26.3123929,60.8210201 25.7633615,66.4222739 L25.7380493,66.6890924 L25.7221283,66.6800775 C25.7221283,66.6905949 25.7213702,66.7011123 25.7205363,66.7116297 C25.8805034,66.7574554 26.0404706,66.8055349 26.1996797,66.8543656 C26.2565401,66.8258185 26.333946,66.8536144 26.3748096,66.9077038 C38.0983575,70.5211028 50.5422126,72.0904474 62.7609006,70.5001432 C64.900746,70.2354806 67.0251254,69.8646675 69.1345695,69.4251158 C69.1161468,69.2381317 69.4040119,69.1891507 69.4545039,69.3657677 C69.9226543,69.284859 70.3907289,69.1962875 70.8563775,69.1366389 C70.8001994,68.9796293 70.7903436,68.8098486 70.848038,68.6565953 C71.7560602,65.9566314 71.3412069,62.8783421 71.0547823,60.0782378 C70.6895112,55.7791802 69.7790629,51.5622334 69.0435929,47.3211717 C65.5619185,47.1643875 62.1010928,46.6012565 58.6025877,46.6717981 C58.2340566,47.618363 56.9493154,48.4134024 55.9434933,47.8722077 C55.2332693,47.4920792 55.0229617,46.6634593 54.7379017,45.9787022 C54.1743775,44.6248889 53.5989505,43.2758085 53.0235235,41.9268032 Z M38.2711372,4.84812656 C34.6150151,5.91842106 30.8692053,6.68273469 27.2463655,7.87059857 C24.2354949,8.61402767 22.1801061,10.4859725 22.0531937,13.6784506 C21.8047518,20.5172321 22.5613738,27.3905707 23.7034334,34.1299628 L23.7630503,34.4342893 C24.3966871,37.6823003 24.9646907,40.9871338 26.1613179,44.082943 C27.9082202,44.8877485 29.8916617,45.1169525 31.8028526,45.2101065 C34.5918161,45.350739 37.3806279,45.4952028 40.1671654,45.6760268 L42.3519684,45.8164339 C42.9858479,45.8571512 43.8672595,45.7495734 44.3435978,46.2380309 C44.3858166,46.3069104 44.4716802,46.2982741 44.5369708,46.3409986 L44.5497356,46.3502665 C44.6192569,46.3970689 44.6893089,46.5107318 44.7895348,46.4887204 C44.9525207,46.4386012 45.0150609,46.1165878 45.0533349,45.9627902 L45.0568543,45.9488779 C45.2690573,45.1261927 45.4228077,44.2857783 45.6187865,43.4586608 C46.0654816,41.831095 46.2578971,40.1106757 46.93681,38.5528251 C45.9649524,37.938234 45.0495762,37.2355973 44.2645998,36.4018689 L43.3180968,36.0715792 C41.0537372,35.2842509 38.7638699,34.5214734 36.4037667,34.0495799 C36.3472096,34.5629036 35.6037791,34.8564139 35.326528,34.3192007 C34.8669445,32.950588 34.7817298,31.4646313 34.4648279,30.0540241 C33.7454305,25.8454912 32.8907053,21.6522836 32.3931391,17.4102453 C33.7649146,21.1673569 34.4756693,25.7787809 35.5240988,29.8393192 C35.5726955,29.8112978 35.6399423,29.8275998 35.6419893,29.8940847 C39.354062,28.5030099 43.475302,28.5596535 47.1386264,30.0358441 C48.056277,30.4005721 48.9882565,30.7280385 49.901055,31.1041853 C50.2128015,31.2786237 50.8337926,31.2679561 50.9384915,31.6493617 C51.0506202,31.3904837 51.2013381,31.1480579 51.4014866,30.9845125 C51.4639572,30.8569516 52.1734988,30.6292501 52.2427927,30.8816675 C56.4045172,31.4476532 60.4510047,33.2417694 64.7331975,32.9388686 C64.2264578,31.1056878 64.2864265,29.1260149 64.2524619,27.2328099 L64.2627733,27.0196472 C64.3509063,25.1545912 64.4146783,22.8463244 65.052677,21.3115203 C64.6444195,25.1753082 64.9408515,29.0455568 65.4391001,32.8734354 C68.4594473,32.487297 67.0687184,34.1986263 65.0569983,34.1343952 C60.9972434,34.4242243 57.2505996,32.6450579 53.5143423,31.3484893 C51.4735855,30.5400777 51.2422775,31.2247597 51.3332541,33.1461363 C51.3351495,35.6477722 52.4784221,37.9309469 53.514039,40.1504915 L53.9792962,41.187147 C54.7526096,42.9121239 55.5152968,44.6260409 56.2666119,46.3716769 C59.5491234,45.2931187 63.2448203,45.8848721 66.645374,46.081397 C69.2401024,46.4043559 71.1033031,46.2897164 73.2984169,44.8024074 C74.0902165,43.3033791 75.1334907,41.8817287 75.5414449,40.1909083 C76.0145991,38.6412463 76.1721402,37.0180376 76.3101214,35.4121076 L76.1857941,34.9627812 C74.5859371,29.1971093 72.8154933,23.4596417 70.3961875,17.9679674 L70.2652911,17.6653872 C69.4450871,15.7635101 68.6119664,13.7677558 66.9525716,12.4355958 C64.1677021,10.3980021 60.7234797,9.49425794 57.7960043,7.68121046 L57.7773283,7.81385319 C57.4802335,9.89362821 56.9670559,12.0496014 55.6237106,13.7229241 C53.1415657,16.7430673 48.4550578,16.8280328 45.2786856,14.8665399 C41.9742639,13.0561217 39.991808,9.68537391 39.0273044,6.16197372 L39.0159904,6.12324869 C38.9256935,5.80923577 38.674335,4.8584741 38.2711372,4.84812656 Z M47.2449174,38.7434152 C47.2428704,39.8509713 47.022328,40.9426762 46.8731263,42.0359587 C48.590992,41.7000033 50.3037781,41.4656909 51.9933652,41.0115651 C50.3475227,40.3953964 48.748154,39.6530941 47.2449174,38.7434152 Z M43.1084388,29.8106968 C40.603474,29.3247935 38.0388436,29.615449 35.5619299,30.0068461 C35.831069,31.2466208 36.1384941,32.4752772 36.395503,33.7167046 C37.2825248,33.676438 45.6968747,35.1530042 44.7472306,36.3383139 C45.9892887,36.996477 47.1659194,37.7701812 48.4022913,38.4426179 C49.6457898,39.1188859 50.9403868,39.7001219 52.2759991,40.1722775 L52.2055455,40.0168879 C51.0560822,37.472294 49.9821318,34.6087684 50.867833,31.8277817 C49.6768735,32.3014398 48.0511217,31.2839576 46.8972351,30.9033032 C45.6723868,30.4161979 44.4108447,30.0319376 43.1084388,29.8106968 Z M25.0746176,19.9574817 C25.0829571,19.4932141 26.5299399,20.8243398 26.7187922,20.9625683 L26.8329477,21.0649198 C28.2215233,22.3135675 29.5932413,23.687237 30.366878,25.4006057 C30.4234351,27.0845147 27.890874,23.0052705 27.5397802,22.7560835 C26.7736814,21.7790182 25.8404131,20.9304903 25.0746176,19.9574817 Z M65.1155266,23.9210496 C64.724024,24.0487607 65.7925441,22.7330354 66.209217,22.8290442 C66.3750218,22.8050795 66.5192955,23.0432233 66.3352196,23.1251086 L66.2438114,23.1650114 C65.8162446,23.3488195 65.379106,23.505753 65.1155266,23.9210496 Z" id="ðŸ–-Ink" fill="#000000"></path>
                            </g>
                            <g id="Head" transform="translate(27.776091, 0.209770)">
                                <g id="HEAD">
                                    <path d="M36.4217526,20.3236814 C36.3916424,18.6407491 36.3583546,16.9241611 36.1064272,15.2576058 C35.8600981,13.6283121 35.1824663,12.1555772 34.0180016,10.9724462 C31.544649,8.45931625 27.9594113,7.8454764 24.622167,7.28294638 L18.9164264,6.32113122 C17.1757061,6.02777121 15.3186301,5.55884594 13.5599042,5.97488377 C12.6932889,6.17989772 11.9573278,6.65618516 11.2846891,7.2196918 C10.6363353,7.76283978 9.93926038,8.34610408 9.49993825,9.07683719 C9.05985958,9.80862204 8.90847615,10.6640613 8.76541465,11.4917047 C8.60404491,12.4248224 8.47868641,13.3652271 8.38964179,14.3078856 C8.21117426,16.196508 8.18681371,18.099329 8.31625751,19.9918578 C8.37897459,20.9098005 8.47876207,21.8251137 8.60616321,22.7363703 C8.66933421,23.1882424 8.74075148,23.6389876 8.82139853,24.0881552 C8.84515385,24.2205992 8.86323513,24.3672416 8.88759568,24.5153865 C8.70761508,25.0236769 8.60533102,25.5500722 8.6135773,26.0742137 C8.63786219,27.6181663 9.95023019,28.5901984 11.2732654,29.1120862 C12.0403958,29.4146865 12.8424027,29.6203014 13.5961424,29.9583603 C14.3890708,30.3139232 14.9287856,30.8903512 15.4709214,31.5479133 C16.5048831,32.8020367 17.671693,33.9292003 19.0040336,34.869605 C21.8287985,36.8634765 25.4066221,37.8065106 28.8340459,37.0907272 C29.6564037,36.9189933 30.4860242,36.6523023 31.2252383,36.250463 C32.0056838,35.8262366 32.5925311,35.2114953 33.0853405,34.4846686 C34.0003743,33.1353628 34.6565961,31.6159758 35.1530369,30.0698447 C35.6593884,28.4926872 36.01882,26.9126749 36.2148392,25.268131 C36.4101776,23.628921 36.4513333,21.9730333 36.4217526,20.3236814 L36.4217526,20.3236814 Z" id="âœ‹-Skin" fill="#EDB98A"></path>
                                    <path d="M18.214154,0.458716467 C20.5753119,0.136208268 23.8342544,1.18441626 25.0101428,3.29796055 C30.6241152,1.98373776 37.7047896,1.9406916 42.331857,6.31569974 C47.1600125,11.5054299 41.0955968,18.3481178 37.0743657,19.8908684 C37.3671463,21.3037292 36.9106507,30.3550687 33.680608,34.3924687 C31.1171516,37.8133243 25.1475303,39.3920594 22.3851799,35.3061292 L22.3636325,35.2724156 C22.0676869,34.8005406 22.3225677,34.8156928 22.6263645,35.1666987 C25.3312936,37.5287539 29.009056,37.5690956 31.8431263,35.0763243 C37.1546345,30.5200415 36.606976,19.3483214 34.0795309,12.8853112 C26.8825765,12.1004135 19.1769254,14.2664696 14.2060867,19.6460386 L14.5422169,21.6554608 C14.5994869,21.9978018 14.6645493,22.3398422 14.7141782,22.6833852 C14.7459529,22.9034991 14.7495086,23.1224111 14.5959312,23.3006057 C14.0888232,23.8888282 13.2341612,23.0049168 12.5309583,22.6533355 C12.323364,22.6243376 12.1153915,22.6131441 11.9114286,22.6274177 C8.53287729,23.0595321 9.19855585,29.5675417 12.9118,28.4267807 C13.2237966,28.2337866 13.4918384,28.292684 13.6128846,28.572747 C14.4979594,29.377778 15.0815535,30.8135517 16.5520381,32.196438 C17.0708725,32.7151706 17.5430284,33.1491631 18.1266225,33.5652761 C18.4694103,33.9094952 19.5037502,34.2604755 19.1758663,34.8495243 C18.555807,36.1898903 14.8993789,31.9795544 14.2529165,30.8152044 C12.2274349,31.6094175 9.98278406,31.3396465 7.88376693,31.1455256 C-3.18969267,30.5738304 -1.7114157,18.9829173 7.36523518,11.6649937 C9.07380259,10.4159787 10.9588705,9.39706913 12.9183819,8.61299783 C13.185894,8.50594584 13.0690088,8.06977473 12.7977139,8.1783292 C11.5011576,8.69721206 10.2372081,9.31480813 9.03234426,10.0296149 L9.03052016,9.60226462 C9.02875491,8.88248086 9.040124,8.13311695 9.16602468,7.47546717 C9.22896872,7.01976376 9.33480851,6.53303406 9.49776698,6.1668787 C9.69923329,5.04429775 12.8551352,1.19102719 18.214154,0.458716467 Z M11.7636463,24.1215329 C11.9346241,23.9602412 12.2538079,24.1525592 12.4060235,24.1477512 C12.7952627,24.2006387 13.1650589,24.3638836 13.4534516,24.5653667 C13.6438724,24.6712918 13.7773259,24.7707562 13.8888397,24.8622575 L13.8918658,24.8614312 C13.8910337,24.8614312 13.8899745,24.8622575 13.8890667,24.8624829 L13.8995629,24.8695257 C14.0619366,24.984084 14.6563399,25.6293431 14.2808025,25.4558138 C14.2528105,25.4196791 14.2241377,25.3849717 14.1952379,25.3509404 C14.1921361,25.3555982 14.1878239,25.3601807 14.1826794,25.3646131 L14.2037736,25.3956985 C14.5229568,25.8724732 13.9718814,25.3701722 13.8870997,25.2367517 C13.88309,25.239982 13.8785508,25.2421606 13.8740872,25.2444895 L13.984499,25.3779281 C13.9999351,25.396873 14.0120704,25.4119976 14.0221418,25.4247875 L14.0454243,25.4471066 C14.4144646,25.8073041 14.4259938,26.1314688 13.9972517,25.5989254 C14.0141225,25.6240169 14.0276646,25.6506109 14.0295559,25.6741999 L14.0549642,25.7063626 C14.3915966,26.1371082 14.1177861,25.9841328 13.9505083,25.8001629 L13.9365102,25.7843388 L13.9393744,25.7886353 C14.094993,26.0266883 13.7862247,25.8596576 13.7316638,25.7323206 L13.7293613,25.7265615 C13.6699074,25.6783918 13.6333219,25.6243324 13.6207733,25.610681 L13.6184527,25.6083911 C13.3290009,25.3139042 12.9094245,25.0647172 12.553019,24.9515051 C12.5013474,24.9417389 12.4490705,24.933926 12.3962641,24.9283668 C12.1819367,24.8808883 11.9652639,24.8483595 11.7463216,24.8307805 C11.7195401,24.8276253 11.6923804,24.808093 11.6721051,24.7828512 C11.3410309,24.7717641 11.4432292,24.6370094 11.5805894,24.6119856 L11.5829934,24.6115749 L11.5557427,24.6092971 C11.3432731,24.5887064 11.1981687,24.5130064 11.4130027,24.4665444 L11.440226,24.4611694 C11.4368972,24.4559858 11.4339467,24.4508023 11.4310718,24.4456187 C11.2470816,24.4255605 11.3671443,24.2479669 11.469277,24.290938 C11.4263056,24.1514323 11.6227031,24.2210725 11.647215,24.2003382 C11.6659015,24.1797541 11.6891272,24.1615741 11.702518,24.1605975 C11.7616793,24.1191289 11.7330065,24.1228851 11.7636463,24.1215329 Z M12.8894064,21.8628787 L12.8462837,21.887895 C12.8114073,21.9081035 12.7755473,21.9215507 12.7395361,21.9294387 C12.7903755,21.9509242 12.8406097,21.9741376 12.8903143,21.9989286 C12.8895073,21.9686285 12.8889357,21.9383618 12.8889357,21.9081508 L12.8894064,21.8628787 Z" id="ðŸ–-Ink" fill="#000000"></path>
                                </g>
                                <g id="FACIAL-HAIR" transform="translate(13.128698, 21.588384)" fill="#000000">
                                    <path d="M18.2360208,10.6889552 C17.5299666,10.0656497 16.738546,8.81257799 15.7242327,9.8040672 C15.4733647,10.0842054 15.3717742,10.7122437 14.9881562,10.8354474 C14.4786872,10.9992181 13.9737671,10.4650851 13.8001534,10.0549069 C13.0897778,7.775864 16.0263508,7.15075552 17.6992589,7.51893923 C18.516532,7.85151407 19.1184938,9.19022735 19.1548844,9.88888243 C19.1783867,10.3584087 18.7773316,11.0488001 18.2360208,10.6889552 M23.5627007,7.1761475 C23.5558016,7.14587245 23.5461733,7.11852724 23.5345738,7.09366112 C23.2222966,6.97669274 22.9752193,7.09598998 22.8225302,7.31880836 C22.827534,7.37417489 22.844213,7.43029267 22.8547511,7.48520846 C22.7369364,7.7311651 22.6306454,8.03549324 22.4709815,8.24801961 C22.4394429,8.25042358 22.4067672,8.24711812 22.3753803,8.23810322 C19.7284919,8.51200606 21.0207387,5.76779409 18.3360951,5.0861922 C16.260843,4.74693131 12.5100294,5.1355488 11.5310454,7.27591244 C10.7589573,10.6946646 6.83308963,8.31247618 5.54410284,6.53451169 C4.1687641,4.91641151 3.27946784,2.93914251 2.42201339,1.0204704 C2.24081833,0.614424088 1.67532295,0.904779129 1.73680797,1.29437324 C0.944250159,2.86980288 0.970633373,4.76218152 0.774351359,6.48808493 C0.440467239,9.93140273 0.115150082,14.7602362 3.34383378,16.8627372 C7.55051593,21.5743018 18.055129,23.2369506 22.9070627,18.9078434 C24.5866423,15.3296776 24.3795947,10.9644356 23.5627007,7.1761475" id="ðŸ–-Ink"></path>
                                </g>
                                <g id="FACE" transform="translate(20.612491, 16.825799)" fill="#000000">
                                    <path d="M7.30969334,14.2958189 C6.80005189,14.089802 6.34532284,13.7461522 6.01287203,13.3071619 C5.89729108,13.1545508 5.8673229,12.9933959 5.89156926,12.8459991 C5.91883258,12.6802619 6.01778538,12.5300506 6.15273481,12.4292934 C6.28810225,12.3282242 6.45742973,12.2783794 6.62113409,12.3037888 C6.76338358,12.3258682 6.90498616,12.4030446 7.01705402,12.5631058 L7.0404678,12.5951142 C7.23811555,12.8600737 7.49566876,13.0774698 7.78913266,13.2175941 C8.07198415,13.3526512 8.38832493,13.4156875 8.71568603,13.3790306 C9.33916636,13.3092417 9.76890037,12.975124 10.2256607,12.5213978 C10.2822775,12.4641137 10.3389305,12.4050338 10.3958582,12.345003 C10.4318092,12.2905853 10.4817001,12.255611 10.5370925,12.2372606 C10.598596,12.2168857 10.6681708,12.2180385 10.731896,12.2400749 C10.7933593,12.2613291 10.8483044,12.3016049 10.8851465,12.3552094 C10.920162,12.406156 10.9400147,12.4690937 10.933573,12.5414877 C10.8917649,13.0117006 10.6436754,13.4313456 10.2912746,13.7608556 C9.89988854,14.1268185 9.38107769,14.3799941 8.89263995,14.4687907 C8.35452496,14.5666036 7.80620013,14.4965263 7.30969334,14.2958189 L7.30969334,14.2958189 Z M9.14649094,7.04187113 C9.7189899,7.38669465 10.5913025,8.19075581 9.97542538,9.0456153 C9.25047912,9.79937316 8.20672019,8.9351383 7.69237387,8.54427852 C7.21544786,8.24136 6.67959477,9.02044375 7.12208699,9.3741522 C10.8387643,12.1008028 12.3470706,7.13203767 9.43605292,6.63644321 C9.11553942,6.58183084 8.99649989,6.9351962 9.14649094,7.04187113 Z M2.48616964,3.87007064 C2.54942327,3.09206369 3.74520996,2.91539229 3.86416186,3.68526511 C3.9706803,4.37490528 3.84528422,5.00842767 3.53179402,5.6293292 C3.23225357,6.2225099 2.47938298,5.94576318 2.42244679,5.40562017 C2.3461262,4.68158092 2.44682226,4.3540355 2.48616964,3.87007064 Z M11.5886589,3.52563369 C11.7553735,3.30927599 11.9960825,3.16158181 12.2844783,3.2450448 C13.1855257,3.50595115 12.9199498,4.77352181 12.6035029,5.39051688 C12.4315571,5.72557082 11.8757659,5.81053629 11.6245947,5.51552355 C11.2152,5.03442816 11.0191454,4.07366474 11.5396074,3.59978128 C11.5537087,3.57529079 11.5694022,3.55057493 11.5886589,3.52563369 Z M3.51910278,0.465749826 L3.66143347,0.441064389 C4.10174498,0.36560626 4.64922168,0.293099385 4.96070282,0.643869308 C5.12590116,0.829876832 5.18276153,1.17559841 4.96070282,1.35364277 C4.57010995,1.66691069 4.13827436,1.54550998 3.67019975,1.57202882 C3.28445897,1.59396509 2.91372933,1.65721967 2.54216573,1.76246867 C1.7270154,1.99332535 1.06281041,2.41477212 0.366611984,2.8775372 C0.275256315,2.93823756 0.182005301,2.82247116 0.225598255,2.73780619 C0.627487383,1.9577916 1.40632289,1.31705728 2.18644723,0.926486556 C2.6028168,0.718016895 3.05845793,0.545080983 3.51910278,0.465749826 Z M10.7672825,0.116338716 L10.8762216,0.138431303 C12.0617404,0.383982918 13.6020069,0.874492429 14.1634073,2.02835921 C14.1847992,2.19152006 14.1621966,2.22648869 14.1438166,2.2493352 L14.1376971,2.25693774 C14.1225519,2.27644732 14.1104673,2.30334117 14.0390971,2.32554765 C14.0192919,2.32087177 13.9992895,2.31591938 13.9790753,2.31067016 C13.7217392,2.24384525 13.5181365,2.15178453 13.3210276,2.05626055 L13.1073115,1.95192811 C12.8593582,1.83145755 12.6092156,1.71537155 12.3441219,1.62967249 C11.7783891,1.44682432 11.1964843,1.31801919 10.6055641,1.24924018 C10.4774866,1.23434557 10.3541561,1.19151267 10.2568572,1.11810407 C10.164501,1.04842457 10.0939468,0.951951687 10.0617781,0.823718202 C10.0200874,0.657763589 10.0320684,0.532122334 10.1219276,0.382406972 C10.1894961,0.26997394 10.2861759,0.192043157 10.3971888,0.147292651 C10.5103616,0.10167145 10.6392078,0.0909162676 10.7672825,0.116338716 Z" id="ðŸ–-Ink"></path>
                                </g>
                            </g>
                        </g>
                    </g>
                    <g id="Group-11" transform="translate(917.000000, 0.000000)">
                        <ellipse id="Oval" fill="#4FC067" cx="42" cy="99.5" rx="42" ry="99.5"></ellipse>
                        <polygon id="Rectangle" fill="#700000" points="40.5 168 48 168 51.5604995 282 36.5604995 282"></polygon>
                    </g>
                    <g id="Group-11-Copy" transform="translate(876.000000, 119.000000)">
                        <ellipse id="Oval" fill="#4FC067" cx="20.5" cy="48.5" rx="20.5" ry="48.5"></ellipse>
                        <polygon id="Rectangle" fill="#700000" points="19.8384336 82 23.3384336 82 25 138 18 138"></polygon>
                    </g>
                </g>
            </g>
        </g>
    </g>
</svg>