<?xml version="1.0" encoding="UTF-8"?>
<svg width="22px" height="22px" viewBox="0 0 22 22" version="1.1" xmlns="http://www.w3.org/2000/svg" xmlns:xlink="http://www.w3.org/1999/xlink">
    <!-- Generator: Sketch 63.1 (92452) - https://sketch.com -->
    <title>Group</title>
    <desc>Created with Sketch.</desc>
    <g id="Home-Page_06/10/2020" stroke="none" stroke-width="1" fill="none" fill-rule="evenodd" stroke-linecap="round" stroke-linejoin="round">
        <g id="07_My_Dashboard" transform="translate(-426.000000, -257.000000)" stroke="#FFFFFF" stroke-width="1.6">
            <g id="Group-7-Copy" transform="translate(401.000000, 233.000000)">
                <g id="Group-4" transform="translate(16.000000, 16.000000)">
                    <g id="Group" transform="translate(10.000000, 9.000000)">
                        <path d="M16.56,11.93 L8.78,19.71 C8.39,20.1 7.75,20.1 7.37,19.71 L0.3,12.64 C-0.09,12.25 -0.09,11.61 0.3,11.23 L8.08,3.44999 L4.02,7.48999 L11.22,0.28999 C11.43,0.07999 11.72,-0.030011 12.02,-1.1e-05 L18.5,0.58999 C18.98,0.62999 19.36,1.00999 19.41,1.49999 L20,7.97999 C20.03,8.27999 19.92,8.56999 19.71,8.77999 L12.51,15.98" id="Path"></path>
                        <path d="M15.4141,7.4143 C16.2264,6.60202 16.2517,5.31038 15.4707,4.52934 C14.6896,3.74829 13.398,3.77362 12.5857,4.5859 C11.7734,5.39819 11.7481,6.68983 12.5291,7.47087 C13.3102,8.25191 14.6018,8.22659 15.4141,7.4143 Z" id="Path"></path>
                    </g>
                </g>
            </g>
        </g>
    </g>
</svg>