<?xml version="1.0" encoding="UTF-8"?>
<svg width="19px" height="24px" viewBox="0 0 19 24" version="1.1" xmlns="http://www.w3.org/2000/svg" xmlns:xlink="http://www.w3.org/1999/xlink">
    <!-- Generator: Sketch 63.1 (92452) - https://sketch.com -->
    <title>money-bag</title>
    <desc>Created with Sketch.</desc>
    <g id="Home-Page_06/10/2020" stroke="none" stroke-width="1" fill="none" fill-rule="evenodd">
        <g id="07_My_Dashboard" transform="translate(-92.000000, -257.000000)">
            <g id="Group-7-Copy-2" transform="translate(65.000000, 233.000000)">
                <g id="Group-4" transform="translate(16.000000, 16.000000)">
                    <g id="money-bag" transform="translate(12.000000, 9.000000)">
                        <g id="Group" stroke="#FFFFFF" stroke-linecap="round" stroke-linejoin="round">
                            <path d="M10.6115895,6.136 C10.5272467,6.04908333 10.410987,6 10.2894847,6 L6.71055722,6 C6.58905495,6 6.47279528,6.04908333 6.38845249,6.136 C5.73438695,6.808875 0,12.7857917 0,15.3333333 C0,19.0097917 3.81337613,22 8.5,22 C13.1866239,22 17,19.0097917 17,15.3333333 C17,12.7857917 11.265613,6.808875 10.6115895,6.136 Z" id="Path" stroke-width="1.62539683"></path>
                            <path d="M13.7485407,0.573425668 C13.0628497,-0.233998815 11.2791118,0.825424392 10.2551091,1.54284933 C9.7859176,0.848567132 9.0911978,0 8.5010043,0 C7.9108108,0 7.216091,0.848567132 6.74689952,1.54284933 C5.72536625,0.824580646 3.93831002,-0.234842561 3.25346794,0.573425668 C3.0636306,0.801357549 2.97407522,1.10161049 3.00652505,1.40142147 C3.13906393,2.98882862 6.24228716,5.6125564 6.59541549,5.90569777 C6.66891958,5.9671305 6.76044279,6.00039819 6.85470552,6 L10.1472645,6 C10.2405626,6.00007676 10.3311212,5.9671305 10.4040851,5.9065817 C10.7572134,5.61259658 13.8612855,2.99232413 13.9929755,1.4023054 C14.0266987,1.1025346 13.9379922,0.801799511 13.7485407,0.573425668 Z" id="Path" stroke-width="1.567339"></path>
                        </g>
                        <path d="M13,7 L4,7 C3.44771525,7 3,6.55228475 3,6 C3,5.44771525 3.44771525,5 4,5 L13,5 C13.5522847,5 14,5.44771525 14,6 C14,6.55228475 13.5522847,7 13,7 Z" id="Path" fill="#FFFFFF" fill-rule="nonzero"></path>
                        <path d="M8.32617188,9.5 C8.56779492,9.5 8.76368555,9.69589062 8.76368555,9.93751367 L8.76406759,10.3789822 C9.62181772,10.4802242 10.3426709,11.124495 10.5136992,12.00425 C10.534002,12.245873 10.3545586,12.4582109 10.1129355,12.4785137 C9.89815951,12.4965605 9.70652235,12.3567833 9.65232862,12.1557994 L9.63867188,12.07775 C9.61008196,11.7224181 9.24734483,11.4189919 8.76425816,11.3017635 L8.76516649,13.0842338 C9.9459739,13.3739393 10.5163242,13.9286045 10.5163242,14.7508613 C10.397801,15.6820241 9.65937563,16.3865102 8.76344866,16.494958 L8.76368555,16.9375273 C8.76368555,17.1791094 8.56779492,17.375 8.32617188,17.375 C8.08454883,17.375 7.8886582,17.1791094 7.8886582,16.9374863 L7.88831718,16.4960178 C7.03056704,16.3947758 6.30971386,15.750505 6.13868555,14.87075 C6.11838281,14.629127 6.29782617,14.4167891 6.53944922,14.3964863 C6.78107227,14.3761836 6.99341016,14.555627 7.01371289,14.79725 C7.04364709,15.1522524 7.40604381,15.4554454 7.88769944,15.5729099 L7.88733708,13.7911239 C6.70624823,13.5011659 6.13872656,12.9460102 6.13872656,12.125 C6.25678659,11.194813 6.99361235,10.4905139 7.88838713,10.3807087 L7.8886582,9.93751367 C7.8886582,9.69589062 8.08454883,9.5 8.32617188,9.5 Z M8.76496141,13.9830776 L8.76384968,15.5729997 C9.26814195,15.4498574 9.63871289,15.1226035 9.63871289,14.75 C9.63871289,14.3990935 9.35863064,14.1521931 8.76496141,13.9830776 Z M7.01367188,12.125 C7.01367188,12.4755802 7.29381407,12.7223477 7.88705583,12.8914505 L7.88774103,11.3021944 C7.38385387,11.4254862 7.01367188,11.7525921 7.01367188,12.125 Z" id="Combined-Shape" fill="#FFFFFF" fill-rule="nonzero"></path>
                    </g>
                </g>
            </g>
        </g>
    </g>
</svg>