<?xml version="1.0" encoding="UTF-8"?>
<svg width="20px" height="44px" viewBox="0 0 20 44" version="1.1" xmlns="http://www.w3.org/2000/svg" xmlns:xlink="http://www.w3.org/1999/xlink">
    <!-- Generator: Sketch 63.1 (92452) - https://sketch.com -->
    <title>Artboard</title>
    <desc>Created with Sketch.</desc>
    <g id="Artboard" stroke="none" stroke-width="1" fill="none" fill-rule="evenodd">
        <path d="M10.0412969,4.04534442 C11.7314252,2.35521611 14.4845553,2.35521611 16.1755732,4.04445488 C17.8639224,5.73458319 17.8639224,8.48682371 16.1755732,10.176952 L12.234016,14.1176196 L12.2313474,14.1158405 L7.92685745,18.4194409 C6.89232102,19.4530878 5.08655235,19.4530878 4.05468454,18.4185514 C3.53697155,17.9017279 3.25142882,17.2141126 3.25142882,16.4829097 C3.25142882,15.7517068 3.53697155,15.0640915 4.05468454,14.5463785 L6.64147039,11.9578135 L6.64324948,11.9604822 L11.962706,6.64013614 C12.352325,6.25051709 13.0346031,6.25229617 13.4260013,6.64013614 C13.8289634,7.04398786 13.8280739,7.70046927 13.4260013,8.10432099 L6.36215445,15.1672782 L7.61996573,16.4250895 L14.6847021,9.36213227 C15.7797273,8.26443841 15.7788378,6.48001873 14.6838125,5.38232486 C13.6208108,4.32110219 11.7661173,4.32021265 10.7048947,5.38232486 L6.35770675,9.73040233 L6.35592766,9.72773371 L2.79687326,13.2885672 C1.94291369,14.1416372 1.47234639,15.2766918 1.47234639,16.4829097 C1.47234639,17.6891276 1.94291369,18.8241822 2.79687326,19.6772522 C3.64994328,20.5303222 4.78410833,21 5.99121576,21 C7.1983232,21 8.33248825,20.5303222 9.18466873,19.6772522 L13.0265972,15.8353237 L13.0283763,15.8388819 L17.434274,11.4356528 C19.8146863,9.0499033 19.8146863,5.1715036 17.4333844,2.78575405 C15.0476349,0.404452218 11.1692352,0.404452218 8.78348564,2.78753314 L1,10.5710188 L2.25781128,11.8288301 L10.0412969,4.04534442" id="Fill-122" fill="#464546"></path>
        <path d="M10.0412969,26.0453444 C11.7314252,24.3552161 14.4845553,24.3552161 16.1755732,26.0444549 C17.8639224,27.7345832 17.8639224,30.4868237 16.1755732,32.176952 L12.234016,36.1176196 L12.2313474,36.1158405 L7.92685745,40.4194409 C6.89232102,41.4530878 5.08655235,41.4530878 4.05468454,40.4185514 C3.53697155,39.9017279 3.25142882,39.2141126 3.25142882,38.4829097 C3.25142882,37.7517068 3.53697155,37.0640915 4.05468454,36.5463785 L6.64147039,33.9578135 L6.64324948,33.9604822 L11.962706,28.6401361 C12.352325,28.2505171 13.0346031,28.2522962 13.4260013,28.6401361 C13.8289634,29.0439879 13.8280739,29.7004693 13.4260013,30.104321 L6.36215445,37.1672782 L7.61996573,38.4250895 L14.6847021,31.3621323 C15.7797273,30.2644384 15.7788378,28.4800187 14.6838125,27.3823249 C13.6208108,26.3211022 11.7661173,26.3202127 10.7048947,27.3823249 L6.35770675,31.7304023 L6.35592766,31.7277337 L2.79687326,35.2885672 C1.94291369,36.1416372 1.47234639,37.2766918 1.47234639,38.4829097 C1.47234639,39.6891276 1.94291369,40.8241822 2.79687326,41.6772522 C3.64994328,42.5303222 4.78410833,43 5.99121576,43 C7.1983232,43 8.33248825,42.5303222 9.18466873,41.6772522 L13.0265972,37.8353237 L13.0283763,37.8388819 L17.434274,33.4356528 C19.8146863,31.0499033 19.8146863,27.1715036 17.4333844,24.7857541 C15.0476349,22.4044522 11.1692352,22.4044522 8.78348564,24.7875331 L1,32.5710188 L2.25781128,33.8288301 L10.0412969,26.0453444" id="Fill-122" fill="#FF654F"></path>
    </g>
</svg>