<?xml version="1.0" encoding="UTF-8"?>
<svg width="24px" height="48px" viewBox="0 0 24 48" version="1.1" xmlns="http://www.w3.org/2000/svg" xmlns:xlink="http://www.w3.org/1999/xlink">
    <!-- Generator: Sketch 63.1 (92452) - https://sketch.com -->
    <title>Artboard</title>
    <desc>Created with Sketch.</desc>
    <g id="Artboard" stroke="none" stroke-width="1" fill="none" fill-rule="evenodd">
        <g id="User-Outline" transform="translate(-1.000000, 0.000000)">
            <rect id="Rectangle-Copy-3" x="0" y="0" width="24" height="24"></rect>
            <path d="M12.5,12 C7.256,12 3,16.48 3,22 C3.019,22 22,22 22,22 C22,16.48 17.744,12 12.5,12 Z" id="Path" stroke="#000000" stroke-width="1.4" stroke-linecap="round" stroke-linejoin="round"></path>
            <path d="M12,12 C14.7614,12 17,9.7614 17,7 C17,4.238575 14.7614,2 12,2 C9.2386,2 7,4.238575 7,7 C7,9.7614 9.2386,12 12,12 Z" id="Path" stroke="#000000" stroke-width="1.4" stroke-linecap="round" stroke-linejoin="round"></path>
        </g>
        <g id="User-Outline" transform="translate(-1.000000, 24.000000)">
            <rect id="Rectangle-Copy-3" x="0" y="0" width="24" height="24"></rect>
            <path d="M12.5,12 C7.256,12 3,16.48 3,22 C3.019,22 22,22 22,22 C22,16.48 17.744,12 12.5,12 Z" id="Path" stroke="#0566FF" stroke-width="1.4" stroke-linecap="round" stroke-linejoin="round"></path>
            <path d="M12,12 C14.7614,12 17,9.7614 17,7 C17,4.238575 14.7614,2 12,2 C9.2386,2 7,4.238575 7,7 C7,9.7614 9.2386,12 12,12 Z" id="Path" stroke="#0566FF" stroke-width="1.4" stroke-linecap="round" stroke-linejoin="round"></path>
        </g>
    </g>
</svg>