<?xml version="1.0" encoding="UTF-8"?>
<svg width="20px" height="40px" viewBox="0 0 20 40" version="1.1" xmlns="http://www.w3.org/2000/svg" xmlns:xlink="http://www.w3.org/1999/xlink">
    <!-- Generator: Sketch 63.1 (92452) - https://sketch.com -->
    <title>Artboard</title>
    <desc>Created with Sketch.</desc>
    <g id="Artboard" stroke="none" stroke-width="1" fill="none" fill-rule="evenodd">
        <g id="Group-4">
            <rect id="Rectangle" x="0" y="0" width="20" height="20"></rect>
            <g id="Group" transform="translate(2.000000, 5.000000)" stroke="#0566FF" stroke-linecap="round" stroke-linejoin="round" stroke-width="1.02">
                <path d="M8.5,10.2 C3.808,10.2 0,5.1 0,5.1 C0,5.1 3.808,0 8.5,0 C13.192,0 17,5.1 17,5.1 C17,5.1 13.192,10.2 8.5,10.2 Z" id="Path"></path>
                <path d="M8.5,7.225 C9.673595,7.225 10.625,6.273595 10.625,5.1 C10.625,3.926405 9.673595,2.975 8.5,2.975 C7.326405,2.975 6.375,3.926405 6.375,5.1 C6.375,6.273595 7.326405,7.225 8.5,7.225 Z" id="Path"></path>
            </g>
        </g>
        <g id="Group-4" transform="translate(0.000000, 20.000000)">
            <rect id="Rectangle" x="0" y="0" width="20" height="20"></rect>
            <g id="Group" transform="translate(2.000000, 5.000000)" stroke="#FFFFFF" stroke-linecap="round" stroke-linejoin="round" stroke-width="1.02">
                <path d="M8.5,10.2 C3.808,10.2 0,5.1 0,5.1 C0,5.1 3.808,0 8.5,0 C13.192,0 17,5.1 17,5.1 C17,5.1 13.192,10.2 8.5,10.2 Z" id="Path"></path>
                <path d="M8.5,7.225 C9.673595,7.225 10.625,6.273595 10.625,5.1 C10.625,3.926405 9.673595,2.975 8.5,2.975 C7.326405,2.975 6.375,3.926405 6.375,5.1 C6.375,6.273595 7.326405,7.225 8.5,7.225 Z" id="Path"></path>
            </g>
        </g>
    </g>
</svg>