<?xml version="1.0" encoding="UTF-8"?>
<svg width="20px" height="36px" viewBox="0 0 20 36" version="1.1" xmlns="http://www.w3.org/2000/svg" xmlns:xlink="http://www.w3.org/1999/xlink">
    <!-- Generator: Sketch 63.1 (92452) - https://sketch.com -->
    <title>Artboard</title>
    <desc>Created with Sketch.</desc>
    <g id="Artboard" stroke="none" stroke-width="1" fill="none" fill-rule="evenodd">
        <path d="M10.1666667,17.8208333 L8.8375,16.6108333 C4.11666667,12.33 1,9.50666667 1,6.04166667 C1,3.21833333 3.21833333,1 6.04166667,1 C7.63666667,1 9.1675,1.7425 10.1666667,2.91583333 C11.1658333,1.7425 12.6966667,1 14.2916667,1 C17.115,1 19.3333333,3.21833333 19.3333333,6.04166667 C19.3333333,9.50666667 16.2166667,12.33 11.4958333,16.62 L10.1666667,17.8208333 Z" id="Path" stroke="#000000" stroke-width="1.1" stroke-linecap="round" stroke-linejoin="round"></path>
        <path d="M10.1666667,35.8208333 L8.8375,34.6108333 C4.11666667,30.33 1,27.5066667 1,24.0416667 C1,21.2183333 3.21833333,19 6.04166667,19 C7.63666667,19 9.1675,19.7425 10.1666667,20.9158333 C11.1658333,19.7425 12.6966667,19 14.2916667,19 C17.115,19 19.3333333,21.2183333 19.3333333,24.0416667 C19.3333333,27.5066667 16.2166667,30.33 11.4958333,34.62 L10.1666667,35.8208333 Z" id="Path" fill="#FF5F48"></path>
    </g>
</svg>