<svg width="200" height="204" viewBox="0 0 200 204" fill="none" xmlns="http://www.w3.org/2000/svg">
<path fill-rule="evenodd" clip-rule="evenodd" d="M18.92 156.268C50.8328 145.082 82.0666 129.232 111.538 108.596C141.01 87.9599 166.586 64.0306 188.013 37.8684C156.1 49.0548 124.866 64.9044 95.3947 85.5407C65.9231 106.177 40.3467 130.106 18.92 156.268Z" fill="white"/>
<rect x="63.1204" y="121.499" width="1.32404" height="39.7212" transform="rotate(85 63.1204 121.499)" fill="white"/>
<path d="M18.2267 121.753C20.4994 121.717 22.4137 123.443 22.6118 125.707C22.8099 127.972 21.2244 130.004 18.98 130.363L11.9543 131.487C11.5361 131.554 11.1489 131.252 11.112 130.83L10.3973 122.66C10.3604 122.238 10.6892 121.873 11.1127 121.867L18.2267 121.753Z" stroke="white" stroke-width="2"/>
<rect x="90.165" y="98.0677" width="1.32404" height="39.7212" transform="rotate(90 90.165 98.0677)" fill="white"/>
<path d="M45.4201 94.4083C47.6873 94.5703 49.4438 96.4568 49.4438 98.7298C49.4438 101.003 47.6873 102.889 45.4201 103.051L38.3233 103.558C37.9008 103.588 37.5414 103.254 37.5414 102.83L37.5414 94.6294C37.5414 94.2058 37.9008 93.8713 38.3233 93.9014L45.4201 94.4083Z" stroke="white" stroke-width="2"/>
<rect x="121.73" y="75.3323" width="1.32404" height="39.7212" transform="rotate(90 121.73 75.3323)" fill="white"/>
<path d="M76.9854 71.6729C79.2526 71.8349 81.0092 73.7214 81.0092 75.9944C81.0092 78.2673 79.2526 80.1539 76.9854 80.3158L69.8886 80.8227C69.4661 80.8529 69.1067 80.5183 69.1067 80.0948L69.1067 71.894C69.1067 71.4704 69.4661 71.1358 69.8886 71.166L76.9854 71.6729Z" stroke="white" stroke-width="2"/>
<rect x="155.561" y="57.5261" width="1.32404" height="39.7212" transform="rotate(95 155.561 57.5261)" fill="white"/>
<path d="M111.305 49.9809C113.549 50.3398 115.135 52.3722 114.937 54.6366C114.739 56.9009 112.824 58.6271 110.552 58.5909L103.438 58.4773C103.014 58.4706 102.685 58.1059 102.722 57.684L103.437 49.5144C103.474 49.0925 103.861 48.7905 104.279 48.8574L111.305 49.9809Z" stroke="white" stroke-width="2"/>
<rect x="59.8236" y="130.377" width="1.32404" height="39.7212" transform="rotate(30 59.8236 130.377)" fill="white"/>
<path d="M34.282 167.298C35.5558 165.415 38.0679 164.837 40.0363 165.974C42.0048 167.11 42.7603 169.575 41.7669 171.619L38.6575 178.018C38.4724 178.399 38.003 178.543 37.6362 178.332L30.5341 174.231C30.1673 174.019 30.0572 173.541 30.2946 173.19L34.282 167.298Z" stroke="white" stroke-width="2"/>
<rect x="93.8195" y="110.602" width="1.32404" height="39.7212" transform="rotate(25 93.8195 110.602)" fill="white"/>
<path d="M71.5928 149.608C72.6977 147.622 75.1499 146.827 77.2099 147.787C79.2699 148.748 80.2373 151.137 79.4259 153.261L76.8861 159.907C76.7349 160.302 76.2798 160.487 75.8959 160.308L68.4635 156.842C68.0796 156.663 67.9282 156.196 68.1341 155.826L71.5928 149.608Z" stroke="white" stroke-width="2"/>
<rect x="124.859" y="90.2947" width="1.32404" height="39.7212" transform="rotate(20 124.859 90.2947)" fill="white"/>
<path d="M106.117 131.09C107.045 129.015 109.418 128.009 111.554 128.787C113.69 129.564 114.862 131.86 114.239 134.046L112.288 140.888C112.172 141.295 111.734 141.518 111.336 141.374L103.63 138.569C103.232 138.424 103.04 137.972 103.213 137.585L106.117 131.09Z" stroke="white" stroke-width="2"/>
<rect x="152.909" y="69.8758" width="1.32404" height="39.7212" transform="rotate(15 152.909 69.8758)" fill="white"/>
<path d="M137.793 112.149C138.537 110.001 140.814 108.792 143.009 109.381C145.205 109.969 146.572 112.154 146.142 114.386L144.795 121.372C144.714 121.788 144.298 122.048 143.889 121.939L135.968 119.816C135.559 119.707 135.328 119.273 135.467 118.873L137.793 112.149Z" stroke="white" stroke-width="2"/>
</svg>
