<svg width="1592" height="862" viewBox="0 0 1592 862" fill="none" xmlns="http://www.w3.org/2000/svg">
<path opacity="0.3" d="M150 262C-91.6 188.4 -397.333 394.333 -490 469L-180 1437C42.6667 1433.67 548 1346.8 540 1206C530 1030 770 730 840 676C910 622 1026 676 1026 590C1026 504 1060 414 1122 398C1184 382 1356 264 1388 202C1413.6 152.4 1534.67 46.6667 1592 0C1496 50 1288.67 114 1198 168C1166.67 196.667 1060 256 940 232C820 208 663.333 244 610 274C502 320 391.6 335.6 150 262Z" fill="#56CFE1"/>
</svg>
