<svg width="1534" height="826" viewBox="0 0 1534 826" fill="none" xmlns="http://www.w3.org/2000/svg">
<path opacity="0.3" d="M-308 1010C-190.667 922 82.3999 712.4 260 682C437.6 651.6 606 513.333 672 452C810.667 356 1135 249.999 1210 203C1285 156 1458.5 38 1534 0.5C1448 72.5 1270 203 1204 234C1146.04 261.222 904 393 862 427C820 461 662 538 556 666C450 794 98 994 2 976C-81.7132 960.304 -294.696 1149.92 -330.602 1246.45L-334 1282C-337.328 1272.78 -335.872 1260.62 -330.602 1246.45L-308 1010Z" fill="#ADE8F4"/>
</svg>
