<?xml version="1.0" encoding="UTF-8"?>
<svg width="200px" height="200px" viewBox="0 0 200 200" version="1.1" xmlns="http://www.w3.org/2000/svg" xmlns:xlink="http://www.w3.org/1999/xlink">
    <!-- Generator: Sketch 54.1 (76490) - https://sketchapp.com -->
    <title>arrow</title>
    <desc>Created with Sketch.</desc>
    <g id="Page-1" stroke="none" stroke-width="1" fill="none" fill-rule="evenodd">
        <g id="arrow" transform="translate(0.000781, 0.000781)" fill="#E9202D" fill-rule="nonzero">
            <path d="M49.8528079,0.00250007813 C22.3206975,0.00250007813 0.00250007813,22.3219476 0.00250007813,49.8528079 L0.00250007813,150.152192 C0.00250007813,177.684303 22.3219476,200.0025 49.8528079,200.0025 L150.152192,200.0025 C177.684303,200.0025 200.0025,177.683053 200.0025,150.152192 L200.0025,49.8528079 C200.00375,22.3219476 177.684303,0.00250007813 150.153442,0.00250007813 L49.8528079,0.00250007813 Z M101.08047,128.336175 C99.939543,127.132529 99.3241117,125.524571 99.3698368,123.866744 C99.4155618,122.208917 100.118689,120.637327 101.324228,119.498399 L115.314665,106.254235 L69.0007179,106.254235 C65.5456099,106.254235 62.7505226,103.459148 62.7505226,100.00404 C62.7505226,96.5489318 65.5456099,93.7538445 69.0007179,93.7538445 L115.319665,93.7538445 L101.324228,80.4959302 C100.075051,79.3186988 99.3683494,77.6772693 99.371667,75.9607885 C99.3689659,74.3612801 99.9832812,72.8223575 101.086721,71.6644042 C102.225586,70.4604108 103.796539,69.7587943 105.453231,69.7142407 C107.109923,69.669687 108.716316,70.2858547 109.918247,71.4268968 L135.30279,95.4688981 C136.550301,96.6487444 137.257125,98.2900969 137.257125,100.007165 C137.257125,101.724233 136.550301,103.365585 135.30279,104.545432 L109.918247,128.581183 C107.40935,130.952034 103.454161,130.842385 101.08047,128.336175 Z" id="Shape"></path>
        </g>
    </g>
</svg>