<?xml version="1.0" encoding="UTF-8"?>
<svg width="200px" height="200px" viewBox="0 0 200 200" version="1.1" xmlns="http://www.w3.org/2000/svg" xmlns:xlink="http://www.w3.org/1999/xlink">
    <!-- Generator: Sketch 54.1 (76490) - https://sketchapp.com -->
    <title>arrow</title>
    <desc>Created with Sketch.</desc>
    <g id="Page-1" stroke="none" stroke-width="1" fill="none" fill-rule="evenodd">
        <g id="arrow" transform="translate(0.000781, 0.000781)" fill="#E9202D" fill-rule="nonzero">
            <path d="M49.8528079,0.00250007813 C22.3206975,0.00250007813 0.00250007813,22.3219476 0.00250007813,49.8528079 L0.00250007813,150.152192 C0.00250007813,177.684303 22.3219476,200.0025 49.8528079,200.0025 L150.152192,200.0025 C177.684303,200.0025 200.0025,177.683053 200.0025,150.152192 L200.0025,49.8528079 C200.00375,22.3219476 177.684303,0.00250007813 150.153442,0.00250007813 L49.8528079,0.00250007813 Z M98.9271768,71.6658012 C100.068104,72.8694475 100.683535,74.4774058 100.63781,76.1352324 C100.592085,77.793059 99.8889579,79.3646497 98.6834192,80.5035773 L84.692982,93.7477412 L131.006929,93.7477412 C134.462037,93.7477412 137.257125,96.5428286 137.257125,99.9979365 C137.257125,103.453045 134.462037,106.248132 131.006929,106.248132 L84.6879818,106.248132 L98.6834192,119.506046 C99.9325963,120.683278 100.639298,122.324707 100.63598,124.041188 C100.638681,125.640696 100.024366,127.179619 98.9209266,128.337572 C97.7820614,129.541566 96.2111081,130.243182 94.5544159,130.287736 C92.8977238,130.332289 91.2913311,129.716122 90.0894006,128.57508 L64.7048573,104.533078 C63.4573458,103.353232 62.7505226,101.711879 62.7505226,99.9948114 C62.7505226,98.2777434 63.4573458,96.636391 64.7048573,95.4565446 L90.0894006,71.4207935 C92.598297,69.0499425 96.553486,69.1595914 98.9271768,71.6658012 Z" id="Shape"></path>
        </g>
    </g>
</svg>