<svg preserveAspectRatio="xMidYMid meet" data-bbox="26.6 26.5 146.813 147" viewBox="26.6 26.5 146.813 147" height="200" width="200" xmlns="http://www.w3.org/2000/svg" data-type="color" role="img">
    <g>
        <path d="M146.3 173.5H29.2c-1.6 0-2.6-1-2.6-2.6V41.3c0-1.6 1-2.6 2.6-2.6h98.7c1.6 0 2.6 1 2.6 2.6s-1 2.6-2.6 2.6H31.8v124.4H144V93.8c0-1.6 1-2.6 2.6-2.6s2.6 1 2.6 2.6v77.1c-.3 1.6-1.3 2.6-2.9 2.6z" fill="#54520d" data-color="1"></path>
        <path d="M92.8 109.9c-.8 0-1.3-.3-1.8-.8-.8-.8-1-2.1-.5-3.1l8.8-17.4c0-.3.3-.5.5-.8l58.7-58.7c1.8-1.8 3.9-2.6 6-2.6 3.6 0 7 2.3 8.3 5.7s.5 6.8-2.1 9.3l-58.7 59c-.3.3-.5.3-.8.5l-17.4 8.8c-.2.1-.7.1-1 .1zm10.9-18.5l-4.9 10.1 10.1-4.9 58.7-58.7c1.3-1.3 1.3-2.9.8-3.6-.5-1.6-2.1-2.6-3.4-2.6-.8 0-1.6.3-2.3 1l-59 58.7z" fill="#54520d" data-color="1"></path>
        <path d="M160.3 50.9c-.8 0-1.3-.3-1.8-.8l-8.6-8.6c-1-1-1-2.6 0-3.6s2.6-1 3.6 0l8.8 8.8c1 1 1 2.6 0 3.6-.4.4-1.2.6-2 .6z" fill="#54520d" data-color="1"></path>
    </g>
</svg>