<svg preserveAspectRatio="xMidYMid meet" data-bbox="18 26 164 148" viewBox="18 26 164 148" xmlns="http://www.w3.org/2000/svg" data-type="color" role="img" fill="#e9202d">
    <g>
        <path  d="M157.4 167.4s.3-.3 0 0l-3.6-40-2-2.3c-51.2-66.6-51.5-66-53.8-66h-1.3l-1 .3c-1.3 1-20 14.4-32.1 23.6L61 85l55.4 72.2 28.2 10.2H18v6.6h164v-6.6h-24.6zM70.5 86.1c6.2-4.6 21.3-15.8 27.2-20.3 6.6 8.2 30.2 38.4 47.2 60.4l-27.2 22-47.2-62.1zm52.1 66.2l24.6-19.7 3.3 29.9-27.9-10.2z" fill="#e9202d" data-color="1"></path>
        <path d="M56 79.5l38.7-27.9-2-2.6C92.5 48.3 81 34.2 78 30.3 75 27 71.4 26 69.1 26c-2 0-3.3.7-3.6.7l-.6.3c-.3.3-10.5 6.2-18.4 13.1-6.2 5.3-6.9 8.5-7.2 11.2-1 5.3 7.5 17.1 15.1 25.9l1.6 2.3zM45.6 51.6c0-.7 0-2.3 4.9-6.6 6.6-5.6 15.4-11.2 17.1-12.1h1.3c1.6 0 2.6.7 3.9 2C75.1 37.5 82 46 85.2 50.6l-27.9 20c-5.9-7.5-11.8-16.1-11.8-18 .1-.3.1-.7.1-1z" fill="#e9202d" data-color="1"></path>
        <path d="M85.9 88.7c-.3-.7-1.3-.7-2.3 0L82 90c-1 .7-1.3 1.6-.7 2.3l31.2 41.3c.3.7 1.3.7 2.3 0l1.6-1.3c1-.7 1.3-1.6.7-2.3L85.9 88.7z" fill="#e9202d" data-color="1"></path>
    </g>
</svg>