<svg preserveAspectRatio="xMidYMid meet" data-bbox="39.5 52.5 121 95" viewBox="39.5 52.5 121 95" height="33" width="26" xmlns="http://www.w3.org/2000/svg" data-type="color" role="img">
    <g>
        <path d="M100 130.721c-13.608 0-24.679-11.052-24.679-24.633 0-13.579 11.071-24.629 24.679-24.629 13.61 0 24.681 11.05 24.681 24.629 0 13.581-11.071 24.633-24.681 24.633zm0-40.856c-8.963 0-16.254 7.277-16.254 16.222 0 8.948 7.291 16.227 16.254 16.227 8.963 0 16.256-7.279 16.256-16.227 0-8.945-7.293-16.222-16.256-16.222z" fill="#d3cecf" data-color="1"></path>
        <path d="M160.5 147.5h-121V66.774h32.103L81.685 52.5h36.629l10.08 14.274H160.5V147.5zm-112.575-8.406h104.152v-63.91h-28.053l-10.08-14.277H86.053l-10.08 14.277H47.925v63.91z" fill="#d3cecf" data-color="1"></path>
    </g>
</svg>