<svg preserveAspectRatio="xMidYMid meet" data-bbox="37.5 15.1 125 169.9" viewBox="37.5 15.1 125 169.9" xmlns="http://www.w3.org/2000/svg" data-type="color" role="img" width="17" height="24">
    <g stroke="none" fill="#000000" stroke-width="1px">
        <path d="M148 98.9c-7.6-6.4-17.8-10.5-30.4-12.4 12-6.4 20.2-19 20.2-33.5 0-20.9-17-37.9-37.8-37.9S62.2 32 62.2 52.9c0 14.6 8.3 27.3 20.4 33.6-12.5 2.1-22.9 6.5-30.7 13.2-9.2 7.9-14.4 18.7-14.4 29.9v40.1c0 1.7 1 6 9.8 9.4 9.9 3.9 27.2 5.9 51.2 5.9 25.3 0 43.4-2 53.8-5.9 8.9-3.3 10.2-7.4 10.2-9.5v-39.4c0-8.8-2.5-21.4-14.5-31.3zm-77.6-46c0-16.3 13.3-29.6 29.6-29.6s29.6 13.3 29.6 29.6-13.3 29.6-29.6 29.6-29.6-13.3-29.6-29.6zm83.9 115.9c-1.4 1.4-10.5 8.1-55.8 8.1-43 0-51.5-6.7-52.7-8v-39.4c0-18 16.8-36.1 54.3-36.1 19 0 33.4 4 42.8 11.7 9.5 8 11.5 18.1 11.5 25.2l-.1 38.5z" fill="#e9212d" data-color="1" stroke="none" stroke-width="1px"></path>
    </g>
</svg>