<svg preserveAspectRatio="xMidYMid meet" data-bbox="46.5 36.5 107 127" viewBox="46.5 36.5 107 127" height="21" width="17" xmlns="http://www.w3.org/2000/svg" data-type="color" role="img">
    <g>
        <path fill="#e9202d" d="M57.9 100.7c0 3.203-2.552 5.8-5.7 5.8s-5.7-2.597-5.7-5.8 2.552-5.8 5.7-5.8 5.7 2.597 5.7 5.8z" data-color="1"></path>
        <path d="M77.8 141.2c-2.5 0-4.5-2-4.5-4.5V63.2c0-2.5 2-4.5 4.5-4.5s4.5 2 4.5 4.5v73.5c-.1 2.5-2.1 4.5-4.5 4.5z" fill="#e9202d" data-color="1"></path>
        <path d="M101.5 130c-2.5 0-4.5-2-4.5-4.5v-51c0-2.5 2-4.5 4.5-4.5s4.5 2 4.5 4.5v51c0 2.5-2 4.5-4.5 4.5z" fill="#e9202d" data-color="1"></path>
        <path d="M125.3 163.5c-2.5 0-4.5-2-4.5-4.5V41c0-2.5 2-4.5 4.5-4.5s4.5 2 4.5 4.5v118c-.1 2.5-2.1 4.5-4.5 4.5z" fill="#e9202d" data-color="1"></path>
        <path d="M149 117.8c-2.5 0-4.5-2-4.5-4.5V86.8c0-2.5 2-4.5 4.5-4.5s4.5 2 4.5 4.5v26.5c0 2.4-2 4.5-4.5 4.5z" fill="#e9202d" data-color="1"></path>
    </g>
</svg>