<svg preserveAspectRatio="xMidYMid meet" data-bbox="51 63.501 98 72.999" viewBox="51 63.501 98 72.999" height="200" width="200" xmlns="http://www.w3.org/2000/svg" data-type="color" role="img">
    <g>
        <path d="M148.549 64.176a1.92 1.92 0 0 0-2.031-.589L52.35 92.517a1.91 1.91 0 0 0-1.335 1.574 1.899 1.899 0 0 0 .891 1.859l20.69 12.756-.269 25.872a1.9 1.9 0 0 0 1.04 1.711 1.925 1.925 0 0 0 2.006-.157l13.703-9.943c.856-.62 1.04-1.81.417-2.657a1.925 1.925 0 0 0-2.677-.414l-10.617 7.703.24-23.148a1.9 1.9 0 0 0-.906-1.636l-18.038-11.12 85.833-26.371-32.023 62.709c-5.028-3.599-19.193-13.731-25.972-18.526 6.061-4.804 28.604-20.672 43.074-30.709a1.893 1.893 0 0 0 .472-2.649 1.927 1.927 0 0 0-2.667-.469c-45.804 31.774-45.806 32.761-45.809 34.011a1.957 1.957 0 0 0 .823 1.586c6.652 4.669 29.425 20.977 29.655 21.141a1.934 1.934 0 0 0 1.572.306 1.914 1.914 0 0 0 1.258-.989l35.082-68.696a1.89 1.89 0 0 0-.244-2.085z" fill="#EF3F23" data-color="1"></path>
    </g>
</svg>