<?xml version="1.0" encoding="UTF-8"?>
<svg width="34px" height="34px" viewBox="0 0 34 34" version="1.1" xmlns="http://www.w3.org/2000/svg" xmlns:xlink="http://www.w3.org/1999/xlink">
    <!-- Generator: Sketch 54.1 (76490) - https://sketchapp.com -->
    <title>Shape Copy</title>
    <desc>Created with Sketch.</desc>
    <g id="Page-1" stroke="none" stroke-width="1" fill="none" fill-rule="evenodd">
        <path d="M34,16.9997875 C34,26.3888875 26.3891,34 17,34 C7.6111125,34 0,26.3884625 0,16.9997875 C0,7.6111125 7.6111125,6.03961325e-16 17,0 C26.3888875,-6.03961325e-16 34,7.6111125 34,16.9997875 Z M13.1569375,23.9230375 C13.1569375,24.7381875 14.11,25.1804 14.7324125,24.6540375 L22.924925,17.731 C23.1401825,17.5491059 23.2643577,17.2816052 23.2643577,16.9997875 C23.2643577,16.7179698 23.1401825,16.4504691 22.924925,16.268575 L14.7324125,9.3455375 C14.11,8.8196 13.1569375,9.262025 13.1569375,10.07675 L13.1569375,23.9230375 Z" id="Shape-Copy" fill="#E9202D" fill-rule="nonzero"></path>
    </g>
</svg>