<svg width="120" height="120" viewBox="0 0 120 120" fill="none" xmlns="http://www.w3.org/2000/svg">
<path d="M108.884 92.3437L67.2219 19.2187C64.0323 13.5938 55.9832 13.5938 52.7721 19.2187L11.13 92.3437C7.9248 97.9487 11.9169 105 18.3412 105H101.664C108.063 105 112.067 97.9687 108.884 92.3437ZM55.3074 42.3214C55.3074 39.6596 57.407 37.5 59.995 37.5C62.583 37.5 64.6827 39.6696 64.6827 42.3214V68.0357C64.6827 70.6975 62.583 72.8571 60.1708 72.8571C57.7586 72.8571 55.3074 70.7076 55.3074 68.0357V42.3214ZM59.995 92.1429C56.6043 92.1429 53.8542 89.3143 53.8542 85.8268C53.8542 82.3393 56.6023 79.5107 59.995 79.5107C63.3877 79.5107 66.1359 82.3393 66.1359 85.8268C66.1281 89.3103 63.3936 92.1429 59.995 92.1429Z" fill="#9CC1E2"/>
</svg>
