<svg width="24" height="24" viewBox="0 0 24 24" fill="none" xmlns="http://www.w3.org/2000/svg">
<rect x="0.5" y="0.5" width="23" height="23" rx="5.5" fill="#1C3F5F"/>
<path d="M9.21631 6.87857L8.94548 7.71429H7.00016C6.08089 7.71429 5.3335 8.48304 5.3335 9.42857V16.2857C5.3335 17.2312 6.08089 18 7.00016 18H17.0002C17.9194 18 18.6668 17.2312 18.6668 16.2857V9.42857C18.6668 8.48304 17.9194 7.71429 17.0002 7.71429H15.0549L14.784 6.87857C14.6147 6.35357 14.1382 6 13.5991 6H10.4012C9.86214 6 9.38558 6.35357 9.21631 6.87857ZM12.0002 15.4286C10.62 15.4286 9.50016 14.2768 9.50016 12.8571C9.50016 11.4375 10.62 10.2857 12.0002 10.2857C13.3804 10.2857 14.5002 11.4375 14.5002 12.8571C14.5002 14.2768 13.3804 15.4286 12.0002 15.4286Z" fill="white"/>
<rect x="0.5" y="0.5" width="23" height="23" rx="5.5" stroke="white"/>
</svg>
