<svg width="16" height="16" viewBox="0 0 16 16" fill="none" xmlns="http://www.w3.org/2000/svg">
<path d="M14.2722 3.61031C14.7928 3.08972 14.7928 2.24428 14.2722 1.72369C13.7516 1.2031 12.9062 1.2031 12.3856 1.72369L8.00016 6.1133L3.61055 1.72786C3.08996 1.20727 2.24453 1.20727 1.72394 1.72786C1.20335 2.24845 1.20335 3.09388 1.72394 3.61447L6.11355 7.99992L1.7281 12.3895C1.20751 12.9101 1.20751 13.7556 1.7281 14.2761C2.24869 14.7967 3.09413 14.7967 3.61472 14.2761L8.00016 9.88653L12.3898 14.272C12.9104 14.7926 13.7558 14.7926 14.2764 14.272C14.797 13.7514 14.797 12.906 14.2764 12.3854L9.88678 7.99992L14.2722 3.61031Z" fill="#00B1B8"/>
</svg>
