<svg width="16" height="16" viewBox="0 0 16 16" fill="none" xmlns="http://www.w3.org/2000/svg">
<path d="M11.1109 5.42278L8.94461 7.60731V2.28588C8.94461 1.75939 8.52226 1.3335 8.00016 1.3335C7.47806 1.3335 7.05572 1.75939 7.05572 2.28588V7.60731L4.89028 5.42278C4.70582 5.23528 4.4641 5.14302 4.22239 5.14302C3.98067 5.14302 3.73924 5.23528 3.55478 5.42278C3.18586 5.79481 3.18586 6.39748 3.55478 6.76951L7.33256 10.579C7.70148 10.9511 8.29914 10.9511 8.66806 10.579L12.4458 6.76951C12.8148 6.39748 12.8148 5.79481 12.4458 5.42278C12.0769 5.05076 11.4799 5.05076 11.1109 5.42278ZM12.7224 12.7621H3.27794C2.75584 12.7621 2.3335 13.188 2.3335 13.7144C2.3335 14.2409 2.75584 14.6668 3.27794 14.6668H12.7224C13.2445 14.6668 13.6668 14.2409 13.6668 13.7144C13.6668 13.188 13.2448 12.7621 12.7224 12.7621Z" fill="#52F9FF"/>
</svg>
