<svg width="48" height="48" viewBox="0 0 48 48" fill="none" xmlns="http://www.w3.org/2000/svg">
<path d="M40.25 11.8571H25.25L20.25 7H7.75C5.67969 7 4 8.6317 4 10.6429V37.3571C4 39.3683 5.67969 41 7.75 41H40.25C42.3203 41 44 39.3683 44 37.3571V15.5C44 13.4888 42.3203 11.8571 40.25 11.8571ZM13.9297 19.1429C15.3102 19.1429 16.4297 20.2304 16.4297 21.5714C16.4297 22.9125 15.3102 24 13.9297 24C12.5492 24 11.4297 22.9125 11.4297 21.5714C11.4297 20.2304 12.6172 19.1429 13.9297 19.1429ZM36.3516 35.5054C36.1328 35.9 35.7109 36.1429 35.25 36.1429H12.75C12.2796 36.1429 11.8492 35.8864 11.6359 35.4788C11.4227 35.0715 11.4628 34.5825 11.7401 34.2129L17.2088 26.9272C17.4453 26.6107 17.8203 26.4286 18.1484 26.4286C18.4766 26.4286 18.9922 26.6107 19.2266 26.9295L20.9727 29.2563L25.8742 22.1141C26.0391 21.7763 26.4297 21.5714 26.9141 21.5714C27.3984 21.5714 27.7227 21.7742 27.9539 22.1122L36.2898 34.255C36.5469 34.625 36.5703 35.1031 36.3516 35.5054Z" fill="#00E2EB"/>
</svg>
