<svg width="20" height="20" viewBox="0 0 20 20" fill="none" xmlns="http://www.w3.org/2000/svg">
<path d="M10.0002 1.66663C8.23266 1.66861 6.53812 2.37163 5.28831 3.62144C4.0385 4.87125 3.33548 6.56579 3.3335 8.33329C3.3335 11.0458 5.30266 13.2983 7.3885 15.6825C8.0485 16.4375 8.73183 17.2183 9.34016 18.0083C9.41801 18.1093 9.518 18.1911 9.63242 18.2473C9.74684 18.3036 9.87265 18.3329 10.0002 18.3329C10.1277 18.3329 10.2535 18.3036 10.3679 18.2473C10.4823 18.1911 10.5823 18.1093 10.6602 18.0083C11.2685 17.2183 11.9518 16.4375 12.6118 15.6825C14.6977 13.2983 16.6668 11.0458 16.6668 8.33329C16.6648 6.56579 15.9618 4.87125 14.712 3.62144C13.4622 2.37163 11.7677 1.66861 10.0002 1.66663ZM10.0002 10.8333C9.50571 10.8333 9.02236 10.6867 8.61124 10.412C8.20011 10.1373 7.87968 9.74682 7.69046 9.29C7.50124 8.83319 7.45174 8.33052 7.5482 7.84557C7.64466 7.36061 7.88276 6.91516 8.2324 6.56553C8.58203 6.21589 9.02748 5.97779 9.51244 5.88133C9.99739 5.78487 10.5001 5.83437 10.9569 6.02359C11.4137 6.21281 11.8041 6.53324 12.0788 6.94437C12.3535 7.35549 12.5002 7.83884 12.5002 8.33329C12.5002 8.99633 12.2368 9.63222 11.7679 10.1011C11.2991 10.5699 10.6632 10.8333 10.0002 10.8333Z" fill="#00E2EB"/>
</svg>
