<svg width="18" height="18" viewBox="0 0 18 18" fill="none" xmlns="http://www.w3.org/2000/svg">
<path d="M14.2072 7.43653C14.2072 8.93045 13.7222 10.3105 12.9053 11.4301L17.0258 15.5538C17.4326 15.9607 17.4326 16.6214 17.0258 17.0282C16.6189 17.4351 15.9582 17.4351 15.5514 17.0282L11.4309 12.9045C10.3113 13.7247 8.93124 14.2064 7.43732 14.2064C3.69764 14.2064 0.66748 11.1762 0.66748 7.43653C0.66748 3.69684 3.69764 0.666687 7.43732 0.666687C11.177 0.666687 14.2072 3.69684 14.2072 7.43653ZM7.43732 12.1233C10.0248 12.1233 12.1241 10.024 12.1241 7.43653C12.1241 4.84902 10.0248 2.74972 7.43732 2.74972C4.84981 2.74972 2.75051 4.84902 2.75051 7.43653C2.75051 10.024 4.84981 12.1233 7.43732 12.1233Z" fill="#00E2EB"/>
</svg>
