<svg width="24" height="24" viewBox="0 0 24 24" fill="none" xmlns="http://www.w3.org/2000/svg">
<path d="M21.4408 7.07812C21.2559 6.04724 20.375 5.29651 19.3527 5.06213C17.8228 4.73437 14.9916 4.5 11.9283 4.5C8.86689 4.5 5.99032 4.73437 4.45869 5.06213C3.43821 5.29651 2.55549 5.99963 2.3706 7.07812C2.18391 8.25 1.99902 9.89062 1.99902 12C1.99902 14.1094 2.18391 15.75 2.41592 16.9219C2.60261 17.9528 3.48353 18.7035 4.50401 18.9379C6.12808 19.2656 8.9122 19.5 11.9755 19.5C15.0387 19.5 17.8228 19.2656 19.4469 18.9379C20.4674 18.7035 21.3483 18.0004 21.535 16.9219C21.7199 15.75 21.9519 14.0618 21.999 12C21.9048 9.89062 21.6728 8.25 21.4408 7.07812ZM9.42335 15.2812V8.71875L15.084 12L9.42335 15.2812Z" fill="white"/>
</svg>
