<svg width="24" height="24" viewBox="0 0 24 24" fill="none" xmlns="http://www.w3.org/2000/svg">
<path d="M21.9945 21.9992L21.9995 21.9984V14.6636C21.9995 11.0753 21.227 8.31119 17.0321 8.31119C15.0155 8.31119 13.6622 9.41783 13.1097 10.467H13.0513V8.64618H9.07392V21.9984H13.2155V15.3869C13.2155 13.6461 13.5455 11.9628 15.7013 11.9628C17.8254 11.9628 17.8571 13.9494 17.8571 15.4985V21.9992H21.9945Z" fill="white"/>
<path d="M2.32999 8.64779H6.47657V22H2.32999V8.64779Z" fill="white"/>
<path d="M4.40161 2C3.07581 2 2 3.07581 2 4.40161C2 5.72742 3.07581 6.82573 4.40161 6.82573C5.72742 6.82573 6.80323 5.72742 6.80323 4.40161C6.8024 3.07581 5.72659 2 4.40161 2Z" fill="white"/>
</svg>
