<svg width="24" height="24" viewBox="0 0 24 24" fill="none" xmlns="http://www.w3.org/2000/svg">
<path d="M19.2727 6.75C19.2727 6.75 17.1886 5.18025 14.7273 5L14.5055 5.427C16.7309 5.95112 17.7518 6.70231 18.8182 7.625C16.9795 6.72156 15.1641 5.875 12 5.875C8.83591 5.875 7.02045 6.72156 5.18182 7.625C6.24818 6.70231 7.46273 5.86844 9.49455 5.427L9.27273 5C6.69045 5.23494 4.72727 6.75 4.72727 6.75C4.72727 6.75 2.39955 9.99844 2 16.375C4.34636 18.9794 7.90909 19 7.90909 19L8.65409 18.0441C7.38955 17.621 5.96136 16.8654 4.72727 15.5C6.19909 16.5719 8.42045 17.6875 12 17.6875C15.5795 17.6875 17.8009 16.5719 19.2727 15.5C18.0386 16.8654 16.6105 17.621 15.3459 18.0441L16.0909 19C16.0909 19 19.6536 18.9794 22 16.375C21.6005 9.99844 19.2727 6.75 19.2727 6.75ZM9.04545 14.625C8.16682 14.625 7.45455 13.8414 7.45455 12.875C7.45455 11.9086 8.16682 11.125 9.04545 11.125C9.92409 11.125 10.6364 11.9086 10.6364 12.875C10.6364 13.8414 9.92409 14.625 9.04545 14.625ZM14.9545 14.625C14.0759 14.625 13.3636 13.8414 13.3636 12.875C13.3636 11.9086 14.0759 11.125 14.9545 11.125C15.8332 11.125 16.5455 11.9086 16.5455 12.875C16.5455 13.8414 15.8332 14.625 14.9545 14.625Z" fill="white"/>
</svg>
