<svg width="24" height="24" viewBox="0 0 24 24" fill="none" xmlns="http://www.w3.org/2000/svg">
<path d="M11.9995 2C9.2838 2 8.94298 2.01188 7.87634 2.06042C6.81179 2.10917 6.08515 2.27771 5.44933 2.525C4.79165 2.78042 4.23375 3.12208 3.67793 3.67813C3.1217 4.23396 2.78004 4.79187 2.5238 5.44937C2.27589 6.08542 2.10715 6.81229 2.05923 7.87646C2.01152 8.94312 1.99902 9.28417 1.99902 12C1.99902 14.7158 2.01111 15.0556 2.05944 16.1223C2.1084 17.1869 2.27693 17.9135 2.52401 18.5494C2.77962 19.2071 3.12128 19.765 3.67731 20.3208C4.23291 20.8771 4.79081 21.2196 5.44808 21.475C6.08431 21.7223 6.81117 21.8908 7.87551 21.9396C8.94214 21.9881 9.28276 22 11.9983 22C14.7143 22 15.054 21.9881 16.1207 21.9396C17.1852 21.8908 17.9127 21.7223 18.5489 21.475C19.2064 21.2196 19.7635 20.8771 20.3191 20.3208C20.8753 19.765 21.217 19.2071 21.4732 18.5496C21.719 17.9135 21.8878 17.1867 21.9378 16.1225C21.9857 15.0558 21.9982 14.7158 21.9982 12C21.9982 9.28417 21.9857 8.94333 21.9378 7.87667C21.8878 6.81208 21.719 6.08542 21.4732 5.44958C21.217 4.79187 20.8753 4.23396 20.3191 3.67813C19.7629 3.12188 19.2066 2.78021 18.5483 2.525C17.9108 2.27771 17.1838 2.10917 16.1192 2.06042C15.0526 2.01188 14.713 2 11.9964 2H11.9995ZM11.1025 3.80208C11.3687 3.80167 11.6658 3.80208 11.9995 3.80208C14.6695 3.80208 14.9859 3.81167 16.0403 3.85958C17.0152 3.90417 17.5444 4.06708 17.8969 4.20396C18.3635 4.38521 18.6962 4.60187 19.046 4.95187C19.396 5.30187 19.6126 5.63521 19.7943 6.10187C19.9312 6.45396 20.0943 6.98312 20.1387 7.95812C20.1866 9.01229 20.197 9.32896 20.197 11.9977C20.197 14.6665 20.1866 14.9831 20.1387 16.0373C20.0941 17.0123 19.9312 17.5415 19.7943 17.8935C19.6131 18.3602 19.396 18.6925 19.046 19.0423C18.696 19.3923 18.3637 19.609 17.8969 19.7902C17.5448 19.9277 17.0152 20.0902 16.0403 20.1348C14.9861 20.1827 14.6695 20.1931 11.9995 20.1931C9.32942 20.1931 9.01298 20.1827 7.95884 20.1348C6.98387 20.0898 6.45472 19.9269 6.10202 19.79C5.63537 19.6087 5.30205 19.3921 4.95206 19.0421C4.60207 18.6921 4.38541 18.3596 4.20375 17.8927C4.06688 17.5406 3.90376 17.0115 3.85938 16.0365C3.81147 14.9823 3.80188 14.6656 3.80188 11.9952C3.80188 9.32479 3.81147 9.00979 3.85938 7.95563C3.90396 6.98063 4.06688 6.45146 4.20375 6.09896C4.38499 5.63229 4.60207 5.29896 4.95206 4.94896C5.30205 4.59896 5.63537 4.38229 6.10202 4.20062C6.45451 4.06312 6.98387 3.90063 7.95884 3.85583C8.88131 3.81417 9.2388 3.80167 11.1025 3.79958V3.80208ZM17.3373 5.4625C16.6748 5.4625 16.1373 5.99937 16.1373 6.66208C16.1373 7.32458 16.6748 7.86208 17.3373 7.86208C17.9998 7.86208 18.5373 7.32458 18.5373 6.66208C18.5373 5.99958 17.9998 5.46208 17.3373 5.46208V5.4625ZM11.9995 6.86458C9.16359 6.86458 6.86429 9.16396 6.86429 12C6.86429 14.836 9.16359 17.1344 11.9995 17.1344C14.8355 17.1344 17.134 14.836 17.134 12C17.134 9.16396 14.8353 6.86458 11.9993 6.86458H11.9995ZM11.9995 8.66667C13.8403 8.66667 15.3328 10.159 15.3328 12C15.3328 13.8408 13.8403 15.3333 11.9995 15.3333C10.1586 15.3333 8.66632 13.8408 8.66632 12C8.66632 10.159 10.1586 8.66667 11.9995 8.66667Z" fill="white"/>
</svg>
