<svg width="24" height="24" viewBox="0 0 24 24" fill="none" xmlns="http://www.w3.org/2000/svg">
<path d="M22 5.80363C21.2563 6.12988 20.4637 6.34613 19.6375 6.45113C20.4875 5.94363 21.1363 5.14613 21.4412 4.18488C20.6488 4.65738 19.7738 4.99113 18.8412 5.17738C18.0887 4.37613 17.0162 3.87988 15.8462 3.87988C13.5763 3.87988 11.7487 5.72238 11.7487 7.98113C11.7487 8.30613 11.7762 8.61863 11.8438 8.91613C8.435 8.74988 5.41875 7.11613 3.3925 4.62738C3.03875 5.24113 2.83125 5.94363 2.83125 6.69988C2.83125 8.11988 3.5625 9.37863 4.6525 10.1074C3.99375 10.0949 3.3475 9.90363 2.8 9.60238C2.8 9.61488 2.8 9.63113 2.8 9.64738C2.8 11.6399 4.22125 13.2949 6.085 13.6761C5.75125 13.7674 5.3875 13.8111 5.01 13.8111C4.7475 13.8111 4.4825 13.7961 4.23375 13.7411C4.765 15.3649 6.2725 16.5586 8.065 16.5974C6.67 17.6886 4.89875 18.3461 2.98125 18.3461C2.645 18.3461 2.3225 18.3311 2 18.2899C3.81625 19.4611 5.96875 20.1299 8.29 20.1299C15.835 20.1299 19.96 13.8799 19.96 8.46238C19.96 8.28113 19.9538 8.10613 19.945 7.93238C20.7588 7.35488 21.4425 6.63363 22 5.80363Z" fill="white"/>
</svg>
