<svg width="24" height="24" viewBox="0 0 24 24" fill="none" xmlns="http://www.w3.org/2000/svg">
<path d="M6.43151 14.0866L5.73533 16.6856L3.1908 16.7394C2.43036 15.3289 1.99902 13.7152 1.99902 12.0003C1.99902 10.3421 2.40231 8.7783 3.11716 7.40137H3.11771L5.38306 7.81669L6.37541 10.0684C6.16772 10.674 6.05451 11.324 6.05451 12.0003C6.05459 12.7344 6.18756 13.4377 6.43151 14.0866Z" fill="white"/>
<path d="M21.8243 10.1328C21.9392 10.7377 21.999 11.3625 21.999 12.001C21.999 12.7169 21.9238 13.4153 21.7804 14.0889C21.2936 16.3813 20.0216 18.3829 18.2595 19.7994L18.2589 19.7989L15.4056 19.6533L15.0018 17.1324C16.171 16.4467 17.0848 15.3736 17.5661 14.0889H12.2188V10.1328H17.6441H21.8243Z" fill="white"/>
<path d="M18.2597 19.7975L18.2603 19.7981C16.5466 21.1756 14.3696 21.9998 11.9998 21.9998C8.19148 21.9998 4.88045 19.8712 3.19141 16.7387L6.43212 14.0859C7.27662 16.3398 9.45083 17.9442 11.9998 17.9442C13.0954 17.9442 14.1218 17.6481 15.0026 17.131L18.2597 19.7975Z" fill="white"/>
<path d="M18.3822 4.30222L15.1426 6.95445C14.2311 6.38467 13.1536 6.05553 11.9992 6.05553C9.39255 6.05553 7.17768 7.73356 6.37548 10.0682L3.11773 7.40117H3.11719C4.78151 4.19234 8.13429 2 11.9992 2C14.4256 2 16.6503 2.86431 18.3822 4.30222Z" fill="white"/>
</svg>
