<svg width="24" height="24" viewBox="0 0 24 24" fill="none" xmlns="http://www.w3.org/2000/svg">
<g clip-path="url(#clip0_953_979)">
<path d="M20.6984 6.9C20.6984 6.8 20.6984 6.8 20.6984 6.9C20.3984 6.8 20.1984 6.8 19.8984 6.7C19.0984 6.6 16.4984 5.2 15.9984 2.9C15.9984 2.9 15.8984 2.3 15.8984 2.1C15.8984 2 15.8984 2 15.7984 2C15.7984 2 15.7984 2 15.6984 2C14.6984 2 13.5984 2 12.5984 2C12.4984 2 12.4984 2 12.4984 2.2C12.4984 6.7 12.4984 11.1 12.4984 15.6C12.4984 15.8 12.4984 15.9 12.4984 16.1C12.2984 17 11.8984 17.6 11.1984 18.1C10.5984 18.5 9.79844 18.6 9.09844 18.5C8.89844 18.5 8.59844 18.4 8.39844 18.3C8.39844 18.3 8.39844 18.3 8.29844 18.3C8.19844 18.2 8.09844 18.2 8.09844 18.1C7.09844 17.4 6.69844 16.5 6.79844 15.4C6.89844 14.2 7.59844 13.4 8.69844 13C8.99844 12.9 9.39844 12.8 9.69844 12.8C9.89844 12.8 10.1984 12.8 10.3984 12.9C10.4984 12.9 10.4984 12.9 10.4984 12.8V12.7C10.4984 11.9 10.4984 10.1 10.4984 10.1C10.4984 9.9 10.4984 9.6 10.4984 9.4C10.4984 9.3 10.4984 9.3 10.3984 9.3C9.99844 9.3 9.59844 9.2 9.19844 9.3C8.59844 9.3 8.09844 9.5 7.49844 9.7C6.59844 10 5.79844 10.5 5.19844 11.1C4.59844 11.7 4.19844 12.3 3.89844 13C3.59844 13.7 3.39844 14.4 3.39844 15.2C3.39844 15.5 3.39844 15.9 3.39844 16.2C3.39844 16.7 3.49844 17.1 3.69844 17.5C4.09844 18.7 4.79844 19.8 5.79844 20.6C5.89844 20.7 5.99844 20.8 6.09844 20.8C6.19844 20.8 6.19844 20.9 6.29844 20.9C6.49844 21 6.59844 21.1 6.79844 21.2C7.89844 21.8 9.19844 22 10.3984 21.8C12.0984 21.6 13.3984 20.9 14.4984 19.6C15.4984 18.4 15.9984 17 15.9984 15.5C15.9984 13.3 15.9984 11 15.9984 8.8C15.9984 8.7 15.9984 8.7 15.9984 8.6C15.9984 8.6 16.0984 8.6 16.0984 8.7C16.8984 9.2 17.7984 9.6 18.7984 9.9C19.3984 10 19.8984 10.1 20.4984 10.1C20.6984 10.1 20.6984 10.1 20.6984 9.9C20.7984 9.2 20.6984 7.1 20.6984 6.9Z" fill="white"/>
</g>
<defs>
<clipPath id="clip0_953_979">
<rect width="17.5" height="20" fill="white" transform="translate(3.29883 2)"/>
</clipPath>
</defs>
</svg>
