<svg width="20" height="20" viewBox="0 0 20 20" fill="none" xmlns="http://www.w3.org/2000/svg">
<path d="M3.75081 2.5C2.60173 2.5 1.66748 3.46094 1.66748 4.64286V15.3571C1.66748 16.5391 2.60173 17.5 3.75081 17.5H16.2508C17.3999 17.5 18.3341 16.5391 18.3341 15.3571V7.85714C18.3341 6.67522 17.3999 5.71429 16.2508 5.71429H4.27165C3.98519 5.71429 3.75081 5.47321 3.75081 5.17857C3.75081 4.88393 3.98519 4.64286 4.27165 4.64286H16.2508C16.827 4.64286 17.2925 4.16406 17.2925 3.57143C17.2925 2.97879 16.827 2.5 16.2508 2.5H3.75081ZM15.2091 12.6786C14.633 12.6786 14.1675 12.1998 14.1675 11.6071C14.1675 11.0145 14.633 10.5357 15.2091 10.5357C15.7853 10.5357 16.2508 11.0145 16.2508 11.6071C16.2508 12.1998 15.7853 12.6786 15.2091 12.6786Z" fill="#0F2233"/>
</svg>
