<svg xmlns="http://www.w3.org/2000/svg" width="38.864" height="48.731" viewBox="0 0 38.864 48.731">
  <g id="Group_6475" data-name="Group 6475" transform="translate(166.132 -364.096)">
    <path id="Path_5536" data-name="Path 5536" d="M-163.933,390.592a2.189,2.189,0,0,0-2.2,2.189V403.4a2.2,2.2,0,0,0,2.2,2.2,2.2,2.2,0,0,0,2.194-2.2V392.781A2.185,2.185,0,0,0-163.933,390.592Z" transform="translate(0 -8.515)"/>
    <path id="Path_5537" data-name="Path 5537" d="M-113.151,390.592a2.188,2.188,0,0,0-2.194,2.189V403.4a2.2,2.2,0,0,0,2.194,2.2,2.209,2.209,0,0,0,2.2-2.2V392.781A2.193,2.193,0,0,0-113.151,390.592Z" transform="translate(-16.321 -8.515)"/>
    <path id="Path_5538" data-name="Path 5538" d="M-156.753,390.592v19.677a3.3,3.3,0,0,0,3.294,3.293h3.523v5.582a2.2,2.2,0,0,0,2.2,2.2,2.2,2.2,0,0,0,2.2-2.2v-5.582h3.749v5.582a2.2,2.2,0,0,0,2.193,2.2,2.2,2.2,0,0,0,2.2-2.2v-5.582h3.525a3.3,3.3,0,0,0,3.3-3.293v-19.6a.461.461,0,0,0-.01-.08Z" transform="translate(-3.014 -8.515)"/>
    <path id="Path_5539" data-name="Path 5539" d="M-137.232,368.734l2.349-4.378-.481-.261-2.355,4.378a12.966,12.966,0,0,0-5.908-1.416,12.885,12.885,0,0,0-5.627,1.285l-2.284-4.247-.487.261,2.274,4.227a13.027,13.027,0,0,0-6.866,11.385h25.991A13,13,0,0,0-137.232,368.734Zm-13.087,6.224a1.248,1.248,0,0,1-1.24-1.234,1.25,1.25,0,0,1,1.24-1.245,1.247,1.247,0,0,1,1.24,1.245A1.245,1.245,0,0,1-150.319,374.959Zm13.177,0a1.236,1.236,0,0,1-1.23-1.234,1.238,1.238,0,0,1,1.23-1.245,1.239,1.239,0,0,1,1.235,1.245A1.237,1.237,0,0,1-137.142,374.959Z" transform="translate(-3.058)"/>
  </g>
</svg>
