<?xml version="1.0" standalone="no"?>
<!DOCTYPE svg PUBLIC "-//W3C//DTD SVG 20010904//EN"
 "http://www.w3.org/TR/2001/REC-SVG-20010904/DTD/svg10.dtd">
<svg version="1.0" xmlns="http://www.w3.org/2000/svg"
 width="700.000000pt" height="700.000000pt" viewBox="0 0 700.000000 700.000000"
 preserveAspectRatio="xMidYMid meet">
<metadata>
Created by potrace 1.14, written by Peter Selinger 2001-2017
</metadata>
<g transform="translate(0.000000,700.000000) scale(0.100000,-0.100000)"
fill="#000000" stroke="none">
<path d="M3160 6494 c-672 -81 -1268 -362 -1744 -823 -512 -496 -821 -1124
-902 -1831 -23 -201 -15 -586 15 -784 79 -508 275 -963 600 -1391 97 -129 397
-429 526 -526 459 -348 956 -551 1505 -614 177 -20 504 -20 680 1 695 80 1321
388 1807 887 448 461 724 1016 825 1662 19 121 22 180 22 435 0 255 -3 314
-22 435 -77 493 -258 937 -540 1325 -512 704 -1282 1144 -2151 1230 -142 14
-482 11 -621 -6z m444 -469 c78 -20 136 -56 194 -119 42 -47 81 -125 307 -610
142 -306 262 -559 266 -562 9 -5 278 -53 814 -144 401 -68 439 -80 532 -164
99 -89 155 -247 133 -378 -19 -122 -34 -141 -378 -475 -174 -169 -376 -366
-449 -438 l-132 -130 110 -590 c96 -515 109 -601 106 -675 -5 -116 -32 -183
-109 -266 -138 -147 -312 -172 -510 -73 -260 130 -651 386 -906 593 l-83 66
-137 -103 c-244 -184 -445 -317 -721 -476 -175 -102 -215 -120 -292 -132 -126
-20 -270 30 -357 125 -62 68 -92 132 -105 221 -9 66 -5 95 72 523 45 248 96
529 115 622 l33 170 -421 406 c-232 223 -438 428 -459 457 -85 115 -102 296
-40 429 61 131 171 213 323 243 41 8 300 53 575 100 275 47 513 88 529 93 26
6 44 41 235 452 315 676 304 653 360 713 107 113 254 159 395 122z"/>
<path d="M3403 5443 c-50 -104 -150 -318 -221 -478 -192 -429 -207 -458 -261
-514 -77 -79 -146 -108 -329 -137 -284 -46 -1047 -175 -1049 -178 -1 -1 134
-133 300 -293 584 -563 620 -606 647 -753 14 -78 23 -19 -107 -728 -58 -320
-103 -585 -100 -588 10 -10 92 36 384 216 128 78 363 242 472 328 l53 42 -55
57 c-253 271 -446 623 -512 938 -25 119 -24 307 3 418 79 324 324 574 658 669
113 32 305 32 419 0 180 -51 362 -169 472 -305 71 -88 144 -226 173 -327 31
-106 38 -322 15 -445 -33 -180 -111 -378 -219 -560 -58 -97 -215 -318 -285
-400 -28 -33 -50 -63 -49 -67 4 -10 277 -210 388 -283 166 -109 470 -285 494
-285 3 0 6 8 6 19 0 24 -69 404 -155 856 -64 333 -67 353 -57 423 7 49 22 98
46 147 34 69 61 97 471 495 240 233 434 424 432 426 -3 4 -882 158 -1077 189
-178 28 -285 94 -348 212 -17 32 -124 258 -237 503 -275 590 -275 590 -279
590 -1 0 -44 -84 -93 -187z"/>
<path d="M3386 4039 c-67 -16 -171 -78 -230 -137 -106 -106 -153 -236 -143
-397 14 -232 161 -503 450 -830 l35 -40 54 59 c207 230 356 479 409 685 21 81
25 198 9 280 -41 215 -254 392 -470 390 -41 -1 -92 -5 -114 -10z m219 -273
c169 -78 181 -312 21 -411 -43 -26 -59 -30 -121 -30 -62 0 -78 4 -121 30 -156
97 -150 336 11 415 57 28 146 26 210 -4z"/>
</g>
</svg>
