<svg xmlns="http://www.w3.org/2000/svg" viewBox="0 0 61.313 90">
  <defs>
    <style>
      .cls-1 {
        fill: #56acee;
      }

      .cls-2 {
        fill: #fff;
      }
    </style>
  </defs>
  <g id="Group_759" data-name="Group 759" transform="translate(0 0)">
    <g id="Group_753" data-name="Group 753" transform="translate(18.694)">
      <g id="Group_749" data-name="Group 749">
        <path id="Path_1160" data-name="Path 1160" class="cls-1" d="M87.555,11.992a11.977,11.977,0,1,0-23.955,0,12.291,12.291,0,0,0,1.088,5h0l10.875,22.72,10.875-22.72h0A11.95,11.95,0,0,0,87.555,11.992Z" transform="translate(-63.6)"/>
      </g>
      <g id="Group_752" data-name="Group 752" transform="translate(8.812 7.682)">
        <g id="Group_750" data-name="Group 750" transform="translate(0 3.686)">
          <path id="Path_1161" data-name="Path 1161" class="cls-2" d="M98.554,51.734a.675.675,0,0,1-.412-.118c-2.469-1.47-3.968-3.321-4.409-5.555a9.653,9.653,0,0,1,1.7-7.054.8.8,0,1,1,1.293.941c-.029.059-2.028,2.822-1.411,5.761a6.891,6.891,0,0,0,3.645,4.468.847.847,0,0,1,.294,1.117A.831.831,0,0,1,98.554,51.734Z" transform="translate(-93.581 -38.677)"/>
        </g>
        <g id="Group_751" data-name="Group 751" transform="translate(0.751)">
          <path id="Path_1162" data-name="Path 1162" class="cls-2" d="M98.918,31.74a2.425,2.425,0,0,1-1.088-.235,2.929,2.929,0,0,1-1.5-1.528,2.8,2.8,0,1,1,5.173.059h0A2.844,2.844,0,0,1,98.918,31.74Zm0-3.968a1.179,1.179,0,0,0-.441.088,1.185,1.185,0,0,0-.029,2.175,1.2,1.2,0,0,0,1.558-.617h0a1.213,1.213,0,0,0-.617-1.558A1.331,1.331,0,0,0,98.918,27.772Zm1.822,1.94Z" transform="translate(-96.137 -26.137)"/>
        </g>
      </g>
    </g>
    <g id="Group_754" data-name="Group 754" transform="translate(0 48.351)">
      <path id="Path_1163" data-name="Path 1163" class="cls-1" d="M11.522,166.2,2.969,190.067H12.08v2.087H0l8.524-23.867H.353V166.2Z" transform="translate(0 -165.7)"/>
      <path id="Path_1164" data-name="Path 1164" class="cls-1" d="M44.82,183.635v7.319H42.734v-7.319H40l1.264-2.087H42.7V171.231a6.382,6.382,0,0,1,.911-3.351,6.634,6.634,0,0,1,2.469-2.469,6.456,6.456,0,0,1,3.351-.911,6.382,6.382,0,0,1,3.351.911,6.855,6.855,0,0,1,2.469,2.469,6.456,6.456,0,0,1,.911,3.351v19.722H54.108v-7.319Zm0-2.116h9.288V171.2a4.539,4.539,0,0,0-.676-2.44,4.614,4.614,0,0,0-4-2.2,4.308,4.308,0,0,0-3.351,1.411,4.709,4.709,0,0,0-1.293,3.233v10.317Z" transform="translate(-28.243 -164.5)"/>
      <path id="Path_1165" data-name="Path 1165" class="cls-1" d="M105.087,172.495v18.459H103V164.5l10.758,19.017V165h2.087v26.453Z" transform="translate(-72.726 -164.5)"/>
      <path id="Path_1166" data-name="Path 1166" class="cls-1" d="M164.051,166.2,155.5,190.067h9.112v2.087H152.5l8.524-23.867h-8.171V166.2Z" transform="translate(-107.676 -165.7)"/>
      <path id="Path_1167" data-name="Path 1167" class="cls-1" d="M201.5,192.154V166.2h2.087v25.954Z" transform="translate(-142.274 -165.7)"/>
    </g>
    <g id="Group_758" data-name="Group 758" transform="translate(3.703 79.566)">
      <g id="Group_755" data-name="Group 755" transform="translate(10.787)">
        <path id="Path_1168" data-name="Path 1168" class="cls-1" d="M53.356,277.078a1.573,1.573,0,0,0-.47-1.176,1.676,1.676,0,0,0-1.146-.47,1.605,1.605,0,0,0-1.617,1.617v3.88H49.3V270.7h.823v4.527a2.367,2.367,0,0,1,1.617-.617,2.326,2.326,0,0,1,1.734.705,2.373,2.373,0,0,1,.705,1.734v3.88h-.823Z" transform="translate(-49.3 -270.7)"/>
        <path id="Path_1169" data-name="Path 1169" class="cls-1" d="M71.463,284.1a3.212,3.212,0,0,1,3.233,3.233,3.224,3.224,0,0,1-.941,2.293,3.263,3.263,0,0,1-5.555-2.293,3.042,3.042,0,0,1,.97-2.292A3.106,3.106,0,0,1,71.463,284.1Zm0,.823a2.373,2.373,0,0,0-1.734.706,2.326,2.326,0,0,0-.705,1.734,2.373,2.373,0,0,0,.705,1.734,2.448,2.448,0,0,0,3.439,0,2.355,2.355,0,0,0,.705-1.7,2.307,2.307,0,0,0-.705-1.7A2.118,2.118,0,0,0,71.463,284.923Z" transform="translate(-62.645 -280.161)"/>
        <path id="Path_1170" data-name="Path 1170" class="cls-1" d="M101.6,290.349h-.823V286.41a1.466,1.466,0,0,0-.47-1.146,1.562,1.562,0,0,0-2.175,0,1.466,1.466,0,0,0-.47,1.146v3.939h-.823V286.41a1.466,1.466,0,0,0-.47-1.146,1.562,1.562,0,0,0-2.175,0,1.466,1.466,0,0,0-.47,1.146v3.939H92.9v-6.172l.705.529a2.307,2.307,0,0,1,1.7-.705,2.223,2.223,0,0,1,1.146.294,2.144,2.144,0,0,1,.852.764,2.235,2.235,0,0,1,1.969-1.029,2.129,2.129,0,0,1,.97.206,2.375,2.375,0,0,1,1.234,1.235,2.6,2.6,0,0,1,.206.97v3.909Z" transform="translate(-80.085 -280.091)"/>
        <path id="Path_1171" data-name="Path 1171" class="cls-1" d="M130.179,288.48l.735.411a3.162,3.162,0,0,1-1.176,1.235,3.075,3.075,0,0,1-1.675.47,3.313,3.313,0,0,1-3.263-3.263,3.042,3.042,0,0,1,.97-2.293,3.106,3.106,0,0,1,2.293-.941,3.287,3.287,0,0,1,2.733,1.47l-4.2,3.7a2.315,2.315,0,0,0,1.47.47,2.372,2.372,0,0,0,2.116-1.264Zm-4.144.206,3.586-3.2a2.461,2.461,0,0,0-3.321.117,2.327,2.327,0,0,0-.705,1.734A2.47,2.47,0,0,0,126.034,288.685Z" transform="translate(-102.609 -280.161)"/>
        <path id="Path_1172" data-name="Path 1172" class="cls-1" d="M147.764,289.167a1.008,1.008,0,0,0,1,.588,1.136,1.136,0,0,0,.794-.323,1.169,1.169,0,0,0,.118-1.47.924.924,0,0,0-.558-.382l-.735-.206a1.806,1.806,0,0,1-.882-.588,1.487,1.487,0,0,1-.323-.97,1.613,1.613,0,0,1,2.5-1.352,1.468,1.468,0,0,1,.588.735l-.764.323a.689.689,0,0,0-.735-.47.753.753,0,0,0-.558.235.8.8,0,0,0-.235.558.733.733,0,0,0,.588.764l.735.206a1.8,1.8,0,0,1,1,.676,1.88,1.88,0,0,1,.382,1.176,1.85,1.85,0,0,1-.265.97,2.026,2.026,0,0,1-.705.705,1.85,1.85,0,0,1-.97.265,1.955,1.955,0,0,1-1-.265,2.294,2.294,0,0,1-.735-.764Z" transform="translate(-118.283 -280.232)"/>
      </g>
      <g id="Group_756" data-name="Group 756" transform="translate(47.587 6.319)">
        <rect id="Rectangle_636" data-name="Rectangle 636" class="cls-1" width="6.349" height="0.47"/>
      </g>
      <g id="Group_757" data-name="Group 757" transform="translate(0 6.319)">
        <rect id="Rectangle_637" data-name="Rectangle 637" class="cls-1" width="6.349" height="0.47"/>
      </g>
    </g>
  </g>
</svg>
