<svg width="141" height="100" viewBox="0 0 141 100" fill="none" xmlns="http://www.w3.org/2000/svg">
<path fill-rule="evenodd" clip-rule="evenodd" d="M92.7183 0H46.615C44.6268 0 43 1.62613 43 3.61497V24.4394C45.6177 40.7107 60.043 53.1845 77.5023 53.3333H78.0944C78.3857 53.3305 78.6757 53.3236 78.9653 53.3144V53.3333H92.7183C94.7065 53.3333 96.3333 51.7065 96.3333 49.7183V3.61497C96.3333 1.6268 94.7072 0 92.7183 0ZM66.5986 53.3333C54.2893 48.974 45.0506 38.1217 43 24.8934V49.7183C43 51.7065 44.6268 53.3333 46.615 53.3333H66.5986ZM71.2774 15.349L71.2771 15.3481L71.2774 15.3477V15.349ZM71.2771 15.3481C70.9424 14.5951 69.9409 11.9646 69.9409 11.3382H57.7C56.2376 11.3382 54.0234 11.255 52.5611 11.1298L52.5191 11.3382C53.48 11.7977 53.7724 12.1739 53.8143 13.1348C53.9118 15.1844 53.9084 17.3353 53.9021 21.2454V21.2455C53.9003 22.3562 53.8982 23.6089 53.8982 25.0415C53.8982 26.4735 53.9003 27.7254 53.9022 28.836C53.9086 32.715 53.9122 34.8696 53.8143 36.9482C53.7724 37.9091 53.48 38.2847 52.5191 38.7448L52.5611 38.912C53.3949 38.7305 54.7948 38.7381 55.7509 38.7433C55.8967 38.7441 56.0322 38.7448 56.1537 38.7448C56.8643 38.7448 58.577 38.7868 59.5379 38.912L59.5799 38.7448C58.619 38.2853 58.3266 37.9091 58.2847 36.9482C58.1861 35.6658 58.1911 34.4355 58.1977 32.8089V32.8086C58.1995 32.3683 58.2014 31.899 58.2014 31.3917V25.3758V25.2919C66.5148 25.2919 67.4757 25.6262 67.9352 27.4641L68.1443 27.4222C68.0191 26.4612 67.9771 25.7507 67.9771 24.6233C67.9771 23.4952 68.0191 22.8266 68.1443 21.8238L67.9352 21.7818C67.4757 23.4946 66.5148 23.8708 58.2014 23.996V18.6899C58.2014 18.2712 58.1997 17.8717 58.198 17.4801V17.48C58.1913 15.9567 58.1851 14.5511 58.2847 12.5901C59.0856 12.4901 59.833 12.4967 60.5911 12.5035L60.5913 12.5035C60.7823 12.5052 60.974 12.5069 61.1674 12.5069C65.0111 12.5069 68.3534 13.1335 71.069 15.5981L71.2771 15.3481ZM91.1786 37.3928C91.2111 38.1365 91.4371 38.4275 92.1808 38.7827L92.1814 38.7814L92.149 38.9106C91.6963 38.8139 89.9504 38.7814 89.4652 38.7814C88.9482 38.7814 87.2022 38.8139 86.7495 38.9106L86.717 38.7814C87.3315 38.4904 87.6868 38.1994 87.7192 37.3914C87.7943 35.7623 87.7916 34.1723 87.7866 31.1759C87.7852 30.3064 87.7835 29.3184 87.7835 28.1767C87.7835 25.5776 87.8307 23.7462 87.8681 22.2972C87.8926 21.3487 87.9128 20.5639 87.9128 19.835C87.0755 21.5095 86.2382 23.4408 84.7803 26.8036C84.6051 27.2077 84.421 27.6325 84.2268 28.08C82.666 31.6352 81.6719 34.1584 80.9232 36.0589C80.5552 36.993 80.2464 37.7767 79.9588 38.4586H78.8923C78.2265 36.879 77.1833 34.6591 75.677 31.4536C75.21 30.4597 74.6984 29.3711 74.1398 28.1774C73.2205 26.2089 72.5564 24.7705 72.0257 23.6209C71.3621 22.1836 70.907 21.1977 70.4219 20.1916L70.1959 19.8038C70.2021 19.9262 70.2085 20.0498 70.2149 20.1753C70.3087 22.0059 70.4219 24.2142 70.4219 28.1781C70.4219 33.1573 70.5194 35.3234 70.6162 37.3928C70.6486 38.1683 71.0039 38.4918 71.6184 38.7827L71.5859 38.912C71.1007 38.8152 70.3245 38.7827 69.8075 38.7827C69.3223 38.7827 68.5143 38.8152 68.0291 38.912L67.9966 38.7827C68.6754 38.4275 68.9663 38.169 68.9988 37.3928C69.0963 35.3234 69.193 33.1573 69.193 28.1781C69.193 27.0718 69.1946 26.1042 69.196 25.2461C69.2008 22.2164 69.2035 20.5506 69.1281 18.9634C69.0956 18.2839 68.8696 17.9287 68.1259 17.5727L68.1584 17.411C68.5136 17.5084 69.775 17.5727 70.4213 17.5727C70.7104 17.5727 71.3523 17.5527 71.919 17.535C72.367 17.521 72.7681 17.5084 72.9109 17.5084C73.6517 19.2282 74.8687 21.8786 76.5619 25.566C76.9381 26.3851 77.3377 27.2554 77.7608 28.1781L80.5732 34.1595C81.2692 32.6327 81.9338 31.0279 82.4917 29.6809C82.7371 29.0883 82.9619 28.5455 83.1596 28.0813C84.7204 24.4973 85.788 21.8558 86.586 19.8814C86.9616 18.9522 87.2775 18.1707 87.5568 17.5084C87.6643 17.5084 87.9772 17.5195 88.3436 17.5324C88.8611 17.5507 89.4852 17.5727 89.7879 17.5727C90.5641 17.5727 91.4046 17.5078 92.1483 17.411L92.1808 17.5727C91.4371 17.8644 91.2111 18.2197 91.1786 18.9634C91.1028 20.5464 91.1056 22.2076 91.1106 25.2221C91.112 26.0862 91.1136 27.0615 91.1136 28.1781C91.1136 29.2761 91.1121 30.2373 91.1107 31.0908C91.1058 34.1079 91.1031 35.7798 91.1786 37.3928Z" fill="url(#paint0_linear_67_5679)"/>
<path d="M17.0783 77.7773C16.7683 77.1055 15.864 74.7026 15.864 74.1342H4.72819C3.38466 74.1342 1.36937 74.0567 0.0516742 73.9534L0 74.1342C0.878462 74.5476 1.13683 74.8835 1.18851 75.762C1.29186 78.1648 1.26602 80.6969 1.26602 86.6136C1.26602 92.4786 1.29186 95.0106 1.18851 97.4651C1.13683 98.3178 0.878462 98.6536 0 99.0929L0.0258371 99.2479C0.904299 99.067 2.45452 99.0929 3.30715 99.0929C3.95308 99.0929 5.5033 99.1187 6.38176 99.2479L6.4076 99.0929C5.52914 98.6795 5.27077 98.3436 5.21909 97.4651C5.14158 95.9666 5.16742 94.5455 5.16742 92.3752V86.9236V86.8461C12.7377 86.8461 13.6162 87.1561 14.0295 88.8355L14.2104 88.8097C14.1071 87.9312 14.0554 87.2853 14.0554 86.2518C14.0554 85.2183 14.0812 84.6241 14.2104 83.694L14.0295 83.6681C13.6162 85.2183 12.7377 85.5801 5.16742 85.6834V80.826C5.16742 78.9658 5.14158 77.5189 5.24493 75.2711C6.14923 75.1677 7.00185 75.1936 7.88032 75.1936C11.3683 75.1936 14.4171 75.762 16.8975 78.0098L17.0783 77.7773Z" fill="url(#paint1_linear_67_5679)"/>
<path d="M24.3386 99.0928C23.5893 98.757 23.2018 98.1885 23.1501 97.4651C23.0468 95.0364 23.0726 92.4785 23.0726 86.6135C23.0726 80.6452 23.0726 75.8911 23.2535 73.4624L23.1243 73.3333C21.9358 74.0567 20.308 74.3926 18.6028 74.5993L18.6286 74.7543C19.197 74.7543 19.8171 75.1418 19.843 76.227C19.9463 78.6557 19.9205 80.7227 19.9205 86.6135C19.9205 92.4785 19.9463 95.0106 19.843 97.4651C19.8171 98.3436 19.4554 98.757 18.6545 99.0928L18.6803 99.2479C19.2487 99.1445 20.7989 99.0928 21.419 99.0928C22.0391 99.0928 23.6927 99.1187 24.2611 99.2479L24.3386 99.0928Z" fill="url(#paint2_linear_67_5679)"/>
<path d="M38.9886 87.5952C37.5417 84.8048 34.6221 84.1589 31.16 85.9675C27.4911 87.8794 25.76 91.8066 27.7753 95.7081C29.8681 99.7645 34.2863 100.333 37.6968 98.576C40.1254 97.31 41.1331 94.9588 41.4431 93.5119L41.2623 93.1502C40.7455 94.5454 40.0479 95.4497 38.1101 96.4573C35.5523 97.8009 32.581 97.0516 31.0308 94.0545C30.6949 93.4085 30.4107 92.7885 30.204 92.22L38.9886 87.5952ZM29.8939 91.1349C29.5839 89.2746 29.9973 87.9569 31.7284 87.0526C33.1753 86.3033 34.3638 86.7684 35.0614 88.1119L29.8939 91.1349Z" fill="url(#paint3_linear_67_5679)"/>
<path d="M55.5243 87.5952C54.0774 84.8048 51.1578 84.1589 47.6956 85.9675C44.0267 87.8794 42.2957 91.8066 44.311 95.7081C46.4038 99.7645 50.8219 100.333 54.2324 98.576C56.6611 97.31 57.6687 94.9588 57.9788 93.5119L57.7979 93.1502C57.2812 94.5454 56.5836 95.4497 54.6458 96.4573C52.0879 97.8009 49.1167 97.0516 47.5664 94.0545C47.2305 93.4085 46.9463 92.7885 46.7396 92.22L55.5243 87.5952ZM46.4296 91.1349C46.1195 89.2746 46.5329 87.9569 48.264 87.0526C49.7109 86.3033 50.8994 86.7684 51.597 88.1119L46.4296 91.1349Z" fill="url(#paint4_linear_67_5679)"/>
<path fill-rule="evenodd" clip-rule="evenodd" d="M74.2562 93.8736C73.1969 94.933 68.0036 98.3435 66.9702 98.3435C65.6266 98.3693 64.9549 97.7234 64.929 95.8631C64.929 93.6928 64.8515 91.6775 64.8515 87.156H69.1405V85.9933H64.8515V85.244C64.8515 84.2881 64.929 82.8412 64.9549 82.0402L64.6448 82.0144C64.0247 84.2881 61.6735 86.4325 58.9348 86.8459L59.0123 87.1818H61.6735C61.6735 91.3158 61.6477 93.5378 61.596 95.8889C61.5444 98.3176 63.0688 99.8678 65.6525 99.997C68.0812 100.126 73.4553 95.7081 74.4887 94.0545L74.2562 93.8736Z" fill="url(#paint5_linear_67_5679)"/>
<path d="M100.481 99.0929C99.6022 98.6795 99.3438 98.3436 99.2921 97.4651C99.1888 95.0364 99.2146 92.4786 99.2146 86.6136C99.2146 80.7227 99.1888 78.1648 99.2921 75.762C99.318 74.8835 99.6022 74.4701 100.481 74.1342L100.455 73.9534C99.5763 74.0567 98.5945 74.1342 97.6902 74.1342C97.0701 74.1342 95.3649 74.0567 95.0548 74.0567C94.0214 76.4854 92.5745 80.2835 89.8874 86.4844C89.1381 88.2671 88.0271 91.0575 86.8386 93.6412L83.5315 86.6136C80.7928 80.6452 78.8808 76.5371 77.8215 74.0567C77.4339 74.0567 75.4961 74.1342 74.9019 74.1342C74.1526 74.1342 72.6541 74.0567 72.2407 73.9534L72.2148 74.1342C73.0933 74.5476 73.3517 74.961 73.4033 75.762C73.5067 78.1648 73.4809 80.6969 73.4809 86.6136C73.4809 92.4786 73.3775 95.0106 73.2483 97.4651C73.2225 98.3694 72.8608 98.6795 72.0598 99.0929L72.0857 99.2479C72.6541 99.1445 73.61 99.0929 74.1785 99.0929C74.7986 99.0929 75.7029 99.1187 76.2713 99.2479L76.2971 99.0929C75.5737 98.757 75.1603 98.3694 75.1086 97.4651C75.0052 95.0364 74.8761 92.4786 74.8761 86.6136C74.8761 81.627 74.721 79.0174 74.6177 76.7696L74.8761 77.2347C75.9095 79.3533 76.8138 81.4203 79.2425 86.6394C82.0071 92.5819 83.8157 96.3025 84.8233 98.7312H86.0894C87.1229 96.3025 88.363 92.7628 91.1018 86.5102C93.2204 81.6012 94.3314 79.0174 95.4424 76.8213C95.4424 78.9916 95.2874 81.5753 95.2874 86.6394C95.2874 92.6078 95.3132 95.0106 95.2099 97.491C95.184 98.4469 94.7448 98.7828 94.0214 99.1187L94.0472 99.2737C94.5898 99.1704 96.6309 99.1187 97.251 99.1187C97.8194 99.1187 99.8864 99.1445 100.403 99.2737L100.481 99.0929Z" fill="url(#paint6_linear_67_5679)"/>
<path d="M115.285 98.2403C114.717 98.2145 114.071 97.8269 114.019 96.7159C113.916 94.2872 113.942 91.9877 113.942 89.7141C113.942 86.9495 111.539 85.4509 107.482 85.4509C105.545 85.4509 103.684 85.9935 102.031 87.4662V89.559L102.212 89.6365C103.4 87.6988 105.26 86.5878 107.431 86.5878C109.291 86.5878 110.789 87.5696 110.789 89.7141V90.9284C109.601 90.5925 108.697 90.4633 107.586 90.4633C103.71 90.4633 100.325 92.2461 100.325 95.0365C100.325 97.9302 102.522 99.6097 105.984 99.6097C107.818 99.6097 109.678 98.7054 110.712 97.4393C110.712 98.1111 110.686 98.8087 110.609 99.5322L110.712 99.6355C111.668 99.0154 113.115 98.6537 115.285 98.3695V98.2403ZM110.764 96.1475C109.549 97.491 108.128 98.1628 106.656 98.1628C104.873 98.1628 103.736 96.8968 103.736 95.0365C103.736 92.9179 105.364 91.471 107.922 91.471C109.136 91.471 109.937 91.626 110.815 91.8844C110.815 93.8222 110.815 95.0882 110.764 96.1475Z" fill="url(#paint7_linear_67_5679)"/>
<path d="M128.178 86.2001C127.842 85.6317 126.964 85.4766 126.24 85.4766C124.613 85.4766 123.347 86.5876 122.468 88.1379C122.494 87.2594 122.494 86.4326 122.623 85.4766L122.468 85.3733C121.099 86.0967 119.471 86.4843 117.947 86.7427L117.973 86.8977C118.541 86.8977 119.161 87.3111 119.187 88.3704C119.213 89.1713 119.264 90.2823 119.264 91.7551C119.264 93.5895 119.29 96.0957 119.187 97.4651C119.161 98.266 118.774 98.8086 117.998 99.0928L118.024 99.2478C118.567 99.1445 120.195 99.0928 120.789 99.0928C121.435 99.0928 123.063 99.1186 123.605 99.2478L123.631 99.0928C122.882 98.7569 122.494 98.2143 122.442 97.4651C122.339 95.9148 122.365 93.8479 122.365 91.7551V89.5589C123.011 88.3704 123.812 87.802 125.285 87.802C126.499 87.802 127.532 88.6029 127.946 89.6364L128.101 89.5331L128.178 86.2001Z" fill="url(#paint8_linear_67_5679)"/>
<path d="M139.908 96.8449C138.848 97.9042 137.996 98.3176 136.988 98.3693C135.644 98.3693 134.973 97.7492 134.947 95.8889C134.947 93.7186 134.869 91.7033 134.869 87.1818H139.158V85.9933H134.869V85.244C134.869 84.2881 134.947 82.8412 134.973 82.0402L134.663 82.0144C134.043 84.2881 131.691 86.4325 128.953 86.8459L129.03 87.1818H131.691C131.691 91.3158 131.614 93.5378 131.614 95.8889C131.511 98.3176 132.673 99.6611 135.257 99.6611C137.737 99.6611 139.107 98.6793 140.114 97.0258L139.908 96.8449Z" fill="url(#paint9_linear_67_5679)"/>
<defs>
<linearGradient id="paint0_linear_67_5679" x1="52.792" y1="42.7625" x2="100.04" y2="9.22216" gradientUnits="userSpaceOnUse">
<stop stop-color="#06194F"/>
<stop offset="0.4" stop-color="#0B2A93"/>
<stop offset="1" stop-color="#0091C9"/>
</linearGradient>
<linearGradient id="paint1_linear_67_5679" x1="1.01999" y1="86.592" x2="134.554" y2="87.16" gradientUnits="userSpaceOnUse">
<stop stop-color="#06194F"/>
<stop offset="0.4" stop-color="#0B2A93"/>
<stop offset="1" stop-color="#0091C9"/>
</linearGradient>
<linearGradient id="paint2_linear_67_5679" x1="1.02174" y1="86.1989" x2="134.556" y2="86.767" gradientUnits="userSpaceOnUse">
<stop stop-color="#06194F"/>
<stop offset="0.4" stop-color="#0B2A93"/>
<stop offset="1" stop-color="#0091C9"/>
</linearGradient>
<linearGradient id="paint3_linear_67_5679" x1="0.997047" y1="92.085" x2="134.531" y2="92.653" gradientUnits="userSpaceOnUse">
<stop stop-color="#06194F"/>
<stop offset="0.4" stop-color="#0B2A93"/>
<stop offset="1" stop-color="#0091C9"/>
</linearGradient>
<linearGradient id="paint4_linear_67_5679" x1="0.997243" y1="92.0146" x2="134.532" y2="92.5827" gradientUnits="userSpaceOnUse">
<stop stop-color="#06194F"/>
<stop offset="0.4" stop-color="#0B2A93"/>
<stop offset="1" stop-color="#0091C9"/>
</linearGradient>
<linearGradient id="paint5_linear_67_5679" x1="1.00278" y1="90.7319" x2="134.537" y2="91.2998" gradientUnits="userSpaceOnUse">
<stop stop-color="#06194F"/>
<stop offset="0.4" stop-color="#0B2A93"/>
<stop offset="1" stop-color="#0091C9"/>
</linearGradient>
<linearGradient id="paint6_linear_67_5679" x1="1.02168" y1="86.2253" x2="134.556" y2="86.7933" gradientUnits="userSpaceOnUse">
<stop stop-color="#06194F"/>
<stop offset="0.4" stop-color="#0B2A93"/>
<stop offset="1" stop-color="#0091C9"/>
</linearGradient>
<linearGradient id="paint7_linear_67_5679" x1="0.996483" y1="92.0992" x2="134.531" y2="92.6673" gradientUnits="userSpaceOnUse">
<stop stop-color="#06194F"/>
<stop offset="0.4" stop-color="#0B2A93"/>
<stop offset="1" stop-color="#0091C9"/>
</linearGradient>
<linearGradient id="paint8_linear_67_5679" x1="0.998277" y1="91.7853" x2="134.533" y2="92.3534" gradientUnits="userSpaceOnUse">
<stop stop-color="#06194F"/>
<stop offset="0.4" stop-color="#0B2A93"/>
<stop offset="1" stop-color="#0091C9"/>
</linearGradient>
<linearGradient id="paint9_linear_67_5679" x1="1.00409" y1="90.2587" x2="134.538" y2="90.8267" gradientUnits="userSpaceOnUse">
<stop stop-color="#06194F"/>
<stop offset="0.4" stop-color="#0B2A93"/>
<stop offset="1" stop-color="#0091C9"/>
</linearGradient>
</defs>
</svg>
