<?xml version="1.0" encoding="UTF-8"?>
<svg width="65px" height="65px" viewBox="0 0 65 65" version="1.1" xmlns="http://www.w3.org/2000/svg" xmlns:xlink="http://www.w3.org/1999/xlink">
    <title>logo-fleet-mart</title>
    <defs>
        <filter id="filter-1">
            <feColorMatrix in="SourceGraphic" type="matrix" values="0 0 0 0 1.000000 0 0 0 0 1.000000 0 0 0 0 1.000000 0 0 0 1.000000 0"></feColorMatrix>
        </filter>
        <linearGradient x1="18.3599177%" y1="80.1797376%" x2="106.949317%" y2="17.2915608%" id="linearGradient-2">
            <stop stop-color="#06194F" offset="0%"></stop>
            <stop stop-color="#0B2A93" offset="40%"></stop>
            <stop stop-color="#0091C9" offset="100%"></stop>
        </linearGradient>
    </defs>
    <g id="Page-1" stroke="none" stroke-width="1" fill="none" fill-rule="evenodd">
        <g id="logo-fleet-mart" transform="translate(-30.000000, -1.000000)" filter="url(#filter-1)">
            <g transform="translate(30.000000, 1.000000)">
                <path d="M59.8461019,0 L4.35135278,0 C1.95818519,0 0,1.9573787 0,4.35135278 L0,29.4177963 C3.1509713,49.0036204 20.5147222,64.0183796 41.5305463,64.1974907 L42.2432593,64.1974907 C42.5938981,64.1941204 42.9429722,64.1858148 43.2915648,64.1747407 L43.2915648,64.1974907 L59.8461019,64.1974907 C62.2393056,64.1974907 64.1974907,62.2393056 64.1974907,59.8461019 L64.1974907,4.35135278 C64.1974907,1.95818519 62.2401481,0 59.8461019,0 Z M28.4057222,64.1974907 C13.5889722,58.9501852 2.46833889,45.8872315 0,29.9642778 L0,59.8461019 C0,62.2393056 1.95818519,64.1974907 4.35135278,64.1974907 L28.4057222,64.1974907 Z M34.03725,18.4745648 C33.6343704,17.5681759 32.4288611,14.4018333 32.4288611,13.6478333 L17.6944444,13.6478333 C15.9341481,13.6478333 13.2689074,13.5476852 11.5087074,13.3969815 L11.4582,13.6478333 C12.6148148,14.2009352 12.9667778,14.6537685 13.017213,15.8104074 C13.1345741,18.2775185 13.1304815,20.8665648 13.1228981,25.5731667 L13.1228981,25.573287 C13.1207315,26.9102407 13.1182037,28.4181204 13.1182037,30.1425463 C13.1182037,31.86625 13.1207315,33.3731667 13.1230185,34.71 C13.1307222,39.3791667 13.1350556,41.9726667 13.017213,44.4746852 C12.9667778,45.6313241 12.6148148,46.0834352 11.4582,46.6372593 L11.5087074,46.8385185 C12.5123796,46.6200463 14.1974444,46.6291944 15.3483056,46.6354537 C15.5238056,46.6364167 15.6869074,46.6372593 15.8331574,46.6372593 C16.6885093,46.6372593 18.7500926,46.6878148 19.9067315,46.8385185 L19.957287,46.6372593 C18.8006481,46.0841574 18.4486852,45.6313241 18.39825,44.4746852 C18.2795648,42.9310556 18.2855833,41.4501389 18.2935278,39.4921944 L18.2935278,39.4918333 C18.2956944,38.9618426 18.2979815,38.3969444 18.2979815,37.7863056 L18.2979815,30.5449444 L18.2979815,30.4439537 C28.3048519,30.4439537 29.4614907,30.8463519 30.0145926,33.0586389 L30.266287,33.0082037 C30.1155833,31.8514444 30.0650278,30.996213 30.0650278,29.6391574 C30.0650278,28.2812593 30.1155833,27.476463 30.266287,26.2693889 L30.0145926,26.2188333 C29.4614907,28.280537 28.3048519,28.7333704 18.2979815,28.8840741 L18.2979815,22.4971019 C18.2979815,21.9931111 18.2959352,21.5122315 18.2938889,21.0408611 L18.2938889,21.0407407 C18.2858241,19.2071389 18.2783611,17.515213 18.39825,15.15475 C19.3622963,15.0343796 20.2619444,15.0423241 21.1744722,15.0505093 L21.174713,15.0505093 C21.4046204,15.0525556 21.6353704,15.0546019 21.8681667,15.0546019 C26.4948426,15.0546019 30.5179815,15.8088426 33.7867593,18.7754907 L34.03725,18.4745648 Z M57.9927593,45.0098519 C58.0318796,45.9050463 58.3039167,46.2553241 59.1991111,46.6828796 L59.1998333,46.6813148 L59.1608333,46.8368333 C58.6159167,46.7204352 56.5143704,46.6813148 55.9303333,46.6813148 C55.3080185,46.6813148 53.2063519,46.7204352 52.6614352,46.8368333 L52.6223148,46.6813148 C53.3619907,46.331037 53.7896667,45.9807593 53.8286667,45.0081667 C53.9190648,43.047213 53.9158148,41.1333241 53.9097963,37.5265463 C53.9081111,36.4799259 53.9060648,35.2906667 53.9060648,33.9163981 C53.9060648,30.7878519 53.9628796,28.5833889 54.0078981,26.8392222 C54.0373889,25.6975093 54.0617037,24.7528426 54.0617037,23.875463 C53.0538426,25.8910648 52.0459815,28.2157778 50.2911019,32.2635926 C50.080213,32.7500093 49.8586111,33.2613426 49.6248519,33.8 C47.7461111,38.0794074 46.5495093,41.1165926 45.6482963,43.4042315 C45.2053333,44.5286111 44.8336296,45.4719537 44.4874444,46.2927593 L43.2036944,46.2927593 C42.4022685,44.3913889 41.1465648,41.719287 39.3334259,37.8608148 C38.7712963,36.6644537 38.1554815,35.3541019 37.4830926,33.9172407 C36.3765278,31.54775 35.5771481,29.8163426 34.9383426,28.4325648 C34.1395648,26.7024815 33.5917593,25.51575 33.0078426,24.3047037 L32.7358056,23.8379074 C32.7432685,23.9852407 32.7509722,24.1340185 32.7586759,24.2850833 C32.8715833,26.4885833 33.0078426,29.1467222 33.0078426,33.9180833 C33.0078426,39.9115648 33.1252037,42.5189074 33.2417222,45.0098519 C33.2807222,45.9433241 33.7083981,46.3327222 34.4480741,46.6828796 L34.4089537,46.8385185 C33.8249167,46.722 32.8906019,46.6828796 32.268287,46.6828796 C31.68425,46.6828796 30.7116574,46.722 30.1276204,46.8385185 L30.0885,46.6828796 C30.9055741,46.2553241 31.2557315,45.9441667 31.2948519,45.0098519 C31.412213,42.5189074 31.5286111,39.9115648 31.5286111,33.9180833 C31.5286111,32.5864259 31.530537,31.4217222 31.5322222,30.3888241 C31.538,26.741963 31.54125,24.7368333 31.4504907,22.8263148 C31.4113704,22.0083981 31.1393333,21.5808426 30.2441389,21.1523241 L30.2832593,20.9576852 C30.7108148,21.0749259 32.2291667,21.1523241 33.0071204,21.1523241 C33.3551111,21.1523241 34.1277685,21.12825 34.8099074,21.1069444 C35.3491667,21.0900926 35.8319722,21.0749259 36.0038611,21.0749259 C36.8955648,23.1450556 38.3604722,26.3353519 40.3985833,30.7738889 C40.8514167,31.7598426 41.3324167,32.8074259 41.8417037,33.9180833 L45.227,41.1179167 C46.0647778,39.2801019 46.8647593,37.3483981 47.5363056,35.7270093 C47.8316944,35.0136944 48.102287,34.3603241 48.3402593,33.8015648 C50.219,29.4874907 51.5040741,26.3079074 52.4646296,23.9313148 C52.9167407,22.8128333 53.2969907,21.8721389 53.6331852,21.0749259 C53.7625833,21.0749259 54.1392222,21.088287 54.5802593,21.1038148 C55.2031759,21.1258426 55.9544074,21.1523241 56.3187685,21.1523241 C57.2530833,21.1523241 58.2647963,21.0742037 59.1599907,20.9576852 L59.1991111,21.1523241 C58.3039167,21.5034444 58.0318796,21.9311204 57.9927593,22.8263148 C57.9015185,24.7317778 57.9048889,26.7313704 57.9109074,30.3599352 C57.9125926,31.4000556 57.9145185,32.5740278 57.9145185,33.9180833 C57.9145185,35.23975 57.912713,36.39675 57.9110278,37.4241111 C57.9051296,41.0558056 57.9018796,43.0682778 57.9927593,45.0098519 Z" id="Shape" fill="url(#linearGradient-2)"></path>
            </g>
        </g>
    </g>
</svg>