<svg xmlns="http://www.w3.org/2000/svg" xmlns:xlink="http://www.w3.org/1999/xlink" width="18" height="34" viewBox="0 0 18 34">
  <defs>
    <clipPath id="clip-Artboard_6">
      <rect width="18" height="34"/>
    </clipPath>
  </defs>
  <g id="Artboard_6" data-name="Artboard – 6" clip-path="url(#clip-Artboard_6)">
    <g id="Layout_icon">
      <path id="Shape" d="M3.353,16a2.353,2.353,0,0,1-2.348-2.2L1,13.647V2.353A2.353,2.353,0,0,1,3.2.005L3.353,0H14.647a2.353,2.353,0,0,1,2.348,2.2L17,2.353V13.647a2.353,2.353,0,0,1-2.2,2.348L14.647,16ZM11.04,5.96h-9.1v7.687a1.412,1.412,0,0,0,1.276,1.405l.136.006H11.04Zm.941,0v9.1h2.666a1.412,1.412,0,0,0,1.405-1.276l.006-.136V5.96ZM14.647.941H3.353A1.412,1.412,0,0,0,1.948,2.217l-.006.136V5.019H16.059V2.353A1.412,1.412,0,0,0,14.783.948Z"/>
      <g id="Group" transform="translate(1 18)">
        <path id="Shape-2" data-name="Shape" d="M10.04,5.96v9.1H2.353l-.136-.006A1.412,1.412,0,0,1,.948,13.783l-.006-.136V5.96Zm.941,0h4.078v7.687l-.006.136a1.412,1.412,0,0,1-1.269,1.269l-.136.006H10.981ZM13.647.941l.136.006a1.412,1.412,0,0,1,1.269,1.269l.006.136V5.019H.941V2.353l.006-.136A1.412,1.412,0,0,1,2.217.948L2.353.941Z" fill="#ff565c"/>
        <path id="Shape-Copy" d="M2.353,16A2.353,2.353,0,0,1,.005,13.8L0,13.647V2.353A2.353,2.353,0,0,1,2.2.005L2.353,0H13.647a2.353,2.353,0,0,1,2.348,2.2L16,2.353V13.647a2.353,2.353,0,0,1-2.2,2.348L13.647,16ZM10.04,5.96H.941v7.687a1.412,1.412,0,0,0,1.276,1.405l.136.006H10.04Zm.941,0v9.1h2.666a1.412,1.412,0,0,0,1.405-1.276l.006-.136V5.96ZM13.647.941H2.353A1.412,1.412,0,0,0,.948,2.217l-.006.136V5.019H15.059V2.353A1.412,1.412,0,0,0,13.783.948Z"/>
      </g>
    </g>
  </g>
</svg>
