<svg xmlns="http://www.w3.org/2000/svg" width="49.606" height="40.693" viewBox="0 0 49.606 40.693">
  <g id="camera" transform="translate(0 -46)">
    <g id="Group_307" data-name="Group 307" transform="translate(37.98 57.627)">
      <g id="Group_306" data-name="Group 306">
        <path id="Path_2212" data-name="Path 2212" d="M392.969,166a.969.969,0,1,0,.969.969A.969.969,0,0,0,392.969,166Z" transform="translate(-392 -166)" fill="#5067eb"/>
      </g>
    </g>
    <g id="Group_309" data-name="Group 309" transform="translate(0 46)">
      <g id="Group_308" data-name="Group 308">
        <path id="Path_2213" data-name="Path 2213" d="M46.7,53.751H36.06l-3.072-6.144A2.891,2.891,0,0,0,30.388,46H19.219a2.891,2.891,0,0,0-2.6,1.607l-3.072,6.144h-1.92v-.969A2.91,2.91,0,0,0,8.72,49.876H6.782a2.91,2.91,0,0,0-2.907,2.907v.969H2.907A2.91,2.91,0,0,0,0,56.658V83.786a2.91,2.91,0,0,0,2.907,2.907H46.7a2.91,2.91,0,0,0,2.907-2.907V56.658A2.91,2.91,0,0,0,46.7,53.751ZM18.352,48.474a.964.964,0,0,1,.867-.536H30.388a.964.964,0,0,1,.867.536l2.639,5.277H15.713ZM5.813,52.782a.97.97,0,0,1,.969-.969H8.72a.97.97,0,0,1,.969.969v.969H5.813ZM1.938,63.43H14.189a12.615,12.615,0,0,0,0,13.574H1.938ZM24.8,59.564A10.658,10.658,0,1,1,14.146,70.222,10.663,10.663,0,0,1,24.8,59.564ZM47.669,83.786a.97.97,0,0,1-.969.969H2.907a.97.97,0,0,1-.969-.969V78.942h13.78a12.588,12.588,0,0,0,18.171,0h13.78Zm0-6.782H35.417a12.6,12.6,0,0,0,0-13.564H47.669Zm0-15.5H33.889a12.588,12.588,0,0,0-18.171,0H1.938V56.658a.97.97,0,0,1,.969-.969H46.7a.97.97,0,0,1,.969.969Z" transform="translate(0 -46)" fill="#5067eb"/>
      </g>
    </g>
    <g id="Group_311" data-name="Group 311" transform="translate(20.928 49.876)">
      <g id="Group_310" data-name="Group 310">
        <path id="Path_2214" data-name="Path 2214" d="M222.782,86h-5.813a.969.969,0,0,0,0,1.938h5.813a.969.969,0,1,0,0-1.938Z" transform="translate(-216 -86)" fill="#5067eb"/>
      </g>
    </g>
    <g id="Group_313" data-name="Group 313" transform="translate(16.083 61.502)">
      <g id="Group_312" data-name="Group 312">
        <path id="Path_2215" data-name="Path 2215" d="M174.72,206a8.72,8.72,0,1,0,8.72,8.72A8.73,8.73,0,0,0,174.72,206Zm0,15.5a6.782,6.782,0,1,1,6.782-6.782A6.79,6.79,0,0,1,174.72,221.5Z" transform="translate(-166 -206)" fill="#5067eb"/>
      </g>
    </g>
    <g id="Group_315" data-name="Group 315" transform="translate(19.959 65.378)">
      <g id="Group_314" data-name="Group 314">
        <path id="Path_2216" data-name="Path 2216" d="M210.844,246A4.85,4.85,0,0,0,206,250.844a.969.969,0,0,0,1.938,0,2.91,2.91,0,0,1,2.907-2.907.969.969,0,0,0,0-1.938Z" transform="translate(-206 -246)" fill="#5067eb"/>
      </g>
    </g>
    <g id="Group_317" data-name="Group 317" transform="translate(41.855 57.627)">
      <g id="Group_316" data-name="Group 316">
        <path id="Path_2217" data-name="Path 2217" d="M434.907,166h-1.938a.969.969,0,0,0,0,1.938h1.938a.969.969,0,0,0,0-1.938Z" transform="translate(-432 -166)" fill="#5067eb"/>
      </g>
    </g>
  </g>
</svg>
