<svg xmlns="http://www.w3.org/2000/svg" xmlns:xlink="http://www.w3.org/1999/xlink" width="45" height="40" viewBox="0 0 45 40">
  <defs>
    <clipPath id="clip-Artboard_6">
      <rect width="45" height="40"/>
    </clipPath>
  </defs>
  <g id="Artboard_6" data-name="Artboard – 6" clip-path="url(#clip-Artboard_6)">
    <g id="Group_329" data-name="Group 329" transform="translate(11 6.773)">
      <path id="Path_433" data-name="Path 433" d="M1570.079,2125.366H1568.8v-4.34h1.278a.426.426,0,0,0,0-.852h-1.366a1,1,0,0,0-.906-.588h-4.3a1,1,0,0,0-.906.588h-6.2a5.792,5.792,0,0,0-5.785,5.785v3.14h-.142a.426.426,0,0,0,0,.852h6.329a.426.426,0,0,0,0-.852h-.142v-2.88h5.938a1,1,0,0,0,.906.588h4.3a1,1,0,0,0,.906-.588h1.366a.426.426,0,0,0,0-.853Zm-2.131.446a.144.144,0,0,1-.141.142h-4.3a.145.145,0,0,1-.142-.142v-.568a.426.426,0,0,0-.852,0v.123h-6.109a.593.593,0,0,0-.593.592v3.14h-4.34v-3.14a4.938,4.938,0,0,1,4.932-4.933h6.11v2.513a.426.426,0,0,0,.852,0v-2.959a.144.144,0,0,1,.142-.142h4.3a.144.144,0,0,1,.141.142Zm0,0" transform="translate(-1548.132 -2115.042)" fill="#fff"/>
      <path id="Path_434" data-name="Path 434" d="M1570.983,2113.531h2.291v1.419h-1.155a.426.426,0,1,0,0,.852h3.161a.426.426,0,1,0,0-.852h-1.154v-1.419h2.29a.426.426,0,1,0,0-.852h-2.29v-.142a.426.426,0,1,0-.852,0v.142h-2.291a.426.426,0,1,0,0,.852Zm0,0" transform="translate(-1556.173 -2112.111)" fill="#fff"/>
      <path id="Path_435" data-name="Path 435" d="M1552.68,2138.142a.428.428,0,0,0-.552,0c-.213.182-5.236,4.49-5.236,7.771a31.562,31.562,0,0,1,7.956,3.067,3.071,3.071,0,0,0,3.067-3.067c0-3.282-5.022-7.59-5.235-7.771Zm4.384,7.771a2.216,2.216,0,0,1-4.265.841.426.426,0,0,0-.788,0,2.216,2.216,0,0,1-4.266-.841c0-2.486,3.62-5.938,4.66-6.878a26.676,26.676,0,0,1,2.22,2.262c1.6,1.847,2.439,3.442,2.439,4.616Zm0,0" transform="translate(-1546.892 -2122.28)" fill="#fff"/>
    </g>
  </g>
</svg>
