<svg xmlns="http://www.w3.org/2000/svg" xmlns:xlink="http://www.w3.org/1999/xlink" width="45" height="40" viewBox="0 0 45 40">
  <defs>
    <clipPath id="clip-Artboard_2">
      <rect width="45" height="40"/>
    </clipPath>
  </defs>
  <g id="Artboard_2" data-name="Artboard – 2" clip-path="url(#clip-Artboard_2)">
    <path id="Path_410" data-name="Path 410" d="M428.392,2123.148a.744.744,0,0,0-.424-.421l-9.884-3.795-.181-.18,1.259-1.258a1.813,1.813,0,0,0,0-2.561l-3.205-3.2a1.81,1.81,0,0,0-2.56,0l-1.259,1.258-.337-.337a.741.741,0,0,0-1.048,0l-6.709,6.708a.742.742,0,0,0,0,1.049l.337.337-3.52,3.521a4.013,4.013,0,0,0-1.181,2.85,2.562,2.562,0,0,1-.746,1.8l-8.312,8.312a1.977,1.977,0,0,1-1.566.573,3.427,3.427,0,0,0-1.476.2,3.487,3.487,0,0,0-1.259.8l-.939.939a2.184,2.184,0,0,0,0,3.085l2.681,2.68a2.182,2.182,0,0,0,3.084,0l19-19,.18.18,3.795,9.883a.738.738,0,0,0,.421.424.743.743,0,0,0,.6-.024,29.016,29.016,0,0,0,13.227-13.228.743.743,0,0,0,.024-.6Zm-13.947-10.371a.328.328,0,0,1,.464,0l3.205,3.2a.329.329,0,0,1,0,.464l-1.259,1.259-3.669-3.669ZM390.1,2144.46a.7.7,0,0,1-.988,0l-2.68-2.681a.7.7,0,0,1,0-.988l.939-.94a1.989,1.989,0,0,1,1.564-.573,3.453,3.453,0,0,0,2.736-1l8.312-8.312a4.043,4.043,0,0,0,1.18-2.849,2.536,2.536,0,0,1,.746-1.8l3.52-3.52,3.669,3.669Zm25.11-9.187-.453-1.182a28.777,28.777,0,0,0,7.561-6.243.741.741,0,1,0-1.124-.966,27.317,27.317,0,0,1-6.975,5.807l-2.564-6.677a.739.739,0,0,0-.168-.259l-5.87-5.87,5.661-5.66,5.87,5.87a.746.746,0,0,0,.258.168l6.678,2.564c-.221.378-.45.752-.686,1.117a.741.741,0,1,0,1.244.807c.292-.451.576-.916.844-1.386l1.183.454a27.542,27.542,0,0,1-11.457,11.457Zm0,0" transform="translate(-383.746 -2108.198)" fill="#fff"/>
  </g>
</svg>
