<svg xmlns="http://www.w3.org/2000/svg" xmlns:xlink="http://www.w3.org/1999/xlink" width="45" height="40" viewBox="0 0 45 40">
  <defs>
    <clipPath id="clip-Artboard_4">
      <rect width="45" height="40"/>
    </clipPath>
  </defs>
  <g id="Artboard_4" data-name="Artboard – 4" clip-path="url(#clip-Artboard_4)">
    <path id="Path_423" data-name="Path 423" d="M992.228,2118.148v2.48a.133.133,0,0,1-.132.135h-.327V2113.9h4.576a.458.458,0,1,0,0-.916h-5.032a.463.463,0,0,0-.058.011.357.357,0,0,0-.178.062.318.318,0,0,0-.054.03l-19.461,16a.454.454,0,0,0-.062.643.445.445,0,0,0,.353.168.452.452,0,0,0,.291-.1l.865-.711v6.324h-2.157a1.049,1.049,0,0,0-1.048,1.047v3.528h27V2117.1h-3.529a1.051,1.051,0,0,0-1.048,1.048Zm-3.529,2.615a1.049,1.049,0,0,0-1.048,1.046v2.615h-.458v-7l3.663-3.012v6.355Zm-4.118,3.661a1.047,1.047,0,0,0-1.048,1.048v2.48a.132.132,0,0,1-.132.132h-.327v-7.278l3.2-2.635v6.253Zm-4.576,3.66a1.05,1.05,0,0,0-1.048,1.048v2.483a.133.133,0,0,1-.132.132H978.5v-7.177l3.663-3.011v6.525Zm-6.082.248,3.663-3.01v6.425h-2.157a1.048,1.048,0,0,0-1.048,1.049v2.48a.132.132,0,0,1-.132.132h-.327Zm21.968,10.738h-25.17v-2.615a.13.13,0,0,1,.131-.132h3.4a1.051,1.051,0,0,0,1.048-1.048v-2.48a.132.132,0,0,1,.131-.135h3.4a1.049,1.049,0,0,0,1.048-1.045v-2.483A.132.132,0,0,1,980,2129h3.4a1.05,1.05,0,0,0,1.048-1.048v-2.48a.131.131,0,0,1,.132-.132h3.986v-3.531a.132.132,0,0,1,.132-.132h3.4a1.048,1.048,0,0,0,1.048-1.049v-2.48a.13.13,0,0,1,.132-.131h2.615Zm0,0" transform="translate(-960.804 -2105.982)" fill="#fff"/>
  </g>
</svg>
