<svg xmlns="http://www.w3.org/2000/svg" xmlns:xlink="http://www.w3.org/1999/xlink" width="45" height="40" viewBox="0 0 45 40">
  <defs>
    <clipPath id="clip-Artboard_5">
      <rect width="45" height="40"/>
    </clipPath>
  </defs>
  <g id="Artboard_5" data-name="Artboard – 5" clip-path="url(#clip-Artboard_5)">
    <g id="Group_328" data-name="Group 328" transform="translate(7 4)">
      <path id="Path_429" data-name="Path 429" d="M1354.708,2137.816a6.236,6.236,0,0,0-1.156,2.423,1.592,1.592,0,1,0,3.184,0,6.243,6.243,0,0,0-1.155-2.423.55.55,0,0,0-.873,0Zm.436,2.954a.531.531,0,0,1-.531-.53.693.693,0,1,1,1.061,0,.531.531,0,0,1-.531.531Zm0,0" transform="translate(-1349.308 -2122.73)" fill="#fff"/>
      <path id="Path_430" data-name="Path 430" d="M1372.98,2141.668a.53.53,0,0,0-.531.53v9.551a1.061,1.061,0,0,1-2.123,0V2142.2a1.062,1.062,0,0,1,1.061-1.061.531.531,0,0,0,.531-.531v-4.245a.531.531,0,1,0-1.061,0v3.781a2.128,2.128,0,0,0-1.592,2.056v9.551a2.122,2.122,0,1,0,4.245,0V2142.2a.53.53,0,0,0-.531-.53Zm0,0" transform="translate(-1355.471 -2122.036)" fill="#fff"/>
      <path id="Path_431" data-name="Path 431" d="M1375.752,2113.135h-26.53a2.656,2.656,0,0,0-2.652,2.653v2.123a.531.531,0,0,0,.531.53h3.183a.531.531,0,0,1,.531.531v3.184a1.592,1.592,0,0,0,3.184,0v-3.184a.531.531,0,0,1,.531-.531h5.306a1.594,1.594,0,0,1,1.592,1.592,2.653,2.653,0,0,0,5.306,0,1.594,1.594,0,0,1,1.592-1.592h2.122a.531.531,0,0,1,.531.531,1.592,1.592,0,0,0,3.184,0,.532.532,0,0,1,.531-.531h3.183a.531.531,0,0,0,.531-.53v-2.123a2.655,2.655,0,0,0-2.652-2.653Zm1.591,4.244h-2.652a1.594,1.594,0,0,0-1.592,1.592.531.531,0,1,1-1.061,0,1.594,1.594,0,0,0-1.592-1.592h-2.122a2.656,2.656,0,0,0-2.653,2.653,1.592,1.592,0,0,1-3.184,0,2.656,2.656,0,0,0-2.653-2.653h-5.306a1.594,1.594,0,0,0-1.592,1.592v3.184a.531.531,0,1,1-1.061,0v-3.184a1.594,1.594,0,0,0-1.591-1.592h-2.654v-1.591a1.594,1.594,0,0,1,1.592-1.592h26.53a1.593,1.593,0,0,1,1.591,1.592Zm0,0" transform="translate(-1346.57 -2113.135)" fill="#fff"/>
      <path id="Path_432" data-name="Path 432" d="M1377.874,2123.61a.531.531,0,0,0-.531.531v3.184a1.594,1.594,0,0,1-1.591,1.592h-26.53a1.6,1.6,0,0,1-1.592-1.592v-3.184a.53.53,0,1,0-1.061,0v3.184a2.657,2.657,0,0,0,2.652,2.654h26.53a2.657,2.657,0,0,0,2.653-2.654v-3.184a.531.531,0,0,0-.531-.531Zm0,0" transform="translate(-1346.57 -2117.243)" fill="#fff"/>
    </g>
  </g>
</svg>
