<svg xmlns="http://www.w3.org/2000/svg" xmlns:xlink="http://www.w3.org/1999/xlink" width="45" height="40" viewBox="0 0 45 40">
  <defs>
    <clipPath id="clip-Artboard_3">
      <rect width="45" height="40"/>
    </clipPath>
  </defs>
  <g id="Artboard_3" data-name="Artboard – 3" clip-path="url(#clip-Artboard_3)">
    <path id="Path_411" data-name="Path 411" d="M617.164,2117.446a13,13,0,0,0-20.058,16.183,13.038,13.038,0,0,0,5.154,4.805,3.079,3.079,0,0,1,1.65,2.76v3.247a3.412,3.412,0,0,0,1.887,3.269,2.444,2.444,0,0,0,4.84.005,3.07,3.07,0,0,0,1.888-2.83V2141.2a3.092,3.092,0,0,1,1.661-2.767,13,13,0,0,0,2.979-20.984Zm-7.093,20.027h-3.708l-1.549-8.133a2.445,2.445,0,0,1,1.217.506,3.68,3.68,0,0,0,4.371,0,2.445,2.445,0,0,1,1.217-.506Zm-3.486,1.164h3.265l-.252,1.319h-2.762Zm-.234,2.483h5.011c0,.026,0,.051,0,.077v.52l-6.287.927v-1.45c0-.024,0-.049,0-.074Zm-1.278,3.321v-.621l6.287-.926v1.333l-6.216.916a3.391,3.391,0,0,1-.071-.7Zm3.144,4.208a1.282,1.282,0,0,1-1.14-.7h2.279a1.282,1.282,0,0,1-1.14.7Zm1.242-1.863h-2.484a1.723,1.723,0,0,1-1.289-.546l5.6-.825a1.905,1.905,0,0,1-1.825,1.371Zm4.19-9.391a4.217,4.217,0,0,0-2.11,2.561h-.757l2.352-12.349a.582.582,0,0,0-1.144-.217l-.146.77a3.5,3.5,0,0,0-2.088.717,2.529,2.529,0,0,1-3.08,0,3.5,3.5,0,0,0-2.088-.717l-.147-.77a.582.582,0,1,0-1.143.217l2.352,12.349H604.9a4.2,4.2,0,0,0-2.1-2.556,11.793,11.793,0,0,1-3.061-18.73,11.75,11.75,0,0,1,7.846-3.611c.216-.012.43-.017.645-.017a11.838,11.838,0,0,1,5.426,22.354Zm0,0" transform="translate(-586.217 -2111.877)" fill="#fff"/>
  </g>
</svg>
