<svg xmlns="http://www.w3.org/2000/svg" xmlns:xlink="http://www.w3.org/1999/xlink" width="45" height="40" viewBox="0 0 45 40">
  <defs>
    <clipPath id="clip-Artboard_7">
      <rect width="45" height="40"/>
    </clipPath>
  </defs>
  <g id="Artboard_7" data-name="Artboard – 7" clip-path="url(#clip-Artboard_7)">
    <g id="Group_327" data-name="Group 327" transform="translate(6 7)">
      <path id="Path_414" data-name="Path 414" d="M811.507,2129.437a.413.413,0,0,0,.413-.414v-2.85a.413.413,0,0,0-.413-.413H809.7v-3.17a2.938,2.938,0,1,0-5.875,0v3.17h-1.608v-3.17a2.938,2.938,0,1,0-5.875,0v3.17h-1.608v-3.17a2.938,2.938,0,0,0-5.876,0v3.17h-1.608v-3.17a2.938,2.938,0,0,0-5.876,0v3.17h-1.806a.413.413,0,0,0-.413.413v2.85a.413.413,0,0,0,.413.414h1.806v7.723h-1.806a.413.413,0,0,0-.413.413v2.851a.413.413,0,0,0,.413.413h1.806v3.984a.413.413,0,0,0,.413.413h5.049a.413.413,0,0,0,.413-.413v-3.984h1.608v3.984a.413.413,0,0,0,.413.413h5.049a.413.413,0,0,0,.413-.413v-3.984h1.608v3.984a.413.413,0,0,0,.413.413H801.8a.413.413,0,0,0,.413-.413v-3.984h1.608v3.984a.413.413,0,0,0,.413.413h5.048a.413.413,0,0,0,.413-.413v-3.984h1.806a.413.413,0,0,0,.413-.413v-2.851a.414.414,0,0,0-.413-.413H809.7v-7.723Zm-.413-2.85v2.023H809.7v-2.023Zm-8.877,2.85h1.608v7.723h-1.608Zm1.608-2.85v2.023h-1.608v-2.023Zm-9.091,2.85h1.608v7.723h-1.608Zm1.608-2.85v2.023h-1.608v-2.023Zm-9.091,2.85h1.608v7.723h-1.608Zm1.608-2.85v2.023h-1.608v-2.023Zm-8.876,2.023v-2.023h1.393v2.023Zm0,11.4v-2.024h1.393v2.024Zm2.219,4.4V2122.59a2.111,2.111,0,0,1,4.222,0v21.818Zm5.049-4.4v-2.024h1.608v2.024Zm2.434,4.4V2122.59a2.111,2.111,0,0,1,4.222,0v21.818Zm5.049-4.4v-2.024h1.608v2.024Zm6.656,4.4h-4.222V2122.59a2.111,2.111,0,1,1,4.222,0Zm.827-4.4v-2.024h1.608v2.024Zm2.435,4.4V2122.59a2.111,2.111,0,1,1,4.222,0v21.818Zm6.442-6.421v2.024H809.7v-2.024Zm0,0" transform="translate(-779.156 -2119.652)" fill="#fff"/>
      <path id="Path_415" data-name="Path 415" d="M787.374,2132.045a.413.413,0,1,0,0,.827.415.415,0,0,0,.413-.413.413.413,0,0,0-.413-.413Zm0,0" transform="translate(-782.217 -2124.513)" fill="#fff"/>
      <path id="Path_416" data-name="Path 416" d="M787.374,2150.8a.414.414,0,1,0,.292.121.417.417,0,0,0-.292-.121Zm0,0" transform="translate(-782.217 -2131.869)" fill="#fff"/>
      <path id="Path_417" data-name="Path 417" d="M799.686,2132.045a.412.412,0,1,0,.292.12.417.417,0,0,0-.292-.12Zm0,0" transform="translate(-787.046 -2124.513)" fill="#fff"/>
      <path id="Path_418" data-name="Path 418" d="M799.686,2150.8a.413.413,0,1,0,.292.121.418.418,0,0,0-.292-.121Zm0,0" transform="translate(-787.046 -2131.868)" fill="#fff"/>
      <path id="Path_419" data-name="Path 419" d="M812,2132.045a.415.415,0,0,0-.292.12.413.413,0,0,0,0,.585.414.414,0,1,0,.292-.706Zm0,0" transform="translate(-791.874 -2124.513)" fill="#fff"/>
      <path id="Path_420" data-name="Path 420" d="M812,2150.8a.412.412,0,1,0,.292.121.415.415,0,0,0-.292-.121Zm0,0" transform="translate(-791.874 -2131.869)" fill="#fff"/>
      <path id="Path_421" data-name="Path 421" d="M824.309,2132.045a.413.413,0,1,0,.292.12.417.417,0,0,0-.292-.12Zm0,0" transform="translate(-796.703 -2124.513)" fill="#fff"/>
      <path id="Path_422" data-name="Path 422" d="M824.309,2150.8a.413.413,0,1,0,.292.121.415.415,0,0,0-.292-.121Zm0,0" transform="translate(-796.703 -2131.869)" fill="#fff"/>
    </g>
  </g>
</svg>
