<svg xmlns="http://www.w3.org/2000/svg" xmlns:xlink="http://www.w3.org/1999/xlink" width="60" height="120" viewBox="0 0 60 120">
  <defs>
    <clipPath id="clip-Artboard_1">
      <rect width="60" height="120"/>
    </clipPath>
  </defs>
  <g id="Artboard_1" data-name="Artboard – 1" clip-path="url(#clip-Artboard_1)">
    <rect id="Rectangle_1029" data-name="Rectangle 1029" width="60" height="60" transform="translate(0 60)" fill="none"/>
    <rect id="Rectangle_1030" data-name="Rectangle 1030" width="60" height="60" transform="translate(0 0)" fill="none"/>
    <g id="wash" transform="translate(9 67)">
      <g id="Group_863" data-name="Group 863" transform="translate(0)">
        <g id="Group_862" data-name="Group 862" transform="translate(0)">
          <path id="Path_2113" data-name="Path 2113" d="M53.942,31.872H52.754a5.388,5.388,0,0,0-2.4.567,3.87,3.87,0,0,1-3.445,0,5.369,5.369,0,0,0-1.366-.455l1.479-11.494h1.61a.759.759,0,0,0,.759-.759V16.695a.759.759,0,0,0-.759-.759H45.595V13.659a.759.759,0,0,0-.222-.537L41.8,9.551V7.194l1.15-.92,1.965,3.93,1.358-.678L44.163,5.3l.939-.751h2.77a.759.759,0,0,0,.759-.759V.759A.759.759,0,0,0,47.872,0H40.283a6.838,6.838,0,0,0-6.83,6.83.759.759,0,0,0,.759.759H35.73V9.551l-2.054,2.054a.759.759,0,0,0-.222.537v3.794H31.936V9.865a.75.75,0,0,0-.055-.274.783.783,0,0,0-.047-.086.845.845,0,0,0-.064-.115L28.9,5.805V.759A.759.759,0,0,0,28.142,0H23.588a.759.759,0,0,0-.759.759V5.805L19.96,9.391a.845.845,0,0,0-.064.115.784.784,0,0,0-.047.086.75.75,0,0,0-.055.274v6.071H16.759a.759.759,0,0,0-.759.759V19.73a.759.759,0,0,0,.759.759h1.61l2.95,22.863a.759.759,0,0,0,.753.662H39.934a4.54,4.54,0,0,0,3.384,1.518h1.188a5.388,5.388,0,0,0,2.4-.567,3.87,3.87,0,0,1,3.445,0,5.388,5.388,0,0,0,2.4.567h1.188A4.558,4.558,0,0,0,58.5,40.978V36.425A4.558,4.558,0,0,0,53.942,31.872ZM45.595,1.518h1.518V3.035H45.595Zm2.277,15.936v1.518H37.248V17.453ZM35.025,6.071a5.32,5.32,0,0,1,5.258-4.553h3.794V3.43l-3.3,2.641Zm5.258,1.518V9.106H37.248V7.588Zm-5.312,4.867L36.8,10.624h3.925l3.35,3.35v1.962H34.971Zm-.759,5H35.73v5.312a.759.759,0,0,0,.42.683L40.7,25.725a.917.917,0,0,1,.467.54.976.976,0,0,1-.076.759.886.886,0,0,1-1.189.4h0l-3.081-1.54a.759.759,0,0,0-1.092.68v7.588a1.518,1.518,0,0,1-1.518,1.518v-6.83H32.695v6.83H31.177v-6.83H29.659v6.83H28.142v-6.83H26.624v6.83a1.518,1.518,0,0,1-1.518-1.518V17.453ZM24.347,1.518h3.035V5.312H24.347ZM23.953,6.83h3.825L29.6,9.106H22.131Zm-2.641,3.794h9.106v5.312H21.312Zm-3.794,8.347V17.453h6.071v1.518ZM38.765,36.425v4.553a4.536,4.536,0,0,0,.266,1.518H22.738L19.9,20.489h3.69V34.148a3.035,3.035,0,0,0,3.035,3.035h7.588a3.035,3.035,0,0,0,3.035-3.035V27.787l1.982.991a2.418,2.418,0,0,0,3.239-1.1l.007-.015a2.456,2.456,0,0,0,.139-1.878,2.428,2.428,0,0,0-1.229-1.422L37.248,22.3V20.489h8.243L44.022,31.872h-.7A4.558,4.558,0,0,0,38.765,36.425Zm18.212,4.553a3.035,3.035,0,0,1-3.035,3.035H52.754a3.87,3.87,0,0,1-1.722-.407,5.4,5.4,0,0,0-4.8,0,3.87,3.87,0,0,1-1.722.407H43.318a3.035,3.035,0,0,1-3.035-3.035V39.809a4.529,4.529,0,0,0,3.035,1.169h1.188a5.388,5.388,0,0,0,2.4-.567,3.87,3.87,0,0,1,3.445,0,5.388,5.388,0,0,0,2.4.567h1.188a4.529,4.529,0,0,0,3.035-1.169ZM53.942,39.46H52.754a3.87,3.87,0,0,1-1.722-.407,5.4,5.4,0,0,0-4.8,0,3.87,3.87,0,0,1-1.722.407H43.318a3.035,3.035,0,1,1,0-6.071h1.188a3.87,3.87,0,0,1,1.722.407,5.4,5.4,0,0,0,4.8,0,3.87,3.87,0,0,1,1.722-.407h1.188a3.035,3.035,0,1,1,0,6.071Z" transform="translate(-16)" fill="#fff"/>
        </g>
      </g>
      <g id="Group_865" data-name="Group 865" transform="translate(37.709 34.567)">
        <g id="Group_864" data-name="Group 864" transform="translate(0 0)">
          <rect id="Rectangle_1023" data-name="Rectangle 1023" width="1" height="3" transform="translate(-0.016 -0.286)" fill="#fff"/>
        </g>
      </g>
      <g id="Group_867" data-name="Group 867" transform="translate(30.393 34.567)">
        <g id="Group_866" data-name="Group 866" transform="translate(0 0)">
          <rect id="Rectangle_1024" data-name="Rectangle 1024" height="3" transform="translate(0.3 -0.286)" fill="#fff"/>
        </g>
      </g>
      <g id="Group_869" data-name="Group 869" transform="translate(26.735 35.787)">
        <g id="Group_868" data-name="Group 868" transform="translate(0 0)">
          <rect id="Rectangle_1025" data-name="Rectangle 1025" width="1" height="1" transform="translate(-0.042 0.495)" fill="#fff"/>
        </g>
      </g>
      <g id="Group_871" data-name="Group 871" transform="translate(34.051 35.787)">
        <g id="Group_870" data-name="Group 870" transform="translate(0 0)">
          <rect id="Rectangle_1026" data-name="Rectangle 1026" width="2" height="1" transform="translate(-0.358 0.495)" fill="#fff"/>
        </g>
      </g>
    </g>
    <g id="wash-2" data-name="wash" transform="translate(9 7)">
      <g id="Group_863-2" data-name="Group 863" transform="translate(0)">
        <g id="Group_862-2" data-name="Group 862" transform="translate(0)">
          <path id="Path_2113-2" data-name="Path 2113" d="M53.942,31.872H52.754a5.388,5.388,0,0,0-2.4.567,3.87,3.87,0,0,1-3.445,0,5.369,5.369,0,0,0-1.366-.455l1.479-11.494h1.61a.759.759,0,0,0,.759-.759V16.695a.759.759,0,0,0-.759-.759H45.595V13.659a.759.759,0,0,0-.222-.537L41.8,9.551V7.194l1.15-.92,1.965,3.93,1.358-.678L44.163,5.3l.939-.751h2.77a.759.759,0,0,0,.759-.759V.759A.759.759,0,0,0,47.872,0H40.283a6.838,6.838,0,0,0-6.83,6.83.759.759,0,0,0,.759.759H35.73V9.551l-2.054,2.054a.759.759,0,0,0-.222.537v3.794H31.936V9.865a.75.75,0,0,0-.055-.274.783.783,0,0,0-.047-.086.845.845,0,0,0-.064-.115L28.9,5.805V.759A.759.759,0,0,0,28.142,0H23.588a.759.759,0,0,0-.759.759V5.805L19.96,9.391a.845.845,0,0,0-.064.115.784.784,0,0,0-.047.086.75.75,0,0,0-.055.274v6.071H16.759a.759.759,0,0,0-.759.759V19.73a.759.759,0,0,0,.759.759h1.61l2.95,22.863a.759.759,0,0,0,.753.662H39.934a4.54,4.54,0,0,0,3.384,1.518h1.188a5.388,5.388,0,0,0,2.4-.567,3.87,3.87,0,0,1,3.445,0,5.388,5.388,0,0,0,2.4.567h1.188A4.558,4.558,0,0,0,58.5,40.978V36.425A4.558,4.558,0,0,0,53.942,31.872ZM45.595,1.518h1.518V3.035H45.595Zm2.277,15.936v1.518H37.248V17.453ZM35.025,6.071a5.32,5.32,0,0,1,5.258-4.553h3.794V3.43l-3.3,2.641Zm5.258,1.518V9.106H37.248V7.588Zm-5.312,4.867L36.8,10.624h3.925l3.35,3.35v1.962H34.971Zm-.759,5H35.73v5.312a.759.759,0,0,0,.42.683L40.7,25.725a.917.917,0,0,1,.467.54.976.976,0,0,1-.076.759.886.886,0,0,1-1.189.4h0l-3.081-1.54a.759.759,0,0,0-1.092.68v7.588a1.518,1.518,0,0,1-1.518,1.518v-6.83H32.695v6.83H31.177v-6.83H29.659v6.83H28.142v-6.83H26.624v6.83a1.518,1.518,0,0,1-1.518-1.518V17.453ZM24.347,1.518h3.035V5.312H24.347ZM23.953,6.83h3.825L29.6,9.106H22.131Zm-2.641,3.794h9.106v5.312H21.312Zm-3.794,8.347V17.453h6.071v1.518ZM38.765,36.425v4.553a4.536,4.536,0,0,0,.266,1.518H22.738L19.9,20.489h3.69V34.148a3.035,3.035,0,0,0,3.035,3.035h7.588a3.035,3.035,0,0,0,3.035-3.035V27.787l1.982.991a2.418,2.418,0,0,0,3.239-1.1l.007-.015a2.456,2.456,0,0,0,.139-1.878,2.428,2.428,0,0,0-1.229-1.422L37.248,22.3V20.489h8.243L44.022,31.872h-.7A4.558,4.558,0,0,0,38.765,36.425Zm18.212,4.553a3.035,3.035,0,0,1-3.035,3.035H52.754a3.87,3.87,0,0,1-1.722-.407,5.4,5.4,0,0,0-4.8,0,3.87,3.87,0,0,1-1.722.407H43.318a3.035,3.035,0,0,1-3.035-3.035V39.809a4.529,4.529,0,0,0,3.035,1.169h1.188a5.388,5.388,0,0,0,2.4-.567,3.87,3.87,0,0,1,3.445,0,5.388,5.388,0,0,0,2.4.567h1.188a4.529,4.529,0,0,0,3.035-1.169ZM53.942,39.46H52.754a3.87,3.87,0,0,1-1.722-.407,5.4,5.4,0,0,0-4.8,0,3.87,3.87,0,0,1-1.722.407H43.318a3.035,3.035,0,1,1,0-6.071h1.188a3.87,3.87,0,0,1,1.722.407,5.4,5.4,0,0,0,4.8,0,3.87,3.87,0,0,1,1.722-.407h1.188a3.035,3.035,0,1,1,0,6.071Z" transform="translate(-16)" fill="#0e0840"/>
        </g>
      </g>
      <g id="Group_865-2" data-name="Group 865" transform="translate(37.709 34.567)">
        <g id="Group_864-2" data-name="Group 864" transform="translate(0 0)">
          <rect id="Rectangle_1023-2" data-name="Rectangle 1023" width="1" height="3" transform="translate(-0.016 -0.286)" fill="#0e0840"/>
        </g>
      </g>
      <g id="Group_867-2" data-name="Group 867" transform="translate(30.393 34.567)">
        <g id="Group_866-2" data-name="Group 866" transform="translate(0 0)">
          <rect id="Rectangle_1024-2" data-name="Rectangle 1024" height="3" transform="translate(0.3 -0.286)" fill="#fff"/>
        </g>
      </g>
      <g id="Group_869-2" data-name="Group 869" transform="translate(26.735 35.787)">
        <g id="Group_868-2" data-name="Group 868" transform="translate(0 0)">
          <rect id="Rectangle_1025-2" data-name="Rectangle 1025" width="1" height="1" transform="translate(-0.042 0.495)" fill="#0e0840"/>
        </g>
      </g>
      <g id="Group_871-2" data-name="Group 871" transform="translate(34.051 35.787)">
        <g id="Group_870-2" data-name="Group 870" transform="translate(0 0)">
          <rect id="Rectangle_1026-2" data-name="Rectangle 1026" width="2" height="1" transform="translate(-0.358 0.495)" fill="#0e0840"/>
        </g>
      </g>
    </g>
  </g>
</svg>
