<svg xmlns="http://www.w3.org/2000/svg" xmlns:xlink="http://www.w3.org/1999/xlink" width="50" height="102" viewBox="0 0 50 102">
  <defs>
    <clipPath id="clip-Artboard_1">
      <rect width="50" height="102"/>
    </clipPath>
  </defs>
  <g id="Artboard_1" data-name="Artboard – 1" clip-path="url(#clip-Artboard_1)">
    <rect width="50" height="102" fill="#fff"/>
    <g id="XMLID_2400_" transform="translate(0 0)">
      <g id="XMLID_28_" transform="translate(0 0)">
        <path id="XMLID_51_" d="M184.135,384.583H168.972a.972.972,0,1,0,0,1.944h15.163a.972.972,0,0,0,0-1.944Z" transform="translate(-151.671 -347.202)"/>
        <path id="XMLID_52_" d="M184.135,333.167H168.972a.972.972,0,0,0,0,1.944h15.163a.972.972,0,0,0,0-1.944Z" transform="translate(-151.671 -300.784)"/>
        <path id="XMLID_53_" d="M184.135,281.75H168.972a.972.972,0,1,0,0,1.944h15.163a.972.972,0,0,0,0-1.944Z" transform="translate(-151.671 -254.364)"/>
        <path id="XMLID_54_" d="M184.135,230.333H168.972a.972.972,0,1,0,0,1.944h15.163a.972.972,0,0,0,0-1.944Z" transform="translate(-151.671 -207.945)"/>
        <path id="XMLID_55_" d="M184.135,178.917H168.972a.972.972,0,0,0,0,1.944h15.163a.972.972,0,0,0,0-1.944Z" transform="translate(-151.671 -161.526)"/>
        <path id="XMLID_56_" d="M184.135,127.5H168.972a.972.972,0,0,0,0,1.944h15.163a.972.972,0,0,0,0-1.944Z" transform="translate(-151.671 -115.107)"/>
        <path id="XMLID_57_" d="M214.748,436h-7.776a.972.972,0,0,0,0,1.944h7.776a.972.972,0,0,0,0-1.944Z" transform="translate(-185.977 -393.621)"/>
        <path id="XMLID_892_" d="M42.573,27.153a7.149,7.149,0,0,0-2.916.62V8.367a.972.972,0,0,0-.972-.972H37.13V3.7a.972.972,0,0,0-.972-.972h-10.3V.972a.972.972,0,1,0-1.944,0V2.73h-10.3a.972.972,0,0,0-.972.972V7.4H11.081a.972.972,0,0,0-.972.972v29.84a6.048,6.048,0,0,0-6.477,2.53,4.562,4.562,0,0,0,.917,9.029H38.685a.972.972,0,0,0,.972-.972V43.9a7.129,7.129,0,0,0,1.944.552v4.344a.972.972,0,0,0,1.944,0V44.45a7.2,7.2,0,0,0,6.221-7.125V34.345a7.2,7.2,0,0,0-7.193-7.193ZM4.553,47.822A2.618,2.618,0,0,1,4.317,42.6a.972.972,0,0,0,.76-.5,4.11,4.11,0,0,1,7.194,0,.972.972,0,0,0,.76.5,2.618,2.618,0,0,1-.223,5.225H4.553Zm33.16,0H16.52a4.562,4.562,0,0,0-2.8-7.085,6.06,6.06,0,0,0-1.662-1.67V9.339h8.456a.972.972,0,0,0,0-1.944H14.58V4.674H35.186V7.4H29.257a.972.972,0,0,0,0,1.944h8.456V29.048a7.175,7.175,0,0,0-2.333,5.3v2.979a7.175,7.175,0,0,0,2.333,5.3v5.2Zm10.109-10.5a5.257,5.257,0,0,1-4.277,5.157V39.922l2.048-2.048A.972.972,0,1,0,44.219,36.5l-.673.673V34.311a.972.972,0,1,0-1.944,0v1.051l-.673-.673a.972.972,0,1,0-1.375,1.375L41.6,38.112v4.37a5.257,5.257,0,0,1-4.277-5.157V34.345a5.249,5.249,0,1,1,10.5,0Z" transform="translate(0 0)"/>
      </g>
    </g>
    <g id="XMLID_2400_2" data-name="XMLID_2400_" transform="translate(0 52)">
      <g id="XMLID_28_2" data-name="XMLID_28_" transform="translate(0 0)">
        <path id="XMLID_51_2" data-name="XMLID_51_" d="M184.135,384.583H168.972a.972.972,0,1,0,0,1.944h15.163a.972.972,0,0,0,0-1.944Z" transform="translate(-151.671 -347.202)" fill="#5067eb"/>
        <path id="XMLID_52_2" data-name="XMLID_52_" d="M184.135,333.167H168.972a.972.972,0,0,0,0,1.944h15.163a.972.972,0,0,0,0-1.944Z" transform="translate(-151.671 -300.784)" fill="#5067eb"/>
        <path id="XMLID_53_2" data-name="XMLID_53_" d="M184.135,281.75H168.972a.972.972,0,1,0,0,1.944h15.163a.972.972,0,0,0,0-1.944Z" transform="translate(-151.671 -254.364)" fill="#5067eb"/>
        <path id="XMLID_54_2" data-name="XMLID_54_" d="M184.135,230.333H168.972a.972.972,0,1,0,0,1.944h15.163a.972.972,0,0,0,0-1.944Z" transform="translate(-151.671 -207.945)" fill="#5067eb"/>
        <path id="XMLID_55_2" data-name="XMLID_55_" d="M184.135,178.917H168.972a.972.972,0,0,0,0,1.944h15.163a.972.972,0,0,0,0-1.944Z" transform="translate(-151.671 -161.526)" fill="#5067eb"/>
        <path id="XMLID_56_2" data-name="XMLID_56_" d="M184.135,127.5H168.972a.972.972,0,0,0,0,1.944h15.163a.972.972,0,0,0,0-1.944Z" transform="translate(-151.671 -115.107)" fill="#5067eb"/>
        <path id="XMLID_57_2" data-name="XMLID_57_" d="M214.748,436h-7.776a.972.972,0,0,0,0,1.944h7.776a.972.972,0,0,0,0-1.944Z" transform="translate(-185.977 -393.621)" fill="#5067eb"/>
        <path id="XMLID_892_2" data-name="XMLID_892_" d="M42.573,27.153a7.149,7.149,0,0,0-2.916.62V8.367a.972.972,0,0,0-.972-.972H37.13V3.7a.972.972,0,0,0-.972-.972h-10.3V.972a.972.972,0,1,0-1.944,0V2.73h-10.3a.972.972,0,0,0-.972.972V7.4H11.081a.972.972,0,0,0-.972.972v29.84a6.048,6.048,0,0,0-6.477,2.53,4.562,4.562,0,0,0,.917,9.029H38.685a.972.972,0,0,0,.972-.972V43.9a7.129,7.129,0,0,0,1.944.552v4.344a.972.972,0,0,0,1.944,0V44.45a7.2,7.2,0,0,0,6.221-7.125V34.345a7.2,7.2,0,0,0-7.193-7.193ZM4.553,47.822A2.618,2.618,0,0,1,4.317,42.6a.972.972,0,0,0,.76-.5,4.11,4.11,0,0,1,7.194,0,.972.972,0,0,0,.76.5,2.618,2.618,0,0,1-.223,5.225H4.553Zm33.16,0H16.52a4.562,4.562,0,0,0-2.8-7.085,6.06,6.06,0,0,0-1.662-1.67V9.339h8.456a.972.972,0,0,0,0-1.944H14.58V4.674H35.186V7.4H29.257a.972.972,0,0,0,0,1.944h8.456V29.048a7.175,7.175,0,0,0-2.333,5.3v2.979a7.175,7.175,0,0,0,2.333,5.3v5.2Zm10.109-10.5a5.257,5.257,0,0,1-4.277,5.157V39.922l2.048-2.048A.972.972,0,1,0,44.219,36.5l-.673.673V34.311a.972.972,0,1,0-1.944,0v1.051l-.673-.673a.972.972,0,1,0-1.375,1.375L41.6,38.112v4.37a5.257,5.257,0,0,1-4.277-5.157V34.345a5.249,5.249,0,1,1,10.5,0Z" transform="translate(0 0)" fill="#5067eb"/>
      </g>
    </g>
  </g>
</svg>
