<svg xmlns="http://www.w3.org/2000/svg" xmlns:xlink="http://www.w3.org/1999/xlink" width="18" height="34" viewBox="0 0 18 34">
  <defs>
    <clipPath id="clip-Artboard_7">
      <rect width="18" height="34"/>
    </clipPath>
  </defs>
  <g id="Artboard_7" data-name="Artboard – 7" clip-path="url(#clip-Artboard_7)">
    <g id="Grid_icon">
      <path id="Combined-Shape" d="M16.529,9.412a.471.471,0,0,1,.463.386L17,9.882v5.647a.471.471,0,0,1-.386.463L16.529,16H10.882a.471.471,0,0,1-.463-.386l-.008-.085V9.882a.471.471,0,0,1,.386-.463l.085-.008Zm-9.412,0a.471.471,0,0,1,.463.386l.008.085v5.647a.471.471,0,0,1-.386.463L7.118,16H1.471a.471.471,0,0,1-.463-.386L1,15.529V9.882a.471.471,0,0,1,.386-.463l.085-.008Zm8.941.941H11.353v4.706h4.706Zm-9.412,0H1.941v4.706H6.647ZM7.118,0a.471.471,0,0,1,.463.386l.008.085V6.118a.471.471,0,0,1-.386.463l-.085.008H1.471A.471.471,0,0,1,1.008,6.2L1,6.118V.471A.471.471,0,0,1,1.386.008L1.471,0Zm9.412,0a.471.471,0,0,1,.463.386L17,.471V6.118a.471.471,0,0,1-.386.463l-.085.008H10.882a.471.471,0,0,1-.463-.386l-.008-.085V.471A.471.471,0,0,1,10.8.008L10.882,0ZM6.647.941H1.941V5.647H6.647Zm9.412,0H11.353V5.647h4.706Z"/>
      <g id="Group" transform="translate(1 18)">
        <path id="Combined-Shape-Copy" d="M15.529,9.412a.471.471,0,0,1,.463.386L16,9.882v5.647a.471.471,0,0,1-.386.463L15.529,16H9.882a.471.471,0,0,1-.463-.386l-.008-.085V9.882A.471.471,0,0,1,9.8,9.419l.085-.008Zm-9.412,0a.471.471,0,0,1,.463.386l.008.085v5.647a.471.471,0,0,1-.386.463L6.118,16H.471a.471.471,0,0,1-.463-.386L0,15.529V9.882a.471.471,0,0,1,.386-.463l.085-.008Zm8.941.941H10.353v4.706h4.706Zm-9.412,0H.941v4.706H5.647ZM6.118,0a.471.471,0,0,1,.463.386l.008.085V6.118a.471.471,0,0,1-.386.463l-.085.008H.471A.471.471,0,0,1,.008,6.2L0,6.118V.471A.471.471,0,0,1,.386.008L.471,0Zm9.412,0a.471.471,0,0,1,.463.386L16,.471V6.118a.471.471,0,0,1-.386.463l-.085.008H9.882A.471.471,0,0,1,9.419,6.2l-.008-.085V.471A.471.471,0,0,1,9.8.008L9.882,0ZM5.647.941H.941V5.647H5.647Zm9.412,0H10.353V5.647h4.706Z"/>
        <path id="Combined-Shape-2" data-name="Combined-Shape" d="M15.059,10.353v4.706H10.353V10.353Zm-9.412,0v4.706H.941V10.353Zm0-9.412V5.647H.941V.941Zm9.412,0V5.647H10.353V.941Z" fill="#5067eb"/>
      </g>
    </g>
  </g>
</svg>
