<svg xmlns="http://www.w3.org/2000/svg" xmlns:xlink="http://www.w3.org/1999/xlink" width="28" height="50" viewBox="0 0 28 50">
  <defs>
    <clipPath id="clip-Artboard_1">
      <rect width="28" height="50"/>
    </clipPath>
  </defs>
  <g id="Artboard_1" data-name="Artboard – 1" clip-path="url(#clip-Artboard_1)">
    <g id="Path_2223" data-name="Path 2223">
      <path id="Path_2222" data-name="Path 2222" d="M13.75,24.4a49.619,49.619,0,0,1-8.242-6.85,21.024,21.024,0,0,1-4.157-6.07A9.739,9.739,0,0,1,.516,7.1,6.7,6.7,0,0,1,1.621,3.775,7.69,7.69,0,0,1,8,.5a6.8,6.8,0,0,1,5.365,2.442l.381.462.381-.462A6.8,6.8,0,0,1,19.5.5a7.69,7.69,0,0,1,6.384,3.275A6.7,6.7,0,0,1,26.984,7.1a9.74,9.74,0,0,1-.835,4.374,21.024,21.024,0,0,1-4.157,6.07A49.619,49.619,0,0,1,13.75,24.4Z" transform="translate(0)" fill="none"/>
      <path id="Path_2223-2" data-name="Path 2223" d="M13.75,23.805a48.6,48.6,0,0,0,7.886-6.593A20.553,20.553,0,0,0,25.7,11.286c1.465-3.5.686-5.872-.226-7.242A7.2,7.2,0,0,0,19.5.987a6.317,6.317,0,0,0-4.986,2.264l-.762.925-.762-.925A6.317,6.317,0,0,0,8,.987,7.2,7.2,0,0,0,2.026,4.044C1.114,5.414.335,7.782,1.8,11.286a20.553,20.553,0,0,0,4.064,5.926,48.6,48.6,0,0,0,7.886,6.593m0,1.195C6.357,20.008,2.479,15.467.889,11.667-2.1,4.528,2.988,0,8,0A7.325,7.325,0,0,1,13.75,2.623,7.327,7.327,0,0,1,19.5,0c5.014,0,10.1,4.528,7.113,11.667C25.021,15.467,21.143,20.008,13.75,25Z" fill="#2c2a3e"/>
    </g>
    <g id="Path_2223-3" data-name="Path 2223" transform="translate(0 25)">
      <path id="Path_2222-2" data-name="Path 2222" d="M13.75,24.4a49.619,49.619,0,0,1-8.242-6.85,21.024,21.024,0,0,1-4.157-6.07A9.739,9.739,0,0,1,.516,7.1,6.7,6.7,0,0,1,1.621,3.775,7.69,7.69,0,0,1,8,.5a6.8,6.8,0,0,1,5.365,2.442l.381.462.381-.462A6.8,6.8,0,0,1,19.5.5a7.69,7.69,0,0,1,6.384,3.275A6.7,6.7,0,0,1,26.984,7.1a9.74,9.74,0,0,1-.835,4.374,21.024,21.024,0,0,1-4.157,6.07A49.619,49.619,0,0,1,13.75,24.4Z" transform="translate(0)" fill="#ff565c"/>
      <path id="Path_2223-4" data-name="Path 2223" d="M13.75,23.805a48.6,48.6,0,0,0,7.886-6.593A20.553,20.553,0,0,0,25.7,11.286c1.465-3.5.686-5.872-.226-7.242A7.2,7.2,0,0,0,19.5.987a6.317,6.317,0,0,0-4.986,2.264l-.762.925-.762-.925A6.317,6.317,0,0,0,8,.987,7.2,7.2,0,0,0,2.026,4.044C1.114,5.414.335,7.782,1.8,11.286a20.553,20.553,0,0,0,4.064,5.926,48.6,48.6,0,0,0,7.886,6.593m0,1.195C6.357,20.008,2.479,15.467.889,11.667-2.1,4.528,2.988,0,8,0A7.325,7.325,0,0,1,13.75,2.623,7.327,7.327,0,0,1,19.5,0c5.014,0,10.1,4.528,7.113,11.667C25.021,15.467,21.143,20.008,13.75,25Z" fill="#2c2a3e"/>
    </g>
  </g>
</svg>
