<svg id="Heart_icon" xmlns="http://www.w3.org/2000/svg" width="18" height="34" viewBox="0 0 18 34">
  <path id="Shape" d="M9,14.792c2.82-1.924,6.205-4.717,7.488-7.715a4.341,4.341,0,0,0-.1-4.256A4.366,4.366,0,0,0,12.763,1,3.818,3.818,0,0,0,9.775,2.319L9,3.24l-.775-.92A3.818,3.818,0,0,0,5.237,1,4.366,4.366,0,0,0,1.609,2.821a4.34,4.34,0,0,0-.1,4.256c1.283,3,4.668,5.792,7.488,7.716M9,16C4.161,12.805,1.623,9.9.582,7.467-1.372,2.9,1.956,0,5.237,0A4.842,4.842,0,0,1,9,1.679,4.843,4.843,0,0,1,12.763,0c3.282,0,6.61,2.9,4.655,7.467C16.377,9.9,13.839,12.805,9,16Z" fill="#2c2a3e"/>
  <g id="Group" transform="translate(0 18)">
    <path id="Path" d="M8.912,15.4C4.843,12.642,2.124,9.837,1.037,7.272a4.777,4.777,0,0,1,.14-4.727A4.814,4.814,0,0,1,5.186.5,4.256,4.256,0,0,1,8.528,2l.384.46L9.3,2A4.256,4.256,0,0,1,12.637.5a4.814,4.814,0,0,1,4.009,2.045,4.777,4.777,0,0,1,.14,4.727C15.7,9.837,12.98,12.642,8.912,15.4Z" fill="#ff565c"/>
    <path id="Shape-2" data-name="Shape" d="M9,14.792c2.82-1.924,6.205-4.717,7.488-7.715a4.341,4.341,0,0,0-.1-4.256A4.366,4.366,0,0,0,12.763,1,3.818,3.818,0,0,0,9.775,2.319L9,3.24l-.775-.92A3.818,3.818,0,0,0,5.237,1,4.366,4.366,0,0,0,1.609,2.821a4.34,4.34,0,0,0-.1,4.256c1.283,3,4.668,5.792,7.488,7.716M9,16C4.161,12.805,1.623,9.9.582,7.467-1.372,2.9,1.956,0,5.237,0A4.842,4.842,0,0,1,9,1.679,4.843,4.843,0,0,1,12.763,0c3.282,0,6.61,2.9,4.655,7.467C16.377,9.9,13.839,12.805,9,16Z" fill="#2c2a3e"/>
  </g>
</svg>
