<svg xmlns="http://www.w3.org/2000/svg" width="27.854" height="25.322" viewBox="0 0 27.854 25.322">
  <g id="Path_2223" data-name="Path 2223" fill="#ff565c">
    <path d="M 13.92700576782227 24.71760368347168 C 10.52855682373047 22.40037155151367 7.719417095184326 20.06560325622559 5.574525833129883 17.7751522064209 C 3.60852575302124 15.6757116317749 2.191125869750977 13.60611152648926 1.361715793609619 11.62382125854492 C 0.7112257480621338 10.06861114501953 0.4266957640647888 8.577381134033203 0.5160557627677917 7.191601276397705 C 0.5961457490921021 5.949601173400879 0.9729357957839966 4.814831256866455 1.635955810546875 3.818831205368042 C 2.998695850372314 1.771701335906982 5.477325916290283 0.5000012516975403 8.104585647583008 0.5000012516975403 C 10.29569530487061 0.5000012516975403 12.22641563415527 1.378911256790161 13.54108619689941 2.974821329116821 L 13.92700576782227 3.443291187286377 L 14.31292533874512 2.974821329116821 C 15.62759590148926 1.378911256790161 17.55831527709961 0.5000012516975403 19.74942588806152 0.5000012516975403 C 22.37694549560547 0.5000012516975403 24.85567665100098 1.771621227264404 26.21832656860352 3.81861138343811 C 26.88131523132324 4.814571380615234 27.25807571411133 5.949321269989014 27.33811569213867 7.191351413726807 C 27.42742538452148 8.577151298522949 27.14284515380859 10.06846141815186 26.49226570129395 11.62387084960938 C 25.66288566589355 13.60610103607178 24.2454948425293 15.6757116317749 22.27948570251465 17.7751522064209 C 20.13459396362305 20.06560325622559 17.32545471191406 22.40037155151367 13.92700576782227 24.71760368347168 Z" stroke="none"/>
    <path d="M 13.92700576782227 24.11145210266113 C 17.16895866394043 21.87841987609863 19.85392570495605 19.63383483886719 21.91452598571777 17.43338203430176 C 23.83970642089844 15.37755107879639 25.22469520568848 13.35800170898438 26.03099632263184 11.43094158172607 C 27.51530647277832 7.882211208343506 26.72579574584961 5.483251094818115 25.80211639404297 4.095681190490723 C 24.531005859375 2.186191320419312 22.21174621582031 1.000001311302185 19.74942588806152 1.000001311302185 C 17.7104549407959 1.000001311302185 15.91678619384766 1.814241290092468 14.69884586334229 3.292731285095215 L 13.92700576782227 4.229681491851807 L 13.15516567230225 3.292731285095215 C 11.93721580505371 1.814241290092468 10.14355564117432 1.000001311302185 8.104585647583008 1.000001311302185 C 5.642525672912598 1.000001311302185 3.323375701904297 2.186281204223633 2.052175760269165 4.095901489257812 C 1.128435730934143 5.483551502227783 0.3388357758522034 7.88253116607666 1.822975754737854 11.43083095550537 C 2.629315853118896 13.35800170898438 4.014315605163574 15.37755107879639 5.939485549926758 17.43338203430176 C 8.000085830688477 19.63383483886719 10.6850528717041 21.87841987609863 13.92700576782227 24.11145210266113 M 13.92700576782227 25.32182121276855 C 6.438545703887939 20.26589202880859 2.511145830154419 15.66634082794189 0.9004657864570618 11.81681156158447 C -2.123732089996338 4.586488246917725 3.026093006134033 4.363708285382017e-06 8.104583740234375 4.363708285382017e-06 C 10.27210903167725 4.363708285382017e-06 12.42633438110352 0.8352164030075073 13.92700576782227 2.656911373138428 C 15.42737102508545 0.8355880975723267 17.58234977722168 4.363708285382017e-06 19.74942779541016 4.363708285382017e-06 C 24.82834815979004 4.363708285382017e-06 29.97800636291504 4.585858345031738 26.95354652404785 11.81681156158447 C 25.34287643432617 15.66634082794189 21.41546630859375 20.26589202880859 13.92700576782227 25.32182121276855 Z" stroke="none" fill="#2c2a3e"/>
  </g>
</svg>
