<svg xmlns="http://www.w3.org/2000/svg" xmlns:xlink="http://www.w3.org/1999/xlink" width="60" height="120" viewBox="0 0 60 120">
  <defs>
    <clipPath id="clip-Artboard_4">
      <rect width="60" height="120"/>
    </clipPath>
  </defs>
  <g id="Artboard_4" data-name="Artboard – 4" clip-path="url(#clip-Artboard_4)">
    <rect id="Rectangle_1029" data-name="Rectangle 1029" width="60" height="60" transform="translate(0 60)" fill="none"/>
    <rect id="Rectangle_1030" data-name="Rectangle 1030" width="60" height="60" transform="translate(0 0)" fill="none"/>
    <g id="garden" transform="translate(3 63)">
      <path id="Path_2120" data-name="Path 2120" d="M48.013,45.278a.793.793,0,0,0,.789-.724l.468-5.471a.792.792,0,0,0-.722-.857l-2.707-.231a.77.77,0,0,0-.578.183.788.788,0,0,0-.256.414l-11.166-2.28,3.517-3.883.152.152a.792.792,0,0,0,1.12,0l1.921-1.921a.791.791,0,0,0,0-1.12L29.424,18.412a9.116,9.116,0,0,0-14.345-11l-5.7,5.7a9.1,9.1,0,0,0-2.271,9.124L8.871,27.98l-2.4,2.177a5.24,5.24,0,0,0-.186,7.58l9.893,9.894a5.187,5.187,0,0,0,3.7,1.534h.136a5.185,5.185,0,0,0,3.747-1.721l2.318-2.562,18.444-.565a.791.791,0,0,0,.72.728l2.707.231h.067Zm-3.153-5.1-.217,2.547-17.087.526L32.6,37.679ZM38.069,30.9,23.014,15.845l.8-.8,2.067,2.067,1.965,1.965.014.014L38.87,30.1ZM12.392,24.79l-1.17-3.814a4.81,4.81,0,0,1,1.2-4.822l5.7-5.7a4.812,4.812,0,0,1,8.04,4.694l-1.784-1.784a.792.792,0,0,0-1.12,0l-1.921,1.921a.792.792,0,0,0,0,1.121l.149.149Zm-3.77-3.019A7.521,7.521,0,0,1,10.5,14.233l5.7-5.7a7.531,7.531,0,0,1,12.055,8.709l-.853-.854A6.4,6.4,0,0,0,17,9.332l-5.7,5.7a6.39,6.39,0,0,0-1.589,6.407L11.1,25.967l-.926.839ZM22.582,46.38a3.648,3.648,0,0,1-5.286.13L7.4,36.616a3.656,3.656,0,0,1,.133-5.287L22.608,17.676,36.237,31.3Zm24.71-2.751-1.128-.1.333-3.894,1.127.1Z" transform="translate(-4.751 -4.739)" fill="#fff"/>
      <path id="Path_2121" data-name="Path 2121" d="M27.957,48.349l-2.295,2.079A.792.792,0,0,0,26.726,51.6l2.3-2.081a.792.792,0,1,0-1.064-1.174Z" transform="translate(-16.052 -28.49)" fill="#fff"/>
      <path id="Path_2122" data-name="Path 2122" d="M110.732,98.829a8.317,8.317,0,0,0-1.494-3.2.792.792,0,0,0-1.313,0,8.307,8.307,0,0,0-1.494,3.2,2.151,2.151,0,1,0,4.3,0Zm-2.151.566a.566.566,0,0,1-.566-.56,4.7,4.7,0,0,1,.566-1.258,4.746,4.746,0,0,1,.566,1.256.566.566,0,0,1-.566.562Z" transform="translate(-60.392 -54.285)" fill="#fff"/>
      <path id="Path_2123" data-name="Path 2123" d="M116.556,111.015a.792.792,0,0,0-1.313,0,8.3,8.3,0,0,0-1.494,3.2,2.151,2.151,0,0,0,4.3,0A8.3,8.3,0,0,0,116.556,111.015Zm-.656,3.764a.566.566,0,0,1-.566-.56,4.689,4.689,0,0,1,.566-1.258,4.738,4.738,0,0,1,.566,1.256.566.566,0,0,1-.566.562Z" transform="translate(-64.397 -62.704)" fill="#fff"/>
      <path id="Path_2124" data-name="Path 2124" d="M101.263,110.667a.791.791,0,0,0-.656.348,8.3,8.3,0,0,0-1.494,3.2,2.151,2.151,0,0,0,4.3,0,8.307,8.307,0,0,0-1.494-3.2.792.792,0,0,0-.657-.348Zm0,4.113a.567.567,0,0,1-.566-.562,4.76,4.76,0,0,1,.566-1.256,4.708,4.708,0,0,1,.566,1.252.566.566,0,0,1-.566.566Z" transform="translate(-56.388 -62.705)" fill="#fff"/>
    </g>
    <g id="garden-2" data-name="garden" transform="translate(3 3)">
      <path id="Path_2120-2" data-name="Path 2120" d="M48.013,45.278a.793.793,0,0,0,.789-.724l.468-5.471a.792.792,0,0,0-.722-.857l-2.707-.231a.77.77,0,0,0-.578.183.788.788,0,0,0-.256.414l-11.166-2.28,3.517-3.883.152.152a.792.792,0,0,0,1.12,0l1.921-1.921a.791.791,0,0,0,0-1.12L29.424,18.412a9.116,9.116,0,0,0-14.345-11l-5.7,5.7a9.1,9.1,0,0,0-2.271,9.124L8.871,27.98l-2.4,2.177a5.24,5.24,0,0,0-.186,7.58l9.893,9.894a5.187,5.187,0,0,0,3.7,1.534h.136a5.185,5.185,0,0,0,3.747-1.721l2.318-2.562,18.444-.565a.791.791,0,0,0,.72.728l2.707.231h.067Zm-3.153-5.1-.217,2.547-17.087.526L32.6,37.679ZM38.069,30.9,23.014,15.845l.8-.8,2.067,2.067,1.965,1.965.014.014L38.87,30.1ZM12.392,24.79l-1.17-3.814a4.81,4.81,0,0,1,1.2-4.822l5.7-5.7a4.812,4.812,0,0,1,8.04,4.694l-1.784-1.784a.792.792,0,0,0-1.12,0l-1.921,1.921a.792.792,0,0,0,0,1.121l.149.149Zm-3.77-3.019A7.521,7.521,0,0,1,10.5,14.233l5.7-5.7a7.531,7.531,0,0,1,12.055,8.709l-.853-.854A6.4,6.4,0,0,0,17,9.332l-5.7,5.7a6.39,6.39,0,0,0-1.589,6.407L11.1,25.967l-.926.839ZM22.582,46.38a3.648,3.648,0,0,1-5.286.13L7.4,36.616a3.656,3.656,0,0,1,.133-5.287L22.608,17.676,36.237,31.3Zm24.71-2.751-1.128-.1.333-3.894,1.127.1Z" transform="translate(-4.751 -4.739)" fill="#0e0840"/>
      <path id="Path_2121-2" data-name="Path 2121" d="M27.957,48.349l-2.295,2.079A.792.792,0,0,0,26.726,51.6l2.3-2.081a.792.792,0,1,0-1.064-1.174Z" transform="translate(-16.052 -28.49)" fill="#0e0840"/>
      <path id="Path_2122-2" data-name="Path 2122" d="M110.732,98.829a8.317,8.317,0,0,0-1.494-3.2.792.792,0,0,0-1.313,0,8.307,8.307,0,0,0-1.494,3.2,2.151,2.151,0,1,0,4.3,0Zm-2.151.566a.566.566,0,0,1-.566-.56,4.7,4.7,0,0,1,.566-1.258,4.746,4.746,0,0,1,.566,1.256.566.566,0,0,1-.566.562Z" transform="translate(-60.392 -54.285)" fill="#0e0840"/>
      <path id="Path_2123-2" data-name="Path 2123" d="M116.556,111.015a.792.792,0,0,0-1.313,0,8.3,8.3,0,0,0-1.494,3.2,2.151,2.151,0,0,0,4.3,0A8.3,8.3,0,0,0,116.556,111.015Zm-.656,3.764a.566.566,0,0,1-.566-.56,4.689,4.689,0,0,1,.566-1.258,4.738,4.738,0,0,1,.566,1.256.566.566,0,0,1-.566.562Z" transform="translate(-64.397 -62.704)" fill="#0e0840"/>
      <path id="Path_2124-2" data-name="Path 2124" d="M101.263,110.667a.791.791,0,0,0-.656.348,8.3,8.3,0,0,0-1.494,3.2,2.151,2.151,0,0,0,4.3,0,8.307,8.307,0,0,0-1.494-3.2.792.792,0,0,0-.657-.348Zm0,4.113a.567.567,0,0,1-.566-.562,4.76,4.76,0,0,1,.566-1.256,4.708,4.708,0,0,1,.566,1.252.566.566,0,0,1-.566.566Z" transform="translate(-56.388 -62.705)" fill="#0e0840"/>
    </g>
  </g>
</svg>
