<svg xmlns="http://www.w3.org/2000/svg" xmlns:xlink="http://www.w3.org/1999/xlink" width="60" height="120" viewBox="0 0 60 120">
  <defs>
    <clipPath id="clip-Artboard_8">
      <rect width="60" height="120"/>
    </clipPath>
  </defs>
  <g id="Artboard_8" data-name="Artboard – 8" clip-path="url(#clip-Artboard_8)">
    <rect id="Rectangle_1029" data-name="Rectangle 1029" width="60" height="60" transform="translate(0 60)" fill="none"/>
    <rect id="Rectangle_1030" data-name="Rectangle 1030" width="60" height="60" transform="translate(0 0)" fill="none"/>
    <g id="drug" transform="translate(5 3)">
      <g id="Group_893" data-name="Group 893" transform="translate(10.448 13.165)">
        <g id="Group_892" data-name="Group 892" transform="translate(0)">
          <path id="Path_2134" data-name="Path 2134" d="M116.741,125.994a1.045,1.045,0,1,0,1.045,1.045A1.045,1.045,0,0,0,116.741,125.994Z" transform="translate(-115.696 -125.994)" fill="#0e0840"/>
        </g>
      </g>
      <g id="Group_895" data-name="Group 895" transform="translate(11.493 28.523)">
        <g id="Group_894" data-name="Group 894">
          <path id="Path_2135" data-name="Path 2135" d="M135.1,277.165h-3.134v-3.134a1.045,1.045,0,1,0-2.09,0v3.134h-3.134a1.045,1.045,0,1,0,0,2.09h3.134v3.134a1.045,1.045,0,1,0,2.09,0v-3.134H135.1a1.045,1.045,0,1,0,0-2.09Z" transform="translate(-125.696 -272.986)" fill="#0e0840"/>
        </g>
      </g>
      <g id="Group_897" data-name="Group 897" transform="translate(0)">
        <g id="Group_896" data-name="Group 896">
          <path id="Path_2136" data-name="Path 2136" d="M64.8,33.643a8.354,8.354,0,0,0-11.418-3.059l-4.244,2.45V23.961a5.262,5.262,0,0,0-1.045-3.134l-5.224-6.965V10.9a3.139,3.139,0,0,0,2.09-2.955V3.134A3.138,3.138,0,0,0,41.821,0H23.015A3.138,3.138,0,0,0,19.88,3.134V7.94A3.14,3.14,0,0,0,21.97,10.9v2.966l-5.224,6.966A5.261,5.261,0,0,0,15.7,23.961V44.2a5.23,5.23,0,0,0,5.224,5.224H37.716A8.35,8.35,0,0,0,49.07,52.374L61.737,45.06A8.365,8.365,0,0,0,64.8,33.643ZM21.97,3.134A1.046,1.046,0,0,1,23.015,2.09H41.821a1.046,1.046,0,0,1,1.045,1.045V7.94a1.046,1.046,0,0,1-1.045,1.045H23.015A1.046,1.046,0,0,1,21.97,7.94V3.134ZM18.418,22.08l5.433-7.244a1.045,1.045,0,0,0,.209-.627V11.075H40.776v2.09h-9.4a1.045,1.045,0,0,0,0,2.09H41.3l5.119,6.825a3.162,3.162,0,0,1,.605,1.533H17.813A3.16,3.16,0,0,1,18.418,22.08Zm2.507,25.25A3.138,3.138,0,0,1,17.791,44.2V43.14H36.773a8.372,8.372,0,0,0,.05,4.19h-15.9Zm16.668-6.269h-19.8V25.7H47.045V34.24L40.711,37.9A8.3,8.3,0,0,0,37.593,41.061Zm10.433,9.5a6.269,6.269,0,1,1-6.269-10.858l5.671-3.274L53.7,47.29Zm12.667-7.314-5.186,2.994L49.237,35.387l5.186-2.994a6.269,6.269,0,1,1,6.269,10.858Z" transform="translate(-15.701)" fill="#0e0840"/>
        </g>
      </g>
    </g>
    <g id="drug-2" data-name="drug" transform="translate(5 63)">
      <g id="Group_893-2" data-name="Group 893" transform="translate(10.448 13.165)">
        <g id="Group_892-2" data-name="Group 892" transform="translate(0)">
          <path id="Path_2134-2" data-name="Path 2134" d="M116.741,125.994a1.045,1.045,0,1,0,1.045,1.045A1.045,1.045,0,0,0,116.741,125.994Z" transform="translate(-115.696 -125.994)" fill="#fff"/>
        </g>
      </g>
      <g id="Group_895-2" data-name="Group 895" transform="translate(11.493 28.523)">
        <g id="Group_894-2" data-name="Group 894">
          <path id="Path_2135-2" data-name="Path 2135" d="M135.1,277.165h-3.134v-3.134a1.045,1.045,0,1,0-2.09,0v3.134h-3.134a1.045,1.045,0,1,0,0,2.09h3.134v3.134a1.045,1.045,0,1,0,2.09,0v-3.134H135.1a1.045,1.045,0,1,0,0-2.09Z" transform="translate(-125.696 -272.986)" fill="#fff"/>
        </g>
      </g>
      <g id="Group_897-2" data-name="Group 897" transform="translate(0)">
        <g id="Group_896-2" data-name="Group 896">
          <path id="Path_2136-2" data-name="Path 2136" d="M64.8,33.643a8.354,8.354,0,0,0-11.418-3.059l-4.244,2.45V23.961a5.262,5.262,0,0,0-1.045-3.134l-5.224-6.965V10.9a3.139,3.139,0,0,0,2.09-2.955V3.134A3.138,3.138,0,0,0,41.821,0H23.015A3.138,3.138,0,0,0,19.88,3.134V7.94A3.14,3.14,0,0,0,21.97,10.9v2.966l-5.224,6.966A5.261,5.261,0,0,0,15.7,23.961V44.2a5.23,5.23,0,0,0,5.224,5.224H37.716A8.35,8.35,0,0,0,49.07,52.374L61.737,45.06A8.365,8.365,0,0,0,64.8,33.643ZM21.97,3.134A1.046,1.046,0,0,1,23.015,2.09H41.821a1.046,1.046,0,0,1,1.045,1.045V7.94a1.046,1.046,0,0,1-1.045,1.045H23.015A1.046,1.046,0,0,1,21.97,7.94V3.134ZM18.418,22.08l5.433-7.244a1.045,1.045,0,0,0,.209-.627V11.075H40.776v2.09h-9.4a1.045,1.045,0,0,0,0,2.09H41.3l5.119,6.825a3.162,3.162,0,0,1,.605,1.533H17.813A3.16,3.16,0,0,1,18.418,22.08Zm2.507,25.25A3.138,3.138,0,0,1,17.791,44.2V43.14H36.773a8.372,8.372,0,0,0,.05,4.19h-15.9Zm16.668-6.269h-19.8V25.7H47.045V34.24L40.711,37.9A8.3,8.3,0,0,0,37.593,41.061Zm10.433,9.5a6.269,6.269,0,1,1-6.269-10.858l5.671-3.274L53.7,47.29Zm12.667-7.314-5.186,2.994L49.237,35.387l5.186-2.994a6.269,6.269,0,1,1,6.269,10.858Z" transform="translate(-15.701)" fill="#fff"/>
        </g>
      </g>
    </g>
  </g>
</svg>
