<svg xmlns="http://www.w3.org/2000/svg" width="108.188" height="114.008" viewBox="0 0 108.188 114.008">
  <g id="Group_323" data-name="Group 323" transform="translate(-763 -170.978)">
    <g id="Group_320" data-name="Group 320" transform="translate(763 170.978)">
      <g id="Group_314" data-name="Group 314" transform="translate(0 0)">
        <path id="Path_403" data-name="Path 403" d="M436.945,1024.259l-9.029,6.555-3.548-2.74-3.99-3.082-1.391-1.074,9.02-6.547h-24.3a9.762,9.762,0,0,1-9.312-6.763l-7.5-23.1-7.513,23.1a9.773,9.773,0,0,1-9.312,6.763h-24.3l19.656,14.276a9.775,9.775,0,0,1,3.556,10.953l-7.5,23.1,7-5.1a56.2,56.2,0,0,0,4.639,10.02l-7.863,5.705a9.79,9.79,0,0,1-15.067-10.944l8.262-25.42-21.622-15.708a9.793,9.793,0,0,1,5.755-17.716h26.728l8.254-25.42a9.8,9.8,0,0,1,18.632,0l8.254,25.42H431.19a9.793,9.793,0,0,1,5.755,17.716Z" transform="translate(-332.798 -974.36)" fill="#291d89"/>
      </g>
    </g>
    <g>
         <g id="Group_319" data-name="Group 319" transform="translate(816.651 232.525)">
          <path id="Path_404" data-name="Path 404" d="M415.448,1048.256a18.255,18.255,0,0,0-18.235,18.235c0,12.637,18.253,34.225,18.253,34.225s18.217-22.209,18.217-34.225A18.256,18.256,0,0,0,415.448,1048.256Zm5.5,23.574a7.781,7.781,0,1,1,0-11A7.756,7.756,0,0,1,420.95,1071.83Z" transform="translate(-397.213 -1048.256)" fill="#e44752"/>
        </g>
        <animateTransform
      attributeType="xml" 
      attributeName="transform"
      type="translate"
      dur="1.5s"
      values="0,0; 0,-10; 0,0; 0,0;0,0"
      repeatCount="indefinite"/>
    </g>
    <g id="Group_321" data-name="Group 321" transform="translate(798.483 256.583)">
      <path id="Path_405" data-name="Path 405" d="M375.4,1077.14c.067.208.133.425.208.641l.175-.125Z" transform="translate(-375.4 -1077.14)" fill="#e44752"/>
    </g>
  </g>
</svg>
