<svg xmlns="http://www.w3.org/2000/svg" xmlns:xlink="http://www.w3.org/1999/xlink" width="60" height="120" viewBox="0 0 60 120">
  <defs>
    <clipPath id="clip-Artboard_7">
      <rect width="60" height="120"/>
    </clipPath>
  </defs>
  <g id="Artboard_7" data-name="Artboard – 7" clip-path="url(#clip-Artboard_7)">
    <rect id="Rectangle_1029" data-name="Rectangle 1029" width="60" height="60" transform="translate(0 60)" fill="none"/>
    <rect id="Rectangle_1030" data-name="Rectangle 1030" width="60" height="60" transform="translate(0 0)" fill="none"/>
    <g id="dog" transform="translate(3 8)">
      <g id="Group_889" data-name="Group 889" transform="translate(38.75 4.08)">
        <g id="Group_888" data-name="Group 888" transform="translate(0 0)">
          <ellipse id="Ellipse_85" data-name="Ellipse 85" cx="1.5" cy="2.5" rx="1.5" ry="2.5" transform="translate(0.491 0.199)" fill="#0e0840"/>
        </g>
      </g>
      <g id="Group_891" data-name="Group 891" transform="translate(0 0)">
        <g id="Group_890" data-name="Group 890" transform="translate(0 0)">
          <path id="Path_2133" data-name="Path 2133" d="M51.239,39.743c-2.262,0-4.2.159-6.079-1.716L42.733,35.6a5.86,5.86,0,0,0-4.143-1.716H31.734A5.882,5.882,0,0,0,27.581,35.6l-.036.036-4.572,4.572A5.082,5.082,0,0,0,21.485,43.8v1.534a6.308,6.308,0,0,0,4.957,6.059,6.125,6.125,0,0,0,.9.067v.39C22.531,54.626,12.655,60.219,10.7,62.16a10.123,10.123,0,0,0-2.887,6.88,9.129,9.129,0,0,0,.836,3.921L2.93,72.946a2.93,2.93,0,1,0,0,5.859H27.315a1.946,1.946,0,0,0,1.755-2.828,5.888,5.888,0,0,0-2.8-2.55c.671-1.333,1.06-2.435,2.743-2.435h2.241v5.86A1.953,1.953,0,0,0,33.2,78.806H40.47a1.961,1.961,0,0,0,1.71-2.927,5.875,5.875,0,0,0-4.347-2.86l.434-3.475a9.69,9.69,0,0,0,.8-16.085V49.508h5.859a7.674,7.674,0,0,0,5.916-3.35c.466-.776,2.361-3.591,2.356-4.47A1.955,1.955,0,0,0,51.239,39.743Zm-23.9,9.745a3.967,3.967,0,0,1-3.9-4.1V43.8a3.113,3.113,0,0,1,.917-2.213l4.572-4.572a3.99,3.99,0,0,1,2.324-1.131V45.6A3.891,3.891,0,0,1,27.336,49.487ZM2.93,76.853A.977.977,0,0,1,2.924,74.9l6.9.018a7.04,7.04,0,0,0,1.949,1.935Zm46.235-31.7a5.5,5.5,0,0,1-4.242,2.4H39.941a2.926,2.926,0,0,1-2.75-1.953H35.157a4.878,4.878,0,0,0,1.953,2.979v5.85c2.813,2.127,4.409,4.549,3.787,8.175-.494,2.879-2.236,4.405-4.45,5.765-.469,3.754-.611,4.889-.793,6.345,1.97.245,3.744.249,4.818,2.137H33.2V67.087H31.251v1.952H29.009a4.343,4.343,0,0,0-1.7.385,9.8,9.8,0,0,0-2.828-7.29L23.1,63.515a7.928,7.928,0,0,1,1.068,9.721l-.586,1.158c1.519.659,2.976,1.07,3.73,2.459H17.573a7.791,7.791,0,0,1-4.632-14.06c2.15-1.6,14.034-8.474,16.357-9.813,0-.531,0-1.372,0-1.877A5.843,5.843,0,0,0,33.2,45.6V35.836H38.59a3.905,3.905,0,0,1,2.762,1.144l2.427,2.427a7.742,7.742,0,0,0,5.172,2.254A2.741,2.741,0,0,0,50.274,43.3Z" transform="translate(0 -33.883)" fill="#0e0840"/>
        </g>
      </g>
    </g>
    <g id="dog-2" data-name="dog" transform="translate(3 68)">
      <g id="Group_889-2" data-name="Group 889" transform="translate(38.75 4.08)">
        <g id="Group_888-2" data-name="Group 888" transform="translate(0 0)">
          <ellipse id="Ellipse_85-2" data-name="Ellipse 85" cx="1.5" cy="2.5" rx="1.5" ry="2.5" transform="translate(0.491 0.199)" fill="#fff"/>
        </g>
      </g>
      <g id="Group_891-2" data-name="Group 891" transform="translate(0 0)">
        <g id="Group_890-2" data-name="Group 890" transform="translate(0 0)">
          <path id="Path_2133-2" data-name="Path 2133" d="M51.239,39.743c-2.262,0-4.2.159-6.079-1.716L42.733,35.6a5.86,5.86,0,0,0-4.143-1.716H31.734A5.882,5.882,0,0,0,27.581,35.6l-.036.036-4.572,4.572A5.082,5.082,0,0,0,21.485,43.8v1.534a6.308,6.308,0,0,0,4.957,6.059,6.125,6.125,0,0,0,.9.067v.39C22.531,54.626,12.655,60.219,10.7,62.16a10.123,10.123,0,0,0-2.887,6.88,9.129,9.129,0,0,0,.836,3.921L2.93,72.946a2.93,2.93,0,1,0,0,5.859H27.315a1.946,1.946,0,0,0,1.755-2.828,5.888,5.888,0,0,0-2.8-2.55c.671-1.333,1.06-2.435,2.743-2.435h2.241v5.86A1.953,1.953,0,0,0,33.2,78.806H40.47a1.961,1.961,0,0,0,1.71-2.927,5.875,5.875,0,0,0-4.347-2.86l.434-3.475a9.69,9.69,0,0,0,.8-16.085V49.508h5.859a7.674,7.674,0,0,0,5.916-3.35c.466-.776,2.361-3.591,2.356-4.47A1.955,1.955,0,0,0,51.239,39.743Zm-23.9,9.745a3.967,3.967,0,0,1-3.9-4.1V43.8a3.113,3.113,0,0,1,.917-2.213l4.572-4.572a3.99,3.99,0,0,1,2.324-1.131V45.6A3.891,3.891,0,0,1,27.336,49.487ZM2.93,76.853A.977.977,0,0,1,2.924,74.9l6.9.018a7.04,7.04,0,0,0,1.949,1.935Zm46.235-31.7a5.5,5.5,0,0,1-4.242,2.4H39.941a2.926,2.926,0,0,1-2.75-1.953H35.157a4.878,4.878,0,0,0,1.953,2.979v5.85c2.813,2.127,4.409,4.549,3.787,8.175-.494,2.879-2.236,4.405-4.45,5.765-.469,3.754-.611,4.889-.793,6.345,1.97.245,3.744.249,4.818,2.137H33.2V67.087H31.251v1.952H29.009a4.343,4.343,0,0,0-1.7.385,9.8,9.8,0,0,0-2.828-7.29L23.1,63.515a7.928,7.928,0,0,1,1.068,9.721l-.586,1.158c1.519.659,2.976,1.07,3.73,2.459H17.573a7.791,7.791,0,0,1-4.632-14.06c2.15-1.6,14.034-8.474,16.357-9.813,0-.531,0-1.372,0-1.877A5.843,5.843,0,0,0,33.2,45.6V35.836H38.59a3.905,3.905,0,0,1,2.762,1.144l2.427,2.427a7.742,7.742,0,0,0,5.172,2.254A2.741,2.741,0,0,0,50.274,43.3Z" transform="translate(0 -33.883)" fill="#fff"/>
        </g>
      </g>
    </g>
  </g>
</svg>
