<svg xmlns="http://www.w3.org/2000/svg" width="26" height="24" viewBox="0 0 26 24">
  <g id="Group_904" data-name="Group 904" transform="translate(-767 -352)">
    <rect id="Rectangle_903" data-name="Rectangle 903" width="26" height="24" rx="4" transform="translate(767 352)" fill="#f6f5f5"/>
    <path id="phone" d="M12.5,9.8v1.568a1.045,1.045,0,0,1-1.139,1.045,10.342,10.342,0,0,1-4.51-1.6A10.19,10.19,0,0,1,3.72,7.67a10.342,10.342,0,0,1-1.6-4.531A1.045,1.045,0,0,1,3.156,2H4.724a1.045,1.045,0,0,1,1.045.9,6.71,6.71,0,0,0,.366,1.468A1.045,1.045,0,0,1,5.9,5.47l-.664.664A8.361,8.361,0,0,0,8.371,9.269l.664-.664a1.045,1.045,0,0,1,1.1-.235,6.71,6.71,0,0,0,1.468.366A1.045,1.045,0,0,1,12.5,9.8Z" transform="translate(772.999 356.5)" fill="none" stroke="#000" stroke-linecap="round" stroke-linejoin="round" stroke-width="1"/>
  </g>
</svg>
