<svg xmlns="http://www.w3.org/2000/svg" xmlns:xlink="http://www.w3.org/1999/xlink" width="60" height="120" viewBox="0 0 60 120">
  <defs>
    <clipPath id="clip-Artboard_2">
      <rect width="60" height="120"/>
    </clipPath>
  </defs>
  <g id="Artboard_2" data-name="Artboard – 2" clip-path="url(#clip-Artboard_2)">
    <rect id="Rectangle_1029" data-name="Rectangle 1029" width="60" height="60" transform="translate(0 60)" fill="none"/>
    <rect id="Rectangle_1030" data-name="Rectangle 1030" width="60" height="60" transform="translate(0 0)" fill="none"/>
    <g id="relocation" transform="translate(8 68)">
      <path id="Path_2114" data-name="Path 2114" d="M14.477,232.342a1.315,1.315,0,0,0-1.77,0L.43,243.5A1.315,1.315,0,0,0,2.2,245.45l.431-.391v10.18a1.315,1.315,0,0,0,1.315,1.315H23.238a1.315,1.315,0,0,0,1.315-1.315v-10.18l.431.391a1.315,1.315,0,0,0,1.77-1.947Zm.431,21.581H12.277v-5.262h2.631Zm7.015,0H17.538v-6.577a1.315,1.315,0,0,0-1.315-1.315H10.961a1.315,1.315,0,0,0-1.315,1.315v6.577H5.261V242.667l8.331-7.573,8.331,7.573Z" transform="translate(0 -211.656)" fill="#fff"/>
      <path id="Path_2115" data-name="Path 2115" d="M125,333.315a1.315,1.315,0,0,0,1.315,1.315h2.631a1.315,1.315,0,0,0,0-2.631h-2.631A1.315,1.315,0,0,0,125,333.315Z" transform="translate(-114.038 -302.886)" fill="#fff"/>
      <path id="Path_2116" data-name="Path 2116" d="M202.342,13.361a1.315,1.315,0,0,0,1.858.088l.431-.391v10.18a1.315,1.315,0,0,0,1.315,1.315h19.292a1.315,1.315,0,0,0,1.315-1.315V13.058l.431.391a1.315,1.315,0,1,0,1.77-1.947L216.477.342a1.315,1.315,0,0,0-1.77,0L202.43,11.5a1.315,1.315,0,0,0-.088,1.858Zm14.566,8.562h-2.631V16.662h2.631Zm-1.315-18.83,8.331,7.573V21.923h-4.385V15.346a1.315,1.315,0,0,0-1.315-1.315h-5.262a1.315,1.315,0,0,0-1.315,1.315v6.577h-4.385V10.667Z" transform="translate(-184.286 0)" fill="#fff"/>
      <path id="Path_2117" data-name="Path 2117" d="M328.315,102.631h2.631a1.315,1.315,0,0,0,0-2.631h-2.631a1.315,1.315,0,1,0,0,2.631Z" transform="translate(-298.324 -91.231)" fill="#fff"/>
      <path id="Path_2118" data-name="Path 2118" d="M329.153,315.894l-3.508-3.508a1.315,1.315,0,0,0-1.86,0l-3.508,3.508a1.315,1.315,0,0,0,1.86,1.86l1.262-1.262v8.224a2.195,2.195,0,0,1-2.192,2.192h-7.892a1.315,1.315,0,0,0,0,2.631h7.892a4.829,4.829,0,0,0,4.823-4.823v-8.224l1.262,1.262a1.315,1.315,0,0,0,1.86-1.86Z" transform="translate(-284.64 -284.64)" fill="#fff"/>
      <path id="Path_2119" data-name="Path 2119" d="M3.893,21.538a1.315,1.315,0,0,0,1.86,0L9.26,18.03A1.315,1.315,0,1,0,7.4,16.17L6.138,17.432V4.823A2.195,2.195,0,0,1,8.33,2.631H22.361a1.315,1.315,0,1,0,0-2.631H8.33A4.829,4.829,0,0,0,3.507,4.823V17.432L2.245,16.17a1.315,1.315,0,0,0-1.86,1.86Z" transform="translate(0.001)" fill="#fff"/>
    </g>
    <g id="relocation-2" data-name="relocation" transform="translate(8 8)">
      <path id="Path_2114-2" data-name="Path 2114" d="M14.477,232.342a1.315,1.315,0,0,0-1.77,0L.43,243.5A1.315,1.315,0,0,0,2.2,245.45l.431-.391v10.18a1.315,1.315,0,0,0,1.315,1.315H23.238a1.315,1.315,0,0,0,1.315-1.315v-10.18l.431.391a1.315,1.315,0,0,0,1.77-1.947Zm.431,21.581H12.277v-5.262h2.631Zm7.015,0H17.538v-6.577a1.315,1.315,0,0,0-1.315-1.315H10.961a1.315,1.315,0,0,0-1.315,1.315v6.577H5.261V242.667l8.331-7.573,8.331,7.573Z" transform="translate(0 -211.656)" fill="#0e0840"/>
      <path id="Path_2115-2" data-name="Path 2115" d="M125,333.315a1.315,1.315,0,0,0,1.315,1.315h2.631a1.315,1.315,0,0,0,0-2.631h-2.631A1.315,1.315,0,0,0,125,333.315Z" transform="translate(-114.038 -302.886)" fill="#0e0840"/>
      <path id="Path_2116-2" data-name="Path 2116" d="M202.342,13.361a1.315,1.315,0,0,0,1.858.088l.431-.391v10.18a1.315,1.315,0,0,0,1.315,1.315h19.292a1.315,1.315,0,0,0,1.315-1.315V13.058l.431.391a1.315,1.315,0,1,0,1.77-1.947L216.477.342a1.315,1.315,0,0,0-1.77,0L202.43,11.5a1.315,1.315,0,0,0-.088,1.858Zm14.566,8.562h-2.631V16.662h2.631Zm-1.315-18.83,8.331,7.573V21.923h-4.385V15.346a1.315,1.315,0,0,0-1.315-1.315h-5.262a1.315,1.315,0,0,0-1.315,1.315v6.577h-4.385V10.667Z" transform="translate(-184.286 0)" fill="#0e0840"/>
      <path id="Path_2117-2" data-name="Path 2117" d="M328.315,102.631h2.631a1.315,1.315,0,0,0,0-2.631h-2.631a1.315,1.315,0,1,0,0,2.631Z" transform="translate(-298.324 -91.231)" fill="#0e0840"/>
      <path id="Path_2118-2" data-name="Path 2118" d="M329.153,315.894l-3.508-3.508a1.315,1.315,0,0,0-1.86,0l-3.508,3.508a1.315,1.315,0,0,0,1.86,1.86l1.262-1.262v8.224a2.195,2.195,0,0,1-2.192,2.192h-7.892a1.315,1.315,0,0,0,0,2.631h7.892a4.829,4.829,0,0,0,4.823-4.823v-8.224l1.262,1.262a1.315,1.315,0,0,0,1.86-1.86Z" transform="translate(-284.64 -284.64)" fill="#0e0840"/>
      <path id="Path_2119-2" data-name="Path 2119" d="M3.893,21.538a1.315,1.315,0,0,0,1.86,0L9.26,18.03A1.315,1.315,0,1,0,7.4,16.17L6.138,17.432V4.823A2.195,2.195,0,0,1,8.33,2.631H22.361a1.315,1.315,0,1,0,0-2.631H8.33A4.829,4.829,0,0,0,3.507,4.823V17.432L2.245,16.17a1.315,1.315,0,0,0-1.86,1.86Z" transform="translate(0.001)" fill="#0e0840"/>
    </g>
  </g>
</svg>
