<svg xmlns="http://www.w3.org/2000/svg" xmlns:xlink="http://www.w3.org/1999/xlink" width="18" height="34" viewBox="0 0 18 34">
  <defs>
    <clipPath id="clip-Artboard_4">
      <rect width="18" height="34"/>
    </clipPath>
  </defs>
  <g id="Artboard_4" data-name="Artboard – 4" clip-path="url(#clip-Artboard_4)">
    <g id="Group_900" data-name="Group 900">
      <rect id="Rectangle_1029" data-name="Rectangle 1029" width="18" height="34" fill="none"/>
      <g id="Star_icon">
        <path id="star" d="M6.2,5l-5.3.764-.08.018a.468.468,0,0,0-.184.784l3.831,3.681-.9,5.2-.007.076a.477.477,0,0,0,.7.42L9,13.486l4.737,2.459.071.03a.475.475,0,0,0,.621-.526l-.9-5.2,3.832-3.686.054-.061a.47.47,0,0,0-.318-.741L11.8,5,9.427.262a.48.48,0,0,0-.855,0ZM9,1.534l2.052,4.1.049.078a.478.478,0,0,0,.31.179L16,6.554,12.679,9.748l-.06.07a.466.466,0,0,0-.077.346l.783,4.5-4.1-2.129L9.134,12.5a.483.483,0,0,0-.358.035l-4.1,2.129.785-4.507.007-.092a.468.468,0,0,0-.144-.325L2,6.554,6.59,5.892a.476.476,0,0,0,.359-.257Z" fill="#2c2a3e"/>
        <g id="Group" transform="translate(0.5 18)">
          <path id="star-copy" d="M5.7,5l-5.3.764-.08.018a.468.468,0,0,0-.184.784l3.831,3.681-.9,5.2-.007.076a.477.477,0,0,0,.7.42L8.5,13.486l4.737,2.459.071.03a.475.475,0,0,0,.621-.526l-.9-5.2,3.832-3.686.054-.061a.47.47,0,0,0-.318-.741L11.3,5,8.927.262a.48.48,0,0,0-.855,0ZM8.5,1.534l2.052,4.1.049.078a.478.478,0,0,0,.31.179l4.587.662L12.179,9.748l-.06.07a.466.466,0,0,0-.077.346l.783,4.5-4.1-2.129L8.634,12.5a.483.483,0,0,0-.358.035l-4.1,2.129.785-4.507.007-.092a.468.468,0,0,0-.144-.325L1.5,6.554,6.09,5.892a.476.476,0,0,0,.359-.257Z" fill="#2c2a3e"/>
          <path id="Path" d="M8.5,1.534l2.052,4.1.049.078a.478.478,0,0,0,.31.179l4.587.662L12.179,9.748l-.06.07a.466.466,0,0,0-.077.346l.783,4.5-4.1-2.129L8.634,12.5a.483.483,0,0,0-.358.035l-4.1,2.129.785-4.507.007-.092a.468.468,0,0,0-.144-.325L1.5,6.554,6.09,5.892a.476.476,0,0,0,.359-.257Z" fill="#ffc847"/>
        </g>
      </g>
    </g>
  </g>
</svg>
