<?xml version="1.0" standalone="no"?>
<!DOCTYPE svg PUBLIC "-//W3C//DTD SVG 20010904//EN"
 "http://www.w3.org/TR/2001/REC-SVG-20010904/DTD/svg10.dtd">
<svg version="1.0" xmlns="http://www.w3.org/2000/svg"
 width="115.000000pt" height="115.000000pt" viewBox="0 0 115.000000 115.000000"
 preserveAspectRatio="xMidYMid meet">
<metadata>
Created by potrace 1.11, written by Peter Selinger 2001-2013
</metadata>
<g transform="translate(0.000000,115.000000) scale(0.100000,-0.100000)"
fill="#000000" stroke="none">
<path d="M523 1138 c-27 -13 -40 -41 -88 -188 -21 -63 -39 -116 -40 -118 -2
-2 -70 -5 -152 -6 -81 -2 -156 -6 -166 -11 -21 -9 -47 -56 -47 -85 0 -48 16
-64 161 -167 l95 -67 -43 -135 c-24 -75 -43 -144 -43 -154 0 -50 58 -102 107
-94 19 3 123 63 123 71 0 10 -42 96 -46 96 -3 0 -19 -9 -35 -21 -16 -11 -29
-19 -29 -17 0 2 18 58 40 125 21 68 37 132 35 142 -8 40 -27 61 -127 132
l-102 74 143 5 c141 5 143 5 164 32 12 15 30 54 40 87 9 34 27 86 38 117 l21
56 40 -122 c55 -170 54 -169 226 -172 l137 -3 -43 -31 -42 -31 44 -31 c24 -18
47 -32 50 -32 14 0 92 63 108 88 33 50 16 113 -37 139 -11 6 -82 10 -157 11
-75 0 -141 3 -146 6 -6 3 -25 52 -43 109 -17 56 -38 119 -47 140 -22 57 -84
82 -139 55z"/>
<path d="M712 530 c-51 -12 -100 -51 -123 -98 -42 -86 -10 -192 107 -352 l52
-72 51 68 c61 84 120 196 128 246 14 93 -39 176 -130 203 -28 8 -51 15 -51 14
-1 -1 -16 -5 -34 -9z m73 -106 c23 -9 44 -55 38 -86 -6 -33 -29 -54 -67 -61
-23 -4 -36 1 -59 24 -24 25 -28 35 -23 62 10 53 60 80 111 61z"/>
</g>
</svg>
