<svg xmlns="http://www.w3.org/2000/svg" xmlns:xlink="http://www.w3.org/1999/xlink" width="60" height="120" viewBox="0 0 60 120">
  <defs>
    <clipPath id="clip-Artboard_6">
      <rect width="60" height="120"/>
    </clipPath>
  </defs>
  <g id="Artboard_6" data-name="Artboard – 6" clip-path="url(#clip-Artboard_6)">
    <rect id="Rectangle_1029" data-name="Rectangle 1029" width="60" height="60" transform="translate(0 60)" fill="none"/>
    <rect id="Rectangle_1030" data-name="Rectangle 1030" width="60" height="60" transform="translate(0 0)" fill="none"/>
    <g id="laptop" transform="translate(3 69)">
      <g id="Group_883" data-name="Group 883" transform="translate(0 0)">
        <g id="Group_882" data-name="Group 882" transform="translate(0 0)">
          <path id="Path_2130" data-name="Path 2130" d="M55,97.536c0-.008,0-.016,0-.024a.788.788,0,0,0-.014-.094l0-.009a.782.782,0,0,0-.023-.083l-.008-.021q-.014-.037-.031-.071l-.005-.012-4.309-8.5V60.761a1.561,1.561,0,0,0-1.56-1.56H5.956a1.561,1.561,0,0,0-1.56,1.56V88.722l-4.309,8.5-.005.012c-.011.023-.021.047-.031.071l-.008.021a.819.819,0,0,0-.023.083l0,.009A.794.794,0,0,0,0,97.512c0,.008,0,.016,0,.024s0,.033,0,.05V99.63a1.854,1.854,0,0,0,1.852,1.852h51.3A1.854,1.854,0,0,0,55,99.63V97.586C55,97.569,55,97.552,55,97.536ZM6.007,60.813H48.993v27.3H6.007ZM5.7,89.721H49.3l3.579,7.059h-17.7l-.888-3.221a1.521,1.521,0,0,0-1.463-1.114H22.169a1.521,1.521,0,0,0-1.463,1.114l-.888,3.222H2.117ZM33.51,96.78H21.49l.751-2.724H32.759ZM53.389,99.63a.241.241,0,0,1-.241.241H1.852a.241.241,0,0,1-.241-.241V98.391H53.389Z" transform="translate(0 -59.201)" fill="#fff"/>
        </g>
      </g>
      <g id="Group_885" data-name="Group 885" transform="translate(8.332 16.168)">
        <g id="Group_884" data-name="Group 884" transform="translate(0 0)">
          <path id="Path_2131" data-name="Path 2131" d="M109.479,213.756a.828.828,0,0,0-.781.869v8.81H73.485v-8.81a.785.785,0,1,0-1.562,0v9.185a1.3,1.3,0,0,0,1.225,1.362h35.888a1.3,1.3,0,0,0,1.225-1.362v-9.185A.829.829,0,0,0,109.479,213.756Z" transform="translate(-71.923 -213.756)" fill="#fff"/>
        </g>
      </g>
      <g id="Group_887" data-name="Group 887" transform="translate(8.332 3.591)">
        <g id="Group_886" data-name="Group 886" transform="translate(0 0)">
          <path id="Path_2132" data-name="Path 2132" d="M109.035,90.2H73.148a1.3,1.3,0,0,0-1.225,1.362v9.185a.785.785,0,1,0,1.562,0v-8.81H108.7v8.81a.785.785,0,1,0,1.562,0V91.565A1.3,1.3,0,0,0,109.035,90.2Z" transform="translate(-71.923 -90.203)" fill="#fff"/>
        </g>
      </g>
    </g>
    <g id="laptop-2" data-name="laptop" transform="translate(3 9)">
      <g id="Group_883-2" data-name="Group 883" transform="translate(0 0)">
        <g id="Group_882-2" data-name="Group 882" transform="translate(0 0)">
          <path id="Path_2130-2" data-name="Path 2130" d="M55,97.536c0-.008,0-.016,0-.024a.788.788,0,0,0-.014-.094l0-.009a.782.782,0,0,0-.023-.083l-.008-.021q-.014-.037-.031-.071l-.005-.012-4.309-8.5V60.761a1.561,1.561,0,0,0-1.56-1.56H5.956a1.561,1.561,0,0,0-1.56,1.56V88.722l-4.309,8.5-.005.012c-.011.023-.021.047-.031.071l-.008.021a.819.819,0,0,0-.023.083l0,.009A.794.794,0,0,0,0,97.512c0,.008,0,.016,0,.024s0,.033,0,.05V99.63a1.854,1.854,0,0,0,1.852,1.852h51.3A1.854,1.854,0,0,0,55,99.63V97.586C55,97.569,55,97.552,55,97.536ZM6.007,60.813H48.993v27.3H6.007ZM5.7,89.721H49.3l3.579,7.059h-17.7l-.888-3.221a1.521,1.521,0,0,0-1.463-1.114H22.169a1.521,1.521,0,0,0-1.463,1.114l-.888,3.222H2.117ZM33.51,96.78H21.49l.751-2.724H32.759ZM53.389,99.63a.241.241,0,0,1-.241.241H1.852a.241.241,0,0,1-.241-.241V98.391H53.389Z" transform="translate(0 -59.201)" fill="#0e0840"/>
        </g>
      </g>
      <g id="Group_885-2" data-name="Group 885" transform="translate(8.332 16.168)">
        <g id="Group_884-2" data-name="Group 884" transform="translate(0 0)">
          <path id="Path_2131-2" data-name="Path 2131" d="M109.479,213.756a.828.828,0,0,0-.781.869v8.81H73.485v-8.81a.785.785,0,1,0-1.562,0v9.185a1.3,1.3,0,0,0,1.225,1.362h35.888a1.3,1.3,0,0,0,1.225-1.362v-9.185A.829.829,0,0,0,109.479,213.756Z" transform="translate(-71.923 -213.756)" fill="#0e0840"/>
        </g>
      </g>
      <g id="Group_887-2" data-name="Group 887" transform="translate(8.332 3.591)">
        <g id="Group_886-2" data-name="Group 886" transform="translate(0 0)">
          <path id="Path_2132-2" data-name="Path 2132" d="M109.035,90.2H73.148a1.3,1.3,0,0,0-1.225,1.362v9.185a.785.785,0,1,0,1.562,0v-8.81H108.7v8.81a.785.785,0,1,0,1.562,0V91.565A1.3,1.3,0,0,0,109.035,90.2Z" transform="translate(-71.923 -90.203)" fill="#0e0840"/>
        </g>
      </g>
    </g>
  </g>
</svg>
