<svg xmlns="http://www.w3.org/2000/svg" xmlns:xlink="http://www.w3.org/1999/xlink" width="50" height="102" viewBox="0 0 50 102">
  <defs>
    <clipPath id="clip-Artboard_2">
      <rect width="50" height="102"/>
    </clipPath>
  </defs>
  <g id="Artboard_2" data-name="Artboard – 2" clip-path="url(#clip-Artboard_2)">
    <rect width="50" height="102" fill="#fff"/>
    <g id="Group_901" data-name="Group 901">
      <rect id="Rectangle_1029" data-name="Rectangle 1029" width="49.77" height="49.77" fill="#fff"/>
      <g id="user" transform="translate(6 2)">
        <path id="Path_440" data-name="Path 440" d="M98.146,22.229a10.755,10.755,0,0,0,7.859-3.256,10.755,10.755,0,0,0,3.256-7.859A10.756,10.756,0,0,0,106,3.256a11.112,11.112,0,0,0-15.717,0,10.755,10.755,0,0,0-3.256,7.858,10.755,10.755,0,0,0,3.256,7.859A10.758,10.758,0,0,0,98.146,22.229ZM92.2,5.168a8.407,8.407,0,0,1,11.893,0,8.035,8.035,0,0,1,2.464,5.946,8.035,8.035,0,0,1-2.464,5.946,8.407,8.407,0,0,1-11.893,0,8.034,8.034,0,0,1-2.464-5.946A8.034,8.034,0,0,1,92.2,5.168Zm0,0" transform="translate(-79.188)"/>
        <path id="Path_441" data-name="Path 441" d="M38.407,260.51a27.453,27.453,0,0,0-.374-2.916,22.973,22.973,0,0,0-.717-2.932,14.482,14.482,0,0,0-1.205-2.734,10.307,10.307,0,0,0-1.817-2.368,8.013,8.013,0,0,0-2.611-1.64,9.022,9.022,0,0,0-3.333-.6,3.383,3.383,0,0,0-1.806.766c-.541.353-1.175.762-1.882,1.213a10.783,10.783,0,0,1-2.435,1.073,9.455,9.455,0,0,1-5.956,0,10.751,10.751,0,0,1-2.433-1.072c-.7-.447-1.334-.856-1.884-1.214a3.379,3.379,0,0,0-1.806-.766,9.011,9.011,0,0,0-3.332.6A8.006,8.006,0,0,0,4.2,249.56a10.309,10.309,0,0,0-1.817,2.368,14.509,14.509,0,0,0-1.205,2.735,23.028,23.028,0,0,0-.717,2.931,27.266,27.266,0,0,0-.374,2.917c-.061.881-.092,1.8-.092,2.725a7.663,7.663,0,0,0,2.276,5.8,8.192,8.192,0,0,0,5.864,2.139H30.36a8.193,8.193,0,0,0,5.864-2.139,7.66,7.66,0,0,0,2.276-5.8c0-.93-.032-1.847-.093-2.726Zm-4.047,6.564a5.515,5.515,0,0,1-4,1.394H8.14a5.516,5.516,0,0,1-4-1.393A5,5,0,0,1,2.7,263.236c0-.865.029-1.718.086-2.538a24.594,24.594,0,0,1,.338-2.626,20.311,20.311,0,0,1,.631-2.585,11.812,11.812,0,0,1,.981-2.223,7.641,7.641,0,0,1,1.335-1.75,5.315,5.315,0,0,1,1.737-1.08,6.223,6.223,0,0,1,2.13-.411c.095.05.263.146.537.325.556.362,1.2.776,1.905,1.228a13.4,13.4,0,0,0,3.056,1.366,12.157,12.157,0,0,0,7.62,0,13.414,13.414,0,0,0,3.058-1.367c.725-.463,1.348-.865,1.9-1.227.273-.178.442-.274.537-.325a6.227,6.227,0,0,1,2.13.411,5.323,5.323,0,0,1,1.736,1.08,7.62,7.62,0,0,1,1.335,1.75,11.772,11.772,0,0,1,.981,2.223,20.263,20.263,0,0,1,.631,2.585,24.8,24.8,0,0,1,.338,2.627h0c.057.816.086,1.67.087,2.537a5,5,0,0,1-1.436,3.838Zm0,0" transform="translate(0 -225.026)"/>
      </g>
    </g>
    <g id="Group_900" data-name="Group 900">
      <rect id="Rectangle_1030" data-name="Rectangle 1030" width="49.77" height="49.77" transform="translate(0 52)" fill="#fff"/>
      <g id="user-2" data-name="user" transform="translate(6 54)">
        <path id="Path_440-2" data-name="Path 440" d="M98.146,22.229a10.755,10.755,0,0,0,7.859-3.256,10.755,10.755,0,0,0,3.256-7.859A10.756,10.756,0,0,0,106,3.256a11.112,11.112,0,0,0-15.717,0,10.755,10.755,0,0,0-3.256,7.858,10.755,10.755,0,0,0,3.256,7.859A10.758,10.758,0,0,0,98.146,22.229ZM92.2,5.168a8.407,8.407,0,0,1,11.893,0,8.035,8.035,0,0,1,2.464,5.946,8.035,8.035,0,0,1-2.464,5.946,8.407,8.407,0,0,1-11.893,0,8.034,8.034,0,0,1-2.464-5.946A8.034,8.034,0,0,1,92.2,5.168Zm0,0" transform="translate(-79.188)" fill="#5067eb"/>
        <path id="Path_441-2" data-name="Path 441" d="M38.407,260.51a27.453,27.453,0,0,0-.374-2.916,22.973,22.973,0,0,0-.717-2.932,14.482,14.482,0,0,0-1.205-2.734,10.307,10.307,0,0,0-1.817-2.368,8.013,8.013,0,0,0-2.611-1.64,9.022,9.022,0,0,0-3.333-.6,3.383,3.383,0,0,0-1.806.766c-.541.353-1.175.762-1.882,1.213a10.783,10.783,0,0,1-2.435,1.073,9.455,9.455,0,0,1-5.956,0,10.751,10.751,0,0,1-2.433-1.072c-.7-.447-1.334-.856-1.884-1.214a3.379,3.379,0,0,0-1.806-.766,9.011,9.011,0,0,0-3.332.6A8.006,8.006,0,0,0,4.2,249.56a10.309,10.309,0,0,0-1.817,2.368,14.509,14.509,0,0,0-1.205,2.735,23.028,23.028,0,0,0-.717,2.931,27.266,27.266,0,0,0-.374,2.917c-.061.881-.092,1.8-.092,2.725a7.663,7.663,0,0,0,2.276,5.8,8.192,8.192,0,0,0,5.864,2.139H30.36a8.193,8.193,0,0,0,5.864-2.139,7.66,7.66,0,0,0,2.276-5.8c0-.93-.032-1.847-.093-2.726Zm-4.047,6.564a5.515,5.515,0,0,1-4,1.394H8.14a5.516,5.516,0,0,1-4-1.393A5,5,0,0,1,2.7,263.236c0-.865.029-1.718.086-2.538a24.594,24.594,0,0,1,.338-2.626,20.311,20.311,0,0,1,.631-2.585,11.812,11.812,0,0,1,.981-2.223,7.641,7.641,0,0,1,1.335-1.75,5.315,5.315,0,0,1,1.737-1.08,6.223,6.223,0,0,1,2.13-.411c.095.05.263.146.537.325.556.362,1.2.776,1.905,1.228a13.4,13.4,0,0,0,3.056,1.366,12.157,12.157,0,0,0,7.62,0,13.414,13.414,0,0,0,3.058-1.367c.725-.463,1.348-.865,1.9-1.227.273-.178.442-.274.537-.325a6.227,6.227,0,0,1,2.13.411,5.323,5.323,0,0,1,1.736,1.08,7.62,7.62,0,0,1,1.335,1.75,11.772,11.772,0,0,1,.981,2.223,20.263,20.263,0,0,1,.631,2.585,24.8,24.8,0,0,1,.338,2.627h0c.057.816.086,1.67.087,2.537a5,5,0,0,1-1.436,3.838Zm0,0" transform="translate(0 -225.026)" fill="#5067eb"/>
      </g>
    </g>
  </g>
</svg>
