<svg xmlns="http://www.w3.org/2000/svg" xmlns:xlink="http://www.w3.org/1999/xlink" width="60" height="120" viewBox="0 0 60 120">
  <defs>
    <clipPath id="clip-Artboard_5">
      <rect width="60" height="120"/>
    </clipPath>
  </defs>
  <g id="Artboard_5" data-name="Artboard – 5" clip-path="url(#clip-Artboard_5)">
    <rect id="Rectangle_1029" data-name="Rectangle 1029" width="60" height="60" transform="translate(0 60)" fill="none"/>
    <rect id="Rectangle_1030" data-name="Rectangle 1030" width="60" height="60" transform="translate(0 0)" fill="none"/>
    <g id="car" transform="translate(5 71)">
      <g id="Group_873" data-name="Group 873" transform="translate(0)">
        <g id="Group_872" data-name="Group 872" transform="translate(0 0)">
          <path id="Path_2125" data-name="Path 2125" d="M47.821,67.29l-1.084-1.147-3.8-10.253A4.461,4.461,0,0,0,38.779,53H11.613a4.446,4.446,0,0,0-4.154,2.89L3.708,66.015,2.146,67.46A6.1,6.1,0,0,0,0,72.1V87.041a4.441,4.441,0,0,0,4.441,4.42h2.8a4.441,4.441,0,0,0,4.441-4.42V84.873H38.035v2.167a4.441,4.441,0,0,0,4.441,4.42h2.8a4.441,4.441,0,0,0,4.441-4.42V71.71A6.161,6.161,0,0,0,47.821,67.29ZM9.456,56.612a2.3,2.3,0,0,1,2.157-1.487H38.79a2.313,2.313,0,0,1,2.157,1.487l3.315,8.925H41.786a7.287,7.287,0,0,0-14.417,0H6.141Zm30.163,8.925h-10.1a5.161,5.161,0,0,1,10.1,0ZM9.562,87.041a2.31,2.31,0,0,1-2.316,2.295h-2.8a2.31,2.31,0,0,1-2.316-2.295V84.257a4.315,4.315,0,0,0,2.316.616H9.562Zm38.035,0a2.31,2.31,0,0,1-2.316,2.295h-2.8a2.317,2.317,0,0,1-2.316-2.295V84.873h5.121a4.315,4.315,0,0,0,2.316-.616v2.784Zm-2.316-4.292H4.441a2.292,2.292,0,0,1-2.316-2.274V72.1a3.989,3.989,0,0,1,1.413-3.039l.042-.042,1.445-1.36H45.26l1.02,1.094c.011.021.042.032.053.053a4,4,0,0,1,1.254,2.9v8.765H47.6A2.3,2.3,0,0,1,45.281,82.748Z" transform="translate(0 -53)" fill="#fff"/>
        </g>
      </g>
      <g id="Group_875" data-name="Group 875" transform="translate(4.993 18.912)">
        <g id="Group_874" data-name="Group 874">
          <path id="Path_2126" data-name="Path 2126" d="M56.031,231H48.062A1.066,1.066,0,0,0,47,232.062v5.525a1.066,1.066,0,0,0,1.062,1.062h7.968a1.066,1.066,0,0,0,1.062-1.062v-5.525A1.066,1.066,0,0,0,56.031,231Zm-1.062,5.525H49.125v-3.4h5.843Z" transform="translate(-47 -231)" fill="#fff"/>
        </g>
      </g>
      <g id="Group_877" data-name="Group 877" transform="translate(34.636 18.912)">
        <g id="Group_876" data-name="Group 876">
          <path id="Path_2127" data-name="Path 2127" d="M335.031,231h-7.968A1.066,1.066,0,0,0,326,232.062v5.525a1.066,1.066,0,0,0,1.062,1.062h7.968a1.066,1.066,0,0,0,1.062-1.062v-5.525A1.066,1.066,0,0,0,335.031,231Zm-1.062,5.525h-5.843v-3.4h5.843Z" transform="translate(-326 -231)" fill="#fff"/>
        </g>
      </g>
      <g id="Group_879" data-name="Group 879" transform="translate(18.667 23.374)">
        <g id="Group_878" data-name="Group 878" transform="translate(0 0)">
          <path id="Path_2128" data-name="Path 2128" d="M187.026,273H176.762a1.062,1.062,0,1,0,0,2.125h10.263a1.062,1.062,0,1,0,0-2.125Z" transform="translate(-175.7 -273)" fill="#fff"/>
        </g>
      </g>
      <g id="Group_881" data-name="Group 881" transform="translate(18.667 20.08)">
        <g id="Group_880" data-name="Group 880">
          <path id="Path_2129" data-name="Path 2129" d="M187.026,242H176.762a1.062,1.062,0,1,0,0,2.125h10.263a1.062,1.062,0,1,0,0-2.125Z" transform="translate(-175.7 -242)" fill="#fff"/>
        </g>
      </g>
    </g>
    <g id="car-2" data-name="car" transform="translate(5 11)">
      <g id="Group_873-2" data-name="Group 873" transform="translate(0)">
        <g id="Group_872-2" data-name="Group 872" transform="translate(0 0)">
          <path id="Path_2125-2" data-name="Path 2125" d="M47.821,67.29l-1.084-1.147-3.8-10.253A4.461,4.461,0,0,0,38.779,53H11.613a4.446,4.446,0,0,0-4.154,2.89L3.708,66.015,2.146,67.46A6.1,6.1,0,0,0,0,72.1V87.041a4.441,4.441,0,0,0,4.441,4.42h2.8a4.441,4.441,0,0,0,4.441-4.42V84.873H38.035v2.167a4.441,4.441,0,0,0,4.441,4.42h2.8a4.441,4.441,0,0,0,4.441-4.42V71.71A6.161,6.161,0,0,0,47.821,67.29ZM9.456,56.612a2.3,2.3,0,0,1,2.157-1.487H38.79a2.313,2.313,0,0,1,2.157,1.487l3.315,8.925H41.786a7.287,7.287,0,0,0-14.417,0H6.141Zm30.163,8.925h-10.1a5.161,5.161,0,0,1,10.1,0ZM9.562,87.041a2.31,2.31,0,0,1-2.316,2.295h-2.8a2.31,2.31,0,0,1-2.316-2.295V84.257a4.315,4.315,0,0,0,2.316.616H9.562Zm38.035,0a2.31,2.31,0,0,1-2.316,2.295h-2.8a2.317,2.317,0,0,1-2.316-2.295V84.873h5.121a4.315,4.315,0,0,0,2.316-.616v2.784Zm-2.316-4.292H4.441a2.292,2.292,0,0,1-2.316-2.274V72.1a3.989,3.989,0,0,1,1.413-3.039l.042-.042,1.445-1.36H45.26l1.02,1.094c.011.021.042.032.053.053a4,4,0,0,1,1.254,2.9v8.765H47.6A2.3,2.3,0,0,1,45.281,82.748Z" transform="translate(0 -53)" fill="#0e0840"/>
        </g>
      </g>
      <g id="Group_875-2" data-name="Group 875" transform="translate(4.993 18.912)">
        <g id="Group_874-2" data-name="Group 874">
          <path id="Path_2126-2" data-name="Path 2126" d="M56.031,231H48.062A1.066,1.066,0,0,0,47,232.062v5.525a1.066,1.066,0,0,0,1.062,1.062h7.968a1.066,1.066,0,0,0,1.062-1.062v-5.525A1.066,1.066,0,0,0,56.031,231Zm-1.062,5.525H49.125v-3.4h5.843Z" transform="translate(-47 -231)" fill="#0e0840"/>
        </g>
      </g>
      <g id="Group_877-2" data-name="Group 877" transform="translate(34.636 18.912)">
        <g id="Group_876-2" data-name="Group 876">
          <path id="Path_2127-2" data-name="Path 2127" d="M335.031,231h-7.968A1.066,1.066,0,0,0,326,232.062v5.525a1.066,1.066,0,0,0,1.062,1.062h7.968a1.066,1.066,0,0,0,1.062-1.062v-5.525A1.066,1.066,0,0,0,335.031,231Zm-1.062,5.525h-5.843v-3.4h5.843Z" transform="translate(-326 -231)" fill="#0e0840"/>
        </g>
      </g>
      <g id="Group_879-2" data-name="Group 879" transform="translate(18.667 23.374)">
        <g id="Group_878-2" data-name="Group 878" transform="translate(0 0)">
          <path id="Path_2128-2" data-name="Path 2128" d="M187.026,273H176.762a1.062,1.062,0,1,0,0,2.125h10.263a1.062,1.062,0,1,0,0-2.125Z" transform="translate(-175.7 -273)" fill="#0e0840"/>
        </g>
      </g>
      <g id="Group_881-2" data-name="Group 881" transform="translate(18.667 20.08)">
        <g id="Group_880-2" data-name="Group 880">
          <path id="Path_2129-2" data-name="Path 2129" d="M187.026,242H176.762a1.062,1.062,0,1,0,0,2.125h10.263a1.062,1.062,0,1,0,0-2.125Z" transform="translate(-175.7 -242)" fill="#0e0840"/>
        </g>
      </g>
    </g>
  </g>
</svg>
