<?xml version="1.0" encoding="UTF-8"?>
<svg width="26px" height="24px" viewBox="0 0 26 24" version="1.1" xmlns="http://www.w3.org/2000/svg" xmlns:xlink="http://www.w3.org/1999/xlink">
    <!-- Generator: Sketch 53.2 (72643) - https://sketchapp.com -->
    <title>phone-icon</title>
    <desc>Created with Sketch.</desc>
    <g id="Page-1" stroke="none" stroke-width="1" fill="none" fill-rule="evenodd">
        <g id="phone-icon" fill-rule="nonzero">
            <rect id="Rectangle_903" fill="#F6F5F5" x="0" y="0" width="26" height="24" rx="4"></rect>
            <g id="whatsapp" transform="translate(6.000000, 5.000000)" fill="#000000">
                <path d="M11.9602217,2.03454589 C10.6441586,0.723242188 8.89390108,0.000769041875 7.02927797,0 C3.1870399,0 0.0600161936,3.1119751 0.0584707014,6.93685302 C0.057955552,8.15954589 0.378900478,9.35310057 0.988936284,10.4051514 L0,14 L3.69533151,13.0352783 C4.71354605,13.5880493 5.85986383,13.8793457 7.02644459,13.8796875 L7.02936385,13.8796875 C10.8711726,13.8796875 13.9985398,10.767456 13.9999994,6.94240724 C14.0007721,5.08867188 13.2763707,3.34576417 11.9602217,2.03454589 Z M7.02927797,12.7080933 L7.02687389,12.7080933 C5.98728017,12.707666 4.96769185,12.4296143 4.07800983,11.9043579 L3.86653647,11.7793457 L1.67367032,12.3518555 L2.25897842,10.2240845 L2.12117299,10.0059326 C1.54118825,9.0878662 1.23492538,8.02675781 1.23544052,6.93728026 C1.23664258,3.75814208 3.83579858,1.17167969 7.0315962,1.17167969 C8.57913808,1.17219239 10.0338652,1.77272948 11.1277225,2.86263427 C12.2215798,3.95253906 12.8236306,5.40124511 12.8231154,6.94197997 C12.8217417,10.1213745 10.2227574,12.7080933 7.02927797,12.7080933 L7.02927797,12.7080933 Z M10.2073026,8.38957521 C10.0331783,8.3027588 9.17681001,7.88354492 9.01711028,7.82561036 C8.85758229,7.76776123 8.74132774,7.73896484 8.62533078,7.91242677 C8.50916212,8.08588867 8.17542402,8.47639161 8.0737657,8.5920044 C7.97210738,8.70770263 7.87062079,8.72222901 7.69641071,8.6354126 C7.52220062,8.54868164 6.96101921,8.36556396 6.29568954,7.77502443 C5.77795334,7.31539307 5.42841699,6.74775391 5.32675867,6.57429198 C5.22527206,6.40065917 5.32590008,6.31589354 5.40317412,6.22053224 C5.59172285,5.98751221 5.78052913,5.74321289 5.83857053,5.6276001 C5.89669782,5.51190185 5.86759125,5.41064453 5.82397433,5.32391357 C5.78052913,5.23718261 5.43219483,4.38397216 5.28709131,4.03679198 C5.14559391,3.69892578 5.00212176,3.74455568 4.8951401,3.73925781 C4.79365351,3.7342163 4.67748484,3.73319091 4.56131615,3.73319091 C4.44523334,3.73319091 4.25651292,3.77651367 4.09681319,3.95014648 C3.93719932,4.12369385 3.48729256,4.54299318 3.48729256,5.39620362 C3.48729256,6.24941406 4.11140939,7.07365724 4.19847151,7.18935547 C4.28553361,7.3050537 5.42669979,9.0559082 7.17386633,9.80666505 C7.58942906,9.98542479 7.91380841,10.09198 8.16683804,10.171875 C8.58411795,10.3038086 8.96370533,10.2851807 9.26387213,10.2405762 C9.59855467,10.1907593 10.2942788,9.82119141 10.439554,9.41633302 C10.5846576,9.01138917 10.5846576,8.66437989 10.5410406,8.5920044 C10.4975955,8.51971435 10.3814268,8.47639161 10.2073026,8.38957521 L10.2073026,8.38957521 Z" id="Shape"></path>
            </g>
        </g>
    </g>
</svg>