<svg width="171" height="64" viewBox="0 0 171 64" fill="none" xmlns="http://www.w3.org/2000/svg">
<path fill-rule="evenodd" clip-rule="evenodd" d="M25.8405 51.4031C28.3112 50.9675 30.6672 52.6172 31.1028 55.0878C31.5385 57.5585 29.8888 59.9145 27.4181 60.3501L27.385 60.356C24.9144 60.7916 22.5584 59.1419 22.1227 56.6713C21.6871 54.2006 23.3368 51.8446 25.8074 51.4089L25.8405 51.4031ZM32.3416 6.89825C34.3181 6.54974 36.203 7.8695 36.5515 9.84603C36.9 11.8226 35.5802 13.7074 33.6037 14.0559L17.4259 16.9083L31.3247 20.3438C33.4444 20.8678 35.0617 22.5782 35.4696 24.7185C35.4743 24.7437 35.4791 24.7691 35.4836 24.7947C35.8321 26.7712 34.5124 28.656 32.5358 29.0045L19.9501 31.2236L30.3624 34.9422C32.4374 35.6833 33.9659 37.4607 34.3919 39.6161L34.4157 39.7433C34.7642 41.7198 33.4445 43.6047 31.468 43.9532L22.3907 45.5538C23.2133 46.5107 23.7785 47.6824 24.0037 48.9594C24.1815 49.9681 23.508 50.93 22.4993 51.1078C22.1144 51.1757 21.7179 51.1202 21.3664 50.9493L16.7628 48.7113C14.7099 47.7132 13.2598 45.7915 12.8635 43.5436C12.515 41.567 13.8347 39.6822 15.8112 39.3337L21.2121 38.3811L10.8006 34.6627C8.68486 33.9071 7.13738 32.0742 6.74725 29.8617C6.39874 27.8851 7.7185 26.0003 9.69503 25.6518L18.6876 24.0658L4.78994 20.6306C2.64516 20.1005 1.01469 18.3555 0.631042 16.1798C0.282527 14.2032 1.60229 12.3184 3.57882 11.9699L32.3416 6.89825Z" fill="#1E1E1E"/>
<path d="M62.6778 47.4593C60.0444 47.4593 57.7478 47 55.7881 46.0814C53.859 45.1321 52.3739 43.7848 51.3328 42.0395C50.3223 40.2941 49.8171 38.2272 49.8171 35.8388C49.8171 32.1337 50.9194 29.24 53.1241 27.1578C55.3288 25.0756 58.3909 24.0345 62.3103 24.0345C64.7293 24.0345 66.8728 24.4173 68.7406 25.1828C70.6085 25.9483 72.063 27.02 73.1041 28.398C74.1452 29.7453 74.6657 31.2916 74.6657 33.037C74.6657 34.4455 74.237 35.5326 73.3797 36.2981C72.5223 37.0636 71.3128 37.4464 69.7511 37.4464H54.8695C54.8695 39.3448 55.5431 40.8146 56.8905 41.8557C58.2378 42.8968 60.1669 43.4174 62.6778 43.4174C64.1169 43.4174 65.3877 43.2643 66.49 42.9581C67.5924 42.6519 68.6182 42.1619 69.5674 41.4883C70.4554 40.9065 71.129 40.6156 71.5884 40.6156C71.9864 40.6156 72.3998 40.8299 72.8285 41.2586C73.3184 41.7179 73.5634 42.2232 73.5634 42.7744C73.5634 43.3561 73.3031 43.8461 72.7826 44.2441C70.2104 46.3876 66.8422 47.4593 62.6778 47.4593ZM68.1895 33.726C68.71 33.726 69.0928 33.6188 69.3377 33.4044C69.5827 33.1901 69.7052 32.8226 69.7052 32.3021C69.7052 31.0467 69.0315 30.0362 67.6842 29.2707C66.3369 28.4745 64.5456 28.0765 62.3103 28.0765C60.0444 28.0765 58.2531 28.597 56.9364 29.6381C55.6197 30.6486 54.9614 32.0112 54.9614 33.726H68.1895ZM81.517 47.4593C80.7208 47.4593 80.0931 47.245 79.6338 46.8163C79.1745 46.3876 78.9448 45.7905 78.9448 45.025V26.4689C78.9448 25.7034 79.1592 25.1063 79.5879 24.6776C80.0472 24.2489 80.6596 24.0345 81.4251 24.0345C82.2213 24.0345 82.8337 24.2489 83.2624 24.6776C83.7217 25.1063 83.9513 25.7034 83.9513 26.4689V28.2602C86.2172 25.4431 89.2487 24.0345 93.0456 24.0345C95.9546 24.0345 98.2358 24.9225 99.8894 26.6985C101.573 28.4745 102.416 30.9242 102.416 34.0475V45.025C102.416 45.7905 102.171 46.3876 101.681 46.8163C101.221 47.245 100.594 47.4593 99.7975 47.4593C99.0014 47.4593 98.3736 47.245 97.9143 46.8163C97.4856 46.3876 97.2713 45.7905 97.2713 45.025V34.0475C97.2713 32.149 96.812 30.6945 95.8934 29.684C94.9747 28.6736 93.6734 28.1683 91.9892 28.1683C89.5396 28.1683 87.6105 28.9032 86.2019 30.373C84.7934 31.8122 84.0891 33.7719 84.0891 36.2522V45.025C84.0891 45.7599 83.8441 46.357 83.3542 46.8163C82.8949 47.245 82.2825 47.4593 81.517 47.4593ZM117.704 47.4593C115.99 47.4593 114.535 46.9847 113.341 46.0355C112.177 45.0556 111.244 43.5705 110.539 41.5801L105.395 27.02C105.334 26.8669 105.303 26.6373 105.303 26.3311C105.303 25.688 105.563 25.1522 106.084 24.7235C106.604 24.2948 107.293 24.0805 108.151 24.0805C108.671 24.0805 109.115 24.2029 109.483 24.4479C109.881 24.6929 110.156 25.0297 110.31 25.4584L115.683 40.7534C115.99 41.7026 116.296 42.3763 116.602 42.7744C116.908 43.1418 117.276 43.3255 117.704 43.3255C118.133 43.3255 118.501 43.1418 118.807 42.7744C119.113 42.3763 119.419 41.7026 119.725 40.7534L125.099 25.4584C125.252 25.0297 125.513 24.6929 125.88 24.4479C126.248 24.2029 126.707 24.0805 127.258 24.0805C128.085 24.0805 128.774 24.2948 129.325 24.7235C129.876 25.1522 130.152 25.688 130.152 26.3311C130.152 26.5454 130.106 26.7751 130.014 27.02L124.824 41.5801C124.15 43.5705 123.216 45.0556 122.022 46.0355C120.858 46.9847 119.419 47.4593 117.704 47.4593ZM137.738 20.4978C136.758 20.4978 135.947 20.2223 135.304 19.6711C134.691 19.0893 134.385 18.3544 134.385 17.4664C134.385 16.5784 134.691 15.8588 135.304 15.3076C135.947 14.7259 136.758 14.435 137.738 14.435C138.718 14.435 139.529 14.7259 140.172 15.3076C140.815 15.8588 141.137 16.5784 141.137 17.4664C141.137 18.3544 140.815 19.0893 140.172 19.6711C139.529 20.2223 138.718 20.4978 137.738 20.4978ZM137.738 47.4593C136.942 47.4593 136.314 47.245 135.855 46.8163C135.426 46.3876 135.212 45.7905 135.212 45.025V26.4689C135.212 25.7034 135.426 25.1063 135.855 24.6776C136.314 24.2489 136.942 24.0345 137.738 24.0345C138.534 24.0345 139.162 24.2489 139.621 24.6776C140.111 25.1063 140.356 25.7034 140.356 26.4689V45.025C140.356 45.7905 140.111 46.3876 139.621 46.8163C139.162 47.245 138.534 47.4593 137.738 47.4593ZM151.833 47C149.782 47 148.189 46.5713 147.056 45.7139C145.954 44.8259 145.403 43.5858 145.403 41.9935C145.403 40.8606 145.694 39.8807 146.276 39.0539C146.888 38.1966 147.73 37.5229 148.802 37.033L161.203 31.4294C161.693 31.2151 162.03 30.9854 162.214 30.7404C162.428 30.4955 162.535 30.174 162.535 29.7759C162.535 29.4084 162.397 29.1329 162.122 28.9491C161.846 28.7348 161.479 28.6276 161.019 28.6276H148.802C147.853 28.6276 147.118 28.4592 146.597 28.1224C146.107 27.7549 145.862 27.2344 145.862 26.5607C145.862 25.1828 146.842 24.4938 148.802 24.4938H161.295C163.255 24.4938 164.786 24.9378 165.888 25.8258C166.991 26.7138 167.542 27.9233 167.542 29.4544C167.542 30.6792 167.251 31.7356 166.669 32.6236C166.087 33.5116 165.26 34.1853 164.189 34.6446L151.741 40.2022C150.823 40.6309 150.364 41.1668 150.364 41.8098C150.364 42.1466 150.486 42.4069 150.731 42.5906C150.976 42.7744 151.297 42.8662 151.696 42.8662H165.061C166.991 42.8662 167.955 43.5399 167.955 44.8872C167.955 46.2957 166.991 47 165.061 47H151.833Z" fill="#1E1E1E"/>
</svg>
