<svg width="25" height="27" viewBox="0 0 25 27" fill="none" xmlns="http://www.w3.org/2000/svg">
<path d="M20.9925 26.5374C21.581 26.5389 22.1457 26.3071 22.5603 25.8939L22.6643 25.7911C23.0792 25.3794 23.3123 24.8218 23.3123 24.2404C23.3123 23.6591 23.0792 23.1015 22.6643 22.6896L18.8808 18.9499C18.7556 18.8259 18.5858 18.7562 18.4087 18.7562C18.2317 18.7562 18.0618 18.8259 17.9368 18.9499L17.2596 19.6197L15.4278 17.8079C16.8242 16.1855 17.5319 14.0916 17.4025 11.9647C17.2732 9.83792 16.3168 7.84296 14.7338 6.39761C13.1506 4.95254 11.0638 4.16944 8.91009 4.21211C6.75639 4.25477 4.70272 5.11996 3.1792 6.62668C1.65592 8.13335 0.78119 10.1645 0.738003 12.2951C0.694852 14.4252 1.48684 16.4895 2.94779 18.0553C4.4088 19.621 6.4257 20.567 8.57583 20.695C10.7263 20.8229 12.8433 20.1229 14.4834 18.7417L16.3071 20.5536L15.6404 21.2234C15.5151 21.3472 15.4446 21.5152 15.4446 21.6903C15.4446 21.8654 15.5151 22.0334 15.6404 22.157L19.4241 25.8994C19.8398 26.3106 20.4043 26.5404 20.9921 26.5376L20.9925 26.5374ZM4.11129 17.3623C2.79575 16.0611 2.05663 14.2962 2.05682 12.4559C2.05682 10.6157 2.79594 8.85074 4.11148 7.54954C5.42721 6.24835 7.21142 5.51729 9.07196 5.51729C10.9325 5.51729 12.7167 6.24835 14.0324 7.54954C15.348 8.85074 16.0871 10.6157 16.0873 12.4559C16.0873 14.2961 15.3483 16.0611 14.0328 17.3623C12.723 18.6749 10.9364 19.4137 9.07187 19.4137C7.20728 19.4137 5.42059 18.6749 4.11091 17.3623H4.11129ZM18.4085 20.3505L21.7201 23.6366C21.8859 23.8007 21.9789 24.0231 21.9789 24.2551C21.9789 24.4869 21.8859 24.7093 21.7201 24.8734L21.6162 24.9763C21.4477 25.1352 21.2237 25.2237 20.991 25.2237C20.7582 25.2237 20.5342 25.1352 20.3657 24.9763L17.0539 21.6903L18.4085 20.3505Z" fill="#ADA8A3"/>
<path d="M24.4271 20.9255V7.33004C24.4273 7.15509 24.3574 6.98713 24.2324 6.86331L18.1744 0.881745C18.0513 0.761614 17.8859 0.693548 17.713 0.691895H4.44756C3.8559 0.692446 3.28862 0.925346 2.87014 1.33908C2.45184 1.753 2.21639 2.31409 2.21582 2.8993V3.75125V3.75107C2.21582 4.11532 2.51415 4.4104 2.88242 4.4104C3.25051 4.4104 3.54903 4.11532 3.54903 3.75107V2.89652C3.54958 2.66141 3.64463 2.43587 3.81314 2.26992C3.98147 2.1038 4.20968 2.01053 4.44756 2.01053H17.0464V5.92697C17.0471 6.47299 17.2668 6.99655 17.6572 7.3825C18.0476 7.76864 18.5769 7.98588 19.1289 7.98664H23.0939V20.9251C23.0939 21.2894 23.3923 21.5845 23.7605 21.5845C24.1286 21.5845 24.4271 21.2894 24.4271 20.9251L24.4271 20.9255ZM18.3796 5.92707V2.93892L22.1501 6.67066H19.129C18.93 6.67011 18.7396 6.59137 18.5989 6.45192C18.4585 6.31248 18.3797 6.12373 18.3797 5.92705L18.3796 5.92707Z" fill="#ADA8A3"/>
<path d="M16.4783 25.4081C16.4783 25.2331 16.408 25.0654 16.283 24.9417C16.1581 24.8181 15.9884 24.7488 15.8117 24.7488H4.44757C4.20932 24.7488 3.98073 24.6551 3.81221 24.4885C3.64368 24.3218 3.54903 24.0957 3.54903 23.8598V20.9245C3.54903 20.5604 3.25051 20.2651 2.88242 20.2651C2.51415 20.2651 2.21582 20.5604 2.21582 20.9245V23.8598C2.21638 24.4452 2.45185 25.0061 2.87014 25.42C3.28863 25.8338 3.8559 26.0667 4.44756 26.0674H15.8117C15.9884 26.0674 16.158 25.9979 16.283 25.8743C16.408 25.7506 16.4783 25.5828 16.4783 25.4081L16.4783 25.4081Z" fill="#ADA8A3"/>
<path d="M9.53051 7.81268C9.27421 7.57481 8.87505 7.57481 8.6186 7.81268L4.35224 11.7687H4.35243C4.21405 11.8859 4.12998 12.0538 4.12012 12.2337C4.11026 12.4137 4.17517 12.5897 4.29997 12.7211C4.42478 12.8524 4.59831 12.9275 4.7806 12.929C4.96268 12.9304 5.13752 12.858 5.26436 12.7286L5.64286 12.3885V15.8171C5.64286 15.9918 5.71316 16.1596 5.83815 16.2832C5.96314 16.4069 6.13277 16.4764 6.30946 16.4764H11.8394C12.0163 16.4764 12.1857 16.4069 12.3109 16.2832C12.4359 16.1596 12.506 15.9918 12.506 15.8171V12.3885L12.8687 12.7261C13.1388 12.9549 13.5429 12.9339 13.7871 12.6784C14.0314 12.4227 14.0297 12.0224 13.7832 11.7687L9.53051 7.81268ZM11.1756 15.1548H6.97609V11.1488L9.07727 9.19714L11.1785 11.1488L11.1756 15.1548Z" fill="#ADA8A3"/>
</svg>
