<svg width="30" height="26" viewBox="0 0 30 26" fill="none" xmlns="http://www.w3.org/2000/svg">
<path d="M25.4995 4.89885H23.5795L23.0995 3.43258C22.7884 2.57222 22.2112 1.82775 21.4479 1.30232C20.6847 0.776892 19.7731 0.496515 18.8396 0.500033H11.1598C10.2171 0.501757 9.29881 0.792823 8.53447 1.33215C7.77014 1.87148 7.19836 2.63183 6.89986 3.50589L6.41987 4.97217H4.49991C3.30646 4.97217 2.16189 5.43561 1.31799 6.26055C0.474096 7.08549 0 8.20435 0 9.37099V21.1012C0 22.2678 0.474096 23.3867 1.31799 24.2116C2.16189 25.0366 3.30646 25.5 4.49991 25.5H25.4995C26.6929 25.5 27.8375 25.0366 28.6814 24.2116C29.5253 23.3867 29.9994 22.2678 29.9994 21.1012V9.37099C30.0093 8.78719 29.9003 8.20729 29.6786 7.66511C29.4569 7.12293 29.127 6.62932 28.7082 6.21305C28.2893 5.79679 27.7899 5.4662 27.239 5.24057C26.6881 5.01494 26.0968 4.89877 25.4995 4.89885ZM26.9994 21.0279C26.9994 21.4167 26.8414 21.7897 26.5601 22.0647C26.2788 22.3397 25.8973 22.4941 25.4995 22.4941H4.49991C4.10209 22.4941 3.72057 22.3397 3.43927 22.0647C3.15797 21.7897 2.99994 21.4167 2.99994 21.0279V9.29768C2.99994 8.9088 3.15797 8.53584 3.43927 8.26086C3.72057 7.98588 4.10209 7.8314 4.49991 7.8314H7.49984C7.82694 7.84809 8.15063 7.75966 8.42148 7.57962C8.69233 7.39958 8.89544 7.13783 8.99981 6.83434L9.80979 4.42965C9.91042 4.13841 10.1021 3.88546 10.3578 3.70654C10.6135 3.52762 10.9203 3.43179 11.2348 3.43258H18.9146C19.2291 3.43179 19.5358 3.52762 19.7915 3.70654C20.0472 3.88546 20.2389 4.13841 20.3396 4.42965L21.1496 6.83434C21.2458 7.11402 21.4262 7.35881 21.667 7.5367C21.9079 7.71458 22.198 7.8173 22.4995 7.8314H25.4995C25.8973 7.8314 26.2788 7.98588 26.5601 8.26086C26.8414 8.53584 26.9994 8.9088 26.9994 9.29768V21.0279ZM14.9997 7.8314C13.813 7.8314 12.653 8.17538 11.6663 8.81985C10.6797 9.46431 9.91064 10.3803 9.45652 11.452C9.00241 12.5237 8.88359 13.703 9.1151 14.8407C9.3466 15.9784 9.91804 17.0235 10.7571 17.8437C11.5962 18.664 12.6653 19.2226 13.8292 19.4489C14.993 19.6752 16.1994 19.5591 17.2957 19.1151C18.3921 18.6712 19.3291 17.9195 19.9884 16.955C20.6477 15.9905 20.9996 14.8565 20.9996 13.6965C20.9996 12.141 20.3674 10.6492 19.2422 9.54925C18.117 8.44933 16.591 7.8314 14.9997 7.8314ZM14.9997 16.629C14.4064 16.629 13.8263 16.4571 13.333 16.1348C12.8397 15.8126 12.4552 15.3546 12.2281 14.8187C12.001 14.2829 11.9416 13.6932 12.0574 13.1244C12.1731 12.5555 12.4589 12.033 12.8784 11.6229C13.298 11.2127 13.8325 10.9335 14.4144 10.8203C14.9964 10.7071 15.5995 10.7652 16.1477 10.9872C16.6959 11.2091 17.1644 11.585 17.494 12.0673C17.8237 12.5495 17.9996 13.1165 17.9996 13.6965C17.9996 14.4743 17.6836 15.2202 17.121 15.7701C16.5584 16.3201 15.7953 16.629 14.9997 16.629Z" fill="#5C5247"/>
</svg>
