<svg width="24" height="24" viewBox="0 0 24 24" fill="none" xmlns="http://www.w3.org/2000/svg">
<path d="M13.3536 5.125V5.2H13.4286H19.1429C19.8816 5.2 20.5896 5.4825 21.1112 5.98449C21.6326 6.48639 21.925 7.16649 21.925 7.875V21.625C21.925 21.9688 21.7831 22.2992 21.5296 22.5432C21.2759 22.7874 20.9313 22.925 20.5714 22.925H3.42857C3.06868 22.925 2.72407 22.7874 2.47043 22.5432C2.21688 22.2992 2.075 21.9688 2.075 21.625V3.75C2.075 3.04149 2.36739 2.36139 2.88885 1.85949C3.4104 1.3575 4.11837 1.075 4.85714 1.075H10.5714C11.3102 1.075 12.0182 1.3575 12.5397 1.85949C13.0612 2.36139 13.3536 3.04149 13.3536 3.75V5.125ZM13.3536 21.625V21.7H13.4286H16.2857H16.3607V21.625V18.875V18.8H16.2857H13.4286H13.3536V18.875V21.625ZM17.6393 21.625V21.7H17.7143H20.5714H20.6464V21.625V7.875C20.6464 7.48949 20.4873 7.12038 20.205 6.84869C19.9228 6.5771 19.5407 6.425 19.1429 6.425H10.5714C10.1736 6.425 9.79144 6.5771 9.50927 6.84869C9.22699 7.12038 9.06786 7.48949 9.06786 7.875V21.625V21.7H9.14286H12H12.075V21.625V18.875C12.075 18.5312 12.2169 18.2008 12.4704 17.9568C12.7241 17.7126 13.0687 17.575 13.4286 17.575H16.2857C16.6456 17.575 16.9902 17.7126 17.2439 17.9568C17.4974 18.2008 17.6393 18.5312 17.6393 18.875V21.625ZM3.35357 21.625V21.7H3.42857H7.71429H7.78929V21.625V7.875C7.78929 7.16649 8.08168 6.48639 8.60313 5.98449C9.12469 5.4825 9.83265 5.2 10.5714 5.2H12H12.075V5.125V3.75C12.075 3.36449 11.9159 2.99538 11.6336 2.72369C11.3514 2.4521 10.9693 2.3 10.5714 2.3H4.85714C4.45928 2.3 4.07716 2.4521 3.79498 2.72369C3.51271 2.99538 3.35357 3.36449 3.35357 3.75V21.625ZM13.3536 10.2812C13.3536 10.5339 13.2493 10.7768 13.0627 10.9564C12.8761 11.1361 12.6223 11.2375 12.3571 11.2375C12.092 11.2375 11.8382 11.1361 11.6515 10.9564C11.465 10.7768 11.3607 10.5339 11.3607 10.2812C11.3607 10.0286 11.465 9.78566 11.6515 9.60608C11.8382 9.42642 12.092 9.325 12.3571 9.325C12.6223 9.325 12.8761 9.42642 13.0627 9.60608C13.2493 9.78566 13.3536 10.0286 13.3536 10.2812ZM12.7394 15.2893C12.6183 15.3376 12.4884 15.3625 12.3571 15.3625C12.092 15.3625 11.8382 15.2611 11.6515 15.0814C11.465 14.9018 11.3607 14.6589 11.3607 14.4062C11.3607 14.1536 11.465 13.9107 11.6515 13.7311C11.8382 13.5514 12.092 13.45 12.3571 13.45C12.4884 13.45 12.6183 13.4749 12.7394 13.5232C12.8605 13.5714 12.9703 13.6421 13.0627 13.7311C13.1551 13.82 13.2283 13.9254 13.2781 14.0413C13.328 14.1571 13.3536 14.2811 13.3536 14.4062C13.3536 14.5314 13.328 14.6554 13.2781 14.7712C13.2283 14.8871 13.1551 14.9925 13.0627 15.0814C12.9703 15.1704 12.8605 15.2411 12.7394 15.2893ZM18.3536 10.2812C18.3536 10.5339 18.2493 10.7768 18.0627 10.9564C17.8761 11.1361 17.6223 11.2375 17.3571 11.2375C17.092 11.2375 16.8382 11.1361 16.6515 10.9564C16.465 10.7768 16.3607 10.5339 16.3607 10.2812C16.3607 10.0286 16.465 9.78566 16.6515 9.60608C16.8382 9.42642 17.092 9.325 17.3571 9.325C17.6223 9.325 17.8761 9.42642 18.0627 9.60608C18.2493 9.78566 18.3536 10.0286 18.3536 10.2812ZM17.7394 15.2893C17.6183 15.3376 17.4884 15.3625 17.3571 15.3625C17.092 15.3625 16.8382 15.2611 16.6515 15.0814C16.465 14.9018 16.3607 14.6589 16.3607 14.4062C16.3607 14.1536 16.465 13.9107 16.6515 13.7311C16.8382 13.5514 17.092 13.45 17.3571 13.45C17.4884 13.45 17.6183 13.4749 17.7394 13.5232C17.8605 13.5714 17.9703 13.6421 18.0627 13.7311C18.1551 13.82 18.2283 13.9254 18.2781 14.0413C18.328 14.1571 18.3536 14.2811 18.3536 14.4062C18.3536 14.5314 18.328 14.6554 18.2781 14.7712C18.2283 14.8871 18.1551 14.9925 18.0627 15.0814C17.9703 15.1704 17.8605 15.2411 17.7394 15.2893Z" fill="#A89C8F" stroke="#F8F8F8" stroke-width="0.15"/>
</svg>
