<svg width="221" height="274" viewBox="0 0 221 274" fill="none" xmlns="http://www.w3.org/2000/svg">
<path d="M21.4 201.683C24.9035 202.367 28.1019 204.142 30.5388 206.753C33.3535 209.657 34.9198 213.549 34.9015 217.595C34.9587 218.61 34.8764 219.628 34.6568 220.621C34.0802 223.91 32.3544 226.887 29.7878 229.02C26.7473 231.5 22.9664 232.892 19.0456 232.975H0V173.865H17.7883C22.7051 174.09 26.5924 175.659 29.4503 178.571C31.9279 181.076 33.3178 184.459 33.3178 187.985C33.3178 191.511 31.9279 194.894 29.4503 197.399C27.263 199.612 24.4553 201.106 21.4 201.683V201.683ZM4.869 202.528V231.183H15.4424C18.3104 231.233 21.1422 230.537 23.6615 229.164C26.0851 227.801 27.9545 225.63 28.944 223.029C29.6809 221.275 30.0542 219.389 30.041 217.485C30.164 213.812 28.8707 210.233 26.4293 207.489C23.8078 204.401 20.2552 202.748 15.7715 202.528H4.869V202.528ZM4.869 200.762H17.282C19.1329 200.746 20.9481 200.25 22.5511 199.323C24.154 198.396 25.49 197.069 26.4293 195.472C27.7821 193.309 28.4824 190.8 28.4461 188.247C28.4979 186.638 28.2257 185.036 27.6458 183.535C27.0659 182.033 26.1901 180.664 25.0707 179.509C22.5392 176.814 18.86 175.504 14.1598 175.555H4.87744V200.762H4.869ZM61.8793 231.437C55.2804 228.355 51.981 221.97 51.981 212.28V173.865H56.85V212.272C56.85 223.972 61.9131 230.048 72.0393 230.499C75.0449 230.706 78.0461 230.036 80.6802 228.572C84.9839 225.998 87.1357 220.899 87.1357 213.277V173.865H88.8993V213.581C88.8993 226.629 83.1387 233.209 71.6173 233.321C68.2656 233.45 64.9305 232.79 61.8793 231.395V231.437ZM113.076 232.941H108.207V173.865H113.076V232.941ZM137.783 173.865V231.175H163.884V232.941H132.957V173.865H137.783ZM182.381 232.941H177.967V173.865H182.415C187.112 173.865 190.89 173.977 193.747 174.203C196.796 174.4 199.796 175.067 202.642 176.18C205.384 177.273 207.923 178.822 210.152 180.76C212.453 182.768 214.397 185.155 215.898 187.816C218.323 192.082 219.703 196.864 219.924 201.768C220.405 208.189 218.849 214.598 215.476 220.08C213.347 223.618 210.379 226.576 206.835 228.691C203.227 230.821 199.193 232.128 195.022 232.519C191.894 232.8 187.697 232.941 182.431 232.941H182.381ZM182.803 231.175C186.816 231.233 190.828 230.978 194.802 230.414C198.986 229.884 202.887 228.013 205.924 225.082C208.901 222.255 211.133 218.733 212.422 214.832C213.725 210.834 214.322 206.639 214.185 202.435C214.053 198.359 213.217 194.336 211.713 190.546C210.215 186.861 207.853 183.591 204.827 181.014C201.746 178.33 197.917 176.658 193.857 176.222C190.181 175.783 186.48 175.585 182.777 175.631V231.175H182.803Z" fill="black"/>
<path d="M109.994 70.237C119.856 70.2366 129.412 73.6604 137.035 79.925C144.658 86.1896 149.876 94.9073 151.8 104.593C153.724 114.278 152.234 124.332 147.586 133.041C142.937 141.75 135.416 148.575 126.306 152.354C117.195 156.133 107.058 156.631 97.6211 153.764C88.1846 150.897 80.0328 144.842 74.5548 136.63C69.0768 128.419 66.6115 118.56 67.579 108.732C68.5465 98.9046 72.8869 89.7171 79.8607 82.7351C83.8138 78.7668 88.511 75.6199 93.6823 73.4751C98.8536 71.3303 104.397 70.2298 109.994 70.237V70.237ZM138.879 83.9773C132.194 77.2811 123.398 73.1133 113.988 72.1841C104.579 71.2548 95.1386 73.6217 87.2763 78.8813C79.4141 84.1409 73.6163 91.9678 70.8708 101.028C68.1253 110.089 68.6021 119.822 72.2199 128.57C75.8376 137.318 82.3725 144.54 90.711 149.003C99.0495 153.467 108.676 154.898 117.949 153.051C127.223 151.204 135.57 146.194 141.568 138.875C147.567 131.555 150.845 122.38 150.845 112.911C150.853 107.537 149.8 102.214 147.747 97.248C145.693 92.2824 142.68 87.7723 138.879 83.9773V83.9773Z" fill="black"/>
<path d="M150.844 42.6812C150.69 31.9324 146.318 21.6761 138.673 14.1296C131.028 6.58304 120.724 2.35252 109.99 2.35252C99.2547 2.35252 88.9512 6.58304 81.3062 14.1296C73.6612 21.6761 69.289 31.9324 69.1347 42.6812C69.1347 61.9734 83.6995 79.4318 97.8846 96.4593C102.104 101.47 106.222 106.456 109.994 111.467C113.757 106.456 117.909 101.47 122.095 96.4593C136.288 79.4318 150.844 61.9734 150.844 42.6812ZM140.128 12.5049C144.09 16.4636 147.233 21.1674 149.374 26.346C151.516 31.5246 152.615 37.076 152.608 42.6812C152.608 62.6071 137.841 80.3191 123.445 97.6085C118.998 102.941 114.593 108.231 110.703 113.478C110.65 113.546 110.591 113.609 110.525 113.664C110.434 113.738 110.329 113.792 110.216 113.823C110.103 113.854 109.984 113.861 109.868 113.843C109.753 113.826 109.642 113.784 109.543 113.721C109.444 113.659 109.359 113.576 109.293 113.478C105.403 108.222 100.99 102.932 96.5428 97.6001C82.1468 80.336 67.3795 62.624 67.3795 42.6727C67.3815 34.2323 69.8823 25.982 74.5659 18.9647C79.2495 11.9474 85.9055 6.47822 93.6925 3.24849C101.48 0.0187625 110.048 -0.826486 118.315 0.819605C126.581 2.4657 134.175 6.52923 140.136 12.4965L140.128 12.5049Z" fill="black"/>
<path d="M31.8473 110.505H188.136V115.372H31.8473V110.505Z" fill="black"/>
<path d="M61.5991 273.994C62.9728 273.992 64.3325 273.717 65.5993 273.185C66.866 272.652 68.0147 271.873 68.9786 270.893C69.9425 269.913 70.7025 268.751 71.2146 267.474C71.7266 266.198 71.9805 264.832 71.9615 263.457V263.381C71.9851 262.014 71.7365 260.657 71.2305 259.388C70.7244 258.12 69.9709 256.965 69.014 255.991C68.0572 255.017 66.9161 254.243 65.6574 253.716C64.3988 253.189 63.0478 252.918 61.6835 252.919C60.3097 252.921 58.95 253.196 57.6832 253.729C56.4165 254.261 55.2678 255.04 54.3039 256.02C53.34 257 52.58 258.162 52.068 259.439C51.5559 260.715 51.302 262.081 51.321 263.457V263.533C51.2975 264.899 51.546 266.256 52.0521 267.525C52.5581 268.793 53.3116 269.949 54.2685 270.923C55.2254 271.897 56.3664 272.67 57.6251 273.197C58.8837 273.725 60.2347 273.995 61.5991 273.994V273.994ZM61.6835 272.177C57.0339 272.177 53.4053 268.307 53.4053 263.457V263.381C53.4053 258.648 56.8313 254.736 61.5991 254.736C66.3668 254.736 69.8772 258.606 69.8772 263.457V263.533C69.8772 268.273 66.4512 272.177 61.6835 272.177ZM77.9106 272.693C77.9071 272.823 77.9303 272.953 77.9787 273.074C78.0272 273.195 78.1 273.305 78.1925 273.397C78.285 273.489 78.3953 273.561 78.5167 273.608C78.638 273.656 78.7677 273.678 78.8979 273.673C79.0263 273.678 79.1543 273.656 79.2736 273.608C79.3928 273.56 79.5006 273.488 79.5899 273.395C79.6791 273.302 79.7478 273.192 79.7915 273.071C79.8351 272.95 79.8527 272.821 79.843 272.693V261.876C79.8051 260.94 79.9582 260.005 80.2931 259.13C80.628 258.255 81.1376 257.457 81.7907 256.785C82.4438 256.114 83.2268 255.583 84.0918 255.225C84.9568 254.866 85.8857 254.689 86.8217 254.702C90.8806 254.702 93.2012 257.423 93.2012 261.564V272.693C93.1964 272.824 93.2187 272.954 93.2667 273.076C93.3147 273.197 93.3874 273.308 93.4802 273.4C93.573 273.492 93.6838 273.564 93.8057 273.611C93.9276 273.658 94.0579 273.679 94.1884 273.673C94.3165 273.677 94.4439 273.654 94.5625 273.605C94.6812 273.557 94.7884 273.484 94.8774 273.392C94.9664 273.3 95.0351 273.19 95.0792 273.07C95.1233 272.949 95.1418 272.821 95.1335 272.693V261.217C95.1335 256.401 92.1801 252.927 87.0917 252.927C85.6086 252.876 84.1413 253.245 82.8588 253.993C81.5763 254.74 80.5308 255.836 79.843 257.153V254.237C79.8556 254.103 79.84 253.967 79.7972 253.838C79.7543 253.71 79.6852 253.592 79.5943 253.492C79.5033 253.392 79.3925 253.312 79.269 253.258C79.1455 253.203 79.0119 253.175 78.8768 253.175C78.7418 253.175 78.6082 253.203 78.4847 253.258C78.3611 253.312 78.2503 253.392 78.1594 253.492C78.0684 253.592 77.9994 253.71 77.9565 253.838C77.9137 253.967 77.898 254.103 77.9106 254.237V272.701V272.693ZM113.884 272.693C113.88 272.823 113.903 272.953 113.952 273.074C114 273.195 114.073 273.305 114.166 273.397C114.258 273.489 114.369 273.561 114.49 273.608C114.611 273.656 114.741 273.678 114.871 273.673C114.999 273.677 115.127 273.654 115.245 273.605C115.364 273.557 115.471 273.484 115.56 273.392C115.649 273.3 115.718 273.19 115.762 273.07C115.806 272.949 115.825 272.821 115.816 272.693V261.919C115.816 257.854 118.652 254.702 122.238 254.702C125.824 254.702 128.145 257.237 128.145 261.462V272.71C128.14 272.84 128.162 272.971 128.21 273.092C128.258 273.214 128.331 273.324 128.424 273.417C128.517 273.509 128.628 273.581 128.749 273.628C128.871 273.675 129.002 273.696 129.132 273.69C129.26 273.694 129.388 273.671 129.506 273.622C129.625 273.574 129.732 273.501 129.821 273.409C129.91 273.317 129.979 273.207 130.023 273.086C130.067 272.966 130.086 272.838 130.077 272.71V261.8C130.077 257.305 133.031 254.702 136.415 254.702C140.119 254.702 142.364 257.237 142.364 261.564V272.693C142.36 272.823 142.383 272.953 142.432 273.074C142.48 273.195 142.553 273.305 142.646 273.397C142.738 273.489 142.848 273.561 142.97 273.608C143.091 273.656 143.221 273.678 143.351 273.673C143.479 273.677 143.606 273.654 143.725 273.605C143.844 273.557 143.951 273.484 144.04 273.392C144.129 273.3 144.198 273.19 144.242 273.07C144.286 272.949 144.304 272.821 144.296 272.693V261.327C144.296 256.257 141.343 252.877 136.575 252.877C135.082 252.849 133.611 253.242 132.33 254.01C131.049 254.777 130.008 255.89 129.326 257.22C128.756 255.909 127.81 254.797 126.609 254.023C125.407 253.25 124.003 252.851 122.575 252.877C118.989 252.877 117.175 254.854 115.875 256.941V254.187C115.88 254.055 115.858 253.925 115.81 253.803C115.762 253.681 115.689 253.57 115.597 253.477C115.504 253.384 115.393 253.311 115.271 253.263C115.149 253.215 115.019 253.193 114.888 253.198C114.76 253.198 114.634 253.224 114.516 253.274C114.399 253.324 114.293 253.397 114.204 253.49C114.116 253.582 114.047 253.692 114.002 253.811C113.957 253.931 113.937 254.059 113.943 254.187V272.651L113.884 272.693ZM152.026 262.51C152.38 258.048 155.452 254.702 159.435 254.702C164.042 254.702 166.363 258.446 166.641 262.51H152.026ZM167.671 270.715C167.765 270.631 167.841 270.528 167.894 270.413C167.948 270.299 167.978 270.174 167.983 270.048C167.981 269.926 167.954 269.805 167.906 269.693C167.857 269.581 167.787 269.48 167.699 269.395C167.611 269.311 167.508 269.244 167.394 269.199C167.281 269.155 167.16 269.133 167.038 269.135C166.919 269.134 166.801 269.159 166.691 269.207C166.582 269.255 166.485 269.325 166.405 269.414C165.568 270.296 164.56 270.996 163.442 271.471C162.325 271.946 161.122 272.187 159.907 272.177C155.966 272.177 152.38 269.254 152.026 264.251H167.755C167.997 264.241 168.227 264.143 168.401 263.975C168.575 263.806 168.682 263.58 168.7 263.338C168.7 257.575 165.114 252.919 159.477 252.919C154.043 252.919 149.941 257.575 149.941 263.414V263.499C149.941 269.769 154.515 273.994 159.789 273.994C161.256 274.044 162.716 273.777 164.07 273.211C165.424 272.645 166.641 271.794 167.637 270.715H167.671Z" fill="black"/>
</svg>
