<svg width="168" height="35" viewBox="0 0 168 35" fill="none" xmlns="http://www.w3.org/2000/svg">
<path d="M0 17.5V35H8.52184H17.0437V32.5C17.0437 30.2857 17.2761 30 20.1425 29.2857C33.4676 26 33.4676 9 20.1425 5.71428C17.2761 5 17.0437 4.71428 17.0437 2.5V0H8.52184H0V17.5ZM17.0437 17.5C17.0437 29.5714 16.9662 30 15.4942 30C12.6278 30 7.82459 27.1429 5.73287 24.2857C1.31701 18.1429 3.95103 9.35714 11.0784 6.35714C17.2761 3.78571 17.0437 3.42857 17.0437 17.5Z" fill="#5C5247"/>
<path d="M40.2842 17.1429V25.7144H42.221H44.1577V17.1429V8.5715H42.221H40.2842V17.1429Z" fill="#5C5247"/>
<path d="M93.5078 9.50048C92.888 11.0005 94.1275 12.2862 95.7544 12.0005C97.8461 11.6433 97.6912 9.00048 95.5995 8.71477C94.6698 8.57191 93.7402 8.92905 93.5078 9.50048Z" fill="#5C5247"/>
<path d="M163.542 9.5719C162.845 10.3576 162.767 11.0005 163.464 12.0719C164.936 14.6433 168.422 13.5005 167.958 10.6433C167.648 8.64332 164.936 8.00047 163.542 9.5719Z" fill="#5C5247"/>
<path d="M49.5044 14.4991C45.9407 16.9991 45.6308 20.7848 48.7297 23.642C53.1455 27.642 59.6531 25.2848 59.6531 19.642C59.6531 14.9277 53.378 11.7134 49.5044 14.4991ZM56.0895 18.7848C57.329 20.642 53.9977 23.2134 51.8285 22.142C50.3566 21.4277 49.8143 18.5705 50.8989 17.5705C51.906 16.7134 55.2373 17.4277 56.0895 18.7848Z" fill="#5C5247"/>
<path d="M63.9898 15.0723C62.4404 16.2152 61.9756 17.1438 61.9756 19.3581C61.9756 23.4295 64.2223 25.2866 68.6381 24.7866C72.2793 24.4295 72.8216 24.9295 70.8073 26.7152C69.3354 28.0723 68.6381 28.1438 66.6239 27.0009C65.3843 26.2866 64.842 26.2866 63.8349 27.2866C62.6728 28.3581 62.7503 28.5009 65.0744 29.6438C67.9409 31.0009 71.5045 30.6438 73.7512 28.7866C74.9133 27.8581 75.1457 26.5009 75.1457 20.5723C75.1457 14.0723 75.0682 13.5723 73.5963 13.5723C72.7441 13.5723 72.0468 13.9295 72.0468 14.4295C72.0468 15.0723 71.8144 15.0723 71.1172 14.4295C69.7227 13.1438 66.314 13.4295 63.9898 15.0723ZM71.4271 18.2152C72.0468 19.5723 72.0468 20.2152 71.2721 21.0723C68.7931 23.7866 63.9898 21.0009 65.8491 17.8581C67.0887 15.7866 70.3425 16.0009 71.4271 18.2152Z" fill="#5C5247"/>
<path d="M80.2594 15.072C78.6325 16.2148 78.2451 17.1434 78.2451 19.6434C78.2451 22.1434 78.6325 23.072 80.2594 24.2148C82.9709 26.2148 86.1472 26.1434 88.7812 24.0005C95.2113 19.0005 86.9219 10.2862 80.2594 15.072ZM87.2318 19.072C87.929 21.5005 85.7598 23.2148 83.5132 22.072C80.3368 20.5005 81.2665 17.1434 84.9076 17.1434C86.2247 17.1434 86.8444 17.6434 87.2318 19.072Z" fill="#5C5247"/>
<path d="M93.7402 19.7142C93.7402 25.6428 93.8177 25.7856 95.5221 25.5713C97.0715 25.3571 97.2264 24.9285 97.4589 19.4285C97.6913 13.5713 97.6913 13.5713 95.677 13.5713C93.7402 13.5713 93.7402 13.6428 93.7402 19.7142Z" fill="#5C5247"/>
<path d="M99.9365 21.8576V30.0005H101.873C103.655 30.0005 103.81 29.7148 103.81 27.0005C103.81 24.6433 104.042 24.2148 104.74 24.8576C106.289 26.2862 109.93 25.8576 111.945 23.9291C114.579 21.5719 114.579 17.7148 112.022 15.3576C110.473 13.9291 109.465 13.7148 105.05 13.7148H99.9365V21.8576ZM110.008 19.5719C110.008 23.1433 106.444 23.7148 104.275 20.4291C103.578 19.4291 103.81 18.9291 105.205 17.8576C107.451 16.1433 110.008 17.0719 110.008 19.5719Z" fill="#5C5247"/>
<path d="M117.602 14.3559C116.75 14.7845 116.208 15.9274 116.208 17.2131C116.208 19.0702 116.673 19.4988 119.539 20.6417C122.173 21.7131 122.561 22.0702 121.399 22.4988C120.624 22.7845 119.617 22.7131 119.152 22.2845C118.532 21.7131 117.835 21.7131 116.828 22.2131C115.356 22.9274 115.356 23.0702 116.673 24.3559C118.222 25.9274 122.251 26.1417 124.265 24.7845C126.512 23.2131 125.659 19.8559 122.638 18.6417C119.772 17.4274 119.152 16.0702 121.863 16.6417C122.793 16.9274 124.11 16.7845 124.73 16.3559C125.737 15.7845 125.659 15.5702 124.42 14.6417C122.638 13.4274 119.539 13.2845 117.602 14.3559Z" fill="#5C5247"/>
<path d="M127.827 18.2144C127.827 21.9286 128.137 23.1429 129.377 24.2858C131.081 25.8572 134.025 26.1429 135.419 24.8572C136.117 24.2144 136.349 24.2144 136.349 24.8572C136.349 25.3572 137.201 25.7144 138.286 25.7144C140.223 25.7144 140.223 25.6429 140.223 19.6429C140.223 13.6429 140.223 13.5715 138.286 13.5715C136.426 13.5715 136.349 13.7858 136.349 17.7858C136.349 21.4286 136.117 22.1429 134.8 22.5001C132.32 23.2144 131.701 22.2858 131.701 17.7858C131.701 13.7858 131.623 13.5715 129.764 13.5715C127.905 13.5715 127.827 13.7144 127.827 18.2144Z" fill="#5C5247"/>
<path d="M143.322 19.7144C143.322 25.2144 143.477 25.7144 144.872 25.7144C146.111 25.7144 146.344 25.1429 146.576 21.7144C146.731 18.7144 147.196 17.4286 148.203 16.8572C150.14 15.7144 151.069 17.3572 151.069 21.9286C151.069 25.2144 151.302 25.7144 152.619 25.7144C153.858 25.7144 154.091 25.1429 154.323 21.7144C154.478 18.7144 154.943 17.4286 155.95 16.8572C157.887 15.7144 158.817 17.3572 158.817 21.9286C158.817 25.2144 159.049 25.7144 160.366 25.7144C161.76 25.7144 161.915 25.2144 161.915 20.7858C161.915 17.2144 161.605 15.5001 160.676 14.7144C159.359 13.4286 155.33 13.2144 154.556 14.2858C154.168 14.7858 153.703 14.8572 153.161 14.3572C152.619 14.0001 150.217 13.7144 147.738 13.7144L143.322 13.7858V19.7144Z" fill="#5C5247"/>
</svg>
