<svg width="20" height="10" viewBox="0 0 20 10" fill="none" xmlns="http://www.w3.org/2000/svg">
<path d="M-0.0383375 1.65923C-0.0390642 1.87269 0.00812173 2.0836 0.0997584 2.27646C0.191395 2.46932 0.325152 2.63924 0.491198 2.77372L9.07829 9.67496C9.33438 9.88511 9.65559 10 9.98709 10C10.3186 10 10.6398 9.88511 10.8959 9.67496L19.483 2.53082C19.7753 2.28829 19.9591 1.93978 19.9939 1.56196C20.0288 1.18414 19.912 0.807959 19.669 0.516168C19.4261 0.224377 19.077 0.0408812 18.6986 0.00604629C18.3201 -0.0287886 17.9433 0.0878916 17.6511 0.330419L9.97993 6.71728L2.3088 0.544743C2.09872 0.370022 1.84291 0.259035 1.57163 0.224915C1.30036 0.190796 1.02496 0.234971 0.778044 0.352215C0.531126 0.469458 0.323014 0.654864 0.178335 0.886492C0.0336573 1.11812 -0.0415323 1.38628 -0.0383375 1.65923Z" fill="#5C5247"/>
</svg>
