<svg width="26" height="30" viewBox="0 0 26 30" fill="none" xmlns="http://www.w3.org/2000/svg">
<path d="M20.6902 16.0228L20.3288 16.4132L19.6301 17.1695L18.343 18.5817C17.9041 19.0697 17.5008 19.5209 17.1486 19.9419V19.9417C17.0909 19.7279 17.0055 19.5226 16.8946 19.3318C16.4418 18.5461 15.6223 18.0567 14.7297 18.0388H12.8902C11.6718 18.0388 10.4534 18.0388 9.27378 18.0662L7.53566 18.0967L6.69055 18.1211C5.27991 18.1679 3.92904 18.7134 2.86812 19.6643C2.69439 19.822 2.52982 19.99 2.37547 20.1675L1.9901 20.6006C1.74513 20.9057 1.52725 21.1647 1.33915 21.4088C1.28249 21.479 1.37789 21.6711 1.54516 21.8328C1.71243 21.9945 1.84388 22.0493 1.91845 22.0004C2.15738 21.797 2.42005 21.5745 2.70688 21.3324L3.15182 20.942C3.29514 20.8201 3.45054 20.698 3.60572 20.5853C4.31459 20.0779 5.13533 19.7573 5.99479 19.652C6.22976 19.6241 6.46619 19.6128 6.70259 19.6186L7.53267 19.6369L9.27079 19.6705C10.4652 19.6858 11.6599 19.6949 12.8872 19.6949H14.679L14.6788 19.6947C15.0211 19.6947 15.3385 19.876 15.5181 20.1736C15.6939 20.4591 15.7218 20.8146 15.5927 21.1252C15.4633 21.4292 15.2027 21.6545 14.8879 21.7351C14.8059 21.7566 14.7217 21.7689 14.6369 21.7717H14.2487L13.4961 21.8021L12.1044 21.8753C11.2295 21.9302 10.4708 21.9912 9.86465 22.0644C9.77799 22.0644 9.71529 22.2718 9.72133 22.5035C9.72737 22.7354 9.78695 22.8694 9.86465 22.8786C10.4618 22.9518 11.2295 23.0128 12.1044 23.0677L13.4961 23.1409L14.2487 23.1713H14.6369V23.1715C14.8171 23.1787 14.9973 23.1653 15.1746 23.1319C15.9538 22.9866 16.6192 22.4714 16.9662 21.7443C17.0446 21.583 17.1048 21.413 17.1456 21.238C17.7428 20.7195 18.4027 20.1004 19.1582 19.3897L21.9951 16.6875V16.6877C22.1764 16.5552 22.3936 16.4837 22.6163 16.4837C22.8392 16.4837 23.0564 16.5552 23.2374 16.6877C23.4199 16.8228 23.5541 17.0151 23.6197 17.2353C23.6855 17.4555 23.6792 17.6914 23.6018 17.9076C23.5607 18.0169 23.5043 18.1197 23.4345 18.2126C23.3868 18.2705 23.1956 18.4566 23.0612 18.5939L22.1863 19.4723L20.4124 21.2657L16.8855 24.8977L16.4527 25.3583C16.3341 25.4859 16.2065 25.6042 16.0704 25.7121C15.8094 25.9261 15.5224 26.1046 15.2164 26.2426C14.9147 26.3767 14.5975 26.4709 14.2725 26.5232C14.1123 26.5486 13.9509 26.5649 13.7888 26.5722H13.2185C10.1545 26.6241 7.41608 26.7064 5.36782 26.8162H5.32282C5.20118 26.8228 5.0866 26.8774 5.00328 26.9685C4.20296 27.8378 3.77885 28.3288 3.41768 28.7587C3.33415 28.8563 3.40268 29.0638 3.56995 29.2222C3.73722 29.3807 3.89553 29.4114 3.98198 29.335C4.37318 28.9904 4.81814 28.5908 5.56177 27.8803C7.58652 27.9871 10.2472 28.0662 13.2189 28.1151H13.8161V28.1154C14.0438 28.1162 14.2713 28.102 14.4971 28.0726C15.4317 27.946 16.3175 27.5705 17.0653 26.9838C17.2523 26.8362 17.43 26.6764 17.5967 26.5049L18.0356 26.0627L21.5745 22.461L23.3305 20.6493L24.1906 19.7558C24.3429 19.5941 24.4504 19.4997 24.6653 19.2404C24.8447 19.007 24.9859 18.7453 25.0834 18.4658C25.27 17.9113 25.27 17.3091 25.0834 16.7547C24.8168 15.968 24.1937 15.3617 23.4113 15.1279C22.6292 14.8941 21.7843 15.0617 21.1446 15.5774C21.0516 15.6538 20.9637 15.7363 20.8817 15.8246L20.6902 16.0228Z" fill="#ADA8A3"/>
<path d="M9.05279 16.5751C9.26193 16.5751 9.42608 16.5355 9.43504 16.4928C9.64563 15.205 9.76541 13.9035 9.79333 12.5982H12.263C12.2898 13.9059 12.4115 15.2097 12.6273 16.4989C12.6273 16.5447 12.8304 16.5813 13.0543 16.5783C13.2783 16.5753 13.4157 16.5417 13.4247 16.4989C13.6745 14.9359 13.8051 13.3553 13.8159 11.7717C13.8232 11.5615 13.7472 11.3572 13.6049 11.2052C13.4626 11.0528 13.2664 10.9658 13.0604 10.9635H13.0127C11.7137 10.9239 10.3101 10.9239 9.01111 10.9635H8.96924C8.76405 10.969 8.5695 11.0577 8.42824 11.2098C8.28722 11.3619 8.21098 11.5653 8.2166 11.7747C8.2266 13.3572 8.35533 14.9366 8.60176 16.4989C8.6228 16.5417 8.82277 16.5783 9.05274 16.5751L9.05279 16.5751Z" fill="#ADA8A3"/>
<path d="M1.61129 10.5879L4.00037 10.5392C4.06015 12.9791 4.1318 15.0773 4.21846 16.6726L4.21825 16.6724C4.26304 16.8764 4.45509 17.0098 4.65715 16.9774C4.84005 16.9853 5.00127 16.8558 5.03648 16.6724C5.13209 14.9309 5.20958 12.5916 5.26937 9.86803C5.27353 9.69784 5.21083 9.53275 5.09522 9.40957C4.97982 9.28661 4.82109 9.21556 4.65424 9.21237H4.62737L3.39105 9.19407C5.80407 6.93732 8.41391 4.47296 11.0242 1.98127C11.8664 2.78947 12.7083 3.60061 13.5416 4.39672C13.6974 4.54606 13.9042 4.62733 14.118 4.62243C14.3315 4.61775 14.5348 4.52734 14.6839 4.37118C14.8331 4.21482 14.9162 4.00485 14.9153 3.7866V2.43548H15.9575C15.9575 3.8385 15.9844 5.12236 15.9962 6.35133V6.37282C16 6.57811 16.0852 6.77298 16.2323 6.91275C17.1579 7.77584 17.9762 8.53209 18.7317 9.22756L17.4356 9.26117H17.4058C17.0853 9.27414 16.8321 9.54347 16.8324 9.87108C16.889 12.7043 16.9578 14.5373 17.0355 15.9707C17.0748 16.1743 17.265 16.3092 17.4656 16.2756C17.646 16.2843 17.8041 16.153 17.8329 15.9707C17.9074 14.6502 17.9701 12.9819 18.0241 10.5055C18.7051 10.5238 19.4606 10.5421 20.4369 10.5575V10.5572C20.6196 10.5596 20.7954 10.4858 20.9237 10.353C21.048 10.226 21.1178 10.0537 21.1178 9.87414C21.1178 9.69458 21.048 9.52227 20.9237 9.39526L20.9058 9.37697C19.9084 8.38262 18.8154 7.31235 17.5104 6.02206C17.5104 4.65564 17.5373 3.21624 17.5523 1.61198L17.552 1.61219C17.5529 1.39924 17.471 1.19459 17.3244 1.04313C17.1777 0.891448 16.9784 0.805503 16.7697 0.804016L14.1238 0.788699H14.124C13.9101 0.787848 13.7047 0.874007 13.5528 1.02782C13.4012 1.18162 13.3153 1.39075 13.3147 1.60924V1.87452L11.5856 0.227517C11.4341 0.0815782 11.2339 9.91821e-05 11.0256 9.91821e-05C10.8173 9.91821e-05 10.6171 0.0815782 10.4657 0.227517C7.20757 3.36283 3.96148 6.53137 1.13092 9.34645L1.11009 9.36475H1.10988C0.973649 9.50346 0.89824 9.69279 0.900949 9.88936C0.904074 10.0783 0.980731 10.2582 1.11425 10.3893C1.24757 10.5203 1.42651 10.5918 1.61169 10.5878L1.61129 10.5879Z" fill="#ADA8A3"/>
</svg>
