<svg width="186" height="60" viewBox="0 0 186 60" fill="none" xmlns="http://www.w3.org/2000/svg">
<path d="M77.0332 16.6688C78.9497 17.0787 80.6994 18.1419 82.0325 19.7069C83.5723 21.4465 84.4291 23.7788 84.4191 26.2033C84.4504 26.8114 84.4053 27.4214 84.2852 28.016C83.9698 29.9872 83.0257 31.7711 81.6217 33.0491C79.9584 34.5353 77.8901 35.3693 75.7452 35.4188H65.3265V0H75.0574C77.7471 0.135025 79.8737 1.07514 81.437 2.82034C82.7924 4.32127 83.5527 6.34843 83.5527 8.46101C83.5527 10.5736 82.7924 12.6008 81.437 14.1017C80.2405 15.4276 78.7046 16.323 77.0332 16.6688V16.6688ZM67.99 17.1752V34.3453H73.7741C75.343 34.3751 76.8922 33.9581 78.2703 33.1352C79.5961 32.3186 80.6188 31.0177 81.16 29.4591C81.5632 28.4079 81.7674 27.2779 81.7602 26.1375C81.8275 23.9366 81.12 21.7917 79.7844 20.1474C78.3503 18.2976 76.4069 17.3068 73.9542 17.1752H67.99V17.1752ZM67.99 16.1169H74.7805C75.793 16.1071 76.786 15.8101 77.6629 15.2546C78.5397 14.6992 79.2706 13.9043 79.7844 12.9472C80.5245 11.6507 80.9076 10.1475 80.8877 8.61797C80.916 7.65402 80.7671 6.69368 80.4499 5.79419C80.1327 4.89469 79.6536 4.07446 79.0412 3.38238C77.6564 1.76714 75.6437 0.982308 73.0725 1.01269H67.9946V16.1169H67.99ZM99.1771 34.4972C95.5672 32.6508 93.7623 28.8245 93.7623 23.0184V0H96.4258V23.0133C96.4258 30.0245 99.1955 33.6652 104.735 33.9352C106.379 34.059 108.021 33.6581 109.462 32.7807C111.816 31.2381 112.993 28.1831 112.993 23.6159V0H113.958V23.7982C113.958 31.6161 110.807 35.5589 104.504 35.6264C102.671 35.7033 100.846 35.308 99.1771 34.4719V34.4972ZM127.184 35.3985H124.52V0H127.184V35.3985ZM140.7 0V34.3403H154.978V35.3985H138.059V0H140.7ZM165.096 35.3985H162.682V0H165.115C167.685 0 169.751 0.0675095 171.314 0.202535C172.982 0.320526 174.623 0.720178 176.18 1.38738C177.68 2.04247 179.069 2.97027 180.288 4.13177C181.547 5.3351 182.611 6.76488 183.432 8.35975C184.758 10.9161 185.513 13.7811 185.634 16.7195C185.897 20.5668 185.046 24.4071 183.201 27.692C182.036 29.8121 180.413 31.5844 178.474 32.8516C176.5 34.1283 174.293 34.9114 172.011 35.1453C170.3 35.3141 168.005 35.3985 165.124 35.3985H165.096ZM165.327 34.3403C167.523 34.3749 169.717 34.2225 171.891 33.8846C174.18 33.5666 176.314 32.4459 177.976 30.6895C179.604 28.9952 180.825 26.8852 181.53 24.5476C182.243 22.1519 182.569 19.6382 182.495 17.1195C182.423 14.6769 181.965 12.2664 181.142 9.99523C180.323 7.78726 179.031 5.82819 177.376 4.28367C175.69 2.67581 173.595 1.67376 171.374 1.4127C169.363 1.14942 167.339 1.03101 165.313 1.05826V34.3403H165.327Z" fill="black"/>
<path d="M99.0254 59.9964C99.7769 59.9951 100.521 59.8302 101.214 59.5113C101.907 59.1923 102.535 58.7256 103.062 58.1383C103.59 57.551 104.005 56.8547 104.285 56.0897C104.566 55.3248 104.704 54.5065 104.694 53.6823V53.6367C104.707 52.8181 104.571 52.005 104.294 51.2447C104.017 50.4844 103.605 49.7923 103.082 49.2087C102.558 48.6251 101.934 48.1617 101.245 47.8457C100.557 47.5297 99.8179 47.3674 99.0715 47.3682C98.32 47.3694 97.5762 47.5343 96.8832 47.8533C96.1903 48.1722 95.5619 48.6389 95.0346 49.2262C94.5073 49.8136 94.0915 50.5099 93.8114 51.2748C93.5313 52.0397 93.3924 52.858 93.4028 53.6823V53.7278C93.3899 54.5464 93.5259 55.3596 93.8027 56.1199C94.0796 56.8802 94.4918 57.5723 95.0152 58.1559C95.5387 58.7395 96.1629 59.2028 96.8514 59.5188C97.5399 59.8348 98.279 59.9972 99.0254 59.9964V59.9964ZM99.0715 58.9077C96.528 58.9077 94.543 56.5887 94.543 53.6823V53.6367C94.543 50.8012 96.4172 48.4568 99.0254 48.4568C101.634 48.4568 103.554 50.7759 103.554 53.6823V53.7278C103.554 56.5684 101.68 58.9077 99.0715 58.9077ZM107.948 59.2166C107.947 59.2948 107.959 59.3725 107.986 59.4451C108.012 59.5176 108.052 59.5834 108.103 59.6385C108.153 59.6935 108.214 59.7366 108.28 59.7651C108.346 59.7935 108.417 59.8068 108.489 59.804C108.559 59.807 108.629 59.7938 108.694 59.7651C108.759 59.7364 108.818 59.6929 108.867 59.6374C108.916 59.5819 108.953 59.5158 108.977 59.4433C109.001 59.3707 109.011 59.2935 109.006 59.2166V52.7354C108.985 52.1742 109.069 51.6142 109.252 51.0897C109.435 50.5652 109.714 50.0872 110.071 49.6849C110.428 49.2826 110.857 48.9643 111.33 48.7497C111.803 48.5351 112.311 48.4285 112.823 48.4365C115.044 48.4365 116.313 50.067 116.313 52.548V59.2166C116.31 59.295 116.323 59.373 116.349 59.4459C116.375 59.5188 116.415 59.585 116.466 59.6402C116.516 59.6954 116.577 59.7384 116.644 59.7666C116.71 59.7948 116.782 59.8075 116.853 59.804C116.923 59.8062 116.993 59.7925 117.058 59.7635C117.123 59.7345 117.181 59.691 117.23 59.6357C117.279 59.5804 117.316 59.5145 117.34 59.4424C117.365 59.3702 117.375 59.2933 117.37 59.2166V52.3405C117.37 49.4543 115.754 47.3732 112.971 47.3732C112.16 47.3424 111.357 47.5637 110.655 48.0117C109.954 48.4596 109.382 49.1159 109.006 49.9049V48.1581C109.012 48.0774 109.004 47.996 108.98 47.9191C108.957 47.8423 108.919 47.7716 108.869 47.7117C108.82 47.6518 108.759 47.604 108.692 47.5712C108.624 47.5384 108.551 47.5215 108.477 47.5215C108.403 47.5215 108.33 47.5384 108.262 47.5712C108.195 47.604 108.134 47.6518 108.085 47.7117C108.035 47.7716 107.997 47.8423 107.974 47.9191C107.95 47.996 107.942 48.0774 107.948 48.1581V59.2217V59.2166ZM127.627 59.2166C127.625 59.2948 127.638 59.3725 127.665 59.4451C127.691 59.5176 127.731 59.5834 127.782 59.6385C127.832 59.6935 127.892 59.7366 127.959 59.7651C128.025 59.7935 128.096 59.8068 128.167 59.804C128.237 59.8062 128.307 59.7925 128.372 59.7635C128.437 59.7345 128.496 59.691 128.544 59.6357C128.593 59.5804 128.631 59.5145 128.655 59.4424C128.679 59.3702 128.689 59.2933 128.684 59.2166V52.7607C128.684 50.3252 130.235 48.4365 132.197 48.4365C134.159 48.4365 135.429 49.9556 135.429 52.4873V59.2267C135.426 59.3051 135.438 59.3832 135.465 59.4561C135.491 59.529 135.531 59.5951 135.581 59.6503C135.632 59.7055 135.693 59.7486 135.759 59.7767C135.826 59.8049 135.897 59.8177 135.969 59.8141C136.039 59.8164 136.109 59.8026 136.173 59.7736C136.238 59.7446 136.297 59.7011 136.346 59.6458C136.394 59.5905 136.432 59.5247 136.456 59.4525C136.48 59.3803 136.49 59.3034 136.486 59.2267V52.6898C136.486 49.9961 138.101 48.4365 139.953 48.4365C141.979 48.4365 143.207 49.9556 143.207 52.548V59.2166C143.205 59.2948 143.218 59.3725 143.244 59.4451C143.271 59.5176 143.311 59.5834 143.361 59.6385C143.412 59.6935 143.472 59.7366 143.539 59.7651C143.605 59.7935 143.676 59.8068 143.747 59.804C143.817 59.8062 143.887 59.7925 143.952 59.7635C144.017 59.7345 144.075 59.691 144.124 59.6357C144.173 59.5804 144.21 59.5145 144.234 59.4424C144.259 59.3702 144.269 59.2933 144.264 59.2166V52.4063C144.264 49.3682 142.648 47.3428 140.04 47.3428C139.224 47.3264 138.419 47.5616 137.718 48.0217C137.017 48.4818 136.448 49.1483 136.075 49.9455C135.763 49.1598 135.246 48.4932 134.588 48.03C133.931 47.5667 133.163 47.3276 132.382 47.3428C130.42 47.3428 129.428 48.5277 128.717 49.7784V48.1277C128.719 48.0491 128.707 47.9708 128.681 47.8976C128.655 47.8245 128.615 47.758 128.564 47.7025C128.514 47.6469 128.453 47.6033 128.386 47.5746C128.32 47.5458 128.248 47.5324 128.177 47.5353C128.107 47.5352 128.038 47.5506 127.973 47.5807C127.909 47.6108 127.851 47.6548 127.803 47.7102C127.754 47.7656 127.717 47.8311 127.692 47.9029C127.668 47.9746 127.657 48.0511 127.66 48.1277V59.1913L127.627 59.2166ZM148.493 53.1152C148.686 50.4417 150.367 48.4365 152.546 48.4365C155.066 48.4365 156.335 50.6797 156.488 53.1152H148.493ZM157.051 58.0318C157.102 57.981 157.144 57.9195 157.173 57.8508C157.203 57.782 157.219 57.7076 157.222 57.6318C157.221 57.5586 157.206 57.4864 157.18 57.4194C157.153 57.3523 157.115 57.2916 157.067 57.2409C157.019 57.1901 156.962 57.1502 156.9 57.1234C156.838 57.0967 156.771 57.0836 156.705 57.0849C156.64 57.0844 156.575 57.099 156.515 57.1278C156.456 57.1566 156.402 57.1989 156.359 57.252C155.901 57.7802 155.349 58.1997 154.738 58.4845C154.127 58.7693 153.468 58.9134 152.804 58.9077C150.648 58.9077 148.686 57.1558 148.493 54.1583H157.097C157.229 54.1525 157.355 54.0935 157.451 53.9927C157.546 53.8919 157.604 53.7562 157.614 53.6114C157.614 50.1581 155.652 47.3682 152.569 47.3682C149.596 47.3682 147.352 50.1581 147.352 53.6569V53.7076C147.352 57.4647 149.854 59.9964 152.739 59.9964C153.542 60.0262 154.34 59.8661 155.081 59.5271C155.822 59.1881 156.487 58.6781 157.033 58.0318H157.051Z" fill="black"/>
<path d="M27.1564 27.0831C30.5829 27.083 33.9036 28.4032 36.5524 30.8188C39.2012 33.2344 41.0144 36.596 41.6828 40.3306C42.3513 44.0653 41.8338 47.942 40.2185 51.3002C38.6032 54.6583 35.99 57.2902 32.8242 58.7473C29.6584 60.2043 26.1358 60.3964 22.8569 59.2909C19.5779 58.1853 16.7453 55.8505 14.8418 52.6842C12.9383 49.518 12.0817 45.7162 12.4179 41.9267C12.7541 38.1373 14.2623 34.5946 16.6855 31.9024C18.0591 30.3722 19.6913 29.1588 21.4882 28.3317C23.2852 27.5047 25.2114 27.0804 27.1564 27.0831V27.0831ZM37.1933 32.3814C34.8704 29.7993 31.8137 28.1922 28.5441 27.8339C25.2745 27.4756 21.9943 28.3883 19.2623 30.4164C16.5303 32.4444 14.5157 35.4625 13.5617 38.9562C12.6077 42.4499 12.7734 46.2031 14.0305 49.5763C15.2876 52.9495 17.5583 55.734 20.4558 57.4552C23.3532 59.1765 26.6981 59.728 29.9205 59.0158C33.1429 58.3036 36.0433 56.3718 38.1276 53.5496C40.2119 50.7273 41.3511 47.1893 41.3511 43.5382C41.354 41.4658 40.9881 39.4132 40.2745 37.4985C39.561 35.5838 38.5138 33.8447 37.1933 32.3814V32.3814Z" fill="black"/>
<path d="M41.3516 16.4577C41.298 12.313 39.7787 8.35824 37.1223 5.44832C34.4658 2.5384 30.8855 0.907125 27.1554 0.907125C23.4253 0.907125 19.845 2.5384 17.1885 5.44832C14.532 8.35824 13.0128 12.313 12.9592 16.4577C12.9592 23.8967 18.0201 30.6287 22.9491 37.1944C24.4152 39.1267 25.8462 41.0491 27.1568 42.9814C28.4646 41.0491 29.9072 39.1267 31.3616 37.1944C36.2936 30.6287 41.3516 23.8967 41.3516 16.4577ZM37.6277 4.82186C39.0046 6.34832 40.0966 8.16208 40.8408 10.1589C41.5851 12.1558 41.9669 14.2964 41.9644 16.4577C41.9644 24.1411 36.8331 30.9708 31.8308 37.6376C30.2855 39.6936 28.7549 41.7334 27.4031 43.7569C27.3849 43.7831 27.3643 43.8071 27.3416 43.8286C27.3099 43.8571 27.2733 43.8779 27.234 43.8898C27.1947 43.9017 27.1536 43.9043 27.1133 43.8976C27.073 43.8909 27.0345 43.8749 27.0001 43.8506C26.9656 43.8264 26.9362 43.7945 26.9135 43.7569C25.5617 41.7301 24.0282 39.6904 22.4829 37.6343C17.4806 30.9773 12.3493 24.1476 12.3493 16.4545C12.35 13.1999 13.219 10.0186 14.8464 7.31274C16.4739 4.60689 18.7867 2.49798 21.4925 1.25261C24.1983 0.00723477 27.1757 -0.318691 30.0482 0.316037C32.9207 0.950765 35.5594 2.51765 37.6306 4.81861L37.6277 4.82186Z" fill="black"/>
<path d="M0.00183105 42.6101H54.309V44.487H0.00183105V42.6101Z" fill="black"/>
</svg>
