<svg width="26" height="30" viewBox="0 0 26 30" fill="none" xmlns="http://www.w3.org/2000/svg">
<path d="M8.07142 0.335885C7.82508 0.353614 7.59522 0.468744 7.43128 0.656587L4.2405 4.1935H1.51254C1.26181 4.1935 1.02162 4.29472 0.844269 4.47515C0.666934 4.65559 0.567383 4.90021 0.567383 5.15516V20.5456C0.567383 20.8006 0.666928 21.0452 0.844269 21.2257C1.0216 21.4061 1.26201 21.5075 1.51276 21.5075H16.6389C16.8896 21.5075 17.13 21.4061 17.3073 21.2257C17.4847 21.0452 17.5842 20.8006 17.5842 20.5456V5.15516C17.5842 4.90022 17.4847 4.65537 17.3073 4.47515C17.13 4.29472 16.8896 4.19328 16.6389 4.19328H8.76077C8.50762 4.18969 8.2637 4.28933 8.08351 4.47022C7.90331 4.65088 7.80179 4.89775 7.80179 5.15517C7.80179 5.41281 7.90331 5.65945 8.08351 5.84035C8.2637 6.02101 8.50763 6.12066 8.76077 6.11707H15.6938V11.8882H12.2272C12.1942 11.8864 12.1617 11.8864 12.1288 11.8882C11.8778 11.9012 11.6422 12.0152 11.4741 12.2051C11.3058 12.3947 11.2185 12.645 11.2315 12.9002C11.2447 13.1556 11.357 13.395 11.5438 13.566C11.7306 13.7371 11.9765 13.8255 12.2274 13.812H15.6939V19.5831H10.0217V16.0563C10.0269 15.796 9.92826 15.5446 9.74807 15.3594C9.56809 15.1745 9.32219 15.0715 9.06619 15.0742C8.81369 15.0769 8.57285 15.1821 8.39702 15.3666C8.22122 15.5511 8.12541 15.7993 8.13069 16.0563V19.5831H2.4584V13.812H5.92495C6.1781 13.8156 6.4218 13.716 6.60199 13.5351C6.78218 13.3544 6.88371 13.1075 6.88371 12.8501C6.88371 12.5927 6.78218 12.3458 6.60199 12.1652C6.4218 11.9843 6.17787 11.8846 5.92473 11.8882H2.45818V6.11708H4.66426C4.93147 6.11551 5.1855 5.99903 5.36352 5.7966L8.83006 1.94904C9.00257 1.7594 9.09267 1.50692 9.08036 1.24881C9.06805 0.990715 8.95422 0.748563 8.76458 0.576894C8.57471 0.404983 8.32477 0.318155 8.07142 0.335885ZM22.5084 4.19356C22.2697 4.22385 22.0513 4.34572 21.8977 4.53424L20.3221 6.45799C20.0981 6.7071 20.0186 7.05722 20.1122 7.38103C20.206 7.70465 20.4594 7.95511 20.7802 8.04081C21.1013 8.12677 21.4428 8.03543 21.681 7.80046V17.9001C21.4817 17.7125 21.2125 17.6211 20.9424 17.6494C20.7123 17.6737 20.4992 17.7827 20.343 17.9562C20.1867 18.1295 20.0982 18.3552 20.0944 18.5904C20.0905 18.8256 20.1715 19.0541 20.3221 19.2325L21.8977 21.1563C22.0772 21.3773 22.3444 21.5055 22.6264 21.5055C22.9083 21.5055 23.1755 21.3773 23.3551 21.1563L24.9307 19.2325C25.13 18.9803 25.1917 18.6427 25.0944 18.3344C24.9973 18.026 24.7544 17.7879 24.4481 17.7006C24.1416 17.6131 23.8124 17.688 23.5718 17.9001V7.79013C23.8124 8.00221 24.1416 8.07716 24.4479 7.98964C24.7544 7.90234 24.9973 7.66422 25.0944 7.35588C25.1917 7.04752 25.1302 6.70999 24.9309 6.45772L23.3551 4.53374C23.1487 4.28036 22.8295 4.15227 22.5084 4.19356ZM3.37405 24.0625C3.16375 24.0724 2.96268 24.1534 2.80271 24.293L0.912007 25.896C0.69819 26.0787 0.57491 26.3482 0.57491 26.6323C0.57491 26.9165 0.69819 27.186 0.912007 27.3689L2.80271 28.9719C2.97763 29.1692 3.22485 29.2843 3.48594 29.2897C3.747 29.2953 3.99862 29.1907 4.18121 29.0007C4.36382 28.8108 4.46117 28.5525 4.44996 28.287C4.43875 28.0215 4.32031 27.7726 4.12231 27.5993H7.8154C8.06834 27.6029 8.31226 27.503 8.49267 27.3224C8.67286 27.1415 8.77417 26.8949 8.77417 26.6374C8.77417 26.3798 8.67286 26.1331 8.49267 25.9522C8.31226 25.7716 8.06833 25.6717 7.8154 25.6755H4.10274C4.27216 25.4884 4.36182 25.2404 4.35215 24.9861C4.34226 24.7318 4.23393 24.4917 4.05066 24.3187C3.86717 24.1454 3.62389 24.0535 3.37405 24.0625ZM14.65 24.0625C14.4146 24.0856 14.1964 24.1976 14.0382 24.3762C13.8802 24.5551 13.7936 24.7876 13.7956 25.0282C13.7976 25.2686 13.8881 25.4995 14.0492 25.6757H10.9668C10.934 25.6739 10.9011 25.6739 10.8683 25.6757C10.6174 25.6887 10.3818 25.8025 10.2134 25.9924C10.0451 26.1822 9.95809 26.4322 9.97105 26.6877C9.98424 26.9431 10.0965 27.1825 10.2831 27.3535C10.4699 27.5245 10.716 27.613 10.9667 27.5995H14.0296C13.8316 27.7728 13.7131 28.0217 13.7019 28.2872C13.6907 28.5527 13.7881 28.811 13.9707 29.0008C14.1533 29.1909 14.4049 29.2955 14.6659 29.2899C14.927 29.2845 15.1742 29.1694 15.3492 28.9721L17.2399 27.3691C17.4537 27.1862 17.577 26.9166 17.577 26.6325C17.577 26.3484 17.4537 26.0789 17.2399 25.8962L15.3492 24.2931C15.156 24.1235 14.904 24.04 14.65 24.0625Z" fill="#ADA8A3"/>
</svg>
