<svg width="24" height="30" viewBox="0 0 24 30" fill="none" xmlns="http://www.w3.org/2000/svg">
<path d="M12.0003 29.05C12.2335 29.05 12.4668 28.9332 12.6222 28.7386L20.5919 18.3081C23.5465 14.4551 23.5465 9.04526 20.5919 5.19223C18.5314 2.50678 15.4213 0.949997 12.0002 0.949997C8.57909 0.949997 5.46887 2.5067 3.4084 5.19223C0.453846 9.04526 0.453846 14.4551 3.4084 18.3081L11.3781 28.7386C11.5336 28.933 11.767 29.05 12.0003 29.05ZM12.0003 2.50686C14.916 2.50686 17.5596 3.83005 19.348 6.12638C21.875 9.43447 21.875 14.066 19.348 17.3741L12.0003 26.9873L4.65254 17.3741C2.12547 14.066 2.12547 9.43454 4.65254 6.12638C6.44079 3.82978 9.08449 2.50686 12.0003 2.50686Z" fill="#A89C8F" stroke="#A89C8F" stroke-width="0.5" stroke-miterlimit="10"/>
<circle cx="12.0002" cy="11.9998" r="5" stroke="#A89C8F" stroke-width="2"/>
</svg>
