<svg width="24" height="24" viewBox="0 0 24 24" fill="none" xmlns="http://www.w3.org/2000/svg">
<path d="M20.5022 11H6.07292C4.93448 11 4.0116 11.8954 4.0116 13V20C4.0116 21.1046 4.93448 22 6.07292 22H20.5022C21.6406 22 22.5635 21.1046 22.5635 20V13C22.5635 11.8954 21.6406 11 20.5022 11Z" stroke="#A89C8F" stroke-linecap="round" stroke-linejoin="round"/>
<path d="M8.13342 11V7C8.13342 5.67392 8.67636 4.40215 9.64279 3.46447C10.6092 2.52678 11.92 2 13.2867 2C14.6535 2 15.9642 2.52678 16.9307 3.46447C17.8971 4.40215 18.44 5.67392 18.44 7V11" stroke="#A89C8F" stroke-linecap="round" stroke-linejoin="round"/>
</svg>
