<svg width="24" height="32" viewBox="0 0 24 32" fill="none" xmlns="http://www.w3.org/2000/svg">
<path d="M24 28V9L15 0H4C2.93913 0 1.92172 0.421427 1.17157 1.17157C0.421427 1.92172 0 2.93913 0 4V28C0 29.0609 0.421427 30.0783 1.17157 30.8284C1.92172 31.5786 2.93913 32 4 32H20C21.0609 32 22.0783 31.5786 22.8284 30.8284C23.5786 30.0783 24 29.0609 24 28ZM15 6C15 6.79565 15.3161 7.55871 15.8787 8.12132C16.4413 8.68393 17.2044 9 18 9H22V28C22 28.5304 21.7893 29.0391 21.4142 29.4142C21.0391 29.7893 20.5304 30 20 30H4C3.46957 30 2.96086 29.7893 2.58579 29.4142C2.21071 29.0391 2 28.5304 2 28V4C2 3.46957 2.21071 2.96086 2.58579 2.58579C2.96086 2.21071 3.46957 2 4 2H15V6Z" fill="#5C5247"/>
<path d="M5.20601 28.1743C4.81619 28.0184 4.50213 27.7172 4.33 27.3343C3.94 26.5583 4.07 25.7823 4.49 25.1303C4.886 24.5163 5.54201 23.9943 6.28401 23.5563C7.22388 23.0233 8.21738 22.5909 9.24801 22.2663C10.0484 20.8275 10.7578 19.3399 11.372 17.8123C11.0048 16.9778 10.7168 16.1107 10.512 15.2223C10.34 14.4223 10.274 13.6303 10.42 12.9503C10.57 12.2423 10.968 11.6063 11.72 11.3043C12.104 11.1503 12.52 11.0643 12.924 11.1503C13.1272 11.1936 13.3183 11.2815 13.4833 11.4078C13.6483 11.534 13.7831 11.6955 13.878 11.8803C14.054 12.2083 14.118 12.5923 14.132 12.9563C14.146 13.3323 14.108 13.7483 14.038 14.1843C13.87 15.2043 13.498 16.4523 12.998 17.7723C13.5498 18.9523 14.2057 20.0808 14.958 21.1443C15.8482 21.074 16.7436 21.1076 17.626 21.2443C18.354 21.3763 19.094 21.6343 19.546 22.1743C19.786 22.4623 19.932 22.8143 19.946 23.2103C19.96 23.5943 19.852 23.9743 19.67 24.3363C19.5124 24.6718 19.2679 24.959 18.962 25.1683C18.6596 25.3656 18.3026 25.4622 17.942 25.4443C17.28 25.4163 16.634 25.0523 16.076 24.6103C15.3975 24.0493 14.7861 23.4117 14.254 22.7103C12.9015 22.8638 11.5651 23.1355 10.26 23.5223C9.66236 24.5822 8.98015 25.5922 8.22001 26.5423C7.63601 27.2423 7.00201 27.8543 6.36601 28.1163C6.00058 28.2816 5.5861 28.3023 5.20601 28.1743ZM7.964 24.3723C7.632 24.5243 7.324 24.6843 7.046 24.8483C6.39 25.2363 5.964 25.6143 5.752 25.9423C5.564 26.2323 5.56 26.4423 5.672 26.6643C5.692 26.7083 5.712 26.7363 5.724 26.7523C5.74787 26.7459 5.77126 26.7379 5.794 26.7283C6.068 26.6163 6.50401 26.2583 7.06401 25.5843C7.38249 25.1944 7.68281 24.7899 7.964 24.3723ZM11.244 21.7123C11.9119 21.5564 12.5857 21.4277 13.264 21.3263C12.8998 20.769 12.5595 20.1965 12.244 19.6103C11.9303 20.3195 11.5968 21.0198 11.244 21.7103V21.7123ZM16.136 22.6123C16.436 22.9383 16.728 23.2123 17.006 23.4323C17.486 23.8123 17.82 23.9383 18.002 23.9443C18.0507 23.9507 18.1002 23.9401 18.142 23.9143C18.2252 23.8486 18.29 23.7625 18.33 23.6643C18.4011 23.5425 18.4416 23.4052 18.448 23.2643C18.4469 23.2173 18.4283 23.1724 18.396 23.1383C18.292 23.0143 17.996 22.8343 17.36 22.7203C16.9555 22.6526 16.5462 22.6172 16.136 22.6143V22.6123ZM12.156 15.6003C12.3243 15.0573 12.4579 14.5042 12.556 13.9443C12.618 13.5683 12.642 13.2583 12.632 13.0143C12.6326 12.8797 12.6109 12.7459 12.568 12.6183C12.468 12.6307 12.3703 12.6576 12.278 12.6983C12.104 12.7683 11.962 12.9103 11.886 13.2643C11.806 13.6483 11.826 14.2023 11.978 14.9083C12.026 15.1303 12.086 15.3623 12.158 15.6003H12.156Z" fill="#5C5247"/>
</svg>
