<svg width="25" height="28" viewBox="0 0 25 28" fill="none" xmlns="http://www.w3.org/2000/svg">
<path d="M12.2599 0.666038C7.69286 0.65591 3.90232 4.10192 3.90019 8.82374C3.89914 8.84834 3.89914 8.87314 3.90019 8.89773C4.02701 10.2812 4.19048 11.3457 5.18776 13.0551C6.18506 14.7647 7.98746 17.2166 11.5414 21.9345C11.8734 22.3768 12.6464 22.3768 12.9783 21.9345C16.5323 17.2162 18.335 14.7641 19.332 13.0551C20.3292 11.3455 20.4927 10.2812 20.6195 8.89773C20.6206 8.87314 20.6206 8.84834 20.6195 8.82374C20.6172 4.10214 16.8269 0.655985 12.2598 0.666038H12.2599ZM12.2599 2.44393C15.9292 2.43566 18.7927 5.0024 18.8188 8.77729C18.697 10.1112 18.6689 10.6478 17.7832 12.1662C16.9656 13.5677 15.2247 15.9485 12.2596 19.8975C9.2946 15.9482 7.55383 13.5673 6.73603 12.1662C5.85037 10.6478 5.82222 10.1112 5.7004 8.77729C5.72664 5.00246 8.59025 2.43546 12.2593 2.44393H12.2599ZM12.2599 3.92542C9.79722 3.92542 7.78157 5.9259 7.78157 8.36988C7.78157 10.8139 9.79722 12.8143 12.2599 12.8143C14.7227 12.8143 16.7383 10.8139 16.7383 8.36988C16.7383 5.9259 14.7227 3.92542 12.2599 3.92542V3.92542ZM12.2599 5.70331C13.7545 5.70331 14.9469 6.88675 14.9469 8.36988C14.9469 9.85322 13.7545 11.0364 12.2599 11.0364C10.7654 11.0364 9.57294 9.85301 9.57294 8.36988C9.57294 6.88654 10.7654 5.70331 12.2599 5.70331ZM5.00106 17.5552C4.70889 17.5858 4.43735 17.7691 4.30135 18.0275L0.121424 26.0275C-0.0226815 26.2972 -0.0133095 26.6415 0.145581 26.903C0.304475 27.1645 0.606846 27.3335 0.914437 27.3331H23.6048C23.9124 27.3331 24.215 27.1645 24.3737 26.903C24.5326 26.6416 24.5419 26.2972 24.3978 26.0275L20.2179 18.0275C20.0661 17.7435 19.7487 17.5546 19.4249 17.5552H17.6335C17.1604 17.5486 16.7251 17.9744 16.7251 18.4442C16.7251 18.9137 17.1604 19.3397 17.6335 19.3331H18.8838L19.8074 21.111H15.7489C15.2799 21.1354 14.8752 21.5808 14.8996 22.0462C14.924 22.5117 15.3732 22.9131 15.8422 22.8889H20.7403L22.1306 25.5554H13.1551V24.074C13.1651 23.5994 12.7284 23.1615 12.25 23.1667C11.7779 23.1714 11.3539 23.6056 11.3637 24.074V25.5554H2.38824L3.93698 22.5925H8.67668C9.14982 22.5991 9.58505 22.1733 9.58505 21.7035C9.58505 21.2339 9.14981 20.808 8.67668 20.8146H4.86076L5.63522 19.3331H6.88553C7.35866 19.3397 7.7939 18.9139 7.7939 18.4442C7.7939 17.9746 7.35866 17.5486 6.88553 17.5552H5.00086H5.00106Z" fill="#ADA8A3"/>
</svg>
