<svg width="142" height="135" viewBox="0 0 142 135" fill="none" xmlns="http://www.w3.org/2000/svg">
<path d="M71 86.5L11 49L71 11.5L131 49L71 86.5Z" fill="#E0DCD7"/>
<path fill-rule="evenodd" clip-rule="evenodd" d="M70.9999 0.362793L136.524 40.411C136.525 40.4114 136.525 40.4117 136.526 40.412C138.074 41.3573 139.354 42.684 140.243 44.2653C141.132 45.8471 141.601 47.6306 141.603 49.4452L141.603 49.45L141.603 124C141.603 126.812 140.486 129.509 138.498 131.498C136.509 133.486 133.812 134.603 131 134.603H10.9999C8.18773 134.603 5.4907 133.486 3.50216 131.498C1.51363 129.509 0.396484 126.812 0.396484 124L0.396488 49.4452C0.399314 47.6306 0.86778 45.8471 1.75706 44.2653C2.64604 42.684 3.92581 41.3573 5.47398 40.412C5.4745 40.4117 5.47502 40.4114 5.47554 40.411L70.9999 0.362793ZM70.9999 7.63721L8.71089 45.708L8.70933 45.709C8.06711 46.101 7.53624 46.6512 7.16752 47.3071C6.79913 47.9623 6.6049 48.7011 6.60338 49.4528V124C6.60338 125.166 7.06659 126.284 7.8911 127.109C8.71561 127.933 9.83389 128.397 10.9999 128.397H131C132.166 128.397 133.284 127.933 134.109 127.109C134.933 126.284 135.396 125.166 135.396 124L135.397 49.4548L135.396 49.45C135.396 49.4516 135.397 49.4532 135.397 49.4548M135.396 49.45C135.395 48.6993 135.2 47.9615 134.832 47.3071C134.464 46.6512 133.933 46.101 133.291 45.709L70.9999 7.63721" fill="#847667"/>
<path fill-rule="evenodd" clip-rule="evenodd" d="M0.852262 51.1317C1.74602 49.6692 3.65616 49.2081 5.11867 50.1019L71.0004 90.3629L136.882 50.1019C138.345 49.2081 140.255 49.6692 141.149 51.1317C142.042 52.5942 141.581 54.5044 140.119 55.3981L71.0004 97.6371L1.88208 55.3981C0.419571 54.5044 -0.0414971 52.5942 0.852262 51.1317Z" fill="#847667"/>
</svg>
