<svg width="22" height="22" viewBox="0 0 22 22" fill="none" xmlns="http://www.w3.org/2000/svg">
<path fill-rule="evenodd" clip-rule="evenodd" d="M10.9999 2.19989C6.14793 2.19989 2.1997 6.14794 2.1997 11.0001C2.1997 15.8523 6.14774 19.8003 10.9999 19.8003C15.4791 19.8003 19.1882 16.4342 19.7317 12.0999H12.2285C11.9261 12.4377 11.487 12.65 10.9998 12.65C10.0901 12.65 9.3498 11.9097 9.3498 11C9.3498 10.0903 10.0901 9.34999 10.9998 9.34999C11.4871 9.34999 11.9261 9.56232 12.2285 9.90006H19.7317C19.1883 5.566 15.4791 2.1997 10.9999 2.1997V2.19989ZM10.9999 21.9998C4.93447 21.9998 0 17.0653 0 10.9999C0 4.93447 4.93447 0 10.9999 0C16.6934 0 21.3917 4.34933 21.9451 9.90006H22L21.9451 12.0999C21.3918 17.6506 16.6938 22 10.9999 22" fill="#A89C8F"/>
</svg>
