<svg width="139" height="173" viewBox="0 0 139 173" fill="none" xmlns="http://www.w3.org/2000/svg">
<path d="M13.4864 127.102C15.6943 127.533 17.7099 128.651 19.2457 130.297C21.0195 132.127 22.0066 134.58 21.9951 137.13C22.0312 137.769 21.9793 138.411 21.8409 139.036C21.4775 141.109 20.3899 142.985 18.7724 144.33C16.8563 145.893 14.4736 146.77 12.0027 146.822H0V109.57H11.2103C14.3089 109.712 16.7587 110.701 18.5597 112.537C20.1211 114.115 20.9971 116.247 20.9971 118.469C20.9971 120.691 20.1211 122.823 18.5597 124.402C17.1813 125.796 15.4118 126.738 13.4864 127.102V127.102ZM3.06847 127.634V145.693H9.73188C11.5393 145.724 13.3239 145.286 14.9116 144.42C16.439 143.561 17.6171 142.193 18.2406 140.554C18.7051 139.448 18.9403 138.26 18.932 137.06C19.0095 134.746 18.1945 132.49 16.6559 130.76C15.0038 128.815 12.7649 127.773 9.93928 127.634H3.06847V127.634ZM3.06847 126.521H10.8912C12.0577 126.511 13.2016 126.199 14.2118 125.614C15.222 125.03 16.064 124.194 16.6559 123.188C17.5084 121.824 17.9498 120.243 17.9269 118.634C17.9595 117.62 17.788 116.61 17.4225 115.664C17.0571 114.718 16.5052 113.856 15.7997 113.128C14.2043 111.429 11.8857 110.603 8.92355 110.635H3.07378V126.521H3.06847ZM38.9967 145.853C34.838 143.911 32.7587 139.886 32.7587 133.78V109.57H35.8271V133.775C35.8271 141.149 39.0179 144.978 45.3995 145.262C47.2937 145.392 49.185 144.97 50.8451 144.047C53.5572 142.425 54.9133 139.212 54.9133 134.408V109.57H56.0248V134.6C56.0248 142.823 52.3944 146.969 45.1336 147.04C43.0213 147.121 40.9195 146.705 38.9967 145.826V145.853ZM71.2608 146.801H68.1923V109.57H71.2608V146.801ZM86.8318 109.57V145.688H103.28V146.801H83.7899V109.57H86.8318ZM114.937 146.801H112.156V109.57H114.959C117.919 109.57 120.3 109.641 122.101 109.783C124.022 109.907 125.912 110.328 127.706 111.029C129.434 111.718 131.034 112.694 132.439 113.916C133.889 115.181 135.114 116.685 136.06 118.363C137.588 121.051 138.458 124.065 138.597 127.155C138.901 131.201 137.92 135.24 135.794 138.695C134.452 140.925 132.582 142.789 130.349 144.122C128.074 145.465 125.532 146.288 122.904 146.534C120.932 146.712 118.288 146.801 114.969 146.801H114.937ZM115.203 145.688C117.732 145.724 120.261 145.564 122.765 145.208C125.402 144.874 127.861 143.695 129.774 141.848C131.651 140.066 133.057 137.847 133.869 135.388C134.69 132.868 135.066 130.225 134.981 127.576C134.897 125.007 134.37 122.472 133.423 120.083C132.479 117.761 130.99 115.7 129.083 114.076C127.141 112.385 124.728 111.331 122.17 111.056C119.853 110.779 117.52 110.655 115.187 110.683V145.688H115.203Z" fill="white"/>
<path d="M69.3195 44.2642C75.5342 44.2639 81.5566 46.4216 86.3606 50.3696C91.1647 54.3176 94.4531 59.8116 95.6655 65.9154C96.8779 72.0192 95.9393 78.3551 93.0097 83.8436C90.08 89.332 85.3406 93.6334 79.5989 96.0148C73.8573 98.3962 67.4687 98.7102 61.5218 96.9033C55.5748 95.0964 50.4376 91.2804 46.9853 86.1056C43.533 80.9308 41.9794 74.7174 42.5891 68.524C43.1988 62.3307 45.9342 56.5406 50.3291 52.1405C52.8204 49.6397 55.7805 47.6565 59.0395 46.3048C62.2985 44.9532 65.7921 44.2597 69.3195 44.2642V44.2642ZM87.5229 52.9234C83.3101 48.7034 77.7664 46.0768 71.8364 45.4912C65.9065 44.9056 59.9573 46.3972 55.0025 49.7119C50.0476 53.0265 46.3938 57.959 44.6636 63.6691C42.9334 69.3791 43.2339 75.5132 45.5138 81.0262C47.7937 86.5392 51.9121 91.0901 57.167 93.9032C62.422 96.7163 68.4884 97.6177 74.3327 96.4537C80.1769 95.2898 85.4373 92.1325 89.2175 87.5199C92.9977 82.9074 95.0639 77.1248 95.0638 71.1578C95.069 67.7707 94.4054 64.416 93.1113 61.2866C91.8171 58.1573 89.9179 55.315 87.5229 52.9234V52.9234Z" fill="white"/>
<path d="M95.0638 26.8979C94.9666 20.1239 92.2112 13.6604 87.3933 8.90453C82.5754 4.14866 76.082 1.48257 69.3169 1.48257C62.5517 1.48257 56.0584 4.14866 51.2405 8.90453C46.4225 13.6604 43.6672 20.1239 43.5699 26.8979C43.5699 39.0559 52.7487 50.0583 61.6882 60.7891C64.3472 63.9471 66.9424 67.0891 69.3195 70.2471C71.6913 67.0891 74.3078 63.9471 76.9455 60.7891C85.8903 50.0583 95.0638 39.0559 95.0638 26.8979ZM88.31 7.88066C90.8073 10.3755 92.7877 13.3398 94.1375 16.6034C95.4872 19.867 96.1798 23.3655 96.1753 26.8979C96.1753 39.4553 86.8688 50.6175 77.7964 61.5134C74.9938 64.8737 72.2178 68.2075 69.7662 71.5146C69.7332 71.5575 69.6958 71.5967 69.6546 71.6318C69.5972 71.6783 69.5307 71.7124 69.4594 71.7318C69.3881 71.7512 69.3136 71.7556 69.2406 71.7446C69.1675 71.7335 69.0976 71.7074 69.0352 71.6678C68.9728 71.6282 68.9193 71.576 68.8781 71.5146C66.4265 68.2022 63.6453 64.8684 60.8427 61.508C51.7702 50.6281 42.4638 39.466 42.4638 26.8926C42.4651 21.5734 44.0411 16.374 46.9927 11.9517C49.9443 7.52933 54.139 4.08261 59.0464 2.04721C63.9539 0.0118242 69.3537 -0.520856 74.5634 0.516519C79.7731 1.55389 84.5587 4.11475 88.3153 7.87535L88.31 7.88066Z" fill="white"/>
<path d="M20.0698 69.6401H118.564V72.7076H20.0698V69.6401Z" fill="white"/>
<path d="M38.821 172.671C39.6868 172.67 40.5437 172.497 41.342 172.161C42.1403 171.826 42.8642 171.335 43.4716 170.717C44.0791 170.1 44.5581 169.367 44.8808 168.563C45.2034 167.758 45.3634 166.898 45.3515 166.031V165.983C45.3663 165.122 45.2097 164.267 44.8908 163.467C44.5718 162.667 44.097 161.939 43.494 161.326C42.8909 160.712 42.1718 160.224 41.3786 159.892C40.5854 159.56 39.734 159.389 38.8742 159.39C38.0084 159.391 37.1516 159.565 36.3532 159.9C35.5549 160.235 34.831 160.726 34.2236 161.344C33.6161 161.962 33.1372 162.694 32.8145 163.499C32.4918 164.303 32.3318 165.164 32.3437 166.031V166.079C32.3289 166.939 32.4855 167.795 32.8045 168.594C33.1234 169.394 33.5982 170.122 34.2013 170.736C34.8043 171.35 35.5234 171.837 36.3166 172.169C37.1098 172.502 37.9612 172.672 38.821 172.671ZM38.8742 171.526C35.944 171.526 33.6573 169.087 33.6573 166.031V165.983C33.6573 163 35.8164 160.535 38.821 160.535C41.8257 160.535 44.0379 162.974 44.0379 166.031V166.079C44.0379 169.066 41.8788 171.526 38.8742 171.526ZM49.1006 171.851C49.0984 171.934 49.113 172.015 49.1436 172.092C49.1741 172.168 49.22 172.237 49.2783 172.295C49.3366 172.353 49.4061 172.398 49.4826 172.428C49.559 172.458 49.6408 172.472 49.7228 172.469C49.8038 172.472 49.8844 172.458 49.9596 172.428C50.0347 172.398 50.1027 172.352 50.1589 172.294C50.2152 172.236 50.2585 172.166 50.2859 172.09C50.3134 172.013 50.3245 171.932 50.3185 171.851V165.035C50.2945 164.445 50.3911 163.856 50.6021 163.304C50.8131 162.752 51.1343 162.25 51.5459 161.826C51.9575 161.403 52.4509 161.069 52.9961 160.843C53.5412 160.617 54.1266 160.505 54.7164 160.513C57.2744 160.513 58.7368 162.228 58.7368 164.838V171.851C58.7338 171.934 58.7478 172.016 58.7781 172.093C58.8084 172.169 58.8542 172.239 58.9127 172.297C58.9711 172.355 59.041 172.4 59.1178 172.43C59.1946 172.459 59.2768 172.473 59.359 172.469C59.4397 172.471 59.52 172.457 59.5948 172.427C59.6695 172.396 59.7371 172.35 59.7932 172.292C59.8492 172.234 59.8926 172.165 59.9204 172.089C59.9482 172.013 59.9598 171.932 59.9546 171.851V164.619C59.9546 161.584 58.0933 159.395 54.8866 159.395C53.952 159.363 53.0272 159.595 52.219 160.067C51.4107 160.538 50.7519 161.228 50.3185 162.058V160.221C50.3264 160.136 50.3165 160.05 50.2895 159.969C50.2625 159.888 50.219 159.814 50.1617 159.751C50.1044 159.688 50.0345 159.638 49.9567 159.603C49.8788 159.569 49.7947 159.551 49.7096 159.551C49.6244 159.551 49.5403 159.569 49.4624 159.603C49.3845 159.638 49.3147 159.688 49.2574 159.751C49.2001 159.814 49.1566 159.888 49.1296 159.969C49.1026 160.05 49.0927 160.136 49.1006 160.221V171.857V171.851ZM71.7711 171.851C71.7689 171.934 71.7835 172.015 71.8141 172.092C71.8446 172.168 71.8904 172.237 71.9487 172.295C72.007 172.353 72.0766 172.398 72.1531 172.428C72.2295 172.458 72.3113 172.472 72.3933 172.469C72.474 172.471 72.5543 172.457 72.6291 172.427C72.7039 172.396 72.7715 172.35 72.8275 172.292C72.8836 172.234 72.9269 172.165 72.9547 172.089C72.9825 172.013 72.9942 171.932 72.989 171.851V165.061C72.989 162.5 74.7758 160.513 77.0359 160.513C79.2961 160.513 80.7585 162.111 80.7585 164.774V171.862C80.7555 171.944 80.7695 172.027 80.7998 172.103C80.8301 172.18 80.8759 172.249 80.9344 172.307C80.9928 172.366 81.0627 172.411 81.1395 172.44C81.2163 172.47 81.2985 172.484 81.3807 172.48C81.4614 172.482 81.5417 172.468 81.6165 172.437C81.6912 172.407 81.7588 172.361 81.8149 172.303C81.871 172.245 81.9143 172.175 81.9421 172.099C81.9699 172.024 81.9815 171.943 81.9763 171.862V164.987C81.9763 162.154 83.8376 160.513 85.9701 160.513C88.3047 160.513 89.7193 162.111 89.7193 164.838V171.851C89.717 171.934 89.7316 172.015 89.7622 172.092C89.7927 172.168 89.8386 172.237 89.8969 172.295C89.9552 172.353 90.0247 172.398 90.1012 172.428C90.1777 172.458 90.2594 172.472 90.3415 172.469C90.4222 172.471 90.5025 172.457 90.5772 172.427C90.652 172.396 90.7196 172.35 90.7757 172.292C90.8317 172.234 90.875 172.165 90.9028 172.089C90.9306 172.013 90.9423 171.932 90.9371 171.851V164.689C90.9371 161.493 89.0758 159.363 86.0712 159.363C85.1303 159.346 84.2034 159.593 83.3959 160.077C82.5884 160.561 81.9326 161.262 81.503 162.1C81.1436 161.274 80.5475 160.573 79.7903 160.086C79.0331 159.599 78.1486 159.347 77.2486 159.363C74.9885 159.363 73.8451 160.609 73.0262 161.925V160.189C73.0292 160.106 73.0151 160.024 72.9849 159.947C72.9547 159.87 72.9089 159.8 72.8506 159.741C72.7922 159.683 72.7224 159.637 72.6456 159.607C72.5687 159.577 72.4865 159.563 72.404 159.566C72.3235 159.565 72.2438 159.582 72.1697 159.613C72.0957 159.645 72.0288 159.691 71.9731 159.75C71.9175 159.808 71.8742 159.877 71.8458 159.952C71.8175 160.028 71.8048 160.108 71.8084 160.189V171.825L71.7711 171.851ZM95.8083 165.434C96.0317 162.622 97.9674 160.513 100.478 160.513C103.381 160.513 104.844 162.873 105.019 165.434H95.8083ZM105.668 170.605C105.727 170.552 105.775 170.487 105.809 170.415C105.843 170.343 105.862 170.264 105.865 170.184C105.863 170.108 105.847 170.032 105.816 169.961C105.785 169.891 105.741 169.827 105.686 169.773C105.63 169.72 105.565 169.678 105.494 169.65C105.422 169.622 105.346 169.608 105.269 169.609C105.194 169.609 105.12 169.624 105.051 169.654C104.982 169.685 104.92 169.729 104.87 169.785C104.343 170.341 103.708 170.782 103.003 171.081C102.299 171.381 101.541 171.532 100.775 171.526C98.2918 171.526 96.0317 169.684 95.8083 166.531H105.721C105.873 166.525 106.018 166.463 106.128 166.357C106.238 166.251 106.305 166.108 106.317 165.956C106.317 162.324 104.057 159.39 100.504 159.39C97.0793 159.39 94.4948 162.324 94.4948 166.004V166.057C94.4948 170.009 97.3771 172.671 100.701 172.671C101.625 172.703 102.545 172.534 103.399 172.178C104.252 171.821 105.019 171.285 105.647 170.605H105.668Z" fill="white"/>
</svg>
