<?xml version="1.0" encoding="UTF-8"?>
<svg width="120px" height="120px" viewBox="0 0 120 120" version="1.1" xmlns="http://www.w3.org/2000/svg" xmlns:xlink="http://www.w3.org/1999/xlink">
    <!-- Generator: Sketch 59 (86127) - https://sketch.com -->
    <title>Group</title>
    <desc>Created with Sketch.</desc>
    <defs>
        <linearGradient x1="29.7423888%" y1="-22.3498959%" x2="70.4504753%" y2="123.024852%" id="linearGradient-1">
            <stop stop-color="#2E63AF" offset="11%"></stop>
            <stop stop-color="#375BAA" offset="22%"></stop>
            <stop stop-color="#51449C" offset="39%"></stop>
            <stop stop-color="#67308F" offset="52%"></stop>
            <stop stop-color="#932A8E" offset="99%"></stop>
        </linearGradient>
    </defs>
    <g id="Web_12-Nov,-2019" stroke="none" stroke-width="1" fill="none" fill-rule="evenodd">
        <g id="Thank-you-pop" transform="translate(-623.000000, -187.000000)" fill-rule="nonzero">
            <g id="Group-4" transform="translate(487.000000, 155.000000)">
                <g id="Group-3" transform="translate(100.000000, 32.000000)">
                    <g id="Group" transform="translate(36.000000, 0.000000)">
                        <circle id="Oval" fill="url(#linearGradient-1)" cx="60" cy="60" r="60"></circle>
                        <g id="thumbs-up" transform="translate(28.800000, 26.400000)" fill="#FFFFFF">
                            <path d="M60.6701078,37.9207988 C62.0022455,35.9087395 62.6674576,33.6938891 62.6674576,31.2746766 C62.6674576,28.4745881 61.6356506,26.0425226 59.5703229,23.9746243 C57.5039955,21.9088682 55.0573634,20.8762044 52.2307121,20.8762044 L45.0543339,20.8762044 C46.3587664,18.185366 47.0121251,15.5755013 47.0121251,13.0478955 C47.0121251,9.8673594 46.5351376,7.3396108 45.5845898,5.46393566 C44.6330424,3.58768928 43.2464938,2.20856678 41.4250867,1.32471164 C39.6032512,0.441284924 37.5516333,0 35.2683766,0 C33.8813995,0 32.6586546,0.502836316 31.5985711,1.50893738 C30.4299516,2.65042295 29.5872259,4.11865929 29.0709654,5.91278955 C28.5544192,7.70634857 28.1396971,9.42593166 27.8273702,11.0705392 C27.5150433,12.7150039 27.0320576,13.8770542 26.3799842,14.5565473 C25.0477036,15.9972211 23.5936055,17.737369 22.0169759,19.7758483 C19.2715838,23.3364035 17.4093329,25.4432891 16.4312227,26.0959338 L5.2594308,26.0959338 C3.81875692,26.0959338 2.58858593,26.6063391 1.56920348,27.6248647 C0.550249454,28.6443899 0.0404154154,29.8744181 0.0404154154,31.3152348 L0.0404154154,57.4100261 C0.0404154154,58.8508428 0.549678211,60.0804426 1.56920348,61.0999678 C2.58915718,62.1194931 3.81875692,62.6296128 5.2594308,62.6296128 L17.0014657,62.6296128 C17.5995567,62.6296128 19.4748034,63.1731501 22.6280627,64.2605104 C25.9716885,65.4295585 28.9141593,66.3195545 31.4554749,66.9313553 C33.9970761,67.5431562 36.5726663,67.8491994 39.1823882,67.8491994 L42.973297,67.8491994 L44.4419618,67.8491994 C48.2744285,67.8491994 51.3594243,66.7544129 53.6973775,64.5659824 C56.0344739,62.377552 57.1902405,59.3943802 57.1633921,55.6160387 C58.7942898,53.5228629 59.6095958,51.1036504 59.6095958,48.358544 C59.6095958,47.7608814 59.569466,47.1765002 59.4874927,46.6051148 C60.5200138,44.7845645 61.0375596,42.8273445 61.0375596,40.7341688 C61.0371311,39.7554873 60.915028,38.8172213 60.6701078,37.9207988 Z M9.7038412,56.6358496 C9.18743787,57.1519673 8.57592264,57.4110258 7.86915271,57.4110258 C7.16223997,57.4110258 6.55058193,57.1521101 6.0340358,56.6358496 C5.51777528,56.1198747 5.2594308,55.5080738 5.2594308,54.8007326 C5.2594308,54.0941055 5.51720404,53.4827331 6.0340358,52.9660442 C6.55115318,52.449498 7.16223997,52.1912964 7.86915271,52.1912964 C8.57592264,52.1912964 9.18743787,52.449498 9.7038412,52.9660442 C10.2203873,53.4825903 10.4787318,54.0939627 10.4787318,54.8007326 C10.4787318,55.5080738 10.2203873,56.1198747 9.7038412,56.6358496 Z M56.5737269,34.6200162 C55.9892029,35.8701807 55.2618683,36.5089727 54.3921514,36.5358211 C54.799733,36.9980992 55.1397651,37.6443174 55.4116766,38.4726192 C55.6833025,39.3019207 55.8182586,40.055961 55.8182586,40.7358825 C55.8182586,42.6105579 55.0989213,44.228317 53.6581046,45.5870176 C54.1479451,46.4564489 54.3922942,47.3947149 54.3922942,48.3999591 C54.3922942,49.4057745 54.1548001,50.4047351 53.6788121,51.3966979 C53.2036811,52.3878038 52.5576057,53.1015715 51.7424425,53.5362871 C51.8782554,54.3515931 51.945662,55.1129167 51.945662,55.8195439 C51.945662,60.3587805 49.3359401,62.6284703 44.1163535,62.6284703 L39.1842447,62.6284703 C35.622547,62.6284703 30.9750598,61.6369359 25.2390699,59.6521534 C25.1029713,59.5978854 24.7093852,59.4546463 24.0565976,59.2240071 C23.4038101,58.9933679 22.9215386,58.8232804 22.6087832,58.7148871 C22.2960279,58.6053513 21.820754,58.4491165 21.1815335,58.2457541 C20.5424559,58.041392 20.0266238,57.8917265 19.6321807,57.797043 C19.238309,57.7022167 18.7894551,57.6138169 18.2870472,57.5321292 C17.7843537,57.4505844 17.3560645,57.4100261 17.002751,57.4100261 L15.6980328,57.4100261 L15.6980328,31.3162345 L17.002751,31.3162345 C17.4376094,31.3162345 17.9200238,31.1935601 18.450137,30.9494967 C18.9801073,30.7047193 19.5240731,30.3378387 20.0811774,29.8484266 C20.6385674,29.3590145 21.1613972,28.8766001 21.6509522,28.4006122 C22.1403643,27.9250527 22.6839016,27.3271045 23.2821355,26.6070531 C23.8800837,25.8864306 24.3489311,25.3090471 24.6889632,24.8740458 C25.028567,24.4391874 25.4565705,23.8816546 25.9731166,23.2021615 C26.4893772,22.5228112 26.8022753,22.114944 26.9109542,21.9788454 C28.4057533,20.1307327 29.4522698,18.8939925 30.050218,18.2684818 C31.1647124,17.100005 31.9733063,15.6117752 32.4761426,13.8040779 C32.9795502,11.996095 33.3939867,10.2903646 33.7190238,8.68688652 C34.0449177,7.08326568 34.5620351,5.92764186 35.2696618,5.22087193 C37.8785269,5.22087193 39.6186747,5.85937836 40.4882488,7.13710529 C41.3576801,8.4145466 41.7926813,10.3854765 41.7926813,13.0493236 C41.7926813,14.6529444 41.139751,16.8342344 39.8347472,19.5930506 C38.5303147,22.3521525 37.8785269,24.5200182 37.8785269,26.096505 L52.2302837,26.096505 C53.5908408,26.096505 54.7998758,26.6194777 55.8595308,27.6665654 C56.9200428,28.7129391 57.45087,29.9291146 57.45087,31.3158061 C57.4504415,32.2670678 57.1581081,33.368138 56.5737269,34.6200162 Z" id="Shape"></path>
                        </g>
                    </g>
                </g>
            </g>
        </g>
    </g>
</svg>