<?xml version="1.0" standalone="no"?>
<!DOCTYPE svg PUBLIC "-//W3C//DTD SVG 1.1//EN" "http://www.w3.org/Graphics/SVG/1.1/DTD/svg11.dtd" >
<svg xmlns="http://www.w3.org/2000/svg" xmlns:xlink="http://www.w3.org/1999/xlink" version="1.1">
<metadata>
Created by FontForge 20170731 at Sat Jun 15 01:42:02 2019
 By Aleksey,,,
Copyright (c) 2019 by Vultype Co. All rights reserved.
</metadata>
<defs>
<font id="TheBredan" horiz-adv-x="469" >
  <font-face 
    font-family="The Bredan"
    font-weight="400"
    font-stretch="normal"
    units-per-em="1000"
    panose-1="0 0 0 0 0 0 0 0 0 0"
    ascent="800"
    descent="-200"
    x-height="366"
    cap-height="584"
    bbox="-313 -316 758 899.667"
    underline-thickness="0"
    underline-position="0"
    unicode-range="U+000A-FB00"
  />
<missing-glyph horiz-adv-x="254" 
 />
    <glyph glyph-name=".notdef" horiz-adv-x="254" 
 />
    <glyph glyph-name=".null" horiz-adv-x="0" 
 />
    <glyph glyph-name=".null" horiz-adv-x="0" 
 />
    <glyph glyph-name="nonmarkingreturn" horiz-adv-x="333" 
 />
    <glyph glyph-name="controlLF" unicode="&#xa;" horiz-adv-x="0" 
 />
    <glyph glyph-name="controlCR" unicode="&#xd;" horiz-adv-x="0" 
 />
    <glyph glyph-name="space" unicode=" " horiz-adv-x="254" 
 />
    <glyph glyph-name="exclam" unicode="!" horiz-adv-x="193" 
d="M222 498h2q-49 -102 -95 -242t-65.5 -238.5t-0.5 -98.5q-3 0 -7.5 1.5t-15.5 7t-20 13t-16 21.5t-7 32q0 41 85.5 290t99.5 272l11 -5.5t18 -18t11 -34.5zM-10 -110l1 -2q6 -1 15.5 -2.5t24 -11.5t11.5 -26q-4 -26 -46 -27q-26 0 -24 7q12 22 18 62z" />
    <glyph glyph-name="quotedbl" unicode="&#x22;" horiz-adv-x="286" 
d="M57 596h-1q20 18 56 -10q27 -20 22 -30q-2 -4 -9 -4q-8 0 -22.5 -27t-24.5 -55l-11 -27q-24 3 -34 23.5t-7.5 46t11.5 49t20 34.5zM187 596h-1q20 18 56 -10q27 -20 22 -30q-2 -4 -9 -4q-8 0 -22.5 -27t-24.5 -55l-11 -27q-24 3 -34 23.5t-7.5 46t11.5 49t20 34.5z" />
    <glyph glyph-name="numbersign" unicode="#" horiz-adv-x="360" 
d="M319 289l-2 -4q42 -3 55 -16q18 -18 13 -31q-1 -2 -3 -2q-15 15 -77 13q-5 -14 -25 -77q47 -3 61 -17q18 -18 13 -31q-1 -2 -3 -2q-15 15 -81 13q-33 -110 -45 -182.5t3 -76.5q-3 0 -7.5 1.5t-15.5 7t-20 13t-16 21.5t-7 32q0 30 49 180q-53 -6 -101 -18
q-29 -101 -39 -167.5t4 -69.5q-3 0 -7.5 1.5t-15.5 7t-20 13t-16 21.5t-7 32q0 28 37 142q-51 -20 -61 -41v-3.5t-1 -4t-5 -1.5q-20 63 3 86q9 9 83 24q6 18 18 56q-56 -21 -66 -44v-3.5t-1 -4t-5 -1.5q-20 63 3 86q11 11 90 26q78 224 92 247l11 -5.5t18 -18t11 -34.5
q-35 -72 -74 -178q59 9 101 10q74 211 86 228l11 -5.5t18 -18t11 -34.5q-35 -74 -70 -170zM223 172l1 -1q4 12 12 36.5t12 36.5q-55 -6 -104 -18q-14 -44 -21 -65q53 8 100 11z" />
    <glyph glyph-name="dollar" unicode="$" horiz-adv-x="329" 
d="M297 448v-2q62 -3 62 -75q0 -47 -34.5 -76t-55.5 -29q-32 0 -32 23q35 0 54.5 33.5t18.5 72.5q-16 -3 -43 -14q-49 -116 -88 -251q25 -12 49 -32q17 -7 17 -78q0 -27 -33 -48.5t-79 -33.5q-10 -62 2 -68q-9 2 -19 6.5t-24.5 18.5t-18.5 34q-22 0 -40.5 8t-29.5 18.5
t-19 21.5t-11 19l-3 7q29 -16 99 -17h10q8 36 28 100h-26q-32 0 -52.5 30.5t-25 53.5t-4.5 32h1q0 48 75.5 126t152.5 107q24 65 29 71l11 -5.5t18 -18t11 -34.5zM205 65q-9 9 -40 15q-11 -40 -18 -75q19 10 33.5 25t19.5 25zM127 144l-1 -1q25 75 69 199
q-139 -82 -154 -154q11 -44 74 -44h12z" />
    <glyph glyph-name="percent" unicode="%" horiz-adv-x="470" 
d="M102 446h1q14 0 35.5 -8t44 -33t20.5 -61q-6 -118 -102 -193q-10 -9 -25 -9q-44 -7 -76 25q-24 24 -27 72.5t11 95t44 81t64 32.5q4 0 10 -2zM45 169l2 -1q42 3 74.5 56.5t35.5 120.5q2 58 -40 82q-11 -4 -23.5 -14t-29.5 -30t-29.5 -57t-14.5 -85q-3 -41 25 -72z
M403 222h1q14 0 35.5 -8t44 -33t20.5 -61q-6 -118 -102 -193q-10 -9 -25 -9q-44 -7 -76 25q-24 24 -27 72.5t11 95t44 81t64 32.5q4 0 10 -2zM346 -55l2 -1q42 3 74.5 56.5t35.5 120.5q2 58 -40 82q-11 -4 -23.5 -14t-29.5 -30t-29.5 -57t-14.5 -85q-3 -41 25 -72zM363 446
l2 -1q-49 -102 -95 -242t-65.5 -238.5t-0.5 -98.5q-3 1 -7.5 2t-15.5 6.5t-20 13.5t-16 22t-7 32q0 41 85.5 290t99.5 272l11 -5.5t18 -18t11 -34.5z" />
    <glyph glyph-name="ampersand" unicode="&#x26;" horiz-adv-x="341" 
d="M350 514l2 1q17 -28 19 -78q2 -40 -5 -71v-3q-12 -46 -81 -115q-46 -47 -118 -107q25 -68 69 -149q14 12 26.5 26.5t18.5 22.5l6 8q2 -8 4 -21t-1 -44.5t-19 -53.5l18 -29l-53 -30q-6 -4 -23 21q-4 -2 -6 -2q-86 -21 -160.5 4.5t-74.5 72.5q-1 5 -2 14t3 35.5t15 51
t41 55t74 53.5q-13 67 -12 117q2 87 33 157q29 63 74 96q26 19 54 24t57 -12q7 -5 19 -17q14 -15 22 -27zM181 -46l-1 -1q-33 68 -58 151q0 -2 -10.5 -10t-23.5 -17.5t-14 -10.5q-29 -23 -35 -41t4 -49q6 -17 14 -24t26 -9q29 -5 57 0q4 0 23 4.5t18 6.5zM259 298h1
q73 61 70 213q-47 27 -113 -19.5t-81 -153.5q-7 -54 11 -128z" />
    <glyph glyph-name="quotesingle" unicode="'" horiz-adv-x="145" 
d="M57 596h-1q20 18 56 -10q27 -20 22 -30q-2 -4 -9 -4q-8 0 -22.5 -27t-24.5 -55l-11 -27q-24 3 -34 23.5t-7.5 46t11.5 49t20 34.5z" />
    <glyph glyph-name="parenleft" unicode="(" horiz-adv-x="125" 
d="M155 453l-2 1q-34 -18 -69 -86q-52 -101 -50 -259q2 -130 38 -172q19 -22 42 -6q1 -2 0 -5.5t-16 -8.5t-44 -4q-30 1 -51.5 66t-28.5 134t-2 101q12 87 40.5 152.5t55 92t45.5 25.5z" />
    <glyph glyph-name="parenright" unicode=")" horiz-adv-x="113" 
d="M31 479l-2 1q19 -1 42.5 -30.5t45 -97.5t24.5 -156q1 -23 -7.5 -70t-23 -97.5t-37 -88t-45.5 -36.5q-60 4 -58 23q37 -31 68 44q37 91 34 228q-2 95 -27 160q-12 32 -27 55t-24 30l-9 8z" />
    <glyph glyph-name="asterisk" unicode="*" horiz-adv-x="256" 
d="M277 259l-2 5q6 -7 7.5 -14.5t0.5 -11.5t-4 -3q-17 21 -119 23q64 -73 60 -99q-1 -9 -5 -15.5t-7.5 -7.5t-5.5 0q2 14 -22.5 47.5t-62.5 69.5q-87 -95 -79 -133q0 -1 1.5 -3t1.5 -3t-2 -4q-5 3 -12 9t-18.5 21t-9.5 27q2 16 67 83q-76 -10 -90 -33v-3q-1 -2 -2 -2.5
t-4 -0.5q-9 53 12 69q12 8 91 10q-66 54 -95 47q-1 0 -3 -1.5t-3 -1.5t-4 2q3 5 9 12t21 18.5t27 9.5q18 -2 93 -77q74 65 101 61q9 -1 15.5 -5t7.5 -7.5t0 -5.5q-24 3 -87 -55q105 -6 122 -28z" />
    <glyph glyph-name="plus" unicode="+" horiz-adv-x="328" 
d="M346 277l-2 -2q17 -20 11 -32q-2 -2 -4 -2q-24 29 -175 16q2 -142 39 -168q1 -1 3 -1t3 -0.5t2 -2t1 -4.5q-65 -9 -84 18q-12 20 -7 153q-131 -18 -151 -55q-1 -1 -1 -3q-1 -6 -7 -5q-16 64 9 85q18 16 153 25q11 141 42 162q22 16 34 8q2 -2 1 -4q-31 -22 -35 -164
q144 4 168 -24z" />
    <glyph glyph-name="comma" unicode="," horiz-adv-x="110" 
d="M33 41l-1 -1q6 -2 13.5 -6.5t17.5 -20t2 -33.5q-12 -31 -38.5 -37.5t-55.5 11.5q12 6 27.5 27.5t25.5 40.5z" />
    <glyph glyph-name="hyphen" unicode="-" horiz-adv-x="326" 
d="M342 386l-2 -1q18 -18 13 -31q-1 -2 -3 -2q-13 15 -68.5 13t-117.5 -11.5t-116 -30t-64 -42.5v-3.5t-1 -4t-5 -1.5q-20 63 3 86q11 11 93 26t159.5 18.5t108.5 -16.5z" />
    <glyph glyph-name="period" unicode="." horiz-adv-x="135" 
d="M51 101l1 -2q6 -1 15.5 -2.5t24 -11.5t11.5 -26q-4 -26 -46 -27q-26 0 -24 7q12 22 18 62z" />
    <glyph glyph-name="slash" unicode="/" horiz-adv-x="292" 
d="M242 577h2q-49 -102 -95 -242t-65.5 -238.5t-0.5 -98.5q-3 0 -7.5 1.5t-15.5 7t-20 13t-16 21.5t-7 32q0 41 85.5 290t99.5 272l11 -5.5t18 -18t11 -34.5z" />
    <glyph glyph-name="zero" unicode="0" horiz-adv-x="333" 
d="M308 553h1q54 -51 54 -134q0 -234 -164 -398q-17 -17 -39 -18h-2q-74 -18 -131 39q-38 38 -51 112.5t-1.5 156.5t40.5 153q28 69 67 107t80 38q6 0 18 -2l2 -1h2q18 1 55.5 -12t68.5 -41zM105 34q83 11 138.5 129t55.5 255q0 34 -8.5 64t-19 47.5t-24 32.5t-20.5 20
t-13 8l-5 3l-5 -2q-13 -7 -28.5 -18t-41.5 -42.5t-46 -72.5t-35 -112t-15 -156q0 -87 57 -153l4 -4z" />
    <glyph glyph-name="one" unicode="1" horiz-adv-x="297" 
d="M274 492l-1 2l-3 -9q-65 -157 -110 -361t-21 -216q-10 2 -22.5 7t-28 22.5t-16.5 42.5q-1 33 45 198.5t90 299.5q-66 -2 -98.5 2.5t-51.5 22.5q-14 13 -19 23.5t-6 37.5q0 4 2.5 7t7.5 0q26 -25 68 -31.5t116 -4.5q18 0 27 1q20 -18 21 -44z" />
    <glyph glyph-name="two" unicode="2" horiz-adv-x="427" 
d="M331 -77q0 2 -1 5zM287 -10l-1 1q31 -5 43 -63q-9 17 -50 17q-89 0 -166 -9.5t-110 -18.5l-33 -9q-6 33 8 54q8 20 24 36q3 3 26.5 25t54.5 52t60 62l52 61q131 162 160 308q-15 13 -46 13q-18 0 -53.5 -11t-74.5 -30t-68 -48.5t-29 -61.5q-26 17 -26 70q0 39 57.5 78
t122.5 60t100 21q30 0 42 -12q22 -27 22 -146q0 -97 -155 -266q-30 -36 -82 -96.5t-68 -80.5q96 9 190 -6z" />
    <glyph glyph-name="three" unicode="3" horiz-adv-x="409" 
d="M246 278l1 -2q26 -5 49 -19t37 -31t24 -33t14 -27l4 -10q0 -25 -25 -64t-64 -76t-94 -63.5t-108 -26.5q-36 0 -61 8t-35 21.5t-14 24t-4 21.5t4 18t8 9l4 1q3 -4 10 -10t33.5 -16t60.5 -10q29 0 64.5 17t65.5 41t56.5 48t41.5 41l15 17h2q0 19 -48 40.5t-96.5 26
t-73.5 -12.5q-23 23 -18 62q9 1 25 3q68 23 153.5 118t67.5 132q-10 2 -18 2q-42 0 -132.5 -20.5t-90.5 -42.5q-8 31 -8 53q0 17 74 42t128 25q56 0 71 -57q17 -15 17 -63q0 -30 -31.5 -73.5t-57 -68t-51.5 -45.5z" />
    <glyph glyph-name="four" unicode="4" horiz-adv-x="439" 
d="M468 501l1 -2q-196 -359 -226 -448q-13 -40 -17.5 -75.5t-1.5 -51.5l2 -16l-54 14q-15 1 0 77q12 63 84 210q-40 10 -103 1q-32 -5 -72.5 -20.5t-64.5 -28.5l-25 -13q0 2 1 6q-35 35 -15 55q16 16 123.5 193.5t109.5 191.5q1 0 3 -1t6.5 -6t7.5 -12.5t6 -22.5t3 -34
q0 -34 -160 -256q59 15 192 -22q51 102 156 291q34 0 44 -30z" />
    <glyph glyph-name="five" unicode="5" horiz-adv-x="350" 
d="M220 508v-1q-24 -54 -58 -124q-21 -43 -92 -169q59 34 113 34q36 0 67.5 -15t32.5 -39h6q17 -17 20 -52.5t-10.5 -76.5t-39 -79t-71.5 -63t-102 -25q-38 0 -57 14t-19 28v13q77 0 145 39t92 94q18 39 14 73q-40 36 -96.5 23.5t-100 -36t-52.5 -35.5q-23 -12 -42 35l24 42
q15 27 94 187t89 181q1 5 12.5 8.5t30.5 5t37.5 2t40.5 1t31 0.5q30 2 45.5 -26.5t-4.5 -48.5q-33 33 -150 10z" />
    <glyph glyph-name="six" unicode="6" horiz-adv-x="229" 
d="M259 522l1 1q-17 0 -68.5 -67.5t-89.5 -149.5q36 14 77 -23t41 -78q3 -15 3 -42.5t-3 -65t-13.5 -75t-26.5 -70t-45 -53t-67 -20.5q-17 -3 -37 4q-8 3 -13 6q-46 26 -46 103q0 231 120 417q36 56 68.5 93.5t47.5 46.5l14 9q27 -4 37 -36zM161 244l1 -2q-51 3 -91 -21
q-11 -31 -15 -63q-17 -114 1 -227q47 8 70 46.5t43 128.5q8 35 10 62t0 40.5t-6.5 22.5t-7.5 10.5z" />
    <glyph glyph-name="seven" unicode="7" horiz-adv-x="338" 
d="M354 526v-1q19 -19 14 -32q-1 -3 -4 -3q-5 5 -17 8q3 -8 3 -18q-51 -106 -98 -250t-67 -245.5t-1 -101.5q-3 1 -7.5 2t-16 7t-20.5 13.5t-16.5 22.5t-7.5 33q0 37 64.5 229.5t111.5 313.5q-86 0 -189 -26t-118 -60v-3.5t-1 -4t-5 -1.5q-21 65 3 89q14 14 135 33t190 11h2
q34 -5 45 -16z" />
    <glyph glyph-name="eight" unicode="8" horiz-adv-x="310" 
d="M224 229l1 -1q-18 -4 -29.5 -1.5t-15.5 7.5l-5 6q35 48 83.5 141.5t44.5 137.5q-56 42 -128 -9q-131 -92 -121 -185q6 -53 90 -116q54 -4 92 -53t25 -118q-8 -45 -38.5 -78.5t-67.5 -48.5t-64.5 -21.5t-43.5 -6.5q-9 6 -21.5 17.5t-34 44t-21.5 61.5q0 47 42 113.5
t69 72.5l6 3q-34 24 -71 72.5t-37 91.5q0 58 87 149t151 91q86 0 106 -84q27 -35 6 -123q-14 -59 -45.5 -107t-59.5 -56zM153 155h-1q-9 -5 -23 -14.5t-44 -41.5t-44 -68q-21 -51 -9 -106q38 -12 96.5 28.5t77.5 98.5q12 37 -2.5 60.5t-50.5 43.5v-1z" />
    <glyph glyph-name="nine" unicode="9" horiz-adv-x="403" 
d="M340 405l1 -1q14 -29 14 -150q0 -67 -36 -148.5t-101 -143t-135 -61.5q-30 0 -47 18t-20 36l-2 18q17 -9 64 -9q52 0 94.5 34t67.5 87.5t38 92.5t20 75q-40 -68 -88.5 -112t-92.5 -36q-4 2 -10.5 7t-23.5 22t-30 37t-23.5 52.5t-10.5 67.5q0 48 17.5 90.5t43.5 70.5
t55.5 49.5t53.5 31.5t38 11q26 2 44 -7.5t25.5 -27t9.5 -32.5t2 -31q23 -15 32 -41zM251 252l2 -2q61 85 50 197v1q-15 32 -54 32q-50 -1 -113.5 -62.5t-63.5 -131.5q0 -41 24 -117q36 -2 78.5 16.5t76.5 66.5z" />
    <glyph glyph-name="colon" unicode=":" horiz-adv-x="129" 
d="M51 191l1 -2q6 -1 15.5 -2.5t24 -11.5t11.5 -26q-4 -26 -46 -27q-26 0 -24 7q12 22 18 62zM25 41l1 -2q6 -1 15.5 -2.5t24 -11.5t11.5 -26q-4 -26 -46 -27q-26 0 -24 7q12 22 18 62z" />
    <glyph glyph-name="semicolon" unicode=";" horiz-adv-x="73" 
d="M51 191l1 -2q6 -1 15.5 -2.5t24 -11.5t11.5 -26q-4 -26 -46 -27q-26 0 -24 7q12 22 18 62zM33 41l-1 -1q6 -2 13.5 -6.5t17.5 -20t2 -33.5q-12 -31 -38.5 -37.5t-55.5 11.5q12 6 27.5 27.5t25.5 40.5z" />
    <glyph glyph-name="less" unicode="&#x3c;" horiz-adv-x="255" 
d="M57 80v1q78 -8 148 -23.5t79 -36.5q-68 3 -138 2t-123 -4l-53 -3l6 12v55q20 8 134 121.5t124 133.5q17 -29 17 -76q0 -36 -194 -182z" />
    <glyph glyph-name="equal" unicode="=" horiz-adv-x="486" 
d="M433 389l-2 -1q18 -18 13 -31q-1 -2 -3 -2q-13 15 -68.5 13t-117.5 -11.5t-116 -30t-64 -42.5v-3.5t-1 -4t-5 -1.5q-20 63 3 86q11 11 93 26t159.5 18.5t108.5 -16.5zM433 244l-2 -1q18 -18 13 -31q-1 -2 -3 -2q-13 15 -68.5 13t-117.5 -11.5t-116 -30t-64 -42.5v-3.5
t-1 -4t-5 -1.5q-20 63 3 86q11 11 93 26t159.5 18.5t108.5 -16.5z" />
    <glyph glyph-name="greater" unicode="&#x3e;" horiz-adv-x="299" 
d="M31 -36v1q4 41 194 134q-232 72 -244 105q-7 20 -9.5 39t-1.5 29l2 9q16 -16 162 -83.5t167 -68.5q6 -17 12 -33.5t7 -19.5l9 -10q-181 -51 -298 -102z" />
    <glyph glyph-name="question" unicode="?" horiz-adv-x="289" 
d="M63 -77l1 -2q6 -1 15.5 -2.5t24 -11.5t11.5 -26q-4 -26 -46 -27q-26 0 -24 7q12 22 18 62zM275 441l-2 -2q46 -38 46 -108q0 -26 -15.5 -51.5t-35 -43.5t-49 -45.5t-46.5 -48.5q-26 -32 -40.5 -82.5t-16.5 -85.5l-1 -34q-23 0 -35 30q1 10 4 97q2 57 58 131.5t106 116.5
q31 26 37 74q-14 17 -51 18.5t-79.5 -12t-80 -34.5t-55.5 -51.5t-4 -59.5q5 -10 -2 -10q-14 1 -28 27q-13 26 -13 58q0 33 73.5 90t131.5 57q74 0 98 -31z" />
    <glyph glyph-name="at" unicode="@" horiz-adv-x="305" 
d="M281 170v-2q20 -5 26 -26q7 -23 -4.5 -54t-36.5 -56t-67 -45.5t-85 -20.5q-12 0 -18 1q-63 8 -83 47q-3 4 -6 9.5t-10.5 20.5t-12.5 32.5t-9.5 39.5t-4 49t6.5 54q22 97 97.5 162.5t131.5 65.5q65 0 94 -50v1l4 -7q2 -1 4 -8q26 -52 26 -87q0 -26 -16.5 -58.5
t-42.5 -55.5q-31 -29 -58 -26q-20 2 -23 29q-25 -13 -81 -91l-12 -15l-2 -2l-13 11q-17 12 -17 38q0 11 5 39t15.5 65t31.5 64.5t48 27.5q28 0 44 -28l1 3l1 1l28 4l-1 -4q-35 -92 -23 -111q1 -3 4 -3q28 0 51 57.5t28 112.5q-44 47 -87 47h-3q-116 -5 -167 -136
q-26 -67 -23 -139.5t33 -102.5q25 -17 56 -17q59 0 113 52.5t54 109.5v3zM197 229h-1q4 21 12 46h-19q-31 0 -53 -39.5t-24 -95.5q18 24 46 53t39 36z" />
    <glyph glyph-name="A" unicode="A" horiz-adv-x="480" 
d="M399 -78l-3 -1q2 -3 4.5 -6.5t3.5 -4.5l-3 -4h-8.5t-9.5 0.5t-10 1t-11 2t-10 3.5t-9.5 5.5t-7.5 8.5t-6.5 11t-4 14.5t-1.5 18.5q0 29 33 175q-45 7 -121 1q-143 -192 -172 -219q-17 -15 -40 -16.5t-38.5 7t-15.5 19.5q1 2 5.5 0.5t13.5 1t16 9.5q40 40 149 186
q-104 -21 -121 -52v-3q-1 -3 -2 -4.5t-5 -1.5q-16 62 8 83q18 16 157 27q172 235 249 355q-69 -1 -158 -33.5t-164.5 -94.5t-86.5 -133q-1 -4 1.5 -11t2.5 -10q-1 -16 -28 8q-33 29 -32 50q2 30 40.5 76.5t100 93t153.5 77.5t184 26q9 0 14 -1q3 -1 7 -2l53 -11
q-16 -14 -53.5 -162t-63 -304t-10.5 -186zM265 187q67 0 98 -10q25 111 54 229q-57 -89 -152 -219z" />
    <glyph glyph-name="B" unicode="B" horiz-adv-x="456" 
d="M351 260l-1 -5q54 -15 54 -90q0 -105 -95.5 -185t-209.5 -80q-42 0 -70 26.5t-28 54.5l3 27q1 -6 8 -14q25 -29 101 -29q95 0 175 83q59 62 64 117q4 46 -41 46q-35 0 -112 -20q-35 -108 -35 -152q-14 0 -33 11t-19 27q0 64 69.5 242t105.5 194q23 11 48 -10
q12 -10 7 -15q-57 -56 -122 -235q86 17 145 99q53 74 42 136q-11 65 -90 65q-67 0 -157.5 -36.5t-166.5 -106t-84 -146.5q0 -3 2.5 -9t2.5 -8q0 -15 -28 8q-33 29 -34 50q0 30 36.5 78.5t95.5 98t149 85.5t182 36q80 0 118 -39.5t33 -94.5t-36 -113t-79 -96z" />
    <glyph glyph-name="C" unicode="C" horiz-adv-x="375" 
d="M253 332q68 0 98.5 44t30.5 111q0 49 -41 70q-73 -4 -166 -137q-89 -128 -127 -267q-39 -140 16 -168q11 -6 26 -6q37 0 79 17.5t75.5 42.5t62 50t44.5 43l16 17l24 -4q-7 -10 -19.5 -27t-50.5 -59t-75 -73t-87 -53.5t-92 -15.5q-96 15 -98 147q-2 128 78 288
q78 155 175 220q49 33 95 33q82 0 111 -80.5t-12 -161.5t-128 -81q-19 0 -32 6.5t-18 16t-7.5 19t-2 16t1.5 6.5q2 0 8 -7t15 -7zM349 557h1l17 -3q-9 3 -18 3z" />
    <glyph glyph-name="D" unicode="D" horiz-adv-x="466" 
d="M296 437v-2q-54 -53 -116 -217t-62 -230q-14 0 -33 11t-19 27q0 64 69.5 242t105.5 194q23 11 48 -10q12 -10 7 -15zM325 611v1q110 0 138.5 -107.5t-31.5 -259.5q-64 -160 -183 -256q-88 -70 -184 -83q-15 -1 -28 0t-21.5 17t-8.5 49q0 4 3 4q1 -1 5 -4t8 -5.5t7 -2.5
q153 0 266 148q87 114 109 253q20 122 -26 169q-21 20 -50 20q-87 0 -183 -45t-160 -112t-64 -126q0 -3 1.5 -11t1.5 -11q0 -16 -27 5q-33 28 -35 50q0 23 22 60.5t65 80t98 80t128.5 62t148.5 24.5z" />
    <glyph glyph-name="E" unicode="E" horiz-adv-x="420" 
d="M301 439l-1 -1q26 0 71 38.5t40 56.5v-3q-8 6 -31 6q-101 0 -177 -64q-63 -52 -59 -104q5 -60 102 -74q27 -4 59 -4q18 -27 5 -62q-14 -6 -21 -8q-19 -8 -37.5 -16t-48 -21.5t-54 -27.5t-51.5 -31.5t-44.5 -35.5t-28.5 -36.5t-8.5 -37.5t19.5 -36q42 -20 78 -21
q52 -1 104 26.5t87 62.5q8 8 8.5 18.5t1.5 11.5q2 3 14 -12t13.5 -36t-24.5 -51q-23 -23 -90 -51t-130 -26q-45 2 -71 25q-59 38 -56 134q1 27 37 63t80.5 65.5t95.5 56.5q-41 26 -67.5 67.5t-24.5 74.5q0 45 46 95.5t118.5 84.5t140.5 32q4 0 8 -2q11 0 28.5 -20t16.5 -49
q-1 -26 -42.5 -82.5t-77.5 -56.5q-16 0 -28.5 15t-17.5 29.5t-4 14.5q13 -8 21 -8z" />
    <glyph glyph-name="F" unicode="F" horiz-adv-x="281" 
d="M187 254l-1 4q50 3 64 -8q7 -6 10.5 -12.5t3 -10.5t-3.5 -4q-16 13 -86 3q-81 -227 -83 -315q0 -1 1 -4t1.5 -5.5t-0.5 -4.5q-22 0 -39 10.5t-17 27.5q0 57 73 276q-136 -35 -150 -75v-3q0 -4 -3 -5q-1 -1 -2 -1q-1 2 -2 5.5t-4 13.5t-4 18.5t0.5 18.5t6.5 16
q7 8 61 23.5t111 24.5q90 269 85 307q-44 9 -115.5 -12t-139.5 -61.5t-117 -103.5t-49 -128q0 -1 2.5 -4t2.5 -4q0 -14 -28 7q-35 28 -35 49q0 24 23 62.5t67.5 82t101 81.5t132 63.5t152.5 25.5q26 0 41 -12.5t16.5 -40.5t-1 -55t-17 -75.5t-26 -82t-32.5 -92.5z" />
    <glyph glyph-name="G" unicode="G" horiz-adv-x="446" 
d="M387 582h-3q112 -24 83 -161q-16 -76 -64.5 -111t-93.5 -32q-26 2 -37.5 17.5t-9.5 30.5l1 14q2 0 8 -5.5t12 -6.5q31 -2 58 12.5t43 37t25 42.5t11 34q8 52 -20 80q-77 5 -182 -119q-93 -108 -136 -224q-42 -113 8 -132q4 -1 9 -2q32 -5 71.5 6t72 30t60.5 39t44 34
l16 15q2 0 4.5 -0.5t9.5 -4t12 -9t8 -16t1 -24.5q-2 -15 -6.5 -35t-17 -54t-29 -66t-44.5 -65.5t-62 -57.5t-84 -38t-108 -10q-35 2 -54.5 17.5t-22 35t1.5 37t13 25.5q3 3 5 0.5t4.5 -9t5.5 -9.5q11 -12 31 -17.5t69 -8.5q41 -3 78 14.5t63 44t48.5 63.5t35.5 68t24 63
q-171 -154 -277 -120q-88 28 -65 156q21 120 118 249q96 128 192 163q38 14 70 9z" />
    <glyph glyph-name="H" unicode="H" horiz-adv-x="413" 
d="M427 564h1q14 5 28 0.5t23 -13t4 -13.5q-59 -57 -146 -337q6 -4 8 -6q18 -18 13 -31q-1 -2 -3 -2q-7 7 -26 10q-51 -168 -51 -219q-14 0 -33 11t-19 27q0 40 43 184q-78 -3 -157 -23q-52 -150 -53 -227q0 -1 1 -4t1.5 -5.5t-0.5 -4.5q-22 0 -38.5 10.5t-16.5 27.5
q0 47 42 183q-51 -20 -61 -41v-3.5t-1 -4t-5 -1.5q-20 63 3 86q10 10 83 23q9 28 29.5 88.5t30.5 92.5t23 74.5t17.5 68t3.5 39.5q-52 -1 -120.5 -23.5t-134.5 -59.5t-111 -94t-45 -119q0 -1 2.5 -4t2.5 -4q0 -13 -27 8q-33 27 -34 48q0 30 36.5 78.5t95.5 98t149 85.5
t182 36q76 0 52 -122q-12 -59 -80 -250q-6 -16 -11 -29q94 13 151 10q41 130 84 236t64 115z" />
    <glyph glyph-name="I" unicode="I" horiz-adv-x="238" 
d="M210 584l-1 -1q49 0 56.5 -48t-17.5 -128.5t-57 -166.5t-61 -181t-30 -154q0 -1 1 -4t1.5 -5.5t-0.5 -4.5q-22 0 -38.5 10.5t-16.5 27.5q0 48 43.5 183.5t85 262t37.5 158.5q-52 -1 -120.5 -23.5t-134 -59t-110.5 -93.5t-45 -119q0 -1 2.5 -4t2.5 -4q0 -13 -27 8
q-33 27 -34 48q0 30 36.5 78.5t95.5 98t149 85.5t182 36z" />
    <glyph glyph-name="J" unicode="J" horiz-adv-x="457" 
d="M462 517l4 3q8 -33 4 -79q-3 -39 -10 -81t-21.5 -94t-34.5 -99t-52 -92.5t-71 -78.5t-93 -53.5t-117 -20.5q-46 0 -70.5 32t-24.5 55q-3 9 -3 21q0 56 108 133.5t164 80.5q20 1 31.5 -23t5.5 -31q-2 0 -10 1.5t-15 1.5q-40 0 -105 -42.5t-106 -94.5t-22 -75
q29 -11 58 -11q63 0 119.5 35.5t96 90.5t68.5 122.5t42 131t11 116.5t-20 78q-12 2 -19 2q-98 7 -186.5 -76.5t-109.5 -175.5q-1 -5 0.5 -14t1.5 -13q-2 -6 -15 1t-25 28t-10 49q2 27 30 70.5t71 87t104.5 72.5t121.5 25q39 -3 63.5 -23.5t29.5 -40.5z" />
    <glyph glyph-name="K" unicode="K" horiz-adv-x="331" 
d="M503 551l-3 -3q24 2 37.5 -10.5t16.5 -25.5t1 -21q-3 4 -8 5q-5 2 -14 -2q-89 -35 -379 -320q17 -31 36 -61.5t48 -70.5t59.5 -64.5t55.5 -24.5t41 7q4 2 6 9l5 5q1 -3 2.5 -8t2 -18t-4.5 -23t-21 -18t-43 -8q-34 0 -69 25.5t-64.5 66.5t-48 72t-33.5 62
q-46 -130 -47 -200q0 -1 1 -4t1.5 -5.5t-0.5 -4.5q-22 0 -38.5 10.5t-16.5 27.5q0 59 85.5 312.5t81.5 292.5q-52 -1 -121 -24t-134.5 -60.5t-110.5 -94.5t-45 -117q0 -1 2.5 -4t2.5 -4q0 -13 -27 8q-33 27 -34 48q0 30 36.5 78.5t95.5 98t149 85.5t182 36q28 0 44 -11.5
t19.5 -35.5t1.5 -50t-14.5 -68t-24 -75.5t-31.5 -84.5q80 80 189.5 175.5t129.5 96.5z" />
    <glyph glyph-name="L" unicode="L" horiz-adv-x="387" 
d="M508 572l-2 -2q0 -89 -119 -196t-228 -133q-98 -196 -82 -280q72 15 166 11.5t123 -32.5q4 -4 4 -15t-2 -19l-2 -9q-60 23 -153 23q-50 0 -91.5 -6.5t-66 -16t-41.5 -18.5t-24 -15l-6 -7q-4 4 -9 11t-5.5 27t15.5 36q10 10 49 20q-6 14 -6 37q0 116 61 259q-8 8 -11 22.5
t-2 24.5l1 10q11 -11 32 -14q68 142 161 249t148 107q28 0 48.5 -11t27.5 -21l6 -11q8 -11 8 -31zM446 608l1 1q-51 -20 -121 -106.5t-133 -198.5q95 38 175.5 126t77.5 178z" />
    <glyph glyph-name="M" unicode="M" horiz-adv-x="710" 
d="M698 501l1 1q10 3 28 -21t13 -29q-26 -26 -107.5 -276t-59.5 -272q-30 0 -48 12.5t-18 35.5q0 93 151 461q-79 -77 -180.5 -201t-117.5 -166q0 -10 -2 -10h-8q-6 0 -14 2h-1q-42 11 -42 51q0 72 67 229q-81 -98 -174.5 -234t-100.5 -170v-3v0q-21 1 -37 12t-16 28
q0 65 48.5 197.5t95.5 250.5t45 150q-51 1 -122 -20t-138.5 -56.5t-114.5 -90t-47 -113.5q0 -1 2.5 -4t2.5 -4q-1 -14 -28 9q-33 28 -32 49q1 23 24.5 58.5t68.5 75t101 73.5t130.5 55t149.5 18q31 -1 44.5 -20.5t10 -55t-15.5 -78t-33.5 -97.5t-42.5 -105.5t-43 -110
t-35 -104.5q36 69 113.5 170.5t138 170t65.5 68.5q11 2 28 -21.5t12 -28.5q-18 -18 -56 -109t-51 -160q26 55 111 150t157 164t77 69z" />
    <glyph glyph-name="N" unicode="N" horiz-adv-x="522" 
d="M539 480q17 -23 12 -28q-26 -26 -107.5 -276t-59.5 -272q-63 0 -63 48q0 49 53 200t108 288q-97 -87 -236.5 -256t-168.5 -246v-12q0 -1 1 -4t1 -5.5t-1 -4.5h-6v0q-20 2 -33.5 12.5t-13.5 26.5q0 65 48.5 197.5t95.5 250.5t45 150q-51 1 -122 -20t-138.5 -56.5
t-114.5 -90t-47 -113.5q0 -1 2.5 -4t2.5 -4q-1 -14 -28 9q-33 28 -32 49q1 23 24.5 58.5t68.5 75t101 73.5t130.5 55t149.5 18q29 -1 43 -17.5t12.5 -47t-10 -66.5t-27 -86t-36.5 -94t-41 -101.5t-37 -98.5q52 85 150 192.5t169 173t76 65.5q6 0 18.5 -18t10.5 -21z" />
    <glyph glyph-name="O" unicode="O" 
d="M475 475l-2 -1q10 -28 10 -76q0 -32 -19 -91t-57 -130.5t-85.5 -135t-113.5 -106.5t-133 -43q-35 0 -58.5 12t-33 31.5t-13 36.5t-2.5 36q0 59 20 114.5t47 90.5t50.5 56t33.5 21q42 8 74 -24q-43 0 -86 -47t-64 -120t-5 -140q12 -5 21 -5q47 0 101.5 32.5t102 83.5
t85.5 116t57 128.5t12 123.5t-44 97q-60 0 -111.5 -12.5t-86.5 -33t-62.5 -46t-42.5 -52.5t-21.5 -52t-4.5 -44.5t12 -29.5q0 -16 -16.5 -22.5t-27.5 3.5q-21 21 -24 55.5t10.5 72.5t42.5 76.5t67 69.5t90 50.5t106 19.5q46 0 80.5 -13t52.5 -34t26 -36.5t12 -31.5z" />
    <glyph glyph-name="P" unicode="P" horiz-adv-x="394" 
d="M300 603v-3q120 0 142.5 -90.5t-34 -191t-135.5 -130.5q-81 -25 -110 -29q-65 -204 -65 -261q-14 0 -33 11t-19 27q0 66 87.5 316t122.5 266q23 11 48 -10q12 -10 7 -15q-50 -48 -130 -278q87 9 154 99q59 79 57 154q-2 74 -69 84q-10 2 -21 2q-50 0 -118 -22.5
t-133.5 -59t-111 -93t-45.5 -115.5q0 -3 2.5 -9t2.5 -8q0 -15 -28 8q-33 29 -34 50q0 30 36.5 78.5t95.5 98t149 85.5t182 36z" />
    <glyph glyph-name="Q" unicode="Q" horiz-adv-x="468" 
d="M330 -89l-1 1q10 -10 21.5 -13t21.5 -0.5t19 6t14 6.5l5 3q0 -2 -2.5 -8.5t-9.5 -18t-19.5 -20t-32.5 -13.5t-48 0q-32 5 -96 88q-66 -47 -123 -47q-29 0 -50 8.5t-32.5 21t-18 29.5t-8 31t-0.5 29q0 105 62 199q-8 16 -8 17q-18 34 -15.5 75.5t15 84t41.5 82t64.5 70
t83.5 49t99 18.5q47 0 82.5 -13.5t53.5 -34.5t26.5 -37.5t12.5 -32.5q10 -28 10 -78q0 -72 -72.5 -204.5t-166.5 -221.5q44 -48 72 -76zM61 -43l-1 1q42 0 101 40q-56 82 -103 165q-30 -51 -37 -101t16 -97q13 -8 24 -8zM212 38v-2q79 71 140 168.5t77.5 192t-47.5 149.5
q-64 13 -119 -1t-91 -46t-61 -74t-35.5 -83.5t-8.5 -75.5q3 0 3 -3q37 39 53 39q43 8 76 -25q-51 0 -110 -69q33 -65 123 -170z" />
    <glyph glyph-name="R" unicode="R" horiz-adv-x="404" 
d="M429 -24l1 -3q1 -3 2.5 -8t2 -18t-4.5 -23t-21 -18t-43 -8q-30 0 -62.5 22t-56.5 50t-48 66.5t-35 59.5t-21 41q-59 -187 -59 -240q-14 0 -33 11t-19 27q0 66 87.5 316t122.5 266q23 11 48 -10q12 -10 7 -15q-50 -48 -130 -278q87 9 154 99q59 79 57 154q-2 74 -69 84
q-10 2 -21 2q-49 0 -118 -23t-134 -61t-110.5 -93.5t-45.5 -112.5q0 -3 2.5 -9t2.5 -8q0 -15 -28 8q-33 29 -34 50q0 30 36.5 78.5t95.5 98t149 85.5t182 36q122 0 144 -97q19 -81 -37 -184q-51 -93 -123 -127l-10 -4q-73 -22 -76 -23q119 -212 193 -212q25 0 41 7q4 2 6 9z
" />
    <glyph glyph-name="S" unicode="S" horiz-adv-x="393" 
d="M447 565v-3q17 -15 17 -41q0 -55 -31.5 -100.5t-77.5 -45.5q-19 3 -36 18l14 9q27 18 56.5 53.5t29.5 71.5v5h-5q-85 -9 -153 -39t-109 -71t-65 -75t-40.5 -70.5t-17.5 -37.5l-1 -2l1 -2q1 -4 5 -12q18 -30 68 -30q56 0 100 -12q75 -20 99 -65q22 -43 10 -84
q-4 -17 -28 -38q-41 -37 -94.5 -60t-104.5 -23q-88 0 -114 81q27 -12 107 -12q109 0 195 108l3 4l-4 3q-18 14 -60 24q-34 8 -89 10q-49 2 -65 11q-41 23 -60 89q-11 36 -7 69q3 24 23 56q32 49 82 94l21 18q65 52 117 79q82 41 133 42v3v-3q57 0 81 -22z" />
    <glyph glyph-name="T" unicode="T" horiz-adv-x="218" 
d="M559 533h-1q29 -26 22 -44q-2 -5 -7 -5q-19 17 -98.5 23.5t-182.5 0.5q-53 -54 -133 -295t-80 -310q-14 0 -33 11t-19 27q0 54 69 265t117 296q-76 -7 -136.5 -19t-100.5 -31t-39 -41q0 -13 -12 -12q-3 10 -7 26t-2.5 48.5t19.5 46.5q19 14 157 29.5t286.5 14
t180.5 -30.5z" />
    <glyph glyph-name="U" unicode="U" 
d="M425 560v-1q22 -7 34.5 -13t25.5 -18.5t13 -28.5v0q-2 -33 -52 -148q-44 -149 -74 -291t-14 -156q-63 -5 -67 43q-3 40 29 164q-128 -209 -208 -209q-34 0 -50 31t-13 84.5t12.5 111.5t29 127t34 114t30.5 89q1 3 3 7.5t7 16.5t9 23t7 22.5t2.5 18t-5.5 6.5
q-63 0 -156.5 -45.5t-168 -115.5t-83.5 -129q-1 -3 1.5 -9t2.5 -8q0 -15 -28 8q-34 29 -34 50q0 30 36.5 78.5t95.5 98t149 85.5t182 36q35 0 53 -38t-3 -116q-159 -481 -114 -499q29 -11 106 117t142.5 282t65.5 212z" />
    <glyph glyph-name="V" unicode="V" horiz-adv-x="408" 
d="M418 561v1q1 2 2 -1h-2zM421 561v-1q8 -2 16.5 -5.5t22.5 -11.5t22.5 -22.5t8.5 -32.5q0 -28 -89 -172t-189.5 -278t-126.5 -134q0 -7 -10 0q-17 3 -17 15q-34 40 -34 70q0 8 9.5 39t27 82.5t34.5 98t41.5 115t37.5 104.5q7 20 10.5 47.5t-3.5 52.5t-28 25
q-63 0 -156.5 -45.5t-168 -115.5t-83.5 -129q-1 -3 1.5 -9t2.5 -8q0 -15 -28 8q-34 29 -34 50q0 30 36.5 78.5t95.5 98t149 85.5t182 36q23 0 45 -9t42 -30.5t21 -58.5t-18 -94q-110 -307 -143 -437q52 63 118.5 152.5t137.5 210t71 173.5q0 44 -4 52z" />
    <glyph glyph-name="W" unicode="W" horiz-adv-x="690" 
d="M685 560v2q22 -7 34.5 -13t25.5 -18.5t13 -28.5q0 -26 -41 -121.5t-98 -202t-127 -190t-120 -83.5q-19 0 -31.5 14.5t-17 41t-4 59.5t6 74t13 81t18.5 84q-88 -136 -170.5 -242.5t-105.5 -106.5h-11q-8 6 -16 14q-35 37 -35 70q0 7 6 26q6 21 7 24l3 6q2 5 6 17l3 6l3 12
q9 27 35 103l12 33l18 51q5 14 15 42.5t15 42.5q4 12 6 17l12 33l6 15q4 12 7.5 41.5t-0.5 59.5t-20 30q-63 0 -156.5 -45.5t-168 -115.5t-83.5 -129q-1 -3 1.5 -9t2.5 -8q0 -15 -28 8q-34 29 -34 50q0 30 36.5 78.5t95.5 98t149 85.5t182 36q41 0 74 -64t6 -139
q-108 -301 -138 -423q49 56 158.5 214t157.5 248q19 56 25 62q47 25 68 -7l-67 -203q-102 -326 -63 -341q29 -11 106 117t142.5 282t65.5 212z" />
    <glyph glyph-name="X" unicode="X" horiz-adv-x="610" 
d="M612 530l-1 -3q2 0 4.5 -1t10.5 -5t11 -10.5t6.5 -19t-3.5 -29.5q-14 -49 -217 -269q71 -173 101 -207q27 -31 45.5 -43.5t24.5 -9.5l5 3q1 -2 1.5 -5t-2 -11t-9 -14.5t-23.5 -11.5t-43 -5q-50 0 -153 247q-99 -105 -177 -175.5t-100 -71.5q-18 0 -27 4.5t-18.5 17
t-14.5 17.5q15 -10 75 38q85 68 235 238q-44 113 -97 269q-8 25 -12 35t-10.5 23.5t-13 18t-15.5 4.5q-63 0 -156.5 -45.5t-168 -115.5t-83.5 -129q-1 -3 1.5 -9t2.5 -8q0 -15 -28 8q-34 29 -34 50q0 30 36.5 78.5t95.5 98t149 85.5t182 36q42 0 70 -29t55 -101
q55 -146 78 -206q52 61 106.5 126.5t82.5 100.5z" />
    <glyph glyph-name="Y" unicode="Y" horiz-adv-x="531" 
d="M557 493v-1v-4v-7q0 -15 -14 -74.5t-39.5 -146.5t-65.5 -182t-87 -177t-111 -135.5t-130 -53.5q-27 0 -45.5 11t-24.5 26.5t-8.5 31.5t-1.5 27l2 11q1 -3 6 -8t35.5 -13.5t78.5 -8.5q43 0 88 49.5t86 133.5t72.5 167t60.5 177q-84 -123 -171.5 -228t-112.5 -105
q0 -7 -10 0q-17 3 -17 15q-34 40 -34 70q0 15 30.5 102t74.5 205.5t60 166.5q-69 -20 -144.5 -65t-132 -104t-64.5 -110q-1 -3 1.5 -9t2.5 -8q0 -15 -28 8q-34 29 -34 50q0 28 32 73t84.5 92t133 84.5t164.5 46.5q24 3 49 3h29q-145 -382 -187 -553q62 67 181 239t119 211
v65q3 -1 8 -2t17 -7t21.5 -13t17.5 -20.5t8 -29.5z" />
    <glyph glyph-name="Z" unicode="Z" horiz-adv-x="352" 
d="M53 -13q94 10 212.5 -3t148.5 -47q4 -6 3.5 -15.5t-3.5 -17.5l-2 -9q-92 38 -185 42q-79 4 -140 -6t-83 -22l-22 -12q-4 4 -8.5 11.5t-4.5 27t17 35.5q0 19 26 66q57 102 391 475q-55 -2 -286 4q-22 1 -36 23t-12 49q6 -2 16 -5.5t19.5 -5.5t25.5 -3q197 -8 331 2
q3 3 4 3q3 -1 7 -3h3v-1q23 -11 23 -38q-344 -398 -400 -473q-29 -39 -45 -77z" />
    <glyph glyph-name="bracketleft" unicode="[" horiz-adv-x="287" 
d="M99 470l2 1q12 -5 109 -5.5t109 4.5q-5 -20 -25 -40q-16 -16 -171 7q3 -7 3 -16q-15 -14 -59 -196t-43 -253q42 -2 111.5 -1.5t79.5 3.5q-5 -20 -25 -40q-17 -8 -66 -5t-102 11l-52 8l18 18q-11 14 -12 32q-3 30 36.5 189.5t67.5 255.5l-8 1l12 12q3 8 4 9q2 0 5 -1z" />
    <glyph glyph-name="backslash" unicode="\" horiz-adv-x="422" 
d="M320 -134l-1 -1q-23 65 -58.5 143t-72.5 146.5t-71.5 125t-60 86.5t-33.5 22q6 4 16.5 9t37 5t46.5 -20q29 -30 145 -267t121 -262q-38 -18 -69 13z" />
    <glyph glyph-name="bracketright" unicode="]" horiz-adv-x="186" 
d="M207 412q6 -92 8 -246t-7 -210q-6 -18 -19 -28l13 -22q-202 12 -217 36q-7 11 -10.5 22t-4.5 16v6q9 -5 77 -21.5t109 -23.5q16 78 15 260.5t-12 200.5q3 10 7 15q-156 13 -168 32q-7 11 -10.5 22t-3.5 17l-1 5q12 -7 106 -28.5t106 -19.5q4 -6 6 -8h5v-10l9 -15h-8z" />
    <glyph glyph-name="asciicircum" unicode="^" horiz-adv-x="412" 
d="M185 598h1q-106 -183 -147 -183q26 50 56.5 122.5t48.5 119.5l17 47l9 -11q34 -15 50 -22q-1 -21 56.5 -171.5t72.5 -167.5q-34 -4 -77 15q-32 14 -87 251z" />
    <glyph glyph-name="underscore" unicode="_" horiz-adv-x="460" 
d="M409 -145l-2 -1q18 -18 13 -31q-1 -2 -3 -2q-13 15 -68.5 13t-117.5 -11.5t-116 -30t-64 -42.5v-3.5t-1 -4t-5 -1.5q-20 63 3 86q11 11 93 26t159.5 18.5t108.5 -16.5z" />
    <glyph glyph-name="grave" unicode="`" horiz-adv-x="124" 
d="M43 727h-1q11 -11 20 -34.5t11.5 -49t-7.5 -46t-34 -23.5q-35 82 -58 109q-11 13 1 29.5t31.5 21.5t36.5 -7z" />
    <glyph glyph-name="a" unicode="a" horiz-adv-x="300" 
d="M307 213l20 1q-3 -8 -9 -22t-23.5 -49.5t-35.5 -62.5t-43.5 -49t-48.5 -22q-61 0 -54 84q-43 -87 -90 -88q-35 0 -48 47q-2 10 -4 23q-7 50 16 120t64 122t80 53q24 1 43.5 -15.5t26.5 -37.5q21 31 30 31q14 0 26 -7t17 -13l6 -7q-19 -12 -51.5 -81.5t-46 -125.5t5.5 -65
q13 0 43 41t53 82zM131 172h1q26 79 63 139q-21 19 -39 19q-28 0 -65.5 -54.5t-56.5 -118.5t-1 -86q14 -18 42.5 17t55.5 84z" />
    <glyph glyph-name="b" unicode="b" horiz-adv-x="280" 
d="M191 363v-1q32 5 52 -22.5t14 -75.5q-9 -69 -34 -123.5t-54 -82.5t-51.5 -41.5t-35.5 -13.5q-22 0 -35 15.5t-12.5 28.5t0.5 15q1 0 4.5 -3.5t9.5 -6.5t14.5 -3.5t21.5 6.5t28 22q43 43 75.5 129.5t11.5 126.5q-55 -16 -123 -96q-55 -172 -55 -234q-14 0 -33 11t-19 27
q0 66 70.5 271t105.5 221q23 11 48 -10q11 -10 7 -15q-45 -43 -102 -203q55 53 92 58z" />
    <glyph glyph-name="c" unicode="c" horiz-adv-x="237" 
d="M244 210l2 2h22q-13 -29 -44 -75t-79 -89.5t-87 -43.5q-49 0 -70.5 42t-12.5 98q8 48 31 97.5t64.5 88.5t89.5 39q43 0 54 -37q6 -23 -4 -29q-2 -1 -3 -1q-10 6 -42 6q-29 0 -55 -23.5t-42 -58t-25.5 -71t-7 -66t15.5 -39.5q27 0 57 16.5t53 40t42.5 47t30.5 40.5zM64 48
h2h-2z" />
    <glyph glyph-name="d" unicode="d" horiz-adv-x="303" 
d="M445 657l-3 1q21 0 34.5 -14.5t16.5 -38t-1.5 -49t-20.5 -50t-40 -39.5q-33 -21 -133 -30q-55 -103 -92.5 -214t-23.5 -162q22 6 53.5 42.5t52.5 70.5l21 33h21q-27 -54 -70 -113q-73 -101 -109 -94q-46 8 -26 122q-54 -116 -109 -116q-31 0 -42 41q-3 12 -5 28
q-5 51 19.5 120t66 120t80.5 51q34 0 56 -31q22 58 40 96q-179 -12 -247 56q-17 14 -14.5 46t30.5 39q0 -2 -2.5 -9t-1.5 -10q24 -70 263 -68q13 26 29 50.5t40 54.5t55 48.5t62 18.5zM346 488v1q81 0 107 55q17 35 0 59q-8 10 -20 10q-37 0 -107 -125h20zM137 179l-2 -1
q16 59 47 138q-15 11 -27 11q-28 0 -65.5 -54.5t-56.5 -118.5t-1 -86q7 -5 14 -5t18 11.5t20.5 22.5t20.5 28.5t18 29t14 24.5z" />
    <glyph glyph-name="e" unicode="e" horiz-adv-x="236" 
d="M244 210l2 4q0 -1 20 -1q-13 -29 -44 -75t-79 -89.5t-87 -43.5q-49 0 -70.5 42t-12.5 98q8 48 31 97.5t64.5 88.5t89.5 39q31 0 45 -20t10 -38v-2v-2q-6 -20 -16.5 -45t-38.5 -63.5t-60 -52.5q-18 -6 -30.5 -1t-19.5 15l-8 10q31 -3 73.5 45.5t61.5 91.5h-9
q-31 0 -64 -32.5t-53 -75t-20 -86.5t28 -64q27 2 56 19t51.5 40.5t41 46t28.5 38.5z" />
    <glyph glyph-name="f" unicode="f" horiz-adv-x="156" 
d="M185 428q-17 -11 -66 -108t-90 -206q17 14 43 26q30 15 47 29t22 22.5t6 8.5l3 1q3 -2 10 -16q15 -32 -64 -72q-26 -13 -61 -37q19 -30 25 -82.5t-1 -103.5t-36 -86.5t-73 -31.5q-85 8 -7 261q56 182 143 349q39 73 49 73q16 0 28.5 -6.5t16.5 -13.5zM-33 -182l-1 1
q34 18 51 48t19.5 57.5t-3 60t-11.5 48.5t-12 30q-60 -173 -43 -245z" />
    <glyph glyph-name="g" unicode="g" horiz-adv-x="234" 
d="M206 384l-2 4q14 5 29.5 1.5t27.5 -11.5t8 -13q-8 -8 -22 -54l-21 -63q-11 -32 -31.5 -95t-30.5 -95q-42 -131 -67 -183q-71 -147 -152 -147q-10 0 -15 1q-20 4 -28 16q-7 11 -7 27l3 27q20 -13 44 -9q21 4 41 19q29 22 59 83q22 45 47 115q19 54 36 108
q-52 -106 -104 -106q-35 0 -47 46q-3 11 -4 25q-5 50 20.5 119t68 119.5t81.5 50.5q30 0 51 -24l9 27q3 10 6 12zM164 260l1 2l18 66q-10 5 -20 5q-34 0 -72.5 -53.5t-57.5 -116t-4 -86.5q8 -12 26 0.5t38.5 41.5t33 48t20.5 33q12 40 17 60z" />
    <glyph glyph-name="h" unicode="h" horiz-adv-x="322" 
d="M329 212l3 -4h22q-3 -8 -9 -22t-23.5 -49.5t-35.5 -62.5t-43.5 -49t-48.5 -22q-34 0 -47 27t-5.5 69t22.5 85t36 84q-44 -34 -83 -92.5t-92 -168.5v-7h-3v1q-15 2 -32 12.5t-17 25.5q0 66 70.5 271t105.5 221q23 11 48 -10q11 -10 7 -15q-39 -39 -86.5 -161t-75.5 -238
q66 157 202 234q6 6 9 6q14 0 26 -6.5t17 -13.5l6 -7q-19 -12 -51.5 -81.5t-46 -125.5t5.5 -65q13 0 43 41t53 82z" />
    <glyph glyph-name="i" unicode="i" horiz-adv-x="163" 
d="M160 379h-1q-18 0 -31.5 11t-14.5 38q0 12 9 27.5t17 22.5q7 6 30 -8t23 -21q-24 -28 -32 -70zM42 48h2q13 0 43 41t53 82l23 41h22q-3 -8 -9 -22t-23.5 -49.5t-35.5 -62.5t-43.5 -49t-48.5 -22q-77 0 -47 127q23 94 75 177q23 36 32 36q14 0 26 -6.5t17 -13.5l6 -7
q-19 -12 -51.5 -81.5t-46 -125.5t5.5 -65z" />
    <glyph glyph-name="j" unicode="j" horiz-adv-x="85" 
d="M141 447v-1q-3 -4 -6.5 -12t-9 -29.5t-3.5 -40.5q-19 -2 -39 10.5t-23 40.5q-1 13 6.5 31t15.5 26q6 7 32 -5t27 -20zM40 343l-1 2q14 5 29.5 1.5t27.5 -11.5t8 -13q-8 -8 -22 -54l-21 -63q-10 -31 -24.5 -74t-25.5 -75q-42 -131 -67 -183q-71 -147 -152 -147
q-10 0 -15 1q-20 4 -28 16q-7 11 -7 27l3 27q20 -13 44 -9q21 4 41 19q29 22 59 83q22 45 47 115q22 65 42 129q5 18 8 28.5t6.5 23.5t7.5 28q16 60 25 90l9 27q3 10 6 12z" />
    <glyph glyph-name="k" unicode="k" horiz-adv-x="264" 
d="M271 212l24 -4q-4 -9 -16 -35.5t-17 -36.5t-16 -31.5t-19 -32t-19.5 -25.5t-24 -25t-27.5 -18q-18 -11 -33 -11q-17 0 -29 10q-28 23 -52 105q-19 -74 -19 -107q-14 0 -33 11t-19 27q0 66 70.5 271t105.5 221q23 11 48 -10q11 -10 7 -15q-61 -60 -134 -298q34 60 74 111
t64 51q7 0 27 -12t21 -19q2 -26 -18.5 -69.5t-62.5 -87t-91 -57.5q15 -53 54 -90q52 22 135 177zM200 312q-26 -16 -47.5 -41t-58.5 -85q5 2 12.5 6.5t26.5 19t33 28.5t25 34t9 38z" />
    <glyph glyph-name="l" unicode="l" horiz-adv-x="153" 
d="M36 64q22 6 53.5 42.5t52.5 69.5l21 34h21q-27 -54 -70 -113q-73 -101 -109 -94q-30 6 -34 50t13 109t42 131.5t54 128.5q18 39 41.5 77t29.5 38q16 0 28.5 -7t16.5 -14l5 -7q-5 -3 -27.5 -38t-28.5 -47q-50 -95 -86 -203t-23 -157z" />
    <glyph glyph-name="m" unicode="m" horiz-adv-x="468" 
d="M475 218l23 3q-3 -8 -9 -22t-23.5 -49.5t-35.5 -62.5t-43.5 -49t-48.5 -22q-35 0 -47.5 27t-4.5 70t24 86.5t37 84.5q-49 -37 -85 -90t-79 -158v12v-12q-5 1 -12.5 3t-20.5 14.5t-13 32.5q0 27 26 95t54 124l-4 -5l-6 -3q-79 -63 -167 -243q-3 -7 -10 -21t-10 -21v-1
q-1 -1 -11 0t-23 10t-15 21q-3 17 2 48q4 74 53 179.5t68 105.5q14 0 26 -6.5t18 -13.5l5 -7q-19 -12 -53 -85t-50 -136q66 149 207 230v0h1h1q15 0 31 -7t12 -13q-60 -99 -90 -186q67 134 191 202h3v0h3q14 0 26 -6.5t17 -13.5l6 -7q-19 -12 -51.5 -81.5t-46 -125.5
t5.5 -65q13 0 43 41t53 82z" />
    <glyph glyph-name="n" unicode="n" horiz-adv-x="452" 
d="M395 295h2q1 6 5 5.5t7 -3.5q19 -20 23.5 -30.5t4.5 -29.5q0 -39 -38 -103.5t-100.5 -118t-119.5 -53.5q-37 0 -47.5 36t2.5 90t34 108t45 99q-2 -2 -3 -2q-79 -63 -167 -243q-3 -7 -10 -21t-10 -21v-1q-1 -1 -11 0t-23 10t-15 21q-3 17 2 48q4 74 53 179.5t68 105.5
q14 0 26 -6.5t17 -13.5l6 -7q-19 -12 -53 -85t-50 -136q65 148 206 227q3 3 6 3q14 0 26 -6.5t17 -13.5l6 -7q-19 -12 -56 -98t-55 -156t1 -81q30 0 78.5 55.5t85.5 129t37 119.5z" />
    <glyph glyph-name="o" unicode="o" horiz-adv-x="273" 
d="M221 161l1 -2q20 4 40.5 14t31.5 17l10 8v-27q-38 -33 -95 -40q-12 -22 -19 -32q-27 -41 -58 -65q-38 -30 -80 -34q-29 -2 -47 10q-24 16 -32 61q-13 82 24 172q10 22 19 30q7 6 17 9q8 38 35 60q25 21 64 26q61 7 93 -29q20 -21 23 -55q3 -26 -6 -61q-8 -33 -21 -62z
M55 45l1 -1q59 11 106 88q-80 12 -114 72q-16 -57 -14 -97q2 -30 12 -48l4 -5q3 -6 5 -9zM176 156h-1q29 68 21.5 119t-36.5 67q-54 -7 -62.5 -57.5t29.5 -97.5q19 -24 49 -31z" />
    <glyph glyph-name="p" unicode="p" horiz-adv-x="308" 
d="M206 363h-2q32 5 52 -22.5t14 -75.5q-9 -69 -34 -123.5t-54 -82.5t-51.5 -41.5t-35.5 -13.5q-22 0 -35 15.5t-12.5 28.5t0.5 15q1 0 4.5 -3.5t9.5 -6.5t14.5 -3.5t21.5 6.5t28 22q43 43 75.5 129.5t11.5 126.5q-54 -16 -122 -96q-36 -114 -63.5 -267t-22.5 -200
q-14 -1 -34 8t-21 25q-7 66 49 310.5t89 263.5q22 12 50 -6q13 -9 8 -14q-13 -16 -29 -51q52 51 89 56z" />
    <glyph glyph-name="q" unicode="q" horiz-adv-x="242" 
d="M213 379l-2 -3q22 12 50 -6q13 -9 8 -14q-47 -56 -96.5 -286t-42.5 -300q-14 -1 -34 8t-21 25q-6 65 47 301q-49 -100 -98 -101q-35 0 -48 47q-2 10 -4 23q-7 50 16 120t64 122t80 53q34 1 57 -29q14 34 24 40zM139 182q20 83 40 136q-11 8 -23 8q-28 0 -65.5 -54.5
t-56.5 -118.5t-1 -86q8 -10 23 -0.5t32 33.5t28.5 43.5t22.5 38.5z" />
    <glyph glyph-name="r" unicode="r" horiz-adv-x="254" 
d="M233 368l-3 -6q10 2 23 -1t21.5 -8t6.5 -7q-66 -66 -69 -164q-4 0 -11 2t-15.5 11.5t-8.5 25.5q0 23 13 66q-86 -54 -153 -281l-2 -6q-3 0 -9 -0.5t-8 -0.5q-18 0 -26 5q-8 4 -12 12q-7 12 -11 33q-1 10 -1 29q2 22 4 33q2 12 8 36q3 12 11 36q4 12 14 36l15 36l15 33
q5 10 15 28l15 24q8 12 13 17q6 6 10 8h3q14 0 26 -6.5t17 -13.5l6 -7q-5 2 -41 -58q-32 -63 -48 -115q-10 -35 -14 -63q81 198 185 261q4 3 8 5h1q1 1 2 1v-1z" />
    <glyph glyph-name="s" unicode="s" horiz-adv-x="142" 
d="M172 346h1q-5 -1 -12.5 -3.5t-27.5 -13t-35.5 -22.5t-28 -33.5t-12.5 -45.5t9.5 -57.5t16.5 -57.5t7 -48t-21 -39.5t-65 -21.5q-37 -5 -57 20.5t-20 56.5q0 15 3 23t6 8l3 1q0 -2 0.5 -6.5t4 -15t8.5 -18.5t15 -14.5t23 -6.5q33 0 33 53q0 9 -18 54t-18 62q0 61 46 105.5
t84 44.5q19 0 32.5 -6.5t18.5 -12.5z" />
    <glyph glyph-name="t" unicode="t" horiz-adv-x="160" 
d="M352 451l3 -2q2 0 3 -5t-1.5 -13.5t-9.5 -15.5q-18 15 -196 9q-50 -95 -86 -203t-23 -157q22 6 53.5 42.5t52.5 69.5l21 34h21q-27 -54 -70 -113q-73 -101 -109 -94q-30 6 -34 50t13 109t42 131.5t54 128.5q-166 -9 -184 -27q-4 36 21 61q9 9 181 5q40 77 52 77
q16 0 28.5 -7t17.5 -14l4 -7q-12 -8 -38 -51q27 -1 55.5 -2t50 -2t39.5 -2t29 -1z" />
    <glyph glyph-name="u" unicode="u" horiz-adv-x="309" 
d="M316 208l25 1q-3 -8 -9 -22t-23.5 -49.5t-35.5 -62.5t-43.5 -49t-48.5 -22q-64 0 -53 90q-56 -90 -104 -90q-77 0 -43 136q24 101 79 190q23 37 32 37q14 0 26 -6.5t18 -13.5l5 -7q-19 -12 -53.5 -87.5t-49.5 -136.5t4 -71q25 0 112 150q21 57 48 103.5t38 46.5
q14 0 26 -6.5t18 -13.5l5 -7q-19 -12 -51.5 -82t-46 -126.5t5.5 -65.5q13 0 43 41t53 82z" />
    <glyph glyph-name="v" unicode="v" horiz-adv-x="265" 
d="M261 350l-1 -2q5 -8 5 -22q0 -49 -66.5 -152.5t-128.5 -148.5q-26 -21 -49 -21q-77 0 -43 136q24 101 79 190q23 37 32 37q14 0 26 -6.5t17 -13.5l6 -7q-19 -12 -53.5 -87.5t-49.5 -136.5t4 -71q1 0 7 2l9 6q70 54 121 142q50 86 50 168q24 5 35 -13z" />
    <glyph glyph-name="w" unicode="w" horiz-adv-x="421" 
d="M416 350l-3 -1q5 -8 5 -22q0 -49 -66.5 -152.5t-128.5 -148.5q-26 -21 -49 -21q-61 0 -52 89q-56 -89 -102 -89q-77 0 -43 136q24 101 79 190q23 37 32 37q14 0 26 -7t18 -13l5 -7q-19 -12 -53.5 -87.5t-49.5 -136.5t4 -71q26 0 107 141q23 66 55 123t44 57q14 0 26 -6.5
t18 -13.5l5 -7q-19 -12 -53.5 -87.5t-49.5 -136.5t4 -71q1 0 7 2l9 6q70 54 121 142q50 86 50 168q24 5 35 -13z" />
    <glyph glyph-name="x" unicode="x" horiz-adv-x="376" 
d="M383 209h23q-3 -8 -9 -22t-24.5 -49.5t-37 -62.5t-43 -49t-46.5 -22q-76 0 -126 101l-126 -126q-10 -3 -15 14t1 30q3 3 119 129q-25 69 -29 160l-47 -112h-22l68 150q-2 13 48 31q0 -100 27 -179q156 168 167 168q17 0 48 -29q13 -12 8 -12q-18 0 -201 -179
q25 -49 54.5 -77t43.5 -28q20 0 50 41t50 82z" />
    <glyph glyph-name="y" unicode="y" horiz-adv-x="261" 
d="M205 344l1 2q14 5 29.5 1.5t27.5 -11.5t8 -13q-8 -8 -22 -54l-21 -63q-10 -31 -24.5 -74.5t-25.5 -74.5q-42 -131 -67 -183q-71 -147 -152 -147q-10 0 -15 1q-20 4 -28 16q-7 11 -7 27l3 27q20 -13 44 -9q21 4 41 19q29 22 59 83q22 45 47 115q20 58 29 87
q-56 -90 -104 -90q-77 0 -43 136q24 101 79 190q23 37 32 37q14 0 26 -7t18 -13l5 -7q-19 -12 -53.5 -87.5t-49.5 -136.5t4 -71q29 0 116 158q2 8 3 13q16 60 25 90l9 27q3 10 6 12z" />
    <glyph glyph-name="z" unicode="z" horiz-adv-x="317" 
d="M346 359l-3 2q6 -29 -8 -42q-2 -2 -5 -2q-183 -169 -251 -230q138 30 158 24l-12 -42q-46 -142 -71 -195q-71 -147 -152 -147q-10 0 -15 1q-20 4 -28 16q-7 11 -7 27l3 27q20 -13 44 -9q21 4 41 19q29 22 59 83q22 45 47 115q12 33 18 51q-110 -20 -158 -33l-27 -9
q-7 -4 -12 -4h-2q-5 3 -2 16q-6 3 -5 13t21 22q73 44 292 254q-122 9 -204 -9l-45 -108h-22l51 112q-2 6 4 17.5t13 20.5l6 9q27 7 63.5 9t61 1t76 -4.5t71.5 -4.5z" />
    <glyph glyph-name="braceleft" unicode="{" horiz-adv-x="230" 
d="M162 478l3 -2q17 18 41 18.5t40 -9.5t16 -20q0 -8 -3 -11.5t-5 -3.5h-3q-4 1 -12.5 3t-13.5 2.5t-12.5 -1t-13 -7.5t-10.5 -17q-2 -5 -15 -43.5t-25.5 -65.5t-38 -55.5t-57.5 -34.5h-5q25 -18 37.5 -60t12 -83.5t-0.5 -79.5q0 -8 -0.5 -20t-0.5 -15q0 -15 4.5 -22.5
t8.5 -8.5t13 -1h9q4 0 7 -4q4 -7 0 -22q-2 -9 -13.5 -15.5t-25.5 -6.5h-8q-30 5 -41 39q-5 16 -5 87q2 100 -10 141q-6 19 -14 33t-14.5 20t-14 9.5t-10 3.5h-4.5l-7 -1l2 10l4 19q16 -3 33 0q34 8 61 39q27 30 53 101t38 84z" />
    <glyph glyph-name="bar" unicode="|" horiz-adv-x="270" 
d="M78 -160h-1q23 111 33.5 257.5t5.5 247t-23 95.5q1 -1 7 0t17.5 -2t22.5 -8t21.5 -17t14.5 -29q9 -41 -14 -303t-31 -288q-5 1 -12 3t-21.5 13.5t-19.5 30.5z" />
    <glyph glyph-name="braceright" unicode="}" horiz-adv-x="199" 
d="M197 198l-1 -3q18 -10 31 -10l-2 -19l-1 -11l-7 3q-3 -1 -11 2t-27 -9t-37 -38q-25 -36 -52 -130q-21 -66 -31 -81q-21 -30 -51 -25q-4 0 -8 2q-13 5 -22 14.5t-9 19.5q0 16 8 21q3 2 8 2q3 0 9 -2q10 -5 19.5 -1t16.5 24q1 3 10 34q11 37 18 58t21.5 55.5t33 55.5
t41.5 28l-3 3q-28 15 -44.5 49.5t-19.5 64.5t-4 70t-2 46q-1 12 -4.5 19.5t-10 10.5t-11.5 4.5t-14.5 2t-12.5 0.5q-1 0 -2.5 1t-4 5t1.5 12q3 9 21 14t41 -3t34 -30q8 -16 11 -91.5t19 -112.5q18 -38 48 -55z" />
    <glyph glyph-name="asciitilde" unicode="~" horiz-adv-x="230" 
d="M250 301q29 -54 -29 -77q-52 0 -92.5 8t-55.5 8q-29 0 -47 -7.5t-24 -14t-19 -25.5q-24 23 -4.5 55t61.5 32q25 0 70.5 -10t77 -5t62.5 36z" />
    <glyph glyph-name="nonbreakingspace" unicode="&#xa0;" horiz-adv-x="316" 
 />
    <glyph glyph-name="cent" unicode="&#xa2;" horiz-adv-x="284" 
d="M269 569v-1q21 -4 32 -18t11 -26l1 -11l-30 4q-39 7 -81 -17q-57 -245 -66 -458q20 9 36 25.5t22 28.5l6 12q3 -3 6.5 -8.5t8.5 -24t1 -39.5q-9 -50 -80 -50q2 -49 12 -52q-9 1 -20 4.5t-28 18t-23 36.5q-57 11 -84 58t-22 112.5t28 136t64.5 133.5t88.5 99q20 98 23 108
q5 -1 12 -4t20.5 -18t16.5 -36l-6 -15q27 6 51 2zM73 35h-1q7 99 61 401q-50 -65 -81 -157.5t-27.5 -164t45.5 -79.5h3z" />
    <glyph glyph-name="sterling" unicode="&#xa3;" horiz-adv-x="350" 
d="M376 -11v-1q4 -4 4 -15t-2 -19l-2 -9q-60 23 -153 23q-50 0 -91.5 -6.5t-66 -16t-41.5 -18.5t-24 -15l-6 -7q-4 4 -9 11t-5.5 27t15.5 36q7 7 33 15q94 86 94 150q0 32 -5 82q-117 -27 -132 -62v-3.5t-1 -4t-5 -1.5q-20 63 3 86q15 15 130 32q-4 38 -6 64t-1.5 62t5.5 60
t16 50.5t28.5 42t46 25.5t65.5 10q25 0 40.5 -14.5t17.5 -28.5l3 -15l-49 9q-9 0 -18 -1t-27.5 -8t-33 -19t-28 -37t-18.5 -60q-2 -14 0 -32t9.5 -51t10.5 -48q142 15 169 -12q18 -18 13 -31q-1 -2 -3 -2q-26 26 -172 4q13 -134 -73 -228q71 13 156.5 8t112.5 -32z" />
    <glyph glyph-name="dieresis" unicode="&#xa8;" horiz-adv-x="307" 
d="M26 668l1 -2q6 -1 15.5 -2.5t24 -11.5t11.5 -26q-4 -26 -46 -27q-26 0 -24 7q12 22 18 62zM188 666l1 -2q6 -1 15.5 -2.5t24 -11.5t11.5 -26q-4 -26 -46 -27q-26 0 -24 7q12 22 18 62z" />
    <glyph glyph-name="acute" unicode="&#xb4;" horiz-adv-x="177" 
d="M54 720h-1q17 12 36.5 7t31.5 -21.5t1 -29.5q-10 -12 -24.5 -39t-23.5 -49l-10 -21q-24 3 -34 23.5t-7.5 46t11.5 49t20 34.5z" />
    <glyph glyph-name="Agrave" unicode="&#xc0;" horiz-adv-x="480" 
d="M399 -78l-3 -1q2 -3 4.5 -6.5t3.5 -4.5l-3 -4h-8.5t-9.5 0.5t-10 1t-11 2t-10 3.5t-9.5 5.5t-7.5 8.5t-6.5 11t-4 14.5t-1.5 18.5q0 29 33 175q-45 7 -121 1q-143 -192 -172 -219q-17 -15 -40 -16.5t-38.5 7t-15.5 19.5q1 2 5.5 0.5t13.5 1t16 9.5q40 40 149 186
q-104 -21 -121 -52v-3q-1 -3 -2 -4.5t-5 -1.5q-16 62 8 83q18 16 157 27q172 235 249 355q-69 -1 -158 -33.5t-164.5 -94.5t-86.5 -133q-1 -4 1.5 -11t2.5 -10q-1 -16 -28 8q-33 29 -32 50q2 30 40.5 76.5t100 93t153.5 77.5t184 26q9 0 14 -1q3 -1 7 -2l53 -11
q-16 -14 -53.5 -162t-63 -304t-10.5 -186zM265 187q67 0 98 -10q25 111 54 229q-57 -89 -152 -219zM458 845h-1q11 -11 20 -34.5t11.5 -49t-7.5 -46t-34 -23.5q-35 82 -58 109q-11 13 1 29.5t31.5 21.5t36.5 -7z" />
    <glyph glyph-name="Aacute" unicode="&#xc1;" horiz-adv-x="480" 
d="M399 -78l-3 -1q2 -3 4.5 -6.5t3.5 -4.5l-3 -4h-8.5t-9.5 0.5t-10 1t-11 2t-10 3.5t-9.5 5.5t-7.5 8.5t-6.5 11t-4 14.5t-1.5 18.5q0 29 33 175q-45 7 -121 1q-143 -192 -172 -219q-17 -15 -40 -16.5t-38.5 7t-15.5 19.5q1 2 5.5 0.5t13.5 1t16 9.5q40 40 149 186
q-104 -21 -121 -52v-3q-1 -3 -2 -4.5t-5 -1.5q-16 62 8 83q18 16 157 27q172 235 249 355q-69 -1 -158 -33.5t-164.5 -94.5t-86.5 -133q-1 -4 1.5 -11t2.5 -10q-1 -16 -28 8q-33 29 -32 50q2 30 40.5 76.5t100 93t153.5 77.5t184 26q9 0 14 -1q3 -1 7 -2l53 -11
q-16 -14 -53.5 -162t-63 -304t-10.5 -186zM265 187q67 0 98 -10q25 111 54 229q-57 -89 -152 -219zM469 838h-1q17 12 36.5 7t31.5 -21.5t1 -29.5q-10 -12 -24.5 -39t-24.5 -49l-9 -21q-24 3 -34 23.5t-7.5 46t11.5 49t20 34.5z" />
    <glyph glyph-name="Acircumflex" unicode="&#xc2;" horiz-adv-x="480" 
d="M399 -78l-3 -1q2 -3 4.5 -6.5t3.5 -4.5l-3 -4h-8.5t-9.5 0.5t-10 1t-11 2t-10 3.5t-9.5 5.5t-7.5 8.5t-6.5 11t-4 14.5t-1.5 18.5q0 29 33 175q-45 7 -121 1q-143 -192 -172 -219q-17 -15 -40 -16.5t-38.5 7t-15.5 19.5q1 2 5.5 0.5t13.5 1t16 9.5q40 40 149 186
q-104 -21 -121 -52v-3q-1 -3 -2 -4.5t-5 -1.5q-16 62 8 83q18 16 157 27q172 235 249 355q-69 -1 -158 -33.5t-164.5 -94.5t-86.5 -133q-1 -4 1.5 -11t2.5 -10q-1 -16 -28 8q-33 29 -32 50q2 30 40.5 76.5t100 93t153.5 77.5t184 26q9 0 14 -1q3 -1 7 -2l53 -11
q-16 -14 -53.5 -162t-63 -304t-10.5 -186zM265 187q67 0 98 -10q25 111 54 229q-57 -89 -152 -219zM497 874h-2q18 -112 40 -186q-24 5 -66 126q-60 -134 -81 -139q-12 -3 -24 -3t-18 2l-5 1q11 8 62.5 91t53.5 96q19 4 34 7z" />
    <glyph glyph-name="Atilde" unicode="&#xc3;" horiz-adv-x="480" 
d="M399 -78l-3 -1q2 -3 4.5 -6.5t3.5 -4.5l-3 -4h-8.5t-9.5 0.5t-10 1t-11 2t-10 3.5t-9.5 5.5t-7.5 8.5t-6.5 11t-4 14.5t-1.5 18.5q0 29 33 175q-45 7 -121 1q-143 -192 -172 -219q-17 -15 -40 -16.5t-38.5 7t-15.5 19.5q1 2 5.5 0.5t13.5 1t16 9.5q40 40 149 186
q-104 -21 -121 -52v-3q-1 -3 -2 -4.5t-5 -1.5q-16 62 8 83q18 16 157 27q172 235 249 355q-69 -1 -158 -33.5t-164.5 -94.5t-86.5 -133q-1 -4 1.5 -11t2.5 -10q-1 -16 -28 8q-33 29 -32 50q2 30 40.5 76.5t100 93t153.5 77.5t184 26q9 0 14 -1q3 -1 7 -2l53 -11
q-16 -14 -53.5 -162t-63 -304t-10.5 -186zM265 187q67 0 98 -10q25 111 54 229q-57 -89 -152 -219zM599 753q29 -54 -29 -77q-52 0 -92.5 8t-55.5 8q-29 0 -47 -7.5t-24 -14t-19 -25.5q-24 23 -4.5 55t61.5 32q25 0 70.5 -10t77 -5t62.5 36z" />
    <glyph glyph-name="Adieresis" unicode="&#xc4;" horiz-adv-x="480" 
d="M399 -78l-3 -1q2 -3 4.5 -6.5t3.5 -4.5l-3 -4h-8.5t-9.5 0.5t-10 1t-11 2t-10 3.5t-9.5 5.5t-7.5 8.5t-6.5 11t-4 14.5t-1.5 18.5q0 29 33 175q-45 7 -121 1q-143 -192 -172 -219q-17 -15 -40 -16.5t-38.5 7t-15.5 19.5q1 2 5.5 0.5t13.5 1t16 9.5q40 40 149 186
q-104 -21 -121 -52v-3q-1 -3 -2 -4.5t-5 -1.5q-16 62 8 83q18 16 157 27q172 235 249 355q-69 -1 -158 -33.5t-164.5 -94.5t-86.5 -133q-1 -4 1.5 -11t2.5 -10q-1 -16 -28 8q-33 29 -32 50q2 30 40.5 76.5t100 93t153.5 77.5t184 26q9 0 14 -1q3 -1 7 -2l53 -11
q-16 -14 -53.5 -162t-63 -304t-10.5 -186zM265 187q67 0 98 -10q25 111 54 229q-57 -89 -152 -219zM365 752l1 -2q6 -1 15.5 -2.5t24 -11.5t11.5 -26q-4 -26 -46 -27q-26 0 -24 7q12 22 18 62zM527 750l1 -2q6 -1 15.5 -2.5t24 -11.5t11.5 -26q-4 -26 -46 -27q-26 0 -24 7
q12 22 18 62z" />
    <glyph glyph-name="Aring" unicode="&#xc5;" horiz-adv-x="480" 
d="M399 -78l-3 -1q2 -3 4.5 -6.5t3.5 -4.5l-3 -4h-8.5t-9.5 0.5t-10 1t-11 2t-10 3.5t-9.5 5.5t-7.5 8.5t-6.5 11t-4 14.5t-1.5 18.5q0 29 33 175q-45 7 -121 1q-143 -192 -172 -219q-17 -15 -40 -16.5t-38.5 7t-15.5 19.5q1 2 5.5 0.5t13.5 1t16 9.5q40 40 149 186
q-104 -21 -121 -52v-3q-1 -3 -2 -4.5t-5 -1.5q-16 62 8 83q18 16 157 27q172 235 249 355q-69 -1 -158 -33.5t-164.5 -94.5t-86.5 -133q-1 -4 1.5 -11t2.5 -10q-1 -16 -28 8q-33 29 -32 50q2 30 40.5 76.5t100 93t153.5 77.5t184 26q9 0 14 -1q3 -1 7 -2l53 -11
q-16 -14 -53.5 -162t-63 -304t-10.5 -186zM265 187q67 0 98 -10q25 111 54 229q-57 -89 -152 -219z" />
    <glyph glyph-name="Ccedilla" unicode="&#xc7;" horiz-adv-x="375" 
d="M253 332q68 0 98.5 44t30.5 111q0 49 -41 70q-73 -4 -166 -137q-89 -128 -127 -267q-39 -140 16 -168q11 -6 26 -6q37 0 79 17.5t75.5 42.5t62 50t44.5 43l16 17l24 -4q-7 -10 -19.5 -27t-50.5 -59t-75 -73t-87 -53.5t-92 -15.5q-96 15 -98 147q-2 128 78 288
q78 155 175 220q49 33 95 33q82 0 111 -80.5t-12 -161.5t-128 -81q-19 0 -32 6.5t-18 16t-7.5 19t-2 16t1.5 6.5q2 0 8 -7t15 -7zM349 557h1l17 -3q-9 3 -18 3z" />
    <glyph glyph-name="Egrave" unicode="&#xc8;" horiz-adv-x="420" 
d="M301 439l-1 -1q26 0 71 38.5t40 56.5v-3q-8 6 -31 6q-101 0 -177 -64q-63 -52 -59 -104q5 -60 102 -74q27 -4 59 -4q18 -27 5 -62q-14 -6 -21 -8q-19 -8 -37.5 -16t-48 -21.5t-54 -27.5t-51.5 -31.5t-44.5 -35.5t-28.5 -36.5t-8.5 -37.5t19.5 -36q42 -20 78 -21
q52 -1 104 26.5t87 62.5q8 8 8.5 18.5t1.5 11.5q2 3 14 -12t13.5 -36t-24.5 -51q-23 -23 -90 -51t-130 -26q-45 2 -71 25q-59 38 -56 134q1 27 37 63t80.5 65.5t95.5 56.5q-41 26 -67.5 67.5t-24.5 74.5q0 45 46 95.5t118.5 84.5t140.5 32q4 0 8 -2q11 0 28.5 -20t16.5 -49
q-1 -26 -42.5 -82.5t-77.5 -56.5q-16 0 -28.5 15t-17.5 29.5t-4 14.5q13 -8 21 -8zM312 845h-1q11 -11 20 -34.5t11.5 -49t-7.5 -46t-34 -23.5q-35 82 -58 109q-11 13 1 29.5t31.5 21.5t36.5 -7z" />
    <glyph glyph-name="Eacute" unicode="&#xc9;" horiz-adv-x="420" 
d="M301 439l-1 -1q26 0 71 38.5t40 56.5v-3q-8 6 -31 6q-101 0 -177 -64q-63 -52 -59 -104q5 -60 102 -74q27 -4 59 -4q18 -27 5 -62q-14 -6 -21 -8q-19 -8 -37.5 -16t-48 -21.5t-54 -27.5t-51.5 -31.5t-44.5 -35.5t-28.5 -36.5t-8.5 -37.5t19.5 -36q42 -20 78 -21
q52 -1 104 26.5t87 62.5q8 8 8.5 18.5t1.5 11.5q2 3 14 -12t13.5 -36t-24.5 -51q-23 -23 -90 -51t-130 -26q-45 2 -71 25q-59 38 -56 134q1 27 37 63t80.5 65.5t95.5 56.5q-41 26 -67.5 67.5t-24.5 74.5q0 45 46 95.5t118.5 84.5t140.5 32q4 0 8 -2q11 0 28.5 -20t16.5 -49
q-1 -26 -42.5 -82.5t-77.5 -56.5q-16 0 -28.5 15t-17.5 29.5t-4 14.5q13 -8 21 -8zM323 838h-1q17 12 36.5 7t31.5 -21.5t1 -29.5q-10 -12 -24.5 -39t-24.5 -49l-9 -21q-24 3 -34 23.5t-7.5 46t11.5 49t20 34.5z" />
    <glyph glyph-name="Ecircumflex" unicode="&#xca;" horiz-adv-x="420" 
d="M301 439l-1 -1q26 0 71 38.5t40 56.5v-3q-8 6 -31 6q-101 0 -177 -64q-63 -52 -59 -104q5 -60 102 -74q27 -4 59 -4q18 -27 5 -62q-14 -6 -21 -8q-19 -8 -37.5 -16t-48 -21.5t-54 -27.5t-51.5 -31.5t-44.5 -35.5t-28.5 -36.5t-8.5 -37.5t19.5 -36q42 -20 78 -21
q52 -1 104 26.5t87 62.5q8 8 8.5 18.5t1.5 11.5q2 3 14 -12t13.5 -36t-24.5 -51q-23 -23 -90 -51t-130 -26q-45 2 -71 25q-59 38 -56 134q1 27 37 63t80.5 65.5t95.5 56.5q-41 26 -67.5 67.5t-24.5 74.5q0 45 46 95.5t118.5 84.5t140.5 32q4 0 8 -2q11 0 28.5 -20t16.5 -49
q-1 -26 -42.5 -82.5t-77.5 -56.5q-16 0 -28.5 15t-17.5 29.5t-4 14.5q13 -8 21 -8zM351 874h-2q18 -112 40 -186q-24 5 -66 126q-60 -134 -81 -139q-12 -3 -24 -3t-18 2l-5 1q11 8 62.5 91t53.5 96q19 4 34 7z" />
    <glyph glyph-name="Edieresis" unicode="&#xcb;" horiz-adv-x="420" 
d="M301 439l-1 -1q26 0 71 38.5t40 56.5v-3q-8 6 -31 6q-101 0 -177 -64q-63 -52 -59 -104q5 -60 102 -74q27 -4 59 -4q18 -27 5 -62q-14 -6 -21 -8q-19 -8 -37.5 -16t-48 -21.5t-54 -27.5t-51.5 -31.5t-44.5 -35.5t-28.5 -36.5t-8.5 -37.5t19.5 -36q42 -20 78 -21
q52 -1 104 26.5t87 62.5q8 8 8.5 18.5t1.5 11.5q2 3 14 -12t13.5 -36t-24.5 -51q-23 -23 -90 -51t-130 -26q-45 2 -71 25q-59 38 -56 134q1 27 37 63t80.5 65.5t95.5 56.5q-41 26 -67.5 67.5t-24.5 74.5q0 45 46 95.5t118.5 84.5t140.5 32q4 0 8 -2q11 0 28.5 -20t16.5 -49
q-1 -26 -42.5 -82.5t-77.5 -56.5q-16 0 -28.5 15t-17.5 29.5t-4 14.5q13 -8 21 -8zM219 752l1 -2q6 -1 15.5 -2.5t24 -11.5t11.5 -26q-4 -26 -46 -27q-26 0 -24 7q12 22 18 62zM381 750l1 -2q6 -1 15.5 -2.5t24 -11.5t11.5 -26q-4 -26 -46 -27q-26 0 -24 7q12 22 18 62z" />
    <glyph glyph-name="Igrave" unicode="&#xcc;" horiz-adv-x="238" 
d="M210 584l-1 -1q49 0 56.5 -48t-17.5 -128.5t-57 -166.5t-61 -181t-30 -154q0 -1 1 -4t1.5 -5.5t-0.5 -4.5q-22 0 -38.5 10.5t-16.5 27.5q0 48 43.5 183.5t85 262t37.5 158.5q-52 -1 -120.5 -23.5t-134 -59t-110.5 -93.5t-45 -119q0 -1 2.5 -4t2.5 -4q0 -13 -27 8
q-33 27 -34 48q0 30 36.5 78.5t95.5 98t149 85.5t182 36zM185 828h-1q11 -11 20 -34.5t11.5 -49t-7.5 -46t-34 -23.5q-35 82 -58 109q-11 13 1 29.5t31.5 21.5t36.5 -7z" />
    <glyph glyph-name="Iacute" unicode="&#xcd;" horiz-adv-x="238" 
d="M210 584l-1 -1q49 0 56.5 -48t-17.5 -128.5t-57 -166.5t-61 -181t-30 -154q0 -1 1 -4t1.5 -5.5t-0.5 -4.5q-22 0 -38.5 10.5t-16.5 27.5q0 48 43.5 183.5t85 262t37.5 158.5q-52 -1 -120.5 -23.5t-134 -59t-110.5 -93.5t-45 -119q0 -1 2.5 -4t2.5 -4q0 -13 -27 8
q-33 27 -34 48q0 30 36.5 78.5t95.5 98t149 85.5t182 36zM196 821h-1q17 12 36.5 7t31.5 -21.5t1 -29.5q-10 -12 -24.5 -39.5t-23.5 -48.5l-10 -21q-24 3 -34 23.5t-7.5 46t11.5 49t20 34.5z" />
    <glyph glyph-name="Icircumflex" unicode="&#xce;" horiz-adv-x="238" 
d="M210 584l-1 -1q49 0 56.5 -48t-17.5 -128.5t-57 -166.5t-61 -181t-30 -154q0 -1 1 -4t1.5 -5.5t-0.5 -4.5q-22 0 -38.5 10.5t-16.5 27.5q0 48 43.5 183.5t85 262t37.5 158.5q-52 -1 -120.5 -23.5t-134 -59t-110.5 -93.5t-45 -119q0 -1 2.5 -4t2.5 -4q0 -13 -27 8
q-33 27 -34 48q0 30 36.5 78.5t95.5 98t149 85.5t182 36zM224 857h-2q18 -112 40 -186q-24 5 -66 126q-60 -134 -81 -139q-12 -3 -24 -3t-17 1l-6 2q11 8 62.5 91t53.5 96q19 4 34 7z" />
    <glyph glyph-name="Idieresis" unicode="&#xcf;" horiz-adv-x="238" 
d="M210 584l-1 -1q49 0 56.5 -48t-17.5 -128.5t-57 -166.5t-61 -181t-30 -154q0 -1 1 -4t1.5 -5.5t-0.5 -4.5q-22 0 -38.5 10.5t-16.5 27.5q0 48 43.5 183.5t85 262t37.5 158.5q-52 -1 -120.5 -23.5t-134 -59t-110.5 -93.5t-45 -119q0 -1 2.5 -4t2.5 -4q0 -13 -27 8
q-33 27 -34 48q0 30 36.5 78.5t95.5 98t149 85.5t182 36zM92 735l1 -2q6 -1 15.5 -2.5t24 -11.5t11.5 -26q-4 -26 -46 -27q-26 0 -24 7q12 22 18 62zM254 733l1 -2q6 -1 15.5 -2.5t24 -11.5t11.5 -26q-4 -26 -46 -27q-26 0 -24 7q12 22 18 62z" />
    <glyph glyph-name="Ntilde" unicode="&#xd1;" horiz-adv-x="522" 
d="M539 480q17 -23 12 -28q-26 -26 -107.5 -276t-59.5 -272q-63 0 -63 48q0 49 53 200t108 288q-97 -87 -236.5 -256t-168.5 -246v-12q0 -1 1 -4t1 -5.5t-1 -4.5h-6v0q-20 2 -33.5 12.5t-13.5 26.5q0 65 48.5 197.5t95.5 250.5t45 150q-51 1 -122 -20t-138.5 -56.5
t-114.5 -90t-47 -113.5q0 -1 2.5 -4t2.5 -4q-1 -14 -28 9q-33 28 -32 49q1 23 24.5 58.5t68.5 75t101 73.5t130.5 55t149.5 18q29 -1 43 -17.5t12.5 -47t-10 -66.5t-27 -86t-36.5 -94t-41 -101.5t-37 -98.5q52 85 150 192.5t169 173t76 65.5q6 0 18.5 -18t10.5 -21zM467 640
q29 -54 -29 -77q-52 0 -92.5 8t-55.5 8q-29 0 -47 -7.5t-24 -14t-19 -25.5q-24 23 -4.5 55t61.5 32q25 0 70.5 -10t77 -5t62.5 36z" />
    <glyph glyph-name="Ograve" unicode="&#xd2;" 
d="M475 475l-2 -1q10 -28 10 -76q0 -32 -19 -91t-57 -130.5t-85.5 -135t-113.5 -106.5t-133 -43q-35 0 -58.5 12t-33 31.5t-13 36.5t-2.5 36q0 59 20 114.5t47 90.5t50.5 56t33.5 21q42 8 74 -24q-43 0 -86 -47t-64 -120t-5 -140q12 -5 21 -5q47 0 101.5 32.5t102 83.5
t85.5 116t57 128.5t12 123.5t-44 97q-60 0 -111.5 -12.5t-86.5 -33t-62.5 -46t-42.5 -52.5t-21.5 -52t-4.5 -44.5t12 -29.5q0 -16 -16.5 -22.5t-27.5 3.5q-21 21 -24 55.5t10.5 72.5t42.5 76.5t67 69.5t90 50.5t106 19.5q46 0 80.5 -13t52.5 -34t26 -36.5t12 -31.5zM312 828
h-1q11 -11 20 -34.5t11.5 -49t-7.5 -46t-34 -23.5q-35 82 -58 109q-11 13 1 29.5t31.5 21.5t36.5 -7z" />
    <glyph glyph-name="Oacute" unicode="&#xd3;" 
d="M475 475l-2 -1q10 -28 10 -76q0 -32 -19 -91t-57 -130.5t-85.5 -135t-113.5 -106.5t-133 -43q-35 0 -58.5 12t-33 31.5t-13 36.5t-2.5 36q0 59 20 114.5t47 90.5t50.5 56t33.5 21q42 8 74 -24q-43 0 -86 -47t-64 -120t-5 -140q12 -5 21 -5q47 0 101.5 32.5t102 83.5
t85.5 116t57 128.5t12 123.5t-44 97q-60 0 -111.5 -12.5t-86.5 -33t-62.5 -46t-42.5 -52.5t-21.5 -52t-4.5 -44.5t12 -29.5q0 -16 -16.5 -22.5t-27.5 3.5q-21 21 -24 55.5t10.5 72.5t42.5 76.5t67 69.5t90 50.5t106 19.5q46 0 80.5 -13t52.5 -34t26 -36.5t12 -31.5zM323 821
h-1q17 12 36.5 7t31.5 -21.5t1 -29.5q-10 -12 -24.5 -39.5t-24.5 -48.5l-9 -21q-24 3 -34 23.5t-7.5 46t11.5 49t20 34.5z" />
    <glyph glyph-name="Ocircumflex" unicode="&#xd4;" 
d="M475 475l-2 -1q10 -28 10 -76q0 -32 -19 -91t-57 -130.5t-85.5 -135t-113.5 -106.5t-133 -43q-35 0 -58.5 12t-33 31.5t-13 36.5t-2.5 36q0 59 20 114.5t47 90.5t50.5 56t33.5 21q42 8 74 -24q-43 0 -86 -47t-64 -120t-5 -140q12 -5 21 -5q47 0 101.5 32.5t102 83.5
t85.5 116t57 128.5t12 123.5t-44 97q-60 0 -111.5 -12.5t-86.5 -33t-62.5 -46t-42.5 -52.5t-21.5 -52t-4.5 -44.5t12 -29.5q0 -16 -16.5 -22.5t-27.5 3.5q-21 21 -24 55.5t10.5 72.5t42.5 76.5t67 69.5t90 50.5t106 19.5q46 0 80.5 -13t52.5 -34t26 -36.5t12 -31.5zM351 857
h-2q18 -112 40 -186q-24 5 -66 126q-60 -134 -81 -139q-12 -3 -24 -3t-18 1l-5 2q11 8 62.5 91t53.5 96q19 4 34 7z" />
    <glyph glyph-name="Otilde" unicode="&#xd5;" 
d="M475 475l-2 -1q10 -28 10 -76q0 -32 -19 -91t-57 -130.5t-85.5 -135t-113.5 -106.5t-133 -43q-35 0 -58.5 12t-33 31.5t-13 36.5t-2.5 36q0 59 20 114.5t47 90.5t50.5 56t33.5 21q42 8 74 -24q-43 0 -86 -47t-64 -120t-5 -140q12 -5 21 -5q47 0 101.5 32.5t102 83.5
t85.5 116t57 128.5t12 123.5t-44 97q-60 0 -111.5 -12.5t-86.5 -33t-62.5 -46t-42.5 -52.5t-21.5 -52t-4.5 -44.5t12 -29.5q0 -16 -16.5 -22.5t-27.5 3.5q-21 21 -24 55.5t10.5 72.5t42.5 76.5t67 69.5t90 50.5t106 19.5q46 0 80.5 -13t52.5 -34t26 -36.5t12 -31.5zM453 736
q29 -54 -29 -77q-52 0 -92.5 8t-55.5 8q-29 0 -47 -7.5t-24 -14t-19 -25.5q-24 23 -4.5 55t61.5 32q25 0 70.5 -10t77 -5t62.5 36z" />
    <glyph glyph-name="Odieresis" unicode="&#xd6;" 
d="M475 475l-2 -1q10 -28 10 -76q0 -32 -19 -91t-57 -130.5t-85.5 -135t-113.5 -106.5t-133 -43q-35 0 -58.5 12t-33 31.5t-13 36.5t-2.5 36q0 59 20 114.5t47 90.5t50.5 56t33.5 21q42 8 74 -24q-43 0 -86 -47t-64 -120t-5 -140q12 -5 21 -5q47 0 101.5 32.5t102 83.5
t85.5 116t57 128.5t12 123.5t-44 97q-60 0 -111.5 -12.5t-86.5 -33t-62.5 -46t-42.5 -52.5t-21.5 -52t-4.5 -44.5t12 -29.5q0 -16 -16.5 -22.5t-27.5 3.5q-21 21 -24 55.5t10.5 72.5t42.5 76.5t67 69.5t90 50.5t106 19.5q46 0 80.5 -13t52.5 -34t26 -36.5t12 -31.5zM219 735
l1 -2q6 -1 15.5 -2.5t24 -11.5t11.5 -26q-4 -26 -46 -27q-26 0 -24 7q12 22 18 62zM381 733l1 -2q6 -1 15.5 -2.5t24 -11.5t11.5 -26q-4 -26 -46 -27q-26 0 -24 7q12 22 18 62z" />
    <glyph glyph-name="multiply" unicode="&#xd7;" horiz-adv-x="277" 
d="M280 483l-2 -3q25 -6 28 -19q0 -4 -2 -5q-33 7 -132 -70q89 -120 80 -157q-6 -25 -19 -28q-4 0 -5 2q4 18 -21.5 62.5t-67.5 93.5q-51 -45 -84 -87t-30 -65q0 -1 1 -3t0.5 -4t-3.5 -4l-13 13t-20 28.5t-8 34.5q3 11 41.5 47t87.5 74q-89 96 -130 92q-1 0 -3 -1t-4 -0.5
t-4 3.5l13 13t28.5 20t34.5 8q9 -2 39.5 -33.5t63.5 -73.5q97 70 131 62z" />
    <glyph glyph-name="Ugrave" unicode="&#xd9;" 
d="M425 560v-1q22 -7 34.5 -13t25.5 -18.5t13 -28.5v0q-2 -33 -52 -148q-44 -149 -74 -291t-14 -156q-63 -5 -67 43q-3 40 29 164q-128 -209 -208 -209q-34 0 -50 31t-13 84.5t12.5 111.5t29 127t34 114t30.5 89q1 3 3 7.5t7 16.5t9 23t7 22.5t2.5 18t-5.5 6.5
q-63 0 -156.5 -45.5t-168 -115.5t-83.5 -129q-1 -3 1.5 -9t2.5 -8q0 -15 -28 8q-34 29 -34 50q0 30 36.5 78.5t95.5 98t149 85.5t182 36q35 0 53 -38t-3 -116q-159 -481 -114 -499q29 -11 106 117t142.5 282t65.5 212zM306 777h-1q11 -11 20 -34.5t11.5 -49t-7.5 -46
t-34 -23.5q-35 82 -58 109q-11 13 1 29.5t31.5 21.5t36.5 -7z" />
    <glyph glyph-name="Uacute" unicode="&#xda;" 
d="M425 560v-1q22 -7 34.5 -13t25.5 -18.5t13 -28.5v0q-2 -33 -52 -148q-44 -149 -74 -291t-14 -156q-63 -5 -67 43q-3 40 29 164q-128 -209 -208 -209q-34 0 -50 31t-13 84.5t12.5 111.5t29 127t34 114t30.5 89q1 3 3 7.5t7 16.5t9 23t7 22.5t2.5 18t-5.5 6.5
q-63 0 -156.5 -45.5t-168 -115.5t-83.5 -129q-1 -3 1.5 -9t2.5 -8q0 -15 -28 8q-34 29 -34 50q0 30 36.5 78.5t95.5 98t149 85.5t182 36q35 0 53 -38t-3 -116q-159 -481 -114 -499q29 -11 106 117t142.5 282t65.5 212zM317 770h-1q17 12 36.5 7t31.5 -21.5t1 -29.5
q-10 -12 -24.5 -39t-24.5 -49l-9 -21q-24 3 -34 23.5t-7.5 46t11.5 49t20 34.5z" />
    <glyph glyph-name="Ucircumflex" unicode="&#xdb;" 
d="M425 560v-1q22 -7 34.5 -13t25.5 -18.5t13 -28.5v0q-2 -33 -52 -148q-44 -149 -74 -291t-14 -156q-63 -5 -67 43q-3 40 29 164q-128 -209 -208 -209q-34 0 -50 31t-13 84.5t12.5 111.5t29 127t34 114t30.5 89q1 3 3 7.5t7 16.5t9 23t7 22.5t2.5 18t-5.5 6.5
q-63 0 -156.5 -45.5t-168 -115.5t-83.5 -129q-1 -3 1.5 -9t2.5 -8q0 -15 -28 8q-34 29 -34 50q0 30 36.5 78.5t95.5 98t149 85.5t182 36q35 0 53 -38t-3 -116q-159 -481 -114 -499q29 -11 106 117t142.5 282t65.5 212zM345 806h-2q18 -112 40 -186q-24 5 -66 126
q-60 -134 -81 -139q-12 -3 -24 -3t-18 2l-5 1q11 8 62.5 91t53.5 96q19 4 34 7z" />
    <glyph glyph-name="Udieresis" unicode="&#xdc;" 
d="M425 560v-1q22 -7 34.5 -13t25.5 -18.5t13 -28.5v0q-2 -33 -52 -148q-44 -149 -74 -291t-14 -156q-63 -5 -67 43q-3 40 29 164q-128 -209 -208 -209q-34 0 -50 31t-13 84.5t12.5 111.5t29 127t34 114t30.5 89q1 3 3 7.5t7 16.5t9 23t7 22.5t2.5 18t-5.5 6.5
q-63 0 -156.5 -45.5t-168 -115.5t-83.5 -129q-1 -3 1.5 -9t2.5 -8q0 -15 -28 8q-34 29 -34 50q0 30 36.5 78.5t95.5 98t149 85.5t182 36q35 0 53 -38t-3 -116q-159 -481 -114 -499q29 -11 106 117t142.5 282t65.5 212zM213 684l1 -2q6 -1 15.5 -2.5t24 -11.5t11.5 -26
q-4 -26 -46 -27q-26 0 -24 7q12 22 18 62zM375 682l1 -2q6 -1 15.5 -2.5t24 -11.5t11.5 -26q-4 -26 -46 -27q-26 0 -24 7q12 22 18 62z" />
    <glyph glyph-name="Yacute" unicode="&#xdd;" horiz-adv-x="531" 
d="M557 493v-1v-4v-7q0 -15 -14 -74.5t-39.5 -146.5t-65.5 -182t-87 -177t-111 -135.5t-130 -53.5q-27 0 -45.5 11t-24.5 26.5t-8.5 31.5t-1.5 27l2 11q1 -3 6 -8t35.5 -13.5t78.5 -8.5q43 0 88 49.5t86 133.5t72.5 167t60.5 177q-84 -123 -171.5 -228t-112.5 -105
q0 -7 -10 0q-17 3 -17 15q-34 40 -34 70q0 15 30.5 102t74.5 205.5t60 166.5q-69 -20 -144.5 -65t-132 -104t-64.5 -110q-1 -3 1.5 -9t2.5 -8q0 -15 -28 8q-34 29 -34 50q0 28 32 73t84.5 92t133 84.5t164.5 46.5q24 3 49 3h29q-145 -382 -187 -553q62 67 181 239t119 211
v65q3 -1 8 -2t17 -7t21.5 -13t17.5 -20.5t8 -29.5zM407 770h-1q17 12 36.5 7t31.5 -21.5t1 -29.5q-10 -12 -24.5 -39t-24.5 -49l-9 -21q-24 3 -34 23.5t-7.5 46t11.5 49t20 34.5z" />
    <glyph glyph-name="agrave" unicode="&#xe0;" horiz-adv-x="300" 
d="M307 213l20 1q-3 -8 -9 -22t-23.5 -49.5t-35.5 -62.5t-43.5 -49t-48.5 -22q-61 0 -54 84q-43 -87 -90 -88q-35 0 -48 47q-2 10 -4 23q-7 50 16 120t64 122t80 53q24 1 43.5 -15.5t26.5 -37.5q21 31 30 31q14 0 26 -7t17 -13l6 -7q-19 -12 -51.5 -81.5t-46 -125.5t5.5 -65
q13 0 43 41t53 82zM131 172h1q26 79 63 139q-21 19 -39 19q-28 0 -65.5 -54.5t-56.5 -118.5t-1 -86q14 -18 42.5 17t55.5 84zM160 622h-1q11 -11 20 -34.5t11.5 -49t-7.5 -46t-34 -23.5q-35 82 -58 109q-11 13 1 29.5t31.5 21.5t36.5 -7z" />
    <glyph glyph-name="aacute" unicode="&#xe1;" horiz-adv-x="300" 
d="M307 213l20 1q-3 -8 -9 -22t-23.5 -49.5t-35.5 -62.5t-43.5 -49t-48.5 -22q-61 0 -54 84q-43 -87 -90 -88q-35 0 -48 47q-2 10 -4 23q-7 50 16 120t64 122t80 53q24 1 43.5 -15.5t26.5 -37.5q21 31 30 31q14 0 26 -7t17 -13l6 -7q-19 -12 -51.5 -81.5t-46 -125.5t5.5 -65
q13 0 43 41t53 82zM131 172h1q26 79 63 139q-21 19 -39 19q-28 0 -65.5 -54.5t-56.5 -118.5t-1 -86q14 -18 42.5 17t55.5 84zM171 615h-1q17 12 36.5 7t31.5 -21.5t1 -29.5q-10 -12 -24.5 -39.5t-24.5 -48.5l-9 -21q-24 3 -34 23.5t-7.5 46t11.5 49t20 34.5z" />
    <glyph glyph-name="acircumflex" unicode="&#xe2;" horiz-adv-x="300" 
d="M307 213l20 1q-3 -8 -9 -22t-23.5 -49.5t-35.5 -62.5t-43.5 -49t-48.5 -22q-61 0 -54 84q-43 -87 -90 -88q-35 0 -48 47q-2 10 -4 23q-7 50 16 120t64 122t80 53q24 1 43.5 -15.5t26.5 -37.5q21 31 30 31q14 0 26 -7t17 -13l6 -7q-19 -12 -51.5 -81.5t-46 -125.5t5.5 -65
q13 0 43 41t53 82zM131 172h1q26 79 63 139q-21 19 -39 19q-28 0 -65.5 -54.5t-56.5 -118.5t-1 -86q14 -18 42.5 17t55.5 84zM199 651h-2q18 -112 40 -186q-24 5 -66 126q-60 -134 -81 -139q-12 -3 -24 -3t-18 1l-5 2q11 8 62.5 91t53.5 96q19 4 34 7z" />
    <glyph glyph-name="atilde" unicode="&#xe3;" horiz-adv-x="300" 
d="M307 213l20 1q-3 -8 -9 -22t-23.5 -49.5t-35.5 -62.5t-43.5 -49t-48.5 -22q-61 0 -54 84q-43 -87 -90 -88q-35 0 -48 47q-2 10 -4 23q-7 50 16 120t64 122t80 53q24 1 43.5 -15.5t26.5 -37.5q21 31 30 31q14 0 26 -7t17 -13l6 -7q-19 -12 -51.5 -81.5t-46 -125.5t5.5 -65
q13 0 43 41t53 82zM131 172h1q26 79 63 139q-21 19 -39 19q-28 0 -65.5 -54.5t-56.5 -118.5t-1 -86q14 -18 42.5 17t55.5 84zM301 530q29 -54 -29 -77q-52 0 -92.5 8t-55.5 8q-29 0 -47 -7.5t-24 -14t-19 -25.5q-24 23 -4.5 55t61.5 32q25 0 70.5 -10t77 -5t62.5 36z" />
    <glyph glyph-name="adieresis" unicode="&#xe4;" horiz-adv-x="300" 
d="M307 213l20 1q-3 -8 -9 -22t-23.5 -49.5t-35.5 -62.5t-43.5 -49t-48.5 -22q-61 0 -54 84q-43 -87 -90 -88q-35 0 -48 47q-2 10 -4 23q-7 50 16 120t64 122t80 53q24 1 43.5 -15.5t26.5 -37.5q21 31 30 31q14 0 26 -7t17 -13l6 -7q-19 -12 -51.5 -81.5t-46 -125.5t5.5 -65
q13 0 43 41t53 82zM131 172h1q26 79 63 139q-21 19 -39 19q-28 0 -65.5 -54.5t-56.5 -118.5t-1 -86q14 -18 42.5 17t55.5 84zM67 529l1 -2q6 -1 15.5 -2.5t24 -11.5t11.5 -26q-4 -26 -46 -27q-26 0 -24 7q12 22 18 62zM229 527l1 -2q6 -1 15.5 -2.5t24 -11.5t11.5 -26
q-4 -26 -46 -27q-26 0 -24 7q12 22 18 62z" />
    <glyph glyph-name="aring" unicode="&#xe5;" horiz-adv-x="300" 
d="M307 213l20 1q-3 -8 -9 -22t-23.5 -49.5t-35.5 -62.5t-43.5 -49t-48.5 -22q-61 0 -54 84q-43 -87 -90 -88q-35 0 -48 47q-2 10 -4 23q-7 50 16 120t64 122t80 53q24 1 43.5 -15.5t26.5 -37.5q21 31 30 31q14 0 26 -7t17 -13l6 -7q-19 -12 -51.5 -81.5t-46 -125.5t5.5 -65
q13 0 43 41t53 82zM131 172h1q26 79 63 139q-21 19 -39 19q-28 0 -65.5 -54.5t-56.5 -118.5t-1 -86q14 -18 42.5 17t55.5 84z" />
    <glyph glyph-name="ccedilla" unicode="&#xe7;" horiz-adv-x="237" 
d="M244 210l2 2h22q-13 -29 -44 -75t-79 -89.5t-87 -43.5q-49 0 -70.5 42t-12.5 98q8 48 31 97.5t64.5 88.5t89.5 39q43 0 54 -37q6 -23 -4 -29q-2 -1 -3 -1q-10 6 -42 6q-29 0 -55 -23.5t-42 -58t-25.5 -71t-7 -66t15.5 -39.5q27 0 57 16.5t53 40t42.5 47t30.5 40.5zM64 48
h2h-2z" />
    <glyph glyph-name="egrave" unicode="&#xe8;" horiz-adv-x="236" 
d="M244 210l2 4q0 -1 20 -1q-13 -29 -44 -75t-79 -89.5t-87 -43.5q-49 0 -70.5 42t-12.5 98q8 48 31 97.5t64.5 88.5t89.5 39q31 0 45 -20t10 -38v-2v-2q-6 -20 -16.5 -45t-38.5 -63.5t-60 -52.5q-18 -6 -30.5 -1t-19.5 15l-8 10q31 -3 73.5 45.5t61.5 91.5h-9
q-31 0 -64 -32.5t-53 -75t-20 -86.5t28 -64q27 2 56 19t51.5 40.5t41 46t28.5 38.5zM144 609h-1q11 -11 20 -34.5t11.5 -49t-7.5 -46t-34 -23.5q-35 82 -58 109q-11 13 1 29.5t31.5 21.5t36.5 -7z" />
    <glyph glyph-name="eacute" unicode="&#xe9;" horiz-adv-x="236" 
d="M244 210l2 4q0 -1 20 -1q-13 -29 -44 -75t-79 -89.5t-87 -43.5q-49 0 -70.5 42t-12.5 98q8 48 31 97.5t64.5 88.5t89.5 39q31 0 45 -20t10 -38v-2v-2q-6 -20 -16.5 -45t-38.5 -63.5t-60 -52.5q-18 -6 -30.5 -1t-19.5 15l-8 10q31 -3 73.5 45.5t61.5 91.5h-9
q-31 0 -64 -32.5t-53 -75t-20 -86.5t28 -64q27 2 56 19t51.5 40.5t41 46t28.5 38.5zM155 602h-1q17 12 36.5 7t31.5 -21.5t1 -29.5q-10 -12 -24.5 -39t-24.5 -49l-9 -21q-24 3 -34 23.5t-7.5 46t11.5 49t20 34.5z" />
    <glyph glyph-name="ecircumflex" unicode="&#xea;" horiz-adv-x="236" 
d="M244 210l2 4q0 -1 20 -1q-13 -29 -44 -75t-79 -89.5t-87 -43.5q-49 0 -70.5 42t-12.5 98q8 48 31 97.5t64.5 88.5t89.5 39q31 0 45 -20t10 -38v-2v-2q-6 -20 -16.5 -45t-38.5 -63.5t-60 -52.5q-18 -6 -30.5 -1t-19.5 15l-8 10q31 -3 73.5 45.5t61.5 91.5h-9
q-31 0 -64 -32.5t-53 -75t-20 -86.5t28 -64q27 2 56 19t51.5 40.5t41 46t28.5 38.5zM183 638h-2q18 -112 40 -186q-24 5 -66 126q-60 -134 -81 -139q-12 -3 -24 -3t-18 2l-5 1q11 8 62.5 91t53.5 96q19 4 34 7z" />
    <glyph glyph-name="edieresis" unicode="&#xeb;" horiz-adv-x="236" 
d="M244 210l2 4q0 -1 20 -1q-13 -29 -44 -75t-79 -89.5t-87 -43.5q-49 0 -70.5 42t-12.5 98q8 48 31 97.5t64.5 88.5t89.5 39q31 0 45 -20t10 -38v-2v-2q-6 -20 -16.5 -45t-38.5 -63.5t-60 -52.5q-18 -6 -30.5 -1t-19.5 15l-8 10q31 -3 73.5 45.5t61.5 91.5h-9
q-31 0 -64 -32.5t-53 -75t-20 -86.5t28 -64q27 2 56 19t51.5 40.5t41 46t28.5 38.5zM51 516l1 -2q6 -1 15.5 -2.5t24 -11.5t11.5 -26q-4 -26 -46 -27q-26 0 -24 7q12 22 18 62zM213 514l1 -2q6 -1 15.5 -2.5t24 -11.5t11.5 -26q-4 -26 -46 -27q-26 0 -24 7q12 22 18 62z" />
    <glyph glyph-name="igrave" unicode="&#xec;" horiz-adv-x="163" 
d="M160 379h-1q-18 0 -31.5 11t-14.5 38q0 12 9 27.5t17 22.5q7 6 30 -8t23 -21q-24 -28 -32 -70zM42 48h2q13 0 43 41t53 82l23 41h22q-3 -8 -9 -22t-23.5 -49.5t-35.5 -62.5t-43.5 -49t-48.5 -22q-77 0 -47 127q23 94 75 177q23 36 32 36q14 0 26 -6.5t17 -13.5l6 -7
q-19 -12 -51.5 -81.5t-46 -125.5t5.5 -65zM131 602h-1q11 -11 20 -34.5t11.5 -49t-7.5 -46t-34 -23.5q-35 82 -58 109q-11 13 1 29.5t31.5 21.5t36.5 -7z" />
    <glyph glyph-name="iacute" unicode="&#xed;" horiz-adv-x="163" 
d="M160 379h-1q-18 0 -31.5 11t-14.5 38q0 12 9 27.5t17 22.5q7 6 30 -8t23 -21q-24 -28 -32 -70zM42 48h2q13 0 43 41t53 82l23 41h22q-3 -8 -9 -22t-23.5 -49.5t-35.5 -62.5t-43.5 -49t-48.5 -22q-77 0 -47 127q23 94 75 177q23 36 32 36q14 0 26 -6.5t17 -13.5l6 -7
q-19 -12 -51.5 -81.5t-46 -125.5t5.5 -65zM142 595h-1q17 12 36.5 7t31.5 -21.5t1 -29.5q-10 -12 -24.5 -39t-23.5 -48l-10 -22q-24 3 -34 23.5t-7.5 46t11.5 49t20 34.5z" />
    <glyph glyph-name="icircumflex" unicode="&#xee;" horiz-adv-x="163" 
d="M160 379h-1q-18 0 -31.5 11t-14.5 38q0 12 9 27.5t17 22.5q7 6 30 -8t23 -21q-24 -28 -32 -70zM42 48h2q13 0 43 41t53 82l23 41h22q-3 -8 -9 -22t-23.5 -49.5t-35.5 -62.5t-43.5 -49t-48.5 -22q-77 0 -47 127q23 94 75 177q23 36 32 36q14 0 26 -6.5t17 -13.5l6 -7
q-19 -12 -51.5 -81.5t-46 -125.5t5.5 -65zM170 631h-2q18 -112 40 -186q-24 5 -66 126q-60 -134 -81 -139q-12 -3 -24 -3t-17 1l-6 2q11 8 62.5 91t53.5 96q19 4 34 7z" />
    <glyph glyph-name="idieresis" unicode="&#xef;" horiz-adv-x="163" 
d="M160 379h-1q-18 0 -31.5 11t-14.5 38q0 12 9 27.5t17 22.5q7 6 30 -8t23 -21q-24 -28 -32 -70zM42 48h2q13 0 43 41t53 82l23 41h22q-3 -8 -9 -22t-23.5 -49.5t-35.5 -62.5t-43.5 -49t-48.5 -22q-77 0 -47 127q23 94 75 177q23 36 32 36q14 0 26 -6.5t17 -13.5l6 -7
q-19 -12 -51.5 -81.5t-46 -125.5t5.5 -65zM38 509l1 -2q6 -1 15.5 -2.5t24 -11.5t11.5 -26q-4 -26 -46 -27q-26 0 -24 7q12 22 18 62zM200 507l1 -2q6 -1 15.5 -2.5t24 -11.5t11.5 -26q-4 -26 -46 -27q-26 0 -24 7q12 22 18 62z" />
    <glyph glyph-name="ntilde" unicode="&#xf1;" horiz-adv-x="323" 
d="M330 218l2 1h23q-3 -8 -9 -22t-23.5 -49.5t-35.5 -62.5t-43.5 -49t-48.5 -22q-36 0 -48.5 29.5t-3 74.5t27 90.5t39.5 85.5v0q-79 -63 -167 -243q-3 -7 -10 -21t-10 -21v-1q-1 -1 -11 0t-23 10t-15 21q-3 17 2 48q4 74 53 179.5t68 105.5q14 0 26 -7t17 -13l6 -7
q-19 -12 -53 -85t-50 -136q66 148 207 227v0l4 2v0q14 0 26 -6.5t18 -13.5l5 -7q-19 -12 -51.5 -81.5t-46 -125.5t5.5 -65q13 0 43 41t53 82zM320 541q29 -54 -29 -77q-52 0 -92.5 8t-55.5 8q-29 0 -47 -7.5t-24 -14t-19 -25.5q-24 23 -4.5 55t61.5 32q25 0 70.5 -10t77 -5
t62.5 36z" />
    <glyph glyph-name="ograve" unicode="&#xf2;" horiz-adv-x="273" 
d="M221 161l1 -2q20 4 40.5 14t31.5 17l10 8v-27q-38 -33 -95 -40q-12 -22 -19 -32q-27 -41 -58 -65q-38 -30 -80 -34q-29 -2 -47 10q-24 16 -32 61q-13 82 24 172q10 22 19 30q7 6 17 9q8 38 35 60q25 21 64 26q61 7 93 -29q20 -21 23 -55q3 -26 -6 -61q-8 -33 -21 -62z
M55 45l1 -1q59 11 106 88q-80 12 -114 72q-16 -57 -14 -97q2 -30 12 -48l4 -5q3 -6 5 -9zM176 156h-1q29 68 21.5 119t-36.5 67q-54 -7 -62.5 -57.5t29.5 -97.5q19 -24 49 -31zM155 629h-1q11 -11 20 -34.5t11.5 -49t-7.5 -46t-34 -23.5q-35 82 -58 109q-11 13 1 29.5
t31.5 21.5t36.5 -7z" />
    <glyph glyph-name="oacute" unicode="&#xf3;" horiz-adv-x="273" 
d="M221 161l1 -2q20 4 40.5 14t31.5 17l10 8v-27q-38 -33 -95 -40q-12 -22 -19 -32q-27 -41 -58 -65q-38 -30 -80 -34q-29 -2 -47 10q-24 16 -32 61q-13 82 24 172q10 22 19 30q7 6 17 9q8 38 35 60q25 21 64 26q61 7 93 -29q20 -21 23 -55q3 -26 -6 -61q-8 -33 -21 -62z
M55 45l1 -1q59 11 106 88q-80 12 -114 72q-16 -57 -14 -97q2 -30 12 -48l4 -5q3 -6 5 -9zM176 156h-1q29 68 21.5 119t-36.5 67q-54 -7 -62.5 -57.5t29.5 -97.5q19 -24 49 -31zM166 622h-1q17 12 36.5 7t31.5 -21.5t1 -29.5q-10 -12 -24.5 -39t-23.5 -49l-10 -21
q-24 3 -34 23.5t-7.5 46t11.5 49t20 34.5z" />
    <glyph glyph-name="ocircumflex" unicode="&#xf4;" horiz-adv-x="273" 
d="M221 161l1 -2q20 4 40.5 14t31.5 17l10 8v-27q-38 -33 -95 -40q-12 -22 -19 -32q-27 -41 -58 -65q-38 -30 -80 -34q-29 -2 -47 10q-24 16 -32 61q-13 82 24 172q10 22 19 30q7 6 17 9q8 38 35 60q25 21 64 26q61 7 93 -29q20 -21 23 -55q3 -26 -6 -61q-8 -33 -21 -62z
M55 45l1 -1q59 11 106 88q-80 12 -114 72q-16 -57 -14 -97q2 -30 12 -48l4 -5q3 -6 5 -9zM176 156h-1q29 68 21.5 119t-36.5 67q-54 -7 -62.5 -57.5t29.5 -97.5q19 -24 49 -31zM194 658h-2q18 -112 40 -186q-24 5 -66 126q-60 -134 -81 -139q-12 -3 -24 -3t-17 2l-6 1
q11 8 62.5 91t53.5 96q19 4 34 7z" />
    <glyph glyph-name="otilde" unicode="&#xf5;" horiz-adv-x="273" 
d="M221 161l1 -2q20 4 40.5 14t31.5 17l10 8v-27q-38 -33 -95 -40q-12 -22 -19 -32q-27 -41 -58 -65q-38 -30 -80 -34q-29 -2 -47 10q-24 16 -32 61q-13 82 24 172q10 22 19 30q7 6 17 9q8 38 35 60q25 21 64 26q61 7 93 -29q20 -21 23 -55q3 -26 -6 -61q-8 -33 -21 -62z
M55 45l1 -1q59 11 106 88q-80 12 -114 72q-16 -57 -14 -97q2 -30 12 -48l4 -5q3 -6 5 -9zM176 156h-1q29 68 21.5 119t-36.5 67q-54 -7 -62.5 -57.5t29.5 -97.5q19 -24 49 -31zM296 537q29 -54 -29 -77q-52 0 -92.5 8t-55.5 8q-29 0 -47 -7.5t-24 -14t-19 -25.5
q-24 23 -4.5 55t61.5 32q25 0 70.5 -10t77 -5t62.5 36z" />
    <glyph glyph-name="odieresis" unicode="&#xf6;" horiz-adv-x="273" 
d="M221 161l1 -2q20 4 40.5 14t31.5 17l10 8v-27q-38 -33 -95 -40q-12 -22 -19 -32q-27 -41 -58 -65q-38 -30 -80 -34q-29 -2 -47 10q-24 16 -32 61q-13 82 24 172q10 22 19 30q7 6 17 9q8 38 35 60q25 21 64 26q61 7 93 -29q20 -21 23 -55q3 -26 -6 -61q-8 -33 -21 -62z
M55 45l1 -1q59 11 106 88q-80 12 -114 72q-16 -57 -14 -97q2 -30 12 -48l4 -5q3 -6 5 -9zM176 156h-1q29 68 21.5 119t-36.5 67q-54 -7 -62.5 -57.5t29.5 -97.5q19 -24 49 -31zM62 536l1 -2q6 -1 15.5 -2.5t24 -11.5t11.5 -26q-4 -26 -46 -27q-26 0 -24 7q12 22 18 62z
M224 534l1 -2q6 -1 15.5 -2.5t24 -11.5t11.5 -26q-4 -26 -46 -27q-26 0 -24 7q12 22 18 62z" />
    <glyph glyph-name="ugrave" unicode="&#xf9;" horiz-adv-x="309" 
d="M316 208l25 1q-3 -8 -9 -22t-23.5 -49.5t-35.5 -62.5t-43.5 -49t-48.5 -22q-64 0 -53 90q-56 -90 -104 -90q-77 0 -43 136q24 101 79 190q23 37 32 37q14 0 26 -6.5t18 -13.5l5 -7q-19 -12 -53.5 -87.5t-49.5 -136.5t4 -71q25 0 112 150q21 57 48 103.5t38 46.5
q14 0 26 -6.5t18 -13.5l5 -7q-19 -12 -51.5 -82t-46 -126.5t5.5 -65.5q13 0 43 41t53 82zM184 596h-1q11 -11 20 -34.5t11.5 -49t-7.5 -46t-34 -23.5q-35 82 -58 109q-11 13 1 29.5t31.5 21.5t36.5 -7z" />
    <glyph glyph-name="uacute" unicode="&#xfa;" horiz-adv-x="309" 
d="M316 208l25 1q-3 -8 -9 -22t-23.5 -49.5t-35.5 -62.5t-43.5 -49t-48.5 -22q-64 0 -53 90q-56 -90 -104 -90q-77 0 -43 136q24 101 79 190q23 37 32 37q14 0 26 -6.5t18 -13.5l5 -7q-19 -12 -53.5 -87.5t-49.5 -136.5t4 -71q25 0 112 150q21 57 48 103.5t38 46.5
q14 0 26 -6.5t18 -13.5l5 -7q-19 -12 -51.5 -82t-46 -126.5t5.5 -65.5q13 0 43 41t53 82zM195 589h-1q17 12 36.5 7t31.5 -21.5t1 -29.5q-10 -12 -24.5 -39.5t-24.5 -48.5l-9 -21q-24 3 -34 23.5t-7.5 46t11.5 49t20 34.5z" />
    <glyph glyph-name="ucircumflex" unicode="&#xfb;" horiz-adv-x="309" 
d="M316 208l25 1q-3 -8 -9 -22t-23.5 -49.5t-35.5 -62.5t-43.5 -49t-48.5 -22q-64 0 -53 90q-56 -90 -104 -90q-77 0 -43 136q24 101 79 190q23 37 32 37q14 0 26 -6.5t18 -13.5l5 -7q-19 -12 -53.5 -87.5t-49.5 -136.5t4 -71q25 0 112 150q21 57 48 103.5t38 46.5
q14 0 26 -6.5t18 -13.5l5 -7q-19 -12 -51.5 -82t-46 -126.5t5.5 -65.5q13 0 43 41t53 82zM223 625h-2q18 -112 40 -186q-24 5 -66 126q-60 -134 -81 -139q-12 -3 -24 -3t-18 1l-5 2q11 8 62.5 91t53.5 96q19 4 34 7z" />
    <glyph glyph-name="udieresis" unicode="&#xfc;" horiz-adv-x="309" 
d="M316 208l25 1q-3 -8 -9 -22t-23.5 -49.5t-35.5 -62.5t-43.5 -49t-48.5 -22q-64 0 -53 90q-56 -90 -104 -90q-77 0 -43 136q24 101 79 190q23 37 32 37q14 0 26 -6.5t18 -13.5l5 -7q-19 -12 -53.5 -87.5t-49.5 -136.5t4 -71q25 0 112 150q21 57 48 103.5t38 46.5
q14 0 26 -6.5t18 -13.5l5 -7q-19 -12 -51.5 -82t-46 -126.5t5.5 -65.5q13 0 43 41t53 82zM91 503l1 -2q6 -1 15.5 -2.5t24 -11.5t11.5 -26q-4 -26 -46 -27q-26 0 -24 7q12 22 18 62zM253 501l1 -2q6 -1 15.5 -2.5t24 -11.5t11.5 -26q-4 -26 -46 -27q-26 0 -24 7q12 22 18 62
z" />
    <glyph glyph-name="yacute" unicode="&#xfd;" horiz-adv-x="261" 
d="M205 344l1 2q14 5 29.5 1.5t27.5 -11.5t8 -13q-8 -8 -22 -54l-21 -63q-10 -31 -24.5 -74.5t-25.5 -74.5q-42 -131 -67 -183q-71 -147 -152 -147q-10 0 -15 1q-20 4 -28 16q-7 11 -7 27l3 27q20 -13 44 -9q21 4 41 19q29 22 59 83q22 45 47 115q20 58 29 87
q-56 -90 -104 -90q-77 0 -43 136q24 101 79 190q23 37 32 37q14 0 26 -7t18 -13l5 -7q-19 -12 -53.5 -87.5t-49.5 -136.5t4 -71q29 0 116 158q2 8 3 13q16 60 25 90l9 27q3 10 6 12zM174 589h-1q17 12 36.5 7t31.5 -21.5t1 -29.5q-10 -12 -24.5 -39.5t-23.5 -48.5l-10 -21
q-24 3 -34 23.5t-7.5 46t11.5 49t20 34.5z" />
    <glyph glyph-name="Abreve" unicode="&#x102;" horiz-adv-x="480" 
d="M399 -78l-3 -1q2 -3 4.5 -6.5t3.5 -4.5l-3 -4h-8.5t-9.5 0.5t-10 1t-11 2t-10 3.5t-9.5 5.5t-7.5 8.5t-6.5 11t-4 14.5t-1.5 18.5q0 29 33 175q-45 7 -121 1q-143 -192 -172 -219q-17 -15 -40 -16.5t-38.5 7t-15.5 19.5q1 2 5.5 0.5t13.5 1t16 9.5q40 40 149 186
q-104 -21 -121 -52v-3q-1 -3 -2 -4.5t-5 -1.5q-16 62 8 83q18 16 157 27q172 235 249 355q-69 -1 -158 -33.5t-164.5 -94.5t-86.5 -133q-1 -4 1.5 -11t2.5 -10q-1 -16 -28 8q-33 29 -32 50q2 30 40.5 76.5t100 93t153.5 77.5t184 26q9 0 14 -1q3 -1 7 -2l53 -11
q-16 -14 -53.5 -162t-63 -304t-10.5 -186zM265 187q67 0 98 -10q25 111 54 229q-57 -89 -152 -219z" />
    <glyph glyph-name="abreve" unicode="&#x103;" horiz-adv-x="300" 
d="M307 213l20 1q-3 -8 -9 -22t-23.5 -49.5t-35.5 -62.5t-43.5 -49t-48.5 -22q-61 0 -54 84q-43 -87 -90 -88q-35 0 -48 47q-2 10 -4 23q-7 50 16 120t64 122t80 53q24 1 43.5 -15.5t26.5 -37.5q21 31 30 31q14 0 26 -7t17 -13l6 -7q-19 -12 -51.5 -81.5t-46 -125.5t5.5 -65
q13 0 43 41t53 82zM131 172h1q26 79 63 139q-21 19 -39 19q-28 0 -65.5 -54.5t-56.5 -118.5t-1 -86q14 -18 42.5 17t55.5 84z" />
    <glyph glyph-name="Cacute" unicode="&#x106;" horiz-adv-x="375" 
d="M253 332q68 0 98.5 44t30.5 111q0 49 -41 70q-73 -4 -166 -137q-89 -128 -127 -267q-39 -140 16 -168q11 -6 26 -6q37 0 79 17.5t75.5 42.5t62 50t44.5 43l16 17l24 -4q-7 -10 -19.5 -27t-50.5 -59t-75 -73t-87 -53.5t-92 -15.5q-96 15 -98 147q-2 128 78 288
q78 155 175 220q49 33 95 33q82 0 111 -80.5t-12 -161.5t-128 -81q-19 0 -32 6.5t-18 16t-7.5 19t-2 16t1.5 6.5q2 0 8 -7t15 -7zM349 557h1l17 -3q-9 3 -18 3zM306 821h-1q17 12 36.5 7t31.5 -21.5t1 -29.5q-10 -12 -24.5 -39.5t-23.5 -48.5l-10 -21q-24 3 -34 23.5
t-7.5 46t11.5 49t20 34.5z" />
    <glyph glyph-name="cacute" unicode="&#x107;" horiz-adv-x="237" 
d="M244 210l2 2h22q-13 -29 -44 -75t-79 -89.5t-87 -43.5q-49 0 -70.5 42t-12.5 98q8 48 31 97.5t64.5 88.5t89.5 39q43 0 54 -37q6 -23 -4 -29q-2 -1 -3 -1q-10 6 -42 6q-29 0 -55 -23.5t-42 -58t-25.5 -71t-7 -66t15.5 -39.5q27 0 57 16.5t53 40t42.5 47t30.5 40.5zM64 48
h2h-2zM152 618h-1q17 12 36.5 7t31.5 -21.5t1 -29.5q-10 -12 -24.5 -39t-23.5 -49l-10 -21q-24 3 -34 23.5t-7.5 46t11.5 49t20 34.5z" />
    <glyph glyph-name="Ccaron" unicode="&#x10c;" horiz-adv-x="375" 
d="M253 332q68 0 98.5 44t30.5 111q0 49 -41 70q-73 -4 -166 -137q-89 -128 -127 -267q-39 -140 16 -168q11 -6 26 -6q37 0 79 17.5t75.5 42.5t62 50t44.5 43l16 17l24 -4q-7 -10 -19.5 -27t-50.5 -59t-75 -73t-87 -53.5t-92 -15.5q-96 15 -98 147q-2 128 78 288
q78 155 175 220q49 33 95 33q82 0 111 -80.5t-12 -161.5t-128 -81q-19 0 -32 6.5t-18 16t-7.5 19t-2 16t1.5 6.5q2 0 8 -7t15 -7zM349 557h1l17 -3q-9 3 -18 3zM376 869l-1 -2q12 4 23.5 4.5t17.5 -0.5l6 -1q-10 -9 -57.5 -94.5t-48.5 -97.5q-7 -2 -14.5 -4t-11.5 -3.5
t-6 -1.5l-6 -5q-23 111 -49 184q24 -4 72 -123q55 138 75 144z" />
    <glyph glyph-name="ccaron" unicode="&#x10d;" horiz-adv-x="237" 
d="M244 210l2 2h22q-13 -29 -44 -75t-79 -89.5t-87 -43.5q-49 0 -70.5 42t-12.5 98q8 48 31 97.5t64.5 88.5t89.5 39q43 0 54 -37q6 -23 -4 -29q-2 -1 -3 -1q-10 6 -42 6q-29 0 -55 -23.5t-42 -58t-25.5 -71t-7 -66t15.5 -39.5q27 0 57 16.5t53 40t42.5 47t30.5 40.5zM64 48
h2h-2zM222 666l-1 -2q12 4 23.5 4.5t17.5 -0.5l6 -1q-10 -9 -57.5 -94.5t-48.5 -97.5q-7 -2 -14.5 -4t-11.5 -3.5t-6 -1.5l-6 -5q-23 111 -49 184q24 -4 72 -123q55 138 75 144z" />
    <glyph glyph-name="Dcaron" unicode="&#x10e;" horiz-adv-x="466" 
d="M296 437v-2q-54 -53 -116 -217t-62 -230q-14 0 -33 11t-19 27q0 64 69.5 242t105.5 194q23 11 48 -10q12 -10 7 -15zM325 611v1q110 0 138.5 -107.5t-31.5 -259.5q-64 -160 -183 -256q-88 -70 -184 -83q-15 -1 -28 0t-21.5 17t-8.5 49q0 4 3 4q1 -1 5 -4t8 -5.5t7 -2.5
q153 0 266 148q87 114 109 253q20 122 -26 169q-21 20 -50 20q-87 0 -183 -45t-160 -112t-64 -126q0 -3 1.5 -11t1.5 -11q0 -16 -27 5q-33 28 -35 50q0 23 22 60.5t65 80t98 80t128.5 62t148.5 24.5zM384 880l-1 -2q12 4 23.5 4.5t17.5 -0.5l6 -1q-10 -9 -57.5 -94.5
t-48.5 -97.5q-7 -2 -14.5 -4t-11.5 -3.5t-6 -1.5l-6 -5q-23 111 -49 184q24 -4 72 -123q55 138 75 144z" />
    <glyph glyph-name="dcaron" unicode="&#x10f;" horiz-adv-x="303" 
d="M352 510l-2 -1q-21 -13 -66 -100.5t-78.5 -193t-21.5 -152.5q22 6 53.5 42.5t52.5 70.5l21 33h21q-27 -54 -70 -113q-73 -101 -109 -94q-46 8 -32 105q-47 -102 -98 -103q-35 0 -48 47q-2 10 -4 23q-7 50 16 120t64 122t80 53q37 1 61 -34q33 82 66 142.5t44 60.5
q16 0 28.5 -7t17.5 -14zM136 179l-2 -1q16 59 47 138q-15 11 -27 11q-28 0 -65.5 -54.5t-56.5 -118.5t-1 -86q7 -5 14 -5t18 11.5t20.5 22.5t20.5 28.5t18 29t14 24.5z" />
    <glyph glyph-name="Dcroat" unicode="&#x110;" horiz-adv-x="466" 
d="M296 437v-2q-54 -53 -116 -217t-62 -230q-14 0 -33 11t-19 27q0 64 69.5 242t105.5 194q23 11 48 -10q12 -10 7 -15zM325 611v1q110 0 138.5 -107.5t-31.5 -259.5q-64 -160 -183 -256q-88 -70 -184 -83q-15 -1 -28 0t-21.5 17t-8.5 49q0 4 3 4q1 -1 5 -4t8 -5.5t7 -2.5
q153 0 266 148q87 114 109 253q20 122 -26 169q-21 20 -50 20q-87 0 -183 -45t-160 -112t-64 -126q0 -3 1.5 -11t1.5 -11q0 -16 -27 5q-33 28 -35 50q0 23 22 60.5t65 80t98 80t128.5 62t148.5 24.5z" />
    <glyph glyph-name="dcroat" unicode="&#x111;" horiz-adv-x="303" 
d="M352 510l-2 -1q-21 -13 -66 -100.5t-78.5 -193t-21.5 -152.5q22 6 53.5 42.5t52.5 70.5l21 33h21q-27 -54 -70 -113q-73 -101 -109 -94q-46 8 -32 105q-47 -102 -98 -103q-35 0 -48 47q-2 10 -4 23q-7 50 16 120t64 122t80 53q37 1 61 -34q33 82 66 142.5t44 60.5
q16 0 28.5 -7t17.5 -14zM136 179l-2 -1q16 59 47 138q-15 11 -27 11q-28 0 -65.5 -54.5t-56.5 -118.5t-1 -86q7 -5 14 -5t18 11.5t20.5 22.5t20.5 28.5t18 29t14 24.5zM336 386l-2 -1q18 -18 13 -31q-1 -2 -3 -2q-13 15 -68.5 13t-117.5 -11.5t-116 -30t-64 -42.5v-3.5
t-1 -4t-5 -1.5q-20 63 3 86q11 11 93 26t159.5 18.5t108.5 -16.5z" />
    <glyph glyph-name="Eogonek" unicode="&#x118;" horiz-adv-x="420" 
d="M301 439l-1 -1q26 0 71 38.5t40 56.5v-3q-8 6 -31 6q-101 0 -177 -64q-63 -52 -59 -104q5 -60 102 -74q27 -4 59 -4q18 -27 5 -62q-14 -6 -21 -8q-19 -8 -37.5 -16t-48 -21.5t-54 -27.5t-51.5 -31.5t-44.5 -35.5t-28.5 -36.5t-8.5 -37.5t19.5 -36q42 -20 78 -21
q52 -1 104 26.5t87 62.5q8 8 8.5 18.5t1.5 11.5q2 3 14 -12t13.5 -36t-24.5 -51q-23 -23 -90 -51t-130 -26q-45 2 -71 25q-59 38 -56 134q1 27 37 63t80.5 65.5t95.5 56.5q-41 26 -67.5 67.5t-24.5 74.5q0 45 46 95.5t118.5 84.5t140.5 32q4 0 8 -2q11 0 28.5 -20t16.5 -49
q-1 -26 -42.5 -82.5t-77.5 -56.5q-16 0 -28.5 15t-17.5 29.5t-4 14.5q13 -8 21 -8z" />
    <glyph glyph-name="eogonek" unicode="&#x119;" horiz-adv-x="236" 
d="M244 210l2 4q0 -1 20 -1q-13 -29 -44 -75t-79 -89.5t-87 -43.5q-49 0 -70.5 42t-12.5 98q8 48 31 97.5t64.5 88.5t89.5 39q31 0 45 -20t10 -38v-2v-2q-6 -20 -16.5 -45t-38.5 -63.5t-60 -52.5q-18 -6 -30.5 -1t-19.5 15l-8 10q31 -3 73.5 45.5t61.5 91.5h-9
q-31 0 -64 -32.5t-53 -75t-20 -86.5t28 -64q27 2 56 19t51.5 40.5t41 46t28.5 38.5z" />
    <glyph glyph-name="Ecaron" unicode="&#x11a;" horiz-adv-x="420" 
d="M301 439l-1 -1q26 0 71 38.5t40 56.5v-3q-8 6 -31 6q-101 0 -177 -64q-63 -52 -59 -104q5 -60 102 -74q27 -4 59 -4q18 -27 5 -62q-14 -6 -21 -8q-19 -8 -37.5 -16t-48 -21.5t-54 -27.5t-51.5 -31.5t-44.5 -35.5t-28.5 -36.5t-8.5 -37.5t19.5 -36q42 -20 78 -21
q52 -1 104 26.5t87 62.5q8 8 8.5 18.5t1.5 11.5q2 3 14 -12t13.5 -36t-24.5 -51q-23 -23 -90 -51t-130 -26q-45 2 -71 25q-59 38 -56 134q1 27 37 63t80.5 65.5t95.5 56.5q-41 26 -67.5 67.5t-24.5 74.5q0 45 46 95.5t118.5 84.5t140.5 32q4 0 8 -2q11 0 28.5 -20t16.5 -49
q-1 -26 -42.5 -82.5t-77.5 -56.5q-16 0 -28.5 15t-17.5 29.5t-4 14.5q13 -8 21 -8zM393 886l-1 -2q12 4 23.5 4.5t17.5 -0.5l6 -1q-10 -9 -57.5 -94.5t-48.5 -97.5q-7 -2 -14.5 -4t-11.5 -3.5t-6 -1.5l-6 -5q-23 111 -49 184q24 -4 72 -123q55 138 75 144z" />
    <glyph glyph-name="ecaron" unicode="&#x11b;" horiz-adv-x="236" 
d="M244 210l2 4q0 -1 20 -1q-13 -29 -44 -75t-79 -89.5t-87 -43.5q-49 0 -70.5 42t-12.5 98q8 48 31 97.5t64.5 88.5t89.5 39q31 0 45 -20t10 -38v-2v-2q-6 -20 -16.5 -45t-38.5 -63.5t-60 -52.5q-18 -6 -30.5 -1t-19.5 15l-8 10q31 -3 73.5 45.5t61.5 91.5h-9
q-31 0 -64 -32.5t-53 -75t-20 -86.5t28 -64q27 2 56 19t51.5 40.5t41 46t28.5 38.5zM225 650l-1 -2q12 4 24 4.5t18 -0.5l5 -1q-10 -9 -57.5 -94.5t-48.5 -97.5q-7 -2 -14.5 -4t-11.5 -3.5t-6 -1.5l-6 -5q-23 111 -49 184q24 -4 72 -123q55 138 75 144z" />
    <glyph glyph-name="Lacute" unicode="&#x139;" horiz-adv-x="387" 
d="M508 572l-2 -2q0 -89 -119 -196t-228 -133q-98 -196 -82 -280q72 15 166 11.5t123 -32.5q4 -4 4 -15t-2 -19l-2 -9q-60 23 -153 23q-50 0 -91.5 -6.5t-66 -16t-41.5 -18.5t-24 -15l-6 -7q-4 4 -9 11t-5.5 27t15.5 36q10 10 49 20q-6 14 -6 37q0 116 61 259q-8 8 -11 22.5
t-2 24.5l1 10q11 -11 32 -14q68 142 161 249t148 107q28 0 48.5 -11t27.5 -21l6 -11q8 -11 8 -31zM446 608l1 1q-51 -20 -121 -106.5t-133 -198.5q95 38 175.5 126t77.5 178zM413 874h-1q17 12 36.5 7t31.5 -21.5t1 -29.5q-10 -12 -24.5 -39t-24.5 -49l-9 -21
q-24 3 -34 23.5t-7.5 46t11.5 49t20 34.5z" />
    <glyph glyph-name="lacute" unicode="&#x13a;" horiz-adv-x="153" 
d="M36 64q22 6 53.5 42.5t52.5 69.5l21 34h21q-27 -54 -70 -113q-73 -101 -109 -94q-30 6 -34 50t13 109t42 131.5t54 128.5q18 39 41.5 77t29.5 38q16 0 28.5 -7t16.5 -14l5 -7q-5 -3 -27.5 -38t-28.5 -47q-50 -95 -86 -203t-23 -157zM198 786h-1q17 12 36.5 7t31.5 -21.5
t1 -29.5q-10 -12 -24.5 -39t-23.5 -49l-10 -21q-24 3 -34 23.5t-7.5 46t11.5 49t20 34.5z" />
    <glyph glyph-name="Nacute" unicode="&#x143;" horiz-adv-x="522" 
d="M539 480q17 -23 12 -28q-26 -26 -107.5 -276t-59.5 -272q-63 0 -63 48q0 49 53 200t108 288q-97 -87 -236.5 -256t-168.5 -246v-12q0 -1 1 -4t1 -5.5t-1 -4.5h-6v0q-20 2 -33.5 12.5t-13.5 26.5q0 65 48.5 197.5t95.5 250.5t45 150q-51 1 -122 -20t-138.5 -56.5
t-114.5 -90t-47 -113.5q0 -1 2.5 -4t2.5 -4q-1 -14 -28 9q-33 28 -32 49q1 23 24.5 58.5t68.5 75t101 73.5t130.5 55t149.5 18q29 -1 43 -17.5t12.5 -47t-10 -66.5t-27 -86t-36.5 -94t-41 -101.5t-37 -98.5q52 85 150 192.5t169 173t76 65.5q6 0 18.5 -18t10.5 -21zM337 725
h-1q17 12 36.5 7t31.5 -21.5t1 -29.5q-10 -12 -24.5 -39.5t-24.5 -48.5l-9 -21q-24 3 -34 23.5t-7.5 46t11.5 49t20 34.5z" />
    <glyph glyph-name="nacute" unicode="&#x144;" horiz-adv-x="323" 
d="M330 218l2 1h23q-3 -8 -9 -22t-23.5 -49.5t-35.5 -62.5t-43.5 -49t-48.5 -22q-36 0 -48.5 29.5t-3 74.5t27 90.5t39.5 85.5v0q-79 -63 -167 -243q-3 -7 -10 -21t-10 -21v-1q-1 -1 -11 0t-23 10t-15 21q-3 17 2 48q4 74 53 179.5t68 105.5q14 0 26 -7t17 -13l6 -7
q-19 -12 -53 -85t-50 -136q66 148 207 227v0l4 2v0q14 0 26 -6.5t18 -13.5l5 -7q-19 -12 -51.5 -81.5t-46 -125.5t5.5 -65q13 0 43 41t53 82zM190 626h-1q17 12 36.5 7t31.5 -21.5t1 -29.5q-10 -12 -24.5 -39t-23.5 -49l-10 -21q-24 3 -34 23.5t-7.5 46t11.5 49t20 34.5z
" />
    <glyph glyph-name="Ncaron" unicode="&#x147;" horiz-adv-x="522" 
d="M539 480q17 -23 12 -28q-26 -26 -107.5 -276t-59.5 -272q-63 0 -63 48q0 49 53 200t108 288q-97 -87 -236.5 -256t-168.5 -246v-12q0 -1 1 -4t1 -5.5t-1 -4.5h-6v0q-20 2 -33.5 12.5t-13.5 26.5q0 65 48.5 197.5t95.5 250.5t45 150q-51 1 -122 -20t-138.5 -56.5
t-114.5 -90t-47 -113.5q0 -1 2.5 -4t2.5 -4q-1 -14 -28 9q-33 28 -32 49q1 23 24.5 58.5t68.5 75t101 73.5t130.5 55t149.5 18q29 -1 43 -17.5t12.5 -47t-10 -66.5t-27 -86t-36.5 -94t-41 -101.5t-37 -98.5q52 85 150 192.5t169 173t76 65.5q6 0 18.5 -18t10.5 -21zM407 773
l-1 -2q12 4 23.5 4.5t17.5 -0.5l6 -1q-10 -9 -57.5 -94.5t-48.5 -97.5q-7 -2 -14.5 -4t-11.5 -3.5t-6 -1.5l-6 -5q-23 111 -49 184q24 -4 72 -123q55 138 75 144z" />
    <glyph glyph-name="ncaron" unicode="&#x148;" horiz-adv-x="323" 
d="M330 218l2 1h23q-3 -8 -9 -22t-23.5 -49.5t-35.5 -62.5t-43.5 -49t-48.5 -22q-36 0 -48.5 29.5t-3 74.5t27 90.5t39.5 85.5v0q-79 -63 -167 -243q-3 -7 -10 -21t-10 -21v-1q-1 -1 -11 0t-23 10t-15 21q-3 17 2 48q4 74 53 179.5t68 105.5q14 0 26 -7t17 -13l6 -7
q-19 -12 -53 -85t-50 -136q66 148 207 227v0l4 2v0q14 0 26 -6.5t18 -13.5l5 -7q-19 -12 -51.5 -81.5t-46 -125.5t5.5 -65q13 0 43 41t53 82zM260 674l-1 -2q12 4 23.5 4.5t17.5 -0.5l6 -1q-10 -9 -57.5 -94.5t-48.5 -97.5q-7 -2 -14.5 -4t-11.5 -3.5t-6 -1.5l-6 -5
q-23 111 -49 184q24 -4 72 -123q55 138 75 144z" />
    <glyph glyph-name="Ohungarumlaut" unicode="&#x150;" 
d="M475 475l-2 -1q10 -28 10 -76q0 -32 -19 -91t-57 -130.5t-85.5 -135t-113.5 -106.5t-133 -43q-35 0 -58.5 12t-33 31.5t-13 36.5t-2.5 36q0 59 20 114.5t47 90.5t50.5 56t33.5 21q42 8 74 -24q-43 0 -86 -47t-64 -120t-5 -140q12 -5 21 -5q47 0 101.5 32.5t102 83.5
t85.5 116t57 128.5t12 123.5t-44 97q-60 0 -111.5 -12.5t-86.5 -33t-62.5 -46t-42.5 -52.5t-21.5 -52t-4.5 -44.5t12 -29.5q0 -16 -16.5 -22.5t-27.5 3.5q-21 21 -24 55.5t10.5 72.5t42.5 76.5t67 69.5t90 50.5t106 19.5q46 0 80.5 -13t52.5 -34t26 -36.5t12 -31.5z" />
    <glyph glyph-name="ohungarumlaut" unicode="&#x151;" horiz-adv-x="273" 
d="M221 161l1 -2q20 4 40.5 14t31.5 17l10 8v-27q-38 -33 -95 -40q-12 -22 -19 -32q-27 -41 -58 -65q-38 -30 -80 -34q-29 -2 -47 10q-24 16 -32 61q-13 82 24 172q10 22 19 30q7 6 17 9q8 38 35 60q25 21 64 26q61 7 93 -29q20 -21 23 -55q3 -26 -6 -61q-8 -33 -21 -62z
M55 45l1 -1q59 11 106 88q-80 12 -114 72q-16 -57 -14 -97q2 -30 12 -48l4 -5q3 -6 5 -9zM176 156h-1q29 68 21.5 119t-36.5 67q-54 -7 -62.5 -57.5t29.5 -97.5q19 -24 49 -31z" />
    <glyph glyph-name="Racute" unicode="&#x154;" horiz-adv-x="404" 
d="M429 -24l1 -3q1 -3 2.5 -8t2 -18t-4.5 -23t-21 -18t-43 -8q-30 0 -62.5 22t-56.5 50t-48 66.5t-35 59.5t-21 41q-59 -187 -59 -240q-14 0 -33 11t-19 27q0 66 87.5 316t122.5 266q23 11 48 -10q12 -10 7 -15q-50 -48 -130 -278q87 9 154 99q59 79 57 154q-2 74 -69 84
q-10 2 -21 2q-49 0 -118 -23t-134 -61t-110.5 -93.5t-45.5 -112.5q0 -3 2.5 -9t2.5 -8q0 -15 -28 8q-33 29 -34 50q0 30 36.5 78.5t95.5 98t149 85.5t182 36q122 0 144 -97q19 -81 -37 -184q-51 -93 -123 -127l-10 -4q-73 -22 -76 -23q119 -212 193 -212q25 0 41 7q4 2 6 9z
M281 849h-1q17 12 36.5 7t31.5 -21.5t1 -29.5q-10 -12 -24.5 -39.5t-24.5 -48.5l-9 -21q-24 3 -34 23.5t-7.5 46t11.5 49t20 34.5z" />
    <glyph glyph-name="racute" unicode="&#x155;" horiz-adv-x="254" 
d="M233 368l-3 -6q10 2 23 -1t21.5 -8t6.5 -7q-66 -66 -69 -164q-4 0 -11 2t-15.5 11.5t-8.5 25.5q0 23 13 66q-86 -54 -153 -281l-2 -6q-3 0 -9 -0.5t-8 -0.5q-18 0 -26 5q-8 4 -12 12q-7 12 -11 33q-1 10 -1 29q2 22 4 33q2 12 8 36q3 12 11 36q4 12 14 36l15 36l15 33
q5 10 15 28l15 24q8 12 13 17q6 6 10 8h3q14 0 26 -6.5t17 -13.5l6 -7q-5 2 -41 -58q-32 -63 -48 -115q-10 -35 -14 -63q81 198 185 261q4 3 8 5h1q1 1 2 1v-1zM163 618h-1q17 12 36.5 7t31.5 -21.5t1 -29.5q-10 -12 -24.5 -39t-24.5 -49l-9 -21q-24 3 -34 23.5t-7.5 46
t11.5 49t20 34.5z" />
    <glyph glyph-name="Rcaron" unicode="&#x158;" horiz-adv-x="404" 
d="M429 -24l1 -3q1 -3 2.5 -8t2 -18t-4.5 -23t-21 -18t-43 -8q-30 0 -62.5 22t-56.5 50t-48 66.5t-35 59.5t-21 41q-59 -187 -59 -240q-14 0 -33 11t-19 27q0 66 87.5 316t122.5 266q23 11 48 -10q12 -10 7 -15q-50 -48 -130 -278q87 9 154 99q59 79 57 154q-2 74 -69 84
q-10 2 -21 2q-49 0 -118 -23t-134 -61t-110.5 -93.5t-45.5 -112.5q0 -3 2.5 -9t2.5 -8q0 -15 -28 8q-33 29 -34 50q0 30 36.5 78.5t95.5 98t149 85.5t182 36q122 0 144 -97q19 -81 -37 -184q-51 -93 -123 -127l-10 -4q-73 -22 -76 -23q119 -212 193 -212q25 0 41 7q4 2 6 9z
M351 897l-1 -2q12 4 23.5 4.5t17.5 -0.5l6 -1q-10 -9 -57.5 -94.5t-48.5 -97.5q-7 -2 -14.5 -4t-11.5 -3.5t-6 -1.5l-6 -5q-23 111 -49 184q24 -4 72 -123q55 138 75 144z" />
    <glyph glyph-name="rcaron" unicode="&#x159;" horiz-adv-x="254" 
d="M233 368l-3 -6q10 2 23 -1t21.5 -8t6.5 -7q-66 -66 -69 -164q-4 0 -11 2t-15.5 11.5t-8.5 25.5q0 23 13 66q-86 -54 -153 -281l-2 -6q-3 0 -9 -0.5t-8 -0.5q-18 0 -26 5q-8 4 -12 12q-7 12 -11 33q-1 10 -1 29q2 22 4 33q2 12 8 36q3 12 11 36q4 12 14 36l15 36l15 33
q5 10 15 28l15 24q8 12 13 17q6 6 10 8h3q14 0 26 -6.5t17 -13.5l6 -7q-5 2 -41 -58q-32 -63 -48 -115q-10 -35 -14 -63q81 198 185 261q4 3 8 5h1q1 1 2 1v-1zM233 666l-1 -2q12 4 23.5 4.5t17.5 -0.5l6 -1q-10 -9 -57.5 -94.5t-48.5 -97.5q-7 -2 -14.5 -4t-11.5 -3.5
t-6 -1.5l-6 -5q-23 111 -49 184q24 -4 72 -123q55 138 75 144z" />
    <glyph glyph-name="sacute" unicode="&#x15b;" horiz-adv-x="142" 
d="M172 346h1q-5 -1 -12.5 -3.5t-27.5 -13t-35.5 -22.5t-28 -33.5t-12.5 -45.5t9.5 -57.5t16.5 -57.5t7 -48t-21 -39.5t-65 -21.5q-37 -5 -57 20.5t-20 56.5q0 15 3 23t6 8l3 1q0 -2 0.5 -6.5t4 -15t8.5 -18.5t15 -14.5t23 -6.5q33 0 33 53q0 9 -18 54t-18 62q0 61 46 105.5
t84 44.5q19 0 32.5 -6.5t18.5 -12.5zM83 615h-1q17 12 36.5 7t31.5 -21.5t1 -29.5q-10 -12 -24.5 -39.5t-24.5 -48.5l-9 -21q-24 3 -34 23.5t-7.5 46t11.5 49t20 34.5z" />
    <glyph glyph-name="scaron" unicode="&#x161;" horiz-adv-x="142" 
d="M172 346h1q-5 -1 -12.5 -3.5t-27.5 -13t-35.5 -22.5t-28 -33.5t-12.5 -45.5t9.5 -57.5t16.5 -57.5t7 -48t-21 -39.5t-65 -21.5q-37 -5 -57 20.5t-20 56.5q0 15 3 23t6 8l3 1q0 -2 0.5 -6.5t4 -15t8.5 -18.5t15 -14.5t23 -6.5q33 0 33 53q0 9 -18 54t-18 62q0 61 46 105.5
t84 44.5q19 0 32.5 -6.5t18.5 -12.5zM153 663l-1 -2q12 4 23.5 4.5t17.5 -0.5l6 -1q-10 -9 -57.5 -94.5t-48.5 -97.5q-7 -2 -14.5 -4t-11.5 -3.5t-6 -1.5l-6 -5q-23 111 -49 184q24 -4 72 -123q55 138 75 144z" />
    <glyph glyph-name="Uring" unicode="&#x16e;" 
d="M425 560v-1q22 -7 34.5 -13t25.5 -18.5t13 -28.5v0q-2 -33 -52 -148q-44 -149 -74 -291t-14 -156q-63 -5 -67 43q-3 40 29 164q-128 -209 -208 -209q-34 0 -50 31t-13 84.5t12.5 111.5t29 127t34 114t30.5 89q1 3 3 7.5t7 16.5t9 23t7 22.5t2.5 18t-5.5 6.5
q-63 0 -156.5 -45.5t-168 -115.5t-83.5 -129q-1 -3 1.5 -9t2.5 -8q0 -15 -28 8q-34 29 -34 50q0 30 36.5 78.5t95.5 98t149 85.5t182 36q35 0 53 -38t-3 -116q-159 -481 -114 -499q29 -11 106 117t142.5 282t65.5 212z" />
    <glyph glyph-name="uring" unicode="&#x16f;" horiz-adv-x="309" 
d="M316 208l25 1q-3 -8 -9 -22t-23.5 -49.5t-35.5 -62.5t-43.5 -49t-48.5 -22q-64 0 -53 90q-56 -90 -104 -90q-77 0 -43 136q24 101 79 190q23 37 32 37q14 0 26 -6.5t18 -13.5l5 -7q-19 -12 -53.5 -87.5t-49.5 -136.5t4 -71q25 0 112 150q21 57 48 103.5t38 46.5
q14 0 26 -6.5t18 -13.5l5 -7q-19 -12 -51.5 -82t-46 -126.5t5.5 -65.5q13 0 43 41t53 82z" />
    <glyph glyph-name="Uhungarumlaut" unicode="&#x170;" 
d="M425 560v-1q22 -7 34.5 -13t25.5 -18.5t13 -28.5v0q-2 -33 -52 -148q-44 -149 -74 -291t-14 -156q-63 -5 -67 43q-3 40 29 164q-128 -209 -208 -209q-34 0 -50 31t-13 84.5t12.5 111.5t29 127t34 114t30.5 89q1 3 3 7.5t7 16.5t9 23t7 22.5t2.5 18t-5.5 6.5
q-63 0 -156.5 -45.5t-168 -115.5t-83.5 -129q-1 -3 1.5 -9t2.5 -8q0 -15 -28 8q-34 29 -34 50q0 30 36.5 78.5t95.5 98t149 85.5t182 36q35 0 53 -38t-3 -116q-159 -481 -114 -499q29 -11 106 117t142.5 282t65.5 212z" />
    <glyph glyph-name="uhungarumlaut" unicode="&#x171;" horiz-adv-x="309" 
d="M316 208l25 1q-3 -8 -9 -22t-23.5 -49.5t-35.5 -62.5t-43.5 -49t-48.5 -22q-64 0 -53 90q-56 -90 -104 -90q-77 0 -43 136q24 101 79 190q23 37 32 37q14 0 26 -6.5t18 -13.5l5 -7q-19 -12 -53.5 -87.5t-49.5 -136.5t4 -71q25 0 112 150q21 57 48 103.5t38 46.5
q14 0 26 -6.5t18 -13.5l5 -7q-19 -12 -51.5 -82t-46 -126.5t5.5 -65.5q13 0 43 41t53 82z" />
    <glyph glyph-name="zacute" unicode="&#x17a;" horiz-adv-x="317" 
d="M346 359l-3 2q6 -29 -8 -42q-2 -2 -5 -2q-183 -169 -251 -230q138 30 158 24l-12 -42q-46 -142 -71 -195q-71 -147 -152 -147q-10 0 -15 1q-20 4 -28 16q-7 11 -7 27l3 27q20 -13 44 -9q21 4 41 19q29 22 59 83q22 45 47 115q12 33 18 51q-110 -20 -158 -33l-27 -9
q-7 -4 -12 -4h-2q-5 3 -2 16q-6 3 -5 13t21 22q73 44 292 254q-122 9 -204 -9l-45 -108h-22l51 112q-2 6 4 17.5t13 20.5l6 9q27 7 63.5 9t61 1t76 -4.5t71.5 -4.5zM203 621h-1q17 12 36.5 7t31.5 -21.5t1 -29.5q-10 -12 -24.5 -39.5t-24.5 -48.5l-9 -21q-24 3 -34 23.5
t-7.5 46t11.5 49t20 34.5z" />
    <glyph glyph-name="zdotaccent" unicode="&#x17c;" horiz-adv-x="317" 
d="M346 359l-3 2q6 -29 -8 -42q-2 -2 -5 -2q-183 -169 -251 -230q138 30 158 24l-12 -42q-46 -142 -71 -195q-71 -147 -152 -147q-10 0 -15 1q-20 4 -28 16q-7 11 -7 27l3 27q20 -13 44 -9q21 4 41 19q29 22 59 83q22 45 47 115q12 33 18 51q-110 -20 -158 -33l-27 -9
q-7 -4 -12 -4h-2q-5 3 -2 16q-6 3 -5 13t21 22q73 44 292 254q-122 9 -204 -9l-45 -108h-22l51 112q-2 6 4 17.5t13 20.5l6 9q27 7 63.5 9t61 1t76 -4.5t71.5 -4.5z" />
    <glyph glyph-name="zcaron" unicode="&#x17e;" horiz-adv-x="317" 
d="M346 359l-3 2q6 -29 -8 -42q-2 -2 -5 -2q-183 -169 -251 -230q138 30 158 24l-12 -42q-46 -142 -71 -195q-71 -147 -152 -147q-10 0 -15 1q-20 4 -28 16q-7 11 -7 27l3 27q20 -13 44 -9q21 4 41 19q29 22 59 83q22 45 47 115q12 33 18 51q-110 -20 -158 -33l-27 -9
q-7 -4 -12 -4h-2q-5 3 -2 16q-6 3 -5 13t21 22q73 44 292 254q-122 9 -204 -9l-45 -108h-22l51 112q-2 6 4 17.5t13 20.5l6 9q27 7 63.5 9t61 1t76 -4.5t71.5 -4.5zM273 669l-1 -2q12 4 23.5 4.5t17.5 -0.5l6 -1q-10 -9 -57.5 -94.5t-48.5 -97.5q-7 -2 -14.5 -4t-11.5 -3.5
t-6 -1.5l-6 -5q-23 111 -49 184q24 -4 72 -123q55 138 75 144z" />
    <glyph glyph-name="circumflex" unicode="&#x2c6;" horiz-adv-x="247" 
d="M167 756h-2q18 -112 40 -186q-24 5 -66 126q-60 -134 -81 -139q-12 -3 -24 -3t-18 2l-5 1q11 8 62.5 91t53.5 96q19 4 34 7z" />
    <glyph glyph-name="caron" unicode="&#x2c7;" horiz-adv-x="247" 
d="M170 723l-1 -2q12 4 24 4.5t17 -0.5l6 -1q-10 -9 -57.5 -94.5t-48.5 -97.5q-7 -2 -14.5 -4t-11.5 -3.5t-6 -1.5l-6 -5q-23 111 -49 184q24 -4 72 -123q55 138 75 144z" />
    <glyph glyph-name="tilde" unicode="&#x2dc;" horiz-adv-x="342" 
d="M306 720q29 -54 -29 -77q-52 0 -92.5 8t-55.5 8q-29 0 -47 -7.5t-24 -14t-19 -25.5q-24 23 -4.5 55t61.5 32q25 0 70.5 -10t77 -5t62.5 36z" />
    <glyph glyph-name="Euro" unicode="&#x20ac;" horiz-adv-x="343" 
d="M180 365l1 -4q145 15 172 -12q18 -18 13 -31q-1 -2 -3 -2q-17 14 -72 13.5t-122 -13.5q-12 -50 -15 -102q160 19 188 -9q18 -18 13 -31q-1 -2 -3 -2q-18 14 -75 13.5t-126 -13.5q1 -64 17.5 -103.5t48.5 -39.5q26 0 47.5 9.5t33.5 23.5t20 28t10 24l3 9q28 -20 28 -67
q0 -68 -128 -68q-63 0 -97 47t-40 125q-96 -26 -110 -57v-3.5t-1 -4t-5 -1.5q-20 63 3 86q13 13 113 30q2 48 12 96q-96 -26 -110 -57v-3.5t-1 -4t-5 -1.5q-20 63 3 86q13 13 126 31q30 100 83 166.5t117 66.5q22 0 35.5 -11.5t15.5 -22.5l3 -12l-31 -2q-54 0 -95.5 -49
t-66.5 -128z" />
    <glyph glyph-name="unie915" unicode="&#xe915;" horiz-adv-x="277" 
d="M280 483l-2 -3q25 -6 28 -19q0 -4 -2 -5q-33 7 -132 -70q89 -120 80 -157q-6 -25 -19 -28q-4 0 -5 2q4 18 -21.5 62.5t-67.5 93.5q-51 -45 -84 -87t-30 -65q0 -1 1 -3t0.5 -4t-3.5 -4l-13 13t-20 28.5t-8 34.5q3 11 41.5 47t87.5 74q-89 96 -130 92q-1 0 -3 -1t-4 -0.5
t-4 3.5l13 13t28.5 20t34.5 8q9 -2 39.5 -33.5t63.5 -73.5q97 70 131 62z" />
    <glyph glyph-name="f_f" unicode="&#xfb00;" horiz-adv-x="318" 
d="M344 429h3q-17 -11 -66 -108t-90 -206q17 14 43 26q30 15 47 29t22 22.5t6 8.5l3 1q3 -2 10 -16q15 -32 -64 -72q-26 -13 -61 -37q19 -30 25 -82.5t-1 -103.5t-36 -86.5t-73 -31.5q-27 3 -37.5 31.5t-4.5 77t20.5 104t37.5 120.5q-7 -2 -23 -6q-21 -4 -75 -21
q27 -40 31 -115t-25.5 -135.5t-88.5 -55.5q-85 8 -7 261q56 182 143 349q39 73 49 73q16 0 28.5 -7t17.5 -13l4 -7q-17 -11 -67 -110.5t-91 -209.5q20 15 64 23q33 7 54 17q44 116 92 211.5t60 95.5q16 0 28.5 -7t17.5 -13zM-34 -181v-1q34 18 51.5 48.5t19.5 58.5t-4 60.5
t-12 49t-12 29.5q-60 -173 -43 -245zM129 -182l-1 1q34 18 51 48t19.5 57.5t-3 60t-11.5 48.5t-12 30q-60 -173 -43 -245z" />
    <glyph glyph-name="o_z" horiz-adv-x="590" 
d="M221 161l1 -2q18 0 36.5 21t33.5 53t21.5 48.5t10.5 29.5q-2 6 4 17.5t12 20.5l7 9q27 7 63 9t60.5 1t75 -4.5t70.5 -4.5q6 -28 -8 -40q-2 -2 -5 -2q-183 -169 -251 -230q138 30 158 24l-12 -42q-46 -142 -71 -195q-71 -147 -152 -147q-10 0 -15 1q-20 4 -28 16
q-7 11 -7 27q0 4 0.5 8.5t1.5 10t1 8.5q20 -13 44 -9q21 4 41 19q29 22 59 83q22 45 47 115l18 51q-110 -20 -158 -33l-27 -9q-7 -4 -12 -4h-2q-5 3 -2 16q-6 3 -5 13t21 22q73 44 292 254q-117 7 -202 -3l6 1q-2 -7 -6.5 -19.5t-18.5 -44t-29 -55.5t-38.5 -44t-46.5 -20
q-12 -22 -19 -32q-27 -41 -58 -65q-38 -30 -80 -34q-29 -2 -47 10q-24 16 -32 61q-13 82 24 172q10 22 19 30q7 6 17 9q8 38 35 60q25 21 64 26q61 7 93 -29q20 -21 23 -55q3 -26 -6 -61q-8 -33 -21 -62zM176 156h-1q29 68 21.5 119t-36.5 67q-54 -7 -62.5 -57.5t29.5 -97.5
q19 -24 49 -31zM55 45l1 -1q59 11 106 88q-80 12 -114 72q-16 -57 -14 -97q2 -30 12 -48l4 -5q3 -6 5 -9zM619 359l-3 2v-2h3z" />
    <glyph glyph-name="t_t" horiz-adv-x="320" 
d="M313 428l1 -1q-52 -101 -87.5 -207.5t-23.5 -154.5q22 6 53.5 42.5t52.5 70.5l21 33h21q-27 -54 -70 -113q-73 -101 -109 -94q-52 9 -24 137q-26 -37 -30 -43q-73 -101 -109 -94q-29 6 -33.5 49.5t11.5 107t40.5 129.5t53.5 128q-91 -9 -103 -21q-4 36 21 61q7 7 105 7
q40 76 52 76q16 0 28.5 -7t17.5 -14l4 -7q-12 -8 -36 -49l96 -3q49 100 64 100q16 0 28.5 -7t17.5 -14l4 -7q-16 -11 -51 -75q97 -5 102 -5q2 0 3 -5t-1.5 -13.5t-9.5 -15.5q-12 9 -110 9zM41 66q20 5 49.5 38t46.5 58.5t29 45.5q33 109 85 220q-70 -2 -102 -4
q-50 -96 -85.5 -202.5t-22.5 -155.5z" />
    <glyph glyph-name="s_s" horiz-adv-x="300" 
d="M349 349l2 -3q-6 -2 -16.5 -6.5t-36.5 -20.5t-46 -33.5t-36.5 -45.5t-16.5 -58q0 -24 9.5 -57.5t16.5 -57.5t7 -48t-21 -39.5t-65 -21.5q-34 -5 -53.5 16.5t-23.5 51.5q-21 -16 -65 -22q-37 -5 -57 21t-20 57q0 15 3 23t6 9h3q0 -2 0.5 -6.5t4 -15t8.5 -18.5t15 -14.5
t23 -6.5q33 0 33 53q0 9 -18 54t-18 62q0 61 46 105.5t84 44.5q19 0 32.5 -6t18.5 -12l4 -7q-5 -1 -12.5 -3.5t-27.5 -13t-35.5 -22.5t-28 -33.5t-12.5 -45.5q0 -28 20 -93t9 -90q13 -38 46 -38t33 53q0 9 -18 54t-18 62q0 84 61.5 140.5t104.5 56.5q19 0 32.5 -6t17.5 -12z
" />
    <glyph glyph-name="o_o" horiz-adv-x="544" 
d="M574 201v-3v-27q-38 -33 -95 -40q-12 -22 -19 -32q-27 -41 -58 -65q-38 -30 -80 -34q-28 -3 -47 9q-24 16 -32 61q-5 34 -2 63q-30 -17 -63 -21q-10 -18 -16 -27q-25 -37 -50 -56q-34 -25 -69 -28q-25 -2 -41 9q-21 14 -27 53q-11 71 20 149q7 19 17 27q6 5 16 8
q7 33 30 52t56 22q53 5 80 -26q17 -18 20 -49q2 -22 -5 -53q-6 -28 -18 -55q27 6 54 23q6 41 23 83q10 22 19 30q7 6 17 9q8 38 35 60q25 21 64 26q61 7 93 -29q20 -21 23 -55q3 -26 -6 -61q-8 -33 -21 -62q20 4 40.5 14t31.5 18zM136 299l1 -1q-47 -6 -54 -50t26 -85
q17 -22 41 -27q25 60 18 104t-32 59zM46 38l-1 1q52 11 93 77q-69 10 -98 62q-14 -49 -12 -85q2 -28 10 -43zM429 343q-54 -7 -62.5 -57.5t29.5 -97.5q19 -24 48 -31q29 68 21.5 119t-36.5 67zM325 44l1 -1q59 11 106 88q-80 12 -114 72q-16 -57 -14 -97q2 -30 12 -48
q1 -1 2.5 -3.5t3 -5.5t3.5 -5z" />
    <glyph glyph-name="a.ss01" horiz-adv-x="300" 
d="M373 295l-3 1q1 6 5 5.5t7 -3.5q19 -20 23.5 -30.5t4.5 -29.5q0 -39 -38 -103.5t-100.5 -118t-119.5 -53.5q-68 0 -47 116q-40 -73 -83 -74q-35 0 -48 47q-2 10 -4 23q-7 50 16 120t64 122t80 53q25 1 44 -15.5t26 -38.5q21 33 30 33q14 0 26 -6.5t18 -13.5l5 -7
q-19 -12 -55.5 -97t-53.5 -154t2 -80q30 0 78.5 55.5t85.5 129t37 119.5zM131 174v1q29 78 63 135q-22 20 -39 20q-28 0 -65.5 -54.5t-56.5 -118.5t-1 -86q6 -5 12.5 -5t16.5 10t19 20t19 25.5t17.5 27.5t14.5 25z" />
    <glyph glyph-name="b.ss01" horiz-adv-x="280" 
d="M289 640l-1 -1q39 0 50 -47q12 -54 -22 -105q-40 -57 -110 -58q-27 0 -51 3q-30 -61 -54 -127q52 51 89 56q32 5 52 -22.5t14 -75.5q-9 -69 -34 -123.5t-54 -82.5t-51.5 -41.5t-35.5 -13.5q-22 0 -35 15.5t-12.5 28.5t0.5 15q1 0 4.5 -3.5t9.5 -6.5t14.5 -3.5t21.5 6.5
t28 22q43 43 75.5 129.5t11.5 126.5q-54 -16 -119 -92q-58 -177 -58 -238q-14 0 -33 11t-19 27q0 50 39 180.5t83 221.5q-39 8 -87.5 24.5t-78.5 25.5t-64.5 13.5t-65 -8t-61.5 -43.5q-2 -2 -1 -6t-2 -4q-32 32 5 77.5t98 45.5q50 0 99.5 -15.5t102.5 -41t72 -32.5
q12 25 26.5 48.5t38 51.5t53.5 45t62 17zM173 468l-1 -1q95 6 125 62q18 34 1 55q-8 9 -20 9q-40 0 -105 -125z" />
    <glyph glyph-name="c.ss01" horiz-adv-x="237" 
d="M310 279h-1q1 6 5 5.5t7 -3.5q19 -20 23.5 -30.5t4.5 -29.5q0 -38 -47 -100.5t-118 -113t-129 -50.5q-51 0 -74 57t-8 130q17 81 67 153.5t119 72.5q43 0 54 -37q6 -23 -4 -29q-2 -1 -3 -1q-10 6 -42 6q-50 0 -87.5 -80t-37 -149t23.5 -80q31 0 90 49t108 117t49 113z
" />
    <glyph glyph-name="d.ss01" horiz-adv-x="303" 
d="M431 630l2 1q39 0 49 -48q12 -56 -23 -109q-39 -60 -111 -60q-28 0 -54 3q-54 -96 -88.5 -197.5t-20.5 -156.5q22 6 53.5 42.5t52.5 70.5l21 33h21q-27 -54 -70 -113q-73 -101 -109 -94q-47 8 -25 126q-55 -120 -112 -120q-35 0 -47 46q-3 11 -4 25q-5 50 20.5 119
t68 119.5t81.5 50.5q34 0 56 -33q25 63 39 91q-39 9 -86.5 25.5t-77.5 26.5t-64 15t-64.5 -7t-61.5 -43q-2 -2 -1 -6t-2 -4q-32 32 5 77.5t98 45.5q51 0 97 -12.5t110.5 -41.5t68.5 -31q12 25 27 48.5t37.5 50.5t52.5 43.5t61 16.5zM146 191h2q14 50 42 126q-13 9 -25 9
q-21 0 -57 -50t-58 -110t-8 -83q14 -22 47.5 21.5t56.5 86.5zM318 457v1q83 -7 117 52q21 38 8 64q-6 12 -17 12q-24 0 -54 -40.5t-54 -88.5z" />
    <glyph glyph-name="e.ss01" horiz-adv-x="236" 
d="M314 296l-2 1q1 6 5 5.5t7 -3.5q19 -20 23.5 -30.5t4.5 -29.5q0 -38 -47 -100.5t-118 -113t-129 -50.5q-51 0 -74 57t-8 130l-3 -17q8 48 31 97.5t64.5 88.5t89.5 39q31 0 45 -20t10 -38v-2v-2q-6 -20 -16.5 -45t-38.5 -63.5t-60 -52.5t-56 21q-17 -45 -11.5 -89
t36.5 -62q31 0 90 49t108 117t49 113zM164 310h1q-34 0 -69 -41t-54 -97q31 1 72.5 49t58.5 89h-9z" />
    <glyph glyph-name="f.ss01" horiz-adv-x="156" 
d="M329 272l2 -3q-13 -51 -113 -117.5t-187 -72.5q27 -39 31.5 -114.5t-25 -137t-88.5 -56.5q-85 8 -7 261q56 182 143 349q39 73 49 73q16 0 28.5 -7t17.5 -13l4 -7q-17 -10 -64 -102.5t-88 -199.5q70 16 164.5 85.5t108.5 125.5q3 12 11 0q14 -24 16 -36.5t-3 -27.5z
M17 78l-1 -1v0zM-33 -185v-1q34 18 51.5 48.5t19.5 58.5t-4 60.5t-12 49t-12 29.5q-60 -173 -43 -245z" />
    <glyph glyph-name="g.ss01" horiz-adv-x="234" 
d="M479 192v6q0 -46 -12.5 -85t-31.5 -67t-50.5 -51t-61 -38t-71 -27.5t-73 -19.5t-74.5 -15l-9 -18q-71 -147 -152 -147q-10 0 -15 1q-20 4 -28 16q-7 11 -7 27q0 4 0.5 8.5t1.5 10t1 8.5q20 -13 44 -9q21 4 41 19q26 21 51 70q-129 -24 -145 -62q-7 -17 -7 -27
q-16 0 -16 31q0 21 10.5 37t26 26t43.5 19t50.5 13.5t60.5 11.5q16 39 30 78q20 54 36 108q-52 -106 -104 -106q-35 0 -47 46q-3 11 -4 25q-5 50 20.5 119t68 119.5t81.5 50.5q30 0 51 -24l9 27q3 10 6 12q14 5 29.5 1.5t27.5 -11.5t8 -13q-8 -8 -22 -54l-21 -63
q-10 -32 -30.5 -95t-31.5 -95q-36 -107 -39 -116q49 9 84 18.5t75.5 28.5t65.5 44t42 64.5t17 90.5q0 22 -7.5 32t-15 12.5t-7.5 4.5q0 1 10.5 5t25 6t29.5 -0.5t25.5 -15.5t10.5 -37zM167 260l1 2l18 66q-10 5 -20 5q-34 0 -72.5 -53.5t-57.5 -116t-4 -86.5q8 -12 26 0.5
t38.5 41.5t33 48t20.5 33q12 40 17 60z" />
    <glyph glyph-name="h.ss01" horiz-adv-x="322" 
d="M213 45l1 -1q13 0 43 41t53 82l23 41h22q-3 -8 -9 -22t-23.5 -49.5t-35.5 -62.5t-43.5 -49t-48.5 -22q-34 0 -47 27t-5.5 69t22.5 85t36 84q-45 -34 -84.5 -93.5t-91.5 -169.5v-7q-14 0 -33 11t-19 27q0 50 36.5 172t80.5 213q-39 8 -87.5 24.5t-78.5 25.5t-64.5 13.5
t-65 -8t-61.5 -43.5q-2 -2 -1 -6t-2 -4q-32 32 5 77.5t98 45.5q50 0 100 -15.5t102 -40.5t72 -32q12 25 26.5 48.5t38 51.5t53.5 45t62 17q39 0 50 -47q12 -54 -22 -105q-40 -57 -110 -58q-27 0 -51 3l-3 -8q-56 -101 -105 -297q66 154 201 230q6 6 9 6q14 0 26 -7t18 -13
l5 -7q-19 -12 -51.5 -81.5t-46 -125.5t5.5 -65zM278 573l-1 -1q-40 0 -105 -125q95 6 125 62q18 34 1 55q-8 9 -20 9z" />
    <glyph glyph-name="i.ss01" horiz-adv-x="163" 
d="M166 362h1q-19 -2 -39 10.5t-23 40.5q-1 12 6 29.5t15 26.5q6 7 32 -5t27 -20q-3 -4 -6.5 -12t-9 -29.5t-3.5 -40.5zM240 295q19 -20 23.5 -30.5t4.5 -29.5q0 -39 -38 -103.5t-100.5 -118t-119.5 -53.5q-77 0 -41 145q27 108 83 202q24 40 33 40q14 0 26 -6.5t17 -13.5
l6 -7q-19 -12 -55.5 -97t-53.5 -154t2 -80q30 0 78.5 55.5t85.5 129t37 119.5q1 6 5 5.5t7 -3.5z" />
    <glyph glyph-name="j.ss01" horiz-adv-x="85" 
d="M126 363h1q-19 -2 -39 10.5t-23 40.5q-1 12 6 29.5t15 26.5q6 7 32 -5t27 -20q-3 -4 -6.5 -12t-9 -29.5t-3.5 -40.5zM215 195l1 5q0 1 10.5 5t25 6t29.5 -0.5t25.5 -15.5t10.5 -37q0 -46 -12.5 -85t-31.5 -67t-50.5 -51t-61 -38t-71 -27.5t-73 -19.5t-74.5 -15l-9 -18
q-71 -147 -152 -147q-10 0 -15 1q-20 4 -28 16q-7 11 -7 27l3 27q20 -13 44 -9q21 4 41 19q26 21 51 70q-129 -24 -145 -62q-7 -17 -7 -27q-16 0 -16 31q0 21 10.5 37t26 26t43.5 19t50.5 13.5t60.5 11.5q16 39 30 78q22 64 42 129q12 40 34 120q16 60 25 90l9 27q3 10 6 12
q14 5 29.5 1.5t27.5 -11.5t8 -13q-8 -8 -22 -54l-21 -63q-10 -32 -30.5 -95t-31.5 -95q-36 -106 -39 -116q49 9 84 18.5t75.5 28.5t65.5 44t42 64.5t17 90.5q0 22 -7.5 32t-15 12.5t-7.5 4.5z" />
    <glyph glyph-name="k.ss01" horiz-adv-x="264" 
d="M162 437l1 -3l-3 -8q-36 -64 -74 -180q78 122 114 122q7 0 27 -12t21 -19q2 -26 -18.5 -69.5t-62.5 -87t-91 -57.5q15 -53 54 -90q52 22 135 177h22q-4 -9 -16 -35.5t-17 -36.5t-16 -31.5t-19 -32t-19.5 -25.5t-24 -25t-27.5 -18q-18 -11 -33 -11q-17 0 -29 10
q-27 23 -46 86q-16 -64 -16 -89q-14 0 -33 11t-19 27q0 49 40.5 181.5t85.5 224.5q-39 8 -87.5 24.5t-78.5 25.5t-64.5 13.5t-65 -8t-61.5 -43.5q-2 -2 -1 -6t-2 -4q-32 32 5 77.5t98 45.5q50 0 99.5 -15.5t102.5 -41t72 -32.5q12 25 26.5 48.5t38 51.5t53.5 45t62 17
q39 0 50 -47q12 -54 -22 -105q-40 -57 -110 -58q-27 0 -51 3zM287 596l-1 -1q-40 0 -105 -125q95 6 125 62q18 34 1 55q-8 9 -20 9zM192 313q-26 -16 -47.5 -41t-58.5 -85q5 2 12.5 6.5t26.5 19t33 28.5t25 34t9 38z" />
    <glyph glyph-name="l.ss01" horiz-adv-x="153" 
d="M230 256l-1 1q1 6 5 5.5t6 -3.5q19 -20 23.5 -30.5t4.5 -29.5q0 -28 -29 -71t-70 -81.5t-91 -62t-87 -13.5q-34 11 -33 67.5t27.5 142t60 164.5t65 136t41.5 57q16 0 28.5 -7t17.5 -14l4 -7q-21 -13 -69.5 -109.5t-86 -210.5t-23.5 -160q5 -29 18 -29q30 0 75.5 43.5
t79.5 105t34 106.5z" />
    <glyph glyph-name="m.ss01" horiz-adv-x="468" 
d="M535 296l3 1q1 6 5 5.5t7 -3.5q19 -20 23.5 -30.5t4.5 -29.5q0 -39 -38 -103.5t-100.5 -118t-119.5 -53.5q-36 0 -47 33.5t0.5 84.5t30.5 102t43 97q-48 -37 -84 -90t-78 -156v12v-12q-5 1 -12.5 3t-20.5 14.5t-13 32.5q0 27 26 95t54 124l-4 -5l-6 -3q-79 -63 -167 -243
q-3 -7 -10 -21t-10 -21h-3q-72 7 -33 149q29 102 80 183q20 31 29 31q14 0 26 -7t17 -13l6 -7q-19 -12 -53 -85t-50 -136q66 149 207 230v0h1h1q15 0 31 -7t12 -13q-60 -99 -90 -186q64 129 182 196q4 4 7 4q14 0 26 -7t18 -13l5 -7q-19 -12 -55.5 -97t-53.5 -154t2 -80
q30 0 78.5 55.5t85.5 129t37 119.5z" />
    <glyph glyph-name="n.ss01" horiz-adv-x="323" 
d="M395 295h2q1 6 5 5.5t7 -3.5q19 -20 23.5 -30.5t4.5 -29.5q0 -39 -38 -103.5t-100.5 -118t-119.5 -53.5q-37 0 -47.5 36t2.5 90t34 108t45 99q-2 -2 -3 -2q-79 -63 -167 -243q-3 -7 -10 -21t-10 -21v-1q-1 -1 -11 0t-23 10t-15 21q-3 17 2 48q4 74 53 179.5t68 105.5
q14 0 26 -6.5t17 -13.5l6 -7q-19 -12 -53 -85t-50 -136q65 148 206 227q3 3 6 3q14 0 26 -6.5t17 -13.5l6 -7q-19 -12 -56 -98t-55 -156t1 -81q30 0 78.5 55.5t85.5 129t37 119.5z" />
    <glyph glyph-name="p.ss01" horiz-adv-x="308" 
d="M385 292v-1q1 6 5 4.5t6 -4.5q16 -22 19 -35t-1 -29q-9 -54 -108.5 -130.5t-185.5 -85.5q-15 -7 -25 -7q-22 0 -35 15.5t-12.5 28.5t0.5 15q1 0 4.5 -3.5t9.5 -6.5t14.5 -3.5t21.5 6.5t28 22q43 43 75.5 129.5t11.5 126.5q-54 -16 -122 -96q-36 -114 -63.5 -267
t-22.5 -200q-14 -1 -34 8t-21 25q-7 66 49 310.5t89 263.5q22 12 50 -6q13 -9 8 -14q-13 -16 -29 -51q52 51 89 56q32 5 52 -22.5t14 -75.5q-14 -96 -56 -162q63 42 113 95t56 94z" />
    <glyph glyph-name="t.ss01" horiz-adv-x="160" 
d="M353 434h-1q2 0 3 -5t-1.5 -13.5t-9.5 -15.5q-18 14 -205 8q-58 -111 -100 -232t-28 -169q5 -29 18 -29q30 0 75.5 43.5t79.5 105t34 106.5q1 6 5 5.5t6 -3.5q19 -20 23.5 -30.5t4.5 -29.5q0 -28 -29 -71t-70 -81.5t-91 -62t-87 -13.5q-29 6 -31.5 54t18 119t48 143.5
t60.5 141.5q-157 -9 -175 -27q-4 36 21 61q9 9 173 5q49 94 62 94q16 0 28.5 -7t17.5 -14l4 -7q-14 -9 -47 -68q28 -1 58 -2t53 -2t42 -2t30 -2h11z" />
    <glyph glyph-name="u.ss01" horiz-adv-x="309" 
d="M384 297h1q1 6 5 5.5t7 -3.5q19 -20 23.5 -30.5t4.5 -29.5q0 -39 -38 -103.5t-100.5 -118t-119.5 -53.5q-69 0 -46 120q-53 -79 -97 -79q-77 0 -43 136q24 101 79 190q23 37 32 37q14 0 26 -7t18 -13l5 -7q-19 -12 -53.5 -87.5t-49.5 -136.5t4 -71q27 0 114 155
q23 57 48.5 101t35.5 44q14 0 26 -7t18 -13l5 -7q-19 -12 -55 -95.5t-53 -151.5t2 -79q30 0 78.5 55.5t85.5 129t37 119.5z" />
    <glyph glyph-name="y.ss01" horiz-adv-x="261" 
d="M393 226l2 4q0 1 10.5 5t25.5 6t29.5 -0.5t25 -15.5t10.5 -37q0 -46 -12.5 -85t-31.5 -67t-50.5 -51t-61 -38t-71 -27.5t-73 -19.5t-74.5 -15l-9 -18q-71 -147 -152 -147q-10 0 -15 1q-20 4 -28 16q-7 11 -7 27l3 27q20 -13 44 -9q21 4 41 19q26 21 51 70
q-129 -24 -145 -62q-7 -17 -7 -27q-16 0 -16 31q0 21 10.5 37t26 26t43.5 19t50.5 13.5t60.5 11.5q17 39 30 78q12 33 27 94q-56 -89 -103 -89q-77 0 -43 136q24 101 79 190q23 37 32 37q14 0 26 -7t17 -13l6 -7q-19 -12 -53.5 -87.5t-49.5 -136.5t4 -71q29 0 116 157
q2 8 3 13q16 60 25 90l9 27q3 10 6 12q14 6 29 2.5t26.5 -11t9.5 -13.5q-8 -20 -8 -21l-21 -63q-11 -32 -31.5 -95.5t-30.5 -94.5q-35 -106 -39 -116q49 9 84 18.5t75.5 28.5t65.5 44t42 64.5t17 90.5q0 22 -7.5 32t-15 12.5t-7.5 4.5z" />
    <glyph glyph-name="z.ss01" horiz-adv-x="317" 
d="M443 226l-3 4q0 1 10.5 5t25 6t29.5 -0.5t25.5 -15.5t10.5 -37q0 -47 -13 -86.5t-32.5 -67.5t-51.5 -51t-62 -37.5t-73 -27t-74 -19t-75 -14.5q-1 -1 -2.5 -4l-2.5 -5q-71 -147 -152 -147q-10 0 -15 1q-20 4 -28 16q-7 11 -7 27l3 27q20 -13 44 -9q21 4 41 19
q24 19 46 61q-122 -23 -138 -60q-7 -17 -7 -27q-16 0 -16 31q0 25 13.5 43t42.5 29.5t56.5 18t73.5 14.5q17 36 34 86q12 33 18 51q-110 -20 -158 -33l-27 -9q-7 -4 -12 -4h-2q-5 3 -2 16q-6 3 -5 13t21 22q73 44 292 254q-122 9 -204 -9l-45 -108h-22l51 112q-2 6 4 17.5
t13 20.5l6 9q27 7 63.5 9t61 1t76 -4.5t71.5 -4.5q6 -29 -8 -42q-2 -2 -5 -2q-183 -169 -251 -230q138 30 158 24l-12 -42q-37 -114 -46 -138q50 9 85.5 18.5t77.5 28.5t67.5 44t43 65t17.5 92q0 22 -7.5 32t-15 12.5t-7.5 4.5z" />
    <glyph glyph-name="a.ss02" horiz-adv-x="300" 
d="M474 203l-3 2q36 0 60 -24.5t24 -62.5q0 -6 -3 -9q-29 29 -71 30t-85.5 -19.5t-84.5 -44.5t-81 -44.5t-63 -20.5q-61 0 -54 84q-43 -87 -90 -88q-35 0 -48 47q-2 10 -4 23q-7 50 16 120t64 122t80 53q24 1 43.5 -15.5t26.5 -37.5q21 31 30 31q14 0 26 -6.5t17 -13.5l6 -7
q-19 -12 -51.5 -81.5t-46 -125.5t5.5 -65q7 0 57.5 38t116.5 76.5t112 38.5zM130 173h1q26 79 63 139q-21 19 -39 19q-28 0 -65.5 -54.5t-56.5 -118.5t-1 -86q14 -18 42.5 17t55.5 84z" />
    <glyph glyph-name="b.ss02" horiz-adv-x="280" 
d="M288 657h-2q21 0 34.5 -14.5t16.5 -38t-1.5 -49t-20.5 -50t-40 -39.5q-32 -21 -128 -30q-11 -20 -17 -36.5t-13.5 -42t-16.5 -50.5q52 51 89 56q32 5 52 -22.5t14 -75.5q-9 -69 -34 -123.5t-54 -82.5t-51.5 -41.5t-35.5 -13.5q-22 0 -35 15.5t-12.5 28.5t0.5 15
q1 0 4.5 -3.5t9.5 -6.5t14.5 -3.5t21.5 6.5t28 22q43 43 75.5 129.5t11.5 126.5q-54 -16 -119 -92q-57 -180 -57 -238q-14 0 -33 11t-19 27q0 49 32.5 171t75.5 217q-182 -12 -250 56q-17 14 -14.5 46t30.5 39q0 -2 -2.5 -9t-1.5 -10q24 -69 264 -67q11 24 25 48t37.5 54.5
t55.5 50t66 19.5zM190 487h1q81 0 107 55q17 35 0 59q-8 10 -20 10q-39 0 -106 -124h18z" />
    <glyph glyph-name="c.ss02" horiz-adv-x="237" 
d="M359 150l-1 1q36 0 60 -24.5t24 -62.5q0 -6 -3 -9q-29 29 -71 30t-85 -19t-84 -44t-81 -44.5t-63 -21.5q-51 1 -74 58t-8 129q17 81 67 153.5t119 72.5q43 0 54 -37q6 -23 -3 -29q-2 -1 -3 -1q-10 6 -42 6q-54 0 -95 -92q-39 -87 -34 -165q3 -61 36 -61q7 0 57.5 40
t117 80t112.5 40z" />
    <glyph glyph-name="d.ss02" horiz-adv-x="303" 
d="M445 657l-3 1q21 0 34.5 -14.5t16.5 -38t-1.5 -49t-20.5 -50t-40 -39.5q-33 -21 -133 -30q-55 -103 -92.5 -214t-23.5 -162q22 6 53.5 42.5t52.5 70.5l21 33h21q-27 -54 -70 -113q-73 -101 -109 -94q-46 8 -26 122q-54 -116 -109 -116q-35 0 -47 46q-3 11 -4 25
q-5 50 20.5 119t68 119.5t81.5 50.5q34 0 56 -31q22 58 40 96q-179 -12 -247 56q-17 14 -14.5 46t30.5 39q0 -2 -2.5 -9t-1.5 -10q24 -70 263 -68q13 26 29 50.5t40 54.5t55 48.5t62 18.5zM346 488v1q81 0 107 55q17 35 0 59q-8 10 -20 10q-37 0 -107 -125h20zM137 179
l-2 -1q16 59 47 138q-15 11 -27 11q-28 0 -65.5 -54.5t-56.5 -118.5t-1 -86q7 -5 14 -5t18 11.5t20.5 22.5t20.5 28.5t18 29t14 24.5z" />
    <glyph glyph-name="e.ss02" horiz-adv-x="236" 
d="M361 167l-1 1q36 0 60 -24.5t24 -62.5q0 -6 -3 -9q-29 29 -71 30t-85 -19t-84 -44t-81 -44.5t-63 -21.5q-51 1 -74 58t-8 129q16 78 66 143.5t120 65.5q31 0 43 -19.5t9 -38.5v-1q0 -3 -2 -5q-5 -15 -12.5 -32.5t-22 -44t-35.5 -49t-44 -32.5q-32 -14 -56 21
q-19 -53 -11.5 -102.5t44.5 -58.5q7 0 57.5 40t117 80t112.5 40zM167 309l1 1q-38 0 -72.5 -40.5t-53.5 -97.5q31 0 72.5 48t58.5 89h-6z" />
    <glyph glyph-name="g.ss02" horiz-adv-x="234" 
d="M613 -12l-1 1q13 13 33 -15q25 -35 14 -63q-2 -6 -7 -11q-54 -54 -120 -80t-151.5 -22.5t-132.5 11t-140 28.5q-19 4 -28 6q-62 -113 -135 -113q-10 0 -15 1q-15 3 -28 16q-9 9 -15 26.5t-5 25.5q20 -13 61 -6q21 4 41 19q20 16 37 45q-96 17 -124 -8q-7 -7 -19 -33
q-1 3 -2 7t-2.5 17t3.5 22q16 38 62 47t106 -4q22 46 43 105q20 54 36 108q-52 -106 -104 -106q-35 0 -47 46q-3 11 -4 25q-5 50 20.5 119t68 119.5t81.5 50.5q30 0 51 -24l9 27q3 10 6 12q14 5 29.5 1.5t27.5 -11.5t8 -13q-8 -8 -22 -54l-21 -63q-11 -32 -31.5 -95
t-30.5 -95q-36 -112 -60 -166q157 -33 217 -36q168 -11 260 81q45 46 31 52zM29 71l1 2q8 -12 26 1t39 42.5t34 49t21 33.5q12 40 17 60l18 66q-10 5 -20 5q-21 0 -60.5 -54t-64.5 -118t-11 -87z" />
    <glyph glyph-name="h.ss02" horiz-adv-x="322" 
d="M211 43l3 3q13 0 43 41t53 82l23 41h22q-3 -8 -9 -22t-23.5 -49.5t-35.5 -62.5t-43.5 -49t-48.5 -22q-34 0 -47 27t-5.5 69t22.5 85t36 84q-44 -34 -83.5 -93t-91.5 -169v-6h-3v-3v2q-16 2 -33 12.5t-17 25.5q0 45 35 161t80 216q-182 -12 -250 56q-17 14 -14.5 46
t30.5 39q0 -2 -2.5 -9t-1.5 -10q24 -69 264 -67q11 24 25 48t37.5 54.5t55.5 50t66 19.5q21 0 34.5 -14.5t16.5 -38t-1.5 -49t-20.5 -50t-40 -39.5q-32 -21 -128 -30q-64 -119 -115 -316q66 154 201 230q6 6 9 6q14 0 26 -7t18 -13l5 -7q-19 -12 -51.5 -81.5t-46 -125.5
t5.5 -65zM290 599h1q-39 0 -106 -124h18q81 0 107 55q17 35 0 59q-8 10 -20 10z" />
    <glyph glyph-name="i.ss02" horiz-adv-x="163" 
d="M177 372h1q-19 -2 -39 10.5t-23 40.5q-1 12 6 29.5t15 26.5q6 7 32 -5t27 -20q-3 -4 -6.5 -12t-9 -29.5t-3.5 -40.5zM328 202h1q36 0 60 -24.5t24 -61.5q0 -6 -3 -9q-29 29 -71 30t-85.5 -19.5t-84.5 -44.5t-81 -44.5t-63 -20.5q-77 0 -47 127q23 94 75 177q23 36 32 36
q14 0 26 -7t17 -13l6 -7q-19 -12 -51.5 -81.5t-46 -125.5t5.5 -65q7 0 57.5 38t116.5 76.5t112 38.5z" />
    <glyph glyph-name="j.ss02" horiz-adv-x="85" 
d="M111 359h1q-19 -2 -39 10.5t-23 40.5q-1 12 6 29.5t15 26.5q6 7 32 -5t27 -20q-3 -4 -6.5 -12t-9 -29.5t-3.5 -40.5zM448 -57h-1q13 13 33 -15q25 -35 14 -63q-2 -6 -7 -11q-54 -54 -120 -80t-151.5 -22.5t-132.5 11t-140 28.5q-19 4 -28 6q-62 -113 -135 -113
q-10 0 -15 1q-15 3 -28 16q-9 9 -15 26.5t-5 25.5q20 -13 61 -6q21 4 41 19q20 16 37 45q-96 17 -124 -8q-7 -7 -19 -33q-1 3 -2 7t-2.5 17t3.5 22q16 38 62 47t106 -4q22 46 43 105q23 64 42 129q12 40 34 120q16 60 25 90l9 27q3 10 6 12q14 5 29.5 1.5t27.5 -11.5t8 -13
q-8 -8 -22 -54l-21 -63q-10 -32 -30.5 -95t-31.5 -95q-39 -120 -59 -166q157 -33 217 -36q168 -11 260 81q45 46 31 52z" />
    <glyph glyph-name="k.ss02" horiz-adv-x="264" 
d="M299 653l1 -3q21 0 34.5 -14.5t16.5 -38t-1.5 -49t-20.5 -50t-40 -39.5q-32 -21 -128 -30q-40 -73 -85 -216q34 59 71 105t59 46q7 0 27 -12t21 -19q2 -26 -18.5 -69.5t-62.5 -87t-91 -57.5q15 -53 54 -90q52 22 135 177h22q-4 -9 -16 -35.5t-17 -36.5t-16 -31.5t-19 -32
t-19.5 -25.5t-24 -25t-27.5 -18q-18 -11 -33 -11q-17 0 -29 10q-28 23 -50 100q-18 -74 -18 -100q-14 0 -33 11t-19 27q0 46 36.5 167t80.5 220q-182 -12 -250 56q-17 14 -14.5 46t30.5 39q0 -2 -2.5 -9t-1.5 -10q24 -69 264 -67q11 24 25 48t37.5 54.5t55.5 50t66 19.5z
M200 309q-26 -16 -47.5 -41t-58.5 -85q5 2 12.5 6.5t26.5 19t33 28.5t25 34t9 38zM204 481h1q81 0 107 55q17 35 0 59q-8 10 -20 10q-39 0 -106 -124h18z" />
    <glyph glyph-name="l.ss02" horiz-adv-x="153" 
d="M296 163v2q36 0 60 -24.5t24 -62.5q0 -6 -3 -9q-29 29 -71 30t-85.5 -19.5t-84.5 -44.5t-81 -44.5t-63 -20.5h-1q-34 11 -33 67.5t27.5 142t60 164.5t65 136t41.5 57q16 0 28.5 -7t17.5 -14l4 -7q-21 -13 -69.5 -109.5t-86 -210.5t-23.5 -160q14 -6 60 26.5t107.5 70
t105.5 37.5z" />
    <glyph glyph-name="m.ss02" horiz-adv-x="468" 
d="M632 199l4 -1q36 0 60 -24.5t24 -62.5q0 -6 -3 -9q-29 29 -71 30t-85.5 -19.5t-84.5 -44.5t-81 -44.5t-63 -20.5q-35 0 -47.5 28.5t-3.5 72.5t25 89.5t38 87.5q-47 -37 -82.5 -89.5t-77.5 -155.5v12v-12q-5 1 -12.5 3t-20.5 14.5t-13 32.5q0 27 26 95t54 124l-4 -5l-6 -3
q-79 -63 -167 -243q-3 -7 -10 -21t-10 -21h-3q-72 7 -33 149q29 102 80 183q20 31 29 31q14 0 26 -6.5t18 -13.5l5 -7q-19 -12 -53 -85t-50 -136q66 149 207 230v0h1h1q15 0 31 -7t12 -13q-60 -99 -90 -186q67 133 184 200q5 5 8 5q14 0 26 -7t18 -13l5 -7
q-19 -12 -53 -84.5t-48.5 -131t4.5 -67.5q7 0 57.5 38t116.5 76.5t112 38.5z" />
    <glyph glyph-name="n.ss02" horiz-adv-x="323" 
d="M493 193l3 2q36 0 60 -24.5t24 -61.5q0 -6 -3 -9q-29 29 -71 30t-85.5 -19.5t-84.5 -44.5t-81 -44.5t-63 -20.5q-37 0 -48.5 31t-1 78.5t28.5 95t41 88.5v0q-79 -63 -167 -243q-3 -7 -10 -21t-10 -21h-3q-72 7 -33 149q29 102 80 183q20 31 29 31q14 0 26 -7t18 -13l5 -7
q-19 -12 -53 -85t-50 -136q65 148 206 227h3h3l-1 -1q14 0 26 -7t17 -13l6 -7q-19 -12 -53 -84.5t-48.5 -131t4.5 -67.5q7 0 57.5 38t116.5 76.5t112 38.5z" />
    <glyph glyph-name="t.ss02" horiz-adv-x="160" 
d="M290 155l3 -1q36 0 60 -24.5t24 -61.5q0 -6 -3 -9q-29 29 -71 30t-85.5 -19.5t-84.5 -44.5t-81 -44.5t-63 -20.5h-1q-29 6 -32 53t16.5 116.5t47 141t59.5 138.5q-167 -9 -185 -27q-4 36 21 61q9 9 181 5q47 90 60 90q16 0 28.5 -7t17.5 -14l4 -7q-14 -10 -46 -65
q27 -1 55.5 -2t50.5 -2t40 -2t28 -1l11 -1q2 0 3 -5t-1.5 -13.5t-9.5 -15.5q-18 15 -196 9q-57 -108 -97.5 -225.5t-26.5 -165.5q14 -6 60 26.5t107.5 70t105.5 37.5z" />
    <glyph glyph-name="u.ss02" horiz-adv-x="309" 
d="M484 197h1q36 0 60 -24.5t24 -62.5q0 -6 -3 -9q-29 29 -71 30t-85.5 -19.5t-84.5 -44.5t-81 -44.5t-63 -20.5q-64 0 -52 95q-56 -93 -105 -93q-77 0 -43 136q24 101 79 190q23 37 32 37q14 0 26 -6.5t18 -13.5l5 -7q-19 -12 -53.5 -87.5t-49.5 -136.5t4 -71q29 0 118 162
q46 119 71 119q14 0 26 -7t17 -13l6 -7q-19 -12 -49 -77t-41.5 -117.5t8.5 -60.5q7 0 57.5 38t116.5 76.5t112 38.5z" />
    <glyph glyph-name="y.ss02" horiz-adv-x="261" 
d="M619 -22l2 -1q13 13 33 -15q25 -35 14 -63q-2 -6 -7 -11q-54 -54 -120 -80t-151.5 -22.5t-132.5 11t-140 28.5q-19 4 -28 6q-64 -113 -136 -113q-10 0 -15 1q-15 3 -28 16q-9 9 -15 26.5t-5 25.5q20 -13 61 -6q21 4 41 19q20 16 37 45q-96 17 -124 -8q-7 -7 -19 -33
q-1 3 -2 7t-2.5 17t3.5 22q16 38 62 47t106 -4q22 46 43 105q16 46 26 80q-49 -75 -94 -75q-77 0 -43 136q24 101 79 190q23 37 32 37q14 0 26 -7t18 -13l5 -7q-19 -12 -53.5 -87.5t-49.5 -136.5t4 -71q25 0 107 144q12 40 17 60q3 12 7.5 31t9.5 36l9 27q3 10 6 12
q14 5 29.5 1.5t27.5 -11.5t8 -13q-8 -8 -22 -54q-3 -11 -6 -20t-7 -20q-11 -32 -31.5 -95.5t-30.5 -94.5q-39 -120 -59 -166q157 -33 217 -36q168 -11 260 81q45 46 31 52z" />
    <glyph glyph-name="z.ss02" horiz-adv-x="317" 
d="M692 -21h-1q13 13 33 -15q25 -35 14 -63q-2 -6 -7 -11q-27 -27 -58 -47.5t-66 -31t-65.5 -18t-72 -6.5t-68.5 2t-72 9t-66 12t-66.5 14.5l-58.5 13.5q-63 -111 -135 -111q-10 0 -15 1q-20 4 -28 16q-7 11 -7 27l3 27q20 -13 44 -9q21 4 41 19q17 14 35 40
q-75 11 -101 -11q-7 -7 -19 -33q-1 3 -2 7t-2.5 17t3.5 22q15 35 51 44.5t95 2.5q21 42 44 109q12 33 18 51q-110 -20 -158 -33l-27 -9q-7 -4 -12 -4h-2q-5 3 -2 16q-6 3 -5 13t21 22q73 44 292 254q-122 9 -204 -9l-45 -108h-22l51 112q-2 6 4 17.5t12 20.5l7 9
q27 7 63.5 9t61 1t76 -4.5t71.5 -4.5q6 -29 -8 -42q-2 -2 -5 -2q-183 -169 -251 -230q138 30 158 24l-12 -42q-47 -140 -65 -181q14 -3 60 -12.5t66.5 -13.5t64 -10t68.5 -5.5t63.5 3t65 12t57 26.5t54.5 41q45 46 31 52z" />
    <glyph glyph-name="d.ss03" horiz-adv-x="303" 
d="M445 657h2q21 0 34.5 -14.5t16.5 -38t-1.5 -49t-20.5 -50t-40 -39.5q-33 -21 -133 -30q-81 -156 -115 -288q-32 -124 15 -124q30 0 74.5 44t78 106t33.5 107q1 6 5 5.5t6 -3.5q19 -20 23.5 -30.5t4.5 -29.5q0 -39 -34 -93t-92 -97t-116 -43q-72 0 -53 135
q-55 -120 -111 -120q-35 0 -47 46q-3 11 -4 25q-5 50 20.5 119t68 119.5t81.5 50.5q32 0 53 -28q20 53 39 93q-181 -12 -249 56q-17 14 -14.5 46t30.5 39q0 -2 -2.5 -9t-1.5 -10q24 -69 264 -67q2 3 6 11q12 25 27 48.5t38 51t52.5 44.5t61.5 17zM146 181v-1q16 66 43 136
q-5 2 -10 1.5t-13 -2t-10 -1.5q-21 0 -57 -50t-58 -110t-8 -83q13 -21 51 23t62 87zM351 486l-1 -1q81 0 107 55q17 35 0 59q-8 10 -20 10q-40 0 -106 -123h20z" />
    <glyph glyph-name="d.ss04" horiz-adv-x="303" 
d="M487 185v3q36 0 60 -24.5t24 -62.5q0 -6 -3 -9q-29 29 -71 30t-85 -19t-84 -44.5t-81 -45t-63 -20.5q-70 0 -53 129q-53 -115 -109 -115q-35 0 -47 46q-3 11 -4 25q-5 50 20.5 119t68 119.5t81.5 50.5q30 0 52 -27q21 53 40 94q-181 -12 -249 56q-17 14 -14.5 46t30.5 39
q0 -2 -2.5 -9t-1.5 -10q24 -69 264 -67q2 3 6 11q12 25 27 48.5t38 51t52.5 44.5t61.5 17q21 0 34.5 -14.5t16.5 -38t-1.5 -49t-20.5 -50t-40 -39.5q-33 -21 -133 -30q-80 -155 -115 -288q-34 -127 14 -127q7 0 57.5 40t117 80t112.5 40zM330 495l-1 -1h20q81 0 107 55
q17 35 0 59q-8 10 -20 10q-40 0 -106 -123zM34 80l1 -1q12 -20 46.5 18.5t59.5 81.5q16 65 45 141q-4 3 -29 3q-21 0 -57 -50t-58 -110t-8 -83z" />
    <glyph glyph-name="h.ss03" horiz-adv-x="322" 
d="M408 293l1 2q19 -20 23.5 -30.5t4.5 -29.5q0 -39 -38 -103.5t-100.5 -118t-119.5 -53.5q-36 0 -47 32.5t-0.5 83t29.5 101.5t42 97l-2 -3q-45 -34 -84 -93t-92 -169v-6h-3v-3v2q-16 2 -33 12.5t-17 25.5q0 47 33 162t77 212q-182 -12 -250 56q-17 14 -14.5 46t30.5 39
q0 -2 -2.5 -9t-1.5 -10q24 -69 264 -67q11 24 25 48t37.5 54.5t55.5 50t66 19.5q21 0 34.5 -14.5t16.5 -38t-1.5 -49t-20.5 -50t-40 -39.5q-32 -21 -128 -30q-56 -104 -110 -313q66 153 199 229q8 9 12 9q14 0 26 -6.5t18 -13.5l5 -7q-19 -12 -55.5 -97t-53.5 -154t2 -80
q30 0 78.5 55.5t85.5 129t37 119.5q1 6 5 5.5t6 -3.5zM283 596h1q-39 0 -106 -124h18q81 0 107 55q17 35 0 59q-8 10 -20 10z" />
    <glyph glyph-name="h.ss04" horiz-adv-x="322" 
d="M498 197v1q36 0 60 -24.5t24 -61.5q0 -6 -3 -9q-29 29 -71 30t-85.5 -19.5t-84.5 -44.5t-81 -44.5t-63 -20.5q-35 0 -47.5 27.5t-4.5 70.5t24 87t37 85l-1 -2q-45 -34 -85 -93t-93 -170v-7q-14 0 -33 11t-19 27q0 49 43 187.5t88 230.5q-39 8 -87.5 24.5t-78.5 25.5
t-64.5 13.5t-65 -8t-61.5 -43.5q-2 -2 -1 -6t-2 -4q-32 32 5 77.5t98 45.5q50 0 99.5 -15.5t102.5 -41t72 -32.5q12 25 26.5 48.5t38 51.5t53.5 45t62 17q39 0 50 -47q12 -54 -22 -105q-40 -57 -110 -58q-27 0 -51 3l-3 -8q-66 -120 -119 -330q68 157 208 233l-1 -1h3
q14 0 26 -6.5t17 -13.5l6 -7q-19 -12 -51.5 -81.5t-46 -125.5t5.5 -65q7 0 57.5 38t116.5 76.5t112 38.5zM291 609l-1 -1q-40 0 -105 -125q95 6 125 62q18 34 1 55q-8 9 -20 9z" />
    <glyph glyph-name="k.ss03" horiz-adv-x="264" 
d="M359 329l-2 -2q19 -20 23.5 -30.5t4.5 -29.5q0 -39 -39.5 -104t-103.5 -119t-121 -54q-17 0 -29 10q-28 25 -50 103q-19 -73 -19 -102q-14 0 -33 11t-19 27q0 45 36.5 164.5t81.5 219.5q-182 -12 -250 56q-17 14 -14.5 46t30.5 39q0 -2 -2.5 -9t-1.5 -10q24 -69 264 -67
q11 24 25 48t37.5 54.5t55.5 50t66 19.5q21 0 34.5 -14.5t16.5 -38t-1.5 -49t-20.5 -50t-40 -39.5q-32 -21 -128 -30q-46 -85 -87 -217q34 59 72 106.5t61 47.5q7 0 27 -12t21 -19q2 -26 -18.5 -69.5t-62.5 -87t-91 -57.5q15 -55 58 -93q30 0 80 54.5t89 127t39 117.5
q1 6 5 5.5t6 -3.5zM198 309q-26 -16 -47.5 -41t-58.5 -85q5 2 12.5 6.5t26.5 19t33 28.5t25 34t9 38zM289 602h1q-39 0 -106 -124h18q81 0 107 55q17 35 0 59q-8 10 -20 10z" />
    <glyph glyph-name="k.ss04" horiz-adv-x="264" 
d="M427 194l-2 -3q36 0 60 -24.5t24 -62.5q0 -6 -3 -9q-29 29 -71 30t-85.5 -19.5t-84.5 -44.5t-81 -44.5t-63 -20.5q-17 0 -29 10q-28 23 -50 98q-19 -73 -19 -102q-14 0 -33 11t-19 27q0 50 43 192t87 233q-39 8 -87.5 24.5t-78.5 25.5t-64.5 13.5t-65 -8t-61.5 -43.5
q-2 -2 -1 -6t-2 -4q-32 32 5 77.5t98 45.5q50 0 99.5 -15.5t102.5 -41t72 -32.5q12 25 26.5 48.5t38 51.5t53.5 45t62 17q39 0 50 -47q12 -54 -22 -105q-40 -57 -110 -58q-27 0 -51 3l-3 -8q-36 -64 -86 -222q34 58 70.5 102.5t58.5 44.5q7 0 27 -12t21 -19
q2 -26 -18.5 -69.5t-62.5 -87t-91 -57.5q15 -55 58 -93q7 0 58 39.5t117.5 79.5t112.5 40zM197 317q-26 -16 -47.5 -41t-58.5 -85q5 2 12.5 6.5t26.5 19t33 28.5t25 34t9 38zM288 618l-1 -1q-40 0 -105 -125q95 6 125 62q18 34 1 55q-8 9 -20 9z" />
    <glyph glyph-name="l.ss03" horiz-adv-x="153" 
d="M291 647l-2 -2q21 0 34.5 -14.5t16.5 -38t-1.5 -49t-20.5 -50t-40 -39.5q-33 -21 -134 -30q-54 -101 -89 -205t-21 -156q22 6 53.5 42.5t52.5 70.5l21 33h21q-27 -54 -70 -113q-73 -101 -109 -94q-31 6 -35.5 49t12.5 106.5t42.5 130.5t56.5 132q-181 -12 -249 56
q-17 14 -14.5 46t30.5 39q0 -2 -2.5 -9t-1.5 -10q24 -69 264 -67q2 3 6 11q12 25 27 48.5t38 51t52.5 44.5t61.5 17zM193 475l-1 -1q81 0 107 55q17 35 0 59q-8 10 -20 10q-40 0 -106 -123h20z" />
    <glyph glyph-name="l.ss04" horiz-adv-x="153" 
d="M297 656h1q21 0 34.5 -14.5t16.5 -38t-1.5 -49t-20.5 -50t-40 -39.5q-33 -21 -133 -30q-79 -152 -119 -293.5t9 -141.5q30 0 74.5 44t78 106t33.5 107q1 6 5 5.5t6 -3.5q19 -20 23.5 -30.5t4.5 -29.5q0 -39 -34 -93t-92 -97t-116 -43q-43 0 -53.5 48t7.5 123t45 149.5
t59 142.5q-181 -12 -249 56q-17 14 -14.5 46t30.5 39q0 -2 -2.5 -9t-1.5 -10q24 -69 264 -67q2 3 6 11q12 25 27 48.5t38 51t52.5 44.5t61.5 17zM202 486l-1 -1q81 0 107 55q17 35 0 59q-8 10 -20 10q-40 0 -106 -123h20z" />
    </font>
</defs>
</svg>
