{
    "asset" : {
        "generator" : "Khronos glTF Blender I/O v1.3.48",
        "version" : "2.0"
    },
    "scene" : 0,
    "scenes" : [
        {
            "name" : "Scene",
            "nodes" : [
                0
            ]
        }
    ],
    "nodes" : [
        {
            "mesh" : 0,
            "name" : "lady_with_umbrella_1"
        }
    ],
    "materials" : [
        {
            "doubleSided" : true,
            "emissiveFactor" : [
                0,
                0,
                0
            ],
            "name" : "lady_with_umbrella_1_M",
            "pbrMetallicRoughness" : {
                "baseColorFactor" : [
                    0.800000011920929,
                    0.800000011920929,
                    0.800000011920929,
                    1
                ],
                "metallicFactor" : 0,
                "roughnessFactor" : 0.5
            }
        }
    ],
    "meshes" : [
        {
            "name" : "Sphere.021",
            "primitives" : [
                {
                    "attributes" : {
                        "POSITION" : 0,
                        "NORMAL" : 1,
                        "TEXCOORD_0" : 2
                    },
                    "indices" : 3,
                    "material" : 0
                }
            ]
        }
    ],
    "accessors" : [
        {
            "bufferView" : 0,
            "componentType" : 5126,
            "count" : 6104,
            "max" : [
                3.317746639251709,
                7.197633266448975,
                1.300134301185608
            ],
            "min" : [
                -3.317746639251709,
                -0.0003729015588760376,
                -1.2808419466018677
            ],
            "type" : "VEC3"
        },
        {
            "bufferView" : 1,
            "componentType" : 5126,
            "count" : 6104,
            "type" : "VEC3"
        },
        {
            "bufferView" : 2,
            "componentType" : 5126,
            "count" : 6104,
            "type" : "VEC2"
        },
        {
            "bufferView" : 3,
            "componentType" : 5123,
            "count" : 31668,
            "type" : "SCALAR"
        }
    ],
    "bufferViews" : [
        {
            "buffer" : 0,
            "byteLength" : 73248,
            "byteOffset" : 0
        },
        {
            "buffer" : 0,
            "byteLength" : 73248,
            "byteOffset" : 73248
        },
        {
            "buffer" : 0,
            "byteLength" : 48832,
            "byteOffset" : 146496
        },
        {
            "buffer" : 0,
            "byteLength" : 63336,
            "byteOffset" : 195328
        }
    ],
    "buffers" : [
        {
            "byteLength" : 258664,
            "uri" : "data:application/octet-stream;base64,"
        }
    ]
}
