<?xml version="1.0" encoding="UTF-8"?>
<svg width="742px" height="681px" viewBox="0 0 742 681" version="1.1" xmlns="http://www.w3.org/2000/svg" xmlns:xlink="http://www.w3.org/1999/xlink">
    <!-- Generator: Sketch 61 (89581) - https://sketch.com -->
    <title>ic_Mobile App Development</title>
    <desc>Created with Sketch.</desc>
    <defs>
        <linearGradient x1="0%" y1="0%" x2="100%" y2="100%" id="linearGradient-1">
            <stop stop-color="#47EBC6" offset="0%"></stop>
            <stop stop-color="#15BD97" offset="100%"></stop>
        </linearGradient>
    </defs>
    <g id="ic_Mobile-App-Development" stroke="none" stroke-width="1" fill="none" fill-rule="evenodd">
        <path d="M371.5,231.387097 C393.382097,231.387097 411.177419,249.182419 411.177419,271.064516 L411.177419,271.064516 L411.177419,365.853871 C417.039758,362.441613 423.755161,360.33871 431.016129,360.33871 C442.919355,360.33871 453.493387,365.715 460.774194,374.047258 C468.055,365.715 478.629032,360.33871 490.532258,360.33871 C502.435484,360.33871 513.009516,365.715 520.290323,374.047258 C527.571129,365.715 538.145161,360.33871 550.048387,360.33871 C571.930484,360.33871 589.725806,378.134032 589.725806,400.016129 L589.725806,400.016129 L589.725806,540.593226 C589.725806,561.344516 581.651452,580.836048 566.980726,595.496855 C556.059516,606.408145 550.048387,620.930081 550.048387,636.374516 L550.048387,636.374516 L550.048387,648 L311.983871,648 L311.983871,593.136048 L281.769516,567.940887 C263.438548,552.655161 250.781452,531.447581 246.139194,508.196613 L246.139194,508.196613 L233.353145,444.256452 C232.867097,441.905565 232.629032,439.455484 232.629032,437.005403 C232.629032,416.61121 249.224113,400.016129 269.628226,400.016129 L269.628226,400.016129 L271.661694,400.016129 C288.137742,400.016129 302.77871,411.086129 307.262258,426.947177 L307.262258,426.947177 L320.841855,475.03621 C321.516371,477.426774 323.649032,479.063468 326.13879,479.103145 C327.388629,478.944435 329.065,478.557581 330.14621,477.49621 C331.227419,476.444758 331.822581,475.016371 331.822581,473.508629 L331.822581,473.508629 L331.822581,271.064516 C331.822581,249.182419 349.617903,231.387097 371.5,231.387097 Z M371.5,251.225806 C360.558952,251.225806 351.66129,260.123468 351.66129,271.064516 L351.66129,271.064516 L351.66129,473.508629 C351.66129,480.392661 348.963226,486.830323 344.053145,491.661048 C339.162903,496.481855 332.814516,499.050968 325.801532,498.951774 C314.493468,498.763306 304.832016,491.32379 301.747097,480.442258 L301.747097,480.442258 L288.1675,432.343306 C286.084435,424.993065 279.299597,419.854839 271.651774,419.854839 L271.651774,419.854839 L269.618306,419.854839 C260.165161,419.854839 252.467742,427.542339 252.467742,437.005403 C252.467742,438.13621 252.576855,439.247177 252.785161,440.348226 L252.785161,440.348226 L265.581129,504.308226 C269.350484,523.135161 279.607097,540.315484 294.46629,552.704758 L294.46629,552.704758 L331.822581,583.831694 L331.822581,628.16129 L530.63621,628.16129 C532.48121,610.524677 540.238145,594.177581 552.954758,581.470887 C563.875968,570.559597 569.887097,556.037661 569.887097,540.593226 L569.887097,540.593226 L569.887097,400.016129 C569.887097,389.075081 560.989435,380.177419 550.048387,380.177419 C539.107339,380.177419 530.209677,389.075081 530.209677,400.016129 L530.209677,400.016129 L530.209677,439.693548 L510.370968,439.693548 L510.370968,400.016129 C510.370968,389.075081 501.473306,380.177419 490.532258,380.177419 C479.59121,380.177419 470.693548,389.075081 470.693548,400.016129 L470.693548,400.016129 L470.693548,439.693548 L450.854839,439.693548 L450.854839,400.016129 C450.854839,389.075081 441.957177,380.177419 431.016129,380.177419 C420.075081,380.177419 411.177419,389.075081 411.177419,400.016129 L411.177419,400.016129 L411.177419,439.693548 L391.33871,439.693548 L391.33871,271.064516 C391.33871,260.123468 382.441048,251.225806 371.5,251.225806 Z M222.709677,459.532258 L222.709677,479.370968 L183.032258,479.370968 L183.032258,509.129032 C183.032258,525.535645 196.38371,538.887097 212.790323,538.887097 L212.790323,538.887097 L242.548387,538.887097 L242.548387,558.725806 L212.790323,558.725806 C185.442661,558.725806 163.193548,536.476694 163.193548,509.129032 L163.193548,509.129032 L163.193548,459.532258 L222.709677,459.532258 Z M183.032258,409.935484 L183.032258,439.693548 L163.193548,439.693548 L163.193548,409.935484 L183.032258,409.935484 Z M183.032258,152.032258 C248.668629,152.032258 302.064516,205.428145 302.064516,271.064516 C302.064516,336.700887 248.668629,390.096774 183.032258,390.096774 C117.395887,390.096774 64,336.700887 64,271.064516 C64,205.428145 117.395887,152.032258 183.032258,152.032258 Z M679,92.516129 L679,380.177419 L609.564516,380.177419 L609.564516,360.33871 L659.16129,360.33871 L659.16129,112.354839 L381.419355,112.354839 L381.419355,211.548387 L361.580645,211.548387 L361.580645,92.516129 L679,92.516129 Z M183.032258,171.870968 C128.336935,171.870968 83.8387097,216.369194 83.8387097,271.064516 C83.8387097,325.759839 128.336935,370.258065 183.032258,370.258065 C237.727581,370.258065 282.225806,325.759839 282.225806,271.064516 C282.225806,216.369194 237.727581,171.870968 183.032258,171.870968 Z M149.127903,211.548387 C160.852581,211.548387 171.872984,216.11129 180.155645,224.403871 L180.155645,224.403871 L183.032258,227.280484 L185.898952,224.403871 C194.191532,216.11129 205.202016,211.548387 216.936613,211.548387 L216.936613,211.548387 L218.493952,211.548387 C242.697177,211.548387 262.387097,231.238306 262.387097,255.441532 C262.387097,268.257339 256.8025,280.398629 247.071613,288.760645 L247.071613,288.760645 L183.032258,343.644435 L119.002823,288.770565 C109.262016,280.408548 103.677419,268.257339 103.677419,255.441532 C103.677419,231.238306 123.367339,211.548387 147.570565,211.548387 L147.570565,211.548387 Z M520.290323,132.193548 C564.044597,132.193548 599.645161,167.794113 599.645161,211.548387 C599.645161,235.662339 588.614839,258.427258 569.887097,273.445161 L569.887097,273.445161 L569.887097,280.983871 L589.725806,280.983871 L589.725806,300.822581 L569.887097,300.822581 L569.887097,340.5 L540.129032,340.5 L540.129032,320.66129 L550.048387,320.66129 L550.048387,300.822581 L450.854839,300.822581 L450.854839,280.983871 L470.693548,280.983871 L470.693548,273.445161 C451.965806,258.427258 440.935484,235.662339 440.935484,211.548387 C440.935484,167.794113 476.536048,132.193548 520.290323,132.193548 Z M149.127903,231.387097 L147.570565,231.387097 C134.308387,231.387097 123.516129,242.179355 123.516129,255.441532 C123.516129,262.464435 126.58121,269.130242 131.917823,273.712984 L131.917823,273.712984 L183.032258,317.516855 L234.146694,273.703065 C239.483306,269.130242 242.548387,262.464435 242.548387,255.441532 C242.548387,242.179355 231.756129,231.387097 218.493952,231.387097 L218.493952,231.387097 L216.936613,231.387097 C210.508871,231.387097 204.467984,233.886774 199.934839,238.429839 L199.934839,238.429839 L183.032258,255.332419 L166.129677,238.429839 C161.596532,233.886774 155.555645,231.387097 149.127903,231.387097 L149.127903,231.387097 Z M520.290323,152.032258 C487.467177,152.032258 460.774194,178.725242 460.774194,211.548387 C460.774194,230.950645 470.316613,249.192339 486.296694,260.351613 L486.296694,260.351613 L490.532258,263.3175 L490.532258,280.983871 L510.370968,280.983871 L510.370968,239.48129 C498.854597,235.374677 490.532258,224.463387 490.532258,211.548387 C490.532258,195.141774 503.88371,181.790323 520.290323,181.790323 C536.696935,181.790323 550.048387,195.141774 550.048387,211.548387 C550.048387,224.463387 541.726048,235.374677 530.209677,239.48129 L530.209677,239.48129 L530.209677,280.983871 L550.048387,280.983871 L550.048387,263.3175 L554.283952,260.351613 C570.264032,249.192339 579.806452,230.950645 579.806452,211.548387 C579.806452,178.725242 553.113468,152.032258 520.290323,152.032258 Z M520.290323,201.629032 C514.824758,201.629032 510.370968,206.072903 510.370968,211.548387 C510.370968,217.023871 514.824758,221.467742 520.290323,221.467742 C525.755887,221.467742 530.209677,217.023871 530.209677,211.548387 C530.209677,206.072903 525.755887,201.629032 520.290323,201.629032 Z M421.096774,33 C442.978871,33 460.774194,50.7953226 460.774194,72.6774194 L460.774194,72.6774194 L440.935484,72.6774194 C440.935484,61.736371 432.037823,52.8387097 421.096774,52.8387097 L421.096774,52.8387097 L212.790323,52.8387097 C196.38371,52.8387097 183.032258,66.1901613 183.032258,82.5967742 L183.032258,82.5967742 L183.032258,92.516129 L341.741935,92.516129 L341.741935,112.354839 L183.032258,112.354839 L183.032258,132.193548 L163.193548,132.193548 L163.193548,82.5967742 C163.193548,55.2491129 185.442661,33 212.790323,33 L212.790323,33 Z" id="Mobile-App-Development" fill="url(#linearGradient-1)" fill-rule="nonzero"></path>
    </g>
</svg>