<?xml version="1.0" encoding="UTF-8"?>
<svg width="105px" height="105px" viewBox="0 0 105 105" version="1.1" xmlns="http://www.w3.org/2000/svg" xmlns:xlink="http://www.w3.org/1999/xlink">
    <!-- Generator: Sketch 54.1 (76490) - https://sketchapp.com -->
    <title>Artboard</title>
    <desc>Created with Sketch.</desc>
    <g id="Artboard" stroke="none" stroke-width="1" fill="none" fill-rule="evenodd">
        <g id="Group-43" transform="translate(3.000000, 9.000000)">
            <path d="M34.0030289,52.6820968 C47.2254751,75.4682004 65.3452021,89.5529201 73.884477,84.6477057 C82.4159842,79.7469532 79.2173192,57.1003914 65.9969711,34.3179032 C52.7745249,11.5317996 34.6547979,-2.55292011 26.115523,2.35229433 C17.5840158,7.25304685 20.7826808,29.8996086 34.0030289,52.6820968 Z" id="Oval-Copy-4" stroke="#2D4152" stroke-width="2.78042153"></path>
            <path d="M65.9969711,52.6820968 C79.2173192,29.8996086 82.4159842,7.25304685 73.884477,2.35229433 C65.3452021,-2.55292011 47.2254751,11.5317996 34.0030289,34.3179032 C20.7826808,57.1003914 17.5840158,79.7469532 26.115523,84.6477057 C34.6547979,89.5529201 52.7745249,75.4682004 65.9969711,52.6820968 Z" id="Oval-Copy-5" stroke="#2D4152" stroke-width="2.78042153"></path>
            <ellipse id="Oval" stroke="#2D4152" stroke-width="2.8" cx="50" cy="43" rx="48.6" ry="18.6"></ellipse>
            <path d="M50,34 C46.7846097,33.9999999 43.8134665,35.7153902 42.2057714,38.4999999 C40.5980762,41.2846097 40.5980762,44.7153903 42.2057714,47.5000001 C43.8134665,50.2846098 46.7846097,52.0000001 50,52 C53.2153903,52.0000001 56.1865335,50.2846098 57.7942286,47.5000001 C59.4019238,44.7153903 59.4019238,41.2846097 57.7942286,38.4999999 C56.1865335,35.7153902 53.2153903,33.9999999 50,34 Z" id="Path" fill="#0487FF"></path>
        </g>
    </g>
</svg>