<?xml version="1.0" encoding="UTF-8"?>
<svg width="105px" height="105px" viewBox="0 0 105 105" version="1.1" xmlns="http://www.w3.org/2000/svg" xmlns:xlink="http://www.w3.org/1999/xlink">
    <!-- Generator: Sketch 54.1 (76490) - https://sketchapp.com -->
    <title>Artboard</title>
    <desc>Created with Sketch.</desc>
    <g id="Artboard" stroke="none" stroke-width="1" fill="none" fill-rule="evenodd">
        <g id="Group" transform="translate(10.000000, 3.000000)">
            <polygon id="Path-4" fill="#2D4152" fill-rule="nonzero" points="43.1895497 3.1076006 83.6724328 26.3202375 83.6724328 72.7396291 43.3974602 95.9496278 26.6819015 86.4830684 25.3427013 88.8227355 43.4092064 99.0543793 86.3790994 74.2913292 86.3790994 24.764623 43.1895497 1.13686838e-13 0 24.764623 0 73.5154791 2.70666667 73.5154791 2.70666667 26.3202375"></polygon>
            <polygon id="Path-5" fill="#FFFFFF" fill-rule="nonzero" points="2.70666667 72.7396291 2.70666667 26.3202375 43.1895497 3.1076006 83.6724328 26.3202375 83.6724328 72.7396291 43.5 96.0076751 26.96562 86.5860409"></polygon>
            <path d="M63.1399779,43.7470906 C63.1399779,43.7470906 62.3399678,36.9187638 54.9851048,36.9187638 C47.629535,36.9187638 42.5934291,37.8711782 42.5934291,41.9208694 C42.5934291,45.9705605 56.9045636,45.9705605 62.3413812,47.5581518 C67.7781989,49.145743 72.5747258,53.2747436 70.176109,60.5796285 C67.7774922,67.8845134 60.4219224,68.678309 49.0691291,68.678309 C37.7163359,68.678309 35.157293,59.3085729 35.157293,55.6568323 L41.5531333,55.6568323 C41.5531333,55.6568323 40.7531232,61.3734241 48.2684123,62.3258385 C55.7837014,63.2782529 62.9696577,63.8144685 63.9385745,58.038921 C65.2177426,50.4160968 39.6336745,54.2278598 37.394777,46.7643562 C35.5035871,40.4582079 36.5947669,32.1552882 49.3871543,30.8842326 C62.1795417,29.6131771 69.2149661,35.2223854 69.2149661,43.5884718 L63.1399779,43.7470906 Z" id="Path" fill="#0487FF" fill-rule="nonzero"></path>
            <path d="M15.9871432,81.7328951 C22.2977897,85.3472409 30.4958371,80.0112282 30.4958371,72.457085 L30.4958371,33.087724 L26.6998557,33.087724 L26.6998557,71.8268211 C26.6998557,77.0346609 21.0306167,80.2853063 16.4967839,77.6851026 L7.00772881,72.2448148 L2.37900183,73.7681232 L15.9871432,81.7328951 Z" id="Path-Copy" stroke="#0587FF" stroke-width="1.96734212" fill="#0487FF"></path>
        </g>
    </g>
</svg>