<?xml version="1.0" encoding="UTF-8"?>
<svg width="386px" height="414px" viewBox="0 0 386 414" version="1.1" xmlns="http://www.w3.org/2000/svg" xmlns:xlink="http://www.w3.org/1999/xlink">
    <!-- Generator: Sketch 63.1 (92452) - https://sketch.com -->
    <title>404</title>
    <desc>Created with Sketch.</desc>
    <defs>
        <linearGradient x1="44.9976331%" y1="-5.07285083%" x2="54.597887%" y2="100.452239%" id="linearGradient-1">
            <stop stop-color="#FF8701" offset="0%"></stop>
            <stop stop-color="#FFB24D" offset="100%"></stop>
        </linearGradient>
        <linearGradient x1="-123.880006%" y1="-63.8388367%" x2="-63.3079995%" y2="383.959785%" id="linearGradient-2">
            <stop stop-color="#FE7073" offset="0%"></stop>
            <stop stop-color="#5C7DFF" offset="100%"></stop>
        </linearGradient>
        <linearGradient x1="20.7483624%" y1="61.1584807%" x2="119.452292%" y2="-10.5235713%" id="linearGradient-3">
            <stop stop-color="#FFB8A1" offset="0%"></stop>
            <stop stop-color="#F97262" offset="100%"></stop>
        </linearGradient>
        <linearGradient x1="12.8976936%" y1="72.4738007%" x2="144.808512%" y2="-20.7871322%" id="linearGradient-4">
            <stop stop-color="#FFB8A1" offset="0%"></stop>
            <stop stop-color="#F97262" offset="100%"></stop>
        </linearGradient>
        <linearGradient x1="17.3197095%" y1="74.3248142%" x2="139.313461%" y2="30.6996837%" id="linearGradient-5">
            <stop stop-color="#FFA789" offset="0%"></stop>
            <stop stop-color="#F75649" offset="100%"></stop>
        </linearGradient>
        <linearGradient x1="-1.19492158%" y1="81.0267335%" x2="152.058252%" y2="-40.6234048%" id="linearGradient-6">
            <stop stop-color="#FFA789" offset="0%"></stop>
            <stop stop-color="#F75649" offset="100%"></stop>
        </linearGradient>
        <linearGradient x1="-196.279005%" y1="132.087136%" x2="165.431224%" y2="-167.365322%" id="linearGradient-7">
            <stop stop-color="#FFA789" offset="0%"></stop>
            <stop stop-color="#F75649" offset="100%"></stop>
        </linearGradient>
        <linearGradient x1="-35.9635812%" y1="79.8896803%" x2="238.05956%" y2="17.6545388%" id="linearGradient-8">
            <stop stop-color="#FF916B" offset="0%"></stop>
            <stop stop-color="#F54037" offset="100%"></stop>
        </linearGradient>
        <linearGradient x1="-926.15%" y1="485.6%" x2="518.5%" y2="-531.64%" id="linearGradient-9">
            <stop stop-color="#FF916B" offset="0%"></stop>
            <stop stop-color="#F54037" offset="100%"></stop>
        </linearGradient>
        <linearGradient x1="46.5318598%" y1="7.92938785%" x2="51.8337274%" y2="114.147665%" id="linearGradient-10">
            <stop stop-color="#FFB8A1" offset="0%"></stop>
            <stop stop-color="#F97262" offset="100%"></stop>
        </linearGradient>
        <linearGradient x1="47.4215745%" y1="38.4057528%" x2="57.3760287%" y2="66.8959222%" id="linearGradient-11">
            <stop stop-color="#FFB8A1" offset="0%"></stop>
            <stop stop-color="#F97262" offset="100%"></stop>
        </linearGradient>
        <linearGradient x1="-9148.35%" y1="7046%" x2="-13456.74%" y2="-22394.5%" id="linearGradient-12">
            <stop stop-color="#D6E2FF" offset="0%"></stop>
            <stop stop-color="#F2F6FF" offset="100%"></stop>
        </linearGradient>
        <linearGradient x1="39.0024585%" y1="-22.8662326%" x2="54.3657637%" y2="71.4565678%" id="linearGradient-13">
            <stop stop-color="#FE7073" offset="0%"></stop>
            <stop stop-color="#FC4B4F" offset="100%"></stop>
        </linearGradient>
        <linearGradient x1="102.489185%" y1="49.8244898%" x2="-3.03590513%" y2="50.083339%" id="linearGradient-14">
            <stop stop-color="#FF8701" offset="0%"></stop>
            <stop stop-color="#FFB24D" offset="100%"></stop>
        </linearGradient>
        <linearGradient x1="-42.2370548%" y1="32.3833291%" x2="-15.307906%" y2="74.2182152%" id="linearGradient-15">
            <stop stop-color="#FFCBB9" offset="0%"></stop>
            <stop stop-color="#FB907B" offset="100%"></stop>
        </linearGradient>
        <linearGradient x1="-8.96423445%" y1="37.6620115%" x2="103.501608%" y2="52.3843564%" id="linearGradient-16">
            <stop stop-color="#9A5FD2" offset="0%"></stop>
            <stop stop-color="#7B97FF" offset="100%"></stop>
        </linearGradient>
        <linearGradient x1="16.8686316%" y1="25.497906%" x2="80.0619777%" y2="54.7351094%" id="linearGradient-17">
            <stop stop-color="#9A5FD2" offset="0%"></stop>
            <stop stop-color="#7B97FF" offset="100%"></stop>
        </linearGradient>
        <linearGradient x1="25.0730495%" y1="25.5917914%" x2="55.8847979%" y2="54.6976189%" id="linearGradient-18">
            <stop stop-color="#761EC9" offset="0%"></stop>
            <stop stop-color="#9A5FD2" offset="100%"></stop>
        </linearGradient>
        <linearGradient x1="-86.0982243%" y1="145.334991%" x2="-200.970245%" y2="-527.922576%" id="linearGradient-19">
            <stop stop-color="#D6E2FF" offset="0%"></stop>
            <stop stop-color="#F2F6FF" offset="100%"></stop>
        </linearGradient>
        <linearGradient x1="-0.295605493%" y1="25.5917914%" x2="61.8738741%" y2="54.6976189%" id="linearGradient-20">
            <stop stop-color="#761EC9" offset="0%"></stop>
            <stop stop-color="#9A5FD2" offset="100%"></stop>
        </linearGradient>
        <linearGradient x1="29.7949666%" y1="-11.0702997%" x2="42.7690371%" y2="127.032311%" id="linearGradient-21">
            <stop stop-color="#FF8683" offset="0%"></stop>
            <stop stop-color="#F2746D" offset="100%"></stop>
        </linearGradient>
        <linearGradient x1="63.5723496%" y1="95.5791046%" x2="32.8812167%" y2="-7.49093032%" id="linearGradient-22">
            <stop stop-color="#A6BDFF" offset="0%"></stop>
            <stop stop-color="#8FA6FF" offset="100%"></stop>
        </linearGradient>
        <path d="M33.1546082,62.0632554 C15.855565,62.0632554 7.44132727,58.6598484 1.62656096,36.0051008 C1.62656096,36.0051008 1.83687908,26.8217524 0.198717836,13.3811191 L1.04150338,13.3811191 L10.4306689,1.08840432 C10.929481,0.436269572 11.6239847,0.143741998 12.3094099,0.143741998 C13.5324829,0.143741998 14.7257986,1.07478666 14.7257986,2.54145939 L14.7257986,13.3811191 L27.777122,13.3811191 L27.777122,17.6237776 C27.777122,25.0070728 33.7638751,30.9892617 41.1477053,30.9892617 L50.1752447,30.9892617 L50.1752447,61.603281 C48.5981111,61.6481689 47.0724221,61.6986047 45.5951517,61.7490405 C40.9984148,61.9058958 36.8702282,62.0632554 33.1546082,62.0632554 Z" id="path-23"></path>
        <rect id="path-25" x="0.198717836" y="0.143741998" width="49.9770313" height="61.9195134"></rect>
        <linearGradient x1="17.8858205%" y1="2.7446888%" x2="92.5730468%" y2="102.718824%" id="linearGradient-27">
            <stop stop-color="#FE7073" offset="0%"></stop>
            <stop stop-color="#EF5B54" offset="100%"></stop>
        </linearGradient>
        <linearGradient x1="29.346049%" y1="18.6976365%" x2="128.726839%" y2="169.311354%" id="linearGradient-28">
            <stop stop-color="#FF706E" offset="0%"></stop>
            <stop stop-color="#EF5B54" offset="100%"></stop>
        </linearGradient>
        <linearGradient x1="27.2253338%" y1="116.329864%" x2="92.3289543%" y2="-40.0597377%" id="linearGradient-29">
            <stop stop-color="#FFB8A1" offset="0%"></stop>
            <stop stop-color="#F97262" offset="100%"></stop>
        </linearGradient>
        <linearGradient x1="41.7880372%" y1="25.497906%" x2="57.4511816%" y2="54.7351094%" id="linearGradient-30">
            <stop stop-color="#9A5FD2" offset="0%"></stop>
            <stop stop-color="#7B97FF" offset="100%"></stop>
        </linearGradient>
        <linearGradient x1="27.1509792%" y1="25.497906%" x2="70.732218%" y2="54.7351094%" id="linearGradient-31">
            <stop stop-color="#9A5FD2" offset="0%"></stop>
            <stop stop-color="#7B97FF" offset="100%"></stop>
        </linearGradient>
        <linearGradient x1="27.4615121%" y1="-7.48921378%" x2="56.4375112%" y2="92.8393825%" id="linearGradient-32">
            <stop stop-color="#FF706E" offset="0%"></stop>
            <stop stop-color="#EF5B54" offset="100%"></stop>
        </linearGradient>
        <linearGradient x1="917.535494%" y1="6920.56686%" x2="561.797928%" y2="-211.337209%" id="linearGradient-33">
            <stop stop-color="#D6E2FF" offset="0%"></stop>
            <stop stop-color="#F2F6FF" offset="100%"></stop>
        </linearGradient>
        <linearGradient x1="18.879389%" y1="25.5917914%" x2="57.347008%" y2="54.6976189%" id="linearGradient-34">
            <stop stop-color="#761EC9" offset="0%"></stop>
            <stop stop-color="#9A5FD2" offset="100%"></stop>
        </linearGradient>
        <linearGradient x1="28.939856%" y1="-53.6697113%" x2="50.3690282%" y2="66.8019544%" id="linearGradient-35">
            <stop stop-color="#FF5552" offset="0%"></stop>
            <stop stop-color="#EB453F" offset="100%"></stop>
        </linearGradient>
        <linearGradient x1="16.0975905%" y1="70.3440903%" x2="130.178484%" y2="20.6482929%" id="linearGradient-36">
            <stop stop-color="#FFB8A1" offset="0%"></stop>
            <stop stop-color="#F97262" offset="100%"></stop>
        </linearGradient>
        <linearGradient x1="67.6074302%" y1="164.895656%" x2="35.493653%" y2="-13.14523%" id="linearGradient-37">
            <stop stop-color="#FFB8A1" offset="0%"></stop>
            <stop stop-color="#F97262" offset="100%"></stop>
        </linearGradient>
        <linearGradient x1="55.7816458%" y1="123.261909%" x2="43.689441%" y2="-103.098976%" id="linearGradient-38">
            <stop stop-color="#FFB8A1" offset="0%"></stop>
            <stop stop-color="#F97262" offset="100%"></stop>
        </linearGradient>
        <linearGradient x1="81.7352036%" y1="366.310786%" x2="73.8372592%" y2="-80.8006561%" id="linearGradient-39">
            <stop stop-color="#D6E2FF" offset="0%"></stop>
            <stop stop-color="#F2F6FF" offset="100%"></stop>
        </linearGradient>
        <linearGradient x1="41.4788564%" y1="25.5917914%" x2="52.0116864%" y2="54.6976189%" id="linearGradient-40">
            <stop stop-color="#761EC9" offset="0%"></stop>
            <stop stop-color="#9A5FD2" offset="100%"></stop>
        </linearGradient>
        <linearGradient x1="10001.7%" y1="29124.85%" x2="5693.31%" y2="-315.65%" id="linearGradient-41">
            <stop stop-color="#D6E2FF" offset="0%"></stop>
            <stop stop-color="#F2F6FF" offset="100%"></stop>
        </linearGradient>
        <linearGradient x1="-2971.2%" y1="-4104.61%" x2="-1381.27%" y2="801.96%" id="linearGradient-42">
            <stop stop-color="#FF5552" offset="0%"></stop>
            <stop stop-color="#EB453F" offset="100%"></stop>
        </linearGradient>
        <linearGradient x1="-3157.5%" y1="-3973.96%" x2="-1567.57%" y2="932.61%" id="linearGradient-43">
            <stop stop-color="#FF5552" offset="0%"></stop>
            <stop stop-color="#EB453F" offset="100%"></stop>
        </linearGradient>
        <linearGradient x1="-3318.8%" y1="-3800.81%" x2="-1728.87%" y2="1105.76%" id="linearGradient-44">
            <stop stop-color="#FF5552" offset="0%"></stop>
            <stop stop-color="#EB453F" offset="100%"></stop>
        </linearGradient>
        <linearGradient x1="50.7429129%" y1="120.440896%" x2="43.324787%" y2="-81.6138057%" id="linearGradient-45">
            <stop stop-color="#FFA789" offset="0%"></stop>
            <stop stop-color="#F75649" offset="100%"></stop>
        </linearGradient>
        <linearGradient x1="4.37870708%" y1="-72.0969059%" x2="28.8044419%" y2="150.504038%" id="linearGradient-46">
            <stop stop-color="#FF5552" offset="0%"></stop>
            <stop stop-color="#EB453F" offset="100%"></stop>
        </linearGradient>
        <linearGradient x1="4.43834696%" y1="143.583755%" x2="73.0371998%" y2="-73.8134164%" id="linearGradient-47">
            <stop stop-color="#FFA789" offset="0%"></stop>
            <stop stop-color="#F75649" offset="100%"></stop>
        </linearGradient>
        <linearGradient x1="50.937681%" y1="-157.123429%" x2="82.7933887%" y2="123.252%" id="linearGradient-48">
            <stop stop-color="#FF5552" offset="0%"></stop>
            <stop stop-color="#EB453F" offset="100%"></stop>
        </linearGradient>
        <linearGradient x1="31.4502876%" y1="86.396781%" x2="220.246508%" y2="42.384008%" id="linearGradient-49">
            <stop stop-color="#FFA789" offset="0%"></stop>
            <stop stop-color="#F75649" offset="100%"></stop>
        </linearGradient>
        <linearGradient x1="78.6107913%" y1="212.183659%" x2="45.6719001%" y2="10.670041%" id="linearGradient-50">
            <stop stop-color="#FFA789" offset="0%"></stop>
            <stop stop-color="#F75649" offset="100%"></stop>
        </linearGradient>
    </defs>
    <g id="Design" stroke="none" stroke-width="1" fill="none" fill-rule="evenodd">
        <g id="404:-Not-Found" transform="translate(-490.000000, -157.000000)">
            <g id="404" transform="translate(490.000000, 157.000000)">
                <path d="M312.116677,378.278923 C308.330903,378.278923 304.281397,378.045661 299.939789,377.558123 C281.622446,375.502899 264.330614,369.006247 247.893024,360.277849 C252.745286,353.452319 256.366095,348.264875 256.480624,348.102012 C256.482726,348.097809 277.004496,336.491467 287.301631,326.476977 C277.126381,322.198412 268.75523,305.915279 265.453842,298.67156 C264.300143,300.235043 262.849087,302.214615 261.209951,304.463173 C252.536191,316.352161 238.642414,335.781174 236.364435,341.153547 C235.602657,342.948191 234.001348,346.545884 232.006015,351.058761 C187.363731,323.108343 149.073098,283.291002 113.489141,280.649472 C106.335784,280.117803 99.8443856,279.944433 93.9466489,279.944433 C90.1409118,279.944433 86.5831465,280.016933 83.2512877,280.11255 L83.2512877,249.498536 L258.865777,249.498536 C260.917849,252.410104 267.553197,255.574897 275.10583,256.271529 C281.507917,263.34398 291.965813,270.666504 304.936001,275.483042 C301.715519,277.19783 298.692574,278.584791 296.842242,278.996677 C292.472264,279.964397 289.282254,283.144951 289.705697,285.26532 C289.611132,285.130827 289.505008,284.988979 289.393631,284.83242 L289.389428,284.822964 C285.951446,280.088383 275.787753,267.457581 262.178723,267.457581 C261.720605,267.457581 261.258285,267.47124 260.792812,267.500661 C243.787829,268.579758 218.88032,326.059838 217.680388,329.415864 C217.504917,329.904452 217.414554,330.343657 217.39354,330.731375 C217.272706,332.766636 219.088364,333.521058 221.364241,333.521058 C221.646887,333.521058 221.937939,333.5095 222.232142,333.487435 C222.418121,333.472725 222.735441,333.32142 223.164138,333.049281 C229.84782,328.805391 263.937642,295.16423 263.937642,295.16423 C263.937642,295.16423 264.471411,296.519669 265.453842,298.67156 C268.75523,305.915279 277.126381,322.198412 287.301631,326.476977 C288.285113,326.890964 289.282254,327.193574 290.296206,327.364842 C290.932948,327.474118 291.574942,327.531908 292.22114,327.531908 C292.49538,327.531908 292.770671,327.521401 293.047012,327.500386 C303.368314,326.719695 308.298331,318.973728 310.485947,313.634979 C306.988073,312.491786 305.284842,304.236216 300.14363,296.33369 C298.959459,294.508575 297.588259,292.705526 295.975392,291.011752 C294.42872,289.393631 292.664547,287.87743 290.613526,286.540904 C292.664547,287.87743 294.42872,289.393631 295.975392,291.011752 C297.588259,292.705526 298.959459,294.508575 300.14363,296.33369 C305.284842,304.236216 306.988073,312.491786 310.485947,313.634979 C310.50591,313.641283 310.526925,313.647587 310.546889,313.653892 C310.589969,313.6665 310.634099,313.679109 310.67823,313.689616 C310.73602,313.704327 310.79381,313.716935 310.852651,313.726392 C310.945115,313.743204 311.044934,313.751609 311.151057,313.751609 C316.474046,313.750559 339.106729,293.545058 347.387517,280.649472 C363.299743,315.103896 374.370214,378.27472 312.116677,378.278923 Z M302.084325,262.440354 C299.468012,261.649156 297.018765,260.777051 294.755496,259.874476 L294.720822,259.860817 L294.705061,259.855563 C283.516909,255.40573 276.814314,250.25401 276.814314,250.25401 C276.814314,250.25401 276.840582,249.946146 276.861597,249.498536 L290.601968,249.498536 C297.984384,249.498536 303.967229,243.516741 303.967229,236.133275 L303.967229,146.437872 L310.614135,146.437872 L324.298818,146.437872 L332.056343,146.437872 C330.038945,171.412628 330.686194,199.844279 333.842581,225.380124 C331.293515,226.148206 329.801481,228.0164 329.178399,230.146226 C328.941985,230.94478 328.830608,231.781159 328.831659,232.609133 C328.831659,233.214352 328.892601,233.815369 329.00713,234.395371 C329.651227,237.604294 331.698045,238.062412 332.813918,238.062412 C333.260478,238.062412 333.557834,237.988861 333.557834,237.988861 C333.557834,237.988861 333.52316,238.10339 333.52316,238.314586 C333.52316,238.667631 333.615624,239.291764 334.116821,240.111331 C333.839429,240.992892 333.496892,242.197027 333.210043,243.538807 C332.671019,246.062655 332.333736,249.087702 333.01881,251.400354 C333.186927,251.97195 333.417036,252.457387 333.694428,252.870323 C331.983843,251.894196 327.20198,247.015666 324.798964,244.507578 C323.92686,243.606053 323.366822,243.007138 323.366822,243.007138 C322.964393,242.940942 322.565117,242.90942 322.168992,242.90942 C317.892529,242.90942 314.135125,246.557548 313.604507,249.200129 C313.519398,249.624624 313.519398,250.021799 313.609761,250.374843 C313.705377,250.747852 313.892407,251.287926 314.144582,251.937276 C315.389694,255.213446 318.181479,261.432706 318.796155,264.678405 C318.887568,265.121812 318.927496,265.510582 318.922242,265.826851 C312.782838,265.21953 307.125718,263.972316 302.084325,262.440354 Z M338.526727,255.022214 C338.688539,255.022214 338.8493,255.018011 339.00691,255.011706 C338.84825,255.018011 338.688539,255.022214 338.526727,255.022214 Z M60.8529171,231.890435 L47.8018235,231.890435 L34.117141,231.890435 L33.274457,231.890435 C32.2657581,223.610698 30.5551727,213.71389 27.6614676,203.353711 C27.7360693,203.213964 27.8117217,203.073166 27.8873741,202.930267 C28.2698392,202.209468 28.6691158,201.455045 29.0831027,200.672253 C34.4796421,190.474937 42.4000305,175.373873 48.5404854,163.656153 C53.1426744,174.187601 57.5010945,182.539838 59.0540706,183.97093 L59.2852308,184.146401 C59.3398687,184.174771 59.3924051,184.189481 59.4438907,184.189481 C59.9419359,184.189481 60.3307052,182.894984 60.6364671,180.698963 C60.714221,180.127367 60.7867212,179.501133 60.8529171,178.820261 L60.8529171,231.890435 Z M22.8669953,188.864171 C21.4684763,185.251767 19.9049929,181.649872 18.1576321,178.099461 C3.8908461,149.11933 30.314556,95.6845532 68.5011668,75.1596307 C68.4202608,75.5032188 68.3435576,75.8331474 68.2721081,76.1473151 C67.9159113,77.7139507 67.6900048,78.8865632 67.6900048,79.3635938 C67.6900048,79.4949348 67.7068164,79.5737394 67.7425412,79.5937032 C67.7425412,79.5937032 58.7756277,95.2674141 55.0056153,102.107654 C46.0523613,105.544586 37.8482764,109.755904 35.527218,114.207839 C33.9605825,117.206617 34.7559836,123.625514 36.8112078,131.415612 C36.6273304,132.160579 36.4360978,132.938117 36.238561,133.744026 C35.6932331,135.95791 35.0964195,138.389295 34.4638812,140.98039 C30.9670582,155.236669 26.3091805,174.339956 22.8669953,188.864171 Z M61.7891158,127.712847 C61.8111811,127.211649 61.8374493,126.855453 61.8710726,126.662119 C61.9099496,126.438314 62.1526677,126.24498 62.5740097,126.071609 C62.2766537,126.598024 62.0139716,127.145454 61.7891158,127.712847 Z M275.164671,119.268145 L117.922162,119.268145 C116.329259,117.132015 112.690587,113.281096 112.058049,110.523986 C111.996056,110.253949 111.968737,109.922969 111.968737,109.536302 C111.967686,105.643354 114.808855,96.1342648 114.806754,86.8363719 C114.805703,83.5528467 114.450557,80.2955896 113.489141,77.3209784 C113.232763,76.4036928 112.975335,75.5074217 112.718957,74.6353174 C111.576815,70.7822975 110.415761,67.3590254 109.24525,64.3213705 C147.202802,51.7567641 165.80174,0.529566955 221.194023,0.529566955 C226.015814,0.529566955 231.110795,0.917285619 236.526247,1.75261445 C289.866459,9.97666318 323.13251,40.5150243 334.044321,74.6353174 L279.681751,74.6353174 C277.187323,74.6353174 275.164671,76.6569182 275.164671,79.1513467 L275.164671,119.268145 Z M107.324519,119.268145 L99.3610507,119.268145 C101.846023,118.230026 104.066211,116.983862 105.856652,115.475017 C105.973283,116.703318 106.166617,117.81814 106.483936,118.516874 C106.610024,118.795317 106.905278,119.045391 107.324519,119.268145 Z M69.223017,97.3383992 C72.2606719,92.9053774 75.6671324,87.6349253 76.3658666,85.3443381 C76.7031503,84.9314019 77.2169563,83.9542248 77.7664871,82.8047283 C78.9664186,80.2892852 80.3271114,76.9637308 80.3271114,76.9637308 C80.3271114,76.9637308 84.0256743,84.6235386 83.7545865,87.2598154 C83.6274484,88.4387323 82.9780984,89.95073 82.5798725,91.210553 C82.3970458,91.7874027 82.2678062,92.311716 82.2678062,92.7257029 C82.2678062,93.2489655 82.4747997,93.5967564 83.0432436,93.6503436 C82.9633882,93.6703074 82.0912839,93.8720472 80.6244675,94.2345484 C78.1552565,94.8450214 74.0237937,95.9136119 69.223017,97.3383992 Z M104.705054,92.7729856 C104.674583,92.6574055 104.644112,92.5313182 104.609438,92.4052308 C104.644112,92.5313182 104.679836,92.6521519 104.705054,92.7729856 Z M104.609438,92.4052308 C104.539039,92.1435995 104.458133,91.8609536 104.373024,91.5688512 C104.458133,91.8609536 104.539039,92.1383459 104.609438,92.4052308 Z M104.337299,91.4532712 C104.325741,91.4175464 104.315234,91.3807709 104.303676,91.3450462 C104.274255,91.2483792 104.243784,91.1506615 104.213313,91.051893 C104.198603,91.005661 104.184943,90.959429 104.171284,90.9142476 C104.231175,91.0949729 104.286864,91.2767488 104.337299,91.4532712 Z M103.953783,90.2386295 C103.950631,90.2281222 103.946428,90.2176149 103.943276,90.2071076 C103.92016,90.1388103 103.898095,90.0694623 103.874979,90.0011649 C103.902298,90.0799695 103.929616,90.1577234 103.953783,90.2386295 Z M104.406647,84.2042981 C104.513821,84.1591168 104.623097,84.111834 104.735525,84.0635005 C104.761793,84.0519425 104.789112,84.0414352 104.81538,84.0288265 L104.88788,83.9973047 L104.81538,84.0288265 C104.676684,84.088718 104.542191,84.1486095 104.406647,84.2042981 Z M105.238824,83.8428476 C105.288208,83.8207823 105.337592,83.798717 105.386976,83.7766518 C105.337592,83.798717 105.288208,83.8207823 105.238824,83.8428476 Z" id="Shape" fill="#FFE7C7"></path>
                <path d="M310.852651,313.726392 C310.79381,313.716935 310.73602,313.704327 310.67823,313.689616 C310.73602,313.704327 310.79381,313.715885 310.852651,313.726392 Z M310.546889,313.653892 C310.526925,313.647587 310.50591,313.641283 310.485947,313.634979 C306.988073,312.491786 305.284842,304.236216 300.14363,296.33369 C298.959459,294.508575 297.588259,292.705526 295.975392,291.011752 C304.635493,300.090043 306.198976,312.342583 310.546889,313.653892 Z M314.663641,293.073281 C312.054684,293.073281 309.274457,292.364039 306.660246,290.735411 C303.401938,288.702252 300.769864,287.811234 298.928988,287.811234 C296.79496,287.811234 295.724268,289.009064 295.975392,291.011752 C294.42872,289.393631 292.664547,287.87743 290.613526,286.540904 C290.502149,286.401157 290.194286,285.946192 289.705697,285.26532 C289.282254,283.144951 292.472264,279.964397 296.842242,278.996677 C298.692574,278.584791 301.715519,277.19783 304.936001,275.483042 C311.071202,277.76102 317.769594,279.47791 324.86411,280.342659 C326.996037,276.929894 327.395314,271.668899 327.424734,268.629142 C328.823253,268.721607 330.224924,268.762585 331.597175,268.762585 C339.0647,268.762585 345.582366,267.52903 345.219865,266.422613 C345.219865,266.422613 340.367603,266.693701 335.467007,266.693701 C332.395729,266.693701 329.305537,266.587578 327.379553,266.240838 L327.123175,266.240838 C324.307224,266.240838 321.569026,266.095837 318.922242,265.831054 L318.922242,265.826851 C318.927496,265.510582 318.887568,265.121812 318.796155,264.678405 C318.181479,261.432706 315.389694,255.213446 314.144582,251.937276 C313.892407,251.287926 313.705377,250.747852 313.609761,250.374843 C313.519398,250.021799 313.519398,249.624624 313.604507,249.200129 C314.135125,246.557548 317.892529,242.90942 322.168992,242.90942 C322.565117,242.90942 322.964393,242.940942 323.366822,243.007138 C323.366822,243.007138 323.92686,243.606053 324.798964,244.507578 C327.20198,247.015666 331.983843,251.894196 333.694428,252.870323 C333.775335,252.990106 333.860444,253.104635 333.948705,253.21286 C333.244717,254.55464 332.128844,257.071134 332.171923,259.531939 C332.220257,262.396223 334.531859,263.41648 337.277411,263.41648 C337.977196,263.41648 338.7043,263.350285 339.430353,263.231552 C342.075036,262.802855 344.313087,263.211588 345.219865,261.226763 C343.990513,259.964839 342.65819,258.816393 341.347932,257.80139 C342.65819,258.816393 343.990513,259.964839 345.219865,261.226763 C349.016145,265.111305 351.832097,270.070741 350.013286,275.52402 C349.514191,277.016054 348.607412,278.755009 347.387517,280.649472 C344.295224,281.936614 340.899271,282.376869 337.700855,282.375818 C330.821738,282.375818 324.86411,280.342659 324.86411,280.342659 C328.336766,287.130363 322.216275,293.073281 314.663641,293.073281 Z" id="Shape" fill="url(#linearGradient-1)"></path>
                <path d="M337.277411,263.41648 C334.531859,263.41648 332.220257,262.396223 332.171923,259.531939 C332.128844,257.071134 333.244717,254.55464 333.948705,253.21286 C334.183017,253.498658 334.442547,253.742427 334.722041,253.950471 C334.662149,254.348697 334.585446,254.766887 334.505591,255.19033 C334.223995,256.646639 333.820516,258.138673 333.426493,259.07172 C332.952614,260.189694 335.419724,261.173176 337.627304,261.173176 C338.236726,261.173176 338.826184,261.098574 339.328432,260.930458 C339.782347,260.780204 340.164812,260.553246 340.432748,260.234876 C341.104163,259.43212 341.285939,258.677697 341.347932,257.80139 C342.65819,258.816393 343.990513,259.964839 345.219865,261.226763 C344.313087,263.211588 342.075036,262.802855 339.430353,263.231552 C338.7043,263.350285 337.977196,263.41648 337.277411,263.41648 Z" id="Path" fill="url(#linearGradient-2)"></path>
                <path d="M355.955154,246.073163 C355.521203,247.58516 353.646704,249.006795 351.399197,250.256111 C348.622122,251.788073 345.280807,253.058403 343.36533,253.880072 L343.360076,253.884275 C342.775871,254.137501 342.323008,254.348697 342.060325,254.514712 C343.259206,250.740497 344.93827,251.27952 346.192839,249.964009 C347.452662,248.648497 347.271937,247.26679 346.374615,246.970484 C345.903889,246.811824 345.696895,247.032477 345.467837,247.25313 C345.259793,247.453819 345.032835,247.653458 344.574718,247.569399 C343.617505,247.388674 345.537185,245.352363 345.652765,244.515984 C345.652765,244.515984 341.761919,246.188743 337.332049,243.195218 C335.588891,242.015251 334.630627,240.957168 334.116821,240.111331 C333.315116,238.801074 333.557834,237.988861 333.557834,237.988861 C333.557834,237.988861 329.908655,238.886183 329.00713,234.395371 C328.734992,233.019968 328.769666,231.527934 329.178399,230.146226 C330.095685,227.011904 332.892723,224.447077 338.168429,225.112188 C345.774649,226.070452 348.052628,233.675622 348.052628,233.675622 C348.052628,233.675622 352.064308,232.057501 354.216199,235.353635 C356.373343,238.644515 353.021521,241.582351 353.021521,241.582351 C353.021521,241.582351 357.094143,242.117171 355.955154,246.073163 Z" id="Path" fill="#47131C" fill-rule="nonzero"></path>
                <path d="M338.522524,255.022214 L338.51727,255.022214 C337.230128,255.022214 335.86103,254.776343 334.773526,253.988297 C334.756715,253.975689 334.738852,253.96308 334.722041,253.950471 C334.442547,253.742427 334.183017,253.498658 333.948705,253.21286 C333.860444,253.104635 333.775335,252.990106 333.694428,252.870323 C333.417036,252.457387 333.186927,251.97195 333.01881,251.400354 C332.333736,249.087702 332.671019,246.062655 333.210043,243.538807 C333.496892,242.197027 333.839429,240.992892 334.116821,240.111331 C333.839429,240.992892 333.496892,242.197027 333.210043,243.538807 C334.087401,244.646274 335.497478,245.790517 337.735529,246.174033 C338.751583,246.349504 339.70039,246.43041 340.56619,246.43041 C343.108952,246.43041 344.931965,245.731676 345.61704,244.66939 C345.329141,245.577219 343.672142,247.398131 344.574718,247.569399 C344.647218,247.583059 344.714465,247.589363 344.776458,247.589363 L344.781711,247.589363 C345.099031,247.588313 345.28501,247.428602 345.455228,247.264688 C345.459431,247.260485 345.463634,247.257333 345.467837,247.25313 C345.474141,247.246826 345.481496,247.239471 345.487801,247.233166 C345.493054,247.227913 345.498308,247.22371 345.503561,247.218456 C345.664323,247.062949 345.821932,246.917948 346.077259,246.916897 L346.084614,246.916897 C346.168672,246.916897 346.264289,246.933709 346.374615,246.970484 C346.823276,247.118637 347.092262,247.537878 347.092262,248.085307 C347.092262,248.631686 346.823276,249.306253 346.192839,249.964009 C344.93827,251.27952 343.259206,250.740497 342.060325,254.514712 C341.914274,254.55569 341.737752,254.600872 341.540215,254.646053 C341.531809,254.648155 341.523403,254.650256 341.513947,254.652357 C341.505541,254.654459 341.496085,254.65656 341.487679,254.658662 C340.838329,254.807865 339.958869,254.968627 339.00691,255.011706 C338.8493,255.018011 338.688539,255.022214 338.526727,255.022214 L338.522524,255.022214 Z" id="Path" fill="url(#linearGradient-3)"></path>
                <path d="M337.627304,261.173176 C335.419724,261.173176 332.952614,260.189694 333.426493,259.07172 C333.820516,258.138673 334.223995,256.646639 334.505591,255.19033 C334.585446,254.766887 334.662149,254.348697 334.722041,253.950471 C334.738852,253.96308 334.756715,253.975689 334.773526,253.988297 C335.86103,254.776343 337.230128,255.022214 338.51727,255.022214 L338.526727,255.022214 C338.688539,255.022214 338.84825,255.018011 339.00691,255.011706 C339.958869,254.968627 340.838329,254.807865 341.487679,254.658662 C341.496085,254.65656 341.505541,254.654459 341.513947,254.652357 C341.523403,254.650256 341.531809,254.648155 341.540215,254.646053 C340.780539,254.823626 339.684629,255.022214 338.522524,255.022214 C337.213317,255.022214 335.819001,254.770039 334.722041,253.950471 C334.662149,254.348697 334.585446,254.766887 334.505591,255.19033 C336.183603,255.684172 340.558835,257.317004 339.434556,260.638355 C339.398831,260.739225 339.363107,260.834842 339.328432,260.930458 C338.826184,261.098574 338.236726,261.173176 337.627304,261.173176 Z" id="Path" fill="url(#linearGradient-4)"></path>
                <path d="M340.56619,246.43041 C339.70039,246.43041 338.751583,246.349504 337.735529,246.174033 C335.497478,245.790517 334.087401,244.646274 333.210043,243.538807 C333.496892,242.197027 333.839429,240.992892 334.116821,240.111331 C334.630627,240.957168 335.588891,242.015251 337.332049,243.195218 C337.340455,243.201523 337.348861,243.206776 337.357267,243.21203 C339.429302,244.605296 341.381555,244.978304 342.871488,244.982507 L342.896705,244.982507 C344.537942,244.981456 345.610736,244.533846 345.651714,244.517034 L345.652765,244.515984 L345.626497,244.637868 C345.623344,244.648375 345.620192,244.658883 345.61704,244.66939 C344.931965,245.731676 343.108952,246.43041 340.56619,246.43041 Z" id="Path" fill="url(#linearGradient-5)"></path>
                <path d="M339.328432,260.930458 C339.363107,260.834842 339.398831,260.739225 339.434556,260.638355 C340.558835,257.317004 336.183603,255.684172 334.505591,255.19033 C334.585446,254.766887 334.662149,254.348697 334.722041,253.950471 C335.819001,254.770039 337.213317,255.022214 338.522524,255.022214 C339.684629,255.022214 340.780539,254.823626 341.540215,254.646053 C341.163004,257.226641 341.772426,258.632515 340.432748,260.234876 C340.164812,260.553246 339.782347,260.780204 339.328432,260.930458 Z" id="Path" fill="url(#linearGradient-6)"></path>
                <path d="M342.060325,254.514712 C343.259206,250.740497 344.93827,251.27952 346.192839,249.964009 C346.823276,249.306253 347.092262,248.631686 347.092262,248.085307 C347.092262,247.537878 346.823276,247.118637 346.374615,246.970484 C346.264289,246.933709 346.169723,246.916897 346.084614,246.916897 L346.077259,246.916897 C345.821932,246.917948 345.664323,247.062949 345.503561,247.218456 C345.498308,247.22371 345.493054,247.227913 345.487801,247.233166 C345.481496,247.239471 345.474141,247.246826 345.467837,247.25313 C345.463634,247.257333 345.459431,247.260485 345.455228,247.264688 C345.28501,247.428602 345.099031,247.588313 344.781711,247.589363 L344.778559,247.589363 L344.776458,247.589363 C344.714465,247.589363 344.647218,247.583059 344.574718,247.569399 C343.673193,247.398131 345.336496,245.574067 345.618091,244.667288 L345.623344,244.651528 L345.626497,244.637868 C345.639105,244.594788 345.647511,244.554861 345.652765,244.515984 C345.652765,244.515984 344.570515,244.981456 342.896705,244.982507 L342.894604,244.982507 L342.871488,244.982507 C341.381555,244.978304 339.429302,244.604245 337.357267,243.21203 C337.348861,243.206776 337.340455,243.201523 337.332049,243.195218 C335.588891,242.015251 334.630627,240.957168 334.116821,240.111331 C333.615624,239.291764 333.52316,238.667631 333.52316,238.314586 C333.52316,238.10339 333.557834,237.988861 333.557834,237.988861 C333.557834,237.988861 333.260478,238.062412 332.813918,238.062412 C331.698045,238.062412 329.651227,237.604294 329.00713,234.395371 C328.892601,233.815369 328.831652,233.214352 328.831652,232.609133 C328.830608,231.781159 328.941985,230.94478 329.178399,230.146226 C329.555611,231.311484 330.332099,232.697394 331.939713,233.438157 C331.567755,231.016229 333.516855,228.848577 335.906211,228.848577 C336.590235,228.848577 337.311035,229.02615 338.023428,229.426478 C341.152496,231.180143 337.614695,236.204724 337.459187,236.426428 C337.580021,236.37074 339.474484,235.424034 339.863253,233.795405 C341.04217,236.013492 339.434556,238.765349 339.434556,238.765349 C339.434556,238.765349 341.447751,241.218799 344.803777,241.218799 C345.29972,241.218799 345.822983,241.165212 346.374615,241.043327 C349.604553,240.322528 350.144627,238.886183 350.144627,238.886183 C350.144627,238.886183 351.585176,243.497828 348.829116,245.649719 C350.743542,245.866169 352.446773,247.922444 351.399197,250.256111 C348.622122,251.788073 345.280807,253.058403 343.36533,253.880072 L343.360076,253.884275 C342.775871,254.137501 342.323008,254.348697 342.060325,254.514712 Z" id="Path" fill="#350E15" fill-rule="nonzero"></path>
                <path d="M347.092262,248.085307 C347.092262,247.537878 346.823276,247.118637 346.374615,246.970484 C346.264289,246.933709 346.168672,246.916897 346.084614,246.916897 C346.169723,246.916897 346.264289,246.933709 346.374615,246.970484 C346.823276,247.118637 347.092262,247.537878 347.092262,248.085307 Z M344.776458,247.589363 C344.714465,247.589363 344.647218,247.583059 344.574718,247.569399 C343.672142,247.398131 345.329141,245.577219 345.61704,244.66939 C345.618091,244.668339 345.618091,244.667288 345.618091,244.667288 C345.336496,245.574067 343.673193,247.398131 344.574718,247.569399 C344.647218,247.583059 344.714465,247.589363 344.776458,247.589363 Z" id="Shape" fill="url(#linearGradient-7)"></path>
                <path d="M342.871488,244.982507 C341.381555,244.978304 339.429302,244.605296 337.357267,243.21203 C339.429302,244.604245 341.381555,244.978304 342.871488,244.982507 Z" id="Shape" fill="url(#linearGradient-8)"></path>
                <path d="M345.61704,244.66939 C345.620192,244.658883 345.623344,244.648375 345.626497,244.637868 L345.623344,244.651528 L345.618091,244.667288 C345.618091,244.667288 345.618091,244.668339 345.61704,244.66939 Z" id="Path" fill="url(#linearGradient-9)"></path>
                <path d="M323.367873,243.007138 C318.614379,242.226447 314.184509,246.312729 313.605558,249.200129 C313.605558,249.200129 305.943649,240.315173 304.986436,236.242551 C304.029222,232.170979 304.266687,202.309287 304.266687,202.309287 C304.266687,202.309287 304.145853,190.96983 303.55009,187.260759 C304.508354,184.982781 307.854923,191.569795 308.574672,195.520533 C309.296522,199.477575 307.501879,202.309287 307.501879,202.309287 L314.925273,233.128193 L323.367873,243.007138 Z" id="Path" fill="url(#linearGradient-10)"></path>
                <path d="M324.86411,280.342659 C317.769594,279.47791 311.071202,277.76102 304.936001,275.483042 C291.965813,270.666504 281.507917,263.34398 275.10583,256.271529 C267.553197,255.574897 260.917849,252.410104 258.865777,249.498536 L276.861597,249.498536 C276.840582,249.946146 276.814314,250.25401 276.814314,250.25401 C276.814314,250.25401 283.516909,255.40573 294.705061,259.855563 L294.720822,259.860817 L294.755496,259.874476 C297.018765,260.777051 299.468012,261.649156 302.084325,262.440354 C307.125718,263.972316 312.782838,265.21953 318.922242,265.831054 C321.569026,266.095837 324.307224,266.240838 327.123175,266.240838 L327.379553,266.240838 C327.379553,266.240838 327.427886,266.942724 327.428937,268.065952 C327.427886,266.942724 327.379553,266.240838 327.379553,266.240838 L327.123175,266.240838 C317.774847,266.240838 309.299675,264.633224 302.084325,262.440354 C308.207968,264.496629 316.846004,267.178087 322.797327,268.125844 C324.299869,268.36646 325.857048,268.529323 327.424734,268.629142 C327.395314,271.668899 326.996037,276.929894 324.86411,280.342659 Z" id="Path" fill="url(#linearGradient-11)"></path>
                <path d="M310.67823,313.689616 C310.634099,313.679109 310.589969,313.6665 310.546889,313.653892 C310.589969,313.6665 310.634099,313.678058 310.67823,313.689616 Z" id="Path" fill="url(#linearGradient-12)"></path>
                <path d="M311.151057,313.751609 C311.044934,313.751609 310.945115,313.743204 310.852651,313.726392 C310.79381,313.715885 310.73602,313.704327 310.67823,313.689616 C310.634099,313.678058 310.589969,313.6665 310.546889,313.653892 C306.198976,312.342583 304.635493,300.090043 295.975392,291.011752 C295.724268,289.009064 296.79496,287.811234 298.928988,287.811234 C300.769864,287.811234 303.401938,288.702252 306.660246,290.735411 C309.274457,292.364039 312.054684,293.073281 314.663641,293.073281 C322.216275,293.073281 328.336766,287.130363 324.86411,280.342659 C324.86411,280.342659 330.821738,282.375818 337.700855,282.375818 C340.899271,282.376869 344.295224,281.936614 347.387517,280.649472 C339.106729,293.545058 316.474046,313.751609 311.151057,313.751609 Z" id="Path" fill="url(#linearGradient-13)"></path>
                <path d="M331.597175,268.762585 C330.224924,268.762585 328.823253,268.721607 327.424734,268.629142 C327.426835,268.431606 327.428937,268.243525 327.428937,268.065952 C327.427886,266.942724 327.379553,266.240838 327.379553,266.240838 C329.305537,266.587578 332.395729,266.693701 335.467007,266.693701 C340.367603,266.693701 345.219865,266.422613 345.219865,266.422613 C345.582366,267.52903 339.0647,268.762585 331.597175,268.762585 Z" id="Path" fill="url(#linearGradient-14)"></path>
                <path d="M327.424734,268.629142 C325.857048,268.529323 324.299869,268.36646 322.797327,268.125844 C316.846004,267.178087 308.207968,264.496629 302.084325,262.440354 C309.299675,264.633224 317.774847,266.240838 327.123175,266.240838 L327.379553,266.240838 C327.379553,266.240838 327.427886,266.942724 327.428937,268.065952 C327.428937,268.243525 327.426835,268.431606 327.424734,268.629142 Z" id="Path" fill="url(#linearGradient-15)"></path>
                <path d="M221.364241,333.521058 C219.088364,333.521058 217.272706,332.766636 217.39354,330.731375 C217.414554,330.343657 217.504917,329.904452 217.680388,329.415864 C218.88032,326.059838 243.787829,268.579758 260.792812,267.500661 C261.258285,267.47124 261.720605,267.457581 262.178723,267.457581 C275.787753,267.457581 285.951446,280.088383 289.389428,284.822964 L289.393631,284.83242 C289.505008,284.988979 289.611132,285.130827 289.705697,285.26532 C290.194286,285.946192 290.502149,286.401157 290.613526,286.540904 C292.664547,287.87743 294.42872,289.393631 295.975392,291.011752 C297.588259,292.705526 298.959459,294.508575 300.14363,296.33369 C305.284842,304.236216 306.988073,312.491786 310.485947,313.634979 C306.988073,312.491786 305.284842,304.236216 300.14363,296.33369 C298.959459,294.508575 297.588259,292.705526 295.975392,291.011752 C294.42872,289.393631 292.664547,287.87743 290.613526,286.540904 C290.502149,286.401157 290.194286,285.946192 289.705697,285.26532 C289.611132,285.130827 289.505008,284.988979 289.393631,284.83242 C291.696827,290.104974 294.171292,297.770035 293.047012,304.684877 C291.590703,313.634979 294.654626,321.048916 290.296206,327.364842 C289.282254,327.193574 288.285113,326.890964 287.301631,326.476977 C277.126381,322.198412 268.75523,305.915279 265.453842,298.67156 C264.471411,296.519669 263.937642,295.16423 263.937642,295.16423 C263.937642,295.16423 229.84782,328.805391 223.164138,333.049281 C222.735441,333.32142 222.418121,333.472725 222.232142,333.487435 C221.937939,333.5095 221.646887,333.521058 221.364241,333.521058 Z" id="Path" fill="url(#linearGradient-16)"></path>
                <path d="M217.604736,394.646114 C216.897596,394.646114 216.198862,394.445425 215.524294,393.845459 C213.859941,392.364983 225.215159,366.417253 232.006015,351.058761 C234.001348,346.545884 235.602657,342.948191 236.364435,341.153547 C238.642414,335.781174 252.536191,316.352161 261.209951,304.463173 C262.849087,302.214615 264.300143,300.235043 265.453842,298.67156 C268.75523,305.915279 277.126381,322.198412 287.301631,326.476977 C277.126381,322.198412 268.75523,305.915279 265.453842,298.67156 C264.300143,300.235043 262.849087,302.214615 261.209951,304.463173 C262.047382,310.278953 263.094958,321.124568 260.555348,327.530858 C257.410519,335.474362 230.118907,373.741879 220.361846,394.072416 C219.449814,394.310932 218.51992,394.646114 217.604736,394.646114 Z" id="Shape" fill="url(#linearGradient-17)"></path>
                <path d="M292.22114,327.531908 C291.574942,327.531908 290.932948,327.474118 290.296206,327.364842 C294.654626,321.048916 291.590703,313.634979 293.047012,304.684877 C294.171292,297.770035 291.696827,290.104974 289.393631,284.83242 C289.505008,284.988979 289.611132,285.130827 289.705697,285.26532 C290.194286,285.946192 290.502149,286.401157 290.613526,286.540904 C292.664547,287.87743 294.42872,289.393631 295.975392,291.011752 C297.588259,292.705526 298.959459,294.508575 300.14363,296.33369 C305.284842,304.236216 306.988073,312.491786 310.485947,313.634979 C308.298331,318.973728 303.368314,326.719695 293.047012,327.500386 C292.770671,327.521401 292.49538,327.531908 292.22114,327.531908 Z" id="Path" fill="url(#linearGradient-18)"></path>
                <path d="M220.361846,394.072416 C220.873551,393.934771 221.378951,393.825495 221.874895,393.825495 C221.994678,393.825495 222.11341,393.8318 222.232142,393.845459 C222.236345,393.84651 222.241599,393.84651 222.246853,393.84651 C222.461201,393.84651 222.928775,393.454588 223.607545,392.736941 C227.743211,388.355405 239.611185,371.928322 247.893024,360.277849 C238.260999,373.83014 223.775662,393.84651 222.248954,393.84651 C222.24265,393.84651 222.237396,393.84651 222.232142,393.845459 C222.11341,393.8318 221.994678,393.825495 221.874895,393.825495 C221.378951,393.825495 220.873551,393.934771 220.361846,394.072416 Z" id="Path" fill="#CFCFCF" fill-rule="nonzero"></path>
                <path d="M247.893024,360.277849 C252.745286,353.452319 256.366095,348.264875 256.480624,348.102012 C256.366095,348.264875 252.745286,353.452319 247.893024,360.277849 Z M256.482726,348.097809 C256.482726,348.097809 277.004496,336.491467 287.301631,326.476977 C277.004496,336.491467 256.482726,348.097809 256.482726,348.097809 Z" id="Shape" fill="url(#linearGradient-19)"></path>
                <path d="M220.361846,394.072416 C230.118907,373.741879 257.410519,335.474362 260.555348,327.530858 C263.094958,321.124568 262.047382,310.278953 261.209951,304.463173 C262.849087,302.214615 264.300143,300.235043 265.453842,298.67156 C268.75523,305.915279 277.126381,322.198412 287.301631,326.476977 C277.004496,336.491467 256.482726,348.097809 256.482726,348.097809 L256.482726,348.09886 C256.481675,348.09886 256.481675,348.099911 256.481675,348.099911 L256.480624,348.100961 L256.480624,348.102012 C256.366095,348.264875 252.745286,353.452319 247.893024,360.277849 C239.611185,371.928322 227.743211,388.355405 223.607545,392.736941 C222.928775,393.454588 222.461201,393.84651 222.246853,393.84651 C222.241599,393.84651 222.236345,393.84651 222.232142,393.845459 C222.11341,393.8318 221.994678,393.825495 221.874895,393.825495 C221.378951,393.825495 220.873551,393.934771 220.361846,394.072416 Z" id="Path" fill="url(#linearGradient-20)"></path>
                <path d="M225.885524,406.716878 C220.775833,405.699773 201.633669,413.727336 198.398477,413.727336 C195.167488,413.727336 191.931246,410.618232 198.398477,407.08043 C204.864658,403.537375 215.524294,393.845459 215.524294,393.845459 C217.070966,395.221913 218.743725,394.49586 220.361846,394.072416 C220.997537,393.901148 221.62272,393.77506 222.232142,393.845459 C222.439136,393.865423 222.911963,393.472451 223.607545,392.736941 C223.99001,396.980832 228.577489,407.256953 225.885524,406.716878 Z" id="Path" fill="#47131C" fill-rule="nonzero"></path>
                <path d="M224.807477,340.432748 C224.268453,343.667939 198.221955,352.287062 200.737398,346.375666 C203.25179,340.457965 217.383032,330.731375 217.383032,330.731375 L217.39354,330.731375 C217.256945,333.019861 219.570648,333.689175 222.232142,333.487435 C222.418121,333.472725 222.735441,333.32142 223.164138,333.049281 C223.457291,335.41342 225.256138,337.736579 224.807477,340.432748 Z" id="Path" fill="#47131C" fill-rule="nonzero"></path>
                <path d="M303.967229,132.634457 L303.967229,236.133275 C303.967229,243.516741 297.984384,249.498536 290.601968,249.498536 L74.223432,249.498536 C66.8399657,249.498536 60.8529171,243.516741 60.8529171,236.133275 L60.8529171,132.634457 C60.8529171,125.255194 66.8399657,119.268145 74.223432,119.268145 L290.601968,119.268145 C297.984384,119.268145 303.967229,125.255194 303.967229,132.634457 Z" id="Path" fill="#FFFFFF" fill-rule="nonzero"></path>
                <path d="M126.79451,189.015475 C128.587052,189.015475 130.039159,187.563369 130.039159,185.771878 L130.039159,178.50189 C130.039159,174.931516 130.317602,171.046974 130.550863,167.184498 L130.217782,167.184498 C128.492487,170.908278 126.920598,174.482855 124.872729,178.431491 L119.512965,188.827395 L119.46358,189.015475 L126.79451,189.015475 Z M130.039159,211.779499 L130.039159,204.548389 C130.039159,202.756897 128.587052,201.304791 126.79451,201.304791 L108.264921,201.304791 C106.473429,201.304791 105.020272,199.851634 105.020272,198.060143 L105.020272,191.476281 C105.020272,190.914141 105.166323,190.361458 105.444766,189.87287 L125.058708,155.385872 C125.635557,154.37192 126.712554,153.745686 127.878862,153.745686 L141.843038,153.745686 C143.63558,153.745686 145.087686,155.197792 145.087686,156.989283 L145.087686,185.771878 C145.087686,187.563369 146.539793,189.015475 148.332335,189.015475 C150.123826,189.015475 151.575932,190.468632 151.575932,192.260124 L151.575932,198.060143 C151.575932,199.851634 150.123826,201.304791 148.332335,201.304791 C146.539793,201.304791 145.087686,202.756897 145.087686,204.548389 L145.087686,211.779499 C145.087686,213.572041 143.63558,215.024148 141.843038,215.024148 L133.282756,215.024148 C131.491265,215.024148 130.039159,213.572041 130.039159,211.779499 Z" id="Shape" fill="#761EC9"></path>
                <path d="M176.056846,184.384917 C175.967534,197.931954 178.322216,203.333747 182.557701,203.333747 C186.469561,203.333747 188.600438,197.75333 188.600438,184.384917 C188.600438,171.553425 186.558873,165.48442 182.507266,165.48442 C178.500839,165.48442 176.012715,170.927191 176.056846,184.384917 Z M204.846795,184.205242 C204.846795,203.404146 196.999958,215.976107 182.324439,215.976107 C165.552717,215.976107 159.810488,200.001888 159.810488,184.56354 C159.810488,168.055552 166.224132,152.792675 182.507266,152.792675 C199.865294,152.792675 204.846795,169.533926 204.846795,184.205242 Z" id="Shape" fill="#FE7073"></path>
                <path d="M235.022655,189.015475 C236.815197,189.015475 238.266253,187.563369 238.266253,185.771878 L238.266253,178.50189 C238.266253,174.931516 238.544696,171.046974 238.779008,167.184498 L238.445927,167.184498 C236.721683,170.908278 235.149793,174.482855 233.099823,178.431491 L227.74111,188.827395 L227.691726,189.015475 L235.022655,189.015475 Z M238.266253,211.779499 L238.266253,204.548389 C238.266253,202.756897 236.815197,201.304791 235.022655,201.304791 L216.493066,201.304791 C214.701574,201.304791 213.248417,199.851634 213.248417,198.060143 L213.248417,191.476281 C213.248417,190.914141 213.394468,190.361458 213.672911,189.87287 L233.286853,155.385872 C233.863702,154.37192 234.940699,153.745686 236.108057,153.745686 L250.072234,153.745686 C251.863725,153.745686 253.316882,155.197792 253.316882,156.989283 L253.316882,185.771878 C253.316882,187.563369 254.767938,189.015475 256.559429,189.015475 C258.353022,189.015475 259.804077,190.468632 259.804077,192.260124 L259.804077,198.060143 C259.804077,199.851634 258.353022,201.304791 256.559429,201.304791 C254.767938,201.304791 253.316882,202.756897 253.316882,204.548389 L253.316882,211.779499 C253.316882,213.572041 251.863725,215.024148 250.072234,215.024148 L241.510901,215.024148 C239.71941,215.024148 238.266253,213.572041 238.266253,211.779499 Z" id="Shape" fill="#761EC9"></path>
                <path d="M353.762284,146.437872 L332.056343,146.437872 C332.948412,135.397872 334.36059,125.030338 336.307589,115.891105 C339.189736,102.359829 338.38698,88.2128257 334.044321,74.6353174 L353.762284,74.6353174 C356.256713,74.6353174 358.278314,76.6569182 358.278314,79.1513467 L358.278314,141.921843 C358.278314,144.416271 356.256713,146.437872 353.762284,146.437872 Z" id="Path" fill="url(#linearGradient-21)"></path>
                <rect id="Rectangle" fill="#FE7073" x="274" y="74" width="84" height="73" rx="4"></rect>
                <path d="M311.618631,116.017192 C311.104825,115.503386 311.104825,114.669108 311.618631,114.154251 L319.962463,105.81042 C320.47732,105.295563 321.310547,105.295563 321.826455,105.81042 C322.340261,106.324226 322.340261,107.158504 321.826455,107.673361 L313.481572,116.017192 C312.966716,116.532049 312.132437,116.532049 311.618631,116.017192 Z" id="Path" fill="#FFFFFF" fill-rule="nonzero"></path>
                <path d="M311.618631,105.81042 C312.132437,105.295563 312.966716,105.295563 313.481572,105.81042 L321.826455,114.154251 C322.340261,114.669108 322.340261,115.503386 321.826455,116.017192 C321.310547,116.532049 320.47732,116.532049 319.962463,116.017192 L311.618631,107.673361 C311.104825,107.158504 311.104825,106.324226 311.618631,105.81042 Z" id="Path" fill="#FFFFFF" fill-rule="nonzero"></path>
                <path d="M78.7342077,303.69404 L4.65262396,303.69404 C2.15819549,303.69404 0.136594651,301.671389 0.136594651,299.178011 L0.136594651,236.406464 C0.136594651,233.912036 2.15819549,231.890435 4.65262396,231.890435 L33.274457,231.890435 C34.9125421,245.331349 34.7023965,254.514712 34.7023965,254.514712 C40.5171257,277.16946 48.9313562,280.572769 66.2305434,280.572769 C69.945918,280.572769 74.0742286,280.415159 78.671164,280.258601 C80.1484877,280.208166 81.6741449,280.157731 83.2512877,280.11255 L83.2512877,299.178011 C83.2512877,301.671389 81.2286361,303.69404 78.7342077,303.69404 Z" id="Path" fill="url(#linearGradient-22)"></path>
                <rect id="Rectangle" fill="#761EC9" x="0" y="232" width="84" height="72" rx="4"></rect>
                <g id="Group" transform="translate(33.075880, 218.509421)">
                    <g id="Clipped">
                        <mask id="mask-24" fill="white">
                            <use xlink:href="#path-23"></use>
                        </mask>
                        <g id="Path"></g>
                        <g mask="url(#mask-24)">
                            <mask id="mask-26" fill="white">
                                <use xlink:href="#path-25"></use>
                            </mask>
                            <g id="Rectangle"></g>
                        </g>
                    </g>
                </g>
                <path d="M46.7973275,262.311114 C47.3121843,262.824921 47.3121843,263.659199 46.7973275,264.174055 L38.4534958,272.518938 C37.938639,273.032744 37.1054116,273.032744 36.5905549,272.518938 C36.0756981,272.00303 36.0756981,271.168752 36.5905549,270.654946 L44.9343866,262.311114 C45.4492434,261.797308 46.2824707,261.797308 46.7973275,262.311114 Z" id="Path" fill="#FFFFFF" fill-rule="nonzero"></path>
                <path d="M46.7973275,272.518938 C46.2824707,273.032744 45.4492434,273.032744 44.9343866,272.518938 L36.5905549,264.174055 C36.0756981,263.659199 36.0756981,262.824921 36.5905549,262.311114 C37.1054116,261.797308 37.938639,261.797308 38.4534958,262.311114 L46.7973275,270.654946 C47.3121843,271.168752 47.3121843,272.00303 46.7973275,272.518938 Z" id="Path" fill="#FFFFFF" fill-rule="nonzero"></path>
                <path d="M223.755698,142.501844 C218.236223,148.021319 209.191556,147.692441 204.087119,141.787349 L168.918199,101.103158 C165.652536,97.3257904 165.858479,91.666569 169.389976,88.1350719 C172.920423,84.6035748 178.579644,84.3986828 182.357012,87.6643457 L223.041203,122.833265 C228.946295,127.937702 229.275173,136.98237 223.755698,142.501844 Z" id="Path" fill="url(#linearGradient-27)"></path>
                <path d="M215.211177,287.783915 C209.691703,293.30339 200.647035,292.974512 195.541548,287.06942 L160.373679,246.38628 C157.108016,242.607861 157.312908,236.94864 160.844405,233.418194 C164.375902,229.885646 170.034073,229.680754 173.812491,232.947467 L214.496682,268.115336 C220.401774,273.220824 220.730652,282.264441 215.211177,287.783915 Z" id="Path" fill="#761EC9"></path>
                <path d="M165.033658,77.3209784 C165.033658,81.5806301 161.580965,85.0333225 157.322364,85.0333225 C153.062712,85.0333225 149.61002,81.5806301 149.61002,77.3209784 C149.61002,73.0623775 153.062712,69.6086342 157.322364,69.6086342 C161.580965,69.6086342 165.033658,73.0623775 165.033658,77.3209784 Z" id="Path" fill="#FF9100"></path>
                <path d="M129.82481,31.0878919 C129.82481,35.3475435 126.372118,38.800236 122.112466,38.800236 C117.853865,38.800236 114.401173,35.3475435 114.401173,31.0878919 C114.401173,26.8282402 117.853865,23.3755477 122.112466,23.3755477 C126.372118,23.3755477 129.82481,26.8282402 129.82481,31.0878919 Z" id="Path" fill="#761EC9"></path>
                <path d="M385.788476,297.046084 C385.788476,301.305735 382.335784,304.758428 378.076132,304.758428 C373.81648,304.758428 370.363788,301.305735 370.363788,297.046084 C370.363788,292.787483 373.81648,289.33479 378.076132,289.33479 C382.335784,289.33479 385.788476,292.787483 385.788476,297.046084 Z" id="Path" fill="#FF9100"></path>
                <path d="M180.458346,297.046084 C180.458346,301.305735 177.005653,304.758428 172.746002,304.758428 C168.48635,304.758428 165.033658,301.305735 165.033658,297.046084 C165.033658,292.787483 168.48635,289.33479 172.746002,289.33479 C177.005653,289.33479 180.458346,292.787483 180.458346,297.046084 Z" id="Path" fill="url(#linearGradient-28)"></path>
                <path d="M105.921797,321.592142 C101.371094,326.143896 93.9119749,325.872809 89.7027582,321.002684 L60.7016123,287.453987 C58.0085962,284.338578 58.1777634,279.671244 61.0903817,276.759676 C64.0019492,273.847058 68.6682326,273.677891 71.7836414,276.371958 L105.333389,305.372053 C110.202463,309.58232 110.473551,317.041439 105.921797,321.592142 Z" id="Path" fill="#FF9100" fill-rule="nonzero"></path>
                <path d="M369.331973,99.8338784 C364.780219,104.386683 357.3211,104.115595 353.111884,99.2454706 L324.111788,65.6967736 C321.417722,62.5803141 321.586889,57.9140306 324.499507,55.0024631 C327.411075,52.0908956 332.078409,51.9206776 335.192767,54.6136937 L368.742515,83.6148396 C373.612639,87.8240563 373.883727,95.283175 369.331973,99.8338784 Z" id="Path" fill="#FFB24D" fill-rule="nonzero"></path>
                <path d="M55.0056153,102.107654 C58.7756277,95.2674141 67.7425412,79.5937032 67.7425412,79.5937032 L67.8076863,79.6346816 C68.3414562,79.9372913 70.3945789,80.9932731 72.6914704,82.5294375 C70.5143619,88.3798915 67.8129399,94.603354 64.7185457,98.7253602 C61.5432455,99.7361607 58.2260969,100.871998 55.0056153,102.107654 Z M69.2188141,97.3394499 C72.2585705,92.9095803 75.6650309,87.6380775 76.3658666,85.3443381 C75.6671324,87.6349253 72.2606719,92.9053774 69.223017,97.3383992 C69.2219663,97.3383992 69.2198649,97.3394499 69.2188141,97.3394499 Z" id="Shape" fill="url(#linearGradient-29)"></path>
                <path d="M21.2867003,212.829177 C19.9070943,212.829177 18.3257485,211.756383 18.1597335,210.133008 C18.0872333,209.396448 20.078363,200.633376 22.8669953,188.864171 C26.3091805,174.339956 30.9670582,155.236669 34.4638812,140.98039 C36.2931988,148.555089 37.9922261,159.955489 36.0662416,172.226942 C33.5266318,188.390292 29.6757133,197.930903 27.8873741,202.930267 C27.8117217,203.073166 27.7360693,203.213964 27.6614676,203.353711 C25.7165699,207.014448 24.2339926,209.786268 23.4764176,211.14591 C23.1990254,211.643955 23.0225031,211.951819 22.9521043,212.047435 C22.5896031,212.552835 22.0348187,212.793452 21.4253964,212.824974 C21.3791644,212.826025 21.3329323,212.829177 21.2867003,212.829177 Z M29.0831027,200.672253 C34.4806929,190.472835 42.4000305,175.36967 48.5404854,163.655102 C44.1053621,153.509272 39.4327743,141.353399 36.8122585,131.419815 C36.6283811,132.163731 36.4371486,132.939168 36.238561,133.744026 C36.4360978,132.938117 36.6273304,132.160579 36.8112078,131.415612 C36.8122585,131.416663 36.8122585,131.417714 36.8122585,131.419815 C39.4327743,141.353399 44.1053621,153.509272 48.5404854,163.655102 L48.5404854,163.656153 C42.4000305,175.373873 34.4796421,190.474937 29.0831027,200.672253 Z" id="Shape" fill="url(#linearGradient-30)"></path>
                <path d="M59.0540706,183.97093 C57.5010945,182.539838 53.1426744,174.187601 48.5404854,163.656153 L48.5404854,163.655102 C44.1053621,153.509272 39.4327743,141.353399 36.8122585,131.419815 C36.8122585,131.417714 36.8122585,131.416663 36.8112078,131.415612 C34.7559836,123.625514 33.9605825,117.206617 35.527218,114.207839 C37.8482764,109.755904 46.0523613,105.544586 55.0056153,102.107654 C58.2260969,100.871998 61.5432455,99.7361607 64.7185457,98.7253602 C66.2610146,98.231518 67.7677586,97.7681469 69.2188141,97.3394499 C69.2198649,97.3394499 69.2219663,97.3383992 69.223017,97.3383992 C74.0237937,95.9136119 78.1552565,94.8450214 80.6244675,94.2345484 C82.0912839,93.8720472 82.9633882,93.6703074 83.0432436,93.6503436 C82.9633882,93.6703074 82.0912839,93.8720472 80.6244675,94.2345484 C82.1921538,96.3717293 89.4537356,100.31301 90.8606605,104.74288 C92.4125859,109.657135 66.1853621,115.045269 58.6400838,121.390616 C51.9627068,127.00991 59.0740345,168.926605 59.0540706,183.97093 Z" id="Path" fill="url(#linearGradient-31)"></path>
                <path d="M104.827989,93.2994004 C104.827989,93.2983497 104.826938,93.2983497 104.825888,93.2972989 C104.711358,92.7509203 104.525379,92.0742515 104.303676,91.3450462 C104.315234,91.3807709 104.325741,91.4175464 104.337299,91.4532712 L104.373024,91.5688512 C104.458133,91.8609536 104.539039,92.1435995 104.609438,92.4052308 C104.644112,92.5313182 104.674583,92.6574055 104.705054,92.7729856 C104.751286,92.961066 104.793315,93.1354868 104.827989,93.2994004 Z M82.2678062,92.7257029 C82.2678062,92.311716 82.3970458,91.7874027 82.5798725,91.210553 C82.9780984,89.95073 83.6274484,88.4387323 83.7545865,87.2598154 C84.0256743,84.6235386 80.3271114,76.9637308 80.3271114,76.9637308 C80.3271114,76.9637308 77.9787342,71.3339298 78.4021776,66.958698 C78.3948225,66.9565966 78.3874674,66.9565966 78.3801123,66.9565966 C77.8274293,66.9565966 76.2513372,72.484477 73.8798439,79.2385572 C71.8382792,77.8778643 69.5855182,76.7588389 68.2721081,76.1473151 C67.9159113,77.7139507 67.6900048,78.8865632 67.6900048,79.3635938 C67.6900048,78.8865632 67.9159113,77.7139507 68.2721081,76.1473151 C68.3435576,75.8331474 68.4202608,75.5032188 68.5011668,75.1596307 C69.787258,69.7189607 72.198679,60.8613229 72.7723765,57.9171828 C73.3282117,55.057101 75.0902827,50.0882079 78.6848235,46.4379785 C78.848737,46.5525079 79.0200057,46.675443 79.1933758,46.8046826 C79.5737394,47.0862777 79.9677624,47.3962425 80.3281622,47.7114609 C80.3218578,49.743569 80.6854097,53.0397031 83.0705625,53.3685809 C83.1724831,53.3822404 83.273353,53.3895955 83.3710707,53.3895955 C86.6062625,53.3906462 87.6044542,45.9231217 87.0223508,44.1337318 C86.6997773,43.1386923 86.2500657,42.540828 85.6469477,42.3527477 C86.7113353,42.0806091 87.8345636,41.9135434 89.0008718,41.9135434 C93.7932426,41.9135434 99.3505434,44.735799 104.876322,54.7576435 L104.876322,54.7628971 C106.339987,57.418087 107.800499,60.5765756 109.24525,64.3213705 C110.415761,67.3590254 111.576815,70.7822975 112.718957,74.6353174 C112.975335,75.5074217 113.232763,76.4036928 113.489141,77.3209784 C113.232763,76.4036928 112.975335,75.5074217 112.718957,74.6353174 C110.167789,66.0319558 107.527309,59.5710288 104.876322,54.7628971 C104.93096,55.0360864 106.991438,65.8102522 108.608509,77.9230456 C105.223063,79.9740668 101.468811,81.3967526 101.39421,81.9925155 C101.39421,81.9925155 95.0488627,66.6623927 94.2072295,61.0325916 C89.8981936,61.9898049 90.6137394,81.1466794 89.2982278,85.1026706 C88.4618483,87.6223166 84.9534672,89.6092434 82.5798725,91.210553 C82.3970458,91.7874027 82.2678062,92.311716 82.2678062,92.7257029 Z M104.213313,91.051893 C104.127153,90.7745008 104.03574,90.491855 103.943276,90.2071076 C103.946428,90.2176149 103.950631,90.2281222 103.953783,90.2386295 C104.029436,90.4697897 104.099834,90.6914933 104.171284,90.9142476 C104.184943,90.959429 104.198603,91.005661 104.213313,91.051893 Z M102.115009,85.1026706 C102.118161,85.1016199 102.340916,85.023866 102.720228,84.8799162 C102.392401,85.0060036 102.182256,85.0806053 102.129719,85.097417 L102.115009,85.1026706 Z M103.96324,84.3892262 C104.09353,84.3356391 104.228023,84.2799505 104.36777,84.2211097 C104.228023,84.2799505 104.09353,84.3366898 103.96324,84.3892262 Z M104.735525,84.0635005 C104.784909,84.042486 104.836395,84.0193699 104.88788,83.9973047 L104.81538,84.0288265 C104.789112,84.0414352 104.761793,84.0519425 104.735525,84.0635005 Z" id="Shape" fill="url(#linearGradient-32)"></path>
                <path d="M104.303676,91.3450462 C104.273205,91.2483792 104.242733,91.1496107 104.213313,91.051893 C104.243784,91.1506615 104.274255,91.2483792 104.303676,91.3450462 Z M103.943276,90.2071076 C103.907551,90.1062377 103.874979,90.0011649 103.838203,89.8950414 C103.850812,89.9307662 103.86237,89.9664909 103.874979,90.0011649 C103.898095,90.0694623 103.92016,90.1388103 103.943276,90.2071076 Z M102.931425,87.2944894 C102.8957,87.1946702 102.859975,87.1032569 102.825301,87.0076406 C102.859975,87.0980032 102.8957,87.1946702 102.931425,87.2944894 Z" id="Shape" fill="url(#linearGradient-33)"></path>
                <path d="M59.4438907,184.189481 C59.3924051,184.189481 59.3398687,184.174771 59.2852308,184.146401 L59.0540706,183.97093 C59.0740345,168.926605 51.9627068,127.00991 58.6400838,121.390616 C66.1853621,115.045269 92.4125859,109.657135 90.8606605,104.74288 C89.4537356,100.31301 82.1921538,96.3717293 80.6244675,94.2345484 C82.0912839,93.8720472 82.9633882,93.6703074 83.0432436,93.6503436 L83.0484972,93.6503436 C83.1031351,93.6566479 83.1609251,93.6587494 83.2229181,93.6587494 C83.3763244,93.6587494 83.5528467,93.640887 83.7545865,93.6051623 C84.2778491,93.5063938 84.8179233,93.4612125 85.3706063,93.4612125 C89.5157286,93.4612125 94.3469763,96.052308 98.258837,98.6434034 C102.171748,101.234499 105.166323,103.826645 105.640202,103.826645 C105.673825,103.826645 105.69484,103.812986 105.703245,103.785667 L105.717956,103.729978 C105.745275,103.583927 105.758934,103.3286 105.758934,102.991316 C105.758934,103.3286 105.745275,103.583927 105.717956,103.729978 L105.703245,103.785667 C105.703245,103.785667 105.733717,107.651295 105.703245,109.444888 C105.686434,110.604892 105.643354,113.229611 105.856652,115.475017 C104.066211,116.983862 101.846023,118.230026 99.3610507,119.268145 C86.5011897,124.641568 66.5636243,124.431423 62.5740097,126.071609 C62.1526677,126.24498 61.9099496,126.438314 61.8710726,126.662119 C61.7113619,127.596216 61.6987532,132.328695 61.6987532,138.709767 L61.6987532,142.479779 C61.6987532,154.634602 61.6598763,170.618277 60.8529171,178.820261 C60.7867212,179.501133 60.714221,180.127367 60.6364671,180.69476 L60.6364671,180.698963 C60.3307052,182.894984 59.9419359,184.189481 59.4438907,184.189481 Z" id="Path" fill="url(#linearGradient-34)"></path>
                <path d="M105.640202,103.826645 C105.166323,103.826645 102.171748,101.234499 98.258837,98.6434034 C94.3469763,96.052308 89.5157286,93.4612125 85.3706063,93.4612125 C84.8179233,93.4612125 84.2778491,93.5063938 83.7545865,93.6051623 C83.5528467,93.640887 83.3763244,93.6587494 83.2229181,93.6587494 C83.1609251,93.6587494 83.1031351,93.6566479 83.0484972,93.6503436 L83.0432436,93.6503436 C82.4747997,93.5967564 82.2678062,93.2489655 82.2678062,92.7257029 C82.2678062,92.311716 82.3970458,91.7874027 82.5798725,91.210553 C84.9534672,89.6092434 88.4618483,87.6223166 89.2982278,85.1026706 C90.6137394,81.1466794 89.8981936,61.9898049 94.2072295,61.0325916 C95.0488627,66.6623927 101.39421,81.9925155 101.39421,81.9925155 C101.272325,82.9507795 102.115009,85.1026706 102.115009,85.1026706 C102.115009,85.1026706 102.416568,85.8896659 102.825301,87.0076406 C102.859975,87.1032569 102.8957,87.1946702 102.931425,87.2944894 C103.21302,88.0762311 103.535593,88.9882631 103.838203,89.8950414 C103.874979,90.0011649 103.907551,90.1062377 103.943276,90.2071076 C104.03574,90.491855 104.127153,90.7745008 104.213313,91.051893 C104.242733,91.1496107 104.273205,91.2483792 104.303676,91.3450462 C104.525379,92.0742515 104.711358,92.7509203 104.825888,93.2972989 C104.826938,93.2983497 104.827989,93.2983497 104.827989,93.2994004 C104.841648,93.3645455 104.855308,93.4275892 104.865815,93.4885315 C105.270345,95.6120529 105.759985,100.894063 105.758936,102.991316 C105.758936,103.3286 105.745275,103.583927 105.717956,103.729978 L105.703245,103.785667 C105.69484,103.812986 105.673825,103.826645 105.640202,103.826645 Z" id="Path" fill="url(#linearGradient-35)"></path>
                <path d="M80.410119,46.1227601 C80.410119,46.1227601 79.5979062,52.8894489 83.0705625,53.3685809 C86.5432188,53.8466622 87.6212658,45.9767089 87.0223508,44.1337318 C86.4244865,42.2907547 85.394773,41.8116227 83.7535357,42.7698867 C82.1133492,43.7281508 80.4805178,45.1119596 80.410119,46.1227601 Z" id="Path" fill="#B72521" fill-rule="nonzero"></path>
                <path d="M75.6912991,47.8638165 C75.4401751,47.8638165 75.1837975,47.815483 74.9242676,47.7114609 C70.2768973,45.8516722 67.4000038,42.324378 65.8018464,39.6838984 C66.2200362,39.6838984 66.7044218,39.6229561 67.2634092,39.4769049 C70.3830208,38.6552356 72.6000571,36.0809517 74.3789398,34.7307662 C74.7561511,35.0617455 75.1438698,35.4263481 75.5074217,35.7226535 C75.9329666,36.0704445 76.3238374,36.3257714 76.6211935,36.3257714 C76.7294185,36.3257714 76.8250347,36.2921481 76.9048901,36.2164957 C77.0919197,36.0389226 77.1549634,35.8319292 77.1549634,35.6028705 C77.1560141,35.1489559 76.9143466,34.6088817 76.9153974,34.0362349 C76.9153974,33.7210165 76.989999,33.3963415 77.2169563,33.0716665 C77.6288417,32.4843095 78.2519235,32.1396707 78.8350776,32.1375692 L78.8434834,32.1375692 C79.4539564,32.1396707 80.0202988,32.5168821 80.2588141,33.382682 C80.263017,33.3984429 80.2672199,33.4131531 80.2714229,33.4289141 C80.3691406,33.8124298 80.4101206,34.0929742 80.4101206,34.3146778 C80.4111697,35.1037746 79.9057695,35.133195 79.7323994,36.393018 C79.6693557,36.8521862 79.6378338,37.2409556 79.6378338,37.6003046 C79.6378338,37.6707033 79.6388846,37.7400514 79.6420367,37.8093994 C79.6462396,37.9092186 79.6514933,38.0111392 79.6620006,38.1109584 C79.7218921,38.7970838 79.9089217,39.4464338 80.1957704,40.4046978 C80.2367488,40.5412925 80.2567127,40.7125611 80.2567127,40.9121995 C80.2567127,42.1720225 79.4770724,44.5414143 78.2813439,46.1595355 C77.5489864,47.1514229 76.657969,47.8638165 75.6912991,47.8638165 Z" id="Path" fill="url(#linearGradient-36)"></path>
                <path d="M82.2783135,50.1817227 C81.9389283,50.1817227 82.156429,50.0461787 81.4808109,48.967081 C81.2359912,48.5741087 80.8125478,48.1370058 80.3281622,47.7114609 C79.9677624,47.3962425 79.5737394,47.0862777 79.1933758,46.8046826 C79.9288855,45.5248958 81.3851946,43.3730047 83.4414695,42.0827106 C82.6702351,41.6340497 81.8044351,41.1297002 81.0374036,40.3132845 C81.8044351,41.1297002 82.6702351,41.6340497 83.4414695,42.0827106 C83.7083544,42.2371676 83.9626306,42.3853203 84.1990444,42.5387266 C84.7716913,42.9085828 85.2319102,43.3057581 85.4672732,43.8773541 C86.2742324,45.8516722 84.0256743,50.1659617 82.8614676,50.1659617 C82.5683145,50.1659617 82.3917921,50.1817227 82.2783135,50.1817227 Z" id="Path" fill="url(#linearGradient-37)"></path>
                <path d="M84.6561112,32.8289483 C84.3030665,33.3532616 83.9857466,33.8681184 83.6988979,34.356707 C81.6373694,37.8398706 81.0374036,40.3132845 81.0374036,40.3132845 C80.5088874,39.7542971 80.0297554,39.0387513 79.6662035,38.0857409 L79.6620006,38.1109584 C79.6514933,38.0111392 79.6462396,37.9092186 79.6420367,37.8093994 C79.6262758,37.3901589 79.6567469,36.9425488 79.7323994,36.393018 C79.954103,34.7801504 80.7200838,35.18363 80.2714229,33.4289141 C79.822762,31.6805025 78.0690968,31.8570248 77.2169563,33.0716665 C76.3658666,34.2863082 77.6656172,35.4956962 76.9048901,36.2164957 C76.1389093,36.9320415 73.9817645,33.877575 72.9026668,33.7914152 C71.9853812,33.7168136 68.8563129,36.3730542 65.7209403,36.4886342 C65.1924241,36.5085981 64.6628571,36.4529095 64.1490511,36.3068583 C55.6066318,35.3139202 55.2840582,28.1773751 57.9949367,22.1293842 C60.2025164,17.1962159 64.4306462,12.9880499 67.8633749,13.4314571 C67.0522128,15.5833482 67.3243514,17.9212182 69.4762425,19.9880004 C71.6333873,22.0495289 84.6561112,19.9880004 82.8467574,28.8782107 C84.3640088,28.3391872 86.0924565,30.6728543 84.6561112,32.8289483 Z" id="Path" fill="#47131C" fill-rule="nonzero"></path>
                <path d="M114.528311,120.744418 C111.947722,120.532171 108.834415,120.071952 107.324519,119.268145 C106.905278,119.045391 106.610024,118.795317 106.483936,118.516874 C106.166617,117.81814 105.973283,116.703318 105.856652,115.475017 C105.643354,113.229611 105.686434,110.604892 105.703245,109.444888 C105.733717,107.651295 105.703245,103.785667 105.703245,103.785667 L105.717956,103.729978 C105.745275,103.583927 105.758934,103.3286 105.758934,102.991316 C105.759985,100.894063 105.270345,95.6120529 104.865815,93.4885315 C104.855308,93.4275892 104.841648,93.3645455 104.827989,93.2994004 C104.793315,93.1354868 104.751286,92.961066 104.705054,92.7729856 C104.679836,92.6521519 104.644112,92.5313182 104.609438,92.4052308 C104.539039,92.1383459 104.458133,91.8609536 104.373024,91.5688512 L104.337299,91.4532712 C104.286864,91.2767488 104.231175,91.0949729 104.171284,90.9142476 C104.099834,90.6914933 104.029436,90.4697897 103.953783,90.2386295 C103.929616,90.1577234 103.902298,90.0799695 103.874979,90.0011649 C103.86237,89.9664909 103.850812,89.9307662 103.838203,89.8950414 C103.535593,88.9882631 103.21302,88.0762311 102.931425,87.2944894 C102.8957,87.1946702 102.859975,87.0980032 102.825301,87.0076406 C102.416568,85.8896659 102.115009,85.1026706 102.115009,85.1026706 L102.129719,85.097417 C102.182256,85.0806053 102.392401,85.0060036 102.720228,84.8799162 C103.037548,84.7601332 103.463093,84.5951689 103.96324,84.3892262 C104.09353,84.3366898 104.228023,84.2799505 104.36777,84.2211097 C104.380379,84.2148054 104.394038,84.2095517 104.406647,84.2042981 C104.542191,84.1486095 104.676684,84.088718 104.81538,84.0288265 L104.88788,83.9973047 C105.00241,83.9479204 105.119041,83.8964348 105.238824,83.8428476 C105.288208,83.8207823 105.337592,83.798717 105.386976,83.7766518 C106.100421,83.4561797 106.875858,83.0852727 107.655498,82.674438 C107.690172,82.6565756 107.723796,82.6387132 107.75847,82.6208509 C108.212384,82.3791834 108.666299,82.1249072 109.110757,81.8580223 C110.127861,90.259644 110.81819,98.8220272 110.390543,104.6273 C109.790578,112.782001 112.169426,117.81709 114.528311,120.744418 Z" id="Path" fill="url(#linearGradient-38)"></path>
                <path d="M25.1050462,221.270726 C21.0670981,223.51298 0.136594651,230.973149 0.136594651,227.379659 C0.136594651,223.786169 18.1597335,210.133008 18.1597335,210.133008 C18.401401,212.531821 21.7532236,213.726499 22.9521043,212.047435 C23.0225031,211.951819 23.1990254,211.643955 23.4764176,211.14486 C24.1825069,215.031503 26.7231674,220.373404 25.1050462,221.270726 Z" id="Path" fill="#34124C" fill-rule="nonzero"></path>
                <path d="M67.6921062,191.630738 C66.981814,192.351537 67.3243514,192.528059 63.9073836,195.043502 C61.5138251,196.806624 49.5386771,206.539518 49.5386771,202.769506 C49.5386771,198.99424 59.2852308,184.146401 59.2852308,184.146401 C59.8599791,184.449011 60.2981327,183.124043 60.6364671,180.698963 C61.3162882,185.029013 68.4023984,190.909938 67.6921062,191.630738 Z" id="Path" fill="#34124C" fill-rule="nonzero"></path>
                <path d="M77.7664871,82.8047283 C77.2169563,83.9542248 76.7031503,84.9314019 76.3658666,85.3443381 C73.0045874,82.3255963 68.624102,80.0980527 67.8076863,79.6346816 L67.7425412,79.5937032 C67.5765261,79.4991377 67.8181936,78.1426478 68.2721081,76.1473151 C70.6299419,77.245326 76.0128219,79.977219 77.7664871,82.8047283 Z" id="Path" fill="#B72521" fill-rule="nonzero"></path>
                <path d="M113.489141,77.3209784 C113.454467,77.5122109 113.398778,77.7044941 113.323126,77.890473 L113.317872,77.9009803 C111.776454,81.7413915 102.115009,85.1026706 102.115009,85.1026706 C102.115009,85.1026706 101.272325,82.9507795 101.39421,81.9925155 C101.504536,81.1162082 109.56362,78.454714 112.718957,74.6353174 C112.975335,75.5074217 113.232763,76.4036928 113.489141,77.3209784 Z" id="Path" fill="#B72521" fill-rule="nonzero"></path>
                <path d="M27.8873741,202.930267 C28.2698392,202.208417 28.6691158,201.455045 29.0831027,200.672253 C28.6691158,201.455045 28.2698392,202.209468 27.8873741,202.930267 Z M34.4638812,140.98039 C35.0964195,138.389295 35.6932331,135.95791 36.238561,133.744026 C35.6942838,135.95791 35.0974703,138.389295 34.4638812,140.98039 Z" id="Shape" fill="url(#linearGradient-39)"></path>
                <path d="M27.8873741,202.930267 C29.6757133,197.930903 33.5266318,188.390292 36.0662416,172.226942 C37.9922261,159.955489 36.2931988,148.555089 34.4638812,140.98039 C35.0974703,138.389295 35.6942838,135.95791 36.238561,133.744026 C36.4371486,132.939168 36.6283811,132.163731 36.8122585,131.419815 C39.4327743,141.353399 44.1053621,153.509272 48.5404854,163.655102 C42.4000305,175.36967 34.4806929,190.472835 29.0831027,200.672253 C28.6691158,201.455045 28.2698392,202.208417 27.8873741,202.930267 Z" id="Path" fill="url(#linearGradient-40)"></path>
                <path d="M109.330359,81.7245798 L109.336663,81.7214276 C109.340866,81.7182754 109.345069,81.716174 109.349272,81.7130218 C109.388149,81.688855 109.427026,81.665739 109.464852,81.6415723 C109.421772,81.6688912 109.379743,81.6951594 109.336663,81.7214276 L109.330359,81.7245798 Z" id="Path" fill="url(#linearGradient-41)"></path>
                <path d="M109.330359,81.7245798 C109.336663,81.7203769 109.342968,81.7172247 109.349272,81.7130218 C109.345069,81.716174 109.340866,81.7182754 109.336663,81.7214276 L109.330359,81.7245798 Z" id="Path" fill="url(#linearGradient-42)"></path>
                <path d="M111.256343,80.3796479 C111.283662,80.3575826 111.310981,80.3344665 111.3383,80.3124013 C111.313083,80.3334158 111.287865,80.3544304 111.261597,80.3754449 L111.256343,80.3796479 Z" id="Path" fill="url(#linearGradient-43)"></path>
                <path d="M112.916494,78.6469972 C112.970081,78.5671419 113.020516,78.4872866 113.067799,78.4063805 C113.021567,78.4872866 112.970081,78.5671419 112.916494,78.6469972 Z" id="Path" fill="url(#linearGradient-44)"></path>
                <path d="M117.536545,120.885216 C116.781072,120.885216 115.71038,120.841085 114.528311,120.744418 C112.169426,117.81709 109.790578,112.782001 110.390543,104.6273 C110.81819,98.8220272 110.127861,90.259644 109.110757,81.8580223 C109.184308,81.8138917 109.257859,81.7697611 109.330359,81.7245798 L109.336663,81.7214276 C109.379743,81.6951594 109.421772,81.6688912 109.464852,81.6415723 C110.103695,81.2433463 110.713117,80.8199029 111.256343,80.3796479 L111.261597,80.3754449 C111.287865,80.3544304 111.313083,80.3334158 111.3383,80.3124013 C111.984498,79.7796821 112.530877,79.2217455 112.916494,78.6469972 C112.970081,78.5671419 113.021567,78.4872866 113.067799,78.4063805 C113.166567,78.238264 113.250625,78.0701475 113.317872,77.9009803 L113.323126,77.890473 C113.398778,77.7044941 113.454467,77.5122109 113.489141,77.3209784 C114.450557,80.2955896 114.805703,83.5528467 114.806754,86.8363719 C114.808855,96.1342648 111.967686,105.643354 111.968737,109.536302 C111.968737,109.922969 111.996056,110.253949 112.058049,110.523986 C112.873414,114.074396 118.671331,119.438363 118.668181,120.619381 C118.667129,120.752824 118.592527,120.832679 118.428613,120.850542 C118.234229,120.873658 117.927416,120.885216 117.536545,120.885216 Z" id="Path" fill="url(#linearGradient-45)"></path>
                <path d="M108.608509,77.9230456 C106.991438,65.8102522 104.93096,55.0360864 104.876322,54.7628971 C107.527309,59.5710288 110.167789,66.0319558 112.718957,74.6353174 C111.710258,75.8562634 110.199311,76.9595279 108.608509,77.9230456 Z" id="Path" fill="url(#linearGradient-46)"></path>
                <path d="M109.110757,81.8580223 C109.109706,81.8580223 109.109706,81.8580223 109.109706,81.8569715 L109.109706,81.8517179 C108.949995,80.5341049 108.781879,79.2217455 108.608509,77.9230456 C110.199311,76.9595279 111.710258,75.8562634 112.718957,74.6353174 C112.975335,75.5074217 113.232763,76.4036928 113.489141,77.3209784 C113.454467,77.5122109 113.398778,77.7044941 113.323126,77.890473 L113.317872,77.9009803 C113.250625,78.0701475 113.166567,78.238264 113.067799,78.4063805 C113.020516,78.4872866 112.970081,78.5671419 112.916494,78.6469972 C112.530877,79.2217455 111.984498,79.7796821 111.3383,80.3124013 C111.310981,80.3344665 111.283662,80.3575826 111.256343,80.3796479 C110.713117,80.8199029 110.103695,81.2433463 109.464852,81.6415723 C109.427026,81.665739 109.388149,81.688855 109.349272,81.7130218 C109.342968,81.7172247 109.336663,81.7203769 109.330359,81.7245798 C109.257859,81.7697611 109.184308,81.8138917 109.110757,81.8580223 Z" id="Path" fill="#A51C19" fill-rule="nonzero"></path>
                <path d="M64.7185457,98.7253602 C67.8129399,94.603354 70.5143619,88.3798915 72.6914704,82.5294375 C73.4553498,83.0411421 74.246548,83.6053831 75.0188332,84.2137546 C75.4769506,84.5762558 75.9298144,84.9534672 76.3658666,85.3443381 C75.6650309,87.6380775 72.2585705,92.9095803 69.2188141,97.3394499 C67.7677586,97.7681469 66.2610146,98.231518 64.7185457,98.7253602 Z" id="Path" fill="url(#linearGradient-47)"></path>
                <path d="M76.3658666,85.3443381 C75.9298144,84.9534672 75.4769506,84.5762558 75.0188332,84.2137546 C75.4780013,84.5762558 75.9298144,84.9534672 76.3658666,85.3443381 Z M77.7664871,82.8047283 C76.989999,81.5522604 75.5011174,80.3187056 73.8798439,79.2385572 C76.2513372,72.484477 77.8274293,66.9565966 78.3801123,66.9565966 C78.3874674,66.9565966 78.3948225,66.9565966 78.4021776,66.958698 C77.9787342,71.3339298 80.3271114,76.9637308 80.3271114,76.9637308 C80.3271114,76.9637308 78.9664186,80.2892852 77.7664871,82.8047283 Z" id="Shape" fill="url(#linearGradient-48)"></path>
                <path d="M76.3658666,85.3443381 C75.9298144,84.9534672 75.4780013,84.5762558 75.0188332,84.2137546 C74.246548,83.6053831 73.4553498,83.0411421 72.6914704,82.5294375 L72.6914704,82.5273361 C73.106508,81.4114628 73.5036833,80.3092491 73.8798439,79.2385572 C75.5011174,80.3187056 76.989999,81.5522604 77.7664871,82.8047283 C77.2169563,83.9542248 76.7031503,84.9314019 76.3658666,85.3443381 Z" id="Path" fill="#A51C19" fill-rule="nonzero"></path>
                <path d="M65.8018464,39.6838984 C64.632386,37.7579138 64.1490511,36.3068583 64.1490511,36.3068583 C64.1606091,36.3100105 64.1711164,36.3131627 64.1826744,36.3163148 C64.1963339,36.319467 64.2089426,36.3236699 64.2226021,36.3268221 C64.6428933,36.43925 65.0736918,36.4917864 65.5055411,36.4928372 L65.5149976,36.4928372 C65.5832949,36.4928372 65.652643,36.4907357 65.7209403,36.4886342 C68.8121824,36.3741049 71.8981707,33.7903645 72.8637899,33.7903645 C72.8774493,33.7903645 72.8900581,33.7903645 72.9026668,33.7914152 C73.2935376,33.8229371 73.8241553,34.2421776 74.3789398,34.7307662 C72.6000571,36.0809517 70.3830208,38.6552356 67.2634092,39.4769049 C66.7044218,39.6229561 66.2200362,39.6838984 65.8018464,39.6838984 Z" id="Path" fill="url(#linearGradient-49)"></path>
                <path d="M79.1933758,46.8046826 C78.8708023,46.5630151 78.5524317,46.3465651 78.2813439,46.1595355 C79.4770724,44.5414143 80.2567127,42.1720225 80.2567127,40.9121995 C80.2567127,40.7125611 80.2367488,40.5412925 80.1957704,40.4046978 C79.9089217,39.4464338 79.7218921,38.7970838 79.6620006,38.1109584 L79.6662035,38.0857409 C80.0297554,39.0387513 80.5088874,39.7542971 81.0374036,40.3132845 C81.8044351,41.1297002 82.6702351,41.6340497 83.4414695,42.0827106 C81.3851946,43.3730047 79.9288855,45.5248958 79.1933758,46.8046826 Z" id="Path" fill="url(#linearGradient-50)"></path>
                <path d="M81.0374036,40.3132845 C80.5088874,39.7542971 80.0297554,39.0387513 79.6662035,38.0857409 L79.6620006,38.1109584 C79.6514933,38.0111392 79.6462396,37.9092186 79.6420367,37.8093994 C79.6388846,37.7400514 79.6378338,37.6707033 79.6378338,37.6003046 C79.6378338,37.2409556 79.6693557,36.8521862 79.7323994,36.393018 C79.9057695,35.133195 80.4111697,35.1037746 80.410119,34.3146778 C80.410119,34.0929742 80.3691406,33.8124298 80.2714229,33.4289141 C80.2672199,33.4131531 80.263017,33.3984429 80.2588141,33.382682 C80.0202988,32.5168821 79.4539564,32.1396707 78.8434834,32.1375692 L78.8350776,32.1375692 C78.2519235,32.1396707 77.6288417,32.4843095 77.2169563,33.0716665 C76.989999,33.3963415 76.9153974,33.7210165 76.9153974,34.0362349 C76.9143466,34.6088817 77.1560141,35.1489559 77.1549634,35.6028705 C77.1549634,35.8319292 77.0919197,36.0389226 76.9048901,36.2164957 C76.8250347,36.2910974 76.7294185,36.3247207 76.6211935,36.3247207 C76.0716627,36.3247207 75.1995584,35.4515656 74.3789398,34.7307662 L74.3799905,34.7297154 C73.8252061,34.2411269 73.2966898,33.8218864 72.9026668,33.7914152 C72.8900581,33.7903645 72.8774493,33.7903645 72.8637899,33.7903645 C71.8981707,33.7903645 68.8121824,36.3741049 65.7209403,36.4886342 C65.652643,36.4907357 65.5832949,36.4928372 65.5149976,36.4928372 L65.5128962,36.4928372 L65.5055411,36.4928372 C65.0736918,36.4917864 64.6428933,36.43925 64.2226021,36.3268221 C64.2089426,36.3236699 64.1963339,36.319467 64.1826744,36.3163148 C64.1711164,36.3131627 64.1606091,36.3100105 64.1490511,36.3068583 C58.5518226,35.6564576 56.482939,32.3676787 56.4839893,28.4757819 C56.4860912,26.4289635 57.0608394,24.2140287 57.9949367,22.1293842 C57.3708042,25.0230894 57.4559132,28.6964348 61.1555268,30.2536138 C59.2347959,27.3714666 60.3485676,22.4120301 60.4851623,21.8624993 C60.4042562,22.3868126 59.8704863,26.9627334 66.2463044,27.9808889 C67.7288817,28.2173028 68.9729438,28.3097668 70.0121138,28.3097668 C73.7127781,28.3097668 74.8086875,27.1392557 74.8086875,27.1392557 C74.8086875,27.1392557 74.0017284,27.2159589 72.8806015,27.2159589 C70.5521881,27.2159589 66.8683354,26.887081 66.2557609,24.8665309 C67.1509813,25.1701913 68.1439193,25.2752641 69.1757343,25.2752641 C70.3620063,25.2752641 71.6008147,25.1355173 72.8049491,24.9968212 C74.0080327,24.8570743 75.1785438,24.7173275 76.2271705,24.7173275 C77.5363777,24.7173275 78.6575045,24.9348282 79.4203331,25.6430189 C81.9347254,27.9808889 80.8608813,31.6899591 80.8608813,31.6899591 L80.8924032,31.6899591 C81.1876578,31.6899591 83.4677377,31.7740173 83.6988979,34.356707 C81.6373694,37.8398706 81.0374036,40.3132845 81.0374036,40.3132845 Z" id="Path" fill="#350E15" fill-rule="nonzero"></path>
                <path d="M65.5055411,36.4928372 C65.0736918,36.4917864 64.6428933,36.43925 64.2226021,36.3268221 C64.6428933,36.43925 65.0736918,36.4917864 65.5055411,36.4928372 Z" id="Path" fill="#280A10" fill-rule="nonzero"></path>
                <path d="M65.7209403,36.4886342 C68.8121824,36.3741049 71.8981707,33.7903645 72.8637899,33.7903645 C71.8981707,33.7903645 68.8121824,36.3741049 65.7209403,36.4886342 Z" id="Path" fill="#280A10" fill-rule="nonzero"></path>
                <path d="M74.3789398,34.7307662 C73.8241553,34.2421776 73.2935376,33.8229371 72.9026668,33.7914152 C73.2966898,33.8218864 73.8252061,34.2411269 74.3799905,34.7297154 L74.3789398,34.7307662 Z" id="Shape" fill="#280A10" fill-rule="nonzero"></path>
            </g>
        </g>
    </g>
</svg>