<?xml version="1.0" encoding="UTF-8"?>
<svg width="388px" height="414px" viewBox="0 0 388 414" version="1.1" xmlns="http://www.w3.org/2000/svg" xmlns:xlink="http://www.w3.org/1999/xlink">
    <!-- Generator: Sketch 63.1 (92452) - https://sketch.com -->
    <title>Group 4</title>
    <desc>Created with Sketch.</desc>
    <g id="Design" stroke="none" stroke-width="1" fill="none" fill-rule="evenodd">
        <g id="404:-Not-Found-Copy" transform="translate(-489.000000, -157.000000)">
            <g id="Group-4" transform="translate(489.000000, 157.000000)">
                <path d="M193.947661,398.389432 C239.582405,464.793258 392.566435,303.874683 387.895323,206.179998 C383.22421,108.485314 345.11275,-47.5926923 193.947661,13.9705643 C42.7825724,75.533821 0,100.025659 0,206.179998 C0,312.334338 148.312918,331.985607 193.947661,398.389432 Z" id="Oval" fill="#FFE7C7"></path>
                <g id="2468358" transform="translate(11.000000, 26.000000)">
                    <path d="M77.4274088,174.582104 C70.5319706,179.981021 75.8841941,175.808971 77.6375288,174.590275 C80.6585876,172.490243 83.7625271,170.509278 86.9119925,168.607692 C91.7634301,165.678852 96.7362703,162.951962 101.800162,160.407175 C104.802544,158.89898 107.836443,157.456156 110.900694,156.077535 C112.043513,155.562741 117.303517,152.999277 112.58749,155.295422 C114.527598,154.351049 116.640472,153.631972 118.65062,152.854528 C126.456578,149.835804 134.422461,147.229148 142.506245,145.062577 C147.142893,143.820535 151.818063,142.723241 156.524751,141.776534 C158.748521,141.329445 160.980463,140.916209 163.217074,140.536826 C164.126426,140.382738 165.036946,140.233319 165.947466,140.090905 C166.867325,139.946155 167.788351,139.80841 168.709377,139.676501 C166.556814,139.953159 166.464595,139.967167 168.431552,139.715023 C178.782297,138.517339 189.151719,137.895151 199.574839,138.118111 C205.129011,138.237179 210.678514,138.580375 216.205838,139.137193 C217.55761,139.272604 218.908214,139.432529 220.258819,139.583115 C225.484971,140.164447 218.381747,139.278441 221.518372,139.752378 C224.858113,140.255499 228.185013,140.818153 231.50024,141.468358 C262.7124,147.598026 289.24472,159.702105 315.754861,177.214441 C323.342528,182.225803 334.374996,178.715631 338.785181,171.175825 C343.595762,162.949627 340.351743,153.170875 332.746566,148.146672 C286.467634,117.575378 231.294789,100.228804 175.57213,105.284525 C139.752505,108.534381 104.740675,119.425602 73.54836,137.401369 C66.5852164,141.414661 59.9477588,145.827181 53.6231466,150.777842 C46.4603889,156.386879 47.7432883,168.702246 53.6231466,174.582104 C60.6960195,181.654977 70.2448066,180.205149 77.4274088,174.582104 Z" id="Path" fill="#9A5FD2" fill-rule="nonzero"></path>
                    <path d="M129.999435,236.31653 C133.706886,233.49742 137.779712,231.103219 141.845534,228.850265 C144.054129,227.6269 146.294242,226.463069 148.56237,225.357604 C149.50791,224.89534 150.459287,224.445917 151.415333,224.004665 C152.316514,223.587927 157.072231,221.597623 152.528969,223.447847 C158.406493,221.053646 164.380905,218.957115 170.518744,217.32635 C173.678715,216.488205 176.869037,215.763291 180.082706,215.163282 C180.79478,215.030206 186.920945,214.103343 182.830609,214.632145 C184.82208,214.375332 186.821722,214.176885 188.823699,214.023964 C192.448269,213.749641 196.08568,213.641079 199.718421,213.708784 C201.866314,213.749641 204.011873,213.850032 206.152763,214.013458 C206.758609,214.060152 213.1054,214.842265 209.906907,214.353152 C229.179581,217.300669 243.958021,224.420235 259.776556,236.31653 C267.047876,241.781985 278.591635,237.482696 282.805709,230.277914 C287.842753,221.666496 284.055923,212.729392 276.767093,207.247594 C244.304719,182.838653 203.635992,174.587941 164.233821,184.186923 C146.485684,188.513061 127.692784,196.087887 113.008898,207.247594 C105.783104,212.739898 101.986936,221.758715 106.970282,230.277914 C111.131826,237.392811 122.717609,241.84969 129.999435,236.31653 Z" id="Path" fill="#9A5FD2" fill-rule="nonzero"></path>
                    <path d="M228.916931,288.579213 C228.916931,306.369373 214.494527,320.792944 196.703199,320.792944 C178.913038,320.792944 164.490634,306.369373 164.490634,288.579213 C164.490634,270.787884 178.913038,256.365481 196.703199,256.365481 C214.494527,256.365481 228.916931,270.787884 228.916931,288.579213 Z" id="Path" fill="#9A5FD2" fill-rule="nonzero"></path>
                    <path d="M75.6087034,169.669965 C68.7120978,175.068882 74.0654887,170.895665 75.8188234,169.676969 C78.8398822,167.576936 81.9438217,165.595972 85.0932871,163.695553 C89.9447247,160.766713 94.9187322,158.039823 99.9814571,155.495036 C102.983839,153.986841 106.017738,152.54285 109.081988,151.164229 C110.225975,150.649435 115.484812,148.087138 110.768785,150.383283 C112.708893,149.43891 114.821766,148.719833 116.831914,147.942389 C124.637873,144.923665 132.603756,142.317009 140.687539,140.150439 C145.324188,138.907229 150.000525,137.809935 154.706046,136.864395 C156.929816,136.417306 159.161757,136.002903 161.398368,135.62352 C162.307721,135.469432 163.218241,135.32118 164.128761,135.178766 C165.04862,135.034016 165.968478,134.896271 166.890672,134.763195 C164.738109,135.04102 164.64589,135.053861 166.614014,134.801717 C176.963591,133.6052 187.334181,132.981844 197.756134,133.205972 C203.310306,133.32504 208.859809,133.668236 214.385965,134.223887 C215.740072,134.360465 217.089509,134.52039 218.440114,134.669808 C223.667433,135.252308 216.563042,134.366302 219.699666,134.839072 C223.039407,135.342192 226.367475,135.906014 229.681534,136.556219 C260.893694,142.685887 287.427182,154.789967 313.937323,172.301135 C321.52499,177.313664 332.55629,173.803493 336.965308,166.262519 C341.777057,158.037488 338.533037,148.257569 330.926693,143.233366 C284.647761,112.66324 229.477251,95.3154982 173.754592,100.372386 C137.934967,103.622243 102.923137,114.513463 71.7296546,132.48923 C64.766511,136.501354 58.1290534,140.915042 51.8056085,145.865703 C44.6405162,151.47474 45.9245829,163.78894 51.8056085,169.669965 C58.8773141,176.741671 68.4261011,175.291843 75.6087034,169.669965 Z" id="Path" fill="#761EC9" fill-rule="nonzero"></path>
                    <path d="M128.18073,231.403224 C131.889348,228.585281 135.961006,226.19108 140.027996,223.938127 C142.235423,222.714761 144.475536,221.55093 146.743665,220.445465 C147.690372,219.983201 148.640582,219.53261 149.596628,219.091358 C150.497809,218.676955 155.253525,216.684317 150.710264,218.536875 C156.587787,216.141507 162.5622,214.044976 168.701206,212.414211 C171.86001,211.574899 175.050332,210.849985 178.264001,210.251143 C178.976074,210.116899 185.103407,209.191204 181.013071,209.718839 C183.004542,209.462025 185.004184,209.263579 187.003826,209.111825 C190.628396,208.837502 194.265807,208.72894 197.899716,208.795478 C200.046442,208.836335 202.193168,208.937893 204.334057,209.101319 C204.941071,209.146845 211.285527,209.930126 208.088201,209.441013 C227.362043,212.38853 242.138149,219.506929 257.959018,231.403224 C265.22917,236.869846 276.77293,232.570557 280.987004,225.364608 C286.025214,216.752022 282.237218,207.817253 274.948388,202.335455 C242.487181,177.926514 201.817286,169.674634 162.415116,179.274784 C144.666979,183.599754 125.874079,191.174581 111.190192,202.335455 C103.965566,207.826591 100.169398,216.845409 105.151577,225.364608 C109.314287,232.480672 120.900071,236.937551 128.18073,231.403224 Z" id="Path" fill="#761EC9" fill-rule="nonzero"></path>
                    <path d="M227.098225,283.665906 C227.098225,301.457234 212.676989,315.879638 194.884494,315.879638 C177.094333,315.879638 162.671929,301.457234 162.671929,283.665906 C162.671929,265.875746 177.094333,251.452174 194.884494,251.452174 C212.676989,251.452174 227.098225,265.875746 227.098225,283.665906 Z" id="Path" fill="#761EC9" fill-rule="nonzero"></path>
                    <path d="M249.230866,81.0892063 C251.393935,80.7273329 256.144982,80.5755796 258.326728,80.3642922 C260.508474,80.1518376 262.8303,80.3958103 264.645504,81.627347 C266.062646,82.5892297 267.075892,84.1289424 267.40041,85.8110698 C267.504303,86.3620512 267.298852,87.1710132 266.745536,87.0764592 C266.453703,87.0262638 266.28444,86.7285938 266.129184,86.4787845 C265.417111,85.3441364 264.179738,84.6215571 262.891002,84.2608511 C261.602265,83.9013124 260.249326,83.8639577 258.910395,83.8277704 C258.378091,83.8149297 257.807265,83.8102604 257.362511,84.1055957 C256.991299,84.3519031 256.769505,84.7663064 256.448489,85.0756498 C255.764431,85.7316911 254.727839,85.8227431 253.782299,85.8169065 C251.760478,85.8028985 249.740991,85.5017265 247.80205,84.9262311" id="Path" fill="#FAD3D0" fill-rule="nonzero"></path>
                    <path d="M317.797694,128.683723 C321.089575,130.302814 323.266651,133.956568 323.124237,137.620827 C323.106727,138.085426 323.095053,138.638742 323.476771,138.902559 C323.658875,139.030966 323.892342,139.054313 324.115303,139.07299 C332.38586,139.754713 340.866537,137.579971 347.789991,133.002856 C343.371634,132.363158 341.050975,133.011028 336.806551,131.62657 C332.562127,130.242113 326.358917,126.773965 323.344863,123.479751" id="Path" fill="#FAD3D0" fill-rule="nonzero"></path>
                    <path d="M322.996997,135.814962 C326.951923,136.079947 332.098696,135.43091 335.667234,133.449945 C336.468024,133.006358 337.217452,132.014125 337.585162,131.87638 C338.098789,131.68377 340.614393,131.97677 341.871611,132.010623 C345.545209,132.111014 349.256162,131.489992 352.763998,130.19075 C353.59047,129.884909 354.606051,129.576733 355.225905,130.198922 C355.984671,130.96119 355.426686,132.364325 354.705274,133.216478 C352.315742,136.042592 348.702846,137.187747 345.293065,138.200992 C340.205826,139.713856 335.116252,141.22672 330.027846,142.739584 C328.862847,143.086282 327.685008,143.435315 326.484989,143.507689 C325.329329,143.578897 324.038259,143.305741 323.402062,142.297165 C323.049527,141.738012 322.952639,141.035277 322.898941,140.355889 C322.775204,138.850029 322.809057,137.323157 322.996997,135.814962 Z" id="Path" fill="#082034" fill-rule="nonzero"></path>
                    <path d="M317.636602,130.421882 C320.819921,128.634695 323.782613,125.423361 325.525441,122.213194 C313.684012,113.799055 301.841414,105.383749 290.001152,96.9696096 C287.986335,95.5372915 285.95284,94.0944675 283.682376,93.1162421 C280.690501,91.827506 277.411461,91.39676 274.177948,91.001034 C258.333732,89.0585913 242.427647,87.6286079 226.492379,86.7145858 C225.109089,86.6363745 223.638249,86.5791752 222.433561,87.2632325 C221.503197,87.7908672 220.854159,88.6955506 220.292672,89.6049033 C219.033119,91.645402 218.036216,94.1434955 218.84868,96.3999509 C219.465032,98.1112616 220.996574,99.3112803 222.528115,100.29184 C229.205262,104.564281 237.098771,106.42501 244.820681,108.215699 C252.018458,109.884986 250.891982,108.914932 257.992871,106.876768 C262.159084,105.681419 273.287273,106.371313 277.606406,106.729684 C281.193622,107.028521 285.096017,109.824285 287.943143,112.025876 C297.177918,119.166454 306.772231,126.147107 317.636602,130.421882 Z" id="Path" fill="#081D2B" fill-rule="nonzero"></path>
                    <path d="M264.450559,168.2143 C265.37392,171.764161 262.276984,180.782979 259.407679,183.068618 C259.044638,183.356949 258.618561,183.710651 258.666422,184.172915 C258.689769,184.393541 258.824012,184.586151 258.954753,184.767088 C263.841211,191.475753 271.024981,196.478944 279.013043,198.731897 C276.611838,194.968414 274.606359,193.634152 272.883375,189.5158 C271.159224,185.397448 269.836635,180.54601 271.584133,174.584439" id="Path" fill="#FAD3D0" fill-rule="nonzero"></path>
                    <path d="M260.692913,181.79389 C263.074273,184.960865 266.92764,188.433682 270.757661,189.843821 C271.616819,190.160168 272.857694,190.079622 273.202057,190.267563 C273.681831,190.53138 275.104811,192.629078 275.899765,193.603801 C278.222758,196.44976 281.116578,198.855634 284.390948,200.663834 C285.161388,201.088743 286.0579,201.657234 285.991362,202.532734 C285.909648,203.605514 284.483167,204.098128 283.366029,204.109802 C279.665582,204.144822 276.44024,202.156853 273.44603,200.23659 C268.977478,197.370786 264.508926,194.504983 260.040373,191.639179 C259.016622,190.983138 257.983532,190.318925 257.144219,189.457433 C256.335257,188.627459 255.699061,187.472967 256.048093,186.332482 C256.241871,185.699787 256.709971,185.16865 257.188578,184.68304 C258.250851,183.605591 259.426356,182.63437 260.692913,181.79389 Z" id="Path" fill="#082034" fill-rule="nonzero"></path>
                    <path d="M200.02076,96.3906122 C202.220016,101.022591 205.951981,104.908644 210.490573,107.292339 C213.520971,108.883414 216.853708,109.80444 220.180608,110.604063 C235.443492,114.272992 251.397437,115.700641 265.785988,121.972723 C266.703512,122.373119 267.630375,122.803865 268.354122,123.493759 C269.689551,124.768487 270.129636,126.754121 269.987221,128.593838 C269.844806,130.433556 269.198104,132.189225 268.647122,133.950731 C264.576631,146.98751 265.676259,161.28034 261.052451,174.130346 C260.877351,174.617124 260.695247,175.169273 260.926379,175.632704 C261.13183,176.048275 261.602265,176.250223 262.035346,176.414817 C264.815934,177.471254 267.664228,178.346754 270.558047,179.035481 C270.999299,179.140541 271.486077,179.235095 271.885305,179.024975 C272.304378,178.803181 272.496988,178.318738 272.654578,177.872817 C277.950769,163.026671 282.565238,147.938887 286.479307,132.671334 C287.562593,128.446754 288.598017,124.16731 288.682065,119.808487 C288.717085,117.961766 288.550157,116.015821 287.519401,114.483112 C286.47347,112.928224 284.711964,112.041051 283.022833,111.229754 C263.814362,101.999649 244.028061,93.9742321 223.816851,87.2165392" id="Path" fill="#080808" fill-rule="nonzero"></path>
                    <path d="M219.434682,30.5670176 C217.935826,34.4845884 217.935826,38.9554753 219.432347,42.8753808 C215.529952,38.8749293 210.93416,35.5515311 205.912292,33.1024657 C210.833769,28.3409129 214.118646,21.9182446 215.098038,15.140707" id="Path" fill="#F0C9C6" fill-rule="nonzero"></path>
                    <path d="M232.466792,3.91212721 C235.515866,4.5062999 237.454807,7.61724336 238.110849,10.6546448 C239.122927,15.3461577 237.925243,20.3400099 235.493687,24.4782067 C233.063299,28.6175709 229.478418,31.9748217 225.591198,34.7904298 C225.272516,35.0227291 224.938659,35.2561958 224.551104,35.3320725 C223.781831,35.4826585 223.048746,34.9830398 222.441733,34.4904251 C220.327692,32.777947 218.420269,30.8133249 216.768492,28.6525909 C215.87198,27.4782535 215.033835,26.2081948 214.71632,24.766538 C214.434993,23.4964793 214.57624,22.1738906 214.718655,20.8804852 C215.011656,18.2201324 215.309326,15.5340983 216.175487,13.0009849 C217.040481,10.4678715 218.534668,8.06549938 220.771279,6.59582665" id="Path" fill="#FAD3D0" fill-rule="nonzero"></path>
                    <path d="M239.963407,3.63079987 C237.936916,3.11834052 235.821708,3.07748385 233.775372,2.65724383 C230.157806,1.9113178 226.736352,-0.0217862751 223.045244,0.0972817296 C218.244002,0.251369736 213.71825,3.60978787 212.221729,13.0173276 C212.08982,13.4282289 211.94974,13.8344609 211.794485,14.2313543 C211.385918,15.270281 210.865287,16.2741877 210.630653,17.3656444 C210.07617,19.9349452 211.178133,22.56378 212.486714,24.843582 C214.901926,24.5867687 216.684444,22.1738906 217.194569,19.7995345 C217.520255,18.2855031 217.247099,16.6290571 218.389918,15.3484923 C218.982924,14.6842796 220.034691,14.5080123 220.725753,15.0718343 C221.893086,16.026713 220.854159,17.9504784 221.185682,19.4318245 C222.266633,18.4827825 223.115284,17.2652537 224.307131,16.457459 C226.425841,15.0228063 229.212266,15.1383723 231.743045,15.529429 C234.271489,15.921653 236.872308,16.5298337 239.351724,15.8994737 C240.231893,15.6753457 241.065369,15.301799 241.937367,15.0508223 C244.696943,14.2570356 247.643293,14.7368096 250.472909,15.221253 C250.326992,9.73128411 244.287209,4.72575858 239.963407,3.63079987 Z" id="Path" fill="#082034" fill-rule="nonzero"></path>
                    <path d="M207.613097,31.0117716 C209.983951,34.2581258 213.680896,36.2134092 217.187565,38.1838679 C217.764228,38.5083866 218.365404,38.8585866 218.71327,39.4224086 C218.97592,39.8484853 219.066972,40.3562753 219.154522,40.84889 C219.857256,44.8329988 220.561159,48.8229443 220.962721,52.8490772 C221.535882,58.5748474 221.49736,64.3496456 222.097369,70.0730812 C222.697379,75.7953494 223.980278,81.5666456 226.961647,86.4892905 C222.272469,87.3449459 218.440114,90.7021967 213.942378,92.2804314 C211.900712,92.9948394 209.744647,93.3357008 207.701814,94.0477741 C204.924728,95.0154935 202.269044,96.6847802 199.328532,96.6159076 C199.039033,96.6089036 198.72969,96.5785529 198.503227,96.3976162 C198.235908,96.1863289 198.14719,95.8244555 198.075983,95.4905982 C196.305138,87.2001965 194.531959,78.8922849 193.606263,70.4664725 C193.355287,68.1913398 193.168513,65.905701 193.212872,63.6188949 C193.333107,57.509072 195.113291,51.5416638 197.426946,45.8859335 C199.714919,40.2967413 202.662436,34.4670784 207.613097,31.0117716 Z" id="Path" fill="#FE7073" fill-rule="nonzero"></path>
                    <path d="M206.088559,37.0095305 C209.329077,36.3885092 211.474635,38.5982713 212.616288,40.302578 C213.755605,42.0068847 214.256391,44.0508855 214.667292,46.0598662 C216.136965,53.2529745 216.736974,60.6562028 219.035454,67.6298524 C219.802392,69.9610172 220.810968,72.3108593 222.630841,73.9603013 C225.196639,76.2867968 228.86907,76.8074274 232.296361,77.2988748 C238.165713,78.1393548 244.003547,79.1957915 249.793521,80.4635156 C250.056171,80.5218823 250.349172,80.6012609 250.483415,80.8347276 C250.59081,81.0226683 250.562794,81.256135 250.530108,81.469757 C250.322323,82.860051 250.11337,84.2503451 249.904418,85.6406391 C249.862394,85.9184645 249.808696,86.2196365 249.600911,86.4099118 C249.40013,86.5943505 249.104794,86.6247012 248.831638,86.6445458 C238.842767,87.3694599 228.718484,86.1927878 219.161526,83.1939084 C218.23583,82.9032423 217.305466,82.5915643 216.478994,82.082607 C215.612832,81.546801 214.889086,80.8102136 214.222538,80.0397736 C210.922487,76.2225934 208.887825,71.4902239 207.111143,66.767193 C204.937569,60.9853908 203.068668,55.0763492 201.834796,49.0237257 C201.358524,46.6983976 200.980308,44.2785155 201.527788,41.9683627 C202.076434,39.6593773 203.760897,37.4717945 206.088559,37.0095305 Z" id="Path" fill="#761EC9" fill-rule="nonzero"></path>
                    <path d="M250.900153,88.6091679 C261.012762,89.5535406 271.124204,90.496746 281.236813,91.4411187 C281.641878,91.4784734 281.953556,91.137612 282.080795,90.797918 C285.669178,81.2269516 289.256393,71.6571526 292.844776,62.0861862 C293.240502,61.0297495 291.549036,60.5733221 291.156812,61.6204202 C289.362621,66.4053197 287.568429,71.1913866 285.775405,75.9762861 C284.592896,79.1269189 283.411555,82.278719 282.231381,85.4293518 C281.826316,86.5068005 281.193622,87.7138232 280.950816,88.8438019 C280.813071,89.4835006 279.984264,90.409196 280.796728,89.981952 C281.533316,89.5943973 277.214182,89.3142373 276.497439,89.2476993 C273.019953,88.9231806 269.543634,88.5986619 266.068483,88.2741432 C261.012762,87.8025405 255.955874,87.3309379 250.900153,86.8581678 C249.778346,86.7542752 249.78535,88.5064426 250.900153,88.6091679 Z" id="Path" fill="#081D2B" fill-rule="nonzero"></path>
                    <path d="M321.129264,236.150768 C321.234324,235.6815 321.390747,235.258926 321.690751,234.872538 C322.20788,234.207158 322.318777,234.125445 323.168595,234.419613 C324.090789,234.739462 324.051099,235.024292 323.829306,235.899792 C323.725413,236.318864 323.551481,236.720427 323.329687,237.090472 C322.489207,238.48777 321.116423,239.34576 319.677101,240.02865 C319.328068,240.195579 319.632742,240.713875 319.980608,240.549281 C322.103987,239.541872 325.305983,237.189695 324.444491,234.36825 C324.192347,233.544113 323.552648,233.109865 322.703997,233.37018 C321.537831,233.727384 320.800076,234.862032 320.550266,235.990844 C320.466218,236.36906 321.046383,236.528984 321.129264,236.150768 Z" id="Path" fill="#030404" fill-rule="nonzero"></path>
                    <path d="M274.684571,314.931764 C274.684571,314.931764 269.871655,331.33163 289.570406,331.096996 C309.269157,330.861195 337.013169,331.277933 337.013169,331.277933 C337.013169,331.277933 348.504399,323.354074 338.378949,310.305621" id="Path" fill="#081D2B" fill-rule="nonzero"></path>
                    <path d="M318.107038,243.07539 C316.758768,246.062596 315.377812,249.229572 315.717506,252.489934 C315.8821,254.069336 316.454094,255.595041 317.31792,256.925801 C317.498857,257.202459 317.699638,257.503631 317.663451,257.830484 C317.635435,258.090799 317.461502,258.309091 317.291072,258.505203 C312.833026,263.648474 304.909167,265.420486 298.686112,262.667913 C300.24567,256.308281 300.219988,249.564596 298.609068,243.217805" id="Path" fill="#F0C9C6" fill-rule="nonzero"></path>
                    <path d="M297.61917,256.524238 C303.553892,260.634419 310.867236,259.943357 316.524134,255.458463 C319.825352,257.419583 324.400132,258.54139 328.234822,258.760849 C329.088143,258.809877 331.06794,259.561639 331.782348,260.030907 C332.866801,260.744148 332.54345,261.919653 332.664852,263.213058 C334.051644,278.020682 332.284302,293.085119 334.838427,307.736321 C335.113918,309.318057 335.35789,311.179954 334.223242,312.313435 C333.299882,313.233293 331.850054,313.264811 330.583497,313.567151 C328.386575,314.093618 326.535185,315.556287 324.411805,316.330229 C321.905541,317.243084 319.159972,317.149697 316.493783,317.044637 C306.291289,316.64074 295.708245,316.139954 286.649738,311.428596 C285.838441,311.007189 285.022475,310.535586 284.457486,309.816509 C283.493268,308.596645 283.42673,306.914518 283.40922,305.358463 C283.250463,291.162521 283.579651,276.961911 284.396784,262.788149 C284.41196,262.525499 284.430637,262.250008 284.570717,262.027047 C284.756323,261.72821 285.110025,261.58813 285.441548,261.467895 C289.429159,260.008728 293.416769,258.550729 297.405548,257.091562 L297.61917,256.524238 Z" id="Path" fill="#FF9100" fill-rule="nonzero"></path>
                    <path d="M331.48818,259.921178 C332.804932,260.281884 334.166043,262.413435 334.910802,263.558589 C338.222527,268.657501 339.522936,274.019063 341.687172,279.700475 C343.376303,284.13284 345.066602,288.565205 346.755734,292.997569 C347.505162,294.964526 348.256924,296.938487 348.718021,298.992994 C349.033201,300.39963 349.184954,301.974363 348.416849,303.195394 C348.030462,303.808244 347.446795,304.268173 346.860794,304.69425 C342.378233,307.947608 336.96881,309.909895 331.442654,310.284609 C330.471433,310.351147 329.360132,310.311458 328.720433,309.577205 C327.925479,308.664351 328.31887,307.270555 328.677241,306.114895 C329.852746,302.315224 330.158588,298.248235 329.567917,294.315489 C329.150011,291.532566 328.294356,288.837193 327.679171,286.091625 C326.790831,282.125026 326.409113,278.045196 326.546858,273.981709 C326.718456,268.89447 327.872949,263.507226 331.48818,259.921178 Z" id="Path" fill="#FE7073" fill-rule="nonzero"></path>
                    <path d="M285.40536,261.488907 C284.087441,261.848445 282.727498,263.979996 281.983906,265.12515 C278.671014,270.224062 277.371772,275.584457 275.205201,281.267036 C273.517237,285.699401 271.828106,290.131766 270.137807,294.564131 C269.389546,296.531087 268.636616,298.506216 268.176687,300.559555 C267.859172,301.966192 267.708586,303.540924 268.476692,304.760788 C268.863079,305.374805 269.445578,305.834735 270.032747,306.260811 C274.515307,309.515337 279.92473,311.475289 285.450886,311.851171 C286.42094,311.916541 287.534577,311.878019 288.173108,311.143767 C288.968062,310.232079 288.574671,308.838283 288.217467,307.681456 C287.041962,303.881786 286.733786,299.815964 287.325624,295.88205 C287.743529,293.099127 288.600352,290.404922 289.214369,287.658186 C290.10271,283.691588 290.483261,279.611757 290.346683,275.54827 C290.175085,270.461031 289.020592,265.07262 285.40536,261.488907 Z" id="Path" fill="#FE7073" fill-rule="nonzero"></path>
                    <path d="M296.171676,221.144698 C295.941712,222.818654 296.150664,229.980244 296.175178,231.669376 C296.228876,235.639476 297.012156,239.653936 298.903236,243.144263 C300.794316,246.635757 303.859734,249.569266 307.611543,250.86734 C308.238401,251.084464 308.901447,251.25723 309.557488,251.16501 C310.250884,251.068122 310.868403,250.688738 311.441564,250.288343 C315.544741,247.427209 317.803531,245.010829 319.45414,240.288965 C321.105917,235.567102 318.935844,226.110534 318.342839,221.144698" id="Path" fill="#FAD3D0" fill-rule="nonzero"></path>
                    <path d="M329.042617,242.622465 C327.639482,239.448485 325.891984,236.395908 325.029325,233.035156 C323.92386,228.735867 323.417237,224.68522 321.131599,220.88088 C318.313656,216.1882 313.034974,214.708022 307.541503,215.288186 C306.00646,215.450446 304.345345,215.780801 302.84999,216.166021 C301.205218,216.589763 299.61531,216.9458 298.189996,217.86916 C295.882178,219.363347 294.416007,221.00812 293.284861,223.292591 C292.154882,225.57823 291.203505,227.861534 291.06576,230.406321 C290.937353,232.762 291.050585,235.157368 290.461081,237.440672 C289.681303,240.455894 287.707342,243.131422 287.382823,246.228357 C286.942738,250.437762 289.62994,254.381014 289.843562,258.606761 C289.935781,260.433637 289.562235,262.262849 289.715155,264.085056 C289.971969,267.167984 291.735809,269.970751 293.987595,272.092963 C296.240549,274.216343 298.96744,275.754888 301.665147,277.271254 C300.196642,274.126458 301.564756,270.472704 302.665552,267.180824 C303.776853,263.852757 304.612664,260.341418 304.219273,256.853426 C303.588912,251.286413 299.955004,246.566884 298.046414,241.296374 C297.419556,239.564051 296.974802,237.713828 297.202432,235.884616 C297.382201,234.44296 297.968202,233.088853 298.548367,231.758093 C299.534764,229.493466 300.522328,227.227672 301.508724,224.961878 C305.873384,230.414492 310.808869,234.323892 317.237374,236.805642 L317.219864,236.821985 C317.219864,236.821985 317.237374,242.323627 315.349796,248.390259 C315.283258,248.545514 315.210884,248.697268 315.158354,248.859527 C315.09882,249.040464 315.04629,249.247082 314.999596,249.463038 L314.99376,249.480548 L314.994927,249.481716 C314.630719,251.159174 314.613209,253.724972 315.104656,255.114099 C315.55408,256.382991 316.033854,257.089227 317.013246,258.012588 C317.832714,258.784195 319.403945,259.298989 320.577115,259.482261 C321.850676,259.683042 322.919953,259.694715 324.207522,259.610667 C327.669833,259.383037 330.359369,256.122675 330.944203,252.702388 C331.529037,249.282102 330.445752,245.796444 329.042617,242.622465 Z" id="Path" fill="#082034" fill-rule="nonzero"></path>
                    <path d="M297.147567,235.214567 C297.188424,234.501326 296.468179,233.886142 295.753771,233.916492 C295.039363,233.94801 294.418341,234.511832 294.179038,235.185384 C293.914053,235.932477 294.057635,236.763618 294.32262,237.510712 C294.905119,239.154317 296.349111,240.706871 298.090772,240.601811" id="Path" fill="#FAD3D0" fill-rule="nonzero"></path>
                    <path d="M333.374591,317.632973 L282.753179,317.632973 C281.774954,317.632973 280.981167,316.840354 280.981167,315.862128 L280.981167,283.244499 C280.981167,282.266274 281.774954,281.473654 282.753179,281.473654 L333.374591,281.473654 C334.352816,281.473654 335.146603,282.266274 335.146603,283.244499 L335.146603,315.862128 C335.146603,316.840354 334.352816,317.632973 333.374591,317.632973 Z" id="Path" fill="#E3E3E3" fill-rule="nonzero"></path>
                    <path d="M308.064469,302.154132 C306.627481,302.154132 305.462483,300.990301 305.462483,299.553314 C305.462483,298.116326 306.627481,296.952495 308.064469,296.952495 C309.500289,296.952495 310.665287,298.116326 310.665287,299.553314 C310.665287,300.990301 309.500289,302.154132 308.064469,302.154132 Z" id="Path" fill="#A1A1A1"></path>
                    <path d="M285.951672,328.811357 C281.459774,330.039392 276.690049,329.413701 272.055736,329.864292 C267.414418,330.31605 262.883998,331.873273 258.946582,334.369032 C258.118943,334.893164 257.232937,335.609907 257.223531,336.5893 C257.220096,336.968683 257.354339,337.335226 257.494419,337.68776 C257.964855,338.863265 258.547354,340.044607 259.525579,340.848899 C260.804977,341.899499 262.557144,342.143472 264.21359,342.186663 C270.37711,342.352425 276.367865,340.337607 282.204532,338.347304 C284.493673,337.566358 286.782814,336.786579 289.071955,336.005633" id="Path" fill="#D4BBEC" fill-rule="nonzero"></path>
                    <path d="M284.190166,327.879825 C304.682704,322.1739 321.429269,307.444487 341.091832,299.329186 C343.496539,298.33812 345.992297,297.434604 348.590782,297.319038 C351.190433,297.204639 353.938336,297.979748 355.692838,299.898844 C357.725165,302.124949 358.068361,305.537065 357.140331,308.404035 C355.389331,313.820462 350.021932,317.101836 344.991893,319.769193 C334.913136,325.117915 324.459666,329.96585 313.354824,332.588848 C309.955549,333.391974 306.508413,333.983812 303.06478,334.573315 C298.121123,335.420799 293.177466,336.268283 288.232642,337.1146 C287.889446,337.174134 287.534577,337.2325 287.199552,337.134444 C286.63573,336.967516 286.293701,336.410698 286.00537,335.897071 C284.556709,333.316097 283.329842,330.712944 284.190166,327.879825 Z" id="Path" fill="#082034" fill-rule="nonzero"></path>
                    <path d="M330.694394,329.812929 C335.123256,331.252252 339.918662,330.853024 344.526127,331.521906 C349.140596,332.191955 353.59047,333.960465 357.407651,336.639495 C358.209609,337.20215 359.060595,337.959749 359.024407,338.939142 C359.010399,339.317358 358.857479,339.678064 358.701056,340.022427 C358.176923,341.175753 357.538392,342.327911 356.523979,343.084343 C355.195554,344.073074 353.434048,344.234166 351.778769,344.200313 C345.612914,344.074241 339.724885,341.779264 333.987441,339.515805 C331.73799,338.628631 329.488538,337.74029 327.239087,336.854284" id="Path" fill="#D4BBEC" fill-rule="nonzero"></path>
                    <path d="M332.497924,328.96778 C312.297219,322.301139 296.263896,306.798952 277.006397,297.763792 C274.650718,296.659494 272.201653,295.640412 269.610172,295.402276 C267.01986,295.165307 264.238104,295.809675 262.393718,297.645891 C260.258665,299.771605 259.756711,303.163876 260.546996,306.072871 C262.04235,311.565174 267.248657,315.09519 272.145621,317.997181 C281.961727,323.816338 292.174727,329.151051 303.144158,332.29468 C306.502577,333.258898 309.915859,334.01066 313.327975,334.762423 C318.227273,335.841039 323.126571,336.92199 328.024702,338.001773 C328.364396,338.076482 328.718098,338.151192 329.055457,338.069478 C329.626284,337.929398 329.995161,337.388923 330.306839,336.889304 C331.875735,334.380705 333.224005,331.837086 332.497924,328.96778 Z" id="Path" fill="#082034" fill-rule="nonzero"></path>
                    <path d="M23.7755994,171.737313 C23.4020527,170.544298 21.767786,169.51471 20.8887839,168.746604 C18.4163718,166.58587 15.8657484,164.512686 13.3197943,162.44067 C9.46175748,159.295873 5.57803932,156.182595 1.6744765,153.094998 C0.800143798,152.40277 -0.447735585,153.634306 0.435935783,154.333539 C3.87840192,157.056928 7.30452539,159.801329 10.7131389,162.565574 C13.1038376,164.504515 15.4910344,166.45046 17.8420438,168.437261 C18.7899185,169.240386 21.7234273,171.040415 22.0876353,172.203079 C22.42266,173.275858 24.1129587,172.817096 23.7755994,171.737313 Z" id="Path" fill="#9594C8" fill-rule="nonzero"></path>
                    <path d="M72.9051593,232.145648 C72.315656,242.843091 70.0685392,244.323269 71.1413186,254.983358 C71.4028013,257.580675 72.574804,262.858189 72.967028,270.096823 C73.4094473,278.254149 71.1903466,287.082691 70.7560986,289.514247 C68.1809611,303.957662 65.3490104,308.601315 68.7576238,322.870798 C62.1049909,326.694982 55.1873733,330.605549 47.5483437,331.324626 C50.9161005,328.647931 54.3935866,325.838159 56.268324,321.966115 C57.6959727,319.016263 58.0730214,315.684694 58.3741934,312.421997 C61.1302675,282.489234 59.0652548,252.119889 52.2830478,222.836164" id="Path" fill="#FAD3D0" fill-rule="nonzero"></path>
                    <path d="M68.0490525,319.533392 C63.7007356,321.896075 62.0384529,324.942815 57.0994654,324.631137 C56.3325273,324.583276 53.9768486,323.843187 53.3604966,324.300781 C52.2958885,325.091066 48.5452464,326.881755 47.598539,327.535462 C45.5020082,328.984123 44.4198902,329.027314 41.9206294,329.525765 C40.8069934,329.748726 39.650166,329.8783 38.6392553,330.397764 C37.6306793,330.918394 36.7808606,331.958488 36.8964266,333.088467 C37.0773632,334.845304 39.2392647,335.570218 41.0019381,335.679947 C48.1740343,336.125868 55.1628593,333.145666 62.3477962,333.058116 C64.297243,333.033602 66.2688691,333.221543 68.1797938,332.839825 C68.5603445,332.763948 68.9514012,332.657721 69.2432345,332.403242 C69.6121119,332.083393 69.7615305,331.583774 69.8724272,331.10867 C70.7782779,327.208609 70.1093959,322.965352 68.0490525,319.533392 Z" id="Path" fill="#082034" fill-rule="nonzero"></path>
                    <path d="M63.425245,223.258739 C58.2259421,232.815697 52.5421959,240.613484 47.342893,250.170442 C45.5697136,253.429637 42.9595561,257.835153 42.9712295,261.544939 C42.9805681,264.520472 45.8148536,270.993335 46.824597,273.792601 C51.6573571,287.200592 52.2013345,298.781706 54.2336619,312.88893 C54.8500139,317.162538 55.6531393,321.61358 58.2936474,325.02803 C50.4456651,326.916775 45.6094029,335.992792 37.6061653,337.041058 C41.0626394,333.0873 44.1770849,328.633923 45.3771036,323.52217 C46.8024176,317.449702 43.9587935,309.644911 42.3128534,303.629642 C38.8178573,290.855513 35.6672245,279.835885 30.0616896,267.838033 C28.9819062,265.52788 27.8425889,263.148855 27.7667122,260.599399 C27.7246882,259.176419 28.0200235,257.765113 28.3246976,256.372485 C31.6399244,241.280031 36.4329952,226.510929 42.6128581,212.346506" id="Path" fill="#FAD3D0" fill-rule="nonzero"></path>
                    <path d="M56.03369,320.787108 C52.4499765,324.200391 51.6386798,327.572817 46.7884096,328.559213 C46.0354796,328.712134 43.5677368,328.610576 43.0914648,329.214087 C42.2696621,330.253014 39.1155273,332.957726 38.3707686,333.836728 C36.7236612,335.781505 35.6905712,336.102522 33.4072671,337.236002 C32.3905197,337.74029 31.3072343,338.166367 30.4667543,338.932138 C29.6274416,339.696741 29.0776276,340.922441 29.4838596,341.983547 C30.1165543,343.631822 32.3916871,343.769567 34.1216751,343.417033 C41.1630301,341.980045 47.1351076,337.283863 54.0492232,335.32858 C55.925128,334.79861 57.8780767,334.467088 59.6244075,333.600926 C59.9711055,333.428161 60.3213055,333.223878 60.5372622,332.902861 C60.8092508,332.496629 60.8244262,331.975998 60.8080835,331.488053 C60.6668362,327.486434 58.9170034,323.564194 56.03369,320.787108 Z" id="Path" fill="#082034" fill-rule="nonzero"></path>
                    <path d="M76.7655308,203.785283 C77.8791669,214.62981 79.3208236,225.439317 81.0916683,236.195127 C81.1582063,236.602526 81.195561,237.093974 80.8722096,237.34962 C80.7239583,237.468688 80.5278463,237.506042 80.337571,237.539895 C71.2335379,239.147313 61.7991496,238.870655 52.8048459,236.729766" id="Path" fill="#081D2B" fill-rule="nonzero"></path>
                    <path d="M70.4712692,180.361572 C72.7055453,186.664004 76.7200048,192.481994 77.2137868,199.149802 C77.7110709,205.859635 74.5592707,212.227438 71.6771246,218.30691 C68.5661812,224.868491 65.6583537,231.58883 64.094127,238.681547 C63.9773936,239.209182 63.8233056,239.803355 63.3493683,240.064837 C62.9583116,240.279627 62.4773702,240.193244 62.0407876,240.099857 C53.5997999,238.302164 50.4725138,238.707229 42.0315261,236.908368 C37.7497473,235.995513 32.9811904,233.653842 29.3332736,231.237462 C36.7960359,217.430243 41.6463061,202.21522 45.4833309,186.17139 C45.5953949,185.700954 45.6245782,183.694308 45.9666069,183.354614 C46.5409349,182.784956 47.010203,182.22697 47.8144957,182.311018 C50.0184211,182.543318 52.8095152,184.620004 54.9924286,184.231282 C57.3317647,183.812209 59.6279095,183.040602 62.0034329,182.996243 C64.8587303,182.943713 67.9474945,183.898592 70.4292452,182.48962" id="Path" fill="#082034" fill-rule="nonzero"></path>
                    <path d="M48.0841497,121.735755 C48.988833,126.832332 48.340963,132.193894 46.2479343,136.928598 C50.9522878,134.368636 55.9438053,132.336309 61.0975822,130.882979 C61.4174315,130.793094 61.7477869,130.699708 62.0046002,130.489588 C62.7446896,129.886076 62.5205616,128.728082 62.2707522,127.807055 C60.9645062,122.992973 60.8302628,117.86371 61.8808629,112.986591" id="Path" fill="#F0C9C6" fill-rule="nonzero"></path>
                    <path d="M61.7863089,126.884862 C57.9726307,130.05534 53.0149659,131.641746 47.9744203,131.271701 C45.5370282,139.606461 38.3742706,146.862606 38.6462593,155.51955 C38.7548213,158.974857 40.0377207,162.281912 41.1303447,165.576127 C42.9817355,171.153646 44.3265035,176.882918 45.1494736,182.678728 C45.2101749,183.108307 45.2790476,183.561232 45.5697136,183.892755 C45.9549336,184.33284 46.6109749,184.428561 47.206315,184.486928 C53.9523346,185.149973 60.4905688,185.487332 67.0988431,184.051512 C68.1482758,183.823882 70.6311939,183.82505 71.2171953,182.96239 C71.5580566,182.461604 70.6988992,178.947931 70.6708832,178.349089 C70.2167906,168.439596 72.9681953,161.778791 71.9502806,152.589543 C70.9311986,143.399127 67.9253151,134.251903 62.1458476,126.840503" id="Path" fill="#FF9100" fill-rule="nonzero"></path>
                    <path d="M49.0226857,172.24627 L33.6535744,173.195312 C31.5558764,173.326053 29.4476723,173.306209 27.3581455,173.079746 C25.2032481,172.846279 22.7261667,172.361836 21.2004619,170.697219 C18.8704645,168.152432 19.5054939,163.73641 16.9677111,161.399408 C16.0420157,161.069053 16.4774311,164.815026 16.7505871,167.190549 C16.7891091,167.522072 16.4575864,167.78122 16.1482431,167.656315 C10.7364855,165.50025 10.0664362,160.981503 4.90915729,157.662774 C4.00914326,157.354598 5.52550932,160.653482 6.94498671,163.295158 C10.8800675,170.612003 14.5174783,175.621031 22.4740227,178.008227 C25.6900261,178.973612 29.8819203,179.900475 33.8310091,180.40593 C37.0843672,180.822668 41.3217874,181.203219 44.6019942,181.169366 C48.9666537,181.12384 53.6103059,180.853019 57.1741747,178.331579" id="Path" fill="#FAD3D0" fill-rule="nonzero"></path>
                    <path d="M59.2613668,133.218813 C56.7807834,132.577947 54.3387219,134.57292 53.1141892,136.823538 C51.4133845,139.951992 51.1448978,143.645435 51.1250531,147.206969 C51.0912005,153.06348 51.6246718,158.981861 50.5285458,164.73448 C49.9962418,167.529076 48.8896097,170.49527 46.4148629,171.900739 C46.2164163,172.013971 46.0004596,172.1237 45.8872283,172.323314 C45.7658256,172.539271 45.7950089,172.805423 45.8300289,173.050563 C46.670509,178.816022 49.2736624,184.311828 53.2017392,188.613451 C53.4725606,188.909954 53.7819039,189.21813 54.1799646,189.27066 C54.5640173,189.319688 54.9317273,189.116572 55.2609153,188.912289 C59.9605995,185.998624 63.4999543,181.265088 64.9649577,175.931541 C65.757577,173.043559 65.9571911,170.029504 66.1544704,167.04113 C66.3050564,164.746153 66.4544751,162.451176 66.6050611,160.156198 C66.9412531,155.045613 67.2751104,149.884832 66.4836584,144.823274 C65.7447364,140.094407 63.579333,135.280324 59.2613668,133.218813 Z" id="Path" fill="#FE7073" fill-rule="nonzero"></path>
                    <path d="M44.1128815,94.2100335 C44.1128815,94.2100335 33.4574624,97.4575549 34.1135038,108.426987 C34.6703218,117.743474 37.8034446,121.588671 36.0804605,125.220245 C36.0804605,125.220245 42.5778381,123.897656 42.2077934,117.453976 C41.8377488,111.010295 44.6288429,107.871336 44.6288429,107.871336" id="Path" fill="#080808" fill-rule="nonzero"></path>
                    <path d="M48.0071057,94.7540108 C46.0751689,95.6925469 40.5688574,98.9645823 38.8843953,100.010513 C37.6610299,100.770447 36.8672432,103.986451 37.0575186,106.125005 C37.5221173,111.334814 38.1326326,115.213863 40.5315027,119.862184 C41.2634207,121.279327 43.4953622,123.302316 44.9498596,123.954855 C46.2794523,124.551363 47.8238343,124.35992 49.2363077,124.000381 C53.9628406,122.798028 58.2457867,119.725606 60.6399875,115.476513 C63.0353556,111.226252 63.4170736,105.82967 61.3754075,101.400807" id="Path" fill="#FAD3D0" fill-rule="nonzero"></path>
                    <path d="M37.2151086,102.021828 C37.2151086,102.021828 37.9563653,108.64878 42.4447621,111.437539 C46.9343263,114.226299 48.2195603,117.327904 48.295437,118.789405 C48.295437,118.789405 49.9857358,117.825188 49.9600544,114.877671 C49.9343731,111.931322 50.5647331,109.107542 52.7838339,109.938683 C55.0029346,110.770992 54.5745233,114.578834 54.0959166,116.772253 C53.6161426,118.96684 50.2437164,125.648656 53.4562179,130.389197 C56.667552,135.130905 66.3867697,138.546523 71.0479319,146.874279 C71.0479319,146.874279 77.3713768,141.008429 73.387268,132.280277 C70.0463599,124.957595 63.929533,124.085597 64.9883043,115.764844 C66.0470757,107.442925 66.6599257,100.533478 58.5376201,95.1882588 C50.4141471,89.841872 39.384014,94.0034155 37.2151086,102.021828 Z" id="Path" fill="#080808" fill-rule="nonzero"></path>
                </g>
            </g>
        </g>
    </g>
</svg>