<?xml version="1.0" encoding="UTF-8"?>
<svg width="22px" height="20px" viewBox="0 0 22 20" version="1.1" xmlns="http://www.w3.org/2000/svg" xmlns:xlink="http://www.w3.org/1999/xlink">
    <!-- Generator: Sketch 63.1 (92452) - https://sketch.com -->
    <title>Group 3</title>
    <desc>Created with Sketch.</desc>
    <g id="Design" stroke="none" stroke-width="1" fill="none" fill-rule="evenodd">
        <g id="web" transform="translate(-917.000000, -324.000000)">
            <g id="Group-7" transform="translate(308.000000, 133.000000)">
                <g id="Group-5" transform="translate(374.000000, 0.000000)">
                    <g id="Group-6-Copy" transform="translate(232.000000, 187.000000)">
                        <g id="Group-3">
                            <rect id="Rectangle" fill-opacity="0" fill="#FFFFFF" x="0" y="0" width="28" height="28"></rect>
                            <g id="iconfinder_.svg_2093658" transform="translate(14.000000, 14.000000) scale(-1, 1) translate(-14.000000, -14.000000) translate(4.000000, 5.000000)">
                                <path d="M9.82222222,0.0222222222 C4.71111111,0.0222222222 0.533333333,3.62222222 0.533333333,8.11111111 C0.533333333,10.6888889 1.91111111,13 4.08888889,14.4666667 L2,17.6666667 C1.91111111,17.7555556 2.04444444,17.8888889 2.13333333,17.8444444 C4.22222222,17.5777778 6.08888889,16.9555556 7.68888889,15.9333333 C8.35555556,16.0666667 9.06666667,16.1555556 9.82222222,16.1555556 C14.9333333,16.1555556 19.1111111,12.5555556 19.1111111,8.06666667 C19.1111111,3.57777778 14.9777778,0.0222222222 9.82222222,0.0222222222 Z" id="cmt" stroke="#080808" stroke-width="2" stroke-linecap="round"></path>
                                <rect id="Rectangle" fill="#080808" x="5" y="6" width="9" height="1.5" rx="0.75"></rect>
                                <rect id="Rectangle-Copy-4" fill="#080808" x="5" y="9" width="9" height="1.5" rx="0.75"></rect>
                            </g>
                        </g>
                    </g>
                </g>
            </g>
        </g>
    </g>
</svg>