<?xml version="1.0" encoding="UTF-8"?>
<svg width="386px" height="414px" viewBox="0 0 386 414" version="1.1" xmlns="http://www.w3.org/2000/svg" xmlns:xlink="http://www.w3.org/1999/xlink">
    <!-- Generator: Sketch 63.1 (92452) - https://sketch.com -->
    <title>Group 8</title>
    <desc>Created with Sketch.</desc>
    <g id="Design" stroke="none" stroke-width="1" fill="none" fill-rule="evenodd">
        <g id="Cookie-Disable" transform="translate(-489.000000, -165.000000)">
            <g id="Group-8" transform="translate(489.000000, 165.000000)">
                <path d="M192.548034,398.389422 C237.853454,464.793245 389.733471,303.874675 385.096068,206.179993 C380.458665,108.485311 342.622237,-47.5926911 192.548034,13.970564 C42.473831,75.533819 0,100.025657 0,206.179993 C0,312.334329 147.242614,331.985598 192.548034,398.389422 Z" id="Oval" fill="#FFE7C7"></path>
                <g id="Group-9" transform="translate(65.000000, 87.000000)" fill-rule="nonzero">
                    <path d="M164.572122,67.9650513 C164.909792,67.9857854 165.254867,68.0005955 165.599942,68.0168866 C164.459565,68.1353673 163.335479,68.1412913 162.257305,67.8080644 C163.030391,67.8717478 163.803478,67.917659 164.572122,67.9650513 Z" id="Path" fill="#C18547"></path>
                    <path d="M183.882995,82.5633545 C183.634185,82.4478358 183.3913,82.3189881 183.160262,82.1782922 C181.40971,81.1149279 180.315245,79.428059 179.434044,77.569393 C181.240875,78.93044 182.748542,80.6484102 183.882995,82.5633545 Z" id="Path" fill="#C18547"></path>
                    <path d="M140.085123,37.3392715 C140.062908,36.9571712 140.040693,36.5572989 140.194718,36.2062998 C140.52054,35.4583904 141.465423,35.2332771 142.279978,35.1992139 C144.29415,35.1147964 146.561574,35.8034654 147.462028,37.6073341 C147.712318,38.106434 147.835242,38.7166096 147.589394,39.2171906 C147.469433,39.464519 147.270977,39.6629742 147.075484,39.8555054 C146.705232,40.2227955 146.33498,40.5900857 145.964728,40.9558948 C145.154616,41.7600826 144.292669,42.5924095 143.195241,42.9034213 C139.660074,43.9031022 140.211009,39.4186078 140.085123,37.3392715 Z" id="Path" fill="#C18547"></path>
                    <path d="M180.072359,23.019398 C180.048663,22.6372977 180.027929,22.2374253 180.180473,21.8864263 C180.506295,21.1385168 181.451178,20.9134035 182.267214,20.8793403 C184.279905,20.7949228 186.547329,21.4835919 187.449264,23.2874605 C187.699554,23.7865605 187.822478,24.3967361 187.57663,24.898798 C187.456669,25.1446455 187.256733,25.3431007 187.061239,25.5356318 C186.690987,25.902922 186.320735,26.2702121 185.950483,26.6360213 C185.140371,27.4402091 184.279905,28.272536 183.180996,28.5835478 C179.645829,29.5832287 180.198245,25.0987342 180.072359,23.019398 Z" id="Path" fill="#C18547"></path>
                    <path d="M140.011073,6.91046584 C140.1103,7.21407264 140.31616,7.46880614 140.514616,7.72057763 C140.88783,8.19598143 141.243272,8.6817523 141.582423,9.18085225 C142.065232,9.89173644 142.51842,10.827734 142.075599,11.5637953 C141.888992,11.8718451 141.561689,12.0969585 141.462461,12.4435145 C141.391373,12.692324 141.453575,12.9589056 141.535031,13.203272 C142.007472,14.6265214 143.187836,15.7935563 144.615529,16.252669 C144.868781,16.3341245 145.138325,16.3948458 145.401944,16.3518966 C146.14393,16.2304539 146.517144,15.236697 146.160221,14.5732051 C146.068398,14.4058511 145.942513,14.2547882 145.881791,14.0726241 C145.711475,13.5735242 146.083208,13.0522091 146.500853,12.7293492 C146.918497,12.4064893 147.420559,12.1561988 147.687141,11.7000481 C148.11219,10.9758348 147.770077,10.0576094 147.383534,9.31118102 C146.996991,8.56623362 146.554169,7.7324257 146.80446,6.93119997 C146.89332,6.64684629 147.066598,6.38915077 147.118434,6.09591103 C147.208775,5.57459596 146.896282,5.06364794 146.515663,4.69783878 C144.962085,3.19905793 138.98029,3.77072731 140.011073,6.91046584 Z" id="Path" fill="#C18547"></path>
                    <path d="M167.854037,35.5472509 C167.457127,35.9189841 167.143153,36.4432612 167.220165,36.9808674 C167.266076,37.2978033 167.440836,37.5806759 167.621519,37.8442955 C167.956227,38.3359904 168.322036,38.8054702 168.718946,39.2482918 C169.225451,39.8169991 169.906715,40.3842255 170.656106,40.2538967 C171.506205,40.1072768 171.943102,39.1683173 172.191912,38.3419144 C172.67472,36.7335389 173.558883,34.8674679 171.398091,34.3446718 C170.235499,34.0647612 168.702655,34.7549112 167.854037,35.5472509 Z" id="Path" fill="#C18547"></path>
                    <path d="M188.20754,53.7947596 C187.675858,53.682203 187.067163,53.7281143 186.671734,54.0998474 C186.437735,54.3190367 186.308887,54.6241245 186.194849,54.9232883 C185.984546,55.4786666 185.811268,56.050336 185.675015,56.6279294 C185.501737,57.3699148 185.429168,58.252596 185.966774,58.7916831 C186.573987,59.4033398 187.594403,59.2226567 188.411919,58.9501511 C190.006966,58.422912 192.043353,58.0733939 191.228798,56.0059057 C190.790419,54.8921871 189.344955,54.0332021 188.20754,53.7947596 Z" id="Path" fill="#C18547"></path>
                    <path d="M190.606774,67.3504327 C190.46904,67.5992421 190.343155,67.8717478 190.366851,68.1561014 C190.408319,68.6181762 190.82004,68.9425171 191.123646,69.2935162 C191.800467,70.0725268 192.012252,71.1610682 192.632794,71.98599 C193.188173,72.7250134 194.087145,73.2167083 195.012775,73.2048602 C195.936925,73.1915312 196.853669,72.6435579 197.235769,71.800864 C197.53049,71.1507011 197.502351,70.3968677 197.745236,69.7259707 C197.893337,69.3172123 198.137704,68.9484411 198.284324,68.5396827 C198.580525,67.7103178 198.435387,66.7491431 197.949616,66.0130818 C197.466807,65.2770204 196.665581,64.7705154 195.803634,64.5942754 C193.402919,64.1025805 191.828607,65.1259575 190.606774,67.3504327 Z" id="Path" fill="#C18547"></path>
                    <path d="M133.182141,27.1099441 C133.248787,27.3380194 133.336166,27.5764619 133.51833,27.7304868 C133.817494,27.9807772 134.254392,27.9274609 134.642416,27.9556001 C135.507325,28.0178025 136.278931,28.5376365 137.136435,28.6590792 C137.905078,28.7686739 138.73,28.5257885 139.272049,27.9689292 C139.814098,27.4135509 140.033288,26.5441988 139.759301,25.8185045 C139.547517,25.2572022 139.083961,24.8262286 138.829228,24.2826984 C138.675203,23.9524335 138.601152,23.5895863 138.445646,23.2593214 C138.12871,22.5913864 137.471143,22.1070966 136.74841,21.9575147 C136.022716,21.8094138 135.248148,21.9826918 134.630568,22.3899692 C132.914079,23.5229409 132.588257,25.064671 133.182141,27.1099441 Z" id="Path" fill="#C18547"></path>
                    <path d="M208.143399,71.2469667 C207.962716,70.9122587 207.799805,70.6071709 207.549514,70.3109692 C207.045971,69.7170847 206.237341,69.3068452 205.446482,69.3423894 C204.233536,69.3957058 203.284209,70.3746525 203.281224,71.5979658 C203.279766,71.9311927 203.349374,72.2570146 203.469335,72.5650645 C203.533019,72.7176084 203.598183,72.8716333 203.663347,73.0241772 C203.6826,73.1026706 203.735917,73.2996448 203.74036,73.329265 C204.002498,74.7584384 206.025556,74.8369319 206.702377,73.7572765 C206.800124,73.7750486 206.900832,73.7839347 207.008946,73.7809726 L207.048933,73.7809726 C207.670957,73.7587575 208.30631,73.3603662 208.418866,72.7368615 C208.528461,72.144458 208.423309,71.7682818 208.143399,71.2469667 Z" id="Path" fill="#C18547"></path>
                    <path d="M188.712564,40.307213 C188.663691,40.1754032 188.614818,40.0954288 188.531881,39.9932392 C188.527438,39.9813911 188.525957,39.969543 188.521514,39.957695 C188.302325,39.4408229 187.7662,39.2038615 187.22415,39.3223422 C187.107151,39.3475194 186.990151,39.3741775 186.87167,39.4008357 L186.870189,39.4008357 C186.818354,39.4112027 186.768,39.4230508 186.716164,39.4334179 C186.717645,39.4363799 186.720607,39.4408229 186.722088,39.4437849 C186.628785,39.4734051 186.535481,39.5074683 186.437735,39.5518986 C185.882356,39.802189 185.706116,40.6522881 186.021571,41.1410209 C186.382937,41.7008422 187.027176,41.8459811 187.612175,41.5586654 L187.612175,41.5571844 L187.624023,41.5571844 C188.052034,41.5408933 188.48597,41.4090835 188.687387,41.0003251 C188.796982,40.7781738 188.796982,40.5382504 188.712564,40.307213 Z" id="Path" fill="#C18547"></path>
                    <path d="M166.168649,53.9428605 C166.036839,53.6007475 165.725827,53.4718997 165.453322,53.5459502 C165.395562,53.520773 165.343727,53.4926339 165.27412,53.4822668 C164.943855,53.4378365 164.518805,53.7147852 164.566198,54.0954044 C164.623957,54.5559981 164.905349,54.9395794 165.416297,54.9247693 C165.90651,54.9114402 166.364142,54.4508465 166.168649,53.9428605 Z" id="Path" fill="#C18547"></path>
                    <path d="M159.120528,37.0267786 C159.073136,36.8579437 158.9902,36.7172478 158.910225,36.570628 C158.907263,36.4269701 158.905782,36.2818313 158.90282,36.1352114 C158.90282,36.0952242 158.886529,36.064123 158.880605,36.0270977 C158.942807,35.8345666 158.8732,35.5961242 158.639201,35.562061 L158.612542,35.562061 C158.494062,35.4791245 158.283758,35.4791245 158.165278,35.562061 C158.055683,35.6390735 157.980152,35.732377 157.91943,35.8330856 C157.700241,35.9915535 157.525482,36.2033378 157.524001,36.4714004 C157.524001,36.7187288 157.734304,36.9586522 157.842418,37.1808036 L157.842418,37.7110047 C157.842418,37.9227889 157.953494,38.0723708 158.107518,38.1597503 C158.117885,38.2130667 158.129734,38.269345 158.141582,38.3211803 C158.190455,38.5240785 158.50591,38.43818 158.455555,38.2338008 C158.480733,38.2323198 158.504429,38.2397248 158.528125,38.2352818 C159.101275,38.1360542 159.253819,37.5184736 159.120528,37.0267786 Z" id="Path" fill="#C18547"></path>
                    <path d="M163.837541,23.194157 C163.581327,23.0667902 163.326593,23.1408407 163.162201,23.370397 C163.132581,23.4133463 163.094075,23.4459285 163.061493,23.4859157 C162.978556,23.5170169 162.911911,23.5807003 162.885253,23.6843709 C162.759367,23.8117376 162.630519,23.9361424 162.513519,24.0738762 C162.22028,24.4189512 162.488342,24.9121271 162.88081,24.88695 C162.931164,24.9876586 163.018543,25.0720761 163.126657,25.0957722 C163.667225,25.2142529 164.133743,24.9447093 164.345527,24.4456094 C164.546944,23.9702056 164.293692,23.4207513 163.837541,23.194157 Z" id="Path" fill="#C18547"></path>
                    <path d="M211.364593,36.7883362 C211.155771,35.6923898 209.935419,35.7160859 209.184548,35.1695937 C208.42479,34.6156964 208.32112,33.2487253 207.185186,33.4338514 C206.367669,33.5686232 205.804886,34.4898107 206.003341,35.2836314 C206.209201,36.0996672 207.057819,36.6313493 207.86645,36.6802226 C207.913842,36.7172478 207.958273,36.754273 208.007146,36.7912983 C208.915004,37.4696003 209.945786,38.0738518 211.062467,37.5288406 C211.337935,37.3955498 211.416428,37.0608419 211.364593,36.7883362 Z" id="Path" fill="#C18547"></path>
                    <path d="M197.954059,37.7894982 C197.292048,37.6088151 196.628556,38.0501557 196.447873,38.6869895 C196.434544,38.7329007 196.425658,38.778812 196.422696,38.8217612 C196.188696,39.0261405 196.028747,39.2986461 195.907305,39.5933668 C195.815482,39.8184801 195.970988,40.0880237 196.156114,40.2050234 C197.078783,40.7915029 198.5435,40.3605293 198.808601,39.2349627 C198.950778,38.6277491 198.559791,37.9524091 197.954059,37.7894982 Z" id="Path" fill="#C18547"></path>
                    <path d="M174.629652,4.60897826 C174.059464,4.17356168 173.204922,4.13061243 172.539949,4.43273821 C172.24819,4.39423199 171.943102,4.51863672 171.712065,4.77485123 C171.318116,5.2087868 171.372914,5.89153183 171.720951,6.32842941 C172.679163,7.53397052 174.283096,6.56539081 174.871056,5.52720368 C175.065069,5.18360965 174.922892,4.83112957 174.629652,4.60897826 Z" id="Path" fill="#C18547"></path>
                    <path d="M188.653324,133.45822 C188.009085,134.854811 187.336707,136.223263 186.625823,137.568019 C183.063997,144.325862 178.887552,150.791946 174.281615,156.99293 C170.938978,161.502602 167.371228,165.873058 163.662782,170.117629 C159.287882,175.121958 154.647882,180.019654 148.980062,183.77253 C140.439084,189.438869 129.9802,192.19947 119.531684,193.434631 C92.6898812,196.601028 64.6188415,189.890577 42.8450509,175.104186 C21.0786654,160.319276 5.85537652,137.625779 1.25980639,113.104717 C0.227543295,107.592402 -0.292290774,101.971974 0.169783954,96.3989382 C0.594833463,91.282053 1.82999476,86.2584713 3.06071302,81.2556238 C6.12047709,68.8373655 9.20838032,56.3494997 14.5148346,44.5902903 C19.8153649,32.8251568 27.5077244,21.7146292 38.3872146,13.8415868 C43.201974,10.3538112 48.5469346,7.57691978 54.214755,5.46055828 C62.0152281,2.532604 70.4214337,0.851659072 78.8542975,0.254812548 C79.8362063,0.18224312 80.8136721,0.130407814 81.7955809,0.0889395692 C96.2235681,-0.497539893 110.613049,1.87355511 124.515278,5.51683662 C124.222038,8.10119687 123.894735,10.5922536 123.047598,12.4346285 C121.671741,15.4292281 119.999682,19.124345 120.563947,22.0315651 C120.790541,23.192676 121.371097,24.2249391 122.472967,25.0409749 C123.714052,25.9592003 125.464605,26.3531486 126.310261,27.598677 C127.050765,28.6886994 126.864158,30.0897337 126.55907,31.3456291 C125.583085,35.3680489 123.709609,39.2349627 123.483015,43.350686 C123.250497,47.4604853 125.306137,52.1360299 129.590695,53.346014 C132.423865,54.1398347 135.359224,53.2467864 138.306432,52.6232817 C139.085442,52.4574088 139.870377,52.3122699 140.649387,52.2189663 C143.510696,51.8872204 146.440132,52.3952064 149.031897,53.5474312 C151.853218,54.8092506 154.282073,56.8278656 155.770487,59.3648335 C157.595089,62.4690279 158.571074,66.6202954 162.195103,67.7888113 C162.217318,67.7932543 162.23509,67.8036214 162.257305,67.8080644 C163.030391,67.8717478 163.803478,67.917659 164.572122,67.9650513 C164.909792,67.9857854 165.254867,68.0005955 165.599942,68.0168866 C167.495633,67.8139884 169.437235,67.2897113 171.29442,67.4763184 C171.611356,67.5074196 171.920887,67.5548119 172.231899,67.6333054 C176.612723,68.7114797 177.526505,73.5440112 179.429601,77.56495 L179.434044,77.569393 C181.240875,78.93044 182.748542,80.6484102 183.882995,82.5633545 C185.214421,83.1809351 186.745784,83.4341876 188.246046,83.5437823 C191.136975,83.7570475 194.038272,83.491947 196.939568,83.1083657 C198.525728,100.525029 195.596293,118.356374 188.653324,133.45822 Z" id="Path" fill="#C18547"></path>
                    <path d="M54.216236,5.45759627 C48.5484156,7.57543877 43.203455,10.3508492 38.3872146,13.8386247 C27.5092054,21.7116672 19.816846,32.8236758 14.5163157,44.5873283 C9.20986133,56.3480187 6.1219581,68.8344034 3.06219403,81.2526618 C1.83147576,86.2555093 0.594833463,91.279091 0.171264963,96.3959762 C-0.290809765,101.970493 0.229024304,107.590921 1.2612874,113.101755 C5.85685753,137.622817 21.0801464,160.317795 42.8465319,175.102705 C64.6203225,189.889096 92.6913622,196.598066 119.533165,193.431669 C129.981681,192.196508 140.440565,189.435907 148.981543,183.769568 C154.649363,180.018173 159.289363,175.117515 163.664263,170.114667 C167.372709,165.870096 170.940459,161.501121 174.281615,156.989968 C171.161129,159.615796 168.111732,162.383802 165.718422,163.89295 C154.079175,171.247639 141.891954,178.103229 128.519926,182.27523 C115.140493,186.453156 100.397051,187.802355 86.8665548,184.086504 C80.3915846,182.306331 74.3446259,179.419845 68.3450595,176.555574 C58.9910082,172.082928 49.5303244,167.546598 41.6617249,161.090881 C31.8678141,153.056409 25.0492498,142.476082 18.3935965,132.074958 C15.3397565,127.30611 12.2237141,122.369908 11.4106403,116.884251 C10.8582241,113.143223 11.4165644,109.339993 12.0208159,105.597483 C14.7977073,88.4562883 18.5579885,71.4498649 23.2868494,54.6715168 C25.1558825,48.0395597 27.1878265,41.4076025 30.3038689,35.1844038 C35.9657653,23.875421 44.8340457,14.5287748 54.216236,5.45759627 Z" id="Path" fill="#9C6735"></path>
                    <path d="M188.653324,133.45822 C184.915258,136.073681 180.913572,138.264093 176.84376,139.795456 C169.934854,142.38426 162.421697,143.51575 155.714208,146.514793 C144.899882,151.357692 136.431474,160.916122 124.57748,162.795522 C113.327738,164.580138 102.439362,158.913798 92.6839572,153.46961 C81.8740743,147.428575 71.0701155,141.393465 60.2602327,135.358354 C53.5201619,131.595111 46.5372057,127.614159 42.34447,121.475378 C36.6751685,113.171362 37.2009266,102.605846 38.4716321,92.8741374 C39.3691234,86.0244719 40.5317153,79.2044267 41.9712557,72.4376977 C43.6758968,64.4091493 45.9225871,56.1317914 51.5904075,49.8271372 C56.3829518,44.4925437 63.2859336,40.9677429 67.8252254,35.4465423 C75.890799,25.6215303 74.7681944,11.9577436 78.8542975,0.254812548 C79.8362063,0.18224312 80.8136721,0.130407814 81.7955809,0.0889395692 C96.2235681,-0.497539893 110.613049,1.87355511 124.515278,5.51683662 C124.222038,8.10119687 123.894735,10.5922536 123.047598,12.4346285 C121.671741,15.4292281 119.999682,19.124345 120.563947,22.0315651 C120.790541,23.192676 121.371097,24.2249391 122.472967,25.0409749 C123.714052,25.9592003 125.464605,26.3531486 126.310261,27.598677 C127.050765,28.6886994 126.864158,30.0897337 126.55907,31.3456291 C125.583085,35.3680489 123.709609,39.2349627 123.483015,43.350686 C123.250497,47.4604853 125.306137,52.1360299 129.590695,53.346014 C132.423865,54.1398347 135.359224,53.2467864 138.306432,52.6232817 C139.085442,52.4574088 139.870377,52.3122699 140.649387,52.2189663 C143.510696,51.8872204 146.440132,52.3952064 149.031897,53.5474312 C151.853218,54.8092506 154.282073,56.8278656 155.770487,59.3648335 C157.595089,62.4690279 158.571074,66.6202954 162.195103,67.7888113 C162.217318,67.7932543 162.23509,67.8036214 162.257305,67.8080644 C163.030391,67.8717478 163.803478,67.917659 164.572122,67.9650513 C164.909792,67.9857854 165.254867,68.0005955 165.599942,68.0168866 C167.495633,67.8139884 169.437235,67.2897113 171.29442,67.4763184 C171.611356,67.5074196 171.920887,67.5548119 172.231899,67.6333054 C176.612723,68.7114797 177.526505,73.5440112 179.429601,77.56495 L179.434044,77.569393 C181.240875,78.93044 182.748542,80.6484102 183.882995,82.5633545 C185.214421,83.1809351 186.745784,83.4341876 188.246046,83.5437823 C191.136975,83.7570475 194.038272,83.491947 196.939568,83.1083657 C198.525728,100.525029 195.596293,118.356374 188.653324,133.45822 Z" id="Path" fill="#E1AA66"></path>
                    <path d="M103.099892,127.572691 C98.2555121,125.761418 93.9946499,122.849754 90.0033313,119.747041 C85.6062164,116.327392 81.2313165,112.267947 80.1931294,107.057758 C79.7295737,104.744422 80.1027879,102.081569 82.0103271,100.508737 C84.4258524,98.5212237 88.2083487,99.0410578 91.2118345,100.156257 C94.2138392,101.265533 97.1773377,102.885756 100.411861,102.740618 C101.992097,102.672491 103.517536,102.179315 105.097772,102.066759 C109.201648,101.764633 113.111511,104.126842 115.466315,107.229555 C124.487139,119.102802 121.150426,134.351268 103.099892,127.572691 Z M102.839234,31.7810457 C104.515736,29.5758237 106.920894,27.6149681 109.828114,27.3128423 C114.365925,26.8418815 118.549775,31.4804009 117.203538,35.4924536 C113.940876,39.0735327 109.597077,41.1647171 104.736406,42.5450172 C103.49384,42.8974973 101.953591,43.1003955 101.044252,42.2340054 C100.642898,41.8548672 100.457772,41.326147 100.333367,40.806313 C99.5884199,37.6828655 100.85172,34.4039122 102.839234,31.7810457 Z M186.230393,89.5477917 C185.983065,87.1189374 185.169991,84.7167412 183.882995,82.5633545 C182.748542,80.6484102 181.240875,78.93044 179.434044,77.569393 L179.429601,77.56495 C177.933782,76.4290163 176.223217,75.540411 174.354184,74.9865138 C167.738518,73.0197342 160.648929,75.2975256 153.772606,76.2261181 C146.897763,77.1606346 138.373077,75.8469798 135.682084,69.9570081 C134.010025,66.2885494 135.230376,62.1106237 136.465538,58.2955452 C137.081637,56.4072591 137.690332,54.5130489 138.306432,52.6232817 C135.359224,53.2467864 132.423865,54.1398347 129.590695,53.346014 C125.306137,52.1360299 123.250497,47.4604853 123.483015,43.350686 C123.709609,39.2349627 125.583085,35.3680489 126.55907,31.3456291 C126.864158,30.0897337 127.050765,28.6886994 126.310261,27.598677 C125.464605,26.3531486 123.714052,25.9592003 122.472967,25.0409749 C121.371097,24.2249391 120.790541,23.192676 120.563947,22.0315651 C114.626583,20.8630492 108.4567,19.8766974 102.676323,21.4702628 C94.9765587,23.5925483 89.5116364,29.8986836 85.7246971,36.4210461 C83.4602347,40.3249851 81.5971257,44.4495945 80.5426475,48.772659 C79.0290565,54.9647566 79.1712334,61.5197013 76.6816577,67.4407742 C73.6781719,74.5866414 67.1528474,80.0515637 63.7598564,87.0419249 C57.3929998,100.171067 63.7095021,116.259265 75.1458516,126.057619 C86.5881252,135.855973 102.077996,140.531518 117.301284,143.795661 C120.621706,144.502102 124.069494,145.161151 127.406207,144.537646 C133.778988,143.33951 137.996901,137.93679 143.267811,134.428281 C150.352957,129.711268 159.424135,128.440562 167.354937,125.050533 C175.325726,121.651618 179.140805,116.5451 181.054268,109.036386 C182.674491,102.668048 186.948683,96.5174189 186.230393,89.5477917 Z" id="Shape" fill="#F8CF87"></path>
                    <path d="M69.1477662,54.7766684 C70.9501538,55.724514 71.9838979,57.5269017 72.1408849,59.3959347 C72.3423021,61.7655487 71.0790016,62.8925964 69.9371439,64.8075407 C69.4958033,65.546564 69.3713985,66.4040681 69.1847914,67.230471 C68.0384907,72.32366 64.1700958,76.88961 59.3968046,79.596894 C58.9125148,79.8708806 58.3734276,80.1389432 57.8062012,80.0841459 C57.0405197,80.0100954 56.4925465,79.3851097 56.0852691,78.7838202 C52.7337463,73.8254029 53.0551252,67.3237745 55.4913846,61.9314217 C56.6317613,59.4092638 58.269757,56.9818905 60.7237885,55.4431224 C63.17782,53.9043543 66.567849,53.4230265 69.1477662,54.7766684 Z" id="Path" fill="#F8CF87"></path>
                    <path d="M162.195103,67.7888113 C162.217318,67.7932543 162.23509,67.8036214 162.257305,67.8080644 C159.293806,67.569622 156.336232,67.0779271 153.92515,65.5258299 C149.91754,62.9503557 148.584632,58.1355963 149.031897,53.5474312 C151.853218,54.8092506 154.282073,56.8278656 155.770487,59.3648335 C157.595089,62.4690279 158.571074,66.6202954 162.195103,67.7888113 Z" id="Path" fill="#F8CF87"></path>
                    <path d="M108.945433,162.52746 C108.609244,163.715229 108.39746,164.966681 108.58851,166.187032 C108.778079,167.405902 109.413432,168.599595 110.46791,169.243834 C111.868944,170.101338 113.711319,169.833276 115.183442,169.103138 C116.654084,168.37152 117.880359,167.240029 119.236963,166.312918 C120.635035,165.357667 122.18417,164.614201 123.459319,163.500482 C124.734467,162.388245 125.73711,160.768021 125.538655,159.085595 C125.390554,157.826738 124.607101,156.742639 123.799951,155.765174 C123.312699,155.175732 122.782498,154.581848 122.076057,154.287127 C121.576957,154.079786 121.026021,154.036836 120.483972,154.02795 C114.573266,153.943533 110.509378,156.995892 108.945433,162.52746 Z" id="Path" fill="#F8CF87"></path>
                    <path d="M109.600039,162.477105 C109.290508,163.568609 109.096496,164.719353 109.271255,165.840476 C109.446014,166.9616 110.031013,168.059027 110.998111,168.64995 C112.286589,169.437846 113.979382,169.191999 115.333024,168.521102 C116.685185,167.848724 117.812233,166.807575 119.059242,165.957476 C120.344757,165.079238 121.768007,164.395012 122.940966,163.371635 C124.112444,162.348258 125.033631,160.858363 124.852948,159.313671 C124.716695,158.157003 123.995444,157.160284 123.253459,156.261312 C122.806194,155.719262 122.318942,155.174251 121.67026,154.903227 C121.211148,154.710695 120.703162,154.672189 120.205543,154.664784 C114.773203,154.586291 111.036618,157.392802 109.600039,162.477105 Z" id="Path" fill="#6E4937"></path>
                    <path d="M111.757869,160.465895 C111.538679,160.94278 111.397984,161.524817 111.664565,161.976524 C111.945957,162.45489 112.594639,162.605953 113.135207,162.481548 C113.677256,162.355663 114.139331,162.019474 114.601406,161.709943 C116.101667,160.704338 117.744106,159.906074 119.463557,159.349215 C120.181847,159.118177 121.031946,158.808647 121.206705,158.074066 C121.351843,157.465372 120.90606,156.837424 120.341795,156.56788 C119.77605,156.299818 119.122925,156.304261 118.496459,156.330919 C117.972181,156.351653 117.447904,156.384235 116.925108,156.428666 C114.463672,156.633045 112.775322,158.257711 111.757869,160.465895 Z" id="Path" fill="#A58169"></path>
                    <path d="M118.386864,122.49135 C118.420927,124.270042 118.619382,126.133151 119.610177,127.612678 C120.589124,129.072953 122.203423,129.960077 123.773293,130.755379 C130.827337,134.334977 139.292783,137.206653 146.459385,133.858092 C151.046069,131.716554 154.317617,127.155047 155.280273,122.184781 C156.242928,117.214516 155.001843,111.933239 152.273825,107.667934 C151.269701,106.099545 150.052312,104.636309 148.519468,103.577388 C142.962723,99.7371319 130.861401,99.9163339 125.143226,103.52259 C119.256216,107.23696 118.262459,116.115608 118.386864,122.49135 Z" id="Path" fill="#FDDAA3"></path>
                    <path d="M119.564266,122.209959 C119.596848,123.876093 119.783455,125.620722 120.712048,127.005465 C121.628792,128.375398 123.140902,129.204763 124.610063,129.94971 C131.218324,133.302714 139.146163,135.993707 145.859576,132.85693 C150.154501,130.850164 153.22019,126.577453 154.122124,121.922643 C155.022577,117.267832 153.859985,112.321263 151.305245,108.326983 C150.364805,106.856341 149.225909,105.486408 147.78933,104.494132 C142.585066,100.896762 131.249425,101.064116 125.894097,104.443778 C120.380302,107.922667 119.448747,116.238531 119.564266,122.209959 Z" id="Path" fill="#6E4937"></path>
                    <path d="M121.747273,121.653099 C121.747273,122.038162 121.769488,122.470616 122.053842,122.732755 C122.201942,122.869007 122.401879,122.935653 122.598853,122.984526 C125.094353,123.603588 127.500992,121.919681 129.673632,120.545305 C133.647178,118.033514 138.253115,116.161519 141.038893,112.376061 C141.810498,111.328987 142.428079,110.116041 142.4888,108.817197 C142.549522,107.519833 141.952675,106.13509 140.801931,105.5338 C139.974047,105.102827 138.995101,105.116156 138.063546,105.139852 C133.978924,105.245003 128.220762,105.333864 125.260225,108.57283 C122.230082,111.888809 121.754678,117.399642 121.747273,121.653099 Z" id="Path" fill="#A58169"></path>
                    <path d="M74.4986508,145.011569 C73.3242109,146.90726 72.1793911,148.909584 71.9305816,151.126654 C71.8698603,151.661298 71.8743033,152.241854 72.1779101,152.687638 C72.4504157,153.086029 72.9124904,153.303737 73.35235,153.502192 C78.5181085,155.81849 83.7904997,157.896345 89.1487893,159.726872 C90.8164051,160.294098 92.5817676,160.846515 94.3101048,160.511807 C96.4694155,160.094162 98.1162972,158.392483 99.5869389,156.758931 C100.971682,155.218681 102.335691,153.659179 103.677485,152.080424 C105.096291,150.412808 106.552123,148.573395 106.728363,146.391869 C106.997907,143.035904 104.189914,140.264936 101.390808,138.395903 C98.0303987,136.150694 89.1413842,130.77167 84.7516743,132.036452 C80.6063309,133.230145 76.6609236,141.522313 74.4986508,145.011569 Z" id="Path" fill="#F8CF87"></path>
                    <path d="M76.0255708,145.137455 C74.9725736,146.837653 73.9447535,148.634117 73.7226022,150.62163 C73.6678049,151.101477 73.6722479,151.622792 73.9447535,152.021184 C74.18912,152.379588 74.6023214,152.575081 74.9977507,152.751321 C79.6318271,154.830657 84.360688,156.695247 89.1665614,158.334724 C90.6623802,158.845672 92.2455786,159.340329 93.7961947,159.039684 C95.7333542,158.664989 97.2099199,157.13955 98.5294987,155.673351 C99.772065,154.29157 100.995378,152.893498 102.199438,151.477653 C103.470144,149.981835 104.776394,148.331991 104.934861,146.374097 C105.176266,143.364687 102.65707,140.881036 100.14676,139.203053 C97.1329074,137.188881 89.1591563,132.365236 85.2226351,133.499688 C81.5038221,134.570458 77.9656923,142.006602 76.0255708,145.137455 Z" id="Path" fill="#6E4937"></path>
                    <path d="M85.040471,139.263774 C84.9205093,139.542204 84.8286868,139.845811 84.865712,140.146455 C84.9071802,140.482644 85.1041544,140.775884 85.2966855,141.054314 C86.3378347,142.573829 87.3789838,144.091863 88.421614,145.609897 C88.7341068,146.066047 89.0584478,146.534046 89.5175605,146.845058 C90.0951539,147.236044 90.8178861,147.33231 91.5124792,147.378221 C93.2378544,147.487816 94.9810017,147.336753 96.6604656,146.930957 C97.060338,146.834691 97.4765015,146.713248 97.7712222,146.427414 C98.0378038,146.168237 98.1740566,145.806871 98.2969803,145.455872 C98.6820426,144.355482 99.0152695,143.155865 98.6775995,142.040666 C98.2777272,140.722568 97.0455279,139.851735 95.8488728,139.167509 C93.9072704,138.058233 91.8457062,137.160742 89.7100916,136.498731 C87.8825268,135.930024 85.7513552,137.603563 85.040471,139.263774 Z" id="Path" fill="#A58169"></path>
                    <path d="M74.1535758,83.9169965 C75.8049005,85.7090171 77.58063,87.5010376 79.8421303,88.410377 C80.3886226,88.6310473 81.0017602,88.7969203 81.5601005,88.6073512 C82.0592004,88.4370352 82.4235286,88.0134667 82.7611986,87.6076703 C86.7140109,82.8447462 90.4461529,77.8966959 93.9398526,72.7872158 C95.026913,71.1980934 96.1258215,69.4993764 96.2783654,67.579989 C96.4679345,65.1837169 95.1587228,62.9503557 93.8672831,60.9243357 C92.651375,59.0138345 91.4073276,57.1196243 90.1366221,55.2446672 C88.7948282,53.2630775 87.2827183,51.1911463 85.036028,50.3677054 C81.5808346,49.1014429 77.8398065,51.2503866 75.0510671,53.6511018 C71.7025063,56.5331448 63.4355155,64.3247318 63.4827048,69.3186933 C63.528819,74.0357062 71.1086218,80.617309 74.1535758,83.9169965 Z" id="Path" fill="#F8CF87"></path>
                    <path d="M74.7326502,82.3441652 C76.2151399,83.9525407 77.8072243,85.5594352 79.8347253,86.375471 C80.3249392,86.5724452 80.8758744,86.720546 81.3749744,86.55023 C81.82372,86.3991671 82.149542,86.0200289 82.4531488,85.6542197 C85.9986837,81.3815095 89.3457634,76.9444073 92.481059,72.3621663 C93.4555627,70.9359548 94.4404335,69.4119969 94.5781673,67.6910647 C94.7484833,65.54064 93.5740434,63.5383162 92.4158946,61.7196374 C91.3243911,60.0075913 90.2077105,58.3088743 89.0688148,56.6264484 C87.8647547,54.8492379 86.5096317,52.9905719 84.4939788,52.2515485 C81.3942275,51.1156148 78.0397427,53.0424072 75.5383189,55.1972749 C72.5333522,57.7831162 65.1194224,64.7705154 65.1621859,69.2505669 C65.2038399,73.4803279 72.00167,79.3851097 74.7326502,82.3441652 Z" id="Path" fill="#6E4937"></path>
                    <path d="M71.1811912,71.128486 C71.4403677,71.3373082 71.7321265,71.5224343 72.0609104,71.5713076 C72.4267196,71.6261049 72.7940097,71.5031812 73.1420468,71.3847005 C75.048105,70.7300946 76.9526823,70.0769698 78.8557785,69.4238449 C79.4289289,69.2283518 80.0168894,69.0224916 80.4789641,68.6315052 C81.0595195,68.1368483 81.3734934,67.403749 81.6237839,66.6839787 C82.2428455,64.8993632 82.5938446,63.0199631 82.659009,61.130196 C82.6738191,60.6814503 82.667895,60.2090085 82.4531488,59.8135792 C82.2576556,59.4566561 81.9170236,59.2078466 81.5837966,58.9753282 C80.5367234,58.2481529 79.3711696,57.5461548 78.097502,57.575775 C76.5913161,57.6113192 75.3132056,58.6554303 74.2439173,59.7143516 C72.506694,61.4338027 70.9575589,63.344304 69.6350181,65.3999442 C68.5020464,67.1593826 69.6409421,69.8933247 71.1811912,71.128486 Z" id="Path" fill="#A58169"></path>
                    <path d="M46.8304454,127.389046 C47.1666344,128.576815 47.3769377,129.826787 47.1873685,131.047138 C46.9977994,132.267489 46.3609657,133.461182 45.3079684,134.105421 C43.9054532,134.961444 42.0630783,134.693381 40.5909556,133.963244 C39.1203139,133.231626 37.8955197,132.100135 36.5389157,131.174504 C35.1408434,130.219254 33.5902273,129.474306 32.3150787,128.360588 C31.0399302,127.246869 30.0387683,125.628127 30.2357425,123.945701 C30.3838433,122.686843 31.168778,121.602745 31.9759277,120.625279 C32.4616986,120.035838 32.9933807,119.443434 33.6983409,119.148713 C34.1974409,118.939891 34.7498571,118.896942 35.2904253,118.889537 C41.2011312,118.803638 45.2650192,121.855997 46.8304454,127.389046 Z" id="Path" fill="#F8CF87"></path>
                    <path d="M46.1758396,127.337211 C46.4838894,128.430195 46.6779015,129.579458 46.5046235,130.700582 C46.3298645,131.823186 45.744866,132.919133 44.7762863,133.511536 C43.4878087,134.297952 41.7935347,134.052104 40.4413737,133.381208 C39.0892127,132.70883 37.9621651,131.669161 36.7166367,130.817581 C35.4311211,129.939343 34.0063907,129.255117 32.8349128,128.23174 C31.6619539,127.208363 30.7422475,125.719949 30.9229305,124.173776 C31.0591833,123.017108 31.7804346,122.020389 32.52242,121.121417 C32.9682036,120.580849 33.4569365,120.034357 34.1056183,119.763332 C34.564731,119.572282 35.071236,119.532295 35.5688549,119.526371 C41.001195,119.446396 44.7362991,122.252908 46.1758396,127.337211 Z" id="Path" fill="#6E4937"></path>
                    <path d="M44.0165288,125.326001 C44.2357181,125.802886 44.3764139,126.384922 44.1098324,126.838111 C43.8299217,127.316477 43.1797589,127.466059 42.6391907,127.341654 C42.0986225,127.217249 41.6350668,126.88106 41.174473,126.571529 C39.6727302,125.564443 38.0302915,124.767661 36.3108403,124.210801 C35.5925511,123.978283 34.7424521,123.670233 34.567693,122.935653 C34.4225542,122.325477 34.8683378,121.699011 35.4340832,121.429467 C35.9983475,121.159923 36.6514723,121.165847 37.277939,121.191025 C37.8022161,121.21324 38.3264932,121.245822 38.8492893,121.288771 C41.3107258,121.49315 43.0005568,123.119298 44.0165288,125.326001 Z" id="Path" fill="#A58169"></path>
                    <path d="M43.0035188,76.9429263 C41.509181,77.7130509 40.0696405,78.6653395 39.0314534,79.9893613 C37.9947473,81.3133831 37.3993818,83.0565304 37.7385328,84.7034121 C38.1902404,86.8923431 40.1703491,88.4785034 42.2644955,89.261957 C44.3586418,90.0454107 46.6260662,90.2127647 48.8075921,90.7000165 C51.0587254,91.2035595 53.2402513,92.0521775 55.5328528,92.2861769 C57.8269354,92.5186953 60.3683464,92.0092283 61.8582412,90.2483089 C62.9734407,88.9302111 63.3229588,87.1426335 63.5451101,85.4305874 C63.6784009,84.3983243 63.7746665,83.318669 63.4118193,82.3441652 C63.1541238,81.6525341 62.683163,81.0630926 62.1885061,80.5180814 C56.7769002,74.5599832 49.9627789,73.3559231 43.0035188,76.9429263 Z" id="Path" fill="#F8CF87"></path>
                    <path d="M43.6625677,77.5456969 C42.2881916,78.2551001 40.9656508,79.1303762 40.0118812,80.3462844 C39.0581116,81.5636736 38.5116193,83.1661251 38.8226312,84.679716 C39.2373136,86.6924069 41.0574734,88.1497195 42.9827847,88.8694897 C44.9080961,89.590741 46.9918754,89.7432849 48.9986422,90.1920305 C51.0661304,90.6541053 53.0714163,91.4345969 55.1788917,91.6493431 C57.2878482,91.8640894 59.62488,91.3946096 60.9933321,89.7773481 C62.0181901,88.5658829 62.339569,86.9219632 62.5424672,85.3491319 C62.6653909,84.3998053 62.7542515,83.4075295 62.4210245,82.5100382 C62.1855441,81.8761664 61.7516085,81.3341172 61.2954578,80.8335363 C56.3237115,75.3552849 50.0590445,74.2489714 43.6625677,77.5456969 Z" id="Path" fill="#6E4937"></path>
                    <path d="M47.6716584,77.8241265 C46.9918754,78.0492398 46.2824722,78.4505932 46.079574,79.1363003 C45.8648277,79.8605135 46.3209784,80.6454482 46.9474451,81.0675357 C47.5739118,81.4896232 48.3395933,81.639205 49.0756547,81.809521 C51.4734079,82.3648993 53.7941486,83.2579476 55.9460543,84.4501596 C56.8465076,84.9492596 57.942454,85.5090809 58.8355023,84.9996139 C59.5774877,84.5760454 59.7863099,83.5511873 59.5286144,82.7381135 C59.2709189,81.9250397 58.6592623,81.2808009 58.0520487,80.6824734 C57.5411007,80.1804114 57.0212666,79.6901975 56.4910655,79.2088697 C54.0000088,76.9503314 50.8113969,76.7814964 47.6716584,77.8241265 Z" id="Path" fill="#A58169"></path>
                    <path d="M58.6429712,41.5808805 C58.1275801,42.4961439 57.6284802,43.6631788 58.2134786,44.536974 C58.6918445,45.2493392 59.6633862,45.392997 60.5208903,45.4507564 C68.5849829,45.9928056 76.7719992,44.6199105 84.2185112,41.4801719 C85.1085974,41.1039957 86.0283039,40.6715412 86.5925682,39.8895686 C87.4530343,38.6958755 87.2264399,36.9808674 86.4415053,35.73682 C85.6580517,34.4927727 84.4228904,33.6145345 83.2188303,32.7688785 C80.8270012,31.0864526 78.433691,29.4040266 76.0403809,27.7216007 C74.3253728,26.5160596 72.3082389,25.2483161 70.2762949,25.7666692 C65.5296618,26.9781343 60.7652567,37.8102323 58.6429712,41.5808805 Z" id="Path" fill="#F8CF87"></path>
                    <path d="M60.6127128,40.7337435 C60.1713722,41.5201592 59.7433607,42.5213211 60.2454226,43.2707115 C60.6556621,43.8823681 61.48947,44.0067729 62.2240503,44.0571272 C69.1462852,44.5206829 76.1721907,43.3432809 82.5657054,40.647845 C83.3284249,40.3264661 84.1178026,39.9547329 84.6020924,39.282355 C85.3411158,38.2589779 85.1456227,36.7853742 84.4717637,35.7190479 C83.7993857,34.6512406 82.7389834,33.8959262 81.7067203,33.1702319 C79.6525612,31.7262484 77.5998831,30.2837458 75.545724,28.8397623 C74.0721203,27.8030562 72.3423021,26.7159958 70.5976738,27.1602984 C66.5234187,28.2014475 62.4343536,37.4977394 60.6127128,40.7337435 Z" id="Path" fill="#6E4937"></path>
                    <path d="M66.1502045,34.7623163 C66.1057742,34.9237462 66.068749,35.1044293 66.1531665,35.2480871 C66.2212929,35.3650868 66.3516217,35.4272892 66.4775074,35.4746815 C67.6563904,35.9175031 68.9641211,35.6257444 70.2185355,35.5087447 C72.6621999,35.2821503 75.1310415,35.7516301 77.574706,35.5220738 C77.755389,35.5057827 77.9523632,35.4761625 78.0708439,35.3399097 C78.1597044,35.2392011 78.1863626,35.0999863 78.1996916,34.9652145 C78.2989192,33.9433184 77.7968573,32.9332705 77.072644,32.2075762 C75.6508756,30.7813648 72.2978718,29.0500656 70.2126115,29.6232159 C68.2191737,30.1741512 66.6537475,32.9362325 66.1502045,34.7623163 Z" id="Path" fill="#A58169"></path>
                    <path d="M176.331331,100.73237 C175.981813,100.102941 175.479751,99.3950189 174.761462,99.423158 C174.174982,99.4453732 173.741047,99.9607642 173.400415,100.43913 C170.194031,104.948802 168.059897,110.213788 167.220165,115.683153 C167.120938,116.336278 167.042444,117.027909 167.297178,117.638085 C167.683721,118.566677 168.766338,119.049486 169.773424,119.037638 C170.779029,119.027271 171.73428,118.621474 172.65991,118.223083 C174.497842,117.432224 176.337255,116.638404 178.175187,115.846064 C179.494766,115.277357 180.956521,114.557586 181.381571,113.186172 C182.376809,109.98275 177.769391,103.321173 176.331331,100.73237 Z" id="Path" fill="#FDDAA3"></path>
                    <path d="M176.118066,102.185239 C175.818902,101.644671 175.387928,101.035977 174.771829,101.061154 C174.266805,101.080407 173.896553,101.521747 173.603313,101.933468 C170.851599,105.803344 169.01811,110.323382 168.29834,115.01818 C168.212441,115.578001 168.145796,116.171886 168.364985,116.694682 C168.696731,117.492946 169.625323,117.906147 170.488752,117.89578 C171.353661,117.886894 172.174139,117.538857 172.966479,117.196744 C174.545234,116.516961 176.12399,115.837178 177.701264,115.157395 C178.832755,114.670143 180.08865,114.0496 180.452978,112.873679 C181.30752,110.124927 177.353227,104.406752 176.118066,102.185239 Z" id="Path" fill="#6E4937"></path>
                    <path d="M172.443683,106.844493 C172.566607,107.507985 173.277491,107.881199 173.932097,108.042629 C174.563007,108.198135 175.220574,108.248489 175.869256,108.189249 C176.387609,108.143338 176.959279,107.98487 177.215493,107.533162 C177.482075,107.066644 177.304354,106.474241 177.051101,106.000318 C176.557925,105.083573 175.499004,103.664767 174.312716,104.064639 C173.487794,104.343069 172.283734,105.979584 172.443683,106.844493 Z" id="Path" fill="#A58169"></path>
                    <path d="M176.900038,110.5248 C176.861532,110.717331 176.849684,110.923191 176.925216,111.103874 C177.068873,111.447468 177.470227,111.589645 177.831593,111.679986 C178.124833,111.752556 178.434363,111.814758 178.726122,111.739227 C179.048982,111.654809 179.315564,111.403038 179.459221,111.102393 C179.602879,110.800267 179.6325,110.453711 179.591031,110.121965 C179.499209,109.387385 178.819426,108.904576 178.075959,109.002323 C177.422834,109.089702 177.009633,109.954611 176.900038,110.5248 Z" id="Path" fill="#A58169"></path>
                </g>
                <path d="M251,187 C289.659932,187 321,218.340068 321,257 C321,295.659932 289.659932,327 251,327 C212.340068,327 181,295.659932 181,257 C181,218.340068 212.340068,187 251,187 Z M296.100098,221.695152 L215.695152,302.100098 C225.423251,309.726058 237.68066,314.272727 251,314.272727 C282.630854,314.272727 308.272727,288.630854 308.272727,257 C308.272727,243.68066 303.726058,231.423251 296.100098,221.695152 Z M251,199.727273 C219.369146,199.727273 193.727273,225.369146 193.727273,257 C193.727273,270.725747 198.555635,283.323769 206.606523,293.188229 L287.188229,212.606523 C277.323769,204.555635 264.725747,199.727273 251,199.727273 Z" id="Combined-Shape" fill="#FF9100"></path>
                <path d="M249,185 C287.659932,185 319,216.340068 319,255 C319,293.659932 287.659932,325 249,325 C210.340068,325 179,293.659932 179,255 C179,216.340068 210.340068,185 249,185 Z M294.100098,219.695152 L213.695152,300.100098 C223.423251,307.726058 235.68066,312.272727 249,312.272727 C280.630854,312.272727 306.272727,286.630854 306.272727,255 C306.272727,241.68066 301.726058,229.423251 294.100098,219.695152 Z M249,197.727273 C217.369146,197.727273 191.727273,223.369146 191.727273,255 C191.727273,268.725747 196.555635,281.323769 204.606523,291.188229 L285.188229,210.606523 C275.323769,202.555635 262.725747,197.727273 249,197.727273 Z" id="Combined-Shape" fill="#FE7073"></path>
                <path d="M247,187 C285.659932,187 317,218.340068 317,257 C317,295.659932 285.659932,327 247,327 C208.340068,327 177,295.659932 177,257 C177,218.340068 208.340068,187 247,187 Z M292.100098,221.695152 L211.695152,302.100098 C221.423251,309.726058 233.68066,314.272727 247,314.272727 C278.630854,314.272727 304.272727,288.630854 304.272727,257 C304.272727,243.68066 299.726058,231.423251 292.100098,221.695152 Z M247,199.727273 C215.369146,199.727273 189.727273,225.369146 189.727273,257 C189.727273,270.725747 194.555635,283.323769 202.606523,293.188229 L283.188229,212.606523 C273.323769,204.555635 260.725747,199.727273 247,199.727273 Z" id="Combined-Shape-Copy" fill="#761EC9"></path>
            </g>
        </g>
    </g>
</svg>