<?xml version="1.0" encoding="UTF-8"?>
<svg width="386px" height="414px" viewBox="0 0 386 414" version="1.1" xmlns="http://www.w3.org/2000/svg" xmlns:xlink="http://www.w3.org/1999/xlink">
    <!-- Generator: Sketch 63.1 (92452) - https://sketch.com -->
    <title>Group 8</title>
    <desc>Created with Sketch.</desc>
    <g id="Design" stroke="none" stroke-width="1" fill="none" fill-rule="evenodd">
        <g id="JavaScript-Disable" transform="translate(-489.000000, -157.000000)">
            <g id="Group-8" transform="translate(489.000000, 157.000000)">
                <path d="M192.548034,398.389422 C237.853454,464.793245 389.733471,303.874675 385.096068,206.179993 C380.458665,108.485311 342.622237,-47.5926911 192.548034,13.970564 C42.473831,75.533819 0,100.025657 0,206.179993 C0,312.334329 147.242614,331.985599 192.548034,398.389422 Z" id="Oval" fill="#FFE7C7"></path>
                <g id="Group-3" transform="translate(93.000000, 53.000000)">
                    <g id="javascript-copy" opacity="0.388346354" fill-rule="nonzero">
                        <path d="M70.9294643,0 L3.55696429,0 C1.68125,0 0.160714286,1.52053571 0.160714286,4.47107143 L0.160714286,127.678571 C0.160714286,128.479464 1.68125,130 3.55696429,130 L96.5858929,130 C98.4616071,130 99.9821429,128.479464 99.9821429,127.678571 L99.9821429,30.1275 C99.9821429,28.5117857 99.76625,27.9917857 99.3855357,27.60875 L72.3733929,0.596607143 C71.9903571,0.215892857 71.4703571,0 70.9294643,0 Z" id="Path" fill="#FFFBF5"></path>
                        <polygon id="Path" fill="#FFB24D" points="72.125 0.350535714 72.125 27.8571429 99.6316071 27.8571429"></polygon>
                        <path d="M96.5858929,130 L3.55696429,130 C1.68125,130 0.160714286,128.479464 0.160714286,126.60375 L0.160714286,90.5357143 L99.9821429,90.5357143 L99.9821429,126.60375 C99.9821429,128.479464 98.4616071,130 96.5858929,130 Z" id="Path" fill="#FFB24D"></path>
                        <g id="Group" transform="translate(30.178571, 98.500000)" fill="#FFFFFF">
                            <path d="M15.29875,0.669107143 L15.29875,18.8876786 C15.29875,19.9880357 15.0967857,20.9142857 14.6951786,21.6641071 C14.29125,22.4139286 13.7526786,23.0175 13.0771429,23.4725 C12.3992857,23.9275 11.6216071,24.2455357 10.7441071,24.4242857 C9.86660714,24.6030357 8.95892857,24.6935714 8.03035714,24.6935714 C7.56375,24.6935714 7.01821429,24.6448214 6.39607143,24.5496429 C5.77392857,24.4544643 5.12625,24.3082143 4.46,24.10625 C3.79375,23.9042857 3.15303571,23.6767857 2.54017857,23.42375 C1.925,23.1707143 1.40732143,22.8851786 0.984821429,22.5671429 L2.60285714,19.9973214 C2.81410714,20.1435714 3.11589286,20.2991071 3.50821429,20.4569643 C3.90053571,20.6148214 4.32767857,20.7633929 4.79428571,20.9003571 C5.25857143,21.0396429 5.74607143,21.1580357 6.25446429,21.2648214 C6.76285714,21.3716071 7.23875,21.4226786 7.68214286,21.4226786 C8.80107143,21.4226786 9.69714286,21.2044643 10.3633929,20.7726786 C11.0296429,20.3408929 11.3825,19.6026786 11.4266071,18.5673214 L11.4266071,0.666785714 L15.29875,0.666785714 L15.29875,0.669107143 Z" id="Path"></path>
                            <path d="M34.2485714,18.1239286 C34.2485714,18.9689286 34.0744643,19.7907143 33.7239286,20.5846429 C33.3733929,21.3785714 32.8835714,22.0773214 32.2475,22.6785714 C31.6114286,23.2798214 30.8291071,23.7626786 29.8982143,24.1225 C28.9673214,24.4823214 27.90875,24.6610714 26.7248214,24.6610714 C26.2164286,24.6610714 25.6941071,24.6332143 25.1532143,24.5821429 C24.6123214,24.5310714 24.0667857,24.4382143 23.5189286,24.3128571 C22.96875,24.1851786 22.4441071,24.0110714 21.9473214,23.7882143 C21.4505357,23.5653571 21.0210714,23.2960714 20.66125,22.9780357 L21.3275,20.2480357 C21.6223214,20.4175 21.9983929,20.5823214 22.4533929,20.7401786 C22.9083929,20.8980357 23.3773214,21.0466071 23.8648214,21.1835714 C24.35,21.3228571 24.8375,21.4319643 25.325,21.5178571 C25.8101786,21.6014286 26.2651786,21.6455357 26.69,21.6455357 C27.9807143,21.6455357 28.9696429,21.34375 29.6567857,20.7401786 C30.3439286,20.1366071 30.6875,19.2428571 30.6875,18.0589286 C30.6875,17.3392857 30.44375,16.7264286 29.9585714,16.2180357 C29.4710714,15.7096429 28.8628571,15.25 28.1339286,14.8367857 C27.405,14.4235714 26.6157143,14.0126786 25.7683929,13.5994643 C24.9210714,13.18625 24.1271429,12.69875 23.3889286,12.1392857 C22.6483929,11.5798214 22.0332143,10.9182143 21.5480357,10.1567857 C21.0605357,9.39535714 20.8191071,8.44357143 20.8191071,7.30142857 C20.8191071,6.26607143 21.0094643,5.34446429 21.3901786,4.54125 C21.7708929,3.73803571 22.2839286,3.05321429 22.9292857,2.49375 C23.5746429,1.93428571 24.3267857,1.50482143 25.1833929,1.20767857 C26.04,0.910535714 26.9453571,0.764285714 27.8971429,0.764285714 C28.8698214,0.764285714 29.8541071,0.854821429 30.8476786,1.03357143 C31.84125,1.21232143 32.6444643,1.50482143 33.2596429,1.90642857 C33.1319643,2.18035714 32.9833929,2.48214286 32.81625,2.81178571 C32.6467857,3.14142857 32.4866071,3.44553571 32.3403571,3.73107143 C32.1917857,4.01660714 32.0641071,4.25571429 31.9596429,4.44607143 C31.8528571,4.63642857 31.7901786,4.74321429 31.7692857,4.76410714 C31.6416071,4.70142857 31.5,4.61785714 31.3398214,4.51107143 C31.1796429,4.40428571 30.9521429,4.29982143 30.6573214,4.19303571 C30.3601786,4.08625 29.9678571,4.01428571 29.4826786,3.97017857 C28.9951786,3.92607143 28.3707143,3.93767857 27.6092857,4.00267857 C27.1844643,4.04678571 26.7851786,4.16517857 26.4021429,4.36714286 C26.0191071,4.56910714 25.6801786,4.81517857 25.3853571,5.11232143 C25.0882143,5.40946429 24.85375,5.74142857 24.6866071,6.11285714 C24.5171429,6.48196429 24.4335714,6.83946429 24.4335714,7.17607143 C24.4335714,8.02107143 24.675,8.70357143 25.1625,9.22357143 C25.6476786,9.74357143 26.25125,10.19625 26.9708929,10.5885714 C27.6905357,10.9808929 28.4705357,11.3616071 29.3201786,11.7307143 C30.1651786,12.0998214 30.9544643,12.5525 31.6857143,13.0794643 C32.4169643,13.6064286 33.0228571,14.2703571 33.5103571,15.0619643 C34.0025,15.8558929 34.2485714,16.875 34.2485714,18.1239286 Z" id="Path"></path>
                        </g>
                        <g id="Group" transform="translate(18.571429, 27.857143)" fill="#FFB24D">
                            <path d="M11.7678571,16.25 L11.7678571,6.96428571 C11.7678571,5.68517857 12.8078571,4.64285714 14.0892857,4.64285714 C15.3730357,4.64285714 16.4107143,3.60285714 16.4107143,2.32142857 C16.4107143,1.04 15.3730357,0 14.0892857,0 C10.2496429,0 7.125,3.12464286 7.125,6.96428571 L7.125,16.25 C7.125,18.8105357 5.04267857,20.8928571 2.48214286,20.8928571 C1.19839286,20.8928571 0.160714286,21.9328571 0.160714286,23.2142857 C0.160714286,24.4957143 1.19839286,25.5357143 2.48214286,25.5357143 C5.04267857,25.5357143 7.125,27.6180357 7.125,30.1785714 L7.125,39.4642857 C7.125,43.3039286 10.2496429,46.4285714 14.0892857,46.4285714 C15.3730357,46.4285714 16.4107143,45.3885714 16.4107143,44.1071429 C16.4107143,42.8257143 15.3730357,41.7857143 14.0892857,41.7857143 C12.8078571,41.7857143 11.7678571,40.7433929 11.7678571,39.4642857 L11.7678571,30.1785714 C11.7678571,27.3928571 10.5096429,24.9182143 8.55964286,23.2142857 C10.5096429,21.5103571 11.7678571,19.0357143 11.7678571,16.25 Z" id="Path"></path>
                            <circle id="Oval" cx="30.3392857" cy="15.0892857" r="3.48214286"></circle>
                            <path d="M58.1964286,20.8928571 C55.6358929,20.8928571 53.5535714,18.8105357 53.5535714,16.25 L53.5535714,6.96428571 C53.5535714,3.12464286 50.4289286,0 46.5892857,0 C45.3055357,0 44.2678571,1.04 44.2678571,2.32142857 C44.2678571,3.60285714 45.3055357,4.64285714 46.5892857,4.64285714 C47.8707143,4.64285714 48.9107143,5.68517857 48.9107143,6.96428571 L48.9107143,16.25 C48.9107143,19.0357143 50.1689286,21.5103571 52.1189286,23.2142857 C50.1689286,24.9182143 48.9107143,27.3928571 48.9107143,30.1785714 L48.9107143,39.4642857 C48.9107143,40.7433929 47.8707143,41.7857143 46.5892857,41.7857143 C45.3055357,41.7857143 44.2678571,42.8257143 44.2678571,44.1071429 C44.2678571,45.3885714 45.3055357,46.4285714 46.5892857,46.4285714 C50.4289286,46.4285714 53.5535714,43.3039286 53.5535714,39.4642857 L53.5535714,30.1785714 C53.5535714,27.6180357 55.6358929,25.5357143 58.1964286,25.5357143 C59.4801786,25.5357143 60.5178571,24.4957143 60.5178571,23.2142857 C60.5178571,21.9328571 59.4801786,20.8928571 58.1964286,20.8928571 Z" id="Path"></path>
                            <path d="M30.3392857,27.8571429 C29.0555357,27.8571429 28.0178571,28.8971429 28.0178571,30.1785714 L28.0178571,37.1428571 C28.0178571,38.4242857 29.0555357,39.4642857 30.3392857,39.4642857 C31.6230357,39.4642857 32.6607143,38.4242857 32.6607143,37.1428571 L32.6607143,30.1785714 C32.6607143,28.8971429 31.6230357,27.8571429 30.3392857,27.8571429 Z" id="Path"></path>
                        </g>
                    </g>
                    <g id="javascript-copy-2" opacity="0.235770089" transform="translate(127.000000, 0.000000)" fill-rule="nonzero">
                        <path d="M70.9294643,0 L3.55696429,0 C1.68125,0 0.160714286,1.52053571 0.160714286,4.47107143 L0.160714286,127.678571 C0.160714286,128.479464 1.68125,130 3.55696429,130 L96.5858929,130 C98.4616071,130 99.9821429,128.479464 99.9821429,127.678571 L99.9821429,30.1275 C99.9821429,28.5117857 99.76625,27.9917857 99.3855357,27.60875 L72.3733929,0.596607143 C71.9903571,0.215892857 71.4703571,0 70.9294643,0 Z" id="Path" fill="#FFFBF5"></path>
                        <polygon id="Path" fill="#FFB24D" points="72.125 0.350535714 72.125 27.8571429 99.6316071 27.8571429"></polygon>
                        <path d="M96.5858929,130 L3.55696429,130 C1.68125,130 0.160714286,128.479464 0.160714286,126.60375 L0.160714286,90.5357143 L99.9821429,90.5357143 L99.9821429,126.60375 C99.9821429,128.479464 98.4616071,130 96.5858929,130 Z" id="Path" fill="#FFB24D"></path>
                        <g id="Group" transform="translate(30.178571, 98.500000)" fill="#FFFFFF">
                            <path d="M15.29875,0.669107143 L15.29875,18.8876786 C15.29875,19.9880357 15.0967857,20.9142857 14.6951786,21.6641071 C14.29125,22.4139286 13.7526786,23.0175 13.0771429,23.4725 C12.3992857,23.9275 11.6216071,24.2455357 10.7441071,24.4242857 C9.86660714,24.6030357 8.95892857,24.6935714 8.03035714,24.6935714 C7.56375,24.6935714 7.01821429,24.6448214 6.39607143,24.5496429 C5.77392857,24.4544643 5.12625,24.3082143 4.46,24.10625 C3.79375,23.9042857 3.15303571,23.6767857 2.54017857,23.42375 C1.925,23.1707143 1.40732143,22.8851786 0.984821429,22.5671429 L2.60285714,19.9973214 C2.81410714,20.1435714 3.11589286,20.2991071 3.50821429,20.4569643 C3.90053571,20.6148214 4.32767857,20.7633929 4.79428571,20.9003571 C5.25857143,21.0396429 5.74607143,21.1580357 6.25446429,21.2648214 C6.76285714,21.3716071 7.23875,21.4226786 7.68214286,21.4226786 C8.80107143,21.4226786 9.69714286,21.2044643 10.3633929,20.7726786 C11.0296429,20.3408929 11.3825,19.6026786 11.4266071,18.5673214 L11.4266071,0.666785714 L15.29875,0.666785714 L15.29875,0.669107143 Z" id="Path"></path>
                            <path d="M34.2485714,18.1239286 C34.2485714,18.9689286 34.0744643,19.7907143 33.7239286,20.5846429 C33.3733929,21.3785714 32.8835714,22.0773214 32.2475,22.6785714 C31.6114286,23.2798214 30.8291071,23.7626786 29.8982143,24.1225 C28.9673214,24.4823214 27.90875,24.6610714 26.7248214,24.6610714 C26.2164286,24.6610714 25.6941071,24.6332143 25.1532143,24.5821429 C24.6123214,24.5310714 24.0667857,24.4382143 23.5189286,24.3128571 C22.96875,24.1851786 22.4441071,24.0110714 21.9473214,23.7882143 C21.4505357,23.5653571 21.0210714,23.2960714 20.66125,22.9780357 L21.3275,20.2480357 C21.6223214,20.4175 21.9983929,20.5823214 22.4533929,20.7401786 C22.9083929,20.8980357 23.3773214,21.0466071 23.8648214,21.1835714 C24.35,21.3228571 24.8375,21.4319643 25.325,21.5178571 C25.8101786,21.6014286 26.2651786,21.6455357 26.69,21.6455357 C27.9807143,21.6455357 28.9696429,21.34375 29.6567857,20.7401786 C30.3439286,20.1366071 30.6875,19.2428571 30.6875,18.0589286 C30.6875,17.3392857 30.44375,16.7264286 29.9585714,16.2180357 C29.4710714,15.7096429 28.8628571,15.25 28.1339286,14.8367857 C27.405,14.4235714 26.6157143,14.0126786 25.7683929,13.5994643 C24.9210714,13.18625 24.1271429,12.69875 23.3889286,12.1392857 C22.6483929,11.5798214 22.0332143,10.9182143 21.5480357,10.1567857 C21.0605357,9.39535714 20.8191071,8.44357143 20.8191071,7.30142857 C20.8191071,6.26607143 21.0094643,5.34446429 21.3901786,4.54125 C21.7708929,3.73803571 22.2839286,3.05321429 22.9292857,2.49375 C23.5746429,1.93428571 24.3267857,1.50482143 25.1833929,1.20767857 C26.04,0.910535714 26.9453571,0.764285714 27.8971429,0.764285714 C28.8698214,0.764285714 29.8541071,0.854821429 30.8476786,1.03357143 C31.84125,1.21232143 32.6444643,1.50482143 33.2596429,1.90642857 C33.1319643,2.18035714 32.9833929,2.48214286 32.81625,2.81178571 C32.6467857,3.14142857 32.4866071,3.44553571 32.3403571,3.73107143 C32.1917857,4.01660714 32.0641071,4.25571429 31.9596429,4.44607143 C31.8528571,4.63642857 31.7901786,4.74321429 31.7692857,4.76410714 C31.6416071,4.70142857 31.5,4.61785714 31.3398214,4.51107143 C31.1796429,4.40428571 30.9521429,4.29982143 30.6573214,4.19303571 C30.3601786,4.08625 29.9678571,4.01428571 29.4826786,3.97017857 C28.9951786,3.92607143 28.3707143,3.93767857 27.6092857,4.00267857 C27.1844643,4.04678571 26.7851786,4.16517857 26.4021429,4.36714286 C26.0191071,4.56910714 25.6801786,4.81517857 25.3853571,5.11232143 C25.0882143,5.40946429 24.85375,5.74142857 24.6866071,6.11285714 C24.5171429,6.48196429 24.4335714,6.83946429 24.4335714,7.17607143 C24.4335714,8.02107143 24.675,8.70357143 25.1625,9.22357143 C25.6476786,9.74357143 26.25125,10.19625 26.9708929,10.5885714 C27.6905357,10.9808929 28.4705357,11.3616071 29.3201786,11.7307143 C30.1651786,12.0998214 30.9544643,12.5525 31.6857143,13.0794643 C32.4169643,13.6064286 33.0228571,14.2703571 33.5103571,15.0619643 C34.0025,15.8558929 34.2485714,16.875 34.2485714,18.1239286 Z" id="Path"></path>
                        </g>
                        <g id="Group" transform="translate(18.571429, 27.857143)" fill="#FFB24D">
                            <path d="M11.7678571,16.25 L11.7678571,6.96428571 C11.7678571,5.68517857 12.8078571,4.64285714 14.0892857,4.64285714 C15.3730357,4.64285714 16.4107143,3.60285714 16.4107143,2.32142857 C16.4107143,1.04 15.3730357,0 14.0892857,0 C10.2496429,0 7.125,3.12464286 7.125,6.96428571 L7.125,16.25 C7.125,18.8105357 5.04267857,20.8928571 2.48214286,20.8928571 C1.19839286,20.8928571 0.160714286,21.9328571 0.160714286,23.2142857 C0.160714286,24.4957143 1.19839286,25.5357143 2.48214286,25.5357143 C5.04267857,25.5357143 7.125,27.6180357 7.125,30.1785714 L7.125,39.4642857 C7.125,43.3039286 10.2496429,46.4285714 14.0892857,46.4285714 C15.3730357,46.4285714 16.4107143,45.3885714 16.4107143,44.1071429 C16.4107143,42.8257143 15.3730357,41.7857143 14.0892857,41.7857143 C12.8078571,41.7857143 11.7678571,40.7433929 11.7678571,39.4642857 L11.7678571,30.1785714 C11.7678571,27.3928571 10.5096429,24.9182143 8.55964286,23.2142857 C10.5096429,21.5103571 11.7678571,19.0357143 11.7678571,16.25 Z" id="Path"></path>
                            <circle id="Oval" cx="30.3392857" cy="15.0892857" r="3.48214286"></circle>
                            <path d="M58.1964286,20.8928571 C55.6358929,20.8928571 53.5535714,18.8105357 53.5535714,16.25 L53.5535714,6.96428571 C53.5535714,3.12464286 50.4289286,0 46.5892857,0 C45.3055357,0 44.2678571,1.04 44.2678571,2.32142857 C44.2678571,3.60285714 45.3055357,4.64285714 46.5892857,4.64285714 C47.8707143,4.64285714 48.9107143,5.68517857 48.9107143,6.96428571 L48.9107143,16.25 C48.9107143,19.0357143 50.1689286,21.5103571 52.1189286,23.2142857 C50.1689286,24.9182143 48.9107143,27.3928571 48.9107143,30.1785714 L48.9107143,39.4642857 C48.9107143,40.7433929 47.8707143,41.7857143 46.5892857,41.7857143 C45.3055357,41.7857143 44.2678571,42.8257143 44.2678571,44.1071429 C44.2678571,45.3885714 45.3055357,46.4285714 46.5892857,46.4285714 C50.4289286,46.4285714 53.5535714,43.3039286 53.5535714,39.4642857 L53.5535714,30.1785714 C53.5535714,27.6180357 55.6358929,25.5357143 58.1964286,25.5357143 C59.4801786,25.5357143 60.5178571,24.4957143 60.5178571,23.2142857 C60.5178571,21.9328571 59.4801786,20.8928571 58.1964286,20.8928571 Z" id="Path"></path>
                            <path d="M30.3392857,27.8571429 C29.0555357,27.8571429 28.0178571,28.8971429 28.0178571,30.1785714 L28.0178571,37.1428571 C28.0178571,38.4242857 29.0555357,39.4642857 30.3392857,39.4642857 C31.6230357,39.4642857 32.6607143,38.4242857 32.6607143,37.1428571 L32.6607143,30.1785714 C32.6607143,28.8971429 31.6230357,27.8571429 30.3392857,27.8571429 Z" id="Path"></path>
                        </g>
                    </g>
                    <g id="javascript" transform="translate(58.000000, 26.000000)" fill-rule="nonzero">
                        <path d="M70.9294643,0 L3.55696429,0 C1.68125,0 0.160714286,1.52053571 0.160714286,4.47107143 L0.160714286,127.678571 C0.160714286,128.479464 1.68125,130 3.55696429,130 L96.5858929,130 C98.4616071,130 99.9821429,128.479464 99.9821429,127.678571 L99.9821429,30.1275 C99.9821429,28.5117857 99.76625,27.9917857 99.3855357,27.60875 L72.3733929,0.596607143 C71.9903571,0.215892857 71.4703571,0 70.9294643,0 Z" id="Path" fill="#FFFBF5"></path>
                        <polygon id="Path" fill="#FFB24D" points="72.125 0.350535714 72.125 27.8571429 99.6316071 27.8571429"></polygon>
                        <path d="M96.5858929,130 L3.55696429,130 C1.68125,130 0.160714286,128.479464 0.160714286,126.60375 L0.160714286,90.5357143 L99.9821429,90.5357143 L99.9821429,126.60375 C99.9821429,128.479464 98.4616071,130 96.5858929,130 Z" id="Path" fill="#FFB24D"></path>
                        <g id="Group" transform="translate(30.178571, 98.500000)" fill="#FFFFFF">
                            <path d="M15.29875,0.669107143 L15.29875,18.8876786 C15.29875,19.9880357 15.0967857,20.9142857 14.6951786,21.6641071 C14.29125,22.4139286 13.7526786,23.0175 13.0771429,23.4725 C12.3992857,23.9275 11.6216071,24.2455357 10.7441071,24.4242857 C9.86660714,24.6030357 8.95892857,24.6935714 8.03035714,24.6935714 C7.56375,24.6935714 7.01821429,24.6448214 6.39607143,24.5496429 C5.77392857,24.4544643 5.12625,24.3082143 4.46,24.10625 C3.79375,23.9042857 3.15303571,23.6767857 2.54017857,23.42375 C1.925,23.1707143 1.40732143,22.8851786 0.984821429,22.5671429 L2.60285714,19.9973214 C2.81410714,20.1435714 3.11589286,20.2991071 3.50821429,20.4569643 C3.90053571,20.6148214 4.32767857,20.7633929 4.79428571,20.9003571 C5.25857143,21.0396429 5.74607143,21.1580357 6.25446429,21.2648214 C6.76285714,21.3716071 7.23875,21.4226786 7.68214286,21.4226786 C8.80107143,21.4226786 9.69714286,21.2044643 10.3633929,20.7726786 C11.0296429,20.3408929 11.3825,19.6026786 11.4266071,18.5673214 L11.4266071,0.666785714 L15.29875,0.666785714 L15.29875,0.669107143 Z" id="Path"></path>
                            <path d="M34.2485714,18.1239286 C34.2485714,18.9689286 34.0744643,19.7907143 33.7239286,20.5846429 C33.3733929,21.3785714 32.8835714,22.0773214 32.2475,22.6785714 C31.6114286,23.2798214 30.8291071,23.7626786 29.8982143,24.1225 C28.9673214,24.4823214 27.90875,24.6610714 26.7248214,24.6610714 C26.2164286,24.6610714 25.6941071,24.6332143 25.1532143,24.5821429 C24.6123214,24.5310714 24.0667857,24.4382143 23.5189286,24.3128571 C22.96875,24.1851786 22.4441071,24.0110714 21.9473214,23.7882143 C21.4505357,23.5653571 21.0210714,23.2960714 20.66125,22.9780357 L21.3275,20.2480357 C21.6223214,20.4175 21.9983929,20.5823214 22.4533929,20.7401786 C22.9083929,20.8980357 23.3773214,21.0466071 23.8648214,21.1835714 C24.35,21.3228571 24.8375,21.4319643 25.325,21.5178571 C25.8101786,21.6014286 26.2651786,21.6455357 26.69,21.6455357 C27.9807143,21.6455357 28.9696429,21.34375 29.6567857,20.7401786 C30.3439286,20.1366071 30.6875,19.2428571 30.6875,18.0589286 C30.6875,17.3392857 30.44375,16.7264286 29.9585714,16.2180357 C29.4710714,15.7096429 28.8628571,15.25 28.1339286,14.8367857 C27.405,14.4235714 26.6157143,14.0126786 25.7683929,13.5994643 C24.9210714,13.18625 24.1271429,12.69875 23.3889286,12.1392857 C22.6483929,11.5798214 22.0332143,10.9182143 21.5480357,10.1567857 C21.0605357,9.39535714 20.8191071,8.44357143 20.8191071,7.30142857 C20.8191071,6.26607143 21.0094643,5.34446429 21.3901786,4.54125 C21.7708929,3.73803571 22.2839286,3.05321429 22.9292857,2.49375 C23.5746429,1.93428571 24.3267857,1.50482143 25.1833929,1.20767857 C26.04,0.910535714 26.9453571,0.764285714 27.8971429,0.764285714 C28.8698214,0.764285714 29.8541071,0.854821429 30.8476786,1.03357143 C31.84125,1.21232143 32.6444643,1.50482143 33.2596429,1.90642857 C33.1319643,2.18035714 32.9833929,2.48214286 32.81625,2.81178571 C32.6467857,3.14142857 32.4866071,3.44553571 32.3403571,3.73107143 C32.1917857,4.01660714 32.0641071,4.25571429 31.9596429,4.44607143 C31.8528571,4.63642857 31.7901786,4.74321429 31.7692857,4.76410714 C31.6416071,4.70142857 31.5,4.61785714 31.3398214,4.51107143 C31.1796429,4.40428571 30.9521429,4.29982143 30.6573214,4.19303571 C30.3601786,4.08625 29.9678571,4.01428571 29.4826786,3.97017857 C28.9951786,3.92607143 28.3707143,3.93767857 27.6092857,4.00267857 C27.1844643,4.04678571 26.7851786,4.16517857 26.4021429,4.36714286 C26.0191071,4.56910714 25.6801786,4.81517857 25.3853571,5.11232143 C25.0882143,5.40946429 24.85375,5.74142857 24.6866071,6.11285714 C24.5171429,6.48196429 24.4335714,6.83946429 24.4335714,7.17607143 C24.4335714,8.02107143 24.675,8.70357143 25.1625,9.22357143 C25.6476786,9.74357143 26.25125,10.19625 26.9708929,10.5885714 C27.6905357,10.9808929 28.4705357,11.3616071 29.3201786,11.7307143 C30.1651786,12.0998214 30.9544643,12.5525 31.6857143,13.0794643 C32.4169643,13.6064286 33.0228571,14.2703571 33.5103571,15.0619643 C34.0025,15.8558929 34.2485714,16.875 34.2485714,18.1239286 Z" id="Path"></path>
                        </g>
                        <g id="Group" transform="translate(18.571429, 27.857143)" fill="#FFB24D">
                            <path d="M11.7678571,16.25 L11.7678571,6.96428571 C11.7678571,5.68517857 12.8078571,4.64285714 14.0892857,4.64285714 C15.3730357,4.64285714 16.4107143,3.60285714 16.4107143,2.32142857 C16.4107143,1.04 15.3730357,0 14.0892857,0 C10.2496429,0 7.125,3.12464286 7.125,6.96428571 L7.125,16.25 C7.125,18.8105357 5.04267857,20.8928571 2.48214286,20.8928571 C1.19839286,20.8928571 0.160714286,21.9328571 0.160714286,23.2142857 C0.160714286,24.4957143 1.19839286,25.5357143 2.48214286,25.5357143 C5.04267857,25.5357143 7.125,27.6180357 7.125,30.1785714 L7.125,39.4642857 C7.125,43.3039286 10.2496429,46.4285714 14.0892857,46.4285714 C15.3730357,46.4285714 16.4107143,45.3885714 16.4107143,44.1071429 C16.4107143,42.8257143 15.3730357,41.7857143 14.0892857,41.7857143 C12.8078571,41.7857143 11.7678571,40.7433929 11.7678571,39.4642857 L11.7678571,30.1785714 C11.7678571,27.3928571 10.5096429,24.9182143 8.55964286,23.2142857 C10.5096429,21.5103571 11.7678571,19.0357143 11.7678571,16.25 Z" id="Path"></path>
                            <circle id="Oval" cx="30.3392857" cy="15.0892857" r="3.48214286"></circle>
                            <path d="M58.1964286,20.8928571 C55.6358929,20.8928571 53.5535714,18.8105357 53.5535714,16.25 L53.5535714,6.96428571 C53.5535714,3.12464286 50.4289286,0 46.5892857,0 C45.3055357,0 44.2678571,1.04 44.2678571,2.32142857 C44.2678571,3.60285714 45.3055357,4.64285714 46.5892857,4.64285714 C47.8707143,4.64285714 48.9107143,5.68517857 48.9107143,6.96428571 L48.9107143,16.25 C48.9107143,19.0357143 50.1689286,21.5103571 52.1189286,23.2142857 C50.1689286,24.9182143 48.9107143,27.3928571 48.9107143,30.1785714 L48.9107143,39.4642857 C48.9107143,40.7433929 47.8707143,41.7857143 46.5892857,41.7857143 C45.3055357,41.7857143 44.2678571,42.8257143 44.2678571,44.1071429 C44.2678571,45.3885714 45.3055357,46.4285714 46.5892857,46.4285714 C50.4289286,46.4285714 53.5535714,43.3039286 53.5535714,39.4642857 L53.5535714,30.1785714 C53.5535714,27.6180357 55.6358929,25.5357143 58.1964286,25.5357143 C59.4801786,25.5357143 60.5178571,24.4957143 60.5178571,23.2142857 C60.5178571,21.9328571 59.4801786,20.8928571 58.1964286,20.8928571 Z" id="Path"></path>
                            <path d="M30.3392857,27.8571429 C29.0555357,27.8571429 28.0178571,28.8971429 28.0178571,30.1785714 L28.0178571,37.1428571 C28.0178571,38.4242857 29.0555357,39.4642857 30.3392857,39.4642857 C31.6230357,39.4642857 32.6607143,38.4242857 32.6607143,37.1428571 L32.6607143,30.1785714 C32.6607143,28.8971429 31.6230357,27.8571429 30.3392857,27.8571429 Z" id="Path"></path>
                        </g>
                    </g>
                    <path d="M184.5,106 C212.39038,106 235,128.60962 235,156.5 C235,184.39038 212.39038,207 184.5,207 C156.60962,207 134,184.39038 134,156.5 C134,128.60962 156.60962,106 184.5,106 Z M217.035815,131.029201 L159.029201,189.035815 C166.047469,194.537813 174.890649,197.818182 184.5,197.818182 C207.319402,197.818182 225.818182,179.319402 225.818182,156.5 C225.818182,146.890649 222.537813,138.047469 217.035815,131.029201 Z M184.5,115.181818 C161.680598,115.181818 143.181818,133.680598 143.181818,156.5 C143.181818,166.402505 146.66539,175.491378 152.473909,182.607996 L210.607996,124.473909 C203.491378,118.66539 194.402505,115.181818 184.5,115.181818 Z" id="Combined-Shape" fill="#FF9100"></path>
                    <path d="M183.5,105 C211.39038,105 234,127.60962 234,155.5 C234,183.39038 211.39038,206 183.5,206 C155.60962,206 133,183.39038 133,155.5 C133,127.60962 155.60962,105 183.5,105 Z M216.035815,130.029201 L158.029201,188.035815 C165.047469,193.537813 173.890649,196.818182 183.5,196.818182 C206.319402,196.818182 224.818182,178.319402 224.818182,155.5 C224.818182,145.890649 221.537813,137.047469 216.035815,130.029201 Z M183.5,114.181818 C160.680598,114.181818 142.181818,132.680598 142.181818,155.5 C142.181818,165.402505 145.66539,174.491378 151.473909,181.607996 L209.607996,123.473909 C202.491378,117.66539 193.402505,114.181818 183.5,114.181818 Z" id="Combined-Shape" fill="#FE7073"></path>
                    <path d="M181.5,106 C209.39038,106 232,128.60962 232,156.5 C232,184.39038 209.39038,207 181.5,207 C153.60962,207 131,184.39038 131,156.5 C131,128.60962 153.60962,106 181.5,106 Z M214.035815,131.029201 L156.029201,189.035815 C163.047469,194.537813 171.890649,197.818182 181.5,197.818182 C204.319402,197.818182 222.818182,179.319402 222.818182,156.5 C222.818182,146.890649 219.537813,138.047469 214.035815,131.029201 Z M181.5,115.181818 C158.680598,115.181818 140.181818,133.680598 140.181818,156.5 C140.181818,166.402505 143.66539,175.491378 149.473909,182.607996 L207.607996,124.473909 C200.491378,118.66539 191.402505,115.181818 181.5,115.181818 Z" id="Combined-Shape-Copy" fill="#761EC9"></path>
                </g>
                <g id="Group-10" transform="translate(80.000000, 219.000000)">
                    <path d="M78.6532097,25.8240832 C78.7825144,25.2465226 78.9750346,24.7264307 79.3442711,24.250877 C79.9807372,23.4319478 80.1172254,23.3313775 81.1631561,23.6934304 C82.2981633,24.0870912 82.2493149,24.4376504 81.9763385,25.5151889 C81.8484706,26.0309706 81.6343996,26.5252016 81.3614232,26.9806412 C80.3269862,28.7003927 78.6374058,29.7563804 76.8659325,30.5968605 C76.4363539,30.8023111 76.8113373,31.4402139 77.2394792,31.2376367 C79.8528693,29.9977491 83.7937868,27.1027623 82.7334889,23.6302149 C82.4231578,22.6158919 81.6358363,22.0814328 80.5913423,22.401821 C79.156061,22.8414567 78.2480553,24.2379466 77.9405976,25.6272529 C77.8371539,26.0927495 78.5512028,26.2895799 78.6532097,25.8240832 Z" id="Path" fill="#030404" fill-rule="nonzero"></path>
                    <path d="M21.4905105,122.785308 C21.4905105,122.785308 15.5669221,142.969759 39.8115385,142.680979 C64.0561548,142.390762 98.2026317,142.90367 98.2026317,142.90367 C98.2026317,142.90367 112.345684,133.151228 99.8835917,117.091595" id="Path" fill="#081D2B" fill-rule="nonzero"></path>
                    <path d="M74.9335468,34.3466945 C73.2741375,38.0232558 71.5745001,41.9210718 71.9925851,45.9338252 C72.1951623,47.8777046 72.8991541,49.7554951 73.9623255,51.3933536 C74.1850167,51.7338558 74.4321322,52.104529 74.387594,52.5068101 C74.3531128,52.8271982 74.1390418,53.0958644 73.9292809,53.3372331 C68.4424549,59.6674126 58.6900131,61.8483505 51.0308694,58.4605695 C52.9503246,50.6333298 52.9187168,42.3334099 50.936046,34.5219741" id="Path" fill="#F0C9C6" fill-rule="nonzero"></path>
                    <path d="M49.7177091,50.8991226 C57.0219835,55.9578067 66.0230218,55.1072696 72.9853572,49.5873991 C77.0483957,52.0010853 82.6788936,53.3817713 87.3985122,53.6518743 C88.4487531,53.7122165 90.8854268,54.6374629 91.7646983,55.2150235 C93.0994093,56.0928582 92.7014384,57.5396332 92.8508571,59.1315168 C94.5576781,77.3562847 92.382487,95.8971305 95.526026,113.929378 C95.8650915,115.876131 96.1653655,118.167696 94.7688756,119.56275 C93.6324317,120.694883 91.8480279,120.733675 90.2891889,121.105785 C87.5852856,121.753744 85.3066508,123.553952 82.6932608,124.506496 C79.6086272,125.63001 76.2294665,125.515072 72.9480025,125.385768 C60.3910872,124.888663 47.3658017,124.272311 36.21687,118.473717 C35.218351,117.955062 34.2140851,117.374628 33.5187136,116.48961 C32.3319845,114.988239 32.2500916,112.917929 32.2285408,111.002784 C32.0331472,93.530856 32.4383017,76.0531814 33.4440043,58.6085514 C33.4626816,58.2852899 33.4856691,57.9462244 33.6580752,57.6718113 C33.8865134,57.3040115 34.321839,57.1316053 34.7298669,56.9836234 C39.6376956,55.1877258 44.5455243,53.3932651 49.4547897,51.5973676 L49.7177091,50.8991226 Z" id="Path" fill="#FF9100" fill-rule="nonzero"></path>
                    <path d="M91.4026453,55.079972 C93.0232632,55.5239179 94.6984764,58.1473649 95.6151025,59.5567853 C99.6910715,65.8323696 101.291575,72.4312154 103.955251,79.4237219 C106.034181,84.8789402 108.114549,90.3341584 110.19348,95.7893767 C111.115853,98.2102465 112.041099,100.639737 112.608603,103.16836 C112.996517,104.899606 113.18329,106.837738 112.23793,108.340545 C111.762376,109.094822 111.044017,109.660889 110.322785,110.185291 C104.805788,114.189424 98.1480364,116.604547 91.3466133,117.065734 C90.1512639,117.147627 88.7835084,117.098778 87.9961869,116.195083 C87.017782,115.071569 87.5019559,113.356128 87.9430284,111.933777 C89.3898034,107.25726 89.7662235,102.251734 89.0392442,97.4114313 C88.5248992,93.9862956 87.4717849,90.6689137 86.7146345,87.289753 C85.6212921,82.4077852 85.1514853,77.3864558 85.321018,72.3852404 C85.5322156,66.1240233 86.9531297,59.4935697 91.4026453,55.079972 Z" id="Path" fill="#FE7073" fill-rule="nonzero"></path>
                    <path d="M34.6853286,57.0094843 C33.063274,57.4519934 31.3894975,60.0754405 30.4743081,61.4848609 C26.3969024,67.7604451 24.7978353,74.3578542 22.1312867,81.3517975 C20.0537924,86.8070157 17.9748615,92.262234 15.8944938,97.7174523 C14.9735576,100.138322 14.0468745,102.569249 13.4808076,105.096436 C13.0900203,106.827681 12.9046836,108.765814 13.8500441,110.267184 C14.3255978,111.022898 15.04252,111.588965 15.7651892,112.113367 C21.2821863,116.118936 27.9399376,118.531186 34.7413606,118.993809 C35.9352733,119.074265 37.3059023,119.026854 38.091787,118.123158 C39.070192,117.001081 38.586018,115.28564 38.1463823,113.861852 C36.6996073,109.185335 36.3203137,104.181247 37.0487297,99.3395069 C37.5630748,95.9143712 38.6176258,92.598426 39.3733395,89.2178285 C40.4666819,84.3358607 40.9350519,79.3145313 40.7669559,74.3133159 C40.5557584,68.0520989 39.1348443,61.4202086 34.6853286,57.0094843 Z" id="Path" fill="#FE7073" fill-rule="nonzero"></path>
                    <path d="M47.9361788,7.35507328 C47.6531453,9.4153269 47.9103179,18.2295919 47.9404889,20.3085228 C48.006578,25.1948008 48.9706157,30.135674 51.2980989,34.4314608 C53.6255821,38.7286844 57.3984036,42.3391567 62.0160152,43.9367871 C62.7875328,44.2040167 63.6035886,44.416651 64.4110242,44.3031502 C65.2644347,44.1839026 66.0244585,43.7169693 66.729887,43.224175 C71.7799508,39.7027792 74.5600001,36.7287729 76.5915194,30.9172486 C78.6244754,25.1057242 75.9536166,13.4668717 75.2237639,7.35507328" id="Path" fill="#FAD3D0" fill-rule="nonzero"></path>
                    <path d="M88.3927211,33.7892479 C86.6657861,29.8828116 84.5150192,26.125794 83.4532846,21.9894829 C82.0927127,16.6980505 81.469177,11.712639 78.6560832,7.03037501 C75.1878459,1.25476863 68.6910071,-0.5669898 61.9298122,0.147059049 C60.040528,0.346762852 57.9960783,0.753354048 56.1556425,1.22747099 C54.1313068,1.74899963 52.1744969,2.18719862 50.4202642,3.32364256 C47.5798727,5.16264161 45.7753549,7.18697728 44.3831752,9.99863441 C42.9924321,12.8117283 41.821507,15.6219487 41.6519742,18.7539939 C41.4939352,21.6532909 41.6332969,24.6014362 40.9077543,27.4116566 C39.9480267,31.1226993 37.5185365,34.4156569 37.1191289,38.2272698 C36.5774862,43.4080749 39.8848111,48.2613083 40.1477305,53.4622275 C40.2612312,55.7106912 39.8014814,57.9620283 39.9896915,60.2047451 C40.3057695,63.9991174 42.4766504,67.4486773 45.2480794,70.0606306 C48.0209451,72.6740207 51.3771184,74.567615 54.6973737,76.4339117 C52.8899825,72.5633934 54.573816,68.0664661 55.928641,64.0149213 C57.2963966,59.9188382 58.3250867,55.5971905 57.8409127,51.3042771 C57.065085,44.4525689 52.5925818,38.643918 50.2435479,32.1571362 C49.4720303,30.0250467 48.9246408,27.7478487 49.2048008,25.4965115 C49.4260554,23.7221648 50.1472878,22.0555719 50.8613366,20.4177134 C52.0753634,17.6304805 53.2908268,14.8418108 54.5048535,12.0531412 C59.8767421,18.764051 65.9511859,23.5756196 73.8631919,26.630082 L73.8416411,26.6501961 C73.8416411,26.6501961 73.8631919,33.4214481 71.5400189,40.8880715 C71.458126,41.079155 71.3690495,41.2659284 71.3043971,41.4656322 C71.2311245,41.6883235 71.1664722,41.9426226 71.1090035,42.2084154 L71.1018199,42.2299662 L71.1032566,42.2314029 C70.6550006,44.2959666 70.6334498,47.4538728 71.2383081,49.1635673 C71.7914446,50.7252797 72.3819357,51.5944941 73.5873421,52.7309381 C74.5959181,53.6806087 76.5297405,54.3142013 77.9736421,54.539766 C79.5411015,54.7868815 80.8571352,54.8012487 82.4418351,54.697805 C86.7031407,54.417645 90.013339,50.4048916 90.7331347,46.1953079 C91.4529305,41.9857241 90.1196562,37.6956841 88.3927211,33.7892479 Z" id="Path" fill="#082034" fill-rule="nonzero"></path>
                    <path d="M49.137275,24.6718354 C49.1875602,23.7940007 48.3011052,23.0368503 47.4218337,23.074205 C46.5425623,23.1129964 45.7782283,23.8069312 45.4837011,24.6359175 C45.1575662,25.555417 45.3342825,26.5783602 45.6604175,27.4978597 C46.3773397,29.5207587 48.1545599,31.4315936 50.2981432,31.302289" id="Path" fill="#FAD3D0" fill-rule="nonzero"></path>
                    <path d="M93.7243816,126.109873 L31.4211053,126.109873 C30.2171356,126.109873 29.2401674,125.134342 29.2401674,123.930372 L29.2401674,83.7855978 C29.2401674,82.5816281 30.2171356,81.6060965 31.4211053,81.6060965 L93.7243816,81.6060965 C94.9283513,81.6060965 95.9053196,82.5816281 95.9053196,83.7855978 L95.9053196,123.930372 C95.9053196,125.134342 94.9283513,126.109873 93.7243816,126.109873 Z" id="Path" fill="#E3E3E3" fill-rule="nonzero"></path>
                    <path d="M62.5734618,107.058993 C60.804862,107.058993 59.3710174,105.626585 59.3710174,103.857985 C59.3710174,102.089385 60.804862,100.656977 62.5734618,100.656977 C64.340625,100.656977 65.7744695,102.089385 65.7744695,103.857985 C65.7744695,105.626585 64.340625,107.058993 62.5734618,107.058993 Z" id="Path" fill="#A1A1A1"></path>
                    <path d="M35.3577126,139.867885 C29.8292218,141.379312 23.958792,140.609232 18.2550215,141.163805 C12.5426307,141.719815 6.96672813,143.636396 2.1206783,146.7081 C1.10204523,147.353186 0.0115762658,148.235331 1.96765681e-13,149.440737 C-0.00422763231,149.907671 0.160994938,150.3588 0.333401099,150.792689 C0.912398455,152.239464 1.62932074,153.693422 2.83329043,154.683321 C4.40793336,155.976367 6.56444709,156.276641 8.60314994,156.3298 C16.189021,156.533814 23.5622578,154.054039 30.7458478,151.604434 C33.5632519,150.64327 36.3806559,149.683543 39.1980599,148.722378" id="Path" fill="#D4BBEC" fill-rule="nonzero"></path>
                    <path d="M33.1897052,138.721384 C58.4112898,131.698707 79.0224463,113.570199 103.222524,103.582135 C106.182163,102.362362 109.253867,101.250342 112.452001,101.108107 C115.651572,100.967308 119.033606,101.921289 121.192993,104.283254 C123.694319,107.023075 124.116714,111.222602 122.974524,114.751181 C120.819446,121.417552 114.213417,125.456167 108.022599,128.739067 C95.617976,135.322109 82.7521662,141.288799 69.0846678,144.517105 C64.900945,145.505567 60.6583167,146.233983 56.4199986,146.959525 C50.3354979,148.002582 44.2509971,149.04564 38.1650596,150.08726 C37.7426645,150.160533 37.3059023,150.232369 36.8935642,150.111684 C36.1996294,149.906234 35.778671,149.220919 35.4238017,148.588763 C33.6408346,145.41218 32.130844,142.208299 33.1897052,138.721384 Z" id="Path" fill="#082034" fill-rule="nonzero"></path>
                    <path d="M90.4256771,141.100589 C95.8765852,142.872062 101.778623,142.380705 107.449349,143.203944 C113.128695,144.02862 118.605464,146.205248 123.303532,149.502516 C124.290557,150.195014 125.337925,151.127444 125.293386,152.332851 C125.276146,152.798347 125.087936,153.242293 124.895415,153.666125 C124.250329,155.085602 123.464444,156.503643 122.215936,157.434636 C120.580951,158.651536 118.412944,158.849803 116.375678,158.808139 C108.786933,158.652973 101.540128,155.828385 94.4786586,153.042589 C91.710103,151.950684 88.9415474,150.857341 86.1729918,149.766872" id="Path" fill="#D4BBEC" fill-rule="nonzero"></path>
                    <path d="M92.6454064,140.060405 C67.7830013,131.855309 48.0496795,112.775694 24.3481426,101.655496 C21.4488456,100.296361 18.4346113,99.0421063 15.2450973,98.7490158 C12.05702,98.457362 8.63332102,99.2504304 6.36330657,101.510388 C3.73554934,104.126651 3.11776059,108.301754 4.09041868,111.882055 C5.93085445,118.641813 12.3386168,122.986449 18.3656488,126.55813 C30.4470105,133.720169 43.0168563,140.28597 56.5176954,144.155052 C60.6511331,145.341781 64.8520966,146.267027 69.0516233,147.192274 C75.0815288,148.519801 81.1114343,149.850202 87.139903,151.179166 C87.5579879,151.271116 87.9933135,151.363066 88.408525,151.262496 C89.1110801,151.090089 89.565083,150.424889 89.9486867,149.809974 C91.8796357,146.722467 93.539045,143.591858 92.6454064,140.060405 Z" id="Path" fill="#082034" fill-rule="nonzero"></path>
                </g>
            </g>
        </g>
    </g>
</svg>