<?xml version="1.0" encoding="utf-8"?>
<svg width="311px" height="77px" viewBox="0 0 311 77" version="1.1" xmlns:xlink="http://www.w3.org/1999/xlink" xmlns="http://www.w3.org/2000/svg">
  <desc>Created with Lunacy</desc>
  <g id="Group-6" transform="translate(0.3376465 0.3376465)">
    <g id="Group">
      <path d="M38.3796 0.791316C38.7934 -0.247119 40.2487 -0.26473 40.6948 0.745695L40.7107 0.78312L50.6875 25.3141L77.327 26.159C78.4625 26.195 78.9655 27.5949 78.1304 28.3465L78.1027 28.3707L57.3334 46.0878L65.226 73.8535C65.5444 74.9735 64.3027 75.8801 63.3364 75.253L63.3072 75.2335L39.6324 59.011L15.8915 75.2344C14.9217 75.8971 13.6612 74.9861 13.9703 73.8662L13.9802 73.8322L22.3946 46.1009L0.469174 28.3923C-0.427886 27.6678 0.0446225 26.226 1.18295 26.1606L1.2199 26.1589L28.6067 25.3137L31.451 18.1766C31.7032 17.5439 32.4118 17.2294 33.0475 17.4609L33.0834 17.4745C33.7161 17.7267 34.0306 18.4354 33.7991 19.071L33.7854 19.1069L30.6363 27.0093C30.4564 27.4607 30.0329 27.7667 29.5505 27.798L29.5078 27.8L4.68368 28.566L24.6323 44.6781C25.0191 44.9905 25.1842 45.5004 25.0571 45.9783L25.0452 46.0204L17.4215 71.1453L38.9245 56.4512C39.3399 56.1674 39.883 56.1594 40.3055 56.427L40.3436 56.4521L61.8573 71.1937L54.6956 45.9991C54.5653 45.5406 54.7058 45.0493 55.0554 44.7291L55.0888 44.6996L73.9997 28.5675L49.7915 27.8C49.3092 27.7847 48.8797 27.4949 48.684 27.0566L48.6674 27.0175L39.5586 4.62075L37.5646 9.62403C37.3125 10.2567 36.6038 10.5712 35.9682 10.3398L35.9323 10.3261C35.2996 10.0739 34.9851 9.36524 35.2165 8.7296L35.2302 8.6937L38.3796 0.791316Z" id="Stroke-3" fill="#761EC9" stroke="none" />
      <path d="M1.70379 0C2.64467 0 3.40743 0.762759 3.40743 1.70364C3.40743 2.64453 2.64467 3.40743 1.70379 3.40743C0.762759 3.40743 0 2.64453 0 1.70364C0 0.762759 0.762759 0 1.70379 0Z" transform="translate(32.77744 12.22424)" id="Clip-5" fill="#FE7073" stroke="none" />
      <path d="M8.73536 0C11.2053 0 13.1837 0.870668 14.6705 2.612C16.1573 4.35334 16.9007 6.84724 16.9007 10.094C16.9007 13.6331 16.0861 16.2262 14.4568 17.8732C12.8275 19.5201 10.7778 20.3435 8.30786 20.3435L8.30786 20.3435L0 20.3435L0 4.06302L2.49375 5.90354L2.49375 18.4041L8.30786 18.4041C10.1129 18.4041 11.5924 17.7693 12.7468 16.5C13.901 15.2305 14.4782 13.0905 14.4782 10.0798C14.4782 7.39004 13.9722 5.36311 12.9605 3.99931C11.9487 2.63566 10.5404 1.95376 8.73536 1.95376L8.73536 1.95376L0 1.95376L0 0L8.73536 0Z" transform="translate(31.61748 31.30222)" id="Clip-8" fill="#FF9100" stroke="none" />
      <path d="M8.30786 20.3435C10.7778 20.3435 12.8275 19.5201 14.4568 17.8732C16.0861 16.2262 16.9007 13.6331 16.9007 10.094C16.9007 6.84724 16.1573 4.35334 14.6705 2.612C13.1837 0.870668 11.2053 0 8.73536 0L0 0L0 1.95376L8.73536 1.95376C10.5404 1.95376 11.9487 2.63566 12.9605 3.99946C13.9722 5.36311 14.4782 7.39004 14.4782 10.0798C14.4782 13.0905 13.901 15.2305 12.7468 16.5C11.5924 17.7693 10.1129 18.4041 8.30786 18.4041L2.49375 18.4041L2.49375 5.90354L0 4.06302L0 20.3435L8.30786 20.3435Z" transform="translate(31.61748 31.30222)" id="Stroke-10" fill="none" stroke="#FF9100" stroke-width="0.675195456" />
      <path d="M0 0L13.1805 4.81868L7.55767 13.6342L0 0Z" transform="translate(62.66352 48.62038)" id="Clip-12" fill="#FE7073" stroke="none" />
      <path d="M5.28092 0L12.6004 5.26569L0 15.4399L5.28092 0Z" transform="translate(53.08012 7.822857)" id="Clip-15" fill="#FF8701" stroke="none" />
      <path d="M10.1159 0L8.57985 16.5047L0 1.63062L10.1159 0Z" transform="translate(15.98877 5.160889)" id="Clip-18" fill="#FE7073" stroke="none" />
      <path d="M7.87152 0L17.9661 14.1436L0 7.11836L7.87152 0ZM16.4336 12.9497L7.78177 0.827564L1.03535 6.9286L16.4336 12.9497Z" transform="translate(0.7409792 2.7948)" id="Path" fill="#7B0259" fill-rule="evenodd" stroke="none" />
      <path d="M14.2776 0L6.63778 15.2423L0 9.03245L14.2776 0ZM6.47471 14.3315L12.8896 1.53325L0.901256 9.11737L6.47471 14.3315Z" transform="translate(2.405174 46.80968)" id="Path" fill="#7B0259" fill-rule="evenodd" stroke="none" />
    </g>
    <g id="Group-2" transform="translate(89 0)">
      <path d="M21.1132 0C27.0036 0 31.7373 2.05978 35.3142 6.17899L35.5102 6.40821C39.0689 10.6367 40.8485 16.6764 40.8485 24.5279C40.8485 33.1282 38.8798 39.4295 34.9419 43.4315C32.935 45.4709 30.6644 46.9907 28.13 47.9907C25.7621 48.9251 23.1639 49.4059 20.3352 49.4331L20.08 49.4344L0 49.4344L0 9.87324L6.02734 14.3454L6.02734 44.7214L20.08 44.7214Q26.6237 44.7214 30.8087 40.0947C33.5987 37.0098 34.9935 31.8095 34.9935 24.4937C34.9935 18.0578 33.808 13.1843 31.4373 9.87233L31.3253 9.71823C30.5611 8.68267 29.7033 7.80888 28.7519 7.09688L28.6085 6.99138C26.5908 5.53027 24.1602 4.78273 21.317 4.74875L21.1132 4.74754L0 4.74718L0 0L21.1132 0ZM121.134 23.4961L121.134 0L115.106 0L115.106 49.3659L121.134 49.3659L121.134 32.9908L125.336 27.8305L144.761 49.3313L148.722 49.3313L129.779 23.4615L148.688 0L141.283 0L121.134 23.4961ZM172.372 4.54096L166.345 0.0688571L166.345 49.3659L172.372 49.3659L172.372 35.0205L174.301 32.922L191.832 49.3659L194.76 49.3659L178.572 29.8948L194.415 14.2076L187.011 14.2076L172.372 28.2091L172.372 4.54096ZM54.2284 8.11469L48.2011 14.6853L48.2011 8.11469L54.2284 8.11469ZM99.5367 14.6853L105.564 8.11469L99.5367 8.11469L99.5367 14.6853ZM159.643 8.11469L153.616 14.6853L153.616 8.11469L159.643 8.11469ZM201.425 14.6853L207.452 8.11469L201.425 8.11469L201.425 14.6853ZM85.9182 17.2348L91.8078 9.97635L81.6818 14.9643L81.5515 14.9125C80.2736 14.4196 78.4918 14.1734 76.2057 14.1734C72.0494 14.1734 68.502 15.2282 65.5628 17.3383C62.6239 19.448 61.1541 21.9824 61.1541 24.9407C61.1541 27.9225 62.6239 30.468 65.5628 32.5781C65.5972 32.601 65.6345 32.6267 65.6747 32.6554L65.804 32.75C65.4597 32.9562 65.1266 33.1971 64.805 33.4725C63.1979 34.8713 62.3943 36.5685 62.3943 38.5636C62.3943 40.5359 63.2036 42.1932 64.8223 43.5346C66.4033 44.8449 70.5836 46.5539 77.364 48.6623L77.8587 48.8154C81.8311 50.0537 84.1502 51.0055 84.8161 51.6706C85.505 52.3815 85.8493 53.2302 85.8493 54.2161C85.8493 55.2252 85.505 56.0738 84.8161 56.7621C84.1502 57.4499 83.094 58.0235 81.6476 58.482C78.435 58.69 75.3787 58.7975 72.4787 58.8045L72.0221 58.8048C68.3797 58.8002 64.9868 58.6353 61.8431 58.3101L61.8431 60.2709L62.0338 60.3606C65.8709 62.1405 71.0186 63.0295 77.4773 63.0278L77.8014 63.027C78.9935 63.0212 80.2296 62.9855 81.5099 62.9199C85.0457 62.2317 87.6519 61.1538 89.3282 59.6861C91.0042 58.2412 91.8424 56.6243 91.8424 54.8355L91.8424 54.2161L91.8411 54.0618C91.803 51.9118 90.9653 50.2372 89.3282 49.0389C87.714 47.8575 84.8009 46.5324 80.5891 45.0635L76.4831 43.6469C74.5107 42.9622 73.1349 42.4749 72.3558 42.1849L71.8113 41.9774C70.5659 41.4897 69.7172 40.9595 69.2656 40.387C68.7947 39.7908 68.5593 39.0683 68.5593 38.2197C68.5593 37.371 68.8578 36.6486 69.4548 36.0523C69.9599 35.5249 70.5685 35.2267 71.2805 35.1579C73.3011 35.5479 74.9429 35.743 76.2057 35.743L76.4594 35.7417C80.5062 35.6995 83.969 34.6447 86.8483 32.5781C89.7875 30.468 91.257 27.9225 91.257 24.9407C91.257 21.9593 89.4775 19.3907 85.9182 17.2348ZM54.2735 49.3659L54.2735 14.0014L48.2461 18.4735L48.2461 49.3659L54.2735 49.3659ZM105.439 14.0014L105.439 49.3659L99.412 49.3659L99.412 18.4735L105.439 14.0014ZM159.671 14.0014L159.671 49.3659L153.643 49.3659L153.643 18.4735L159.671 14.0014ZM207.53 49.3659L201.503 49.3659L201.503 18.4735L207.53 14.0014L207.53 49.3659ZM69.7995 20.4516C71.5674 19.2018 73.7027 18.5766 76.2057 18.5766L76.4276 18.5783C78.8574 18.614 80.9303 19.2385 82.6462 20.4516C84.4145 21.7015 85.2985 23.198 85.2985 24.9407C85.2985 26.7068 84.4145 28.2091 82.6462 29.4474C80.8783 30.6858 78.7314 31.3051 76.2057 31.3051C73.7027 31.3051 71.5674 30.6858 69.7995 29.4474C68.0312 28.2091 67.1472 26.7068 67.1472 24.9407C67.1472 23.198 68.0312 21.7015 69.7995 20.4516Z" transform="translate(12.97341 12.9299)" id="Shape" fill="#000000" fill-rule="evenodd" stroke="none" />
      <path d="M14.7305 0.730291C14.2193 -0.0274975 13.1865 -0.228301 12.4287 0.2829L11.9813 2.58511C12.2272 2.94922 12.5934 3.18463 12.9918 3.27404C12.8905 4.01524 12.4871 4.71175 11.8198 5.16166C10.7397 5.89025 9.31966 5.73703 8.41586 4.86893C8.50022 4.4493 8.42379 3.99722 8.16603 3.61472C7.65447 2.85657 6.62197 2.65613 5.86382 3.16733C5.10604 3.67853 4.90523 4.71139 5.41643 5.46917C5.6742 5.85167 6.06499 6.09177 6.4857 6.17072C6.95184 7.33408 6.56213 8.70798 5.48205 9.43657C4.81474 9.88685 4.01802 9.99969 3.29268 9.81619C3.35901 9.41314 3.27826 8.98521 3.03239 8.6211C2.52119 7.86295 1.48833 7.66215 0.730545 8.17335C-0.0276047 8.68491 -0.228408 9.71741 0.283154 10.4756C0.726218 11.1324 1.5608 11.3703 2.26883 11.0895C3.07024 12.0142 4.13338 13.082 5.25024 13.7558L15.9112 6.56476C15.705 5.27702 15.113 3.89087 14.556 2.80177C15.0817 2.2502 15.1736 1.3875 14.7305 0.730291ZM17.3363 9.32121L16.1866 7.61708L6.12267 14.4055L7.27233 16.1096C8.51356 14.3319 9.9729 12.8769 11.65 11.7456C13.3274 10.6144 15.223 9.80609 17.3363 9.32121Z" id="Combined-Shape" fill="#FF9100" fill-rule="evenodd" stroke="none" />
    </g>
  </g>
</svg>