<svg xmlns="http://www.w3.org/2000/svg" width="39.32" height="49.149" viewBox="0 0 39.32 49.149">
  <g id="Group_6474" data-name="Group 6474" transform="translate(195.289 -482.714)">
    <path id="Path_5534" data-name="Path 5534" d="M-163.725,490.557a10.972,10.972,0,0,0,2.512-7.843,10.765,10.765,0,0,0-7.116,3.717,10.46,10.46,0,0,0-2.559,7.612A8.915,8.915,0,0,0-163.725,490.557Z" transform="translate(-4.802)"/>
    <path id="Path_5535" data-name="Path 5535" d="M-162.447,511.738a10.383,10.383,0,0,1,1.163-4.946,11.742,11.742,0,0,1,4.05-4.417,11.217,11.217,0,0,0-8.835-4.869c-3.756-.392-7.334,2.256-9.242,2.256s-4.848-2.2-7.968-2.143a11.81,11.81,0,0,0-9.994,6.163,14.73,14.73,0,0,0-1.458,3.711c-1.8,7.126,1.01,15.9,4.519,21.061,2.03,2.981,4.448,6.336,7.624,6.217,3.061-.125,4.216-2.019,7.912-2.019s4.741,2.019,7.977,1.959c3.285-.066,5.375-3.04,7.388-6.039a27.362,27.362,0,0,0,3.343-6.989A10.845,10.845,0,0,1-162.447,511.738Z" transform="translate(0 -2.91)"/>
  </g>
</svg>
