<?xml version="1.0" encoding="UTF-8"?>
<svg width="400px" height="302px" viewBox="0 0 400 302" version="1.1" xmlns="http://www.w3.org/2000/svg" xmlns:xlink="http://www.w3.org/1999/xlink">
    <!-- Generator: Sketch 54.1 (76490) - https://sketchapp.com -->
    <title>vectors-2-1</title>
    <desc>Created with Sketch.</desc>
    <defs>
        <linearGradient x1="0%" y1="0%" x2="100%" y2="0%" id="linearGradient-1">
            <stop stop-color="#E3FF01" offset="0%"></stop>
            <stop stop-color="#FD6200" offset="100%"></stop>
        </linearGradient>
    </defs>
    <g id="Page-1" stroke="none" stroke-width="1" fill="none" fill-rule="evenodd">
        <g id="vectors-2-1" transform="translate(0.000000, -1.000000)" fill="url(#linearGradient-1)" fill-rule="nonzero">
            <path d="M151.2,1.15 C150.661,1.191 147.524,1.421 144.229,1.661 C93.722,5.334 48.123,30.55 22.509,68.974 C18.006,75.727 10.689,89.699 7.962,96.752 C-2.7,124.321 -2.335,153 8.907,170.925 C15.906,182.086 26.3,188.752 41.845,192.049 C44.177,192.544 46.298,192.995 46.558,193.052 C53.584,194.597 80.472,193.133 92.817,190.534 C94.435,190.194 97.327,189.671 99.244,189.372 C101.162,189.074 104.985,188.341 107.741,187.744 C110.497,187.147 113.193,186.591 113.732,186.509 C114.988,186.317 121.548,184.873 125.024,184.024 C126.499,183.664 128.851,183.166 130.251,182.916 C131.65,182.667 134.217,182.133 135.955,181.729 C137.692,181.325 140.682,180.684 142.6,180.306 C144.517,179.928 148.683,179.09 151.859,178.443 C158.079,177.178 171.8,174.807 175.17,174.415 C176.309,174.283 179.397,173.892 182.033,173.546 C217.994,168.829 247.491,174.727 268.979,190.931 C286.621,204.234 298.182,220.363 317.034,257.972 C332.517,288.86 338.171,297.04 346.908,301.192 C360.115,307.468 375.86,291.258 388.803,258.059 C392.081,249.652 396.938,231.642 397.699,225.074 C397.769,224.475 398.117,221.73 398.473,218.974 C403.11,183.083 394.506,148.373 373.467,118.104 C353.067,88.753 330.876,66.608 301.532,46.318 C293.086,40.479 289.165,38.16 275.715,31.052 C257.092,21.211 245.217,16.324 227.567,11.237 C225.53,10.649 223.275,9.965 222.556,9.716 C219.806,8.763 206.396,5.699 202.512,5.137 C201.554,4.998 199.691,4.655 198.373,4.374 C196.23,3.917 189.883,2.992 186.39,2.628 C185.671,2.553 183.956,2.348 182.578,2.172 C175.653,1.291 157.258,0.693 151.205,1.152" id="Path"></path>
        </g>
    </g>
</svg>