<?xml version="1.0" encoding="UTF-8" standalone="no"?>
<svg width="32px" height="32px" viewBox="0 0 32 32" version="1.1" xmlns="http://www.w3.org/2000/svg" xmlns:xlink="http://www.w3.org/1999/xlink">
    <!-- Generator: Sketch 50 (54983) - http://www.bohemiancoding.com/sketch -->
    <title>Artboard</title>
    <desc>Created with Sketch.</desc>
    <defs></defs>
    <g id="Artboard" stroke="none" stroke-width="1" fill="none" fill-rule="evenodd">
        <g id="right-arrow" transform="translate(0.000000, 5.000000)" fill="#FFFFFF" fill-rule="nonzero">
            <path d="M21.205,1.007 C20.776,0.563 20.062,0.563 19.618,1.007 C19.189,1.436 19.189,2.15 19.618,2.578 L27.665,10.625 L1.111,10.625 C0.492,10.626 0,11.118 0,11.737 C0,12.356 0.492,12.864 1.111,12.864 L27.665,12.864 L19.618,20.896 C19.189,21.34 19.189,22.055 19.618,22.483 C20.062,22.927 20.777,22.927 21.205,22.483 L31.157,12.531 C31.601,12.102 31.601,11.388 31.157,10.96 L21.205,1.007 Z" id="Shape"></path>
        </g>
    </g>
</svg>