<?xml version="1.0" encoding="UTF-8"?>
<svg width="201px" height="372px" viewBox="0 0 201 372" version="1.1" xmlns="http://www.w3.org/2000/svg" xmlns:xlink="http://www.w3.org/1999/xlink">
    <!-- Generator: Sketch 54.1 (76490) - https://sketchapp.com -->
    <title>call-icon</title>
    <desc>Created with Sketch.</desc>
    <g id="Page-1" stroke="none" stroke-width="1" fill="none" fill-rule="evenodd">
        <g id="arrow-left" transform="translate(-187.500000, -633.000000) rotate(-90.000000) translate(187.500000, 633.000000) translate(-1405.500000, -1106.500000)" fill="#DA3581" fill-rule="nonzero">
            <g id="call-icon" transform="translate(399.085366, 761.585366) rotate(90.000000) translate(-399.085366, -761.585366) translate(299.085366, 576.085366)">
                <path d="M160,0 L40,0 C26.097561,0 0,8.29268293 0,39.5121951 L0,330.97561 C0,344.878049 8.29268293,370.97561 40,370.97561 L160,370.97561 C173.902439,370.97561 200,362.682927 200,330.97561 L200,40 C199.512195,26.097561 191.219512,0 160,0 Z M10.9756098,50.7317073 L188.780488,50.7317073 L188.780488,291.463415 L10.9756098,291.463415 L10.9756098,50.7317073 Z M188.780488,331.219512 C188.780488,359.02439 162.682927,360.243902 159.756098,360.243902 L40.2439024,360.243902 C12.4390244,360.243902 11.2195122,334.146341 11.2195122,331.219512 L11.2195122,302.195122 L189.02439,302.195122 L189.02439,331.219512 L188.780488,331.219512 Z M10.9756098,40 C10.9756098,11.7073171 37.0731707,10.9756098 40,10.9756098 L160,10.9756098 C187.804878,10.9756098 189.02439,37.0731707 189.02439,40 L10.9756098,40 Z" id="Shape"></path>
                <path d="M100,353.414634 C111.219512,353.414634 120.97561,344.390244 120.97561,332.682927 C120.97561,321.463415 111.95122,311.95122 100,311.95122 C88.0487805,311.95122 79.0243902,320.97561 79.0243902,332.682927 C79.0243902,343.902439 88.2926829,353.414634 100,353.414634 Z M100,322.682927 C105.609756,322.682927 110,327.073171 110,332.682927 C110,338.292683 105.121951,342.682927 100,342.682927 C94.3902439,342.682927 90,338.292683 90,332.682927 C90,327.073171 94.3902439,322.682927 100,322.682927 Z" id="Shape"></path>
                <path d="M111.219512,22.4390244 L84.8780488,22.4390244 C82.195122,22.4390244 80.4878049,24.3902439 80.4878049,26.8292683 C80.4878049,29.5121951 82.195122,31.2195122 84.8780488,31.2195122 L111.463415,31.2195122 C114.146341,31.2195122 115.853659,29.5121951 115.853659,26.8292683 C115.609756,24.3902439 113.414634,22.4390244 111.219512,22.4390244 Z" id="Path"></path>
            </g>
        </g>
    </g>
</svg>