<?xml version="1.0" encoding="UTF-8"?>
<svg width="150px" height="150px" viewBox="0 0 150 150" version="1.1" xmlns="http://www.w3.org/2000/svg" xmlns:xlink="http://www.w3.org/1999/xlink">
    <!-- Generator: Sketch 54.1 (76490) - https://sketchapp.com -->
    <title>close-icon</title>
    <desc>Created with Sketch.</desc>
    <g id="Page-1" stroke="none" stroke-width="1" fill="none" fill-rule="evenodd">
        <g id="close-icon" fill="#646483" fill-rule="nonzero">
            <path d="M146.3,133.4 L88,75 L146.4,16.6 C150,13 150,7.2 146.4,3.6 C142.8,7.10542736e-15 137,7.10542736e-15 133.4,3.6 L75,62 L16.6,3.7 C13,0.1 7.2,0.1 3.6,3.7 C7.10542736e-15,7.3 7.10542736e-15,13.1 3.6,16.7 L62,75 L3.6,133.4 C7.10542736e-15,137 7.10542736e-15,142.8 3.6,146.4 C7.2,150 13,150 16.6,146.4 L75,88 L133.4,146.4 C137,150 142.8,150 146.4,146.4 C150,142.8 149.9,136.9 146.3,133.4 Z" id="Path"></path>
        </g>
    </g>
</svg>