<?xml version="1.0" encoding="UTF-8"?>
<svg width="40px" height="40px" viewBox="0 0 40 40" version="1.1" xmlns="http://www.w3.org/2000/svg" xmlns:xlink="http://www.w3.org/1999/xlink">
    <!-- Generator: Sketch 54.1 (76490) - https://sketchapp.com -->
    <title>feature-no-contract</title>
    <desc>Created with Sketch.</desc>
    <g id="Page-1" stroke="none" stroke-width="1" fill="none" fill-rule="evenodd">
        <g id="feature-no-contract" fill="#000000" fill-rule="nonzero">
            <path d="M23.3499524,14.1439435 L28.3320729,14.1439435 C28.6685605,14.1438653 28.9912353,14.0101213 29.2291127,13.7721334 C29.46699,13.5341455 29.6005843,13.2114086 29.6005061,12.8749211 C29.6005843,12.5384336 29.46699,12.2156967 29.2291127,11.9777088 C28.9912353,11.7397209 28.6685605,11.6059769 28.3320729,11.6058987 L23.3499524,11.6058987 C22.6490908,11.6058988 22.0809302,12.1740594 22.0809302,12.8749211 C22.0809302,13.5757828 22.6490908,14.1439434 23.3499524,14.1439435 L23.3499524,14.1439435 Z" id="Path"></path>
            <path d="M11.7305033,14.1439435 L16.7126238,14.1439435 C17.4133508,14.1436184 17.9813211,13.5756481 17.9816462,12.8749211 C17.9813211,12.1741941 17.4133508,11.6062238 16.7126238,11.6058987 L11.7305033,11.6058987 C11.0296416,11.6058988 10.461481,12.1740594 10.461481,12.8749211 C10.461481,13.5757828 11.0296416,14.1439434 11.7305033,14.1439435 L11.7305033,14.1439435 Z" id="Path"></path>
            <path d="M20.0309935,0.130496031 C9.05783854,0.130496031 0.130496031,9.05783854 0.130496031,20.0309935 C0.130496031,31.0047377 9.05783854,39.9314911 20.0309935,39.9314911 C31.0041486,39.9314911 39.9314911,31.0047377 39.9314911,20.0309935 C39.9314911,9.05783854 31.0041486,0.130496031 20.0309935,0.130496031 Z M20.0309935,36.4125168 C10.9990775,36.4125168 3.65005943,29.0640879 3.65005943,20.0309935 C3.65005943,10.9984883 10.9990775,3.65005943 20.0309935,3.65005943 C29.0634988,3.65005943 36.4125168,10.9984883 36.4125168,20.0309935 C36.4125168,29.0640879 29.0634988,36.4125168 20.0309935,36.4125168 Z" id="Shape"></path>
            <path d="M30.8206293,24.8879203 C30.1699581,24.6277914 29.431598,24.944288 29.1713126,25.5948966 C27.4147713,29.9878702 22.4126198,32.1332485 18.0193516,30.376118 C17.3687644,30.1161326 16.6305626,30.4324295 16.3700349,31.0827997 C16.1100873,31.7338743 16.4267684,32.4724453 17.0776003,32.733 C18.3858002,33.257501 19.7821846,33.5271594 21.1916129,33.5274646 C25.6055012,33.5274646 29.7910951,30.8801331 31.5279001,26.537237 C31.6531299,26.2247596 31.6489463,25.8753068 31.5162717,25.565917 C31.3835971,25.2565271 31.1333251,25.0126036 30.8206293,24.8879203 L30.8206293,24.8879203 Z" id="Path"></path>
            <path d="M25.8075786,24.0271768 C30.1625522,24.0271768 33.7056815,20.4849312 33.7056815,16.1299576 L6.35689472,16.1299576 C6.35689472,20.4849312 9.89972941,24.0271768 14.2541139,24.0271768 C16.5332286,24.0271768 18.5881729,23.0559681 20.030699,21.5076902 C21.4741088,23.0559681 23.5290531,24.0271768 25.8075786,24.0271768 Z" id="Path"></path>
        </g>
    </g>
</svg>