<?xml version="1.0" encoding="UTF-8"?>
<svg width="23px" height="41px" viewBox="0 0 23 41" version="1.1" xmlns="http://www.w3.org/2000/svg" xmlns:xlink="http://www.w3.org/1999/xlink">
    <!-- Generator: Sketch 54.1 (76490) - https://sketchapp.com -->
    <title>Path</title>
    <desc>Created with Sketch.</desc>
    <g id="Page-1" stroke="none" stroke-width="1" fill="none" fill-rule="evenodd">
        <g id="feature-cost" transform="translate(-236.000000, -70.000000)" fill="#000000" fill-rule="nonzero">
            <path d="M243.302477,84.0185802 C243.302477,83.3742527 244.09711,80.8858155 247.865944,80.8858155 C252.066151,80.8858155 252.3613,83.3742527 252.3613,83.9074892 C252.3613,85.4405442 253.632714,86.6847628 255.199278,86.6847628 C256.765841,86.6847628 258.037255,85.4405442 258.037255,83.9074892 C258.037255,81.5079248 257.060991,79.3527605 255.244685,77.7530509 C254.245717,76.8643234 253.065119,76.2199959 251.680186,75.8200685 C251.475851,75.7534139 251.157998,74.9979955 251.157998,74.9979955 L251.157998,73.7982133 C251.180702,71.7763582 249.023839,70.1766486 246.798865,71.0653761 C245.663674,71.5097399 244.937152,72.6206493 244.937152,73.8204315 L244.937152,75.0202137 C244.937152,75.0202137 244.664706,75.7311958 244.460372,75.7756321 C240.146646,77.0198507 237.603818,80.5747609 237.603818,84.0185802 C237.603818,95.4609474 253.178638,90.3952003 253.178638,97.5494571 C253.178638,98.4381846 252.611042,100.882185 247.979463,100.882185 C243.325181,100.882185 242.575955,97.6161117 242.575955,96.3274567 C242.575955,94.7944017 241.304541,93.5501831 239.737977,93.5501831 C238.171414,93.5501831 236.9,94.7944017 236.9,96.3274567 C236.9,99.1047303 237.989783,101.637604 239.919608,103.481713 C241.168318,104.637059 242.689474,105.48135 244.39226,105.947932 C244.619298,106.014587 245.232301,106.947751 245.232301,106.947751 L245.232301,107.925351 C245.232301,109.458406 246.458308,110.769279 248.024871,110.813716 C249.614138,110.835934 250.908256,109.613934 250.908256,108.080879 L250.908256,106.792224 C250.908256,106.792224 251.475851,106.081242 251.70289,106.036805 C253.224045,105.659096 254.540867,104.99255 255.698762,104.126041 C257.764809,102.481895 258.9,100.171203 258.9,97.5938935 C258.9,85.4627624 243.302477,89.4176 243.302477,84.0185802 Z" id="Path"></path>
        </g>
    </g>
</svg>