<?xml version="1.0" encoding="UTF-8"?>
<svg width="65px" height="65px" viewBox="0 0 65 65" version="1.1" xmlns="http://www.w3.org/2000/svg" xmlns:xlink="http://www.w3.org/1999/xlink">
    <!-- Generator: Sketch 54.1 (76490) - https://sketchapp.com -->
    <title>Group</title>
    <desc>Created with Sketch.</desc>
    <g id="Page-1" stroke="none" stroke-width="1" fill="none" fill-rule="evenodd">
        <g id="logo1" transform="translate(-32.000000, -134.000000)">
            <g id="Group-2" transform="translate(32.000000, 134.000000)">
                <g id="Group">
                    <path d="M32.4886673,0.278567752 C50.3888453,0.278567752 64.9212263,14.6923581 64.9212263,32.4457447 C64.9212263,50.199453 50.3888453,64.6129216 32.4886673,64.6129216 C14.5888137,64.6129216 0.0561083271,50.199453 0.0561083271,32.4457447 C0.0561083271,14.6923581 14.5888137,0.278567752 32.4886673,0.278567752 Z M32.4886673,5.63987113 C47.4053742,5.63987113 59.5156917,17.651095 59.5156917,32.4457447 C59.5156917,47.2403944 47.4053742,59.2516183 32.4886673,59.2516183 C17.5719605,59.2516183 5.46164294,47.2403944 5.46164294,32.4457447 C5.46164294,17.651095 17.5719605,5.63987113 32.4886673,5.63987113 L32.4886673,5.63987113 Z" id="Shape" fill="#0659A0"></path>
                    <ellipse id="Oval" stroke="#033B76" stroke-width="1.42382812" cx="32.4886673" cy="32.4383462" rx="25.9460472" ry="25.7337416"></ellipse>
                    <path d="M21.850788,34.7617814 C21.850788,34.2840989 21.6594359,33.8260383 21.318894,33.4879612 C20.9783521,33.1502059 20.5161882,32.9604195 20.0345647,32.9604195 L20.0345647,32.9604195 C19.0314256,32.9604195 18.2183414,33.7668507 18.2183414,34.7617814 L18.2183414,39.3938549 C18.2183414,39.8715375 18.4096935,40.3299198 18.7502353,40.6676751 C19.0911015,41.0054305 19.5529412,41.1952168 20.0345647,41.1952168 L20.0345647,41.1952168 C21.0377037,41.1952168 21.850788,40.3887857 21.850788,39.3938549 L21.850788,34.7617814 Z" id="Path" fill="#866EBB"></path>
                    <path d="M46.7482906,25.4969911 C46.7482906,25.0193086 46.5569385,24.5615696 46.2163966,24.2238143 C45.876179,23.8860589 45.4143394,23.6962726 44.9327159,23.6962726 C44.9323916,23.6962726 44.9317429,23.6962726 44.9314186,23.6962726 C44.4497951,23.6962726 43.9879555,23.8860589 43.6477379,24.2238143 C43.307196,24.5615696 43.1158439,25.0193086 43.1158439,25.4969911 C43.1158439,26.8711729 43.1158439,28.7555262 43.1158439,30.129708 C43.1158439,30.6073905 43.307196,31.0657728 43.6477379,31.4035282 C43.9882798,31.7412835 44.4504438,31.9310699 44.9320673,31.9310699 L44.9320673,31.9310699 C45.9352063,31.9310699 46.7482906,31.1246387 46.7482906,30.129708 L46.7482906,25.4969911 L46.7482906,25.4969911 Z" id="Path" fill="#197483"></path>
                    <path d="M28.0778393,35.2764563 C28.0778393,34.2815255 27.2647551,33.4750944 26.261616,33.4750944 C26.261616,33.4750944 26.261616,33.4750944 26.261616,33.4750944 C25.258477,33.4750944 24.4453927,34.2815255 24.4453927,35.2764563 C24.4453927,37.9411852 24.4453927,42.9052239 24.4453927,45.5699529 C24.4453927,46.5648837 25.258477,47.3713148 26.261616,47.3713148 C26.261616,47.3713148 26.261616,47.3713148 26.261616,47.3713148 C27.2647551,47.3713148 28.0778393,46.5648837 28.0778393,45.5699529 C28.0778393,42.9052239 28.0778393,37.9411852 28.0778393,35.2764563 Z" id="Path" fill="#8B3C7A"></path>
                    <path d="M36.8956035,29.3576957 C36.8956035,30.3526265 37.7086877,31.1590576 38.7118268,31.1590576 C38.7118268,31.1590576 38.7118268,31.1590576 38.7118268,31.1590576 C39.7149658,31.1590576 40.5280501,30.3526265 40.5280501,29.3576957 C40.5280501,26.6929668 40.5280501,21.728928 40.5280501,19.0641991 C40.5280501,18.0692683 39.7149658,17.2628372 38.7118268,17.2628372 C38.7118268,17.2628372 38.7118268,17.2628372 38.7118268,17.2628372 C37.7086877,17.2628372 36.8956035,18.0692683 36.8956035,19.0641991 C36.8956035,21.728928 36.8956035,26.6929668 36.8956035,29.3576957 Z" id="Path" fill="#5587C6"></path>
                    <path d="M34.3048906,21.8949107 C34.3048906,21.4172281 34.1135385,20.9591675 33.7729967,20.6210905 C33.4324548,20.2833351 32.9702908,20.0935487 32.4886673,20.0935487 L32.4886673,20.0935487 C31.4855283,20.0935487 30.672444,20.8999799 30.672444,21.8949107 L30.672444,42.4819039 C30.672444,42.9595865 30.8637961,43.4179687 31.204338,43.7557241 C31.5452042,44.0934795 32.0070438,44.2832658 32.4886673,44.2832658 L32.4886673,44.2832658 C33.4918064,44.2832658 34.3048906,43.4768347 34.3048906,42.4819039 L34.3048906,21.8949107 L34.3048906,21.8949107 Z" id="Path" fill="#CC548C"></path>
                    <ellipse id="Oval" fill="#8B3C7A" cx="26.261616" cy="30.6443828" rx="1.8162233" ry="1.80136191"></ellipse>
                    <ellipse id="Oval" fill="#5587C6" cx="38.7118268" cy="33.9897692" rx="1.8162233" ry="1.80136191"></ellipse>
                </g>
            </g>
        </g>
    </g>
</svg>