<?xml version="1.0" encoding="UTF-8"?>
<svg width="270px" height="65px" viewBox="0 0 270 65" version="1.1" xmlns="http://www.w3.org/2000/svg" xmlns:xlink="http://www.w3.org/1999/xlink">
    <!-- Generator: Sketch 54.1 (76490) - https://sketchapp.com -->
    <title>Group 2</title>
    <desc>Created with Sketch.</desc>
    <g id="Page-1" stroke="none" stroke-width="1" fill="none" fill-rule="evenodd">
        <g id="logo1" transform="translate(-32.000000, -134.000000)">
            <g id="Group-2" transform="translate(32.000000, 134.000000)">
                <polygon id="Path" fill="#FFFFFF" fill-rule="nonzero" points="75.8325122 14.7312804 72.5892563 14.7312804 72.5892563 13.5652202 80.4136111 13.5652202 80.4136111 14.7312804 77.1703552 14.7312804 77.1703552 22.9474207 75.8325122 22.9474207 75.8325122 14.7312804"></polygon>
                <path d="M84.8458447,15.7767136 C85.7559023,15.7767136 86.478824,16.0382328 87.0149342,16.5609494 C87.5510444,17.083666 87.8189373,17.8498882 87.8189373,18.8592942 L87.8189373,22.9474207 L86.521635,22.9474207 L86.521635,19.0069415 C86.521635,18.3188856 86.3549316,17.8006724 86.0215249,17.4519802 C85.6884425,17.1036097 85.2107109,16.9292636 84.5893031,16.9292636 C83.8864896,16.9292636 83.3325414,17.1325601 82.9271345,17.5391532 C82.5217275,17.9457463 82.319024,18.5289373 82.319024,19.2884043 L82.319024,22.9474207 L81.0217216,22.9474207 L81.0217216,13.0022946 L82.319024,13.0022946 L82.319024,16.8488456 C82.5891872,16.5094819 82.9427021,16.245711 83.379893,16.0581764 C83.8167596,15.8706418 84.3055182,15.7767136 84.8458447,15.7767136 L84.8458447,15.7767136 Z" id="Path" fill="#FFFFFF" fill-rule="nonzero"></path>
                <path d="M96.0623209,19.43573 C96.0623209,19.5341615 96.0532397,19.6634736 96.0350775,19.8243095 L90.2244602,19.8243095 C90.3055416,20.4499611 90.5825157,20.9524124 91.0553824,21.3323067 C91.5285734,21.7118794 92.1162514,21.9019874 92.819065,21.9019874 C93.6749602,21.9019874 94.3641521,21.6160212 94.8866406,21.0440888 L95.6027515,21.874967 C95.2784259,22.250358 94.8752892,22.5363242 94.3933414,22.7328656 C93.9113935,22.9294071 93.3730131,23.0278386 92.7785243,23.0278386 C92.0215483,23.0278386 91.3505187,22.8737579 90.7647867,22.5652746 C90.179379,22.2571131 89.7266205,21.8260729 89.4068354,21.2718324 C89.0870504,20.7179137 88.9271579,20.0925837 88.9271579,19.395521 C88.9271579,18.7074651 89.0825098,18.0866386 89.3932138,17.5323981 C89.704242,16.9784793 90.1320274,16.5474392 90.6772188,16.2392776 C91.2220858,15.9307944 91.8370071,15.7767136 92.5216584,15.7767136 C93.2063097,15.7767136 93.8166905,15.9307944 94.3528007,16.2392776 C94.8889109,16.5474392 95.3076152,16.9784793 95.6095623,17.5323981 C95.9111851,18.0866386 96.0623209,18.7209753 96.0623209,19.43573 L96.0623209,19.43573 Z M92.5216584,16.8623558 C91.8999262,16.8623558 91.379708,17.0498905 90.9610037,17.4252814 C90.541975,17.8006724 90.2964605,18.2921868 90.2244602,18.8995031 L94.8188565,18.8995031 C94.7468563,18.300872 94.5013418,17.8116092 94.0826375,17.4320365 C93.6636088,17.0521422 93.1433905,16.8623558 92.5216584,16.8623558 Z" id="Shape" fill="#FFFFFF" fill-rule="nonzero"></path>
                <g id="Group" transform="translate(68.496916, 20.825888)" fill="#FFFFFF" fill-rule="nonzero">
                    <g transform="translate(0.112638, 0.004278)" id="Path">
                        <polygon points="23.4114615 25.9730761 23.3817316 12.2912985 16.5438646 23.6141489 14.819533 23.6141489 7.98166594 12.468218 7.98166594 25.9730761 4.29516373 25.9730761 4.29516373 5.33246336 7.47625838 5.33246336 15.7411585 19.0142409 23.8574093 5.33246336 27.038504 5.33246336 27.0682339 25.9730761"></polygon>
                    </g>
                    <g transform="translate(29.518922, 11.468682)" id="Shape">
                        <path d="M6.72975681,0.0334489317 C8.86489942,0.0334489317 10.4865267,0.542762363 11.6216658,1.56138923 C12.7297778,2.55321012 13.2973474,4.08115041 13.2973474,6.11840414 L13.2973474,14.5086728 L10.108147,14.5086728 L10.108147,12.7662847 C9.70274019,13.382822 9.10814352,13.8653295 8.32435699,14.2138071 C7.56759758,14.5354787 6.64867544,14.6963146 5.56759057,14.6963146 C4.4865057,14.6963146 3.54055645,14.5086728 2.72974279,14.1601952 C1.91892914,13.7849116 1.29730534,13.2755981 0.837844275,12.6322549 C0.405410328,11.9621056 0.189193355,11.2383444 0.189193355,10.4073593 C0.189193355,9.12067278 0.675681545,8.10204592 1.64865793,7.32467279 C2.59460719,6.54729966 4.108126,6.14521011 6.18921437,6.14521011 L9.91895717,6.14521011 L9.91895717,5.93076235 C9.91895717,4.93894145 9.62165883,4.16156832 9.00003503,3.62544892 C8.40543835,3.08932952 7.51354333,2.82126982 6.32434998,2.82126982 C5.51353633,2.82126982 4.70272268,2.95529967 3.91893615,3.1965534 C3.13514962,3.43780713 2.4864987,3.78628474 1.94595627,4.24198623 L0.621627302,1.80264296 C1.37838671,1.23971758 2.29730885,0.784016093 3.35136659,0.489150423 C4.40542434,0.194284752 5.54056345,0.0334489317 6.72975681,0.0334489317 Z M6.27029574,12.2569713 C7.10813651,12.2569713 7.86489592,12.0693295 8.51354684,11.6940459 C9.18922488,11.2919564 9.64868595,10.755837 9.91895717,10.0320758 L9.91895717,8.37010562 L6.43245847,8.37010562 C4.4865057,8.37010562 3.51352932,9.0134489 3.51352932,10.2733295 C3.51352932,10.8898668 3.75677342,11.3723743 4.24326161,11.7208519 C4.7297498,12.0693295 5.40542784,12.2569713 6.27029574,12.2569713 Z"></path>
                    </g>
                    <g transform="translate(35.953340, 4.441655)" id="Path">
                        <path d="M13.0519298,9.31217744 C14.0249062,7.81104312 15.7276149,7.06047596 18.187083,7.06047596 L18.187083,10.2503864 C17.8897846,10.1967745 17.6465405,10.1699685 17.4032964,10.1699685 C16.0789675,10.1699685 15.0519369,10.5452521 14.3222046,11.3226252 C13.5924723,12.0731924 13.2140926,13.1722371 13.2140926,14.5929535 L13.2140926,21.5356998 L9.83570237,21.5356998 L9.83570237,7.22131178 L13.0519298,7.22131178 L13.0519298,9.31217744 Z"></path>
                    </g>
                    <g transform="translate(49.347014, 1.928141)" id="Path">
                        <polygon points="12.1989525 17.9106462 9.68543016 20.2695715 9.68543016 24.0492133 6.30703994 24.0492133 6.30703994 4.15918352 9.68543016 4.15918352 9.68543016 16.1682581 16.6854547 9.73482529 20.7395229 9.73482529 14.7124748 15.7393626 21.3070925 24.0492133 17.19897 24.0492133"></polygon>
                    </g>
                    <g transform="translate(69.681133, 11.468682)" id="Shape">
                        <path d="M14.7838391,7.43189667 C14.7838391,7.6731504 14.756812,7.99482204 14.7297848,8.42371756 L3.40542084,8.42371756 C3.59461069,9.46915039 4.13515312,10.3269414 4.9729939,10.9434787 C5.81083467,11.5600161 6.83786529,11.8548817 8.08111289,11.8548817 C9.67571307,11.8548817 10.9730149,11.3455683 12.0000455,10.3001355 L13.8108627,12.3641952 C13.1622118,13.1415683 12.3513981,13.7044937 11.3513946,14.1065832 C10.3513911,14.5086728 9.24327912,14.6963146 8.00003153,14.6963146 C6.40543135,14.6963146 5.02704814,14.3746429 3.81082766,13.7581056 C2.59460719,13.1415683 1.67568505,12.2569713 1.00000701,11.1311205 C0.351356085,10.0320758 0.0270306245,8.77219517 0.0270306245,7.35147876 C0.0270306245,5.95756832 0.351356085,4.69768772 0.972979884,3.59864295 C1.6216308,2.47279221 2.51352582,1.5881952 3.64866493,0.971657884 C4.78380404,0.355120572 6.05407876,0.0334489317 7.48651621,0.0334489317 C8.89192654,0.0334489317 10.1351741,0.355120572 11.2432861,0.971657884 C12.3513981,1.5881952 13.216266,2.44598624 13.8378898,3.57183698 C14.4595136,4.67088175 14.7838391,5.95756832 14.7838391,7.43189667 Z M7.48651621,2.71404594 C6.40543135,2.71404594 5.48650921,3.03571758 4.7297498,3.65225489 C4.00001751,4.29559817 3.54055645,5.15338921 3.37839372,6.19882205 L11.5676116,6.19882205 C11.432476,5.15338921 10.9730149,4.32240414 10.2432826,3.67906086 C9.51355034,3.03571758 8.5946282,2.71404594 7.48651621,2.71404594 Z"></path>
                    </g>
                    <g transform="translate(75.756951, 3.684898)" id="Path">
                        <path d="M19.2757396,21.5150834 C18.8703328,21.8367551 18.3838446,22.0780088 17.8162751,22.2388446 C17.2487055,22.3996804 16.6541088,22.4800983 16.032485,22.4800983 C14.4378849,22.4800983 13.2216644,22.0780088 12.3567965,21.2470237 C11.4919286,20.4160386 11.0594946,19.236576 11.0594946,17.6550237 L11.0594946,10.7658894 L8.68110793,10.7658894 L8.68110793,8.08529242 L11.0594946,8.08529242 L11.0594946,4.81496407 L14.4378849,4.81496407 L14.4378849,8.08529242 L18.3027633,8.08529242 L18.3027633,10.7658894 L14.4378849,10.7658894 L14.4378849,17.5746058 C14.4378849,18.271561 14.6000476,18.8076804 14.9514002,19.182964 C15.3027528,19.5314416 15.7892409,19.7190834 16.4378919,19.7190834 C17.1946513,19.7190834 17.8162751,19.5314416 18.3297904,19.1293521 L19.2757396,21.5150834 Z"></path>
                    </g>
                    <g transform="translate(88.455141, 0.004278)" id="Path">
                        <path d="M15.0395362,26.267942 C13.434124,26.267942 11.8881714,26.0320493 10.3719488,25.5897504 C8.88545592,25.1474516 7.69626166,24.5282332 6.83409582,23.7910684 L8.17193936,20.8129229 C9.0341052,21.4911145 10.0746502,22.0218731 11.3233042,22.4346853 C12.5422283,22.8769842 13.7908823,23.0833903 15.0395362,23.0833903 C16.5854888,23.0833903 17.7449532,22.8474976 18.4881996,22.3462256 C19.2611759,21.8449535 19.647664,21.1962486 19.647664,20.4001106 C19.647664,19.8103788 19.439555,19.3091068 19.023337,18.9552678 C18.5773892,18.5424555 18.0422517,18.2475896 17.3881949,18.0411835 C16.7341381,17.8347773 15.8422424,17.569398 14.7125078,17.3040187 C13.1368254,16.9206931 11.8584416,16.566854 10.8773563,16.1835283 C9.89627105,15.8002027 9.0341052,15.2399575 8.3503185,14.4438195 C7.63680195,13.6476816 7.28004367,12.5566778 7.28004367,11.2002947 C7.28004367,10.0503177 7.60707209,9.01828706 8.23139908,8.07471619 C8.85572607,7.16063192 9.77735162,6.42346718 11.0557355,5.86322197 C12.3043894,5.30297677 13.850342,5.03759747 15.6638632,5.03759747 C16.9422471,5.03759747 18.190901,5.18503041 19.4098251,5.5093829 C20.6287493,5.83373539 21.6990241,6.27603423 22.5909198,6.86576602 L21.3719957,9.84391157 C20.4503701,9.31315296 19.4990147,8.9003407 18.5179295,8.6349614 C17.5368442,8.36958209 16.5557589,8.22214914 15.6341334,8.22214914 C14.1179107,8.22214914 12.9881761,8.48752845 12.2449297,8.98880047 C11.5016833,9.49007249 11.1151952,10.1682641 11.1151952,11.0233752 C11.1151952,11.6131069 11.3233042,12.0848924 11.769252,12.468218 C12.18547,12.8515437 12.7206074,13.1464096 13.3746643,13.3528157 C14.0287211,13.5592219 14.9206168,13.8246012 16.0503514,14.0899805 C17.5963039,14.4438195 18.8746877,14.7976586 19.855773,15.1809843 C20.8368583,15.5643099 21.6990241,16.1540417 22.4125407,16.9501797 C23.0963274,17.7463176 23.4530856,18.8078348 23.4530856,20.1347313 C23.4530856,21.2847083 23.1557871,22.316739 22.5314601,23.2308232 C21.9071331,24.1449075 20.9557777,24.8820723 19.6773939,25.4423175 C18.39901,26.0025627 16.8530575,26.267942 15.0395362,26.267942 Z"></path>
                    </g>
                    <g transform="translate(112.462273, 11.468682)" id="Shape">
                        <path d="M15.3243815,0.194284752 L15.3243815,19.709031 L11.9459913,19.709031 L11.9459913,12.7662847 C10.8108522,14.0529713 9.27030625,14.6963146 7.32435348,14.6963146 C5.91894315,14.6963146 4.67569556,14.4014489 3.56758357,13.7849116 C2.45947158,13.1683743 1.59460368,12.3105832 0.972979884,11.2115384 C0.351356085,10.1124937 0.0270306245,8.82580711 0.0270306245,7.35147876 C0.0270306245,5.90395638 0.351356085,4.61726981 0.972979884,3.51822504 C1.59460368,2.41918027 2.45947158,1.56138923 3.56758357,0.944851914 C4.67569556,0.328314602 5.91894315,0.0334489317 7.32435348,0.0334489317 C8.32435699,0.0334489317 9.216252,0.194284752 10.0540928,0.542762363 C10.8649064,0.891239974 11.5405845,1.4005534 12.108154,2.07070266 L12.108154,0.194284752 L15.3243815,0.194284752 Z M7.70273319,11.8280758 C8.94598078,11.8280758 9.97301141,11.4259862 10.7838251,10.5950011 C11.5946387,9.76401606 12.0000455,8.69177726 12.0000455,7.35147876 C12.0000455,6.01118026 11.5946387,4.93894145 10.7838251,4.10795638 C9.97301141,3.27697131 8.94598078,2.87488176 7.70273319,2.87488176 C6.45948559,2.87488176 5.43245496,3.27697131 4.64866843,4.10795638 C3.83785478,4.93894145 3.43244796,6.01118026 3.43244796,7.35147876 C3.43244796,8.69177726 3.83785478,9.76401606 4.64866843,10.5950011 C5.43245496,11.4259862 6.45948559,11.8280758 7.70273319,11.8280758 Z"></path>
                    </g>
                    <g transform="translate(123.796382, 5.441655)" id="Path">
                        <path d="M21.0443931,6.22131178 L21.0443931,20.5356998 L17.8281656,20.5356998 L17.8281656,18.7128938 C17.2876232,19.3562371 16.6119451,19.8655505 15.8011315,20.2140282 C14.9903178,20.5356998 14.1254499,20.7233416 13.1795007,20.7233416 C11.260575,20.7233416 9.7470562,20.1872222 8.63894421,19.1417893 C7.53083222,18.0695505 6.96326267,16.4879983 6.96326267,14.3971326 L6.96326267,6.22131178 L10.3416529,6.22131178 L10.3416529,13.9414312 C10.3416529,15.2281177 10.6389512,16.1931326 11.2335479,16.80967 C11.8011175,17.4530132 12.6389582,17.7746849 13.7200431,17.7746849 C14.9362636,17.7746849 15.8822128,17.3994013 16.6119451,16.6756401 C17.3146503,15.9250729 17.6660029,14.8528341 17.6660029,13.4589237 L17.6660029,6.22131178 L21.0443931,6.22131178 Z"></path>
                    </g>
                    <g transform="translate(146.705866, 11.468682)" id="Shape">
                        <path d="M6.72975681,0.0334489317 C8.86489942,0.0334489317 10.4865267,0.542762363 11.6216658,1.56138923 C12.7297778,2.55321012 13.2973474,4.08115041 13.2973474,6.11840414 L13.2973474,14.5086728 L10.108147,14.5086728 L10.108147,12.7662847 C9.70274019,13.382822 9.10814352,13.8653295 8.32435699,14.2138071 C7.56759758,14.5354787 6.64867544,14.6963146 5.56759057,14.6963146 C4.4865057,14.6963146 3.54055645,14.5086728 2.72974279,14.1601952 C1.91892914,13.7849116 1.29730534,13.2755981 0.837844275,12.6322549 C0.405410328,11.9621056 0.189193355,11.2383444 0.189193355,10.4073593 C0.189193355,9.12067278 0.675681545,8.10204592 1.64865793,7.32467279 C2.59460719,6.54729966 4.108126,6.14521011 6.18921437,6.14521011 L9.91895717,6.14521011 L9.91895717,5.93076235 C9.91895717,4.93894145 9.62165883,4.16156832 9.00003503,3.62544892 C8.40543835,3.08932952 7.51354333,2.82126982 6.32434998,2.82126982 C5.51353633,2.82126982 4.70272268,2.95529967 3.91893615,3.1965534 C3.13514962,3.43780713 2.4864987,3.78628474 1.94595627,4.24198623 L0.621627302,1.80264296 C1.37838671,1.23971758 2.29730885,0.784016093 3.35136659,0.489150423 C4.40542434,0.194284752 5.54056345,0.0334489317 6.72975681,0.0334489317 Z M6.27029574,12.2569713 C7.10813651,12.2569713 7.86489592,12.0693295 8.51354684,11.6940459 C9.18922488,11.2919564 9.64868595,10.755837 9.91895717,10.0320758 L9.91895717,8.37010562 L6.43245847,8.37010562 C4.4865057,8.37010562 3.51352932,9.0134489 3.51352932,10.2733295 C3.51352932,10.8898668 3.75677342,11.3723743 4.24326161,11.7208519 C4.7297498,12.0693295 5.40542784,12.2569713 6.27029574,12.2569713 Z"></path>
                    </g>
                    <g transform="translate(159.163115, 4.441655)" id="Path">
                        <polygon points="26.0563011 7.22131178 20.7319581 21.5356998 17.4887035 21.5356998 13.7589607 11.6711028 9.9751637 21.5356998 6.7319091 21.5356998 1.43459324 7.22131178 4.6237936 7.22131178 8.43461776 17.782864 12.4076047 7.22131178 15.2454524 7.22131178 19.137358 17.8364759 23.0562906 7.22131178"></polygon>
                    </g>
                    <g transform="translate(179.886118, 1.928141)" id="Path">
                        <polygon points="12.1989525 17.9106462 9.68543016 20.2695715 9.68543016 24.0492133 6.30703994 24.0492133 6.30703994 4.15918352 9.68543016 4.15918352 9.68543016 16.1682581 16.6854547 9.73482529 20.7395229 9.73482529 14.7124748 15.7393626 21.3070925 24.0492133 17.19897 24.0492133"></polygon>
                    </g>
                </g>
                <g id="Group">
                    <path d="M32.4886673,0.278567752 C50.3888453,0.278567752 64.9212263,14.6923581 64.9212263,32.4457447 C64.9212263,50.199453 50.3888453,64.6129216 32.4886673,64.6129216 C14.5888137,64.6129216 0.0561083271,50.199453 0.0561083271,32.4457447 C0.0561083271,14.6923581 14.5888137,0.278567752 32.4886673,0.278567752 Z M32.4886673,5.63987113 C47.4053742,5.63987113 59.5156917,17.651095 59.5156917,32.4457447 C59.5156917,47.2403944 47.4053742,59.2516183 32.4886673,59.2516183 C17.5719605,59.2516183 5.46164294,47.2403944 5.46164294,32.4457447 C5.46164294,17.651095 17.5719605,5.63987113 32.4886673,5.63987113 L32.4886673,5.63987113 Z" id="Shape" fill="#0659A0"></path>
                    <ellipse id="Oval" stroke="#033B76" stroke-width="1.42382812" cx="32.4886673" cy="32.4383462" rx="25.9460472" ry="25.7337416"></ellipse>
                    <path d="M21.850788,34.7617814 C21.850788,34.2840989 21.6594359,33.8260383 21.318894,33.4879612 C20.9783521,33.1502059 20.5161882,32.9604195 20.0345647,32.9604195 L20.0345647,32.9604195 C19.0314256,32.9604195 18.2183414,33.7668507 18.2183414,34.7617814 L18.2183414,39.3938549 C18.2183414,39.8715375 18.4096935,40.3299198 18.7502353,40.6676751 C19.0911015,41.0054305 19.5529412,41.1952168 20.0345647,41.1952168 L20.0345647,41.1952168 C21.0377037,41.1952168 21.850788,40.3887857 21.850788,39.3938549 L21.850788,34.7617814 Z" id="Path" fill="#866EBB"></path>
                    <path d="M46.7482906,25.4969911 C46.7482906,25.0193086 46.5569385,24.5615696 46.2163966,24.2238143 C45.876179,23.8860589 45.4143394,23.6962726 44.9327159,23.6962726 C44.9323916,23.6962726 44.9317429,23.6962726 44.9314186,23.6962726 C44.4497951,23.6962726 43.9879555,23.8860589 43.6477379,24.2238143 C43.307196,24.5615696 43.1158439,25.0193086 43.1158439,25.4969911 C43.1158439,26.8711729 43.1158439,28.7555262 43.1158439,30.129708 C43.1158439,30.6073905 43.307196,31.0657728 43.6477379,31.4035282 C43.9882798,31.7412835 44.4504438,31.9310699 44.9320673,31.9310699 L44.9320673,31.9310699 C45.9352063,31.9310699 46.7482906,31.1246387 46.7482906,30.129708 L46.7482906,25.4969911 L46.7482906,25.4969911 Z" id="Path" fill="#197483"></path>
                    <path d="M28.0778393,35.2764563 C28.0778393,34.2815255 27.2647551,33.4750944 26.261616,33.4750944 C26.261616,33.4750944 26.261616,33.4750944 26.261616,33.4750944 C25.258477,33.4750944 24.4453927,34.2815255 24.4453927,35.2764563 C24.4453927,37.9411852 24.4453927,42.9052239 24.4453927,45.5699529 C24.4453927,46.5648837 25.258477,47.3713148 26.261616,47.3713148 C26.261616,47.3713148 26.261616,47.3713148 26.261616,47.3713148 C27.2647551,47.3713148 28.0778393,46.5648837 28.0778393,45.5699529 C28.0778393,42.9052239 28.0778393,37.9411852 28.0778393,35.2764563 Z" id="Path" fill="#8B3C7A"></path>
                    <path d="M36.8956035,29.3576957 C36.8956035,30.3526265 37.7086877,31.1590576 38.7118268,31.1590576 C38.7118268,31.1590576 38.7118268,31.1590576 38.7118268,31.1590576 C39.7149658,31.1590576 40.5280501,30.3526265 40.5280501,29.3576957 C40.5280501,26.6929668 40.5280501,21.728928 40.5280501,19.0641991 C40.5280501,18.0692683 39.7149658,17.2628372 38.7118268,17.2628372 C38.7118268,17.2628372 38.7118268,17.2628372 38.7118268,17.2628372 C37.7086877,17.2628372 36.8956035,18.0692683 36.8956035,19.0641991 C36.8956035,21.728928 36.8956035,26.6929668 36.8956035,29.3576957 Z" id="Path" fill="#5587C6"></path>
                    <path d="M34.3048906,21.8949107 C34.3048906,21.4172281 34.1135385,20.9591675 33.7729967,20.6210905 C33.4324548,20.2833351 32.9702908,20.0935487 32.4886673,20.0935487 L32.4886673,20.0935487 C31.4855283,20.0935487 30.672444,20.8999799 30.672444,21.8949107 L30.672444,42.4819039 C30.672444,42.9595865 30.8637961,43.4179687 31.204338,43.7557241 C31.5452042,44.0934795 32.0070438,44.2832658 32.4886673,44.2832658 L32.4886673,44.2832658 C33.4918064,44.2832658 34.3048906,43.4768347 34.3048906,42.4819039 L34.3048906,21.8949107 L34.3048906,21.8949107 Z" id="Path" fill="#CC548C"></path>
                    <ellipse id="Oval" fill="#8B3C7A" cx="26.261616" cy="30.6443828" rx="1.8162233" ry="1.80136191"></ellipse>
                    <ellipse id="Oval" fill="#5587C6" cx="38.7118268" cy="33.9897692" rx="1.8162233" ry="1.80136191"></ellipse>
                </g>
            </g>
        </g>
    </g>
</svg>