<?xml version="1.0" encoding="UTF-8"?>
<svg width="149px" height="200px" viewBox="0 0 149 200" version="1.1" xmlns="http://www.w3.org/2000/svg" xmlns:xlink="http://www.w3.org/1999/xlink">
    <!-- Generator: Sketch 54.1 (76490) - https://sketchapp.com -->
    <title>mail-icon</title>
    <desc>Created with Sketch.</desc>
    <g id="Page-1" stroke="none" stroke-width="1" fill="none" fill-rule="evenodd">
        <g id="mail-icon" transform="translate(74.500000, 100.500000) scale(-1, 1) translate(-74.500000, -100.500000) " fill="#DA3581" fill-rule="nonzero">
            <g id="arrow-left" transform="translate(74.500000, 100.500000) rotate(-90.000000) translate(-74.500000, -100.500000) translate(-26.000000, 26.000000)">
                <g id="mail-icon">
                    <path d="M200.079592,1.4 C199.06297,0.206006305 197.432383,-0.266871729 195.934694,0.197959184 L3.75510204,59.2387755 C2.29680247,59.6844411 1.23228392,60.9395364 1.03061224,62.4510204 C0.837822929,63.96321 1.54944959,65.447962 2.84897959,66.244898 L45.0734694,92.277551 L44.5244898,145.077551 C44.5115177,146.550094 45.3337957,147.9029 46.6469388,148.569388 C47.9632175,149.241045 49.5450597,149.117242 50.7408163,148.24898 L78.7061224,127.957143 C80.4530612,126.691837 80.8285714,124.263265 79.5571429,122.534694 C78.275817,120.80264 75.8385576,120.425716 74.0938776,121.689796 L52.4265306,137.410204 L52.9163265,90.1693878 C52.9282874,88.8091893 52.2266339,87.5421857 51.0673469,86.8306122 L14.255102,64.1367347 L189.42449,10.3183673 L124.071429,138.295918 C113.810204,130.95102 84.9020408,110.273469 71.0673469,100.487755 C83.4367347,90.6836735 129.442857,58.3 158.973469,37.8163265 C159.822427,37.2305633 160.401898,36.3296405 160.582829,35.3142042 C160.76376,34.298768 160.531125,33.2531436 159.936735,32.4102041 C158.690153,30.6553278 156.26436,30.2287448 154.493878,31.4530612 C61.0163265,96.2979592 61.0122449,98.3122449 61.0061224,100.863265 C61.0120211,102.149716 61.6372343,103.354561 62.6857143,104.1 C76.2612245,113.628571 122.736735,146.910204 123.206122,147.244898 C124.135035,147.906852 125.304899,148.134573 126.414286,147.869388 C127.523747,147.603785 128.46165,146.866435 128.981633,145.85102 L200.577551,5.65510204 C201.286931,4.26647301 201.090425,2.58731869 200.079592,1.4 L200.079592,1.4 Z" id="Path"></path>
                </g>
            </g>
        </g>
    </g>
</svg>