<?xml version="1.0" encoding="UTF-8"?>
<svg width="29px" height="31px" viewBox="0 0 29 31" version="1.1" xmlns="http://www.w3.org/2000/svg" xmlns:xlink="http://www.w3.org/1999/xlink">
    <!-- Generator: Sketch 54.1 (76490) - https://sketchapp.com -->
    <title>Group 2</title>
    <desc>Created with Sketch.</desc>
    <g id="Page-1" stroke="none" stroke-width="1" fill="none" fill-rule="evenodd">
        <g id="logo" transform="translate(-18.000000, -17.000000)" fill="#FFFFFF" fill-rule="nonzero">
            <g id="Group">
                <g id="Group-2" transform="translate(18.218341, 17.262837)">
                    <path d="M3.6324466,17.4989442 C3.6324466,17.0212617 3.4410945,16.5632011 3.1005526,16.225124 C2.7600107,15.8873687 2.2978468,15.6975823 1.8162233,15.6975823 L1.8162233,15.6975823 C0.8130842,15.6975823 4.61852778e-14,16.5040135 4.61852778e-14,17.4989442 L4.61852778e-14,22.1310177 C4.61852778e-14,22.6087003 0.1913521,23.0670826 0.5318939,23.4048379 C0.8727601,23.7425933 1.3345998,23.9323796 1.8162233,23.9323796 L1.8162233,23.9323796 C2.8193623,23.9323796 3.6324466,23.1259485 3.6324466,22.1310177 L3.6324466,17.4989442 Z" id="Path"></path>
                    <path d="M28.5299492,8.2341539 C28.5299492,7.7564714 28.3385971,7.2987324 27.9980552,6.9609771 C27.6578376,6.6232217 27.195998,6.4334354 26.7143745,6.4334354 C26.7140502,6.4334354 26.7134015,6.4334354 26.7130772,6.4334354 C26.2314537,6.4334354 25.7696141,6.6232217 25.4293965,6.9609771 C25.0888546,7.2987324 24.8975025,7.7564714 24.8975025,8.2341539 C24.8975025,9.6083357 24.8975025,11.492689 24.8975025,12.8668708 C24.8975025,13.3445533 25.0888546,13.8029356 25.4293965,14.140691 C25.7699384,14.4784463 26.2321024,14.6682327 26.7137259,14.6682327 L26.7137259,14.6682327 C27.7168649,14.6682327 28.5299492,13.8618015 28.5299492,12.8668708 L28.5299492,8.2341539 L28.5299492,8.2341539 Z" id="Path"></path>
                    <path d="M9.8594979,18.0136191 C9.8594979,17.0186883 9.0464137,16.2122572 8.0432746,16.2122572 C8.0432746,16.2122572 8.0432746,16.2122572 8.0432746,16.2122572 C7.0401356,16.2122572 6.2270513,17.0186883 6.2270513,18.0136191 C6.2270513,20.678348 6.2270513,25.6423867 6.2270513,28.3071157 C6.2270513,29.3020465 7.0401356,30.1084776 8.0432746,30.1084776 C8.0432746,30.1084776 8.0432746,30.1084776 8.0432746,30.1084776 C9.0464137,30.1084776 9.8594979,29.3020465 9.8594979,28.3071157 C9.8594979,25.6423867 9.8594979,20.678348 9.8594979,18.0136191 Z" id="Path"></path>
                    <path d="M18.6772621,12.0948585 C18.6772621,13.0897893 19.4903463,13.8962204 20.4934854,13.8962204 C20.4934854,13.8962204 20.4934854,13.8962204 20.4934854,13.8962204 C21.4966244,13.8962204 22.3097087,13.0897893 22.3097087,12.0948585 C22.3097087,9.4301296 22.3097087,4.4660908 22.3097087,1.8013619 C22.3097087,0.8064311 21.4966244,-2.84217094e-14 20.4934854,-2.84217094e-14 C20.4934854,-2.84217094e-14 20.4934854,-2.84217094e-14 20.4934854,-2.84217094e-14 C19.4903463,-2.84217094e-14 18.6772621,0.8064311 18.6772621,1.8013619 C18.6772621,4.4660908 18.6772621,9.4301296 18.6772621,12.0948585 Z" id="Path"></path>
                    <path d="M16.0865492,4.6320735 C16.0865492,4.1543909 15.8951971,3.6963303 15.5546553,3.3582533 C15.2141134,3.0204979 14.7519494,2.8307115 14.2703259,2.8307115 L14.2703259,2.8307115 C13.2671869,2.8307115 12.4541026,3.6371427 12.4541026,4.6320735 L12.4541026,25.2190667 C12.4541026,25.6967493 12.6454547,26.1551315 12.9859966,26.4928869 C13.3268628,26.8306423 13.7887024,27.0204286 14.2703259,27.0204286 L14.2703259,27.0204286 C15.273465,27.0204286 16.0865492,26.2139975 16.0865492,25.2190667 L16.0865492,4.6320735 L16.0865492,4.6320735 Z" id="Path"></path>
                    <ellipse id="Oval" cx="8.0432746" cy="13.3815456" rx="1.8162233" ry="1.80136191"></ellipse>
                    <ellipse id="Oval" cx="20.4934854" cy="16.726932" rx="1.8162233" ry="1.80136191"></ellipse>
                </g>
            </g>
        </g>
    </g>
</svg>