<?xml version="1.0" encoding="UTF-8"?>
<svg width="568px" height="620px" viewBox="0 0 568 620" version="1.1" xmlns="http://www.w3.org/2000/svg" xmlns:xlink="http://www.w3.org/1999/xlink">
    <!-- Generator: Sketch 54.1 (76490) - https://sketchapp.com -->
    <title>Shape</title>
    <desc>Created with Sketch.</desc>
    <g id="Page-1" stroke="none" stroke-width="1" fill="none" fill-rule="evenodd">
        <g id="tik-icon" fill="#035AA0" fill-rule="nonzero">
            <path d="M126.000363,384.582394 C126.248361,384.582394 126.615025,384.474395 126.727024,384.598394 C128.263012,386.290381 127.308353,388.349032 127.437685,390.233017 C127.555017,391.951671 129.472336,392.812998 129.037673,394.835649 C127.779016,400.690271 131.422988,406.215562 130.433662,412.06885 C130.140331,413.799504 131.804318,414.511498 132.197649,416.018153 L130.245663,418.579467 C131.414988,420.392787 132.054983,422.60077 132.640312,424.956752 C134.386965,420.244788 137.037612,416.179486 139.260261,411.896852 C141.454911,407.667551 142.337571,402.767588 143.908226,398.200956 C144.805552,395.592976 146.505539,393.344993 147.67753,390.842346 C150.013133,385.853453 152.307416,380.84532 154.560144,375.818461 C156.888127,370.627834 160.004103,365.666538 162.645416,360.541244 C163.690741,358.510593 165.354728,356.630607 164.788066,353.966628 C164.34407,351.878644 166.628052,351.275982 167.392046,349.850659 C170.109359,344.782698 171.984011,339.052075 175.577317,334.738775 C177.826633,332.038795 177.974632,328.673488 180.35328,326.070841 C182.077267,324.184189 183.211925,320.822881 182.654596,317.834904 L184.710581,317.305575 C188.433219,309.094971 194.405173,302.624354 198.214477,294.980412 C200.786458,289.820451 204.0011,284.996488 206.205083,279.691196 C207.695738,276.100556 209.429058,272.847248 212.525035,270.728597 L212.525035,265.841968 C213.415694,265.524637 214.753018,265.464638 215.065015,264.868642 C217.680995,259.866014 221.383634,255.58738 224.306278,250.82075 C229.227574,242.794144 234.391534,234.986204 240.358155,227.680926 C243.900795,223.343626 246.108778,218.082333 249.643418,213.649034 C254.06605,208.101076 257.590023,201.877124 262.476653,196.634497 C266.036626,192.81586 269.323267,188.741224 272.131246,184.286591 C273.160571,182.653271 274.756559,181.339947 276.219214,180.019957 C283.259161,173.668006 288.188456,165.537401 294.408409,158.496122 C294.66974,158.200124 294.565741,157.580129 294.63374,157.112132 C296.85239,155.790809 299.112373,155.105481 301.009692,152.6495 C304.219,148.496198 307.76964,144.222898 312.688269,141.682917 C313.381597,141.324253 313.520263,140.758924 313.88026,140.169595 C317.232234,134.689637 322.302862,130.716334 327.224158,126.925697 C332.316119,123.00306 335.762759,117.648434 340.616056,113.623132 C340.900053,113.387133 340.84672,112.744472 341.020052,111.983144 L344.457359,111.767146 C345.004022,109.289831 348.207997,108.763169 348.578661,106.156522 C352.2413,105.360528 353.503957,101.428558 356.439935,99.9459027 C360.945233,97.6699201 363.339882,93.3019535 367.137186,90.2966431 C375.199791,83.9153586 383.050398,77.2540762 391.173002,70.9261245 C394.388978,68.4208104 397.010291,65.2741677 400.535598,62.9795186 C407.054214,58.7368844 413.168834,53.8702549 419.45412,49.2676234 C427.23406,43.5703336 435.828661,38.9890353 442.971273,32.4570852 C444.552594,31.0104296 446.195249,31.8957562 447.637904,31.0064297 C451.577874,28.5744483 455.747176,26.4904642 459.557813,23.8784842 C464.172444,20.717175 469.757735,19.1838534 474.105702,15.0905513 L479.522994,15.0905513 C481.408313,14.2278912 480.676318,11.7865766 481.697644,11.3732464 C484.253624,9.94925729 486.324275,11.0052492 488.145595,10.4612534 C489.921581,9.93059076 491.398903,8.41860232 493.50822,9.00793115 C493.956217,9.13326352 494.778877,9.17459654 494.921543,8.94259831 C496.732196,5.99862082 499.960171,6.6892822 502.546818,5.68795652 C511.405417,2.25998273 520.457348,0.95465937 529.883942,1.53998823 C532.474589,1.70132033 535.251901,2.21198309 537.16922,0.0306664323 C539.049205,0.385330388 539.678534,1.89198554 541.010524,2.91597771 L548.518466,2.91597771 C550.215787,5.48262476 553.062432,6.55728321 556.445072,8.09193815 C558.333058,10.3012546 558.06906,14.0785591 559.00372,17.9345296 L558.269059,18.7411901 C560.534375,19.9011812 563.211687,20.4998433 562.858357,24.1984817 C562.710358,25.7531365 566.082332,25.383806 566.154332,27.9184533 C566.176998,28.7371137 567.391655,29.8397719 567.004992,32.0917547 L561.053037,39.7623627 C560.615707,40.3250251 559.799714,40.8943541 559.805047,41.4543498 C559.869046,48.0089664 554.233089,48.5702954 550.325119,49.0076254 C543.473172,49.7742862 537.095887,53.4089251 529.993275,52.2462673 C524.46265,55.2902441 518.468029,53.0089282 512.744073,53.7702557 C511.146752,53.9822541 509.749429,51.4769399 508.104109,53.5302575 C507.10545,52.7569301 507.770778,51.6742717 507.353448,50.462281 C512.046745,52.0462688 516.477378,50.503614 520.18935,48.8929596 C523.353995,47.5233414 526.610316,46.3761219 529.934608,45.4596525 C524.202652,44.6956584 518.460029,43.7343324 514.362727,49.2942899 L512.434742,47.5596365 C510.848088,48.3396305 509.2001,49.1516243 507.352114,50.4636143 C505.34813,50.7569454 503.120147,50.7569454 501.426826,50.7569454 C496.841528,52.9062623 492.968224,55.2875774 488.568258,56.8862319 C484.730954,58.2795545 481.160315,60.8008686 477.943006,63.4048487 C474.615031,66.0981614 471.099058,68.1754789 467.115089,69.6234678 C463.016453,71.1127898 460.281808,74.5887632 456.863167,77.0620776 C454.191187,78.9953962 451.927205,81.2527123 448.593897,82.3113709 C446.017917,83.1286979 443.267271,84.5446871 441.527284,86.516672 C439.841964,88.4273241 436.793987,88.6819888 436.00466,91.4606343 C435.892661,91.8539646 435.47533,92.3752939 435.118,92.44996 C429.995372,93.5299518 427.296726,97.7885859 423.439422,101.296559 L420.970108,101.485891 C418.182129,104.059205 415.484817,106.84985 412.471506,109.244498 C409.500862,111.605814 406.179554,113.247134 403.518241,116.339111 C401.164926,119.072423 397.556954,121.492405 393.462318,122.512397 C391.775664,127.893689 385.941042,129.095013 382.374403,132.748319 C382.149071,131.281663 381.091746,130.567002 379.934422,129.919007 C379.146428,130.672335 379.206427,131.484328 379.878422,132.590987 C380.606417,132.644319 381.485076,132.708319 382.37307,132.748319 C380.694416,135.313632 377.281109,136.321625 375.878453,138.746939 C374.238465,141.582918 371.349154,142.561577 369.382502,144.79756 C367.195852,147.284208 365.235867,150.290851 361.578562,151.213511 L361.578562,154.360153 C358.941249,154.260154 359.005248,157.990792 356.690599,157.960126 C353.903954,157.922793 351.915969,160.021444 351.650638,161.502766 C351.170642,164.188078 348.618661,164.424077 347.496003,166.370728 C346.022681,168.924042 342.406708,170.242699 339.300066,172.376016 C337.957409,175.430659 336.916084,179.343963 332.301452,180.711952 C330.87213,181.135949 329.454807,182.890602 328.817479,184.373257 C327.998819,186.281243 326.53883,186.902571 325.144174,188.066563 C321.892199,190.781208 319.514883,194.543846 316.782904,197.881154 C317.704231,200.646466 312.754935,198.969146 313.82426,201.723791 C315.008251,204.770435 310.348287,203.554444 310.564285,206.349089 C310.625618,207.138417 307.398976,207.879744 306.266985,209.525065 C305.852321,210.129061 304.961661,210.499724 304.74833,211.133053 C303.509672,214.810358 299.844367,215.970349 297.412386,218.363664 L297.412386,221.371641 C292.52709,223.172961 290.587105,227.514261 288.461787,231.696896 C284.772482,232.176892 284.22582,235.775531 282.392501,238.020847 C280.343183,240.530162 279.003193,243.611471 277.003208,246.170118 C275.09389,248.612766 272.440577,250.423419 271.197919,253.470063 C270.767256,254.524721 269.641931,255.379381 267.668613,254.707386 C267.660613,258.296692 266.453956,261.262003 265.340631,264.308646 C264.071307,267.78462 259.75134,267.773953 259.300677,271.321926 C256.128701,270.993929 257.910021,274.232571 257.082027,274.691234 C253.258057,276.808551 253.366056,281.361849 250.936741,283.969829 C246.960771,288.236464 245.654115,293.959086 242.115475,298.211054 C239.507495,301.345697 238.631502,306.238993 233.294209,307.656315 C233.815539,311.021623 232.398216,314.128266 230.375565,317.126909 C228.599578,319.760223 224.874274,321.418877 225.912932,325.365513 C225.403603,326.68417 224.296945,326.396172 223.460951,326.58017 C222.356959,329.478815 222.848956,333.266786 218.596988,334.326778 L218.596988,338.790744 C216.281006,341.393391 213.55036,343.905371 213.93969,347.964007 C207.93307,353.523964 205.342423,361.14924 202.147781,368.361184 C201.591785,369.615842 201.555785,371.090497 200.359794,372.090489 C198.641141,373.526478 198.103811,375.649129 197.591815,377.63578 C196.505157,381.849081 196.370491,382.322411 192.631853,386.071716 C192.311856,386.393047 191.675861,386.609045 191.614528,386.950376 C190.359871,393.952989 185.990571,399.531613 183.030593,405.748899 C182.419931,407.031556 184.214584,406.934223 183.86792,407.976882 C183.449257,408.700876 182.63193,408.351545 181.934602,408.431545 C181.670604,408.807542 181.294607,409.154206 181.173274,409.574203 C181.041275,410.032866 181.163941,410.559529 181.139941,411.055525 C180.943943,414.983495 176.665309,416.823481 176.439977,421.110115 C176.269312,424.368756 174.518658,427.790064 171.906678,430.318044 C171.185351,431.016706 170.636021,431.672701 170.681354,432.807358 C170.809353,435.952668 170.028026,438.381983 166.850717,440.172636 C165.508061,440.92863 164.869399,443.892607 164.872065,445.851259 C164.876065,448.940569 163.314744,451.144552 162.084087,453.692532 C160.193435,457.604502 158.325449,461.681804 157.493455,465.895106 C156.978792,468.497752 153.445486,469.104414 154.314813,472.069725 C155.117473,474.813704 152.908157,475.995028 151.497501,477.620349 C151.241503,477.915014 151.560167,478.703008 151.305503,479.005672 C148.802855,481.980316 150.200178,486.370949 147.310866,489.313593 C144.764219,491.90824 144.816219,495.752211 143.592228,498.922853 C142.366904,502.096162 141.21358,505.380137 139.852257,508.53878 C138.486934,511.708089 136.880279,514.773399 135.07496,518.51337 C134.961627,519.924026 135.54429,522.669338 134.434965,524.107994 C132.886977,526.114645 136.86428,527.754633 133.990968,529.551952 C132.204315,530.669277 134.618963,533.918586 132.332314,535.475907 C131.988317,541.223863 131.041657,547.011819 132.993642,552.646443 C130.964325,563.505026 130.997658,574.194278 136.518949,584.554199 L135.09496,586.672849 C135.445624,587.02618 135.796288,587.376844 136.308284,587.88884 L134.873628,589.714159 L138.344268,592.111474 L136.920279,593.434131 C138.988263,599.60075 137.248277,605.863369 138.17627,612.308653 L131.998983,612.308653 C130.188331,613.10598 130.66566,614.296638 130.218997,615.087299 C129.447003,616.125957 128.329678,615.209964 127.639017,615.627294 C124.372375,614.8593 124.648373,612.144654 124.163043,609.911338 C121.511064,610.905997 119.060416,612.071322 117.929758,613.943307 C115.903106,614.313971 115.595109,613.064647 114.340452,612.447319 C115.205778,616.116624 110.061818,616.324622 111.10181,619.875262 C103.589867,619.359266 95.8552597,611.880656 97.5005804,607.143359 L94.9446,606.139367 C94.1272729,604.695378 95.1379318,603.902051 96.037925,603.070057 C95.3859299,600.954073 93.0286146,601.158072 91.7406245,599.911415 L92.9206154,598.731424 C93.108614,596.818105 90.793965,598.519425 90.7206323,597.4941 C89.5966409,596.088777 90.9899635,594.288791 89.4926417,593.206132 L83.696686,599.099421 L80.3820446,599.099421 C80.4673773,601.999399 77.450067,601.963399 76.5714071,603.030057 L73.9500938,601.435403 C73.5874299,599.631417 74.7580876,599.256753 75.2380839,598.434093 C74.7727542,597.400767 73.5860966,597.904763 72.4674385,597.252768 C73.4647642,595.120785 70.3887877,593.504797 72.1114412,590.539486 C73.2980988,588.498168 72.3394394,585.20886 72.3394394,582.478214 C77.5380664,576.231596 78.0020628,568.068991 80.9433737,560.79038 C80.5473767,560.122385 79.7180497,560.547715 79.0327216,560.422383 C76.1660768,554.211764 75.2367506,548.221143 76.5634071,544.557171 C76.0607443,543.734511 75.2327506,544.155841 74.4020903,543.983842 C73.480764,540.421203 71.5234457,536.998562 72.5114381,532.907927 L69.5514607,530.411946 C69.3994619,525.969313 67.9234732,521.865344 66.7688153,517.578711 C67.3754774,517.061381 68.1034718,516.397386 67.8301406,515.158729 C65.0981614,514.097404 63.9155038,511.814755 63.3901745,509.036109 C63.0421772,507.193457 64.2768344,505.03614 62.3461825,503.513485 C60.3448644,501.936163 64.2021683,500.824172 62.6808466,499.401516 C60.9315266,497.765529 62.5661808,495.593545 61.7381871,493.954891 L59.0248745,491.241579 C59.2955391,490.341585 60.6661953,490.11092 60.4168639,488.91493 C60.6568621,486.754946 58.5955445,487.873604 57.8235504,487.062944 C57.310221,483.014975 54.7635738,479.26967 55.3995689,474.139043 L52.63559,472.169724 L54.3929099,470.216406 L53.2449187,469.068415 C52.899588,467.825757 55.3515693,467.640426 53.8729139,465.660441 C48.3396229,464.049786 51.0089358,457.707168 48.9622848,453.404534 L50.2222751,452.031212 L46.8223011,445.343263 L48.3222897,443.549943 C46.755635,440.755298 44.5849849,438.096651 45.7809758,434.410013 L42.6796661,433.334021 L42.4090015,428.424725 C41.7463399,427.275401 39.1570264,428.411392 39.5663566,425.908745 C39.6063563,424.056759 41.7223401,425.414082 42.4623345,424.044759 C40.9356795,423.206099 39.0130275,422.848768 38.0823679,421.071448 L38.0823679,418.315469 C37.5183723,416.807481 35.6010536,417.971472 35.1050574,416.519483 C34.5223952,415.026161 36.0503835,414.484832 36.6063792,413.38484 C36.8210442,411.468855 34.0823985,410.440863 35.0197247,408.094214 C35.8277185,406.071563 33.9183998,405.043571 32.7370755,403.87958 C31.2930865,402.456924 33.1744055,399.718278 30.5050925,398.763619 L33.7117347,395.899641 C29.7904313,392.900997 29.6264326,387.689037 26.3611242,385.374388 C25.7264624,382.93174 26.6477887,381.835748 27.5544484,380.594424 L24.6518039,379.554432 C24.5358048,376.39979 25.1877998,372.915816 22.5824864,370.011838 L19.9505065,369.070512 C21.8104923,363.190557 18.0651876,358.550593 16.3985337,353.501298 C15.8892042,351.958643 17.2078608,351.731978 16.9558628,350.817319 L14.2652167,348.128006 L15.6852058,346.557351 L11.1652403,342.110718 C12.215899,338.297414 9.34792091,335.320104 8.00793115,332.010796 L9.98658269,329.889478 L7.01593873,327.55483 C6.15994527,325.544178 7.99059795,325.125515 7.98526465,323.766859 L5.7986147,323.316195 C4.98662091,322.774866 5.69728214,322.32687 6.28794429,321.709541 C5.66261574,318.120235 1.30264907,314.762927 5.12528651,310.729625 C4.582624,309.788299 3.76263026,310.152296 2.88130367,310.04163 C2.07864313,307.438983 1.28264922,304.940336 2.16264249,301.931026 C2.88530364,299.461711 2.49330663,296.691066 0.151991195,294.453749 L3.62129801,293.255092 L3.62129801,285.436485 C6.53994237,284.39916 9.01592344,281.348516 12.0412337,284.677824 C12.9452267,283.121836 14.431882,283.175169 15.9238706,283.244502 C19.2331787,284.019162 24.8678023,294.263084 26.1517925,301.925692 L29.1451029,303.329681 L27.7331137,304.741671 C31.0024221,306.390991 31.6677503,310.998956 36.1077164,311.285621 C37.0943755,310.361628 36.3050482,309.038971 36.5650462,307.900313 C36.1237162,307.194985 35.0397245,307.364317 34.7637266,307.030987 C33.1717388,305.107001 31.7957493,303.003017 30.4530929,301.111032 C32.0664139,297.692391 33.185072,300.44037 34.4303959,301.027032 L36.5383797,298.920382 C36.0503835,298.384386 35.1543903,297.861723 35.1370571,297.312394 C34.9290587,290.540446 32.6370762,283.92983 33.5797357,277.073882 C33.9490662,274.388569 33.3397375,271.876589 32.0944137,269.49794 C34.3877295,266.92996 31.2170871,264.495312 31.9490815,261.755333 C32.6304096,259.206019 32.0944137,256.331374 32.0944137,253.600728 C32.0944137,250.620751 32.1330801,247.640774 32.0784138,244.66213 C32.050414,243.143475 32.0744139,241.708819 33.5624025,240.803493 L31.7704162,238.842174 C35.0983907,235.134203 34.5970612,229.84491 36.8970437,225.540943 C39.7636884,224.99828 41.1516778,222.512966 43.1969955,220.746313 C45.4783114,223.234294 47.758294,222.231635 49.8902777,220.603647 C52.8249219,221.690306 55.4355686,223.147628 58.2808802,224.15162 C60.3395312,224.876948 63.231509,226.607601 64.0928358,229.547579 C67.6728084,230.030242 68.7528002,233.656881 71.4247798,235.282202 C72.564771,236.040862 74.2807579,234.806205 75.2727503,236.303527 C74.664755,237.64485 72.6381038,236.34086 72.3927724,237.796849 C71.6341115,241.331489 76.3714086,238.772842 76.1700768,241.748819 C75.8287461,246.068786 78.9927219,249.320761 80.2820454,253.256731 L83.7980185,253.667394 C84.7980109,255.068717 84.1646824,255.999377 83.0526909,256.81137 C82.9940247,258.455358 84.2646816,257.695364 84.9980093,257.939362 C86.6859964,259.85268 86.6126637,262.792658 88.7006477,264.575311 L88.7006477,270.437933 C89.795306,271.809922 90.9406306,273.01258 92.6726173,273.117912 L95.9125926,279.759195 C95.8485931,280.417857 94.1059397,280.86852 94.6979352,282.292509 C96.6472536,282.772505 98.649905,282.668506 100.167227,282.004511 C101.168552,283.049837 100.375225,284.36316 100.744556,285.701816 L103.21787,286.559143 C103.877865,287.159138 103.620534,287.880466 103.515201,288.617794 C102.140545,289.949784 102.34721,287.435136 100.976554,288.305796 C100.587224,288.849792 98.8179037,289.375121 99.1672344,291.248441 C100.115227,292.665763 100.792555,292.629763 104.649859,290.953776 C105.592519,292.024435 104.921857,293.296425 105.089856,294.464416 C103.792532,295.465742 101.89788,295.529741 100.964554,297.096396 L103.929865,305.215 L106.615177,306.148327 C106.063182,307.648315 104.175196,306.482991 103.600534,308.410976 L111.439141,308.410976 C109.909819,311.900283 113.736456,313.918934 112.041803,317.712238 C111.848471,318.185568 110.277816,316.793579 109.70982,318.642898 L109.784487,320.352218 L113.472458,320.601549 C113.74979,322.912198 116.752433,324.354854 115.393777,327.198832 C115.003113,328.506822 113.081795,327.336165 112.584465,329.041485 C113.29246,331.300134 113.972455,333.845448 117.096431,334.612109 C115.680441,336.058765 113.925788,334.838774 112.492466,335.830766 C114.243119,337.973417 116.855099,335.892099 118.427087,337.52542 C118.736418,338.914743 118.50042,339.673404 116.785766,339.957402 C115.279111,340.206733 114.357785,342.012052 111.367141,341.329391 C114.581783,343.554707 116.263104,343.21471 117.67376,341.49739 C120.923068,343.040045 119.841743,345.853356 120.068408,348.452003 L117.591094,348.982666 C116.472435,349.905325 117.308429,351.249315 117.036431,352.389307 C118.797751,354.211959 120.124408,356.539941 123.027052,356.690607 C122.325724,358.438594 120.103074,356.857272 120.061741,358.969256 C119.773744,362.073232 124.139043,360.245246 124.512374,363.993218 C123.125718,370.246503 126.612358,377.265116 126.000363,384.582394 C124.96837,384.545061 124.472374,385.041057 124.507041,386.075716 C123.78838,385.951717 123.337716,386.279714 123.183051,386.961042 C123.156384,387.075708 123.505715,387.425039 123.621714,387.399706 C124.303042,387.246373 124.63104,386.794377 124.507041,386.075716 C125.541699,386.110382 126.039029,385.613053 126.000363,384.582394 L126.000363,384.582394 Z M439.692632,68.8834735 C441.461951,68.3754774 442.791275,69.3208035 443.369937,67.7528155 C442.339278,66.7568231 441.391285,66.8821555 440.496625,68.6474753 C439.780631,68.5194763 439.329968,68.8488071 439.176636,69.5288019 C439.149969,69.6434677 439.4993,69.9927983 439.615299,69.9674652 C440.295294,69.814133 440.623291,69.3621365 439.692632,68.8834735 Z M430.879366,75.8500869 C429.110046,76.358083 427.780723,75.4127569 427.20206,76.9807449 C428.232719,77.9767373 429.180712,77.8514049 430.068705,76.0927517 C431.19803,75.8687534 432.922017,76.8314127 433.048682,74.2874322 C434.519338,74.1967662 436.332657,75.4727565 437.443315,73.8621021 C437.624647,72.7114442 437.601981,71.8047845 435.927327,71.5727863 C434.595337,71.4594538 434.123341,73.1101078 433.051349,74.6020964 C431.920691,74.8260947 430.196704,73.8634354 430.879366,75.8500869 L430.879366,75.8500869 Z M410.682187,91.0473041 L413.182168,90.8646388 C413.854162,89.7579806 413.914162,88.9459868 413.126168,88.1926592 C411.968843,88.8406543 410.912852,89.5553155 410.69152,90.9966378 C408.462204,91.1233035 409.424863,92.8472903 409.200865,94.0792809 C406.367553,93.2846203 404.232903,95.0366069 401.876921,96.0752656 C401.860921,97.8445855 401.274259,99.7019046 402.612915,101.773889 L403.735573,98.6192462 C405.42356,97.8312522 407.627543,99.4192401 409.200865,97.7019199 L409.200865,93.976615 C411.431514,93.848616 410.467522,92.1246292 410.682187,91.0473041 L410.682187,91.0473041 Z M479.190996,47.9676334 C480.178989,47.3983044 481.548312,48.4676295 480.854984,48.0889658 L480.141656,44.6329922 L479.398995,45.135655 C479.334995,46.014315 479.270996,46.8929749 479.741659,47.6449692 C477.817673,48.1182989 476.07902,46.9609744 474.715031,48.803627 C475.500358,48.9809589 476.13102,49.2009573 476.773681,49.2476236 C477.676341,49.3156231 478.656334,49.4676219 479.190996,47.9676334 L479.190996,47.9676334 Z M75.3154167,400.968935 C75.4434157,400.254274 75.1140849,399.802277 74.4327568,399.648945 C74.3167576,399.622279 73.9687603,399.971609 73.9940934,400.087609 C74.1474256,400.768937 74.5994222,401.096934 76.0300779,400.598271 C75.0234189,402.950253 74.8540869,404.903572 76.2594095,407.33822 C76.9567375,404.848906 77.2074022,402.894254 75.3154167,400.968935 Z M72.3421061,386.071716 C72.1594408,384.921058 73.2860989,384.62906 73.7594286,383.879732 C71.8407766,383.370403 73.3674316,380.193094 70.8514508,380.110428 C70.5234533,378.686439 72.7354364,378.497107 72.1674407,376.458456 L70.9781165,374.758469 C71.8701097,373.941142 72.8727687,373.162481 72.086108,371.615826 L69.2407964,370.545168 C70.5354532,365.355874 67.340811,360.551911 67.5874758,355.290618 C67.5941424,355.138619 66.8008151,354.949287 66.4261513,354.995953 C66.1248203,352.822637 66.9234808,350.713319 65.7741563,348.754668 C64.5648322,349.603994 64.770164,350.666653 64.939496,351.505313 C65.2088273,352.83997 63.5475066,353.165301 63.6701724,354.51729 C64.3355006,354.633289 64.9941622,354.746622 66.3808183,354.777288 C66.7074825,356.202611 64.4888328,356.397276 65.0901615,358.51726 C66.5234839,359.009256 66.6728161,360.753243 66.3408186,362.41323 C65.4061591,367.087861 68.3328034,371.229163 68.0728054,375.87446 C68.0101392,377.002452 68.6794674,379.521099 70.8514508,380.111761 C70.7927846,382.031747 71.310114,384.070398 68.8007998,386.073049 C70.5807862,386.073049 71.4607795,386.073049 72.354106,386.023716 C74.095426,389.211692 70.691452,391.799672 70.9221169,394.678317 C73.6154297,395.595643 74.2420916,393.675658 75.890079,391.987671 C72.6821035,391.031678 74.7087547,387.917035 72.3421061,386.071716 L72.3421061,386.071716 Z M282.177836,215.765017 L275.007224,222.91163 L275.007224,224.342285 C269.587265,227.428928 267.136617,232.638222 264.256639,237.752849 C267.764612,239.842167 269.661931,236.878189 272.157912,236.319527 L272.157912,231.703562 C274.059231,230.674237 274.833892,229.904909 275.829884,228.104923 C276.977875,227.836925 278.288532,228.626252 279.356524,227.534261 L279.743187,224.092954 C281.647173,223.502292 283.461826,222.923629 283.996488,220.744979 C284.69915,218.431664 281.797838,217.005008 282.505833,214.690359 C285.929807,215.479686 286.7658,211.010387 289.84711,211.081053 C289.652445,209.782397 290.844436,208.182409 288.883118,207.170416 C285.373811,207.174416 285.989806,212.369043 282.507166,212.514376 C282.4965,212.514376 282.505833,212.974372 282.505833,213.219704 C282.505833,213.709033 282.505833,214.198363 282.177836,215.765017 L282.177836,215.765017 Z M106.783176,490.332252 C108.680495,486.881612 107.933834,484.88296 108.085833,482.972308 C108.223165,481.246988 107.393838,478.667008 108.252498,477.92568 C110.61248,475.888363 107.928501,474.653705 108.0325,473.041718 C108.948493,458.987158 105.661851,445.063265 106.612511,430.991372 C106.69651,429.756715 107.147173,428.039395 106.531178,427.3554 C104.183196,424.750087 104.948524,421.668777 105.285854,418.978131 C105.707184,415.62349 104.083197,412.916844 103.491201,409.931533 C103.119204,408.059548 105.040523,407.268887 104.248529,404.950238 C102.613875,400.167608 102.680541,394.854315 101.036553,389.906353 C100.763222,389.081026 103.041871,386.44638 102.029879,385.598386 C99.6338975,383.586401 101.684548,380.74509 100.12056,378.859771 C98.1005759,376.425123 100.053894,373.485145 99.0925683,371.09183 C97.3125819,366.663864 98.3192409,361.773235 96.2739232,357.371935 C94.8832671,354.378625 94.3379379,351.03865 94.6552689,347.606676 C94.8792671,345.189362 94.6979352,342.73338 94.6979352,340.418731 L92.0672886,339.472072 C91.0886295,337.706752 92.3846195,337.054757 92.9672818,336.412095 C91.8352904,333.976114 90.7726319,331.576132 88.359317,329.893478 L88.359317,322.057538 C87.2913251,321.892206 86.4633315,322.313536 86.0566679,321.44421 C84.5553461,318.090902 86.9246613,314.457596 84.5686793,310.838957 C82.2246972,307.238985 80.2260458,303.04035 81.3140375,298.540385 C79.8913817,298.019055 78.7420572,298.403052 78.2433943,297.01773 L78.2433943,292.181767 C74.7900874,287.33247 73.4954306,282.375175 71.8781096,277.561878 C71.1061155,277.048549 69.8954581,277.576545 69.3581289,276.465887 C69.2461297,274.816566 69.1101308,273.119246 70.7687848,271.977921 C69.1154641,270.803263 66.420818,270.925929 66.3248187,267.941952 C66.2834857,266.655295 65.0648284,266.761961 63.8275045,266.965959 C63.3155084,268.957944 63.2835086,270.796597 64.106169,273.025913 C64.6954979,274.620568 62.7915124,276.789884 63.4448407,278.775203 C64.0261696,280.541856 65.0741616,282.024511 65.0181621,284.131162 C64.9701624,285.935148 66.3221521,287.7698 64.8848297,289.59112 C67.6074756,296.120403 68.1074718,302.971018 67.8928067,309.938964 C67.864807,310.862957 67.4168104,311.970949 68.3074702,312.724276 C70.1794559,314.305598 69.2847961,316.413581 69.2807961,318.250901 C69.2754628,320.262885 71.0527826,321.445543 70.9447834,323.592193 C70.6594523,329.297483 72.6394371,334.726775 73.9967601,340.170733 C74.4367567,341.933386 75.4754155,343.577374 75.3247499,345.549359 C74.9927525,349.897326 75.3940827,354.149293 77.7953977,357.905264 C78.4273929,358.893257 78.3367269,359.78525 78.2673941,360.682576 C77.6353989,368.858514 81.0060399,376.285124 82.5646946,383.965065 L81.4060368,385.453054 L84.262015,388.309032 C84.262015,391.227676 83.4486878,394.530318 84.4900132,397.074298 C85.5340052,399.623612 85.6873374,402.562256 87.401991,404.780906 C88.1766517,405.783565 88.9046461,406.591559 88.7486473,407.968882 C88.0113196,414.519498 92.4166193,420.271454 91.713958,426.826071 C94.7379349,428.604724 92.4099527,432.148697 94.4632703,434.707344 C96.1499241,436.807328 94.0179404,440.521966 95.9352591,443.728608 C97.2419158,445.912592 96.1845905,449.509897 96.1845905,452.28721 C97.168583,453.859198 99.2325672,454.400527 99.1965675,456.437845 L97.8019115,458.621828 L100.721889,459.65782 L99.1165681,461.425806 C100.249893,462.084468 100.763222,463.025794 100.705889,464.433783 C100.660556,465.580441 100.157893,466.903098 100.880555,468.283087 L103.760533,470.168406 L103.760533,479.341669 L106.77651,482.357646 C106.783176,484.258965 106.783176,486.424282 106.783176,490.332252 L106.783176,490.332252 Z M231.271558,296.593733 C232.218217,296.281735 233.796872,297.356394 234.828864,295.72174 L231.112893,294.375083 L237.814175,288.928458 C237.716842,285.465818 238.539502,283.383167 240.855485,281.684514 C243.119467,280.024526 242.73547,276.773884 244.124793,274.727233 L250.090081,271.987254 L246.976771,270.852596 L248.93809,266.891293 L250.604744,268.291283 C251.942067,263.932649 252.327397,259.258018 256.736697,256.350041 C257.587357,256.151375 258.903347,256.943369 259.896672,255.935377 C261.179329,254.314056 258.707348,253.646061 259.051346,252.295405 C264.576637,249.07143 267.959278,242.619479 265.405964,240.066165 L261.98599,240.066165 C262.181988,243.168808 258.524683,243.495472 257.58469,245.267459 C256.267367,247.752773 253.982051,249.123429 252.587395,251.586077 C253.478055,254.095391 250.992741,255.667379 250.474078,257.920695 C249.479419,257.875362 248.419427,257.675364 248.222095,259.210019 C248.616759,261.062005 251.04874,262.652659 249.314087,265.012641 C247.118104,263.967316 244.615456,264.635311 243.908795,266.364631 C242.311474,270.272601 238.443503,271.897922 236.304853,275.255229 C236.507518,280.905853 231.608889,283.655165 229.091575,286.764475 C228.638245,288.588461 229.304906,289.660453 228.382247,290.427113 C224.49961,292.511098 223.11962,294.651081 220.50364,302.616354 C219.786312,302.63902 219.007652,302.469688 218.267657,303.688345 L218.267657,309.6563 L215.231681,310.452294 C217.794328,314.340264 212.855699,315.236257 212.070371,318.3469 C211.467709,320.730882 206.861078,320.960213 206.894411,324.664185 C207.787737,325.246847 208.207734,326.065508 207.734405,328.086826 L203.779768,331.385467 C203.250439,333.14012 204.037099,334.506777 202.734443,335.40277 C200.757125,335.180105 200.161129,336.689427 199.407802,337.316088 C199.537134,338.613412 201.042456,338.654745 199.967797,339.70407 C199.217136,340.021401 198.061145,339.624071 197.517149,340.804062 L197.517149,345.074696 C193.614512,348.690668 193.189182,353.777296 190.546536,359.810583 L187.039896,362.633228 L187.039896,367.563857 C185.537241,368.378518 183.210592,368.598516 182.949261,370.238503 C181.873269,376.979785 176.361311,382.02508 176.52131,388.807695 L173.730664,389.385024 L173.730664,394.438318 C170.173358,395.271645 170.188025,398.827618 167.765377,400.200941 C168.545371,401.072934 168.860035,401.423598 169.168033,401.778262 C166.368054,404.263577 166.493386,408.107547 164.870732,411.179524 C163.281411,414.188834 162.326752,417.555475 161.61209,421.016782 C160.930762,424.316757 156.80546,426.262075 157.069458,430.268711 L152.829491,434.508679 C152.829491,435.964668 153.40682,437.816654 152.733492,438.873979 C148.946854,444.833933 147.565531,451.651214 145.350881,458.173831 C145.242882,458.492496 144.769552,458.687161 144.469555,458.937825 L143.390896,457.859167 C140.920249,462.244467 140.920249,462.244467 140.750917,467.825757 C137.968271,468.309754 138.454934,471.607062 136.340284,473.317716 C136.761614,475.83503 135.669622,478.673675 136.996279,480.269662 C135.241625,482.448312 133.816303,484.218966 133.330973,486.653614 C135.980286,488.374934 137.676273,487.214943 139.465593,485.072292 L139.465593,479.007005 C141.620243,477.756348 142.03624,475.453699 143.532229,474.011044 C145.966877,471.661728 147.438865,469.759076 146.593539,468.76175 C145.170883,467.08443 147.538865,465.201778 145.772211,463.932454 C146.642871,462.267133 148.748189,462.532465 149.84818,461.255141 C149.290851,457.332504 152.017497,454.052529 151.456168,450.413891 L154.28148,449.828562 L154.28148,443.336611 L157.197457,442.139287 C157.33479,437.87532 158.021451,433.795351 161.23076,430.459376 C162.278752,429.370051 162.860081,427.647398 163.214745,426.112743 C164.317403,421.344779 166.264055,416.966146 168.616037,412.702179 C169.829361,410.502196 171.085351,408.24088 170.886686,405.750232 C172.12401,405.332902 173.268001,405.703566 173.761331,404.275577 L173.761331,402.840921 C174.163994,400.167608 176.374644,401.864928 176.46131,400.004943 C175.742649,399.350281 174.951988,398.723619 175.469318,396.332971 C175.779982,396.096972 177.881299,395.292979 177.973299,394.302319 C178.490628,388.714362 182.766595,384.815725 184.111918,379.675765 C184.538582,378.043777 186.367901,379.142435 187.137229,377.733113 C186.185236,374.499804 188.837216,371.745159 188.971881,368.510517 C190.286538,367.630523 192.085191,369.022513 193.070517,367.390525 C192.913184,363.491888 193.953177,359.885249 196.314492,356.838606 C198.447809,354.08396 199.189137,351.009317 199.225136,347.889341 C201.531785,345.582692 204.146432,343.774706 205.602421,341.288058 C207.085076,338.757411 206.929077,335.172105 210.714382,334.89344 C211.397043,333.076121 210.377051,331.285468 211.461043,329.67748 C211.965039,327.632162 215.419679,328.961486 215.482345,326.264173 L214.165022,324.021523 C214.654352,323.16153 215.483679,323.589527 216.18634,323.477527 C217.50633,321.289544 218.542322,318.982895 218.78232,316.358915 C220.615639,316.222916 221.804964,315.106925 222.836956,313.760268 C222.270293,313.021607 221.184968,312.594944 221.526299,310.657625 C223.102287,309.702966 225.920932,309.22297 226.310263,306.058994 C226.451595,304.909669 228.091582,303.93101 229.766236,303.883011 C230.448898,303.863011 230.470231,303.236349 229.856902,302.881685 C229.096908,302.395022 227.89825,302.929685 227.414254,301.821693 C229.123574,300.45637 228.899576,297.696391 231.271558,296.593733 L231.271558,296.593733 Z M356.703933,144.694894 C356.821265,142.008248 358.446586,140.765591 359.922575,139.604266 C361.546562,138.326943 361.626562,136.774955 361.549229,135.009635 C361.541229,134.832303 362.163891,134.628304 362.477222,134.446972 C363.638546,135.040301 362.166557,137.250951 364.463873,137.172285 C367.90118,136.840287 367.857181,132.509654 370.60516,131.254997 C373.798469,129.797675 375.054459,127.161695 375.285124,123.856387 L378.658431,123.856387 C380.909081,120.876409 384.749052,119.132423 385.881043,114.804456 L390.421008,114.804456 C392.427659,113.603132 392.514325,111.721813 393.500985,110.419156 C394.644976,110.077825 395.959632,110.871153 397.006291,109.900493 C396.662294,106.559186 400.714263,103.621875 398.226282,100.409899 C394.94364,100.933895 393.203654,103.34721 391.129003,105.333862 C389.887679,106.523186 388.769021,107.904509 387.357032,108.841835 C381.726408,112.583139 376.575781,116.86844 371.761151,121.612404 C370.637159,122.719062 370.882491,124.952378 369.687833,125.144377 C365.194534,125.865705 364.894537,129.739008 363.815878,132.51632 C361.995892,133.341647 361.646561,131.30033 360.203906,131.610994 L359.847909,135.404298 C357.318595,135.461631 355.123945,136.805621 352.837295,137.700281 C352.097301,139.434934 351.377307,141.122921 350.662645,142.813575 C348.661327,143.956233 346.185346,144.125565 344.505359,145.960218 C342.997371,147.606872 340.628055,148.876195 339.956061,150.778848 C339.026734,153.406827 335.73076,153.400161 335.288096,155.402812 C334.638768,158.340123 331.30946,157.924126 330.550799,160.045443 C329.769472,162.23076 328.993478,164.03608 326.350831,164.142745 C326.324165,166.55206 323.828184,167.668052 322.55086,169.782702 L329.680139,169.782702 C334.525435,164.714741 335.977424,156.266806 344.932023,156.405471 C344.454693,153.790824 347.04934,153.896157 348.009332,152.650833 L345.086688,149.881521 L347.292004,147.676205 L350.374648,150.556183 L352.509298,148.421532 L351.091975,146.825544 C353.183959,147.009543 354.043953,144.382896 356.703933,144.694894 L356.703933,144.694894 Z M49.0289509,278.029875 C54.8075734,279.292532 51.4129327,284.683157 54.38091,287.043139 C52.6049236,288.505795 52.2769261,290.181782 53.5382498,292.024435 L55.6382338,292.455098 C55.775566,293.823087 53.8595807,294.200418 54.6769078,296.088404 C55.8928985,296.283069 56.1848962,299.64571 59.4382047,296.999063 C56.386228,294.523082 57.5582191,291.033775 57.4608865,287.749801 C57.3595539,284.352493 57.43822,280.948519 57.43822,277.880543 C58.6568773,277.035216 59.8635348,277.577878 60.4035307,276.501887 C58.7262101,275.732559 56.8755576,275.169897 56.2262293,273.873907 C55.2302369,269.855271 56.5142271,266.40063 54.7475739,262.688659 C53.4169174,259.89268 57.2408882,256.134042 55.6795668,252.398071 C53.8595807,251.400745 53.1809192,247.986105 50.0916095,249.330094 C49.5782801,251.696743 52.7289227,253.318064 51.3555998,254.866052 C49.375615,257.096702 51.6835973,258.579357 51.5262652,260.41001 C51.3595998,262.344661 50.8209372,264.933975 51.7995964,266.133966 C53.7195817,268.489948 50.2742748,269.697939 51.3609331,271.824589 C52.2302598,273.525909 51.3249334,275.540561 49.0289509,278.029875 Z M61.8715194,334.526776 C62.0715179,338.685411 61.2555241,342.840046 63.4315075,346.610684 C63.7661716,347.19068 64.1275022,347.309345 64.3848336,347.07468 L66.0568208,343.544041 L63.3981744,338.649412 C63.3981744,335.934766 63.4328408,333.22012 63.3875079,330.506807 C63.3515081,328.322824 64.0341696,325.476179 62.9288447,324.117523 C61.4288562,322.273537 62.9928442,319.486891 60.5235297,318.3709 C62.8261788,316.769579 60.1115329,315.33359 60.3408645,313.716269 C60.6488621,311.538952 60.4448637,309.284303 60.3928641,307.06432 C60.3835308,306.640323 60.0608666,306.224326 59.880868,305.805663 L57.8528835,305.283 C56.6475594,304.177675 58.2928801,302.327022 56.2768955,300.848367 C56.5488935,303.077683 54.6315748,304.045676 54.3622435,306.461658 L57.0902227,308.270977 C58.0462153,313.449604 56.5275603,317.87357 58.2648803,322.100205 C59.9275343,326.14684 57.4648865,331.401467 61.8715194,334.526776 L61.8715194,334.526776 Z M121.564397,431.210037 C124.299042,437.861987 122.184392,444.079272 123.443049,450.783221 C127.919015,444.127272 124.861705,437.129992 126.428359,430.85804 C127.787016,431.286037 128.47501,433.630019 129.910999,432.104697 C130.652327,431.142038 130.534995,430.46871 130.165664,429.654049 C128.251012,428.450058 125.272368,430.548709 123.176384,427.598065 C124.541707,430.112712 121.59373,430.434043 121.564397,431.210037 Z M293.608415,208.697071 C296.129729,206.735753 298.335045,204.261105 298.753709,201.250462 C299.231039,197.810488 300.675027,196.629164 303.89367,196.751829 C304.589664,196.778496 305.009661,195.951836 304.677664,194.121183 C304.168334,193.471855 301.832352,194.018517 301.211023,192.486529 L294.395075,199.077145 L294.395075,201.910457 C293.773747,203.323779 291.844428,202.147788 291.377765,204.159773 C292.020427,205.470429 292.825754,207.106417 293.608415,208.697071 Z M123.484382,518.728035 C124.937399,517.412152 126.390721,516.096607 127.844349,514.781399 C126.417693,511.402758 128.46701,508.642779 129.059006,505.880133 C127.449685,504.985473 126.261694,505.304138 124.483041,505.520136 C125.400367,509.916102 121.551063,513.885405 123.484382,518.728035 L123.484382,518.728035 Z M312.922934,177.577309 C310.910949,179.454628 309.633626,181.586612 309.261629,184.00526 L311.556278,186.381242 C313.584262,184.93192 313.942926,181.85861 316.561573,181.254615 L316.561573,177.577309 L312.922934,177.577309 L312.922934,177.577309 Z M126.088362,389.818354 C124.743039,388.539697 123.136384,388.730362 122.337724,389.165025 C120.547071,390.142351 120.236407,387.001042 118.744418,388.069034 L118.744418,396.159639 L119.891076,395.238312 L120.541738,398.111624 C123.588381,395.162313 119.261747,393.508992 120.175074,391.130344 C121.796395,389.679688 124.020378,391.343675 126.088362,389.818354 L126.088362,389.818354 Z M115.372444,356.309277 C116.221771,352.769304 113.74179,350.390655 113.331126,347.52001 C112.549799,353.423965 112.549799,353.423965 115.372444,356.309277 Z M121.779062,415.634156 L123.019052,415.63949 C123.019052,413.724838 123.151051,411.796852 122.981719,409.896867 C122.812387,407.994215 123.683047,405.875564 121.779062,403.128919 L121.779062,415.634156 L121.779062,415.634156 Z M124.279042,427.539399 L124.279042,416.464817 L121.461731,421.77011 L124.279042,427.539399 Z M32.3237453,315.124258 L32.3237453,318.886896 L36.3437146,316.933578 L36.3437146,313.172273 L32.3237453,315.124258 Z M321.118871,173.497341 C319.93088,172.512015 318.66289,172.969345 317.538899,173.044011 C316.993569,173.08001 316.54424,174.037336 315.980244,174.489333 C315.468248,174.898663 315.305582,175.189328 315.814912,175.72399 C317.452233,176.042654 319.264219,176.18532 321.118871,175.607991 L321.118871,173.497341 Z M451.819206,61.3581977 L447.025909,63.5061813 C450.063219,64.3595081 451.856539,64.4208409 453.712524,63.802179 C453.181862,62.3715233 452.344535,61.4568636 451.819206,61.3581977 L451.819206,61.3581977 Z M117.17243,366.157201 C116.524435,364.837211 118.048423,363.146558 115.329777,362.017233 C115.948439,364.306549 114.979114,366.119868 116.020439,367.941188 C117.419095,368.13052 118.836417,368.767848 119.948409,367.550524 C119.551079,366.263867 118.291088,366.993195 117.17243,366.157201 L117.17243,366.157201 Z M122.335057,372.390487 C122.908386,370.529168 123.595048,368.635849 122.089726,366.2652 C121.311065,368.783848 121.277732,370.599834 122.335057,372.390487 Z M120.247073,377.125117 C119.444413,375.88646 118.920417,375.231799 118.571086,374.493138 C118.277755,373.873142 118.853751,372.519819 117.271096,373.142481 C117.147097,374.534471 116.461769,375.957126 117.788425,377.125117 L120.247073,377.125117 L120.247073,377.125117 Z M111.09381,328.676154 C110.088484,327.617496 109.095158,327.588163 108.107166,328.724154 C108.216499,329.406816 107.793835,330.217476 108.692495,330.728139 C110.544481,331.3788 111.276475,330.597473 111.09381,328.676154 L111.09381,328.676154 Z M79.9140482,427.223401 L83.1326903,425.731413 C81.6407017,424.596755 80.8180413,424.546088 79.9140482,425.404748 L79.9140482,427.223401 L79.9140482,427.223401 Z M86.4513316,449.103234 C88.144652,445.135264 86.3673322,445.596594 84.4686801,445.929925 L86.4513316,449.103234 Z M486.589606,45.3729865 L483.370964,46.8649751 C484.862953,47.9996331 485.68428,48.0502994 486.589606,47.190306 L486.589606,45.3729865 L486.589606,45.3729865 Z M419.304787,85.4753467 C418.58746,85.8513438 417.320803,84.0020246 416.860806,86.0366757 C417.760799,86.7553369 418.586126,86.8060032 419.304787,85.4753467 Z M93.5352774,458.619161 C94.2606052,458.31383 95.464596,460.11115 95.9992586,458.119165 C95.1405985,457.324504 94.3166048,457.375171 93.5352774,458.619161 Z M414.418158,92.4939597 C413.723497,92.9832893 413.723497,93.4792855 414.418158,93.9686151 C415.112819,93.4792855 415.112819,92.981956 414.418158,92.4939597 Z M123.76438,380.098428 C124.460374,379.614432 124.460374,379.117102 123.76438,378.634439 C123.069718,379.117102 123.069718,379.614432 123.76438,380.098428 Z M186.366568,380.123761 C185.670573,380.607757 185.670573,381.105087 186.366568,381.58775 C187.062563,381.105087 187.062563,380.607757 186.366568,380.123761 Z M122.275058,383.078405 C122.971052,382.594409 122.971052,382.098413 122.275058,381.614416 C121.579063,382.098413 121.579063,382.594409 122.275058,383.078405 Z M128.236346,420.335454 C128.93234,419.851458 128.93234,419.354128 128.236346,418.871465 C127.541684,419.355461 127.541684,419.851458 128.236346,420.335454 Z" id="Shape"></path>
        </g>
    </g>
</svg>